<svg width="365" height="273" viewBox="0 0 365 273" fill="none" xmlns="http://www.w3.org/2000/svg">
<g clip-path="url(#clip0_42_6566)">
<mask id="path-1-inside-1_42_6566" fill="white">
<path d="M60.5382 64.9326C68.5812 63.4106 76.6985 62.188 84.8531 61.1151C93.0076 60.0422 101.041 59.1585 109.307 58.5347C113.421 58.148 117.573 57.9109 121.603 57.863C125.634 57.8151 129.823 57.7278 133.89 57.8296C137.92 57.7817 142.025 58.0333 146.092 58.1351L152.249 58.5124L155.328 58.701L158.407 58.8896C166.494 59.5818 174.657 60.5734 182.735 61.9038C190.813 63.2343 198.844 65.0533 206.595 67.1008C214.505 69.1089 222.209 71.645 229.829 74.5199C231.713 75.3234 233.718 75.9377 235.444 76.7806L241.058 79.0412C242.942 79.8446 244.667 80.6875 246.551 81.4909C247.493 81.8926 248.435 82.2944 249.218 82.7355L251.923 84.1298C255.569 85.9258 259.057 87.7612 262.582 89.7464C264.345 90.739 266.107 91.7315 267.711 92.7635C268.532 93.3544 269.474 93.7561 270.294 94.347L272.877 95.9304C274.481 96.9624 276.281 98.1047 277.885 99.1367L282.771 102.532C284.412 103.714 286.053 104.895 287.694 106.077L290.155 107.85L292.458 109.662C298.705 114.467 304.71 119.651 310.592 125.024L314.797 129.066C316.317 130.437 317.519 131.887 319.039 133.257C321.919 136.039 324.483 138.898 327.242 141.869C328.603 143.279 329.843 144.878 331.204 146.289L333.068 148.369L334.037 149.558L335.976 151.938C335.976 151.938 336.712 152.867 337.56 154.246C338.064 154.916 338.604 155.735 339.303 156.515C339.844 157.335 340.58 158.264 341.158 159.233C342.276 161.022 343.553 162.771 344.401 164.15C344.299 163.063 344.234 162.125 344.291 160.998C344.199 159.272 344.107 157.547 344.174 155.782C344.174 155.782 344.401 151.274 344.983 146.838C345.564 142.402 346.342 138.076 346.453 138.525C347.258 134.987 348.212 132.047 348.931 131.551C349.37 131.283 349.603 131.543 349.742 132.78C349.843 133.867 349.973 135.743 350.008 138.595C350.155 141.897 350.17 146.026 350.476 149.288C350.585 152.44 350.863 154.914 350.863 154.914C350.834 156.829 350.963 158.704 350.934 160.619C351.034 164.409 351.488 168.27 351.942 172.131L352.119 173.518L352.444 175.503C352.508 176.441 352.769 177.489 352.992 178.387C353.215 179.285 353.476 180.333 353.577 181.421L356.433 193.587L356.767 194.934L356.842 195.233L356.879 195.383L356.916 195.533L356.254 194.903L353.458 191.783L350.503 188.702L349.104 187.142L347.781 185.882C346.886 184.991 345.954 183.951 345.17 183.51C344.35 182.919 343.492 182.179 342.671 181.588C342.243 181.218 341.851 180.997 341.422 180.627L340.797 180.146L339.585 179.335C333.132 175.057 325.718 171.654 318.341 168.401L313.398 166.132C311.673 165.29 309.985 164.596 308.222 163.604C308.027 163.494 307.952 163.194 307.915 163.044C307.459 161.886 307.394 160.949 307.562 160.271C307.647 159.932 307.927 159.703 308.207 159.475C308.487 159.246 308.645 159.207 308.963 159.128C309.28 159.049 309.401 158.86 309.719 158.781C309.84 158.592 310.157 158.513 310.316 158.474C310.475 158.434 310.475 158.434 310.633 158.395C310.792 158.356 310.792 158.356 310.95 158.316C311.109 158.277 311.268 158.237 311.585 158.158C311.744 158.119 311.902 158.08 311.939 158.229C313.31 159.001 314.84 159.734 316.528 160.427L321.471 162.696C329.043 166.059 336.495 169.612 343.694 174.181L345.726 175.583L345.29 173.148C345.104 172.4 345.114 171.762 345.086 170.974C344.424 170.343 343.725 169.563 342.83 168.673C341.665 167.373 340.341 166.113 338.98 164.702C337.619 163.292 336.454 161.992 335.326 160.842C333.07 158.541 331.439 156.721 331.439 156.721L329.5 154.342C329.23 153.932 328.801 153.562 328.531 153.152L326.163 150.403C315.993 138.624 304.666 127.61 292.452 117.77C286.327 112.775 279.958 108.159 273.31 103.771C266.698 99.5324 259.807 95.5227 252.794 91.7021C245.66 88.0706 238.442 84.778 230.98 81.8637C223.519 78.9493 215.815 76.4132 208.185 74.1765C192.646 69.9318 176.77 67.0423 160.557 65.5083C152.432 64.6664 144.259 64.3131 136.162 64.2591L130.079 64.1813L123.875 64.2925C121.86 64.3165 119.845 64.3404 117.867 64.5141C115.852 64.538 113.874 64.7117 111.737 64.9248C95.3634 66.1329 79.0543 68.2787 62.9313 71.173C54.8883 72.695 46.8826 74.3667 38.9885 76.4876C31.0944 78.6085 23.2747 81.0287 16.3872 84.489C13.242 86.0654 10.33 87.9018 8.32264 89.9902C8.16401 90.0297 7.84676 90.1085 7.84676 90.1085C5.86884 90.2822 4.451 89.9987 3.75188 89.2187C3.05276 88.4388 2.91373 87.2017 3.16637 86.1851C3.25059 85.8463 3.25059 85.8463 3.372 85.6572C4.21214 84.9715 4.85645 84.1756 5.69658 83.4899C6.53672 82.8042 7.41407 82.2683 8.09558 81.622L10.569 80.0536L13.2382 78.5954C20.8817 74.7884 28.86 72.3287 36.8755 70.0187C44.4896 68.1264 52.4953 66.4547 60.5382 64.9326Z"/>
</mask>
<path d="M60.5382 64.9326C68.5812 63.4106 76.6985 62.188 84.8531 61.1151C93.0076 60.0422 101.041 59.1585 109.307 58.5347C113.421 58.148 117.573 57.9109 121.603 57.863C125.634 57.8151 129.823 57.7278 133.89 57.8296C137.92 57.7817 142.025 58.0333 146.092 58.1351L152.249 58.5124L155.328 58.701L158.407 58.8896C166.494 59.5818 174.657 60.5734 182.735 61.9038C190.813 63.2343 198.844 65.0533 206.595 67.1008C214.505 69.1089 222.209 71.645 229.829 74.5199C231.713 75.3234 233.718 75.9377 235.444 76.7806L241.058 79.0412C242.942 79.8446 244.667 80.6875 246.551 81.4909C247.493 81.8926 248.435 82.2944 249.218 82.7355L251.923 84.1298C255.569 85.9258 259.057 87.7612 262.582 89.7464C264.345 90.739 266.107 91.7315 267.711 92.7635C268.532 93.3544 269.474 93.7561 270.294 94.347L272.877 95.9304C274.481 96.9624 276.281 98.1047 277.885 99.1367L282.771 102.532C284.412 103.714 286.053 104.895 287.694 106.077L290.155 107.85L292.458 109.662C298.705 114.467 304.71 119.651 310.592 125.024L314.797 129.066C316.317 130.437 317.519 131.887 319.039 133.257C321.919 136.039 324.483 138.898 327.242 141.869C328.603 143.279 329.843 144.878 331.204 146.289L333.068 148.369L334.037 149.558L335.976 151.938C335.976 151.938 336.712 152.867 337.56 154.246C338.064 154.916 338.604 155.735 339.303 156.515C339.844 157.335 340.58 158.264 341.158 159.233C342.276 161.022 343.553 162.771 344.401 164.15C344.299 163.063 344.234 162.125 344.291 160.998C344.199 159.272 344.107 157.547 344.174 155.782C344.174 155.782 344.401 151.274 344.983 146.838C345.564 142.402 346.342 138.076 346.453 138.525C347.258 134.987 348.212 132.047 348.931 131.551C349.37 131.283 349.603 131.543 349.742 132.78C349.843 133.867 349.973 135.743 350.008 138.595C350.155 141.897 350.17 146.026 350.476 149.288C350.585 152.44 350.863 154.914 350.863 154.914C350.834 156.829 350.963 158.704 350.934 160.619C351.034 164.409 351.488 168.27 351.942 172.131L352.119 173.518L352.444 175.503C352.508 176.441 352.769 177.489 352.992 178.387C353.215 179.285 353.476 180.333 353.577 181.421L356.433 193.587L356.767 194.934L356.842 195.233L356.879 195.383L356.916 195.533L356.254 194.903L353.458 191.783L350.503 188.702L349.104 187.142L347.781 185.882C346.886 184.991 345.954 183.951 345.17 183.51C344.35 182.919 343.492 182.179 342.671 181.588C342.243 181.218 341.851 180.997 341.422 180.627L340.797 180.146L339.585 179.335C333.132 175.057 325.718 171.654 318.341 168.401L313.398 166.132C311.673 165.29 309.985 164.596 308.222 163.604C308.027 163.494 307.952 163.194 307.915 163.044C307.459 161.886 307.394 160.949 307.562 160.271C307.647 159.932 307.927 159.703 308.207 159.475C308.487 159.246 308.645 159.207 308.963 159.128C309.28 159.049 309.401 158.86 309.719 158.781C309.84 158.592 310.157 158.513 310.316 158.474C310.475 158.434 310.475 158.434 310.633 158.395C310.792 158.356 310.792 158.356 310.95 158.316C311.109 158.277 311.268 158.237 311.585 158.158C311.744 158.119 311.902 158.08 311.939 158.229C313.31 159.001 314.84 159.734 316.528 160.427L321.471 162.696C329.043 166.059 336.495 169.612 343.694 174.181L345.726 175.583L345.29 173.148C345.104 172.4 345.114 171.762 345.086 170.974C344.424 170.343 343.725 169.563 342.83 168.673C341.665 167.373 340.341 166.113 338.98 164.702C337.619 163.292 336.454 161.992 335.326 160.842C333.07 158.541 331.439 156.721 331.439 156.721L329.5 154.342C329.23 153.932 328.801 153.562 328.531 153.152L326.163 150.403C315.993 138.624 304.666 127.61 292.452 117.77C286.327 112.775 279.958 108.159 273.31 103.771C266.698 99.5324 259.807 95.5227 252.794 91.7021C245.66 88.0706 238.442 84.778 230.98 81.8637C223.519 78.9493 215.815 76.4132 208.185 74.1765C192.646 69.9318 176.77 67.0423 160.557 65.5083C152.432 64.6664 144.259 64.3131 136.162 64.2591L130.079 64.1813L123.875 64.2925C121.86 64.3165 119.845 64.3404 117.867 64.5141C115.852 64.538 113.874 64.7117 111.737 64.9248C95.3634 66.1329 79.0543 68.2787 62.9313 71.173C54.8883 72.695 46.8826 74.3667 38.9885 76.4876C31.0944 78.6085 23.2747 81.0287 16.3872 84.489C13.242 86.0654 10.33 87.9018 8.32264 89.9902C8.16401 90.0297 7.84676 90.1085 7.84676 90.1085C5.86884 90.2822 4.451 89.9987 3.75188 89.2187C3.05276 88.4388 2.91373 87.2017 3.16637 86.1851C3.25059 85.8463 3.25059 85.8463 3.372 85.6572C4.21214 84.9715 4.85645 84.1756 5.69658 83.4899C6.53672 82.8042 7.41407 82.2683 8.09558 81.622L10.569 80.0536L13.2382 78.5954C20.8817 74.7884 28.86 72.3287 36.8755 70.0187C44.4896 68.1264 52.4953 66.4547 60.5382 64.9326Z" fill="#0475C7" stroke="white" stroke-width="2" mask="url(#path-1-inside-1_42_6566)"/>
</g>
<defs>
<clipPath id="clip0_42_6566">
<rect width="326.086" height="198.845" fill="white" transform="matrix(0.970478 -0.24119 -0.24119 -0.970478 48.3881 272.21)"/>
</clipPath>
</defs>
</svg>
