<svg width="277" height="199" viewBox="0 0 277 199" fill="none" xmlns="http://www.w3.org/2000/svg">
<g clip-path="url(#clip0_42_6570)">
<path d="M70.6094 7.06288C76.9189 8.3022 83.1941 9.79704 89.452 11.4196C95.71 13.0422 101.823 14.7755 108.03 16.7814C111.142 17.7204 114.236 18.7872 117.186 19.9647C120.137 21.1422 123.214 22.3368 126.147 23.642C129.097 24.8195 132.013 26.2524 134.946 27.5577L139.319 29.7071L141.506 30.7819L143.693 31.8566C149.38 34.8332 155.033 38.0653 160.524 41.5359C166.015 45.0064 171.328 48.8431 176.368 52.7733C181.536 56.7207 186.398 61.017 191.099 65.5518C192.233 66.7451 193.512 67.8278 194.52 69.0039L197.941 72.4561C199.076 73.6494 200.083 74.8255 201.218 76.0188C201.785 76.6155 202.353 77.2121 202.793 77.7916L204.35 79.6922C206.475 82.1895 208.473 84.6696 210.453 87.2774C211.444 88.5814 212.434 89.8853 213.297 91.1721C213.72 91.8794 214.287 92.4761 214.71 93.1833L216.123 95.1946C216.986 96.4814 217.959 97.9131 218.822 99.1999L221.377 103.316C222.223 104.73 223.069 106.145 223.915 107.56L225.183 109.681L226.325 111.786C229.454 117.41 232.294 123.256 234.99 129.212L236.857 133.625C237.558 135.15 238.005 136.641 238.707 138.167C239.982 141.2 241.003 144.199 242.135 147.343C242.709 148.851 243.139 150.47 243.713 151.978L244.455 154.159L244.81 155.377L245.518 157.814C245.518 157.814 245.779 158.76 245.989 160.089C246.157 160.762 246.309 161.562 246.587 162.38C246.739 163.181 247 164.127 247.134 165.055C247.419 166.785 247.832 168.531 248.042 169.86C248.289 168.983 248.52 168.234 248.894 167.374C249.338 166.002 249.782 164.631 250.352 163.277C250.352 163.277 251.852 159.837 253.588 156.559C255.324 153.28 257.171 150.147 257.119 150.53C258.753 148.018 260.317 146.018 260.988 145.848C261.386 145.771 261.479 146.044 261.214 147.049C260.967 147.926 260.506 149.425 259.688 151.656C258.818 154.271 257.607 157.49 256.865 160.121C256.012 162.608 255.482 164.618 255.482 164.618C254.894 166.1 254.434 167.599 253.846 169.081C252.797 172.061 251.985 175.204 251.174 178.346L250.892 179.479L250.541 181.123C250.311 181.872 250.191 182.767 250.087 183.533C249.984 184.3 249.864 185.194 249.616 186.071L248.096 196.403L247.942 197.553L247.907 197.808L247.89 197.936L247.873 198.064L247.577 197.374L246.463 194.102L245.222 190.813L244.665 189.177L244.074 187.797C243.685 186.834 243.314 185.744 242.874 185.164C242.451 184.457 242.045 183.622 241.622 182.914C241.419 182.497 241.199 182.207 240.996 181.79L240.683 181.227L240.04 180.23C236.605 174.955 232.211 170.071 227.8 165.315L224.87 162.059C223.863 160.883 222.838 159.835 221.848 158.531C221.738 158.386 221.772 158.13 221.789 158.003C221.8 156.963 222.03 156.214 222.353 155.737C222.515 155.499 222.786 155.405 223.058 155.312C223.33 155.218 223.457 155.235 223.711 155.27C223.966 155.304 224.11 155.193 224.365 155.227C224.509 155.117 224.764 155.151 224.891 155.168C225.018 155.185 225.018 155.185 225.145 155.202C225.272 155.22 225.272 155.22 225.4 155.237C225.527 155.254 225.654 155.271 225.909 155.305C226.036 155.322 226.163 155.339 226.146 155.467C226.916 156.481 227.813 157.513 228.838 158.561L231.768 161.817C236.289 166.718 240.666 171.729 244.558 177.456L245.624 179.161L246.027 177.133C246.113 176.495 246.309 176.001 246.522 175.379C246.226 174.689 245.948 173.871 245.559 172.908C245.095 171.545 244.503 170.165 243.929 168.657C243.355 167.148 242.891 165.785 242.41 164.55C241.447 162.079 240.797 160.17 240.797 160.17L240.089 157.734C240.013 157.333 239.81 156.916 239.734 156.515L238.823 153.661C234.9 141.427 229.908 129.438 223.921 118.097C220.937 112.362 217.664 106.848 214.119 101.429C210.556 96.1364 206.723 90.9378 202.744 85.8498C198.622 80.8725 194.338 76.1335 189.764 71.6159C185.191 67.0982 180.329 62.8018 175.433 58.761C165.369 50.7728 154.658 43.7382 143.301 37.6572C137.631 34.5528 131.782 31.8146 125.899 29.3319L121.491 27.438L116.939 25.6547C115.464 25.0659 113.989 24.4772 112.496 24.0162C111.021 23.4275 109.529 22.9665 107.909 22.4885C95.6239 18.4938 83.1081 15.2486 70.5062 12.6422C64.1967 11.4029 57.87 10.2913 51.4917 9.56305C45.1134 8.83478 38.7007 8.36203 32.6594 8.97983C29.9018 9.25912 27.237 9.81101 25.1567 10.8318C25.0295 10.8147 24.775 10.7804 24.775 10.7804C23.2828 10.3195 22.3338 9.67148 22.0553 8.85356C21.7768 8.03562 22.0415 7.03066 22.5263 6.31545C22.688 6.07706 22.688 6.07704 22.8324 5.96641C23.6473 5.68586 24.3522 5.26041 25.1671 4.97986C25.982 4.69929 26.7797 4.5465 27.4674 4.24883L29.7333 3.7733L32.1093 3.44267C38.8039 2.7827 45.3438 3.27258 51.8665 3.89021C57.9732 4.71201 64.2999 5.82357 70.6094 7.06288Z" fill="#0475C7"/>
</g>
<defs>
<clipPath id="clip0_42_6570">
<rect width="256.096" height="166.168" fill="white" transform="matrix(0.991066 0.133371 0.133371 -0.991066 0.426208 164.764)"/>
</clipPath>
</defs>
</svg>
