<svg width="312" height="312" viewBox="0 0 312 312" fill="none" xmlns="http://www.w3.org/2000/svg">
<g clip-path="url(#clip0_42_6572)">
<path d="M267.677 66.4494C261.678 64.9796 255.556 63.868 249.371 62.9354C243.187 62.0028 237.057 61.2894 230.687 60.894C227.533 60.6068 224.318 60.4986 221.156 60.6096C217.995 60.7207 214.717 60.7916 211.494 61.0816C208.333 61.1927 205.048 61.6618 201.825 61.9519L196.897 62.6557L194.434 63.0075L191.97 63.3594C185.454 64.5169 178.815 66.0325 172.169 67.9464C165.522 69.8603 158.807 72.3516 152.262 75.1021C145.6 77.8126 138.986 81.1404 132.365 84.8666C130.708 85.8977 128.996 86.7096 127.455 87.7808L122.545 90.6951C120.888 91.7262 119.347 92.7974 117.69 93.8285C116.861 94.3441 116.033 94.8596 115.32 95.4153L112.889 97.1812C109.629 99.4626 106.485 101.784 103.28 104.285C101.677 105.535 100.074 106.785 98.5875 108.076C97.8134 108.811 96.9847 109.326 96.2106 110.061L93.8337 112.046C92.3472 113.336 90.6826 114.766 89.1961 116.056L84.6129 120.286C83.0646 121.755 81.5163 123.225 79.968 124.694L77.6455 126.898L75.4393 129.143C69.4786 135.101 63.6267 141.498 57.8294 148.114L53.6421 153.081C52.1482 154.77 50.8869 156.539 49.393 158.227C46.5216 161.645 43.8826 165.143 41.0656 168.78C39.688 170.508 38.3649 172.456 36.9873 174.185L35.0681 176.729L34.0466 178.18L32.0038 181.082C32.0038 181.082 31.2222 182.215 30.2553 183.885C29.7136 184.7 29.1102 185.694 28.3905 186.648C27.7871 187.643 27.0055 188.776 26.3403 189.949C25.0716 192.116 23.6866 194.243 22.7196 195.913C23.0361 194.62 23.2907 193.505 23.4909 192.171C23.9384 190.122 24.3858 188.072 24.717 185.981C24.717 185.981 25.5178 180.647 26.0242 175.411C26.5305 170.174 26.8589 165.077 26.6734 165.615C26.8089 161.453 26.6971 158.007 26.2394 157.449C25.9524 157.149 25.7125 157.467 25.3342 158.94C25.0178 160.233 24.5085 162.462 23.8609 165.846C23.0278 169.767 22.1181 174.663 21.1688 178.544C20.3975 182.286 19.641 185.231 19.641 185.231C19.2479 187.5 18.7387 189.729 18.3456 191.998C17.4434 196.497 16.2467 201.094 15.0501 205.69L14.61 207.342L13.9227 209.71C13.668 210.825 13.2353 212.078 12.8644 213.152C12.4935 214.227 12.0608 215.48 11.7443 216.774L6.85337 231.318L6.29701 232.93L6.17338 233.288L6.11156 233.467L6.04974 233.646L6.70763 232.871L9.58646 229.055L12.5816 225.279L14.021 223.371L15.3368 221.822C16.2346 220.729 17.1942 219.457 17.9065 218.901C18.6807 218.166 19.5166 217.253 20.2908 216.518C20.7088 216.061 21.065 215.783 21.483 215.326L22.079 214.73L23.2093 213.718C29.2172 208.377 35.7916 204.033 42.3042 199.869L46.6871 196.973C48.2281 195.902 49.7072 195.01 51.31 193.759C51.4881 193.62 51.6117 193.262 51.6735 193.083C52.2843 191.691 52.539 190.576 52.5537 189.78C52.5611 189.382 52.3904 189.122 52.2197 188.863C52.0489 188.604 51.9327 188.563 51.7001 188.483C51.4676 188.403 51.4131 188.184 51.1806 188.103C51.1262 187.884 50.8936 187.804 50.7773 187.764C50.6611 187.724 50.6611 187.724 50.5448 187.683C50.4285 187.643 50.4285 187.643 50.3123 187.603C50.196 187.563 50.0797 187.523 49.8472 187.443C49.7309 187.402 49.6147 187.362 49.5529 187.541C48.3063 188.514 46.9434 189.446 45.4643 190.338L41.0813 193.234C34.3906 197.538 27.7544 202.06 21.096 207.778L19.1916 209.525L20.0644 206.62C20.3735 205.725 20.5044 204.968 20.6973 204.033C21.3551 203.258 22.0749 202.304 22.9727 201.211C24.1722 199.621 25.488 198.071 26.8656 196.343C28.2432 194.614 29.4427 193.024 30.5804 191.613C32.8558 188.791 34.5351 186.565 34.5351 186.565L36.5779 183.663C36.8797 183.166 37.2977 182.709 37.5994 182.212L40.0602 178.853C50.6233 164.464 61.9311 150.933 73.6818 138.757C79.5881 132.579 85.6033 126.84 91.7892 121.36C97.9133 116.06 104.208 111.018 110.557 106.196C116.961 101.593 123.357 97.3884 129.863 93.6221C136.368 89.8558 142.982 86.5279 149.473 83.5582C162.624 77.878 175.746 73.7908 188.839 71.2968C195.417 69.9602 201.925 69.2009 208.309 68.7998L213.113 68.4542L217.971 68.3278C219.552 68.2723 221.133 68.2168 222.651 68.3403C224.232 68.2848 225.751 68.4083 227.386 68.572C240.009 69.3227 252.378 71.1879 264.437 73.9483C270.436 75.4181 276.373 77.0669 282.125 79.253C287.876 81.439 293.504 83.9831 298.173 87.7992C300.305 89.5374 302.198 91.5936 303.324 93.9863C303.44 94.0265 303.673 94.1068 303.673 94.1068C305.191 94.2303 306.369 93.8352 307.088 92.8812C307.808 91.9273 308.186 90.4546 308.209 89.2598C308.216 88.8616 308.216 88.8616 308.161 88.6424C307.649 87.8644 307.315 86.9474 306.803 86.1694C306.291 85.3914 305.717 84.7924 305.321 84.0546L303.715 82.2978L301.932 80.68C296.744 76.4842 291 73.8999 285.194 71.4947C279.613 69.568 273.676 67.9191 267.677 66.4494Z" fill="#0475C7"/>
</g>
<defs>
<clipPath id="clip0_42_6572">
<rect width="245.388" height="244.178" fill="white" transform="translate(232.191 311.716) rotate(-160.954)"/>
</clipPath>
</defs>
</svg>
