<svg width="302" height="311" viewBox="0 0 302 311" fill="none" xmlns="http://www.w3.org/2000/svg">
<g clip-path="url(#clip0_42_6568)">
<path d="M268.882 149.318C264.256 154.029 259.43 158.566 254.505 163.017C249.579 167.467 244.64 171.731 239.415 175.921C236.852 178.06 234.19 180.111 231.515 181.977C228.839 183.842 226.077 185.807 223.302 187.585C220.626 189.451 217.751 191.142 214.976 192.921L210.663 195.458L208.507 196.727L206.35 197.996C200.587 201.193 194.624 204.216 188.548 206.966C182.472 209.717 176.183 212.107 169.968 214.212C163.666 216.416 157.238 218.16 150.697 219.632C149.033 219.932 147.383 220.418 145.806 220.618L140.915 221.603C139.251 221.903 137.674 222.103 136.011 222.403C135.179 222.553 134.347 222.703 133.602 222.753L131.094 223.016C127.753 223.429 124.499 223.743 121.146 223.969C119.469 224.083 117.792 224.196 116.202 224.21C115.357 224.174 114.525 224.323 113.68 224.287L111.159 224.364C109.569 224.378 107.792 224.404 106.202 224.418L101.232 224.286C99.5416 224.214 97.8516 224.141 96.1616 224.068L93.6267 223.958L91.1782 223.75C84.5914 223.259 77.9781 222.396 71.3516 221.347L66.5148 220.458C64.8116 220.198 63.2814 219.74 61.5782 219.481C58.2584 218.863 55.1116 218.047 51.7785 217.243C50.1618 216.884 48.5319 216.339 46.9152 215.981L44.6267 215.387L43.3826 215.003L40.8945 214.236C40.8945 214.236 39.9365 213.926 38.6792 213.356C38.0073 213.121 37.2356 212.799 36.3774 212.576C35.6058 212.254 34.6478 211.944 33.7763 211.535C32.1332 210.804 30.4036 210.172 29.1463 209.602C29.7581 210.31 30.2701 210.93 30.7954 211.737C31.7198 212.891 32.6441 214.045 33.4819 215.298C33.4819 215.298 35.583 218.525 37.4113 221.864C39.2396 225.203 40.8815 228.554 40.5822 228.294C41.8119 231.111 42.6425 233.582 42.4093 234.253C42.2495 234.638 41.9634 234.563 41.2518 233.769C40.64 233.062 39.6159 231.821 38.1663 229.861C36.4174 227.639 34.3427 224.785 32.5072 222.663C30.8581 220.529 29.4349 218.941 29.4349 218.941C28.4973 217.6 27.4732 216.36 26.5357 215.019C24.574 212.438 22.3395 209.969 20.105 207.5L19.2936 206.619L18.0832 205.391C17.5711 204.77 16.8728 204.162 16.2742 203.641C15.6756 203.12 14.9772 202.513 14.3654 201.805L6.37095 194.672L5.47306 193.891L5.27352 193.717L5.17376 193.63L5.07399 193.544L5.83244 193.679L9.2653 194.57L12.7847 195.362L14.5011 195.807L16.0181 196.079C17.0626 196.289 18.2069 196.586 18.9521 196.536C19.7971 196.572 20.7418 196.695 21.5868 196.732C22.0592 196.793 22.4318 196.768 22.9042 196.83L23.5629 196.879L24.7805 196.89C31.2411 196.921 37.9085 195.909 44.4761 194.81L48.921 194.135C50.498 193.935 51.9752 193.648 53.652 193.534C53.8383 193.522 54.0378 193.695 54.1376 193.782C55.0222 194.378 55.5343 194.998 55.7603 195.544C55.8733 195.817 55.7999 196.103 55.7266 196.389C55.6533 196.674 55.5668 196.774 55.3937 196.973C55.2206 197.171 55.2338 197.358 55.0607 197.557C55.074 197.743 54.9009 197.942 54.8143 198.041C54.7278 198.141 54.7278 198.141 54.6413 198.24C54.5547 198.339 54.5547 198.339 54.4682 198.439C54.3816 198.538 54.2951 198.638 54.122 198.837C54.0355 198.936 53.9489 199.035 53.8492 198.949C52.545 199.037 51.1543 199.224 49.6771 199.511L45.2322 200.186C38.4783 201.298 31.7112 202.223 24.6051 202.33L22.5425 202.282L24.0522 203.771C24.551 204.205 24.8635 204.652 25.2758 205.185C26.0343 205.321 26.8925 205.544 27.937 205.754C29.3674 206.125 30.8843 206.397 32.501 206.755C34.1176 207.114 35.548 207.485 36.8786 207.769C39.5398 208.338 41.5423 208.858 41.5423 208.858L44.0304 209.625C44.4162 209.786 44.8886 209.848 45.2744 210.009L48.2349 210.838C60.9351 214.378 74.0283 216.861 87.1287 218.128C93.7287 218.805 100.302 219.109 106.949 219.127C113.497 219.059 120.117 218.705 126.724 218.165C133.318 217.438 139.799 216.438 146.254 215.066C152.709 213.694 159.137 211.949 165.365 210.031C177.896 205.909 189.974 200.694 201.601 194.386C207.464 191.276 213.115 187.806 218.566 184.162L222.679 181.451L226.779 178.554C228.117 177.621 229.454 176.688 230.692 175.669C232.03 174.736 233.268 173.717 234.593 172.598C244.956 164.317 254.807 155.416 264.16 146.081C268.786 141.37 273.313 136.572 277.54 131.514C281.767 126.456 285.795 121.224 288.678 115.695C289.997 113.173 291.029 110.576 291.33 108.217C291.416 108.117 291.589 107.918 291.589 107.918C292.827 106.899 293.919 106.451 294.777 106.673C295.635 106.896 296.347 107.69 296.686 108.509C296.799 108.783 296.799 108.783 296.812 108.969C296.592 109.826 296.558 110.67 296.339 111.527C296.119 112.385 295.799 113.155 295.665 113.912L294.793 116.124L293.734 118.348C290.518 124.461 286.403 129.792 282.189 135.037C278.035 139.809 273.509 144.607 268.882 149.318Z" fill="#0475C7"/>
</g>
<defs>
<clipPath id="clip0_42_6568">
<rect width="262.974" height="170.486" fill="white" transform="matrix(-0.656525 0.754304 0.754304 0.656525 173.396 0.152832)"/>
</clipPath>
</defs>
</svg>
