<svg width="154" height="92" viewBox="0 0 154 92" fill="none" xmlns="http://www.w3.org/2000/svg">
<g clip-path="url(#clip0_89_18456)">
<path d="M27.7877 14.0322C31.4318 13.7874 35.0891 13.6577 38.7531 13.5854C42.417 13.5132 46.0151 13.5067 49.6989 13.607C51.5375 13.6283 53.3827 13.7072 55.162 13.8519C56.9414 13.9966 58.7932 14.1329 60.5792 14.3351C62.3585 14.4798 64.1511 14.7395 65.937 14.9417L68.6259 15.3312L69.9703 15.5259L71.3148 15.7207C74.8341 16.3059 78.3666 17.0061 81.8398 17.8296C85.3131 18.6531 88.7338 19.6574 92.0161 20.7359C95.3708 21.8061 98.6005 23.0654 101.771 24.4481C102.549 24.8246 103.392 25.1352 104.098 25.5201L106.424 26.5921C107.202 26.9686 107.908 27.3534 108.685 27.7299C109.074 27.9182 109.463 28.1064 109.78 28.303L110.88 28.9336C112.37 29.7524 113.787 30.5796 115.211 31.4642C115.923 31.9066 116.635 32.3489 117.274 32.7996C117.597 33.0537 117.986 33.2419 118.309 33.496L119.344 34.1924C119.984 34.6431 120.702 35.1429 121.342 35.5936L123.273 37.0606C123.919 37.5688 124.565 38.077 125.212 38.5851L126.181 39.3474L127.077 40.118C129.517 42.1674 131.824 44.3484 134.066 46.5953L135.655 48.2765C136.235 48.8505 136.67 49.4412 137.25 50.0152C138.338 51.1716 139.281 52.3446 140.303 53.5668C140.811 54.1492 141.253 54.7973 141.76 55.3797L142.446 56.2328L142.796 56.7169L143.495 57.685C143.495 57.685 143.759 58.0624 144.042 58.6123C144.22 58.8831 144.405 59.2113 144.662 59.5313C144.847 59.8595 145.111 60.2369 145.302 60.6227C145.678 61.3367 146.126 62.0424 146.41 62.5923C146.436 62.1815 146.469 61.8282 146.567 61.4091C146.64 60.76 146.712 60.1109 146.856 59.4534C146.856 59.4534 147.251 57.7769 147.797 56.1411C148.343 54.5054 148.969 52.9188 148.988 53.0913C149.574 51.8005 150.187 50.7397 150.536 50.583C150.747 50.5005 150.832 50.6071 150.813 51.0754C150.787 51.4862 150.721 52.1928 150.55 53.261C150.399 54.5017 150.137 56.0466 150.058 57.279C149.901 58.4622 149.861 59.3988 149.861 59.3988C149.723 60.1137 149.658 60.8203 149.52 61.5352C149.316 62.9568 149.264 64.4191 149.212 65.8815L149.199 66.4072L149.213 67.163C149.18 67.5163 149.226 67.9187 149.266 68.2637C149.306 68.6086 149.352 69.0111 149.326 69.4219L149.79 74.0871L149.849 74.6045L149.862 74.7195L149.869 74.777L149.876 74.8345L149.625 74.5721L148.596 73.2924L147.495 72.021L146.981 71.3812L146.48 70.8563C146.144 70.4873 145.801 70.0607 145.484 69.8641C145.161 69.61 144.832 69.2984 144.509 69.0444C144.344 68.8886 144.186 68.7903 144.021 68.6345L143.777 68.4295L143.296 68.0772C140.731 66.217 137.686 64.6451 134.647 63.1308L132.617 62.0829C131.912 61.6981 131.213 61.3707 130.501 60.9284C130.422 60.8793 130.409 60.7643 130.402 60.7068C130.277 60.2552 130.309 59.9019 130.428 59.6552C130.487 59.5319 130.626 59.4577 130.764 59.3835C130.902 59.3094 130.975 59.301 131.12 59.2843C131.265 59.2676 131.331 59.2018 131.476 59.1851C131.541 59.1193 131.686 59.1026 131.759 59.0942C131.831 59.0859 131.831 59.0859 131.904 59.0776C131.976 59.0692 131.976 59.0692 132.049 59.0609C132.121 59.0525 132.194 59.0442 132.339 59.0275C132.411 59.0191 132.484 59.0108 132.49 59.0683C133.044 59.4123 133.67 59.748 134.369 60.0754L136.399 61.1233C139.517 62.6867 142.569 64.316 145.443 66.3154L146.247 66.9218L146.214 65.9936C146.181 65.7061 146.227 65.4678 146.266 65.172C146.016 64.9096 145.759 64.5897 145.422 64.2206C144.994 63.6874 144.493 63.1625 143.985 62.5802C143.477 61.9978 143.049 61.4646 142.627 60.9889C141.783 60.0375 141.183 59.291 141.183 59.291L140.484 58.3229C140.391 58.1588 140.226 58.003 140.134 57.8388L139.27 56.715C135.558 51.8994 131.285 47.3232 126.545 43.1502C124.172 41.035 121.666 39.0515 119.023 37.1421C116.386 35.2903 113.611 33.5126 110.77 31.8008C107.863 30.1548 104.897 28.6321 101.799 27.2411C98.7007 25.8501 95.4711 24.5908 92.2546 23.4464C85.6834 21.2319 78.8752 19.5107 71.83 18.2828C68.3041 17.6401 64.7256 17.1783 61.1603 16.8314L58.4847 16.5569L55.7432 16.3482C54.8535 16.2758 53.9638 16.2035 53.0808 16.1886C52.1911 16.1163 51.3081 16.1014 50.3525 16.0949C43.0574 15.8861 35.7295 16.0306 28.4348 16.4626C24.7907 16.7073 21.1532 17.0096 17.5356 17.4843C13.918 17.959 10.3136 18.5487 7.05212 19.5649C5.56304 20.0276 4.15967 20.5969 3.13859 21.297C3.0661 21.3054 2.92113 21.3221 2.92113 21.3221C2.03808 21.3072 1.43173 21.144 1.17457 20.8241C0.917405 20.5041 0.936942 20.0359 1.11469 19.6659C1.17393 19.5425 1.17393 19.5425 1.2398 19.4767C1.65485 19.2542 1.9908 18.9825 2.40585 18.7599C2.82091 18.5374 3.24258 18.3723 3.58515 18.1581L4.77767 17.6713L6.04931 17.2337C9.6666 16.1182 13.3435 15.5202 17.0269 14.9796C20.5062 14.5791 24.1437 14.2769 27.7877 14.0322Z" fill="#0475C7"/>
</g>
<defs>
<clipPath id="clip0_89_18456">
<rect width="145.562" height="74.5971" fill="white" transform="matrix(0.993439 -0.114362 -0.114362 -0.993439 8.89331 91.064)"/>
</clipPath>
</defs>
</svg>
