<svg width="289" height="261" viewBox="0 0 289 261" fill="none" xmlns="http://www.w3.org/2000/svg">
<path d="M217.744 93.4879C188.411 150.721 203.002 197.46 177.73 216.69C129.712 237.388 74.1622 215.602 53.6555 168.03C33.1487 120.457 -21.8897 87.944 26.128 67.2455C74.1457 46.5469 215.857 37.3224 217.744 93.4879Z" fill="#0475C7" fill-opacity="0.15"/>
<path d="M215.395 178.889C215.556 179.777 215.59 180.8 215.498 181.957C215.493 182.077 215.436 182.454 215.328 183.09C215.326 183.13 215.301 183.229 215.254 183.387C215.207 183.545 215.182 183.664 215.178 183.744C215.139 184.623 214.793 186.089 214.141 188.142C213.059 191.738 211.358 195.325 209.036 198.905C208.259 200.152 207.316 201.551 206.205 203.103C204.924 204.888 204 206.308 203.432 207.364C203.128 207.91 202.839 208.558 202.565 209.307C202.338 209.897 202.199 210.331 202.146 210.609C202.134 210.889 202.13 211.429 202.134 212.23C202.203 212.474 202.344 212.9 202.557 213.511C202.652 214.075 202.528 214.61 202.185 215.116C201.933 215.385 201.483 215.605 200.834 215.776C199.761 215.608 199.071 214.916 198.765 213.702C198.706 213.218 198.701 212.437 198.75 211.359C198.794 210.36 199.086 209.211 199.624 207.914C200.163 206.617 201.009 205.153 202.163 203.523C202.248 203.407 203.186 202.127 204.977 199.685C206.426 197.708 207.634 195.779 208.598 193.901C209.957 191.279 211.017 188.603 211.78 185.875C211.923 185.361 212.148 184.35 212.456 182.842C212.66 181.85 212.731 180.712 212.668 179.428C212.612 178.905 212.496 178.359 212.321 177.791C211.899 176.491 211.075 175.653 209.851 175.278L208.832 175.232C207.904 175.391 206.942 175.869 205.945 176.665C205.061 177.627 204.465 178.421 204.157 179.048C203.673 180.027 203.312 180.932 203.075 181.762C202.597 183.502 202.309 185.011 202.212 186.288C202.169 187.247 201.9 188.336 201.405 189.555C201.135 190.224 200.716 190.646 200.148 190.82C199.784 190.884 199.45 190.749 199.145 190.415C198.879 190.083 198.795 189.719 198.893 189.323C198.897 189.243 198.921 189.144 198.966 189.026C199.053 188.87 199.098 188.772 199.1 188.732C199.332 188.021 199.507 187.228 199.626 186.353C200.028 183.648 200.543 181.529 201.172 179.995C201.982 177.99 202.952 176.431 204.083 175.321C205.132 174.246 206.266 173.516 207.484 173.13C207.973 172.952 208.398 172.851 208.759 172.827C208.799 172.829 209.121 172.803 209.724 172.75C209.923 172.759 210.221 172.812 210.617 172.91C211.015 172.968 211.273 173.019 211.391 173.065C211.9 173.328 212.174 173.46 212.214 173.462C213.268 174.069 214.071 174.926 214.622 176.032C214.986 176.849 215.244 177.801 215.395 178.889ZM200.401 222.784C201.228 223.101 201.76 223.745 201.997 224.717C201.996 225.638 201.994 226.118 201.992 226.158C201.948 227.157 201.679 228.246 201.186 229.425C200.783 230.368 200.232 231.064 199.531 231.513C199.206 231.619 198.84 231.743 198.433 231.885C198.315 231.84 198.178 231.773 198.022 231.686C197.864 231.639 197.725 231.593 197.607 231.548C197.527 231.544 197.468 231.521 197.43 231.48C197.08 231.264 196.778 230.85 196.525 230.238C196.342 228.949 196.498 227.694 196.993 226.475C196.997 226.395 196.908 226.151 196.726 225.743C196.729 225.663 196.642 225.378 196.463 224.89C196.633 223.776 197.326 223.067 198.54 222.761C199.223 222.711 199.605 222.688 199.685 222.692C199.725 222.693 199.964 222.724 200.401 222.784Z" fill="#333333"/>
<path d="M215.395 178.889L214.405 179.027L214.408 179.047L214.411 179.067L215.395 178.889ZM215.498 181.957L214.502 181.878L214.5 181.895L214.499 181.912L215.498 181.957ZM215.328 183.09L214.342 182.922L214.331 182.983L214.329 183.046L215.328 183.09ZM215.254 183.387L214.296 183.102L214.296 183.102L215.254 183.387ZM214.141 188.142L213.188 187.839L213.186 187.847L213.183 187.854L214.141 188.142ZM209.036 198.905L208.197 198.361L208.192 198.369L208.187 198.376L209.036 198.905ZM206.205 203.103L207.018 203.686L207.019 203.685L206.205 203.103ZM203.432 207.364L204.306 207.85L204.31 207.844L204.313 207.837L203.432 207.364ZM202.565 209.307L203.499 209.665L203.501 209.658L203.504 209.65L202.565 209.307ZM202.146 210.609L201.164 210.424L201.151 210.494L201.147 210.565L202.146 210.609ZM202.134 212.23L201.134 212.236L201.135 212.372L201.172 212.504L202.134 212.23ZM202.557 213.511L203.543 213.345L203.529 213.261L203.501 213.181L202.557 213.511ZM202.185 215.116L202.915 215.8L202.969 215.742L203.013 215.677L202.185 215.116ZM200.834 215.776L200.68 216.764L200.887 216.796L201.09 216.743L200.834 215.776ZM198.765 213.702L197.772 213.822L197.78 213.885L197.795 213.946L198.765 213.702ZM199.624 207.914L200.548 208.297L199.624 207.914ZM202.163 203.523L201.356 202.932L201.351 202.938L201.346 202.945L202.163 203.523ZM204.977 199.685L205.783 200.276L204.977 199.685ZM208.598 193.901L207.711 193.441L207.709 193.444L208.598 193.901ZM211.78 185.875L212.743 186.144L212.743 186.143L211.78 185.875ZM212.456 182.842L211.476 182.64L211.476 182.642L212.456 182.842ZM212.668 179.428L213.667 179.379L213.666 179.35L213.663 179.32L212.668 179.428ZM212.321 177.791L213.277 177.497L213.275 177.489L213.272 177.482L212.321 177.791ZM209.851 175.278L210.144 174.322L210.022 174.285L209.895 174.279L209.851 175.278ZM208.832 175.232L208.876 174.233L208.769 174.229L208.663 174.247L208.832 175.232ZM205.945 176.665L205.321 175.884L205.261 175.932L205.209 175.988L205.945 176.665ZM204.157 179.048L205.053 179.491L205.054 179.489L204.157 179.048ZM203.075 181.762L202.113 181.487L202.11 181.497L203.075 181.762ZM202.212 186.288L201.215 186.212L201.214 186.228L201.213 186.243L202.212 186.288ZM201.405 189.555L200.479 189.179L200.478 189.181L201.405 189.555ZM200.148 190.82L200.321 191.805L200.382 191.795L200.441 191.776L200.148 190.82ZM199.145 190.415L198.363 191.04L198.384 191.066L198.407 191.09L199.145 190.415ZM198.893 189.323L199.864 189.563L199.888 189.467L199.892 189.368L198.893 189.323ZM198.966 189.026L198.093 188.539L198.058 188.601L198.033 188.668L198.966 189.026ZM199.1 188.732L198.149 188.421L198.107 188.551L198.101 188.687L199.1 188.732ZM199.626 186.353L198.637 186.206L198.636 186.218L199.626 186.353ZM201.172 179.995L202.097 180.375L202.099 180.37L201.172 179.995ZM204.083 175.321L204.784 176.034L204.791 176.027L204.799 176.019L204.083 175.321ZM207.484 173.13L207.786 174.084L207.807 174.077L207.827 174.07L207.484 173.13ZM208.759 172.827L208.804 171.828L208.748 171.825L208.693 171.829L208.759 172.827ZM209.724 172.75L209.768 171.751L209.702 171.748L209.636 171.754L209.724 172.75ZM210.617 172.91L210.378 173.881L210.425 173.892L210.473 173.899L210.617 172.91ZM211.391 173.065L211.85 172.176L211.801 172.151L211.749 172.131L211.391 173.065ZM212.214 173.462L212.714 172.595L212.502 172.474L212.259 172.463L212.214 173.462ZM214.622 176.032L215.535 175.625L215.527 175.605L215.517 175.586L214.622 176.032ZM200.401 222.784L200.76 221.85L200.651 221.808L200.536 221.793L200.401 222.784ZM201.997 224.717L202.997 224.718L202.997 224.597L202.968 224.48L201.997 224.717ZM201.186 229.425L202.105 229.818L202.108 229.811L201.186 229.425ZM199.531 231.513L199.84 232.465L199.962 232.425L200.07 232.355L199.531 231.513ZM198.433 231.885L198.075 232.818L198.417 232.95L198.763 232.829L198.433 231.885ZM198.022 231.686L198.508 230.813L198.412 230.759L198.307 230.728L198.022 231.686ZM197.607 231.548L197.966 230.614L197.814 230.556L197.652 230.549L197.607 231.548ZM197.43 231.48L198.168 230.805L198.074 230.701L197.954 230.628L197.43 231.48ZM196.525 230.238L195.535 230.378L195.552 230.503L195.601 230.62L196.525 230.238ZM196.993 226.475L197.92 226.851L197.984 226.692L197.992 226.52L196.993 226.475ZM196.726 225.743L195.727 225.698L195.716 225.934L195.812 226.149L196.726 225.743ZM196.463 224.89L195.475 224.739L195.436 224.992L195.524 225.233L196.463 224.89ZM198.54 222.761L198.468 221.763L198.381 221.77L198.296 221.791L198.54 222.761ZM214.411 179.067C214.553 179.85 214.588 180.783 214.502 181.878L216.495 182.036C216.592 180.816 216.559 179.704 216.379 178.711L214.411 179.067ZM214.499 181.912C214.499 181.91 214.493 181.981 214.463 182.181C214.436 182.361 214.396 182.607 214.342 182.922L216.313 183.258C216.416 182.657 216.489 182.2 216.497 182.001L214.499 181.912ZM214.329 183.046C214.33 183.011 214.333 182.986 214.335 182.973C214.337 182.959 214.339 182.95 214.339 182.946C214.341 182.939 214.341 182.941 214.337 182.955C214.334 182.968 214.329 182.986 214.322 183.012C214.315 183.037 214.306 183.067 214.296 183.102L216.213 183.673C216.238 183.587 216.261 183.505 216.279 183.434C216.29 183.389 216.321 183.266 216.327 183.135L214.329 183.046ZM214.296 183.102C214.245 183.274 214.189 183.491 214.179 183.7L216.177 183.789C216.176 183.809 216.175 183.821 216.175 183.821C216.175 183.821 216.175 183.816 216.178 183.803C216.184 183.777 216.194 183.735 216.213 183.673L214.296 183.102ZM214.179 183.7C214.147 184.432 213.841 185.784 213.188 187.839L215.094 188.445C215.746 186.394 216.131 184.815 216.177 183.789L214.179 183.7ZM213.183 187.854C212.133 191.348 210.474 194.85 208.197 198.361L209.875 199.449C212.241 195.801 213.986 192.128 215.099 188.43L213.183 187.854ZM208.187 198.376C207.424 199.601 206.494 200.982 205.392 202.521L207.019 203.685C208.138 202.12 209.094 200.703 209.884 199.434L208.187 198.376ZM205.393 202.52C204.104 204.316 203.15 205.777 202.552 206.89L204.313 207.837C204.85 206.838 205.745 205.459 207.018 203.686L205.393 202.52ZM202.559 206.877C202.223 207.48 201.913 208.178 201.626 208.963L203.504 209.65C203.764 208.938 204.033 208.341 204.306 207.85L202.559 206.877ZM201.631 208.948C201.403 209.544 201.234 210.05 201.164 210.424L203.129 210.795C203.163 210.612 203.274 210.251 203.499 209.665L201.631 208.948ZM201.147 210.565C201.134 210.873 201.13 211.438 201.134 212.236L203.134 212.225C203.13 211.421 203.134 210.905 203.145 210.654L201.147 210.565ZM201.172 212.504C201.25 212.779 201.401 213.231 201.613 213.84L203.501 213.181C203.288 212.57 203.156 212.168 203.096 211.957L201.172 212.504ZM201.571 213.676C201.62 213.969 201.567 214.246 201.358 214.554L203.013 215.677C203.49 214.975 203.684 214.181 203.543 213.345L201.571 213.676ZM201.456 214.432C201.399 214.492 201.174 214.652 200.579 214.809L201.09 216.743C201.792 216.557 202.467 216.277 202.915 215.8L201.456 214.432ZM200.989 214.788C200.637 214.733 200.398 214.604 200.22 214.425C200.033 214.238 199.856 213.938 199.735 213.457L197.795 213.946C197.98 214.68 198.301 215.333 198.804 215.838C199.316 216.35 199.958 216.651 200.68 216.764L200.989 214.788ZM199.758 213.581C199.71 213.187 199.701 212.477 199.749 211.403L197.751 211.314C197.702 212.398 197.703 213.25 197.772 213.822L199.758 213.581ZM199.749 211.403C199.786 210.557 200.037 209.527 200.548 208.297L198.701 207.531C198.134 208.896 197.802 210.162 197.751 211.314L199.749 211.403ZM200.548 208.297C201.049 207.091 201.851 205.693 202.979 204.101L201.346 202.945C200.166 204.613 199.277 206.143 198.701 207.531L200.548 208.297ZM202.969 204.114C203.054 203.998 203.992 202.719 205.783 200.276L204.17 199.094C202.379 201.536 201.441 202.815 201.356 202.932L202.969 204.114ZM205.783 200.276C207.259 198.263 208.496 196.29 209.488 194.357L207.709 193.444C206.772 195.269 205.594 197.152 204.17 199.094L205.783 200.276ZM209.486 194.361C210.875 191.68 211.961 188.941 212.743 186.144L210.817 185.606C210.073 188.265 209.039 190.877 207.711 193.441L209.486 194.361ZM212.743 186.143C212.897 185.59 213.129 184.545 213.436 183.042L211.476 182.642C211.167 184.154 210.949 185.132 210.816 185.607L212.743 186.143ZM213.435 183.044C213.661 181.951 213.733 180.726 213.667 179.379L211.67 179.477C211.729 180.698 211.66 181.749 211.476 182.64L213.435 183.044ZM213.663 179.32C213.598 178.726 213.468 178.118 213.277 177.497L211.365 178.085C211.524 178.6 211.625 179.083 211.674 179.536L213.663 179.32ZM213.272 177.482C212.757 175.896 211.704 174.8 210.144 174.322L209.558 176.234C210.447 176.506 211.04 177.085 211.37 178.1L213.272 177.482ZM209.895 174.279L208.876 174.233L208.787 176.231L209.806 176.277L209.895 174.279ZM208.663 174.247C207.52 174.442 206.405 175.018 205.321 175.884L206.569 177.446C207.479 176.72 208.288 176.34 209 176.218L208.663 174.247ZM205.209 175.988C204.306 176.97 203.632 177.849 203.26 178.606L205.054 179.489C205.298 178.993 205.816 178.283 206.681 177.342L205.209 175.988ZM203.26 178.604C202.756 179.624 202.371 180.586 202.113 181.487L204.036 182.037C204.253 181.277 204.589 180.43 205.053 179.491L203.26 178.604ZM202.11 181.497C201.622 183.276 201.318 184.851 201.215 186.212L203.209 186.364C203.3 185.171 203.572 183.728 204.039 182.027L202.11 181.497ZM201.213 186.243C201.177 187.055 200.945 188.029 200.479 189.179L202.332 189.931C202.855 188.643 203.161 187.439 203.211 186.333L201.213 186.243ZM200.478 189.181C200.294 189.636 200.073 189.797 199.854 189.865L200.441 191.776C201.359 191.494 201.976 190.812 202.332 189.93L200.478 189.181ZM199.974 189.836C199.97 189.836 199.973 189.835 199.982 189.836C199.991 189.837 199.998 189.839 199.999 189.84C200.001 189.841 199.96 189.825 199.883 189.74L198.407 191.09C198.882 191.61 199.541 191.942 200.321 191.805L199.974 189.836ZM199.926 189.791C199.845 189.69 199.844 189.642 199.864 189.563L197.922 189.083C197.746 189.796 197.913 190.477 198.363 191.04L199.926 189.791ZM199.892 189.368C199.891 189.389 199.889 189.405 199.888 189.414C199.887 189.419 199.886 189.423 199.886 189.425C199.885 189.427 199.885 189.428 199.885 189.428C199.885 189.429 199.885 189.428 199.886 189.426C199.886 189.424 199.887 189.421 199.888 189.417C199.891 189.409 199.895 189.398 199.9 189.384L198.033 188.668C197.969 188.835 197.904 189.047 197.894 189.278L199.892 189.368ZM199.84 189.513C199.889 189.424 199.937 189.333 199.976 189.248C199.995 189.205 200.018 189.151 200.039 189.09C200.054 189.044 200.092 188.926 200.099 188.776L198.101 188.687C198.104 188.614 198.115 188.557 198.122 188.527C198.13 188.494 198.137 188.469 198.142 188.455C198.151 188.429 198.157 188.416 198.154 188.423C198.148 188.436 198.13 188.472 198.093 188.539L199.84 189.513ZM200.05 189.042C200.304 188.265 200.491 187.412 200.617 186.488L198.636 186.218C198.523 187.044 198.359 187.777 198.149 188.421L200.05 189.042ZM200.616 186.499C201.011 183.83 201.512 181.801 202.097 180.375L200.246 179.616C199.573 181.257 199.044 183.466 198.637 186.206L200.616 186.499ZM202.099 180.37C202.875 178.448 203.78 177.02 204.784 176.034L203.382 174.607C202.125 175.842 201.089 177.531 200.244 179.621L202.099 180.37ZM204.799 176.019C205.753 175.042 206.75 174.412 207.786 174.084L207.182 172.177C205.782 172.621 204.511 173.451 203.368 174.622L204.799 176.019ZM207.827 174.07C208.262 173.911 208.59 173.84 208.825 173.825L208.693 171.829C208.206 171.861 207.684 171.993 207.141 172.191L207.827 174.07ZM208.715 173.826C208.793 173.829 208.888 173.822 208.908 173.821C208.96 173.817 209.028 173.812 209.11 173.806C209.275 173.793 209.509 173.773 209.811 173.746L209.636 171.754C209.335 171.78 209.107 171.8 208.951 171.812C208.872 171.818 208.814 171.823 208.776 171.825C208.756 171.827 208.746 171.827 208.741 171.827C208.723 171.828 208.757 171.826 208.804 171.828L208.715 173.826ZM209.679 173.749C209.775 173.753 209.994 173.786 210.378 173.881L210.857 171.939C210.449 171.838 210.071 171.764 209.768 171.751L209.679 173.749ZM210.473 173.899C210.663 173.927 210.808 173.951 210.913 173.972C211.033 173.996 211.057 174.007 211.033 173.998L211.749 172.131C211.508 172.038 211.135 171.975 210.761 171.92L210.473 173.899ZM210.932 173.953C211.189 174.086 211.394 174.189 211.544 174.262C211.618 174.297 211.687 174.33 211.748 174.356C211.777 174.368 211.816 174.384 211.858 174.399C211.861 174.4 211.999 174.453 212.17 174.461L212.259 172.463C212.361 172.467 212.438 172.487 212.457 172.492C212.487 172.5 212.509 172.508 212.518 172.511C212.536 172.517 212.543 172.52 212.533 172.516C212.515 172.508 212.477 172.491 212.413 172.46C212.288 172.4 212.102 172.306 211.85 172.176L210.932 173.953ZM211.715 174.328C212.596 174.836 213.262 175.545 213.727 176.478L215.517 175.586C214.879 174.307 213.941 173.303 212.714 172.595L211.715 174.328ZM213.708 176.439C214.027 177.153 214.263 178.012 214.405 179.027L216.386 178.751C216.224 177.591 215.945 176.544 215.535 175.625L213.708 176.439ZM200.043 223.717C200.52 223.9 200.854 224.253 201.025 224.954L202.968 224.48C202.665 223.237 201.936 222.301 200.76 221.85L200.043 223.717ZM200.997 224.716C200.996 225.176 200.995 225.525 200.995 225.765C200.994 226.024 200.993 226.121 200.993 226.113L202.991 226.203C202.994 226.134 202.996 225.615 202.997 224.718L200.997 224.716ZM200.993 226.113C200.955 226.967 200.723 227.94 200.263 229.039L202.108 229.811C202.635 228.552 202.94 227.346 202.991 226.203L200.993 226.113ZM200.266 229.033C199.924 229.834 199.487 230.353 198.991 230.672L200.07 232.355C200.976 231.775 201.643 230.902 202.105 229.818L200.266 229.033ZM199.222 230.562C198.888 230.671 198.515 230.797 198.104 230.941L198.763 232.829C199.164 232.689 199.523 232.567 199.84 232.465L199.222 230.562ZM198.791 230.951C198.731 230.928 198.639 230.885 198.508 230.813L197.535 232.56C197.717 232.661 197.899 232.751 198.075 232.818L198.791 230.951ZM198.307 230.728C198.167 230.686 198.054 230.648 197.966 230.614L197.249 232.481C197.397 232.538 197.56 232.592 197.736 232.645L198.307 230.728ZM197.652 230.549C197.726 230.552 197.964 230.582 198.168 230.805L196.692 232.155C196.973 232.461 197.329 232.536 197.563 232.547L197.652 230.549ZM197.954 230.628C197.863 230.572 197.666 230.382 197.449 229.856L195.601 230.62C195.889 231.318 196.296 231.956 196.906 232.331L197.954 230.628ZM197.515 230.098C197.357 228.985 197.49 227.909 197.92 226.851L196.067 226.099C195.506 227.48 195.327 228.912 195.535 230.378L197.515 230.098ZM197.992 226.52C198 226.339 197.96 226.185 197.945 226.129C197.924 226.047 197.896 225.965 197.868 225.889C197.812 225.735 197.734 225.548 197.639 225.336L195.812 226.149C195.899 226.345 195.957 226.484 195.99 226.575C196.006 226.621 196.012 226.64 196.012 226.64C196.011 226.639 196.007 226.624 196.003 226.598C196 226.577 195.99 226.515 195.994 226.431L197.992 226.52ZM197.725 225.787C197.732 225.618 197.697 225.468 197.686 225.42C197.668 225.342 197.644 225.258 197.619 225.175C197.567 225.009 197.494 224.797 197.403 224.547L195.524 225.233C195.611 225.471 195.671 225.646 195.707 225.763C195.725 225.823 195.734 225.856 195.737 225.869C195.738 225.875 195.736 225.866 195.733 225.848C195.732 225.836 195.723 225.779 195.727 225.698L197.725 225.787ZM197.452 225.041C197.51 224.661 197.645 224.406 197.826 224.221C198.013 224.029 198.31 223.85 198.785 223.73L198.296 221.791C197.556 221.977 196.899 222.306 196.394 222.824C195.883 223.348 195.587 224.005 195.475 224.739L197.452 225.041ZM198.613 223.758C198.953 223.733 199.214 223.715 199.399 223.704C199.492 223.699 199.561 223.695 199.61 223.693C199.674 223.69 199.67 223.692 199.64 223.691L199.729 221.693C199.624 221.688 199.443 221.698 199.278 221.708C199.082 221.72 198.811 221.738 198.468 221.763L198.613 223.758ZM199.64 223.691C199.607 223.689 199.591 223.686 199.636 223.692C199.665 223.695 199.708 223.7 199.766 223.708C199.882 223.723 200.048 223.745 200.266 223.774L200.536 221.793C200.139 221.739 199.829 221.697 199.729 221.693L199.64 223.691Z" fill="#202020"/>
<path d="M236.197 215.222C236.22 215.673 236.172 216.182 236.053 216.75C236.043 216.809 235.99 216.993 235.896 217.302C235.893 217.321 235.874 217.369 235.841 217.444C235.807 217.52 235.787 217.577 235.78 217.616C235.705 218.05 235.44 218.755 234.986 219.731C234.22 221.446 233.148 223.116 231.768 224.744C231.304 225.313 230.747 225.946 230.097 226.645C229.348 227.449 228.799 228.094 228.451 228.582C228.265 228.833 228.08 229.136 227.897 229.49C227.747 229.768 227.65 229.975 227.606 230.109C227.582 230.247 227.546 230.515 227.497 230.913C227.515 231.038 227.558 231.258 227.625 231.574C227.636 231.861 227.54 232.118 227.338 232.347C227.196 232.464 226.959 232.544 226.626 232.588C226.105 232.436 225.807 232.049 225.732 231.427C225.734 231.184 225.781 230.797 225.874 230.265C225.959 229.772 226.177 229.221 226.527 228.612C226.877 228.003 227.389 227.331 228.065 226.596C228.115 226.544 228.662 225.969 229.706 224.872C230.55 223.984 231.272 223.104 231.87 222.234C232.711 221.02 233.407 219.761 233.959 218.457C234.063 218.211 234.239 217.724 234.488 216.996C234.652 216.517 234.76 215.957 234.811 215.316C234.816 215.053 234.793 214.775 234.743 214.482C234.616 213.81 234.261 213.342 233.678 213.078L233.175 212.991C232.705 213.011 232.197 213.186 231.652 213.518C231.153 213.938 230.806 214.294 230.614 214.585C230.311 215.04 230.075 215.466 229.904 215.862C229.556 216.695 229.317 217.425 229.188 218.052C229.105 218.525 228.903 219.048 228.58 219.621C228.403 219.935 228.168 220.118 227.875 220.168C227.691 220.177 227.534 220.089 227.404 219.903C227.293 219.722 227.275 219.536 227.349 219.346C227.355 219.306 227.374 219.259 227.404 219.203C227.457 219.131 227.485 219.085 227.489 219.066C227.649 218.728 227.787 218.346 227.901 217.919C228.273 216.604 228.663 215.585 229.073 214.865C229.602 213.922 230.183 213.211 230.814 212.732C231.403 212.266 232.012 211.976 232.641 211.863C232.894 211.805 233.112 211.782 233.292 211.793C233.312 211.797 233.473 211.805 233.775 211.817C233.874 211.834 234.018 211.879 234.208 211.953C234.402 212.007 234.527 212.049 234.582 212.079C234.818 212.242 234.946 212.325 234.965 212.328C235.449 212.697 235.793 213.173 235.996 213.756C236.124 214.185 236.191 214.673 236.197 215.222ZM225.965 236.036C226.355 236.246 226.578 236.599 226.633 237.096C226.574 237.553 226.543 237.791 226.539 237.811C226.453 238.303 226.251 238.826 225.931 239.379C225.671 239.821 225.353 240.132 224.977 240.31C224.809 240.341 224.62 240.379 224.409 240.424C224.354 240.394 224.29 240.352 224.218 240.299C224.142 240.266 224.077 240.234 224.021 240.204C223.982 240.197 223.954 240.182 223.938 240.159C223.778 240.03 223.654 239.805 223.568 239.486C223.559 238.835 223.717 238.222 224.04 237.649C224.047 237.61 224.018 237.483 223.954 237.269C223.961 237.23 223.935 237.083 223.878 236.83C224.033 236.288 224.422 235.98 225.044 235.906C225.386 235.925 225.576 235.938 225.616 235.944C225.635 235.948 225.752 235.978 225.965 236.036Z" fill="#333333"/>
<path d="M236.197 215.222L235.197 215.233L235.197 215.253L235.198 215.274L236.197 215.222ZM236.053 216.75L235.074 216.545L235.071 216.562L235.068 216.579L236.053 216.75ZM235.896 217.302L234.94 217.009L234.921 217.069L234.911 217.13L235.896 217.302ZM235.841 217.444L234.927 217.039L234.927 217.039L235.841 217.444ZM234.986 219.731L234.079 219.31L234.076 219.317L234.073 219.324L234.986 219.731ZM231.768 224.744L231.005 224.097L230.999 224.104L230.994 224.111L231.768 224.744ZM230.097 226.645L230.829 227.327L230.83 227.326L230.097 226.645ZM228.451 228.582L229.255 229.176L229.259 229.17L229.264 229.164L228.451 228.582ZM227.897 229.49L228.777 229.964L228.781 229.957L228.784 229.95L227.897 229.49ZM227.606 230.109L226.655 229.8L226.633 229.868L226.621 229.938L227.606 230.109ZM227.497 230.913L226.504 230.79L226.487 230.926L226.508 231.061L227.497 230.913ZM227.625 231.574L228.624 231.536L228.621 231.451L228.603 231.368L227.625 231.574ZM227.338 232.347L227.975 233.118L228.035 233.068L228.087 233.009L227.338 232.347ZM226.626 232.588L226.347 233.548L226.548 233.607L226.756 233.58L226.626 232.588ZM225.732 231.427L224.732 231.42L224.732 231.483L224.739 231.546L225.732 231.427ZM226.527 228.612L227.394 229.11L226.527 228.612ZM228.065 226.596L227.341 225.907L227.335 225.913L227.33 225.919L228.065 226.596ZM229.706 224.872L230.43 225.561L229.706 224.872ZM231.87 222.234L231.048 221.665L231.046 221.668L231.87 222.234ZM233.959 218.457L234.88 218.846L234.881 218.845L233.959 218.457ZM234.488 216.996L233.542 216.67L233.541 216.672L234.488 216.996ZM234.811 215.316L235.807 215.395L235.81 215.365L235.81 215.336L234.811 215.316ZM234.743 214.482L235.728 214.312L235.727 214.304L235.725 214.297L234.743 214.482ZM233.678 213.078L234.09 212.167L233.974 212.115L233.849 212.093L233.678 213.078ZM233.175 212.991L233.347 212.006L233.241 211.987L233.133 211.992L233.175 212.991ZM231.652 213.518L231.133 212.663L231.067 212.703L231.008 212.753L231.652 213.518ZM230.614 214.585L231.446 215.139L231.447 215.137L230.614 214.585ZM229.904 215.862L228.985 215.467L228.981 215.477L229.904 215.862ZM229.188 218.052L228.208 217.85L228.205 217.865L228.203 217.88L229.188 218.052ZM228.58 219.621L227.709 219.13L227.708 219.131L228.58 219.621ZM227.875 220.168L227.922 221.167L227.984 221.164L228.045 221.154L227.875 220.168ZM227.404 219.903L226.549 220.423L226.567 220.452L226.586 220.479L227.404 219.903ZM227.349 219.346L228.281 219.707L228.317 219.615L228.334 219.517L227.349 219.346ZM227.404 219.203L226.599 218.609L226.557 218.666L226.524 218.729L227.404 219.203ZM227.489 219.066L226.585 218.637L226.527 218.76L226.504 218.894L227.489 219.066ZM227.901 217.919L226.939 217.648L226.936 217.659L227.901 217.919ZM229.073 214.865L229.942 215.359L229.945 215.355L229.073 214.865ZM230.814 212.732L231.419 213.529L231.427 213.523L231.435 213.516L230.814 212.732ZM232.641 211.863L232.819 212.847L232.84 212.843L232.861 212.838L232.641 211.863ZM233.292 211.793L233.464 210.808L233.409 210.799L233.354 210.795L233.292 211.793ZM233.775 211.817L233.947 210.831L233.882 210.82L233.815 210.817L233.775 211.817ZM234.208 211.953L233.847 212.885L233.893 212.903L233.94 212.916L234.208 211.953ZM234.582 212.079L235.151 211.256L235.105 211.225L235.057 211.199L234.582 212.079ZM234.965 212.328L235.571 211.533L235.377 211.385L235.137 211.343L234.965 212.328ZM235.996 213.756L236.954 213.469L236.947 213.448L236.94 213.428L235.996 213.756ZM225.965 236.036L226.439 235.155L226.337 235.1L226.225 235.07L225.965 236.036ZM226.633 237.096L227.625 237.225L227.64 237.105L227.627 236.985L226.633 237.096ZM225.931 239.379L226.793 239.886L226.797 239.88L225.931 239.379ZM224.977 240.31L225.163 241.292L225.289 241.269L225.405 241.213L224.977 240.31ZM224.409 240.424L223.935 241.304L224.257 241.478L224.616 241.402L224.409 240.424ZM224.218 240.299L224.812 239.495L224.724 239.43L224.623 239.385L224.218 240.299ZM224.021 240.204L224.495 239.324L224.353 239.247L224.193 239.219L224.021 240.204ZM223.938 240.159L224.756 239.584L224.675 239.469L224.566 239.381L223.938 240.159ZM223.568 239.486L222.568 239.499L222.569 239.625L222.602 239.747L223.568 239.486ZM224.04 237.649L224.911 238.141L224.995 237.991L225.025 237.821L224.04 237.649ZM223.954 237.269L222.969 237.097L222.928 237.33L222.996 237.556L223.954 237.269ZM223.878 236.83L222.917 236.554L222.846 236.8L222.903 237.05L223.878 236.83ZM225.044 235.906L225.099 234.907L225.012 234.902L224.925 234.913L225.044 235.906ZM235.198 215.274C235.216 215.618 235.18 216.039 235.074 216.545L237.032 216.956C237.164 216.326 237.224 215.728 237.196 215.171L235.198 215.274ZM235.068 216.579C235.072 216.552 235.076 216.543 235.069 216.569C235.064 216.588 235.056 216.617 235.044 216.659C235.021 216.742 234.986 216.858 234.94 217.009L236.852 217.594C236.936 217.319 237.014 217.059 237.038 216.922L235.068 216.579ZM234.911 217.13C234.917 217.094 234.924 217.066 234.928 217.05C234.933 217.033 234.937 217.02 234.94 217.012C234.942 217.004 234.944 216.998 234.945 216.995C234.946 216.994 234.946 216.993 234.947 216.992C234.947 216.991 234.947 216.991 234.947 216.991C234.947 216.991 234.947 216.991 234.947 216.992C234.947 216.992 234.946 216.993 234.946 216.994C234.945 216.997 234.943 217 234.942 217.004C234.938 217.013 234.933 217.024 234.927 217.039L236.755 217.85C236.775 217.805 236.795 217.758 236.812 217.713C236.82 217.694 236.86 217.592 236.881 217.473L234.911 217.13ZM234.927 217.039C234.887 217.128 234.824 217.278 234.795 217.445L236.765 217.788C236.76 217.818 236.755 217.84 236.751 217.852C236.748 217.865 236.745 217.873 236.744 217.875C236.743 217.878 236.745 217.871 236.755 217.85L234.927 217.039ZM234.795 217.445C234.745 217.734 234.534 218.331 234.079 219.31L235.892 220.153C236.346 219.179 236.665 218.366 236.765 217.788L234.795 217.445ZM234.073 219.324C233.351 220.941 232.332 222.532 231.005 224.097L232.531 225.39C233.964 223.701 235.09 221.951 235.899 220.139L234.073 219.324ZM230.994 224.111C230.546 224.66 230.004 225.277 229.365 225.965L230.83 227.326C231.49 226.616 232.061 225.966 232.543 225.376L230.994 224.111ZM229.366 225.964C228.607 226.777 228.024 227.46 227.637 228L229.264 229.164C229.575 228.729 230.089 228.12 230.829 227.327L229.366 225.964ZM227.646 227.988C227.422 228.291 227.21 228.641 227.009 229.03L228.784 229.95C228.95 229.631 229.107 229.376 229.255 229.176L227.646 227.988ZM227.016 229.016C226.864 229.299 226.729 229.573 226.655 229.8L228.557 230.419C228.571 230.377 228.629 230.238 228.777 229.964L227.016 229.016ZM226.621 229.938C226.592 230.104 226.553 230.396 226.504 230.79L228.489 231.035C228.538 230.634 228.572 230.39 228.591 230.281L226.621 229.938ZM226.508 231.061C226.531 231.219 226.58 231.466 226.647 231.781L228.603 231.368C228.536 231.05 228.499 230.856 228.485 230.764L226.508 231.061ZM226.626 231.613C226.626 231.623 226.625 231.628 226.625 231.63C226.625 231.632 226.625 231.633 226.624 231.634C226.624 231.635 226.618 231.652 226.589 231.684L228.087 233.009C228.448 232.602 228.646 232.097 228.624 231.536L226.626 231.613ZM226.702 231.575C226.751 231.535 226.775 231.534 226.732 231.548C226.693 231.561 226.618 231.581 226.496 231.597L226.756 233.58C227.144 233.529 227.612 233.418 227.975 233.118L226.702 231.575ZM226.906 231.628C226.824 231.604 226.809 231.58 226.804 231.574C226.792 231.558 226.747 231.49 226.725 231.309L224.739 231.546C224.792 231.987 224.933 232.423 225.219 232.794C225.512 233.175 225.906 233.42 226.347 233.548L226.906 231.628ZM226.732 231.435C226.733 231.281 226.767 230.963 226.859 230.436L224.889 230.093C224.795 230.63 224.735 231.088 224.732 231.42L226.732 231.435ZM226.859 230.436C226.918 230.095 227.081 229.656 227.394 229.11L225.66 228.114C225.274 228.787 225.001 229.449 224.889 230.093L226.859 230.436ZM227.394 229.11C227.695 228.586 228.156 227.974 228.801 227.273L227.33 225.919C226.622 226.688 226.058 227.42 225.66 228.114L227.394 229.11ZM228.79 227.285C228.84 227.233 229.386 226.658 230.43 225.561L228.981 224.183C227.937 225.28 227.391 225.855 227.341 225.907L228.79 227.285ZM230.43 225.561C231.306 224.641 232.062 223.721 232.694 222.801L231.046 221.668C230.482 222.488 229.795 223.327 228.981 224.183L230.43 225.561ZM232.692 222.804C233.57 221.536 234.3 220.217 234.88 218.846L233.038 218.067C232.514 219.306 231.851 220.505 231.048 221.665L232.692 222.804ZM234.881 218.845C235 218.562 235.187 218.042 235.434 217.319L233.541 216.672C233.291 217.405 233.126 217.859 233.038 218.068L234.881 218.845ZM235.433 217.321C235.631 216.744 235.752 216.098 235.807 215.395L233.814 215.237C233.768 215.815 233.673 216.289 233.542 216.67L235.433 217.321ZM235.81 215.336C235.817 215.002 235.788 214.66 235.728 214.312L233.757 214.652C233.798 214.89 233.814 215.104 233.811 215.296L235.81 215.336ZM235.725 214.297C235.543 213.33 234.993 212.576 234.09 212.167L233.265 213.99C233.529 214.109 233.689 214.291 233.76 214.667L235.725 214.297ZM233.849 212.093L233.347 212.006L233.004 213.976L233.506 214.064L233.849 212.093ZM233.133 211.992C232.445 212.021 231.773 212.274 231.133 212.663L232.172 214.372C232.621 214.099 232.965 214.001 233.217 213.99L233.133 211.992ZM231.008 212.753C230.487 213.191 230.053 213.621 229.78 214.033L231.447 215.137C231.56 214.967 231.818 214.685 232.296 214.283L231.008 212.753ZM229.781 214.031C229.453 214.524 229.185 215.003 228.985 215.467L230.823 216.257C230.964 215.929 231.169 215.556 231.446 215.139L229.781 214.031ZM228.981 215.477C228.618 216.347 228.355 217.14 228.208 217.85L230.167 218.254C230.28 217.71 230.494 217.043 230.827 216.248L228.981 215.477ZM228.203 217.88C228.146 218.208 227.995 218.622 227.709 219.13L229.451 220.112C229.811 219.474 230.065 218.842 230.173 218.224L228.203 217.88ZM227.708 219.131C227.671 219.196 227.65 219.21 227.658 219.204C227.661 219.201 227.669 219.196 227.68 219.191C227.692 219.186 227.701 219.184 227.706 219.183L228.045 221.154C228.698 221.041 229.162 220.626 229.452 220.111L227.708 219.131ZM227.829 219.169C227.919 219.165 228.02 219.187 228.109 219.237C228.149 219.259 228.177 219.282 228.196 219.3C228.214 219.317 228.222 219.328 228.222 219.328L226.586 220.479C226.861 220.87 227.315 221.195 227.922 221.167L227.829 219.169ZM228.258 219.384C228.27 219.403 228.295 219.454 228.302 219.529C228.31 219.606 228.296 219.67 228.281 219.707L226.416 218.984C226.225 219.478 226.285 219.989 226.549 220.423L228.258 219.384ZM228.334 219.517C228.323 219.577 228.308 219.62 228.3 219.642C228.291 219.665 228.284 219.677 228.284 219.677L226.524 218.729C226.469 218.831 226.396 218.986 226.363 219.174L228.334 219.517ZM228.208 219.797C228.242 219.751 228.281 219.697 228.316 219.64C228.333 219.612 228.358 219.57 228.382 219.521C228.399 219.486 228.449 219.38 228.474 219.237L226.504 218.894C226.517 218.819 226.536 218.762 226.548 218.729C226.561 218.694 226.573 218.667 226.581 218.65C226.597 218.616 226.611 218.595 226.614 218.59C226.621 218.579 226.619 218.583 226.599 218.609L228.208 219.797ZM228.392 219.495C228.582 219.094 228.739 218.654 228.867 218.179L226.936 217.659C226.834 218.038 226.716 218.362 226.585 218.637L228.392 219.495ZM228.864 218.191C229.225 216.91 229.59 215.979 229.942 215.359L228.204 214.371C227.737 215.192 227.32 216.298 226.939 217.648L228.864 218.191ZM229.945 215.355C230.43 214.49 230.929 213.901 231.419 213.529L230.21 211.935C229.437 212.521 228.775 213.354 228.201 214.375L229.945 215.355ZM231.435 213.516C231.917 213.135 232.378 212.926 232.819 212.847L232.463 210.879C231.646 211.026 230.889 211.398 230.194 211.948L231.435 213.516ZM232.861 212.838C233.059 212.793 233.176 212.788 233.231 212.791L233.354 210.795C233.047 210.776 232.73 210.817 232.42 210.887L232.861 212.838ZM233.121 212.779C233.174 212.788 233.223 212.791 233.225 212.791C233.241 212.793 233.258 212.794 233.272 212.795C233.301 212.797 233.338 212.799 233.38 212.801C233.465 212.805 233.584 212.81 233.736 212.816L233.815 210.817C233.665 210.811 233.552 210.807 233.476 210.803C233.437 210.801 233.411 210.8 233.395 210.799C233.387 210.798 233.385 210.798 233.388 210.798C233.389 210.798 233.395 210.799 233.403 210.8C233.407 210.8 233.432 210.803 233.464 210.808L233.121 212.779ZM233.604 212.802C233.594 212.8 233.608 212.802 233.657 212.817C233.703 212.832 233.766 212.854 233.847 212.885L234.57 211.02C234.368 210.942 234.147 210.866 233.947 210.831L233.604 212.802ZM233.94 212.916C234.027 212.941 234.089 212.959 234.128 212.973C234.137 212.976 234.144 212.978 234.149 212.98C234.155 212.982 234.157 212.983 234.157 212.983C234.157 212.983 234.156 212.982 234.154 212.982C234.152 212.981 234.15 212.98 234.146 212.978C234.139 212.975 234.126 212.969 234.108 212.959L235.057 211.199C234.885 211.106 234.648 211.037 234.477 210.99L233.94 212.916ZM234.014 212.901C234.134 212.984 234.234 213.052 234.309 213.101C234.346 213.125 234.386 213.151 234.424 213.173C234.442 213.184 234.471 213.2 234.505 213.218C234.523 213.226 234.551 213.24 234.586 213.254C234.611 213.264 234.689 213.295 234.794 213.313L235.137 211.343C235.194 211.353 235.239 211.366 235.266 211.375C235.295 211.384 235.318 211.393 235.335 211.399C235.366 211.412 235.389 211.423 235.4 211.429C235.413 211.435 235.422 211.44 235.427 211.443C235.432 211.446 235.436 211.448 235.437 211.449C235.439 211.45 235.437 211.448 235.429 211.444C235.423 211.44 235.413 211.434 235.401 211.425C235.348 211.391 235.267 211.336 235.151 211.256L234.014 212.901ZM234.36 213.124C234.685 213.371 234.912 213.684 235.051 214.085L236.94 213.428C236.674 212.662 236.214 212.022 235.571 211.533L234.36 213.124ZM235.038 214.043C235.134 214.364 235.192 214.757 235.197 215.233L237.197 215.212C237.19 214.589 237.114 214.005 236.954 213.469L235.038 214.043ZM225.491 236.916C225.551 236.948 225.615 236.987 225.639 237.207L227.627 236.985C227.54 236.211 227.159 235.543 226.439 235.155L225.491 236.916ZM225.641 236.967C225.612 237.196 225.589 237.369 225.574 237.487C225.566 237.546 225.56 237.591 225.556 237.621C225.55 237.666 225.551 237.658 225.554 237.639L227.524 237.982C227.533 237.934 227.569 237.657 227.625 237.225L225.641 236.967ZM225.554 237.639C225.493 237.989 225.342 238.401 225.065 238.879L226.797 239.88C227.16 239.252 227.414 238.618 227.524 237.982L225.554 237.639ZM225.069 238.873C224.887 239.182 224.706 239.332 224.549 239.406L225.405 241.213C226.001 240.931 226.456 240.461 226.793 239.886L225.069 238.873ZM224.792 239.327C224.615 239.36 224.419 239.4 224.203 239.446L224.616 241.402C224.821 241.359 225.003 241.322 225.163 241.292L224.792 239.327ZM224.884 239.544C224.884 239.544 224.879 239.541 224.865 239.532C224.852 239.524 224.835 239.512 224.812 239.495L223.624 241.104C223.72 241.174 223.825 241.245 223.935 241.304L224.884 239.544ZM224.623 239.385C224.565 239.359 224.523 239.339 224.495 239.324L223.547 241.084C223.631 241.13 223.72 241.173 223.812 241.213L224.623 239.385ZM224.193 239.219C224.305 239.239 224.565 239.313 224.756 239.584L223.12 240.734C223.342 241.051 223.658 241.156 223.85 241.189L224.193 239.219ZM224.566 239.381C224.609 239.416 224.615 239.437 224.602 239.412C224.587 239.386 224.561 239.329 224.533 239.224L222.602 239.747C222.713 240.156 222.913 240.617 223.309 240.937L224.566 239.381ZM224.568 239.473C224.562 239 224.673 238.562 224.911 238.141L223.169 237.158C222.76 237.883 222.557 238.669 222.568 239.499L224.568 239.473ZM225.025 237.821C225.054 237.652 225.034 237.51 225.03 237.473C225.021 237.41 225.009 237.351 224.999 237.304C224.977 237.208 224.946 237.098 224.912 236.982L222.996 237.556C223.01 237.604 223.021 237.643 223.03 237.676C223.039 237.709 223.045 237.732 223.048 237.745C223.049 237.752 223.05 237.754 223.05 237.754C223.05 237.753 223.048 237.746 223.047 237.734C223.045 237.723 223.042 237.698 223.041 237.664C223.041 237.646 223.04 237.622 223.042 237.593C223.043 237.565 223.046 237.525 223.055 237.478L225.025 237.821ZM224.939 237.441C224.966 237.284 224.951 237.147 224.948 237.121C224.942 237.064 224.934 237.008 224.925 236.96C224.908 236.862 224.883 236.742 224.853 236.609L222.903 237.05C222.916 237.109 222.927 237.159 222.936 237.202C222.944 237.245 222.951 237.277 222.954 237.299C222.956 237.311 222.957 237.318 222.958 237.322C222.959 237.326 222.958 237.324 222.958 237.318C222.957 237.312 222.955 237.294 222.955 237.267C222.955 237.253 222.955 237.232 222.956 237.206C222.957 237.182 222.96 237.144 222.969 237.097L224.939 237.441ZM224.839 237.105C224.867 237.007 224.898 236.983 224.907 236.976C224.923 236.964 224.987 236.92 225.162 236.899L224.925 234.913C224.478 234.966 224.038 235.113 223.665 235.409C223.285 235.71 223.044 236.111 222.917 236.554L224.839 237.105ZM224.988 236.904C225.158 236.914 225.286 236.921 225.376 236.927C225.421 236.93 225.452 236.933 225.472 236.935C225.482 236.935 225.486 236.936 225.486 236.936C225.486 236.936 225.482 236.935 225.477 236.935C225.472 236.934 225.46 236.932 225.444 236.93L225.787 234.959C225.703 234.945 225.58 234.937 225.511 234.932C225.409 234.925 225.271 234.917 225.099 234.907L224.988 236.904ZM225.444 236.93C225.427 236.927 225.415 236.924 225.411 236.923C225.406 236.922 225.402 236.921 225.402 236.921C225.4 236.921 225.401 236.921 225.407 236.923C225.419 236.925 225.437 236.93 225.465 236.937C225.52 236.952 225.599 236.973 225.705 237.001L226.225 235.07C226.052 235.023 225.866 234.973 225.787 234.959L225.444 236.93Z" fill="#202020"/>
<g clip-path="url(#clip0_42_6520)">
<path d="M61.2327 244.248C61.3546 244.777 61.3953 246.158 62.2891 247.62C63.0408 249.672 65.1737 251.683 67.3268 252.576C68.3018 253.186 69.155 253.267 70.0081 253.348C70.5972 253.49 71.1862 253.632 71.1862 253.632C71.1862 253.632 71.5113 253.836 72.6284 253.856C73.1566 253.734 73.7456 253.876 74.5378 253.693C74.8019 253.632 75.0659 253.571 75.0659 253.571C76.4472 253.531 78.0315 253.165 79.3518 252.86C82.2565 252.19 84.7752 251.052 87.6189 250.118C90.4017 248.919 93.1845 247.721 95.9063 246.258C96.6375 245.811 97.1656 245.689 97.8969 245.242C98.6281 244.795 99.1562 244.673 99.8875 244.227C100.68 244.044 101.147 243.658 101.939 243.475C102.731 243.292 103.462 242.845 103.991 242.723C109.942 240.793 116.544 239.27 122.901 236.69C126.212 235.369 129.462 233.785 132.468 231.144C133.199 230.697 133.87 229.986 134.54 229.275C135.21 228.564 135.82 227.589 136.49 226.878C137.445 224.989 138.074 222.897 138.176 220.927C138.643 216.925 137.728 212.964 136.875 209.267C135.758 205.631 134.64 201.995 132.934 198.217C131.553 194.642 129.907 191.128 128.526 187.554C127.144 183.979 125.702 180.14 124.321 176.565C118.673 161.737 112.579 146.178 106.749 130.557C105.306 126.718 103.803 122.615 102.361 118.776C100.918 114.937 99.415 110.834 97.3836 106.853C96.3679 104.863 95.3522 102.872 93.8083 101.003C92.2645 99.1346 90.2535 97.6519 87.8363 96.8192C83.0018 95.1537 78.1066 96.8399 74.2066 98.0181C65.9396 100.761 57.9975 103.706 49.9335 106.124C45.7695 107.363 41.8695 108.541 37.9086 109.456C33.6837 110.431 29.5806 111.934 25.6604 114.229C23.7307 115.509 22.1261 116.992 20.5824 118.739C19.0387 120.486 17.881 122.7 17.3124 125.056C16.6828 127.149 16.7032 129.647 16.9267 131.82C16.9064 132.938 17.1502 133.994 17.394 135.05L18.1254 138.219C20.2788 146.344 23.4276 153.961 26.5154 161.314C29.6032 168.667 32.955 175.959 35.7178 183.109C38.4806 190.259 41.2434 197.409 43.9452 204.294C48.2722 215.811 52.4774 226.8 56.4996 236.997C57.7591 240.044 58.5717 242.359 58.5717 242.359L58.8967 242.563C61.1108 243.72 61.8623 242.156 62.2076 241.242L62.1467 240.978C62.1467 240.978 61.3341 238.662 60.0746 235.616C56.4383 225.886 52.355 215.425 48.1499 204.436C45.4481 197.551 42.7462 190.665 39.9834 183.515C37.2207 176.365 33.9298 169.337 30.842 161.984C27.7542 154.631 24.6664 147.278 22.3708 139.742C21.6801 137.955 21.1925 135.842 20.7658 133.994C20.3392 132.145 20.1766 130.236 20.3391 128.53C20.3593 127.412 20.7046 126.498 20.7858 125.645C21.1311 124.731 21.2123 123.878 21.8826 123.167C22.6341 121.603 23.9747 120.181 25.3762 119.023C28.1792 116.707 31.9573 115.001 35.8572 113.823C37.6447 113.132 39.7572 112.645 41.8697 112.157C43.9822 111.669 46.0337 110.918 47.8821 110.491C55.9461 108.074 63.8882 105.128 71.8912 102.446C73.9427 101.695 75.7911 101.268 77.8427 100.516C78.8989 100.273 79.6911 100.09 80.7473 99.846C81.2755 99.7241 81.5395 99.6632 82.0676 99.5413L82.8598 99.3584L83.4489 99.5006C85.3583 99.338 86.8614 99.8254 88.4864 100.841C90.0505 101.593 91.2694 103.258 92.1632 104.721C94.2758 107.849 95.7181 111.688 97.2214 115.791C98.6638 119.63 100.106 123.469 101.548 127.308C107.318 142.664 113.351 157.959 118.938 172.523C120.319 176.098 121.761 179.937 123.143 183.512C123.834 185.299 124.524 187.086 125.215 188.874C125.906 190.661 126.596 192.449 127.551 194.175C130.517 201 133.219 207.886 134.214 214.61C134.682 217.839 134.682 221.455 133.321 223.994C132.915 224.644 132.509 225.294 132.041 225.68C131.574 226.066 130.904 226.777 130.498 227.427C129.36 228.524 127.898 229.418 126.699 230.25C121.053 233.501 114.776 235.228 108.764 236.893C105.656 237.889 102.751 238.559 99.9685 239.758C98.4451 240.388 97.1858 240.956 95.6623 241.586C94.403 242.155 93.1436 242.724 91.6812 243.618C86.7047 246.157 81.6063 248.168 76.8533 249.265C76.3251 249.387 75.797 249.509 75.0048 249.692L74.2127 249.874C73.9486 249.935 73.9486 249.935 73.6845 249.996L73.4205 250.057C73.1564 250.118 73.1564 250.118 73.1564 250.118C72.8924 250.179 72.6283 250.24 72.3642 250.301C71.5111 250.22 70.983 250.342 70.983 250.342L70.7189 250.403C70.4549 250.464 70.1299 250.261 69.6017 250.382C68.7486 250.301 67.5705 250.017 66.6564 249.672C65.7423 249.326 64.7063 248.453 64.3204 247.986C63.6094 247.316 63.5485 247.051 63.5485 247.051C62.3906 245.65 61.4968 244.187 61.1108 243.72C61.253 243.131 61.314 243.395 61.2327 244.248Z" fill="#202020"/>
<path d="M122.088 209.065L123.083 208.557L124.545 207.663L125.277 207.216L125.805 207.094L126.069 207.033C126.069 207.033 126.069 207.033 126.008 206.769L125.317 204.982C125.134 204.19 124.687 203.458 124.505 202.666C123.631 200.087 122.758 197.507 121.823 194.663C118.004 184.142 113.738 172.889 109.411 161.372C107.217 155.481 104.556 149.976 102.098 144.147C100.899 141.364 99.6395 138.317 98.38 135.27C97.1205 132.224 95.922 129.441 94.9266 126.333C93.9311 123.225 92.9357 120.118 91.6762 117.071C91.0464 115.547 90.4167 114.024 89.7869 112.5C89.34 111.769 89.1572 110.977 88.7103 110.246L88.1415 108.986L87.0648 106.732L87.0039 106.468C86.9429 106.204 86.9429 106.204 86.7398 106.529L86.2117 106.651L84.8914 106.955L83.307 107.321L80.9915 108.134L76.2993 109.495C73.1915 110.49 70.0838 111.486 66.976 112.481C53.7527 116.646 41.3826 120.891 29.2562 126.193L27.4687 126.884L26.4734 127.392L25.9453 127.514C25.6813 127.575 25.9453 127.514 26.0063 127.778L26.0672 128.042L27.5096 131.881C27.8752 133.465 28.505 134.989 29.1347 136.512C30.1302 139.62 31.3287 142.403 32.3242 145.511C34.5181 151.401 36.4481 157.353 38.378 163.304C42.441 174.882 46.2399 186.521 50.3231 196.982C52.3952 202.344 54.6704 207.382 56.9456 212.419C58.0832 214.938 59.1598 217.192 60.2974 219.711C60.7443 220.442 60.9272 221.234 61.3741 221.966C62.8976 224.952 64.1774 226.881 64.2383 227.145L64.5634 227.348C66.9806 228.181 67.468 226.678 67.4883 225.561C67.4273 225.297 67.4273 225.297 67.4273 225.297C67.4273 225.297 66.4116 223.306 64.8881 220.32C64.7662 219.792 64.3802 219.325 64.2583 218.797C63.1817 216.542 62.105 214.288 60.9674 211.769C58.4891 207.056 56.478 201.958 54.4668 196.86C50.3836 186.399 46.4425 175.349 42.6436 163.71C40.7747 158.023 38.5807 152.132 36.6507 146.181C35.6553 143.073 34.4568 140.29 33.4613 137.182C32.8316 135.659 32.2018 134.136 31.5721 132.612L30.8204 130.561L30.6985 130.032L30.6376 129.768L33.1563 128.631L37.4625 126.803C40.5093 125.543 43.353 124.609 46.3998 123.349C52.5545 121.094 58.5059 119.164 64.6605 116.909C70.8761 114.918 77.0916 112.928 83.1041 111.262L84.4244 110.957L84.4853 111.221C85.1151 112.744 85.9479 113.943 86.5777 115.466C87.7762 118.249 88.7717 121.357 90.0312 124.404C91.0266 127.511 91.9611 130.355 93.2206 133.402C94.4801 136.449 95.6786 139.231 96.8772 142.014C99.3352 147.844 101.996 153.348 104.129 158.975C106.527 164.54 108.395 170.228 110.468 175.59C112.54 180.953 114.612 186.315 116.359 191.474C117.232 194.054 118.106 196.634 119.244 199.152C119.812 200.412 120.117 201.732 120.686 202.991C120.808 203.52 120.991 204.312 121.377 204.779C121.438 205.043 121.438 205.043 121.438 205.043L120.909 205.165C120.442 205.551 119.65 205.734 119.183 206.12C117.924 206.688 116.928 207.196 115.933 207.704C113.678 208.781 111.363 209.593 109.047 210.406C104.416 212.031 99.9878 213.331 95.8848 214.835C91.7817 216.338 87.7396 218.105 84.1646 219.487C82.6412 220.116 81.3819 220.685 80.3866 221.193C79.9194 221.579 79.3913 221.701 79.3913 221.701C79.3913 221.701 77.1976 223.042 74.6789 224.179C72.4242 225.256 70.2305 226.597 70.4946 226.536C66.7775 228.506 64.4416 230.436 71.2462 228.587C75.2071 227.673 80.5695 225.601 80.5695 225.601C80.5695 225.601 81.0977 225.479 81.8289 225.032C82.357 224.91 82.8242 224.524 83.3523 224.402C84.3476 223.894 85.607 223.326 86.6023 222.818C88.6538 222.066 90.3803 221.111 92.4318 220.36C96.474 218.592 100.902 217.292 105.533 215.667C110.164 214.042 115.06 212.356 120.097 210.081C120.828 209.634 121.56 209.187 122.088 209.065Z" fill="#202020"/>
<path d="M105.879 229.215C105.676 229.54 105.615 229.276 105.879 229.215C105.148 229.662 104.884 229.723 104.884 229.723C101.167 231.694 98.7698 233.359 105.635 231.775L106.428 231.592L106.692 231.531L107.22 231.409C108.012 231.226 108.804 231.043 109.535 230.596C109.353 229.804 109.231 229.276 109.048 228.484C108.987 228.22 108.865 227.692 108.804 227.428C108.743 227.164 108.682 226.9 108.682 226.9C108.499 226.107 108.316 225.315 107.869 224.584C107.301 223.325 106.793 222.329 106.793 222.329C106.407 221.862 105.96 221.131 105.31 220.725C104.985 220.522 104.66 220.319 104.335 220.115C104.01 219.912 103.685 219.709 102.832 219.628C101.715 219.608 101.451 219.669 100.922 219.791C100.394 219.912 99.8662 220.034 99.6021 220.095C98.8099 220.278 97.7537 220.522 97.0225 220.969C96.2303 221.152 95.235 221.66 94.4428 221.842C93.9147 221.964 93.7116 222.289 93.1835 222.411C92.9194 222.472 92.7163 222.797 92.4522 222.858C92.1882 222.919 91.9851 223.244 91.5179 223.63C90.3804 224.727 90.0961 225.905 89.7508 226.819C89.4665 227.997 89.3853 228.85 89.365 229.968C89.3447 231.085 89.5885 232.141 90.0964 233.136C90.6042 234.132 91.4371 235.33 92.4121 235.939L93.0012 236.082C93.2652 236.021 93.3262 236.285 93.5903 236.224C94.1793 236.366 94.4434 236.305 95.0325 236.447C95.8856 236.528 96.6168 236.081 97.1449 235.959C98.4043 235.391 99.1355 234.944 99.9277 234.761L100.131 234.436C100.74 233.461 100.821 232.608 100.699 232.08C100.578 231.552 99.6635 231.206 99.0744 231.064C98.8104 231.125 98.8104 231.125 98.8104 231.125C97.4901 231.43 96.5557 232.202 95.7635 232.385C95.2354 232.506 94.9714 232.567 94.9714 232.567L94.7073 232.628L94.6464 232.364C93.9963 231.958 93.1635 230.76 93.1228 229.378C92.94 228.586 93.0821 227.997 93.2243 227.408C93.3664 226.819 93.7727 226.169 93.9758 225.844C95.6414 224.625 100.537 222.939 102.446 222.776C102.446 222.776 102.446 222.776 102.71 222.715L103.035 222.919C103.36 223.122 103.421 223.386 103.746 223.589C103.746 223.589 104.396 223.995 104.965 225.254C105.351 225.722 105.534 226.514 105.981 227.245C106.041 227.509 106.102 227.773 106.102 227.773L106.163 228.037L106.224 228.301C106.143 229.154 105.879 229.215 105.879 229.215Z" fill="#202020"/>
</g>
<g clip-path="url(#clip1_42_6520)">
<path d="M202.954 90.9241C210.69 84.5573 220.941 83.4893 230.586 84.4684C241.533 85.5735 253.247 88.5942 262.611 94.4759C271.581 100.112 278.567 109.63 277.805 120.672C277.008 131.842 269.215 141.282 258.747 144.827C253.051 146.772 247.606 146.619 241.764 145.897C236.406 145.261 235.506 152.76 234.945 156.664C235.324 156.629 235.714 156.552 236.092 156.517C233.903 153.059 231.893 149.282 229.419 146.023C227.312 143.279 223.841 142.145 220.855 140.591C213.837 136.919 206.976 132.505 201.958 126.245C197.453 120.633 194.355 113.422 195.024 106.09C195.63 99.1557 199.571 92.6726 205.908 89.5654C206.552 89.2344 205.979 88.2939 205.347 88.582C195.659 92.9853 192.002 104.664 194.525 114.483C197.542 126.374 207.458 134.62 217.785 140.35C221.025 142.159 225.548 143.489 228.054 146.295C229.434 147.825 230.434 149.897 231.572 151.638C232.729 153.476 233.874 155.357 235.031 157.195C235.292 157.589 236.111 157.628 236.177 157.047C236.428 155.456 236.711 153.92 237.176 152.387C237.618 150.94 238.064 148.803 239.188 147.728C240.488 146.516 242.777 147.419 244.294 147.603C245.64 147.741 246.997 147.836 248.335 147.833C253.405 147.837 258.426 146.675 262.995 144.467C272.145 140.009 278.506 130.915 279.229 120.692C280.002 110.115 273.855 100.734 265.528 94.7669C256.321 88.1443 244.361 85.0102 233.227 83.5774C222.588 82.1879 210.999 83.2587 202.522 90.483C202.127 90.744 202.603 91.1969 202.954 90.9241Z" fill="#202020"/>
<path d="M217.489 83.467C209.159 77.1766 198.85 73.0649 188.742 70.5759C179.547 68.2905 169.785 67.2333 160.4 68.6764C151.783 70.0072 143.585 73.8501 138.091 80.7843C133.262 86.978 130.844 95.3072 133.373 102.915C136.256 111.588 144.185 117.492 152.318 120.962C152.217 120.658 152.17 120.322 152.069 120.018C149.652 123.46 146.939 126.637 143.972 129.559C143.531 129.992 143.893 130.69 144.443 130.703C148.85 130.94 153.239 130.066 157.199 128.061C159.829 126.706 161.835 125.272 164.971 125.945C167.708 126.556 170.364 127.467 173.058 128.066C178.35 129.284 183.705 130.103 189.122 130.525C193.322 130.844 197.784 131.051 201.484 128.651C202.096 128.266 201.567 127.337 200.923 127.668C196.705 130.11 191.572 129.489 186.955 129.01C181.26 128.42 175.586 127.421 170.041 125.95C167.97 125.429 165.865 124.53 163.755 124.322C161.871 124.129 160.272 124.752 158.644 125.644C154.134 128.144 149.647 129.545 144.464 129.279C144.639 129.65 144.759 130.051 144.935 130.422C148.022 127.394 150.802 124.144 153.286 120.627C153.496 120.362 153.368 119.82 153.037 119.683C146.026 116.659 139.248 111.945 135.778 104.91C132.102 97.4495 133.923 88.7727 138.761 82.2124C149.647 67.5326 170.721 67.8581 186.791 71.4714C197.687 73.9454 207.422 78.6378 217.063 84.1804C217.531 84.4928 217.914 83.7676 217.489 83.467Z" fill="#202020"/>
<path d="M153.647 86.9422C156.179 87.658 158.738 88.3118 161.292 88.9588C161.525 89.0178 161.758 89.0768 161.991 89.1357C164.313 89.7233 166.628 90.3094 168.922 90.9372C170.758 91.4562 172.608 92.0419 174.468 92.6306C177.659 93.6404 180.877 94.6591 184.097 95.3656C184.537 95.477 184.859 95.1607 184.975 94.9383C185.043 94.8073 185.095 94.6232 185.051 94.422C185.003 94.1969 184.849 94.0205 184.639 93.9292L184.639 93.9292L184.634 93.9273C181.093 92.4341 177.23 91.404 173.474 90.4024C172.236 90.0722 171.009 89.745 169.809 89.4054L169.809 89.4054L169.805 89.4042C169.334 89.2752 168.861 89.1456 168.388 89.0157C163.66 87.7183 158.853 86.3991 154.019 85.4551L154.006 85.4527L153.994 85.4509C153.552 85.3874 153.205 85.6649 153.108 86.0169C153.061 86.1883 153.071 86.3888 153.169 86.571C153.271 86.7598 153.446 86.8863 153.647 86.9422ZM153.647 86.9422C153.648 86.9424 153.649 86.9426 153.65 86.9428L153.782 86.4606L153.646 86.9417C153.646 86.9418 153.647 86.942 153.647 86.9422Z" fill="#202020" stroke="#202020"/>
<path d="M178.339 106.884L178.339 106.884L178.346 106.886C178.835 107.02 179.191 106.686 179.316 106.395C179.445 106.099 179.439 105.603 178.985 105.348L178.962 105.335L178.937 105.324C174.055 103.234 168.781 101.756 163.651 100.319C163.104 100.165 162.558 100.013 162.015 99.8595L162.015 99.8595C156.05 98.1813 150.06 96.7734 143.983 95.5262L143.964 95.5223L143.945 95.5199C143.486 95.4622 143.184 95.7914 143.102 96.0905C143.06 96.2444 143.057 96.4446 143.16 96.6321C143.267 96.8292 143.456 96.9462 143.663 96.9799C149.524 98.2616 155.344 99.6707 161.135 101.347C164.001 102.177 166.834 103.135 169.684 104.099L169.7 104.105C172.552 105.069 175.422 106.04 178.339 106.884Z" fill="#202020" stroke="#202020"/>
<path d="M224.496 105.798C224.289 105.748 224.086 105.794 223.928 105.909C223.778 106.018 223.691 106.172 223.652 106.316C223.612 106.459 223.609 106.636 223.683 106.806C223.762 106.99 223.919 107.135 224.13 107.195C228.285 108.427 232.55 109.448 236.785 110.462C238.691 110.918 240.59 111.373 242.471 111.845C244.485 112.35 246.509 112.888 248.539 113.429C252.612 114.512 256.713 115.603 260.827 116.451L260.839 116.454L260.85 116.455C261.341 116.533 261.697 116.199 261.804 115.856C261.859 115.679 261.863 115.462 261.762 115.257C261.658 115.044 261.467 114.901 261.242 114.838C256.973 113.571 252.581 112.55 248.226 111.537C246.432 111.12 244.645 110.704 242.875 110.273C240.855 109.782 238.826 109.257 236.79 108.731C232.715 107.678 228.612 106.617 224.496 105.798Z" fill="#202020" stroke="#202020"/>
<path d="M217.269 113.412C217.09 113.342 216.881 113.335 216.69 113.432C216.499 113.53 216.387 113.7 216.341 113.865C216.249 114.204 216.415 114.618 216.841 114.745C225.911 117.872 235.157 120.541 244.552 122.511L244.559 122.512L244.567 122.513C245.119 122.612 245.497 122.226 245.599 121.853C245.651 121.664 245.649 121.433 245.537 121.221C245.419 120.997 245.207 120.85 244.953 120.802C235.622 118.755 226.39 116.366 217.269 113.412Z" fill="#202020" stroke="#202020"/>
</g>
<defs>
<clipPath id="clip0_42_6520">
<rect width="100" height="152.304" fill="white" transform="translate(12.0916 112.077) rotate(-12.9969)"/>
</clipPath>
<clipPath id="clip1_42_6520">
<rect width="150" height="84.6074" fill="white" transform="translate(143.519 50) rotate(15.3024)"/>
</clipPath>
</defs>
</svg>
