<svg width="30" height="75" viewBox="0 0 30 75" fill="none" xmlns="http://www.w3.org/2000/svg">
<path d="M11.7639 1.31038C9.0202 0.223709 8.10406 1.79898 8.04166 2.6889C8.03126 2.83721 8.03126 2.83721 8.02086 2.98553L9.65836 5.48514L10.8846 8.10494C12.6498 11.6568 14.0036 15.3289 14.7562 18.9589L15.0635 20.3218L15.3707 21.6848C15.5088 22.5888 15.6468 23.4927 15.9749 24.5591C16.2405 26.5154 16.5166 28.3233 16.5818 30.2655C16.9231 34.0156 16.8532 37.886 16.7936 41.608L16.596 44.4261L16.3984 47.2441C16.3152 48.4307 16.2944 48.7273 16.2528 49.3206L16.1384 50.9521C16.1384 50.9521 16.0968 51.5454 16.0344 52.4353C15.972 53.3252 16.0893 54.5258 16.0061 55.7124C16.0401 58.0995 15.8841 60.3243 15.8945 60.176C15.9389 62.4149 16.2046 64.3711 16.8267 64.1166L14.2343 66.6177L13.3777 64.471C11.8546 60.3399 10.1311 56.1947 7.78541 52.304C6.70761 50.4399 5.61938 48.7241 4.33074 46.9942C4.33074 46.9942 4.14071 46.8318 3.94028 46.8177C0.985763 45.8653 0.270054 47.4547 0.207653 48.3446C0.197253 48.4929 0.197254 48.4929 0.186854 48.6412C1.48589 50.2228 2.57411 51.9386 3.46188 53.6404C5.62789 57.2204 7.1718 61.0549 8.71571 64.8893L9.22342 66.2664L9.71033 67.9401L11.7099 73.8932L11.8896 74.2038L11.9 74.0555L12.1108 73.9213L12.7537 73.3702L14.0395 72.2679L16.4107 70.0494L18.3394 68.3961L19.6252 67.2938L21.7855 65.2096C21.7855 65.2096 23.5346 63.2456 25.0833 61.2675C26.6319 59.2894 28.1806 57.3113 27.9697 57.4456C30.4241 54.0405 31.1918 51.7096 26.0382 56.2668C24.3307 57.6376 22.4124 59.1426 20.9053 60.5274C19.4087 61.7639 18.3337 62.7318 18.3337 62.7318L17.0375 63.9824C17.2796 63.4032 17.7428 62.5413 18.2685 60.7896C18.7942 59.0379 19.351 56.8412 19.6659 55.2238C19.9911 53.458 20.2747 52.2855 20.2747 52.2855L20.5139 48.8742C20.6491 46.946 20.7843 45.0179 20.9299 42.9414C21.0651 41.0133 20.9999 39.0711 20.9451 36.9805C20.8798 35.0383 20.8146 33.0961 20.7598 31.0056C20.4289 27.1071 19.9079 23.0463 18.9757 19.1057C18.0435 15.165 16.7104 11.1963 14.7553 7.48207L13.339 4.69988L11.7119 2.05198C12.1648 1.33849 11.9643 1.32444 11.7639 1.31038Z" fill="#0475C7"/>
</svg>
