<svg width="110" height="30" viewBox="0 0 110 30" fill="none" xmlns="http://www.w3.org/2000/svg"><path d="M107.904 9c.973 1.221 1.614 2.86 1.717 4.696.228 4.075-2.244 7.598-5.514 7.888-1.543.135-2.982-.473-4.107-1.58 1.163 1.357 2.754 2.126 4.471 1.978 3.276-.284 5.747-3.812 5.514-7.881-.114-2.058-.897-3.86-2.07-5.101M96.45 17.695c-.235.135-.288.348-.168.667.107.291.281.419.469.34.147-.056.173-.198.113-.546l-.026-.134c-.06-.348-.067-.497-.034-.646.04-.163.127-.277.268-.334.334-.142.642.078.83.575.2.532.093.937-.302 1.107l-.094-.262c.275-.121.342-.398.194-.781-.12-.312-.307-.454-.508-.369-.16.064-.2.227-.14.582l.02.149.026.135c.04.262.047.355.027.475a.424.424 0 0 1-.254.305c-.308.135-.615-.063-.783-.503-.18-.483-.08-.845.268-1.008l.1.262-.007-.014Zm.356-2.63L97.958 14l.007.388-.972.89.313.38.687-.015.007.311-1.958.046-.007-.312.77-.015h.209l-.07-.076-.069-.076-.861-1.027-.014-.41.806.98Zm.506-2.805.688.29-.082.29-.688-.29L96 13l.1-.351.764-.26.095-.03a.706.706 0 0 1 .132-.038 1.214 1.214 0 0 1-.132-.214l-.473-.771.1-.336.733 1.267-.007-.008Zm.947-3.05-.368.48 1.109.961-.268.349-1.109-.96-.374.48-.249-.224L98.01 9l.249.21Zm2.053-1.96-.82.46.173.287.757-.42.139.232-.758.42.209.333.838-.47.15.249L99.827 9 99 7.648 100.162 7l.15.25Zm3.688.444-.476.031-.238-.381-.733.112-.103.431L102 8l.476-1.931.45-.069L104 7.688v.006Zm-1.042-.907a2.035 2.035 0 0 1-.193-.362 2.63 2.63 0 0 1-.077.4l-.077.337.527-.08-.18-.295Zm2.652 1.196-.299-.121.117-.466c.01-.055.03-.127.056-.227l.06-.227c.021-.061.036-.128.056-.194l.035-.11a6.865 6.865 0 0 1-.278.487l-.405.62-.258-.072-.081-.748a1.17 1.17 0 0 0-.016-.166c0-.1-.01-.172-.01-.222V6.35l-.035.188c-.046.205-.061.294-.117.543l-.121.504L104 7.53l.359-1.53.482.1.065.725c.021.172.021.31.016.516.055-.117.07-.155.136-.26.041-.073.076-.134.112-.189l.374-.587.456.171L105.63 8l-.02-.017Z" fill="#fff"/><path d="M103.262 11.928c-.187.187-.56.591-.922.984l-.406.442a4.925 4.925 0 0 0-.998-.1c-.757 0-1.442.237-1.76.604a.645.645 0 0 0-.176.449c.006.417.428.622.554.678.669.28 1.234.2 1.821-.268.324-.255.718-.672 1.026-1.008.241.062.51.143.8.236l.269.088c-.346.386-.708.797-1.037 1.127l-.027.025c-.461.46-.79.79-1.272.915-.34.08-.576 0-.658-.05-.006 0-.017.019-.017.019.28.261.543.41.993.361.433-.044.932-.349 1.437-.89l.691-.766.482-.542.976.324h.017l-.603.672-.516.585c-.532.586-.817.885-1.13 1.134-.51.41-.948.629-1.338.66-.203.019-.488 0-.729-.162-.011 0-.022.012-.022.012.258.256.581.56 1.135.542.625-.025 1.179-.361 2.04-1.258.395-.41.784-.865 1.124-1.276l.642-.735c.422.106.795.15 1.212.143.609-.012 1.124-.342 1.13-.722.005-.274-.198-.424-.318-.517a1.266 1.266 0 0 0-.746-.243c-.455 0-.932.224-1.409.679l-.324.324-.115-.038-.894-.286c.263-.274.488-.517.691-.722.488-.492 1.025-.698 1.343-.716.231-.02.631 0 .796.136.011 0 .022-.018.022-.018-.439-.424-.818-.486-1.13-.486-.313 0-.806.112-1.41.642-.246.217-.57.579-.904.965l-.45-.156-.11-.037-.477-.162.274-.287c.318-.355.62-.69.856-.915.855-.816 1.393-.922 1.766-.928.411 0 .735.094.965.287.005 0 .016-.02.016-.02-.477-.491-.822-.647-1.42-.653-.521 0-1.152.324-1.76.934v-.006Zm-3.357 2.914c-.274-.019-.411-.15-.411-.392 0-.031.016-.803 1.574-.89.175-.013.373-.02.674.018-.011 0-.175.168-.175.168l-.099.1c-.373.386-1.003 1.027-1.563.984v.012Zm6.285-.635c.444-.343.817-.523 1.048-.517.137 0 .301.05.301.243s-.164.361-.488.492c-.285.112-.718.143-1.195.087a3.32 3.32 0 0 1 .334-.305Zm.86-6.907a.486.486 0 0 1 .649-.259.485.485 0 0 1 .255.655.478.478 0 0 1-.649.258.5.5 0 0 1-.266-.655h.011Zm.809.396a.415.415 0 0 0-.171-.569.428.428 0 0 0-.574.161.424.424 0 0 0 .17.57.413.413 0 0 0 .564-.162h.011Zm-.298.15-.085-.042-.022-.3-.085-.044-.117.215-.064-.032.256-.473.202.118c.085.043.159.118.096.215-.054.097-.139.097-.224.043l.021.3h.022Zm-.064-.407c.053.032.149.107.191.032.032-.054-.032-.097-.085-.118l-.127-.075-.064.118.085.043Z" fill="#fff"/><path d="M32.85 27.15c1.614.306 4.695.787 8.477.884 3.77.117 8.206-.15 12.394-.903 4.188-.734 8.117-1.961 10.905-3.293C67.436 22.565 69.01 21.006 69 21c.017.013-1.62 1.806-4.594 3.351-2.947 1.605-7.106 3.137-11.48 4.131-4.375 1.02-8.963 1.487-12.7 1.513-3.73.052-6.632-.35-7.647-.545-3.511-.624-6.062-1.74-7.62-2.812-1.575-1.079-2.094-2.06-1.93-2.241.175-.227.954.227 2.54.825 1.586.597 4.001 1.344 7.286 1.935" fill="#EF7B10"/><path fill-rule="evenodd" clip-rule="evenodd" d="m49.183 13 2.4-5.413h.04L54.274 13H57l-3.522-7H51.18L48 13h1.183Zm-37.322-2.519 3.576-.053c-.037 1.055-.5 1.648-.74 1.898-.592.593-1.44.64-1.84.64-.59 0-1.102-.106-1.624-.501-.33-.25-.714-.673-.9-1.028l-.16-.304-1.168.844a5.13 5.13 0 0 0 1.434 1.35c.863.541 1.657.673 2.616.673 1.023 0 2.622-.184 3.773-1.278A3.785 3.785 0 0 0 18 10c0-.923-.373-1.97-1.172-2.722C15.83 6.33 14.382 6 13.082 6c-.842 0-1.615.105-2.398.474-.656.29-1.167.686-1.684 1.26l1.167.83.282-.383c.23-.33.624-.632.976-.81.468-.264.964-.343 1.475-.343 1.034 0 1.626.422 1.961.83.219.264.512.758.581 1.523l-3.575-.066v1.16l-.006.006ZM62 6.93c.606 0 1.294.157 1.828.988.428.659.5 1.423.5 2.089 0 .665-.072 1.416-.5 2.089-.534.83-1.222.988-1.828.988-.606 0-1.3-.158-1.833-.988-.428-.673-.506-1.417-.506-2.09 0-.672.078-1.43.506-2.088.533-.824 1.222-.989 1.833-.989ZM62 14c1.133 0 2.706-.316 3.767-1.278A3.735 3.735 0 0 0 67 10c0-.91-.394-1.97-1.233-2.722C64.71 6.316 63.133 6 62 6s-2.711.316-3.778 1.278A3.722 3.722 0 0 0 57 10c0 .91.389 1.97 1.222 2.722C59.29 13.684 60.883 14 62 14Z" fill="#fff"/><path fill-rule="evenodd" clip-rule="evenodd" d="M41.377 8.167c.227-.092.486-.144.75-.144h.275v3.902h-.275c-.264 0-.529-.053-.75-.144a1.36 1.36 0 0 1-.529-.34c-.27-.276-.496-.727-.496-1.474 0-.746.227-1.185.497-1.46a1.4 1.4 0 0 1 .528-.34Zm4.251 4.713c1.311-.104 2.002-.497 2.369-.785.69-.537 1.003-1.296 1.003-2.134a2.639 2.639 0 0 0-1.003-2.115c-.62-.504-1.495-.713-2.369-.785-.237-.027-.47-.027-.701-.027h-.254V6h-2.346v1.034h-.248c-.233 0-.47 0-.702.027-.885.065-1.759.275-2.368.785A2.615 2.615 0 0 0 38 9.961c0 .838.318 1.597 1.009 2.134.356.281 1.046.674 2.368.785.216.014.448.027.701.027h.249V14h2.346v-1.093h.254c.254 0 .486-.013.701-.027Zm0-4.713c.205.079.383.183.529.34.275.275.496.727.496 1.46s-.22 1.205-.496 1.473a1.401 1.401 0 0 1-.529.34 2.076 2.076 0 0 1-.76.145h-.265V8.023h.265c.275 0 .528.052.76.144ZM32.011 6.93c.595 0 1.302.157 1.835.988.429.659.501 1.423.501 2.089 0 .665-.072 1.416-.5 2.089-.534.83-1.24.988-1.836.988-.595 0-1.307-.158-1.84-.988-.435-.673-.496-1.417-.496-2.09 0-.672.067-1.43.495-2.088.534-.824 1.235-.989 1.841-.989Zm0 7.07c1.124 0 2.714-.316 3.771-1.278A3.756 3.756 0 0 0 37 10c0-.91-.39-1.97-1.218-2.722C34.725 6.316 33.135 6 32.012 6c-1.124 0-2.72.316-3.783 1.278A3.727 3.727 0 0 0 27 10c0 .91.39 1.97 1.23 2.722 1.055.962 2.645 1.278 3.78 1.278Zm-9.061-3.565h.47c1.21 0 2.05-.147 2.653-.538.753-.5.927-1.179.927-1.716 0-.538-.168-1.21-.927-1.68C25.471 6.122 24.666 6 23.31 6H19v7h2.52v-2.565h1.43Zm0-3.36c.308.012.702.073.986.269.382.269.446.635.446.855 0 .22-.053.61-.47.892-.284.207-.631.269-.961.293H21.52V7.069h1.17c.075 0 .162 0 .26.012m-19.244.562 1.176 2.382H2.536l1.11-2.437h.033l.027.049v.006Zm1.653 3.335L6.367 13H9L5.43 6H3.245L0 13h1.17l.932-2.022H5.36ZM66 7.062h2.725V13h2.544V7.062H74V6h-8v1.062ZM3.17 21.46l-.69-.379 2.849-.439c.05.107.1.2.155.293l-2.32.532.006-.007Zm7.654 0 .684-.399-2.837-.432c-.022.113-.1.206-.15.3l2.297.531h.006Zm-.412.06-.862.365-1.229-.472-.106-.04a.62.62 0 0 0 .106-.139c.05-.053.095-.12.14-.18l1.946.466h.005Zm2.28-1.017-.789.465-3.148-.465c.028-.093.05-.193.072-.286l3.866.286Zm.279-.14L14 19.54H8.427c0 .292-.034.545-.106.764-.217.698-.75 1.037-1.296 1.024-.528-.02-1.068-.366-1.307-1.004a2.243 2.243 0 0 1-.134-.784H0l1.018.824 4.266-.279c.083.386.234.725.434.97.34.453.829.705 1.307.705.473.013.951-.206 1.296-.691.184-.253.323-.578.406-.964l4.244.26Zm-4.65 2.14.106.253-.106.067-.29.166-.327-.831c-.212.093-.44.146-.673.16a1.785 1.785 0 0 1-.729-.12l-.284.797a.385.385 0 0 1-.3-.073.271.271 0 0 1-.1-.16l.1-.212.24-.545c-.073-.06-.14-.106-.207-.186l.2-.306c.34.266.712.406 1.08.406.367.013.728-.133 1.068-.439l.222.08.095.04-.095.093c-.067.086-.122.166-.234.239l.234.565v.007Zm0-4.293c.217.325.373.724.456 1.19h-.356a4.02 4.02 0 0 0-.1-.4c-.24-.797-.729-1.362-1.296-1.834-.072-.053-.139-.113-.217-.166.072.027.145.06.217.093.517.26.973.618 1.296 1.117Zm-.962 2.958a.756.756 0 0 0 .345-.186l-.568-1.416.59-.353-.495-.545-.2.12-.857.492.25.718.406-.233.534 1.416-.005-.013Zm-1.541.199c-.033-.033-.067-.073-.1-.106a1.431 1.431 0 0 1-.167-.22l-1.947.465.83.353 1.384-.499v.007Zm-.528-.87c-.034-.094-.056-.194-.084-.287l-3.899.286.79.486 3.193-.486Z" fill="#fff"/><path d="M22.105 18.006c.19 0 .53.013.742.27.146.185.168.415.146.626-.038.397-.227.788-.503 1.024a1.414 1.414 0 0 1-.91.346h-.676L20.449 22H20l1.044-4h1.061v.006Zm-1.082 1.812h.666c.221 0 .395-.09.508-.192a1.13 1.13 0 0 0 .309-.634c.021-.23-.049-.34-.076-.384-.076-.102-.227-.147-.384-.147h-.666l-.357 1.35v.007Zm3.9-.452c.07.16.094.386.065.692-.04.452-.214 1.15-.585 1.57-.223.239-.491.372-.749.372a.6.6 0 0 1-.575-.372c-.094-.213-.084-.486-.07-.672.045-.473.219-1.171.59-1.584.224-.246.491-.372.75-.372.302 0 .49.166.574.372v-.006Zm-.386 1.004c.054-.233.123-.592.034-.798a.323.323 0 0 0-.307-.193c-.164 0-.317.1-.422.233-.158.2-.247.499-.307.752l-.06.266c-.049.206-.138.565-.034.798.04.086.124.2.307.2a.549.549 0 0 0 .402-.2c.198-.22.268-.526.332-.798l.06-.266-.006.006Zm2.979 1.345c-.072.046-.19.12-.293.166-.16.08-.33.119-.53.119a.643.643 0 0 1-.567-.292c-.108-.192-.144-.505-.118-.75.051-.518.293-1.354.73-1.72.202-.165.47-.238.675-.238a.7.7 0 0 1 .443.153c.118.106.16.252.139.444-.01.12-.052.246-.093.339l-.365.04c.056-.173.087-.345.036-.458-.036-.073-.124-.14-.283-.14a.492.492 0 0 0-.32.113c-.246.186-.334.491-.406.797l-.088.378c-.061.245-.087.504-.015.67.041.1.139.246.391.246a.88.88 0 0 0 .35-.073c.098-.033.18-.08.278-.133l.041.339h-.005Zm1.997 0c-.077.046-.19.12-.298.166-.16.08-.329.119-.529.119-.262 0-.462-.12-.56-.292-.112-.192-.143-.505-.117-.75.05-.518.292-1.354.734-1.72.2-.165.467-.238.672-.238.149 0 .329.053.442.153.113.106.159.252.138.444-.01.12-.051.246-.092.339l-.365.04c.057-.173.093-.345.036-.458-.03-.073-.123-.14-.282-.14a.503.503 0 0 0-.324.113c-.246.186-.333.491-.405.797l-.087.378c-.057.245-.082.504-.016.67.041.1.139.246.39.246.124 0 .21-.02.35-.073.097-.033.18-.08.277-.133l.04.339h-.004Zm3.679.285h-.455l.637-2.343L31.54 22H31l.814-3h.455l-.631 2.343L33.466 19H34l-.808 3Zm2.998 0h-.456l.64-2.194L34.534 22H34l.81-2.81h.456l-.633 2.195 1.831-2.194H37L36.185 22h.006Zm.743-4a.793.793 0 0 1-.036.181.679.679 0 0 1-.353.453.967.967 0 0 1-.511.13c-.122 0-.31 0-.445-.13a.398.398 0 0 1-.115-.33c.012-.084.054-.213.103-.304h.36l-.025.071c-.025.078-.055.181.012.266.055.07.14.077.213.077a.395.395 0 0 0 .255-.077c.11-.078.134-.169.165-.26L36.58 18h.353Zm1.584 3.715c-.073.046-.19.12-.294.166-.16.08-.33.119-.53.119-.262 0-.463-.12-.566-.292-.113-.192-.144-.505-.119-.75.052-.518.289-1.354.731-1.72.201-.165.469-.238.675-.238.149 0 .329.053.442.153.113.106.16.252.14.444-.011.12-.052.246-.088.339l-.366.04c.057-.173.093-.345.036-.458-.03-.073-.123-.14-.283-.14a.493.493 0 0 0-.319.113c-.247.186-.334.491-.412.797l-.087.378c-.057.245-.082.504-.016.67.042.1.14.246.392.246a.88.88 0 0 0 .35-.073c.097-.033.185-.08.277-.133l.042.339h-.005Zm2.219.285-.121-.928c-.02-.122-.026-.25-.102-.332-.07-.074-.166-.088-.256-.088h-.389L39.478 22H39l.855-2.94h.479l-.338 1.166h.338a.553.553 0 0 0 .345-.102c.096-.074.16-.19.217-.284l.198-.332c.114-.197.217-.373.44-.467a.588.588 0 0 1 .23-.041.75.75 0 0 1 .236.04l-.166.393c-.064-.02-.153-.02-.217.034-.07.054-.121.156-.153.21l-.153.258c-.064.115-.115.223-.256.331a.873.873 0 0 1-.28.15v.02a.554.554 0 0 1 .236.169.85.85 0 0 1 .102.311L41.26 22h-.524Z" fill="#fff"/><path d="M43.186 22h-.455l.637-2.343L41.534 22H41l.808-3h.455l-.631 2.343L43.46 19H44l-.814 3Zm2.291-1.304c-.043.213-.086.48-.011.645.064.147.228.24.446.24.133 0 .24-.027.356-.073.101-.034.186-.08.287-.133l.043.339c-.075.047-.197.12-.308.166-.17.08-.351.12-.548.12a.704.704 0 0 1-.67-.412c-.207-.48.048-1.677.532-2.209.229-.253.505-.379.765-.379a.58.58 0 0 1 .558.34c.144.312.048.718-.058 1.157l-.032.126h-1.355l-.016.073h.01Zm1.041-.452.027-.12c.042-.186.09-.399.021-.572-.064-.146-.17-.18-.26-.18a.54.54 0 0 0-.41.193 1.373 1.373 0 0 0-.292.606l-.016.066h.93v.007Zm3.713 1.344h-.014c-.075.106-.17.206-.294.292a.594.594 0 0 1-.384.12c-.134 0-.289-.02-.403-.146-.075-.093-.16-.253-.13-.526.025-.26.13-.605.399-.838.144-.126.378-.246.787-.246h.319l.084-.373c.02-.086.065-.272-.04-.399-.035-.04-.104-.093-.264-.093a.559.559 0 0 0-.323.093c-.1.073-.15.173-.195.346l-.334-.026a.805.805 0 0 1 .3-.606c.224-.173.522-.186.657-.186.224 0 .453.067.548.266.04.093.07.22.05.413-.015.146-.045.252-.08.399l-.428 1.869h-.334l.08-.36Zm.195-.985h-.339c-.21 0-.354.047-.458.146-.13.12-.204.3-.22.48-.01.12 0 .186.05.259.075.113.17.126.25.126.129 0 .214-.04.333-.133.085-.066.165-.153.244-.26l.14-.618ZM52.634 19h.894c.152 0 .308.02.407.228.043.09.076.22.062.406-.02.194-.08.387-.19.545-.099.138-.198.207-.27.228v.02a.366.366 0 0 1 .185.2.84.84 0 0 1 .048.36c-.02.206-.09.516-.322.765a.731.731 0 0 1-.568.248H52l.63-2.993.004-.007Zm-.194 2.6h.478a.397.397 0 0 0 .298-.124c.1-.104.166-.276.184-.47a.364.364 0 0 0-.056-.254.272.272 0 0 0-.204-.097h-.496l-.2.945h-.004Zm.284-1.338h.445a.376.376 0 0 0 .288-.11.727.727 0 0 0 .17-.428c.01-.13-.023-.207-.06-.248a.266.266 0 0 0-.195-.076h-.468l-.18.869v-.007ZM56.186 22h-.453l.636-2.343L54.533 22H54l.808-3h.46l-.637 2.343L56.46 19H57l-.814 3Zm2.054-.412h-.014c-.08.106-.17.206-.3.292a.595.595 0 0 1-.383.12c-.135 0-.29-.02-.404-.146-.075-.093-.16-.253-.135-.526.025-.26.135-.605.4-.838.144-.126.378-.246.787-.246h.32l.084-.373c.02-.086.065-.272-.04-.399-.035-.04-.105-.093-.264-.093a.56.56 0 0 0-.324.093c-.1.073-.15.173-.19.346l-.334-.026a.822.822 0 0 1 .3-.606c.219-.173.523-.186.652-.186.225 0 .454.067.549.266.04.093.07.22.05.413-.015.146-.045.252-.08.399l-.429 1.869h-.334l.08-.36h.01Zm.19-.985h-.339c-.21 0-.354.047-.458.146a.74.74 0 0 0-.22.48c-.01.12 0 .186.045.259.075.113.17.126.25.126.129 0 .214-.04.333-.133a1.19 1.19 0 0 0 .24-.26l.144-.618h.005Zm2.737 1.323h-.464l.714-2.508h-.745l-.1.324a17.37 17.37 0 0 1-.388 1.146c-.12.303-.27.654-.595.883A1.369 1.369 0 0 1 59 22v-.425c.132-.027.307-.1.432-.195.182-.148.294-.378.376-.593.113-.29.332-.938.438-1.308l.138-.479H62l-.833 2.926Zm3.019.074h-.453l.643-2.343L62.532 22H62l.814-3h.453l-.63 2.343L64.46 19H65l-.814 3Zm2.96 0h-.476l.392-1.355h-1.195L65.482 22H65l.854-3h.476l-.34 1.217h1.188L67.525 19H68l-.854 3Zm3.04 0h-.453l.636-2.343L68.54 22H68l.814-3h.453l-.636 2.343L70.46 19H71l-.814 3Zm3.006 0h-.46l.644-2.343L71.538 22H71l.814-3h.453l-.63 2.343L73.467 19H74l-.808 3Z" fill="#fff"/><path fill-rule="evenodd" clip-rule="evenodd" d="M72.056 16.809C77.17 12.695 79.923 11.061 86 11l-1.308 1.944c-.247.578-.628.553-1.033.523-4.34-.036-7.38.316-12.659 4.533l1.056-1.197v.006Z" fill="url(#a)"/><path fill-rule="evenodd" clip-rule="evenodd" d="M72.006 16.994c5.128-5.37 9.404-7.791 13.166-8.26C85.505 8.235 86.655 6.556 87 6c-8.58 1.592-12.371 8.184-15 11l.006-.006Z" fill="url(#b)"/><path fill-rule="evenodd" clip-rule="evenodd" d="M72.536 17.32c-.096.118-.44.569-.536.68 2.906-2.632 5.338-5.375 11.403-6.394.3-.418 1.185-1.848 1.597-2.606-5.524.92-9.14 4.716-12.464 8.32Z" fill="url(#c)"/><path fill-rule="evenodd" clip-rule="evenodd" d="M84.355 13c.053-.178.196-.31-.452-.662-.76-.407-1.021-.234-.855-.651.125-.316 1.758-.942 2.952-.575 0 0-1.057 1.114-1.645 1.883V13Z" fill="url(#d)"/><path fill-rule="evenodd" clip-rule="evenodd" d="M89.043 5.535c-1.181.17-1.928.483-2.398 1.118L85 9c.358-.341 1.445-.512 2.62-.541h.318c.165 0 .34-.012.529-.018 1.669-.07 3.99-.317 5.341-1.994l1.951-3.094L96 3c-1.763 2.465-5.706 2.365-6.957 2.541v-.006Z" fill="url(#e)"/><path fill-rule="evenodd" clip-rule="evenodd" d="M89.393 7.76c-1.186.185-2.549.242-2.94.26-.668.034-1.55.27-1.798.598C83.91 9.648 83.193 10.603 83 11c.458-.466 1.958-.414 3.778-.506 1.82-.092 3.663-.961 5.119-2.802L93 6c-.74 1.053-2.04 1.519-3.607 1.76Z" fill="url(#f)"/><path fill-rule="evenodd" clip-rule="evenodd" d="M91.344 2.282c-.516.076-1.677.053-2.64.706-.967.654-2.13 2.2-2.704 3.012.534-.601 1.238-.77 2.276-.899 1.039-.128 2.535-.105 3.597-.257 1.02-.146 1.97-.362 3.338-2.288L97 0c-1.9 1.955-3.925 2.037-5.656 2.282Z" fill="url(#g)"/><defs><linearGradient id="a" x1="74.514" y1="10.654" x2="82.183" y2="17.555" gradientUnits="userSpaceOnUse"><stop offset=".21" stop-color="#DD052B"/><stop offset=".24" stop-color="#DE0F32"/><stop offset=".29" stop-color="#E22C46"/><stop offset=".36" stop-color="#E85A65"/><stop offset=".44" stop-color="#F09991"/><stop offset=".46" stop-color="#F3AEA0"/><stop offset=".48" stop-color="#F09C93"/><stop offset=".55" stop-color="#E9666E"/><stop offset=".62" stop-color="#E43C51"/><stop offset=".68" stop-color="#E01E3C"/><stop offset=".73" stop-color="#DD0B2F"/><stop offset=".77" stop-color="#DD052B"/></linearGradient><linearGradient id="b" x1="77.321" y1="9.864" x2="84.27" y2="14.412" gradientUnits="userSpaceOnUse"><stop offset=".37" stop-color="#fff"/><stop offset=".45" stop-color="#F5F5FB"/><stop offset=".68" stop-color="#DDE0F1"/><stop offset=".82" stop-color="#D5D8EE"/></linearGradient><linearGradient id="c" x1="75.526" y1="10.287" x2="82.698" y2="16.068" gradientUnits="userSpaceOnUse"><stop offset=".18" stop-color="#004A99"/><stop offset=".48" stop-color="#A4AED8"/><stop offset=".59" stop-color="#7792C6"/><stop offset=".73" stop-color="#4473B3"/><stop offset=".84" stop-color="#1F5CA4"/><stop offset=".94" stop-color="#084F9C"/><stop offset="1" stop-color="#004A99"/></linearGradient><linearGradient id="d" x1="82.834" y1="10.801" x2="85.918" y2="13.053" gradientUnits="userSpaceOnUse"><stop offset=".37" stop-color="#DD052B"/><stop offset=".43" stop-color="#DE0D31"/><stop offset=".52" stop-color="#E12343"/><stop offset=".64" stop-color="#E6485F"/><stop offset=".77" stop-color="#ED7C87"/><stop offset=".91" stop-color="#F6BDBA"/><stop offset=".97" stop-color="#FAD9D0"/></linearGradient><linearGradient id="e" x1="86.516" y1="2.765" x2="94.879" y2="9.532" gradientUnits="userSpaceOnUse"><stop offset=".13" stop-color="#D2D6ED"/><stop offset=".26" stop-color="#688FC2"/><stop offset=".36" stop-color="#1D5DA4"/><stop offset=".4" stop-color="#004A99"/><stop offset=".5" stop-color="#004A99"/><stop offset=".54" stop-color="#064E9B"/><stop offset=".6" stop-color="#1759A2"/><stop offset=".68" stop-color="#336CAD"/><stop offset=".75" stop-color="#5B86BD"/><stop offset=".84" stop-color="#8EA8D1"/><stop offset=".92" stop-color="#CBD1EA"/><stop offset=".93" stop-color="#D2D6ED"/></linearGradient><linearGradient id="f" x1="84.76" y1="5.764" x2="91.433" y2="10.943" gradientUnits="userSpaceOnUse"><stop offset=".15" stop-color="#FAD9D0"/><stop offset=".16" stop-color="#F8CCC5"/><stop offset=".19" stop-color="#F1979D"/><stop offset=".23" stop-color="#EA6A7A"/><stop offset=".27" stop-color="#E5465D"/><stop offset=".3" stop-color="#E22947"/><stop offset=".34" stop-color="#DF1537"/><stop offset=".38" stop-color="#DD092E"/><stop offset=".41" stop-color="#DD052B"/><stop offset=".57" stop-color="#DD052B"/><stop offset=".62" stop-color="#DD0A2F"/><stop offset=".68" stop-color="#DF1A3B"/><stop offset=".74" stop-color="#E3344F"/><stop offset=".81" stop-color="#E8586B"/><stop offset=".89" stop-color="#EE8690"/><stop offset=".97" stop-color="#F6BEBB"/><stop offset="1" stop-color="#FAD9D0"/></linearGradient><linearGradient id="g" x1="88.564" y1=".636" x2="94.424" y2="5.399" gradientUnits="userSpaceOnUse"><stop offset=".19" stop-color="#fff"/><stop offset=".34" stop-color="#E4E6F4"/><stop offset=".46" stop-color="#D5D8EE"/><stop offset=".86" stop-color="#fff"/></linearGradient></defs></svg>