<svg width="105" height="23" viewBox="0 0 105 23" fill="none" xmlns="http://www.w3.org/2000/svg"><g clip-path="url(#a)" fill="#fff"><path d="M4 3c2.195 0 4 1.643 4 4s-1.951 4-4 4c-.961 0-1.3-.148-2-1H1v6H0V8c0-2.886 1.522-5 4-5Zm0 7c1.453 0 2-1.509 2-3s-.525-3-2-3-2 1.518-2 3 .538 3 2 3Zm6-3c0-2.3 1.838-4 4-4s4 1.7 4 4-1.838 4-4 4-4-1.697-4-4Zm4 3c1.462 0 2-1.53 2-3s-.538-3-2-3-2 1.521-2 3 .54 3 2 3Zm9 1c-2.345 0-4-1.688-4-4 0-2.312 1.668-4 4-4 1.79 0 3.573 1.105 4 3h-2c-.372-1.02-.957-2-2-2-1.578 0-2 1.53-2 3s.422 3 2 3c1.023 0 1.639-.893 2-2h2c-.553 2.017-2.275 3-4 3Zm10-1-2-5v6h-2V3h2l3 5 3-5h2v8h-2V5l-2 5h-2Zm7-3c0-2.3 1.838-4 4-4s4 1.7 4 4-1.838 4-4 4-4-1.697-4-4Zm4 3c1.462 0 2-1.53 2-3s-.538-3-2-3-2 1.521-2 3 .54 3 2 3Zm5 1V9c.272 0 .797.258 1 0 .263-.327-.141-1.142 0-2l1-1c.233-1.456.038-3 2-3h3v8h-1V4h-2c-1.103 0-.737.32-1 2v2c-.163 1.083-.494 1.402-1 2-.385.452-1.282 1-2 1Zm9-4c0-2.3 1.838-4 4-4s4 1.7 4 4-1.838 4-4 4-4-1.697-4-4Zm4 3c1.462 0 2-1.53 2-3s-.538-3-2-3-2 1.521-2 3 .538 3 2 3Zm6 2h-1V9h1c.434-.463.793-1.166 1-2V6c.314-1.289 1.124-3 3-3h3v6h1v3h-1v-2h-7v2Zm5-3V4h-1c-.92 0-.816 1.258-1 2l-1 1c-.184.773-.718 1.731-1 2h4Zm8 2c-2.379 0-4-1.61-4-4 0-2.39 1.686-4 4-4 1.792 0 4 .986 4 4h-7c.16 1.325 1.527 3 3 3 .874 0 1.713-1.196 2-2h2c-.47 1.745-2.475 3-4 3ZM79 0h1v2h-1V0Zm4 6c-.235-1.2-.699-2-2-2-1.301 0-1.722.855-2 2h4Zm-1-6h1v2h-1V0Zm10 3v3h1l2-3h2l-2 4 2 4h-2l-2-3h-1v3h-1V8h-1l-2 3h-2l2-4-2-4h2l2 3h1V3h1Zm6 4V3h1v2c.606-.806 2.075-1 3-1 1.771 0 3 .997 3 3s-.992 4-3 4-3.99-1.862-4-4Zm4 3c1.143 0 1-.78 1-2s.143-3-1-3-2 1.781-2 3 .868 2 2 2Zm-63 7h-2v4h-1v-5h3v1Zm1-2h1v1c.335-.686 1.122-1 2-1 1.33 0 2 1.191 2 3s-.672 3-2 3c-.878 0-1.666-.314-2-1v3h-1v-8Zm4 3c0-1.206-.943-2-2-2s-1 .794-1 2-.057 2 1 2 2-.794 2-2Zm2 0c0-1.867.673-3 2-3 .88 0 1.665.292 2 1v-1h1v6h-1v-1c-.335.708-1.12 1-2 1-1.329 0-2-1.133-2-3Zm4 0c0-1.245.057-2-1-2s-2 .755-2 2 .943 2 2 2 1-.755 1-2Zm8-2v5h-1v-2h-3v2h-1v-5h1v2h3v-2h1Zm5 1h-2v4h-1v-4h-2v-1h5v1Zm5 2c0 .93-.839 2-2 2h-3v-5h1v2h2c1.15 0 2 .037 2 1Zm-1 0c0-.563-.275 0-1 0h-2v1h2c.727 0 1-.46 1-1Zm2 2h-1v-5h1v5Z"/></g><defs><clipPath id="a"><path fill="#fff" d="M0 0h105v23H0z"/></clipPath></defs></svg>