<svg width="106" height="30" viewBox="0 0 106 30" fill="none" xmlns="http://www.w3.org/2000/svg"><path d="M40.353 14.895c-.694.406-1.488.536-3.288.536h-.744V20H34V8h3.1c1.661 0 2.48.145 3.204.55.55.342.994.814 1.291 1.367.297.554.434 1.17.4 1.79a3.542 3.542 0 0 1-.392 1.789 3.797 3.797 0 0 1-1.25 1.4Zm-1.78-4.662a6.13 6.13 0 0 0-1.488-.116h-.764v3.188h.68a4.575 4.575 0 0 0 1.894-.28c.244-.127.444-.315.58-.545.135-.229.198-.489.184-.75a1.38 1.38 0 0 0-.263-.928 1.535 1.535 0 0 0-.823-.569ZM45.784 23h-2.333l1.694-3.848L42 11h2.219l2.1 5.828L48.78 11H51l-5.216 12Zm8.868-3.001a4.773 4.773 0 0 1-1.782-.34 4.652 4.652 0 0 1-1.51-.974 4.481 4.481 0 0 1-1.009-1.462 4.36 4.36 0 0 1-.35-1.724 4.288 4.288 0 0 1 .325-1.723 4.403 4.403 0 0 1 .993-1.466c.429-.42.94-.751 1.504-.976A4.698 4.698 0 0 1 54.602 11a4.754 4.754 0 0 1 3.22 1.21c.57.5.978 1.147 1.178 1.865h-2.356a2.064 2.064 0 0 0-.827-.891c-.361-.21-.78-.31-1.202-.288-1.444 0-2.484 1.086-2.484 2.59a2.421 2.421 0 0 0 .684 1.836c.237.245.522.441.84.576.317.135.66.206 1.006.21.408.01.81-.092 1.16-.293.351-.2.636-.492.823-.843H59a4.294 4.294 0 0 1-1.648 2.221 4.535 4.535 0 0 1-2.7.806Zm8.493-9.882V20H61V8h7v2.126l-4.855-.01Z" fill="#fff"/><path d="M72.854 20v-5.896L69.408 20H67v-9h2.165v5.896L72.597 11H75v9h-2.146Zm10.919 2v-1.957h-5.531V22H76v-4.098h1.273L80.112 11h1.772l2.843 6.902H86V22h-2.227Zm-2.775-7.96-1.386 3.849h2.756l-1.37-3.85Zm9.696 6.211a3.621 3.621 0 0 1-2.645-1.035V23H86V11.198h1.894v1.036A3.615 3.615 0 0 1 90.707 11C93.197 11 95 12.934 95 15.582c0 2.648-1.82 4.668-4.306 4.668Zm-.25-7.33a2.52 2.52 0 0 0-1.823.794 2.554 2.554 0 0 0-.695 1.872 2.58 2.58 0 0 0 .698 1.901 2.55 2.55 0 0 0 1.851.798 2.51 2.51 0 0 0 1.776-.818 2.54 2.54 0 0 0 .664-1.849c0-1.516-1.07-2.68-2.472-2.68v-.018ZM101.513 20A4.5 4.5 0 1 1 106 15.549 4.494 4.494 0 0 1 101.513 20Zm0-7.122a2.524 2.524 0 0 0-2.435 2.586 2.443 2.443 0 1 0 2.435-2.572v-.014ZM21.181 25.863C26.113 23.627 28.2 21.641 29 20c-.96 2.907-2.868 5.445-5.443 7.244A15.443 15.443 0 0 1 14.682 30c-2.447-.009 2.148-2.183 6.5-4.137ZM.025 18.922C.387 21.38 2.407 26.21 7.612 29a3.95 3.95 0 0 1-.344-.214c-4.643-3.137 5.47-6.237 13.373-9.911 5.32-2.467 8.683-4.411 8.334-6.807C28.627 9.672 26.598 4.79 21.402 2l.33.2c4.648 3.142-5.48 6.241-13.373 9.93-5.32 2.457-8.683 4.397-8.334 6.792ZM7.817 4.137C2.887 6.373.8 8.363 0 10c.96-2.906 2.867-5.444 5.44-7.242A15.439 15.439 0 0 1 14.31 0c2.466 0-2.142 2.183-6.493 4.137Z" fill="#fff"/><path d="M19.783 5c1.23-.712 2.146-1.294 2.213-1.967.044-.432-.23-1.19-1.562-1.924a8.933 8.933 0 0 0-1.412-.591A13.652 13.652 0 0 0 15.518 0c-.071.276-.505.785-1.518 1.372.553.772 2.173 1.971 5.783 3.628Zm7.597 10c-1.501 1.05-3.57 2.055-6.377 3.277-1.562.682-3.21 1.364-4.805 1.982L15 20.736c1.553.655 2.67 1.105 3.977 1.741.92.43 1.799.94 2.622 1.523 4.905-2.245 7.244-5.154 7.38-6.273.138-1.118-.43-1.745-1.6-2.727ZM1.815 14a37.025 37.025 0 0 1 6.34-3.423c1.581-.69 3.152-1.315 4.733-1.95L14 8.174C9.561 6.36 8.383 5.58 7.527 5 2.809 7.108.145 10.001.017 11.08-.111 12.16.49 13.025 1.815 14Zm7.193 10.245c-1.587.884-2.437 1.753-2.174 2.595.315 1.005 2.179 1.959 3.235 2.337 1.091.294 2.213.459 3.343.491.057-.584 1.3-1.332 1.648-1.547-.704-.963-2.643-2.272-6.052-3.876Z" fill="#fff"/></svg>