<svg width="156" height="24" viewBox="0 0 156 24" fill="none" xmlns="http://www.w3.org/2000/svg"><g clip-path="url(#a)" fill="#fff"><path d="M21 5c.552.706.627 1.188 1 2l-11 8-4-3V9l4 3 10-7ZM3 12c0-.153-.007-.849 0-1H0c-.009.196 0 .8 0 1-.001 1.562.45 2.557 1 4 .55 1.442.982 2.897 2 4l2-2c-.784-.847-1.576-1.89-2-3-.424-1.11 0-1.8 0-3Zm9-9c.153 0 .849-.007 1 0V0c-.197-.009-.8 0-1 0-1.562-.002-2.557.45-4 1s-2.897.982-4 2l2 2c.847-.784 1.891-1.576 3-2 1.109-.424 1.8 0 3 0Zm0 17c-.153 0-.848.011-1 0v3c.197.01.8 0 1 0 1.561.002 2.558-.45 4-1 1.442-.55 2.898-.982 4-2l-2-2c-.848.783-1.891 1.576-3 2-1.109.424-1.8 0-3 0Z"/><path d="m18 4 2-2C17.737.424 14.912-.004 12 0v3c1.972-.002 4.374.04 6 1Zm6 8c.002-.718.131-1.293 0-2l-3 2c0-.082 0 .082 0 0 0 1.284-.46 2.827-1 4s-1.011 2.14-2 3l2 2a11.857 11.857 0 0 0 3-4c.702-1.526 1.002-3.33 1-5Zm-12 9c-1.304 0-2.808-.46-4-1-1.192-.54-2.126-1.012-3-2l-2 2c1.137 1.285 2.45 2.297 4 3 1.55.702 3.304 1.002 5 1v-3ZM6 5 4 3C2.715 4.136 1.703 5.45 1 7c-.702 1.55-1.002 3.304-1 5h3c0-1.304.46-2.808 1-4 .54-1.192 1.012-2.127 2-3Zm63 1 3-2H61v15h11v-2h-8v-4h7v-3h-7V6h5Zm-16 4h-4V7h7l3-3H46v15h7c3.815 0 6-2.007 6-5 0-2.864-2.398-4-6-4Zm0 7h-4v-5h4c2.063 0 3 .618 3 2 0 1.382-.998 3-3 3ZM80 4h-6v15h3v-4h3c4.08 0 7-2.689 7-6s-2.92-5-7-5Zm0 8h-3V6h3c2.146 0 4 1.144 4 3s-1.854 3-4 3Zm-39 4c-.874.453-2.006.006-3 0-2.974 0-5-2.204-5-5s2.026-4 5-4c1.072-.017 2.125.406 3 1l3-2c-1.38-1.16-3.889-2-6-2-2.29 0-4.518.66-6 2-.75.69-.6 2.08-1 3-.4.92-1.018 1.005-1 2-.016 1.005.604 2.069 1 3s.255 2.291 1 3c1.49 1.394 3.726 2 6 2 2.376 0 4.594-.558 6-2l-2-2-1 1Zm59-6h-4V7h9V4H93v15h7c3.874 0 6-2.007 6-5 .009-2.864-2.342-4-6-4Zm0 7h-4v-5h4c2.095 0 3 .618 3 2 0 1.382-.959 3-3 3Zm42 2h-3V4h3v6h2l5-6h4l-6 7 7 8h-4l-6-6h-2v6Zm-24-3h-7l-1 3h-4l7-15h3l7 15h-4l-1-3Zm-1-3-3-5-2 5h5Zm9-9v6h8V4h3v15h-3v-6h-8v6h-3V4h3Z"/></g><defs><clipPath id="a"><path fill="#fff" d="M0 0h156v24H0z"/></clipPath></defs></svg>