<svg width="63" height="32" viewBox="0 0 63 32" fill="none" xmlns="http://www.w3.org/2000/svg"><path fill-rule="evenodd" clip-rule="evenodd" d="M17.488 4c.078 0 .14.061.14.137v10.104l4.186-9.681a.938.938 0 0 1 .863-.56h1.183c.077 0 .14.061.14.137v10.726a.139.139 0 0 1-.14.137h-.797a.139.139 0 0 1-.14-.137V4.704l-4.21 9.736a.938.938 0 0 1-.863.56h-1.16a.139.139 0 0 1-.14-.137V4.704l-4.208 9.736a.938.938 0 0 1-.863.56h-.338c-.1 0-.169-.1-.13-.191l4.431-10.25A.938.938 0 0 1 16.305 4h1.183Z" fill="#fff"/><path d="M57.043 1.732c-.097.163-.318.268-.562.268h-5.328c-.109 0-.183-.081-.141-.155l.527-.926C51.856.363 52.6 0 53.428 0h4.419c.11 0 .184.083.14.157l-.944 1.575ZM48.87 4c.072 0 .13.061.13.137v10.726a.134.134 0 0 1-.13.137h-.74a.134.134 0 0 1-.13-.137V4.137c0-.076.058-.137.13-.137h.74Z" fill="#fff"/><path fill-rule="evenodd" clip-rule="evenodd" d="M51.925 4c.076 0 .138.061.138.137v10.05l4.106-9.627c.145-.34.48-.56.851-.56h4.842c.076 0 .138.061.138.137v10.726a.138.138 0 0 1-.138.137h-.787a.138.138 0 0 1-.138-.137V4.759l-4.129 9.681a.925.925 0 0 1-.851.56h-4.819a.138.138 0 0 1-.138-.137V4.137c0-.076.062-.137.138-.137h.787ZM26.914 4c.076 0 .137.062.137.138v3.85h6.898v-3.85c0-.077.06-.138.136-.138h.778c.076 0 .137.061.137.137v10.726a.137.137 0 0 1-.137.137h-.778a.137.137 0 0 1-.136-.137V9.042h-6.897v5.82a.137.137 0 0 1-.138.138h-.777a.137.137 0 0 1-.137-.137V4.136c0-.075.061-.137.137-.137h.777ZM40 23.5c0-3.038 2.632-5.5 5.878-5.5h.244C49.368 18 52 20.462 52 23.5S49.368 29 46.122 29h-.244C42.632 29 40 26.538 40 23.5Zm5.892-4.446c-2.624 0-4.752 1.99-4.752 4.446 0 2.455 2.128 4.446 4.752 4.446h.244c2.624 0 4.751-1.99 4.751-4.446 0-2.455-2.127-4.446-4.75-4.446h-.245ZM30 31.864a.14.14 0 0 0 .142.136h.805c.079 0 .143-.06.143-.136V28.84h2.226c3.14 0 5.684-2.427 5.684-5.42S36.455 18 33.316 18h-2.248c-.59 0-1.068.456-1.068 1.018v12.846Zm1.09-12.825h2.226c2.537 0 4.594 1.961 4.594 4.38 0 2.42-2.057 4.381-4.594 4.381h-2.227v-8.761Z" fill="#fff"/><path fill-rule="evenodd" clip-rule="evenodd" d="M14 23.5c0-3.038 2.51-5.5 5.608-5.5h3.784C26.49 18 29 20.462 29 23.5S26.49 29 23.392 29h-3.784C16.51 29 14 26.538 14 23.5Zm9.172-4.446c-2.503 0-4.532 1.99-4.532 4.446 0 2.455 2.029 4.446 4.532 4.446h.234c2.503 0 4.533-1.99 4.533-4.446 0-2.455-2.03-4.446-4.533-4.446h-.234Z" fill="url(#a)"/><path fill-rule="evenodd" clip-rule="evenodd" d="M39.119 4.138A.142.142 0 0 0 38.973 4h-.827c-.08 0-.146.062-.146.138v10.725c0 .075.065.137.146.137h5.132C45.334 15 47 13.43 47 11.494c0-1.937-1.666-3.506-3.722-3.506h-4.16v-3.85Zm0 4.904v4.95h4.135c1.45 0 2.627-1.108 2.627-2.475s-1.176-2.475-2.627-2.475H39.12ZM.144 1a.14.14 0 0 0-.132.195l4.484 10.247-1.456 3.36a.14.14 0 0 0 .132.194L8.3 15c.404 0 .769-.235.926-.595l5.762-13.21A.14.14 0 0 0 14.856 1h-.347a.963.963 0 0 0-.886.57l-3.466 7.974-3.49-7.976A.963.963 0 0 0 5.782 1H.144Zm53.629 26.946 3.976-8.892h3.088v8.892h-7.064ZM51.146 29a.142.142 0 0 1-.146-.138c0-.506.434-.916.969-.916h.593l4.197-9.386a.972.972 0 0 1 .892-.56h3.186c.615 0 1.114.472 1.114 1.054v8.892h.903c.08 0 .146.061.146.137 0 .507-.434.917-.969.917H51.146Zm-38.28-9.946a.136.136 0 0 0 .134-.137v-.78a.136.136 0 0 0-.134-.137h-2.79c-.36 0-.686.22-.826.56L5.01 28.809a.137.137 0 0 0 .125.191h.323c.36 0 .685-.22.826-.56l3.882-9.386h2.7Z" fill="#fff"/><defs><linearGradient id="a" x1="28.98" y1="28.998" x2="16.005" y2="15.213" gradientUnits="userSpaceOnUse"><stop stop-color="#9CB2FF"/><stop offset=".518" stop-color="#A5D7FA"/><stop offset="1" stop-color="#8EE5EA"/></linearGradient></defs></svg>