<svg width="54" height="32" viewBox="0 0 54 32" fill="none" xmlns="http://www.w3.org/2000/svg"><path d="M35 17h1c-.055.247.126.76 0 1-.118.24-.787-.232-1 0-.205.231.34.856 0 1-.34.144-1.582 0-2 0-.86 0-1.44-.425-2-1-.552-.575 0-1.074 0-2 0-.926-.552-1.425 0-2 .56-.575 1.14-1 2-1 .789 0 1.55.545 2 1 .45.447.874.465 1 1h-1c-.252-.718-1.227-1-2-1-.513 0-.66-.375-1 0-.331.367 0 1.385 0 2 0 .614-.331.625 0 1 .34.367.487 1 1 1 .426 0 .74.231 1 0 .26-.232.921-.705 1-1Zm2 2v-6h3c.56 0 1.692-.295 2 0 .316.295 0 1.513 0 2 0 .375.237.729 0 1-.103.12-.866-.072-1 0 .134.064.858-.128 1 0 .276.311 0 .585 0 1 0 .455.347.665 0 1-.34.327-1.503 1-2 1h-3Zm1-4h2c.237 0 .866.128 1 0 0 .215.142-.136 0 0 0-.216.142-.872 0-1-.134-.136-.763 0-1 0h-2v1Zm0 3h2c.237 0 .842.152 1 0 .158-.152 0-.785 0-1 0-.216.158.152 0 0s-.763-1-1-1h-2v2Zm6-3h4c-.063-.487-.692-.705-1-1-.308-.295-.535 0-1 0-.49 0-.7-.295-1 0-.3.287-.905.505-1 1Zm3 2h2c-.174.479-.542 1.617-1 2-.45.375-1.306 0-2 0-.86 0-1.44-.425-2-1-.552-.575-1-1.074-1-2 0-.926.448-1.425 1-2 .56-.575 1.14-1 2-1 .805 0 1.456.441 2 1 .544.559 1 1.162 1 2 0 .072.024-.216 0 0h-5c.063.51.676 1.697 1 2 .324.303.527 0 1 0 .331 0 .748.16 1 0 .26-.168-.103-.769 0-1Zm4 2v-5h-2v-1h5v1h-2v5h-1Zm-33 2 5 8c.297-.16.715.18 1 0l-5-8 6 7c.265-.21.75-.773 1-1l-6-7 7 6c.225-.253-.208-.732 0-1l-3-3-5-4c-.666 1.038-1.685 2-3 2-2.065 0-4-1.911-4-4s1.935-4 4-4c1.32 0 2.335.956 3 2l5-5 4-2c-.207-.268-.775-.747-1-1l-7 6 6-7c-.25-.227-.735-.79-1-1l-6 7 5-8c-.285-.18-.703.16-1 0l-5 8 3-9c-.31-.127-.68.105-1 0l-3 8 2-9c-.327-.07-.665.047-1 0l-2 9V1c-.165-.006.166 0 0 0-.171 0-.83-.006-1 0v9l-1-9c-.335.048-.673-.07-1 0l1 9-3-8c-.32.106-.69-.127-1 0l3 9-4-8c-.297.16-.716-.18-1 0l4 8-5-7c-.265.21-.75.773-1 1l6 7-7-6c-.224.253-.793.732-1 1l7 6-8-5c-.178.288.158.7 0 1l8 5-9-4c-.125.314.104.675 0 1l8 4-9-2c-.069.33.047.661 0 1l9 1H1c-.005.166 0 .832 0 1 0 .173-.006.828 0 1h9l-9 1c.047.339-.069.669 0 1l9-1-8 3c.104.324-.125.686 0 1l9-4-8 5c.159.3-.178.712 0 1l8-5-7 6c.208.268.775.747 1 1l7-6-6 7c.25.227.735.79 1 1l6-7-5 8c.285.18.703-.16 1 0l4-8-3 9c.31.127.68-.106 1 0l3-8-1 9c.327.07.665-.048 1 0l1-9v9c.17.006.829 0 1 0-.165.005.166 0 0 0v-9l2 9c.335-.047.673.07 1 0l-2-9 3 8c.32-.105.69.126 1 0l-3-9Z" fill="#fff"/></svg>