<svg width="928" height="1080" viewBox="0 0 928 1080" fill="none" xmlns="http://www.w3.org/2000/svg">
<g clip-path="url(#clip0_3110_12796)">
<path d="M732.851 793.721V799.218H885.578C901.02 799.218 915.498 803.369 928 810.584V804.296C915.338 797.563 900.896 793.721 885.578 793.721H732.851Z" fill="url(#paint0_linear_3110_12796)"/>
<path d="M732.851 806.544V812.041H885.578C901.415 812.041 916.079 817.168 928 825.841V819.17C915.782 811.201 901.217 806.544 885.578 806.544H732.851Z" fill="url(#paint1_linear_3110_12796)"/>
<path d="M732.851 819.367V824.865H885.578C902.169 824.865 917.203 831.696 928 842.692V835.18C916.598 825.334 901.773 819.367 885.578 819.367H732.851Z" fill="url(#paint2_linear_3110_12796)"/>
<path d="M885.578 832.191H732.851V837.688H885.578C904.38 837.688 920.6 848.856 928 864.904V854.045C918.525 840.826 903.046 832.191 885.578 832.191Z" fill="url(#paint3_linear_3110_12796)"/>
<path d="M885.578 850.5C904.256 850.5 919.464 865.695 919.464 884.387V1000.32H924.961V884.387C924.961 862.668 907.295 845.002 885.578 845.002H732.851V850.5H885.578Z" fill="url(#paint4_linear_3110_12796)"/>
<path d="M885.578 863.323C897.19 863.323 906.641 872.774 906.641 884.386V901.41H906.789V906.908H906.641V1000.32H912.138V884.386C912.138 869.734 900.229 857.825 885.578 857.825H732.851V863.323H885.578Z" fill="url(#paint5_linear_3110_12796)"/>
<path d="M418.205 895.925C371.237 895.925 333.04 857.714 333.04 810.756V679.458H327.542V810.756C327.542 860.753 368.21 901.422 418.205 901.422H551.513V895.925H418.205Z" fill="url(#paint6_linear_3110_12796)"/>
<path d="M345.863 810.744V679.446H340.365V810.744C340.365 853.674 375.289 888.587 418.205 888.587H551.513V883.089H418.205C378.316 883.089 345.863 850.635 345.863 810.744Z" fill="url(#paint7_linear_3110_12796)"/>
<path d="M358.686 810.744V679.446H353.188V810.744C353.188 846.596 382.355 875.763 418.205 875.763H551.513V870.266H418.205C385.382 870.266 358.673 843.557 358.673 810.732L358.686 810.744Z" fill="url(#paint8_linear_3110_12796)"/>
<path d="M371.496 810.744V679.446H365.999V810.744C365.999 839.529 389.422 862.952 418.205 862.952H551.513V857.455H418.205C392.448 857.455 371.496 836.502 371.496 810.744Z" fill="url(#paint9_linear_3110_12796)"/>
<path d="M384.319 810.744V679.446H378.822V810.744C378.822 832.463 396.488 850.129 418.205 850.129H551.513V844.631H418.205C399.527 844.631 384.319 829.436 384.319 810.744Z" fill="url(#paint10_linear_3110_12796)"/>
<path d="M397.142 810.744V679.446H391.645V810.744C391.645 825.384 403.554 837.305 418.205 837.305H551.513V831.808H418.205C406.593 831.808 397.142 822.357 397.142 810.744Z" fill="url(#paint11_linear_3110_12796)"/>
<path d="M727.353 974.311C727.353 1021.28 689.144 1059.48 642.188 1059.48C595.232 1059.48 557.022 1021.27 557.022 974.311V750.519C557.022 735.879 545.113 723.958 530.462 723.958C515.811 723.958 503.902 735.867 503.902 750.519V831.808H509.399V750.519C509.399 738.906 518.85 729.455 530.462 729.455C542.074 729.455 551.525 738.906 551.525 750.519V974.311C551.525 1024.31 592.193 1064.98 642.188 1064.98C692.183 1064.98 732.851 1024.31 732.851 974.311V766.999H727.353V974.311Z" fill="url(#paint12_linear_3110_12796)"/>
<path d="M642.188 1046.66C602.298 1046.66 569.845 1014.2 569.845 974.311V750.518C569.845 728.8 552.18 711.134 530.462 711.134C508.745 711.134 491.079 728.8 491.079 750.518V831.808H496.576V750.518C496.576 731.839 511.784 716.631 530.462 716.631C549.141 716.631 564.348 731.827 564.348 750.518V974.311C564.348 1017.24 599.272 1052.15 642.188 1052.15C685.104 1052.15 720.028 1017.23 720.028 974.311V766.999H714.53V974.311C714.53 1014.2 682.078 1046.66 642.188 1046.66Z" fill="url(#paint13_linear_3110_12796)"/>
<path d="M642.188 1033.83C609.364 1033.83 582.656 1007.12 582.656 974.299V750.506C582.656 721.721 559.234 698.298 530.45 698.298C501.666 698.298 478.244 721.721 478.244 750.506V831.795H483.741V750.506C483.741 724.748 504.693 703.795 530.45 703.795C556.207 703.795 577.159 724.748 577.159 750.506V974.299C577.159 1010.15 606.325 1039.32 642.176 1039.32C678.026 1039.32 707.192 1010.15 707.192 974.299V766.986H701.695V974.299C701.695 1007.12 674.987 1033.83 642.163 1033.83H642.188Z" fill="url(#paint14_linear_3110_12796)"/>
<path d="M642.188 1021.01C616.431 1021.01 595.479 1000.06 595.479 974.299V750.506C595.479 714.655 566.312 685.487 530.462 685.487C494.612 685.487 465.445 714.655 465.445 750.506V831.795H470.943V750.506C470.943 717.681 497.651 690.972 530.475 690.972C563.298 690.972 590.006 717.681 590.006 750.506V974.299C590.006 1003.08 613.429 1026.51 642.2 1026.51C670.972 1026.51 694.406 1003.08 694.406 974.299V766.986H688.909V974.299C688.909 1000.06 667.957 1021.01 642.2 1021.01H642.188Z" fill="url(#paint15_linear_3110_12796)"/>
<path d="M642.188 1008.19C623.509 1008.19 608.302 992.991 608.302 974.299V750.506C608.302 707.588 573.378 672.664 530.462 672.664C487.546 672.664 452.622 707.588 452.622 750.506V831.796H458.12V750.506C458.12 710.615 490.572 678.161 530.462 678.161C570.352 678.161 602.805 710.615 602.805 750.506V974.299C602.805 996.018 620.47 1013.68 642.188 1013.68C663.905 1013.68 681.571 996.018 681.571 974.299V766.986H676.074V974.299C676.074 992.978 660.879 1008.19 642.188 1008.19Z" fill="url(#paint16_linear_3110_12796)"/>
<path d="M621.125 750.519C621.125 747.43 620.964 744.379 620.668 741.364C620.643 741.167 620.618 740.957 620.594 740.759C620.483 739.771 620.359 738.782 620.223 737.806C620.137 737.164 620.038 736.522 619.939 735.891C619.531 733.408 619.025 730.95 618.432 728.541C618.271 727.898 618.098 727.268 617.925 726.638C617.765 726.033 617.592 725.428 617.407 724.822C617.234 724.242 617.061 723.649 616.875 723.068C616.072 720.56 615.171 718.102 614.17 715.705C613.91 715.087 613.639 714.47 613.355 713.852C613.157 713.395 612.947 712.95 612.737 712.493C612.379 711.739 612.02 710.973 611.65 710.232C610.402 707.724 609.043 705.266 607.573 702.894C607.413 702.635 607.24 702.375 607.067 702.116C606.054 700.51 604.991 698.941 603.879 697.409C587.387 674.677 560.63 659.853 530.462 659.853C480.467 659.853 439.799 700.522 439.799 750.519V831.808H445.297V750.519C445.297 703.549 483.506 665.35 530.462 665.35C577.418 665.35 615.628 703.561 615.628 750.519V974.311C615.628 988.963 627.549 1000.87 642.188 1000.87C656.827 1000.87 668.748 988.963 668.748 974.311V766.999H663.251V974.311C663.251 985.924 653.8 995.375 642.188 995.375C630.575 995.375 621.125 985.924 621.125 974.311V750.519Z" fill="url(#paint17_linear_3110_12796)"/>
<path d="M300.921 958.029C300.921 1004.99 262.711 1043.2 215.755 1043.2C168.799 1043.2 130.59 1004.99 130.59 958.029V848.597H125.092V958.029C125.092 1008.03 165.76 1048.69 215.755 1048.69C265.75 1048.69 306.418 1008.03 306.418 958.029V679.446H300.921V958.029Z" fill="url(#paint18_linear_3110_12796)"/>
<path d="M215.755 1035.87C258.684 1035.87 293.595 1000.95 293.595 958.029V679.446H288.098V958.029C288.098 997.92 255.645 1030.37 215.755 1030.37C175.865 1030.37 143.413 997.92 143.413 958.029V848.597H137.915V958.029C137.915 1000.95 172.839 1035.87 215.755 1035.87Z" fill="url(#paint19_linear_3110_12796)"/>
<path d="M215.755 1023.06C251.605 1023.06 280.772 993.892 280.772 958.041V679.458H275.275V958.041C275.275 990.866 248.566 1017.57 215.743 1017.57C182.919 1017.57 156.211 990.866 156.211 958.041V848.609H150.714V958.041C150.714 993.892 179.88 1023.06 215.73 1023.06H215.755Z" fill="url(#paint20_linear_3110_12796)"/>
<path d="M215.755 1010.24C244.539 1010.24 267.961 986.813 267.961 958.041V679.458H262.464V958.041C262.464 983.799 241.512 1004.75 215.755 1004.75C189.998 1004.75 169.046 983.799 169.046 958.041V848.609H163.549V958.041C163.549 986.826 186.971 1010.24 215.755 1010.24Z" fill="url(#paint21_linear_3110_12796)"/>
<path d="M215.755 997.413C237.473 997.413 255.138 979.747 255.138 958.029V679.446H249.641V958.029C249.641 976.708 234.446 991.916 215.755 991.916C197.064 991.916 181.869 976.72 181.869 958.029V848.597H176.372V958.029C176.372 979.747 194.037 997.413 215.755 997.413Z" fill="url(#paint22_linear_3110_12796)"/>
<path d="M215.755 984.59C230.406 984.59 242.315 972.681 242.315 958.029V679.446H236.818V958.029C236.818 969.642 227.367 979.092 215.755 979.092C204.143 979.092 194.692 969.642 194.692 958.029V848.597H189.195V958.029C189.195 972.668 201.116 984.59 215.755 984.59Z" fill="url(#paint23_linear_3110_12796)"/>
<path d="M90.6628 784.492H236.806V778.995H90.6628C40.6679 778.995 0 819.664 0 869.661V1080H5.49734V869.661C5.49734 822.691 43.7069 784.492 90.6628 784.492Z" fill="url(#paint24_linear_3110_12796)"/>
<path d="M90.6628 797.315H236.806V791.818H90.6628C47.7465 791.818 12.823 826.743 12.823 869.66V1080H18.3203V869.66C18.3203 829.769 50.7732 797.315 90.6628 797.315Z" fill="url(#paint25_linear_3110_12796)"/>
<path d="M90.6628 810.139H236.806V804.642H90.6628C54.8128 804.642 25.646 833.809 25.646 869.661V1080H31.1433V869.661C31.1433 836.836 57.8517 810.127 90.6752 810.127L90.6628 810.139Z" fill="url(#paint26_linear_3110_12796)"/>
<path d="M90.6628 822.95H236.806V817.453H90.6628C61.879 817.453 38.4567 840.876 38.4567 869.661V1080H43.954V869.661C43.954 843.903 64.9057 822.95 90.6628 822.95Z" fill="url(#paint27_linear_3110_12796)"/>
<path d="M90.6628 835.773H236.806V830.276H90.6628C68.9453 830.276 51.2797 847.942 51.2797 869.66V1080H56.777V869.66C56.777 850.981 71.9719 835.773 90.6628 835.773Z" fill="url(#paint28_linear_3110_12796)"/>
<path d="M90.6628 848.597H125.092V848.572H130.59V848.597H137.915V848.572H143.413V848.597H150.738V848.572H156.236V848.597H163.561V848.572H169.059V848.597H176.384V848.572H181.882V848.597H189.207V848.572H194.705V848.597H236.818V843.1H90.6752C76.0362 843.1 64.115 855.009 64.115 869.661V1080H69.6123V869.661C69.6123 858.048 79.0628 848.597 90.6752 848.597H90.6628Z" fill="url(#paint29_linear_3110_12796)"/>
<path d="M130.59 848.572H125.092V848.597H130.59V848.572Z" fill="url(#paint30_linear_3110_12796)"/>
<path d="M130.59 848.572H125.092V848.597H130.59V848.572Z" fill="url(#paint31_linear_3110_12796)"/>
<path d="M143.413 848.572H137.915V848.597H143.413V848.572Z" fill="url(#paint32_linear_3110_12796)"/>
<path d="M143.413 848.572H137.915V848.597H143.413V848.572Z" fill="url(#paint33_linear_3110_12796)"/>
<path d="M156.224 848.572H150.726V848.597H156.224V848.572Z" fill="url(#paint34_linear_3110_12796)"/>
<path d="M156.224 848.572H150.726V848.597H156.224V848.572Z" fill="url(#paint35_linear_3110_12796)"/>
<path d="M169.047 848.572H163.549V848.597H169.047V848.572Z" fill="url(#paint36_linear_3110_12796)"/>
<path d="M169.047 848.572H163.549V848.597H169.047V848.572Z" fill="url(#paint37_linear_3110_12796)"/>
<path d="M181.87 848.572H176.372V848.597H181.87V848.572Z" fill="url(#paint38_linear_3110_12796)"/>
<path d="M181.87 848.572H176.372V848.597H181.87V848.572Z" fill="url(#paint39_linear_3110_12796)"/>
<path d="M194.693 848.572H189.195V848.597H194.693V848.572Z" fill="url(#paint40_linear_3110_12796)"/>
<path d="M194.693 848.572H189.195V848.597H194.693V848.572Z" fill="url(#paint41_linear_3110_12796)"/>
<path d="M431.93 980.476C417.291 980.476 405.37 992.385 405.37 1007.04V1080H410.867V1007.04C410.867 995.424 420.318 985.974 431.93 985.974C443.543 985.974 452.993 995.424 452.993 1007.04V1080H458.49V1007.04C458.49 992.398 446.582 980.476 431.93 980.476Z" fill="url(#paint42_linear_3110_12796)"/>
<path d="M431.93 967.652C410.213 967.652 392.547 985.319 392.547 1007.04V1080H398.044V1007.04C398.044 988.358 413.239 973.15 431.93 973.15C450.621 973.15 465.816 988.345 465.816 1007.04V1080H471.313V1007.04C471.313 985.319 453.648 967.652 431.93 967.652Z" fill="url(#paint43_linear_3110_12796)"/>
<path d="M431.93 954.829C403.146 954.829 379.724 978.252 379.724 1007.04V1080H385.221V1007.04C385.221 981.279 406.173 960.327 431.93 960.327C457.687 960.327 478.639 981.279 478.639 1007.04V1080H484.136V1007.04C484.136 978.252 460.714 954.829 431.93 954.829Z" fill="url(#paint44_linear_3110_12796)"/>
<path d="M431.93 942.018C396.08 942.018 366.913 971.186 366.913 1007.04V1080H372.41V1007.04C372.41 974.213 399.119 947.503 431.942 947.503C464.766 947.503 491.474 974.213 491.474 1007.04V1080H496.971V1007.04C496.971 971.186 467.805 942.018 431.955 942.018H431.93Z" fill="url(#paint45_linear_3110_12796)"/>
<path d="M431.93 929.194C389.002 929.194 354.09 964.119 354.09 1007.04V1080H359.588V1007.04C359.588 967.146 392.041 934.692 431.93 934.692C471.82 934.692 504.273 967.146 504.273 1007.04V1080H509.77V1007.04C509.77 964.107 474.846 929.194 431.93 929.194Z" fill="url(#paint46_linear_3110_12796)"/>
<path d="M431.93 916.371C381.935 916.371 341.267 957.041 341.267 1007.04V1080H346.765V1007.04C346.765 960.067 384.974 921.869 431.93 921.869C478.886 921.869 517.096 960.08 517.096 1007.04V1080H522.593V1007.04C522.593 957.041 481.925 916.371 431.93 916.371Z" fill="url(#paint47_linear_3110_12796)"/>
<path d="M834.496 979.265C834.496 967.652 843.946 958.202 855.559 958.202H906.616V952.704H855.559C840.92 952.704 828.999 964.613 828.999 979.265C828.999 993.917 840.92 1005.83 855.559 1005.83H928V1000.33H855.559C843.946 1000.33 834.496 990.878 834.496 979.265Z" fill="url(#paint48_linear_3110_12796)"/>
<path d="M783.216 979.265C783.216 939.374 815.669 906.92 855.559 906.92H906.641V901.423H855.559C812.642 901.423 777.719 936.348 777.719 979.265C777.719 1022.18 812.642 1057.11 855.559 1057.11H928V1051.61H855.559C815.669 1051.61 783.216 1019.16 783.216 979.265Z" fill="url(#paint49_linear_3110_12796)"/>
<path d="M906.789 901.41H906.641V906.908H906.789V901.41Z" fill="url(#paint50_linear_3110_12796)"/>
<path d="M906.789 901.41H906.641V906.908H906.789V901.41Z" fill="url(#paint51_linear_3110_12796)"/>
<path d="M770.393 979.265C770.393 932.295 808.603 894.097 855.559 894.097H906.616V888.599H855.559C805.564 888.599 764.896 929.268 764.896 979.265C764.896 1029.26 805.564 1069.93 855.559 1069.93H928V1064.43H855.559C808.603 1064.43 770.393 1026.22 770.393 979.265Z" fill="url(#paint52_linear_3110_12796)"/>
<path d="M821.685 979.265C821.685 960.586 836.88 945.378 855.571 945.378H906.628V939.881H855.571C833.853 939.881 816.188 957.547 816.188 979.265C816.188 1000.98 833.853 1018.65 855.571 1018.65H928.012V1013.15H855.571C836.892 1013.15 821.685 997.957 821.685 979.265Z" fill="url(#paint53_linear_3110_12796)"/>
<path d="M808.862 979.265C808.862 953.507 829.814 932.555 855.571 932.555H906.628V927.057H855.571C826.787 927.057 803.377 950.48 803.377 979.265C803.377 1008.05 826.8 1031.46 855.571 1031.46H928.012V1025.96H855.571C829.814 1025.96 808.862 1005.01 808.862 979.253V979.265Z" fill="url(#paint54_linear_3110_12796)"/>
<path d="M796.039 979.265C796.039 946.441 822.748 919.731 855.571 919.731H906.628V914.234H855.571C819.721 914.234 790.554 943.402 790.554 979.253C790.554 1015.1 819.721 1044.27 855.571 1044.27H928.012V1038.77H855.571C822.748 1038.77 796.039 1012.07 796.039 979.241V979.265Z" fill="url(#paint55_linear_3110_12796)"/>
<path d="M822.711 363.752C775.755 363.752 737.545 325.541 737.545 278.583V169.151H732.048V278.583C732.048 328.58 772.716 369.249 822.711 369.249C872.705 369.249 913.373 328.58 913.373 278.583V0H907.876V278.583C907.876 325.541 869.666 363.752 822.711 363.752Z" fill="url(#paint56_linear_3110_12796)"/>
<path d="M822.711 350.928C782.821 350.928 750.368 318.474 750.368 278.583V169.151H744.871V278.583C744.871 321.501 779.794 356.426 822.711 356.426C865.627 356.426 900.55 321.501 900.55 278.583V0H895.053V278.583C895.053 318.474 862.6 350.928 822.711 350.928Z" fill="url(#paint57_linear_3110_12796)"/>
<path d="M822.711 338.105C789.887 338.105 763.179 311.395 763.179 278.571V169.139H757.681V278.571C757.681 314.422 786.848 343.59 822.698 343.59C858.548 343.59 887.715 314.422 887.715 278.571V0H882.218V278.583C882.218 311.408 855.509 338.117 822.686 338.117L822.711 338.105Z" fill="url(#paint58_linear_3110_12796)"/>
<path d="M822.711 325.281C796.953 325.281 776.002 304.329 776.002 278.571V169.139H770.504V278.571C770.504 307.355 793.927 330.766 822.711 330.766C851.494 330.766 874.917 307.343 874.917 278.571V0H869.419V278.583C869.419 304.341 848.468 325.293 822.711 325.293V325.281Z" fill="url(#paint59_linear_3110_12796)"/>
<path d="M822.71 312.458C804.032 312.458 788.824 297.262 788.824 278.571V169.139H783.327V278.571C783.327 300.289 800.993 317.955 822.71 317.955C844.428 317.955 862.093 300.289 862.093 278.571V0H856.596V278.583C856.596 297.262 841.401 312.47 822.71 312.47V312.458Z" fill="url(#paint60_linear_3110_12796)"/>
<path d="M822.71 299.647C811.098 299.647 801.648 290.196 801.648 278.583V169.151H796.15V278.583C796.15 293.222 808.071 305.144 822.71 305.144C837.349 305.144 849.271 293.235 849.271 278.583V0H843.773V278.583C843.773 290.196 834.323 299.647 822.71 299.647Z" fill="url(#paint61_linear_3110_12796)"/>
<path d="M606.956 301.648V400.554H612.453V190.215C612.453 143.245 650.663 105.046 697.618 105.046H843.761V99.5488H697.618C647.624 99.5488 606.956 140.218 606.956 190.215V301.648Z" fill="url(#paint62_linear_3110_12796)"/>
<path d="M625.263 190.215C625.263 150.324 657.716 117.87 697.606 117.87H843.749V112.372H697.606C654.69 112.372 619.766 147.297 619.766 190.215V400.554H625.263V190.215Z" fill="url(#paint63_linear_3110_12796)"/>
<path d="M638.087 190.215C638.087 157.39 664.795 130.681 697.618 130.681H843.761V125.183H697.618C661.768 125.183 632.602 154.351 632.602 190.202V400.542H638.099V190.202L638.087 190.215Z" fill="url(#paint64_linear_3110_12796)"/>
<path d="M650.91 190.215C650.91 164.457 671.861 143.504 697.618 143.504H843.761V138.007H697.618C668.835 138.007 645.412 161.43 645.412 190.215V400.554H650.91V190.215Z" fill="url(#paint65_linear_3110_12796)"/>
<path d="M663.732 190.215C663.732 171.535 678.927 156.328 697.618 156.328H843.761V150.83H697.618C675.901 150.83 658.235 168.496 658.235 190.215V400.554H663.732V190.215Z" fill="url(#paint66_linear_3110_12796)"/>
<path d="M676.555 190.215C676.555 178.602 686.006 169.151 697.618 169.151H732.048V169.127H737.545V169.151H744.871V169.127H750.368V169.151H757.694V169.127H763.191V169.151H770.517V169.127H776.014V169.151H783.34V169.127H788.837V169.151H796.163V169.127H801.66V169.151H843.773V163.654H697.631C682.992 163.654 671.07 175.563 671.07 190.215V400.554H676.568V190.215H676.555Z" fill="url(#paint67_linear_3110_12796)"/>
<path d="M737.546 169.126H732.048V169.151H737.546V169.126Z" fill="url(#paint68_linear_3110_12796)"/>
<path d="M737.546 169.126H732.048V169.151H737.546V169.126Z" fill="url(#paint69_linear_3110_12796)"/>
<path d="M750.357 169.126H744.858V169.151H750.357V169.126Z" fill="url(#paint70_linear_3110_12796)"/>
<path d="M750.357 169.126H744.858V169.151H750.357V169.126Z" fill="url(#paint71_linear_3110_12796)"/>
<path d="M763.18 169.126H757.681V169.151H763.18V169.126Z" fill="url(#paint72_linear_3110_12796)"/>
<path d="M763.18 169.126H757.681V169.151H763.18V169.126Z" fill="url(#paint73_linear_3110_12796)"/>
<path d="M776.003 169.126H770.504V169.151H776.003V169.126Z" fill="url(#paint74_linear_3110_12796)"/>
<path d="M776.003 169.126H770.504V169.151H776.003V169.126Z" fill="url(#paint75_linear_3110_12796)"/>
<path d="M788.825 169.126H783.327V169.151H788.825V169.126Z" fill="url(#paint76_linear_3110_12796)"/>
<path d="M788.825 169.126H783.327V169.151H788.825V169.126Z" fill="url(#paint77_linear_3110_12796)"/>
<path d="M801.648 169.126H796.15V169.151H801.648V169.126Z" fill="url(#paint78_linear_3110_12796)"/>
<path d="M801.648 169.126H796.15V169.151H801.648V169.126Z" fill="url(#paint79_linear_3110_12796)"/>
<path d="M384.32 609.856H333.04V598.96C333.04 593.45 333.04 590.472 332.879 588.792H333.04C333.04 574.153 321.119 562.231 306.48 562.231H231.049C216.397 562.231 204.489 574.14 204.489 588.792C204.489 603.444 216.397 615.353 231.049 615.353H398.057C412.696 615.353 424.617 603.444 424.617 588.792V470.157H419.12V588.792C419.12 600.405 409.669 609.856 398.057 609.856H384.32ZM327.543 590.633V609.856H231.049C219.436 609.856 209.986 600.405 209.986 588.792C209.986 577.18 219.436 567.729 231.049 567.729H306.48C318.092 567.729 327.543 577.18 327.543 588.792V590.633Z" fill="url(#paint80_linear_3110_12796)"/>
<path d="M345.69 588.792H345.851C345.851 567.074 328.185 549.408 306.467 549.408H231.036C209.319 549.408 191.653 567.074 191.653 588.792C191.653 610.511 209.319 628.177 231.036 628.177H398.044C419.762 628.177 437.428 610.511 437.428 588.792V470.157H431.93V588.792C431.93 607.472 416.735 622.679 398.044 622.679H231.036C212.358 622.679 197.151 607.484 197.151 588.792C197.151 570.101 212.346 554.905 231.036 554.905H306.467C325.146 554.905 340.353 570.101 340.353 588.792V609.856H345.851V598.96C345.851 593.45 345.851 590.472 345.69 588.792Z" fill="url(#paint81_linear_3110_12796)"/>
<path d="M358.513 588.792H358.673C358.673 560.007 335.251 536.584 306.467 536.584H231.036C202.253 536.584 178.83 560.007 178.83 588.792C178.83 617.577 202.253 641 231.036 641H398.044C426.828 641 450.25 617.577 450.25 588.792V470.157H444.753V588.792C444.753 614.55 423.801 635.503 398.044 635.503H231.036C205.279 635.503 184.328 614.55 184.328 588.792C184.328 563.034 205.279 542.082 231.036 542.082H306.467C332.224 542.082 353.176 563.034 353.176 588.792V609.856H358.673V599.133C358.673 593.512 358.673 590.485 358.513 588.792Z" fill="url(#paint82_linear_3110_12796)"/>
<path d="M371.336 588.792H371.509C371.509 552.941 342.342 523.773 306.492 523.773H231.061C195.211 523.773 166.044 552.941 166.044 588.792C166.044 624.644 195.211 653.811 231.061 653.811H398.069C433.919 653.811 463.086 624.644 463.086 588.792V470.157H457.589V588.792C457.589 621.617 430.88 648.326 398.057 648.326H231.049C198.225 648.326 171.517 621.617 171.517 588.792C171.517 555.968 198.225 529.258 231.049 529.258H306.48C339.303 529.258 366.011 555.968 366.011 588.792V609.856H371.472L371.509 599.133C371.509 593.512 371.509 590.485 371.336 588.792Z" fill="url(#paint83_linear_3110_12796)"/>
<path d="M384.159 588.792H384.332C384.332 545.862 349.408 510.95 306.492 510.95H231.061C188.132 510.95 153.221 545.874 153.221 588.792C153.221 631.71 188.145 666.635 231.061 666.635H398.069C440.985 666.635 475.909 631.71 475.909 588.792V470.157H470.412V588.792C470.412 628.683 437.959 661.137 398.069 661.137H231.061C191.171 661.137 158.719 628.683 158.719 588.792C158.719 548.901 191.171 516.447 231.061 516.447H306.492C346.382 516.447 378.835 548.901 378.835 588.792V609.856H384.332V599.133C384.332 593.512 384.332 590.485 384.159 588.792Z" fill="url(#paint84_linear_3110_12796)"/>
<path d="M340.365 679.458H398.057C448.052 679.458 488.719 638.789 488.719 588.792V470.157H483.222V588.792C483.222 635.762 445.013 673.961 398.057 673.961H231.049C184.08 673.961 145.883 635.75 145.883 588.792C145.883 541.835 184.093 503.624 231.049 503.624H306.48C353.436 503.624 391.645 541.835 391.645 588.792V590.633C391.645 595.822 391.596 609.856 391.596 609.856H397.093L397.142 592.153C397.142 590.645 397.142 589.571 397.093 588.792H397.142C397.142 538.796 356.475 498.126 306.48 498.126H231.049C181.054 498.126 140.386 538.796 140.386 588.792C140.386 638.789 181.054 679.458 231.049 679.458H340.365Z" fill="url(#paint85_linear_3110_12796)"/>
<path d="M617.456 473.937H607.215C557.22 473.937 516.552 514.606 516.552 564.603C516.552 614.599 557.22 655.269 607.215 655.269H832.828C844.441 655.269 853.891 664.72 853.891 676.333C853.891 687.945 844.441 697.396 832.828 697.396H603.855C604.967 698.928 606.029 700.509 607.042 702.103C607.203 702.362 607.388 702.622 607.549 702.881H832.828C847.467 702.881 859.388 690.972 859.388 676.32C859.388 661.668 847.467 649.759 832.828 649.759H607.215C560.247 649.759 522.05 611.548 522.05 564.59C522.05 517.633 560.259 479.422 607.215 479.422H667.995C676.037 479.422 683.239 475.815 688.119 470.144H680.002C676.593 472.516 672.454 473.924 667.995 473.924H617.456V473.937Z" fill="url(#paint86_linear_3110_12796)"/>
<path d="M607.561 702.895C607.401 702.635 607.227 702.375 607.054 702.116C607.215 702.375 607.401 702.635 607.561 702.895Z" fill="url(#paint87_linear_3110_12796)"/>
<path d="M607.561 702.895C607.401 702.635 607.227 702.375 607.054 702.116C607.215 702.375 607.401 702.635 607.561 702.895Z" fill="url(#paint88_linear_3110_12796)"/>
<path d="M603.867 697.396C604.979 698.928 606.042 700.51 607.055 702.103C606.042 700.497 604.979 698.928 603.867 697.396Z" fill="url(#paint89_linear_3110_12796)"/>
<path d="M603.867 697.396C604.979 698.928 606.042 700.51 607.055 702.103C606.042 700.497 604.979 698.928 603.867 697.396Z" fill="url(#paint90_linear_3110_12796)"/>
<path d="M603.867 697.396C604.979 698.928 606.042 700.51 607.055 702.103C606.042 700.497 604.979 698.928 603.867 697.396Z" fill="url(#paint91_linear_3110_12796)"/>
<path d="M603.867 697.396C604.979 698.928 606.042 700.51 607.055 702.103C606.042 700.497 604.979 698.928 603.867 697.396Z" fill="url(#paint92_linear_3110_12796)"/>
<path d="M667.994 486.761H607.215C564.286 486.761 529.375 521.685 529.375 564.603C529.375 607.521 564.299 642.446 607.215 642.446H832.828C851.507 642.446 866.714 657.641 866.714 676.333C866.714 695.024 851.519 710.22 832.828 710.22H611.637C612.008 710.973 612.366 711.727 612.725 712.481C612.935 712.925 613.132 713.382 613.342 713.84C613.614 714.457 613.898 715.063 614.158 715.693C614.158 715.693 614.158 715.705 614.158 715.717H832.828C854.546 715.717 872.211 698.051 872.211 676.333C872.211 654.614 854.546 636.948 832.828 636.948H607.215C567.325 636.948 534.872 604.494 534.872 564.603C534.872 524.712 567.325 492.258 607.215 492.258H667.994C683.498 492.258 696.902 483.227 703.326 470.157H697.087C691.17 480.077 680.36 486.761 667.994 486.761Z" fill="url(#paint93_linear_3110_12796)"/>
<path d="M667.994 499.572H607.215C571.365 499.572 542.198 528.74 542.198 564.591C542.198 600.442 571.365 629.61 607.215 629.61H832.828C858.585 629.61 879.537 650.562 879.537 676.321C879.537 702.079 858.585 723.031 832.828 723.031H616.851C616.851 723.031 616.851 723.031 616.851 723.043C617.036 723.624 617.209 724.217 617.382 724.798C617.555 725.403 617.728 726.008 617.901 726.614C618.074 727.244 618.247 727.886 618.407 728.516H832.828C861.612 728.516 885.034 705.093 885.034 676.308C885.034 647.523 861.612 624.1 832.828 624.1H607.215C574.392 624.1 547.683 597.391 547.683 564.566C547.683 531.742 574.392 505.032 607.215 505.032H667.994C690.725 505.032 710.096 490.43 717.236 470.107H711.368C704.487 487.329 687.637 499.535 667.994 499.535V499.572Z" fill="url(#paint94_linear_3110_12796)"/>
<path d="M618.407 728.529C618.247 727.886 618.074 727.256 617.901 726.626C618.074 727.256 618.247 727.898 618.407 728.529Z" fill="url(#paint95_linear_3110_12796)"/>
<path d="M618.407 728.529C618.247 727.886 618.074 727.256 617.901 726.626C618.074 727.256 618.247 727.898 618.407 728.529Z" fill="url(#paint96_linear_3110_12796)"/>
<path d="M667.994 512.395H607.215C578.431 512.395 555.009 535.818 555.009 564.603C555.009 593.388 578.431 616.811 607.215 616.811H832.828C865.651 616.811 892.36 643.52 892.36 676.345C892.36 709.169 865.651 735.879 832.828 735.879H619.914C619.914 735.879 619.914 735.891 619.914 735.904C620.013 736.534 620.112 737.176 620.198 737.818C620.334 738.794 620.47 739.783 620.569 740.771C620.594 740.969 620.618 741.179 620.643 741.376H832.816C868.666 741.376 897.833 712.209 897.833 676.357C897.833 640.506 868.666 611.338 832.816 611.338H607.202C581.445 611.338 560.494 590.386 560.494 564.628C560.494 538.869 581.445 517.917 607.202 517.917H667.982C697.853 517.917 723.067 497.669 730.652 470.181H724.944C717.52 494.605 694.802 512.432 667.982 512.432L667.994 512.395Z" fill="url(#paint97_linear_3110_12796)"/>
<path d="M667.994 538.042H607.215C592.564 538.042 580.655 549.951 580.655 564.603C580.655 579.255 592.564 591.164 607.215 591.164H832.828C879.784 591.164 917.994 629.375 917.994 676.333C917.994 723.29 879.784 761.501 832.828 761.501H621.113V766.999H832.828C882.823 766.999 923.491 726.33 923.491 676.333C923.491 626.336 882.823 585.667 832.828 585.667H607.215C595.602 585.667 586.152 576.216 586.152 564.603C586.152 552.99 595.602 543.54 607.215 543.54H667.994C712.072 543.54 748.898 511.913 756.99 470.157H751.406C743.401 508.862 709.045 538.042 668.007 538.042H667.994Z" fill="url(#paint98_linear_3110_12796)"/>
<path d="M667.994 525.219H607.215C585.497 525.219 567.832 542.885 567.832 564.603C567.832 586.321 585.497 603.988 607.215 603.988H832.828C872.718 603.988 905.171 636.442 905.171 676.333C905.171 716.224 872.718 748.678 832.828 748.678H621.063C621.076 749.296 621.113 749.901 621.113 750.506V754.175H832.828C875.744 754.175 910.668 719.251 910.668 676.333C910.668 633.415 875.744 598.49 832.828 598.49H607.215C588.536 598.49 573.329 583.295 573.329 564.603C573.329 545.912 588.524 530.716 607.215 530.716H667.994C704.981 530.716 735.989 504.785 743.882 470.157H738.237C730.467 501.734 701.93 525.219 667.994 525.219Z" fill="url(#paint99_linear_3110_12796)"/>
<path d="M861.006 554.831C845.046 554.831 832.05 566.74 832.05 581.392V585.654H838.041V581.392C838.041 569.779 848.344 560.329 861.006 560.329H928.012V554.831H861.006Z" fill="url(#paint100_linear_3110_12796)"/>
<path d="M861.007 542.008C837.337 542.008 818.078 559.674 818.078 581.392V585.655H824.069V581.392C824.069 562.713 840.636 547.505 861.019 547.505H928.025V542.008H861.019H861.007Z" fill="url(#paint101_linear_3110_12796)"/>
<path d="M861.007 529.184C829.629 529.184 804.094 552.607 804.094 581.392V585.654H810.085V581.392C810.085 555.634 832.927 534.682 861.007 534.682H928.012V529.184H861.007Z" fill="url(#paint102_linear_3110_12796)"/>
<path d="M861.006 516.361C821.92 516.361 790.109 545.528 790.109 581.38V585.642H796.101V581.38C796.101 548.555 825.218 521.846 861.006 521.846H928.012V516.348H861.006V516.361Z" fill="url(#paint103_linear_3110_12796)"/>
<path d="M861.007 503.549C814.211 503.549 776.138 538.474 776.138 581.392V585.654H782.129V581.392C782.129 541.501 817.522 509.047 861.007 509.047H928.012V503.549H861.007Z" fill="url(#paint104_linear_3110_12796)"/>
<path d="M861.007 490.726C806.503 490.726 762.153 531.395 762.153 581.392V585.654H768.145V581.392C768.145 534.422 809.801 496.224 861.007 496.224H928.012V490.726H861.007Z" fill="url(#paint105_linear_3110_12796)"/>
<path d="M431.942 470.156H582.001V464.659H397.6C350.644 464.659 312.434 426.448 312.434 379.49C312.434 332.533 350.644 294.322 397.6 294.322H506.817V288.824H507.052H397.6C347.605 288.824 306.937 329.494 306.937 379.49C306.937 429.487 347.605 470.156 397.6 470.156H431.942Z" fill="url(#paint106_linear_3110_12796)"/>
<path d="M507.052 301.648H397.6C354.683 301.648 319.76 336.573 319.76 379.491C319.76 422.408 354.683 457.333 397.6 457.333H582.001V451.836H397.6C357.71 451.836 325.257 419.382 325.257 379.491C325.257 339.599 357.71 307.145 397.6 307.145H506.817V301.648H507.052Z" fill="url(#paint107_linear_3110_12796)"/>
<path d="M507.052 314.459H397.6C361.75 314.459 332.583 343.627 332.583 379.478C332.583 415.33 361.75 444.498 397.6 444.498H582.002V439H397.6C364.776 439 338.068 412.291 338.068 379.466C338.068 346.641 364.776 319.932 397.6 319.932H506.818V314.435H507.052V314.459Z" fill="url(#paint108_linear_3110_12796)"/>
<path d="M507.052 327.282H397.6C368.816 327.282 345.406 350.705 345.406 379.49C345.406 408.275 368.828 431.698 397.6 431.698H582.001V426.201H397.6C371.842 426.201 350.891 405.248 350.891 379.49C350.891 353.732 371.842 332.78 397.6 332.78H506.817V327.282H507.052Z" fill="url(#paint109_linear_3110_12796)"/>
<path d="M507.052 340.106H397.599C375.882 340.106 358.216 357.772 358.216 379.491C358.216 401.209 375.882 418.875 397.599 418.875H582.001V413.378H397.599C378.921 413.378 363.714 398.182 363.714 379.491C363.714 360.799 378.909 345.604 397.599 345.604H506.817V340.106H507.052Z" fill="url(#paint110_linear_3110_12796)"/>
<path d="M376.537 379.49C376.537 367.878 385.987 358.427 397.6 358.427H506.817V352.929H507.052H397.6C382.961 352.929 371.039 364.851 371.039 379.49C371.039 394.13 382.948 406.051 397.6 406.051H582.001V400.554H397.6C385.987 400.554 376.537 391.103 376.537 379.49Z" fill="url(#paint111_linear_3110_12796)"/>
<path d="M582.001 464.659V470.157H680.002H688.118H697.087H703.326H711.368H717.236H724.957H730.664H738.237H743.882H751.393H756.99H928V464.659H582.001Z" fill="url(#paint112_linear_3110_12796)"/>
<path d="M928.012 451.835H582.001V457.333H928.012V451.835Z" fill="url(#paint113_linear_3110_12796)"/>
<path d="M928.012 439.012H582.001V444.51H928.012V439.012Z" fill="url(#paint114_linear_3110_12796)"/>
<path d="M928.012 426.188H582.001V431.686H928.012V426.188Z" fill="url(#paint115_linear_3110_12796)"/>
<path d="M928.012 413.365H582.001V418.863H928.012V413.365Z" fill="url(#paint116_linear_3110_12796)"/>
<path d="M671.058 400.554H663.732H658.235H650.909H645.412H638.086H632.601H625.263H619.778H612.453H606.955H582.001V406.039H928V400.554H676.555H671.058Z" fill="url(#paint117_linear_3110_12796)"/>
<path d="M507.052 358.427H506.817H606.955V352.929H507.052V358.427Z" fill="url(#paint118_linear_3110_12796)"/>
<path d="M507.052 352.929H506.817V358.427H507.052V352.929Z" fill="url(#paint119_linear_3110_12796)"/>
<path d="M507.052 352.929H506.817V358.427H507.052V352.929Z" fill="url(#paint120_linear_3110_12796)"/>
<path d="M507.052 345.604H506.817H606.955V340.106H507.052V345.604Z" fill="url(#paint121_linear_3110_12796)"/>
<path d="M507.052 340.106H506.817V345.604H507.052V340.106Z" fill="url(#paint122_linear_3110_12796)"/>
<path d="M507.052 340.106H506.817V345.604H507.052V340.106Z" fill="url(#paint123_linear_3110_12796)"/>
<path d="M507.052 332.78H506.817H606.955V327.282H507.052V332.78Z" fill="url(#paint124_linear_3110_12796)"/>
<path d="M507.052 327.282H506.817V332.78H507.052V327.282Z" fill="url(#paint125_linear_3110_12796)"/>
<path d="M507.052 327.282H506.817V332.78H507.052V327.282Z" fill="url(#paint126_linear_3110_12796)"/>
<path d="M507.052 319.957H506.817H606.955V314.459H507.052V319.957Z" fill="url(#paint127_linear_3110_12796)"/>
<path d="M507.052 314.459H506.817V319.957H507.052V314.459Z" fill="url(#paint128_linear_3110_12796)"/>
<path d="M507.052 314.459H506.817V319.957H507.052V314.459Z" fill="url(#paint129_linear_3110_12796)"/>
<path d="M507.052 307.133H506.817H606.955V301.648H507.052V307.133Z" fill="url(#paint130_linear_3110_12796)"/>
<path d="M507.052 301.648H506.817V307.145H507.052V301.648Z" fill="url(#paint131_linear_3110_12796)"/>
<path d="M507.052 301.648H506.817V307.145H507.052V301.648Z" fill="url(#paint132_linear_3110_12796)"/>
<path d="M506.817 294.309V294.322H606.955V288.824H507.052V294.309H506.817Z" fill="url(#paint133_linear_3110_12796)"/>
<path d="M507.052 288.824H506.817V294.322H507.052V288.824Z" fill="url(#paint134_linear_3110_12796)"/>
<path d="M507.052 288.824H506.817V294.322H507.052V288.824Z" fill="url(#paint135_linear_3110_12796)"/>
</g>
<defs>
<linearGradient id="paint0_linear_3110_12796" x1="732.851" y1="802.159" x2="976.241" y2="802.159" gradientUnits="userSpaceOnUse">
<stop stop-color="#D6D5FF"/>
<stop offset="0.9999" stop-color="#B9ADFE"/>
<stop offset="1" stop-color="#8566FB"/>
</linearGradient>
<linearGradient id="paint1_linear_3110_12796" x1="-0.000225985" y1="816.192" x2="963.418" y2="816.192" gradientUnits="userSpaceOnUse">
<stop stop-color="#8566FB"/>
<stop offset="1" stop-color="#D6D5FF"/>
</linearGradient>
<linearGradient id="paint2_linear_3110_12796" x1="-0.000176802" y1="831.029" x2="950.595" y2="831.029" gradientUnits="userSpaceOnUse">
<stop stop-color="#8566FB"/>
<stop offset="1" stop-color="#D6D5FF"/>
</linearGradient>
<linearGradient id="paint3_linear_3110_12796" x1="-0.00022339" y1="848.548" x2="937.772" y2="848.548" gradientUnits="userSpaceOnUse">
<stop stop-color="#8566FB"/>
<stop offset="1" stop-color="#D6D5FF"/>
</linearGradient>
<linearGradient id="paint4_linear_3110_12796" x1="-0.000146295" y1="922.659" x2="924.961" y2="922.659" gradientUnits="userSpaceOnUse">
<stop stop-color="#8566FB"/>
<stop offset="1" stop-color="#D6D5FF"/>
</linearGradient>
<linearGradient id="paint5_linear_3110_12796" x1="-8.63743e-05" y1="929.071" x2="912.138" y2="929.071" gradientUnits="userSpaceOnUse">
<stop stop-color="#8566FB"/>
<stop offset="1" stop-color="#D6D5FF"/>
</linearGradient>
<linearGradient id="paint6_linear_3110_12796" x1="327.542" y1="790.434" x2="551.525" y2="790.434" gradientUnits="userSpaceOnUse">
<stop stop-color="#8566FB"/>
<stop offset="1" stop-color="#D6D5FF"/>
</linearGradient>
<linearGradient id="paint7_linear_3110_12796" x1="340.365" y1="784.023" x2="551.525" y2="784.023" gradientUnits="userSpaceOnUse">
<stop stop-color="#8566FB"/>
<stop offset="1" stop-color="#D6D5FF"/>
</linearGradient>
<linearGradient id="paint8_linear_3110_12796" x1="353.188" y1="777.611" x2="551.525" y2="777.611" gradientUnits="userSpaceOnUse">
<stop stop-color="#8566FB"/>
<stop offset="1" stop-color="#D6D5FF"/>
</linearGradient>
<linearGradient id="paint9_linear_3110_12796" x1="366.011" y1="771.199" x2="551.525" y2="771.199" gradientUnits="userSpaceOnUse">
<stop stop-color="#8566FB"/>
<stop offset="1" stop-color="#D6D5FF"/>
</linearGradient>
<linearGradient id="paint10_linear_3110_12796" x1="378.822" y1="764.787" x2="551.525" y2="764.787" gradientUnits="userSpaceOnUse">
<stop stop-color="#8566FB"/>
<stop offset="1" stop-color="#D6D5FF"/>
</linearGradient>
<linearGradient id="paint11_linear_3110_12796" x1="391.645" y1="758.376" x2="551.525" y2="758.376" gradientUnits="userSpaceOnUse">
<stop stop-color="#8566FB"/>
<stop offset="1" stop-color="#D6D5FF"/>
</linearGradient>
<linearGradient id="paint12_linear_3110_12796" x1="503.902" y1="894.468" x2="732.851" y2="894.468" gradientUnits="userSpaceOnUse">
<stop stop-color="#8566FB"/>
<stop offset="1" stop-color="#D6D5FF"/>
</linearGradient>
<linearGradient id="paint13_linear_3110_12796" x1="491.079" y1="881.644" x2="720.028" y2="881.644" gradientUnits="userSpaceOnUse">
<stop stop-color="#8566FB"/>
<stop offset="1" stop-color="#D6D5FF"/>
</linearGradient>
<linearGradient id="paint14_linear_3110_12796" x1="478.256" y1="868.82" x2="707.205" y2="868.82" gradientUnits="userSpaceOnUse">
<stop stop-color="#8566FB"/>
<stop offset="1" stop-color="#D6D5FF"/>
</linearGradient>
<linearGradient id="paint15_linear_3110_12796" x1="465.433" y1="855.997" x2="694.382" y2="855.997" gradientUnits="userSpaceOnUse">
<stop stop-color="#8566FB"/>
<stop offset="1" stop-color="#D6D5FF"/>
</linearGradient>
<linearGradient id="paint16_linear_3110_12796" x1="452.61" y1="843.174" x2="681.559" y2="843.174" gradientUnits="userSpaceOnUse">
<stop stop-color="#8566FB"/>
<stop offset="1" stop-color="#D6D5FF"/>
</linearGradient>
<linearGradient id="paint17_linear_3110_12796" x1="439.787" y1="830.35" x2="668.736" y2="830.35" gradientUnits="userSpaceOnUse">
<stop stop-color="#8566FB"/>
<stop offset="1" stop-color="#D6D5FF"/>
</linearGradient>
<linearGradient id="paint18_linear_3110_12796" x1="125.092" y1="864.077" x2="306.418" y2="864.077" gradientUnits="userSpaceOnUse">
<stop stop-color="#8566FB"/>
<stop offset="1" stop-color="#D6D5FF"/>
</linearGradient>
<linearGradient id="paint19_linear_3110_12796" x1="137.915" y1="857.665" x2="293.595" y2="857.665" gradientUnits="userSpaceOnUse">
<stop stop-color="#8566FB"/>
<stop offset="1" stop-color="#D6D5FF"/>
</linearGradient>
<linearGradient id="paint20_linear_3110_12796" x1="150.726" y1="851.253" x2="280.772" y2="851.253" gradientUnits="userSpaceOnUse">
<stop stop-color="#8566FB"/>
<stop offset="1" stop-color="#D6D5FF"/>
</linearGradient>
<linearGradient id="paint21_linear_3110_12796" x1="163.549" y1="844.841" x2="267.949" y2="844.841" gradientUnits="userSpaceOnUse">
<stop stop-color="#8566FB"/>
<stop offset="1" stop-color="#D6D5FF"/>
</linearGradient>
<linearGradient id="paint22_linear_3110_12796" x1="176.372" y1="838.43" x2="255.126" y2="838.43" gradientUnits="userSpaceOnUse">
<stop stop-color="#8566FB"/>
<stop offset="1" stop-color="#D6D5FF"/>
</linearGradient>
<linearGradient id="paint23_linear_3110_12796" x1="189.195" y1="832.018" x2="242.315" y2="832.018" gradientUnits="userSpaceOnUse">
<stop stop-color="#8566FB"/>
<stop offset="1" stop-color="#D6D5FF"/>
</linearGradient>
<linearGradient id="paint24_linear_3110_12796" x1="0" y1="929.504" x2="236.806" y2="929.504" gradientUnits="userSpaceOnUse">
<stop stop-color="#8566FB"/>
<stop offset="1" stop-color="#D6D5FF"/>
</linearGradient>
<linearGradient id="paint25_linear_3110_12796" x1="12.823" y1="935.915" x2="236.806" y2="935.915" gradientUnits="userSpaceOnUse">
<stop stop-color="#8566FB"/>
<stop offset="1" stop-color="#D6D5FF"/>
</linearGradient>
<linearGradient id="paint26_linear_3110_12796" x1="25.646" y1="942.327" x2="236.806" y2="942.327" gradientUnits="userSpaceOnUse">
<stop stop-color="#8566FB"/>
<stop offset="1" stop-color="#D6D5FF"/>
</linearGradient>
<linearGradient id="paint27_linear_3110_12796" x1="38.469" y1="948.726" x2="236.806" y2="948.726" gradientUnits="userSpaceOnUse">
<stop stop-color="#8566FB"/>
<stop offset="1" stop-color="#D6D5FF"/>
</linearGradient>
<linearGradient id="paint28_linear_3110_12796" x1="51.2797" y1="955.138" x2="236.806" y2="955.138" gradientUnits="userSpaceOnUse">
<stop stop-color="#8566FB"/>
<stop offset="1" stop-color="#D6D5FF"/>
</linearGradient>
<linearGradient id="paint29_linear_3110_12796" x1="64.1026" y1="961.55" x2="236.806" y2="961.55" gradientUnits="userSpaceOnUse">
<stop stop-color="#8566FB"/>
<stop offset="1" stop-color="#D6D5FF"/>
</linearGradient>
<linearGradient id="paint30_linear_3110_12796" x1="125.092" y1="848.585" x2="306.433" y2="848.585" gradientUnits="userSpaceOnUse">
<stop stop-color="#8566FB"/>
<stop offset="1" stop-color="#D6D5FF"/>
</linearGradient>
<linearGradient id="paint31_linear_3110_12796" x1="64.0935" y1="848.585" x2="236.822" y2="848.585" gradientUnits="userSpaceOnUse">
<stop stop-color="#8566FB"/>
<stop offset="1" stop-color="#D6D5FF"/>
</linearGradient>
<linearGradient id="paint32_linear_3110_12796" x1="137.915" y1="848.585" x2="293.618" y2="848.585" gradientUnits="userSpaceOnUse">
<stop stop-color="#8566FB"/>
<stop offset="1" stop-color="#D6D5FF"/>
</linearGradient>
<linearGradient id="paint33_linear_3110_12796" x1="64.0915" y1="848.585" x2="236.82" y2="848.585" gradientUnits="userSpaceOnUse">
<stop stop-color="#8566FB"/>
<stop offset="1" stop-color="#D6D5FF"/>
</linearGradient>
<linearGradient id="paint34_linear_3110_12796" x1="150.726" y1="848.585" x2="280.791" y2="848.585" gradientUnits="userSpaceOnUse">
<stop stop-color="#8566FB"/>
<stop offset="1" stop-color="#D6D5FF"/>
</linearGradient>
<linearGradient id="paint35_linear_3110_12796" x1="64.0895" y1="848.585" x2="236.818" y2="848.585" gradientUnits="userSpaceOnUse">
<stop stop-color="#8566FB"/>
<stop offset="1" stop-color="#D6D5FF"/>
</linearGradient>
<linearGradient id="paint36_linear_3110_12796" x1="163.549" y1="848.585" x2="267.965" y2="848.585" gradientUnits="userSpaceOnUse">
<stop stop-color="#8566FB"/>
<stop offset="1" stop-color="#D6D5FF"/>
</linearGradient>
<linearGradient id="paint37_linear_3110_12796" x1="64.0877" y1="848.585" x2="236.817" y2="848.585" gradientUnits="userSpaceOnUse">
<stop stop-color="#8566FB"/>
<stop offset="1" stop-color="#D6D5FF"/>
</linearGradient>
<linearGradient id="paint38_linear_3110_12796" x1="176.372" y1="848.585" x2="255.138" y2="848.585" gradientUnits="userSpaceOnUse">
<stop stop-color="#8566FB"/>
<stop offset="1" stop-color="#D6D5FF"/>
</linearGradient>
<linearGradient id="paint39_linear_3110_12796" x1="64.0857" y1="848.585" x2="236.815" y2="848.585" gradientUnits="userSpaceOnUse">
<stop stop-color="#8566FB"/>
<stop offset="1" stop-color="#D6D5FF"/>
</linearGradient>
<linearGradient id="paint40_linear_3110_12796" x1="189.195" y1="848.585" x2="242.323" y2="848.585" gradientUnits="userSpaceOnUse">
<stop stop-color="#8566FB"/>
<stop offset="1" stop-color="#D6D5FF"/>
</linearGradient>
<linearGradient id="paint41_linear_3110_12796" x1="64.0833" y1="848.585" x2="236.813" y2="848.585" gradientUnits="userSpaceOnUse">
<stop stop-color="#8566FB"/>
<stop offset="1" stop-color="#D6D5FF"/>
</linearGradient>
<linearGradient id="paint42_linear_3110_12796" x1="405.37" y1="1030.24" x2="458.49" y2="1030.24" gradientUnits="userSpaceOnUse">
<stop stop-color="#8566FB"/>
<stop offset="1" stop-color="#D6D5FF"/>
</linearGradient>
<linearGradient id="paint43_linear_3110_12796" x1="392.547" y1="1023.83" x2="471.301" y2="1023.83" gradientUnits="userSpaceOnUse">
<stop stop-color="#8566FB"/>
<stop offset="1" stop-color="#D6D5FF"/>
</linearGradient>
<linearGradient id="paint44_linear_3110_12796" x1="379.724" y1="1017.41" x2="484.124" y2="1017.41" gradientUnits="userSpaceOnUse">
<stop stop-color="#8566FB"/>
<stop offset="1" stop-color="#D6D5FF"/>
</linearGradient>
<linearGradient id="paint45_linear_3110_12796" x1="366.901" y1="1011" x2="496.947" y2="1011" gradientUnits="userSpaceOnUse">
<stop stop-color="#8566FB"/>
<stop offset="1" stop-color="#D6D5FF"/>
</linearGradient>
<linearGradient id="paint46_linear_3110_12796" x1="354.078" y1="1004.59" x2="509.77" y2="1004.59" gradientUnits="userSpaceOnUse">
<stop stop-color="#8566FB"/>
<stop offset="1" stop-color="#D6D5FF"/>
</linearGradient>
<linearGradient id="paint47_linear_3110_12796" x1="341.267" y1="998.192" x2="522.593" y2="998.192" gradientUnits="userSpaceOnUse">
<stop stop-color="#8566FB"/>
<stop offset="1" stop-color="#D6D5FF"/>
</linearGradient>
<linearGradient id="paint48_linear_3110_12796" x1="829.011" y1="979.265" x2="1047.05" y2="979.265" gradientUnits="userSpaceOnUse">
<stop stop-color="#8566FB"/>
<stop offset="1" stop-color="#D6D5FF"/>
</linearGradient>
<linearGradient id="paint49_linear_3110_12796" x1="777.719" y1="979.265" x2="1047.05" y2="979.265" gradientUnits="userSpaceOnUse">
<stop stop-color="#8566FB"/>
<stop offset="1" stop-color="#D6D5FF"/>
</linearGradient>
<linearGradient id="paint50_linear_3110_12796" x1="732.743" y1="904.165" x2="912.141" y2="904.165" gradientUnits="userSpaceOnUse">
<stop stop-color="#8566FB"/>
<stop offset="1" stop-color="#D6D5FF"/>
</linearGradient>
<linearGradient id="paint51_linear_3110_12796" x1="777.639" y1="904.165" x2="1047.14" y2="904.165" gradientUnits="userSpaceOnUse">
<stop stop-color="#8566FB"/>
<stop offset="1" stop-color="#D6D5FF"/>
</linearGradient>
<linearGradient id="paint52_linear_3110_12796" x1="764.896" y1="979.265" x2="1036.48" y2="979.265" gradientUnits="userSpaceOnUse">
<stop stop-color="#8566FB"/>
<stop offset="1" stop-color="#D6D5FF"/>
</linearGradient>
<linearGradient id="paint53_linear_3110_12796" x1="816.188" y1="979.265" x2="1047.05" y2="979.265" gradientUnits="userSpaceOnUse">
<stop stop-color="#8566FB"/>
<stop offset="1" stop-color="#D6D5FF"/>
</linearGradient>
<linearGradient id="paint54_linear_3110_12796" x1="803.365" y1="979.265" x2="1047.05" y2="979.265" gradientUnits="userSpaceOnUse">
<stop stop-color="#8566FB"/>
<stop offset="1" stop-color="#D6D5FF"/>
</linearGradient>
<linearGradient id="paint55_linear_3110_12796" x1="790.542" y1="979.265" x2="1047.05" y2="979.265" gradientUnits="userSpaceOnUse">
<stop stop-color="#8566FB"/>
<stop offset="1" stop-color="#D6D5FF"/>
</linearGradient>
<linearGradient id="paint56_linear_3110_12796" x1="732.048" y1="184.618" x2="913.373" y2="184.618" gradientUnits="userSpaceOnUse">
<stop stop-color="#8566FB"/>
<stop offset="1" stop-color="#D6D5FF"/>
</linearGradient>
<linearGradient id="paint57_linear_3110_12796" x1="744.858" y1="178.207" x2="900.55" y2="178.207" gradientUnits="userSpaceOnUse">
<stop stop-color="#8566FB"/>
<stop offset="1" stop-color="#D6D5FF"/>
</linearGradient>
<linearGradient id="paint58_linear_3110_12796" x1="757.681" y1="171.795" x2="887.727" y2="171.795" gradientUnits="userSpaceOnUse">
<stop stop-color="#8566FB"/>
<stop offset="1" stop-color="#D6D5FF"/>
</linearGradient>
<linearGradient id="paint59_linear_3110_12796" x1="770.504" y1="165.395" x2="874.904" y2="165.395" gradientUnits="userSpaceOnUse">
<stop stop-color="#8566FB"/>
<stop offset="1" stop-color="#D6D5FF"/>
</linearGradient>
<linearGradient id="paint60_linear_3110_12796" x1="783.327" y1="158.984" x2="862.081" y2="158.984" gradientUnits="userSpaceOnUse">
<stop stop-color="#8566FB"/>
<stop offset="1" stop-color="#D6D5FF"/>
</linearGradient>
<linearGradient id="paint61_linear_3110_12796" x1="796.15" y1="152.572" x2="849.258" y2="152.572" gradientUnits="userSpaceOnUse">
<stop stop-color="#8566FB"/>
<stop offset="1" stop-color="#D6D5FF"/>
</linearGradient>
<linearGradient id="paint62_linear_3110_12796" x1="606.956" y1="250.045" x2="843.749" y2="250.045" gradientUnits="userSpaceOnUse">
<stop stop-color="#8566FB"/>
<stop offset="1" stop-color="#D6D5FF"/>
</linearGradient>
<linearGradient id="paint63_linear_3110_12796" x1="619.778" y1="256.457" x2="843.749" y2="256.457" gradientUnits="userSpaceOnUse">
<stop stop-color="#8566FB"/>
<stop offset="1" stop-color="#D6D5FF"/>
</linearGradient>
<linearGradient id="paint64_linear_3110_12796" x1="632.602" y1="262.869" x2="843.749" y2="262.869" gradientUnits="userSpaceOnUse">
<stop stop-color="#8566FB"/>
<stop offset="1" stop-color="#D6D5FF"/>
</linearGradient>
<linearGradient id="paint65_linear_3110_12796" x1="645.412" y1="269.281" x2="843.749" y2="269.281" gradientUnits="userSpaceOnUse">
<stop stop-color="#8566FB"/>
<stop offset="1" stop-color="#D6D5FF"/>
</linearGradient>
<linearGradient id="paint66_linear_3110_12796" x1="658.235" y1="275.692" x2="843.749" y2="275.692" gradientUnits="userSpaceOnUse">
<stop stop-color="#8566FB"/>
<stop offset="1" stop-color="#D6D5FF"/>
</linearGradient>
<linearGradient id="paint67_linear_3110_12796" x1="671.058" y1="282.104" x2="843.749" y2="282.104" gradientUnits="userSpaceOnUse">
<stop stop-color="#8566FB"/>
<stop offset="1" stop-color="#D6D5FF"/>
</linearGradient>
<linearGradient id="paint68_linear_3110_12796" x1="732.048" y1="169.139" x2="913.389" y2="169.139" gradientUnits="userSpaceOnUse">
<stop stop-color="#8566FB"/>
<stop offset="1" stop-color="#D6D5FF"/>
</linearGradient>
<linearGradient id="paint69_linear_3110_12796" x1="671.049" y1="169.139" x2="843.766" y2="169.139" gradientUnits="userSpaceOnUse">
<stop stop-color="#8566FB"/>
<stop offset="1" stop-color="#D6D5FF"/>
</linearGradient>
<linearGradient id="paint70_linear_3110_12796" x1="744.858" y1="169.139" x2="900.574" y2="169.139" gradientUnits="userSpaceOnUse">
<stop stop-color="#8566FB"/>
<stop offset="1" stop-color="#D6D5FF"/>
</linearGradient>
<linearGradient id="paint71_linear_3110_12796" x1="671.047" y1="169.139" x2="843.764" y2="169.139" gradientUnits="userSpaceOnUse">
<stop stop-color="#8566FB"/>
<stop offset="1" stop-color="#D6D5FF"/>
</linearGradient>
<linearGradient id="paint72_linear_3110_12796" x1="757.681" y1="169.139" x2="887.747" y2="169.139" gradientUnits="userSpaceOnUse">
<stop stop-color="#8566FB"/>
<stop offset="1" stop-color="#D6D5FF"/>
</linearGradient>
<linearGradient id="paint73_linear_3110_12796" x1="671.045" y1="169.139" x2="843.762" y2="169.139" gradientUnits="userSpaceOnUse">
<stop stop-color="#8566FB"/>
<stop offset="1" stop-color="#D6D5FF"/>
</linearGradient>
<linearGradient id="paint74_linear_3110_12796" x1="770.504" y1="169.139" x2="874.919" y2="169.139" gradientUnits="userSpaceOnUse">
<stop stop-color="#8566FB"/>
<stop offset="1" stop-color="#D6D5FF"/>
</linearGradient>
<linearGradient id="paint75_linear_3110_12796" x1="671.044" y1="169.139" x2="843.759" y2="169.139" gradientUnits="userSpaceOnUse">
<stop stop-color="#8566FB"/>
<stop offset="1" stop-color="#D6D5FF"/>
</linearGradient>
<linearGradient id="paint76_linear_3110_12796" x1="783.327" y1="169.139" x2="862.092" y2="169.139" gradientUnits="userSpaceOnUse">
<stop stop-color="#8566FB"/>
<stop offset="1" stop-color="#D6D5FF"/>
</linearGradient>
<linearGradient id="paint77_linear_3110_12796" x1="671.042" y1="169.139" x2="843.757" y2="169.139" gradientUnits="userSpaceOnUse">
<stop stop-color="#8566FB"/>
<stop offset="1" stop-color="#D6D5FF"/>
</linearGradient>
<linearGradient id="paint78_linear_3110_12796" x1="796.15" y1="169.139" x2="849.266" y2="169.139" gradientUnits="userSpaceOnUse">
<stop stop-color="#8566FB"/>
<stop offset="1" stop-color="#D6D5FF"/>
</linearGradient>
<linearGradient id="paint79_linear_3110_12796" x1="671.039" y1="169.139" x2="843.756" y2="169.139" gradientUnits="userSpaceOnUse">
<stop stop-color="#8566FB"/>
<stop offset="1" stop-color="#D6D5FF"/>
</linearGradient>
<linearGradient id="paint80_linear_3110_12796" x1="204.489" y1="542.749" x2="424.617" y2="542.749" gradientUnits="userSpaceOnUse">
<stop stop-color="#8566FB"/>
<stop offset="1" stop-color="#D6D5FF"/>
</linearGradient>
<linearGradient id="paint81_linear_3110_12796" x1="191.678" y1="549.161" x2="437.44" y2="549.161" gradientUnits="userSpaceOnUse">
<stop stop-color="#8566FB"/>
<stop offset="1" stop-color="#D6D5FF"/>
</linearGradient>
<linearGradient id="paint82_linear_3110_12796" x1="178.855" y1="555.572" x2="450.263" y2="555.572" gradientUnits="userSpaceOnUse">
<stop stop-color="#8566FB"/>
<stop offset="1" stop-color="#D6D5FF"/>
</linearGradient>
<linearGradient id="paint83_linear_3110_12796" x1="166.032" y1="561.984" x2="463.086" y2="561.984" gradientUnits="userSpaceOnUse">
<stop stop-color="#8566FB"/>
<stop offset="1" stop-color="#D6D5FF"/>
</linearGradient>
<linearGradient id="paint84_linear_3110_12796" x1="153.209" y1="568.396" x2="475.896" y2="568.396" gradientUnits="userSpaceOnUse">
<stop stop-color="#8566FB"/>
<stop offset="1" stop-color="#D6D5FF"/>
</linearGradient>
<linearGradient id="paint85_linear_3110_12796" x1="140.386" y1="574.808" x2="488.719" y2="574.808" gradientUnits="userSpaceOnUse">
<stop stop-color="#8566FB"/>
<stop offset="1" stop-color="#D6D5FF"/>
</linearGradient>
<linearGradient id="paint86_linear_3110_12796" x1="516.552" y1="586.519" x2="859.401" y2="586.519" gradientUnits="userSpaceOnUse">
<stop stop-color="#8566FB"/>
<stop offset="1" stop-color="#D6D5FF"/>
</linearGradient>
<linearGradient id="paint87_linear_3110_12796" x1="439.605" y1="702.499" x2="668.803" y2="702.499" gradientUnits="userSpaceOnUse">
<stop stop-color="#8566FB"/>
<stop offset="1" stop-color="#D6D5FF"/>
</linearGradient>
<linearGradient id="paint88_linear_3110_12796" x1="516.454" y1="702.499" x2="859.675" y2="702.499" gradientUnits="userSpaceOnUse">
<stop stop-color="#8566FB"/>
<stop offset="1" stop-color="#D6D5FF"/>
</linearGradient>
<linearGradient id="paint89_linear_3110_12796" x1="439.763" y1="699.756" x2="668.745" y2="699.756" gradientUnits="userSpaceOnUse">
<stop stop-color="#8566FB"/>
<stop offset="1" stop-color="#D6D5FF"/>
</linearGradient>
<linearGradient id="paint90_linear_3110_12796" x1="516.539" y1="699.756" x2="859.438" y2="699.756" gradientUnits="userSpaceOnUse">
<stop stop-color="#8566FB"/>
<stop offset="1" stop-color="#D6D5FF"/>
</linearGradient>
<linearGradient id="paint91_linear_3110_12796" x1="439.763" y1="699.756" x2="668.745" y2="699.756" gradientUnits="userSpaceOnUse">
<stop stop-color="#8566FB"/>
<stop offset="1" stop-color="#D6D5FF"/>
</linearGradient>
<linearGradient id="paint92_linear_3110_12796" x1="516.539" y1="699.756" x2="859.438" y2="699.756" gradientUnits="userSpaceOnUse">
<stop stop-color="#8566FB"/>
<stop offset="1" stop-color="#D6D5FF"/>
</linearGradient>
<linearGradient id="paint93_linear_3110_12796" x1="529.375" y1="592.931" x2="872.211" y2="592.931" gradientUnits="userSpaceOnUse">
<stop stop-color="#8566FB"/>
<stop offset="1" stop-color="#D6D5FF"/>
</linearGradient>
<linearGradient id="paint94_linear_3110_12796" x1="542.198" y1="599.343" x2="885.034" y2="599.343" gradientUnits="userSpaceOnUse">
<stop stop-color="#8566FB"/>
<stop offset="1" stop-color="#D6D5FF"/>
</linearGradient>
<linearGradient id="paint95_linear_3110_12796" x1="439.758" y1="727.577" x2="668.744" y2="727.577" gradientUnits="userSpaceOnUse">
<stop stop-color="#8566FB"/>
<stop offset="1" stop-color="#D6D5FF"/>
</linearGradient>
<linearGradient id="paint96_linear_3110_12796" x1="542.186" y1="727.577" x2="885.077" y2="727.577" gradientUnits="userSpaceOnUse">
<stop stop-color="#8566FB"/>
<stop offset="1" stop-color="#D6D5FF"/>
</linearGradient>
<linearGradient id="paint97_linear_3110_12796" x1="555.021" y1="605.754" x2="897.857" y2="605.754" gradientUnits="userSpaceOnUse">
<stop stop-color="#8566FB"/>
<stop offset="1" stop-color="#D6D5FF"/>
</linearGradient>
<linearGradient id="paint98_linear_3110_12796" x1="580.655" y1="618.578" x2="923.503" y2="618.578" gradientUnits="userSpaceOnUse">
<stop stop-color="#8566FB"/>
<stop offset="1" stop-color="#D6D5FF"/>
</linearGradient>
<linearGradient id="paint99_linear_3110_12796" x1="567.844" y1="612.166" x2="910.68" y2="612.166" gradientUnits="userSpaceOnUse">
<stop stop-color="#8566FB"/>
<stop offset="1" stop-color="#D6D5FF"/>
</linearGradient>
<linearGradient id="paint100_linear_3110_12796" x1="832.05" y1="570.237" x2="1072.77" y2="570.237" gradientUnits="userSpaceOnUse">
<stop stop-color="#8566FB"/>
<stop offset="1" stop-color="#D6D5FF"/>
</linearGradient>
<linearGradient id="paint101_linear_3110_12796" x1="818.066" y1="563.825" x2="1072.77" y2="563.825" gradientUnits="userSpaceOnUse">
<stop stop-color="#8566FB"/>
<stop offset="1" stop-color="#D6D5FF"/>
</linearGradient>
<linearGradient id="paint102_linear_3110_12796" x1="804.094" y1="557.413" x2="1072.77" y2="557.413" gradientUnits="userSpaceOnUse">
<stop stop-color="#8566FB"/>
<stop offset="1" stop-color="#D6D5FF"/>
</linearGradient>
<linearGradient id="paint103_linear_3110_12796" x1="790.109" y1="551.001" x2="1072.77" y2="551.001" gradientUnits="userSpaceOnUse">
<stop stop-color="#8566FB"/>
<stop offset="1" stop-color="#D6D5FF"/>
</linearGradient>
<linearGradient id="paint104_linear_3110_12796" x1="776.138" y1="544.589" x2="1072.77" y2="544.589" gradientUnits="userSpaceOnUse">
<stop stop-color="#8566FB"/>
<stop offset="1" stop-color="#D6D5FF"/>
</linearGradient>
<linearGradient id="paint105_linear_3110_12796" x1="762.153" y1="538.19" x2="1070.02" y2="538.19" gradientUnits="userSpaceOnUse">
<stop stop-color="#8566FB"/>
<stop offset="1" stop-color="#D6D5FF"/>
</linearGradient>
<linearGradient id="paint106_linear_3110_12796" x1="444.469" y1="288.812" x2="444.469" y2="470.144" gradientUnits="userSpaceOnUse">
<stop stop-color="#8566FB"/>
<stop offset="1" stop-color="#D6D5FF"/>
</linearGradient>
<linearGradient id="paint107_linear_3110_12796" x1="450.881" y1="301.636" x2="450.881" y2="457.333" gradientUnits="userSpaceOnUse">
<stop stop-color="#8566FB"/>
<stop offset="1" stop-color="#D6D5FF"/>
</linearGradient>
<linearGradient id="paint108_linear_3110_12796" x1="457.292" y1="314.459" x2="457.292" y2="444.51" gradientUnits="userSpaceOnUse">
<stop stop-color="#8566FB"/>
<stop offset="1" stop-color="#D6D5FF"/>
</linearGradient>
<linearGradient id="paint109_linear_3110_12796" x1="463.704" y1="327.282" x2="463.704" y2="431.686" gradientUnits="userSpaceOnUse">
<stop stop-color="#8566FB"/>
<stop offset="1" stop-color="#D6D5FF"/>
</linearGradient>
<linearGradient id="paint110_linear_3110_12796" x1="470.115" y1="340.106" x2="470.115" y2="418.863" gradientUnits="userSpaceOnUse">
<stop stop-color="#8566FB"/>
<stop offset="1" stop-color="#D6D5FF"/>
</linearGradient>
<linearGradient id="paint111_linear_3110_12796" x1="476.514" y1="352.929" x2="476.514" y2="406.039" gradientUnits="userSpaceOnUse">
<stop stop-color="#8566FB"/>
<stop offset="1" stop-color="#D6D5FF"/>
</linearGradient>
<linearGradient id="paint112_linear_3110_12796" x1="755.001" y1="288.812" x2="755.001" y2="470.144" gradientUnits="userSpaceOnUse">
<stop stop-color="#8566FB"/>
<stop offset="1" stop-color="#D6D5FF"/>
</linearGradient>
<linearGradient id="paint113_linear_3110_12796" x1="755.001" y1="301.635" x2="755.001" y2="457.333" gradientUnits="userSpaceOnUse">
<stop stop-color="#8566FB"/>
<stop offset="1" stop-color="#D6D5FF"/>
</linearGradient>
<linearGradient id="paint114_linear_3110_12796" x1="755.001" y1="314.459" x2="755.001" y2="444.51" gradientUnits="userSpaceOnUse">
<stop stop-color="#8566FB"/>
<stop offset="1" stop-color="#D6D5FF"/>
</linearGradient>
<linearGradient id="paint115_linear_3110_12796" x1="755.001" y1="327.283" x2="755.001" y2="431.686" gradientUnits="userSpaceOnUse">
<stop stop-color="#8566FB"/>
<stop offset="1" stop-color="#D6D5FF"/>
</linearGradient>
<linearGradient id="paint116_linear_3110_12796" x1="755.001" y1="340.106" x2="755.001" y2="418.863" gradientUnits="userSpaceOnUse">
<stop stop-color="#8566FB"/>
<stop offset="1" stop-color="#D6D5FF"/>
</linearGradient>
<linearGradient id="paint117_linear_3110_12796" x1="755.001" y1="352.929" x2="755.001" y2="406.039" gradientUnits="userSpaceOnUse">
<stop stop-color="#8566FB"/>
<stop offset="1" stop-color="#D6D5FF"/>
</linearGradient>
<linearGradient id="paint118_linear_3110_12796" x1="506.817" y1="355.672" x2="606.955" y2="355.672" gradientUnits="userSpaceOnUse">
<stop stop-color="#8566FB"/>
<stop offset="1" stop-color="#D6D5FF"/>
</linearGradient>
<linearGradient id="paint119_linear_3110_12796" x1="506.941" y1="352.929" x2="506.941" y2="406.039" gradientUnits="userSpaceOnUse">
<stop stop-color="#8566FB"/>
<stop offset="1" stop-color="#D6D5FF"/>
</linearGradient>
<linearGradient id="paint120_linear_3110_12796" x1="506.817" y1="355.672" x2="606.972" y2="355.672" gradientUnits="userSpaceOnUse">
<stop stop-color="#8566FB"/>
<stop offset="1" stop-color="#D6D5FF"/>
</linearGradient>
<linearGradient id="paint121_linear_3110_12796" x1="506.817" y1="342.861" x2="606.955" y2="342.861" gradientUnits="userSpaceOnUse">
<stop stop-color="#8566FB"/>
<stop offset="1" stop-color="#D6D5FF"/>
</linearGradient>
<linearGradient id="paint122_linear_3110_12796" x1="506.941" y1="340.106" x2="506.941" y2="418.863" gradientUnits="userSpaceOnUse">
<stop stop-color="#8566FB"/>
<stop offset="1" stop-color="#D6D5FF"/>
</linearGradient>
<linearGradient id="paint123_linear_3110_12796" x1="506.817" y1="342.849" x2="606.972" y2="342.849" gradientUnits="userSpaceOnUse">
<stop stop-color="#8566FB"/>
<stop offset="1" stop-color="#D6D5FF"/>
</linearGradient>
<linearGradient id="paint124_linear_3110_12796" x1="506.817" y1="330.037" x2="606.955" y2="330.037" gradientUnits="userSpaceOnUse">
<stop stop-color="#8566FB"/>
<stop offset="1" stop-color="#D6D5FF"/>
</linearGradient>
<linearGradient id="paint125_linear_3110_12796" x1="506.941" y1="327.282" x2="506.941" y2="431.686" gradientUnits="userSpaceOnUse">
<stop stop-color="#8566FB"/>
<stop offset="1" stop-color="#D6D5FF"/>
</linearGradient>
<linearGradient id="paint126_linear_3110_12796" x1="506.817" y1="330.037" x2="606.972" y2="330.037" gradientUnits="userSpaceOnUse">
<stop stop-color="#8566FB"/>
<stop offset="1" stop-color="#D6D5FF"/>
</linearGradient>
<linearGradient id="paint127_linear_3110_12796" x1="506.817" y1="317.214" x2="606.955" y2="317.214" gradientUnits="userSpaceOnUse">
<stop stop-color="#8566FB"/>
<stop offset="1" stop-color="#D6D5FF"/>
</linearGradient>
<linearGradient id="paint128_linear_3110_12796" x1="506.941" y1="314.459" x2="506.941" y2="444.51" gradientUnits="userSpaceOnUse">
<stop stop-color="#8566FB"/>
<stop offset="1" stop-color="#D6D5FF"/>
</linearGradient>
<linearGradient id="paint129_linear_3110_12796" x1="506.817" y1="317.214" x2="606.972" y2="317.214" gradientUnits="userSpaceOnUse">
<stop stop-color="#8566FB"/>
<stop offset="1" stop-color="#D6D5FF"/>
</linearGradient>
<linearGradient id="paint130_linear_3110_12796" x1="506.817" y1="304.391" x2="606.955" y2="304.391" gradientUnits="userSpaceOnUse">
<stop stop-color="#8566FB"/>
<stop offset="1" stop-color="#D6D5FF"/>
</linearGradient>
<linearGradient id="paint131_linear_3110_12796" x1="506.941" y1="301.636" x2="506.941" y2="457.333" gradientUnits="userSpaceOnUse">
<stop stop-color="#8566FB"/>
<stop offset="1" stop-color="#D6D5FF"/>
</linearGradient>
<linearGradient id="paint132_linear_3110_12796" x1="506.817" y1="304.391" x2="606.972" y2="304.391" gradientUnits="userSpaceOnUse">
<stop stop-color="#8566FB"/>
<stop offset="1" stop-color="#D6D5FF"/>
</linearGradient>
<linearGradient id="paint133_linear_3110_12796" x1="506.817" y1="291.567" x2="606.955" y2="291.567" gradientUnits="userSpaceOnUse">
<stop stop-color="#8566FB"/>
<stop offset="1" stop-color="#D6D5FF"/>
</linearGradient>
<linearGradient id="paint134_linear_3110_12796" x1="506.941" y1="288.812" x2="506.941" y2="470.157" gradientUnits="userSpaceOnUse">
<stop stop-color="#8566FB"/>
<stop offset="1" stop-color="#D6D5FF"/>
</linearGradient>
<linearGradient id="paint135_linear_3110_12796" x1="506.817" y1="291.567" x2="606.972" y2="291.567" gradientUnits="userSpaceOnUse">
<stop stop-color="#8566FB"/>
<stop offset="1" stop-color="#D6D5FF"/>
</linearGradient>
<clipPath id="clip0_3110_12796">
<rect width="928" height="1080" fill="white"/>
</clipPath>
</defs>
</svg>
