<svg width="175" height="204" viewBox="0 0 175 204" fill="none" xmlns="http://www.w3.org/2000/svg">
<g clip-path="url(#clip0_3397_19187)">
<path d="M138.989 54.0752V53.0368H167.955C170.883 53.0368 173.629 52.2527 176 50.8899V52.0777C173.599 53.3495 170.86 54.0752 167.955 54.0752H138.989Z" fill="url(#paint0_linear_3397_19187)"/>
<path d="M138.989 51.6528V50.6144H167.955C170.958 50.6144 173.739 49.646 176 48.0079V49.268C173.683 50.7731 170.921 51.6528 167.955 51.6528H138.989Z" fill="url(#paint1_linear_3397_19187)"/>
<path d="M138.989 49.2305V48.192H167.955C171.101 48.192 173.952 46.9016 176 44.8248V46.2435C173.838 48.1034 171.026 49.2305 167.955 49.2305H138.989Z" fill="url(#paint2_linear_3397_19187)"/>
<path d="M167.955 46.8086H138.989V45.7702H167.955C171.52 45.7702 174.597 43.6607 176 40.6294V42.6806C174.203 45.1775 171.267 46.8086 167.955 46.8086Z" fill="url(#paint3_linear_3397_19187)"/>
<path d="M167.955 43.3502C171.497 43.3502 174.381 40.48 174.381 36.9494V15.0515H175.424V36.9494C175.424 41.0517 172.073 44.3887 167.955 44.3887H138.989V43.3502H167.955Z" fill="url(#paint4_linear_3397_19187)"/>
<path d="M167.955 40.9279C170.157 40.9279 171.949 39.1427 171.949 36.9492V33.7336H171.977V32.6952H171.949V15.0513H172.992V36.9492C172.992 39.7168 170.733 41.9663 167.955 41.9663H138.989V40.9279H167.955Z" fill="url(#paint5_linear_3397_19187)"/>
<path d="M79.3148 34.7695C70.407 34.7695 63.1627 41.9871 63.1627 50.8569V75.6577H62.1201V50.8569C62.1201 41.4131 69.833 33.7311 79.3148 33.7311L104.597 33.7311V34.7695L79.3148 34.7695Z" fill="url(#paint6_linear_3397_19187)"/>
<path d="M65.5946 50.8593V75.6602H64.552V50.8593C64.552 42.7503 71.1754 36.1557 79.3147 36.1557L104.597 36.1557V37.1941L79.3147 37.1941C71.7494 37.1941 65.5946 43.3243 65.5946 50.8593Z" fill="url(#paint7_linear_3397_19187)"/>
<path d="M68.0267 50.8593V75.6602H66.9841V50.8593C66.9841 44.0874 72.5158 38.5779 79.3149 38.5779L104.597 38.5779V39.6164L79.3149 39.6164C73.0898 39.6164 68.0244 44.6615 68.0244 50.8617L68.0267 50.8593Z" fill="url(#paint8_linear_3397_19187)"/>
<path d="M70.4562 50.8593V75.6602H69.4136V50.8593C69.4136 45.4222 73.8557 40.9978 79.3147 40.9978L104.597 40.9978V42.0362L79.3147 42.0362C74.4298 42.0362 70.4562 45.9939 70.4562 50.8593Z" fill="url(#paint9_linear_3397_19187)"/>
<path d="M72.8883 50.8593V75.6602H71.8457V50.8593C71.8457 46.757 75.1961 43.42 79.3149 43.42L104.597 43.42V44.4584H79.3149C75.7724 44.4584 72.8883 47.3287 72.8883 50.8593Z" fill="url(#paint10_linear_3397_19187)"/>
<path d="M75.3202 50.8593V75.6602H74.2776V50.8593C74.2776 48.0941 76.5362 45.8422 79.3149 45.8422H104.597V46.8807H79.3149C77.1125 46.8807 75.3202 48.6658 75.3202 50.8593Z" fill="url(#paint11_linear_3397_19187)"/>
<path d="M137.946 19.9634C137.946 11.0913 130.7 3.87597 121.794 3.87597C112.889 3.87597 105.642 11.0936 105.642 19.9634V62.2353C105.642 65.0006 103.384 67.2524 100.605 67.2524C97.8262 67.2524 95.5676 65.0029 95.5676 62.2353V46.8807H96.6102V62.2353C96.6102 64.4289 98.4026 66.214 100.605 66.214C102.807 66.214 104.6 64.4289 104.6 62.2353V19.9634C104.6 10.5195 112.312 2.83754 121.794 2.83754C131.276 2.83754 138.989 10.5195 138.989 19.9634V59.1224H137.946V19.9634Z" fill="url(#paint12_linear_3397_19187)"/>
<path d="M121.794 6.29833C114.229 6.29833 108.074 12.4285 108.074 19.9635V62.2355C108.074 66.3378 104.724 69.6748 100.605 69.6748C96.4861 69.6748 93.1357 66.3378 93.1357 62.2355V46.8808H94.1783V62.2355C94.1783 65.7638 97.0625 68.6364 100.605 68.6364C104.147 68.6364 107.032 65.7661 107.032 62.2355V19.9635C107.032 11.8545 113.655 5.2599 121.794 5.2599C129.934 5.2599 136.557 11.8568 136.557 19.9635V59.1226H135.514V19.9635C135.514 12.4285 129.36 6.29833 121.794 6.29833Z" fill="url(#paint13_linear_3397_19187)"/>
<path d="M121.794 8.72029C115.569 8.72029 110.504 13.7654 110.504 19.9656V62.2376C110.504 67.6747 106.062 72.0991 100.603 72.0991C95.1436 72.0991 90.7014 67.6747 90.7014 62.2376V46.8829H91.744V62.2376C91.744 67.103 95.7176 71.0607 100.603 71.0607C105.488 71.0607 109.461 67.103 109.461 62.2376V19.9656C109.461 13.1937 114.993 7.6842 121.792 7.6842C128.591 7.6842 134.123 13.1937 134.123 19.9656V59.1247H133.08V19.9656C133.08 13.7654 128.015 8.72029 121.79 8.72029H121.794Z" fill="url(#paint14_linear_3397_19187)"/>
<path d="M121.794 11.1426C116.909 11.1426 112.936 15.1002 112.936 19.9656V62.2376C112.936 69.0096 107.404 74.519 100.605 74.519C93.8058 74.519 88.2742 69.0096 88.2742 62.2376V46.883H89.3168V62.2376C89.3168 68.4378 94.3822 73.483 100.607 73.483C106.832 73.483 111.898 68.4378 111.898 62.2376V19.9656C111.898 14.5285 116.34 10.1041 121.797 10.1041C127.253 10.1041 131.698 14.5285 131.698 19.9656V59.1247H130.655V19.9656C130.655 15.1002 126.682 11.1426 121.797 11.1426H121.794Z" fill="url(#paint15_linear_3397_19187)"/>
<path d="M121.794 13.5649C118.252 13.5649 115.368 16.4352 115.368 19.9658V62.2378C115.368 70.3445 108.744 76.9414 100.605 76.9414C92.4657 76.9414 85.8423 70.3445 85.8423 62.2378V46.8831H86.8849V62.2378C86.8849 69.7728 93.0397 75.903 100.605 75.903C108.17 75.903 114.325 69.7728 114.325 62.2378V19.9658C114.325 15.8634 117.676 12.5265 121.794 12.5265C125.913 12.5265 129.264 15.8634 129.264 19.9658V59.1249H128.221V19.9658C128.221 16.4375 125.339 13.5649 121.794 13.5649Z" fill="url(#paint16_linear_3397_19187)"/>
<path d="M117.799 62.2355C117.799 62.8189 117.769 63.3953 117.713 63.9647C117.708 64.002 117.703 64.0417 117.699 64.079C117.678 64.2657 117.654 64.4524 117.628 64.6367C117.612 64.7581 117.593 64.8794 117.575 64.9984C117.497 65.4675 117.401 65.9318 117.289 66.3869C117.258 66.5082 117.225 66.6272 117.193 66.7462C117.162 66.8606 117.129 66.9749 117.094 67.0893C117.061 67.1989 117.029 67.311 116.994 67.4206C116.841 67.8943 116.67 68.3587 116.48 68.8114C116.431 68.9281 116.38 69.0448 116.326 69.1614C116.288 69.2478 116.248 69.3318 116.209 69.4181C116.141 69.5605 116.073 69.7052 116.002 69.8452C115.766 70.3189 115.508 70.7832 115.229 71.2313C115.199 71.2803 115.166 71.3293 115.133 71.3783C114.941 71.6817 114.74 71.978 114.529 72.2674C111.401 76.5611 106.326 79.3613 100.605 79.3613C91.123 79.3613 83.4102 71.6793 83.4102 62.2355V46.8809H84.4528V62.2355C84.4528 71.1076 91.6994 78.3229 100.605 78.3229C109.51 78.3229 116.757 71.1053 116.757 62.2355V19.9635C116.757 17.196 119.018 14.9464 121.794 14.9464C124.571 14.9464 126.831 17.196 126.831 19.9635V59.1226H125.789V19.9635C125.789 17.77 123.997 15.9848 121.794 15.9848C119.592 15.9848 117.799 17.77 117.799 19.9635V62.2355Z" fill="url(#paint17_linear_3397_19187)"/>
<path d="M57.0711 23.0389C57.0711 14.1692 49.8245 6.95152 40.919 6.95152C32.0136 6.95152 24.767 14.1692 24.767 23.0389L24.767 43.7094H23.7244L23.7244 23.0389C23.7244 13.5951 31.4372 5.9131 40.919 5.9131C50.4008 5.9131 58.1137 13.5951 58.1137 23.0389L58.1137 75.6602H57.0711L57.0711 23.0389Z" fill="url(#paint18_linear_3397_19187)"/>
<path d="M40.919 8.33531C49.0606 8.33531 55.6817 14.9322 55.6817 23.0389L55.6817 75.6602H54.6391L54.6391 23.0389C54.6391 15.5039 48.4843 9.37374 40.919 9.37374C33.3537 9.37374 27.1988 15.5039 27.1988 23.0389L27.1988 43.7094H26.1563L26.1563 23.0389C26.1563 14.9322 32.7797 8.33531 40.919 8.33531Z" fill="url(#paint19_linear_3397_19187)"/>
<path d="M40.919 10.7551C47.7181 10.7551 53.2497 16.2646 53.2497 23.0365L53.2497 75.6577H52.2071L52.2071 23.0365C52.2071 16.8363 47.1417 11.7912 40.9166 11.7912C34.6915 11.7912 29.6261 16.8363 29.6261 23.0365L29.6261 43.7069H28.5835L28.5835 23.0365C28.5835 16.2646 34.1151 10.7551 40.9143 10.7551H40.919Z" fill="url(#paint20_linear_3397_19187)"/>
<path d="M40.919 13.1773C46.378 13.1773 50.8202 17.6017 50.8202 23.0365L50.8202 75.6577H49.7776L49.7776 23.0365C49.7776 18.1711 45.804 14.2134 40.919 14.2134C36.034 14.2134 32.0604 18.1711 32.0604 23.0365V43.7069H31.0178L31.0178 23.0365C31.0178 17.5993 35.46 13.1773 40.919 13.1773Z" fill="url(#paint21_linear_3397_19187)"/>
<path d="M40.9192 15.5996C45.038 15.5996 48.3884 18.9366 48.3884 23.0389L48.3884 75.6602H47.3458L47.3458 23.0389C47.3458 19.5106 44.464 16.6381 40.9192 16.6381C37.3743 16.6381 34.4925 19.5083 34.4925 23.0389V43.7094H33.45V23.0389C33.45 18.9366 36.8003 15.5996 40.9192 15.5996Z" fill="url(#paint22_linear_3397_19187)"/>
<path d="M40.9191 18.0218C43.6978 18.0218 45.9564 20.2714 45.9564 23.0389L45.9564 75.6602H44.9138L44.9138 23.0389C44.9138 20.8454 43.1215 19.0602 40.9191 19.0602C38.7168 19.0602 36.9244 20.8454 36.9244 23.0389V43.7094H35.8818V23.0389C35.8818 20.2737 38.1428 18.0218 40.9191 18.0218Z" fill="url(#paint23_linear_3397_19187)"/>
<path d="M17.1947 55.818L44.9114 55.818V56.8564L17.1947 56.8564C7.71289 56.8564 0 49.1744 0 39.7306L0 -0.000137329H1.0426L1.0426 39.7306C1.0426 48.6027 8.28924 55.818 17.1947 55.818Z" fill="url(#paint24_linear_3397_19187)"/>
<path d="M17.1946 53.3961L44.9113 53.3961V54.4346L17.1946 54.4346C9.05531 54.4346 2.43188 47.8377 2.43188 39.731L2.43188 0.000183105H3.47448L3.47448 39.731C3.47448 47.2659 9.62933 53.3961 17.1946 53.3961Z" fill="url(#paint25_linear_3397_19187)"/>
<path d="M17.1948 50.9738L44.9115 50.9738V52.0122L17.1948 52.0122C10.3956 52.0122 4.86401 46.5027 4.86401 39.7308L4.86401 4.57764e-05H5.90661L5.90661 39.7308C5.90661 45.931 10.972 50.9761 17.1971 50.9761L17.1948 50.9738Z" fill="url(#paint26_linear_3397_19187)"/>
<path d="M17.1946 48.5539L44.9113 48.5539V49.5923L17.1946 49.5923C11.7356 49.5923 7.29346 45.1679 7.29346 39.7308L7.29346 -1.52588e-05H8.33606L8.33606 39.7308C8.33606 44.5962 12.3096 48.5539 17.1946 48.5539Z" fill="url(#paint27_linear_3397_19187)"/>
<path d="M17.1946 46.1315L44.9113 46.1315V47.1699L17.1946 47.1699C13.0757 47.1699 9.72534 43.833 9.72534 39.7306L9.72534 -0.000167847H10.7679L10.7679 39.7306C10.7679 43.2589 13.6497 46.1315 17.1946 46.1315Z" fill="url(#paint28_linear_3397_19187)"/>
<path d="M17.1946 43.7096H23.7243V43.7143H24.7669V43.7096H26.1563V43.7143H27.1989V43.7096H28.5882V43.7143H29.6308V43.7096H31.0202V43.7143H32.0628V43.7096H33.4521V43.7143H34.4947V43.7096H35.8841V43.7143H36.9267V43.7096L44.9137 43.7096V44.748L17.1969 44.748C14.4206 44.748 12.1597 42.4985 12.1597 39.7309L12.1597 0.000167847H13.2023L13.2023 39.7309C13.2023 41.9245 14.9946 43.7096 17.1969 43.7096H17.1946Z" fill="url(#paint29_linear_3397_19187)"/>
<path d="M24.7671 43.7139H23.7244V43.7092H24.7671V43.7139Z" fill="url(#paint30_linear_3397_19187)"/>
<path d="M24.7671 43.7139H23.7244V43.7092H24.7671V43.7139Z" fill="url(#paint31_linear_3397_19187)"/>
<path d="M27.199 43.7139H26.1562V43.7092H27.199V43.7139Z" fill="url(#paint32_linear_3397_19187)"/>
<path d="M27.199 43.7139H26.1562V43.7092H27.199V43.7139Z" fill="url(#paint33_linear_3397_19187)"/>
<path d="M29.6287 43.7139H28.5859V43.7092H29.6287V43.7139Z" fill="url(#paint34_linear_3397_19187)"/>
<path d="M29.6287 43.7139H28.5859V43.7092H29.6287V43.7139Z" fill="url(#paint35_linear_3397_19187)"/>
<path d="M32.0606 43.7139H31.0178V43.7092H32.0606V43.7139Z" fill="url(#paint36_linear_3397_19187)"/>
<path d="M32.0606 43.7139H31.0178V43.7092H32.0606V43.7139Z" fill="url(#paint37_linear_3397_19187)"/>
<path d="M34.4927 43.7139H33.45V43.7092H34.4927V43.7139Z" fill="url(#paint38_linear_3397_19187)"/>
<path d="M34.4927 43.7139H33.45V43.7092H34.4927V43.7139Z" fill="url(#paint39_linear_3397_19187)"/>
<path d="M36.9246 43.7139H35.8818V43.7092H36.9246V43.7139Z" fill="url(#paint40_linear_3397_19187)"/>
<path d="M36.9246 43.7139H35.8818V43.7092H36.9246V43.7139Z" fill="url(#paint41_linear_3397_19187)"/>
<path d="M81.9179 18.7988C79.1415 18.7988 76.8806 16.5493 76.8806 13.7817V-0.000137329H77.9232V13.7817C77.9232 15.9752 79.7155 17.7604 81.9179 17.7604C84.1202 17.7604 85.9126 15.9752 85.9126 13.7817V-0.000137329H86.9552V13.7817C86.9552 16.547 84.6966 18.7988 81.9179 18.7988Z" fill="url(#paint42_linear_3397_19187)"/>
<path d="M81.9177 21.2212C77.7989 21.2212 74.4485 17.8842 74.4485 13.7819V1.52588e-05H75.4911V13.7819C75.4911 17.3102 78.3729 20.1828 81.9177 20.1828C85.4625 20.1828 88.3443 17.3125 88.3443 13.7819V1.52588e-05L89.3869 1.52588e-05V13.7819C89.3869 17.8842 86.0366 21.2212 81.9177 21.2212Z" fill="url(#paint43_linear_3397_19187)"/>
<path d="M81.9178 23.6436C76.4588 23.6436 72.0166 19.2192 72.0166 13.782V0.000167847H73.0592V13.782C73.0592 18.6475 77.0328 22.6051 81.9178 22.6051C86.8028 22.6051 90.7764 18.6475 90.7764 13.782V0.000167847H91.8189V13.782C91.8189 19.2192 87.3768 23.6436 81.9178 23.6436Z" fill="url(#paint44_linear_3397_19187)"/>
<path d="M81.9177 26.0635C75.1185 26.0635 69.5869 20.554 69.5869 13.7821V0.000213623H70.6295V13.7821C70.6295 19.9823 75.6949 25.0274 81.92 25.0274C88.1452 25.0274 93.2105 19.9823 93.2105 13.7821V0.000213623H94.2532V13.7821C94.2532 20.554 88.7215 26.0635 81.9224 26.0635H81.9177Z" fill="url(#paint45_linear_3397_19187)"/>
<path d="M81.9178 28.4854C73.7761 28.4854 67.155 21.8884 67.155 13.7817V-0.00012207H68.1976V13.7817C68.1976 21.3167 74.3525 27.4469 81.9178 27.4469C89.483 27.4469 95.6379 21.3167 95.6379 13.7817V-0.00012207H96.6805V13.7817C96.6805 21.8908 90.0571 28.4854 81.9178 28.4854Z" fill="url(#paint46_linear_3397_19187)"/>
<path d="M81.9178 30.9077C72.436 30.9077 64.7231 23.2257 64.7231 13.7819V4.57764e-05H65.7657V13.7819C65.7657 22.654 73.0124 29.8693 81.9178 29.8693C90.8233 29.8693 98.0699 22.6517 98.0699 13.7819V4.57764e-05H99.1125V13.7819C99.1125 23.2257 91.3996 30.9077 81.9178 30.9077Z" fill="url(#paint47_linear_3397_19187)"/>
<path d="M158.266 19.0278C158.266 21.2213 160.059 23.0065 162.261 23.0065H171.944V24.0449L162.261 24.0449C159.485 24.0449 157.224 21.7954 157.224 19.0278C157.224 16.2603 159.485 14.0107 162.261 14.0107L176 14.0107V15.0492L162.261 15.0492C160.059 15.0492 158.266 16.8343 158.266 19.0278Z" fill="url(#paint48_linear_3397_19187)"/>
<path d="M148.541 19.0278C148.541 26.5628 154.696 32.693 162.261 32.693H171.949V33.7314H162.261C154.122 33.7314 147.499 27.1345 147.499 19.0278C147.499 10.9211 154.122 4.32423 162.261 4.32423H176V5.36266H162.261C154.696 5.36266 148.541 11.4929 148.541 19.0278Z" fill="url(#paint49_linear_3397_19187)"/>
<path d="M171.977 33.7334H171.949V32.695H171.977V33.7334Z" fill="url(#paint50_linear_3397_19187)"/>
<path d="M171.977 33.7334H171.949V32.695H171.977V33.7334Z" fill="url(#paint51_linear_3397_19187)"/>
<path d="M146.109 19.0275C146.109 27.8996 153.356 35.1149 162.261 35.1149H171.944V36.1533H162.261C152.779 36.1533 145.066 28.4713 145.066 19.0275C145.066 9.5837 152.779 1.9017 162.261 1.9017L176 1.9017V2.94013L162.261 2.94013C153.356 2.94013 146.109 10.1578 146.109 19.0275Z" fill="url(#paint52_linear_3397_19187)"/>
<path d="M155.837 19.0275C155.837 22.5558 158.719 25.4284 162.263 25.4284L171.947 25.4284V26.4668L162.263 26.4668C158.145 26.4668 154.794 23.1298 154.794 19.0275C154.794 14.9251 158.145 11.5882 162.263 11.5882H176.002V12.6266H162.263C158.721 12.6266 155.837 15.4969 155.837 19.0275Z" fill="url(#paint53_linear_3397_19187)"/>
<path d="M153.405 19.0276C153.405 23.8931 157.379 27.8507 162.264 27.8507L171.947 27.8507V28.8892L162.264 28.8892C156.805 28.8892 152.365 24.4648 152.365 19.0276C152.365 13.5905 156.807 9.16844 162.264 9.16844L176.002 9.16844V10.2069L162.264 10.2069C157.379 10.2069 153.405 14.1645 153.405 19.03V19.0276Z" fill="url(#paint54_linear_3397_19187)"/>
<path d="M150.973 19.0278C150.973 25.228 156.038 30.2731 162.263 30.2731L171.947 30.2731V31.3115L162.263 31.3115C155.464 31.3115 149.933 25.8021 149.933 19.0301C149.933 12.2582 155.464 6.74875 162.263 6.74875L176.002 6.74875V7.78716L162.263 7.78716C156.038 7.78716 150.973 12.8323 150.973 19.0325V19.0278Z" fill="url(#paint55_linear_3397_19187)"/>
<path d="M156.031 135.291C147.126 135.291 139.879 142.509 139.879 151.379V172.049H138.837V151.379C138.837 141.935 146.55 134.253 156.031 134.253C165.513 134.253 173.226 141.935 173.226 151.379V204H172.183V151.379C172.183 142.509 164.937 135.291 156.031 135.291Z" fill="url(#paint56_linear_3397_19187)"/>
<path d="M156.031 137.714C148.466 137.714 142.311 143.844 142.311 151.379V172.049H141.269V151.379C141.269 143.272 147.892 136.675 156.031 136.675C164.171 136.675 170.794 143.272 170.794 151.379V204H169.751V151.379C169.751 143.844 163.597 137.714 156.031 137.714Z" fill="url(#paint57_linear_3397_19187)"/>
<path d="M156.031 140.136C149.806 140.136 144.741 145.181 144.741 151.381V172.052H143.698V151.381C143.698 144.609 149.23 139.1 156.029 139.1C162.828 139.1 168.36 144.609 168.36 151.381V204H167.317V151.379C167.317 145.179 162.252 140.133 156.027 140.133L156.031 140.136Z" fill="url(#paint58_linear_3397_19187)"/>
<path d="M156.031 142.558C151.146 142.558 147.173 146.516 147.173 151.381V172.052H146.13V151.381C146.13 145.944 150.572 141.522 156.031 141.522C161.49 141.522 165.932 145.946 165.932 151.381V204H164.89V151.379C164.89 146.513 160.916 142.556 156.031 142.556V142.558Z" fill="url(#paint59_linear_3397_19187)"/>
<path d="M156.031 144.98C152.489 144.98 149.605 147.85 149.605 151.381V172.052H148.562V151.381C148.562 147.279 151.912 143.942 156.031 143.942C160.15 143.942 163.5 147.279 163.5 151.381V204H162.458V151.379C162.458 147.85 159.576 144.978 156.031 144.978V144.98Z" fill="url(#paint60_linear_3397_19187)"/>
<path d="M156.031 147.4C153.829 147.4 152.037 149.185 152.037 151.379V172.049H150.994V151.379C150.994 148.614 153.255 146.362 156.031 146.362C158.808 146.362 161.069 148.611 161.069 151.379V204H160.026V151.379C160.026 149.185 158.234 147.4 156.031 147.4Z" fill="url(#paint61_linear_3397_19187)"/>
<path d="M115.112 147.022V128.34H116.155V168.07C116.155 176.943 123.402 184.158 132.307 184.158H160.024V185.196H132.307C122.825 185.196 115.112 177.514 115.112 168.07V147.022Z" fill="url(#paint62_linear_3397_19187)"/>
<path d="M118.584 168.07C118.584 175.605 124.739 181.736 132.304 181.736H160.021V182.774H132.304C124.165 182.774 117.542 176.177 117.542 168.07V128.34H118.584V168.07Z" fill="url(#paint63_linear_3397_19187)"/>
<path d="M121.016 168.071C121.016 174.271 126.082 179.316 132.307 179.316H160.024V180.354H132.307C125.508 180.354 119.976 174.845 119.976 168.073V128.342H121.019V168.073L121.016 168.071Z" fill="url(#paint64_linear_3397_19187)"/>
<path d="M123.448 168.071C123.448 172.936 127.422 176.894 132.307 176.894H160.024V177.932H132.307C126.848 177.932 122.406 173.508 122.406 168.071V128.34H123.448V168.071Z" fill="url(#paint65_linear_3397_19187)"/>
<path d="M125.88 168.07C125.88 171.599 128.762 174.471 132.307 174.471H160.024V175.51H132.307C128.188 175.51 124.838 172.173 124.838 168.07V128.34H125.88V168.07Z" fill="url(#paint66_linear_3397_19187)"/>
<path d="M128.312 168.071C128.312 170.264 130.105 172.049 132.307 172.049H138.837V172.054H139.879V172.049H141.269V172.054H142.311V172.049H143.701V172.054H144.743V172.049H146.132V172.054H147.175V172.049H148.564V172.054H149.607V172.049H150.996V172.054H152.039V172.049H160.026V173.088H132.309C129.533 173.088 127.272 170.838 127.272 168.071V128.34H128.315V168.071H128.312Z" fill="url(#paint67_linear_3397_19187)"/>
<path d="M139.879 172.054H138.837V172.049H139.879V172.054Z" fill="url(#paint68_linear_3397_19187)"/>
<path d="M139.879 172.054H138.837V172.049H139.879V172.054Z" fill="url(#paint69_linear_3397_19187)"/>
<path d="M142.309 172.054H141.266V172.049H142.309V172.054Z" fill="url(#paint70_linear_3397_19187)"/>
<path d="M142.309 172.054H141.266V172.049H142.309V172.054Z" fill="url(#paint71_linear_3397_19187)"/>
<path d="M144.741 172.054H143.698V172.049H144.741V172.054Z" fill="url(#paint72_linear_3397_19187)"/>
<path d="M144.741 172.054H143.698V172.049H144.741V172.054Z" fill="url(#paint73_linear_3397_19187)"/>
<path d="M147.173 172.054H146.13V172.049H147.173V172.054Z" fill="url(#paint74_linear_3397_19187)"/>
<path d="M147.173 172.054H146.13V172.049H147.173V172.054Z" fill="url(#paint75_linear_3397_19187)"/>
<path d="M149.605 172.054H148.562V172.049H149.605V172.054Z" fill="url(#paint76_linear_3397_19187)"/>
<path d="M149.605 172.054H148.562V172.049H149.605V172.054Z" fill="url(#paint77_linear_3397_19187)"/>
<path d="M152.037 172.054H150.994V172.049H152.037V172.054Z" fill="url(#paint78_linear_3397_19187)"/>
<path d="M152.037 172.054H150.994V172.049H152.037V172.054Z" fill="url(#paint79_linear_3397_19187)"/>
<path d="M72.8881 88.8053H63.1626V90.8634C63.1626 91.9042 63.1626 92.4666 63.1322 92.7839H63.1626C63.1626 95.5492 60.9017 97.801 58.1254 97.801H43.8195C41.0408 97.801 38.7822 95.5515 38.7822 92.7839C38.7822 90.0164 41.0408 87.7668 43.8195 87.7668H75.4934C78.2698 87.7668 80.5307 90.0164 80.5307 92.7839V115.193H79.4881V92.7839C79.4881 90.5904 77.6957 88.8053 75.4934 88.8053H72.8881ZM62.12 92.4362V88.8053H43.8195C41.6172 88.8053 39.8248 90.5904 39.8248 92.7839C39.8248 94.9775 41.6172 96.7626 43.8195 96.7626H58.1254C60.3277 96.7626 62.12 94.9775 62.12 92.7839V92.4362Z" fill="url(#paint80_linear_3397_19187)"/>
<path d="M65.562 92.7839H65.5924C65.5924 96.8863 62.2421 100.223 58.1232 100.223H43.8174C39.6985 100.223 36.3481 96.8863 36.3481 92.7839C36.3481 88.6816 39.6985 85.3446 43.8174 85.3446H75.4913C79.6101 85.3446 82.9605 88.6816 82.9605 92.7839V115.193H81.9179V92.7839C81.9179 89.2556 79.0361 86.383 75.4913 86.383H43.8174C40.2749 86.383 37.3907 89.2533 37.3907 92.7839C37.3907 96.3146 40.2725 99.1848 43.8174 99.1848H58.1232C61.6657 99.1848 64.5498 96.3146 64.5498 92.7839V88.8053H65.5924V90.8634C65.5924 91.9042 65.5924 92.4666 65.562 92.7839Z" fill="url(#paint81_linear_3397_19187)"/>
<path d="M67.9938 92.7839H68.0242C68.0242 98.2211 63.582 102.645 58.123 102.645H43.8172C38.3582 102.645 33.916 98.2211 33.916 92.7839C33.916 87.3468 38.3582 82.9224 43.8172 82.9224H75.4911C80.9501 82.9224 85.3923 87.3468 85.3923 92.7839V115.193H84.3497V92.7839C84.3497 87.9185 80.3761 83.9608 75.4911 83.9608H43.8172C38.9322 83.9608 34.9586 87.9185 34.9586 92.7839C34.9586 97.6494 38.9322 101.607 43.8172 101.607H58.123C63.008 101.607 66.9816 97.6494 66.9816 92.7839V88.8053H68.0242V90.8308C68.0242 91.8925 68.0242 92.4642 67.9938 92.7839Z" fill="url(#paint82_linear_3397_19187)"/>
<path d="M70.4258 92.7839H70.4586C70.4586 99.5559 64.927 105.065 58.1278 105.065H43.822C37.0228 105.065 31.4912 99.5559 31.4912 92.7839C31.4912 86.012 37.0228 80.5025 43.822 80.5025H75.4959C82.295 80.5025 87.8267 86.012 87.8267 92.7839V115.193H86.7841V92.7839C86.7841 86.5837 81.7187 81.5386 75.4936 81.5386H43.8196C37.5945 81.5386 32.5291 86.5837 32.5291 92.7839C32.5291 98.9841 37.5945 104.029 43.8196 104.029H58.1255C64.3506 104.029 69.416 98.9841 69.416 92.7839V88.8053H70.4516L70.4586 90.8308C70.4586 91.8925 70.4586 92.4642 70.4258 92.7839Z" fill="url(#paint83_linear_3397_19187)"/>
<path d="M72.8578 92.7839H72.8906C72.8906 100.893 66.2672 107.488 58.1279 107.488H43.8221C35.6804 107.488 29.0593 100.891 29.0593 92.7839C29.0593 84.6772 35.6828 78.0803 43.8221 78.0803H75.496C83.6353 78.0803 90.2587 84.6772 90.2587 92.7839V115.193H89.2161V92.7839C89.2161 85.2489 83.0612 79.1188 75.496 79.1188H43.8221C36.2568 79.1188 30.1019 85.2489 30.1019 92.7839C30.1019 100.319 36.2568 106.449 43.8221 106.449H58.1279C65.6932 106.449 71.848 100.319 71.848 92.7839V88.8053H72.8906V90.8308C72.8906 91.8925 72.8906 92.4642 72.8578 92.7839Z" fill="url(#paint84_linear_3397_19187)"/>
<path d="M64.5522 75.6581H75.4936C84.9754 75.6581 92.6882 83.3401 92.6882 92.7839V115.193H91.6457V92.7839C91.6457 83.9118 84.399 76.6965 75.4936 76.6965H43.8197C34.9119 76.6965 27.6676 83.9142 27.6676 92.7839C27.6676 101.654 34.9142 108.871 43.8197 108.871H58.1255C67.031 108.871 74.2776 101.654 74.2776 92.7839V92.4362C74.2776 91.4562 74.2682 88.8053 74.2682 88.8053H75.3108L75.3202 92.1492C75.3202 92.4339 75.3202 92.6369 75.3108 92.7839H75.3202C75.3202 102.228 67.6073 109.91 58.1255 109.91H43.8197C34.3379 109.91 26.625 102.228 26.625 92.7839C26.625 83.3401 34.3379 75.6581 43.8197 75.6581H64.5522Z" fill="url(#paint85_linear_3397_19187)"/>
<path d="M117.104 114.478H115.161C105.68 114.478 97.9668 106.796 97.9668 97.3526C97.9668 87.9088 105.68 80.2268 115.161 80.2268H157.95C160.153 80.2268 161.945 78.4416 161.945 76.2481C161.945 74.0546 160.153 72.2694 157.95 72.2694H114.524C114.735 71.9801 114.937 71.6814 115.129 71.3804C115.159 71.3314 115.194 71.2824 115.225 71.2334H157.95C160.727 71.2334 162.987 73.4829 162.987 76.2505C162.987 79.018 160.727 81.2676 157.95 81.2676H115.161C106.254 81.2676 99.0094 88.4852 99.0094 97.3549C99.0094 106.225 106.256 113.442 115.161 113.442H126.689C128.214 113.442 129.58 114.124 130.505 115.195H128.966C128.319 114.747 127.534 114.481 126.689 114.481H117.104V114.478Z" fill="url(#paint86_linear_3397_19187)"/>
<path d="M115.227 71.2308C115.197 71.2798 115.164 71.3289 115.131 71.3779C115.161 71.3289 115.197 71.2798 115.227 71.2308Z" fill="url(#paint87_linear_3397_19187)"/>
<path d="M115.227 71.2308C115.197 71.2798 115.164 71.3289 115.131 71.3779C115.161 71.3289 115.197 71.2798 115.227 71.2308Z" fill="url(#paint88_linear_3397_19187)"/>
<path d="M114.527 72.2695C114.738 71.9802 114.939 71.6815 115.131 71.3804C114.939 71.6838 114.738 71.9802 114.527 72.2695Z" fill="url(#paint89_linear_3397_19187)"/>
<path d="M114.527 72.2695C114.738 71.9802 114.939 71.6815 115.131 71.3804C114.939 71.6838 114.738 71.9802 114.527 72.2695Z" fill="url(#paint90_linear_3397_19187)"/>
<path d="M114.527 72.2695C114.738 71.9802 114.939 71.6815 115.131 71.3804C114.939 71.6838 114.738 71.9802 114.527 72.2695Z" fill="url(#paint91_linear_3397_19187)"/>
<path d="M114.527 72.2695C114.738 71.9802 114.939 71.6815 115.131 71.3804C114.939 71.6838 114.738 71.9802 114.527 72.2695Z" fill="url(#paint92_linear_3397_19187)"/>
<path d="M126.689 112.057H115.161C107.02 112.057 100.399 105.46 100.399 97.353C100.399 89.2463 107.022 82.6494 115.161 82.6494H157.95C161.493 82.6494 164.377 79.7791 164.377 76.2485C164.377 72.7179 161.495 69.8476 157.95 69.8476H116C116.07 69.7053 116.138 69.5629 116.206 69.4206C116.246 69.3366 116.284 69.2502 116.323 69.1639C116.375 69.0472 116.429 68.9329 116.478 68.8139C116.478 68.8139 116.478 68.8115 116.478 68.8092H157.95C162.069 68.8092 165.419 72.1461 165.419 76.2485C165.419 80.3508 162.069 83.6878 157.95 83.6878H115.161C107.596 83.6878 101.441 89.818 101.441 97.353C101.441 104.888 107.596 111.018 115.161 111.018H126.689C129.629 111.018 132.171 112.724 133.389 115.193H132.206C131.084 113.319 129.034 112.057 126.689 112.057Z" fill="url(#paint93_linear_3397_19187)"/>
<path d="M126.688 109.637H115.161C108.362 109.637 102.831 104.127 102.831 97.3553C102.831 90.5833 108.362 85.0739 115.161 85.0739H157.95C162.835 85.0739 166.809 81.1162 166.809 76.2508C166.809 71.3853 162.835 67.4277 157.95 67.4277H116.989C116.989 67.4277 116.989 67.4277 116.989 67.4253C117.024 67.3157 117.057 67.2037 117.09 67.094C117.122 66.9796 117.155 66.8653 117.188 66.751C117.221 66.6319 117.254 66.5106 117.284 66.3916H157.95C163.409 66.3916 167.851 70.816 167.851 76.2531C167.851 81.6902 163.409 86.1146 157.95 86.1146H115.161C108.936 86.1146 103.871 91.1597 103.871 97.3599C103.871 103.56 108.936 108.605 115.161 108.605H126.688C130.999 108.605 134.673 111.363 136.027 115.202H134.914C133.609 111.949 130.414 109.644 126.688 109.644V109.637Z" fill="url(#paint94_linear_3397_19187)"/>
<path d="M117.284 66.3892C117.254 66.5105 117.221 66.6295 117.188 66.7485C117.221 66.6295 117.254 66.5082 117.284 66.3892Z" fill="url(#paint95_linear_3397_19187)"/>
<path d="M117.284 66.3892C117.254 66.5105 117.221 66.6295 117.188 66.7485C117.221 66.6295 117.254 66.5082 117.284 66.3892Z" fill="url(#paint96_linear_3397_19187)"/>
<path d="M126.689 107.214H115.161C109.702 107.214 105.26 102.79 105.26 97.3528C105.26 91.9156 109.702 87.4913 115.161 87.4913H157.95C164.175 87.4913 169.241 82.4462 169.241 76.2459C169.241 70.0457 164.175 65.0006 157.95 65.0006H117.57C117.57 65.0006 117.57 64.9983 117.57 64.996C117.589 64.877 117.607 64.7556 117.624 64.6343C117.65 64.4499 117.675 64.2632 117.694 64.0766C117.699 64.0392 117.703 63.9995 117.708 63.9622L157.948 63.9622C164.747 63.9622 170.279 69.4717 170.279 76.2436C170.279 83.0155 164.747 88.525 157.948 88.525H115.159C110.274 88.525 106.301 92.4827 106.301 97.3481C106.301 102.214 110.274 106.171 115.159 106.171H126.686C132.351 106.171 137.133 109.996 138.572 115.188H137.489C136.081 110.575 131.773 107.207 126.686 107.207L126.689 107.214Z" fill="url(#paint97_linear_3397_19187)"/>
<path d="M126.688 102.37H115.161C112.383 102.37 110.124 100.121 110.124 97.353C110.124 94.5854 112.383 92.3359 115.161 92.3359H157.95C166.855 92.3359 174.102 85.1183 174.102 76.2485C174.102 67.3787 166.855 60.1611 157.95 60.1611L117.797 60.1611V59.1227L157.95 59.1227C167.432 59.1227 175.145 66.8047 175.145 76.2485C175.145 85.6923 167.432 93.3743 157.95 93.3743H115.161C112.959 93.3743 111.167 95.1595 111.167 97.353C111.167 99.5465 112.959 101.332 115.161 101.332H126.688C135.048 101.332 142.032 107.306 143.567 115.193H142.508C140.99 107.882 134.474 102.37 126.691 102.37H126.688Z" fill="url(#paint98_linear_3397_19187)"/>
<path d="M126.689 104.792H115.161C111.043 104.792 107.692 101.455 107.692 97.353C107.692 93.2506 111.043 89.9137 115.161 89.9137H157.95C165.515 89.9137 171.67 83.7835 171.67 76.2485C171.67 68.7135 165.515 62.5833 157.95 62.5833L117.788 62.5833C117.79 62.4666 117.797 62.3523 117.797 62.2379V61.5449L157.95 61.5449C166.089 61.5449 172.713 68.1418 172.713 76.2485C172.713 84.3552 166.089 90.9521 157.95 90.9521H115.161C111.619 90.9521 108.735 93.8224 108.735 97.353C108.735 100.884 111.617 103.754 115.161 103.754H126.689C133.703 103.754 139.584 108.652 141.081 115.193H140.01C138.537 109.228 133.125 104.792 126.689 104.792Z" fill="url(#paint99_linear_3397_19187)"/>
<path d="M163.294 99.1987C160.267 99.1987 157.802 96.9492 157.802 94.1816V93.3766H158.939V94.1816C158.939 96.3752 160.893 98.1603 163.294 98.1603H176.002V99.1987H163.294Z" fill="url(#paint100_linear_3397_19187)"/>
<path d="M163.294 101.621C158.805 101.621 155.153 98.2837 155.153 94.1813V93.3762H156.289V94.1813C156.289 97.7096 159.431 100.582 163.297 100.582H176.005V101.621H163.297H163.294Z" fill="url(#paint101_linear_3397_19187)"/>
<path d="M163.294 104.043C157.343 104.043 152.5 99.6186 152.5 94.1815V93.3764H153.637V94.1815C153.637 99.0469 157.969 103.005 163.294 103.005H176.002V104.043H163.294Z" fill="url(#paint102_linear_3397_19187)"/>
<path d="M163.294 106.465C155.881 106.465 149.848 100.956 149.848 94.184V93.379H150.985V94.184C150.985 100.384 156.507 105.429 163.294 105.429H176.002V106.468H163.294V106.465Z" fill="url(#paint103_linear_3397_19187)"/>
<path d="M163.294 108.885C154.419 108.885 147.198 102.288 147.198 94.1817V93.3766H148.335V94.1817C148.335 101.717 155.047 107.847 163.294 107.847H176.002V108.885H163.294Z" fill="url(#paint104_linear_3397_19187)"/>
<path d="M163.294 111.307C152.957 111.307 144.546 103.625 144.546 94.1813V93.3762H145.683V94.1813C145.683 103.053 153.583 110.269 163.294 110.269H176.002V111.307H163.294Z" fill="url(#paint105_linear_3397_19187)"/>
<path d="M81.9201 115.193H110.38V116.231H75.4068C66.5014 116.231 59.2548 123.449 59.2548 132.319C59.2548 141.188 66.5014 148.406 75.4068 148.406H96.1206V149.444H96.1651H75.4068C65.925 149.444 58.2122 141.762 58.2122 132.319C58.2122 122.875 65.925 115.193 75.4068 115.193H81.9201Z" fill="url(#paint106_linear_3397_19187)"/>
<path d="M96.165 147.022H75.4068C67.2675 147.022 60.644 140.425 60.644 132.318C60.644 124.212 67.2675 117.615 75.4068 117.615H110.38V118.653H75.4068C67.8415 118.653 61.6866 124.783 61.6866 132.318C61.6866 139.853 67.8415 145.984 75.4068 145.984H96.1205V147.022H96.165Z" fill="url(#paint107_linear_3397_19187)"/>
<path d="M96.1652 144.602H75.4069C68.6078 144.602 63.0762 139.093 63.0762 132.321C63.0762 125.549 68.6078 120.039 75.4069 120.039H110.38V121.078H75.4069C69.1818 121.078 64.1164 126.123 64.1164 132.323C64.1164 138.523 69.1818 143.569 75.4069 143.569H96.1207V144.607H96.1652V144.602Z" fill="url(#paint108_linear_3397_19187)"/>
<path d="M96.1651 142.18H75.4069C69.9479 142.18 65.5081 137.756 65.5081 132.319C65.5081 126.882 69.9502 122.457 75.4069 122.457H110.38V123.496H75.4069C70.5219 123.496 66.5483 127.453 66.5483 132.319C66.5483 137.184 70.5219 141.142 75.4069 141.142H96.1206V142.18H96.1651Z" fill="url(#paint109_linear_3397_19187)"/>
<path d="M96.165 139.758H75.4067C71.2879 139.758 67.9375 136.421 67.9375 132.319C67.9375 128.216 71.2879 124.879 75.4067 124.879H110.379V125.918H75.4067C71.8642 125.918 68.9801 128.788 68.9801 132.319C68.9801 135.849 71.8619 138.719 75.4067 138.719H96.1205V139.758H96.165Z" fill="url(#paint110_linear_3397_19187)"/>
<path d="M71.4122 132.318C71.4122 134.512 73.2046 136.297 75.4069 136.297H96.1206V137.335H96.1652H75.4069C72.6305 137.335 70.3696 135.084 70.3696 132.318C70.3696 129.553 72.6282 127.301 75.4069 127.301H110.38V128.34H75.4069C73.2046 128.34 71.4122 130.125 71.4122 132.318Z" fill="url(#paint111_linear_3397_19187)"/>
<path d="M110.38 116.231V115.193H128.966H130.505H132.206H133.389H134.915H136.028H137.492H138.574H140.011H141.081H142.506H143.567L176 115.193V116.231L110.38 116.231Z" fill="url(#paint112_linear_3397_19187)"/>
<path d="M176.002 118.653L110.38 118.653V117.615L176.002 117.615V118.653Z" fill="url(#paint113_linear_3397_19187)"/>
<path d="M176.002 121.076L110.38 121.076V120.037L176.002 120.037V121.076Z" fill="url(#paint114_linear_3397_19187)"/>
<path d="M176.002 123.498L110.38 123.498V122.459L176.002 122.459V123.498Z" fill="url(#paint115_linear_3397_19187)"/>
<path d="M176.002 125.92L110.38 125.92V124.882L176.002 124.882V125.92Z" fill="url(#paint116_linear_3397_19187)"/>
<path d="M127.27 128.34H125.88H124.838H123.448H122.406H121.016H119.976H118.585H117.544H116.155H115.112H110.38V127.304L176 127.304V128.34H128.312H127.27Z" fill="url(#paint117_linear_3397_19187)"/>
<path d="M96.1651 136.297H96.1206H115.112V137.335H96.1651V136.297Z" fill="url(#paint118_linear_3397_19187)"/>
<path d="M96.1652 137.335H96.1206V136.297H96.1652V137.335Z" fill="url(#paint119_linear_3397_19187)"/>
<path d="M96.1652 137.335H96.1206V136.297H96.1652V137.335Z" fill="url(#paint120_linear_3397_19187)"/>
<path d="M96.1651 138.719H96.1206H115.112V139.758H96.1651V138.719Z" fill="url(#paint121_linear_3397_19187)"/>
<path d="M96.1652 139.758H96.1206V138.719H96.1652V139.758Z" fill="url(#paint122_linear_3397_19187)"/>
<path d="M96.1652 139.758H96.1206V138.719H96.1652V139.758Z" fill="url(#paint123_linear_3397_19187)"/>
<path d="M96.1651 141.142H96.1206H115.112V142.18H96.1651V141.142Z" fill="url(#paint124_linear_3397_19187)"/>
<path d="M96.1652 142.18H96.1206V141.142H96.1652V142.18Z" fill="url(#paint125_linear_3397_19187)"/>
<path d="M96.1652 142.18H96.1206V141.142H96.1652V142.18Z" fill="url(#paint126_linear_3397_19187)"/>
<path d="M96.1651 143.564H96.1206H115.112V144.602H96.1651V143.564Z" fill="url(#paint127_linear_3397_19187)"/>
<path d="M96.1652 144.602H96.1206V143.564H96.1652V144.602Z" fill="url(#paint128_linear_3397_19187)"/>
<path d="M96.1652 144.602H96.1206V143.564H96.1652V144.602Z" fill="url(#paint129_linear_3397_19187)"/>
<path d="M96.1651 145.986H96.1206H115.112V147.022H96.1651V145.986Z" fill="url(#paint130_linear_3397_19187)"/>
<path d="M96.1652 147.022H96.1206V145.984H96.1652V147.022Z" fill="url(#paint131_linear_3397_19187)"/>
<path d="M96.1652 147.022H96.1206V145.984H96.1652V147.022Z" fill="url(#paint132_linear_3397_19187)"/>
<path d="M96.1206 148.408V148.406H115.112V149.444H96.1651V148.408H96.1206Z" fill="url(#paint133_linear_3397_19187)"/>
<path d="M96.1652 149.444H96.1206V148.406H96.1652V149.444Z" fill="url(#paint134_linear_3397_19187)"/>
<path d="M96.1652 149.444H96.1206V148.406H96.1652V149.444Z" fill="url(#paint135_linear_3397_19187)"/>
</g>
<defs>
<linearGradient id="paint0_linear_3397_19187" x1="138.989" y1="52.4814" x2="185.149" y2="52.4814" gradientUnits="userSpaceOnUse">
<stop stop-color="#D6D5FF"/>
<stop offset="0.9999" stop-color="#B9ADFE"/>
<stop offset="1" stop-color="#8566FB"/>
</linearGradient>
<linearGradient id="paint1_linear_3397_19187" x1="7.94265e-05" y1="49.8303" x2="182.717" y2="49.8303" gradientUnits="userSpaceOnUse">
<stop stop-color="#8566FB"/>
<stop offset="1" stop-color="#D6D5FF"/>
</linearGradient>
<linearGradient id="paint2_linear_3397_19187" x1="8.87545e-05" y1="47.0276" x2="180.285" y2="47.0276" gradientUnits="userSpaceOnUse">
<stop stop-color="#8566FB"/>
<stop offset="1" stop-color="#D6D5FF"/>
</linearGradient>
<linearGradient id="paint3_linear_3397_19187" x1="7.99188e-05" y1="43.719" x2="177.853" y2="43.719" gradientUnits="userSpaceOnUse">
<stop stop-color="#8566FB"/>
<stop offset="1" stop-color="#D6D5FF"/>
</linearGradient>
<linearGradient id="paint4_linear_3397_19187" x1="6.66428e-05" y1="29.7201" x2="175.424" y2="29.7201" gradientUnits="userSpaceOnUse">
<stop stop-color="#8566FB"/>
<stop offset="1" stop-color="#D6D5FF"/>
</linearGradient>
<linearGradient id="paint5_linear_3397_19187" x1="5.64984e-05" y1="28.5088" x2="172.992" y2="28.5088" gradientUnits="userSpaceOnUse">
<stop stop-color="#8566FB"/>
<stop offset="1" stop-color="#D6D5FF"/>
</linearGradient>
<linearGradient id="paint6_linear_3397_19187" x1="62.1201" y1="54.6956" x2="104.6" y2="54.6956" gradientUnits="userSpaceOnUse">
<stop stop-color="#8566FB"/>
<stop offset="1" stop-color="#D6D5FF"/>
</linearGradient>
<linearGradient id="paint7_linear_3397_19187" x1="64.552" y1="55.9068" x2="104.6" y2="55.9068" gradientUnits="userSpaceOnUse">
<stop stop-color="#8566FB"/>
<stop offset="1" stop-color="#D6D5FF"/>
</linearGradient>
<linearGradient id="paint8_linear_3397_19187" x1="66.9841" y1="57.1179" x2="104.6" y2="57.1179" gradientUnits="userSpaceOnUse">
<stop stop-color="#8566FB"/>
<stop offset="1" stop-color="#D6D5FF"/>
</linearGradient>
<linearGradient id="paint9_linear_3397_19187" x1="69.4159" y1="58.329" x2="104.6" y2="58.329" gradientUnits="userSpaceOnUse">
<stop stop-color="#8566FB"/>
<stop offset="1" stop-color="#D6D5FF"/>
</linearGradient>
<linearGradient id="paint10_linear_3397_19187" x1="71.8457" y1="59.5401" x2="104.6" y2="59.5401" gradientUnits="userSpaceOnUse">
<stop stop-color="#8566FB"/>
<stop offset="1" stop-color="#D6D5FF"/>
</linearGradient>
<linearGradient id="paint11_linear_3397_19187" x1="74.2776" y1="60.7512" x2="104.6" y2="60.7512" gradientUnits="userSpaceOnUse">
<stop stop-color="#8566FB"/>
<stop offset="1" stop-color="#D6D5FF"/>
</linearGradient>
<linearGradient id="paint12_linear_3397_19187" x1="95.5676" y1="35.045" x2="138.989" y2="35.045" gradientUnits="userSpaceOnUse">
<stop stop-color="#8566FB"/>
<stop offset="1" stop-color="#D6D5FF"/>
</linearGradient>
<linearGradient id="paint13_linear_3397_19187" x1="93.1357" y1="37.4674" x2="136.557" y2="37.4674" gradientUnits="userSpaceOnUse">
<stop stop-color="#8566FB"/>
<stop offset="1" stop-color="#D6D5FF"/>
</linearGradient>
<linearGradient id="paint14_linear_3397_19187" x1="90.7038" y1="39.8893" x2="134.125" y2="39.8893" gradientUnits="userSpaceOnUse">
<stop stop-color="#8566FB"/>
<stop offset="1" stop-color="#D6D5FF"/>
</linearGradient>
<linearGradient id="paint15_linear_3397_19187" x1="88.2718" y1="42.3116" x2="131.693" y2="42.3116" gradientUnits="userSpaceOnUse">
<stop stop-color="#8566FB"/>
<stop offset="1" stop-color="#D6D5FF"/>
</linearGradient>
<linearGradient id="paint16_linear_3397_19187" x1="85.8399" y1="44.7339" x2="129.261" y2="44.7339" gradientUnits="userSpaceOnUse">
<stop stop-color="#8566FB"/>
<stop offset="1" stop-color="#D6D5FF"/>
</linearGradient>
<linearGradient id="paint17_linear_3397_19187" x1="83.4078" y1="47.1562" x2="126.829" y2="47.1562" gradientUnits="userSpaceOnUse">
<stop stop-color="#8566FB"/>
<stop offset="1" stop-color="#D6D5FF"/>
</linearGradient>
<linearGradient id="paint18_linear_3397_19187" x1="23.7244" y1="40.7855" x2="58.1137" y2="40.7855" gradientUnits="userSpaceOnUse">
<stop stop-color="#8566FB"/>
<stop offset="1" stop-color="#D6D5FF"/>
</linearGradient>
<linearGradient id="paint19_linear_3397_19187" x1="26.1563" y1="41.9966" x2="55.6817" y2="41.9966" gradientUnits="userSpaceOnUse">
<stop stop-color="#8566FB"/>
<stop offset="1" stop-color="#D6D5FF"/>
</linearGradient>
<linearGradient id="paint20_linear_3397_19187" x1="28.5858" y1="43.2076" x2="53.2497" y2="43.2076" gradientUnits="userSpaceOnUse">
<stop stop-color="#8566FB"/>
<stop offset="1" stop-color="#D6D5FF"/>
</linearGradient>
<linearGradient id="paint21_linear_3397_19187" x1="31.0178" y1="44.4187" x2="50.8178" y2="44.4187" gradientUnits="userSpaceOnUse">
<stop stop-color="#8566FB"/>
<stop offset="1" stop-color="#D6D5FF"/>
</linearGradient>
<linearGradient id="paint22_linear_3397_19187" x1="33.45" y1="45.6299" x2="48.3861" y2="45.6299" gradientUnits="userSpaceOnUse">
<stop stop-color="#8566FB"/>
<stop offset="1" stop-color="#D6D5FF"/>
</linearGradient>
<linearGradient id="paint23_linear_3397_19187" x1="35.8818" y1="46.841" x2="45.9564" y2="46.841" gradientUnits="userSpaceOnUse">
<stop stop-color="#8566FB"/>
<stop offset="1" stop-color="#D6D5FF"/>
</linearGradient>
<linearGradient id="paint24_linear_3397_19187" x1="0" y1="28.427" x2="44.9114" y2="28.427" gradientUnits="userSpaceOnUse">
<stop stop-color="#8566FB"/>
<stop offset="1" stop-color="#D6D5FF"/>
</linearGradient>
<linearGradient id="paint25_linear_3397_19187" x1="2.43188" y1="27.2162" x2="44.9113" y2="27.2162" gradientUnits="userSpaceOnUse">
<stop stop-color="#8566FB"/>
<stop offset="1" stop-color="#D6D5FF"/>
</linearGradient>
<linearGradient id="paint26_linear_3397_19187" x1="4.86401" y1="26.005" x2="44.9115" y2="26.005" gradientUnits="userSpaceOnUse">
<stop stop-color="#8566FB"/>
<stop offset="1" stop-color="#D6D5FF"/>
</linearGradient>
<linearGradient id="paint27_linear_3397_19187" x1="7.2958" y1="24.7961" x2="44.9113" y2="24.7961" gradientUnits="userSpaceOnUse">
<stop stop-color="#8566FB"/>
<stop offset="1" stop-color="#D6D5FF"/>
</linearGradient>
<linearGradient id="paint28_linear_3397_19187" x1="9.72534" y1="23.5849" x2="44.9113" y2="23.5849" gradientUnits="userSpaceOnUse">
<stop stop-color="#8566FB"/>
<stop offset="1" stop-color="#D6D5FF"/>
</linearGradient>
<linearGradient id="paint29_linear_3397_19187" x1="12.1573" y1="22.3741" x2="44.9113" y2="22.3741" gradientUnits="userSpaceOnUse">
<stop stop-color="#8566FB"/>
<stop offset="1" stop-color="#D6D5FF"/>
</linearGradient>
<linearGradient id="paint30_linear_3397_19187" x1="23.7244" y1="43.7115" x2="58.1165" y2="43.7115" gradientUnits="userSpaceOnUse">
<stop stop-color="#8566FB"/>
<stop offset="1" stop-color="#D6D5FF"/>
</linearGradient>
<linearGradient id="paint31_linear_3397_19187" x1="12.1556" y1="43.7115" x2="44.9146" y2="43.7115" gradientUnits="userSpaceOnUse">
<stop stop-color="#8566FB"/>
<stop offset="1" stop-color="#D6D5FF"/>
</linearGradient>
<linearGradient id="paint32_linear_3397_19187" x1="26.1562" y1="43.7115" x2="55.6862" y2="43.7115" gradientUnits="userSpaceOnUse">
<stop stop-color="#8566FB"/>
<stop offset="1" stop-color="#D6D5FF"/>
</linearGradient>
<linearGradient id="paint33_linear_3397_19187" x1="12.1552" y1="43.7115" x2="44.9142" y2="43.7115" gradientUnits="userSpaceOnUse">
<stop stop-color="#8566FB"/>
<stop offset="1" stop-color="#D6D5FF"/>
</linearGradient>
<linearGradient id="paint34_linear_3397_19187" x1="28.5859" y1="43.7115" x2="53.2536" y2="43.7115" gradientUnits="userSpaceOnUse">
<stop stop-color="#8566FB"/>
<stop offset="1" stop-color="#D6D5FF"/>
</linearGradient>
<linearGradient id="paint35_linear_3397_19187" x1="12.1549" y1="43.7115" x2="44.9139" y2="43.7115" gradientUnits="userSpaceOnUse">
<stop stop-color="#8566FB"/>
<stop offset="1" stop-color="#D6D5FF"/>
</linearGradient>
<linearGradient id="paint36_linear_3397_19187" x1="31.0178" y1="43.7115" x2="50.8208" y2="43.7115" gradientUnits="userSpaceOnUse">
<stop stop-color="#8566FB"/>
<stop offset="1" stop-color="#D6D5FF"/>
</linearGradient>
<linearGradient id="paint37_linear_3397_19187" x1="12.1545" y1="43.7115" x2="44.9134" y2="43.7115" gradientUnits="userSpaceOnUse">
<stop stop-color="#8566FB"/>
<stop offset="1" stop-color="#D6D5FF"/>
</linearGradient>
<linearGradient id="paint38_linear_3397_19187" x1="33.45" y1="43.7115" x2="48.3884" y2="43.7115" gradientUnits="userSpaceOnUse">
<stop stop-color="#8566FB"/>
<stop offset="1" stop-color="#D6D5FF"/>
</linearGradient>
<linearGradient id="paint39_linear_3397_19187" x1="12.1542" y1="43.7115" x2="44.9133" y2="43.7115" gradientUnits="userSpaceOnUse">
<stop stop-color="#8566FB"/>
<stop offset="1" stop-color="#D6D5FF"/>
</linearGradient>
<linearGradient id="paint40_linear_3397_19187" x1="35.8818" y1="43.7115" x2="45.9579" y2="43.7115" gradientUnits="userSpaceOnUse">
<stop stop-color="#8566FB"/>
<stop offset="1" stop-color="#D6D5FF"/>
</linearGradient>
<linearGradient id="paint41_linear_3397_19187" x1="12.1538" y1="43.7115" x2="44.9128" y2="43.7115" gradientUnits="userSpaceOnUse">
<stop stop-color="#8566FB"/>
<stop offset="1" stop-color="#D6D5FF"/>
</linearGradient>
<linearGradient id="paint42_linear_3397_19187" x1="76.8806" y1="9.39935" x2="86.9552" y2="9.39935" gradientUnits="userSpaceOnUse">
<stop stop-color="#8566FB"/>
<stop offset="1" stop-color="#D6D5FF"/>
</linearGradient>
<linearGradient id="paint43_linear_3397_19187" x1="74.4485" y1="10.6106" x2="89.3846" y2="10.6106" gradientUnits="userSpaceOnUse">
<stop stop-color="#8566FB"/>
<stop offset="1" stop-color="#D6D5FF"/>
</linearGradient>
<linearGradient id="paint44_linear_3397_19187" x1="72.0166" y1="11.8219" x2="91.8166" y2="11.8219" gradientUnits="userSpaceOnUse">
<stop stop-color="#8566FB"/>
<stop offset="1" stop-color="#D6D5FF"/>
</linearGradient>
<linearGradient id="paint45_linear_3397_19187" x1="69.5846" y1="13.033" x2="94.2485" y2="13.033" gradientUnits="userSpaceOnUse">
<stop stop-color="#8566FB"/>
<stop offset="1" stop-color="#D6D5FF"/>
</linearGradient>
<linearGradient id="paint46_linear_3397_19187" x1="67.1527" y1="14.2438" x2="96.6805" y2="14.2438" gradientUnits="userSpaceOnUse">
<stop stop-color="#8566FB"/>
<stop offset="1" stop-color="#D6D5FF"/>
</linearGradient>
<linearGradient id="paint47_linear_3397_19187" x1="64.7231" y1="15.4527" x2="99.1125" y2="15.4527" gradientUnits="userSpaceOnUse">
<stop stop-color="#8566FB"/>
<stop offset="1" stop-color="#D6D5FF"/>
</linearGradient>
<linearGradient id="paint48_linear_3397_19187" x1="157.226" y1="19.0278" x2="198.579" y2="19.0278" gradientUnits="userSpaceOnUse">
<stop stop-color="#8566FB"/>
<stop offset="1" stop-color="#D6D5FF"/>
</linearGradient>
<linearGradient id="paint49_linear_3397_19187" x1="147.499" y1="19.0278" x2="198.579" y2="19.0278" gradientUnits="userSpaceOnUse">
<stop stop-color="#8566FB"/>
<stop offset="1" stop-color="#D6D5FF"/>
</linearGradient>
<linearGradient id="paint50_linear_3397_19187" x1="138.909" y1="33.213" x2="172.994" y2="33.213" gradientUnits="userSpaceOnUse">
<stop stop-color="#8566FB"/>
<stop offset="1" stop-color="#D6D5FF"/>
</linearGradient>
<linearGradient id="paint51_linear_3397_19187" x1="147.439" y1="33.213" x2="198.643" y2="33.213" gradientUnits="userSpaceOnUse">
<stop stop-color="#8566FB"/>
<stop offset="1" stop-color="#D6D5FF"/>
</linearGradient>
<linearGradient id="paint52_linear_3397_19187" x1="145.066" y1="19.0275" x2="196.573" y2="19.0275" gradientUnits="userSpaceOnUse">
<stop stop-color="#8566FB"/>
<stop offset="1" stop-color="#D6D5FF"/>
</linearGradient>
<linearGradient id="paint53_linear_3397_19187" x1="154.794" y1="19.0275" x2="198.579" y2="19.0275" gradientUnits="userSpaceOnUse">
<stop stop-color="#8566FB"/>
<stop offset="1" stop-color="#D6D5FF"/>
</linearGradient>
<linearGradient id="paint54_linear_3397_19187" x1="152.362" y1="19.0276" x2="198.579" y2="19.0276" gradientUnits="userSpaceOnUse">
<stop stop-color="#8566FB"/>
<stop offset="1" stop-color="#D6D5FF"/>
</linearGradient>
<linearGradient id="paint55_linear_3397_19187" x1="149.93" y1="19.0278" x2="198.579" y2="19.0278" gradientUnits="userSpaceOnUse">
<stop stop-color="#8566FB"/>
<stop offset="1" stop-color="#D6D5FF"/>
</linearGradient>
<linearGradient id="paint56_linear_3397_19187" x1="138.837" y1="169.128" x2="173.226" y2="169.128" gradientUnits="userSpaceOnUse">
<stop stop-color="#8566FB"/>
<stop offset="1" stop-color="#D6D5FF"/>
</linearGradient>
<linearGradient id="paint57_linear_3397_19187" x1="141.266" y1="170.339" x2="170.794" y2="170.339" gradientUnits="userSpaceOnUse">
<stop stop-color="#8566FB"/>
<stop offset="1" stop-color="#D6D5FF"/>
</linearGradient>
<linearGradient id="paint58_linear_3397_19187" x1="143.698" y1="171.55" x2="168.362" y2="171.55" gradientUnits="userSpaceOnUse">
<stop stop-color="#8566FB"/>
<stop offset="1" stop-color="#D6D5FF"/>
</linearGradient>
<linearGradient id="paint59_linear_3397_19187" x1="146.13" y1="172.759" x2="165.93" y2="172.759" gradientUnits="userSpaceOnUse">
<stop stop-color="#8566FB"/>
<stop offset="1" stop-color="#D6D5FF"/>
</linearGradient>
<linearGradient id="paint60_linear_3397_19187" x1="148.562" y1="173.97" x2="163.498" y2="173.97" gradientUnits="userSpaceOnUse">
<stop stop-color="#8566FB"/>
<stop offset="1" stop-color="#D6D5FF"/>
</linearGradient>
<linearGradient id="paint61_linear_3397_19187" x1="150.994" y1="175.181" x2="161.066" y2="175.181" gradientUnits="userSpaceOnUse">
<stop stop-color="#8566FB"/>
<stop offset="1" stop-color="#D6D5FF"/>
</linearGradient>
<linearGradient id="paint62_linear_3397_19187" x1="115.112" y1="156.769" x2="160.021" y2="156.769" gradientUnits="userSpaceOnUse">
<stop stop-color="#8566FB"/>
<stop offset="1" stop-color="#D6D5FF"/>
</linearGradient>
<linearGradient id="paint63_linear_3397_19187" x1="117.544" y1="155.558" x2="160.021" y2="155.558" gradientUnits="userSpaceOnUse">
<stop stop-color="#8566FB"/>
<stop offset="1" stop-color="#D6D5FF"/>
</linearGradient>
<linearGradient id="paint64_linear_3397_19187" x1="119.976" y1="154.347" x2="160.021" y2="154.347" gradientUnits="userSpaceOnUse">
<stop stop-color="#8566FB"/>
<stop offset="1" stop-color="#D6D5FF"/>
</linearGradient>
<linearGradient id="paint65_linear_3397_19187" x1="122.406" y1="153.136" x2="160.021" y2="153.136" gradientUnits="userSpaceOnUse">
<stop stop-color="#8566FB"/>
<stop offset="1" stop-color="#D6D5FF"/>
</linearGradient>
<linearGradient id="paint66_linear_3397_19187" x1="124.838" y1="151.925" x2="160.021" y2="151.925" gradientUnits="userSpaceOnUse">
<stop stop-color="#8566FB"/>
<stop offset="1" stop-color="#D6D5FF"/>
</linearGradient>
<linearGradient id="paint67_linear_3397_19187" x1="127.27" y1="150.714" x2="160.021" y2="150.714" gradientUnits="userSpaceOnUse">
<stop stop-color="#8566FB"/>
<stop offset="1" stop-color="#D6D5FF"/>
</linearGradient>
<linearGradient id="paint68_linear_3397_19187" x1="138.837" y1="172.051" x2="173.229" y2="172.051" gradientUnits="userSpaceOnUse">
<stop stop-color="#8566FB"/>
<stop offset="1" stop-color="#D6D5FF"/>
</linearGradient>
<linearGradient id="paint69_linear_3397_19187" x1="127.268" y1="172.051" x2="160.025" y2="172.051" gradientUnits="userSpaceOnUse">
<stop stop-color="#8566FB"/>
<stop offset="1" stop-color="#D6D5FF"/>
</linearGradient>
<linearGradient id="paint70_linear_3397_19187" x1="141.266" y1="172.051" x2="170.799" y2="172.051" gradientUnits="userSpaceOnUse">
<stop stop-color="#8566FB"/>
<stop offset="1" stop-color="#D6D5FF"/>
</linearGradient>
<linearGradient id="paint71_linear_3397_19187" x1="127.268" y1="172.051" x2="160.024" y2="172.051" gradientUnits="userSpaceOnUse">
<stop stop-color="#8566FB"/>
<stop offset="1" stop-color="#D6D5FF"/>
</linearGradient>
<linearGradient id="paint72_linear_3397_19187" x1="143.698" y1="172.051" x2="168.366" y2="172.051" gradientUnits="userSpaceOnUse">
<stop stop-color="#8566FB"/>
<stop offset="1" stop-color="#D6D5FF"/>
</linearGradient>
<linearGradient id="paint73_linear_3397_19187" x1="127.267" y1="172.051" x2="160.024" y2="172.051" gradientUnits="userSpaceOnUse">
<stop stop-color="#8566FB"/>
<stop offset="1" stop-color="#D6D5FF"/>
</linearGradient>
<linearGradient id="paint74_linear_3397_19187" x1="146.13" y1="172.051" x2="165.933" y2="172.051" gradientUnits="userSpaceOnUse">
<stop stop-color="#8566FB"/>
<stop offset="1" stop-color="#D6D5FF"/>
</linearGradient>
<linearGradient id="paint75_linear_3397_19187" x1="127.267" y1="172.051" x2="160.023" y2="172.051" gradientUnits="userSpaceOnUse">
<stop stop-color="#8566FB"/>
<stop offset="1" stop-color="#D6D5FF"/>
</linearGradient>
<linearGradient id="paint76_linear_3397_19187" x1="148.562" y1="172.051" x2="163.5" y2="172.051" gradientUnits="userSpaceOnUse">
<stop stop-color="#8566FB"/>
<stop offset="1" stop-color="#D6D5FF"/>
</linearGradient>
<linearGradient id="paint77_linear_3397_19187" x1="127.267" y1="172.051" x2="160.023" y2="172.051" gradientUnits="userSpaceOnUse">
<stop stop-color="#8566FB"/>
<stop offset="1" stop-color="#D6D5FF"/>
</linearGradient>
<linearGradient id="paint78_linear_3397_19187" x1="150.994" y1="172.051" x2="161.068" y2="172.051" gradientUnits="userSpaceOnUse">
<stop stop-color="#8566FB"/>
<stop offset="1" stop-color="#D6D5FF"/>
</linearGradient>
<linearGradient id="paint79_linear_3397_19187" x1="127.266" y1="172.051" x2="160.023" y2="172.051" gradientUnits="userSpaceOnUse">
<stop stop-color="#8566FB"/>
<stop offset="1" stop-color="#D6D5FF"/>
</linearGradient>
<linearGradient id="paint80_linear_3397_19187" x1="38.7822" y1="101.481" x2="80.5307" y2="101.481" gradientUnits="userSpaceOnUse">
<stop stop-color="#8566FB"/>
<stop offset="1" stop-color="#D6D5FF"/>
</linearGradient>
<linearGradient id="paint81_linear_3397_19187" x1="36.3528" y1="100.27" x2="82.9628" y2="100.27" gradientUnits="userSpaceOnUse">
<stop stop-color="#8566FB"/>
<stop offset="1" stop-color="#D6D5FF"/>
</linearGradient>
<linearGradient id="paint82_linear_3397_19187" x1="33.9207" y1="99.0588" x2="85.3946" y2="99.0588" gradientUnits="userSpaceOnUse">
<stop stop-color="#8566FB"/>
<stop offset="1" stop-color="#D6D5FF"/>
</linearGradient>
<linearGradient id="paint83_linear_3397_19187" x1="31.4889" y1="97.8477" x2="87.8267" y2="97.8477" gradientUnits="userSpaceOnUse">
<stop stop-color="#8566FB"/>
<stop offset="1" stop-color="#D6D5FF"/>
</linearGradient>
<linearGradient id="paint84_linear_3397_19187" x1="29.057" y1="96.6366" x2="90.2563" y2="96.6366" gradientUnits="userSpaceOnUse">
<stop stop-color="#8566FB"/>
<stop offset="1" stop-color="#D6D5FF"/>
</linearGradient>
<linearGradient id="paint85_linear_3397_19187" x1="26.625" y1="95.4255" x2="92.6882" y2="95.4255" gradientUnits="userSpaceOnUse">
<stop stop-color="#8566FB"/>
<stop offset="1" stop-color="#D6D5FF"/>
</linearGradient>
<linearGradient id="paint86_linear_3397_19187" x1="97.9668" y1="93.2129" x2="162.99" y2="93.2129" gradientUnits="userSpaceOnUse">
<stop stop-color="#8566FB"/>
<stop offset="1" stop-color="#D6D5FF"/>
</linearGradient>
<linearGradient id="paint87_linear_3397_19187" x1="83.3113" y1="71.3055" x2="126.865" y2="71.3055" gradientUnits="userSpaceOnUse">
<stop stop-color="#8566FB"/>
<stop offset="1" stop-color="#D6D5FF"/>
</linearGradient>
<linearGradient id="paint88_linear_3397_19187" x1="97.9145" y1="71.3055" x2="163.135" y2="71.3055" gradientUnits="userSpaceOnUse">
<stop stop-color="#8566FB"/>
<stop offset="1" stop-color="#D6D5FF"/>
</linearGradient>
<linearGradient id="paint89_linear_3397_19187" x1="83.4034" y1="71.8238" x2="126.831" y2="71.8238" gradientUnits="userSpaceOnUse">
<stop stop-color="#8566FB"/>
<stop offset="1" stop-color="#D6D5FF"/>
</linearGradient>
<linearGradient id="paint90_linear_3397_19187" x1="97.9645" y1="71.8238" x2="162.997" y2="71.8238" gradientUnits="userSpaceOnUse">
<stop stop-color="#8566FB"/>
<stop offset="1" stop-color="#D6D5FF"/>
</linearGradient>
<linearGradient id="paint91_linear_3397_19187" x1="83.4034" y1="71.8238" x2="126.831" y2="71.8238" gradientUnits="userSpaceOnUse">
<stop stop-color="#8566FB"/>
<stop offset="1" stop-color="#D6D5FF"/>
</linearGradient>
<linearGradient id="paint92_linear_3397_19187" x1="97.9645" y1="71.8238" x2="162.997" y2="71.8238" gradientUnits="userSpaceOnUse">
<stop stop-color="#8566FB"/>
<stop offset="1" stop-color="#D6D5FF"/>
</linearGradient>
<linearGradient id="paint93_linear_3397_19187" x1="100.399" y1="92.0022" x2="165.419" y2="92.0022" gradientUnits="userSpaceOnUse">
<stop stop-color="#8566FB"/>
<stop offset="1" stop-color="#D6D5FF"/>
</linearGradient>
<linearGradient id="paint94_linear_3397_19187" x1="102.831" y1="90.791" x2="167.851" y2="90.791" gradientUnits="userSpaceOnUse">
<stop stop-color="#8566FB"/>
<stop offset="1" stop-color="#D6D5FF"/>
</linearGradient>
<linearGradient id="paint95_linear_3397_19187" x1="83.3373" y1="66.5688" x2="126.849" y2="66.5688" gradientUnits="userSpaceOnUse">
<stop stop-color="#8566FB"/>
<stop offset="1" stop-color="#D6D5FF"/>
</linearGradient>
<linearGradient id="paint96_linear_3397_19187" x1="102.801" y1="66.5688" x2="167.957" y2="66.5688" gradientUnits="userSpaceOnUse">
<stop stop-color="#8566FB"/>
<stop offset="1" stop-color="#D6D5FF"/>
</linearGradient>
<linearGradient id="paint97_linear_3397_19187" x1="105.263" y1="89.5798" x2="170.283" y2="89.5798" gradientUnits="userSpaceOnUse">
<stop stop-color="#8566FB"/>
<stop offset="1" stop-color="#D6D5FF"/>
</linearGradient>
<linearGradient id="paint98_linear_3397_19187" x1="110.124" y1="87.1578" x2="175.147" y2="87.1578" gradientUnits="userSpaceOnUse">
<stop stop-color="#8566FB"/>
<stop offset="1" stop-color="#D6D5FF"/>
</linearGradient>
<linearGradient id="paint99_linear_3397_19187" x1="107.694" y1="88.3689" x2="172.715" y2="88.3689" gradientUnits="userSpaceOnUse">
<stop stop-color="#8566FB"/>
<stop offset="1" stop-color="#D6D5FF"/>
</linearGradient>
<linearGradient id="paint100_linear_3397_19187" x1="157.802" y1="96.2888" x2="203.457" y2="96.2888" gradientUnits="userSpaceOnUse">
<stop stop-color="#8566FB"/>
<stop offset="1" stop-color="#D6D5FF"/>
</linearGradient>
<linearGradient id="paint101_linear_3397_19187" x1="155.15" y1="97.4996" x2="203.457" y2="97.4996" gradientUnits="userSpaceOnUse">
<stop stop-color="#8566FB"/>
<stop offset="1" stop-color="#D6D5FF"/>
</linearGradient>
<linearGradient id="paint102_linear_3397_19187" x1="152.5" y1="98.7108" x2="203.457" y2="98.7108" gradientUnits="userSpaceOnUse">
<stop stop-color="#8566FB"/>
<stop offset="1" stop-color="#D6D5FF"/>
</linearGradient>
<linearGradient id="paint103_linear_3397_19187" x1="149.848" y1="99.9222" x2="203.457" y2="99.9222" gradientUnits="userSpaceOnUse">
<stop stop-color="#8566FB"/>
<stop offset="1" stop-color="#D6D5FF"/>
</linearGradient>
<linearGradient id="paint104_linear_3397_19187" x1="147.198" y1="101.133" x2="203.457" y2="101.133" gradientUnits="userSpaceOnUse">
<stop stop-color="#8566FB"/>
<stop offset="1" stop-color="#D6D5FF"/>
</linearGradient>
<linearGradient id="paint105_linear_3397_19187" x1="144.546" y1="102.342" x2="202.934" y2="102.342" gradientUnits="userSpaceOnUse">
<stop stop-color="#8566FB"/>
<stop offset="1" stop-color="#D6D5FF"/>
</linearGradient>
<linearGradient id="paint106_linear_3397_19187" x1="84.2959" y1="149.447" x2="84.2959" y2="115.195" gradientUnits="userSpaceOnUse">
<stop stop-color="#8566FB"/>
<stop offset="1" stop-color="#D6D5FF"/>
</linearGradient>
<linearGradient id="paint107_linear_3397_19187" x1="85.5118" y1="147.024" x2="85.5118" y2="117.615" gradientUnits="userSpaceOnUse">
<stop stop-color="#8566FB"/>
<stop offset="1" stop-color="#D6D5FF"/>
</linearGradient>
<linearGradient id="paint108_linear_3397_19187" x1="86.7279" y1="144.602" x2="86.7279" y2="120.037" gradientUnits="userSpaceOnUse">
<stop stop-color="#8566FB"/>
<stop offset="1" stop-color="#D6D5FF"/>
</linearGradient>
<linearGradient id="paint109_linear_3397_19187" x1="87.9438" y1="142.18" x2="87.9438" y2="122.459" gradientUnits="userSpaceOnUse">
<stop stop-color="#8566FB"/>
<stop offset="1" stop-color="#D6D5FF"/>
</linearGradient>
<linearGradient id="paint110_linear_3397_19187" x1="89.1596" y1="139.758" x2="89.1596" y2="124.882" gradientUnits="userSpaceOnUse">
<stop stop-color="#8566FB"/>
<stop offset="1" stop-color="#D6D5FF"/>
</linearGradient>
<linearGradient id="paint111_linear_3397_19187" x1="90.3735" y1="137.335" x2="90.3735" y2="127.304" gradientUnits="userSpaceOnUse">
<stop stop-color="#8566FB"/>
<stop offset="1" stop-color="#D6D5FF"/>
</linearGradient>
<linearGradient id="paint112_linear_3397_19187" x1="143.19" y1="149.447" x2="143.19" y2="115.195" gradientUnits="userSpaceOnUse">
<stop stop-color="#8566FB"/>
<stop offset="1" stop-color="#D6D5FF"/>
</linearGradient>
<linearGradient id="paint113_linear_3397_19187" x1="143.19" y1="147.024" x2="143.19" y2="117.615" gradientUnits="userSpaceOnUse">
<stop stop-color="#8566FB"/>
<stop offset="1" stop-color="#D6D5FF"/>
</linearGradient>
<linearGradient id="paint114_linear_3397_19187" x1="143.19" y1="144.603" x2="143.19" y2="120.037" gradientUnits="userSpaceOnUse">
<stop stop-color="#8566FB"/>
<stop offset="1" stop-color="#D6D5FF"/>
</linearGradient>
<linearGradient id="paint115_linear_3397_19187" x1="143.19" y1="142.18" x2="143.19" y2="122.459" gradientUnits="userSpaceOnUse">
<stop stop-color="#8566FB"/>
<stop offset="1" stop-color="#D6D5FF"/>
</linearGradient>
<linearGradient id="paint116_linear_3397_19187" x1="143.19" y1="139.758" x2="143.19" y2="124.882" gradientUnits="userSpaceOnUse">
<stop stop-color="#8566FB"/>
<stop offset="1" stop-color="#D6D5FF"/>
</linearGradient>
<linearGradient id="paint117_linear_3397_19187" x1="143.19" y1="137.336" x2="143.19" y2="127.304" gradientUnits="userSpaceOnUse">
<stop stop-color="#8566FB"/>
<stop offset="1" stop-color="#D6D5FF"/>
</linearGradient>
<linearGradient id="paint118_linear_3397_19187" x1="96.1206" y1="136.817" x2="115.112" y2="136.817" gradientUnits="userSpaceOnUse">
<stop stop-color="#8566FB"/>
<stop offset="1" stop-color="#D6D5FF"/>
</linearGradient>
<linearGradient id="paint119_linear_3397_19187" x1="96.1441" y1="137.335" x2="96.1441" y2="127.304" gradientUnits="userSpaceOnUse">
<stop stop-color="#8566FB"/>
<stop offset="1" stop-color="#D6D5FF"/>
</linearGradient>
<linearGradient id="paint120_linear_3397_19187" x1="96.1206" y1="136.817" x2="115.152" y2="136.817" gradientUnits="userSpaceOnUse">
<stop stop-color="#8566FB"/>
<stop offset="1" stop-color="#D6D5FF"/>
</linearGradient>
<linearGradient id="paint121_linear_3397_19187" x1="96.1206" y1="139.237" x2="115.112" y2="139.237" gradientUnits="userSpaceOnUse">
<stop stop-color="#8566FB"/>
<stop offset="1" stop-color="#D6D5FF"/>
</linearGradient>
<linearGradient id="paint122_linear_3397_19187" x1="96.1441" y1="139.758" x2="96.1441" y2="124.881" gradientUnits="userSpaceOnUse">
<stop stop-color="#8566FB"/>
<stop offset="1" stop-color="#D6D5FF"/>
</linearGradient>
<linearGradient id="paint123_linear_3397_19187" x1="96.1206" y1="139.24" x2="115.152" y2="139.24" gradientUnits="userSpaceOnUse">
<stop stop-color="#8566FB"/>
<stop offset="1" stop-color="#D6D5FF"/>
</linearGradient>
<linearGradient id="paint124_linear_3397_19187" x1="96.1206" y1="141.66" x2="115.112" y2="141.66" gradientUnits="userSpaceOnUse">
<stop stop-color="#8566FB"/>
<stop offset="1" stop-color="#D6D5FF"/>
</linearGradient>
<linearGradient id="paint125_linear_3397_19187" x1="96.1441" y1="142.18" x2="96.1441" y2="122.459" gradientUnits="userSpaceOnUse">
<stop stop-color="#8566FB"/>
<stop offset="1" stop-color="#D6D5FF"/>
</linearGradient>
<linearGradient id="paint126_linear_3397_19187" x1="96.1206" y1="141.66" x2="115.152" y2="141.66" gradientUnits="userSpaceOnUse">
<stop stop-color="#8566FB"/>
<stop offset="1" stop-color="#D6D5FF"/>
</linearGradient>
<linearGradient id="paint127_linear_3397_19187" x1="96.1206" y1="144.082" x2="115.112" y2="144.082" gradientUnits="userSpaceOnUse">
<stop stop-color="#8566FB"/>
<stop offset="1" stop-color="#D6D5FF"/>
</linearGradient>
<linearGradient id="paint128_linear_3397_19187" x1="96.1441" y1="144.602" x2="96.1441" y2="120.037" gradientUnits="userSpaceOnUse">
<stop stop-color="#8566FB"/>
<stop offset="1" stop-color="#D6D5FF"/>
</linearGradient>
<linearGradient id="paint129_linear_3397_19187" x1="96.1206" y1="144.082" x2="115.152" y2="144.082" gradientUnits="userSpaceOnUse">
<stop stop-color="#8566FB"/>
<stop offset="1" stop-color="#D6D5FF"/>
</linearGradient>
<linearGradient id="paint130_linear_3397_19187" x1="96.1206" y1="146.504" x2="115.112" y2="146.504" gradientUnits="userSpaceOnUse">
<stop stop-color="#8566FB"/>
<stop offset="1" stop-color="#D6D5FF"/>
</linearGradient>
<linearGradient id="paint131_linear_3397_19187" x1="96.1441" y1="147.024" x2="96.1441" y2="117.615" gradientUnits="userSpaceOnUse">
<stop stop-color="#8566FB"/>
<stop offset="1" stop-color="#D6D5FF"/>
</linearGradient>
<linearGradient id="paint132_linear_3397_19187" x1="96.1206" y1="146.504" x2="115.152" y2="146.504" gradientUnits="userSpaceOnUse">
<stop stop-color="#8566FB"/>
<stop offset="1" stop-color="#D6D5FF"/>
</linearGradient>
<linearGradient id="paint133_linear_3397_19187" x1="96.1206" y1="148.926" x2="115.112" y2="148.926" gradientUnits="userSpaceOnUse">
<stop stop-color="#8566FB"/>
<stop offset="1" stop-color="#D6D5FF"/>
</linearGradient>
<linearGradient id="paint134_linear_3397_19187" x1="96.1441" y1="149.447" x2="96.1441" y2="115.193" gradientUnits="userSpaceOnUse">
<stop stop-color="#8566FB"/>
<stop offset="1" stop-color="#D6D5FF"/>
</linearGradient>
<linearGradient id="paint135_linear_3397_19187" x1="96.1206" y1="148.926" x2="115.152" y2="148.926" gradientUnits="userSpaceOnUse">
<stop stop-color="#8566FB"/>
<stop offset="1" stop-color="#D6D5FF"/>
</linearGradient>
<clipPath id="clip0_3397_19187">
<rect width="176" height="204" fill="white" transform="matrix(1 0 0 -1 0 204)"/>
</clipPath>
</defs>
</svg>
