<svg width="878" height="1024" viewBox="0 0 878 1024" fill="none" xmlns="http://www.w3.org/2000/svg">
<g clip-path="url(#clip0_3110_12244)">
<path d="M693.365 752.565V757.777H837.864C852.473 757.777 866.172 761.713 878 768.553V762.591C866.02 756.207 852.357 752.565 837.864 752.565H693.365Z" fill="url(#paint0_linear_3110_12244)"/>
<path d="M693.365 764.723V769.936H837.864C852.848 769.936 866.721 774.797 878 783.02V776.694C866.441 769.139 852.661 764.723 837.864 764.723H693.365Z" fill="url(#paint1_linear_3110_12244)"/>
<path d="M693.365 776.882V782.094H837.864C853.56 782.094 867.785 788.572 878 798.997V791.875C867.212 782.539 853.186 776.882 837.864 776.882H693.365Z" fill="url(#paint2_linear_3110_12244)"/>
<path d="M837.864 789.04H693.365V794.253H837.864C855.653 794.253 870.999 804.842 878 820.057V809.761C869.035 797.228 854.39 789.04 837.864 789.04Z" fill="url(#paint3_linear_3110_12244)"/>
<path d="M837.864 806.4C855.536 806.4 869.924 820.807 869.924 838.529V948.448H875.125V838.529C875.125 817.937 858.411 801.187 837.864 801.187H693.365V806.4H837.864Z" fill="url(#paint4_linear_3110_12244)"/>
<path d="M837.864 818.558C848.85 818.558 857.792 827.519 857.792 838.529V854.671H857.932V859.883H857.792V948.448H862.993V838.529C862.993 824.637 851.725 813.346 837.864 813.346H693.365V818.558H837.864Z" fill="url(#paint5_linear_3110_12244)"/>
<path d="M395.673 849.47C351.235 849.47 315.096 813.24 315.096 768.717V644.227H309.895V768.717C309.895 816.122 348.372 854.682 395.673 854.682H521.798V849.47H395.673Z" fill="url(#paint6_linear_3110_12244)"/>
<path d="M327.228 768.706V644.215H322.027V768.706C322.027 809.41 355.069 842.512 395.673 842.512H521.798V837.3H395.673C357.932 837.3 327.228 806.528 327.228 768.706Z" fill="url(#paint7_linear_3110_12244)"/>
<path d="M339.36 768.706V644.215H334.159V768.706C334.159 802.698 361.754 830.354 395.673 830.354H521.798V825.141H395.673C364.618 825.141 339.348 799.817 339.348 768.694L339.36 768.706Z" fill="url(#paint8_linear_3110_12244)"/>
<path d="M351.48 768.706V644.215H346.279V768.706C346.279 795.998 368.44 818.207 395.673 818.207H521.798V812.994H395.673C371.303 812.994 351.48 793.128 351.48 768.706Z" fill="url(#paint9_linear_3110_12244)"/>
<path d="M363.613 768.706V644.215H358.411V768.706C358.411 789.298 375.125 806.048 395.673 806.048H521.797V800.836H395.673C378 800.836 363.613 786.428 363.613 768.706Z" fill="url(#paint10_linear_3110_12244)"/>
<path d="M375.745 768.706V644.215H370.543V768.706C370.543 782.586 381.811 793.89 395.673 793.89H521.797V788.677H395.673C384.686 788.677 375.745 779.716 375.745 768.706Z" fill="url(#paint11_linear_3110_12244)"/>
<path d="M688.164 923.791C688.164 968.326 652.013 1004.54 607.587 1004.54C563.161 1004.54 527.01 968.314 527.01 923.791V711.603C527.01 697.722 515.743 686.419 501.881 686.419C488.019 686.419 476.752 697.711 476.752 711.603V788.677H481.953V711.603C481.953 700.592 490.894 691.631 501.881 691.631C512.868 691.631 521.809 700.592 521.809 711.603V923.791C521.809 971.196 560.286 1009.76 607.587 1009.76C654.888 1009.76 693.365 971.196 693.365 923.791V727.228H688.164V923.791Z" fill="url(#paint12_linear_3110_12244)"/>
<path d="M607.587 992.385C569.847 992.385 539.143 961.614 539.143 923.791V711.603C539.143 691.01 522.429 674.26 501.881 674.26C481.334 674.26 464.62 691.01 464.62 711.603V788.677H469.821V711.603C469.821 693.892 484.209 679.473 501.881 679.473C519.554 679.473 533.941 693.88 533.941 711.603V923.791C533.941 964.496 566.983 997.598 607.587 997.598C648.191 997.598 681.233 964.484 681.233 923.791V727.228H676.032V923.791C676.032 961.614 645.328 992.385 607.587 992.385Z" fill="url(#paint13_linear_3110_12244)"/>
<path d="M607.587 980.227C576.532 980.227 551.263 954.903 551.263 923.78V711.591C551.263 684.299 529.103 662.09 501.87 662.09C474.637 662.09 452.476 684.299 452.476 711.591V788.665H457.677V711.591C457.677 687.169 477.5 667.303 501.87 667.303C526.239 667.303 546.062 687.169 546.062 711.591V923.78C546.062 957.772 573.657 985.428 607.576 985.428C641.494 985.428 669.089 957.772 669.089 923.78V727.217H663.888V923.78C663.888 954.903 638.619 980.227 607.564 980.227H607.587Z" fill="url(#paint14_linear_3110_12244)"/>
<path d="M607.587 968.068C583.218 968.068 563.395 948.202 563.395 923.78V711.591C563.395 677.599 535.8 649.943 501.881 649.943C467.963 649.943 440.367 677.599 440.367 711.591V788.665H445.569V711.591C445.569 680.468 470.838 655.144 501.893 655.144C532.948 655.144 558.217 680.468 558.217 711.591V923.78C558.217 951.072 580.378 973.281 607.599 973.281C634.82 973.281 656.992 951.072 656.992 923.78V727.217H651.791V923.78C651.791 948.202 631.968 968.068 607.599 968.068H607.587Z" fill="url(#paint15_linear_3110_12244)"/>
<path d="M607.587 955.91C589.915 955.91 575.527 941.502 575.527 923.78V711.591C575.527 670.899 542.485 637.785 501.881 637.785C461.277 637.785 428.235 670.899 428.235 711.591V788.665H433.436V711.591C433.436 673.768 464.141 642.997 501.881 642.997C539.622 642.997 570.326 673.768 570.326 711.591V923.78C570.326 944.372 587.04 961.122 607.587 961.122C628.135 961.122 644.848 944.372 644.848 923.78V727.217H639.647V923.78C639.647 941.491 625.271 955.91 607.587 955.91Z" fill="url(#paint16_linear_3110_12244)"/>
<path d="M587.659 711.603C587.659 708.674 587.507 705.781 587.227 702.923C587.203 702.736 587.18 702.537 587.157 702.349C587.051 701.412 586.935 700.475 586.806 699.55C586.724 698.941 586.631 698.331 586.537 697.734C586.151 695.38 585.672 693.049 585.111 690.765C584.959 690.155 584.796 689.558 584.632 688.961C584.48 688.387 584.316 687.813 584.141 687.239C583.977 686.688 583.814 686.126 583.639 685.576C582.879 683.198 582.026 680.867 581.079 678.594C580.833 678.009 580.576 677.423 580.307 676.837C580.12 676.404 579.922 675.982 579.723 675.549C579.384 674.834 579.045 674.108 578.695 673.405C577.514 671.028 576.228 668.697 574.838 666.448C574.686 666.202 574.522 665.956 574.358 665.71C573.4 664.187 572.395 662.699 571.343 661.247C555.739 639.694 530.423 625.638 501.881 625.638C454.58 625.638 416.103 664.199 416.103 711.603V788.677H421.304V711.603C421.304 667.068 457.455 630.85 501.881 630.85C546.307 630.85 582.458 667.08 582.458 711.603V923.792C582.458 937.684 593.737 948.975 607.587 948.975C621.437 948.975 632.716 937.684 632.716 923.792V727.229H627.515V923.792C627.515 934.802 618.574 943.763 607.587 943.763C596.601 943.763 587.659 934.802 587.659 923.792V711.603Z" fill="url(#paint17_linear_3110_12244)"/>
<path d="M284.707 908.353C284.707 952.876 248.556 989.106 204.13 989.106C159.704 989.106 123.553 952.876 123.553 908.353V804.596H118.352V908.353C118.352 955.758 156.829 994.318 204.13 994.318C251.431 994.318 289.908 955.758 289.908 908.353V644.215H284.707V908.353Z" fill="url(#paint18_linear_3110_12244)"/>
<path d="M204.13 982.16C244.746 982.16 277.776 949.046 277.776 908.353V644.215H272.575V908.353C272.575 946.176 241.871 976.947 204.13 976.947C166.39 976.947 135.686 946.176 135.686 908.353V804.596H130.484V908.353C130.484 949.046 163.526 982.16 204.13 982.16Z" fill="url(#paint19_linear_3110_12244)"/>
<path d="M204.13 970.013C238.049 970.013 265.644 942.357 265.644 908.365V644.227H260.443V908.365C260.443 939.488 235.174 964.812 204.119 964.812C173.064 964.812 147.794 939.488 147.794 908.365V804.607H142.593V908.365C142.593 942.357 170.189 970.013 204.107 970.013H204.13Z" fill="url(#paint20_linear_3110_12244)"/>
<path d="M204.13 957.854C231.363 957.854 253.524 935.646 253.524 908.365V644.227H248.323V908.365C248.323 932.787 228.5 952.653 204.13 952.653C179.761 952.653 159.938 932.787 159.938 908.365V804.607H154.737V908.365C154.737 935.657 176.897 957.854 204.13 957.854Z" fill="url(#paint21_linear_3110_12244)"/>
<path d="M204.13 945.696C224.678 945.696 241.392 928.945 241.392 908.353V644.215H236.19V908.353C236.19 926.064 221.814 940.483 204.13 940.483C186.446 940.483 172.07 926.076 172.07 908.353V804.596H166.869V908.353C166.869 928.945 183.583 945.696 204.13 945.696Z" fill="url(#paint22_linear_3110_12244)"/>
<path d="M204.13 933.537C217.992 933.537 229.259 922.245 229.259 908.353V644.215H224.058V908.353C224.058 919.364 215.117 928.325 204.13 928.325C193.144 928.325 184.202 919.364 184.202 908.353V804.596H179.001V908.353C179.001 922.234 190.28 933.537 204.13 933.537Z" fill="url(#paint23_linear_3110_12244)"/>
<path d="M85.778 743.815H224.047V738.602H85.778C38.4768 738.602 0 777.163 0 824.567V1024H5.20114V824.567C5.20114 780.033 41.352 743.815 85.778 743.815Z" fill="url(#paint24_linear_3110_12244)"/>
<path d="M85.778 755.973H224.047V750.761H85.778C45.174 750.761 12.1321 783.875 12.1321 824.567V1024H17.3332V824.567C17.3332 786.744 48.0375 755.973 85.778 755.973Z" fill="url(#paint25_linear_3110_12244)"/>
<path d="M85.7779 768.132H224.047V762.919H85.7779C51.8594 762.919 24.2642 790.575 24.2642 824.567V1024H29.4653V824.567C29.4653 793.445 54.7347 768.12 85.7896 768.12L85.7779 768.132Z" fill="url(#paint26_linear_3110_12244)"/>
<path d="M85.7779 780.279H224.046V775.066H85.7779C58.5449 775.066 36.3845 797.275 36.3845 824.567V1024H41.5857V824.567C41.5857 800.145 61.4085 780.279 85.7779 780.279Z" fill="url(#paint27_linear_3110_12244)"/>
<path d="M85.7781 792.437H224.047V787.225H85.7781C65.2306 787.225 48.5168 803.975 48.5168 824.567V1024H53.718V824.567C53.718 806.856 68.0942 792.437 85.7781 792.437Z" fill="url(#paint28_linear_3110_12244)"/>
<path d="M85.7781 804.596H118.352V804.572H123.554V804.596H130.485V804.572H135.686V804.596H142.617V804.572H147.818V804.596H154.749V804.572H159.95V804.596H166.881V804.572H172.082V804.596H179.013V804.572H184.214V804.596H224.058V799.383H85.7898C71.9395 799.383 60.6606 810.675 60.6606 824.567V1024H65.8618V824.567C65.8618 813.556 74.8031 804.596 85.7898 804.596H85.7781Z" fill="url(#paint29_linear_3110_12244)"/>
<path d="M123.554 804.572H118.352V804.596H123.554V804.572Z" fill="url(#paint30_linear_3110_12244)"/>
<path d="M123.554 804.572H118.352V804.596H123.554V804.572Z" fill="url(#paint31_linear_3110_12244)"/>
<path d="M135.686 804.572H130.484V804.596H135.686V804.572Z" fill="url(#paint32_linear_3110_12244)"/>
<path d="M135.686 804.572H130.484V804.596H135.686V804.572Z" fill="url(#paint33_linear_3110_12244)"/>
<path d="M147.807 804.572H142.605V804.596H147.807V804.572Z" fill="url(#paint34_linear_3110_12244)"/>
<path d="M147.807 804.572H142.605V804.596H147.807V804.572Z" fill="url(#paint35_linear_3110_12244)"/>
<path d="M159.939 804.572H154.737V804.596H159.939V804.572Z" fill="url(#paint36_linear_3110_12244)"/>
<path d="M159.939 804.572H154.737V804.596H159.939V804.572Z" fill="url(#paint37_linear_3110_12244)"/>
<path d="M172.071 804.572H166.869V804.596H172.071V804.572Z" fill="url(#paint38_linear_3110_12244)"/>
<path d="M172.071 804.572H166.869V804.596H172.071V804.572Z" fill="url(#paint39_linear_3110_12244)"/>
<path d="M184.203 804.572H179.001V804.596H184.203V804.572Z" fill="url(#paint40_linear_3110_12244)"/>
<path d="M184.203 804.572H179.001V804.596H184.203V804.572Z" fill="url(#paint41_linear_3110_12244)"/>
<path d="M408.658 929.637C394.808 929.637 383.529 940.928 383.529 954.82V1024H388.73V954.82C388.73 943.81 397.671 934.849 408.658 934.849C419.645 934.849 428.586 943.81 428.586 954.82V1024H433.787V954.82C433.787 940.94 422.52 929.637 408.658 929.637Z" fill="url(#paint42_linear_3110_12244)"/>
<path d="M408.658 917.478C388.111 917.478 371.397 934.228 371.397 954.82V1024H376.598V954.82C376.598 937.11 390.974 922.69 408.658 922.69C426.342 922.69 440.718 937.098 440.718 954.82V1024H445.919V954.82C445.919 934.228 429.205 917.478 408.658 917.478Z" fill="url(#paint43_linear_3110_12244)"/>
<path d="M408.658 905.319C381.425 905.319 359.265 927.528 359.265 954.82V1024H364.466V954.82C364.466 930.398 384.289 910.532 408.658 910.532C433.027 910.532 452.85 930.398 452.85 954.82V1024H458.051V954.82C458.051 927.528 435.891 905.319 408.658 905.319Z" fill="url(#paint44_linear_3110_12244)"/>
<path d="M408.658 893.173C374.739 893.173 347.144 920.828 347.144 954.82V1024H352.345V954.82C352.345 923.698 377.615 898.373 408.669 898.373C439.724 898.373 464.994 923.698 464.994 954.82V1024H470.195V954.82C470.195 920.828 442.6 893.173 408.681 893.173H408.658Z" fill="url(#paint45_linear_3110_12244)"/>
<path d="M408.658 881.014C368.042 881.014 335.012 914.128 335.012 954.821V1024H340.213V954.821C340.213 916.998 370.918 886.227 408.658 886.227C446.399 886.227 477.103 916.998 477.103 954.821V1024H482.304V954.821C482.304 914.116 449.262 881.014 408.658 881.014Z" fill="url(#paint46_linear_3110_12244)"/>
<path d="M408.658 868.856C361.357 868.856 322.88 907.416 322.88 954.82V1024H328.081V954.82C328.081 910.286 364.232 874.068 408.658 874.068C453.084 874.068 489.235 910.298 489.235 954.82V1024H494.436V954.82C494.436 907.416 455.959 868.856 408.658 868.856Z" fill="url(#paint47_linear_3110_12244)"/>
<path d="M789.534 928.489C789.534 917.478 798.475 908.517 809.462 908.517H857.768V903.305H809.462C795.611 903.305 784.333 914.596 784.333 928.489C784.333 942.381 795.611 953.672 809.462 953.672H878V948.46H809.462C798.475 948.46 789.534 939.499 789.534 928.489Z" fill="url(#paint48_linear_3110_12244)"/>
<path d="M741.017 928.488C741.017 890.666 771.721 859.895 809.462 859.895H857.792V854.682H809.462C768.858 854.682 735.816 887.796 735.816 928.488C735.816 969.181 768.858 1002.29 809.462 1002.29H878V997.082H809.462C771.721 997.082 741.017 966.311 741.017 928.488Z" fill="url(#paint49_linear_3110_12244)"/>
<path d="M857.932 854.671H857.792V859.883H857.932V854.671Z" fill="url(#paint50_linear_3110_12244)"/>
<path d="M857.932 854.671H857.792V859.883H857.932V854.671Z" fill="url(#paint51_linear_3110_12244)"/>
<path d="M728.885 928.489C728.885 883.954 765.036 847.736 809.462 847.736H857.768V842.524H809.462C762.16 842.524 723.684 881.084 723.684 928.489C723.684 975.893 762.16 1014.45 809.462 1014.45H878V1009.24H809.462C765.036 1009.24 728.885 973.011 728.885 928.489Z" fill="url(#paint52_linear_3110_12244)"/>
<path d="M777.414 928.489C777.414 910.778 791.79 896.359 809.474 896.359H857.78V891.146H809.474C788.926 891.146 772.212 907.896 772.212 928.489C772.212 949.081 788.926 965.831 809.474 965.831H878.012V960.619H809.474C791.801 960.619 777.414 946.211 777.414 928.489Z" fill="url(#paint53_linear_3110_12244)"/>
<path d="M765.281 928.489C765.281 904.066 785.104 884.2 809.473 884.2H857.78V878.988H809.473C782.24 878.988 760.092 901.196 760.092 928.489C760.092 955.781 782.252 977.978 809.473 977.978H878.012V972.765H809.473C785.104 972.765 765.281 952.899 765.281 928.477V928.489Z" fill="url(#paint54_linear_3110_12244)"/>
<path d="M753.149 928.489C753.149 897.366 778.418 872.042 809.473 872.042H857.78V866.829H809.473C775.555 866.829 747.959 894.484 747.959 928.477C747.959 962.469 775.555 990.125 809.473 990.125H878.012V984.912H809.473C778.418 984.912 753.149 959.588 753.149 928.465V928.489Z" fill="url(#paint55_linear_3110_12244)"/>
<path d="M778.383 344.89C733.957 344.89 697.807 308.661 697.807 264.138V160.38H692.605V264.138C692.605 311.542 731.082 350.103 778.383 350.103C825.685 350.103 864.161 311.542 864.161 264.138V0H858.96V264.138C858.96 308.661 822.809 344.89 778.383 344.89Z" fill="url(#paint56_linear_3110_12244)"/>
<path d="M778.384 332.732C740.643 332.732 709.939 301.961 709.939 264.138V160.38H704.738V264.138C704.738 304.83 737.78 337.944 778.384 337.944C818.988 337.944 852.029 304.83 852.029 264.138V0H846.828V264.138C846.828 301.961 816.124 332.732 778.384 332.732Z" fill="url(#paint57_linear_3110_12244)"/>
<path d="M778.383 320.573C747.328 320.573 722.059 295.249 722.059 264.126V160.369H716.858V264.126C716.858 298.119 744.453 325.774 778.372 325.774C812.29 325.774 839.885 298.119 839.885 264.126V0H834.684V264.138C834.684 295.26 809.415 320.585 778.36 320.585L778.383 320.573Z" fill="url(#paint58_linear_3110_12244)"/>
<path d="M778.384 308.415C754.014 308.415 734.191 288.549 734.191 264.126V160.369H728.99V264.126C728.99 291.419 751.151 313.615 778.384 313.615C805.616 313.615 827.777 291.407 827.777 264.126V0H822.576V264.138C822.576 288.56 802.753 308.426 778.384 308.426V308.415Z" fill="url(#paint59_linear_3110_12244)"/>
<path d="M778.383 296.256C760.711 296.256 746.323 281.849 746.323 264.126V160.369H741.122V264.126C741.122 284.718 757.836 301.469 778.383 301.469C798.931 301.469 815.644 284.718 815.644 264.126V0H810.443V264.138C810.443 281.849 796.067 296.268 778.383 296.268V296.256Z" fill="url(#paint60_linear_3110_12244)"/>
<path d="M778.384 284.109C767.397 284.109 758.456 275.149 758.456 264.138V160.38H753.254V264.138C753.254 278.018 764.533 289.322 778.384 289.322C792.234 289.322 803.513 278.03 803.513 264.138V0H798.312V264.138C798.312 275.149 789.37 284.109 778.384 284.109Z" fill="url(#paint61_linear_3110_12244)"/>
<path d="M574.253 286.007V379.785H579.454V180.352C579.454 135.817 615.605 99.5993 660.031 99.5993H798.3V94.3868H660.031C612.73 94.3868 574.253 132.947 574.253 180.352V286.007Z" fill="url(#paint62_linear_3110_12244)"/>
<path d="M591.575 180.352C591.575 142.529 622.279 111.758 660.019 111.758H798.288V106.545H660.019C619.415 106.545 586.374 139.659 586.374 180.352V379.785H591.575V180.352Z" fill="url(#paint63_linear_3110_12244)"/>
<path d="M603.707 180.352C603.707 149.229 628.976 123.905 660.031 123.905H798.3V118.692H660.031C626.113 118.692 598.518 146.348 598.518 180.34V379.773H603.719V180.34L603.707 180.352Z" fill="url(#paint64_linear_3110_12244)"/>
<path d="M615.839 180.352C615.839 155.929 635.662 136.063 660.031 136.063H798.3V130.851H660.031C632.798 130.851 610.638 153.059 610.638 180.352V379.785H615.839V180.352Z" fill="url(#paint65_linear_3110_12244)"/>
<path d="M627.971 180.352C627.971 162.641 642.347 148.222 660.031 148.222H798.3V143.009H660.031C639.484 143.009 622.77 159.759 622.77 180.352V379.785H627.971V180.352Z" fill="url(#paint66_linear_3110_12244)"/>
<path d="M640.103 180.352C640.103 169.341 649.044 160.38 660.031 160.38H692.605V160.357H697.807V160.38H704.738V160.357H709.939V160.38H716.87V160.357H722.071V160.38H729.002V160.357H734.203V160.38H741.134V160.357H746.335V160.38H753.266V160.357H758.467V160.38H798.311V155.168H660.043C646.192 155.168 634.914 166.46 634.914 180.352V379.785H640.115V180.352H640.103Z" fill="url(#paint67_linear_3110_12244)"/>
<path d="M697.807 160.357H692.605V160.38H697.807V160.357Z" fill="url(#paint68_linear_3110_12244)"/>
<path d="M697.807 160.357H692.605V160.38H697.807V160.357Z" fill="url(#paint69_linear_3110_12244)"/>
<path d="M709.928 160.357H704.726V160.38H709.928V160.357Z" fill="url(#paint70_linear_3110_12244)"/>
<path d="M709.928 160.357H704.726V160.38H709.928V160.357Z" fill="url(#paint71_linear_3110_12244)"/>
<path d="M722.06 160.357H716.858V160.38H722.06V160.357Z" fill="url(#paint72_linear_3110_12244)"/>
<path d="M722.06 160.357H716.858V160.38H722.06V160.357Z" fill="url(#paint73_linear_3110_12244)"/>
<path d="M734.192 160.357H728.99V160.38H734.192V160.357Z" fill="url(#paint74_linear_3110_12244)"/>
<path d="M734.192 160.357H728.99V160.38H734.192V160.357Z" fill="url(#paint75_linear_3110_12244)"/>
<path d="M746.324 160.357H741.122V160.38H746.324V160.357Z" fill="url(#paint76_linear_3110_12244)"/>
<path d="M746.324 160.357H741.122V160.38H746.324V160.357Z" fill="url(#paint77_linear_3110_12244)"/>
<path d="M758.456 160.357H753.254V160.38H758.456V160.357Z" fill="url(#paint78_linear_3110_12244)"/>
<path d="M758.456 160.357H753.254V160.38H758.456V160.357Z" fill="url(#paint79_linear_3110_12244)"/>
<path d="M363.613 578.234H315.096V567.902C315.096 562.678 315.096 559.855 314.944 558.262H315.096C315.096 544.382 303.817 533.078 289.967 533.078H218.6C204.738 533.078 193.471 544.37 193.471 558.262C193.471 572.154 204.738 583.446 218.6 583.446H376.61C390.46 583.446 401.739 572.154 401.739 558.262V445.778H396.538V558.262C396.538 569.273 387.596 578.234 376.61 578.234H363.613ZM309.895 560.007V578.234H218.6C207.613 578.234 198.672 569.273 198.672 558.262C198.672 547.252 207.613 538.291 218.6 538.291H289.967C300.953 538.291 309.895 547.252 309.895 558.262V560.007Z" fill="url(#paint80_linear_3110_12244)"/>
<path d="M327.064 558.262H327.216C327.216 537.67 310.503 520.92 289.955 520.92H218.588C198.041 520.92 181.327 537.67 181.327 558.262C181.327 578.854 198.041 595.605 218.588 595.605H376.598C397.145 595.605 413.859 578.854 413.859 558.262V445.778H408.658V558.262C408.658 575.973 394.282 590.392 376.598 590.392H218.588C200.916 590.392 186.528 575.985 186.528 558.262C186.528 540.54 200.904 526.132 218.588 526.132H289.955C307.627 526.132 322.015 540.54 322.015 558.262V578.234H327.216V567.902C327.216 562.678 327.216 559.855 327.064 558.262Z" fill="url(#paint81_linear_3110_12244)"/>
<path d="M339.197 558.262H339.348C339.348 530.97 317.188 508.761 289.955 508.761H218.588C191.355 508.761 169.195 530.97 169.195 558.262C169.195 585.554 191.355 607.763 218.588 607.763H376.598C403.831 607.763 425.991 585.554 425.991 558.262V445.778H420.79V558.262C420.79 582.685 400.967 602.551 376.598 602.551H218.588C194.219 602.551 174.396 582.685 174.396 558.262C174.396 533.84 194.219 513.974 218.588 513.974H289.955C314.325 513.974 334.147 533.84 334.147 558.262V578.234H339.348V568.066C339.348 562.737 339.348 559.867 339.197 558.262Z" fill="url(#paint82_linear_3110_12244)"/>
<path d="M351.329 558.262H351.492C351.492 524.27 323.897 496.614 289.978 496.614H218.612C184.693 496.614 157.098 524.27 157.098 558.262C157.098 592.255 184.693 619.91 218.612 619.91H376.621C410.54 619.91 438.135 592.255 438.135 558.262V445.778H432.934V558.262C432.934 589.385 407.665 614.709 376.61 614.709H218.6C187.545 614.709 162.276 589.385 162.276 558.262C162.276 527.14 187.545 501.815 218.6 501.815H289.967C321.022 501.815 346.291 527.14 346.291 558.262V578.234H351.457L351.492 568.066C351.492 562.737 351.492 559.867 351.329 558.262Z" fill="url(#paint83_linear_3110_12244)"/>
<path d="M363.461 558.262H363.624C363.624 517.558 330.582 484.456 289.978 484.456H218.612C177.996 484.456 144.966 517.57 144.966 558.262C144.966 598.955 178.008 632.068 218.612 632.068H376.621C417.225 632.068 450.267 598.955 450.267 558.262V445.778H445.066V558.262C445.066 596.085 414.362 626.856 376.621 626.856H218.612C180.871 626.856 150.167 596.085 150.167 558.262C150.167 520.439 180.871 489.668 218.612 489.668H289.978C327.719 489.668 358.423 520.439 358.423 558.262V578.234H363.624V568.066C363.624 562.737 363.624 559.867 363.461 558.262Z" fill="url(#paint84_linear_3110_12244)"/>
<path d="M322.027 644.227H376.61C423.911 644.227 462.388 605.666 462.388 558.262V445.778H457.186V558.262C457.186 602.797 421.036 639.015 376.61 639.015H218.6C174.162 639.015 138.023 602.785 138.023 558.262C138.023 513.739 174.174 477.51 218.6 477.51H289.967C334.393 477.51 370.544 513.739 370.544 558.262V560.007C370.544 564.927 370.497 578.234 370.497 578.234H375.698L375.745 561.448C375.745 560.019 375.745 559 375.698 558.262H375.745C375.745 510.858 337.268 472.297 289.967 472.297H218.6C171.299 472.297 132.822 510.858 132.822 558.262C132.822 605.666 171.299 644.227 218.6 644.227H322.027Z" fill="url(#paint85_linear_3110_12244)"/>
<path d="M584.188 449.362H574.499C527.197 449.362 488.721 487.923 488.721 535.327C488.721 582.732 527.197 621.292 574.499 621.292H787.956C798.943 621.292 807.884 630.253 807.884 641.264C807.884 652.274 798.943 661.235 787.956 661.235H571.32C572.371 662.687 573.377 664.187 574.335 665.698C574.487 665.944 574.662 666.19 574.814 666.436H787.956C801.806 666.436 813.085 655.144 813.085 641.252C813.085 627.36 801.806 616.068 787.956 616.068H574.499C530.061 616.068 493.922 579.838 493.922 535.316C493.922 490.793 530.073 454.563 574.499 454.563H632.003C639.612 454.563 646.426 451.143 651.043 445.766H643.364C640.138 448.015 636.223 449.351 632.003 449.351H584.188V449.362Z" fill="url(#paint86_linear_3110_12244)"/>
<path d="M574.827 666.448C574.675 666.202 574.511 665.956 574.347 665.709C574.499 665.956 574.675 666.202 574.827 666.448Z" fill="url(#paint87_linear_3110_12244)"/>
<path d="M574.827 666.448C574.675 666.202 574.511 665.956 574.347 665.709C574.499 665.956 574.675 666.202 574.827 666.448Z" fill="url(#paint88_linear_3110_12244)"/>
<path d="M571.331 661.235C572.383 662.687 573.388 664.187 574.347 665.698C573.388 664.175 572.383 662.687 571.331 661.235Z" fill="url(#paint89_linear_3110_12244)"/>
<path d="M571.331 661.235C572.383 662.687 573.388 664.187 574.347 665.698C573.388 664.175 572.383 662.687 571.331 661.235Z" fill="url(#paint90_linear_3110_12244)"/>
<path d="M571.331 661.235C572.383 662.687 573.388 664.187 574.347 665.698C573.388 664.175 572.383 662.687 571.331 661.235Z" fill="url(#paint91_linear_3110_12244)"/>
<path d="M571.331 661.235C572.383 662.687 573.388 664.187 574.347 665.698C573.388 664.175 572.383 662.687 571.331 661.235Z" fill="url(#paint92_linear_3110_12244)"/>
<path d="M632.003 461.521H574.499C533.883 461.521 500.853 494.635 500.853 535.327C500.853 576.02 533.895 609.134 574.499 609.134H787.956C805.628 609.134 820.016 623.541 820.016 641.264C820.016 658.986 805.64 673.394 787.956 673.394H578.683C579.034 674.108 579.373 674.823 579.711 675.537C579.91 675.959 580.097 676.392 580.296 676.826C580.553 677.411 580.822 677.985 581.067 678.583C581.067 678.583 581.067 678.594 581.067 678.606H787.956C808.503 678.606 825.217 661.856 825.217 641.264C825.217 620.671 808.503 603.921 787.956 603.921H574.499C536.758 603.921 506.054 573.15 506.054 535.327C506.054 497.505 536.758 466.733 574.499 466.733H632.003C646.672 466.733 659.353 458.171 665.431 445.778H659.529C653.93 455.184 643.703 461.521 632.003 461.521Z" fill="url(#paint93_linear_3110_12244)"/>
<path d="M632.003 473.668H574.499C540.58 473.668 512.985 501.323 512.985 535.316C512.985 569.308 540.58 596.963 574.499 596.963H787.956C812.325 596.963 832.148 616.829 832.148 641.252C832.148 665.674 812.325 685.54 787.956 685.54H583.615C583.615 685.54 583.615 685.54 583.615 685.552C583.791 686.103 583.954 686.665 584.118 687.215C584.281 687.789 584.445 688.363 584.609 688.937C584.772 689.535 584.936 690.144 585.088 690.741H787.956C815.189 690.741 837.349 668.532 837.349 641.24C837.349 613.948 815.189 591.739 787.956 591.739H574.499C543.444 591.739 518.174 566.415 518.174 535.292C518.174 504.17 543.444 478.845 574.499 478.845H632.003C653.509 478.845 671.836 465 678.592 445.731H673.04C666.53 462.06 650.587 473.633 632.003 473.633V473.668Z" fill="url(#paint94_linear_3110_12244)"/>
<path d="M585.089 690.753C584.937 690.144 584.773 689.546 584.609 688.949C584.773 689.546 584.937 690.156 585.089 690.753Z" fill="url(#paint95_linear_3110_12244)"/>
<path d="M585.089 690.753C584.937 690.144 584.773 689.546 584.609 688.949C584.773 689.546 584.937 690.156 585.089 690.753Z" fill="url(#paint96_linear_3110_12244)"/>
<path d="M632.003 485.826H574.499C547.266 485.826 525.105 508.035 525.105 535.327C525.105 562.62 547.266 584.828 574.499 584.828H787.956C819.011 584.828 844.28 610.153 844.28 641.275C844.28 672.398 819.011 697.722 787.956 697.722H586.514C586.514 697.722 586.514 697.734 586.514 697.746C586.607 698.343 586.701 698.952 586.783 699.561C586.911 700.487 587.04 701.424 587.133 702.361C587.157 702.548 587.18 702.747 587.203 702.935H787.944C821.863 702.935 849.458 675.279 849.458 641.287C849.458 607.295 821.863 579.639 787.944 579.639H574.487C550.117 579.639 530.295 559.773 530.295 535.351C530.295 510.928 550.117 491.062 574.487 491.062H631.992C660.253 491.062 684.108 471.864 691.285 445.802H685.885C678.86 468.959 657.366 485.861 631.992 485.861L632.003 485.826Z" fill="url(#paint97_linear_3110_12244)"/>
<path d="M632.003 510.143H574.498C560.636 510.143 549.369 521.435 549.369 535.327C549.369 549.219 560.636 560.511 574.498 560.511H787.956C832.382 560.511 868.532 596.741 868.532 641.264C868.532 685.786 832.382 722.016 787.956 722.016H587.647V727.228H787.956C835.257 727.228 873.734 688.668 873.734 641.264C873.734 593.859 835.257 555.299 787.956 555.299H574.498C563.512 555.299 554.57 546.338 554.57 535.327C554.57 524.317 563.512 515.356 574.498 515.356H632.003C673.706 515.356 708.548 485.369 716.203 445.778H710.92C703.346 482.476 670.842 510.143 632.015 510.143H632.003Z" fill="url(#paint98_linear_3110_12244)"/>
<path d="M632.003 497.985H574.499C553.951 497.985 537.237 514.735 537.237 535.327C537.237 555.919 553.951 572.67 574.499 572.67H787.956C825.696 572.67 856.401 603.441 856.401 641.264C856.401 679.086 825.696 709.857 787.956 709.857H587.601C587.612 710.443 587.648 711.017 587.648 711.591V715.07H787.956C828.56 715.07 861.602 681.956 861.602 641.264C861.602 600.571 828.56 567.457 787.956 567.457H574.499C556.826 567.457 542.438 553.05 542.438 535.327C542.438 517.605 556.815 503.197 574.499 503.197H632.003C666.997 503.197 696.334 478.611 703.802 445.778H698.461C691.109 475.718 664.11 497.985 632.003 497.985Z" fill="url(#paint99_linear_3110_12244)"/>
<path d="M814.616 526.062C799.515 526.062 787.22 537.354 787.22 551.246V555.287H792.888V551.246C792.888 540.235 802.636 531.275 814.616 531.275H878.012V526.062H814.616Z" fill="url(#paint100_linear_3110_12244)"/>
<path d="M814.616 513.904C792.222 513.904 774 530.654 774 551.246V555.287H779.669V551.246C779.669 533.535 795.343 519.116 814.628 519.116H878.023V513.904H814.628H814.616Z" fill="url(#paint101_linear_3110_12244)"/>
<path d="M814.616 501.745C784.929 501.745 760.77 523.954 760.77 551.246V555.287H766.439V551.246C766.439 526.823 788.05 506.957 814.616 506.957H878.012V501.745H814.616Z" fill="url(#paint102_linear_3110_12244)"/>
<path d="M814.616 489.586C777.636 489.586 747.539 517.242 747.539 551.234V555.275H753.208V551.234C753.208 520.112 780.756 494.787 814.616 494.787H878.012V489.575H814.616V489.586Z" fill="url(#paint103_linear_3110_12244)"/>
<path d="M814.616 477.439C770.342 477.439 734.32 510.553 734.32 551.246V555.287H739.988V551.246C739.988 513.423 773.474 482.652 814.616 482.652H878.012V477.439H814.616Z" fill="url(#paint104_linear_3110_12244)"/>
<path d="M814.616 465.281C763.049 465.281 721.089 503.842 721.089 551.246V555.287H726.758V551.246C726.758 506.711 766.169 470.493 814.616 470.493H878.012V465.281H814.616Z" fill="url(#paint105_linear_3110_12244)"/>
<path d="M408.67 445.778H550.643V440.566H376.177C331.751 440.566 295.6 404.336 295.6 359.813C295.6 315.291 331.751 279.061 376.177 279.061H479.51V273.848H479.733H376.177C328.876 273.848 290.399 312.409 290.399 359.813C290.399 407.218 328.876 445.778 376.177 445.778H408.67Z" fill="url(#paint106_linear_3110_12244)"/>
<path d="M479.733 286.007H376.177C335.573 286.007 302.531 319.121 302.531 359.813C302.531 400.506 335.573 433.62 376.177 433.62H550.643V428.407H376.177C338.437 428.407 307.732 397.636 307.732 359.813C307.732 321.99 338.437 291.219 376.177 291.219H479.51V286.007H479.733Z" fill="url(#paint107_linear_3110_12244)"/>
<path d="M479.733 298.154H376.177C342.259 298.154 314.664 325.809 314.664 359.802C314.664 393.794 342.259 421.449 376.177 421.449H550.644V416.237H376.177C345.122 416.237 319.853 390.912 319.853 359.79C319.853 328.667 345.122 303.343 376.177 303.343H479.511V298.13H479.733V298.154Z" fill="url(#paint108_linear_3110_12244)"/>
<path d="M479.732 310.312H376.177C348.944 310.312 326.795 332.521 326.795 359.813C326.795 387.105 348.956 409.314 376.177 409.314H550.643V404.102H376.177C351.808 404.102 331.985 384.236 331.985 359.813C331.985 335.391 351.808 315.525 376.177 315.525H479.51V310.312H479.732Z" fill="url(#paint109_linear_3110_12244)"/>
<path d="M479.733 322.471H376.177C355.63 322.471 338.916 339.221 338.916 359.813C338.916 380.405 355.63 397.156 376.177 397.156H550.644V391.943H376.177C358.505 391.943 344.117 377.536 344.117 359.813C344.117 342.091 358.493 327.683 376.177 327.683H479.511V322.471H479.733Z" fill="url(#paint110_linear_3110_12244)"/>
<path d="M356.249 359.813C356.249 348.803 365.191 339.842 376.177 339.842H479.511V334.629H479.733H376.177C362.327 334.629 351.048 345.933 351.048 359.813C351.048 373.694 362.315 384.997 376.177 384.997H550.643V379.785H376.177C365.191 379.785 356.249 370.824 356.249 359.813Z" fill="url(#paint111_linear_3110_12244)"/>
<path d="M550.644 440.566V445.778H643.364H651.043H659.529H665.431H673.04H678.592H685.897H691.297H698.461H703.803H710.909H716.204H878V440.566H550.644Z" fill="url(#paint112_linear_3110_12244)"/>
<path d="M878.012 428.407H550.644V433.62H878.012V428.407Z" fill="url(#paint113_linear_3110_12244)"/>
<path d="M878.012 416.249H550.644V421.461H878.012V416.249Z" fill="url(#paint114_linear_3110_12244)"/>
<path d="M878.012 404.09H550.644V409.302H878.012V404.09Z" fill="url(#paint115_linear_3110_12244)"/>
<path d="M878.012 391.931H550.644V397.144H878.012V391.931Z" fill="url(#paint116_linear_3110_12244)"/>
<path d="M634.902 379.785H627.971H622.77H615.839H610.638H603.707H598.517H591.575H586.385H579.454H574.253H550.644V384.985H878V379.785H640.103H634.902Z" fill="url(#paint117_linear_3110_12244)"/>
<path d="M479.733 339.842H479.51H574.253V334.629H479.733V339.842Z" fill="url(#paint118_linear_3110_12244)"/>
<path d="M479.733 334.629H479.51V339.842H479.733V334.629Z" fill="url(#paint119_linear_3110_12244)"/>
<path d="M479.733 334.629H479.51V339.842H479.733V334.629Z" fill="url(#paint120_linear_3110_12244)"/>
<path d="M479.733 327.683H479.51H574.253V322.471H479.733V327.683Z" fill="url(#paint121_linear_3110_12244)"/>
<path d="M479.733 322.471H479.51V327.683H479.733V322.471Z" fill="url(#paint122_linear_3110_12244)"/>
<path d="M479.733 322.471H479.51V327.683H479.733V322.471Z" fill="url(#paint123_linear_3110_12244)"/>
<path d="M479.733 315.525H479.51H574.253V310.312H479.733V315.525Z" fill="url(#paint124_linear_3110_12244)"/>
<path d="M479.733 310.312H479.51V315.525H479.733V310.312Z" fill="url(#paint125_linear_3110_12244)"/>
<path d="M479.733 310.312H479.51V315.525H479.733V310.312Z" fill="url(#paint126_linear_3110_12244)"/>
<path d="M479.733 303.366H479.51H574.253V298.154H479.733V303.366Z" fill="url(#paint127_linear_3110_12244)"/>
<path d="M479.733 298.154H479.51V303.366H479.733V298.154Z" fill="url(#paint128_linear_3110_12244)"/>
<path d="M479.733 298.154H479.51V303.366H479.733V298.154Z" fill="url(#paint129_linear_3110_12244)"/>
<path d="M479.733 291.208H479.51H574.253V286.007H479.733V291.208Z" fill="url(#paint130_linear_3110_12244)"/>
<path d="M479.733 286.007H479.51V291.219H479.733V286.007Z" fill="url(#paint131_linear_3110_12244)"/>
<path d="M479.733 286.007H479.51V291.219H479.733V286.007Z" fill="url(#paint132_linear_3110_12244)"/>
<path d="M479.51 279.049V279.061H574.253V273.848H479.733V279.049H479.51Z" fill="url(#paint133_linear_3110_12244)"/>
<path d="M479.733 273.848H479.51V279.061H479.733V273.848Z" fill="url(#paint134_linear_3110_12244)"/>
<path d="M479.733 273.848H479.51V279.061H479.733V273.848Z" fill="url(#paint135_linear_3110_12244)"/>
</g>
<defs>
<linearGradient id="paint0_linear_3110_12244" x1="693.365" y1="760.565" x2="923.642" y2="760.565" gradientUnits="userSpaceOnUse">
<stop stop-color="#D6D5FF"/>
<stop offset="0.9999" stop-color="#B9ADFE"/>
<stop offset="1" stop-color="#8566FB"/>
</linearGradient>
<linearGradient id="paint1_linear_3110_12244" x1="-2.62605e-05" y1="773.871" x2="911.509" y2="773.871" gradientUnits="userSpaceOnUse">
<stop stop-color="#8566FB"/>
<stop offset="1" stop-color="#D6D5FF"/>
</linearGradient>
<linearGradient id="paint2_linear_3110_12244" x1="2.02735e-05" y1="787.939" x2="899.377" y2="787.939" gradientUnits="userSpaceOnUse">
<stop stop-color="#8566FB"/>
<stop offset="1" stop-color="#D6D5FF"/>
</linearGradient>
<linearGradient id="paint3_linear_3110_12244" x1="-2.38046e-05" y1="804.549" x2="887.245" y2="804.549" gradientUnits="userSpaceOnUse">
<stop stop-color="#8566FB"/>
<stop offset="1" stop-color="#D6D5FF"/>
</linearGradient>
<linearGradient id="paint4_linear_3110_12244" x1="-1.87405e-05" y1="874.818" x2="875.125" y2="874.818" gradientUnits="userSpaceOnUse">
<stop stop-color="#8566FB"/>
<stop offset="1" stop-color="#D6D5FF"/>
</linearGradient>
<linearGradient id="paint5_linear_3110_12244" x1="5.97641e-06" y1="880.897" x2="862.993" y2="880.897" gradientUnits="userSpaceOnUse">
<stop stop-color="#8566FB"/>
<stop offset="1" stop-color="#D6D5FF"/>
</linearGradient>
<linearGradient id="paint6_linear_3110_12244" x1="309.895" y1="749.449" x2="521.809" y2="749.449" gradientUnits="userSpaceOnUse">
<stop stop-color="#8566FB"/>
<stop offset="1" stop-color="#D6D5FF"/>
</linearGradient>
<linearGradient id="paint7_linear_3110_12244" x1="322.027" y1="743.37" x2="521.809" y2="743.37" gradientUnits="userSpaceOnUse">
<stop stop-color="#8566FB"/>
<stop offset="1" stop-color="#D6D5FF"/>
</linearGradient>
<linearGradient id="paint8_linear_3110_12244" x1="334.159" y1="737.29" x2="521.809" y2="737.29" gradientUnits="userSpaceOnUse">
<stop stop-color="#8566FB"/>
<stop offset="1" stop-color="#D6D5FF"/>
</linearGradient>
<linearGradient id="paint9_linear_3110_12244" x1="346.291" y1="731.211" x2="521.809" y2="731.211" gradientUnits="userSpaceOnUse">
<stop stop-color="#8566FB"/>
<stop offset="1" stop-color="#D6D5FF"/>
</linearGradient>
<linearGradient id="paint10_linear_3110_12244" x1="358.411" y1="725.132" x2="521.809" y2="725.132" gradientUnits="userSpaceOnUse">
<stop stop-color="#8566FB"/>
<stop offset="1" stop-color="#D6D5FF"/>
</linearGradient>
<linearGradient id="paint11_linear_3110_12244" x1="370.543" y1="719.052" x2="521.809" y2="719.052" gradientUnits="userSpaceOnUse">
<stop stop-color="#8566FB"/>
<stop offset="1" stop-color="#D6D5FF"/>
</linearGradient>
<linearGradient id="paint12_linear_3110_12244" x1="476.752" y1="848.088" x2="693.365" y2="848.088" gradientUnits="userSpaceOnUse">
<stop stop-color="#8566FB"/>
<stop offset="1" stop-color="#D6D5FF"/>
</linearGradient>
<linearGradient id="paint13_linear_3110_12244" x1="464.62" y1="835.929" x2="681.233" y2="835.929" gradientUnits="userSpaceOnUse">
<stop stop-color="#8566FB"/>
<stop offset="1" stop-color="#D6D5FF"/>
</linearGradient>
<linearGradient id="paint14_linear_3110_12244" x1="452.488" y1="823.771" x2="669.101" y2="823.771" gradientUnits="userSpaceOnUse">
<stop stop-color="#8566FB"/>
<stop offset="1" stop-color="#D6D5FF"/>
</linearGradient>
<linearGradient id="paint15_linear_3110_12244" x1="440.356" y1="811.612" x2="656.969" y2="811.612" gradientUnits="userSpaceOnUse">
<stop stop-color="#8566FB"/>
<stop offset="1" stop-color="#D6D5FF"/>
</linearGradient>
<linearGradient id="paint16_linear_3110_12244" x1="428.224" y1="799.453" x2="644.837" y2="799.453" gradientUnits="userSpaceOnUse">
<stop stop-color="#8566FB"/>
<stop offset="1" stop-color="#D6D5FF"/>
</linearGradient>
<linearGradient id="paint17_linear_3110_12244" x1="416.092" y1="787.295" x2="632.705" y2="787.295" gradientUnits="userSpaceOnUse">
<stop stop-color="#8566FB"/>
<stop offset="1" stop-color="#D6D5FF"/>
</linearGradient>
<linearGradient id="paint18_linear_3110_12244" x1="118.352" y1="819.273" x2="289.908" y2="819.273" gradientUnits="userSpaceOnUse">
<stop stop-color="#8566FB"/>
<stop offset="1" stop-color="#D6D5FF"/>
</linearGradient>
<linearGradient id="paint19_linear_3110_12244" x1="130.484" y1="813.193" x2="277.776" y2="813.193" gradientUnits="userSpaceOnUse">
<stop stop-color="#8566FB"/>
<stop offset="1" stop-color="#D6D5FF"/>
</linearGradient>
<linearGradient id="paint20_linear_3110_12244" x1="142.605" y1="807.114" x2="265.644" y2="807.114" gradientUnits="userSpaceOnUse">
<stop stop-color="#8566FB"/>
<stop offset="1" stop-color="#D6D5FF"/>
</linearGradient>
<linearGradient id="paint21_linear_3110_12244" x1="154.737" y1="801.035" x2="253.512" y2="801.035" gradientUnits="userSpaceOnUse">
<stop stop-color="#8566FB"/>
<stop offset="1" stop-color="#D6D5FF"/>
</linearGradient>
<linearGradient id="paint22_linear_3110_12244" x1="166.869" y1="794.955" x2="241.38" y2="794.955" gradientUnits="userSpaceOnUse">
<stop stop-color="#8566FB"/>
<stop offset="1" stop-color="#D6D5FF"/>
</linearGradient>
<linearGradient id="paint23_linear_3110_12244" x1="179.001" y1="788.876" x2="229.259" y2="788.876" gradientUnits="userSpaceOnUse">
<stop stop-color="#8566FB"/>
<stop offset="1" stop-color="#D6D5FF"/>
</linearGradient>
<linearGradient id="paint24_linear_3110_12244" x1="0" y1="881.307" x2="224.047" y2="881.307" gradientUnits="userSpaceOnUse">
<stop stop-color="#8566FB"/>
<stop offset="1" stop-color="#D6D5FF"/>
</linearGradient>
<linearGradient id="paint25_linear_3110_12244" x1="12.1321" y1="887.386" x2="224.047" y2="887.386" gradientUnits="userSpaceOnUse">
<stop stop-color="#8566FB"/>
<stop offset="1" stop-color="#D6D5FF"/>
</linearGradient>
<linearGradient id="paint26_linear_3110_12244" x1="24.2642" y1="893.466" x2="224.047" y2="893.466" gradientUnits="userSpaceOnUse">
<stop stop-color="#8566FB"/>
<stop offset="1" stop-color="#D6D5FF"/>
</linearGradient>
<linearGradient id="paint27_linear_3110_12244" x1="36.3962" y1="899.533" x2="224.047" y2="899.533" gradientUnits="userSpaceOnUse">
<stop stop-color="#8566FB"/>
<stop offset="1" stop-color="#D6D5FF"/>
</linearGradient>
<linearGradient id="paint28_linear_3110_12244" x1="48.5168" y1="905.612" x2="224.047" y2="905.612" gradientUnits="userSpaceOnUse">
<stop stop-color="#8566FB"/>
<stop offset="1" stop-color="#D6D5FF"/>
</linearGradient>
<linearGradient id="paint29_linear_3110_12244" x1="60.649" y1="911.692" x2="224.047" y2="911.692" gradientUnits="userSpaceOnUse">
<stop stop-color="#8566FB"/>
<stop offset="1" stop-color="#D6D5FF"/>
</linearGradient>
<linearGradient id="paint30_linear_3110_12244" x1="118.352" y1="804.584" x2="289.922" y2="804.584" gradientUnits="userSpaceOnUse">
<stop stop-color="#8566FB"/>
<stop offset="1" stop-color="#D6D5FF"/>
</linearGradient>
<linearGradient id="paint31_linear_3110_12244" x1="60.6401" y1="804.584" x2="224.063" y2="804.584" gradientUnits="userSpaceOnUse">
<stop stop-color="#8566FB"/>
<stop offset="1" stop-color="#D6D5FF"/>
</linearGradient>
<linearGradient id="paint32_linear_3110_12244" x1="130.484" y1="804.584" x2="277.798" y2="804.584" gradientUnits="userSpaceOnUse">
<stop stop-color="#8566FB"/>
<stop offset="1" stop-color="#D6D5FF"/>
</linearGradient>
<linearGradient id="paint33_linear_3110_12244" x1="60.6382" y1="804.584" x2="224.061" y2="804.584" gradientUnits="userSpaceOnUse">
<stop stop-color="#8566FB"/>
<stop offset="1" stop-color="#D6D5FF"/>
</linearGradient>
<linearGradient id="paint34_linear_3110_12244" x1="142.605" y1="804.584" x2="265.663" y2="804.584" gradientUnits="userSpaceOnUse">
<stop stop-color="#8566FB"/>
<stop offset="1" stop-color="#D6D5FF"/>
</linearGradient>
<linearGradient id="paint35_linear_3110_12244" x1="60.6366" y1="804.584" x2="224.059" y2="804.584" gradientUnits="userSpaceOnUse">
<stop stop-color="#8566FB"/>
<stop offset="1" stop-color="#D6D5FF"/>
</linearGradient>
<linearGradient id="paint36_linear_3110_12244" x1="154.737" y1="804.584" x2="253.527" y2="804.584" gradientUnits="userSpaceOnUse">
<stop stop-color="#8566FB"/>
<stop offset="1" stop-color="#D6D5FF"/>
</linearGradient>
<linearGradient id="paint37_linear_3110_12244" x1="60.6347" y1="804.584" x2="224.057" y2="804.584" gradientUnits="userSpaceOnUse">
<stop stop-color="#8566FB"/>
<stop offset="1" stop-color="#D6D5FF"/>
</linearGradient>
<linearGradient id="paint38_linear_3110_12244" x1="166.869" y1="804.584" x2="241.391" y2="804.584" gradientUnits="userSpaceOnUse">
<stop stop-color="#8566FB"/>
<stop offset="1" stop-color="#D6D5FF"/>
</linearGradient>
<linearGradient id="paint39_linear_3110_12244" x1="60.6329" y1="804.584" x2="224.055" y2="804.584" gradientUnits="userSpaceOnUse">
<stop stop-color="#8566FB"/>
<stop offset="1" stop-color="#D6D5FF"/>
</linearGradient>
<linearGradient id="paint40_linear_3110_12244" x1="179.001" y1="804.584" x2="229.267" y2="804.584" gradientUnits="userSpaceOnUse">
<stop stop-color="#8566FB"/>
<stop offset="1" stop-color="#D6D5FF"/>
</linearGradient>
<linearGradient id="paint41_linear_3110_12244" x1="60.6306" y1="804.584" x2="224.054" y2="804.584" gradientUnits="userSpaceOnUse">
<stop stop-color="#8566FB"/>
<stop offset="1" stop-color="#D6D5FF"/>
</linearGradient>
<linearGradient id="paint42_linear_3110_12244" x1="383.529" y1="976.818" x2="433.787" y2="976.818" gradientUnits="userSpaceOnUse">
<stop stop-color="#8566FB"/>
<stop offset="1" stop-color="#D6D5FF"/>
</linearGradient>
<linearGradient id="paint43_linear_3110_12244" x1="371.397" y1="970.739" x2="445.907" y2="970.739" gradientUnits="userSpaceOnUse">
<stop stop-color="#8566FB"/>
<stop offset="1" stop-color="#D6D5FF"/>
</linearGradient>
<linearGradient id="paint44_linear_3110_12244" x1="359.265" y1="964.66" x2="458.04" y2="964.66" gradientUnits="userSpaceOnUse">
<stop stop-color="#8566FB"/>
<stop offset="1" stop-color="#D6D5FF"/>
</linearGradient>
<linearGradient id="paint45_linear_3110_12244" x1="347.132" y1="958.58" x2="470.172" y2="958.58" gradientUnits="userSpaceOnUse">
<stop stop-color="#8566FB"/>
<stop offset="1" stop-color="#D6D5FF"/>
</linearGradient>
<linearGradient id="paint46_linear_3110_12244" x1="335.001" y1="952.501" x2="482.304" y2="952.501" gradientUnits="userSpaceOnUse">
<stop stop-color="#8566FB"/>
<stop offset="1" stop-color="#D6D5FF"/>
</linearGradient>
<linearGradient id="paint47_linear_3110_12244" x1="322.88" y1="946.434" x2="494.436" y2="946.434" gradientUnits="userSpaceOnUse">
<stop stop-color="#8566FB"/>
<stop offset="1" stop-color="#D6D5FF"/>
</linearGradient>
<linearGradient id="paint48_linear_3110_12244" x1="784.344" y1="928.489" x2="990.637" y2="928.489" gradientUnits="userSpaceOnUse">
<stop stop-color="#8566FB"/>
<stop offset="1" stop-color="#D6D5FF"/>
</linearGradient>
<linearGradient id="paint49_linear_3110_12244" x1="735.816" y1="928.488" x2="990.637" y2="928.488" gradientUnits="userSpaceOnUse">
<stop stop-color="#8566FB"/>
<stop offset="1" stop-color="#D6D5FF"/>
</linearGradient>
<linearGradient id="paint50_linear_3110_12244" x1="692.944" y1="857.283" x2="863.006" y2="857.283" gradientUnits="userSpaceOnUse">
<stop stop-color="#8566FB"/>
<stop offset="1" stop-color="#D6D5FF"/>
</linearGradient>
<linearGradient id="paint51_linear_3110_12244" x1="735.503" y1="857.283" x2="990.977" y2="857.283" gradientUnits="userSpaceOnUse">
<stop stop-color="#8566FB"/>
<stop offset="1" stop-color="#D6D5FF"/>
</linearGradient>
<linearGradient id="paint52_linear_3110_12244" x1="723.684" y1="928.489" x2="980.632" y2="928.489" gradientUnits="userSpaceOnUse">
<stop stop-color="#8566FB"/>
<stop offset="1" stop-color="#D6D5FF"/>
</linearGradient>
<linearGradient id="paint53_linear_3110_12244" x1="772.212" y1="928.489" x2="990.637" y2="928.489" gradientUnits="userSpaceOnUse">
<stop stop-color="#8566FB"/>
<stop offset="1" stop-color="#D6D5FF"/>
</linearGradient>
<linearGradient id="paint54_linear_3110_12244" x1="760.08" y1="928.489" x2="990.637" y2="928.489" gradientUnits="userSpaceOnUse">
<stop stop-color="#8566FB"/>
<stop offset="1" stop-color="#D6D5FF"/>
</linearGradient>
<linearGradient id="paint55_linear_3110_12244" x1="747.948" y1="928.489" x2="990.637" y2="928.489" gradientUnits="userSpaceOnUse">
<stop stop-color="#8566FB"/>
<stop offset="1" stop-color="#D6D5FF"/>
</linearGradient>
<linearGradient id="paint56_linear_3110_12244" x1="692.605" y1="175.046" x2="864.161" y2="175.046" gradientUnits="userSpaceOnUse">
<stop stop-color="#8566FB"/>
<stop offset="1" stop-color="#D6D5FF"/>
</linearGradient>
<linearGradient id="paint57_linear_3110_12244" x1="704.726" y1="168.966" x2="852.029" y2="168.966" gradientUnits="userSpaceOnUse">
<stop stop-color="#8566FB"/>
<stop offset="1" stop-color="#D6D5FF"/>
</linearGradient>
<linearGradient id="paint58_linear_3110_12244" x1="716.858" y1="162.887" x2="839.897" y2="162.887" gradientUnits="userSpaceOnUse">
<stop stop-color="#8566FB"/>
<stop offset="1" stop-color="#D6D5FF"/>
</linearGradient>
<linearGradient id="paint59_linear_3110_12244" x1="728.99" y1="156.819" x2="827.765" y2="156.819" gradientUnits="userSpaceOnUse">
<stop stop-color="#8566FB"/>
<stop offset="1" stop-color="#D6D5FF"/>
</linearGradient>
<linearGradient id="paint60_linear_3110_12244" x1="741.122" y1="150.74" x2="815.633" y2="150.74" gradientUnits="userSpaceOnUse">
<stop stop-color="#8566FB"/>
<stop offset="1" stop-color="#D6D5FF"/>
</linearGradient>
<linearGradient id="paint61_linear_3110_12244" x1="753.254" y1="144.661" x2="803.501" y2="144.661" gradientUnits="userSpaceOnUse">
<stop stop-color="#8566FB"/>
<stop offset="1" stop-color="#D6D5FF"/>
</linearGradient>
<linearGradient id="paint62_linear_3110_12244" x1="574.253" y1="237.08" x2="798.288" y2="237.08" gradientUnits="userSpaceOnUse">
<stop stop-color="#8566FB"/>
<stop offset="1" stop-color="#D6D5FF"/>
</linearGradient>
<linearGradient id="paint63_linear_3110_12244" x1="586.385" y1="243.159" x2="798.288" y2="243.159" gradientUnits="userSpaceOnUse">
<stop stop-color="#8566FB"/>
<stop offset="1" stop-color="#D6D5FF"/>
</linearGradient>
<linearGradient id="paint64_linear_3110_12244" x1="598.518" y1="249.238" x2="798.288" y2="249.238" gradientUnits="userSpaceOnUse">
<stop stop-color="#8566FB"/>
<stop offset="1" stop-color="#D6D5FF"/>
</linearGradient>
<linearGradient id="paint65_linear_3110_12244" x1="610.638" y1="255.318" x2="798.288" y2="255.318" gradientUnits="userSpaceOnUse">
<stop stop-color="#8566FB"/>
<stop offset="1" stop-color="#D6D5FF"/>
</linearGradient>
<linearGradient id="paint66_linear_3110_12244" x1="622.77" y1="261.397" x2="798.288" y2="261.397" gradientUnits="userSpaceOnUse">
<stop stop-color="#8566FB"/>
<stop offset="1" stop-color="#D6D5FF"/>
</linearGradient>
<linearGradient id="paint67_linear_3110_12244" x1="634.902" y1="267.476" x2="798.288" y2="267.476" gradientUnits="userSpaceOnUse">
<stop stop-color="#8566FB"/>
<stop offset="1" stop-color="#D6D5FF"/>
</linearGradient>
<linearGradient id="paint68_linear_3110_12244" x1="692.605" y1="160.369" x2="864.176" y2="160.369" gradientUnits="userSpaceOnUse">
<stop stop-color="#8566FB"/>
<stop offset="1" stop-color="#D6D5FF"/>
</linearGradient>
<linearGradient id="paint69_linear_3110_12244" x1="634.893" y1="160.369" x2="798.304" y2="160.369" gradientUnits="userSpaceOnUse">
<stop stop-color="#8566FB"/>
<stop offset="1" stop-color="#D6D5FF"/>
</linearGradient>
<linearGradient id="paint70_linear_3110_12244" x1="704.726" y1="160.369" x2="852.052" y2="160.369" gradientUnits="userSpaceOnUse">
<stop stop-color="#8566FB"/>
<stop offset="1" stop-color="#D6D5FF"/>
</linearGradient>
<linearGradient id="paint71_linear_3110_12244" x1="634.891" y1="160.369" x2="798.303" y2="160.369" gradientUnits="userSpaceOnUse">
<stop stop-color="#8566FB"/>
<stop offset="1" stop-color="#D6D5FF"/>
</linearGradient>
<linearGradient id="paint72_linear_3110_12244" x1="716.858" y1="160.369" x2="839.916" y2="160.369" gradientUnits="userSpaceOnUse">
<stop stop-color="#8566FB"/>
<stop offset="1" stop-color="#D6D5FF"/>
</linearGradient>
<linearGradient id="paint73_linear_3110_12244" x1="634.889" y1="160.369" x2="798.301" y2="160.369" gradientUnits="userSpaceOnUse">
<stop stop-color="#8566FB"/>
<stop offset="1" stop-color="#D6D5FF"/>
</linearGradient>
<linearGradient id="paint74_linear_3110_12244" x1="728.99" y1="160.369" x2="827.779" y2="160.369" gradientUnits="userSpaceOnUse">
<stop stop-color="#8566FB"/>
<stop offset="1" stop-color="#D6D5FF"/>
</linearGradient>
<linearGradient id="paint75_linear_3110_12244" x1="634.889" y1="160.369" x2="798.298" y2="160.369" gradientUnits="userSpaceOnUse">
<stop stop-color="#8566FB"/>
<stop offset="1" stop-color="#D6D5FF"/>
</linearGradient>
<linearGradient id="paint76_linear_3110_12244" x1="741.122" y1="160.369" x2="815.643" y2="160.369" gradientUnits="userSpaceOnUse">
<stop stop-color="#8566FB"/>
<stop offset="1" stop-color="#D6D5FF"/>
</linearGradient>
<linearGradient id="paint77_linear_3110_12244" x1="634.887" y1="160.369" x2="798.296" y2="160.369" gradientUnits="userSpaceOnUse">
<stop stop-color="#8566FB"/>
<stop offset="1" stop-color="#D6D5FF"/>
</linearGradient>
<linearGradient id="paint78_linear_3110_12244" x1="753.254" y1="160.369" x2="803.509" y2="160.369" gradientUnits="userSpaceOnUse">
<stop stop-color="#8566FB"/>
<stop offset="1" stop-color="#D6D5FF"/>
</linearGradient>
<linearGradient id="paint79_linear_3110_12244" x1="634.884" y1="160.369" x2="798.295" y2="160.369" gradientUnits="userSpaceOnUse">
<stop stop-color="#8566FB"/>
<stop offset="1" stop-color="#D6D5FF"/>
</linearGradient>
<linearGradient id="paint80_linear_3110_12244" x1="193.471" y1="514.606" x2="401.739" y2="514.606" gradientUnits="userSpaceOnUse">
<stop stop-color="#8566FB"/>
<stop offset="1" stop-color="#D6D5FF"/>
</linearGradient>
<linearGradient id="paint81_linear_3110_12244" x1="181.351" y1="520.685" x2="413.871" y2="520.685" gradientUnits="userSpaceOnUse">
<stop stop-color="#8566FB"/>
<stop offset="1" stop-color="#D6D5FF"/>
</linearGradient>
<linearGradient id="paint82_linear_3110_12244" x1="169.218" y1="526.765" x2="426.003" y2="526.765" gradientUnits="userSpaceOnUse">
<stop stop-color="#8566FB"/>
<stop offset="1" stop-color="#D6D5FF"/>
</linearGradient>
<linearGradient id="paint83_linear_3110_12244" x1="157.086" y1="532.844" x2="438.135" y2="532.844" gradientUnits="userSpaceOnUse">
<stop stop-color="#8566FB"/>
<stop offset="1" stop-color="#D6D5FF"/>
</linearGradient>
<linearGradient id="paint84_linear_3110_12244" x1="144.954" y1="538.923" x2="450.255" y2="538.923" gradientUnits="userSpaceOnUse">
<stop stop-color="#8566FB"/>
<stop offset="1" stop-color="#D6D5FF"/>
</linearGradient>
<linearGradient id="paint85_linear_3110_12244" x1="132.822" y1="545.003" x2="462.388" y2="545.003" gradientUnits="userSpaceOnUse">
<stop stop-color="#8566FB"/>
<stop offset="1" stop-color="#D6D5FF"/>
</linearGradient>
<linearGradient id="paint86_linear_3110_12244" x1="488.721" y1="556.107" x2="813.097" y2="556.107" gradientUnits="userSpaceOnUse">
<stop stop-color="#8566FB"/>
<stop offset="1" stop-color="#D6D5FF"/>
</linearGradient>
<linearGradient id="paint87_linear_3110_12244" x1="415.612" y1="666.073" x2="632.882" y2="666.073" gradientUnits="userSpaceOnUse">
<stop stop-color="#8566FB"/>
<stop offset="1" stop-color="#D6D5FF"/>
</linearGradient>
<linearGradient id="paint88_linear_3110_12244" x1="488.461" y1="666.073" x2="813.82" y2="666.073" gradientUnits="userSpaceOnUse">
<stop stop-color="#8566FB"/>
<stop offset="1" stop-color="#D6D5FF"/>
</linearGradient>
<linearGradient id="paint89_linear_3110_12244" x1="416.069" y1="663.472" x2="632.714" y2="663.472" gradientUnits="userSpaceOnUse">
<stop stop-color="#8566FB"/>
<stop offset="1" stop-color="#D6D5FF"/>
</linearGradient>
<linearGradient id="paint90_linear_3110_12244" x1="488.708" y1="663.472" x2="813.132" y2="663.472" gradientUnits="userSpaceOnUse">
<stop stop-color="#8566FB"/>
<stop offset="1" stop-color="#D6D5FF"/>
</linearGradient>
<linearGradient id="paint91_linear_3110_12244" x1="416.069" y1="663.472" x2="632.714" y2="663.472" gradientUnits="userSpaceOnUse">
<stop stop-color="#8566FB"/>
<stop offset="1" stop-color="#D6D5FF"/>
</linearGradient>
<linearGradient id="paint92_linear_3110_12244" x1="488.708" y1="663.472" x2="813.132" y2="663.472" gradientUnits="userSpaceOnUse">
<stop stop-color="#8566FB"/>
<stop offset="1" stop-color="#D6D5FF"/>
</linearGradient>
<linearGradient id="paint93_linear_3110_12244" x1="500.853" y1="562.186" x2="825.217" y2="562.186" gradientUnits="userSpaceOnUse">
<stop stop-color="#8566FB"/>
<stop offset="1" stop-color="#D6D5FF"/>
</linearGradient>
<linearGradient id="paint94_linear_3110_12244" x1="512.985" y1="568.265" x2="837.349" y2="568.265" gradientUnits="userSpaceOnUse">
<stop stop-color="#8566FB"/>
<stop offset="1" stop-color="#D6D5FF"/>
</linearGradient>
<linearGradient id="paint95_linear_3110_12244" x1="415.738" y1="689.851" x2="632.806" y2="689.851" gradientUnits="userSpaceOnUse">
<stop stop-color="#8566FB"/>
<stop offset="1" stop-color="#D6D5FF"/>
</linearGradient>
<linearGradient id="paint96_linear_3110_12244" x1="512.834" y1="689.851" x2="837.881" y2="689.851" gradientUnits="userSpaceOnUse">
<stop stop-color="#8566FB"/>
<stop offset="1" stop-color="#D6D5FF"/>
</linearGradient>
<linearGradient id="paint97_linear_3110_12244" x1="525.117" y1="574.345" x2="849.481" y2="574.345" gradientUnits="userSpaceOnUse">
<stop stop-color="#8566FB"/>
<stop offset="1" stop-color="#D6D5FF"/>
</linearGradient>
<linearGradient id="paint98_linear_3110_12244" x1="549.369" y1="586.503" x2="873.745" y2="586.503" gradientUnits="userSpaceOnUse">
<stop stop-color="#8566FB"/>
<stop offset="1" stop-color="#D6D5FF"/>
</linearGradient>
<linearGradient id="paint99_linear_3110_12244" x1="537.249" y1="580.424" x2="861.613" y2="580.424" gradientUnits="userSpaceOnUse">
<stop stop-color="#8566FB"/>
<stop offset="1" stop-color="#D6D5FF"/>
</linearGradient>
<linearGradient id="paint100_linear_3110_12244" x1="787.22" y1="540.669" x2="1014.97" y2="540.669" gradientUnits="userSpaceOnUse">
<stop stop-color="#8566FB"/>
<stop offset="1" stop-color="#D6D5FF"/>
</linearGradient>
<linearGradient id="paint101_linear_3110_12244" x1="773.989" y1="534.589" x2="1014.97" y2="534.589" gradientUnits="userSpaceOnUse">
<stop stop-color="#8566FB"/>
<stop offset="1" stop-color="#D6D5FF"/>
</linearGradient>
<linearGradient id="paint102_linear_3110_12244" x1="760.77" y1="528.51" x2="1014.97" y2="528.51" gradientUnits="userSpaceOnUse">
<stop stop-color="#8566FB"/>
<stop offset="1" stop-color="#D6D5FF"/>
</linearGradient>
<linearGradient id="paint103_linear_3110_12244" x1="747.539" y1="522.431" x2="1014.97" y2="522.431" gradientUnits="userSpaceOnUse">
<stop stop-color="#8566FB"/>
<stop offset="1" stop-color="#D6D5FF"/>
</linearGradient>
<linearGradient id="paint104_linear_3110_12244" x1="734.32" y1="516.351" x2="1014.97" y2="516.351" gradientUnits="userSpaceOnUse">
<stop stop-color="#8566FB"/>
<stop offset="1" stop-color="#D6D5FF"/>
</linearGradient>
<linearGradient id="paint105_linear_3110_12244" x1="721.089" y1="510.284" x2="1012.36" y2="510.284" gradientUnits="userSpaceOnUse">
<stop stop-color="#8566FB"/>
<stop offset="1" stop-color="#D6D5FF"/>
</linearGradient>
<linearGradient id="paint106_linear_3110_12244" x1="420.521" y1="273.837" x2="420.521" y2="445.766" gradientUnits="userSpaceOnUse">
<stop stop-color="#8566FB"/>
<stop offset="1" stop-color="#D6D5FF"/>
</linearGradient>
<linearGradient id="paint107_linear_3110_12244" x1="426.587" y1="285.995" x2="426.587" y2="433.62" gradientUnits="userSpaceOnUse">
<stop stop-color="#8566FB"/>
<stop offset="1" stop-color="#D6D5FF"/>
</linearGradient>
<linearGradient id="paint108_linear_3110_12244" x1="432.654" y1="298.154" x2="432.654" y2="421.461" gradientUnits="userSpaceOnUse">
<stop stop-color="#8566FB"/>
<stop offset="1" stop-color="#D6D5FF"/>
</linearGradient>
<linearGradient id="paint109_linear_3110_12244" x1="438.719" y1="310.312" x2="438.719" y2="409.302" gradientUnits="userSpaceOnUse">
<stop stop-color="#8566FB"/>
<stop offset="1" stop-color="#D6D5FF"/>
</linearGradient>
<linearGradient id="paint110_linear_3110_12244" x1="444.786" y1="322.471" x2="444.786" y2="397.144" gradientUnits="userSpaceOnUse">
<stop stop-color="#8566FB"/>
<stop offset="1" stop-color="#D6D5FF"/>
</linearGradient>
<linearGradient id="paint111_linear_3110_12244" x1="450.84" y1="334.629" x2="450.84" y2="384.985" gradientUnits="userSpaceOnUse">
<stop stop-color="#8566FB"/>
<stop offset="1" stop-color="#D6D5FF"/>
</linearGradient>
<linearGradient id="paint112_linear_3110_12244" x1="714.322" y1="273.836" x2="714.322" y2="445.766" gradientUnits="userSpaceOnUse">
<stop stop-color="#8566FB"/>
<stop offset="1" stop-color="#D6D5FF"/>
</linearGradient>
<linearGradient id="paint113_linear_3110_12244" x1="714.322" y1="285.995" x2="714.322" y2="433.62" gradientUnits="userSpaceOnUse">
<stop stop-color="#8566FB"/>
<stop offset="1" stop-color="#D6D5FF"/>
</linearGradient>
<linearGradient id="paint114_linear_3110_12244" x1="714.322" y1="298.153" x2="714.322" y2="421.461" gradientUnits="userSpaceOnUse">
<stop stop-color="#8566FB"/>
<stop offset="1" stop-color="#D6D5FF"/>
</linearGradient>
<linearGradient id="paint115_linear_3110_12244" x1="714.322" y1="310.313" x2="714.322" y2="409.302" gradientUnits="userSpaceOnUse">
<stop stop-color="#8566FB"/>
<stop offset="1" stop-color="#D6D5FF"/>
</linearGradient>
<linearGradient id="paint116_linear_3110_12244" x1="714.322" y1="322.471" x2="714.322" y2="397.144" gradientUnits="userSpaceOnUse">
<stop stop-color="#8566FB"/>
<stop offset="1" stop-color="#D6D5FF"/>
</linearGradient>
<linearGradient id="paint117_linear_3110_12244" x1="714.322" y1="334.629" x2="714.322" y2="384.985" gradientUnits="userSpaceOnUse">
<stop stop-color="#8566FB"/>
<stop offset="1" stop-color="#D6D5FF"/>
</linearGradient>
<linearGradient id="paint118_linear_3110_12244" x1="479.51" y1="337.23" x2="574.253" y2="337.23" gradientUnits="userSpaceOnUse">
<stop stop-color="#8566FB"/>
<stop offset="1" stop-color="#D6D5FF"/>
</linearGradient>
<linearGradient id="paint119_linear_3110_12244" x1="479.628" y1="334.629" x2="479.628" y2="384.985" gradientUnits="userSpaceOnUse">
<stop stop-color="#8566FB"/>
<stop offset="1" stop-color="#D6D5FF"/>
</linearGradient>
<linearGradient id="paint120_linear_3110_12244" x1="479.51" y1="337.23" x2="574.453" y2="337.23" gradientUnits="userSpaceOnUse">
<stop stop-color="#8566FB"/>
<stop offset="1" stop-color="#D6D5FF"/>
</linearGradient>
<linearGradient id="paint121_linear_3110_12244" x1="479.51" y1="325.083" x2="574.253" y2="325.083" gradientUnits="userSpaceOnUse">
<stop stop-color="#8566FB"/>
<stop offset="1" stop-color="#D6D5FF"/>
</linearGradient>
<linearGradient id="paint122_linear_3110_12244" x1="479.628" y1="322.471" x2="479.628" y2="397.144" gradientUnits="userSpaceOnUse">
<stop stop-color="#8566FB"/>
<stop offset="1" stop-color="#D6D5FF"/>
</linearGradient>
<linearGradient id="paint123_linear_3110_12244" x1="479.51" y1="325.071" x2="574.453" y2="325.071" gradientUnits="userSpaceOnUse">
<stop stop-color="#8566FB"/>
<stop offset="1" stop-color="#D6D5FF"/>
</linearGradient>
<linearGradient id="paint124_linear_3110_12244" x1="479.51" y1="312.924" x2="574.253" y2="312.924" gradientUnits="userSpaceOnUse">
<stop stop-color="#8566FB"/>
<stop offset="1" stop-color="#D6D5FF"/>
</linearGradient>
<linearGradient id="paint125_linear_3110_12244" x1="479.628" y1="310.312" x2="479.628" y2="409.302" gradientUnits="userSpaceOnUse">
<stop stop-color="#8566FB"/>
<stop offset="1" stop-color="#D6D5FF"/>
</linearGradient>
<linearGradient id="paint126_linear_3110_12244" x1="479.51" y1="312.924" x2="574.453" y2="312.924" gradientUnits="userSpaceOnUse">
<stop stop-color="#8566FB"/>
<stop offset="1" stop-color="#D6D5FF"/>
</linearGradient>
<linearGradient id="paint127_linear_3110_12244" x1="479.51" y1="300.766" x2="574.253" y2="300.766" gradientUnits="userSpaceOnUse">
<stop stop-color="#8566FB"/>
<stop offset="1" stop-color="#D6D5FF"/>
</linearGradient>
<linearGradient id="paint128_linear_3110_12244" x1="479.628" y1="298.154" x2="479.628" y2="421.461" gradientUnits="userSpaceOnUse">
<stop stop-color="#8566FB"/>
<stop offset="1" stop-color="#D6D5FF"/>
</linearGradient>
<linearGradient id="paint129_linear_3110_12244" x1="479.51" y1="300.766" x2="574.453" y2="300.766" gradientUnits="userSpaceOnUse">
<stop stop-color="#8566FB"/>
<stop offset="1" stop-color="#D6D5FF"/>
</linearGradient>
<linearGradient id="paint130_linear_3110_12244" x1="479.51" y1="288.607" x2="574.253" y2="288.607" gradientUnits="userSpaceOnUse">
<stop stop-color="#8566FB"/>
<stop offset="1" stop-color="#D6D5FF"/>
</linearGradient>
<linearGradient id="paint131_linear_3110_12244" x1="479.628" y1="285.995" x2="479.628" y2="433.619" gradientUnits="userSpaceOnUse">
<stop stop-color="#8566FB"/>
<stop offset="1" stop-color="#D6D5FF"/>
</linearGradient>
<linearGradient id="paint132_linear_3110_12244" x1="479.51" y1="288.607" x2="574.453" y2="288.607" gradientUnits="userSpaceOnUse">
<stop stop-color="#8566FB"/>
<stop offset="1" stop-color="#D6D5FF"/>
</linearGradient>
<linearGradient id="paint133_linear_3110_12244" x1="479.51" y1="276.449" x2="574.253" y2="276.449" gradientUnits="userSpaceOnUse">
<stop stop-color="#8566FB"/>
<stop offset="1" stop-color="#D6D5FF"/>
</linearGradient>
<linearGradient id="paint134_linear_3110_12244" x1="479.628" y1="273.837" x2="479.628" y2="445.779" gradientUnits="userSpaceOnUse">
<stop stop-color="#8566FB"/>
<stop offset="1" stop-color="#D6D5FF"/>
</linearGradient>
<linearGradient id="paint135_linear_3110_12244" x1="479.51" y1="276.449" x2="574.453" y2="276.449" gradientUnits="userSpaceOnUse">
<stop stop-color="#8566FB"/>
<stop offset="1" stop-color="#D6D5FF"/>
</linearGradient>
<clipPath id="clip0_3110_12244">
<rect width="878" height="1024" fill="white"/>
</clipPath>
</defs>
</svg>
