<svg width="61" height="61" viewBox="0 0 61 61" fill="none" xmlns="http://www.w3.org/2000/svg">
<path d="M0 30.2144C0 46.9013 13.5276 60.4289 30.2144 60.4289C46.9013 60.4289 60.4289 46.9013 60.4289 30.2144C60.4289 13.5276 46.9013 0 30.2144 0C13.5276 0 0 13.5276 0 30.2144Z" fill="#0040FF"/>
<path d="M40.6112 12.4463L39.8832 10.22L39.1623 12.4463H36.8229L38.717 13.8245L37.989 16.0508L39.8832 14.6726L41.7844 16.0508L41.0564 13.8245L42.9576 12.4463H40.6112Z" fill="#FFBF00"/>
<path d="M47.693 19.5281L46.965 17.3018L46.2441 19.5281H43.9047L45.7988 20.9063L45.0779 23.1326L46.965 21.7615L48.8662 23.1326L48.1382 20.9063L50.0324 19.5281H47.693Z" fill="#FFBF00"/>
<path d="M40.6112 45.9612L39.8832 43.7278L39.1623 45.9612H36.8229L38.717 47.3323L37.989 49.5657L39.8832 48.1875L41.7844 49.5657L41.0564 47.3323L42.9576 45.9612H40.6112Z" fill="#FFBF00"/>
<path d="M50.2868 29.2037L49.5588 26.9774L48.8379 29.2037H46.4915L48.3927 30.5819L47.6647 32.8083L49.5588 31.4301L51.4601 32.8083L50.7321 30.5819L52.6262 29.2037H50.2868Z" fill="#FFBF00"/>
<path d="M30.9353 48.5481L30.2144 46.3218L29.4935 48.5481H27.147L29.0411 49.9263L28.3202 52.1526L30.2144 50.7815L32.1085 52.1526L31.3876 49.9263L33.2817 48.5481H30.9353Z" fill="#FFBF00"/>
<path d="M47.693 38.8794L46.965 36.646L46.2441 38.8794H43.9047L45.7988 40.2505L45.0779 42.4839L46.965 41.1057L48.8662 42.4839L48.1382 40.2505L50.0324 38.8794H47.693Z" fill="#FFBF00"/>
<path d="M10.8631 31.4301L12.7643 32.8083L12.0363 30.5819L13.9304 29.2037H11.591L10.8631 26.9774L10.1421 29.2037H7.80273L9.69688 30.5819L8.96891 32.8083L10.8631 31.4301Z" fill="#FFBF00"/>
<path d="M14.1848 19.5281L13.4568 17.3018L12.7359 19.5281H10.3894L12.2906 20.9063L11.5626 23.1326L13.4568 21.7615L15.3509 23.1326L14.63 20.9063L16.5242 19.5281H14.1848Z" fill="#FFBF00"/>
<path d="M30.9353 9.85937L30.2144 7.62598L29.4935 9.85937H27.147L29.0411 11.2305L28.3202 13.4639L30.2144 12.0857L32.1085 13.4639L31.3876 11.2305L33.2817 9.85937H30.9353Z" fill="#FFBF00"/>
<path d="M14.1848 38.8794L13.4568 36.646L12.7359 38.8794H10.3894L12.2906 40.2505L11.5626 42.4839L13.4568 41.1057L15.3509 42.4839L14.63 40.2505L16.5242 38.8794H14.1848Z" fill="#FFBF00"/>
<path d="M21.2668 12.4463L20.5388 10.22L19.8179 12.4463H17.4714L19.3726 13.8245L18.6447 16.0508L20.5388 14.6726L22.433 16.0508L21.7121 13.8245L23.6062 12.4463H21.2668Z" fill="#FFBF00"/>
<path d="M21.2668 45.9612L20.5388 43.7278L19.8179 45.9612H17.4714L19.3726 47.3323L18.6447 49.5657L20.5388 48.1875L22.433 49.5657L21.7121 47.3323L23.6062 45.9612H21.2668Z" fill="#FFBF00"/>
<g style="mix-blend-mode:screen" opacity="0.8">
<path d="M26.4404 7.45649C21.2456 12.6583 22.9489 22.7864 30.2428 30.0802C37.5437 37.3812 47.6717 39.0845 52.8665 33.8826C58.0683 28.6879 56.365 18.5528 49.0641 11.2589C41.7631 3.96505 31.6351 2.25466 26.4404 7.45649Z" fill="white"/>
<path d="M26.4404 7.45649C21.2456 12.6583 22.9489 22.7864 30.2428 30.0802C37.5437 37.3812 47.6717 39.0845 52.8665 33.8826C58.0683 28.6879 56.365 18.5528 49.0641 11.2589C41.7631 3.96505 31.6351 2.25466 26.4404 7.45649Z" fill="black"/>
</g>
<g style="mix-blend-mode:screen" opacity="0.65">
<path d="M3.53381 30.1154C3.53381 44.8233 15.4994 56.7889 30.2073 56.7889C44.9152 56.7889 56.8809 44.8233 56.8809 30.1154C56.8809 15.4075 44.9223 3.44189 30.2144 3.44189C15.5065 3.44189 3.53381 15.4075 3.53381 30.1154Z" fill="white"/>
<path d="M3.53381 30.1154C3.53381 44.8233 15.4994 56.7889 30.2073 56.7889C44.9152 56.7889 56.8809 44.8233 56.8809 30.1154C56.8809 15.4075 44.9223 3.44189 30.2144 3.44189C15.5065 3.44189 3.53381 15.4075 3.53381 30.1154Z" fill="black"/>
</g>
<path style="mix-blend-mode:color-burn" opacity="0.5" d="M0 30.2144C0 46.9013 13.5276 60.4289 30.2144 60.4289C46.9013 60.4289 60.4289 46.9013 60.4289 30.2144C60.4289 13.5276 46.9013 0 30.2144 0C13.5276 0 0 13.5276 0 30.2144Z" fill="url(#paint0_radial_308_17229)"/>
<path style="mix-blend-mode:multiply" opacity="0.5" d="M0 30.2144C0 46.9013 13.5276 60.4289 30.2144 60.4289C46.9013 60.4289 60.4289 46.9013 60.4289 30.2144C60.4289 13.5276 46.9013 0 30.2144 0C13.5276 0 0 13.5276 0 30.2144Z" fill="url(#paint1_radial_308_17229)"/>
<g style="mix-blend-mode:overlay" opacity="0.2">
<path d="M0 30.2144C0 46.9013 13.5276 60.4289 30.2144 60.4289C46.9013 60.4289 60.4289 46.9013 60.4289 30.2144C60.4289 13.5276 46.9013 0 30.2144 0C13.5276 0 0 13.5276 0 30.2144Z" fill="#0040FF"/>
<path d="M47.693 19.528L46.965 17.3016L46.2441 19.528H43.9047L45.7988 20.9062L45.0779 23.1325L46.965 21.7614L48.8662 23.1325L48.1382 20.9062L50.0324 19.528H47.693Z" fill="#FFBF00"/>
<path d="M40.6112 12.4462L39.8832 10.2198L39.1623 12.4462H36.8229L38.717 13.8244L37.989 16.0507L39.8832 14.6725L41.7844 16.0507L41.0564 13.8244L42.9576 12.4462H40.6112Z" fill="#FFBF00"/>
<path d="M50.2868 29.2037L49.5588 26.9774L48.8379 29.2037H46.4915L48.3927 30.5819L47.6647 32.8083L49.5588 31.4301L51.4601 32.8083L50.7321 30.5819L52.6262 29.2037H50.2868Z" fill="#FFBF00"/>
<path d="M30.9353 48.5481L30.2144 46.3218L29.4935 48.5481H27.147L29.0411 49.9263L28.3202 52.1526L30.2144 50.7815L32.1085 52.1526L31.3876 49.9263L33.2817 48.5481H30.9353Z" fill="#FFBF00"/>
<path d="M47.693 38.8793L46.965 36.6459L46.2441 38.8793H43.9047L45.7988 40.2504L45.0779 42.4838L46.965 41.1056L48.8662 42.4838L48.1382 40.2504L50.0324 38.8793H47.693Z" fill="#FFBF00"/>
<path d="M40.6112 45.9612L39.8832 43.7278L39.1623 45.9612H36.8229L38.717 47.3323L37.989 49.5657L39.8832 48.1875L41.7844 49.5657L41.0564 47.3323L42.9576 45.9612H40.6112Z" fill="#FFBF00"/>
<path d="M30.9353 9.85937L30.2144 7.62598L29.4935 9.85937H27.147L29.0411 11.2305L28.3202 13.4639L30.2144 12.0857L32.1085 13.4639L31.3876 11.2305L33.2817 9.85937H30.9353Z" fill="#FFBF00"/>
<path d="M10.8631 31.4301L12.7643 32.8083L12.0363 30.5819L13.9304 29.2037H11.591L10.8631 26.9774L10.1421 29.2037H7.80273L9.69688 30.5819L8.96891 32.8083L10.8631 31.4301Z" fill="#FFBF00"/>
<path d="M14.1848 19.528L13.4568 17.3016L12.7359 19.528H10.3894L12.2906 20.9062L11.5626 23.1325L13.4568 21.7614L15.3509 23.1325L14.63 20.9062L16.5242 19.528H14.1848Z" fill="#FFBF00"/>
<path d="M14.1848 38.8793L13.4568 36.6459L12.7359 38.8793H10.3894L12.2906 40.2504L11.5626 42.4838L13.4568 41.1056L15.3509 42.4838L14.63 40.2504L16.5242 38.8793H14.1848Z" fill="#FFBF00"/>
<path d="M21.2667 12.4462L20.5387 10.2198L19.8178 12.4462H17.4713L19.3725 13.8244L18.6446 16.0507L20.5387 14.6725L22.4328 16.0507L21.7119 13.8244L23.6061 12.4462H21.2667Z" fill="#FFBF00"/>
<path d="M21.2667 45.9612L20.5387 43.7278L19.8178 45.9612H17.4713L19.3725 47.3323L18.6446 49.5657L20.5387 48.1875L22.4328 49.5657L21.7119 47.3323L23.6061 45.9612H21.2667Z" fill="#FFBF00"/>
</g>
<defs>
<radialGradient id="paint0_radial_308_17229" cx="0" cy="0" r="1" gradientUnits="userSpaceOnUse" gradientTransform="translate(30.2144 30.2144) scale(30.2144)">
<stop offset="0.85" stop-color="white"/>
<stop offset="1" stop-color="#220504"/>
</radialGradient>
<radialGradient id="paint1_radial_308_17229" cx="0" cy="0" r="1" gradientUnits="userSpaceOnUse" gradientTransform="translate(30.2144 30.2144) scale(30.2144)">
<stop offset="0.85" stop-color="white"/>
<stop offset="1"/>
</radialGradient>
</defs>
</svg>
