<svg width="66" height="66" viewBox="0 0 66 66" fill="none" xmlns="http://www.w3.org/2000/svg">
<mask id="mask0_308_17143" style="mask-type:luminance" maskUnits="userSpaceOnUse" x="4" y="4" width="58" height="58">
<path d="M61.6303 32.927C61.6303 48.7811 48.7778 61.6336 32.9237 61.6336C17.0696 61.6336 4.21704 48.7811 4.21704 32.927C4.21704 17.0729 17.0696 4.22034 32.9237 4.22034C48.7778 4.22034 61.6303 17.0729 61.6303 32.927Z" fill="white"/>
</mask>
<g mask="url(#mask0_308_17143)">
<path d="M61.6236 4.22034H4.21704V61.6336H61.6236V4.22034Z" fill="#FF2B00"/>
<path d="M61.6238 42.4958H4.21716V61.6336H61.6238V42.4958Z" fill="#FFBF00"/>
<path d="M61.6236 4.22034H4.21704V23.3581H61.6236V4.22034Z" fill="#404040"/>
</g>
<g style="mix-blend-mode:screen" opacity="0.8">
<path d="M54.452 36.5062C59.3942 31.5707 57.7759 21.9414 50.8393 15.0115C43.9027 8.07488 34.2801 6.45657 29.3446 11.3988C24.409 16.3411 26.0274 25.9637 32.9572 32.8935C39.8939 39.8301 49.5165 41.4485 54.452 36.5062Z" fill="white"/>
<path d="M54.452 36.5062C59.3942 31.5707 57.7759 21.9414 50.8393 15.0115C43.9027 8.07488 34.2801 6.45657 29.3446 11.3988C24.409 16.3411 26.0274 25.9637 32.9572 32.8935C39.8939 39.8301 49.5165 41.4485 54.452 36.5062Z" fill="black"/>
</g>
<g style="mix-blend-mode:screen" opacity="0.65">
<path d="M32.9239 58.2695C46.8978 58.2695 58.2663 46.901 58.2663 32.927C58.2663 18.9531 46.8978 7.57788 32.9239 7.57788C18.9499 7.57788 7.57471 18.9531 7.57471 32.927C7.57471 46.901 18.9432 58.2695 32.9171 58.2695H32.9239Z" fill="white"/>
<path d="M32.9239 58.2695C46.8978 58.2695 58.2663 46.901 58.2663 32.927C58.2663 18.9531 46.8978 7.57788 32.9239 7.57788C18.9499 7.57788 7.57471 18.9531 7.57471 32.927C7.57471 46.901 18.9432 58.2695 32.9171 58.2695H32.9239Z" fill="black"/>
</g>
<path style="mix-blend-mode:color-burn" opacity="0.5" d="M37.5076 61.2611C53.1583 58.729 63.7931 43.9889 61.2611 28.3382C58.729 12.6875 43.9889 2.05266 28.3382 4.58473C12.6874 7.11679 2.05264 21.8569 4.58471 37.5076C7.11677 53.1584 21.8569 63.7931 37.5076 61.2611Z" fill="url(#paint0_radial_308_17143)"/>
<path style="mix-blend-mode:multiply" opacity="0.5" d="M37.5076 61.2611C53.1583 58.729 63.7931 43.9889 61.2611 28.3382C58.729 12.6875 43.9889 2.05266 28.3382 4.58473C12.6874 7.11679 2.05264 21.8569 4.58471 37.5076C7.11677 53.1584 21.8569 63.7931 37.5076 61.2611Z" fill="url(#paint1_radial_308_17143)"/>
<g style="mix-blend-mode:overlay" opacity="0.2">
<mask id="mask1_308_17143" style="mask-type:luminance" maskUnits="userSpaceOnUse" x="4" y="4" width="58" height="58">
<path d="M61.6303 32.927C61.6303 48.7811 48.7778 61.6336 32.9237 61.6336C17.0696 61.6336 4.21704 48.7811 4.21704 32.927C4.21704 17.0729 17.0696 4.22034 32.9237 4.22034C48.7778 4.22034 61.6303 17.0729 61.6303 32.927Z" fill="white"/>
</mask>
<g mask="url(#mask1_308_17143)">
<path d="M61.6236 4.22034H4.21704V61.6336H61.6236V4.22034Z" fill="#FF210D"/>
<path d="M61.6238 42.4958H4.21716V61.6336H61.6238V42.4958Z" fill="#FFBF00"/>
<path d="M61.6236 4.22034H4.21704V23.3581H61.6236V4.22034Z" fill="#404040"/>
</g>
</g>
<defs>
<radialGradient id="paint0_radial_308_17143" cx="0" cy="0" r="1" gradientUnits="userSpaceOnUse" gradientTransform="translate(32.9186 32.9228) scale(28.7067)">
<stop offset="0.85" stop-color="white"/>
<stop offset="1" stop-color="#220504"/>
</radialGradient>
<radialGradient id="paint1_radial_308_17143" cx="0" cy="0" r="1" gradientUnits="userSpaceOnUse" gradientTransform="translate(32.9186 32.9228) scale(28.7067)">
<stop offset="0.85" stop-color="white"/>
<stop offset="1"/>
</radialGradient>
</defs>
</svg>
