<svg width="60" height="60" viewBox="0 0 60 60" fill="none" xmlns="http://www.w3.org/2000/svg">
<g filter="url(#filter0_i_308_17333)">
<path d="M60 30C60 46.5684 46.5684 60 30 60C13.4316 60 0 46.5684 0 30C1.3043 30 30 26.087 30 26.087L60 30Z" fill="#D80027"/>
<path d="M0 30C0 13.4316 13.4316 0 30 0C46.5684 0 60 13.4316 60 30" fill="#0052B4"/>
<path d="M22.1739 20.8696C22.1739 18.7085 20.4219 16.9566 18.2609 16.9566C17.2583 16.9566 16.3446 17.3339 15.6521 17.9537V15.6521H16.9564V13.0434H15.6521V11.7391H13.0434V13.0434H11.7391V15.6521H13.0434V17.9537C12.351 17.3339 11.4373 16.9566 10.4347 16.9566C8.27367 16.9566 6.52172 18.7085 6.52172 20.8696C6.52172 22.0282 7.02574 23.0688 7.82602 23.7854V26.087H20.8695V23.7854C21.67 23.0688 22.1739 22.0282 22.1739 20.8696Z" fill="#FFDA44"/>
</g>
<defs>
<filter id="filter0_i_308_17333" x="0" y="0" width="60" height="64" filterUnits="userSpaceOnUse" color-interpolation-filters="sRGB">
<feFlood flood-opacity="0" result="BackgroundImageFix"/>
<feBlend mode="normal" in="SourceGraphic" in2="BackgroundImageFix" result="shape"/>
<feColorMatrix in="SourceAlpha" type="matrix" values="0 0 0 0 0 0 0 0 0 0 0 0 0 0 0 0 0 0 127 0" result="hardAlpha"/>
<feOffset dy="4"/>
<feGaussianBlur stdDeviation="2"/>
<feComposite in2="hardAlpha" operator="arithmetic" k2="-1" k3="1"/>
<feColorMatrix type="matrix" values="0 0 0 0 0 0 0 0 0 0 0 0 0 0 0 0 0 0 0.25 0"/>
<feBlend mode="normal" in2="shape" result="effect1_innerShadow_308_17333"/>
</filter>
</defs>
</svg>
