<svg width="57" height="57" viewBox="0 0 57 57" fill="none" xmlns="http://www.w3.org/2000/svg">
<mask id="mask0_308_17065" style="mask-type:luminance" maskUnits="userSpaceOnUse" x="0" y="0" width="57" height="57">
<path d="M56.8459 28.2091C56.8459 43.7931 44.1251 56.4182 28.423 56.4182C12.7208 56.4182 0 43.7931 0 28.2091C0 12.625 12.7208 0 28.423 0C44.1251 0 56.8459 12.625 56.8459 28.2091Z" fill="white"/>
</mask>
<g mask="url(#mask0_308_17065)">
<path d="M56.8459 0H-0.185547V56.4182H56.8459V0Z" fill="#FF0600"/>
<path d="M42.5878 0H14.0721V56.4182H42.5878V0Z" fill="white"/>
<path d="M16.9345 27.7092L15.6757 28.301L21.7445 33.2327C21.983 33.4168 22.1023 33.7587 22.0228 34.0612L21.4928 35.7971C23.5864 35.5604 25.4547 35.1922 27.5484 34.9686C27.7339 34.9423 28.0386 35.2579 28.0386 35.4683L27.7604 41.8466H28.7807L28.6217 35.4815C28.6217 35.2711 28.9 34.9554 29.0855 34.9686C31.1791 35.1922 33.0474 35.5472 35.1411 35.7971L34.611 34.0612C34.5315 33.7587 34.6508 33.4168 34.8893 33.2327L40.9582 28.301L39.6994 27.7092C39.1428 27.5119 39.3018 27.1963 39.5006 26.4467L40.4281 23.08L36.9034 23.8165C36.5589 23.8691 36.3336 23.6455 36.2806 23.4351L35.8301 21.857L33.0342 24.9738C32.6367 25.4735 31.8284 25.4735 32.0801 24.3162L33.2727 18.0037L31.6694 18.8322C31.2188 19.0821 30.7683 19.1215 30.5165 18.6744L28.3037 14.5581L26.0908 18.6744C25.839 19.1215 25.3885 19.0821 24.938 18.8322L23.3346 18.0037L24.5272 24.3162C24.779 25.4735 23.9707 25.4735 23.5731 24.9738L20.7772 21.857L20.3267 23.4351C20.2737 23.6455 20.0484 23.8559 19.7039 23.8165L16.1792 23.08L17.1067 26.4467C17.3055 27.1963 17.4645 27.5119 16.908 27.7092H16.9345Z" fill="#FF0600"/>
</g>
<g style="mix-blend-mode:screen" opacity="0.8">
<path d="M46.1525 10.6129C53.0164 17.4251 54.6197 26.8808 49.7302 31.7335C44.8407 36.5863 35.3133 34.995 28.4494 28.1827C21.5855 21.3705 19.9822 11.9148 24.8717 7.06207C29.7612 2.20932 39.2886 3.8006 46.1525 10.6129Z" fill="white"/>
<path d="M46.1525 10.6129C53.0164 17.4251 54.6197 26.8808 49.7302 31.7335C44.8407 36.5863 35.3133 34.995 28.4494 28.1827C21.5855 21.3705 19.9822 11.9148 24.8717 7.06207C29.7612 2.20932 39.2886 3.8006 46.1525 10.6129Z" fill="black"/>
</g>
<g style="mix-blend-mode:screen" opacity="0.65">
<path d="M3.32605 28.2091C3.32605 41.9388 14.5892 53.1172 28.4231 53.1172C42.2569 53.1172 53.5201 41.9388 53.5201 28.2091C53.5201 14.4793 42.2569 3.3009 28.4231 3.3009C14.5892 3.3009 3.32605 14.4793 3.32605 28.2091Z" fill="white"/>
<path d="M3.32605 28.2091C3.32605 41.9388 14.5892 53.1172 28.4231 53.1172C42.2569 53.1172 53.5201 41.9388 53.5201 28.2091C53.5201 14.4793 42.2569 3.3009 28.4231 3.3009C14.5892 3.3009 3.32605 14.4793 3.32605 28.2091Z" fill="black"/>
</g>
<path style="mix-blend-mode:color-burn" opacity="0.5" d="M56.8459 28.2091C56.8459 43.7931 44.1251 56.4182 28.423 56.4182C12.7208 56.4182 0 43.7931 0 28.2091C0 12.625 12.7208 0 28.423 0C44.1251 0 56.8459 12.625 56.8459 28.2091Z" fill="url(#paint0_radial_308_17065)"/>
<path style="mix-blend-mode:multiply" opacity="0.45" d="M56.8459 28.2091C56.8459 43.7931 44.1251 56.4182 28.423 56.4182C12.7208 56.4182 0 43.7931 0 28.2091C0 12.625 12.7208 0 28.423 0C44.1251 0 56.8459 12.625 56.8459 28.2091Z" fill="url(#paint1_radial_308_17065)"/>
<g style="mix-blend-mode:overlay" opacity="0.3">
<mask id="mask1_308_17065" style="mask-type:luminance" maskUnits="userSpaceOnUse" x="0" y="0" width="57" height="57">
<path d="M56.8459 28.2091C56.8459 43.7931 44.1251 56.4182 28.423 56.4182C12.7208 56.4182 0 43.7931 0 28.2091C0 12.625 12.7208 0 28.423 0C44.1251 0 56.8459 12.625 56.8459 28.2091Z" fill="white"/>
</mask>
<g mask="url(#mask1_308_17065)">
<path d="M56.8459 0H-0.185547V56.4182H56.8459V0Z" fill="#FF0600"/>
<path d="M42.5878 0H14.0721V56.4182H42.5878V0Z" fill="#F5F5F5"/>
<path d="M16.9345 27.7092L15.6757 28.301L21.7445 33.2327C21.983 33.4168 22.1023 33.7587 22.0228 34.0612L21.4928 35.7971C23.5864 35.5604 25.4547 35.1922 27.5484 34.9686C27.7339 34.9423 28.0386 35.2579 28.0386 35.4683L27.7604 41.8466H28.7807L28.6217 35.4815C28.6217 35.2711 28.9 34.9554 29.0855 34.9686C31.1791 35.1922 33.0474 35.5472 35.1411 35.7971L34.611 34.0612C34.5315 33.7587 34.6508 33.4168 34.8893 33.2327L40.9582 28.301L39.6994 27.7092C39.1428 27.5119 39.3018 27.1963 39.5006 26.4467L40.4281 23.08L36.9034 23.8165C36.5589 23.8691 36.3336 23.6455 36.2806 23.4351L35.8301 21.857L33.0342 24.9738C32.6367 25.4735 31.8284 25.4735 32.0801 24.3162L33.2727 18.0037L31.6694 18.8322C31.2188 19.0821 30.7683 19.1215 30.5165 18.6744L28.3037 14.5581L26.0908 18.6744C25.839 19.1215 25.3885 19.0821 24.938 18.8322L23.3346 18.0037L24.5272 24.3162C24.779 25.4735 23.9707 25.4735 23.5731 24.9738L20.7772 21.857L20.3267 23.4351C20.2737 23.6455 20.0484 23.8559 19.7039 23.8165L16.1792 23.08L17.1067 26.4467C17.3055 27.1963 17.4645 27.5119 16.908 27.7092H16.9345Z" fill="#FF0600"/>
</g>
</g>
<defs>
<radialGradient id="paint0_radial_308_17065" cx="0" cy="0" r="1" gradientUnits="userSpaceOnUse" gradientTransform="translate(28.4163 28.1959) scale(28.4296 28.2157)">
<stop offset="0.85" stop-color="white"/>
<stop offset="1"/>
</radialGradient>
<radialGradient id="paint1_radial_308_17065" cx="0" cy="0" r="1" gradientUnits="userSpaceOnUse" gradientTransform="translate(28.4163 28.1959) scale(28.4296 28.2157)">
<stop offset="0.85" stop-color="white"/>
<stop offset="1"/>
</radialGradient>
</defs>
</svg>
