<svg width="60" height="60" viewBox="0 0 60 60" fill="none" xmlns="http://www.w3.org/2000/svg">
<mask id="mask0_308_15924" style="mask-type:luminance" maskUnits="userSpaceOnUse" x="0" y="0" width="60" height="60">
<path d="M30 60C46.5684 60 60 46.5684 60 30C60 13.4316 46.5684 0 30 0C13.4316 0 0 13.4316 0 30C0 46.5684 13.4316 60 30 60Z" fill="white"/>
</mask>
<g mask="url(#mask0_308_15924)">
<path d="M60 0H0V59.993H60V0Z" fill="#F2F2F2"/>
<path d="M60.0002 0H40.0002V59.993H60.0002V0Z" fill="#FF210D"/>
<path d="M20 0H0V59.993H20V0Z" fill="#006AFF"/>
</g>
<g style="mix-blend-mode:screen" opacity="0.8">
<path d="M26.2526 7.50178C21.0947 12.6597 22.786 22.7228 30.0281 29.9649C37.2772 37.2141 47.3333 38.9053 52.4912 33.7404C57.6561 28.5825 55.9649 18.5193 48.7158 11.2772C41.4667 4.0281 31.4105 2.33687 26.2526 7.50178Z" fill="white"/>
<path d="M26.2526 7.50178C21.0947 12.6597 22.786 22.7228 30.0281 29.9649C37.2772 37.2141 47.3333 38.9053 52.4912 33.7404C57.6561 28.5825 55.9649 18.5193 48.7158 11.2772C41.4667 4.0281 31.4105 2.33687 26.2526 7.50178Z" fill="black"/>
</g>
<g style="mix-blend-mode:screen" opacity="0.65">
<path d="M3.50854 30C3.50854 44.6035 15.3892 56.4842 29.9928 56.4842C44.5963 56.4842 56.477 44.6035 56.477 30C56.477 15.3965 44.6033 3.50879 29.9998 3.50879C15.3963 3.50879 3.50854 15.3965 3.50854 30Z" fill="white"/>
<path d="M3.50854 30C3.50854 44.6035 15.3892 56.4842 29.9928 56.4842C44.5963 56.4842 56.477 44.6035 56.477 30C56.477 15.3965 44.6033 3.50879 29.9998 3.50879C15.3963 3.50879 3.50854 15.3965 3.50854 30Z" fill="black"/>
</g>
<path style="mix-blend-mode:color-burn" opacity="0.5" d="M0 30C0 46.5684 13.4316 60 30 60C46.5684 60 60 46.5684 60 30C60 13.4316 46.5684 0 30 0C13.4316 0 0 13.4316 0 30Z" fill="url(#paint0_radial_308_15924)"/>
<path style="mix-blend-mode:multiply" opacity="0.5" d="M0 30C0 46.5684 13.4316 60 30 60C46.5684 60 60 46.5684 60 30C60 13.4316 46.5684 0 30 0C13.4316 0 0 13.4316 0 30Z" fill="url(#paint1_radial_308_15924)"/>
<g style="mix-blend-mode:overlay" opacity="0.2">
<mask id="mask1_308_15924" style="mask-type:luminance" maskUnits="userSpaceOnUse" x="0" y="0" width="60" height="60">
<path d="M30 60C46.5684 60 60 46.5684 60 30C60 13.4316 46.5684 0 30 0C13.4316 0 0 13.4316 0 30C0 46.5684 13.4316 60 30 60Z" fill="white"/>
</mask>
<g mask="url(#mask1_308_15924)">
<path d="M60 0H0V59.993H60V0Z" fill="white"/>
<path d="M60.0002 0H40.0002V59.993H60.0002V0Z" fill="#FF210D"/>
<path d="M20 0H0V59.993H20V0Z" fill="#006AFF"/>
</g>
</g>
<defs>
<radialGradient id="paint0_radial_308_15924" cx="0" cy="0" r="1" gradientUnits="userSpaceOnUse" gradientTransform="translate(30 30) scale(30)">
<stop offset="0.85" stop-color="white"/>
<stop offset="1" stop-color="#220504"/>
</radialGradient>
<radialGradient id="paint1_radial_308_15924" cx="0" cy="0" r="1" gradientUnits="userSpaceOnUse" gradientTransform="translate(30 30) scale(30)">
<stop offset="0.85" stop-color="white"/>
<stop offset="1"/>
</radialGradient>
</defs>
</svg>
