<svg width="61" height="61" viewBox="0 0 61 61" fill="none" xmlns="http://www.w3.org/2000/svg">
<mask id="mask0_308_17269" style="mask-type:luminance" maskUnits="userSpaceOnUse" x="0" y="0" width="61" height="61">
<path d="M60.0989 30.0378C60.0989 13.4516 46.6452 0 30.0565 0C13.4678 0 0 13.4516 0 30.0378C0 46.6239 13.4537 60.0755 30.0424 60.0755C46.6311 60.0755 60.0849 46.6239 60.0849 30.0378H60.0989Z" fill="white"/>
</mask>
<g mask="url(#mask0_308_17269)">
<path d="M75.1552 0H-15.0424V60.1317H75.1552V0Z" fill="#0500B4"/>
<path d="M12.0199 17.6965H2.99451V30.0658H12.0199V17.6965Z" fill="white"/>
<path d="M2.08056 14.2809L-15.0424 26.5237V30.0518H-10.1079L7.015 17.8089L2.08056 14.2809Z" fill="white"/>
<path d="M-0.337452 19.5378L-15.0424 30.0518H-11.7527L2.95217 19.5378H-0.337452Z" fill="#D20521"/>
<path d="M30.0565 26.5377L12.9476 14.2809L8.01318 17.8089L25.122 30.0518H30.0565V26.5377Z" fill="white"/>
<path d="M18.6552 19.5518H15.3656L30.0565 30.0516V27.7043L18.6552 19.5518Z" fill="#D20521"/>
<path d="M30.0565 0H25.1221L7.99915 12.2428L12.9336 15.7709L30.0565 3.52807V0Z" fill="white"/>
<path d="M26.767 0L12.0621 10.5139H15.3518L30.0567 0H26.767Z" fill="#D20521"/>
<path d="M-10.1079 0H-15.0424V3.52807L2.06651 15.7709L7.00094 12.2428L-10.1079 0Z" fill="white"/>
<path d="M3.31769 10.5278H-15.0424V19.5518H3.31769V10.5278Z" fill="white"/>
<path d="M12.0199 0H2.99451V12.3131H12.0199V0Z" fill="white"/>
<path d="M30.0565 10.5278H11.6824V19.5518H30.0565V10.5278Z" fill="white"/>
<path d="M4.7938 0V12.3271H-15.0424V17.7387H4.7938H4.80786V30.0659H10.2203V17.7387H30.0564V12.3271H10.2062V0H4.7938Z" fill="#D20521"/>
<path d="M12.5961 42.2242L12.0619 46.1458L14.7751 43.2784L17.5024 46.1458L16.9541 42.2242L20.8904 41.8869L17.4884 39.8768L19.6814 36.5877L15.9841 37.9793L14.7751 34.2263L13.5661 37.9793L9.8688 36.5877L12.0619 39.8768L8.65979 41.8869L12.5961 42.2242Z" fill="white"/>
<path d="M45.6893 44.7965L45.4222 46.6659L46.7156 45.3025L48.0089 46.6659L47.7559 44.7965L49.6256 44.6419L48.0089 43.6861L49.0493 42.1118L47.292 42.7865L46.7156 40.9873L46.1392 42.7865L44.3819 42.1118L45.4222 43.6861L43.8055 44.6419L45.6893 44.7965Z" fill="white"/>
<path d="M35.23 28.2525L34.9769 30.122L36.2703 28.7586L37.5636 30.122L37.3106 28.2525L39.1803 28.0979L37.5636 27.1421L38.6039 25.5678L36.8467 26.2285L36.2703 24.4434L35.6939 26.2285L33.9366 25.5678L34.9769 27.1421L33.3602 28.0979L35.23 28.2525Z" fill="white"/>
<path d="M45.6893 16.9375L45.4222 18.8069L46.7156 17.4435L48.0089 18.8069L47.7559 16.9375L49.6256 16.7688L48.0089 15.813L49.0493 14.2528L47.292 14.9134L46.7156 13.1283L46.1392 14.9134L44.3819 14.2528L45.4222 15.813L43.8055 16.7688L45.6893 16.9375Z" fill="white"/>
<path d="M54.9678 25.4696L54.7147 27.339L56.0081 25.9756L57.3014 27.339L57.0484 25.4696L58.9181 25.315L57.3014 24.3451L58.3417 22.7849L56.5845 23.4455L56.0081 21.6604L55.4317 23.4455L53.6744 22.7849L54.7147 24.3451L53.098 25.315L54.9678 25.4696Z" fill="white"/>
<path d="M53.4777 31.3169L52.9575 30.0659L52.4514 31.3169L51.1018 31.4153L52.1421 32.2868L51.8188 33.594L52.9575 32.8771L54.1103 33.594L53.7869 32.2868L54.8132 31.4153L53.4777 31.3169Z" fill="white"/>
</g>
<g style="mix-blend-mode:screen" opacity="0.8">
<path d="M52.592 33.6923C57.7654 28.5196 56.0644 18.4555 48.8103 11.1886C41.5563 3.93564 31.4765 2.23486 26.3031 7.40748C21.1297 12.5801 22.8307 22.6442 30.0848 29.9112C37.3388 37.1641 47.4185 38.8649 52.592 33.6923Z" fill="white"/>
<path d="M52.592 33.6923C57.7654 28.5196 56.0644 18.4555 48.8103 11.1886C41.5563 3.93564 31.4765 2.23486 26.3031 7.40748C21.1297 12.5801 22.8307 22.6442 30.0848 29.9112C37.3388 37.1641 47.4185 38.8649 52.592 33.6923Z" fill="black"/>
</g>
<g style="mix-blend-mode:screen" opacity="0.65">
<path d="M56.5844 29.9393C56.5844 15.3069 44.6912 3.41553 30.0566 3.41553C15.422 3.41553 3.52869 15.321 3.52869 29.9393C3.52869 44.5575 15.422 56.463 30.0566 56.463C44.6912 56.463 56.5844 44.5575 56.5844 29.9393Z" fill="white"/>
<path d="M56.5844 29.9393C56.5844 15.3069 44.6912 3.41553 30.0566 3.41553C15.422 3.41553 3.52869 15.321 3.52869 29.9393C3.52869 44.5575 15.422 56.463 30.0566 56.463C44.6912 56.463 56.5844 44.5575 56.5844 29.9393Z" fill="black"/>
</g>
<path style="mix-blend-mode:color-burn" opacity="0.3" d="M30.0568 60.0755C46.6488 60.0755 60.0993 46.6271 60.0993 30.0378C60.0993 13.4484 46.6488 0 30.0568 0C13.4649 0 0.0144043 13.4484 0.0144043 30.0378C0.0144043 46.6271 13.4649 60.0755 30.0568 60.0755Z" fill="url(#paint0_radial_308_17269)"/>
<path style="mix-blend-mode:multiply" opacity="0.45" d="M30.0568 60.0755C46.6488 60.0755 60.0993 46.6271 60.0993 30.0378C60.0993 13.4484 46.6488 0 30.0568 0C13.4649 0 0.0144043 13.4484 0.0144043 30.0378C0.0144043 46.6271 13.4649 60.0755 30.0568 60.0755Z" fill="url(#paint1_radial_308_17269)"/>
<g style="mix-blend-mode:overlay" opacity="0.3">
<mask id="mask1_308_17269" style="mask-type:luminance" maskUnits="userSpaceOnUse" x="0" y="0" width="61" height="61">
<path d="M60.0989 30.0378C60.0989 13.4516 46.6452 0 30.0565 0C13.4678 0 0 13.4516 0 30.0378C0 46.6239 13.4537 60.0755 30.0424 60.0755C46.6311 60.0755 60.0849 46.6239 60.0849 30.0378H60.0989Z" fill="white"/>
</mask>
<g mask="url(#mask1_308_17269)">
<path d="M75.1552 0H-15.0424V60.1317H75.1552V0Z" fill="#0500B4"/>
<path d="M12.0199 17.6965H2.99451V30.0658H12.0199V17.6965Z" fill="white"/>
<path d="M2.08056 14.2809L-15.0424 26.5237V30.0518H-10.1079L7.015 17.8089L2.08056 14.2809Z" fill="white"/>
<path d="M-0.337452 19.5378L-15.0424 30.0518H-11.7527L2.95217 19.5378H-0.337452Z" fill="#D20521"/>
<path d="M30.0565 26.5377L12.9476 14.2809L8.01318 17.8089L25.122 30.0518H30.0565V26.5377Z" fill="white"/>
<path d="M18.6552 19.5518H15.3656L30.0565 30.0516V27.7043L18.6552 19.5518Z" fill="#D20521"/>
<path d="M30.0565 0H25.1221L7.99915 12.2428L12.9336 15.7709L30.0565 3.52807V0Z" fill="white"/>
<path d="M26.767 0L12.0621 10.5139H15.3518L30.0567 0H26.767Z" fill="#D20521"/>
<path d="M-10.1079 0H-15.0424V3.52807L2.06651 15.7709L7.00094 12.2428L-10.1079 0Z" fill="white"/>
<path d="M3.31769 10.5278H-15.0424V19.5518H3.31769V10.5278Z" fill="white"/>
<path d="M12.0199 0H2.99451V12.3131H12.0199V0Z" fill="white"/>
<path d="M30.0565 10.5278H11.6824V19.5518H30.0565V10.5278Z" fill="white"/>
<path d="M4.7938 0V12.3271H-15.0424V17.7387H4.7938H4.80786V30.0659H10.2203V17.7387H30.0564V12.3271H10.2062V0H4.7938Z" fill="#D20521"/>
<path d="M12.5961 42.2242L12.0619 46.1458L14.7751 43.2784L17.5024 46.1458L16.9541 42.2242L20.8904 41.8869L17.4884 39.8768L19.6814 36.5877L15.9841 37.9793L14.7751 34.2263L13.5661 37.9793L9.8688 36.5877L12.0619 39.8768L8.65979 41.8869L12.5961 42.2242Z" fill="white"/>
<path d="M45.6893 44.7965L45.4222 46.6659L46.7156 45.3025L48.0089 46.6659L47.7559 44.7965L49.6256 44.6419L48.0089 43.6861L49.0493 42.1118L47.292 42.7865L46.7156 40.9873L46.1392 42.7865L44.3819 42.1118L45.4222 43.6861L43.8055 44.6419L45.6893 44.7965Z" fill="white"/>
<path d="M35.23 28.2525L34.9769 30.122L36.2703 28.7586L37.5636 30.122L37.3106 28.2525L39.1803 28.0979L37.5636 27.1421L38.6039 25.5678L36.8467 26.2285L36.2703 24.4434L35.6939 26.2285L33.9366 25.5678L34.9769 27.1421L33.3602 28.0979L35.23 28.2525Z" fill="white"/>
<path d="M45.6893 16.9375L45.4222 18.8069L46.7156 17.4435L48.0089 18.8069L47.7559 16.9375L49.6256 16.7688L48.0089 15.813L49.0493 14.2528L47.292 14.9134L46.7156 13.1283L46.1392 14.9134L44.3819 14.2528L45.4222 15.813L43.8055 16.7688L45.6893 16.9375Z" fill="white"/>
<path d="M54.9678 25.4696L54.7147 27.339L56.0081 25.9756L57.3014 27.339L57.0484 25.4696L58.9181 25.315L57.3014 24.3451L58.3417 22.7849L56.5845 23.4455L56.0081 21.6604L55.4317 23.4455L53.6744 22.7849L54.7147 24.3451L53.098 25.315L54.9678 25.4696Z" fill="white"/>
<path d="M53.4777 31.3169L52.9575 30.0659L52.4514 31.3169L51.1018 31.4153L52.1421 32.2868L51.8188 33.594L52.9575 32.8771L54.1103 33.594L53.7869 32.2868L54.8132 31.4153L53.4777 31.3169Z" fill="white"/>
</g>
</g>
<defs>
<radialGradient id="paint0_radial_308_17269" cx="0" cy="0" r="1" gradientUnits="userSpaceOnUse" gradientTransform="translate(30.0568 30.0378) scale(30.0424 30.0378)">
<stop offset="0.85" stop-color="white"/>
<stop offset="1"/>
</radialGradient>
<radialGradient id="paint1_radial_308_17269" cx="0" cy="0" r="1" gradientUnits="userSpaceOnUse" gradientTransform="translate(30.0568 30.0378) scale(30.0424 30.0378)">
<stop offset="0.85" stop-color="white"/>
<stop offset="1"/>
</radialGradient>
</defs>
</svg>
