<svg width="60" height="60" viewBox="0 0 60 60" fill="none" xmlns="http://www.w3.org/2000/svg">
<mask id="mask0_308_17038" style="mask-type:luminance" maskUnits="userSpaceOnUse" x="0" y="0" width="60" height="60">
<path d="M60 29.9941C60 46.5626 46.5626 60 29.9941 60C13.4256 60 0 46.5744 0 29.9941C0 13.4137 13.4374 0 29.9941 0C46.5507 0 60 13.4256 60 29.9941Z" fill="white"/>
</mask>
<g mask="url(#mask0_308_17038)">
<path d="M60 0H0V60H60V0Z" fill="#F3F4F4"/>
<path d="M30.0058 15.9751C37.7504 15.9751 44.0362 22.2491 44.0362 30.0055C44.0362 37.762 37.7623 44.036 30.0058 44.036C22.2493 44.036 15.9753 37.7502 15.9753 30.0055C15.9753 22.2609 22.2612 15.9751 30.0058 15.9751Z" fill="#DB0012"/>
</g>
<g style="mix-blend-mode:screen" opacity="0.8">
<path d="M48.7212 11.2786C55.9677 18.5251 57.6637 28.5824 52.5046 33.7415C47.3455 38.9007 37.2881 37.2047 30.0416 29.9582C22.7952 22.7117 21.0992 12.6544 26.2583 7.49525C31.4174 2.33613 41.4747 4.02025 48.7212 11.2786Z" fill="white"/>
<path d="M48.7212 11.2786C55.9677 18.5251 57.6637 28.5824 52.5046 33.7415C47.3455 38.9007 37.2881 37.2047 30.0416 29.9582C22.7952 22.7117 21.0992 12.6544 26.2583 7.49525C31.4174 2.33613 41.4747 4.02025 48.7212 11.2786Z" fill="black"/>
</g>
<g style="mix-blend-mode:screen" opacity="0.65">
<path d="M3.51062 29.9941C3.51062 44.6057 15.3944 56.4776 29.9941 56.4776C44.5938 56.4776 56.4776 44.5938 56.4776 29.9941C56.4776 15.3944 44.6057 3.51062 30.006 3.51062C15.4063 3.51062 3.51062 15.3944 3.51062 29.9941Z" fill="white"/>
<path d="M3.51062 29.9941C3.51062 44.6057 15.3944 56.4776 29.9941 56.4776C44.5938 56.4776 56.4776 44.5938 56.4776 29.9941C56.4776 15.3944 44.6057 3.51062 30.006 3.51062C15.4063 3.51062 3.51062 15.3944 3.51062 29.9941Z" fill="black"/>
</g>
<path style="mix-blend-mode:color-burn" opacity="0.5" d="M60 29.9941C60 46.5626 46.5744 60 30.0059 60C13.4374 60 0 46.5744 0 29.9941C0 13.4137 13.4374 0 30.0059 0C46.5744 0 60 13.4256 60 29.9941Z" fill="url(#paint0_radial_308_17038)"/>
<path style="mix-blend-mode:multiply" opacity="0.45" d="M60 29.9941C60 46.5626 46.5744 60 30.0059 60C13.4374 60 0 46.5744 0 29.9941C0 13.4137 13.4374 0 30.0059 0C46.5744 0 60 13.4256 60 29.9941Z" fill="url(#paint1_radial_308_17038)"/>
<g style="mix-blend-mode:overlay" opacity="0.3">
<mask id="mask1_308_17038" style="mask-type:luminance" maskUnits="userSpaceOnUse" x="0" y="0" width="60" height="60">
<path d="M60 29.9941C60 46.5626 46.5626 60 29.9941 60C13.4256 60 0 46.5744 0 29.9941C0 13.4137 13.4374 0 29.9941 0C46.5507 0 60 13.4256 60 29.9941Z" fill="white"/>
</mask>
<g mask="url(#mask1_308_17038)">
<path d="M60 0H0V60H60V0Z" fill="white"/>
<path d="M30.0058 15.9751C37.7504 15.9751 44.0362 22.2491 44.0362 30.0055C44.0362 37.762 37.7623 44.036 30.0058 44.036C22.2493 44.036 15.9753 37.7502 15.9753 30.0055C15.9753 22.2609 22.2612 15.9751 30.0058 15.9751Z" fill="#DB0012"/>
</g>
</g>
<defs>
<radialGradient id="paint0_radial_308_17038" cx="0" cy="0" r="1" gradientUnits="userSpaceOnUse" gradientTransform="translate(29.9941 30.0059) scale(30.0059)">
<stop offset="0.85" stop-color="white"/>
<stop offset="1"/>
</radialGradient>
<radialGradient id="paint1_radial_308_17038" cx="0" cy="0" r="1" gradientUnits="userSpaceOnUse" gradientTransform="translate(29.9941 30.0059) scale(30.0059)">
<stop offset="0.85" stop-color="white"/>
<stop offset="1"/>
</radialGradient>
</defs>
</svg>
