<svg width="61" height="60" viewBox="0 0 61 60" fill="none" xmlns="http://www.w3.org/2000/svg">
<mask id="mask0_308_16170" style="mask-type:luminance" maskUnits="userSpaceOnUse" x="0" y="0" width="61" height="60">
<path d="M60.0085 30C60.0085 13.4315 46.5771 1.7083e-06 30.0085 2.45773e-06C13.44 3.20716e-06 0.00854295 13.4315 0.00854365 30C0.00854435 46.5685 13.44 60 30.0085 60C46.5771 60 60.0085 46.5685 60.0085 30Z" fill="white"/>
</mask>
<g mask="url(#mask0_308_16170)">
<path d="M60.0176 -0.00927734H-0.000244141V60.0086H60.0176V-0.00927734Z" fill="#004CE6"/>
<path d="M60.3035 4.31201H53.5737L0.0930176 49.9471V55.6874H6.82284L60.3035 10.0524V4.31201Z" fill="white"/>
<path d="M60.3035 48.8101L6.82284 5.77148H0.0930176V11.189L53.5737 54.2276H60.3035V48.8101Z" fill="white"/>
<path d="M20.1632 38.0737L0.0930176 54.2281H4.57723L24.6474 38.0737H20.1632Z" fill="#E60000"/>
<path d="M55.8194 5.77148L35.7422 21.9259H40.2334L60.3036 5.77148H55.8194Z" fill="#E60000"/>
<path d="M44.7174 38.0737H40.2332L60.3033 54.2281V50.6141L44.7174 38.0737Z" fill="#E60000"/>
<path d="M0.0930176 5.77148V9.38552L15.672 21.9259H20.1632L0.0930176 5.77148Z" fill="#E60000"/>
<path d="M70.3105 21.084H-9.91406V38.9085H70.3105V21.084Z" fill="white"/>
<path d="M36.8787 -0.495117H23.5103V60.4873H36.8787V-0.495117Z" fill="white"/>
<path d="M60.0176 24.8257H-0.000244141V35.1736H60.0176V24.8257Z" fill="#E60000"/>
<path d="M34.2051 -0.495117H26.1841V60.4873H34.2051V-0.495117Z" fill="#E60000"/>
</g>
<g style="mix-blend-mode:screen" opacity="0.8">
<path d="M52.5071 33.7443C57.672 28.5864 55.9808 18.5232 48.7317 11.2811C41.4825 4.032 31.4264 2.34078 26.2685 7.50569C21.1106 12.6706 22.8018 22.7267 30.0439 29.9688C37.2931 37.218 47.3492 38.9092 52.5071 33.7443Z" fill="white"/>
<path d="M52.5071 33.7443C57.672 28.5864 55.9808 18.5232 48.7317 11.2811C41.4825 4.032 31.4264 2.34078 26.2685 7.50569C21.1106 12.6706 22.8018 22.7267 30.0439 29.9688C37.2931 37.218 47.3492 38.9092 52.5071 33.7443Z" fill="black"/>
</g>
<g style="mix-blend-mode:screen" opacity="0.65">
<path d="M56.4931 29.9964C56.4931 15.3929 44.6124 3.51221 30.0089 3.51221C15.4054 3.51221 3.52466 15.3929 3.52466 29.9964C3.52466 44.5999 15.4054 56.4806 30.0089 56.4806C44.6124 56.4806 56.4931 44.5999 56.4931 29.9964Z" fill="white"/>
<path d="M56.4931 29.9964C56.4931 15.3929 44.6124 3.51221 30.0089 3.51221C15.4054 3.51221 3.52466 15.3929 3.52466 29.9964C3.52466 44.5999 15.4054 56.4806 30.0089 56.4806C44.6124 56.4806 56.4931 44.5999 56.4931 29.9964Z" fill="black"/>
</g>
<path style="mix-blend-mode:color-burn" opacity="0.5" d="M60.0085 30C60.0085 13.4315 46.5771 1.7083e-06 30.0085 2.45773e-06C13.44 3.20716e-06 0.00854295 13.4315 0.00854365 30C0.00854435 46.5685 13.44 60 30.0085 60C46.5771 60 60.0085 46.5685 60.0085 30Z" fill="url(#paint0_radial_308_16170)"/>
<defs>
<radialGradient id="paint0_radial_308_16170" cx="0" cy="0" r="1" gradientUnits="userSpaceOnUse" gradientTransform="translate(30.0083 29.9965) rotate(-45) scale(30)">
<stop offset="0.85" stop-color="white"/>
<stop offset="1" stop-color="#220504"/>
</radialGradient>
</defs>
</svg>
