<svg width="60" height="60" viewBox="0 0 60 60" fill="none" xmlns="http://www.w3.org/2000/svg">
<path d="M0 29.8654C0 46.3595 13.3713 59.7308 29.8654 59.7308C46.3595 59.7308 59.7308 46.3595 59.7308 29.8654C59.7308 13.3713 46.3595 0 29.8654 0C13.3713 0 0 13.3713 0 29.8654Z" fill="#FF210D"/>
<path d="M46.604 24.8075H13.1268V34.9163H46.604V24.8075Z" fill="white"/>
<path d="M34.8884 13.0151H24.8425V46.7019H34.8884V13.0151Z" fill="white"/>
<g style="mix-blend-mode:screen" opacity="0.8">
<path d="M26.1347 7.46822C21 12.603 22.6836 22.621 29.8932 29.8306C37.1098 37.0472 47.1209 38.7308 52.2556 33.5891C57.3973 28.4543 55.7137 18.4363 48.4971 11.2267C41.2805 4.01012 31.2695 2.32648 26.1347 7.46822Z" fill="white"/>
<path d="M26.1347 7.46822C21 12.603 22.6836 22.621 29.8932 29.8306C37.1098 37.0472 47.1209 38.7308 52.2556 33.5891C57.3973 28.4543 55.7137 18.4363 48.4971 11.2267C41.2805 4.01012 31.2695 2.32648 26.1347 7.46822Z" fill="black"/>
</g>
<g style="mix-blend-mode:screen" opacity="0.65">
<path d="M3.49304 29.8654C3.49304 44.4034 15.3204 56.2308 29.8584 56.2308C44.3964 56.2308 56.2238 44.4034 56.2238 29.8654C56.2238 15.3274 44.4034 3.49304 29.8654 3.49304C15.3274 3.49304 3.49304 15.3274 3.49304 29.8654Z" fill="white"/>
<path d="M3.49304 29.8654C3.49304 44.4034 15.3204 56.2308 29.8584 56.2308C44.3964 56.2308 56.2238 44.4034 56.2238 29.8654C56.2238 15.3274 44.4034 3.49304 29.8654 3.49304C15.3274 3.49304 3.49304 15.3274 3.49304 29.8654Z" fill="black"/>
</g>
<path style="mix-blend-mode:color-burn" opacity="0.5" d="M0 29.8654C0 46.3595 13.3713 59.7308 29.8654 59.7308C46.3595 59.7308 59.7308 46.3595 59.7308 29.8654C59.7308 13.3713 46.3595 0 29.8654 0C13.3713 0 0 13.3713 0 29.8654Z" fill="url(#paint0_radial_308_17122)"/>
<path style="mix-blend-mode:multiply" opacity="0.5" d="M0 29.8654C0 46.3595 13.3713 59.7308 29.8654 59.7308C46.3595 59.7308 59.7308 46.3595 59.7308 29.8654C59.7308 13.3713 46.3595 0 29.8654 0C13.3713 0 0 13.3713 0 29.8654Z" fill="url(#paint1_radial_308_17122)"/>
<g style="mix-blend-mode:overlay" opacity="0.2">
<path d="M0 29.8654C0 46.3595 13.3713 59.7308 29.8654 59.7308C46.3595 59.7308 59.7308 46.3595 59.7308 29.8654C59.7308 13.3713 46.3595 0 29.8654 0C13.3713 0 0 13.3713 0 29.8654Z" fill="#FF210D"/>
<path d="M46.604 24.8075H13.1268V34.9163H46.604V24.8075Z" fill="white"/>
<path d="M34.8884 13.0151H24.8425V46.7019H34.8884V13.0151Z" fill="white"/>
</g>
<defs>
<radialGradient id="paint0_radial_308_17122" cx="0" cy="0" r="1" gradientUnits="userSpaceOnUse" gradientTransform="translate(29.8654 29.8654) scale(29.8654)">
<stop offset="0.85" stop-color="white"/>
<stop offset="1" stop-color="#220504"/>
</radialGradient>
<radialGradient id="paint1_radial_308_17122" cx="0" cy="0" r="1" gradientUnits="userSpaceOnUse" gradientTransform="translate(29.8654 29.8654) scale(29.8654)">
<stop offset="0.85" stop-color="white"/>
<stop offset="1"/>
</radialGradient>
</defs>
</svg>
