<svg width="57" height="57" viewBox="0 0 57 57" fill="none" xmlns="http://www.w3.org/2000/svg">
<mask id="mask0_308_15727" style="mask-type:luminance" maskUnits="userSpaceOnUse" x="0" y="0" width="57" height="57">
<path d="M56.4182 28.2091C56.4182 43.7931 43.7931 56.4182 28.2091 56.4182C12.625 56.4182 0 43.7931 0 28.2091C0 12.625 12.625 0 28.2091 0C43.7931 0 56.4182 12.625 56.4182 28.2091Z" fill="white"/>
</mask>
<g mask="url(#mask0_308_15727)">
<path d="M69.9637 0H-14.6636V56.4182H69.9637V0Z" fill="white"/>
<path d="M69.9637 0H-14.6636V4.33986H69.9637V0Z" fill="#F50010"/>
<path d="M69.9637 8.67969H-14.6636V13.0195H69.9637V8.67969Z" fill="#F50010"/>
<path d="M69.9637 17.3594H-14.6636V21.6992H69.9637V17.3594Z" fill="#F50010"/>
<path d="M69.9637 26.0391H-14.6636V30.3789H69.9637V26.0391Z" fill="#F50010"/>
<path d="M69.9637 34.7188H-14.6636V39.0586H69.9637V34.7188Z" fill="#F50010"/>
<path d="M69.9637 43.3984H-14.6636V47.7383H69.9637V43.3984Z" fill="#F50010"/>
<path d="M69.9637 52.0781H-14.6636V56.418H69.9637V52.0781Z" fill="#F50010"/>
<path d="M28.209 0H-14.6636V30.379H28.209V0Z" fill="#0600CB"/>
<path d="M3.22198 1.2627L2.82745 2.4726H1.56494L2.59073 3.20906L2.19619 4.40581L3.22198 3.66934L4.24776 4.40581L3.85323 3.20906L4.86587 2.4726H3.60336L3.22198 1.2627Z" fill="white"/>
<path d="M10.3236 1.2627L9.94219 2.4726H8.67969L9.69232 3.20906L9.31094 4.40581L10.3236 3.66934L11.3494 4.40581L10.9548 3.20906L11.9806 2.4726H10.7181L10.3236 1.2627Z" fill="white"/>
<path d="M17.4385 1.2627L17.044 2.4726H15.7815L16.8073 3.20906L16.4127 4.40581L17.4385 3.66934L18.4643 4.40581L18.0698 3.20906L19.0824 2.4726H17.8199L17.4385 1.2627Z" fill="white"/>
<path d="M23.9086 3.20906L23.5273 4.40581L24.5399 3.66934L25.5657 4.40581L25.1711 3.20906L26.1969 2.4726H24.9344L24.5399 1.2627L24.1585 2.4726H22.896L23.9086 3.20906Z" fill="white"/>
<path d="M-0.329048 4.31348L-0.72358 5.51023H-1.98608L-0.960299 6.25984L-1.35483 7.45659L-0.329048 6.72013L0.683587 7.45659L0.302205 6.25984L1.31484 5.51023H0.0523336L-0.329048 4.31348Z" fill="white"/>
<path d="M6.77276 4.31348L6.37823 5.51023H5.11572L6.14151 6.25984L5.74698 7.45659L6.77276 6.72013L7.79854 7.45659L7.40401 6.25984L8.4298 5.51023H7.16729L6.77276 4.31348Z" fill="white"/>
<path d="M13.8875 4.31348L13.493 5.51023H12.2305L13.2563 6.25984L12.8617 7.45659L13.8875 6.72013L14.9001 7.45659L14.5188 6.25984L15.5314 5.51023H14.2689L13.8875 4.31348Z" fill="white"/>
<path d="M20.9891 4.31348L20.5945 5.51023H19.332L20.3578 6.25984L19.9764 7.45659L20.9891 6.72013L22.0149 7.45659L21.6203 6.25984L22.6461 5.51023H21.3836L20.9891 4.31348Z" fill="white"/>
<path d="M3.22198 7.36475L2.82745 8.5615H1.56494L2.59073 9.29796L2.19619 10.5079L3.22198 9.75824L4.24776 10.5079L3.85323 9.29796L4.86587 8.5615H3.60336L3.22198 7.36475Z" fill="white"/>
<path d="M10.3236 7.36475L9.94219 8.5615H8.67969L9.69232 9.29796L9.31094 10.5079L10.3236 9.75824L11.3494 10.5079L10.9548 9.29796L11.9806 8.5615H10.7181L10.3236 7.36475Z" fill="white"/>
<path d="M17.4385 7.36475L17.044 8.5615H15.7815L16.8073 9.29796L16.4127 10.5079L17.4385 9.75824L18.4643 10.5079L18.0698 9.29796L19.0824 8.5615H17.8199L17.4385 7.36475Z" fill="white"/>
<path d="M24.5399 7.36475L24.1585 8.5615H22.896L23.9086 9.29796L23.5273 10.5079L24.5399 9.75824L25.5657 10.5079L25.1711 9.29796L26.1969 8.5615H24.9344L24.5399 7.36475Z" fill="white"/>
<path d="M-0.329048 10.4023L-0.72358 11.6122H-1.98608L-0.960299 12.3487L-1.35483 13.5455L-0.329048 12.809L0.683587 13.5455L0.302205 12.3487L1.31484 11.6122H0.0523336L-0.329048 10.4023Z" fill="white"/>
<path d="M6.77276 10.4023L6.37823 11.6122H5.11572L6.14151 12.3487L5.74698 13.5455L6.77276 12.809L7.79854 13.5455L7.40401 12.3487L8.4298 11.6122H7.16729L6.77276 10.4023Z" fill="white"/>
<path d="M13.8875 10.4023L13.493 11.6122H12.2305L13.2563 12.3487L12.8617 13.5455L13.8875 12.809L14.9001 13.5455L14.5188 12.3487L15.5314 11.6122H14.2689L13.8875 10.4023Z" fill="white"/>
<path d="M20.9891 10.4023L20.5945 11.6122H19.332L20.3578 12.3487L19.9764 13.5455L20.9891 12.809L22.0149 13.5455L21.6203 12.3487L22.6461 11.6122H21.3836L20.9891 10.4023Z" fill="white"/>
<path d="M3.22198 13.4536L2.82745 14.6504H1.56494L2.59073 15.4L2.19619 16.5967L3.22198 15.8471L4.24776 16.5967L3.85323 15.4L4.86587 14.6504H3.60336L3.22198 13.4536Z" fill="white"/>
<path d="M10.3236 13.4536L9.94219 14.6504H8.67969L9.69232 15.4L9.31094 16.5967L10.3236 15.8471L11.3494 16.5967L10.9548 15.4L11.9806 14.6504H10.7181L10.3236 13.4536Z" fill="white"/>
<path d="M17.4385 13.4536L17.044 14.6504H15.7815L16.8073 15.4L16.4127 16.5967L17.4385 15.8471L18.4643 16.5967L18.0698 15.4L19.0824 14.6504H17.8199L17.4385 13.4536Z" fill="white"/>
<path d="M24.5399 13.4536L24.1585 14.6504H22.896L23.9086 15.4L23.5273 16.5967L24.5399 15.8471L25.5657 16.5967L25.1711 15.4L26.1969 14.6504H24.9344L24.5399 13.4536Z" fill="white"/>
<path d="M-0.329048 16.4912L-0.723579 17.688H-1.98608L-0.960299 18.4244L-1.35483 19.6212L-0.329048 18.8847L0.696738 19.6212L0.302205 18.4244L1.32799 17.688H0.0654852L-0.329048 16.4912Z" fill="white"/>
<path d="M6.77276 16.4912L6.37823 17.688H5.11572L6.14151 18.4244L5.74698 19.6212L6.77276 18.8847L7.79854 19.6212L7.40401 18.4244L8.4298 17.688H7.16729L6.77276 16.4912Z" fill="white"/>
<path d="M13.8875 16.4912L13.493 17.688H12.2305L13.2563 18.4244L12.8617 19.6212L13.8875 18.8847L14.9133 19.6212L14.5319 18.4244L15.5445 17.688H14.282L13.8875 16.4912Z" fill="white"/>
<path d="M20.9891 16.4912L20.5945 17.688H19.332L20.3578 18.4244L19.9764 19.6212L21.0022 18.8847L22.0149 19.6212L21.6335 18.4244L22.6593 17.688H21.3968L21.0022 16.4912H20.9891Z" fill="white"/>
<path d="M3.22198 19.5425L2.82745 20.7392H1.56494L2.59073 21.4757L2.19619 22.6724L3.22198 21.936L4.24776 22.6724L3.85323 21.4757L4.87902 20.7392H3.61651L3.22198 19.5425Z" fill="white"/>
<path d="M10.3238 19.5425L9.92925 20.7392H8.66675L9.69253 21.4757L9.298 22.6724L10.3238 21.936L11.3496 22.6724L10.955 21.4757L11.9808 20.7392H10.7183L10.3238 19.5425Z" fill="white"/>
<path d="M17.4385 19.5425L17.044 20.7392H15.7815L16.8073 21.4757L16.4127 22.6724L17.4385 21.936L18.4643 22.6724L18.0698 21.4757L19.0956 20.7392H17.8331L17.4385 19.5425Z" fill="white"/>
<path d="M24.5399 19.5425L24.1453 20.7392H22.8828L23.9086 21.4757L23.5141 22.6724L24.5399 21.936L25.5656 22.6724L25.1711 21.4757L26.1969 20.7392H24.9344L24.5399 19.5425Z" fill="white"/>
<path d="M0.0523336 23.79L-0.329048 22.5933L-0.72358 23.79H-1.98608L-0.960299 24.5396L-1.35483 25.7364L-0.329048 24.9868L0.683587 25.7364L0.302205 24.5396L1.31484 23.79H0.0523336Z" fill="white"/>
<path d="M7.16729 23.79L6.77276 22.5933L6.37823 23.79H5.11572L6.14151 24.5396L5.74698 25.7364L6.77276 24.9868L7.79854 25.7364L7.40401 24.5265L8.4298 23.79H7.16729Z" fill="white"/>
<path d="M14.2689 23.79L13.8875 22.5933L13.493 23.79H12.2305L13.2563 24.5396L12.8617 25.7364L13.8875 24.9868L14.9001 25.7364L14.5188 24.5265L15.5314 23.79H14.2689Z" fill="white"/>
<path d="M21.3836 23.79L20.9891 22.5933L20.5945 23.79H19.332L20.3578 24.5396L19.9764 25.7364L20.9891 24.9868L22.0149 25.7364L21.6203 24.5265L22.6461 23.79H21.3836Z" fill="white"/>
<path d="M3.60336 26.8412L3.22198 25.6313L2.82745 26.8412H1.56494L2.59073 27.5777L2.19619 28.7745L3.22198 28.038L4.24776 28.7745L3.85323 27.5777L4.86587 26.8412H3.60336Z" fill="white"/>
<path d="M10.7181 26.8412L10.3236 25.6313L9.94219 26.8412H8.67969L9.69232 27.5777L9.31094 28.7745L10.3236 28.038L11.3494 28.7745L10.9548 27.5777L11.9806 26.8412H10.7181Z" fill="white"/>
<path d="M17.8199 26.8412L17.4385 25.6313L17.044 26.8412H15.7815L16.8073 27.5777L16.4127 28.7745L17.4385 28.038L18.4643 28.7745L18.0698 27.5777L19.0824 26.8412H17.8199Z" fill="white"/>
<path d="M24.9344 26.8412L24.5399 25.6313L24.1585 26.8412H22.896L23.9086 27.5777L23.5273 28.7745L24.5399 28.038L25.5657 28.7745L25.1711 27.5777L26.1969 26.8412H24.9344Z" fill="white"/>
</g>
<g style="mix-blend-mode:screen" opacity="0.8">
<path d="M45.8185 10.5994C52.6307 17.4117 54.222 26.8673 49.3693 31.7201C44.5165 36.5728 35.0609 34.9816 28.2486 28.1693C21.4363 21.357 19.8451 11.9014 24.6978 7.04865C29.5506 2.19589 39.0062 3.78718 45.8185 10.5994Z" fill="white"/>
<path d="M45.8185 10.5994C52.6307 17.4117 54.222 26.8673 49.3693 31.7201C44.5165 36.5728 35.0609 34.9816 28.2486 28.1693C21.4363 21.357 19.8451 11.9014 24.6978 7.04865C29.5506 2.19589 39.0062 3.78718 45.8185 10.5994Z" fill="black"/>
</g>
<g style="mix-blend-mode:screen" opacity="0.65">
<path d="M3.30078 28.2089C3.30078 41.9387 14.4792 53.1171 28.2089 53.1171C41.9387 53.1171 53.1171 41.9387 53.1171 28.2089C53.1171 14.4792 41.9387 3.30078 28.2089 3.30078C14.4792 3.30078 3.30078 14.4792 3.30078 28.2089Z" fill="white"/>
<path d="M3.30078 28.2089C3.30078 41.9387 14.4792 53.1171 28.2089 53.1171C41.9387 53.1171 53.1171 41.9387 53.1171 28.2089C53.1171 14.4792 41.9387 3.30078 28.2089 3.30078C14.4792 3.30078 3.30078 14.4792 3.30078 28.2089Z" fill="black"/>
</g>
<path style="mix-blend-mode:color-burn" opacity="0.5" d="M28.2091 56.4182C43.7885 56.4182 56.4182 43.7885 56.4182 28.2091C56.4182 12.6296 43.7885 0 28.2091 0C12.6296 0 0 12.6296 0 28.2091C0 43.7885 12.6296 56.4182 28.2091 56.4182Z" fill="url(#paint0_radial_308_15727)"/>
<path style="mix-blend-mode:multiply" opacity="0.45" d="M28.2091 56.4182C43.7885 56.4182 56.4182 43.7885 56.4182 28.2091C56.4182 12.6296 43.7885 0 28.2091 0C12.6296 0 0 12.6296 0 28.2091C0 43.7885 12.6296 56.4182 28.2091 56.4182Z" fill="url(#paint1_radial_308_15727)"/>
<g style="mix-blend-mode:overlay" opacity="0.3">
<mask id="mask1_308_15727" style="mask-type:luminance" maskUnits="userSpaceOnUse" x="0" y="0" width="57" height="57">
<path d="M56.4182 28.2091C56.4182 43.7931 43.7931 56.4182 28.2091 56.4182C12.625 56.4182 0 43.7931 0 28.2091C0 12.625 12.625 0 28.2091 0C43.7931 0 56.4182 12.625 56.4182 28.2091Z" fill="white"/>
</mask>
<g mask="url(#mask1_308_15727)">
<path d="M69.9637 0H-14.6636V56.4182H69.9637V0Z" fill="white"/>
<path d="M69.9637 0H-14.6636V4.33986H69.9637V0Z" fill="#F50010"/>
<path d="M69.9637 8.67969H-14.6636V13.0195H69.9637V8.67969Z" fill="#F50010"/>
<path d="M69.9637 17.3594H-14.6636V21.6992H69.9637V17.3594Z" fill="#F50010"/>
<path d="M69.9637 26.0391H-14.6636V30.3789H69.9637V26.0391Z" fill="#F50010"/>
<path d="M69.9637 34.7188H-14.6636V39.0586H69.9637V34.7188Z" fill="#F50010"/>
<path d="M69.9637 43.3984H-14.6636V47.7383H69.9637V43.3984Z" fill="#F50010"/>
<path d="M69.9637 52.0781H-14.6636V56.418H69.9637V52.0781Z" fill="#F50010"/>
<path d="M28.209 0H-14.6636V30.379H28.209V0Z" fill="#0600CB"/>
<path d="M3.22198 1.2627L2.82745 2.4726H1.56494L2.59073 3.20906L2.19619 4.40581L3.22198 3.66934L4.24776 4.40581L3.85323 3.20906L4.86587 2.4726H3.60336L3.22198 1.2627Z" fill="white"/>
<path d="M10.3236 1.2627L9.94219 2.4726H8.67969L9.69232 3.20906L9.31094 4.40581L10.3236 3.66934L11.3494 4.40581L10.9548 3.20906L11.9806 2.4726H10.7181L10.3236 1.2627Z" fill="white"/>
<path d="M17.4385 1.2627L17.044 2.4726H15.7815L16.8073 3.20906L16.4127 4.40581L17.4385 3.66934L18.4643 4.40581L18.0698 3.20906L19.0824 2.4726H17.8199L17.4385 1.2627Z" fill="white"/>
<path d="M23.9086 3.20906L23.5273 4.40581L24.5399 3.66934L25.5657 4.40581L25.1711 3.20906L26.1969 2.4726H24.9344L24.5399 1.2627L24.1585 2.4726H22.896L23.9086 3.20906Z" fill="white"/>
<path d="M-0.329048 4.31348L-0.72358 5.51023H-1.98608L-0.960299 6.25984L-1.35483 7.45659L-0.329048 6.72013L0.683587 7.45659L0.302205 6.25984L1.31484 5.51023H0.0523336L-0.329048 4.31348Z" fill="white"/>
<path d="M6.77276 4.31348L6.37823 5.51023H5.11572L6.14151 6.25984L5.74698 7.45659L6.77276 6.72013L7.79854 7.45659L7.40401 6.25984L8.4298 5.51023H7.16729L6.77276 4.31348Z" fill="white"/>
<path d="M13.8875 4.31348L13.493 5.51023H12.2305L13.2563 6.25984L12.8617 7.45659L13.8875 6.72013L14.9001 7.45659L14.5188 6.25984L15.5314 5.51023H14.2689L13.8875 4.31348Z" fill="white"/>
<path d="M20.9891 4.31348L20.5945 5.51023H19.332L20.3578 6.25984L19.9764 7.45659L20.9891 6.72013L22.0149 7.45659L21.6203 6.25984L22.6461 5.51023H21.3836L20.9891 4.31348Z" fill="white"/>
<path d="M3.22198 7.36475L2.82745 8.5615H1.56494L2.59073 9.29796L2.19619 10.5079L3.22198 9.75824L4.24776 10.5079L3.85323 9.29796L4.86587 8.5615H3.60336L3.22198 7.36475Z" fill="white"/>
<path d="M10.3236 7.36475L9.94219 8.5615H8.67969L9.69232 9.29796L9.31094 10.5079L10.3236 9.75824L11.3494 10.5079L10.9548 9.29796L11.9806 8.5615H10.7181L10.3236 7.36475Z" fill="white"/>
<path d="M17.4385 7.36475L17.044 8.5615H15.7815L16.8073 9.29796L16.4127 10.5079L17.4385 9.75824L18.4643 10.5079L18.0698 9.29796L19.0824 8.5615H17.8199L17.4385 7.36475Z" fill="white"/>
<path d="M24.5399 7.36475L24.1585 8.5615H22.896L23.9086 9.29796L23.5273 10.5079L24.5399 9.75824L25.5657 10.5079L25.1711 9.29796L26.1969 8.5615H24.9344L24.5399 7.36475Z" fill="white"/>
<path d="M-0.329048 10.4023L-0.72358 11.6122H-1.98608L-0.960299 12.3487L-1.35483 13.5455L-0.329048 12.809L0.683587 13.5455L0.302205 12.3487L1.31484 11.6122H0.0523336L-0.329048 10.4023Z" fill="white"/>
<path d="M6.77276 10.4023L6.37823 11.6122H5.11572L6.14151 12.3487L5.74698 13.5455L6.77276 12.809L7.79854 13.5455L7.40401 12.3487L8.4298 11.6122H7.16729L6.77276 10.4023Z" fill="white"/>
<path d="M13.8875 10.4023L13.493 11.6122H12.2305L13.2563 12.3487L12.8617 13.5455L13.8875 12.809L14.9001 13.5455L14.5188 12.3487L15.5314 11.6122H14.2689L13.8875 10.4023Z" fill="white"/>
<path d="M20.9891 10.4023L20.5945 11.6122H19.332L20.3578 12.3487L19.9764 13.5455L20.9891 12.809L22.0149 13.5455L21.6203 12.3487L22.6461 11.6122H21.3836L20.9891 10.4023Z" fill="white"/>
<path d="M3.22198 13.4536L2.82745 14.6504H1.56494L2.59073 15.4L2.19619 16.5967L3.22198 15.8471L4.24776 16.5967L3.85323 15.4L4.86587 14.6504H3.60336L3.22198 13.4536Z" fill="white"/>
<path d="M10.3236 13.4536L9.94219 14.6504H8.67969L9.69232 15.4L9.31094 16.5967L10.3236 15.8471L11.3494 16.5967L10.9548 15.4L11.9806 14.6504H10.7181L10.3236 13.4536Z" fill="white"/>
<path d="M17.4385 13.4536L17.044 14.6504H15.7815L16.8073 15.4L16.4127 16.5967L17.4385 15.8471L18.4643 16.5967L18.0698 15.4L19.0824 14.6504H17.8199L17.4385 13.4536Z" fill="white"/>
<path d="M24.5399 13.4536L24.1585 14.6504H22.896L23.9086 15.4L23.5273 16.5967L24.5399 15.8471L25.5657 16.5967L25.1711 15.4L26.1969 14.6504H24.9344L24.5399 13.4536Z" fill="white"/>
<path d="M-0.329048 16.4912L-0.723579 17.688H-1.98608L-0.960299 18.4244L-1.35483 19.6212L-0.329048 18.8847L0.696738 19.6212L0.302205 18.4244L1.32799 17.688H0.0654852L-0.329048 16.4912Z" fill="white"/>
<path d="M6.77276 16.4912L6.37823 17.688H5.11572L6.14151 18.4244L5.74698 19.6212L6.77276 18.8847L7.79854 19.6212L7.40401 18.4244L8.4298 17.688H7.16729L6.77276 16.4912Z" fill="white"/>
<path d="M13.8875 16.4912L13.493 17.688H12.2305L13.2563 18.4244L12.8617 19.6212L13.8875 18.8847L14.9133 19.6212L14.5319 18.4244L15.5445 17.688H14.282L13.8875 16.4912Z" fill="white"/>
<path d="M20.9891 16.4912L20.5945 17.688H19.332L20.3578 18.4244L19.9764 19.6212L21.0022 18.8847L22.0149 19.6212L21.6335 18.4244L22.6593 17.688H21.3968L21.0022 16.4912H20.9891Z" fill="white"/>
<path d="M3.22198 19.5425L2.82745 20.7392H1.56494L2.59073 21.4757L2.19619 22.6724L3.22198 21.936L4.24776 22.6724L3.85323 21.4757L4.87902 20.7392H3.61651L3.22198 19.5425Z" fill="white"/>
<path d="M10.3238 19.5425L9.92925 20.7392H8.66675L9.69253 21.4757L9.298 22.6724L10.3238 21.936L11.3496 22.6724L10.955 21.4757L11.9808 20.7392H10.7183L10.3238 19.5425Z" fill="white"/>
<path d="M17.4385 19.5425L17.044 20.7392H15.7815L16.8073 21.4757L16.4127 22.6724L17.4385 21.936L18.4643 22.6724L18.0698 21.4757L19.0956 20.7392H17.8331L17.4385 19.5425Z" fill="white"/>
<path d="M24.5399 19.5425L24.1453 20.7392H22.8828L23.9086 21.4757L23.5141 22.6724L24.5399 21.936L25.5656 22.6724L25.1711 21.4757L26.1969 20.7392H24.9344L24.5399 19.5425Z" fill="white"/>
<path d="M0.0523336 23.79L-0.329048 22.5933L-0.72358 23.79H-1.98608L-0.960299 24.5396L-1.35483 25.7364L-0.329048 24.9868L0.683587 25.7364L0.302205 24.5396L1.31484 23.79H0.0523336Z" fill="white"/>
<path d="M7.16729 23.79L6.77276 22.5933L6.37823 23.79H5.11572L6.14151 24.5396L5.74698 25.7364L6.77276 24.9868L7.79854 25.7364L7.40401 24.5265L8.4298 23.79H7.16729Z" fill="white"/>
<path d="M14.2689 23.79L13.8875 22.5933L13.493 23.79H12.2305L13.2563 24.5396L12.8617 25.7364L13.8875 24.9868L14.9001 25.7364L14.5188 24.5265L15.5314 23.79H14.2689Z" fill="white"/>
<path d="M21.3836 23.79L20.9891 22.5933L20.5945 23.79H19.332L20.3578 24.5396L19.9764 25.7364L20.9891 24.9868L22.0149 25.7364L21.6203 24.5265L22.6461 23.79H21.3836Z" fill="white"/>
<path d="M3.60336 26.8412L3.22198 25.6313L2.82745 26.8412H1.56494L2.59073 27.5777L2.19619 28.7745L3.22198 28.038L4.24776 28.7745L3.85323 27.5777L4.86587 26.8412H3.60336Z" fill="white"/>
<path d="M10.7181 26.8412L10.3236 25.6313L9.94219 26.8412H8.67969L9.69232 27.5777L9.31094 28.7745L10.3236 28.038L11.3494 28.7745L10.9548 27.5777L11.9806 26.8412H10.7181Z" fill="white"/>
<path d="M17.8199 26.8412L17.4385 25.6313L17.044 26.8412H15.7815L16.8073 27.5777L16.4127 28.7745L17.4385 28.038L18.4643 28.7745L18.0698 27.5777L19.0824 26.8412H17.8199Z" fill="white"/>
<path d="M24.9344 26.8412L24.5399 25.6313L24.1585 26.8412H22.896L23.9086 27.5777L23.5273 28.7745L24.5399 28.038L25.5657 28.7745L25.1711 27.5777L26.1969 26.8412H24.9344Z" fill="white"/>
</g>
</g>
<defs>
<radialGradient id="paint0_radial_308_15727" cx="0" cy="0" r="1" gradientUnits="userSpaceOnUse" gradientTransform="translate(28.2222 28.2354) scale(28.2157 28.2157)">
<stop offset="0.85" stop-color="white"/>
<stop offset="1"/>
</radialGradient>
<radialGradient id="paint1_radial_308_15727" cx="0" cy="0" r="1" gradientUnits="userSpaceOnUse" gradientTransform="translate(28.2222 28.2354) scale(28.2157 28.2157)">
<stop offset="0.85" stop-color="white"/>
<stop offset="1"/>
</radialGradient>
</defs>
</svg>
