<svg width="22" height="16" viewBox="0 0 22 16" fill="none" xmlns="http://www.w3.org/2000/svg"><g clip-path="url(#a)"><g clip-path="url(#b)"><rect width="22" height="16" rx="2" fill="#1A47B8"/><path fill-rule="evenodd" clip-rule="evenodd" d="M0 0h22v5.5H0V0Z" fill="#fff"/><path fill-rule="evenodd" clip-rule="evenodd" d="M0 5.5h22v5H0v-5Z" fill="#1A47B8"/><path fill-rule="evenodd" clip-rule="evenodd" d="M0 10.5h22V16H0v-5.5Z" fill="#F93939"/><path d="M.25 2C.25 1.034 1.034.25 2 .25h18c.966 0 1.75.784 1.75 1.75v12A1.75 1.75 0 0 1 20 15.75H2A1.75 1.75 0 0 1 .25 14V2Z" stroke="#999" stroke-width=".5"/></g></g><defs><clipPath id="a"><path fill="#fff" d="M0 0h22v16H0z"/></clipPath><clipPath id="b"><rect width="22" height="16" rx="2" fill="#fff"/></clipPath></defs></svg>