<svg width="208" height="76" viewBox="0 0 208 76" fill="none" xmlns="http://www.w3.org/2000/svg">
<g clip-path="url(#clip0_341_3078)">
<path d="M49.9022 46.3407C49.959 48.7699 49.4968 51.183 48.5471 53.4164C47.5974 55.6497 46.1823 57.6512 44.3978 59.285C40.8155 62.8503 35.9849 64.8514 30.9504 64.8557C28.4718 64.9349 26.0029 64.5083 23.692 63.6016C21.3811 62.6948 19.2759 61.3265 17.503 59.579C15.7137 57.9458 14.2797 55.9565 13.2915 53.7367C12.3033 51.5169 11.7823 49.1148 11.7613 46.6818C11.6977 44.2647 12.1504 41.8621 13.0889 39.6368C14.0274 37.4116 15.4297 35.4158 17.2008 33.7847C20.8091 30.2364 25.6568 28.2597 30.6981 28.2811C33.1667 28.2001 35.6266 28.6142 37.9351 29.4994C40.2436 30.3846 42.3546 31.7232 44.1455 33.4375C45.9466 35.0623 47.3886 37.0508 48.3778 39.2737C49.3669 41.4967 49.8812 43.9044 49.8871 46.3407M61.3703 46.2204C61.3691 42.3305 60.5578 38.4842 58.9888 34.9303C57.4199 31.3763 55.1284 28.1938 52.2623 25.5887C49.3829 22.7991 45.9807 20.6161 42.2544 19.1672C38.5282 17.7184 34.5528 17.0328 30.5606 17.1505C23.6854 17.1685 17.0011 19.4313 11.509 23.5998V0L0.012207 0.120304L0.256979 46.8098C0.25014 50.7246 1.06358 54.5968 2.64405 58.1729C4.22453 61.749 6.53642 64.9484 9.42844 67.5618C12.3018 70.3436 15.6951 72.5221 19.411 73.9707C23.127 75.4193 27.0915 76.1091 31.0743 76C35.0633 76.0296 39.0187 75.2624 42.7119 73.7428C46.4051 72.2231 49.763 69.981 52.5917 67.1461C55.4428 64.4832 57.7013 61.2413 59.2184 57.6343C60.7355 54.0274 61.4767 50.1372 61.393 46.2204" fill="white"/>
<path d="M77.2534 14.2344H65.7566V75.854H77.2534V14.2344Z" fill="white"/>
<path d="M77.2534 0H65.7566V11.5875H77.2534V0Z" fill="white"/>
<path d="M131.326 39.2531H95.1127C96.3687 35.431 98.7933 32.108 102.039 29.7606C105.285 27.4133 109.184 26.1622 113.179 26.1869H113.267C117.261 26.16 121.161 27.4103 124.406 29.758C127.652 32.1058 130.073 35.4301 131.326 39.2531ZM143.218 50.8268C143.545 48.956 143.709 47.0599 143.708 45.1603C143.768 41.1187 143.013 37.1069 141.489 33.3679C139.966 29.6289 137.705 26.2405 134.845 23.4077C132.133 20.5555 128.877 18.2854 125.272 16.7338C121.668 15.1822 117.789 14.3811 113.87 14.3786V14.3604H112.578V14.3862C108.659 14.391 104.781 15.1931 101.177 16.7446C97.5724 18.2961 94.3161 20.565 91.6028 23.4153C85.9242 29.196 82.7388 37.002 82.7388 45.1367C82.7388 53.2713 85.9242 61.0773 91.6028 66.858C94.3247 69.6929 97.5839 71.9478 101.187 73.4889C104.79 75.0299 108.664 75.8258 112.578 75.8292V75.8551H113.87V75.8292C117.784 75.8279 121.658 75.033 125.262 73.4918C128.865 71.9506 132.124 69.6946 134.845 66.858C137.525 64.1726 139.687 61.0081 141.219 57.5259H127.621C127.308 57.8853 127.006 58.2523 126.655 58.5995C124.913 60.3903 122.827 61.8055 120.525 62.7592C118.224 63.7129 115.754 64.1851 113.265 64.1473H113.169C109.139 64.1406 105.215 62.8491 101.958 60.4578C98.7015 58.0665 96.2789 54.698 95.0372 50.8344H143.223L143.218 50.8268Z" fill="white"/>
<path d="M145.51 44.7997V75.8463H157.127V44.7997C157.084 42.2615 157.561 39.7417 158.529 37.3979C159.496 35.054 160.933 32.9365 162.749 31.1777C164.515 29.3635 166.629 27.9305 168.962 26.966C171.295 26.0015 173.799 25.5257 176.32 25.5675C178.818 25.5741 181.291 26.077 183.596 27.0473C185.901 28.0177 187.994 29.4366 189.754 31.2229C191.515 33.0091 192.909 35.1276 193.856 37.4572C194.804 39.7869 195.287 42.2819 195.277 44.7997V75.8463H207.011V44.7997C207.009 40.7438 206.213 36.7281 204.669 32.9828C203.124 29.2374 200.862 25.8361 198.01 22.9737C195.159 20.1113 191.776 17.8442 188.054 16.3022C184.332 14.7602 180.344 13.9736 176.32 13.9877C172.273 13.9274 168.256 14.6997 164.515 16.2574C160.774 17.8151 157.388 20.1254 154.563 23.0472C151.654 25.8532 149.351 29.2326 147.794 32.9749C146.238 36.7172 145.463 40.7424 145.517 44.7997" fill="white"/>
</g>
<defs>
<clipPath id="clip0_341_3078">
<rect width="207" height="76" fill="white" transform="translate(0.010498)"/>
</clipPath>
</defs>
</svg>
