<svg width="108" height="40" viewBox="0 0 108 40" fill="none" xmlns="http://www.w3.org/2000/svg">
<g clip-path="url(#clip0_341_3205)">
<path d="M26.5485 24.2801C26.5776 25.5267 26.3409 26.765 25.8546 27.911C25.3682 29.0571 24.6436 30.0842 23.7299 30.9226C21.8954 32.7521 19.4218 33.779 16.8437 33.7812C15.5745 33.8219 14.3102 33.603 13.1268 33.1376C11.9435 32.6723 10.8655 31.9702 9.95759 31.0734C9.04135 30.2353 8.30704 29.2145 7.80099 28.0754C7.29495 26.9363 7.02815 25.7036 7.01744 24.4552C6.98483 23.2148 7.21668 21.9819 7.69727 20.84C8.17786 19.6981 8.89595 18.6739 9.80284 17.8369C11.6506 16.016 14.133 15.0017 16.7145 15.0127C17.9786 14.9711 19.2383 15.1836 20.4204 15.6379C21.6026 16.0921 22.6835 16.779 23.6006 17.6587C24.523 18.4925 25.2613 19.5129 25.7679 20.6536C26.2744 21.7943 26.5377 23.0299 26.5408 24.2801M32.4211 24.2184C32.4204 22.2223 32.005 20.2485 31.2016 18.4248C30.3982 16.601 29.2247 14.9679 27.7571 13.631C26.2826 12.1995 24.5404 11.0793 22.6323 10.3358C20.7241 9.59233 18.6884 9.2405 16.6441 9.30091C13.1235 9.31015 9.70058 10.4713 6.88823 12.6104V0.5L1.00098 0.561735L1.12632 24.5208C1.12282 26.5297 1.53936 28.5168 2.34869 30.3519C3.15801 32.187 4.34188 33.8288 5.82282 35.1699C7.29421 36.5974 9.03182 37.7153 10.9347 38.4586C12.8375 39.202 14.8677 39.556 16.9072 39.5C18.9499 39.5152 20.9753 39.1215 22.8665 38.3417C24.7577 37.5619 26.4772 36.4113 27.9258 34.9565C29.3857 33.59 30.5423 31.9265 31.3191 30.0755C32.096 28.2246 32.4755 26.2283 32.4327 24.2184" fill="white"/>
<path d="M40.5542 7.80469H34.667V39.4253H40.5542V7.80469Z" fill="white"/>
<path d="M40.5542 0.5H34.667V6.4462H40.5542V0.5Z" fill="white"/>
<path d="M68.2435 20.643H49.6997C50.3428 18.6817 51.5845 16.9765 53.2465 15.7719C54.9085 14.5674 56.9055 13.9254 58.9511 13.938H58.996C61.0414 13.9242 63.0386 14.5658 64.7003 15.7706C66.3621 16.9753 67.6021 18.6812 68.2435 20.643ZM74.3335 26.5822C74.501 25.6222 74.5849 24.6492 74.5842 23.6744C74.6147 21.6004 74.2283 19.5417 73.4481 17.623C72.668 15.7043 71.5104 13.9655 70.0455 12.5119C68.6568 11.0482 66.9894 9.88333 65.1437 9.0871C63.2979 8.29088 61.3118 7.87978 59.3047 7.87852V7.86914H58.6431V7.88242C56.6362 7.88485 54.6505 8.29648 52.8049 9.09264C50.9592 9.88879 49.2917 11.0531 47.9023 12.5158C44.9945 15.4822 43.3633 19.4879 43.3633 23.6622C43.3633 27.8366 44.9945 31.8423 47.9023 34.8087C49.2962 36.2635 50.9651 37.4206 52.8102 38.2114C54.6553 39.0022 56.6388 39.4106 58.6431 39.4124V39.4256H59.3047V39.4124C61.3092 39.4117 63.293 39.0038 65.1382 38.2129C66.9835 37.422 68.6523 36.2643 70.0455 34.8087C71.4182 33.4307 72.5251 31.8068 73.3098 30.0199H66.3463C66.1862 30.2043 66.0314 30.3926 65.8519 30.5708C64.9596 31.4898 63.8917 32.216 62.713 32.7054C61.5343 33.1948 60.2694 33.4371 58.9952 33.4177H58.9457C56.8823 33.4142 54.8729 32.7515 53.2052 31.5244C51.5375 30.2973 50.2969 28.5687 49.661 26.5861H74.3358L74.3335 26.5822Z" fill="white"/>
<path d="M75.5072 23.4889V39.4207H81.4556V23.4889C81.4337 22.1864 81.6781 20.8934 82.1734 19.6906C82.6688 18.4878 83.4045 17.4012 84.3346 16.4987C85.239 15.5677 86.3215 14.8324 87.5163 14.3374C88.711 13.8425 89.993 13.5983 91.2842 13.6198C92.5634 13.6231 93.8294 13.8812 95.0098 14.3791C96.1902 14.8771 97.2618 15.6052 98.1634 16.5218C99.065 17.4385 99.7788 18.5256 100.264 19.7211C100.749 20.9165 100.996 22.1969 100.991 23.4889V39.4207H107V23.4889C106.999 21.4076 106.592 19.3469 105.801 17.4249C105.01 15.503 103.851 13.7576 102.391 12.2887C100.931 10.8199 99.1987 9.65646 97.2927 8.86517C95.3867 8.07388 93.3449 7.67027 91.2842 7.67746C89.2117 7.64652 87.1547 8.04283 85.239 8.84218C83.3233 9.64152 81.5892 10.8271 80.1426 12.3264C78.6534 13.7664 77.4736 15.5005 76.6767 17.4209C75.8797 19.3413 75.4827 21.4069 75.5103 23.4889" fill="white"/>
</g>
<defs>
<clipPath id="clip0_341_3205">
<rect width="106" height="39" fill="white" transform="translate(1 0.5)"/>
</clipPath>
</defs>
</svg>
