<svg width="95" height="117" viewBox="0 0 95 117" fill="none" xmlns="http://www.w3.org/2000/svg">
<g clip-path="url(#clip0_639_80979)" filter="url(#filter0_dddd_639_80979)">
<path d="M73.0769 12.0317H21.9231C20.3154 12.0317 19 13.346 19 14.9524V47.0794C19 48.6857 20.3154 50 21.9231 50H73.0769C74.6846 50 76 48.6857 76 47.0794V14.9524C76 13.346 74.6846 12.0317 73.0769 12.0317ZM70.8846 38.3175C67.2454 38.3175 64.3077 41.2527 64.3077 44.8889H30.6923C30.6923 41.2527 27.7546 38.3175 24.1154 38.3175V23.7143C27.7546 23.7143 30.6923 20.779 30.6923 17.1428H64.3077C64.3077 20.779 67.2454 23.7143 70.8846 23.7143V38.3175Z" fill="#3A4DA8"/>
<path d="M32.1538 28.0952C30.5462 28.0952 29.2308 29.4095 29.2308 31.0159C29.2308 32.6222 30.5462 33.9365 32.1538 33.9365C33.7615 33.9365 35.0769 32.6222 35.0769 31.0159C35.0769 29.4095 33.7615 28.0952 32.1538 28.0952ZM68.1077 4H27.1846C25.9715 4 24.9923 4.97841 24.9923 6.19048C24.9923 7.40254 25.9715 8.38095 27.1846 8.38095H68.1077C69.3208 8.38095 70.3 7.40254 70.3 6.19048C70.3 4.97841 69.3208 4 68.1077 4ZM49.3269 23.3784V22.2394C49.3269 21.2317 48.5085 20.414 47.5 20.414C46.4915 20.414 45.6731 21.2317 45.6731 22.2394V23.3346H43.1154C42.1069 23.3346 41.2885 24.1524 41.2885 25.16V36.8425C41.2885 37.8502 42.1069 38.6679 43.1154 38.6679H45.6731V39.7632C45.6731 40.7708 46.4915 41.5886 47.5 41.5886C48.5085 41.5886 49.3269 40.7708 49.3269 39.7632V38.6241C51.7677 38.4343 53.7115 36.4044 53.7115 33.9219C53.7115 32.8121 53.3169 31.8044 52.6738 31.0013C53.3169 30.1981 53.7115 29.1905 53.7115 28.0806C53.7115 25.5835 51.7677 23.5683 49.3269 23.3784ZM48.9615 35.0171H44.9423V32.8267H48.9615C49.5608 32.8267 50.0577 33.3232 50.0577 33.9219C50.0577 34.5206 49.5608 35.0171 48.9615 35.0171ZM48.9615 29.1759H44.9423V26.9854H48.9615C49.5608 26.9854 50.0577 27.4819 50.0577 28.0806C50.0577 28.6794 49.5608 29.1759 48.9615 29.1759ZM62.8462 28.0806C61.2385 28.0806 59.9231 29.3949 59.9231 31.0013C59.9231 32.6076 61.2385 33.9219 62.8462 33.9219C64.4538 33.9219 65.7692 32.6076 65.7692 31.0013C65.7692 29.3949 64.4538 28.0806 62.8462 28.0806Z" fill="#4962D8"/>
</g>
<defs>
<filter id="filter0_dddd_639_80979" x="0" y="0" width="95" height="117" filterUnits="userSpaceOnUse" color-interpolation-filters="sRGB">
<feFlood flood-opacity="0" result="BackgroundImageFix"/>
<feColorMatrix in="SourceAlpha" type="matrix" values="0 0 0 0 0 0 0 0 0 0 0 0 0 0 0 0 0 0 127 0" result="hardAlpha"/>
<feOffset dy="3"/>
<feGaussianBlur stdDeviation="3.5"/>
<feColorMatrix type="matrix" values="0 0 0 0 0.411765 0 0 0 0 0.470588 0 0 0 0 0.764706 0 0 0 0.05 0"/>
<feBlend mode="normal" in2="BackgroundImageFix" result="effect1_dropShadow_639_80979"/>
<feColorMatrix in="SourceAlpha" type="matrix" values="0 0 0 0 0 0 0 0 0 0 0 0 0 0 0 0 0 0 127 0" result="hardAlpha"/>
<feOffset dy="12"/>
<feGaussianBlur stdDeviation="6"/>
<feColorMatrix type="matrix" values="0 0 0 0 0.411765 0 0 0 0 0.470588 0 0 0 0 0.764706 0 0 0 0.04 0"/>
<feBlend mode="normal" in2="effect1_dropShadow_639_80979" result="effect2_dropShadow_639_80979"/>
<feColorMatrix in="SourceAlpha" type="matrix" values="0 0 0 0 0 0 0 0 0 0 0 0 0 0 0 0 0 0 127 0" result="hardAlpha"/>
<feOffset dy="27"/>
<feGaussianBlur stdDeviation="8"/>
<feColorMatrix type="matrix" values="0 0 0 0 0.411765 0 0 0 0 0.470588 0 0 0 0 0.764706 0 0 0 0.03 0"/>
<feBlend mode="normal" in2="effect2_dropShadow_639_80979" result="effect3_dropShadow_639_80979"/>
<feColorMatrix in="SourceAlpha" type="matrix" values="0 0 0 0 0 0 0 0 0 0 0 0 0 0 0 0 0 0 127 0" result="hardAlpha"/>
<feOffset dy="48"/>
<feGaussianBlur stdDeviation="9.5"/>
<feColorMatrix type="matrix" values="0 0 0 0 0.411765 0 0 0 0 0.470588 0 0 0 0 0.764706 0 0 0 0.01 0"/>
<feBlend mode="normal" in2="effect3_dropShadow_639_80979" result="effect4_dropShadow_639_80979"/>
<feBlend mode="normal" in="SourceGraphic" in2="effect4_dropShadow_639_80979" result="shape"/>
</filter>
<clipPath id="clip0_639_80979">
<rect width="57" height="46" fill="white" transform="translate(19 4)"/>
</clipPath>
</defs>
</svg>
