<svg width="100" height="129" viewBox="0 0 100 129" fill="none" xmlns="http://www.w3.org/2000/svg">
<g filter="url(#filter0_dddd_639_81003)">
<path d="M73.746 36.6163L51.035 16.2174C50.4435 15.6951 49.5562 15.6951 48.9803 16.2174L26.2693 36.6163C26.098 36.7587 26.0046 36.9803 26.0046 37.2018V61.1931C26.0046 61.6362 26.3471 61.9843 26.7829 61.9843H42.7538C43.1897 61.9843 43.5321 61.6362 43.5321 61.1931V45.8741C43.5321 44.1333 44.9331 42.709 46.6454 42.709H53.3855C55.0978 42.709 56.4987 44.1333 56.4987 45.8741V61.1931C56.4987 61.6362 56.8412 61.9843 57.277 61.9843H73.2479C73.6838 61.9843 74.0262 61.6362 74.0262 61.1931V37.2018C74.0262 36.9803 73.9328 36.7587 73.7616 36.6163H73.746Z" fill="#3A4DA8"/>
<path d="M80.0038 28.7034L54.1173 5.58249C51.7668 3.47771 48.2489 3.47771 45.8984 5.58249L19.9963 28.7034C18.7199 29.8428 18.6576 31.8368 19.8562 33.0712C20.9614 34.1948 22.7204 34.2422 23.8879 33.1978L47.9376 11.6594C49.1206 10.5991 50.8796 10.5991 52.047 11.6594L76.0967 33.1978C77.2642 34.2422 79.0232 34.1789 80.1284 33.0712C81.327 31.8526 81.2647 29.8428 79.9883 28.7034H80.0038Z" fill="#4962D8"/>
</g>
<defs>
<filter id="filter0_dddd_639_81003" x="-0.00341797" y="0.00390625" width="99.9914" height="128.98" filterUnits="userSpaceOnUse" color-interpolation-filters="sRGB">
<feFlood flood-opacity="0" result="BackgroundImageFix"/>
<feColorMatrix in="SourceAlpha" type="matrix" values="0 0 0 0 0 0 0 0 0 0 0 0 0 0 0 0 0 0 127 0" result="hardAlpha"/>
<feOffset dy="3"/>
<feGaussianBlur stdDeviation="3.5"/>
<feColorMatrix type="matrix" values="0 0 0 0 0.411765 0 0 0 0 0.470588 0 0 0 0 0.764706 0 0 0 0.05 0"/>
<feBlend mode="normal" in2="BackgroundImageFix" result="effect1_dropShadow_639_81003"/>
<feColorMatrix in="SourceAlpha" type="matrix" values="0 0 0 0 0 0 0 0 0 0 0 0 0 0 0 0 0 0 127 0" result="hardAlpha"/>
<feOffset dy="12"/>
<feGaussianBlur stdDeviation="6"/>
<feColorMatrix type="matrix" values="0 0 0 0 0.411765 0 0 0 0 0.470588 0 0 0 0 0.764706 0 0 0 0.04 0"/>
<feBlend mode="normal" in2="effect1_dropShadow_639_81003" result="effect2_dropShadow_639_81003"/>
<feColorMatrix in="SourceAlpha" type="matrix" values="0 0 0 0 0 0 0 0 0 0 0 0 0 0 0 0 0 0 127 0" result="hardAlpha"/>
<feOffset dy="27"/>
<feGaussianBlur stdDeviation="8"/>
<feColorMatrix type="matrix" values="0 0 0 0 0.411765 0 0 0 0 0.470588 0 0 0 0 0.764706 0 0 0 0.03 0"/>
<feBlend mode="normal" in2="effect2_dropShadow_639_81003" result="effect3_dropShadow_639_81003"/>
<feColorMatrix in="SourceAlpha" type="matrix" values="0 0 0 0 0 0 0 0 0 0 0 0 0 0 0 0 0 0 127 0" result="hardAlpha"/>
<feOffset dy="48"/>
<feGaussianBlur stdDeviation="9.5"/>
<feColorMatrix type="matrix" values="0 0 0 0 0.411765 0 0 0 0 0.470588 0 0 0 0 0.764706 0 0 0 0.01 0"/>
<feBlend mode="normal" in2="effect3_dropShadow_639_81003" result="effect4_dropShadow_639_81003"/>
<feBlend mode="normal" in="SourceGraphic" in2="effect4_dropShadow_639_81003" result="shape"/>
</filter>
</defs>
</svg>
