<svg width="102" height="122" viewBox="0 0 102 122" fill="none" xmlns="http://www.w3.org/2000/svg">
<g filter="url(#filter0_dddd_639_81015)">
<path d="M26.7701 43.529V33.3391L23.6539 31.5472V43.4511C22.236 44.0276 21.2233 45.4299 21.2233 47.0503C21.2233 49.2005 22.9683 50.9455 25.1185 50.9455C27.2687 50.9455 29.0137 49.2005 29.0137 47.0503C29.0137 45.4922 28.0945 44.1522 26.7701 43.529Z" fill="#4962D8"/>
<path d="M51.3101 46.3646C50.0948 46.3646 48.895 46.0374 47.8355 45.4454L30.6186 35.5514V43.3108C30.6965 43.3575 30.7744 43.4198 30.8523 43.4666L48.1939 53.4228C50.1104 54.5291 52.4787 54.5291 54.4107 53.4228L71.7523 43.4666C73.6844 42.3603 74.8841 40.2881 74.8841 38.06V33.8843L54.7847 45.4298C53.7251 46.0374 52.5254 46.3491 51.3101 46.3491V46.3646ZM81.4125 20.3288L54.4263 4.82579C53.4603 4.28046 52.4008 4 51.3257 4C50.2506 4 49.1755 4.28046 48.2251 4.82579L21.2077 20.3133C19.151 21.4974 19.151 24.4578 21.2077 25.642L49.7832 42.0487C50.2506 42.3136 50.7803 42.4538 51.3101 42.4538C51.8398 42.4538 52.3696 42.3136 52.837 42.0487L81.4125 25.642C83.4692 24.4578 83.4692 21.4974 81.4125 20.3133V20.3288Z" fill="#3A4DA8"/>
</g>
<defs>
<filter id="filter0_dddd_639_81015" x="0.665161" y="0" width="101.29" height="121.253" filterUnits="userSpaceOnUse" color-interpolation-filters="sRGB">
<feFlood flood-opacity="0" result="BackgroundImageFix"/>
<feColorMatrix in="SourceAlpha" type="matrix" values="0 0 0 0 0 0 0 0 0 0 0 0 0 0 0 0 0 0 127 0" result="hardAlpha"/>
<feOffset dy="3"/>
<feGaussianBlur stdDeviation="3.5"/>
<feColorMatrix type="matrix" values="0 0 0 0 0.411765 0 0 0 0 0.470588 0 0 0 0 0.764706 0 0 0 0.05 0"/>
<feBlend mode="normal" in2="BackgroundImageFix" result="effect1_dropShadow_639_81015"/>
<feColorMatrix in="SourceAlpha" type="matrix" values="0 0 0 0 0 0 0 0 0 0 0 0 0 0 0 0 0 0 127 0" result="hardAlpha"/>
<feOffset dy="12"/>
<feGaussianBlur stdDeviation="6"/>
<feColorMatrix type="matrix" values="0 0 0 0 0.411765 0 0 0 0 0.470588 0 0 0 0 0.764706 0 0 0 0.04 0"/>
<feBlend mode="normal" in2="effect1_dropShadow_639_81015" result="effect2_dropShadow_639_81015"/>
<feColorMatrix in="SourceAlpha" type="matrix" values="0 0 0 0 0 0 0 0 0 0 0 0 0 0 0 0 0 0 127 0" result="hardAlpha"/>
<feOffset dy="27"/>
<feGaussianBlur stdDeviation="8"/>
<feColorMatrix type="matrix" values="0 0 0 0 0.411765 0 0 0 0 0.470588 0 0 0 0 0.764706 0 0 0 0.03 0"/>
<feBlend mode="normal" in2="effect2_dropShadow_639_81015" result="effect3_dropShadow_639_81015"/>
<feColorMatrix in="SourceAlpha" type="matrix" values="0 0 0 0 0 0 0 0 0 0 0 0 0 0 0 0 0 0 127 0" result="hardAlpha"/>
<feOffset dy="48"/>
<feGaussianBlur stdDeviation="9.5"/>
<feColorMatrix type="matrix" values="0 0 0 0 0.411765 0 0 0 0 0.470588 0 0 0 0 0.764706 0 0 0 0.01 0"/>
<feBlend mode="normal" in2="effect3_dropShadow_639_81015" result="effect4_dropShadow_639_81015"/>
<feBlend mode="normal" in="SourceGraphic" in2="effect4_dropShadow_639_81015" result="shape"/>
</filter>
</defs>
</svg>
