<svg width="70" height="115" viewBox="0 0 70 115" fill="none" xmlns="http://www.w3.org/2000/svg">
<g clip-path="url(#clip0_639_80973)" filter="url(#filter0_dddd_639_80973)">
<path d="M22.6172 12.868H52.7105V9.6169C52.7105 6.02446 49.8754 3.11475 46.3751 3.11475H21.0333C17.533 3.11475 14.6979 6.02446 14.6979 9.6169V58.3831C14.6979 61.9755 17.533 64.8852 21.0333 64.8852H46.3751C49.8754 64.8852 52.7105 61.9755 52.7105 58.3831V45.3788H46.3751V48.6298C46.3751 49.5239 45.6623 50.2554 44.7912 50.2554H22.6172C21.746 50.2554 21.0333 49.5239 21.0333 48.6298V14.4935C21.0333 13.5995 21.746 12.868 22.6172 12.868ZM35.288 60.8214H32.1203C30.3781 60.8214 28.9526 59.3584 28.9526 57.5703C28.9526 55.7822 30.3781 54.3192 32.1203 54.3192H35.288C37.0303 54.3192 38.4558 55.7822 38.4558 57.5703C38.4558 59.3584 37.0303 60.8214 35.288 60.8214Z" fill="#3A4DA8"/>
<path d="M52.7105 16.9319H30.5365C28.7942 16.9319 27.3688 18.3949 27.3688 20.183V42.9405C27.3688 44.2735 28.8576 45.0375 29.9029 44.2409L32.8648 41.9652C33.4191 41.5426 34.0843 41.315 34.7654 41.315H52.7105C54.4528 41.315 55.8782 39.852 55.8782 38.0639V20.183C55.8782 18.3949 54.4528 16.9319 52.7105 16.9319ZM43.2074 36.032H35.2881C34.1952 36.032 33.3082 35.1217 33.3082 34C33.3082 32.8784 34.1952 31.9681 35.2881 31.9681H43.2074C44.3002 31.9681 45.1872 32.8784 45.1872 34C45.1872 35.1217 44.3002 36.032 43.2074 36.032ZM49.5428 27.9043H35.2881C34.1952 27.9043 33.3082 26.994 33.3082 25.8724C33.3082 24.7507 34.1952 23.8404 35.2881 23.8404H49.5428C50.6357 23.8404 51.5226 24.7507 51.5226 25.8724C51.5226 26.994 50.6357 27.9043 49.5428 27.9043Z" fill="#4962D8"/>
</g>
<defs>
<filter id="filter0_dddd_639_80973" x="0.725979" y="0.173294" width="69.1241" height="113.981" filterUnits="userSpaceOnUse" color-interpolation-filters="sRGB">
<feFlood flood-opacity="0" result="BackgroundImageFix"/>
<feColorMatrix in="SourceAlpha" type="matrix" values="0 0 0 0 0 0 0 0 0 0 0 0 0 0 0 0 0 0 127 0" result="hardAlpha"/>
<feOffset dy="2.20609"/>
<feGaussianBlur stdDeviation="2.57377"/>
<feColorMatrix type="matrix" values="0 0 0 0 0.411765 0 0 0 0 0.470588 0 0 0 0 0.764706 0 0 0 0.05 0"/>
<feBlend mode="normal" in2="BackgroundImageFix" result="effect1_dropShadow_639_80973"/>
<feColorMatrix in="SourceAlpha" type="matrix" values="0 0 0 0 0 0 0 0 0 0 0 0 0 0 0 0 0 0 127 0" result="hardAlpha"/>
<feOffset dy="8.82436"/>
<feGaussianBlur stdDeviation="4.41218"/>
<feColorMatrix type="matrix" values="0 0 0 0 0.411765 0 0 0 0 0.470588 0 0 0 0 0.764706 0 0 0 0.04 0"/>
<feBlend mode="normal" in2="effect1_dropShadow_639_80973" result="effect2_dropShadow_639_80973"/>
<feColorMatrix in="SourceAlpha" type="matrix" values="0 0 0 0 0 0 0 0 0 0 0 0 0 0 0 0 0 0 127 0" result="hardAlpha"/>
<feOffset dy="19.8548"/>
<feGaussianBlur stdDeviation="5.8829"/>
<feColorMatrix type="matrix" values="0 0 0 0 0.411765 0 0 0 0 0.470588 0 0 0 0 0.764706 0 0 0 0.03 0"/>
<feBlend mode="normal" in2="effect2_dropShadow_639_80973" result="effect3_dropShadow_639_80973"/>
<feColorMatrix in="SourceAlpha" type="matrix" values="0 0 0 0 0 0 0 0 0 0 0 0 0 0 0 0 0 0 127 0" result="hardAlpha"/>
<feOffset dy="35.2974"/>
<feGaussianBlur stdDeviation="6.98595"/>
<feColorMatrix type="matrix" values="0 0 0 0 0.411765 0 0 0 0 0.470588 0 0 0 0 0.764706 0 0 0 0.01 0"/>
<feBlend mode="normal" in2="effect3_dropShadow_639_80973" result="effect4_dropShadow_639_80973"/>
<feBlend mode="normal" in="SourceGraphic" in2="effect4_dropShadow_639_80973" result="shape"/>
</filter>
<clipPath id="clip0_639_80973">
<rect width="41.1803" height="61.7705" fill="white" transform="translate(14.6979 3.11475)"/>
</clipPath>
</defs>
</svg>
