<svg width="102" height="125" viewBox="0 0 102 125" fill="none" xmlns="http://www.w3.org/2000/svg">
<g clip-path="url(#clip0_639_80998)" filter="url(#filter0_dddd_639_80998)">
<path d="M46.2184 6.53693H21.2069C19.9857 6.53693 19 7.5082 19 8.71142C19 9.91464 19.9857 10.8859 21.2069 10.8859H21.9425V57.2752C21.9425 57.6811 22.2662 58 22.6782 58H44.7471C45.1591 58 45.4828 57.6811 45.4828 57.2752V10.8859H46.2184C47.4395 10.8859 48.4253 9.91464 48.4253 8.71142C48.4253 7.5082 47.4395 6.53693 46.2184 6.53693ZM31.697 49.3745C31.697 49.7804 31.3733 50.0993 30.9614 50.0993H27.1655C26.7536 50.0993 26.4299 49.7804 26.4299 49.3745V14.8725C26.4299 14.4666 26.7536 14.1477 27.1655 14.1477H30.9614C31.3733 14.1477 31.697 14.4666 31.697 14.8725V49.3745ZM40.9807 49.3745C40.9807 49.7804 40.657 50.0993 40.2451 50.0993H36.4492C36.0372 50.0993 35.7136 49.7804 35.7136 49.3745V14.8725C35.7136 14.4666 36.0372 14.1477 36.4492 14.1477H40.2451C40.657 14.1477 40.9807 14.4666 40.9807 14.8725V49.3745Z" fill="#4962D8"/>
<path d="M80.7931 27.557H49.8965C49.4846 27.557 49.1609 27.876 49.1609 28.2819V57.2752C49.1609 57.6811 49.4846 58 49.8965 58H80.7931C81.205 58 81.5287 57.6811 81.5287 57.2752V28.2819C81.5287 27.876 81.205 27.557 80.7931 27.557ZM63.0496 50.0268C63.0496 50.4328 62.7259 50.7517 62.314 50.7517H54.9577C54.5457 50.7517 54.222 50.4328 54.222 50.0268V45.6779C54.222 45.2719 54.5457 44.953 54.9577 44.953H62.314C62.7259 44.953 63.0496 45.2719 63.0496 45.6779V50.0268ZM63.0496 38.4295C63.0496 38.8354 62.7259 39.1544 62.314 39.1544H54.9577C54.5457 39.1544 54.222 38.8354 54.222 38.4295V34.0805C54.222 33.6746 54.5457 33.3557 54.9577 33.3557H62.314C62.7259 33.3557 63.0496 33.6746 63.0496 34.0805V38.4295ZM76.4823 50.0268C76.4823 50.4328 76.1586 50.7517 75.7466 50.7517H68.3903C67.9784 50.7517 67.6547 50.4328 67.6547 50.0268V45.6779C67.6547 45.2719 67.9784 44.953 68.3903 44.953H75.7466C76.1586 44.953 76.4823 45.2719 76.4823 45.6779V50.0268ZM76.4823 38.4295C76.4823 38.8354 76.1586 39.1544 75.7466 39.1544H68.3903C67.9784 39.1544 67.6547 38.8354 67.6547 38.4295V34.0805C67.6547 33.6746 67.9784 33.3557 68.3903 33.3557H75.7466C76.1586 33.3557 76.4823 33.6746 76.4823 34.0805V38.4295ZM80.8078 19.5839H77.4974V15.5973H80.0722C80.4841 15.5973 80.8078 15.2784 80.8078 14.8725V4.72483C80.8078 4.31893 80.4841 4 80.0722 4H52.1181C51.7062 4 51.3825 4.31893 51.3825 4.72483V14.8725C51.3825 15.2784 51.7062 15.5973 52.1181 15.5973H54.6928V19.5839H49.1756V23.9329H80.8078C82.0289 23.9329 83.0147 22.9616 83.0147 21.7584C83.0147 20.5552 82.0289 19.5839 80.8078 19.5839ZM73.0836 19.5839H59.1066V15.5973H73.0836V19.5839Z" fill="#3A4DA8"/>
</g>
<defs>
<filter id="filter0_dddd_639_80998" x="0" y="0" width="102" height="125" filterUnits="userSpaceOnUse" color-interpolation-filters="sRGB">
<feFlood flood-opacity="0" result="BackgroundImageFix"/>
<feColorMatrix in="SourceAlpha" type="matrix" values="0 0 0 0 0 0 0 0 0 0 0 0 0 0 0 0 0 0 127 0" result="hardAlpha"/>
<feOffset dy="3"/>
<feGaussianBlur stdDeviation="3.5"/>
<feColorMatrix type="matrix" values="0 0 0 0 0.411765 0 0 0 0 0.470588 0 0 0 0 0.764706 0 0 0 0.05 0"/>
<feBlend mode="normal" in2="BackgroundImageFix" result="effect1_dropShadow_639_80998"/>
<feColorMatrix in="SourceAlpha" type="matrix" values="0 0 0 0 0 0 0 0 0 0 0 0 0 0 0 0 0 0 127 0" result="hardAlpha"/>
<feOffset dy="12"/>
<feGaussianBlur stdDeviation="6"/>
<feColorMatrix type="matrix" values="0 0 0 0 0.411765 0 0 0 0 0.470588 0 0 0 0 0.764706 0 0 0 0.04 0"/>
<feBlend mode="normal" in2="effect1_dropShadow_639_80998" result="effect2_dropShadow_639_80998"/>
<feColorMatrix in="SourceAlpha" type="matrix" values="0 0 0 0 0 0 0 0 0 0 0 0 0 0 0 0 0 0 127 0" result="hardAlpha"/>
<feOffset dy="27"/>
<feGaussianBlur stdDeviation="8"/>
<feColorMatrix type="matrix" values="0 0 0 0 0.411765 0 0 0 0 0.470588 0 0 0 0 0.764706 0 0 0 0.03 0"/>
<feBlend mode="normal" in2="effect2_dropShadow_639_80998" result="effect3_dropShadow_639_80998"/>
<feColorMatrix in="SourceAlpha" type="matrix" values="0 0 0 0 0 0 0 0 0 0 0 0 0 0 0 0 0 0 127 0" result="hardAlpha"/>
<feOffset dy="48"/>
<feGaussianBlur stdDeviation="9.5"/>
<feColorMatrix type="matrix" values="0 0 0 0 0.411765 0 0 0 0 0.470588 0 0 0 0 0.764706 0 0 0 0.01 0"/>
<feBlend mode="normal" in2="effect3_dropShadow_639_80998" result="effect4_dropShadow_639_80998"/>
<feBlend mode="normal" in="SourceGraphic" in2="effect4_dropShadow_639_80998" result="shape"/>
</filter>
<clipPath id="clip0_639_80998">
<rect width="64" height="54" fill="white" transform="translate(19 4)"/>
</clipPath>
</defs>
</svg>
