<svg width="103" height="127" viewBox="0 0 103 127" fill="none" xmlns="http://www.w3.org/2000/svg">
<g filter="url(#filter0_dddd_639_81006)">
<path d="M53.8316 10.1995H49.1628C48.3069 10.1995 47.6066 10.8998 47.6066 11.7557C47.6066 12.6117 48.3069 13.312 49.1628 13.312H53.8316C54.6876 13.312 55.3879 12.6117 55.3879 11.7557C55.3879 10.8998 54.6876 10.1995 53.8316 10.1995Z" fill="#4962D8"/>
<path d="M52.7889 50.569C52.4154 50.8958 51.9641 51.0514 51.4972 51.0514C51.0303 51.0514 50.579 50.8958 50.2055 50.569L42.642 43.9238L33.5846 51.8918V58.4437C33.5846 59.2997 34.2849 60 35.1408 60H67.8224C68.6784 60 69.3787 59.2997 69.3787 58.4437V51.8918L60.3212 43.9238L52.7578 50.569H52.7889ZM78.5918 12.2071L70.0946 7.49159C69.6277 7.24258 69.1141 7.10252 68.585 7.10252H63.0914C62.7334 5.32838 61.1616 3.98999 59.2785 3.98999H43.7159C41.8328 3.98999 40.261 5.32838 39.903 7.10252H34.4094C33.8803 7.10252 33.3667 7.24258 32.8998 7.49159L24.4026 12.2071C21.4457 13.8567 19.5938 16.9848 19.5938 20.3619V53.7749C19.5938 54.6309 20.2941 55.3312 21.15 55.3312H28.9313C29.7873 55.3312 30.4876 54.6309 30.4876 53.7749V30.4309C30.4876 29.575 31.1879 28.8747 32.0439 28.8747C32.8998 28.8747 33.6001 29.575 33.6001 30.4309V30.7577L42.6576 38.7258L50.221 32.0806C50.9525 31.4269 52.0574 31.4269 52.7889 32.0806L60.3523 38.7258L69.4098 30.7577V30.4309C69.4098 29.575 70.1101 28.8747 70.9661 28.8747C71.822 28.8747 72.5223 29.575 72.5223 30.4309V53.7749C72.5223 54.6309 73.2226 55.3312 74.0786 55.3312H81.8599C82.7159 55.3312 83.4162 54.6309 83.4162 53.7749V20.3619C83.4162 16.9692 81.5798 13.8411 78.6073 12.2071H78.5918ZM58.5004 9.42136C58.5004 13.2809 55.3567 16.4245 51.4972 16.4245C47.6376 16.4245 44.494 13.2809 44.494 9.42136V8.64322H58.5004V9.42136Z" fill="#3A4DA8"/>
<path d="M51.4971 36.127L57.3954 41.3249L51.4971 46.5228L45.5989 41.3249L51.4971 36.127Z" fill="#4962D8"/>
<path d="M39.7162 41.3249L33.6001 46.694V35.9558L39.7162 41.3249Z" fill="#4962D8"/>
<path d="M69.3942 35.9558V46.694L63.2781 41.3249L69.3942 35.9558Z" fill="#4962D8"/>
</g>
<defs>
<filter id="filter0_dddd_639_81006" x="0.59375" y="-0.0100098" width="101.822" height="127.01" filterUnits="userSpaceOnUse" color-interpolation-filters="sRGB">
<feFlood flood-opacity="0" result="BackgroundImageFix"/>
<feColorMatrix in="SourceAlpha" type="matrix" values="0 0 0 0 0 0 0 0 0 0 0 0 0 0 0 0 0 0 127 0" result="hardAlpha"/>
<feOffset dy="3"/>
<feGaussianBlur stdDeviation="3.5"/>
<feColorMatrix type="matrix" values="0 0 0 0 0.411765 0 0 0 0 0.470588 0 0 0 0 0.764706 0 0 0 0.05 0"/>
<feBlend mode="normal" in2="BackgroundImageFix" result="effect1_dropShadow_639_81006"/>
<feColorMatrix in="SourceAlpha" type="matrix" values="0 0 0 0 0 0 0 0 0 0 0 0 0 0 0 0 0 0 127 0" result="hardAlpha"/>
<feOffset dy="12"/>
<feGaussianBlur stdDeviation="6"/>
<feColorMatrix type="matrix" values="0 0 0 0 0.411765 0 0 0 0 0.470588 0 0 0 0 0.764706 0 0 0 0.04 0"/>
<feBlend mode="normal" in2="effect1_dropShadow_639_81006" result="effect2_dropShadow_639_81006"/>
<feColorMatrix in="SourceAlpha" type="matrix" values="0 0 0 0 0 0 0 0 0 0 0 0 0 0 0 0 0 0 127 0" result="hardAlpha"/>
<feOffset dy="27"/>
<feGaussianBlur stdDeviation="8"/>
<feColorMatrix type="matrix" values="0 0 0 0 0.411765 0 0 0 0 0.470588 0 0 0 0 0.764706 0 0 0 0.03 0"/>
<feBlend mode="normal" in2="effect2_dropShadow_639_81006" result="effect3_dropShadow_639_81006"/>
<feColorMatrix in="SourceAlpha" type="matrix" values="0 0 0 0 0 0 0 0 0 0 0 0 0 0 0 0 0 0 127 0" result="hardAlpha"/>
<feOffset dy="48"/>
<feGaussianBlur stdDeviation="9.5"/>
<feColorMatrix type="matrix" values="0 0 0 0 0.411765 0 0 0 0 0.470588 0 0 0 0 0.764706 0 0 0 0.01 0"/>
<feBlend mode="normal" in2="effect3_dropShadow_639_81006" result="effect4_dropShadow_639_81006"/>
<feBlend mode="normal" in="SourceGraphic" in2="effect4_dropShadow_639_81006" result="shape"/>
</filter>
</defs>
</svg>
