<svg width="87" height="141" viewBox="0 0 87 141" fill="none" xmlns="http://www.w3.org/2000/svg">
<g clip-path="url(#clip0_639_80995)" filter="url(#filter0_dddd_639_80995)">
<path d="M65.4768 65.8639L54.3421 61.2121L65.3671 56.5603C67.5246 55.6521 68.5302 53.1501 67.6343 50.9632C66.7384 48.7763 64.2701 47.757 62.1127 48.6651L43.2806 56.6158L24.613 48.8319C22.5287 47.9608 20.1518 48.9616 19.2925 51.0744C18.4332 53.1872 19.4205 55.5965 21.5048 56.4676L32.6395 61.1194L21.6145 65.7713C19.4571 66.6794 18.4515 69.1814 19.3474 71.3683C20.2433 73.5552 22.7115 74.5745 24.869 73.6664L43.7011 65.7157L62.3686 73.4996C64.453 74.3707 66.8298 73.3699 67.6892 71.2571C68.5485 69.1443 67.5612 66.735 65.4768 65.8639Z" fill="#3A4DA8"/>
<path d="M59.6261 32.9674C59.2422 28.2044 57.2493 24.2754 54.9272 20.5316C51.6545 15.2497 47.7235 10.3384 46.8459 4C42.8052 6.74292 40.9769 11.3762 40.9952 16.1578C40.9952 16.1949 40.9952 16.2134 40.9952 16.2505C41.05 20.9394 46.0963 27.3519 42.403 31.4292C38.3806 35.8771 31.5243 32.2446 33.444 25.3873C34.3399 22.1996 33.7731 20.3092 33.3343 19.4382C29.2937 22.5518 26.6608 27.4631 26.6608 33.023C26.6608 42.234 33.8646 49.7215 42.8784 50.0551C51.6545 49.6659 60.4123 42.5306 59.6627 32.986L59.6261 32.9674Z" fill="#4962D8"/>
</g>
<defs>
<filter id="filter0_dddd_639_80995" x="0" y="0" width="87" height="141" filterUnits="userSpaceOnUse" color-interpolation-filters="sRGB">
<feFlood flood-opacity="0" result="BackgroundImageFix"/>
<feColorMatrix in="SourceAlpha" type="matrix" values="0 0 0 0 0 0 0 0 0 0 0 0 0 0 0 0 0 0 127 0" result="hardAlpha"/>
<feOffset dy="3"/>
<feGaussianBlur stdDeviation="3.5"/>
<feColorMatrix type="matrix" values="0 0 0 0 0.411765 0 0 0 0 0.470588 0 0 0 0 0.764706 0 0 0 0.05 0"/>
<feBlend mode="normal" in2="BackgroundImageFix" result="effect1_dropShadow_639_80995"/>
<feColorMatrix in="SourceAlpha" type="matrix" values="0 0 0 0 0 0 0 0 0 0 0 0 0 0 0 0 0 0 127 0" result="hardAlpha"/>
<feOffset dy="12"/>
<feGaussianBlur stdDeviation="6"/>
<feColorMatrix type="matrix" values="0 0 0 0 0.411765 0 0 0 0 0.470588 0 0 0 0 0.764706 0 0 0 0.04 0"/>
<feBlend mode="normal" in2="effect1_dropShadow_639_80995" result="effect2_dropShadow_639_80995"/>
<feColorMatrix in="SourceAlpha" type="matrix" values="0 0 0 0 0 0 0 0 0 0 0 0 0 0 0 0 0 0 127 0" result="hardAlpha"/>
<feOffset dy="27"/>
<feGaussianBlur stdDeviation="8"/>
<feColorMatrix type="matrix" values="0 0 0 0 0.411765 0 0 0 0 0.470588 0 0 0 0 0.764706 0 0 0 0.03 0"/>
<feBlend mode="normal" in2="effect2_dropShadow_639_80995" result="effect3_dropShadow_639_80995"/>
<feColorMatrix in="SourceAlpha" type="matrix" values="0 0 0 0 0 0 0 0 0 0 0 0 0 0 0 0 0 0 127 0" result="hardAlpha"/>
<feOffset dy="48"/>
<feGaussianBlur stdDeviation="9.5"/>
<feColorMatrix type="matrix" values="0 0 0 0 0.411765 0 0 0 0 0.470588 0 0 0 0 0.764706 0 0 0 0.01 0"/>
<feBlend mode="normal" in2="effect3_dropShadow_639_80995" result="effect4_dropShadow_639_80995"/>
<feBlend mode="normal" in="SourceGraphic" in2="effect4_dropShadow_639_80995" result="shape"/>
</filter>
<clipPath id="clip0_639_80995">
<rect width="49" height="70" fill="white" transform="translate(19 4)"/>
</clipPath>
</defs>
</svg>
