<svg width="84" height="137" viewBox="0 0 84 137" fill="none" xmlns="http://www.w3.org/2000/svg">
<g filter="url(#filter0_dddd_639_81012)">
<path d="M48.7196 45.874L44.832 45.3161L43.0887 41.7947C42.496 40.5744 41.5198 40.5744 40.9096 41.7947L39.1663 45.3161L35.2788 45.874C33.9364 46.0658 33.6401 46.9897 34.6163 47.9485L37.423 50.6855L36.7606 54.5556C36.5339 55.898 37.3184 56.4558 38.5213 55.8282L41.9905 53.9978L45.4596 55.8282C46.6625 56.4558 47.447 55.8805 47.2203 54.5556L46.5579 50.6855L49.3646 47.9485C50.3408 47.0071 50.0271 46.0832 48.7021 45.874H48.7196ZM62.91 4.01743H47.7085C47.0809 4.01743 46.4882 4.36609 46.1744 4.92395L35.8366 23.6993C37.8065 23.1937 39.8636 22.8973 41.9905 22.8973C46.2615 22.8973 50.2885 23.9782 53.8274 25.8435L64.4267 6.58008C65.0717 5.41207 64.2175 4 62.8926 4L62.91 4.01743Z" fill="#4962D8"/>
<path d="M39.3581 8.28846L37.824 5.51662C37.5102 4.95877 36.9349 4.61011 36.2899 4.61011H21.0883C19.7634 4.61011 18.9266 6.03961 19.5542 7.19019L29.7525 25.7214L39.3406 8.28846H39.3581ZM42.0079 27.273C30.2929 27.273 20.8094 36.7739 20.8094 48.4715C20.8094 60.1864 30.3104 69.67 42.0079 69.67C53.7228 69.67 63.2064 60.169 63.2064 48.4715C63.2064 36.7565 53.7054 27.273 42.0079 27.273ZM42.0079 60.9709C35.1044 60.9709 29.5259 55.3749 29.5259 48.4889C29.5259 41.5854 35.1219 36.0069 42.0079 36.0069C48.9113 36.0069 54.4899 41.6029 54.4899 48.4889C54.4899 55.3923 48.8939 60.9709 42.0079 60.9709Z" fill="#3A4DA8"/>
</g>
<defs>
<filter id="filter0_dddd_639_81012" x="0.341675" y="0" width="83.3047" height="136.67" filterUnits="userSpaceOnUse" color-interpolation-filters="sRGB">
<feFlood flood-opacity="0" result="BackgroundImageFix"/>
<feColorMatrix in="SourceAlpha" type="matrix" values="0 0 0 0 0 0 0 0 0 0 0 0 0 0 0 0 0 0 127 0" result="hardAlpha"/>
<feOffset dy="3"/>
<feGaussianBlur stdDeviation="3.5"/>
<feColorMatrix type="matrix" values="0 0 0 0 0.411765 0 0 0 0 0.470588 0 0 0 0 0.764706 0 0 0 0.05 0"/>
<feBlend mode="normal" in2="BackgroundImageFix" result="effect1_dropShadow_639_81012"/>
<feColorMatrix in="SourceAlpha" type="matrix" values="0 0 0 0 0 0 0 0 0 0 0 0 0 0 0 0 0 0 127 0" result="hardAlpha"/>
<feOffset dy="12"/>
<feGaussianBlur stdDeviation="6"/>
<feColorMatrix type="matrix" values="0 0 0 0 0.411765 0 0 0 0 0.470588 0 0 0 0 0.764706 0 0 0 0.04 0"/>
<feBlend mode="normal" in2="effect1_dropShadow_639_81012" result="effect2_dropShadow_639_81012"/>
<feColorMatrix in="SourceAlpha" type="matrix" values="0 0 0 0 0 0 0 0 0 0 0 0 0 0 0 0 0 0 127 0" result="hardAlpha"/>
<feOffset dy="27"/>
<feGaussianBlur stdDeviation="8"/>
<feColorMatrix type="matrix" values="0 0 0 0 0.411765 0 0 0 0 0.470588 0 0 0 0 0.764706 0 0 0 0.03 0"/>
<feBlend mode="normal" in2="effect2_dropShadow_639_81012" result="effect3_dropShadow_639_81012"/>
<feColorMatrix in="SourceAlpha" type="matrix" values="0 0 0 0 0 0 0 0 0 0 0 0 0 0 0 0 0 0 127 0" result="hardAlpha"/>
<feOffset dy="48"/>
<feGaussianBlur stdDeviation="9.5"/>
<feColorMatrix type="matrix" values="0 0 0 0 0.411765 0 0 0 0 0.470588 0 0 0 0 0.764706 0 0 0 0.01 0"/>
<feBlend mode="normal" in2="effect3_dropShadow_639_81012" result="effect4_dropShadow_639_81012"/>
<feBlend mode="normal" in="SourceGraphic" in2="effect4_dropShadow_639_81012" result="shape"/>
</filter>
</defs>
</svg>
