<svg width="44" height="44" viewBox="0 0 44 44" fill="none" xmlns="http://www.w3.org/2000/svg">
<g clip-path="url(#clip0_739_2337)">
<path d="M34.9745 20.3076H33.2822C32.3458 20.3076 31.5899 21.0635 31.5899 21.9999C31.5899 22.9363 32.3458 23.6922 33.2822 23.6922H34.9745C35.9109 23.6922 36.6668 22.9363 36.6668 21.9999C36.6668 21.0635 35.9109 20.3076 34.9745 20.3076ZM22.0002 31.5897C21.0638 31.5897 20.3079 32.3456 20.3079 33.282V34.9743C20.3079 35.9107 21.0638 36.6666 22.0002 36.6666C22.9366 36.6666 23.6925 35.9107 23.6925 34.9743V33.282C23.6925 32.3456 22.9366 31.5897 22.0002 31.5897ZM10.7181 20.3076H9.0258C8.08939 20.3076 7.3335 21.0635 7.3335 21.9999C7.3335 22.9363 8.08939 23.6922 9.0258 23.6922H10.7181C11.6545 23.6922 12.4104 22.9363 12.4104 21.9999C12.4104 21.0635 11.6545 20.3076 10.7181 20.3076ZM22.0002 7.33325C21.0638 7.33325 20.3079 8.08915 20.3079 9.02556V10.7179C20.3079 11.6543 21.0638 12.4102 22.0002 12.4102C22.9366 12.4102 23.6925 11.6543 23.6925 10.7179V9.02556C23.6925 8.08915 22.9366 7.33325 22.0002 7.33325Z" fill="#4962D8"/>
<path d="M22 0C9.84923 0 0 9.84923 0 22C0 34.1508 9.84923 44 22 44C34.1508 44 44 34.1508 44 22C44 9.84923 34.1508 0 22 0ZM22 38.359C12.9744 38.359 5.64103 31.0256 5.64103 22C5.64103 12.9744 12.9744 5.64103 22 5.64103C31.0256 5.64103 38.359 12.9744 38.359 22C38.359 31.0256 31.0256 38.359 22 38.359ZM29.3785 12.5908L22.7108 19.2585C22.4851 19.2133 22.2482 19.1795 22 19.1795C21.639 19.1795 21.3005 19.2472 20.9846 19.3487L15.8174 14.1815C15.1518 13.5159 14.08 13.5159 13.4256 14.1815C12.76 14.8472 12.76 15.919 13.4256 16.5733L18.6944 21.8421C18.6492 22.0677 18.6154 22.3046 18.6154 22.5528C18.6154 24.4256 20.1272 25.9374 22 25.9374C23.8728 25.9374 25.3846 24.4256 25.3846 22.5528C25.3846 22.1918 25.3169 21.8533 25.2154 21.5374L31.7703 14.9826C32.4359 14.3169 32.4359 13.2451 31.7703 12.5908C31.1046 11.9364 30.0328 11.9251 29.3785 12.5908Z" fill="#3A4DA8"/>
</g>
<defs>
<clipPath id="clip0_739_2337">
<rect width="44" height="44" fill="white"/>
</clipPath>
</defs>
</svg>
