<svg width="46" height="40" viewBox="0 0 46 40" fill="none" xmlns="http://www.w3.org/2000/svg">
<g clip-path="url(#clip0_739_2350)">
<path d="M19.5632 1.87915H1.58621C0.708506 1.87915 0 2.59861 0 3.48989C0 4.38116 0.708506 5.10063 1.58621 5.10063H2.11494V39.463C2.11494 39.7637 2.34759 40 2.64368 40H18.5057C18.8018 40 19.0345 39.7637 19.0345 39.463V5.10063H19.5632C20.4409 5.10063 21.1494 4.38116 21.1494 3.48989C21.1494 2.59861 20.4409 1.87915 19.5632 1.87915ZM9.12598 33.6107C9.12598 33.9114 8.89333 34.1476 8.59724 34.1476H5.86897C5.57287 34.1476 5.34023 33.9114 5.34023 33.6107V8.05365C5.34023 7.75298 5.57287 7.51673 5.86897 7.51673H8.59724C8.89333 7.51673 9.12598 7.75298 9.12598 8.05365V33.6107ZM15.7986 33.6107C15.7986 33.9114 15.566 34.1476 15.2699 34.1476H12.5416C12.2455 34.1476 12.0129 33.9114 12.0129 33.6107V8.05365C12.0129 7.75298 12.2455 7.51673 12.5416 7.51673H15.2699C15.566 7.51673 15.7986 7.75298 15.7986 8.05365V33.6107Z" fill="#4962D8"/>
<path d="M44.4139 17.4497H22.207C21.9109 17.4497 21.6782 17.6859 21.6782 17.9866V39.4631C21.6782 39.7638 21.9109 40 22.207 40H44.4139C44.7099 40 44.9426 39.7638 44.9426 39.4631V17.9866C44.9426 17.6859 44.7099 17.4497 44.4139 17.4497ZM31.6608 34.094C31.6608 34.3946 31.4281 34.6309 31.132 34.6309H25.8447C25.5486 34.6309 25.3159 34.3946 25.3159 34.094V30.8725C25.3159 30.5718 25.5486 30.3356 25.8447 30.3356H31.132C31.4281 30.3356 31.6608 30.5718 31.6608 30.8725V34.094ZM31.6608 25.5034C31.6608 25.804 31.4281 26.0403 31.132 26.0403H25.8447C25.5486 26.0403 25.3159 25.804 25.3159 25.5034V22.2819C25.3159 21.9812 25.5486 21.745 25.8447 21.745H31.132C31.4281 21.745 31.6608 21.9812 31.6608 22.2819V25.5034ZM41.3155 34.094C41.3155 34.3946 41.0828 34.6309 40.7867 34.6309H35.4994C35.2033 34.6309 34.9706 34.3946 34.9706 34.094V30.8725C34.9706 30.5718 35.2033 30.3356 35.4994 30.3356H40.7867C41.0828 30.3356 41.3155 30.5718 41.3155 30.8725V34.094ZM41.3155 25.5034C41.3155 25.804 41.0828 26.0403 40.7867 26.0403H35.4994C35.2033 26.0403 34.9706 25.804 34.9706 25.5034V22.2819C34.9706 21.9812 35.2033 21.745 35.4994 21.745H40.7867C41.0828 21.745 41.3155 21.9812 41.3155 22.2819V25.5034ZM44.4244 11.5436H42.0451V8.5906H43.8957C44.1918 8.5906 44.4244 8.35436 44.4244 8.05369V0.536913C44.4244 0.236242 44.1918 0 43.8957 0H23.8037C23.5076 0 23.275 0.236242 23.275 0.536913V8.05369C23.275 8.35436 23.5076 8.5906 23.8037 8.5906H25.6543V11.5436H21.6888V14.7651H44.4244C45.3021 14.7651 46.0106 14.0456 46.0106 13.1544C46.0106 12.2631 45.3021 11.5436 44.4244 11.5436ZM38.8727 11.5436H28.8267V8.5906H38.8727V11.5436Z" fill="#3A4DA8"/>
</g>
<defs>
<clipPath id="clip0_739_2350">
<rect width="46" height="40" fill="white"/>
</clipPath>
</defs>
</svg>
