<svg width="30" height="44" viewBox="0 0 30 44" fill="none" xmlns="http://www.w3.org/2000/svg">
<g clip-path="url(#clip0_739_2353)">
<path d="M5.76923 6.94737H27.6923V4.63158C27.6923 2.07263 25.6269 0 23.0769 0H4.61538C2.06538 0 0 2.07263 0 4.63158V39.3684C0 41.9274 2.06538 44 4.61538 44H23.0769C25.6269 44 27.6923 41.9274 27.6923 39.3684V30.1053H23.0769V32.4211C23.0769 33.0579 22.5577 33.5789 21.9231 33.5789H5.76923C5.13462 33.5789 4.61538 33.0579 4.61538 32.4211V8.10526C4.61538 7.46842 5.13462 6.94737 5.76923 6.94737ZM15 41.1053H12.6923C11.4231 41.1053 10.3846 40.0632 10.3846 38.7895C10.3846 37.5158 11.4231 36.4737 12.6923 36.4737H15C16.2692 36.4737 17.3077 37.5158 17.3077 38.7895C17.3077 40.0632 16.2692 41.1053 15 41.1053Z" fill="#3A4DA8"/>
<path d="M27.6925 9.84204H11.5386C10.2694 9.84204 9.23096 10.8841 9.23096 12.1578V28.3684C9.23096 29.3178 10.3156 29.862 11.0771 29.2947L13.2348 27.6736C13.6386 27.3726 14.1233 27.2105 14.6194 27.2105H27.6925C28.9617 27.2105 30.0002 26.1684 30.0002 24.8947V12.1578C30.0002 10.8841 28.9617 9.84204 27.6925 9.84204ZM20.7694 23.4473H15.0002C14.204 23.4473 13.5579 22.7989 13.5579 21.9999C13.5579 21.201 14.204 20.5526 15.0002 20.5526H20.7694C21.5656 20.5526 22.2117 21.201 22.2117 21.9999C22.2117 22.7989 21.5656 23.4473 20.7694 23.4473ZM25.3848 17.6578H15.0002C14.204 17.6578 13.5579 17.0094 13.5579 16.2105C13.5579 15.4115 14.204 14.7631 15.0002 14.7631H25.3848C26.181 14.7631 26.8271 15.4115 26.8271 16.2105C26.8271 17.0094 26.181 17.6578 25.3848 17.6578Z" fill="#4962D8"/>
</g>
<defs>
<clipPath id="clip0_739_2353">
<rect width="30" height="44" fill="white"/>
</clipPath>
</defs>
</svg>
