<svg width="44" height="44" viewBox="0 0 44 44" fill="none" xmlns="http://www.w3.org/2000/svg">
<g clip-path="url(#clip0_739_2356)">
<path d="M22 0C9.8718 0 0 9.8718 0 22C0 23.3538 0.124103 24.719 0.372308 26.039C0.541539 26.9641 1.43282 27.5733 2.34667 27.3928C3.26051 27.2236 3.86974 26.3436 3.70051 25.4185C3.49744 24.2903 3.38462 23.1395 3.38462 21.9887C3.38462 20.2287 3.6441 18.5251 4.10667 16.9118H10.4697C10.2667 18.5364 10.1538 20.2287 10.1538 21.9887C10.1538 22.9251 10.9097 23.681 11.8462 23.681C12.7826 23.681 13.5385 22.9251 13.5385 21.9887C13.5385 20.3077 13.6626 18.5928 13.9108 16.9118H20.3077V40.5251C18.999 40.4123 17.7128 40.1641 16.4718 39.7805C15.5805 39.4985 14.6328 40.0062 14.3508 40.8974C14.0687 41.7887 14.5764 42.7364 15.4677 43.0185C17.5774 43.6728 19.7774 44 22 44C34.1282 44 44 34.1282 44 22C44 9.8718 34.1282 0 22 0ZM11.0338 13.5385H5.43795C7.36718 9.78154 10.5262 6.76923 14.3846 5.0318C12.9179 7.28821 11.7672 10.199 11.0338 13.5385ZM20.3077 13.5385H14.5651C15.7046 8.87897 17.7354 4.99795 20.3077 3.77949V13.5385ZM38.5621 13.5385H32.9662C32.2328 10.199 31.0821 7.28821 29.6154 5.0318C33.4738 6.76923 36.6328 9.78154 38.5621 13.5385ZM23.6923 3.77949C26.2759 4.98667 28.2954 8.86769 29.4349 13.5385H23.6923V3.77949ZM23.6923 16.9231H30.0892C30.3262 18.6041 30.4615 20.319 30.4615 22C30.4615 23.681 30.3374 25.3959 30.0892 27.0769H23.6923V16.9231ZM23.6923 40.2205V30.4615H29.4349C28.2954 35.121 26.2646 39.0021 23.6923 40.2205ZM29.6154 38.9682C31.0821 36.7118 32.2328 33.801 32.9662 30.4615H38.5621C36.6328 34.2185 33.4738 37.2308 29.6154 38.9682ZM33.5303 27.0769C33.7333 25.4523 33.8462 23.76 33.8462 22C33.8462 20.24 33.7333 18.5477 33.5303 16.9231H39.8933C40.3559 18.5364 40.6154 20.24 40.6154 22C40.6154 23.76 40.3559 25.4636 39.8933 27.0769H33.5303Z" fill="#3A4DA8"/>
<path d="M15.4792 25.7907L5.28023 29.1076C4.3551 29.4123 4.21971 30.6533 5.05459 31.1497L7.54792 32.6276L1.74895 38.4266C1.30895 38.8666 1.30895 39.5774 1.74895 40.0174L2.60638 40.8861C3.04638 41.3261 3.75715 41.3261 4.19715 40.8861L10.0525 35.0307L11.4966 37.5353C11.9818 38.3815 13.2341 38.2574 13.55 37.3323L16.9007 27.2123C17.1941 26.3323 16.3592 25.4974 15.4792 25.7794V25.7907Z" fill="#4962D8"/>
</g>
<defs>
<clipPath id="clip0_739_2356">
<rect width="44" height="44" fill="white"/>
</clipPath>
</defs>
</svg>
