<svg width="46" height="37" viewBox="0 0 46 37" fill="none" xmlns="http://www.w3.org/2000/svg">
<g clip-path="url(#clip0_739_2344)">
<path d="M43.641 6.46021H2.35897C1.06154 6.46021 0 7.51735 0 8.80941V34.6507C0 35.9427 1.06154 36.9999 2.35897 36.9999H43.641C44.9385 36.9999 46 35.9427 46 34.6507V8.80941C46 7.51735 44.9385 6.46021 43.641 6.46021ZM41.8718 27.6031C38.9349 27.6031 36.5641 29.964 36.5641 32.8888H9.4359C9.4359 29.964 7.06513 27.6031 4.12821 27.6031V15.857C7.06513 15.857 9.4359 13.4961 9.4359 10.5713H36.5641C36.5641 13.4961 38.9349 15.857 41.8718 15.857V27.6031Z" fill="#3A4DA8"/>
<path d="M10.6154 19.381C9.31799 19.381 8.25645 20.4381 8.25645 21.7302C8.25645 23.0222 9.31799 24.0794 10.6154 24.0794C11.9129 24.0794 12.9744 23.0222 12.9744 21.7302C12.9744 20.4381 11.9129 19.381 10.6154 19.381ZM39.6308 0H6.60517C5.62619 0 4.83594 0.786984 4.83594 1.7619C4.83594 2.73683 5.62619 3.52381 6.60517 3.52381H39.6308C40.6098 3.52381 41.4 2.73683 41.4 1.7619C41.4 0.786984 40.6098 0 39.6308 0ZM24.4744 15.587V14.6708C24.4744 13.8603 23.8139 13.2025 23 13.2025C22.1862 13.2025 21.5257 13.8603 21.5257 14.6708V15.5517H19.4616C18.6477 15.5517 17.9872 16.2095 17.9872 17.02V26.4168C17.9872 27.2273 18.6477 27.8851 19.4616 27.8851H21.5257V28.766C21.5257 29.5765 22.1862 30.2343 23 30.2343C23.8139 30.2343 24.4744 29.5765 24.4744 28.766V27.8498C26.4441 27.6971 28.0129 26.0644 28.0129 24.0676C28.0129 23.1749 27.6944 22.3644 27.1754 21.7184C27.6944 21.0724 28.0129 20.2619 28.0129 19.3692C28.0129 17.3606 26.4441 15.7397 24.4744 15.587ZM24.1795 24.9486H20.9359V23.1867H24.1795C24.6631 23.1867 25.0641 23.586 25.0641 24.0676C25.0641 24.5492 24.6631 24.9486 24.1795 24.9486ZM24.1795 20.2502H20.9359V18.4883H24.1795C24.6631 18.4883 25.0641 18.8876 25.0641 19.3692C25.0641 19.8508 24.6631 20.2502 24.1795 20.2502ZM35.3847 19.3692C34.0872 19.3692 33.0257 20.4263 33.0257 21.7184C33.0257 23.0105 34.0872 24.0676 35.3847 24.0676C36.6821 24.0676 37.7436 23.0105 37.7436 21.7184C37.7436 20.4263 36.6821 19.3692 35.3847 19.3692Z" fill="#4962D8"/>
</g>
<defs>
<clipPath id="clip0_739_2344">
<rect width="46" height="37" fill="white"/>
</clipPath>
</defs>
</svg>
