<svg width="539" height="539" viewBox="0 0 539 539" fill="none" xmlns="http://www.w3.org/2000/svg"><path fill-rule="evenodd" clip-rule="evenodd" d="M539 90.661c0 44.947-32.708 82.254-75.621 89.42C506.292 187.247 539 224.554 539 269.5s-32.708 82.253-75.621 89.419c42.913 7.166 75.621 44.474 75.621 89.42 0 50.07-40.591 90.661-90.661 90.661-44.946 0-82.254-32.708-89.42-75.621C351.753 506.292 314.446 539 269.5 539s-82.253-32.708-89.419-75.621C172.915 506.292 135.608 539 90.661 539 40.591 539 0 498.409 0 448.339c0-44.946 32.708-82.254 75.62-89.42C32.708 351.753 0 314.446 0 269.5s32.708-82.253 75.62-89.419C32.708 172.915 0 135.608 0 90.661 0 40.591 40.59 0 90.661 0c44.947 0 82.254 32.708 89.42 75.62C187.247 32.708 224.554 0 269.5 0s82.253 32.708 89.419 75.62C366.085 32.708 403.393 0 448.339 0 498.409 0 539 40.59 539 90.661Zm-358.919 15.041c-6.349 38.021-36.358 68.03-74.379 74.379 38.021 6.348 68.03 36.359 74.379 74.379 6.348-38.02 36.359-68.031 74.379-74.379-38.02-6.349-68.031-36.358-74.379-74.379Zm104.459 74.379c38.02-6.349 68.031-36.358 74.379-74.379 6.349 38.021 36.359 68.03 74.38 74.379-38.021 6.348-68.031 36.359-74.38 74.379-6.348-38.02-36.359-68.031-74.379-74.379Zm74.379 253.218c6.349-38.021 36.359-68.031 74.38-74.38-38.021-6.348-68.031-36.359-74.38-74.379-6.348 38.02-36.359 68.031-74.379 74.379 38.02 6.349 68.031 36.359 74.379 74.38ZM180.081 284.54c6.348 38.02 36.359 68.031 74.379 74.379-38.02 6.349-68.031 36.359-74.379 74.38-6.349-38.021-36.358-68.031-74.379-74.38 38.021-6.348 68.03-36.359 74.379-74.379Z" fill="#B8E31D"/></svg>