<svg xmlns="http://www.w3.org/2000/svg" width="1000" height="1000"><g clip-path="url(#a)"><path d="M0 0h1000v1000H0z"/><svg xmlns="http://www.w3.org/2000/svg" xmlns:xlink="http://www.w3.org/1999/xlink" width="15" height="15" transform="translate(150 150) scale(46.66667)"><svg width="15" height="15" viewBox="0 0 15 15" fill="none" xmlns="http://www.w3.org/2000/svg"><path d="M7.038 10.364c.302-.485 1.059-.485 1.361 0l2.213 3.545c.303.485-.076 1.091-.68 1.091H5.505c-.605 0-.984-.606-.681-1.09l2.213-3.546ZM5.043 8.08a.762.762 0 0 1 .673 1.135l-2.1 3.74a.762.762 0 0 1-1.32.015L.108 9.282A.762.762 0 0 1 .754 8.13l4.289-.051Zm9.143 0a.762.762 0 0 1 .673 1.135l-2.1 3.74a.762.762 0 0 1-1.32.015L9.252 9.282a.762.762 0 0 1 .646-1.151l4.289-.051Z" fill="#fff"/><path d="M10.805 0c.908-.01 1.487.948 1.042 1.725L8.597 7.41c-.445.777-1.58.79-2.043.024L3.167 1.827c-.463-.767.092-1.738 1-1.75L10.805 0Z" fill="#2461FE"/></svg></svg></g><defs><clipPath id="a"><rect width="1000" height="1000" rx="500" ry="500"/></clipPath></defs></svg>