<svg version="1.0" xmlns="http://www.w3.org/2000/svg" width="160" height="160" viewBox="0 0 120 120"><path d="M76.2 47.1c.2.6.8 1 1.3 1s1.1-.4 1.3-1c.2-.6-.4-1.1-1.3-1.1s-1.5.5-1.3 1.1zm26.6-.5c-.5.4-.8 3.4-.8 6.6 0 4.9.4 6.3 2.5 8.3C106.9 64 112 65 112 63c0-.6-1.1-1-2.4-1-2.8 0-5.6-3.3-5.6-6.7 0-2 .5-2.3 4-2.3 2.2 0 4-.5 4-1 0-.6-1.8-1-3.9-1-3.5 0-4-.3-4.3-2.6-.2-1.4-.6-2.2-1-1.8zM9.6 53.2c-2 2.8-2 5.8-.2 8.3 1.8 2.5 8.9 2.7 11.3.3 2.2-2.3.8-3.6-1.5-1.5-4.7 4.3-12.5-1.6-8-6.1 1.7-1.7 7.7-1.5 8.4.3.4.8 1 1.2 1.6.9.5-.3.2-1.4-.8-2.5-2.5-2.8-8.8-2.6-10.8.3zm15.9-.6c-1 1.1-1.5 2.9-1.3 5.3.2 2.8.9 3.9 3.1 4.9 7.3 3.5 14.2-4.3 8.7-9.8-2.4-2.4-8.2-2.7-10.5-.4zm9.5 1.9c1.9 2.3.4 6.4-2.7 7.1-1.4.4-3.3.2-4.2-.3-1.7-1.1-2.6-4.6-1.7-6.9.7-1.9 7-1.8 8.6.1zm4.3-1.9c-.8 2.1.2 10.9 1.2 10.9.6 0 1.2-2 1.5-4.4.6-5 2.5-6.7 6.3-5.7 2.4.6 2.7 1.1 2.7 5.1 0 4.5 1.5 6.9 2.6 4.1.9-2.3-.4-8.3-2.2-10.1-1.8-1.8-11.4-1.7-12.1.1zm17.4.2c-2.1 2.3-2.2 6.2-.3 8.7 1.8 2.5 8.9 2.7 11.3.3 2.2-2.3.8-3.6-1.5-1.5-2.2 2-6.3 2.2-8 .5-1.5-1.5-1.5-5.1 0-6.6 1.7-1.7 6.3-1.5 7.8.3.7.8 1.7 1.2 2.2.9.5-.3.2-1.4-.8-2.5-2.3-2.5-8.5-2.6-10.7-.1zm16.7-1c-1.3.9-3.4 4.6-3.4 6.2 0 2 4.9 6 7.3 6 1.4 0 3.5-.9 4.8-2.1 2.1-1.8 2.1-2 .4-1.4-4.2 1.6-6.6 1.7-8 .5-2.7-2.2-1.6-3 4.5-3 6.6 0 7.7-1.3 4-5-2-2-7.4-2.7-9.6-1.2zm8.4 2.9c.2.9-1 1.3-4.2 1.3-4.3 0-5.5-.7-3.9-2.4 1.2-1.1 7.6-.2 8.1 1.1zm5.2 5c0 4.9.4 8.3 1 8.3s1-1.1 1-2.5c0-2.4.3-2.5 3.4-1.9 2.9.5 3.9.2 6-2 5.3-5.2 1.9-10.8-6.4-10.5l-5 .2v8.4zm11-4.6c1.6 2.8-1.1 6.9-4.5 6.9s-6.1-4.1-4.5-6.9c.8-1.5 2.1-2.1 4.5-2.1s3.7.6 4.5 2.1zM39 72.3c0 .7 1.1 1.4 2.5 1.5 1.7.1 2.5-.3 2.5-1.4 0-1.4-.3-1.4-1.5-.4-1 .9-1.5.9-1.5.1 0-.6-.4-1.1-1-1.1-.5 0-1 .6-1 1.3zm8.1 0c-.1 1.2.5 1.7 1.6 1.5 1.9-.3 3.1-2.8 1.3-2.8-.6 0-.8.4-.5 1 .3.5.2 1-.4 1-.5 0-1.2-.6-1.4-1.3-.3-.7-.6-.4-.6.6zm7.2.2c0 .8.9 1.5 2 1.5 1 0 1.7-.5 1.5-1.3-.7-1.8-3.5-2-3.5-.2zm6.7 0c0 .9.9 1.5 2.3 1.4 2-.1 2-.2.2-.7l-2-.5 2-.8c1.9-.7 1.9-.8-.2-.8-1.4-.1-2.3.5-2.3 1.4zm7 0c0 .8.9 1.5 2 1.5 1.3 0 2-.6 1.9-1.8 0-1-.3-1.2-.6-.5-.2.7-.9 1.3-1.4 1.3-.6 0-.7-.5-.4-1 .3-.6.1-1-.4-1-.6 0-1.1.7-1.1 1.5zm7-.1c0 .9.9 1.4 2 1.3 2.9-.2 3.2-2.2.4-2.5-1.5-.1-2.4.4-2.4 1.2z"/></svg>