<svg version="1.0" xmlns="http://www.w3.org/2000/svg" width="933.333" height="933.333" viewBox="0 0 700 700"><path d="M333.8 29.5c-.2.2-4.8.6-10.3 1-5.5.4-10.2.8-10.5 1-.3.1-3 .6-6 .9-3 .4-6.6.8-8 1.1-1.4.2-3.8.6-5.4.9-7.7 1.4-15.1 3.1-26.7 6.2C164 68.3 80.4 147.1 46 248.8c-2.3 6.8-4.3 13.1-4.5 14-.2.9-1.7 7.1-3.3 13.7-3.5 13.8-6.8 33.7-7.9 47.5-1.4 18.1-.8 51.7 1.3 66.8.2 1.7.6 4.9.9 7 .3 2 1.3 8.1 2.2 13.4l1.8 9.8 3 .1c1.6 0 103.1 0 225.5.1 127 0 224.6.4 227.4.9 11.1 2 19.8 12.9 19.9 24.7.1 11.6 4.8 6.4-104.5 115.6-102.4 102.4-108.9 108.9-107.2 108.5.9-.3 13.2 1 16.9 1.7 3.9.8 23.2 1.7 35.5 1.7 11.1 0 20.4-.5 34.9-1.8 4.4-.4 17.7-2.3 21.6-3.1 1.1-.2 3.4-.7 5-1 12.3-2.2 42.8-11 52-14.9 1.7-.7 7.1-2.9 12-5 51-21 101.4-61.3 134.5-107.5 33.3-46.5 52.2-95.2 59.4-153.2 2.3-18.3 2.4-54 .1-71.3-.2-1.7-.6-5.3-.9-8-.5-4.4-1.5-10.1-3.1-18.5-.2-1.4-1.2-5.9-2.1-10.1l-1.6-7.7H440.6c-162.4 0-225.3-.3-228.4-1.1-14.6-4-22.8-22.1-16.1-35.5 1.8-3.5 28.4-30.7 101.3-103.6 54.5-54.4 98.8-99.1 98.5-99.4-.4-.4-5.8-1.2-15.4-2.2-5.3-.5-46.2-1.3-46.7-.9z"/><path d="M367.7 134 281 220.9h365.1l-.7-2.2c-1.4-4.6-13.4-26.9-20.4-38.2-4.3-6.8-19.7-28.5-20.9-29.5-.4-.3-3-3.4-6-7-9.2-11.3-28.4-30.4-39-39-2.4-1.9-4.8-4-5.5-4.6-5.1-4.8-34.8-25.1-40.6-27.7-.8-.4-3.1-1.7-5-2.8-12.2-7.4-47.7-23-51.9-22.8-.9 0-40.6 39.1-88.4 86.9zM60.3 472.8l-7.2.3 2.6 6.2c11.6 27 28.9 55.1 48.6 78.7 11 13.2 28.9 31.3 39.7 40.2 3.6 2.9 6.7 5.5 7 5.8.9 1 18.5 13.7 24.5 17.7 8.7 5.8 28.1 16.7 38.3 21.5 9.5 4.4 27.1 11.8 28.2 11.8.4 0 41.7-41 91.8-91l91.1-91-10.7-.1c-47.3-.2-348.3-.3-353.9-.1z"/></svg>