<svg version="1.0" xmlns="http://www.w3.org/2000/svg" width="682.667" height="682.667" viewBox="0 0 512 512"><path d="M232.5 1.2c-77 6.9-147.4 49.4-190.8 115.3C21 148 7.2 185.1 1.9 224c-2 14.3-1.8 52.6.4 67.5C10.5 347.4 35.6 397.8 75 437c39.6 39.6 88 63.9 144.5 72.6 28.4 4.4 74.2 2.1 97.5-4.9l4.5-1.4-6-1.6c-12.1-3.4-31.3-11.1-44.5-17.8-69.8-35.3-119.4-100.4-135-177.1-5.9-28.8-6.6-65.7-1.7-93.8 9.3-52.9 33.8-100.1 71.7-138 28.8-28.8 61.9-49.2 101.3-62.4l12.9-4.3-6.9-1.7c-24.6-5.8-54-7.8-80.8-5.4z"/></svg>