<?xml version="1.0" standalone="no"?>
<!DOCTYPE svg PUBLIC "-//W3C//DTD SVG 20010904//EN"
 "http://www.w3.org/TR/2001/REC-SVG-20010904/DTD/svg10.dtd">
<svg version="1.0" xmlns="http://www.w3.org/2000/svg"
 width="512.000000pt" height="512.000000pt" viewBox="0 0 512.000000 512.000000"
 preserveAspectRatio="xMidYMid meet">
<metadata>
Created by potrace 1.14, written by Peter Selinger 2001-2017
</metadata>
<g transform="translate(0.000000,512.000000) scale(0.100000,-0.100000)"
fill="#000000" stroke="none">
<path d="M452 5100 c-109 -29 -187 -74 -273 -160 -56 -55 -86 -95 -113 -150
-70 -144 -66 3 -66 -2236 0 -1980 0 -2022 20 -2098 29 -113 73 -190 160 -277
55 -56 95 -86 150 -113 144 -70 -3 -66 2236 -66 1980 0 2022 0 2098 20 113 29
190 73 277 160 56 55 86 95 113 150 70 144 66 -3 66 2236 0 1980 0 2022 -20
2098 -29 113 -73 190 -160 277 -55 56 -95 86 -150 113 -144 70 3 66 -2240 65
-1961 0 -2027 -1 -2098 -19z m1258 -1535 c111 -28 276 -115 353 -185 63 -58
157 -176 157 -197 0 -8 -388 -225 -414 -231 -7 -1 -18 8 -24 22 -20 44 -84
107 -136 133 -68 35 -190 43 -264 19 -91 -31 -142 -118 -108 -184 35 -68 127
-113 367 -178 317 -85 440 -155 540 -303 81 -122 105 -313 59 -481 -52 -192
-227 -340 -479 -408 -85 -22 -117 -25 -271 -26 -111 -1 -197 4 -235 12 -266
58 -435 174 -552 380 -19 35 -34 64 -32 66 15 11 421 236 428 236 4 0 18 -23
31 -50 28 -61 104 -134 165 -161 95 -42 292 -41 374 1 52 26 81 72 81 127 0
89 -81 138 -369 223 -303 89 -396 135 -499 244 -90 97 -132 208 -132 351 0
311 209 533 563 601 92 17 308 11 397 -11z m2120 -8 c168 -44 309 -121 433
-237 83 -77 182 -220 164 -236 -18 -16 -418 -247 -421 -243 -1 2 -12 20 -24
39 -26 44 -95 110 -149 143 -118 74 -300 94 -436 48 -164 -55 -290 -186 -332
-346 -19 -73 -20 -242 -1 -310 49 -185 201 -330 383 -365 87 -17 234 -8 308
19 85 30 162 87 213 156 24 33 45 61 46 63 6 6 426 -240 426 -249 0 -6 -18
-36 -39 -68 -174 -255 -458 -411 -778 -428 -422 -22 -792 188 -973 552 -171
346 -134 792 92 1094 152 202 373 337 633 386 121 22 333 14 455 -18z"/>
</g>
</svg>
