<?xml version="1.0" standalone="no"?>
<!DOCTYPE svg PUBLIC "-//W3C//DTD SVG 20010904//EN"
 "http://www.w3.org/TR/2001/REC-SVG-20010904/DTD/svg10.dtd">
<svg version="1.0" xmlns="http://www.w3.org/2000/svg"
 width="764.000000pt" height="764.000000pt" viewBox="0 0 764.000000 764.000000"
 preserveAspectRatio="xMidYMid meet">
<metadata>
Created by potrace 1.14, written by Peter Selinger 2001-2017
</metadata>
<g transform="translate(0.000000,764.000000) scale(0.100000,-0.100000)"
fill="#000000" stroke="none">
<path d="M2349 7053 c0 -26 -1 -183 -2 -348 -1 -192 -6 -300 -12 -301 -41 -2
-174 -22 -230 -34 -22 -5 -53 -11 -70 -14 -113 -21 -298 -79 -430 -135 -11 -5
-56 -26 -100 -47 -44 -20 -82 -38 -85 -39 -13 -4 -66 -31 -75 -38 -9 -7 -84
-52 -145 -88 -14 -8 -27 -16 -30 -19 -3 -3 -36 -28 -75 -55 -85 -60 -88 -62
-189 -150 -147 -128 -268 -261 -401 -440 -89 -119 -260 -431 -291 -530 -2 -5
-25 -73 -52 -150 -26 -77 -48 -142 -48 -145 -1 -3 -9 -41 -19 -85 -9 -44 -19
-93 -22 -110 -2 -16 -7 -41 -9 -55 -6 -29 -9 -47 -20 -145 -9 -78 -10 -448 -1
-510 3 -22 8 -61 11 -87 7 -55 16 -112 22 -142 12 -52 14 -62 18 -83 10 -47
57 -220 70 -253 7 -19 24 -62 36 -95 62 -162 229 -485 252 -485 4 0 8 -5 8
-11 0 -13 151 -214 202 -270 86 -95 120 -129 193 -198 44 -40 107 -94 140
-119 33 -25 62 -49 65 -52 10 -13 157 -108 250 -162 87 -51 168 -91 290 -146
105 -47 378 -130 475 -146 17 -2 30 -5 30 -6 0 -3 97 -16 182 -26 l62 -7 0
-366 c0 -201 0 -374 0 -383 1 -15 114 -16 1619 -13 889 2 1635 6 1657 9 22 2
63 7 90 10 28 4 64 8 80 11 17 3 50 7 75 10 25 3 79 12 120 20 41 9 86 17 100
20 14 3 36 7 50 10 40 7 228 64 290 87 30 11 60 21 65 23 18 4 49 17 145 63
52 25 97 46 100 46 15 3 209 125 246 156 17 14 44 34 60 45 53 37 220 210 276
285 59 81 138 212 138 229 0 6 5 11 10 11 6 0 10 8 10 18 0 10 4 22 9 28 20
22 93 245 106 324 3 19 8 42 10 50 38 140 37 477 -1 690 -3 19 -8 44 -9 55 -2
11 -4 20 -5 20 -1 0 -4 11 -7 25 -6 31 -8 41 -16 60 -3 8 -13 42 -23 75 -36
125 -111 275 -208 415 -51 74 -211 244 -274 290 -18 14 -45 35 -60 48 -15 13
-40 30 -57 39 -16 8 -37 21 -45 29 -25 21 -229 119 -306 147 -78 28 -241 73
-289 81 -16 2 -32 5 -35 6 -3 1 -9 1 -15 0 -5 -1 -7 2 -3 6 4 4 53 22 109 40
158 51 358 156 480 250 30 23 206 200 235 235 67 82 178 277 199 349 4 14 13
39 21 55 13 31 49 164 58 223 4 17 8 46 11 63 9 49 16 149 17 224 1 79 -15
310 -22 310 -2 0 -7 24 -15 70 -25 147 -130 378 -245 537 -43 59 -245 268
-260 268 -4 0 -18 9 -31 21 -55 48 -359 228 -359 213 0 -2 -18 5 -39 16 -66
33 -245 94 -341 115 -8 2 -15 4 -15 5 0 1 -8 3 -19 5 -10 2 -39 8 -65 14 -49
11 -94 20 -126 26 -11 1 -47 8 -80 13 -33 6 -89 14 -125 17 -36 4 -81 10 -100
13 -19 3 -745 7 -1612 9 l-1578 4 -1 -48z m3051 -956 c95 -13 115 -17 194 -37
99 -26 218 -73 268 -106 21 -13 42 -24 48 -24 5 0 10 -4 10 -9 0 -5 9 -13 20
-16 36 -11 163 -149 205 -220 75 -130 106 -252 105 -422 0 -45 -2 -99 -5 -120
-11 -75 -27 -148 -35 -158 -5 -5 -9 -13 -9 -17 -4 -23 -50 -129 -60 -138 -3
-3 -13 -18 -21 -35 -21 -40 -172 -190 -210 -206 -16 -8 -30 -16 -30 -20 0 -8
-167 -85 -235 -107 -66 -22 -189 -48 -275 -59 -30 -4 -475 -8 -987 -10 l-933
-4 0 288 0 288 -62 40 c-145 92 -342 173 -486 200 -100 20 -154 26 -230 30
-48 2 -92 5 -98 6 -5 1 -11 0 -14 -1 -4 -1 -58 -5 -155 -9 -16 -1 -36 -5 -43
-10 -11 -7 -14 -242 -14 -1355 0 -741 3 -1350 6 -1354 17 -16 314 -22 416 -8
91 13 221 43 285 66 33 12 69 24 80 28 55 16 275 136 283 155 2 4 10 7 18 7
12 0 14 52 14 329 l0 329 523 1 c287 0 524 1 527 2 3 1 10 0 15 -1 32 -7 56
-6 61 2 3 4 10 6 15 2 17 -10 59 -12 65 -2 3 4 10 6 15 2 16 -10 59 -12 65 -3
2 4 10 6 18 3 7 -3 156 -7 332 -9 175 -2 337 -6 359 -9 22 -4 47 -7 55 -7 8
-1 38 -5 65 -10 28 -5 64 -12 80 -15 124 -21 405 -122 405 -146 0 -4 6 -8 13
-8 23 0 146 -89 207 -150 128 -129 212 -299 224 -452 2 -26 6 -50 8 -55 6 -12
1 -161 -6 -208 -22 -129 -86 -289 -149 -369 -139 -177 -346 -301 -617 -370
-52 -13 -113 -27 -135 -30 -22 -4 -53 -9 -70 -11 -16 -3 -50 -8 -75 -12 -25
-3 -439 -7 -920 -9 -852 -4 -874 -3 -840 14 166 87 301 167 308 185 2 4 8 7
13 7 9 0 115 75 129 91 3 3 15 12 28 21 65 44 254 226 333 319 24 28 49 57 55
63 54 57 254 358 254 382 0 7 4 14 9 16 16 6 150 301 163 357 3 13 -59 15
-441 16 l-444 0 -55 -85 c-30 -47 -75 -112 -100 -144 -55 -72 -211 -230 -267
-271 -22 -17 -42 -33 -45 -36 -11 -14 -170 -118 -170 -111 0 4 -4 2 -8 -4 -7
-11 -179 -98 -237 -121 -37 -14 -155 -52 -181 -58 -214 -50 -261 -56 -452 -59
-84 -1 -272 14 -292 24 -3 1 -9 2 -13 1 -21 -3 -249 60 -304 85 -17 8 -35 14
-40 14 -11 0 -197 94 -258 130 -37 22 -100 66 -150 106 -72 56 -96 77 -162
142 -40 40 -101 108 -134 150 -94 119 -106 137 -115 165 -4 9 -10 17 -15 17
-5 0 -9 4 -9 10 0 5 -13 31 -28 57 -66 112 -152 347 -177 478 -3 17 -8 44 -11
60 -13 66 -16 107 -19 277 -1 97 1 198 6 225 5 26 11 62 14 80 23 179 137 473
245 636 22 33 40 63 40 67 0 5 3 10 8 12 4 2 20 21 36 43 63 86 221 245 306
309 30 22 57 44 60 47 25 29 328 195 376 206 5 1 47 16 92 32 74 26 106 35
212 56 116 24 206 31 345 29 137 -2 215 -8 265 -18 14 -3 50 -11 80 -16 73
-15 243 -67 300 -92 111 -50 277 -140 315 -170 6 -5 33 -25 61 -46 73 -54 77
-58 188 -167 88 -87 216 -241 216 -260 0 -4 6 -13 14 -21 12 -12 88 -14 466
-14 l452 0 -7 27 c-6 25 -117 256 -148 308 -7 11 -25 43 -41 70 -27 46 -137
205 -161 232 -5 6 -21 26 -35 44 -158 206 -440 448 -698 600 l-67 39 780 -3
c429 -2 800 -6 825 -10z"/>
</g>
</svg>
