<?xml version="1.0" standalone="no"?>
<!DOCTYPE svg PUBLIC "-//W3C//DTD SVG 20010904//EN"
 "http://www.w3.org/TR/2001/REC-SVG-20010904/DTD/svg10.dtd">
<svg version="1.0" xmlns="http://www.w3.org/2000/svg"
 width="700.000000pt" height="700.000000pt" viewBox="0 0 700.000000 700.000000"
 preserveAspectRatio="xMidYMid meet">
<metadata>
Created by potrace 1.14, written by Peter Selinger 2001-2017
</metadata>
<g transform="translate(0.000000,700.000000) scale(0.100000,-0.100000)"
fill="#000000" stroke="none">
<path d="M0 3500 l0 -3500 3500 0 3500 0 0 3500 0 3500 -3500 0 -3500 0 0
-3500z m5101 1722 c112 -47 206 -141 252 -252 21 -53 22 -67 22 -370 0 -392
-22 -592 -100 -900 -230 -910 -815 -1686 -1625 -2154 -63 -36 -121 -66 -128
-66 -39 0 -353 200 -542 346 -147 113 -459 425 -574 574 -409 530 -643 1098
-722 1755 -20 170 -30 649 -15 730 24 129 115 256 222 310 111 57 29 54 1654
52 l1500 -2 56 -23z"/>
<path d="M2100 4613 c0 -407 51 -723 170 -1067 211 -609 632 -1153 1173 -1516
l79 -52 96 65 c677 459 1145 1187 1281 1993 32 189 41 310 41 550 l0 224
-1420 0 -1420 0 0 -197z"/>
</g>
</svg>
