<svg version="1.0" xmlns="http://www.w3.org/2000/svg" width="520" height="520" viewBox="0 0 390 390"><path d="M132.8 100.7c.7.3 1.6.2 1.9-.1.4-.3-.2-.6-1.3-.5-1.1 0-1.4.3-.6.6zm-6 1c.6.2 1.8.2 2.5 0 .6-.3.1-.5-1.3-.5-1.4 0-1.9.2-1.2.5zm139 0c.7.3 1.6.2 1.9-.1.4-.3-.2-.6-1.3-.5-1.1 0-1.4.3-.6.6zm5 1c.7.3 1.6.2 1.9-.1.4-.3-.2-.6-1.3-.5-1.1 0-1.4.3-.6.6zm-154 1c.7.3 1.6.2 1.9-.1.4-.3-.2-.6-1.3-.5-1.1 0-1.4.3-.6.6zm159 0c.7.3 1.6.2 1.9-.1.4-.3-.2-.6-1.3-.5-1.1 0-1.4.3-.6.6zm5 1c.7.3 1.6.2 1.9-.1.4-.3-.2-.6-1.3-.5-1.1 0-1.4.3-.6.6zm4 1c.7.3 1.6.2 1.9-.1.4-.3-.2-.6-1.3-.5-1.1 0-1.4.3-.6.6zm4 1c.7.3 1.6.2 1.9-.1.4-.3-.2-.6-1.3-.5-1.1 0-1.4.3-.6.6zm4 1c.7.3 1.6.2 1.9-.1.4-.3-.2-.6-1.3-.5-1.1 0-1.4.3-.6.6zm-97 3.8c-2.4 1.9-6.8 4.7-9.8 6-3 1.4-6.6 3.2-8 3.9-1.5.7-3.4 1-4.5.5-2.8-1.1-9.5-1.1-9.5 0 0 .5.6 1.2 1.3 1.4.6.3-.8.6-3.3.6-3.3.1-4.1-.2-3-.9 2.1-1.3 1-1.2-7.1.6-8.3 1.9-14.6 1.5-25.4-1.5-4.4-1.3-12.1-2.5-17.1-2.8l-9.1-.6-4.2 3.8c-2.2 2-4.1 4.4-4.1 5.1 0 1.7.5 1.7 3.3.3 2.1-1 2.1-1 .3.5-1.1.9-3.1 1.6-4.4 1.6-3.1 0-6.2 1.7-6.2 3.5 0 .7-.9 1.6-1.9 2-1 .3-4.5 2.3-7.8 4.3-9.3 6-17.3 10.3-17.3 9.3 0-.5 2.5-2.4 5.5-4.1 6.3-3.6 7.4-5 1.6-2.1-5.7 3-18.6 12.9-18.6 14.4 0 1.9-6.3 9.5-8.8 10.8-1.2.6.3-1.5 3.3-4.7 5.2-5.4 5.2-5.5 1.1-2.1-2.5 2-5.1 3.7-5.8 3.7-.7 0-3.8 2.5-6.8 5.6-5 5.1-5.5 5.9-5.6 10.2l-.1 4.7-1-3.5c-1.5-5.1.6-15.1 4.8-23.1 3.6-6.8 13.2-17.2 22.7-24.5 2.6-2 4.7-3.8 4.7-4.1 0-1.2-11.9 7.6-19 14.1-2.4 2.3-3.7 3.2-2.7 2 .9-1.1 1.7-2.4 1.7-2.9 0-.4-1.3.9-3 3-1.6 2-2.7 4.2-2.3 4.8.3.6.1.7-.6.3-.7-.5-2.3 1.8-4.6 6.6l-3.5 7.2v-4.5c0-5.5 2.5-9.6 10.8-18.2 7-7.2 15.2-13.2 26.3-19.1 10.5-5.7 9.6-6-1.4-.5C26.3 138.3 9.6 157.5 8.3 179c-.7 10.5 1.5 15 10.3 20.8 5.6 3.7 6.2 3.9 4.8 1.7-2.6-4-.7-4.2 3.4-.3 10.3 9.8 20.6 16.2 37.3 23.1l10.4 4.3 10.5-.8c13-1.1 18.4-.5 23.1 2.6 6.5 4.4 23.3 8.5 26.8 6.7 2.3-1.3 2.8-3.1.8-3.1-.8 0-2.4-1.2-3.8-2.6-3.7-4-13.2-8.4-18.1-8.4-2.5 0-3.8-.4-3.1-.8 1-.6 1-1.6.1-4.3-.6-1.8-1.3-4-1.5-4.8-.3-1.1-1.4-1.2-5.1-.6-8.3 1.3-8.7 1.2-8.6-1.3.1-2.6-2.1-2.9-5-.7-2.6 2-4.6 1.9-7.6-.5-1.4-1.1-3.3-2-4.3-2s-3.1-.7-4.8-1.5l-3-1.6 2.1-2.6c1.4-1.8 2-4.1 2-7.4 0-5.4 2.5-10.5 6.2-12.6 1.3-.7 1.7-1.2 1.1-1.3-1.8 0-1.6-2 .2-2 .8 0 1.5-.9 1.5-2 0-1.3.7-2 1.9-2 2.4 0 3.6 1.6 1.9 2.3-.7.3 1.2.4 4.2.1l5.5-.3-4.5.8c-2.5.5-5.6 1.4-7 1.9l-2.5 1.1h2.7c1.6.1 3.6 1.2 5.1 3.1 2 2.3 3.4 3 6.1 3 2.6 0 3.9.6 5.3 2.6 2.8 4 5.3 6.1 10.8 8.9 5.2 2.6 9 3.2 10 1.5.4-.6-.8-1-2.7-1.1-2.4 0-2.8-.2-1.5-.8 1-.4 1.8-1 1.8-1.4-.3-1.8 3.5-5.9 7.6-8.2 4.6-2.5 5.9-2.6 14-.9 1.3.2 3 1.8 3.8 3.4 1.3 2.5 2.1 3 5.3 3 2.1 0 4.2-.4 4.8-.9.5-.4 3.2-1.4 5.9-2.1 6.6-1.7 12.5-4.7 15-7.5 1.1-1.2 3.4-3.1 5-4.1 3.7-2.4 4.2-4.2 1.2-4.9-2.3-.6-7.6.3-16.6 2.9-4.1 1.1-5.8 1.2-6.8.4-1-.8-1.1-1.4-.3-2.2.5-.5 1-1.6 1-2.4 0-.8 1.1-2.3 2.4-3.3 2.5-1.9 2.7-3.3 1.2-5.8-.7-1.1-3.1-1.2-12-.6-12.3.7-13 0-2.9-3.4 7.9-2.6 15.5-2.7 21.2-.1 2.4 1.1 5.1 2 6 2 1.3 0 1.3.2.2.9-1 .6-1 1-.1 1.6.8.5.7 1.2-.6 2.6-2.6 2.9-1.3 3.1 5.4 1 4.2-1.3 8.1-3.5 12.7-7.4 3.7-3 10.6-7.6 15.6-10.3 7.1-3.9 8.8-5.2 8.3-6.6-.3-1.1 0-1.8.9-1.8.7 0 3.6-1.6 6.3-3.5 5.7-4.1 6.2-4.1 13.2-1.5 5.4 2.1 6.9 2 16-.8 3.3-1.1 4.2-.2 2 1.8-4.2 3.6-12.8 9.5-15.8 10.7-1.9.9-5.4 3.6-7.7 6.1-2.4 2.6-4.3 4.2-4.3 3.6 0-1.7 7.4-9.7 10.4-11.3 2.2-1.2 3.8-5.1 2.1-5.1-3.4 0-15 11.1-19.5 18.5-1.3 2.2-3.9 5.5-5.6 7.3-2.5 2.6-3.3 4.4-3.7 9-.8 7 1.1 14.7 4 16.7 3.1 2.1 14.2.7 12.7-1.6-.3-.5-1.5-.9-2.7-1-1.9 0-1.9-.2.6-1.1 1.7-.6 2.7-1.7 2.7-2.9 0-1.8.2-1.8 2.4-.4 2.5 1.7 5.4 1.1 7.3-1.4.6-.9 4.4-2.7 8.5-4.1 6.9-2.4 7.4-2.9 10.1-7.7 2.9-5.4 5.7-6.3 5.7-1.9 0 3.4-6.9 11.8-9.2 11.3-1-.3-1.8-.1-1.8.4s.5.9 1.1.9c.6 0 .8.8.5 1.8-.5 1.3 0 1.8 1.7 1.9 1.2.1 3.2.5 4.5.8 1.7.4 3.1-.4 5.8-3.1 3.5-3.4 3.7-3.5 5-1.6.8 1.1 1.8 3.2 2.4 4.6.7 1.9 1.7 2.6 3.5 2.6 3.1 0 3.2 1.3.3 2.9-1.3.6-1.5.9-.6.7 1-.3 2-.1 2.3.4.4.6 1.5 1 2.5 1 2.6 0 3.1 1.3 1.9 4.8-.8 2.4-2.6 3.8-8.2 6.5-10.5 5.1-21.1 8.4-30.4 9.6-8.9 1.1-13.4 2.7-20.3 7.1-4.1 2.5-5.4 2.8-13.5 2.9-4.9 0-9.6-.3-10.3-.8-1.1-.6.2-2.5 4.9-7.5 3.5-3.6 7-6.6 7.8-6.6.9 0 2.9-.9 4.4-1.9l2.9-1.8-2.8-.7c-1.5-.4-3.3-1.5-4-2.3-1.3-1.9-5.4-2.5-5.4-.8 0 .6-1.7 2.3-3.7 3.6-2.9 1.8-3.8 3.1-3.8 5.3-.1 1.6-.8 3.2-1.8 3.8-1.6.8-1.7.5-1.3-2.8.2-2.1 1-4.2 1.8-4.8 1.9-1.4 3-4.6 1.7-4.6-.6 0-.9-.7-.5-1.5.3-.9-.3-2.3-1.4-3.2-1-.9-1.7-2-1.4-2.5.8-1.2 2.4-1 2.1.3-.4 2.1 1.9 2 4.7-.2 2.4-1.9 2.6-2.3 1.2-3.1-.9-.5-1.6-1.5-1.6-2.2 0-.8-.7-1.9-1.5-2.6-1.9-1.6-4.3.3-7.1 5.6-1.7 3.1-1.7 3.7-.4 4.7 1.4 1.1 1.6 1.9 1.2 5.4-.2.9-1.7 1-5.4.6-4.2-.4-5.1-.3-4.1.7 1.3 1.4.8 3.6-1.6 6.4-1.5 1.8-1.5 1.9.2 1.3 4.9-1.8 6.7-1.9 7.3-.3.3.9.3 2.4 0 3.3-.6 1.5-.8 1.5-1.6.3-.5-.9-.5-1.9.2-2.7.8-1 .7-1.2-.4-.8-.9.3-2 1.7-2.6 3-.6 1.3-2.3 3.1-3.6 4.1-2.4 1.5-2.7 3.4-.5 3.4.6 0 .8-.4.4-.9-.3-.6.5-1.5 1.7-2.2 2.1-1.1 2.2-1.1.9.4-1.8 2.3-.9 2.1 4.9-.8 2.8-1.4 5-2.1 5-1.5 0 .5-.5 1-1.2 1-.6 0-2.1.9-3.2 1.9-3.7 3.4-18.6 6.7-18.6 4.1 0-.5-1.2-.7-2.7-.4-3.5.6-10.8-1.8-10.8-3.7 0-.8-.9-1.3-2.3-1.2-4.2.5-2.2-1.5 2.3-2.1 7-1.1 5.5-2.8-2-2.4-6.9.3-7.9-.7-3.2-3 3.5-1.7 3.5-4.2.1-4.2-2.4 0-2.5-.2-1.3-1.7 1.1-1.3 1.1-1.7.2-2-2.3-.8-1.4-3.3 2-5.3 2.4-1.5 2.7-2 1.3-2-2.9 0-.7-1.7 3.3-2.5 2.3-.5 3.1-.4 2.7.4-1.2 1.8 1 1.2 3.5-1l2.4-2-3.5.6c-1.9.3-8.2 1.1-14 1.8-7 .9-11.5 1.9-13.5 3.2l-2.9 2 3.4.5 3.4.5-2.7 1.2c-3.5 1.6-3.5 3.3.1 3.3h2.7l-2.5 2c-1.4 1-2.6 1.5-2.8 1-.2-.6-.8-1-1.4-1-.6 0-.8.7-.4 1.5.6 1.8-2.2 3.5-5.8 3.5-3.2 0-3.4 1.6-.3 2.4 5.2 1.4 7.4.7 10.2-3.4 3.8-5.4 5.2-5.1 4.7 1.1-.1.9.7 2.4 1.7 3.3 1.1 1 1.7 2.5 1.4 3.7-.5 1.6-1.3 2-4.2 1.8-6.2-.4-11.1.1-11.1 1.1 0 .5 2.1 2.5 4.8 4.5 2.6 2 4.9 4.6 5.2 5.8.4 1.4 2 2.7 4.5 3.7 5.5 2.1 6.5 2.8 6.5 4.9 0 .9 1.2 2.8 2.6 4 2.6 2.3 3.4 2.3 29.4 2.9 39.2.7 66-1.7 95.7-8.8 15.7-3.8 18.4-5 23-11.2 2.8-3.6 6.5-6.6 13.7-10.9 5.4-3.2 10.5-5.9 11.2-5.9 2 0 1.8-.7-1.1-3.8-1.4-1.5-2.5-3.1-2.5-3.5 0-.5 2.7-3.7 5.9-7 7.7-8 8.7-7.3 7 4.4-1.6 11.2-2.4 13.2-4.9 12.4-1.1-.3-2.1-.3-2.1.2-.1.4-.3 1.8-.4 3-.1 1.3-1.5 3.3-3.1 4.5-1.5 1.3-3.5 2.9-4.3 3.6-.9.7.9.1 3.9-1.4s6.8-4.1 8.4-5.8c1.6-1.7 2.6-2.5 2.2-1.9-.4.7-.4 1.3-.1 1.3 1.1 0 7-3.3 10.2-5.7 1.8-1.4 3.6-2.2 4.1-1.9 1.7 1 14.1-9.7 18.5-15.9 1.1-1.7-1.1.2-5 4.1-3.9 3.9-8.6 8.1-10.4 9.4-1.9 1.3-.4-.5 3.4-3.9 7-6.6 14.1-15.2 18.3-22.3 2.2-3.9 2.4-4 1.8-1.3-1.3 6.5-7.9 17.8-13.9 23.8-6.5 6.6-6.2 6.6 2.9.3 16.6-11.6 19.8-17.4 17.2-30.9-4-20.6-19.6-37.3-48.3-51.6-10-5-26.4-11.4-31.8-12.6-1.6-.3 1.7 1.2 7.5 3.4 21 7.8 35.5 15.9 45.6 25.3 10.9 10.3 11.2 13.7.3 4.2-9-7.9-21.1-15.7-33.5-21.5-5.7-2.7-10.8-4.9-11.2-4.9-.4 0 5.1 3 12.1 6.5 13.7 6.9 22.5 12.6 28.9 18.3 4.8 4.4 12 14.2 14.3 19.7 2.4 5.7 3.6 19.5 2.2 24.2l-1.1 3.8-.6-3.9c-.6-4.3-3.4-6.8-6.3-5.7-1.6.6-1.4 1.1 1.8 4.4 3.7 3.8 4.5 8.2 1.6 8.2-1.3 0-6.7-8-12.2-18-2.5-4.5-16.4-19.3-22.3-23.6-2.1-1.6-3.5-2.9-3-2.9.6 0 1.7.6 2.4 1.2.8.7 0-.3-1.8-2.3-1.8-1.9-4.5-6.6-6.1-10.4-1.7-3.8-3.5-7.1-4.1-7.3-.8-.3-1 .3-.5 1.7.5 1.7.2 2.1-1.4 2.1-2.6 0-3.6-1.7-2.1-3.5 1.1-1.3.7-1.3-2.6-.1-7.1 2.5-11.7 2.7-25.3 1.2-15.4-1.8-18.9-3.2-5.6-2.3 8.3.6 8.7.5 5.8-.7-6.7-3-44.7-9.2-48.6-8-1.4.4-3.1-.5-6.3-3.7-2.4-2.3-4.7-4-5-3.6-.4.4 0 .9.9 1.3 1.5.5 1.5.9.1 3.6-1.8 3.6-1.2 8.5 1.2 10.3 1.4 1 .5 1.2-4.4 1-3.4-.1-6.7.3-7.4.8-.9.6-.8.7.4.3 1-.3 2-.1 2.3.4.3.5 4 .7 8.5.3 5.7-.4 8-.3 8 .6 0 .6-.7 1.1-1.6 1.1-.8 0-1.2.5-.8 1.1.4.7-.1.7-1.6-.1-1.5-.8-2-.8-1.6-.1.4.7-.1 1.1-1.2 1.1-1 0-4 1.1-6.6 2.5-2.5 1.3-4.6 2.1-4.6 1.7 0-1 3.8-3.5 7.2-4.7 2.3-.8 1.5-1-4.8-1.1-6.1-.1-7.9-.5-9.7-2.2-1.6-1.5-2.7-1.8-3.7-1.2-2 1.3-3.3 1.3-2.5 0 .3-.6-.3-1-1.4-1-1 0-2.6-.3-3.5-.6-1.3-.5-1.6.1-1.6 2.9v3.6l-5.1-1.5c-2.8-.9-6.7-1.5-8.8-1.4-5.1.3-6.4.1-8.1-1-2.3-1.5.7-3.1 4.6-2.4 2.5.5 3.2.2 3.6-1.4.5-1.7 1.3-1.9 7.7-1.6 4.9.2 7 0 6.5-.7-.4-.7.1-.9 1.5-.4 2.9.9 13.5-.4 15.6-1.9 2.4-1.7.9-4.6-2.5-4.6-1.5 0-3.9.9-5.4 2.1-1.5 1.2-2.6 1.5-2.6.9 0-.9-2-1-7.2-.5-9.4.9-8.2-.7 3.4-4.7 4.6-1.5 6.8-2.6 5.1-2.3-2.5.3-3.3.1-3.3-1 0-.9.9-1.5 2.3-1.5 1.8 0 1.9-.2.7-1-3.1-2-7.7-1.1-12.2 2.5zm5.2.7c0 1.6-.3 1.9-1.1 1.1-.6-.6-.8-1.6-.5-2.2 1.1-1.7 1.6-1.3 1.6 1.1zm-99 8.6c0 1.5-2.4 3.2-4.4 3.2-2-.1-2-.1.3-2 2.4-2.1 4.1-2.6 4.1-1.2zm145.1 1.7c3.3.9 7.4 1.5 9.2 1.4 1.7-.1 4.3.3 5.7.8 1.4.6 3 .8 3.7.6.6-.2 1.4.1 1.8.6.4.7-.1.8-1.2.4-1.6-.6-1.6-.5-.4 1 1.1 1.4 1.1 1.7 0 1.7-.8 0-2.4.3-3.6.6-1.8.5-2.1.3-1.6-1.4.5-2.2-.6-2.6-11.6-3.8-3.6-.3-7.1-1.3-7.9-2-1.7-1.8-1.3-1.7 5.9.1zM124 124c-3.4 1.1-6 1.1-3.5 0 1.1-.5 2.9-.8 4-.8 1.6 0 1.5.2-.5.8zm-17 3c1.7 1.2 3.2 1.5 4.5.9 3.3-1.3 10-1 12.1.6 1.5 1.2 6.3 1.4 25.4 1.5 12.9 0 24.1.4 24.9.9 3.1 1.9-7.6 13.8-14.6 16.3-1.8.7-3.3 1.5-3.3 1.9 0 1.4 6.3-1 8.7-3.2 1.2-1.3 2.5-2 2.8-1.7.3.3-1.1 2-3.1 3.7-4.1 3.6-3.9 6.1.3 6.2 2.7.1 2.7.1-.5 1-2.4.7-4.5.6-7-.3l-3.7-1.2 3-.6c2.4-.5 1.7-.8-3.7-1.4-6.1-.7-7.4-.5-12.4 1.8-7.3 3.4-10 3.4-5.9.1 1.7-1.3 3.7-3 4.5-3.7.9-.7 4-2.1 7-3.2 7.5-2.5 24-9.9 24-10.7 0-.8-10.8-1.9-18.9-1.9-3.6 0-9.5.7-13.1 1.4-7.4 1.6-22.5 1.3-28.2-.5-3.9-1.2-4.8-2.4-2.5-3.2.6-.2.9-.8.5-1.2-.4-.4-1.4-.2-2.2.4-2.1 1.8-3.3.7-3.8-3.3-.4-3.7.4-3.8 5.2-.6zm35.5-1c5.5.5 10.9 1 12 1.1 1.1.1.2.5-2 1-6.1 1.2-17.5.9-22-.7-2.2-.7-2.9-1.2-1.5-.9 1.4.2 4.5.7 7 1 3.7.4 3.2.1-2.5-1.5-3.8-1-5.6-1.7-4-1.4 1.7.2 7.5.9 13 1.4zm-16.8-.4c-.3.3-1.2.4-1.9.1-.8-.3-.5-.6.6-.6 1.1-.1 1.7.2 1.3.5zm120.6 4.1c-.7.2-2.1.2-3 0-1-.3-.4-.5 1.2-.5 1.7 0 2.4.2 1.8.5zm-39.1 2.5c-.7.7-1.2 2.1-1.2 3.1 0 1.6-.3 1.7-1.5.7-2-1.7-1.9-2.5.8-3.8 2.9-1.4 3.3-1.4 1.9 0zm82.3 1.8 7 2-6.5-.6c-3.6-.3-7.8-.8-9.4-1.1-2.1-.4-2.7-.3-2.2.5 1.2 2-1 1.3-2.9-.8-1.8-2-1.7-2 2.6-2 2.4 0 7.6.9 11.4 2zm-203.9 7.6c-1.7 6.5-2.7 8.3-6.8 11.9l-3.3 3 2.6-3c1.5-1.7 3-4.6 3.4-6.5.7-3.3 4.5-11.3 5.1-10.7.2.2-.3 2.5-1 5.3zm226.5-3.8c-2.5 4.7 1.8 12.2 7.1 12.2 2.5 0 2.8.3 2.8 3.5 0 3.4-.1 3.4-3.2 2.8-3.9-.7-4.9-2-4.2-4.9.5-2 .1-2.2-4.3-2.6-2.6-.2-5.1 0-5.4.5-.7 1-2.3.8-9.4-1.4-2.7-.8-6-.9-10-.4-3.3.5-5.3 1-4.3 1.2 1.5.4 3.5 3.3 2.2 3.3-1.6 0-10.4-5.2-9.9-5.9.5-.9 14.4-4.3 16.1-4 2.3.4 3.3-.2 2.7-1.7-.6-1.5.1-1.6 5.3-1.1 4.7.5 6.7.3 9.9-1.2 5.1-2.5 5.8-2.5 4.6-.3zm-29.4-.2c-.3.3-1.2.4-1.9.1-.8-.3-.5-.6.6-.6 1.1-.1 1.7.2 1.3.5zm-1.1 3.2c-.4.3-1.4-.2-2.4-1.2-1.6-1.8-1.6-1.8.6-.6 1.3.6 2.1 1.4 1.8 1.8zm-71.9 1.1c0 1-.7 1.7-1.3 1.4-.7-.3-1-1.1-.7-1.9.8-2 2.2-1.7 2 .5zm52.3 2.3c0 .5-1.1.6-2.5.2-1.4-.3-4.2.1-6.5 1-5.4 2.1-6.1 2-2.5-.4 1.7-1.1 3.7-2 4.6-2 .9 0 2.2-.7 3-1.6 1.2-1.4 1.4-1.4 2.6.2.7 1 1.3 2.2 1.3 2.6zm-30.5 8c-2.7 2.9-5.2 5.7-5.7 6.2-.5.6-.8.6-.8 0 0-1.4 9-11.4 10.2-11.4.6 0-1.1 2.4-3.7 5.2zm-57.6-.2c2.1 1.7 5.1 3.5 6.7 4 2.4.8 2.1.9-1.6.4-2.5-.3-5.8-.6-7.5-.5-2.2 0-2.6-.2-1.6-.9 1.2-.7.9-1-1.2-1.5-3-.8-3.3-1.5-1.5-3.3 1.7-1.7 2.5-1.5 6.7 1.8zm20.5-.9c-1 1.2-1.8 2.4-1.7 2.8.1.3-.1.8-.4 1.1-.4.3-.2-.1.2-.9.6-1.1.4-1.3-.8-.8-4.7 1.9-4.8 1.7-.7-1.1 5.4-3.7 5.9-3.8 3.4-1.1zm76.1 3.4c0 3-3.9 2.7-4.3-.3-.3-2 0-2.3 2-2 1.5.2 2.3 1 2.3 2.3zm36.4-1.6c2.1 1.3.3 3.2-2.6 2.7-3-.6-4.3-1.6-2-1.6 1 0 1.7-.5 1.7-1 0-1.2 1-1.3 2.9-.1zm-165 2.5c-.2.2-1.5.9-2.9 1.5-2.4 1.1-2.4 1.1-.6-.3 1.6-1.3 4.9-2.4 3.5-1.2zm-60 6.4c-.6.9-2.6 2.8-4.4 4.2-2.9 2.2-3.1 2.8-2.3 5.2.8 2.2.7 5-.2 10.5 0 .2-1.9 1.2-4.2 2.3l-4.3 2.1 2.6-2.3c1.4-1.3 3.5-2.8 4.5-3.5 1-.7-.1-.4-2.6.6-6.9 2.9-16.1 3.6-19.9 1.7-3.9-2.1-3.9-4-.1-5.6 1.7-.7 4.5-3.1 6.2-5.3 3.5-4.3 15.1-12.3 20.8-14.3 3.2-1.1 3.6-1 4.2.7.4 1.1.3 2.8-.3 3.7zm14.6-4.2c-1.9 1.5-1.9 1.5.9.8 4.1-1 3 1.8-1.2 3-2 .6-3.2 1.5-3.2 2.6 0 1-.7 2.3-1.5 3-1.2 1-1.5.7-2.1-1.5-.6-2.4-.1-3.3 3.2-6.1 2.1-1.8 4.4-3.3 4.9-3.3.6 0 .1.7-1 1.5zm239.6 2.4c.5 0 .9-.8.9-1.7 0-1.3.6-1.1 2.9 1.1 3.8 3.7 4.5 7.2 1.7 9.1-1.1.8-1.6 1.5-1.1 1.5s.4.5-.3 1.2c-.8.8-2.2.7-5.7-.6-4.9-1.9-6.8-5.3-4.5-8.1.7-.9 1-2.6.6-4.1l-.7-2.6 2.7 2.1c1.5 1.2 3.1 2.1 3.5 2.1zm-60.1 4.9c0 3.4-.4 5.1-1.5 5.5-1.2.4-1.5-.3-1.5-3.3 0-2.2-.3-4.6-.6-5.5-.4-1.2 0-1.6 1.5-1.6 1.8 0 2.1.6 2.1 4.9zm27-1.3c0 .8-.5 1.4-1.1 1.4-.6 0-.9.9-.6 2 .4 1.6.2 1.8-1.2 1-2-1-4.6-3.9-4-4.3 1.5-1.1 5.5-2.4 6.2-2 .4.2.7 1.1.7 1.9zm-239-.2c0 .7-7.4 4.8-9.2 5.1-1 .2-3.5 1.7-5.5 3.3-4.6 3.7-13.7 5.9-17.9 4.5l-2.9-1 2.3-1.2c1.8-1 2.2-.9 2.2.4 0 1.7 3.2 1.9 6.5.5l2-.9-2-.1c-1.6-.1-1.4-.4 1-1.4 1.7-.6 5.9-2.6 9.5-4.4 3.6-1.8 7.4-3.2 8.5-3.2 1.1 0 2.7-.5 3.5-1 1.7-1.1 2-1.2 2-.6zm193.2.8c.3.7.1 2.8-.4 4.6-.8 3.1-1.1 3.3-4.1 2.7-6.5-1.4-7.2-5.4-1.4-7.3 4.4-1.4 5.4-1.4 5.9 0zm-236.5 4c-.3.8-.6.5-.6-.6-.1-1.1.2-1.7.5-1.3.3.3.4 1.2.1 1.9zm262.8-.2c.4 1.1 1.8 3.4 3.2 5.1l2.6 3-2.9-.7c-4.2-1-8.4-4.2-8.4-6.4 0-1.6 1.1-2.4 4.2-2.9.4 0 1 .8 1.3 1.9zm-155.4 2.8c-.7 1.3-.7 2.2 0 2.9 1.4 1.4-.5 2.6-7 4.7-5.6 1.8-10.1 1.5-10.1-.7 0-1.7 5.2-4.7 8.2-4.7 1.2-.1 3.9-.9 5.8-2 4.4-2.4 4.3-2.4 3.1-.2zm177.4-.8c.3.5.1 1-.4 1-.6 0-1.1-.5-1.1-1 0-.6.2-1 .4-1 .3 0 .8.4 1.1 1zm-2.1 4.9c1 1.1 3.4 2.3 5.2 2.7 4.6.8 5 1.9 1.3 3.4-2.7 1.2-3.2 1.1-4.5-.9-.8-1.1-2.1-2.1-2.9-2.1-1.6 0-4.5-3.8-4.5-5.8 0-1.6 2.7-.3 5.4 2.7zm29.1 0c-.3.5 0 1.1.7 1.3.8.3.9.6.1 1.1-.5.3-2.1-.6-3.4-2.1-1.3-1.5-1.7-2.1-.9-1.5 2.1 1.9 2.9 1.6 2.3-1-.4-1.9-.3-2 .7-.4.6.9.9 2.1.5 2.6zM104 174c0 1.9-2 2.7-3.3 1.3-.8-.7 1.1-3.3 2.4-3.3.5 0 .9.9.9 2zm214 .5c0 .8-.8 1.5-1.9 1.5-1 0-2.4-.7-3.1-1.5-1.1-1.3-.8-1.5 1.9-1.5 2.1 0 3.1.5 3.1 1.5zm29.1 1.5c3.1 1.7 2.2 3-1.3 1.8-1.8-.6-3.7-1.5-4.2-1.9-1.4-1.3 3.1-1.1 5.5.1zM130 177.8c0 .5-1.6 2.7-3.6 5-2.4 2.9-4.4 4.2-6.1 4.2-2.2 0-2.5-.4-2-2.6.3-1.8.1-2.4-.9-2-1.7.6-7.4-.4-7.4-1.3 0-.3 3.3-.6 7.3-.6 5.3 0 8-.5 9.8-1.7 2.9-2 2.9-2 2.9-1zM25 194.4c2.4 2.8 6 6.4 8 8l3.5 3-3.3-3.6-3.4-3.6 4.4-2.6c5.6-3.3 13.5-6.2 14.4-5.3.4.4-1.2 2.7-3.5 5.2-3.9 4.3-7.9 11-7 11.9.2.2 3 2.2 6.3 4.5 4.6 3.2 6.2 3.8 7.7 3.1 1-.6 2.6-1 3.6-.9 1.7 0 1.7.1 0 .8-1 .4-1.8 1.1-1.7 1.6.3 2.2-2.1 1.3-9.1-3.3-15.1-10-28.6-24.4-30.4-32.7-.5-2.2.2-1.4 2.7 2.9 1.9 3.2 5.4 8.2 7.8 11zm5-14.5c0 .4-.7 1.7-1.7 3-.9 1.3-1.9 3.8-2.4 5.5l-.7 3.1-.1-3c-.2-5 1.8-10.5 3.4-9.8.8.3 1.5.8 1.5 1.2zm288-.1c0 .5-1.9 1.9-4.2 3.2-4.5 2.4-4.3 1.8.6-1.8 3.2-2.4 3.6-2.6 3.6-1.4zm-82.4 3.7c-1 .8-2.4 1.1-2.9.8-.6-.4-.2-1 .9-1.4 3.1-1.2 4-.9 2 .6zm84.4-.7c0 .9-6.4 4.2-8.2 4.2-1.4 0 5.3-4.8 7-4.9.6-.1 1.2.3 1.2.7zm4.9 3.6c.7.8 2.7 2.2 4.6 3.1 3.6 1.6 4.5 4.1 2.3 6.3-1.8 1.8-2.7 1.5-2.1-.7.3-1.3-.5-2.5-2.7-4.1-2.7-1.9-4-2.2-8.7-1.7-6.8.7-7.5 1.3-4.3 3.8 1.4 1 3.5 2.9 4.7 4 1.4 1.4 3.3 2.2 5.4 2.1l3.2-.1-3.2 3.3c-1.7 1.7-3.1 4-3.1 5 0 .9-.5 2.6-1.1 3.7-1 2-1.1 2-2.7-.3-1-1.3-2.4-3.5-3.2-5.1-.8-1.6-1.6-2.3-2-1.6-.4.6-1.6-.4-2.9-2.6-2.5-4.3-2.6-5.1-.7-5.8.8-.3 1.2-1.4 1-2.4-.7-2.8.7-4 6.6-6.1 7-2.5 7.5-2.5 8.9-.8zm-30.1 2.6c1.3.9.9 1-1.8.4-1.9-.4-5.5-.7-7.9-.8-2.4-.1-4.6-.6-4.8-1.2-.4-1.3 12 0 14.5 1.6zm13.7-1c-.3.5-1 1-1.6 1-.5 0-.9-.5-.9-1 0-.6.7-1 1.6-1 .8 0 1.2.4.9 1zm-187.2 1.7c-.7.2-2.1.2-3 0-1-.3-.4-.5 1.2-.5 1.7 0 2.4.2 1.8.5zM56 192c-1.1 2.1-2.2 2.5-3.4 1.3-.3-.4.4-1.3 1.6-2 3-1.6 3-1.6 1.8.7zm56.5 0c.8 1.3-1.5 1.3-3.5 0-1.2-.8-1.1-1 .7-1 1.2 0 2.5.4 2.8 1zm41.8 6.7c-1.3.2-3.5.2-5 0-1.6-.2-.5-.4 2.2-.4 2.8 0 4 .2 2.8.4zm194.7 4.2c0 3.4-1.3 4.6-5.9 5.6-2.3.5-3.1.4-2.7-.4.4-.6 1.6-1.1 2.8-1.1 1.4 0 1.8-.5 1.4-1.5-.7-1.9 1.4-5.5 3.1-5.5.8 0 1.3 1.2 1.3 2.9zm-200-.9c0 1.3-2 1.3-4 0-1.2-.8-.9-1 1.3-1 1.5 0 2.7.4 2.7 1zm144-.2c0 .5-.8 1.6-1.8 2.5-2.1 1.9-4.8.7-3.9-1.7.6-1.6 5.7-2.3 5.7-.8zm-85.5 8.2c.3.6-.4 1-1.7 1-1.8 0-2-.2-.8-1 1.9-1.2 1.8-1.2 2.5 0zm-2.7 8.2c-2.6 3.4-4.8 4.7-4.8 2.9 0-.6.6-1.1 1.4-1.1.7 0 2.1-1.1 3-2.5.9-1.4 1.9-2.5 2.3-2.5.3 0-.6 1.4-1.9 3.2zm100 9.2c-3.8 4.9-6.8 7.5-6.8 6 0-.6 10.1-11.4 10.7-11.4.2 0-1.5 2.4-3.9 5.4zM161.5 234c.3.5.1 1-.4 1-.6 0-1.1-.5-1.1-1 0-.6.2-1 .4-1 .3 0 .8.4 1.1 1zm6.8 5.2c-.7 2.3-2.9 2.3-4.2 0-.7-1.4-.4-1.7 1.9-1.8 2.2-.1 2.6.3 2.3 1.8z"/><path d="M294 144c0 .5 1.2 1 2.8 1 2.1 0 2.4-.2 1.2-1-2-1.3-4-1.3-4 0zm-178 31c-1.2.8-1.1 1 .8 1 1.2 0 2.2-.5 2.2-1 0-1.3-1.1-1.3-3 0zm-43.1-55.7c-14.9 7-18.6 9.2-17 10.1.5.4 1.3.1 1.7-.5.4-.7 7.5-4.5 15.8-8.5s14.6-7.3 14.1-7.4c-.6 0-7.2 2.9-14.6 6.3zm145.6-5.3c-.3.5-.1 1 .4 1 .6 0 1.1-.5 1.1-1 0-.6-.2-1-.4-1-.3 0-.8.4-1.1 1zM192 127.2c-1.9.6-3 1.2-2.5 1.4.6.2 3-.2 5.5-1s3.6-1.4 2.5-1.4-3.6.4-5.5 1zM40 138c-1.9 1.7-3 3-2.4 3 .6 0 2.3-1.4 3.9-3 3.6-3.8 3-3.8-1.5 0zm36.4-1.4c-1.8 1.4-1.8 1.5.4.4 1.2-.6 2.2-1.3 2.2-1.5 0-.8-.5-.6-2.6 1.1zm-5 3c-1.8 1.4-1.8 1.5.4.4 1.2-.6 2.2-1.3 2.2-1.5 0-.8-.5-.6-2.6 1.1zm151.8 3.1c-.7.3-2 1.8-2.8 3.5-1.3 2.5-1.4 3.2-.2 4 1.6 1.1 7.2.1 7.7-1.3.2-.6 1.2-1.9 2.2-2.7 3.1-2.6 2.3-4.2-1.8-4.1-2.1 0-4.4.3-5.1.6zm-15 34.5c-1.8 1.8-1.5 4.1.4 3.4.9-.3 1.8-.6 2-.6.8 0 .4-2.9-.4-3.4-.5-.3-1.4 0-2 .6zm-22.5 11.5c-2 1.6-5.2 4.9-7.1 7.4-3.1 4.2-10.9 8.9-14.5 8.9-.6 0-1.1.4-1.1 1 0 .5.9 1 2 1s2-.4 2-.9 1-.7 2.2-.3c1.4.3 1.9.1 1.4-.6-.4-.7-.2-1 .6-.7.7.2 4.2-.9 7.8-2.4 5.4-2.5 6.9-3.7 9.2-7.8 2.7-4.7 3.6-8.3 2-8.3-.5 0-2.5 1.2-4.5 2.7zm198.4 4.1c-.7 1.7-3.4 5.3-5.9 7.9-2.5 2.7-4.6 5.1-4.6 5.5-.2 1.5-10.9 8.9-18.9 13-4.4 2.3-7.4 4.4-6.7 4.6.7.3-2.7 2-7.5 3.8-4.9 1.8-9.1 3.7-9.4 4.1-.3.5-1.7 1.4-3.1 2.1-2.3 1.1-2.1 1.2 2 .8 5.5-.6 18.8-5.7 25.3-9.7 5.2-3.2 6.2-3.5 5.1-1.7-.4.8-.3 1 .2.5s.9-1.4.9-2c0-.7.8-1.2 1.7-1.2 1 0 2.3-.7 3-1.5 1.1-1.2 1-1.2-.7 0-1.8 1.4-1.9 1.4-.7-.2.8-.9 1.9-1.5 2.6-1.2 3.3 1.3 19.7-22.7 18.4-26.8-.2-.6-1 .3-1.7 2zM8.5 193c3 10.3 11.7 20.9 23.7 29.1 9.3 6.3 31.5 17.5 32.6 16.5.3-.3-.1-.6-.8-.6-.7 0-1.1-.2-.8-.5.8-.9 6.8 1.6 6.2 2.6-.3.5.1.6.8.4.8-.3 3.6.1 6.3 1 8.5 2.5 8.4 1.6-.2-2.5-4.6-2.1-8.3-4.2-8.3-4.6 0-.4 2.1-.4 4.8-.1l4.7.5-5-2.1c-4.8-2.1-18-8.7-35.3-17.8l-8.3-4.4-1.8 2.4c-1.4 1.8-2 2-2.3 1-.3-.8-.1-2.2.4-3.2.8-1.6.7-1.8-.9-1.3-2.4.8-7.8-4.7-12.8-12.9-2-3.3-3.4-4.9-3-3.5zm124.5-1c-1.3.8-1.3 1 .2 1 .9 0 2-.5 2.3-1 .8-1.3-.5-1.3-2.5 0zm-6.7 3.8c-.7.4-.8 1.3-.4 2 .6 1 1 1 2-.2 1.3-1.6.2-2.9-1.6-1.8zm123.6 7.2c-2.8 1.9-5.7 3-7.9 3-1.9 0-5.1.8-7 1.9-1.9 1-5.2 2.1-7.2 2.5-2.1.4-3.8 1.1-3.8 1.6 0 1.9 5.2 2.2 12.3.6 3.9-.8 9.3-1.8 11.9-2.1 5-.6 7-2.1 4.7-3.6-1.1-.6-1-1.1.2-2.6 4.4-5.1 3.1-5.6-3.2-1.3zm-66.6-1.3c-.7.2-1.3 1.3-1.3 2.4 0 1.1-.7 1.9-1.6 1.9-1.4 0-1.4.1 0 1.6.9.8 1.6 1.9 1.6 2.4 0 1.5-6.5 4.9-10.8 5.6-2.3.4-4.2 1-4.2 1.5s.7.5 1.7.2c1.1-.4 1.4-.3.9.5-.4.7-.1 1.2.8 1.2.8 0 1.7-.4 2-.9.4-.5 2.6-1.9 5.1-3.1 6.1-3 9.1-7.4 8.6-12.8-.1-1.3-.7-1.4-2.8-.5zm-71.6.9c-.4.4-.7 2-.7 3.6 0 2.2.6 3.1 2.6 3.9 3.6 1.3 4 .6 2.3-3.7-1.4-3.7-2.9-5.1-4.2-3.8zm13.1 2.9c-.9 2.1-.8 2.8.7 4.5 2 2.2 4.4 2.6 4.6.7.4-3.9-1.2-7.7-3.2-7.7-.5 0-1.5 1.1-2.1 2.5z"/><path d="M172.8 211.7c.6.2 1.8.2 2.5 0 .6-.3.1-.5-1.3-.5-1.4 0-1.9.2-1.2.5zm195.7 10.7c-14 14.4-23.8 20.5-45.1 28.5-19.5 7.3-28.4 10.9-44.4 18-12.4 5.5-18 6.3-25 3.6l-3.5-1.3 4.8-.1c7.4-.1 25.5-4.7 34-8.5 4.2-2 11.4-4.8 15.9-6.5 11.8-4.1 34.3-14.5 35.4-16.3.3-.4-3 .9-7.3 2.9-7.5 3.4-17.7 7.3-19.5 7.3-.4 0-.8-.7-.8-1.6 0-1.1.6-1.5 1.9-1.1 1.1.3 2.2 0 2.4-.7.3-.7-.9-1.1-3.3-1.1-2.1 0-3.6.4-3.3.9.4.5-.4.7-1.7.3-1.3-.3-5.7.2-9.7 1.3-4.1 1.1-10.7 2.2-14.8 2.6-6.6.6-7.5.5-7.5-1 0-.9.3-1.5.8-1.4.4.1 1.9-.4 3.4-1s5-1.4 7.8-1.8c2.8-.4 5.3-1.1 5.6-1.5.7-1.2.6-1.2-6.8.6-46.3 10.7-113.6 12.2-159.5 3.5-5.6-1.1-10.9-1.7-11.8-1.4-1.4.6-1.4.8.1 2.5.9 1 1.3 2.2 1 2.8-.3.5 0 1.2.6 1.5 5.3 2.2-27.6-5.6-35.4-8.5-8.5-3.1-10.2-3.5-7.8-1.8 1.2.8 1.1.9-.5.5-1.1-.3-2.6-.2-3.3.3-.9.5.7 1.7 5 3.6 4.1 1.8 6.3 2.4 6.6 1.6.5-1.6 3.1-1.4 9.4.8 13.3 4.6 41.1 10 63.5 12.3 11 1.1 14.1 2.2 8.6 3.1-1.6.2.4.5 4.2.6 3.9.1 10.2.9 14 1.6 6.1 1.3 6.3 1.4 1.5.8-3-.4-14-.7-24.5-.8-10.4-.1-21.5-.7-24.5-1.3-3-.6-10.2-2.1-15.9-3.3-13.3-2.6-36.6-10.6-50.7-17.3-11.2-5.4-32.9-17.8-37.4-21.4-2.2-1.8-2.7-1.9-5.2-.6-2.9 1.5-3.1 1.3-2.8-2.4.2-2.6-1.6-5.2-3.7-5.2-1.1 0-1.3 2.4-1.1 13.2l.2 13.3 3.4 4.7c4.4 6.2 15.4 16.3 24.2 22.2 8 5.4 25.6 13.9 37.3 18.1 4.2 1.5 7.6 2.9 7.4 3.1-.4.4-14.4-4.3-22.5-7.5-2.9-1.1-5.5-2.1-5.7-2.1-.3 0-.5 1.3-.5 3 0 3.6 10.3 19.3 19.6 29.6 3.5 4 6.4 7.6 6.4 8.2 0 2.4 15 13.3 28.5 20.7 3.9 2.1 8.4 4.9 10.1 6.2 1.7 1.2 3.8 2.3 4.6 2.3.8 0 2.6.8 3.9 1.9 1.3 1 5.8 2.8 10 4 8.4 2.3 12.6 2.7 6.4.5-4-1.4-4-1.4-.5-.9 16.9 2.5 29.1 3.5 44 3.7 19.8.2 38.1-1 34-2.4-2-.6-1.8-.7.9-.3 3.9.6 13.3-.4 12.7-1.4-.2-.3 1-.6 2.7-.6 1.8 0 4.8-.4 6.7-.9 7-1.7 2.1.4-6.6 2.8-11.5 3.2-8.8 3.3 3.8.2 11.7-2.9 17.4-5.4 23.6-10.1 2.6-2 9.9-7 16.2-11.1 12.2-8 17-12 17-14.1 0-.7.5-1.3 1.1-1.3 1.5 0 18.5-18 24.6-26.1 4.5-6 9.2-16.4 7.9-17.6-.2-.3-2.2.5-4.4 1.6-5.2 2.7-19.4 8.3-19.8 7.9-.2-.2 3.8-2.1 8.9-4.2 23.8-9.9 40.9-23.1 51.6-39.6 3.9-5.9 4.1-6.7 4-13.4-.1-3.9-.4-9.4-.7-12.2l-.7-5.2-10 10.2zm-186.6 33.2c.2.2-2.5.5-6 .5-11.6.3-20.4-.2-21.4-1.2-.9-1 26.4-.2 27.4.7zm-41.2 0c-.3.3-1.2.4-1.9.1-.8-.3-.5-.6.6-.6 1.1-.1 1.7.2 1.3.5zm110.6 7.4c.7 2.6.3 2.7-6.1 2.2-6.4-.5-6.5-2.4-.1-3.3 2.4-.3 4.7-.7 5-.7.4-.1.9.7 1.2 1.8zm-2.3 7.2c1.1.7.8.8-1 .4-1.4-.3-3.1-.6-3.7-.6-.7 0-1.3-.5-1.3-1.1 0-1.1 3.3-.4 6 1.3zm-9.1-.8c-.2.2-3.5.6-7.4.9-4.2.3-5.8.2-4-.3 3-.8 12.2-1.3 11.4-.6zm57.1 1c0 .8-.4 1.8-1 2.1-.5.3-1-.3-1-1.4 0-1.2.5-2.1 1-2.1.6 0 1 .6 1 1.4zm-82.7 4.3c-.7.2-2.1.2-3 0-1-.3-.4-.5 1.2-.5 1.7 0 2.4.2 1.8.5zM297 314c0 1.2-3.3 3-5.5 3-2.1 0-.9-1.9 1.9-3 2.8-1.2 3.6-1.2 3.6 0zm-37.1 12.9c-1.3.4-1.5.2-2.3-2.9l-.7-2.5 2 2.5c1.1 1.4 1.5 2.7 1 2.9zm10.5 2.7c2.3 2.3 2 2.4-1.6.7-4.3-2.1-4.5-2.3-2-2.3 1.1 0 2.8.7 3.6 1.6zM146 344c0 .5-.9 1-1.9 1-1.1 0-2.3-.5-2.6-1-.4-.6.5-1 1.9-1s2.6.4 2.6 1zm74.3 14.7c-.7.2-1.9.2-2.5 0-.7-.3-.2-.5 1.2-.5s1.9.2 1.3.5z"/><path d="M176.8 217.2c-1.6.5-2.8 1.4-2.8 2 0 .6.7.7 1.6.4.9-.3 2.3-.6 3.3-.6.9 0 2.6-.7 3.7-1.5 1.8-1.4 1.8-1.4-.6-1.4-1.4 0-3.7.5-5.2 1.1zm155.7 10.6c-4.4 2.1-11.3 5.1-15.3 6.7-7.5 2.9-8.7 4.2-2.9 3.1 2.7-.5 25.6-11.5 27.6-13.2 1.4-1.3-2.5.2-9.4 3.4zm-155.7-1.1c.6.2 1.8.2 2.5 0 .6-.3.1-.5-1.3-.5-1.4 0-1.9.2-1.2.5zm167.2 5.8c-3.6 1.9-6.1 3.4-5.7 3.5 1 0 12.7-5.9 12.7-6.5 0-.7.2-.8-7 3zm-14 6.5c-.8.5-1 1-.5 1 .6 0 1.7-.5 2.5-1s1.1-1 .5-1c-.5 0-1.7.5-2.5 1zm-187.3 1.6c-1.6.9-2.6 1.8-2.4 2.1.8.8 7.7-1.7 7.7-2.8 0-1.3-2.1-1-5.3.7zm181.8 2.4c-2.7 1-4.1 1.8-3 1.8 1.1.1 3.8-.8 6-1.8 5.1-2.4 3.4-2.4-3 0zm-189 0c1.9.8 1.8.9-.4.9-3.2.1-2.4.8 1.7 1.6 1.8.3 3.2.2 3.2-.3 0-1.5-2.4-3.2-4.4-3.1-2.1 0-2.1 0-.1.9zm170.5 0c0 .5.4 1 .9 1 .6 0 1.3-.5 1.6-1 .3-.6-.1-1-.9-1-.9 0-1.6.4-1.6 1zm-201.3 14.9c1.9.9 14.9 3.8 31.6 7.1 2.7.6 8.8.9 13.5.8 4.8-.1 6.7-.3 4.2-.5-5-.3-17.7-2.3-34.5-5.4-16.4-3-17.4-3.1-14.8-2zm52.1 101.8c.7.3 1.6.2 1.9-.1.4-.3-.2-.6-1.3-.5-1.1 0-1.4.3-.6.6zm75.5 1c.9.2 2.3.2 3 0 .6-.3-.1-.5-1.8-.5-1.6 0-2.2.2-1.2.5zm-6.5 1c.6.2 1.8.2 2.5 0 .6-.3.1-.5-1.3-.5-1.4 0-1.9.2-1.2.5zm-10 1c.6.2 1.8.2 2.5 0 .6-.3.1-.5-1.3-.5-1.4 0-1.9.2-1.2.5z"/></svg>