<svg version="1.0" xmlns="http://www.w3.org/2000/svg" width="682.667" height="682.667" viewBox="0 0 512 512"><path d="M45.2 2C34.3 4.9 26.5 9.4 17.9 18c-5.6 5.5-8.6 9.5-11.3 15-7 14.4-6.6-.3-6.6 223.6 0 198 0 202.2 2 209.8 2.9 11.3 7.3 19 16 27.7 5.5 5.6 9.5 8.6 15 11.3 14.4 7-.3 6.6 223.6 6.6 198 0 202.2 0 209.8-2 11.3-2.9 19-7.3 27.7-16 5.6-5.5 8.6-9.5 11.3-15 7-14.4 6.6.3 6.6-223.6 0-198 0-202.2-2-209.8-2.9-11.3-7.3-19-16-27.7-5.5-5.6-9.5-8.6-15-11.3-14.4-7 .3-6.6-224-6.5C58.9.1 52.3.2 45.2 2zM171 155.5c11.1 2.8 27.6 11.5 35.3 18.5 6.3 5.8 15.7 17.6 15.7 19.7 0 .8-38.8 22.5-41.4 23.1-.7.1-1.8-.8-2.4-2.2-2-4.4-8.4-10.7-13.6-13.3-6.8-3.5-19-4.3-26.4-1.9-9.1 3.1-14.2 11.8-10.8 18.4 3.5 6.8 12.7 11.3 36.7 17.8 31.7 8.5 44 15.5 54 30.3 8.1 12.2 10.5 31.3 5.9 48.1-5.2 19.2-22.7 34-47.9 40.8-8.5 2.2-11.7 2.5-27.1 2.6-11.1.1-19.7-.4-23.5-1.2-26.6-5.8-43.5-17.4-55.2-38-1.9-3.5-3.4-6.4-3.2-6.6 1.5-1.1 42.1-23.6 42.8-23.6.4 0 1.8 2.3 3.1 5 2.8 6.1 10.4 13.4 16.5 16.1 9.5 4.2 29.2 4.1 37.4-.1 5.2-2.6 8.1-7.2 8.1-12.7 0-8.9-8.1-13.8-36.9-22.3-30.3-8.9-39.6-13.5-49.9-24.4-9-9.7-13.2-20.8-13.2-35.1 0-31.1 20.9-53.3 56.3-60.1 9.2-1.7 30.8-1.1 39.7 1.1zm212 .8c16.8 4.4 30.9 12.1 43.3 23.7 8.3 7.7 18.2 22 16.4 23.6-1.8 1.6-41.8 24.7-42.1 24.3-.1-.2-1.2-2-2.4-3.9-2.6-4.4-9.5-11-14.9-14.3-11.8-7.4-30-9.4-43.6-4.8-16.4 5.5-29 18.6-33.2 34.6-1.9 7.3-2 24.2-.1 31 4.9 18.5 20.1 33 38.3 36.5 8.7 1.7 23.4.8 30.8-1.9 8.5-3 16.2-8.7 21.3-15.6 2.4-3.3 4.5-6.1 4.6-6.3.6-.6 42.6 24 42.6 24.9 0 .6-1.8 3.6-3.9 6.8-17.4 25.5-45.8 41.1-77.8 42.8-42.2 2.2-79.2-18.8-97.3-55.2-17.1-34.6-13.4-79.2 9.2-109.4 15.2-20.2 37.3-33.7 63.3-38.6 12.1-2.2 33.3-1.4 45.5 1.8z"/></svg>