<svg version="1.0" xmlns="http://www.w3.org/2000/svg" width="896" height="896" viewBox="0 0 672 672"><path d="M313.7 46.8c-1 1-1.7 2.2-1.7 2.7 0 .4-1.5 3.1-3.2 5.9-1.8 2.8-3.8 6-4.5 7.1-.7 1.1-5.3 8.7-10.3 17-5 8.2-9.6 15.9-10.3 17-.7 1.1-2.8 4.4-4.7 7.5-1.9 3-3.5 5.7-3.5 6-.1.7-4.2 7.3-5.3 8.5-.5.6-1.1 1.5-1.3 2-.2.6-2.6 4.6-5.2 9-6.4 10.7-6.9 11.6-8.8 14.5-.9 1.4-2.6 4.1-3.7 6-1 1.9-7.7 12.9-14.7 24.5-7 11.5-13.5 22.2-14.4 23.7-.9 1.5-8.9 14.8-17.9 29.5-8.9 14.7-17 28.1-18 29.8-.9 1.6-2 3.1-2.4 3.3-.5.2-.8.8-.8 1.4 0 .6-1.2 2.9-2.7 5.2-1.6 2.2-3.7 5.8-4.8 7.9-1.1 2.1-2.7 4.6-3.5 5.5-.8.9-2.1 2.8-2.8 4.2-1.4 3-3.8 7-7.5 12.8-1.5 2.3-3.7 5.9-4.8 8-1.1 2-4.9 8.4-8.5 14.1-3.5 5.7-6.4 10.7-6.4 11.2s-.4.9-1 .9c-.5 0-1 .5-1 1.1 0 .6-1.3 3-3 5.4-1.6 2.4-3 4.6-3 4.8 0 .5-11 18.6-15.9 26.2-1.4 2.2-2.6 4.2-2.6 4.5 0 .3-1.2 2.3-2.6 4.5-1.4 2.2-3.2 5.1-3.9 6.5-.7 1.4-1.6 2.7-1.9 3-.3.3-1.5 2.1-2.5 4-1.1 1.9-3.4 5.7-5.1 8.5-3.6 5.6-41.2 67.8-42.9 71-.6 1.1-1.3 2.2-1.6 2.5-.6.5-25.9 42.4-29.9 49.4-1.3 2.2-3.5 5.9-5 8.1-4.8 7.2-9.3 18.2-10.5 25.8-3.9 24.5 6.4 48.7 26.9 63.1 5.6 4 14.5 8.3 18.5 9.1 1 .2 3.5.8 5.6 1.4 4 1.1 554.3 1.1 557.4 0 .8-.3 3.1-.9 5-1.3 12.9-3 27.1-13.3 35.7-26.1 7.3-10.9 10.7-22.3 10.6-35.8 0-13.8-1.1-17.3-13.3-43.2-2.3-5-5.7-12.2-7.5-16-6.8-14.5-11.8-25.3-15.5-33-6.2-13.2-11.9-25.3-18.5-39.5-3.4-7.4-9-19.3-12.4-26.4-3.3-7-6.1-13-6.1-13.2 0-1.7-17.5-35.5-19.5-37.9-1.5-1.7-3-3.5-3.3-4-1.7-2.5-11.2-10-16.7-13-3.3-1.9-9.6-4.4-14-5.6l-8-2.3H423.2c-61.2-.1-111.7.1-112.1.4-.3.3-.6 14.6-.6 31.7 0 27.2.2 31.3 1.5 31.4.8.1 49.2.2 107.5.3l106 .1 2.5 5c1.4 2.7 4.5 9.3 6.9 14.5 2.4 5.2 6.1 13.1 8.2 17.5 8.2 17.4 12.8 27.3 15.7 33.5 1.6 3.6 5.1 11 7.7 16.5 2.6 5.5 6.2 13.1 8 17 1.8 3.8 5.2 11 7.5 16 7.9 16.7 11.3 24 11.4 24.5.2.5 3.8 8.2 9.1 19.2l3.3 6.7-7.3-.1c-4 0-7.8.3-8.5.7-.9.6-1.1.4-.5-.5.5-.8.4-1.1-.3-.6-1.1.7-6.1.8-17.5.4-3.7-.2-6.7-.1-6.7.2 0 .3-2.1.4-4.7.2-10.7-.5-17.1-.4-18.3.3-.9.6-1.1.4-.5-.5.5-.8.4-1.1-.3-.6-1.1.7-6.1.8-17.5.4-3.7-.2-6.7 0-6.7.3s-2.2.3-5-.1c-2.7-.3-5.5-.3-6.2.2-.7.4-2.1.5-3.1.2-2.4-.7-17.7-1.1-17.7-.4 0 .3-2.1.4-4.7.2-10.7-.5-17.1-.4-18.3.3-.9.6-1.1.4-.5-.5.5-.8.4-1.1-.3-.6-1.1.7-6.1.8-17.5.4-3.7-.2-6.7-.1-6.7.2 0 .3-2.1.4-4.7.2-10.7-.5-17.1-.4-18.3.3-.9.6-1.1.4-.5-.5.5-.8.4-1.1-.3-.6-1.1.7-6.1.8-17.5.4-3.7-.2-6.7-.1-6.7.2 0 .4-10.6.4-12 0-.5-.2-12.5-.1-13.8.1-.4.1-1.1 0-1.7-.1-1-.2-12.8-.1-14.3.1-.4.1-1.1 0-1.7-.1-1-.2-12.8-.1-14.3.1-.4.1-1.1 0-1.7-.1-.5-.1-4.4-.1-8.5 0-4.1 0-8.2.1-9 .1-.8 0-5.4-.1-10.3-.3-4.8-.2-8.7-.1-8.7.2 0 .3-2.1.4-4.7.2-10.7-.5-17.1-.4-18.3.3-.9.6-1.1.4-.5-.5.5-.8.4-1.1-.3-.6-1.1.7-6.1.8-17.5.4-3.7-.2-6.7-.1-6.7.2 0 .3-2.1.4-4.7.2-10.7-.5-17.1-.4-18.3.3-.9.6-1.1.4-.5-.5.5-.8.4-1.1-.3-.6-1.1.7-6.1.8-17.5.4-3.7-.2-6.7-.1-6.7.2 0 .4-10.6.4-12 0-.5-.2-12.5-.1-13.8.1-.4.1-1.1 0-1.7-.1-1-.2-12.8-.1-14.3.1-.4.1-1.1 0-1.7-.1-1-.2-12.8-.1-14.3.1-.4.1-1.1 0-1.7-.1-.5-.1-4.4-.1-8.5 0-4.1 0-8.2.1-9 .1-.8 0-5.4-.1-10.3-.3-4.8-.2-8.7-.1-8.7.2 0 .3-2.1.4-4.7.2-7-.3-16.7-.4-17.8-.2-.5.1-2 .2-3.2.1-1.9-.1-2-.4-1-2.6.7-1.4 1.5-2.5 2-2.5.4 0 .7-.4.7-.9 0-1.3 7.3-13.5 8.2-13.9.5-.2.8-.7.8-1.1 0-1 18.7-32.1 20.5-34.1.8-.9 1.5-2.1 1.5-2.6s3.4-6.3 7.5-12.9c4.1-6.6 8.4-13.6 9.5-15.5 1.1-1.9 3-5.2 4.2-7.2 1.3-2 6.5-10.6 11.6-19 5.2-8.4 9.8-16 10.3-16.8 10.9-17.8 15.9-26.4 15.9-27.1 0-.5.5-.9 1-.9.6 0 1-.5 1-1.1 0-.6 1.2-3 2.8-5.3 1.5-2.2 3.6-5.8 4.7-7.9 1.1-2 2.3-3.7 2.7-3.7.5 0 .8-.5.8-1 0-.8 5.8-10.8 16.9-29 .6-.8 5.6-9.2 11.3-18.5 5.6-9.4 10.5-17.2 10.8-17.5.3-.3 1.2-1.9 2.1-3.5.9-1.7 4.5-7.7 8.1-13.5 3.5-5.8 7.1-11.6 7.9-13 .8-1.4 1.7-2.7 2-3 .4-.3.9-1.5 1.3-2.8.4-1.2 1.2-2.2 1.7-2.2s.9-.4.9-.9 2.4-4.8 5.3-9.6c10.2-16.7 17.8-29.4 34.5-57C289 211 295 201.4 295.9 200c1-1.4 2.8-4.5 4.2-7 1.3-2.5 2.6-4.7 2.9-5 .6-.5 20.6-33.5 24.2-40 1.1-1.9 3.5-5.8 5.2-8.5 4.3-6.6 6.2-9.7 8.4-13.7 1.1-1.8 5.4-8.9 9.6-15.8 4.3-6.9 8.2-13.4 8.9-14.5.6-1.1 1.9-3.1 2.7-4.5.9-1.4 3.1-5 4.8-8.2l3.2-5.6-2.5-1.6c-1.4-.9-2.8-1.6-3.1-1.5-.4 0-1-.3-1.3-.8-.3-.6-5.1-3.6-10.6-6.9-5.5-3.2-10.1-6.2-10.3-6.6-.2-.5-.8-.8-1.3-.8s-5.9-3.2-12.1-7c-6.2-3.9-11.7-7-12.4-7-.6 0-1.8.8-2.7 1.8z"/></svg>