<?xml version="1.0" standalone="no"?>
<!DOCTYPE svg PUBLIC "-//W3C//DTD SVG 20010904//EN"
 "http://www.w3.org/TR/2001/REC-SVG-20010904/DTD/svg10.dtd">
<svg version="1.0" xmlns="http://www.w3.org/2000/svg"
 width="700.000000pt" height="700.000000pt" viewBox="0 0 700.000000 700.000000"
 preserveAspectRatio="xMidYMid meet">
<metadata>
Created by potrace 1.14, written by Peter Selinger 2001-2017
</metadata>
<g transform="translate(0.000000,700.000000) scale(0.100000,-0.100000)"
fill="#000000" stroke="none">
<path d="M3215 6990 c-848 -76 -1598 -424 -2190 -1015 -538 -537 -880 -1219
-989 -1975 -215 -1488 543 -2947 1883 -3624 698 -353 1507 -461 2282 -305 720
145 1389 522 1881 1063 896 984 1159 2373 686 3624 -61 161 -206 454 -298 600
-152 243 -395 535 -597 718 -546 497 -1191 797 -1923 895 -167 23 -575 33
-735 19z m155 -2803 l0 -1032 -827 -480 c-454 -264 -858 -498 -897 -519 l-70
-40 21 35 c11 19 404 702 873 1519 912 1589 890 1550 896 1550 2 0 4 -465 4
-1033z m1147 -497 c479 -833 876 -1526 883 -1539 l13 -24 -34 19 c-19 11 -418
242 -886 514 l-853 494 0 1030 c0 566 2 1027 4 1025 2 -2 395 -686 873 -1519z"/>
</g>
</svg>
