<?xml version="1.0" standalone="no"?>
<!DOCTYPE svg PUBLIC "-//W3C//DTD SVG 20010904//EN"
 "http://www.w3.org/TR/2001/REC-SVG-20010904/DTD/svg10.dtd">
<svg version="1.0" xmlns="http://www.w3.org/2000/svg"
 width="700.000000pt" height="700.000000pt" viewBox="0 0 700.000000 700.000000"
 preserveAspectRatio="xMidYMid meet">
<metadata>
Created by potrace 1.14, written by Peter Selinger 2001-2017
</metadata>
<g transform="translate(0.000000,700.000000) scale(0.100000,-0.100000)"
fill="#000000" stroke="none">
<path d="M3200 6979 c-19 -10 -159 -79 -310 -153 -151 -73 -374 -182 -495
-241 -121 -59 -253 -123 -292 -142 l-73 -35 0 -868 c0 -822 1 -869 18 -865 9
2 55 13 102 25 47 12 92 23 100 25 8 2 33 8 55 13 22 6 51 13 65 16 14 2 192
45 395 95 204 50 395 97 425 105 l54 13 1 1007 c0 555 -2 1012 -5 1016 -3 5
-21 0 -40 -11z"/>
<path d="M3715 5985 c0 -1008 0 -1016 20 -1020 19 -4 173 -24 225 -30 23 -2
79 -10 155 -20 17 -3 100 -14 185 -25 85 -11 170 -23 188 -25 18 -3 54 -8 80
-11 26 -3 58 -7 72 -9 14 -2 50 -7 80 -10 30 -3 62 -8 70 -10 8 -3 40 -7 70
-10 30 -3 66 -8 80 -10 14 -2 81 -11 150 -20 69 -9 134 -18 145 -20 11 -1 45
-5 75 -9 30 -4 66 -9 80 -11 14 -3 43 -7 65 -10 46 -5 66 -8 235 -30 69 -10
136 -19 150 -20 14 -2 61 -8 105 -15 44 -6 100 -13 125 -16 25 -2 56 -6 70 -9
14 -2 63 -9 110 -15 47 -6 96 -13 110 -15 14 -2 49 -7 79 -10 30 -4 61 -8 70
-10 17 -3 124 -17 156 -20 49 -6 122 -15 145 -20 14 -2 50 -7 80 -11 30 -3 58
-8 63 -11 4 -2 6 348 5 778 l-3 783 -45 12 c-25 6 -119 33 -210 58 -91 26
-172 49 -180 51 -128 35 -229 64 -445 125 -121 34 -242 68 -270 75 -27 8 -196
55 -374 105 -452 126 -476 133 -661 185 -91 26 -172 49 -180 50 -8 2 -46 13
-85 25 -38 11 -79 22 -90 24 -11 3 -126 35 -255 71 -129 37 -242 69 -250 71
-14 3 -195 53 -195 54 0 0 0 -457 0 -1015z"/>
<path d="M1555 6176 c-61 -30 -204 -99 -320 -155 -115 -57 -249 -121 -297
-144 -81 -39 -88 -44 -89 -72 -4 -118 -3 -1417 1 -1420 3 -1 93 19 200 46 107
27 204 50 215 53 81 18 401 99 404 102 7 6 7 1635 1 1639 -3 2 -55 -20 -115
-49z"/>
<path d="M384 5612 c-109 -54 -241 -118 -291 -142 l-93 -45 0 -622 c0 -396 4
-623 10 -623 5 0 103 23 217 51 245 60 214 52 288 68 33 7 65 17 70 21 10 9
14 1374 4 1385 -3 3 -95 -39 -205 -93z"/>
<path d="M3095 4489 c-77 -16 -151 -30 -165 -33 -14 -2 -52 -9 -85 -15 -56
-10 -72 -13 -135 -25 -14 -3 -99 -19 -190 -36 -91 -17 -185 -35 -210 -40 -25
-5 -61 -12 -80 -15 -19 -3 -72 -13 -117 -22 l-83 -16 0 -871 0 -872 23 -1 c36
0 317 -14 387 -18 36 -2 121 -7 190 -10 69 -4 157 -8 195 -10 39 -2 131 -6
205 -10 74 -4 152 -8 172 -9 20 -2 39 2 40 8 6 16 3 2015 -3 2019 -2 2 -67 -9
-144 -24z"/>
<path d="M1540 4195 c-140 -29 -584 -116 -624 -122 -16 -3 -38 -8 -49 -12 -21
-8 -21 -11 -21 -729 -1 -397 1 -722 4 -723 3 -1 30 -2 60 -4 30 -1 107 -6 170
-10 63 -3 149 -8 190 -10 264 -12 358 -17 377 -20 13 -2 22 3 25 13 3 14 2
1611 -1 1635 -1 9 5 10 -131 -18z"/>
<path d="M569 4006 c-2 -2 -24 -7 -49 -11 -25 -3 -52 -8 -60 -10 -8 -2 -28 -7
-45 -9 -16 -3 -79 -15 -140 -26 -60 -12 -135 -26 -165 -31 -30 -6 -62 -12 -70
-14 -8 -2 -21 -4 -27 -4 -10 -1 -13 -133 -13 -626 l0 -625 48 -1 c26 -1 65 -2
87 -4 107 -7 318 -18 385 -19 l74 -1 1 675 c0 371 -1 683 -3 693 -4 16 -14 22
-23 13z"/>
<path d="M0 1748 l0 -624 158 -53 c86 -30 219 -75 295 -101 75 -26 138 -45
140 -41 7 14 1 1371 -6 1377 -4 4 -15 8 -25 9 -67 6 -172 17 -197 20 -16 2
-66 6 -110 10 -44 4 -88 9 -99 11 -10 2 -50 6 -87 10 l-69 6 0 -624z"/>
<path d="M853 2273 c-6 -13 -10 -1392 -4 -1434 1 -4 43 -21 94 -38 50 -18 135
-48 187 -66 392 -138 533 -186 538 -180 3 3 6 374 6 825 1 813 1 820 -19 821
-11 0 -27 2 -35 3 -8 2 -47 6 -86 10 -39 4 -80 8 -90 10 -11 2 -54 7 -96 11
-43 3 -90 8 -105 10 -16 2 -64 6 -108 10 -44 4 -82 9 -85 10 -3 2 -43 6 -90
10 -47 4 -88 9 -92 11 -4 3 -11 -3 -15 -13z"/>
<path d="M6918 2285 c-3 -3 -111 -13 -218 -20 -25 -1 -81 -6 -125 -9 -105 -9
-163 -14 -260 -21 -44 -3 -100 -8 -125 -10 -25 -2 -83 -7 -130 -10 -47 -3
-111 -8 -142 -11 -114 -9 -155 -13 -248 -19 -52 -3 -111 -8 -130 -10 -19 -3
-75 -7 -125 -10 -49 -3 -106 -8 -125 -10 -19 -2 -82 -7 -140 -10 -58 -4 -112
-8 -120 -10 -8 -2 -60 -6 -115 -10 -55 -4 -116 -8 -135 -10 -19 -2 -78 -6
-130 -10 -52 -4 -111 -8 -130 -10 -19 -2 -80 -6 -135 -10 -55 -3 -111 -8 -125
-10 -14 -2 -70 -7 -125 -10 -55 -4 -111 -8 -125 -10 -26 -3 -242 -18 -272 -19
-10 0 -19 -3 -19 -6 -1 -4 -5 -2030 -4 -2030 0 0 50 11 110 25 61 14 130 30
155 35 62 13 75 16 151 34 37 8 78 17 90 20 13 2 65 14 114 26 50 12 101 24
114 26 12 3 53 12 90 20 36 9 73 17 81 19 29 6 377 85 575 131 204 46 223 50
263 58 13 3 31 7 40 10 9 3 28 7 42 10 29 5 97 20 295 66 77 17 147 33 155 35
8 2 26 6 40 9 172 39 254 58 355 80 66 15 136 31 155 36 19 5 118 28 220 51
102 22 188 44 193 48 4 4 6 353 5 776 -3 711 -4 768 -20 771 -9 1 -18 1 -20
-1z"/>
<path d="M2032 1290 l3 -873 270 -92 c259 -89 663 -229 847 -293 48 -17 89
-28 91 -24 7 15 1 2012 -6 2019 -8 8 -17 9 -102 18 -33 3 -76 8 -95 10 -19 2
-64 7 -100 10 -66 6 -118 12 -180 20 -19 2 -64 7 -100 10 -36 3 -76 8 -90 10
-14 2 -56 7 -95 10 -38 3 -81 8 -95 10 -32 4 -146 17 -185 21 -16 1 -60 5 -98
9 l-67 7 2 -872z"/>
</g>
</svg>
