<svg version="1.0" xmlns="http://www.w3.org/2000/svg" width="933.333" height="933.333" viewBox="0 0 700 700"><path d="M452.5 29c-53.7 3.7-116.6 27.8-178.3 68.3l-15.2 10-12.8.2c-31.6.4-45.6 9.9-87.2 59.4-10.1 12.1-23.3 25.9-41.6 43.6-14.7 14.3-30.1 30-34.2 35-14.6 17.4-28.6 41.4-37.5 64-16.7 42.5-21.9 97.9-13.6 145 1 6 2.6 17 3.5 24.3 4.2 37 15 60.3 38.8 83.8C142.2 629.4 232.1 671.7 324 680c17 1.5 52.8 1.2 69.6-.5 78.4-8.3 146.2-40.1 199.9-94 99.6-99.7 122.4-256.5 57.9-397.9-19.7-43.3-49.1-85.9-82.4-119.6-16.6-16.8-31.3-26-52-32.5-17.6-5.5-42.4-8-64.5-6.5zm44.9 40.3c25.4 6.8 43.9 21.1 55 42.7 6.3 12.2 8.4 19.6 11 39.6.5 3.8.1 4.6-5.4 11.9-11.5 14.9-20.4 31.5-27.5 51-6 16.8-10.3 22.2-19.4 24.9-2.7.8-6.1 2.1-7.7 2.9-3.7 1.9-10.7 9.3-12.7 13.2-2.3 4.6-7.9 21.8-18.8 58-15.3 50.6-17.4 56.7-22.3 63.3-7.5 10.1-19.7 18.2-54.3 35.6-25.4 12.8-34.8 18.5-43.6 26.6-5.8 5.4-7.4 7.7-12.1 17.3-6 12.6-10.9 19.6-21.7 31.1-15 16.1-54.6 48.4-64.4 52.6-13.9 6-43 13.7-60.3 16-11.1 1.5-33.9 1.5-43.7 0-34.2-5.2-59.5-24.8-70.4-54.6-4-10.8-6-21.1-7.1-36.2-.5-7-1.7-17.4-2.6-23.2-2.5-15.3-2.5-53.3 0-69.5 6.1-40.5 21.9-76.9 44.9-103.5 3.6-4.1 13.3-14.7 21.7-23.5 8.4-8.8 24.9-27 36.8-40.5 22.9-26.1 54-57.8 59.4-60.7 4.7-2.5 21.9-3 32.7-.9l8.2 1.5 9.2-6.6C326.2 106.5 376.4 82 419 71.7c19.1-4.7 27.9-5.6 49-5.3 17.2.3 20.7.6 29.4 2.9z"/></svg>