<?xml version="1.0" standalone="no"?>
<!DOCTYPE svg PUBLIC "-//W3C//DTD SVG 20010904//EN"
 "http://www.w3.org/TR/2001/REC-SVG-20010904/DTD/svg10.dtd">
<svg version="1.0" xmlns="http://www.w3.org/2000/svg"
 width="454.000000pt" height="454.000000pt" viewBox="0 0 454.000000 454.000000"
 preserveAspectRatio="xMidYMid meet">
<metadata>
Created by potrace 1.14, written by Peter Selinger 2001-2017
</metadata>
<g transform="translate(0.000000,454.000000) scale(0.100000,-0.100000)"
fill="#000000" stroke="none">
<path d="M2281 4009 c-284 -33 -624 -190 -891 -412 -133 -110 -410 -402 -410
-431 0 -8 -92 -149 -102 -156 -4 -3 -27 -48 -51 -100 -120 -257 -102 -211
-162 -419 -48 -168 -68 -355 -60 -556 4 -82 11 -166 15 -185 30 -125 74 -269
89 -295 10 -16 38 -67 62 -113 23 -46 68 -111 98 -144 31 -33 63 -70 71 -83
21 -30 76 -76 130 -107 25 -15 58 -37 73 -49 50 -42 360 -208 416 -225 31 -8
70 -24 87 -33 35 -21 110 -38 174 -40 25 0 67 -6 94 -12 28 -7 78 -9 120 -5
39 3 122 10 184 15 66 6 122 15 135 24 29 18 145 57 173 57 25 0 134 48 134
59 0 10 147 91 165 91 19 0 114 62 115 75 1 12 150 131 161 128 10 -3 109 86
109 99 0 15 123 156 137 157 15 1 83 89 83 107 0 19 107 181 123 187 16 6 61
93 63 122 2 27 63 165 84 190 22 25 54 121 45 135 -8 12 34 183 46 191 17 10
32 121 19 143 -13 24 -198 161 -206 153 -3 -3 40 -42 95 -86 56 -45 101 -85
101 -89 0 -4 -5 -24 -11 -45 l-10 -38 -37 35 c-54 51 -183 146 -199 146 -7 0
-13 10 -14 23 -1 21 -1 21 -8 -3 -11 -37 -3 -56 40 -94 21 -20 34 -38 29 -41
-6 -4 -17 0 -25 8 -25 26 -50 9 -67 -43 -10 -30 -12 -52 -6 -58 5 -5 1 -31
-12 -65 -23 -62 -47 -79 -34 -24 4 17 8 40 8 50 0 9 5 17 10 17 6 0 6 4 0 10
-8 8 -2 47 17 128 153 646 -67 1253 -539 1491 -201 101 -421 138 -661 110z
m403 -306 c220 -76 430 -291 515 -525 27 -75 51 -163 50 -185 0 -10 -11 22
-25 71 -88 322 -302 556 -586 642 -27 8 -48 17 -48 20 0 5 42 -4 94 -23z m82
-545 c-3 -29 -6 -54 -7 -55 -1 -2 -2 -16 -3 -33 -1 -28 5 -35 27 -31 5 1 6 -3
2 -9 -3 -6 -10 -8 -15 -5 -4 3 -13 -2 -20 -10 -10 -12 -9 -15 5 -15 12 0 16
-6 12 -20 -3 -11 -1 -18 4 -14 5 3 9 -2 9 -10 0 -9 -8 -16 -17 -16 -16 0 -16
-2 -3 -11 11 -8 12 -12 2 -16 -6 -2 -10 -9 -6 -14 3 -5 0 -9 -7 -9 -6 0 -9 -8
-6 -20 4 -17 3 -18 -16 -8 -12 7 -26 11 -31 10 -4 -2 -14 2 -21 8 -7 6 -34 9
-61 6 -27 -3 -124 -5 -215 -5 l-165 -1 -17 -88 c-24 -124 -25 -120 31 -127
305 -38 433 -72 503 -133 24 -22 54 -42 67 -46 34 -11 82 -55 76 -71 -7 -16
-23 -11 -77 22 l-38 24 -32 -20 c-110 -70 -273 -115 -482 -132 -138 -11 -180
-17 -173 -25 3 -2 -5 -51 -17 -107 -14 -68 -19 -111 -14 -126 5 -12 6 -34 3
-47 -5 -18 -3 -23 8 -19 9 4 15 0 15 -11 0 -9 -9 -19 -19 -22 -18 -4 -18 -5
-1 -18 10 -7 13 -14 7 -14 -7 0 -11 -13 -9 -32 2 -30 -13 -60 -27 -52 -8 5 -5
-17 5 -33 5 -8 3 -13 -5 -13 -10 0 -9 -3 2 -11 11 -8 12 -12 3 -16 -7 -2 -13
-16 -13 -29 0 -13 -4 -24 -10 -24 -5 0 -10 -5 -10 -11 0 -5 6 -7 13 -3 9 5 9
4 0 -6 -6 -7 -9 -19 -6 -26 4 -10 0 -12 -11 -8 -9 3 -16 1 -16 -5 0 -6 5 -11
12 -11 9 0 9 -3 1 -11 -6 -6 -9 -17 -7 -24 7 -17 -13 -29 -34 -19 -23 9 -37
11 -184 19 -71 4 -128 12 -128 16 0 8 98 427 145 617 7 29 10 54 6 56 -3 2
-44 7 -91 11 -254 21 -450 93 -450 166 0 27 37 65 86 88 92 43 340 94 503 104
l44 2 24 95 c12 52 21 99 20 105 -2 6 -85 8 -216 6 l-212 -3 7 39 c13 69 62
264 67 270 7 6 756 29 1030 32 l157 1 -4 -52z m100 -98 c1 -35 -3 -50 -11 -50
-8 0 -11 -8 -8 -20 3 -12 0 -20 -7 -20 -9 0 -10 10 -5 33 4 17 7 54 7 80 1 66
21 45 24 -23z m-86 25 c0 -8 -2 -15 -4 -15 -2 0 -6 7 -10 15 -3 8 -1 15 4 15
6 0 10 -7 10 -15z m70 -134 c0 -17 -18 -21 -24 -6 -3 9 0 15 9 15 8 0 15 -4
15 -9z m407 -38 c-3 -10 -5 -2 -5 17 0 19 2 27 5 18 2 -10 2 -26 0 -35z m-437
11 c0 -10 6 -14 14 -11 10 4 13 1 10 -8 -3 -8 -11 -13 -17 -12 -6 1 -13 -8
-15 -21 -2 -12 -8 -20 -13 -17 -5 4 -5 13 0 23 5 9 7 27 5 40 -2 12 1 22 6 22
6 0 10 -7 10 -16z m10 -79 c0 -9 -9 -15 -22 -15 -21 0 -21 0 -2 15 24 18 24
18 24 0z m-13 -31 c-3 -3 -12 -4 -19 -1 -8 3 -5 6 6 6 11 1 17 -2 13 -5z m450
-126 c-2 -24 -4 -5 -4 42 0 47 2 66 4 43 2 -24 2 -62 0 -85z m-2412 -51 c-48
-116 -105 -427 -105 -577 0 -165 43 -365 110 -515 64 -144 186 -294 301 -372
105 -72 250 -134 369 -158 36 -7 52 -14 37 -14 -49 -2 -188 39 -276 80 -184
86 -334 235 -431 426 -52 104 -84 203 -106 333 -30 183 -9 486 47 670 20 66
61 171 65 167 2 -2 -2 -20 -11 -40z m2402 -69 c-2 -13 -4 -3 -4 22 0 25 2 35
4 23 2 -13 2 -33 0 -45z m-2296 1 c-5 -13 -10 -19 -10 -12 -1 15 10 45 15 40
3 -2 0 -15 -5 -28z m-20 -60 c-5 -13 -10 -19 -10 -12 -1 15 10 45 15 40 3 -2
0 -15 -5 -28z m2303 -38 c-4 -17 -9 -30 -11 -27 -3 2 -2 19 2 36 9 41 17 33 9
-9z m-2317 -13 c-3 -8 -6 -5 -6 6 -1 11 2 17 5 13 3 -3 4 -12 1 -19z m-10 -50
c-3 -7 -5 -2 -5 12 0 14 2 19 5 13 2 -7 2 -19 0 -25z m2303 -38 c-15 -57 -21
-46 -7 14 6 27 13 44 15 38 2 -6 -2 -29 -8 -52z m-2333 -202 c-2 -13 -4 -5 -4
17 -1 22 1 32 4 23 2 -10 2 -28 0 -40z m2744 -5 c13 -17 13 -17 -6 -3 -11 8
-22 16 -24 17 -2 2 0 3 6 3 6 0 17 -8 24 -17z m-230 -64 c-11 -24 -20 -39 -20
-33 -1 16 29 87 35 82 2 -3 -4 -25 -15 -49z m-31 -149 c0 -4 -7 -10 -15 -14
-8 -3 -15 -4 -15 -2 0 3 -3 11 -6 19 -4 12 0 14 15 10 12 -3 21 -9 21 -13z
m-2429 -207 c6 -21 22 -60 35 -87 13 -27 22 -52 19 -54 -6 -6 -75 154 -75 174
0 15 10 -2 21 -33z m2229 -103 c0 -5 -4 -10 -10 -10 -5 0 -10 5 -10 10 0 6 5
10 10 10 6 0 10 -4 10 -10z m-370 -166 c-123 -126 -341 -282 -493 -352 -140
-65 -366 -130 -415 -120 -9 2 19 10 63 17 162 27 386 121 554 233 91 61 241
181 296 237 21 23 41 41 44 41 3 0 -19 -25 -49 -56z m-1719 -1 c13 -16 12 -17
-3 -4 -10 7 -18 15 -18 17 0 8 8 3 21 -13z m1399 -88 c-7 -8 -17 -15 -23 -15
-6 0 -2 7 9 15 25 19 30 19 14 0z m-120 -70 c0 -2 -13 -11 -30 -20 -38 -19
-40 -11 -2 9 31 17 32 18 32 11z m-1045 -53 c-3 -3 -11 0 -18 7 -9 10 -8 11 6
5 10 -3 15 -9 12 -12z m487 -269 c-40 -2 -103 -2 -140 0 -37 2 -4 3 73 3 77 0
107 -2 67 -3z"/>
<path d="M1735 2633 c-79 -7 -241 -42 -297 -62 -62 -24 -72 -33 -81 -72 -9
-35 11 -52 93 -79 95 -32 196 -47 396 -60 381 -24 824 51 842 143 6 28 -43 65
-114 86 -82 24 -259 51 -337 51 l-56 0 -10 -37 c-5 -21 -17 -74 -26 -118 -9
-44 -17 -80 -18 -80 -1 0 -67 1 -146 3 l-143 4 6 31 c3 18 14 69 25 115 l19
82 -57 -2 c-31 -1 -74 -3 -96 -5z"/>
<path d="M3125 3811 c27 -31 95 -85 94 -74 0 4 -26 28 -57 52 -31 25 -48 34
-37 22z"/>
<path d="M3286 3664 c1 -14 11 -36 22 -48 10 -11 31 -39 46 -61 14 -22 31 -40
36 -40 5 0 25 -26 44 -57 33 -55 36 -73 7 -45 -8 6 -12 8 -10 2 49 -127 66
-165 76 -165 7 0 19 -24 28 -53 13 -46 25 -61 90 -116 41 -34 75 -65 75 -67 0
-4 -121 88 -169 128 -12 10 -13 8 -7 -13 4 -13 13 -54 21 -90 17 -85 56 -141
153 -222 105 -88 114 -99 110 -137 -3 -31 -3 -31 -23 -13 -28 25 -174 135
-207 156 -25 15 -28 16 -28 2 0 -19 18 -36 149 -140 l100 -80 2 -50 2 -50 4
45 c3 25 8 49 14 55 16 16 11 126 -7 146 -11 12 -16 44 -19 115 -4 115 -11
151 -35 179 -23 27 -63 131 -56 144 11 17 -33 92 -90 155 -30 33 -54 69 -54
81 0 12 -23 43 -57 76 -60 58 -210 189 -217 189 -2 0 -2 -12 0 -26z m24 -14
c0 -5 -2 -10 -4 -10 -3 0 -8 5 -11 10 -3 6 -1 10 4 10 6 0 11 -4 11 -10z"/>
</g>
</svg>
