<svg width="300" height="120" viewBox="0 0 300 120" fill="none" xmlns="http://www.w3.org/2000/svg"><g clip-path="url(#a)" fill="#949494"><path d="M125.573 48.59H95.836v4.568h28.253v.003c.817 0 1.474.66 1.474 1.473v15.348l-.007.01a1.476 1.476 0 0 1-1.476 1.466h-22.201a1.476 1.476 0 0 1-1.477-1.476v-6.203c0-.814.663-1.473 1.477-1.473h19.103V57.74h-20.591a4.551 4.551 0 0 0-4.555 4.551v9.178a4.555 4.555 0 0 0 4.555 4.556h25.182a4.555 4.555 0 0 0 4.555-4.556V53.145a4.553 4.553 0 0 0-4.555-4.555Zm21.548.009 3.572 10.685c.428 1.302.725 1.605 1.472 1.605h.729v1.88h-7.801v-1.88h.637c.643 0 1.18-.087 1.18-.321 0-.215-.024-.45-.107-.769l-.449-1.54h-4.362l-.255.854c-.237.748-.321 1.068-.321 1.367 0 .346.747.41 1.327.41h.616v1.88h-6.281v-1.881h.725c.748 0 1.047-.303 1.477-1.605l3.569-10.685h4.272Zm-4.514 7.78h3.104l-1.539-4.598h-.041l-1.524 4.599Zm11.523-5.152c0-.6-.149-.918-.77-.918h-.981v-1.71h5.301v5.32c.788-.898 1.794-1.474 2.755-1.474 3.206 0 4.4 2.503 4.4 5.321 0 2.82-1.194 5.319-4.4 5.319-1.346 0-2.542-.468-3.293-1.644l-.618 1.328h-2.395l.001-11.542Zm3.55 6.539c0 2.18.49 3.485 1.686 3.485 1.2 0 1.69-1.305 1.69-3.485 0-2.18-.49-3.48-1.69-3.48-1.196 0-1.686 1.3-1.686 3.48Zm8.443-6.539c0-.6-.152-.918-.768-.918h-.984v-1.71h5.302v5.32c.79-.898 1.795-1.474 2.756-1.474 3.204 0 4.403 2.503 4.403 5.321 0 2.82-1.199 5.319-4.403 5.319-1.349 0-2.543-.468-3.294-1.644l-.619 1.328h-2.393V51.227Zm3.549 6.539c0 2.18.493 3.485 1.687 3.485 1.198 0 1.689-1.305 1.689-3.485 0-2.18-.491-3.48-1.689-3.48-1.194 0-1.687 1.3-1.687 3.48Zm19.211-.001c0 3.42-2.33 5.319-5.514 5.319-3.187 0-5.517-1.9-5.517-5.319 0-3.42 2.33-5.32 5.517-5.32 3.184 0 5.514 1.9 5.514 5.32Zm-7.246 0c0 2.52.447 3.611 1.732 3.611 1.282 0 1.731-1.09 1.731-3.61 0-2.523-.449-3.611-1.731-3.611-1.285 0-1.732 1.088-1.732 3.61Zm22.487.173v1.668c0 .98-.213 1.56-1.026 1.56-.493 0-.726-.365-.726-.814v-5.879h2.627v-1.706h-2.627V48.79h-2.116c-.174 1.773-.727 3.976-2.863 3.976h-3.335V48.79h-2.115c-.174 1.773-.728 3.976-2.865 3.976v1.706h1.434v5.367c0 2.18 1.217 3.244 3.417 3.244 2.567 0 3.59-1.15 3.59-3.244v-1.903h-1.705v1.669c0 .978-.216 1.56-1.029 1.56-.492 0-.726-.365-.726-.815v-5.879h4.768v5.367c0 2.18 1.215 3.245 3.416 3.245 2.567 0 3.593-1.15 3.593-3.245v-1.902h-1.712"/></g><defs><clipPath id="a"><path fill="#fff" transform="translate(95 48)" d="M0 0h111v29H0z"/></clipPath></defs></svg>