<svg width="300" height="120" viewBox="0 0 300 120" fill="none" xmlns="http://www.w3.org/2000/svg"><path d="M120.807 54.691H85.979v5.356h33.089v.004c.957 0 1.727.774 1.727 1.727v17.994l-.008.012a1.73 1.73 0 0 1-1.729 1.718H93.057a1.73 1.73 0 0 1-1.73-1.73v-7.273a1.73 1.73 0 0 1 1.73-1.727h22.373V65.42H91.314a5.333 5.333 0 0 0-5.334 5.336v10.76a5.338 5.338 0 0 0 5.334 5.341h29.493a5.336 5.336 0 0 0 5.334-5.34V60.031c0-2.95-2.385-5.34-5.334-5.34Zm25.235.011 4.183 12.528c.501 1.527.85 1.881 1.725 1.881h.853v2.204h-9.136v-2.204h.746c.753 0 1.382-.101 1.382-.376 0-.252-.028-.527-.126-.901l-.525-1.806h-5.109l-.298 1.001c-.278.877-.376 1.253-.376 1.603 0 .405.875.48 1.554.48h.721v2.204h-7.356v-2.205h.85c.876 0 1.225-.354 1.729-1.882l4.18-12.527h5.003Zm-5.287 9.123h3.636l-1.803-5.392h-.047l-1.786 5.392Zm13.496-6.041c0-.703-.175-1.077-.901-1.077h-1.15v-2.005h6.209v6.239c.923-1.055 2.101-1.73 3.226-1.73 3.754 0 5.153 2.935 5.153 6.24 0 3.306-1.399 6.235-5.153 6.235-1.576 0-2.977-.548-3.857-1.927l-.724 1.556h-2.804l.001-13.531Zm4.158 7.666c0 2.556.573 4.086 1.975 4.086 1.404 0 1.978-1.53 1.978-4.086s-.574-4.08-1.978-4.08c-1.402 0-1.975 1.524-1.975 4.08Zm9.888-7.666c0-.703-.178-1.077-.899-1.077h-1.153v-2.005h6.21v6.239c.925-1.055 2.102-1.73 3.228-1.73 3.752 0 5.156 2.935 5.156 6.24 0 3.306-1.404 6.235-5.156 6.235-1.58 0-2.979-.548-3.859-1.927l-.724 1.556h-2.803V57.784Zm4.156 7.666c0 2.556.577 4.086 1.976 4.086 1.403 0 1.978-1.53 1.978-4.086s-.575-4.08-1.978-4.08c-1.398 0-1.976 1.524-1.976 4.08Zm22.5 0c0 4.008-2.729 6.235-6.458 6.235-3.733 0-6.462-2.227-6.462-6.236 0-4.01 2.729-6.238 6.462-6.238 3.729 0 6.458 2.229 6.458 6.239Zm-8.487 0c0 2.954.525 4.233 2.029 4.233 1.501 0 2.027-1.279 2.027-4.234 0-2.956-.526-4.233-2.027-4.233-1.504 0-2.029 1.277-2.029 4.233Zm26.337.202v1.956c0 1.147-.249 1.828-1.202 1.828-.577 0-.85-.427-.85-.954V61.59h3.077v-2.001h-3.077v-4.661h-2.478c-.204 2.079-.852 4.661-3.353 4.661h-3.906v-4.661h-2.477c-.204 2.079-.853 4.661-3.355 4.661v2h1.679v6.293c0 2.555 1.425 3.803 4.001 3.803 3.007 0 4.205-1.348 4.205-3.803v-2.23h-1.996v1.955c0 1.147-.253 1.828-1.206 1.828-.576 0-.85-.427-.85-.954v-6.892h5.584v6.292c0 2.555 1.423 3.804 4.001 3.804 3.006 0 4.208-1.35 4.208-3.804v-2.23h-2.005" fill="#949494"/></svg>