<svg width="300" height="120" viewBox="0 0 300 120" fill="none" xmlns="http://www.w3.org/2000/svg"><path d="M146.469 26.417c2.641-.446 6.022-.473 7.317-.078 2.312.71 3.125 2.79 1.805 4.607-.816 1.108-1.958 1.71-4.956 2.608-5.565 1.63-9.629 4.002-13.086 7.608-2.539 2.606-3.939 5.083-4.344 7.635-.128.71-.128 9.61 0 19.749.153 12.717.127 18.667-.051 19.14-.433 1.184-1.244.947-3.505-.922-6.379-5.371-10.521-12.427-12.196-20.852-.561-2.898-.561-9.321.025-11.954 1.65-7.662 5.894-14.85 11.533-19.536 5.211-4.344 10.799-6.899 17.458-8.002v-.003Zm21.369 6.4c.255-.266.584-.474.762-.474.533 0 2.743 1.947 4.8 4.29 7.394 8.373 10.037 16.64 8.617 26.857-.841 6.083-2.264 10.611-4.703 15.14-1.423 2.579-5.311 6.661-8.487 8.897-4.166 2.95-9.451 5.372-13.695 6.266-2.185.476-6.047.555-6.781.16-.638-.37-.638-1.476.025-2.555.632-1.081.836-1.184 4.444-2.16 4.219-1.13 5.845-2 7.75-4.185 2.796-3.133 5.794-8.4 6.732-11.744.408-1.395.408-3.055.23-19.879-.127-10.084-.204-18.718-.179-19.219.051-.5.255-1.105.485-1.395Zm-18.626 3.238c.587-.395 1.244-.554 2.338-.554 1.981 0 3.024.633 3.76 2.317.612 1.449.612 1.476.916 22.433.101 7.451.28 13.77.407 14.032.253.632 1.522 1.265 2.083 1.054.762-.29 3.174-2.58 4.775-4.529.841-1.027 1.652-1.868 1.831-1.868.586 0 .382 1.947-.459 4.396-1.091 3.239-2.794 6.53-4.37 8.532-3.151 3.948-8.637 6.108-11.102 4.37-1.933-1.317-2.109-2.396-2.567-14.719-.306-8.635-.128-26.434.28-30.462.28-2.58.989-4.267 2.108-5.002ZM137.246 59.62c3.53-1.844 7.673.132 8.586 4.055.535 2.29-.204 4.501-2.032 6.11-1.805 1.63-4.092 1.946-6.225.892-.686-.34-1.576-.946-1.956-1.368-2.669-2.947-1.83-7.9 1.627-9.69ZM150 103.256c-22.529 0-40.789-19.365-40.789-43.256 0-23.89 18.26-43.256 40.789-43.256S190.79 36.11 190.79 60s-18.261 43.256-40.79 43.256Zm0-4.326c20.275 0 36.711-17.43 36.711-38.93S170.275 21.07 150 21.07 113.29 38.5 113.29 60 129.725 98.93 150 98.93Z" fill="#949494"/></svg>