<svg width="300" height="120" viewBox="0 0 300 120" fill="none" xmlns="http://www.w3.org/2000/svg"><g clip-path="url(#a)" fill-rule="evenodd" clip-rule="evenodd" fill="#949494"><path d="m87.203 63.359 2.194-6.08 2.099 6.08h-4.293Zm6.44 6.13h2.025l-5.233-14.663h-2.002l-5.5 14.663h2.05l1.617-4.487h5.499l1.543 4.487Zm6.415-5.076c-1.881-.417-3.81-.858-3.81-3.163 0-2.01 1.688-3.285 4.22-3.285 1.64 0 3.208.613 3.98 2.133l-1.713.71c-.144-.416-1.013-1.421-2.484-1.421-1.447 0-2.17.858-2.17 1.618 0 1.054 1.374 1.496 2.532 1.74 2.412.491 4.534 1.129 4.534 3.458 0 1.814-1.568 3.506-4.582 3.506-2.22 0-3.787-.76-4.559-2.33l1.954-.342c.482.858 1.375 1.226 2.677 1.226 1.64 0 2.581-.638 2.581-1.84.024-1.25-1.544-1.642-3.16-2.01Zm9.141-6.105h2.002v1.57h-2.002v6.325c0 1.324 0 1.888.796 1.888.338 0 .844-.147 1.206-.27v1.545c-.314.05-1.085.196-1.785.196-2.122 0-2.122-1.054-2.098-2.5v-7.185h-1.737v-1.57h1.737V55.66l1.905-.81v3.458h-.024Zm5.499.024v1.986c1.037-2.108 3.015-2.157 3.739-2.182v1.937c-1.809.025-2.702.393-3.281 1.373-.482.81-.458 1.937-.458 2.894v5.124h-1.833V58.332h1.833Zm25.012-3.506v1.84l-8.153 11.057h8.37v1.766h-10.589v-1.913l8.201-10.935h-8.201v-1.815h10.372Zm13.554 3.605v1.618c1.013-1.815 2.774-1.986 3.425-1.986 1.399 0 3.063.71 3.594 2.55.193.662.193 1.348.193 2.28v6.596h-1.833v-6.302c0-1.128 0-1.446-.121-1.839-.313-1.054-1.35-1.52-2.339-1.52-.82 0-1.52.27-2.099.834-.819.833-.82 1.667-.82 2.5v6.327h-1.833V58.43h1.833Zm28.364 9.072c-.675 1.103-1.929 2.206-4.172 2.206-3.883 0-5.331-3.04-5.331-5.762 0-3.138 1.689-6.007 5.186-6.007 1.375 0 3.28.417 4.341 2.207l-1.712.735c-.314-.735-1.037-1.569-2.557-1.569-3.014 0-3.207 3.506-3.207 4.487 0 3.678 2.074 4.463 3.304 4.463 1.423 0 2.146-.687 2.532-1.447l1.616.687Zm-39.072-4.733h5.812c-.169-2.917-1.809-3.408-2.918-3.408-1.592 0-2.701 1.177-2.894 3.408Zm7.308 4.61c-.627 1.079-1.833 2.33-4.221 2.33-3.232 0-5.089-2.232-5.089-5.983 0-4.193 2.725-5.787 5.016-5.787 2.002 0 3.932 1.128 4.583 3.923.217.932.217 1.79.217 2.256h-7.863c-.048 1.863.724 4.217 3.305 4.168 1.061-.024 1.809-.515 2.267-1.275l1.785.368Zm13.579-4.61h5.812c-.168-2.917-1.809-3.408-2.918-3.408-1.568 0-2.677 1.177-2.894 3.408Zm7.332 4.61c-.627 1.079-1.833 2.33-4.221 2.33-3.232 0-5.089-2.232-5.089-5.983 0-4.193 2.725-5.787 5.017-5.787 2.002 0 3.931 1.128 4.582 3.923.217.932.217 1.79.217 2.256h-7.862c-.049 1.863.723 4.217 3.304 4.168 1.061-.024 1.809-.515 2.267-1.275l1.785.368Zm20.887 2.109h-1.905s-.169-.785-.218-1.643c-.555.588-1.592 1.79-3.666 1.79-2.122 0-3.714-1.275-3.714-3.163 0-.589.169-1.177.482-1.668.627-.931 1.785-1.691 5.042-1.961l1.736-.147v-.294c0-1.153 0-3.09-2.437-3.09-1.543 0-2.049.76-2.242 1.447l-1.689-.711a.399.399 0 0 1 .097-.172c.651-1.226 1.929-1.986 3.762-1.986 1.014 0 2.34.27 3.184.932 1.23.931 1.182 2.795 1.182 2.795l.072 5.713c.025.049.097 1.692.314 2.158Zm-2.509-3.065c.29-.613.29-.883.29-2.501-.723.122-1.688.27-2.871.515-2.025.441-2.387 1.226-2.387 2.01 0 .883.699 1.643 2.05 1.643 1.302 0 2.388-.515 2.918-1.667Zm-61.141 3.065h-1.906s-.168-.785-.217-1.643c-.554.588-1.591 1.79-3.666 1.79-2.122 0-3.714-1.275-3.714-3.163 0-.589.169-1.177.482-1.668.628-.931 1.785-1.691 5.041-1.961l1.737-.147v-.294c0-1.153 0-3.09-2.436-3.09-1.544 0-2.05.76-2.243 1.447l-1.689-.711c.025-.05.049-.123.097-.172.651-1.226 1.929-1.986 3.763-1.986 1.012 0 2.339.27 3.183.932 1.23.931 1.182 2.795 1.182 2.795l.072 5.713c.024.049.097 1.692.314 2.158Zm-2.508-3.065c.289-.613.289-.883.289-2.501-.724.122-1.688.27-2.87.515-2.026.441-2.388 1.226-2.388 2.01 0 .883.7 1.643 2.05 1.643 1.303 0 2.388-.515 2.919-1.667Zm91.287-12.358c0-.074-.023-.147-.023-.196a1.929 1.929 0 0 0-.121-.393 1.925 1.925 0 0 0-.193-.392c-.072-.147-.169-.27-.265-.417-.048-.073-.121-.147-.193-.22-.073-.074-.144-.148-.241-.221-.193-.147-.362-.294-.579-.442-.459-.27-.892-.563-1.375-.784-.579-.27-1.135-.564-1.737-.785l-4.003-1.422c0-.785.024-1.545 0-2.33a81.612 81.612 0 0 0-.17-3.456c-.071-.81-.144-1.594-.289-2.403-.096-.613-.241-1.226-.385-1.84-.025-.146-.073-.269-.12-.416a3.576 3.576 0 0 0-.29-.687c-.097-.171-.193-.343-.314-.514a1.923 1.923 0 0 0-.507-.49 2.087 2.087 0 0 0-.313-.197 1.345 1.345 0 0 0-.29-.098c-.145-.05-.289-.05-.457-.074-.362-.024-.7.025-1.038.147-.12.05-.241.099-.361.172-.266.147-.531.319-.796.49-.217.172-.458.344-.653.54-.843.809-1.663 1.618-2.483 2.452-.434.441-.844.907-1.23 1.397-1.544 1.913-3.088 3.825-4.583 5.787-.651.858-1.254 1.79-1.882 2.697-.144.22-.289.466-.433.711-.217.417-.458.834-.651 1.275-.048.123-.097.22-.145.343-.049.123-.072.22-.097.344a2.782 2.782 0 0 0-.072.637c0 .05.025.098.025.147.023.05.047.098.072.147.072.098.144.221.217.295.096.098.193.196.313.294.121.098.217.171.338.27.217.147.433.27.651.392l.289.147c.025.025-.072-.025-.096-.05h.024l.169.075c1.326.71 2.653 1.397 3.979 2.108a211.89 211.89 0 0 1 3.957 2.182l2.942 1.692c-1.013.785-2.074 1.545-3.063 2.354a14.44 14.44 0 0 0-1.086 1.005c-.29.294-.555.589-.796.907a9.324 9.324 0 0 0-.555.785c-.144.22-.241.441-.361.662a3.548 3.548 0 0 0-.193.54c-.048.122-.072.27-.097.392-.024.073-.024.171-.024.245v.294c.024.245.073.515.193.736.024.049.048.098.097.147.072.098.144.196.217.27.072.073.168.147.265.22.096.074.192.123.289.196.097.05.218.099.314.147.096.05.216.099.337.123.412.098.821.172 1.255.245.193.025.409.05.627.025a20.057 20.057 0 0 0 2.122-.245c.82-.123 1.641-.32 2.46-.49.965-.221 1.929-.442 2.871-.687.675-.172 1.35-.344 2.003-.613.505-.22 1.012-.417 1.518-.638.121-.049.218-.122.314-.171a2 2 0 0 0 .289-.197.839.839 0 0 0 .217-.196c.048-.049.121-.122.169-.196.072-.122.145-.245.169-.368a.825.825 0 0 0 0-.343 1.25 1.25 0 0 0-.12-.319 1.118 1.118 0 0 0-.193-.27c-.145-.147-.289-.294-.459-.392l-.217-.147c-.53-.319-1.037-.637-1.567-.956l-2.22-1.324c1.351-.932 2.702-1.839 4.028-2.77a21.336 21.336 0 0 0 1.664-1.276c.459-.392.893-.784 1.327-1.201.217-.196.386-.417.579-.638.097-.098.168-.196.241-.318.072-.099.145-.197.193-.295.169-.343.338-.71.482-1.054.049-.147.072-.319.12-.466.026-.073.026-.147.026-.22v-.221c0-.05-.026-.123-.026-.196Zm-16.497-9.195c.748-.785 1.496-1.57 2.268-2.354.144-.147.29-.27.434-.392a.439.439 0 0 1 .168-.123c.049-.024.074-.073.121-.098a.183.183 0 0 1 .097-.049c.048-.024.072-.024.12-.049h.121a.18.18 0 0 1 .12.05.534.534 0 0 1 .121.097c.024.025.048.05.048.074a.182.182 0 0 1 .049.098c.048.098.071.196.097.294.023.147.071.294.095.442l.146 1.078c.048.466.096.932.12 1.398l.217 2.476-2.726-.637-2.533-.417-.602-.049h-.193c.579-.613 1.133-1.226 1.712-1.839Zm-1.688 3.433h.048l.097.024.241.098.339.147c.868.368 1.736.76 2.604 1.128.579.245 1.158.49 1.712.736l1.134.49.096.05c.072.907.145 1.814.193 2.721.048.711.048 1.422.072 2.133v.27c0 .049 0 .098-.024.147 0 .049-.024.098-.024.147-.024.05-.024.098-.048.147-.024.05-.049.074-.072.123-.025.024-.025.024-.048.049-.025.024-.049.024-.073.049a.345.345 0 0 1-.168.049.332.332 0 0 1-.218 0c-.048 0-.072-.025-.12-.025a.184.184 0 0 1-.121-.049c-.097-.049-.168-.073-.265-.122-.097-.05-.193-.123-.266-.172a64.61 64.61 0 0 0-.29-.22c-.096-.099-.192-.172-.289-.27-.193-.221-.385-.442-.579-.662-.338-.417-.675-.81-.964-1.25-.386-.614-.795-1.202-1.183-1.815a10.506 10.506 0 0 1-.65-1.128l-.868-1.765-.194-.565-.048-.171-.024-.172v-.122Zm9.623 15.618c.241.148.483.295.7.466.289.196.603.392.892.613.218.147.41.319.603.49a1.2 1.2 0 0 1 .242.246c.073.073.121.147.169.22v.075s0 .024-.025.024l-.023.024c-.025 0-.025 0-.048.025h-.073c-1.158.098-2.292.171-3.449.27l-4.486.367h-.146l.073-.074.288-.245c.581-.44 1.135-.907 1.739-1.324l2.532-1.74 1.012.563Zm3.449-8.974a.717.717 0 0 1-.121.246c-.071.098-.168.171-.241.27-.191.17-.361.343-.577.49-.725.515-1.424 1.03-2.147 1.544-.507.344-1.013.662-1.521 1.006l-2.942 1.912-1.254-.735-5.33-3.09c-1.206-.736-2.412-1.446-3.618-2.207a11.014 11.014 0 0 1-.652-.465c-.072-.05-.12-.098-.192-.147-.024-.025-.049-.025-.072-.05-.049-.049-.097-.098-.145-.122a.538.538 0 0 1-.121-.196c-.024-.05-.024-.074-.024-.123v-.123a.918.918 0 0 1 .096-.27c.122-.195.242-.392.411-.539a86.2 86.2 0 0 0 2.074-2.157l1.857-1.937.097.318.216.54.025.024c.482.858.964 1.766 1.471 2.6.603.98 1.254 1.936 1.904 2.868.315.442.629.883.965 1.3.291.367.604.735.918 1.054.289.294.603.564.916.833.169.123.338.221.507.344.169.098.337.171.507.22.168.05.337.099.505.099.193.024.411 0 .604-.05.048-.024.12-.024.168-.048l.144-.074a.507.507 0 0 0 .146-.098c.072-.05.144-.123.217-.196.049-.05.12-.123.169-.197a.997.997 0 0 0 .169-.27c.144-.244.264-.49.337-.76.097-.293.194-.588.242-.882.096-.392.193-.809.241-1.201l.241-2.354c.554.27 1.109.49 1.664.784.53.27 1.037.613 1.544.908.049.024.12.073.169.122.072.074.144.123.217.196.072.074.12.172.168.27.025.05.025.098.048.147v.074c.025.073.025.098 0 .122Z"/></g><defs><clipPath id="a"><path fill="#fff" transform="translate(82 36)" d="M0 0h135v35H0z"/></clipPath></defs></svg>