<svg width="300" height="120" viewBox="0 0 300 120" fill="none" xmlns="http://www.w3.org/2000/svg"><mask id="a" style="mask-type:luminance" maskUnits="userSpaceOnUse" x="122" y="30" width="60" height="61"><path d="M181.804 30.367H122v59.804h59.804V30.367Z" fill="#fff"/></mask><g mask="url(#a)" fill-rule="evenodd" clip-rule="evenodd"><path d="M151.902 30.367c16.421 0 29.902 13.466 29.902 29.902 0 16.437-13.488 29.902-29.902 29.902S122 76.683 122 60.27a30.004 30.004 0 0 1 29.902-29.902Z" fill="#949494"/><path d="M151.903 32.361a27.908 27.908 0 1 0 18.678 7.171 28.193 28.193 0 0 0-18.678-7.17Z" fill="#fff"/><path d="m151.402 58.84 2.681-3.555h2.803l-4.34 5.539v3.432h-2.284v-3.432l-4.34-5.539h2.803l2.677 3.555Zm-7.188-3.555 4.698 8.97h-2.699l-.871-1.777h-4.825l-.87 1.778h-2.696l4.698-8.97h2.565Zm-17.229 0h5.87c1.649 0 3.575.246 3.575 2.17 0 .98-.606 1.49-1.496 1.838a2.49 2.49 0 0 1 1.471.823c.37.431.564.974.547 1.528 0 1.917-1.535 2.612-3.338 2.612h-6.629v-8.97Zm39.868 7.356v1.615h-8.97v-8.97h8.721V56.9h-6.382v1.962h6.169v1.614h-6.169v2.165h6.631Zm3.269-1.961v3.576h-2.274v-8.97h6.084c1.777 0 3.535.611 3.535 2.674 0 1.575-.909 2.415-2.355 2.72l2.703 3.576h-2.707l-2.381-3.577h-2.605Zm-23.205-25.328h5.875c1.651 0 3.579.245 3.579 2.163 0 .959-.607 1.467-1.498 1.831.584.1 1.111.395 1.48.832a2.2 2.2 0 0 1 .528 1.54c0 1.912-1.536 2.604-3.34 2.604h-6.624v-8.97Zm6.282 9.966 4.684 8.97h-2.682l-.872-1.776h-4.834l-.895 1.777h-2.678l4.707-8.97h2.57Zm3.685 27.291v1.615h-9.967v-8.971h9.727v1.615h-7.299v1.962h7.082v1.614h-7.082v2.165h7.539Zm-7.685 9.011v3.567h-2.282v-8.97h6.101c1.769 0 3.495.61 3.495 2.672 0 1.568-.885 2.424-2.323 2.73l2.694 3.568h-2.694l-2.384-3.568h-2.607Z" fill="#949494"/><path d="m143.927 61.266-1.487-2.99-.017.016-.022-.017-1.464 2.99h2.99Zm-14.951-1.993h3.658c.685 0 1.276-.224 1.321-.973.068-.82-.616-1.02-1.321-1.02h-3.658v1.993Zm0 2.99h3.383c.863 0 1.6-.206 1.6-1.023 0-.885-.714-.97-1.6-.97h-3.383v1.993Zm41.862-2.99h3.536c.724 0 1.447-.186 1.447-.997 0-.81-.723-.997-1.447-.997h-3.536v1.994Zm-21.926-20.932h3.643c.682 0 1.271-.222 1.339-.965.044-.85-.637-1.028-1.339-1.028h-3.643v1.993Zm0 3.986h3.371c.882 0 1.613-.21 1.613-1.03 0-.876-.742-.963-1.613-.963h-3.371v1.993Zm3.985 7.976-1.482-2.99v.04l-.022-.04-1.486 2.99h2.99Zm-2.99 29.9h3.53c.727 0 1.454-.188 1.454-.985 0-.796-.727-1.008-1.454-1.008h-3.53v1.993Z" fill="#fff"/></g></svg>