<svg width="300" height="120" viewBox="0 0 300 120" fill="none" xmlns="http://www.w3.org/2000/svg"><g clip-path="url(#a)"><mask id="b" style="mask-type:luminance" maskUnits="userSpaceOnUse" x="126" y="35" width="51" height="51"><path d="M176.836 35.307h-50v50h50v-50Z" fill="#fff"/></mask><g mask="url(#b)" fill-rule="evenodd" clip-rule="evenodd"><path d="M151.836 35.307c13.729 0 25 11.258 25 25s-11.277 25-25 25-25-11.277-25-25a25.082 25.082 0 0 1 25-25Z" fill="#949494"/><path d="M151.837 36.974a23.334 23.334 0 1 0 15.615 5.995 23.568 23.568 0 0 0-15.615-5.995Z" fill="#1F2022"/><path d="m151.418 59.112 2.241-2.972h2.344l-3.629 4.63v2.87h-1.909v-2.87l-3.629-4.63h2.343l2.239 2.972Zm-6.01-2.972 3.928 7.5h-2.257l-.728-1.486h-4.034l-.727 1.486h-2.254l3.928-7.5h2.144Zm-14.404 0h4.907c1.379 0 2.989.205 2.989 1.814 0 .82-.507 1.246-1.251 1.536a2.09 2.09 0 0 1 1.23.688c.31.36.472.814.457 1.278 0 1.603-1.283 2.184-2.79 2.184h-5.542v-7.5Zm33.332 6.15v1.35h-7.5v-7.5h7.291v1.35h-5.336v1.64h5.158v1.35h-5.158v1.81h5.545Zm2.734-1.64v2.99h-1.902v-7.5h5.087c1.485 0 2.955.511 2.955 2.236 0 1.317-.759 2.02-1.969 2.273l2.26 2.99h-2.263l-1.991-2.99h-2.177Zm-19.402-21.176h4.912c1.38 0 2.992.205 2.992 1.808 0 .802-.507 1.227-1.252 1.532.488.083.928.33 1.237.694.309.365.466.823.442 1.29 0 1.597-1.284 2.176-2.793 2.176h-5.538v-7.5Zm5.252 8.333 3.916 7.5h-2.242l-.729-1.486h-4.042l-.748 1.486h-2.239l3.935-7.5h2.149Zm3.081 22.817v1.35h-8.333v-7.5h8.133v1.35h-6.103v1.64h5.921v1.35h-5.921v1.81h6.303Zm-6.425 7.533v2.983h-1.908v-7.5h5.101c1.479 0 2.922.51 2.922 2.234 0 1.31-.74 2.026-1.942 2.283l2.252 2.983h-2.252l-1.994-2.983h-2.179Z" fill="#949494"/><path d="m145.168 61.14-1.243-2.5-.015.014-.017-.014-1.225 2.5h2.5Zm-12.5-1.667h3.059c.572 0 1.067-.187 1.104-.813.057-.686-.515-.853-1.104-.853h-3.059v1.666Zm0 2.5h2.829c.721 0 1.338-.172 1.338-.855 0-.74-.598-.811-1.338-.811h-2.829v1.666Zm35-2.5h2.956c.605 0 1.211-.155 1.211-.833 0-.678-.606-.833-1.211-.833h-2.956v1.666Zm-18.332-17.5h3.046c.569 0 1.062-.186 1.119-.806.037-.71-.533-.86-1.119-.86h-3.046v1.666Zm0 3.333h2.818c.738 0 1.349-.176 1.349-.861 0-.733-.62-.805-1.349-.805h-2.818v1.666Zm3.332 6.668-1.24-2.5v.033l-.018-.033-1.242 2.5h2.5Zm-2.5 24.999h2.951c.608 0 1.216-.157 1.216-.823 0-.666-.608-.843-1.216-.843h-2.951v1.666Z" fill="#1F2022"/></g></g><defs><clipPath id="a"><path fill="#fff" transform="translate(126 35)" d="M0 0h51v51H0z"/></clipPath></defs></svg>