<svg width="300" height="120" viewBox="0 0 300 120" fill="none" xmlns="http://www.w3.org/2000/svg"><g clip-path="url(#a)"><mask id="b" style="mask-type:luminance" maskUnits="userSpaceOnUse" x="116" y="27" width="67" height="67"><path d="M182.456 27.403H116.77V93.09h65.686V27.403Z" fill="#fff"/></mask><g mask="url(#b)"><path d="M169.074 60.247c0 10.756-8.707 19.463-19.463 19.463V60.247h19.463Zm-19.463-19.463v19.463h-19.463c0-10.756 8.707-19.463 19.463-19.463Z" fill="#949494"/><path d="M149.611 40.784c10.756 0 19.463 8.707 19.463 19.463h-19.463V40.784Zm-19.463 19.463h19.463V79.71c-10.756 0-19.463-8.707-19.463-19.463Z" fill="#fff"/><path d="M149.613 40.784v1.067c10.142 0 18.395 8.251 18.395 18.395h1.067c0-10.748-8.714-19.462-19.462-19.462Zm0 37.858c-10.143 0-18.396-8.251-18.396-18.395h-1.067c0 10.748 8.714 19.462 19.463 19.462v-1.067Zm0-51.239c-18.139 0-32.843 14.705-32.843 32.843 0 18.139 14.704 32.844 32.843 32.844 18.138 0 32.843-14.705 32.843-32.844 0-18.138-14.705-32.843-32.843-32.843Zm30.707 32.843c0 16.959-13.747 30.708-30.707 30.708-16.961 0-30.708-13.75-30.708-30.707 0-16.959 13.749-30.708 30.708-30.708 16.958 0 30.707 13.749 30.707 30.707Z" fill="#949494"/><path d="M135.578 44.403c1.049-1.098 1.644-2.366.594-3.577-.571-.657-1.53-.8-2.324-.477l-.08.03.026-.068c.117-.313.192-1.309-.662-1.997-.417-.335-.94-.46-1.468-.406-.986.1-1.745.768-3.809 3.054-.623.69-1.53 1.778-2.074 2.483l5.67 5.342c1.879-2.066 2.645-2.834 4.127-4.384Zm-7.399-1.306c1.142-1.388 2.356-2.647 2.906-3.145.173-.157.362-.314.592-.375.372-.102.756.16.843.54.087.382-.154.744-.422 1.043-.604.676-2.819 2.977-2.819 2.977l-1.1-1.04Zm2.221 2.092s2.157-2.265 2.861-2.99c.28-.287.459-.46.652-.555.249-.12.521-.145.764.016a.666.666 0 0 1 .289.705c-.071.323-.337.632-.557.868l-2.859 3.038-1.15-1.082Zm19.862-7.156 1.815-4.04.116-.358-.033.374.191 5.397c.637.06 1.294.148 1.943.255l-.295-7.993c-.907-.1-1.81-.17-2.713-.209l-1.788 4.409-.064.327-.064-.327-1.786-4.409c-.903.038-1.806.11-2.713.209l-.295 7.993a28.981 28.981 0 0 1 1.943-.255l.191-5.397-.033-.373.116.358 1.815 4.039h1.654Zm15.077 8.355a28.866 28.866 0 0 1 1.449 1.707l6.644-4.188a43.708 43.708 0 0 0-1.256-1.548l-4.208 2.763-.287.245.214-.31 1.858-3.683-1.314-1.305-3.71 1.845-.312.213.248-.285 2.784-4.177c-.49-.414-.96-.793-1.56-1.253l-4.218 6.593a29.272 29.272 0 0 1 1.688 1.415l3.971-2.046.254-.186-.187.253-2.058 3.947Z" fill="#949494"/></g></g><defs><clipPath id="a"><path fill="#fff" transform="translate(116 27)" d="M0 0h67v67H0z"/></clipPath></defs></svg>