<svg width="300" height="120" viewBox="0 0 300 120" fill="none" xmlns="http://www.w3.org/2000/svg"><g clip-path="url(#a)"><mask id="b" style="mask-type:luminance" maskUnits="userSpaceOnUse" x="126" y="35" width="51" height="51"><path d="M176.586 35.307h-50v50h50v-50Z" fill="#fff"/></mask><g mask="url(#b)"><path d="M166.399 60.307c0 8.187-6.627 14.815-14.815 14.815V60.307h14.815Zm-14.815-14.815v14.815H136.77c0-8.187 6.627-14.815 14.814-14.815Z" fill="#949494"/><path d="M151.584 45.492c8.188 0 14.815 6.628 14.815 14.815h-14.815V45.492ZM136.77 60.307h14.814v14.815c-8.187 0-14.814-6.628-14.814-14.815Z" fill="#1F2022"/><path d="M151.586 45.492v.812c7.72 0 14.003 6.28 14.003 14.003h.812c0-8.182-6.634-14.815-14.815-14.815Zm0 28.817c-7.72 0-14.003-6.28-14.003-14.002h-.812c0 8.181 6.633 14.814 14.815 14.814v-.812Zm0-39.002c-13.807 0-25 11.193-25 25 0 13.806 11.193 25 25 25s25-11.194 25-25c0-13.807-11.193-25-25-25Zm23.374 25c0 12.908-10.464 23.374-23.374 23.374-12.91 0-23.374-10.466-23.374-23.374 0-12.909 10.465-23.375 23.374-23.375 12.909 0 23.374 10.466 23.374 23.375Z" fill="#949494"/><path d="M140.903 48.247c.798-.836 1.251-1.801.452-2.723-.435-.5-1.165-.61-1.77-.363l-.06.023.019-.052c.09-.238.147-.997-.504-1.52a1.512 1.512 0 0 0-1.117-.31c-.75.076-1.328.585-2.899 2.325a37.813 37.813 0 0 0-1.579 1.89l4.316 4.066c1.431-1.572 2.014-2.157 3.142-3.336Zm-5.632-.995c.869-1.056 1.793-2.014 2.211-2.393.133-.12.276-.24.451-.286.284-.077.576.122.642.411.066.29-.118.566-.322.794-.459.514-2.145 2.266-2.145 2.266l-.837-.792Zm1.69 1.593s1.642-1.724 2.178-2.276c.213-.218.349-.351.496-.422.19-.092.397-.111.582.011.182.121.266.33.22.537-.054.246-.257.481-.424.66l-2.177 2.314-.875-.824Zm15.119-5.448 1.382-3.074.088-.273-.025.285.145 4.108c.485.045.985.112 1.479.194l-.225-6.084c-.69-.076-1.377-.13-2.065-.16l-1.361 3.356-.048.25-.049-.25-1.36-3.355a30.84 30.84 0 0 0-2.064.159l-.225 6.084c.493-.082.994-.147 1.479-.194l.145-4.108-.025-.285.088.273 1.382 3.074h1.259Zm11.476 6.36c.34.362.829.946 1.103 1.3l5.058-3.188a34.046 34.046 0 0 0-.956-1.178l-3.203 2.103-.219.186.163-.236 1.414-2.803-1-.993-2.824 1.404-.238.162.19-.217 2.119-3.18a30.533 30.533 0 0 0-1.188-.953l-3.21 5.018c.406.31.942.767 1.285 1.078l3.022-1.558.194-.141-.143.192-1.567 3.005Z" fill="#949494"/></g></g><defs><clipPath id="a"><path fill="#fff" transform="translate(126 35)" d="M0 0h51v51H0z"/></clipPath></defs></svg>