<svg width="300" height="120" viewBox="0 0 300 120" fill="none" xmlns="http://www.w3.org/2000/svg"><g clip-path="url(#a)" fill="#949494"><path d="M87.229 66.604C85.763 65.282 85 63.56 85 61.44c0-2.09.733-3.811 2.198-5.133 1.466-1.321 3.328-1.998 5.557-1.998 1.343 0 2.503.246 3.45.738v3.965c-1.1-.615-2.229-.892-3.328-.892-1.038 0-1.893.308-2.565.953-.671.615-1.007 1.414-1.007 2.367 0 .983.336 1.782 1.038 2.397.702.614 1.587.922 2.687.922 1.343 0 2.442-.338 3.358-.984v4.026c-.947.492-2.137.738-3.603.738-2.198.061-4.09-.615-5.556-1.936Zm11.081 1.722V54.619h4.183v13.707h-4.182Zm5.679-13.706h11.968v3.626h-3.908v10.08h-4.182v-10.08h-3.878v-3.627Zm17.159 13.706v-5.993l-4.946-7.714h4.732l2.382 3.873 2.412-3.873h4.61l-4.977 7.622v6.085h-4.213Zm10.015 0V54.619h4.152l2.962 4.887 2.992-4.887h4.121v13.707h-3.999v-7.683l-1.924 3.258h-2.259l-2.015-3.258v7.683h-4.03Zm16.304 0V54.619h10.686v3.627h-6.504v1.229h5.099v3.32h-5.099v1.904h6.595v3.627h-10.777ZM159.22 54.62h11.968v3.626h-3.908v10.08h-4.183v-10.08h-3.877v-3.627Zm26.684 13.706h-4.885l-3.633-4.886h-.58v4.886h-4.183V54.619h6.564c1.527 0 2.778.4 3.725 1.26.946.83 1.404 1.875 1.404 3.166 0 1.72-.946 3.165-2.503 3.933l4.091 5.348Zm-7.175-7.99c.763 0 1.313-.43 1.313-1.107 0-.676-.519-1.106-1.313-1.106h-1.893v2.213h1.893Zm8.089 7.99V54.619h4.183v13.707h-4.183Zm5.286 0 5.587-13.799h3.999l5.618 13.8h-4.488l-.977-2.551h-4.427l-.977 2.55h-4.335Zm6.533-5.716h2.015l-.977-3.258-1.038 3.258Zm13.248-4.887c1.72 0 3.114-1.404 3.114-3.135 0-1.731-1.394-3.135-3.114-3.135s-3.114 1.404-3.114 3.135c0 1.731 1.394 3.135 3.114 3.135Z"/></g><defs><clipPath id="a"><path fill="#fff" transform="translate(85 51.453)" d="M0 0h130v17.093H0z"/></clipPath></defs></svg>