<svg width="300" height="120" viewBox="0 0 300 120" fill="none" xmlns="http://www.w3.org/2000/svg"><g clip-path="url(#a)" fill="#949494"><path d="M135.503 60.182V53.81h-1.631v-9.92h-8.103c-.158 1.94-.421 3.769-.894 5.431-.474 1.663-1.053 3.159-1.789 4.489h-1v6.372h3.157v-3.546h7.05v3.546h3.21Zm-4.946-6.372h-3.999c1-2.217 1.631-4.6 1.842-7.093h2.157v7.093Zm-3.993 12.747a5.845 5.845 0 0 0-1.603-.223h-1.825v-2.389h3.926v-.888h-4.976v7.666h2.986c.829 0 1.382-.11 1.714-.333.331-.222.608-.5.774-.833a2.55 2.55 0 0 0 .276-1.112c0-.5-.111-.888-.387-1.277a1.708 1.708 0 0 0-.885-.611Zm-.221 3c-.276.222-.663.333-1.216.333h-2.046v-2.667h1.327c.664 0 1.161.056 1.438.111a1.1 1.1 0 0 1 .663.445c.166.222.221.444.221.778.056.444-.11.777-.387 1ZM99.086 55.39h2.875v-3.833c-1.252.825-2.272 2.182-2.875 3.833Z"/><path d="M93.336 70.724h24.917V43.891H93.336v26.833Zm12.484-1.674c-5.128 0-9.376-4.184-9.894-9.54h19.737c-.518 5.356-4.715 9.54-9.843 9.54Zm.622-24.155h2.538v3.347c3.833 1.395 6.631 5.244 6.734 9.874h-9.272V44.895Zm-3.834 3.403V44.95h2.539v13.221h-9.273c.104-4.63 2.901-8.48 6.734-9.874Z"/><path d="M106.272 65.932c2.631 0 4.94-1.51 6.229-3.833h-12.458c1.235 2.265 3.544 3.833 6.229 3.833Zm2.396-14.375v3.833h2.875c-.557-1.651-1.577-3.008-2.875-3.833Zm52.818 15.277c.198-.11.396-.222.544-.389.148-.166.346-.61.592-1.222.198-.5.346-.833.494-1 .149-.166.346-.222.643-.222h.395v-.889h-.544c-.296 0-.543.056-.741.222a2.703 2.703 0 0 0-.543.5c-.148.223-.296.556-.444 1.056-.247.667-.494 1.111-.643 1.278-.148.166-.444.277-.889.277v-3.388h-.889v7.666h.889v-3.61c.346 0 .593.11.84.332.198.223.445.612.79 1.167l1.136 2.056h1.137l-1.384-2.556c-.493-.722-.938-1.166-1.383-1.278Zm32.212-17.039v-.054c.599-.163 1.089-.434 1.416-.975.381-.488.544-1.084.544-1.788 0-1.083-.435-1.842-1.252-2.329-.817-.488-2.069-.758-3.757-.758h-4.356v12.458h4.846c1.47 0 2.614-.325 3.485-.975.871-.65 1.252-1.517 1.252-2.654 0-.758-.163-1.354-.544-1.842-.327-.541-.871-.867-1.634-1.083Zm-4.029-3.358h.926c1.089 0 1.579.325 1.579 1.029 0 .379-.109.704-.382.866-.272.217-.653.325-1.143.325h-1.035v-2.22h.055Zm1.143 7.312h-1.198v-2.6h1.144c.544 0 .926.108 1.252.325.272.217.436.542.436.975-.055.867-.545 1.3-1.634 1.3Zm-13.745-9.859-3.95 12.351-3.793-6.418 3.582-5.932h-3.529l-3.371 5.986v-5.932h-3.161v5.986l-3.371-5.986h-3.529l3.529 5.932-3.845 6.472h3.582l3.582-6.256v6.256h3.16v-6.31l3.582 6.256h7.111l.579-2.319h3.951l.579 2.32h3.582l-3.898-12.405h-4.372Zm.949 7.39c.526-1.942.842-3.237.948-3.884.158-.647.263-1.132.316-1.402.052.324.158.809.316 1.564.158.701.316 1.294.421 1.78l.527 2.05h-2.528v-.109Zm26.275-7.39h-4.419l-3.993 12.459h3.62l.639-2.32h3.993l.586 2.32h3.62l-4.046-12.458Zm-3.461 7.39c.533-1.942.852-3.237.959-3.884a33.5 33.5 0 0 0 .319-1.402c.053.324.16.809.32 1.564.159.701.319 1.294.425 1.78l.533 2.05h-2.556v-.109Zm-50.049 14.943h-3.78v-3.166h-.958v7.666h.958v-3.61h3.78v3.61h1.012v-7.666h-1.012v3.166Zm-13.363-9.874h6.708v-2.762h-3.65v-2.33h3.354V48.55h-3.354V46.6h3.65v-2.708h-6.708V56.35Zm-1.076 6.708-2.756 7.666h.988l.78-2.333h3.016l.832 2.333h1.092l-2.912-7.666h-1.04Zm-.728 4.555.78-2.222c.156-.5.312-1 .416-1.5.104.444.312.944.52 1.611l.728 2.111h-2.444Zm17.918-22.692c-.775-.704-1.86-1.03-3.357-1.03h-4.132v12.46h3.202v-4.117h.93c1.446 0 2.53-.379 3.305-1.137.775-.758 1.188-1.842 1.188-3.196 0-1.3-.362-2.275-1.136-2.98Zm-2.531 4.116c-.31.271-.671.434-1.136.434h-.568v-2.871h.826c.878 0 1.343.433 1.343 1.246-.052.541-.207.92-.465 1.191Z"/></g><defs><clipPath id="a"><path fill="#fff" transform="translate(93 43)" d="M0 0h116v28H0z"/></clipPath></defs></svg>