<svg width="300" height="120" viewBox="0 0 300 120" fill="none" xmlns="http://www.w3.org/2000/svg"><path d="M105.825 64.802H91.08c-1.693 0-2.61 1.082-2.61 2.396v15.686c0 1.542 1.2 2.427 2.682 2.427 1.446 0 2.61-.886 2.61-2.428V69.56h9.418v13.322c0 1.543 1.164 2.428 2.646 2.428 1.446 0 2.646-.919 2.646-2.461V67.197c-.001-1.313-.952-2.395-2.647-2.395Zm25.683 0h-.211c-1.552 0-2.576.721-3.669 2.166L119.02 78.32V67.23c0-1.542-1.058-2.427-2.504-2.427-1.481 0-2.575.886-2.575 2.427v15.128c0 1.64 1.129 2.757 2.928 2.757h.247c1.658 0 2.717-.787 3.74-2.166l8.607-11.354v11.091c0 1.543 1.058 2.429 2.539 2.429 1.446 0 2.54-.886 2.54-2.429V67.558c0-1.707-1.094-2.756-3.034-2.756Zm29.421 15.553h-1.34V67.032c0-1.542-1.199-2.428-2.682-2.428-1.446 0-2.61.886-2.61 2.428v13.323h-9.172V67.032c0-1.542-1.128-2.428-2.646-2.428-1.481 0-2.645.886-2.645 2.428v15.686c0 1.313.953 2.395 2.61 2.395h15.874v2.166c0 1.543 1.129 2.428 2.575 2.428 1.481 0 2.61-.886 2.61-2.428v-4.496c.001-1.609-1.021-2.428-2.574-2.428Zm26.49 0h-1.34V67.032c0-1.542-1.199-2.428-2.682-2.428-1.446 0-2.611.886-2.611 2.428v13.323h-9.171V67.032c0-1.542-1.128-2.428-2.646-2.428-1.481 0-2.645.886-2.645 2.428v15.686c0 1.313.953 2.395 2.61 2.395h15.874v2.166c0 1.543 1.129 2.428 2.575 2.428 1.481 0 2.61-.886 2.61-2.428v-4.496c.001-1.609-1.022-2.428-2.574-2.428Zm25.786 1.313-7.196-14.57c-.812-1.607-1.941-2.296-3.563-2.296h-.282c-1.694 0-2.822.689-3.633 2.297l-7.196 14.569c-.706 1.443-.213 2.723 1.198 3.216 1.269.46 2.54.197 3.245-1.18l1.623-3.184c1.446.46 3.245.69 4.939.69 1.798 0 3.386-.231 4.726-.69l1.552 3.15c.671 1.378 2.047 1.641 3.28 1.214 1.413-.493 1.976-1.838 1.307-3.216Zm-10.865-4.824c-1.094 0-2.259-.13-3.14-.36l3.069-6.366 3.069 6.365c-.847.23-1.905.361-2.998.361Zm-90.166-29.031h-1.34v-13.16c0-1.312-.953-2.394-2.61-2.394h-12.1c-1.41 0-2.364.886-2.364 2.428v3.183c0 2.297-.035 4.068-.458 5.971-.423 1.871-.952 3.019-1.728 3.97h-.599c-1.693 0-2.504.985-2.504 2.397v4.528c0 1.542 1.128 2.428 2.575 2.428 1.482 0 2.61-.887 2.61-2.428V52.57h15.91v2.166c0 1.542 1.128 2.428 2.574 2.428 1.482 0 2.61-.887 2.61-2.428v-4.528c-.001-1.411-.812-2.395-2.576-2.395Zm-6.631 0H96.97c.53-1.05.953-2.002 1.306-3.445.352-1.51.494-3.02.53-4.989l.035-2.362h6.702v10.795Zm21.625-15.719c-6.314 0-11.182 4.43-11.182 10.336 0 5.972 4.868 10.337 11.182 10.337s11.182-4.529 11.182-10.402c0-5.906-4.868-10.271-11.182-10.271Zm0 16.046c-3.457 0-5.961-2.428-5.961-5.742 0-3.249 2.504-5.678 5.961-5.678 3.493 0 5.962 2.428 5.962 5.678 0 3.313-2.364 5.742-5.962 5.742Zm50.268-16.046c-6.314 0-11.182 4.43-11.182 10.336 0 5.972 4.868 10.337 11.182 10.337s11.182-4.529 11.182-10.402c0-5.906-4.868-10.271-11.182-10.271Zm0 16.046c-3.457 0-5.961-2.428-5.961-5.742 0-3.249 2.505-5.678 5.961-5.678 3.492 0 5.961 2.428 5.961 5.678 0 3.313-2.363 5.742-5.961 5.742Zm-14.817-.327h-1.341v-13.16c0-1.312-.953-2.394-2.61-2.394h-12.099c-1.411 0-2.364.886-2.364 2.428v3.183c0 2.297-.035 4.068-.458 5.971-.423 1.871-.953 3.019-1.729 3.97h-.6c-1.693 0-2.504.985-2.504 2.397v4.528c0 1.542 1.129 2.428 2.576 2.428 1.481 0 2.61-.887 2.61-2.428V52.57h15.909v2.166c0 1.542 1.128 2.428 2.575 2.428 1.481 0 2.609-.887 2.609-2.428v-4.528c.002-1.411-.811-2.395-2.574-2.395Zm-6.632 0h-8.572c.53-1.05.953-2.002 1.305-3.445.353-1.51.495-3.02.53-4.989l.035-2.362h6.702v10.795Z" fill="#949494"/></svg>