<svg width="300" height="120" viewBox="0 0 300 120" fill="none" xmlns="http://www.w3.org/2000/svg"><path d="M111.954 64.272H99.212c-1.464 0-2.256.935-2.256 2.07v13.556c0 1.334 1.036 2.099 2.317 2.099 1.25 0 2.256-.766 2.256-2.099V68.385h8.139v11.514c0 1.333 1.006 2.098 2.287 2.098 1.25 0 2.287-.795 2.287-2.128V66.341c-.001-1.134-.823-2.07-2.288-2.07Zm22.197 0h-.183c-1.341 0-2.226.623-3.171 1.871l-7.439 9.813v-9.587c0-1.333-.914-2.097-2.164-2.097-1.28 0-2.225.765-2.225 2.097v13.074c0 1.418.975 2.383 2.53 2.383h.213c1.434 0 2.348-.68 3.232-1.872l7.439-9.812v9.585c0 1.333.915 2.1 2.195 2.1 1.25 0 2.195-.767 2.195-2.1V66.653c0-1.474-.945-2.382-2.622-2.382Zm25.427 13.441h-1.159V66.2c0-1.333-1.036-2.1-2.317-2.1-1.25 0-2.257.767-2.257 2.1v11.513h-7.926V66.2c0-1.333-.975-2.1-2.287-2.1-1.28 0-2.285.767-2.285 2.1v13.556c0 1.134.823 2.07 2.255 2.07h13.719v1.872c0 1.333.976 2.098 2.225 2.098 1.281 0 2.256-.766 2.256-2.098v-3.886c.001-1.39-.882-2.099-2.224-2.099Zm22.893 0h-1.158V66.2c0-1.333-1.036-2.1-2.318-2.1-1.249 0-2.256.767-2.256 2.1v11.513h-7.926V66.2c0-1.333-.975-2.1-2.287-2.1-1.28 0-2.286.767-2.286 2.1v13.556c0 1.134.824 2.07 2.256 2.07h13.719v1.872c0 1.333.975 2.098 2.225 2.098 1.28 0 2.255-.766 2.255-2.098v-3.886c.002-1.39-.883-2.099-2.224-2.099Zm22.286 1.135-6.219-12.591c-.702-1.39-1.677-1.986-3.079-1.986h-.244c-1.464 0-2.439.596-3.14 1.986l-6.219 12.591c-.61 1.247-.184 2.353 1.036 2.78 1.097.397 2.195.17 2.804-1.021l1.403-2.751c1.25.398 2.804.595 4.268.595 1.554 0 2.927-.198 4.084-.595l1.342 2.723c.58 1.19 1.769 1.418 2.835 1.048 1.22-.426 1.708-1.588 1.129-2.779Zm-9.39-4.169c-.945 0-1.952-.113-2.714-.312l2.653-5.5 2.652 5.5c-.732.2-1.646.312-2.591.312Zm-77.925-25.09h-1.159V38.216c0-1.134-.823-2.07-2.255-2.07h-10.457c-1.22 0-2.043.766-2.043 2.099v2.75c0 1.986-.031 3.517-.396 5.162-.366 1.616-.824 2.608-1.494 3.43h-.518c-1.463 0-2.164.851-2.164 2.072v3.913c0 1.333.975 2.098 2.226 2.098 1.28 0 2.256-.766 2.256-2.098V53.7h13.749v1.872c0 1.333.976 2.098 2.225 2.098 1.28 0 2.256-.766 2.256-2.098V51.66c-.001-1.22-.702-2.07-2.226-2.07Zm-5.732 0h-7.408c.458-.907.823-1.73 1.128-2.977.305-1.305.427-2.61.458-4.312l.03-2.041h5.792v9.33Zm18.69-13.585c-5.457 0-9.664 3.829-9.664 8.933 0 5.161 4.207 8.933 9.664 8.933s9.664-3.913 9.664-8.99c0-5.104-4.207-8.876-9.664-8.876Zm0 13.868c-2.987 0-5.152-2.1-5.152-4.963 0-2.808 2.165-4.907 5.152-4.907 3.018 0 5.152 2.098 5.152 4.907 0 2.864-2.042 4.963-5.152 4.963Zm43.444-13.868c-5.457 0-9.664 3.829-9.664 8.933 0 5.161 4.207 8.933 9.664 8.933s9.664-3.913 9.664-8.99c0-5.104-4.207-8.876-9.664-8.876Zm0 13.868c-2.988 0-5.152-2.1-5.152-4.963 0-2.808 2.165-4.907 5.152-4.907 3.018 0 5.152 2.098 5.152 4.907 0 2.864-2.043 4.963-5.152 4.963Zm-12.806-.283h-1.158V38.216c0-1.134-.824-2.07-2.256-2.07h-10.457c-1.219 0-2.043.766-2.043 2.099v2.75c0 1.986-.03 3.517-.396 5.162-.365 1.616-.823 2.608-1.493 3.43h-.519c-1.463 0-2.164.851-2.164 2.072v3.913c0 1.333.975 2.098 2.226 2.098 1.28 0 2.255-.766 2.255-2.098V53.7h13.75v1.872c0 1.333.975 2.098 2.225 2.098 1.28 0 2.255-.766 2.255-2.098V51.66c.001-1.22-.7-2.07-2.225-2.07Zm-5.731 0h-7.408c.457-.907.823-1.73 1.128-2.977.305-1.305.427-2.61.457-4.312l.031-2.041h5.792v9.33Z" fill="#949494"/></svg>