<svg width="134" height="65" viewBox="0 0 134 65" fill="none" xmlns="http://www.w3.org/2000/svg"><g clip-path="url(#a)"><path d="M109.565 38.746c0 .386-.285.741-.688.741-.252 0-.691-.16-.691-.741V23.42c0-.578.439-.735.691-.735.406 0 .688.35.688.735v15.326Zm-5.754-.38c0 1.577.184 4.022 3.251 4.022h3.627c3.067 0 3.255-2.445 3.255-4.021V23.909c0-1.573-.188-4.017-3.255-4.017h-3.627c-3.067 0-3.251 2.444-3.251 4.017v14.458Zm24.398-18.474h5.694v22.496h-4.382V28.276h-.155l-2.255 14.112h-3.503l-2.251-14.112h-.158v14.112h-4.379V19.892h5.691l2.845 15.807 2.853-15.807ZM37.151 11.74C35.761 5.707 32.28.802 31.796 0c-.762 1.127-3.543 5.458-4.953 10.267-1.543 5.358-1.771 10.114-1.234 14.796.526 4.683 2.523 9.489 2.523 9.489 1.06 2.524 2.65 5.225 3.684 6.552 1.517-1.952 5.006-7.78 6.09-15.392.604-4.227.627-7.935-.758-13.972m-5.356 27.864c-.684-1.277-1.744-3.702-1.845-7.453-.027-3.629 1.44-6.742 1.866-7.387.382.649 1.644 3.356 1.795 7.06.1 3.626-1.11 6.48-1.815 7.78Zm4.953-17.62c-.054 2.301-.332 4.732-.684 6.182.127-2.504-.178-6.033-.759-8.79-.58-2.757-2.224-7.353-3.536-9.488-1.212 2.028-2.708 6.013-3.486 9.465-.786 3.459-.81 7.64-.81 8.89-.207-1.058-.73-4.826-.58-8.614.121-3.126.86-6.336 1.265-7.816 1.54-4.932 3.282-8.085 3.61-8.584.33.5 2.527 4.38 3.665 8.461 1.134 4.081 1.362 7.986 1.315 10.29v.004Z" fill="#3D57F2"/><path d="M34.155 42.507H23.582v7.035l.026-.034c2.49-2.468 6.53-2.468 9.02 0a6.283 6.283 0 0 1 0 8.94l-.033.033-.037.037a12.778 12.778 0 0 1-8.98 3.668c-3.248 0-6.52-1.237-9.01-3.701a12.546 12.546 0 0 1-1.56-15.98c.45-.666.967-1.291 1.56-1.88a12.759 12.759 0 0 1 9.01-3.698V20.022C11.055 20.024.895 30.099.895 42.507c0 12.41 10.16 22.49 22.687 22.49a22.707 22.707 0 0 0 16.56-7.118V42.507h-5.987Zm8.812-22.615h8.351v2.79h-3.972v19.706h-4.38V19.892Zm13.301 14.041.755-11.251h.248l.755 11.251h-1.755m-4.848 8.455h4.281l.41-5.98h2.067l.402 5.98h4.288L60.59 19.892h-6.886l-2.281 22.496Zm17.717-7.876v4.234c0 .578.436.741.684.741.41 0 .692-.352.692-.741v-5.228c0-.709-.128-1.477-1.755-1.477h-1.782v-2.474h1.842c1.252 0 1.695-.293 1.695-1.67v-4.473c0-.386-.282-.735-.692-.735-.248 0-.684.156-.684.735v3.668h-4.379v-3.18c0-1.572.188-4.017 3.252-4.017h3.63c3.067 0 3.255 2.445 3.255 4.018v3.602c0 2.44-1.661 3.113-2.973 3.05v.225c2.94-.07 2.973 2.249 2.973 3.053v4.527c0 1.576-.188 4.02-3.255 4.02h-3.63c-3.064 0-3.252-2.444-3.252-4.02v-3.855h4.379v-.003Zm8.634-14.62h10.14v22.496h-4.378V22.682h-1.38v19.706h-4.382V19.892ZM95.17 32.26v-9.578h.556c.477 0 .812.416.812 1.12v7.34c0 .706-.335 1.118-.812 1.118h-.557Zm-4.38 10.128h4.38v-7.653h2.502c3.067 0 3.258-2.441 3.258-4.018V23.91c0-1.573-.191-4.017-3.258-4.017H90.79v22.496Zm43.114 7.114H42.746V65h91.158V49.502Z" fill="#3D57F2"/><path d="M49.584 62.639h-2.406v-8.73H45.12v-2.04h6.385v2.04h-1.922v8.73ZM52.46 51.87h6.083v2.038h-3.466v2.115h3.104v2.04h-3.104v2.533h3.466v2.04H52.46V51.862v.006Zm14.09 0v10.772h-2.618v-8.73h-1.71v8.73h-2.618V51.87h6.946Zm9.23 0v10.772h-2.617v-8.73H71.44v3.705c0 4.08-.755 5.145-2.527 5.145-.56 0-.953-.12-1.406-.316V60.63c.121.06.38.09.635.09.724 0 .771-.436.771-3.765V51.87h6.872-.003Zm8.37 2.803v4.83c0 2.145-1.074 3.389-3.527 3.389-2.453 0-3.526-1.244-3.526-3.39v-4.845c0-1.696 1.073-3.03 3.54-3.03 2.466 0 3.51 1.363 3.51 3.046h.003Zm-4.436-.18v5.462c0 .645.453.961.91.961.456 0 .909-.316.909-.961v-5.461c0-.615-.47-.885-.91-.885-.44 0-.91.27-.91.885Zm5.644.856v-.659c0-1.68 1.09-3.06 3.54-3.06s3.54 1.334 3.54 3.03v4.726c0 2.461-1.134 3.509-3.54 3.509s-3.54-1.064-3.54-3.509v-.688h2.617v1.11c0 .812.393 1.111.953 1.111.56 0 .892-.316.892-1.124V58.07h-1.392v-2.04h1.392v-1.606c0-.555-.452-.811-.892-.811-.41 0-.953.269-.953.841v.901h-2.617v-.006Zm11.016.675h1.712V51.87h2.617v10.772h-2.617v-4.576h-1.712v4.576h-2.617V51.87h2.617v4.154Zm5.769-4.154h6.083v2.038h-3.466v2.115h3.103v2.04h-3.103v2.533h3.466v2.04h-6.083V51.862v.006Zm9.761 10.769h-2.617V51.866h3.798c1.513 0 3.177.539 3.177 3.286s-1.634 3.286-3.177 3.286h-1.181v4.2Zm0-6.137h.47c.651 0 1.271-.316 1.271-1.38 0-1.064-.56-1.32-1.315-1.32h-.423v2.7h-.003Zm11.758-4.632v2.038h-3.466v8.73h-2.617V51.867h6.083v.004Zm7.989 2.803v4.83c0 2.145-1.074 3.389-3.526 3.389-2.453 0-3.527-1.244-3.527-3.39v-4.845c0-1.696 1.074-3.03 3.54-3.03s3.51 1.363 3.51 3.046h.003Zm-4.436-.18v5.462c0 .645.453.961.91.961.456 0 .909-.316.909-.961v-5.461c0-.615-.47-.885-.909-.885-.44 0-.91.27-.91.885Z" fill="#fff"/></g><defs><clipPath id="a"><path fill="#fff" transform="translate(.895)" d="M0 0h133.009v65H0z"/></clipPath></defs></svg>