<svg width="300" height="120" viewBox="0 0 300 120" fill="none" xmlns="http://www.w3.org/2000/svg"><path d="M142.378 60.574c0 5.649-3.442 8.315-7.746 8.309h-2.622v-3.39h2.428c2.592 0 4.322-1.4 4.328-4.925.006-3.525-1.633-5.241-4.395-5.241-2.665 0-4.565 1.637-4.571 5.162v14.17h-3.582V52.388h3.582v1.917h.516a5.797 5.797 0 0 1 4.777-2.325c3.982.006 7.285 2.885 7.285 8.595Zm-23.547-1.491-2.392-.238c-1.876-.176-2.865-.688-2.865-1.783 0-1.303 1.269-2.052 3.077-2.052 1.809 0 3.036.895 3.169 2.161h3.448c-.133-3.214-2.622-5.204-6.58-5.204s-6.678 2.112-6.678 5.229c0 2.599 1.633 4.26 5.355 4.656l2.428.244c1.469.14 2.458.444 2.458 1.826 0 1.266-.922 2.185-3.351 2.185-2.227 0-3.326-1.016-3.709-2.38h-3.757c.37 3.11 2.974 5.527 7.442 5.527 4.195 0 6.926-2.216 6.932-5.478 0-2.916-1.906-4.383-4.977-4.693Zm37.418 4.705a3.965 3.965 0 0 1-3.813 2.27c-2.628 0-4.571-1.716-4.565-5.411 0-3.524 1.822-5.478 4.608-5.478 2.495 0 3.927 1.51 4.061 3.768h-6.453v2.599h9.962v-1.699c0-4.754-3.139-7.84-7.607-7.84-4.164 0-8.158 2.83-8.164 8.65-.006 5.82 3.988 8.662 8.152 8.662a7.326 7.326 0 0 0 4.653-1.457 7.362 7.362 0 0 0 2.717-4.058l-3.551-.006Zm-56.321-11.84c-3.922 0-6.86 2.052-7.206 5.199h3.855c.279-1.163 1.335-2.015 3.35-2.015 2.593 0 3.442 1.376 3.442 3.044v5.648a6.496 6.496 0 0 1-4.856 2.435c-1.772 0-3.005-.858-2.999-2.398.007-1.54.953-2.398 2.799-2.392h2.865V58.9h-2.974c-4.092 0-6.38 2.051-6.38 5.198 0 2.94 2.21 5.168 5.864 5.174a8.776 8.776 0 0 0 5.184-1.826h.516v1.407h3.581V57.817c-.012-4.048-2.774-5.862-7.041-5.868ZM75.603 68.835h3.582l.018-22.583h-3.6v22.583Zm15.061-16.496H86.3l-5.232 6.885v2.154l5.354 7.47h4.437l-6.27-8.56 6.076-7.949Zm129.378.104-2.944 6.537a23.146 23.146 0 0 0-1.602 4.14h-.516a23.067 23.067 0 0 0-1.633-4.085l-2.926-6.574h-3.964l6.884 14.816-3.418 7.457h3.818L224 52.466l-3.958-.024Zm-14.374 0h-4.371l-5.227 6.872v2.155l5.354 7.463h4.432l-6.271-8.547 6.083-7.943Zm-22.461 6.695-2.385-.243c-1.876-.17-2.866-.682-2.866-1.777 0-1.303 1.263-2.052 3.072-2.052 1.809 0 3.072.889 3.175 2.155h3.442c-.134-3.214-2.623-5.204-6.581-5.204s-6.677 2.112-6.677 5.228c0 2.6 1.633 4.261 5.354 4.657l2.428.243c1.463.134 2.428.445 2.428 1.827 0 1.266-.922 2.185-3.344 2.185-2.228 0-3.327-1.017-3.716-2.38h-3.727c.371 3.11 2.975 5.52 7.443 5.527 4.194 0 6.926-2.216 6.932-5.478.024-2.904-1.888-4.377-4.96-4.688h-.018Zm7.382 9.795h3.581V46.348h-3.581v22.584Zm-23.62-14.61h-.51v-1.905h-3.582v16.49h3.582v-8.62c0-2.94 1.36-4.65 4.031-4.65h2.27v-3.652h-1.311c-2.465.024-3.521.962-4.462 2.35l-.018-.013Z" fill="#949494"/></svg>