<svg width="300" height="120" viewBox="0 0 300 120" fill="none" xmlns="http://www.w3.org/2000/svg"><path d="M140.816 60.59c0 6.838-4.165 10.064-9.374 10.057h-3.174v-4.103h2.939c3.137 0 5.231-1.695 5.238-5.96.007-4.266-1.976-6.344-5.319-6.344-3.226 0-5.525 1.982-5.533 6.248v17.15h-4.334V50.683h4.334v2.32h.625A7.03 7.03 0 0 1 132 50.189c4.82.008 8.816 3.492 8.816 10.403Zm-28.498-1.804-2.895-.287c-2.27-.214-3.468-.833-3.468-2.159 0-1.577 1.536-2.483 3.725-2.483s3.673 1.083 3.835 2.616h4.173c-.161-3.89-3.174-6.3-7.964-6.3-4.79 0-8.082 2.557-8.082 6.33 0 3.145 1.977 5.156 6.48 5.635l2.939.295c1.778.17 2.976.538 2.976 2.21 0 1.532-1.117 2.645-4.056 2.645-2.696 0-4.026-1.23-4.489-2.88h-4.548c.449 3.764 3.6 6.689 9.008 6.689 5.077 0 8.383-2.682 8.39-6.631 0-3.529-2.307-5.304-6.024-5.68Zm45.286 5.695a4.802 4.802 0 0 1-1.887 2.082 4.779 4.779 0 0 1-2.727.666c-3.181 0-5.532-2.078-5.525-6.55 0-4.265 2.204-6.63 5.577-6.63 3.019 0 4.753 1.827 4.915 4.56h-7.81v3.146h12.056v-2.056c0-5.753-3.798-9.488-9.205-9.488-5.04 0-9.875 3.425-9.882 10.468-.007 7.043 4.827 10.484 9.867 10.484a8.866 8.866 0 0 0 5.631-1.763 8.908 8.908 0 0 0 3.288-4.912l-4.298-.007ZM89.439 50.15c-4.746 0-8.302 2.483-8.72 6.292h4.665c.338-1.407 1.616-2.438 4.055-2.438 3.137 0 4.166 1.665 4.166 3.683v6.837a7.866 7.866 0 0 1-5.878 2.947c-2.145 0-3.636-1.039-3.629-2.903.007-1.864 1.153-2.903 3.387-2.895h3.468v-3.11h-3.6c-4.952 0-7.722 2.484-7.722 6.292 0 3.559 2.674 6.255 7.097 6.263a10.62 10.62 0 0 0 6.275-2.21h.624v1.701h4.335V57.254c-.015-4.9-3.358-7.095-8.523-7.102ZM60 70.589h4.335l.022-27.332H60v27.332Zm18.228-19.965h-5.283l-6.333 8.332v2.608l6.48 9.04h5.37l-7.588-10.358 7.354-9.622Zm156.585.125-3.563 7.913a28.073 28.073 0 0 0-1.94 5.01h-.624a27.895 27.895 0 0 0-1.977-4.944l-3.541-7.957h-4.797l8.331 17.932-4.136 9.025h4.621l12.416-26.95-4.79-.029Zm-17.397 0h-5.29l-6.326 8.318v2.608l6.48 9.032h5.363l-7.589-10.344 7.362-9.614Zm-27.184 8.104-2.887-.294c-2.271-.207-3.468-.826-3.468-2.152 0-1.576 1.528-2.482 3.717-2.482 2.19 0 3.718 1.075 3.843 2.608h4.165c-.161-3.89-3.173-6.3-7.964-6.3-4.79 0-8.081 2.557-8.081 6.329 0 3.146 1.976 5.157 6.48 5.636l2.939.295c1.77.162 2.938.537 2.938 2.21 0 1.532-1.116 2.645-4.048 2.645-2.696 0-4.026-1.23-4.496-2.881h-4.511c.448 3.765 3.6 6.682 9.007 6.69 5.077 0 8.383-2.682 8.39-6.631.03-3.514-2.285-5.297-6.002-5.673h-.022Zm8.934 11.854h4.334V43.374h-4.334v27.332Zm-28.587-17.681h-.617V50.72h-4.335v19.958h4.335V60.245c0-3.559 1.645-5.629 4.878-5.629h2.748v-4.42h-1.587c-2.983.03-4.261 1.164-5.4 2.843l-.022-.014Z" fill="#949494"/></svg>