<svg width="300" height="120" viewBox="0 0 300 120" fill="none" xmlns="http://www.w3.org/2000/svg"><path d="m175.391 72.892 9.884-9.836V71.7h3.978V53.902l-9.854 9.897v-8.312h-3.993l-.015 17.405Zm-8.461-13.696h5.386l.882-3.709h-10.307v16.214h4.039V59.196Zm-15.476-.03h6.065l.859-3.679h-10.917v16.214h10.947v-3.867h-6.954v-2.647h5.221l.874-3.7h-6.095v-2.322Zm49.244-3.967c1.567 0 3.044.433 4.302 1.176l-1.914 3.314a4.458 4.458 0 0 0-2.373-.668 4.565 4.565 0 0 0-4.581 4.566 4.574 4.574 0 0 0 4.581 4.565c.874 0 1.688-.243 2.373-.667L205 70.799a8.432 8.432 0 0 1-4.302 1.175c-4.649 0-8.401-3.754-8.401-8.38.008-4.633 3.76-8.395 8.401-8.395Zm-64.945 4.058h3.353V71.7h3.993V55.495h-11.023l-.784 9.95c-.045.402-.15 2.305-.437 2.677-.165.22-.399.379-.678.447-.188.046-.384.03-.572.03h-.271l-.219 2.655a4.07 4.07 0 0 0 1.688.447h.633-.174l.053-.007h.045a4.097 4.097 0 0 0 3.006-1.585c.814-1.062.837-2.1.935-3.428l.452-7.424ZM95 71.587h28.291l-14.142-24.48L95 71.587Z" fill="#949494"/></svg>