<svg width="300" height="120" viewBox="0 0 300 120" fill="none" xmlns="http://www.w3.org/2000/svg"><path d="M212.93 65.722c-.036.292-.145 1.06-1.14 1.16h-8.74c-.995-.1-1.176-.868-1.214-1.16V52.14c.037-.293.175-.916 1.17-1.016h8.788c.995.1 1.1.723 1.136 1.016v13.58Zm3.027-19.713h-17.146c-2.577.209-4.753 1.524-5.043 4.467v16.813c.29 2.943 2.466 4.502 5.043 4.711h17.146c2.576-.21 4.751-1.768 5.043-4.71V50.475c-.292-2.943-2.467-4.258-5.043-4.468Zm-69.391 5.116h-7.665v-5.117H162.3v5.117h-7.665V72h-8.069V51.125Zm-10.086 0v-5.117h-20.979V72l21.258-.006.008-5.11h-13.176l.001-5.568h12.888v-5.104h-12.888v-5.087h12.888Zm46.799 4.029c0 .563-.139 1.056-1.142 1.056h-9.348v-5.102h9.36c1.138 0 1.13.75 1.13 1.218v2.828Zm2.235 6.742c2.517-.203 5.026-1.928 5.026-4.76v-6.417c-.292-2.929-2.475-4.51-5.062-4.719H164.72l.001 26h8.068V61.896h3.212L181.245 72h9.279l-6.245-10.104h1.235ZM98.8 72l5.406-16.326V72h8.068V46.008h-10.892l-5.245 12.996-5.245-12.995H80V72h8.069V55.674L93.515 72H98.8Z" fill="#949494"/></svg>