<svg width="300" height="120" viewBox="0 0 300 120" fill="none" xmlns="http://www.w3.org/2000/svg"><path d="M106.343 48.238h12.386l.423 12.622h.121l5.135-12.622h12.386l-4.471 23.13h-7.431l3.443-18.196h-.181l-7.794 18.196h-6.948l-.664-18.196h-.242l-3.444 18.196h-7.129l4.41-23.13Zm37.882 23.517.664-3.716h-1.51c-5.74 0-7.794-3.46-7.794-6.856 0-5.062 3.867-11.02 11.479-11.02h1.329l.665-3.46h8.277l-.664 3.46H158c3.081 0 7.975.769 7.975 6.92 0 5.381-3.625 11.02-11.117 11.02h-1.631l-.665 3.716h-8.337v-.064Zm3.444-16.338h-.484c-2.235 0-3.685 2.498-3.685 4.677 0 1.345.785 2.69 2.296 2.69h.483l1.39-7.367Zm6.222 7.368h.484c2.356 0 3.625-2.691 3.625-4.741 0-1.474-.786-2.627-2.296-2.627h-.483l-1.33 7.368Zm36.976-14.547-1.329 6.856h-7.371l-3.081 16.274h-8.337l3.081-16.274h-7.371l1.329-6.856h23.079Zm10.211 0-2.537 13.199h.12l8.036-13.199h9.728l-4.412 23.13h-8.337l2.477-12.942h-.121l-7.975 12.942h-9.787l4.471-23.13h8.337Zm21.87 31.842 1.148-6.535 11.721 3.716-12.869 2.82Z" fill="#949494"/><path d="M220.169 75.021H99.455c-2.235 0-3.202 2.627-4.108 5.19-.302.897-.846 2.242-1.209 2.82-.725-.77-1.208-4.358-1.45-5.767l-.12-.77a636.857 636.857 0 0 1-1.994-14.992c-2.719-21.72-4.048-29.344-7.854-29.408C77.947 32.03 76.255 41 71.18 67.59l-.665 3.46c-.725 3.972-2.477 3.972-3.202 3.972h-2.296l-.543 3.396h2.84c1.872 0 5.256-.897 6.343-6.727l.665-3.46c3.08-16.402 6.041-31.907 8.096-32.676 1.812 2.05 3.564 16.017 4.893 26.397a599.484 599.484 0 0 0 1.994 15.056l.12.77c.545 3.908 1.27 8.841 4.713 8.841 2.236 0 3.203-2.627 4.109-5.19.362-.96.967-2.563 1.329-3.011h119.928l.665-3.396Z" fill="#949494"/><path d="m102.235 81.749.363 2.178.966-2.178h1.088l-.544 3.396h-.725l.423-2.627-1.208 2.627h-.484l-.362-2.627-.423 2.627h-.604l.543-3.396h.967Zm5.014.254c.181.192.422.577.422 1.153 0 .513-.181 1.09-.422 1.41-.182.192-.544.64-1.269.64-.363 0-.665-.064-.906-.384-.242-.256-.363-.64-.363-1.089 0-.449.06-1.09.544-1.602.302-.32.664-.448 1.087-.448.302 0 .604.064.907.32Zm-1.571 2.306c.121.193.241.257.423.257.181 0 .302-.064.483-.257.242-.32.302-.897.302-1.28 0-.129 0-.385-.121-.513-.06-.129-.181-.257-.423-.257a.54.54 0 0 0-.483.257c-.242.32-.302.896-.302 1.281 0 .192.06.384.121.513Zm4.41-1.279c0-.128 0-.32-.121-.448-.12-.192-.241-.256-.423-.256-.302 0-.483.192-.543.448-.182.32-.242.833-.242 1.153 0 .129 0 .385.121.513.06.128.242.192.362.192.242 0 .544-.128.665-.705l.665.129c-.061.192-.121.384-.242.512-.302.449-.665.64-1.088.64-.483 0-.845-.255-.966-.512a1.631 1.631 0 0 1-.302-.96c0-.513.181-1.09.423-1.41.241-.385.664-.577 1.147-.577.423 0 .726.192.846.32.182.193.302.577.302.897l-.604.065Zm2.117-1.28-.181 1.345h.241c.242 0 .363-.064.665-.64.121-.32.242-.513.362-.641.121-.064.182-.128.242-.128h.604c-.121.064-.181.128-.362.448-.182.32-.182.32-.302.577-.121.256-.242.32-.302.384-.061.064-.182.129-.242.129a.925.925 0 0 1 .362.256c.061.128.121.256.121.384.061.192.061.32.061.449.06.384.181.576.241.704h-.664c-.061 0-.182-.064-.242-.32-.06-.128-.06-.32-.121-.64 0-.193-.06-.385-.121-.45a.447.447 0 0 0-.302-.127h-.302l-.241 1.473h-.725l.543-3.395h.665m4.35.445c.181.192.483.577.483 1.153 0 .513-.181 1.09-.423 1.41-.181.192-.544.64-1.269.64-.362 0-.664-.064-.906-.384-.242-.256-.362-.64-.362-1.09 0-.448.06-1.088.543-1.601.302-.32.665-.448 1.088-.448.242 0 .544.064.846.32Zm-1.571 2.306c.121.193.242.257.423.257s.302-.064.483-.257c.242-.32.302-.897.302-1.281 0-.128 0-.384-.121-.513-.06-.128-.181-.256-.423-.256a.54.54 0 0 0-.483.257c-.242.32-.302.896-.302 1.28 0 .193.06.385.121.513Zm4.105-2.56c.241 0 .423.064.604.128.181.128.362.32.362.705 0 .256-.12.449-.241.577a.965.965 0 0 1-.423.256c.121.064.241.064.302.192.181.128.242.385.242.577 0 .256-.121.512-.242.704-.242.257-.604.32-.906.32h-1.571l.543-3.395h1.33v-.064Zm-1.027 2.82h.604c.181 0 .302 0 .423-.13a.507.507 0 0 0 .121-.32c0-.192-.061-.256-.121-.32-.121-.064-.242-.064-.363-.064h-.544l-.12.833Zm.181-1.474h.544c.12 0 .302 0 .423-.129.06-.064.12-.128.12-.256 0-.256-.181-.32-.423-.32h-.543l-.121.705Zm4.232-.065c0-.128 0-.32-.121-.448-.121-.192-.242-.256-.423-.256-.302 0-.423.192-.544.448-.181.32-.242.833-.242 1.153 0 .129 0 .385.121.513.061.128.242.192.363.192.241 0 .544-.128.664-.705l.665.129c-.06.192-.121.384-.242.512-.302.449-.664.64-1.087.64-.484 0-.846-.255-.967-.512a1.638 1.638 0 0 1-.302-.96c0-.513.181-1.09.423-1.41.242-.385.665-.577 1.148-.577.423 0 .725.192.846.32.181.193.302.577.302.897l-.604.065Zm2.113-1.28-.181 1.345h.242c.241 0 .362-.064.664-.64.121-.32.242-.513.363-.641.121-.064.181-.128.242-.128h.604c-.121.064-.182.128-.363.448s-.181.32-.302.577c-.121.256-.242.32-.302.384s-.181.129-.242.129c.182.063.302.192.363.256.06.128.121.256.121.384.06.192.06.32.06.449.061.384.181.576.242.704h-.786c-.06 0-.181-.064-.241-.32-.061-.128-.061-.32-.121-.64 0-.193-.061-.385-.121-.45a.447.447 0 0 0-.302-.127h-.302l-.242 1.473h-.725l.544-3.395h.785m3.081.189-.302 1.794c0 .064-.06.256-.06.32.121-.192.121-.256.181-.256l1.208-1.602.061-.256h.725l-.544 3.395h-.725l.302-1.858c0-.128.061-.192.061-.32-.061.064-.121.192-.182.256l-1.208 1.602-.06.256h-.725l.543-3.395h.725m3.205.065-.302 1.794c0 .064-.061.256-.061.32.121-.192.121-.256.182-.256l1.208-1.602.06-.256h.726l-.544 3.396h-.725l.302-1.858c0-.128.06-.192.06-.32-.06.063-.121.192-.181.256l-1.208 1.601-.061.257h-.785l.544-3.396h.785v.064Zm.242-.833c0 .064 0 .128.06.192s.121.064.242.064c.06 0 .181 0 .241-.064.061-.064.121-.128.121-.192h.544c-.06.256-.181.384-.302.513a1.166 1.166 0 0 1-.665.192c-.181 0-.483-.064-.604-.192-.121-.064-.181-.257-.181-.449h.544v-.064Zm5.253.768-.06.384c.362 0 .785.128.966.449.182.256.182.512.182.768 0 .193 0 .77-.484 1.154-.241.256-.664.384-1.148.384l-.06.448h-.725l.06-.448c-.423 0-.725-.128-.906-.32-.181-.192-.302-.449-.302-.833 0-.385.121-.897.664-1.218.242-.192.544-.256.967-.256l.061-.384h.785v-.128Zm-.846.96c-.181 0-.423.129-.604.257-.181.192-.242.448-.242.705 0 .256.061.384.182.448.12.128.302.192.422.192l.242-1.601Zm.423 1.538c.302 0 .483-.064.665-.32.121-.192.181-.384.181-.64 0-.321-.121-.513-.242-.577-.06-.064-.241-.064-.362-.064l-.242 1.601Zm3.083-2.434-.302 1.794c0 .064-.061.256-.061.32.121-.192.121-.256.182-.256l1.208-1.602.06-.256h.725l-.543 3.395h-.725l.302-1.858c0-.128.06-.192.06-.32-.06.064-.121.192-.181.256l-1.208 1.602-.061.256h-.725l.544-3.395h.725m2.117 1.027c.06-.192.181-.512.483-.705.182-.128.484-.256.907-.256.362 0 .543.064.725.192a.722.722 0 0 1 .362.64.837.837 0 0 1-.241.578c-.061.064-.182.192-.423.256.12 0 .241.128.362.192a.75.75 0 0 1 .181.449c0 .32-.12.704-.483.897-.302.192-.665.192-.906.192-.302 0-.665-.064-.907-.32-.12-.193-.241-.385-.241-.641l.664-.128c.061.128.121.256.121.32a.664.664 0 0 0 .484.192c.302 0 .423-.128.483-.128.121-.128.181-.256.181-.32a.502.502 0 0 0-.121-.32c-.12-.129-.302-.129-.423-.129h-.362l.06-.576h.363c.121 0 .302-.064.423-.129a.507.507 0 0 0 .121-.32c0-.128-.061-.192-.121-.256-.121-.064-.181-.064-.302-.064-.182 0-.302 0-.484.128-.06.064-.181.192-.241.384l-.665-.128Zm3.923-.963-.302 1.794c0 .064-.06.256-.06.32.121-.192.121-.256.181-.256l1.208-1.602.061-.256h.725l-.544 3.395h-.725l.302-1.858c0-.128.06-.192.06-.32-.06.064-.12.192-.181.256l-1.208 1.602-.061.256h-.725l.544-3.395h.725m3.202.067-.181 1.345h.242c.241 0 .362-.064.664-.64.121-.32.242-.513.363-.641.121-.064.181-.128.241-.128h.605c-.121.064-.182.128-.363.448s-.181.32-.302.577c-.121.256-.242.32-.302.384s-.181.129-.242.129c.182.063.302.192.363.256.06.128.121.256.121.384.06.192.06.32.06.449.06.384.181.576.242.704h-.665c-.06 0-.181-.064-.242-.32-.06-.128-.06-.32-.12-.64 0-.193-.061-.385-.121-.45a.449.449 0 0 0-.302-.127h-.302l-.242 1.473h-.725l.544-3.395h.664m4.35.445c.181.192.483.577.483 1.153 0 .513-.181 1.09-.423 1.41-.181.192-.544.64-1.269.64-.362 0-.664-.064-.906-.384-.241-.256-.362-.64-.362-1.09 0-.448.06-1.088.543-1.601.303-.32.665-.448 1.088-.448.242 0 .544.064.846.32Zm-1.571 2.306c.121.193.242.257.423.257s.302-.064.483-.257c.242-.32.302-.897.302-1.281 0-.128 0-.384-.121-.513a.432.432 0 0 0-.422-.256.54.54 0 0 0-.484.257c-.241.32-.302.896-.302 1.28 0 .193.061.385.121.513Zm3.265-.765h-1.088l-.121.577h1.148l.061-.577Zm2.538-1.795-.061.64h-.785l-.423 2.756h-.725l.423-2.755h-.785l.12-.641h2.236Zm2.477.641h-1.511l-.121.705h1.209l-.061.576h-1.208l-.121.833h1.511l-.121.64h-2.236l.544-3.395h2.236l-.121.64Zm1.873.96.786 1.795h-.846l-.483-1.218-.907 1.218h-.725l1.329-1.73-.724-1.666h.906l.362 1.09.786-1.09h.664l-1.148 1.602Zm2.417-1.601-.242 1.346h1.088l.181-1.346h.725l-.483 3.396h-.786l.242-1.41h-1.088l-.181 1.41h-.785l.543-3.396h.786Zm3.138-.002-.302 1.794c0 .064-.06.256-.06.32.121-.192.121-.256.181-.256l1.209-1.602.06-.256h.725l-.544 3.395h-.725l.302-1.858c0-.128.061-.192.061-.32-.061.064-.121.192-.182.256l-1.208 1.602-.06.256h-.725l.543-3.395h.725m3.083.064-.121.897v.192c0 .064 0 .128.06.192.061.128.242.128.363.128s.362 0 .483-.064l.242-1.41h.725l-.544 3.396h-.725l.242-1.41c-.182 0-.423.065-.665.065-.181 0-.544 0-.725-.192-.121-.064-.181-.257-.181-.577 0-.128 0-.256.06-.384l.121-.897h.665m4.532.707h-1.51l-.121.705h1.208l-.06.576h-1.209l-.121.833h1.511l-.121.64h-2.235l.483-3.395h2.296l-.121.64Zm2.234.64c0-.128 0-.32-.121-.448-.12-.192-.241-.256-.422-.256-.303 0-.423.192-.544.448-.181.32-.242.833-.242 1.153 0 .129 0 .385.121.513.06.128.242.192.362.192.242 0 .544-.128.665-.705l.665.129c-.061.192-.121.384-.242.512-.302.449-.665.64-1.088.64-.483 0-.845-.255-.966-.512a1.631 1.631 0 0 1-.302-.96c0-.513.181-1.09.423-1.41.241-.385.664-.577 1.148-.577.422 0 .725.192.845.32.182.193.302.577.302.897l-.604.065Zm2.117-1.28-.242 1.345h.242c.242 0 .362-.064.665-.64.12-.32.241-.513.362-.641.121-.064.181-.128.242-.128h.604c-.121.064-.181.128-.363.448-.181.32-.181.32-.302.577-.121.256-.241.32-.302.384-.06.064-.181.129-.241.129a.925.925 0 0 1 .362.256c.06.128.121.256.121.384.06.192.06.32.06.449.061.384.182.576.242.704h-.665c-.06 0-.181-.064-.241-.32-.061-.128-.061-.32-.121-.64 0-.193-.061-.385-.121-.45a.447.447 0 0 0-.302-.127h-.302l-.242 1.473h-.725l.544-3.395h.725m3.081.189-.302 1.794c0 .064-.061.256-.061.32.121-.192.121-.256.181-.256l1.209-1.602.06-.256h.725l-.544 3.395h-.725l.302-1.858c0-.128.061-.192.061-.32-.061.064-.121.192-.181.256l-1.209 1.602-.06.256h-.725l.544-3.395h.725m3.201.065-.302 1.794c0 .064-.06.256-.06.32.121-.192.121-.256.181-.256l1.208-1.602.061-.256h.725l-.544 3.396h-.725l.302-1.858c0-.128.061-.192.061-.32-.061.063-.121.192-.182.256l-1.208 1.601-.06.257h-.725l.543-3.396h.725v.064Zm.242-.833c0 .064 0 .128.061.192.06.064.12.064.241.064.061 0 .181 0 .242-.064.06-.064.121-.128.121-.192h.604c-.061.256-.181.384-.302.513a1.169 1.169 0 0 1-.665.192c-.181 0-.483-.064-.604-.192-.121-.064-.181-.257-.181-.449h.483v-.064Zm3.987.832-.302 1.794c0 .064-.06.256-.06.32.121-.192.121-.256.181-.256l1.209-1.602.06-.256h.725l-.544 3.395h-.725l.302-1.858c0-.128.061-.192.061-.32-.061.064-.121.192-.181.256l-1.209 1.602-.06.256h-.725l.543-3.395h.725m3.202.066-.181 1.346h1.027l.242-1.346h.725l-.544 3.396h-.725l.242-1.41h-1.088l-.181 1.41h-.786l.544-3.396h.725Zm4.109 1.281c0-.128 0-.32-.121-.448-.121-.192-.242-.256-.423-.256-.302 0-.484.192-.544.448-.181.32-.242.833-.242 1.153 0 .129 0 .385.121.513.061.128.242.192.363.192.241 0 .543-.128.664-.705l.665.129c-.061.192-.121.384-.242.512-.302.449-.664.64-1.087.64-.544 0-.846-.255-.967-.512a1.638 1.638 0 0 1-.302-.96c0-.513.181-1.09.423-1.41.242-.385.664-.577 1.148-.577.423 0 .725.192.846.32.181.193.302.577.302.897l-.604.065Zm3.325-1.281-.121.64h-.786l-.422 2.756h-.725l.423-2.755h-.786l.121-.641h2.296Zm1.027-.002-.302 1.794c0 .064-.06.256-.06.32.12-.192.12-.256.181-.256l1.208-1.602.061-.256h.725l-.544 3.395h-.725l.302-1.858c0-.128.06-.192.06-.32-.06.064-.12.192-.181.256l-1.208 1.602-.061.256h-.725l.544-3.395h.725m4.407.066-.12.64h-.725l-.423 2.756h-.786l.423-2.755h-.725l.061-.641h2.295Zm.789-.002.484 1.602.845-1.602h.665l-1.329 2.434c-.242.513-.423.641-.484.705a1.116 1.116 0 0 1-.725.256c-.12 0-.302 0-.362-.064l.121-.576a.624.624 0 0 0 .302.064c.121 0 .242 0 .362-.128a.882.882 0 0 0 .182-.257l-.786-2.498h.725" fill="#949494"/><path d="m210.322 81.749-.121.64h-.725l-.423 2.756h-.785l.423-2.755h-.725l.06-.641h2.296Z" fill="#949494"/></svg>