<svg width="300" height="120" viewBox="0 0 300 120" fill="none" xmlns="http://www.w3.org/2000/svg"><path d="M159.211 47.755h2.999v13.459h-2.775V52.43l-3.581 5.745h-.067l-3.537-5.697v8.735h-2.731V47.755h3l3.335 5.697 3.357-5.697Zm7.341 13.435h2.798V50.414h6.066v-2.682h-8.864V61.19Zm12.109 0h2.798V50.414h4.991V61.19h2.798V47.732h-10.587V61.19Zm14.885 0h2.797V50.414h4.992V61.19h2.797V47.732h-10.586V61.19Zm23.344-13.434-3.066 7.12-3.447-7.12h-3.111l5.081 10.063c-.515.831-1.097 1.069-1.589 1.069a2.622 2.622 0 0 1-1.5-.451l-1.097 2.16c.807.474 1.657.783 2.732.783 1.767 0 3.043-.926 4.14-3.276l4.879-10.396h-3.022v.047Z" fill="#949494"/><path d="M114.631 85.627h-.261l-.19.19-6.373 6.369V72.069h13.648v13.558h-6.824Zm-6.824-13.776V57.115h13.648v14.736h-13.648Zm14.101 0V57.115h12.786v14.736h-12.786Zm-.023.219h12.786v6.778c0 2.115-.64 3.796-1.722 4.946-1.082 1.15-2.667 1.834-4.671 1.834h-6.393V72.069Zm-14.078-15.279v-14.63h13.648v14.63h-13.648Zm14.101 0v-14.63h12.786v14.63h-12.786Zm0-14.955V27.209h12.786v14.627h-12.786Zm-14.101 0V30.79l3.346-3.582h10.302v14.627h-13.648Z" stroke="#949494"/><path d="M103.613 26.51H78.947v52.338c0 4.534 2.776 7.477 7.05 7.477H100.1l7.05 7.477V30.237l-3.536-3.726Z" fill="#949494"/><path d="M94.549 35.056v16.52h-.023c-1.925 0-3.491-1.661-3.491-3.702v-16.52h.022c1.925 0 3.492 1.661 3.492 3.702Zm5.416-2.943c-1.925 0-3.491 1.662-3.491 3.703v8.236h.022c1.903 0 3.47-1.638 3.492-3.655v-8.284c0 .024 0 0-.023 0Zm-14.347 0h-.022v8.284c.022 2.017 1.566 3.655 3.491 3.655h.023v-8.236c0-2.041-1.567-3.703-3.492-3.703Z" fill="#1F2022"/></svg>