<svg width="300" height="120" viewBox="0 0 300 120" fill="none" xmlns="http://www.w3.org/2000/svg"><path d="M163.516 16.866c0 .07.115.218.255.322.312.236.731.837.731 1.046 0 .148-.025.148-.345.043a31.12 31.12 0 0 1-1.544-.6c-1.709-.698-1.791-.706-4.313-.55-2.506.157-2.711.2-2.399.47.189.166 2.768 1.064 4.083 1.42 1.963.532 1.98.55.6.637-.534.026-1.003.096-1.052.148-.057.06 0 .165.189.34.452.4 2.473 1.55 3.541 2.003 1.166.506 4.082 1.551 4.542 1.62.625.114.469.245-.386.34-.862.096-1.355.227-1.355.349 0 .122 1.15 1.045 1.643 1.307.156.087.501.34.78.557.271.218 1.101.784 1.849 1.237 1.988 1.237 2.546 1.577 2.867 1.795.493.322 2.152 1.158 2.776 1.394.329.122.575.252.559.287-.041.07-.896.235-1.438.279-.46.044-.41.261.329 1.437.813 1.298 2.16 2.867 3.976 4.635.756.74 1.602 1.62 1.881 1.96l.501.619-.46.026-.468.026-.049.566c-.181 1.769.534 5.096 2.02 9.374.625 1.803.674 2.038.387 1.951-.699-.209-.978-.253-1.06-.165-.14.148-.181 1.838-.09 3.075.057.732.197 1.55.418 2.483.428 1.838.748 3.58.806 4.46.041.645.032.723-.091.723-.098 0-.213-.174-.353-.523-.123-.287-.255-.514-.304-.496-.049.017-.173.279-.279.592-.428 1.298-1.06 2.448-2.227 4.086a107.7 107.7 0 0 1-1.355 1.873l-.214.261.025-5.296c.008-4.034-.008-5.288-.082-5.288-.058 0-.123-.183-.148-.419-.09-.697-.329-1.611-.427-1.646-.164-.06-.279.305-.362 1.124-.041.435-.115.845-.172.915-.222.287-.271-.088-.321-2.527-.024-1.542-.082-2.544-.139-2.7-.058-.131-.132-.506-.181-.828-.164-1.115-.255-1.498-.37-1.498-.131 0-.18.2-.254 1.045-.058.697-.164 1.106-.263 1.01-.025-.034-.074-.679-.099-1.428l-.041-1.368h-.493v-1.568h-.575l-.575.009v1.559l-.287.044c-.271.043-.288.07-.345.435-.025.218-.058.802-.058 1.307-.008.505-.049.976-.09 1.045-.041.07-.082.114-.082.087-.239-2.125-.247-2.16-.395-2.055-.156.095-.345 2.352-.419 4.86-.041 1.42-.098 2.623-.131 2.684-.115.2-.271-.096-.329-.636-.073-.82-.123-1.02-.246-1.02-.131 0-.197.27-.214.828-.016.627-.09.863-.304.898-.23.034-.304-.166-.435-1.15-.148-1.116-.32-1.229-.452-.27-.082.618-.181.287-.189-.628-.008-.592-.033-.74-.164-.87-.099-.105-.172-.306-.189-.55l-.025-.392-.427-.026-.435-.026v.41c0 .27-.049.47-.14.583-.107.122-.156.357-.181.897-.024.785-.115.95-.205.375-.074-.496-.23-.392-.353.253a4.347 4.347 0 0 1-.28.897c-.18.383-.312 1.464-.32 2.622v.593h-3.45c-1.898 0-3.45-.027-3.459-.07 0-.035-.032-.505-.065-1.054-.058-.976-.066-1.002-.321-1.229-.18-.157-.263-.304-.263-.47 0-.253-.205-.75-.32-.75-.131 0-.345.332-.427.663a1.625 1.625 0 0 1-.296.575c-.189.209-.213.322-.263 1.237-.024.549-.074 1.02-.107 1.054-.024.035-.345.078-.706.104l-.649.053-.049-.288c-.082-.418-.058-9.74.024-10.192.033-.218.099-.54.124-.723.049-.262.032-.349-.074-.436-.165-.122-.288-.636-.296-1.159 0-.357-.181-.653-.288-.479-.024.053-.082.392-.123.767-.041.374-.098.75-.123.827-.107.297-.205.157-.205-.278 0-.41-.009-.436-.263-.505-.255-.07-.28-.114-.46-.81a21.282 21.282 0 0 1-.304-1.5c-.132-.862-.337-1.323-.583-1.323-.239 0-.584.792-.649 1.507-.05.523-.132.923-.272 1.324-.098.261-.164-1.612-.172-4.826-.008-2.448-.041-3.485-.123-4.008a17.148 17.148 0 0 1-.173-1.376c-.09-1.15-.328-.923-.435.4-.066.907-.214 1.09-.304.384a3.281 3.281 0 0 0-.263-.88c-.189-.4-.197-.523-.238-2.483-.025-1.132-.082-2.212-.123-2.395-.099-.392-.296-.427-.411-.061-.05.14-.115.261-.156.261-.033 0-.124-.174-.206-.392-.123-.349-.123-.47-.041-.993.123-.714.025-1.159-.312-1.385a1.14 1.14 0 0 1-.279-.236c-.107-.148-.074-.653.066-1.175.123-.488.123-.497-.066-.802-.156-.235-.222-.523-.304-1.255-.132-1.245-.247-3.44-.255-4.913v-1.176l.247-.244c.189-.191.246-.322.246-.584 0-.4-.263-.801-.419-.635-.082.087-.074.13.008.243.173.218.033.253-.172.035l-.189-.2-.115.192c-.066.104-.173.191-.238.191-.107 0-.107-.026-.025-.13a.31.31 0 0 0 .041-.28c-.049-.139-.066-.139-.214.053-.246.322-.213.845.091 1.141l.246.244-.008 1.603c-.008 1.786-.09 3.345-.238 4.643-.082.671-.148.924-.288 1.107-.18.226-.18.253-.074.784.189.932.165 1.098-.23 1.472l-.336.34.049.836c.041.628.024.906-.066 1.133-.123.322-.287.392-.287.122 0-.096-.058-.175-.132-.175-.263 0-.361.558-.443 2.5-.091 2.153-.107 2.257-.378 2.797-.107.218-.198.54-.198.723 0 .654-.156.331-.213-.444-.091-1.255-.255-1.15-.403.235-.057.488-.148.958-.205 1.037-.09.113-.107.897-.09 4.199.008 2.239 0 4.138-.033 4.216-.05.13-.082.122-.255-.096-.172-.217-.197-.34-.197-.932 0-.583-.041-.775-.247-1.237-.131-.296-.271-.54-.32-.54-.041 0-.197.21-.345.453-.263.427-.279.505-.279 1.21 0 .707-.017.776-.214.968-.131.13-.23.348-.271.584-.09.61-.164.705-.476.61-.354-.105-.419-.01-.296.47.074.322.074.435 0 .514-.173.183-.279-.053-.394-.854-.058-.41-.124-.775-.157-.801-.09-.105-.188.182-.279.836-.049.366-.156.732-.23.819-.123.148-.115.2.049.784.165.618.173.775.173 5.297 0 2.56-.025 4.808-.049 4.983l-.058.33h-.583c-.32 0-.624-.034-.674-.07-.057-.034-.106-.409-.131-.896-.033-.802-.041-.854-.296-1.16-.148-.173-.263-.391-.263-.487 0-.383-.304-.775-.501-.653-.041.026-.123.252-.197.505-.066.253-.205.514-.296.592-.139.114-.18.288-.254 1.098l-.091.958-1.158.053c-.641.034-2.202.06-3.483.06h-2.317l-.082-.226c-.049-.122-.082-.688-.082-1.263 0-.906-.025-1.107-.205-1.577-.115-.296-.206-.584-.206-.645 0-.06-.041-.217-.09-.357-.107-.296-.189-.174-.279.384-.033.209-.091.374-.132.374-.099 0-.09-.81 0-1.254.099-.445.041-.575-.255-.575h-.246l.033-.506.024-.496-.435-.026-.444-.026.017.33c.033.698.008.81-.164.81-.148 0-.165.062-.165.602 0 1.054-.172 1.525-.279.75-.057-.367-.164-.558-.271-.445-.049.052-.14.479-.271 1.315-.123.732-.148.802-.321.854-.271.07-.32-.052-.377-.906-.033-.462-.091-.897-.132-.958-.14-.244-.255.078-.296.827-.049.706-.18 1.133-.32.985-.033-.035-.09-1.246-.123-2.7-.033-1.473-.099-2.806-.156-3.024-.05-.209-.115-.74-.148-1.176-.05-.723-.074-.784-.238-.81-.214-.035-.239.052-.304 1.054-.05.67-.148 1.037-.239.871-.024-.035-.073-.6-.106-1.245-.058-1.255-.124-1.569-.313-1.569-.18 0-.221-.243-.164-.88l.049-.583-.558-.035c-.312-.026-.616-.009-.674.044-.074.06-.09.26-.049.749.049.636.041.662-.14.75-.246.112-.295.356-.32 1.567-.008.523-.041 1.037-.082 1.133-.041.095-.074.156-.074.13a19.36 19.36 0 0 1-.123-.906c-.132-.932-.271-1.21-.526-1.045-.107.078-.156.279-.197.871-.066.923-.222 4.47-.247 5.828-.016.758-.049.958-.139.958-.157 0-.239-.357-.304-1.289-.041-.54-.091-.784-.173-.819-.066-.026-.131-.026-.156 0-.025.026-.107.48-.189 1.002-.082.531-.181 1.02-.23 1.08-.057.079-.066 1.481-.016 4.47.065 4.433.032 6.524-.107 6.437-.148-.104-1.988-2.605-2.514-3.423-.567-.88-1.207-2.248-1.462-3.084-.214-.723-.296-.68-.731.418-.123.305-.148.33-.206.174-.213-.54-.024-2.056.51-4.138.509-1.986.567-2.387.616-4.277.049-2.022.008-2.605-.206-2.605-.074 0-.328.087-.566.191-.304.131-.46.166-.526.096-.058-.06.057-.496.386-1.428 1.495-4.313 2.103-6.909 2.119-9.104.009-1.577-.016-1.62-.829-1.376-.584.174.189-.767 2.398-2.928a47.67 47.67 0 0 0 2.292-2.421c.929-1.08 2.432-3.171 2.432-3.39 0-.051-.099-.121-.222-.147a54.485 54.485 0 0 0-1.873-.314c-.024 0-.041-.035-.041-.078 0-.044.263-.175.583-.279 1.241-.418 3.434-1.69 6.778-3.929 1.577-1.063 3.409-2.422 3.458-2.579.082-.217-.107-.278-1.092-.374-1.077-.105-1.455-.279-.863-.384.493-.087 2.818-.88 3.582-1.22 2.407-1.062 4.887-2.508 4.887-2.83 0-.157-.057-.175-.525-.175-.789 0-1.536-.104-1.504-.2.017-.052.321-.166.682-.244 1.06-.244 4.568-1.577 4.929-1.864.132-.105.14-.14.041-.21-.189-.13-1.84-.208-3.507-.156-1.676.043-2.268.157-3.393.662-.723.331-1.43.627-1.52.645-.049.008-.099-.053-.115-.14-.016-.096.156-.33.509-.688.296-.296.543-.575.543-.61 0-.035-.083-.07-.181-.07-.197 0-2.859.907-3.188 1.09-.566.304-3.088 2.822-3.491 3.475-.074.122-.213.227-.296.227-.139 0-.156-.079-.156-.958 0-.784-.024-.959-.123-.959-.148 0-1.298.924-2.333 1.865-.485.444-.838.845-.961 1.097a4.74 4.74 0 0 1-.362.61l-.18.218.049-.932c.025-.593.008-.959-.041-.993-.049-.027-.222.07-.386.217-.164.148-.559.488-.863.758-1.314 1.142-3.245 3.267-3.787 4.173-.821 1.35-1.478 2.98-1.75 4.304-.082.383-.18.705-.23.714-.041.009-.271-.436-.492-.976-.263-.61-.469-1.001-.551-1.019-.205-.044-.789.802-1.495 2.152-.764 1.463-1.15 2.657-1.947 6.02-.649 2.752-1.035 4.12-1.142 4.05-.041-.026-.205-.34-.378-.696-.172-.358-.378-.715-.451-.793-.132-.13-.157-.122-.272.122-.131.27-.566 1.916-.706 2.718-.189 1.019-.329 2.648-.378 4.443-.074 2.657.107 4.756.559 6.333.098.349.148.662.123.697-.09.087-.953-.227-1.093-.392-.074-.079-.205-.288-.312-.453-.098-.166-.238-.314-.32-.331-.123-.026-.14.052-.14.653 0 1.742.32 5.445.616 7.126.477 2.675 1.594 5.689 2.489 6.682.247.279.436.523.411.549-.09.104-1.339-.488-1.914-.906-.131-.105-.271-.183-.304-.183-.255 0 .583 3.066 1.438 5.28.961 2.482 1.774 3.876 3.269 5.61 1.076 1.245 2.079 2.613 2.407 3.301.132.27.132.27-.066.357-.18.07-.197.105-.131.358.131.47 1.134 2.169 1.75 2.953 1.955 2.474 2.489 3.023 4.124 4.181.238.166.92.828 1.511 1.464.896.967 1.076 1.202 1.076 1.42 0 .627.518 1.272 1.454 1.803.74.41 1.471.566 2.695.575l1.068.009.016.462c.008.34.074.566.222.81.222.348.731.688 1.052.688.328 0 .427.122.336.4-.164.515.14 1.23.699 1.638.304.227.427.262 1.068.297.583.026.805 0 1.207-.148.271-.105.55-.21.624-.236.115-.043.148.035.198.392.065.54.205.706.575.706.304 0 1.051-.314 1.437-.61l.247-.183v.314c0 .645.361.915 1.232.915.46 0 .542.034 1.092.426.74.523 1.619.915 3.771 1.673 2.144.749 2.793.863 5.447.924 2.267.052 2.891 0 5.027-.419 1.265-.244 1.602-.339 2.768-.766.633-.235 1.923-.967 2.58-1.464.476-.357.591-.401 1.191-.479.978-.113 1.216-.357 1.011-1.02l-.066-.208.246.191c.46.349.945.532 1.421.532.559 0 .707-.14.748-.697.025-.453.041-.453.764-.174.969.374 2.169.113 2.793-.619.296-.348.321-.444.288-1.141l-.017-.41.362-.095c.788-.227 1.216-.74 1.216-1.499 0-.209.032-.418.065-.47.033-.053.353-.096.781-.105.772-.008 1.758-.226 2.62-.566.649-.261 1.085-.549 1.454-.967.247-.27.296-.392.345-.897.05-.506.082-.601.288-.75.755-.557 1.733-1.977 1.93-2.796.091-.374.164-.47.682-.88.895-.697 2.727-2.526 3.352-3.354.821-1.071 1.774-3.206 1.454-3.232-.066-.008-.189-.017-.28-.026-.09 0-.172-.07-.189-.14-.032-.173.411-.931 1.011-1.75a51.168 51.168 0 0 0 1.495-2.117c.107-.148.361-.47.575-.706.559-.61 1.865-2.9 2.202-3.833.098-.287.304-.836.451-1.22.214-.583 1.389-4.512 1.43-4.791.016-.174-.362-.044-.854.296-.518.357-1.381.75-1.463.671-.024-.026.132-.244.345-.488 1.011-1.141 2.243-5.053 2.629-8.32.255-2.151.452-6.176.312-6.394-.065-.096-.23.044-.739.593-.403.435-.723.705-.83.705-.213 0-.213-.026-.008-.653.329-1.002.493-2.692.493-5.018 0-3.755-.255-5.898-.953-7.901-.222-.628-.509-.47-.904.487-.123.297-.263.532-.312.515-.254-.088-.616-1.342-1.199-4.182-.616-2.98-1.454-5.253-2.596-7.083-.518-.818-.69-1.01-.822-.897-.057.044-.238.488-.402.976-.173.488-.345.984-.386 1.098-.115.322-.288.078-.353-.497-.222-1.969-2.227-5.454-4.198-7.3-1.159-1.08-2.276-2.039-2.383-2.039-.09 0-.115.2-.123.889v.897l-.304-.383a13.272 13.272 0 0 0-2.021-2.117c-.838-.715-1.314-1.02-1.421-.906-.033.035-.074.366-.09.732-.033.836-.074 1.062-.206 1.062-.049 0-.451-.418-.878-.923-1.027-1.22-2.12-2.23-2.761-2.553-.55-.278-3.006-1.14-3.253-1.14-.082 0-.148.051-.148.121Zm-2.053.976c.517.13.977.27 1.026.313.107.105-.057.21-.566.375l-.403.13-.46-.304c-.255-.166-.559-.323-.69-.357-.271-.07-.362-.2-.214-.305.173-.113.28-.105 1.307.148Zm-22.591.113c0 .113-1.389.793-1.627.793-.452 0-1.035-.253-.904-.392.091-.096 1.159-.331 1.783-.392.386-.035.715-.07.731-.079.008 0 .017.026.017.07Zm29.507 2.17c.288.322.608.714.715.87l.189.28-.296.13c-.509.226-.887.13-1.355-.331-.378-.384-1.733-2.309-1.733-2.466 0-.087.287.027.977.401.822.444 1.068.627 1.503 1.115Zm-35.545-.794c-.206.28-.6.854-.888 1.29-.681 1.02-.895 1.176-1.626 1.176-.304 0-.583-.044-.608-.087-.082-.14.164-.497.854-1.229.715-.758 1.249-1.167 1.898-1.446.731-.322.789-.27.37.296Zm31.775.793c.345.157.624.392 1.027.845.55.636 1.15 1.568 1.059 1.664-.065.07-2.522-1.185-3.384-1.716-.715-.444-1.019-.732-.896-.862.116-.114 1.019-.253 1.389-.2.181.025.542.139.805.27Zm-28.202.096.206.061-.28.288c-.369.365-1.618 1.14-2.44 1.515-.361.166-.87.445-1.141.619-.272.174-.518.314-.559.314-.197 0 .665-1.299 1.339-2.013.69-.74.953-.854 1.889-.854.428.01.871.035.986.07Zm36.335 2.274c1.141 1.463 1.585 2.265 1.248 2.265-.271 0-1.593-.976-2.111-1.55-.674-.759-.797-1.168-.591-1.917l.131-.497.173.226c.098.122.616.785 1.15 1.473Zm-45.084-.601c.091.784-.115 1.306-.739 1.951-.452.47-1.438 1.141-1.906 1.298-.386.13-.181-.531.378-1.254.172-.218.706-.915 1.199-1.551.608-.802.904-1.133.953-1.054.033.06.082.34.115.61Zm42.57.618c.254.349.197 1.246-.09 1.35-.239.088-.387.044-.6-.165-.477-.47-.214-1.263.435-1.28a.331.331 0 0 1 .255.095Zm-40.968.288c.279.148.37.435.304.888-.115.706-.714.88-1.002.28-.263-.532-.049-1.177.435-1.29.017-.009.132.052.263.122Zm47.244 1.019c.378.496.887 1.159 1.142 1.472.665.82 1.7 2.283 2.062 2.91.345.61.583 1.272.493 1.376-.181.2-2.843-1.655-3.697-2.578-.591-.645-.731-.898-.871-1.595-.205-1.01-.123-2.474.132-2.474.033 0 .369.401.739.889Zm-53.2 1.098v1.193l-.279.523c-.353.662-.936 1.307-1.815 2.003-.822.645-2.128 1.499-2.424 1.577-.172.044-.205.026-.205-.148 0-.61 1.068-2.291 3.007-4.748 1.766-2.247 1.716-2.238 1.716-.4Zm48.46.008c.526.244.945.619 1.421 1.298.526.732 1.438 2.405 1.339 2.44-.041.017-.402-.166-.797-.41a21.25 21.25 0 0 0-1.749-.923 56.668 56.668 0 0 1-1.356-.662c-.353-.175-1.511-1.08-1.84-1.42l-.189-.21.271-.095c.854-.296 2.3-.305 2.9-.018Zm-41.699.323c.296.087.214.27-.312.705-.591.48-.706.558-2.777 1.734-1.651.94-2.168 1.28-2.431 1.594-.173.21-.296.235-.296.07 0-.34 1.167-2.44 1.676-3.006.394-.453 1.027-.906 1.479-1.089.353-.13.583-.148 1.446-.113.566.026 1.108.07 1.215.105Zm45.1 1.49c.172.278.657.949 1.068 1.498.649.854.871 1.228.723 1.228-.312 0-1.126-.732-1.545-1.385-.328-.523-.764-1.838-.599-1.838.016 0 .181.226.353.496Zm-50.949-.175c-.024.087-.082.349-.139.592-.255 1.168-1.003 2.283-1.857 2.77-.6.34-.575.158.09-.705.74-.976 1.561-2.204 1.685-2.526.114-.288.295-.392.221-.13Zm58.917 4.826c.222 1.255.452 2.004 1.118 3.633.895 2.204 1.733 4.974 1.544 5.175-.172.183-1.963-1.856-2.579-2.945-1.126-2.02-1.438-4.408-.797-6.159.197-.523.41-.871.484-.784.033.035.14.523.23 1.08Zm-3.647-.862c.255.383.115 1.446-.189 1.472-.279.026-.386-.026-.6-.279-.287-.322-.32-.94-.065-1.21.23-.244.69-.236.854.017Zm-59.591.549c.312.174.411.374.411.87 0 .968-1.027 1.142-1.224.21-.107-.497.189-1.211.501-1.211.041 0 .181.061.312.13Zm-3.614.932.328.714v1.133c0 .636-.057 1.394-.115 1.716-.287 1.429-1.528 3.563-2.924 5.018-.288.305-.551.549-.583.549-.14 0-.066-.671.172-1.638.279-1.08.427-1.507 1.339-3.764.698-1.733.904-2.378 1.084-3.467.074-.418.148-.81.165-.87.074-.236.23-.07.534.609Zm62.359.94c.263.28.567.715.715 1.046.312.662 1.092 2.901 1.035 2.953-.066.07-2.161-2.169-2.539-2.709-.353-.505-.862-1.803-.862-2.213v-.218l.599.332c.329.183.797.54 1.052.81Zm-56.724-.2c-.033.183-.246.732-.468 1.229-.394.862-.477.967-1.733 2.334-.732.784-1.34 1.42-1.356 1.403-.066-.07.665-2.143 1.052-2.997.46-1.02.739-1.315 1.758-1.908.361-.209.69-.383.731-.383.032 0 .041.148.016.322Zm58.967 1.412c.147 1.002.476 1.934 1.289 3.554.263.54.452.984.419.984-.361 0-1.1-.975-1.741-2.29l-.329-.689v-1.115c0-1.22.066-1.812.173-1.525.033.096.115.584.189 1.08Zm-62.581.792c.049.671.032.81-.189 1.481-.28.854-1.38 2.77-1.758 3.05-.411.322-.436.156-.066-.567 1.257-2.517 1.331-2.718 1.594-4.138.197-1.089.213-1.141.304-.827.032.139.09.592.115 1.001Zm66.811 6.15c.378.506.091 1.43-.435 1.43-.485 0-.756-1.08-.378-1.481a.515.515 0 0 1 .813.052Zm-2.415.576c.501.592.986 1.35 1.241 1.943.402.914.55 3.414.353 5.714-.099 1.141-.173 1.525-.288 1.507-.156-.026-1.322-3.188-1.552-4.216-.345-1.498-.485-5.401-.206-5.401.041 0 .238.209.452.453Zm4.839 1.437c.024.802.106 2.17.18 3.032.148 1.812.197 6.255.074 6.307-.123.052-.665-1.159-.903-2.039-.378-1.385-.477-2.273-.428-3.92.05-1.446.206-2.613.51-3.79.164-.627.378-1.14.452-1.088.032.017.082.697.115 1.498Zm-73.203-1.124c.074.087.164.349.189.567.041.33.024.444-.091.583-.525.619-1.339-.54-.846-1.202.123-.157.592-.13.748.052Zm2.242.384c.124.392.05 2.7-.123 3.815-.213 1.394-.468 2.37-1.035 4.016-.476 1.403-.665 1.804-.789 1.673-.213-.227-.394-4.077-.246-5.427.197-1.734.641-2.823 1.643-3.947.329-.374.468-.4.55-.13Zm69.252 2.7c0 1.55.016 3.241.049 3.772l.066.959-.247-.532c-.361-.775-.492-1.542-.55-3.267-.049-1.428-.033-1.576.132-2.169.205-.705.501-1.568.533-1.568.017 0 .025 1.263.017 2.805Zm-73.95-.453.336 1.35-.008 1.83c0 1.429-.033 1.96-.14 2.44-.197.853-.698 2.438-.944 3.005l-.206.479-.074-.48c-.082-.566-.032-2.134.189-5.74.083-1.455.156-3.102.156-3.66 0-.565.025-1.053.058-1.088.099-.096.263.383.633 1.864Zm1.182-.854c.436 1.229.46 1.394.46 3.163 0 1.707.009 1.646-.386 2.788-.082.217-.098.383-.049.444.049.06.017.174-.082.305-.164.209-.164.2-.115-2.666.041-2.657-.008-3.938-.189-4.556-.025-.105-.016-.192.025-.192s.189.323.336.715Zm42.488 17.11v9.705l.846.009c.912 0 1.553.087 1.405.191-.058.035-.74.087-1.528.114l-1.438.06-.057-.209c-.091-.322-.156-15.75-.074-17.693.049-1.045.115-1.76.172-1.83.058-.078.197-.113.386-.086l.288.034v9.705Zm-11.526-1.263c.017 4.574-.008 8.955-.041 9.748l-.057 1.438-.698.06c-.945.07-2.646-.017-2.605-.139.017-.06.493-.122 1.249-.165.674-.035 1.241-.087 1.257-.105.025-.017.074-4.225.115-9.339.041-5.113.09-9.426.115-9.582.041-.297.197-.384.485-.288.164.061.164.148.18 8.372Zm1.512-7.797c.09 1.02.172 13.825.098 15.611-.057 1.333-.09 1.699-.189 1.76-.205.13-.221-.636-.238-7.85-.008-7.343.041-10.21.189-10.157.049.018.115.305.14.636Zm8.075 8.59c.008 8.825 0 9.025-.287 8.72-.115-.122-.058-17.554.057-17.841.181-.462.214 1.062.23 9.12Zm-3.582-1.133c-.008 4.278-.032 7.483-.065 7.126-.132-1.463-.082-14.897.057-14.897.008 0 .017 3.502.008 7.771Zm-1.807.087c-.008 4.957-.033 6.926-.074 5.645-.098-3.685-.057-13.241.066-13.241.008 0 .016 3.423.008 7.596Zm38.158-6.803c.255.148.304.243.304.705 0 .34-.033.436-.254.628-.321.287-.444.287-.69 0-.156-.183-.206-.332-.206-.637 0-.679.353-.967.846-.697Zm-2.76.444c.452.496 1.035 1.611 1.167 2.247.156.732.106 2.16-.107 3.058-.255 1.054-.698 2.274-.813 2.23-.148-.052-.198-.418-.469-3.502-.32-3.685-.369-4.486-.279-4.486.049 0 .271.209.501.453Zm-58.95.427c.46.244.789 1.019.583 1.367-.057.087-.148.079-.435-.052-.55-.253-.608-.366-.452-.862.164-.497.164-.514 0-.366-.148.13-.526.888-.526 1.063 0 .07.239.174.641.278.345.087.641.175.657.183.074.053-.189.41-.419.558-.295.2-.994.235-1.322.07-.115-.053-.288-.27-.386-.48-.559-1.228.525-2.378 1.659-1.76Zm50.579-.01c.148.097.337.297.427.454.329.575.132 1.359-.427 1.725-.542.348-1.281.14-1.626-.453-.329-.575-.132-1.36.427-1.725a1.33 1.33 0 0 1 .599-.174c.181 0 .444.078.6.174Zm-62.343.166c.173.14.214.262.239.732.032.506.016.575-.156.706-.206.148-.543.183-.707.07-.14-.096-.271-.506-.271-.854 0-.227.066-.383.238-.566.279-.297.386-.305.657-.088Zm2.769.898a24.77 24.77 0 0 1-.173 1.768c-.065.48-.172 1.656-.246 2.614-.181 2.509-.206 2.744-.337 2.744-.148 0-.329-.383-.624-1.307-.493-1.533-.592-2.57-.345-3.807.221-1.15.41-1.55 1.035-2.256.32-.357.616-.645.665-.645.058 0 .066.305.025.889Zm73.359 1.045c-.091 1.28-.526 4.434-.74 5.314-.378 1.56-1.314 3.964-1.585 4.051-.14.052-.255-.427-.362-1.56-.09-.88-.082-1.175.033-2.22.329-2.832.945-4.6 2.029-5.785.304-.331.584-.601.616-.601.033 0 .042.366.009.801Zm-78.666 1.133c.731.906 1.216 1.968 1.651 3.641l.353 1.35.009 1.569c0 1.568-.107 2.482-.329 2.805-.09.13-.123.104-.32-.21-.271-.426-.707-1.524-.978-2.439-.427-1.41-.969-4.713-1.101-6.681-.065-.95-.024-.95.715-.035Zm75.774 1.341a125.62 125.62 0 0 0-.698 2.988c-.173.784-.329 1.447-.353 1.464-.091.104-.148-.871-.107-1.751.065-1.185.246-2.274.46-2.797.271-.653 1.002-1.716 1.06-1.541.008.043-.148.775-.362 1.637Zm-73.523-.078c.172.279.452.819.624 1.202.345.75.468 1.498.493 3.006.033 1.907-.041 1.907-.402.017a31.892 31.892 0 0 0-.674-2.7c-.427-1.438-.55-2.022-.427-2.022.041 0 .213.227.386.497Zm63.92 2.579c.024.104.041 2.508.024 5.331-.024 4.94-.032 5.157-.188 5.48-.091.191-.214.366-.28.383-.098.035-.107-.758-.057-5.602.024-3.101.074-5.68.098-5.715.091-.156.362-.078.403.123Zm-4.913.296c.033.139.058 3.005.058 6.385 0 6.186-.017 6.534-.279 6.534-.091 0-.115-9.583-.025-11.787.049-1.315.115-1.637.246-1.132Zm-44.319.644c.066.628.082 9.958.008 11.212l-.049.985-.205-.2-.206-.201.05-6.064c.016-3.345.065-6.115.098-6.176.115-.2.247-.017.304.444Zm-4.666-.165c.066.261.066 11.046 0 11.046-.025 0-.148-.078-.271-.165-.444-.34-.559-1.229-.378-2.98.074-.801.156-2.648.189-4.608.033-1.795.09-3.32.123-3.38.107-.166.279-.122.337.087Zm37.049 1.429c.025.078.049 3.223.049 7.004 0 6.02-.016 6.873-.123 6.917a.396.396 0 0 1-.246 0c-.107-.044-.124-.871-.124-6.656 0-3.624.025-6.778.05-7.004.041-.305.09-.4.197-.4.082 0 .173.06.197.139Zm7.509 6.586-.025 6.734-.378.026-.378.026-.057-.41c-.066-.514-.05-10.933.024-12.1l.05-.871.287-.052c.156-.035.337-.062.394-.07.083-.009.099 1.359.083 6.717Zm-27.989-6.404c.115.305.05 13.625-.065 14-.099.331-.239.383-.321.122-.082-.244-.082-13.381 0-13.947.066-.47.247-.55.386-.175Zm-7.073.088c.066.07.05 13.163-.016 13.224-.033.035-.197.07-.37.078l-.312.009.017-6.656c.008-5.401.032-6.673.123-6.734.098-.07.468-.017.558.079Zm50.489 1.306c.091.497-.074 1.673-.312 2.204-.107.27-.444.776-.739 1.133-.296.357-.633.836-.756 1.063-.132.235-.263.418-.296.418-.131 0-.172-.732-.09-1.507.065-.566.148-.889.337-1.263.262-.532 1.61-2.37 1.725-2.37.041 0 .098.148.131.322Zm2.9 0c.337.296.361 1.229.041 1.481-.238.183-.665.14-.805-.078-.181-.279-.164-.924.033-1.272.189-.322.452-.366.731-.13Zm-69.013.767c.057.122.394.636.755 1.133.781 1.097 1.003 1.533 1.183 2.37.214 1.018.156 1.419-.205 1.419-.074 0-.312-.279-.559-.68-.238-.365-.624-.94-.87-1.263-.534-.705-.616-.984-.616-2.02 0-1.116.106-1.438.312-.959Zm-2.572.392c.091.105.165.357.189.636.033.4.009.496-.156.697-.271.313-.591.383-.797.165-.197-.209-.303-.932-.188-1.254.147-.427.681-.558.952-.244Zm71.133 1.63c.025.034-.213.339-.55.67-.748.766-1.339 1.716-1.791 2.892-.197.497-.378.906-.411.906-.074 0-.361-.514-.485-.897-.139-.392-.041-.653.576-1.542.624-.88 1.47-1.638 2.176-1.943.387-.165.403-.165.485-.087Zm-35.381.705c.213.183.435.357.484.392.05.026.304-.044.575-.157.929-.41 1.011-.21.321.758-.255.348-.444.697-.436.766.025.114.304.131 1.849.157l1.815.018.033.313c.017.175.017.427 0 .558l-.033.244-1.117.052a113.6 113.6 0 0 1-1.98.07c-.961.026-.854.096-1.199-.802-.312-.801-.329-.827-.518-.853-.131-.027-.189.026-.222.217a4.623 4.623 0 0 1-.131.506 2.824 2.824 0 0 0-.131.505c-.083.462-.584.61-1.405.41-.509-.131-1.06-.123-1.807 0-1.036.182-1.29.043-1.29-.706v-.47l.821.025c1.15.035 2.67-.07 2.67-.183 0-.043-.197-.313-.443-.583-.296-.331-.477-.619-.543-.863-.049-.209-.074-.392-.057-.41.016-.025.205.044.419.14.419.183.871.236.871.087 0-.052.065-.087.147-.087.083 0 .239-.096.346-.218.262-.296.492-.27.961.114Zm-35.168.67c.731.384 1.684 1.307 2.185 2.126.213.349.394.68.394.723 0 .2-.517 1.385-.591 1.36-.05-.018-.165-.27-.263-.558-.386-1.133-1.388-2.736-2.054-3.31-.419-.35-.575-.645-.353-.645.066 0 .37.139.682.305Zm65.456.95c.92 1.56 1.61 3.145 2.013 4.608.386 1.394.501 2.283.501 3.851v1.411l-.444.523c-.246.279-.526.68-.624.88-.197.4-.386.496-1.233.592-.295.026-.805.13-1.141.227-.329.087-.625.148-.649.122-.017-.026.008-.584.065-1.246.189-2.117-.032-3.485-.903-5.567-.271-.653-.493-1.28-.493-1.402 0-.122.181-.506.394-.854.427-.662.723-1.368 1.298-3.023.189-.566.37-1.063.403-1.115.09-.157.246.035.813.993Zm7.607-.915c0 .035-.148.358-.337.715a44.482 44.482 0 0 0-.904 1.951c-1.125 2.579-2.439 4.67-2.784 4.443-.198-.13 0-2.483.32-3.807.402-1.673.978-2.309 2.736-3.075.681-.305.969-.366.969-.227Zm-67.724 1.255c.477 1.542 1.142 3.075 1.553 3.554.361.427.542.81.477 1.01-.025.088-.222.567-.436 1.072-.46 1.08-.78 2.126-.904 2.927-.115.776-.115 2.736.009 3.468.106.688.032.87-.321.749-.123-.044-.575-.122-1.002-.174-1.339-.166-1.413-.2-1.906-.88-.912-1.264-.945-1.325-.994-1.96-.057-.81.066-2.457.263-3.398.197-.967.797-2.918 1.191-3.86.288-.705 1.306-2.482 1.635-2.857.09-.104.189-.174.23-.157.033.027.123.253.205.506Zm-7.245.287c1.626.697 2.341 1.856 2.596 4.173.107.993.107 2.483 0 2.483-.115 0-.994-1.115-1.462-1.856-.231-.348-.789-1.428-1.241-2.404-.46-.976-.969-1.986-1.134-2.248-.238-.365-.279-.487-.189-.548.115-.079.674.078 1.43.4Zm44.656 1.594c.205.035-1.191.088-3.138.122-1.931.035-3.606.035-3.738 0-.205-.06-.189-.07.181-.121.591-.07 6.26-.079 6.695 0Zm-14.212.793c.107.07.123.401.099 2.326-.017 1.237-.049 2.318-.066 2.396-.066.226-.337.192-.394-.044-.025-.104-.049-.61-.049-1.123 0-1.168-.116-1.804-.346-1.89-.098-.036-.287-.28-.435-.54-.14-.262-.312-.48-.386-.498-.214-.043-.394.636-.403 1.551a24.737 24.737 0 0 1-.065 1.472c-.041.558-.074.654-.23.715-.271.104-.296-.087-.255-2.24.025-1.532.049-1.89.148-1.95.066-.044.361-.088.657-.096.296 0 .698-.035.904-.07.525-.105.682-.105.821-.009Zm1.298.087h.263l-.016 2.37-.025 2.378-.394-.017c-.222-.009-.428-.035-.452-.07-.033-.035-.082-.767-.115-1.638-.033-.87-.091-1.75-.132-1.951-.131-.662.083-1.22.436-1.124.09.026.287.052.435.052Zm1.807 2.222c.025 1.603 0 2.178-.074 2.326l-.106.2-.058-.261c-.074-.34-.09-3.947-.024-4.304.041-.209.082-.252.147-.183.058.061.099.81.115 2.222Zm8.273-2.039c.074.34-.041 3.99-.123 4.043-.14.087-.239-3.616-.115-4.121.074-.27.172-.235.238.078Zm3.278-.218c.106.044.131.21.131.941 0 1.778-.099 3.363-.214 3.363-.057 0-.123-.07-.147-.157-.124-.427-.296-1.794-.296-2.326 0-.627-.173-1.193-.436-1.42-.147-.14-.303-.07-.303.13 0 .07-.074.236-.165.376-.09.13-.197.348-.246.479-.082.226-.091.235-.197.078-.099-.13-.132-.14-.239-.043-.205.174-.287.583-.336 1.742-.033.592-.074 1.115-.099 1.158-.148.253-.197-.252-.197-2.204v-2.169h1.306c.723 0 1.364.026 1.438.052Zm-10.302 2.457c-.172 1.342-.057 1.795.435 1.742.198-.017.272-.078.304-.235.058-.252.329-.348.699-.261.205.044.213.061.057.07-.156.008-.189.052-.164.244.025.226.057.243.559.313.287.035.542.087.566.105.115.13-.221.174-1.33.174h-1.249l-.025-1.83c-.016-1.01 0-2.047.033-2.308.066-.47.066-.453.131.436.033.514.025 1.193-.016 1.55Zm28.678-.33c.082.051.156.13.156.173 0 .044-.279.366-.624.715-.345.348-.945 1.089-1.331 1.638-.723 1.019-1.462 1.916-1.585 1.916-.156 0-.05-.252.468-1.132.296-.506.608-1.055.69-1.22.205-.427.879-1.368 1.29-1.812.361-.375.616-.453.936-.279Zm-52.838.217c.468.253.92.94 1.651 2.526.403.863.756 1.682.789 1.83.057.244.049.252-.082.13-.263-.226-.838-1.071-1.323-1.942-.55-1.01-.821-1.35-1.413-1.82-.238-.184-.435-.384-.435-.445 0-.105.378-.401.517-.41.033 0 .173.061.296.13Zm53.849 1.072c.057.095-.469.749-1.52 1.907-.444.488-.83.863-.846.82-.074-.114.476-1.212.895-1.787.526-.749 1.298-1.237 1.471-.94Zm-54.654.635c.37.28 1.495 2.257 1.364 2.396-.025.026-.247-.226-.501-.557-.247-.34-.567-.697-.699-.793-.386-.296-.936-1.037-.879-1.194.066-.174.386-.104.715.148Zm27.619 1.438 1.454.052v.68c0 .888.032.914 1.01.845l.756-.053.739.506c.403.278.887.557 1.068.618.361.13 2.185.14 4.921.035l1.544-.061-.098.21a9.198 9.198 0 0 1-.428.705c-.172.279-.336.627-.361.784-.123.766-.386 1.054-.731.819-.263-.183-.312-.183-1.027.113-1.29.531-3.352.967-5.381 1.132-5.241.427-8.864.323-11.665-.322-1.158-.27-2.76-.784-2.916-.932-.082-.078-.189-.375-.238-.653a3.045 3.045 0 0 0-.378-.967c-.156-.244-.288-.48-.288-.514 0-.044 1.265-.087 2.818-.105l2.809-.026.838-.488c.46-.27.953-.54 1.101-.592.164-.061 1.002-.096 2.3-.096h2.046v-.601l-1.594-.026c-.879-.018-1.618-.053-1.651-.079-.082-.087.213-.801.402-.976.148-.139.263-.156.83-.113a66.35 66.35 0 0 0 2.12.105Zm27.774.374c.074.088.156.297.181.462.041.235.008.349-.173.575-.279.349-.46.349-.731.009-.402-.505-.197-1.211.345-1.211.132 0 .304.07.378.165Zm-56.05.27c.041 0 .148.079.238.175.263.278.189 1.019-.115 1.237-.049.035-.213.07-.361.07-.222 0-.288-.053-.395-.297a.992.992 0 0 1-.082-.592c.066-.357.345-.714.518-.645a.72.72 0 0 0 .197.053Zm47.194 1.124c.617.48.633.514.592 1.455l-.041.836.435-.052c.378-.043.468-.026.608.122.37.392.156 1.08-.616 1.995-.386.462-.46.593-.419.784.205.897.132 1.246-.386 1.716-.32.305-1.701 1.08-1.914 1.08-.082 0-.271-.13-.419-.278-.255-.262-.329-.288-.756-.279-.361.009-.575.07-.871.244-.221.122-.41.209-.435.192-.016-.026.296-.41.698-.863.403-.444.846-.984.986-1.202.361-.549.813-1.525.961-2.073.14-.506.181-1.577.058-1.577-.041 0-.23.4-.428.888-.903 2.318-2.423 4.374-4.082 5.541-1.15.81-1.265.714-.592-.505.386-.697.509-1.15.337-1.263-.09-.053-.164.052-1.125 1.428-.904 1.316-1.266 1.664-1.997 1.943-.337.13-.649.209-.69.183-.139-.087-.016-.924.214-1.455.279-.636 1.027-1.638 1.454-1.934.402-.279.542-.505.862-1.385.419-1.133 1.044-1.498 1.931-1.124.214.087.37.113.419.061.041-.044.115-.41.164-.81.148-1.246.51-2.195.945-2.5.189-.131.238-.131.657.026.452.156.46.156.575-.009a.67.67 0 0 0 .115-.348c0-.331.436-.654 1.232-.924.699-.235 1.142-.218 1.528.087Zm-36.539.087c.501.27.846.619 1.018 1.028.132.323.181.366.312.288a.78.78 0 0 0 .206-.174c.024-.053.23-.087.452-.087.386 0 .402.008.616.409.337.653.525 1.333.599 2.239.042.462.099.871.132.897.024.035.172-.035.312-.148.353-.279.986-.331 1.38-.113.238.13.329.27.559.853.435 1.133.525 1.281.92 1.525.788.48 2.136 3.18 1.684 3.363-.066.035-.386-.035-.707-.14-.723-.252-1.035-.566-2.094-2.143-.567-.836-.814-1.14-.904-1.106-.197.078-.074.575.361 1.437.206.418.362.784.329.81-.074.088-.608-.183-1.224-.618-.986-.688-2.407-2.335-3.081-3.537-.353-.645-.813-1.812-.887-2.274-.041-.235-.098-.322-.205-.322-.321 0-.288 1.02.065 2.004.231.644.822 1.576 1.537 2.413.32.374.649.793.731.923l.148.244-.427-.183a2.531 2.531 0 0 0-.806-.174c-.328 0-.41.044-.657.322l-.287.323-.386-.114c-1.027-.287-2.12-1.097-2.309-1.716-.098-.296-.057-.444.239-.95.09-.156.041-.235-.469-.792-.599-.645-.755-.976-.755-1.63 0-.278.032-.339.221-.417.123-.053.395-.079.6-.061.329.026.37.008.345-.148-.008-.096-.041-.47-.066-.828-.049-.627-.041-.67.173-.94.542-.69 1.544-.88 2.325-.463Zm43.555.105c.394.252.649.514.797.81.156.322.156 1.124-.008 1.612l-.132.392.411.383c.394.366.411.4.411.828 0 .566-.23 1.106-.567 1.359-.296.226-.304.287-.099.6.091.132.181.384.214.567.049.305.024.366-.247.627-.164.175-.484.366-.747.453-.444.148-.468.148-.575-.017-.066-.087-.115-.296-.115-.453 0-.575-.994-1.246-1.849-1.246-.197 0-.386-.043-.41-.087-.033-.052.106-.296.312-.549.443-.549.805-1.15 1.355-2.247.666-1.307.542-1.516-.246-.419-.945 1.298-2.522 2.997-2.785 2.997-.131 0-.37-.827-.296-1.036.025-.07.197-.21.386-.314.477-.261.518-.436.469-1.986l-.05-1.342.222-.218c.123-.122.345-.279.493-.348.246-.105.304-.105.468.009.107.078.238.278.296.444.14.41.296.366.624-.174.148-.244.37-.523.493-.628.296-.252.789-.261 1.175-.017Zm-51.417.348c.386.14.567.323.748.75.18.426.361.479.484.13.255-.697.715-.81 1.241-.287l.336.33-.09.733c-.057.4-.098.923-.098 1.167 0 .601.303 1.263.698 1.525.238.156.287.235.254.383a5.223 5.223 0 0 0-.106.557c-.025.2-.082.392-.132.427-.123.079-2.267-2.282-2.801-3.092-.468-.706-.707-.889-.707-.532 0 .296 1.101 2.257 1.882 3.363.287.4.295.392-.329.496-.444.079-.895.436-1.347 1.072-.592.828-.6.836-.937.767-.394-.079-.879-.349-1.027-.584-.172-.261-.164-.532.033-.94.214-.445.206-.602-.033-.698-.402-.157-.714-.915-.607-1.455.073-.366.419-.836.755-1.028.148-.087.148-.104-.016-.453a3.484 3.484 0 0 1-.255-.732c-.065-.322-.049-.435.123-.836.403-.888 1.183-1.324 1.931-1.063Zm56.921 1.978c0 .261-2.308 3.154-2.522 3.154-.132 0-.435-.47-.435-.689 0-.096.082-.435.18-.749.189-.627.649-1.263 1.085-1.498.361-.2 1.692-.375 1.692-.218Zm-62.039 1.228c.542.297.961.932 1.158 1.777.091.401.082.454-.115.81-.115.21-.246.384-.287.384-.099 0-1.495-1.725-2.029-2.518l-.452-.662.312-.043a2.55 2.55 0 0 1 1.413.252Zm52.099 3.11c.246.105.378.236.501.488.09.183.214.357.279.383.066.027.321 0 .567-.052.633-.14 1.208.044 1.627.497.353.392.476.688.476 1.185 0 .583-.542 1.393-1.002 1.498-.206.052-.23.087-.197.287.131.689.139.898.049 1.229-.098.41-.493.932-.764 1.02a5.11 5.11 0 0 0-.591.26c-.502.253-1.758.488-2.399.453-.444-.026-.477-.043-.501-.243-.115-1.299-.526-1.778-1.594-1.882-.78-.079-.936-.166-1.109-.636a2.965 2.965 0 0 0-.419-.723c-.263-.314-.271-.323-.107-.418.255-.14 2.259-.41 3.87-.523 1.766-.113 1.988-.148 1.955-.331-.041-.227-.469-.288-1.75-.227l-1.232.053-.345-.27c-.469-.358-.477-.575-.033-.497.452.07 1.142-.096 1.38-.348.156-.166.189-.288.189-.776v-.566h.411c.221 0 .558.06.739.14Zm-42.405.462c-.099.427.065.862.435 1.089.312.2 1.134.288 1.372.148.148-.087.181-.078.181.035 0 .218-.247.566-.501.706-.165.087-.526.121-1.307.121-1.142 0-1.807.114-1.807.314 0 .174.189.192 1.972.244 1.725.044 2.743.157 3.434.366l.427.13-.288.401c-.156.218-.328.558-.378.758-.115.462-.263.575-.772.575-.23 0-.616.061-.846.13-.534.175-.781.532-.953 1.377-.066.331-.148.636-.197.689-.107.113-.772.113-1.536-.018-.83-.13-1.233-.279-1.849-.662-.402-.244-.501-.366-.624-.697-.123-.348-.131-.47-.049-.897.131-.68.139-.653-.222-.819-.181-.087-.452-.314-.616-.497-.28-.33-.296-.383-.296-.932 0-.775.222-1.263.731-1.611.362-.244.419-.253 1.15-.227.542.018.789-.009.805-.078.091-.27.534-.81.699-.845.632-.131 1.018-.192 1.059-.166.033.018.017.174-.024.366Zm29.672-.357c0 .043-.115.418-.247.854-.394 1.202-.558 2.056-.69 3.432-.23 2.448-.238 2.831-.049 4.05.32 2.118.657 3.311 1.199 4.243.157.28.263.54.239.593-.074.13-1.142.845-1.758 1.176-1.019.54-3.188 1.124-6.046 1.611-.756.131-3.229.096-3.985-.052-2.793-.557-4.345-.984-5.627-1.559-.501-.227-1.438-.828-1.438-.915 0-.052.247-.706.543-1.463.295-.75.632-1.777.755-2.283.214-.88.222-1.002.214-3.092-.008-2.03-.025-2.24-.222-3.067-.115-.48-.37-1.263-.558-1.742-.419-1.037-.576-1.507-.51-1.507.025 0 .386.191.797.427 1.06.6 2.366 1.019 3.869 1.228.362.052 1.602.113 2.752.148 2.046.043 2.136.043 3.804-.227 3.056-.487 4.937-.984 6.383-1.69.501-.243.575-.27.575-.165Zm9.077 1.864c.214.105.271.314.107.375-.057.026-.731.14-1.495.261-.994.157-1.413.2-1.479.13-.123-.13.017-.208 1.019-.566.895-.313 1.487-.374 1.848-.2Zm-35.151.2c.846.157 1.84.471 1.84.575 0 .157-2.538-.008-2.933-.182-.222-.096-.172-.323.091-.436.23-.105.18-.105 1.002.044Zm3.737 1.995c.649.157.978.384 1.225.837.254.462.427.496.501.113.024-.157.098-.349.164-.427.238-.305 1.273.13 1.487.627.057.122.271.314.485.427.443.244.862.601.985.845.05.096.066.323.033.497-.074.479-.279.549-1.109.427-1.807-.27-5.241.531-6.03 1.402-.369.41-.09.436.575.061.304-.174.6-.313.658-.313.057 0 .131.139.164.313.074.418-.041 1.673-.173 1.952-.18.366-.706.888-1.092 1.063-.46.217-1.15.287-1.405.139-.394-.227-.526-.523-.509-1.185.008-.592 0-.618-.222-.767-.32-.191-.526-.592-.542-1.001-.008-.436.411-.915.928-1.063l.353-.105-.049-.662c-.049-.627-.041-.688.148-.923.238-.296.6-.427 1.429-.514.674-.07.723-.14.411-.688-.23-.427-.14-.697.345-.967.419-.236.6-.253 1.24-.088Zm28.128.14c.238.235.247.479.033 1.02-.057.156-.082.304-.057.33.024.026.41.105.854.174 1.167.175 1.372.392 1.29 1.325-.058.557.016.662.567.862.484.166.722.505.722 1.028 0 .296-.049.4-.386.723l-.386.383.017.628c.024.618.016.636-.263.923-.263.27-.337.296-.772.296-.797 0-1.725-.54-2.046-1.193-.238-.497-.296-1.978-.074-2.204.025-.026.362.087.739.261.584.261.715.287.789.192.082-.105.017-.174-.304-.392-.452-.305-.961-.488-2.366-.837-.928-.235-1.092-.252-2.793-.252h-1.807l-.099-.218c-.172-.357-.123-.61.165-.897.665-.662 1.536-1.455 1.823-1.664.543-.392.97-.27 1.183.322.115.322.222.296.411-.096.329-.688.904-.984 1.873-.95.583.018.698.044.887.236Zm-4.534 4.722c1.043.697 1.626 1.463 1.289 1.68-.131.088-.377-.112-1.256-1.053-.756-.802-1.044-1.168-.912-1.168.032 0 .427.244.879.54Zm-20.398-.218c-.37.505-1.824 2.03-1.93 2.03-.337 0-.066-.593.542-1.185.534-.523 1.265-1.08 1.413-1.08.139 0 .139.017-.025.235Z" fill="#949494"/><path d="M144.928 81.475c-.362.07-.419.121-.362.304.05.114.502.131 3.812.131 4.403 0 5.381-.043 5.348-.253-.016-.104-.164-.156-.518-.191-.681-.079-7.894-.07-8.28.009Zm-1.266.93c-.197.079-.107.262.148.323.345.07 8.083.07 9.669-.01 1.141-.051 1.248-.069 1.248-.217s-.205-.157-5.479-.148c-3.023 0-5.537.026-5.586.052Zm25.046 7.842c.016.096.304.305.682.505.361.192.895.523 1.182.723.296.2.575.357.617.34.049-.017.098-.13.115-.253.041-.392-.51-.775-1.824-1.254-.682-.253-.813-.262-.772-.061Zm-38.914.53c-1.281.636-1.396.723-1.421 1.089-.016.174-.008.322.017.322.057 0 1.166-.67 1.832-1.106 1.035-.68.747-.889-.428-.305Zm24.629.948c-.23.018-.46.079-.501.14-.107.148-.321.88-.436 1.524-.115.671-.082.732.822 1.22.731.392.969.74.879 1.272-.049.261-.222.505-.797 1.141-.69.758-.813.984-.665 1.237.107.174 1.183-.418 1.643-.906.567-.6.714-.975.714-1.777 0-.575-.033-.706-.23-1.02-.287-.47-.78-.844-1.339-1.036-.468-.157-.46-.14-.312-.732.033-.14-.008-.148 1.265.053l.37.06.189-.557c.099-.296.181-.575.181-.618 0-.062-.937-.062-1.783 0Zm-7.959.088c-.279.035-.353.21-.485 1.098l-.049.34.271-.08c.312-.077 1.175-.077 1.503.01.206.052.214.07.099.209-.312.374-.961 2.5-1.29 4.207-.09.488-.164.907-.164.941 0 .105.526.323.682.288.074-.018.139-.079.139-.13 0-.42.198-1.796.337-2.37.181-.74.666-2.117 1.273-3.59.198-.487.362-.906.362-.932 0-.06-2.267-.043-2.678.009Zm3.926 0c-.107.026-.263.165-.354.313-.238.41-.484 1.325-.484 1.795 0 .4 0 .4.468.662.575.314 1.142.871 1.216 1.194.082.322-.181.827-.789 1.56-1.191 1.428-.041 1.384 1.216-.044.788-.89.961-1.847.493-2.597-.238-.374-.855-.81-1.421-1.001-.428-.14-.452-.166-.428-.41.033-.348.296-.488.937-.488.706 0 1.019-.13 1.019-.418 0-.13.024-.322.049-.436.049-.191.049-.191-.838-.182a13.25 13.25 0 0 0-1.084.052Zm-6.744.209c-.69.253-.739.331-.411.619l.28.244v1.986c-.009 2.004-.066 2.561-.329 2.84-.222.226.066.34.994.383l.854.044v-.279c0-.2-.049-.296-.18-.366l-.189-.087v-2.413c0-2.666-.058-3.162-.395-3.145-.098 0-.377.079-.624.174Zm29.664-72.349c-.263.192-.255.836.024 1.124.386.418.781.157.781-.523 0-.636-.378-.923-.805-.6Zm-8.602 3.877c-.172.226-.205.33-.156.548.09.47.181.575.476.575.329 0 .461-.148.518-.584.033-.252 0-.383-.14-.575-.23-.305-.427-.296-.698.035Zm-31.027.052c-.197.052-.345.496-.287.88.123.749.862.714 1.01-.053.074-.392-.016-.67-.255-.784-.221-.104-.238-.113-.468-.043Zm47.588 3.736c-.205.279-.23.871-.041 1.15.181.27.723.27.887-.009.156-.253.238-.714.173-.932-.058-.192-.436-.436-.69-.436-.091 0-.239.105-.329.227Zm-64.544.942c-.337.357-.378.775-.107 1.133.14.191.222.226.395.183.353-.088.583-.436.583-.88 0-.784-.37-.967-.871-.436Zm56.65 2.134c-.123.253-.098.81.05 1.037.378.583 1.191-.384.821-.985-.172-.278-.731-.313-.871-.052Zm-48.583.452c-.164.14-.213.253-.213.523 0 .497.197.775.542.775.386 0 .559-.296.501-.845-.066-.618-.402-.81-.83-.453Zm62.071 6.894c-.156.217-.345.67-.345.844 0 .253.477.793.69.793.452 0 .797-.636.633-1.15a1.482 1.482 0 0 0-.23-.435c-.156-.183-.624-.21-.748-.053Zm-75.798.983c-.164.165-.205.296-.205.627 0 .453.238.985.443.985.263 0 .543-.21.674-.506.189-.435.082-.862-.287-1.124-.345-.252-.378-.252-.625.018Zm69.005-.133c-.444.175-.617.776-.37 1.255.312.636 1.027.253 1.01-.53-.016-.576-.279-.864-.64-.724Zm-61.801.836c-.263.191-.353.479-.254.845.09.366.246.514.525.514.346 0 .534-.253.534-.706 0-.697-.361-.984-.805-.653Zm63.264 10.011c-.214.157-.304.54-.23 1.002.074.444.23.61.575.61.394 0 .575-.305.567-.94-.008-.393-.049-.515-.197-.645-.222-.192-.477-.2-.715-.027Zm8.23.87c-.165.166-.206.296-.206.627 0 .244.058.505.132.619.172.261.493.392.682.279.213-.114.419-.619.419-1.02 0-.644-.617-.95-1.027-.505Zm-73.31.185c-.123.165-.172.357-.172.68 0 .609.156.835.583.835.279 0 .345-.043.485-.287.213-.366.205-.75-.025-1.115-.255-.4-.624-.453-.871-.113Zm-8.378 1.043c-.296.392-.214 1.203.148 1.49.345.287.788-.07.887-.714.123-.802-.608-1.35-1.035-.776Zm73.875 7.686c-.181.122-.279.444-.279.889 0 .549.246.88.616.81.427-.087.633-1.228.287-1.594-.164-.174-.46-.227-.624-.105Zm-65.694 1.131c-.369.426-.345 1.167.05 1.455.254.182.443.165.673-.087.156-.157.206-.305.206-.602 0-.697-.584-1.176-.929-.766Zm73.006 4.078c-.304.418-.321 1.002-.05 1.403.263.392.518.383.814-.035.172-.244.23-.41.221-.697-.008-.4-.123-.592-.517-.836l-.247-.148-.221.313Zm-80.473 1.201c-.238.122-.419.697-.353 1.089.065.357.377.706.648.706.329 0 .625-.453.625-.95 0-.688-.452-1.089-.92-.845Zm74.404 14.104a2.763 2.763 0 0 0-.214.48c-.181.557.304 1.15.83 1.001.189-.052.361-.357.452-.792.049-.244.016-.323-.23-.584-.345-.366-.649-.4-.838-.105Zm-68.25.915c-.493.575-.288 1.411.345 1.411.419 0 .493-.078.6-.636.09-.47.09-.505-.099-.714-.23-.261-.649-.296-.846-.06Z" fill="#949494"/></svg>