<svg width="300" height="120" viewBox="0 0 300 120" fill="none" xmlns="http://www.w3.org/2000/svg"><g clip-path="url(#a)" fill="#949494"><path d="M132.292 56.36h-1.682v-8.2h1.682l2.418 3.364 2.313-3.364h1.682v8.2h-1.682v-5.677l-1.892 2.734h-.946l-1.893-2.629v5.572Zm9.777 0h-1.471v-8.2h1.682v5.362l3.995-5.362h1.471v8.2h-1.682V51l-3.995 5.361Zm9.356 0h-1.682v-8.2h1.682v3.049h3.68V48.16h1.682v8.2h-1.682v-3.574h-3.68v3.574Zm6.939-4.1c0-1.262.421-2.208 1.262-3.05.841-.84 1.787-1.26 3.049-1.26 1.261 0 2.207.42 3.048 1.26a4.21 4.21 0 0 1 1.262 3.05 4.21 4.21 0 0 1-1.262 3.048c-.841.841-1.787 1.262-3.048 1.262-1.262 0-2.208-.42-3.049-1.262a4.21 4.21 0 0 1-1.262-3.048Zm2.418 1.892c.526.525 1.051.736 1.787.736s1.367-.21 1.788-.736c.525-.526.735-1.157.735-1.892 0-.736-.21-1.472-.735-1.893-.526-.525-1.052-.736-1.788-.736s-1.366.21-1.787.736c-.525.526-.736 1.157-.736 1.893 0 .735.211 1.366.736 1.892Zm11.144 2.208h-3.575v-8.2h5.993v1.472h-4.31v1.367h1.892c.946 0 1.682.21 2.313.735.525.526.841 1.157.841 1.998s-.316 1.472-.841 1.997c-.526.42-1.262.631-2.313.631Zm-1.787-3.995v2.523h1.682c.525 0 .841-.105 1.156-.315.316-.21.421-.526.421-.946 0-.42-.105-.736-.421-.946-.315-.21-.631-.316-1.156-.316h-1.682Zm8.095 3.995h-1.682v-8.2h3.574c.841 0 1.577.21 2.103.736.525.42.736 1.051.736 1.787s-.211 1.367-.736 1.787a3.388 3.388 0 0 1-2.103.736h-1.892v3.154Zm0-6.728v1.997h1.787c.421 0 .736-.105.946-.315.21-.21.316-.42.316-.736 0-.315-.106-.63-.316-.736-.21-.105-.525-.315-.946-.315h-1.787v.105Zm7.778 6.728h-1.682v-8.2h1.682v3.049h3.68V48.16h1.682v8.2h-1.682v-3.574h-3.68v3.574Zm8.411 0h-1.787l3.574-8.305h1.577l3.574 8.305h-1.787l-.841-1.892h-3.469l-.841 1.892Zm2.523-6.203-1.262 2.839h2.418l-1.156-2.839Zm6.833 6.413a3.92 3.92 0 0 1-1.261-.21v-1.472c.315.105.631.21.946.21.315 0 .631-.105.841-.21.21-.105.421-.42.631-.946l-3.154-5.782h1.892l2.103 4.1 1.787-4.1h1.787l-3.048 6.413c-.526 1.261-1.472 1.997-2.524 1.997Zm8.515-.21h-1.682v-8.2h1.682v3.26l3.049-3.26h2.103l-3.47 3.785 4.1 4.415h-2.207l-3.575-3.785v3.785Zm8.201 0h-1.367v-8.2h1.682v5.362l3.995-5.362h1.472v8.2h-1.682V51l-4.1 5.361Zm-88.203 13.246h-1.682v-8.2h3.575c.841 0 1.577.21 2.102.736.526.42.736 1.051.736 1.787s-.21 1.367-.736 1.787a3.383 3.383 0 0 1-2.102.736h-1.893v3.154Zm0-6.728v1.998h1.788c.42 0 .735-.106.946-.316.21-.21.315-.42.315-.736 0-.315-.105-.63-.315-.736a2.103 2.103 0 0 0-.946-.21h-1.788Zm5.888 2.628c0-1.262.42-2.208 1.261-3.05.841-.84 1.787-1.26 3.049-1.26 1.261 0 2.208.42 3.049 1.26a4.21 4.21 0 0 1 1.261 3.05 4.21 4.21 0 0 1-1.261 3.048c-.841.841-1.788 1.262-3.049 1.262-1.262 0-2.208-.42-3.049-1.262a4.21 4.21 0 0 1-1.261-3.048Zm2.418 1.892c.525.526 1.051.736 1.787.736s1.366-.21 1.787-.736c.526-.526.736-1.156.736-1.892s-.21-1.472-.736-1.893c-.526-.525-1.051-.736-1.787-.736s-1.367.21-1.787.736c-.526.526-.736 1.157-.736 1.893s.315 1.366.736 1.892Zm11.878 2.419c-1.262 0-2.313-.421-3.154-1.157a4.21 4.21 0 0 1-1.261-3.049c0-1.261.42-2.312 1.261-3.048.841-.841 1.892-1.157 3.154-1.157.841 0 1.577.21 2.208.526v1.682c-.631-.42-1.367-.63-2.208-.63-.736 0-1.472.21-1.998.735-.525.526-.735 1.157-.735 1.892 0 .736.315 1.472.841 1.893.525.525 1.156.736 1.997.736.946 0 1.682-.21 2.313-.736v1.682c-.736.42-1.472.63-2.418.63Zm7.885 0c-1.262 0-2.313-.421-3.154-1.157a4.21 4.21 0 0 1-1.262-3.049c0-1.261.421-2.312 1.262-3.048.841-.841 1.892-1.157 3.154-1.157.841 0 1.577.21 2.207.526v1.682c-.63-.42-1.366-.63-2.207-.63-.736 0-1.472.21-1.998.735-.525.526-.736 1.157-.736 1.892 0 .736.316 1.472.841 1.893.526.525 1.157.736 1.998.736.946 0 1.682-.21 2.313-.736v1.682c-.736.42-1.472.63-2.418.63Zm5.362-.211h-1.472v-8.2h1.682v5.362l3.995-5.362h1.472v8.2h-1.682v-5.361l-3.995 5.361Zm9.041 0h-1.472v-8.2h1.682v5.362l3.994-5.362h1.472v8.2h-1.682v-5.361l-3.994 5.361Zm-73.275-10.302c0-.105.106-.21.211-.21h.21c1.261-.21 2.523-1.472 2.628-2.838 0-.736-.21-1.472-.631-1.893-.105-.105-.105-.315.105-.315.106 0 .106-.105.106-.105 4.1-2.734 7.253-8.095 7.569-8.62h.105c1.156.945 1.367 2.733.315 4.31-.736 1.05-2.418 2.312-4.31 3.364v.63c3.785-.84 5.887-3.574 6.203-3.995h.105c.841 1.367.42 3.26-.946 4.1-1.157.736-3.154 1.157-5.467 1.472 0 .21-.105.42-.105.631 3.679.526 6.413-.946 6.938-1.156h.105c.316 1.682-.525 3.154-2.207 3.469-1.682.315-5.257-.63-5.257-.63-.105.21-.105.42-.21.525 2.418 1.682 5.782 1.472 6.308 1.366 0 0 .105 0 .105.106.105 2.102-1.577 2.628-3.049 2.417-1.261-.21-3.049-1.261-4.205-2.417-.105.21-.315.315-.42.42 1.156 2.418 3.994 3.47 4.941 3.574 0 0 .105.106 0 .106-.631 1.366-1.998 1.892-3.575.84-.946-.525-1.997-1.997-2.628-3.574-.21.105-.315.21-.526.316.316 2.943 2.629 4.94 3.049 5.256v.21c-.736 1.157-2.523 1.157-3.469-.42-.526-.946-.946-2.734-1.051-4.626-.211 0-.421 0-.631.105a.226.226 0 0 1-.21-.21v-2.208h-.106Zm-15.243 0a.226.226 0 0 0-.21-.21h-.21c-1.262-.315-2.523-1.472-2.628-2.838 0-.736.21-1.472.63-1.893.105-.105.105-.315-.105-.315-.105 0-.105-.105-.105-.105-4.1-2.734-7.254-8.095-7.569-8.62h-.105c-1.157.84-1.367 2.733-.316 4.31.736 1.05 2.418 2.312 4.31 3.364v.63c-3.784-.84-5.886-3.574-6.202-3.995h-.105c-.841 1.367-.42 3.26.946 4.1 1.157.736 3.154 1.157 5.467 1.472 0 .21.105.42.105.631-3.68.526-6.413-.946-6.939-1.156h-.105c-.315 1.682.526 3.154 2.208 3.469 1.682.315 5.257-.63 5.257-.63.105.21.105.42.21.525-2.418 1.682-5.782 1.472-6.308 1.366 0 0-.105 0-.105.106-.105 2.102 1.577 2.628 3.049 2.417 1.261-.21 3.048-1.261 4.205-2.417.105.21.315.315.42.42-1.156 2.418-3.995 3.47-4.94 3.574 0 0-.106.106 0 .106.63 1.366 1.997 1.892 3.574.84.946-.525 1.997-1.997 2.628-3.574.21.105.315.21.525.316-.315 2.943-2.628 4.94-3.048 5.256v.21c.736 1.157 2.523 1.157 3.469-.42.526-.946.946-2.734 1.051-4.626.21 0 .42 0 .631.105.105 0 .21-.105.21-.21v-2.208h.105Zm-.21-12.826h2.733c2.313 0 3.47-1.472 3.785-2.733h2.418c.315 1.261 1.366 2.733 3.784 2.733h2.839s.525-.63.63-.946c.421-1.156-.105-1.787-.946-1.787l-1.051.946-1.051-.946c-.841 0-1.367.526-.947 1.787.106.105.21.42.316.526-.946-.105-2.313-.841-2.523-2.313 0 0 .736-1.156.946-1.682.526-1.577-.315-2.313-1.577-2.313l-1.577 1.892-1.682-1.892c-1.261 0-2.102.736-1.472 2.418.21.526.946 1.682.946 1.682-.315 1.472-1.576 2.103-2.523 2.313.105-.21.316-.42.316-.526.42-1.156-.105-1.787-.946-1.787l-1.052.946-1.051-.946c-.841 0-1.367.526-.946 1.787.105.21.63.841.63.841Zm4.521 7.886h2.628c.105 0 .21-.106.21-.21-.526-2.103-1.577-3.785-2.733-4.732.84-.42 1.787-1.576 1.787-2.207-2.838 1.051-8.305-.526-8.83 1.787-.106.526.104 1.262.42 1.472 0-.21.315-.736 1.051-.841 2.523-.42 4.836 2.102 5.256 4.52.105.105.105.21.21.21Zm13.456-5.362c-.525-2.418-6.097-.841-8.83-1.787-.106.736.84 1.787 1.787 2.207-1.052.947-2.103 2.629-2.734 4.731 0 .105.105.21.21.21h2.629c.105 0 .21-.105.21-.105.42-2.418 2.733-4.836 5.256-4.52.736.105 1.052.63 1.052.84.21-.314.42-1.05.42-1.576Zm-6.938 8.62c-1.472-.42-3.26-.42-3.26-.42s-1.787 0-3.258.42c-1.577.525-3.154-.316-3.68-.631-.105-.105-.21 0-.21.105.105.736.736 2.418 3.259 3.049 2.418.525 3.47 3.259 3.785 4.415 0 .105.21.105.315 0 .315-1.156 1.472-3.785 3.785-4.415 2.523-.631 3.153-2.313 3.259-3.05 0-.104-.106-.21-.211-.104-.63.42-2.102 1.156-3.784.63Z"/><path d="M96.232 62.458c.106.105.316.21.526.21.526 0 .946-.42.946-.946 0-.105 0-.21-.105-.316a3.413 3.413 0 0 0-1.367 1.052Z"/><path d="M98.651 60.985c.106.21.21.42.21.736a2.109 2.109 0 0 1-2.102 2.102c-.42 0-.84-.105-1.156-.42-.21.42-.42.84-.526 1.156.526.316 1.051.526 1.682.526a3.275 3.275 0 0 0 3.259-3.259 2.8 2.8 0 0 0-.315-1.261c-.21.21-.631.315-1.052.42Zm-6.623 2.523c-.315.21-.736.315-1.156.315a2.109 2.109 0 0 1-2.103-2.102c0-.21.105-.526.21-.736a3.887 3.887 0 0 1-1.156-.526 2.8 2.8 0 0 0-.315 1.261 3.275 3.275 0 0 0 3.259 3.26c.63 0 1.156-.21 1.682-.526 0-.21-.21-.526-.42-.946Z"/><path d="M90.03 61.406c0 .105-.105.21-.105.316 0 .525.42.946.946.946.21 0 .42-.105.526-.21-.316-.421-.736-.841-1.367-1.052Z"/><path fill-rule="evenodd" clip-rule="evenodd" d="M109.69 42.8c.105 0 .105 0 0 0-1.156-.632-.841-1.368-1.472-1.998-.736-.631-1.787-.631-1.997-.736-1.262-.105-1.577.105-1.682.21-.21.21-.631.63-.841 1.472-.21.84-.105 1.156.105 1.261h.105c.105.105.631-.105.631-.105.315.105.841.316.736 1.472-.105 1.472-2.208 1.787-2.839 1.892l-.105.21c.946 0 3.68-.315 3.995-1.681.421-1.367-.21-1.893-.21-1.893-.21-.21-.946-.21-1.367-.105 0 0-.315-.315 0-1.051.421-1.262.631-1.262 1.577-1.157.105 0 .21 0 .315.105.631.421.526 1.262.736 1.893.421 1.892 1.472 1.892 2.208 2.102.105 0 .105-.105.105-.105-.525-.42-1.156-1.051-1.051-1.682 0 0 .105-.105.105 0 0-.105.421.105.946-.105Zm-31.853 0c-.106 0-.106 0 0 0 1.05-.631.736-1.262 1.471-1.893.736-.63 1.788-.63 1.998-.736 1.261-.105 1.577.105 1.682.21.21.21.63.631.841 1.472.21.841.105 1.157-.105 1.262h-.105c-.105 0-.631-.21-.631-.21-.315.105-.841.315-.736 1.471.21 1.577 2.313 1.893 2.839 1.893l.105.21c-.947 0-3.68-.316-3.995-1.682-.42-1.367.21-1.892.21-1.892.21-.21.946-.21 1.367-.106 0 0 .315-.315 0-1.05-.316-1.367-.526-1.262-1.472-1.262-.105 0-.21 0-.316.105-.63.42-.525 1.261-.63 1.787-.42 1.892-1.472 1.892-2.208 2.102-.105 0-.105-.105-.105-.105.526-.42 1.156-1.05 1.051-1.682 0 0-.105-.105-.105 0-.105.105-.63.316-1.156.105Z"/><path d="m105.8 70.972-1.261 1.052-1.262-.946c-.526.21-.841.736-.946 1.261-.736.105-2.733-.315-2.523-.63 2.208-3.05.525-4.942-1.472-4.837-.315.421-1.051 1.052-1.787 1.472-1.682.841-2.418 1.472-2.734 1.682-.21-.21-1.05-.84-2.733-1.682-.84-.42-1.472-.946-1.787-1.471-1.997 0-3.574 1.787-1.367 4.835.21.316-1.892.736-2.838.631-.21-.315-.63-.42-1.051-.42-.21 0-.316 0-.526.105l-3.89-3.68v-.105c.21-.42-.105-.84-.315-.84.21-.316.21-1.578-1.157-1.893 0 .21.106.84.106.84s-1.052-.525-1.577-.104c-.42.525.21 1.577.21 1.577h-.841c.42 1.366 1.682 1.261 1.997.946 0 .21.42.525.841.315l.21-.105 3.785 3.574c-.21.21-.21.526-.21.947a1.35 1.35 0 0 0 1.051 1.05c.42.106.736 0 1.052-.21l.946.947c.105.105.21.105.315.105.21 0 .42-.21.42-.42 0-.106-.105-.21-.105-.21l-1.05-.947c.84-.526 2.312-.946 3.573-.946.21 0 .316-.21.21-.42-.525-1.367.632-2.419 1.893-1.578.315.21.526.42.841 1.052-1.156.525-3.364 2.733-3.47 3.259a3.216 3.216 0 0 0 1.578 1.892c-.316-.63-.21-1.997 1.682-2.944-1.157 1.157-1.577 2.208-1.262 3.154.316.841 1.157 1.262 1.893 1.262-.526-1.472-.316-2.839.736-3.89-.421 1.156-1.052 4.73.735 5.362 1.682-.631 1.157-4.206.736-5.362.946 1.051 1.157 2.418.736 3.89.63 0 1.577-.42 1.892-1.262.316-.946-.105-1.997-1.261-3.154 1.892.947 1.997 2.313 1.682 2.944 0 0 1.261-.42 1.577-1.892-.105-.526-2.208-2.629-3.364-3.154.315-.631.526-.841.84-1.052 1.262-.84 2.524.21 1.893 1.577-.105.21 0 .421.21.421 1.472 0 3.154.526 3.89 1.261.421.631 1.262 1.052 2.208 1.052 1.051-.105 1.892-.946 1.997-1.892.211-1.157-.315-1.998-.946-2.419Z"/><path d="m105.379 70.237-.841-.946-.841.946.841.736.841-.736Z"/></g><defs><clipPath id="a"><path fill="#fff" transform="translate(73 39.75)" d="M0 0h153.487v41H0z"/></clipPath></defs></svg>