<svg width="300" height="120" viewBox="0 0 300 120" fill="none" xmlns="http://www.w3.org/2000/svg"><g clip-path="url(#a)" fill-rule="evenodd" clip-rule="evenodd" fill="#949494"><path d="M176.718 50.73c0-.71-.631-1.341-1.421-1.341h-1.974c-.789 0-1.421.631-1.421 1.341l.08 21.159c0 .71.552 1.341 1.341 1.341h1.974c.79 0 1.421-.631 1.421-1.341V50.73Zm2.524.632v.947c0 .473.316.79.79.79h13.894c.632 0 1.184-.552 1.184-1.184v-1.659c0-.631-.552-1.263-1.184-1.183 0 0-13.421 1.342-13.894 1.42-.474 0-.79.395-.79.869ZM167.955 73.23c-3.474 0-5.606-2.604-5.606-5.525v-8.448h-1.027c-.473 0-.947-.474-.947-.947v-1.422c0-.552.473-.948.947-.948h1.027v-5.21c0-.71.553-1.341 1.342-1.341h1.974c.71 0 1.263.631 1.263 1.341v5.21h3.079c.552 0 .947.396.947.948v1.422c0 .472-.394.947-.947.947h-3.079v7.816c0 1.5.947 2.606 2.605 2.606h.316c.553 0 1.027.394 1.027 1.026v1.5c0 .553-.473 1.027-1.027 1.027l-1.894-.001Zm-23.683-8.92c0-4.5-2.684-9-8.764-9-5.605 0-8.684 4.42-8.684 9 0 4.894 3.316 9.237 8.763 9.237 3.711 0 7.342-1.895 8.053-5.131.078-.394-.237-1.027-.79-1.027h-2.684a1.26 1.26 0 0 0-1.105.632c-.79 1.105-1.895 1.658-3.474 1.658-2.368 0-3.948-1.817-4.106-3.869h11.29c1.027 0 1.501-.552 1.501-1.5Zm-12.711-1.894c.158-1.974 1.894-3.474 3.947-3.474 2.132 0 3.869 1.5 4.106 3.474h-8.053Zm64.027 1.894c0-4.5-2.684-9-8.764-9-5.605 0-8.683 4.42-8.683 9 0 4.894 3.316 9.237 8.762 9.237 3.711 0 7.342-1.895 8.053-5.131.079-.394-.237-1.027-.789-1.027h-2.684a1.26 1.26 0 0 0-1.106.632c-.79 1.105-1.895 1.658-3.553 1.658-2.289 0-3.868-1.817-4.026-3.869h11.29c1.026 0 1.5-.552 1.5-1.5Zm-12.711-1.894c.158-1.974 1.894-3.474 3.947-3.474 2.132 0 3.869 1.5 4.027 3.474h-7.974Z"/><path d="M158.559 49.626h-36.474a1.5 1.5 0 0 0-1.5 1.5l.079 14.37s-7.816-14.211-8.21-14.923c-.395-.71-1.263-1.342-2.368-1.342h-3a1.5 1.5 0 0 0-1.5 1.5v21c0 .87.631 1.5 1.5 1.5h1.894c.868 0 1.5-.63 1.5-1.5l-.078-14.683s7.894 14.29 8.289 14.842c.395.789 1.184 1.342 2.289 1.342h2.764c.868 0 1.499-.632 1.499-1.5V53.18h33.316c.552 0 1.026-.474 1.026-1.027v-1.5c0-.553-.473-1.027-1.026-1.027Z"/><path d="M152.639 58.782c1.579 0 2.763.553 3.237 1.58.158.474.552.552 1.106.552h2.21c.316 0 .79-.316.79-.789 0-2.526-3.079-4.815-7.342-4.815-4.422 0-7.342 2.13-7.342 5.447 0 2.605 2.052 4.105 4.5 4.816 1.184.237 3.158.71 4.105 1.026.947.237 1.894.553 1.894 1.421 0 1.42-1.421 1.816-3.079 1.816-1.5 0-3-.632-3.395-1.737-.236-.631-.71-.71-1.342-.71h-2.21c-.395 0-.869.394-.869.868v.316c0 2.448 3.316 4.974 7.895 4.974 3.158 0 7.658-1.342 7.658-5.606 0-2.527-1.658-4.263-4.421-4.973-1.027-.237-3.552-.948-4.105-1.028-1.027-.316-1.974-.631-1.974-1.42 0-1.342 1.184-1.738 2.684-1.738Z"/></g><defs><clipPath id="a"><path fill="#fff" transform="translate(105 49)" d="M0 0h91v25H0z"/></clipPath></defs></svg>