<svg width="300" height="120" viewBox="0 0 300 120" fill="none" xmlns="http://www.w3.org/2000/svg"><g clip-path="url(#a)" fill="#949494"><path fill-rule="evenodd" clip-rule="evenodd" d="m178.785 56.36.549 10.392-4.811 2.339.123 2.339h21.19l-.117-2.21-5.624-2.468-.555-10.523 5.226-2.597-.151-2.859h-21.843l.137 2.599 5.876 2.988Zm-22.94-.279h-3.206l.195 3.831 3.21.002c1.7.064 2.458-1.397 2.027-2.34 0 0-.162-1.428-2.226-1.493Zm.393 7.438h-3.205l.196 3.6h3.37c1.276.033 2.192-.873 1.914-2.022 0 0-.081-1.578-2.275-1.577Zm9.18 7.946s4.088.422 4.879-4.566c0 0 .326-3.44-3.306-5.456 3.959-1.101 3.24-5.713 3.24-5.713-1.196-5.24-6.769-4.94-6.769-4.94h-26.976l.164 2.599 5.029 2.983.479 10.534-4.714 2.203.165 2.339 27.809.017Zm-44.491-2.844h.628c1.444 0 2.554-1.164 2.479-2.599l-.496-9.404c-.076-1.435-1.309-2.598-2.754-2.598h-.628c-1.445 0-2.554 1.163-2.479 2.598l.496 9.404c.076 1.435 1.309 2.599 2.754 2.599Zm-5.313 2.827h11.609c5.057 0 8.942-4.072 8.677-9.093l-.13-2.469c-.265-5.022-4.58-9.093-9.636-9.093h-11.609c-5.057 0-8.941 4.072-8.676 9.093l.129 2.469c.266 5.021 4.58 9.093 9.636 9.093Z" stroke="#949494" stroke-width=".998" stroke-miterlimit="2.613"/><path d="M191.336 58.873c0 .497.202.948.527 1.273a1.798 1.798 0 0 0 3.073-1.273 1.8 1.8 0 0 0-3.6 0Zm1.801-.213h-.4v-.683h-.333v1.807l.928.001a.629.629 0 0 0 .554-.32.493.493 0 0 0 0-.49.6.6 0 0 0-.343-.265l.473-.765h-.436l-.443.715Zm-.4.334c.199 0 .369.012.592.012h.029l.001-.002c.126.024.202.074.236.134a.157.157 0 0 1 .021.082.207.207 0 0 1-.023.088c-.042.078-.136.14-.269.143h-.587v-.458Zm-.627.905a1.45 1.45 0 1 1 2.051 0 1.44 1.44 0 0 1-1.025.425c-.192 0-.382-.038-.558-.111a1.42 1.42 0 0 1-.468-.314Z"/></g><defs><clipPath id="a"><path fill="#fff" transform="translate(105 50)" d="M0 0h92v22H0z"/></clipPath></defs></svg>