<svg width="300" height="120" viewBox="0 0 300 120" fill="none" xmlns="http://www.w3.org/2000/svg"><g clip-path="url(#a)" fill="#949494"><path fill-rule="evenodd" clip-rule="evenodd" d="M90 59.993c0-6.535 5.302-11.852 11.852-11.852v4.284a7.57 7.57 0 0 0-7.567 7.568 7.577 7.577 0 0 0 7.582 7.583 7.568 7.568 0 0 0 7.568-7.599h4.284c0 6.581-5.301 11.883-11.852 11.883A11.853 11.853 0 0 1 90 59.993Z"/><path d="M96.628 59.992a5.262 5.262 0 0 1 5.256-5.256 5.262 5.262 0 0 1 5.255 5.256 5.252 5.252 0 0 1-5.255 5.256c-2.898.015-5.256-2.343-5.256-5.256Zm8.908-6.657a3.026 3.026 0 0 1 3.021-3.02 3.026 3.026 0 0 1 3.021 3.02 3.026 3.026 0 0 1-3.021 3.021 3.026 3.026 0 0 1-3.021-3.02Zm92.612 2.989-.37 1.803c-.863 3.915-1.172 5.178-1.927 9.062l-.169.14-2.374.076-.123-.17.955-4.007.278-1.31c-1.017-.015-2.035-.046-3.052-.046-.801 0-1.402.016-2.019.031-.354 1.572-.647 2.96-1.094 5.286l-.17.14-2.373.076-.123-.17.955-4.007.37-1.741c.632-2.744.74-3.36 1.11-5.888l.169-.17c1.094-.138 1.341-.184 2.466-.415l.123.17-.246 1.155-.37 1.803-.385 1.696c.863.015 1.71.03 2.574.03.909 0 1.51-.015 2.512-.03.323-1.495.462-2.312.74-4.239l.169-.17a23.558 23.558 0 0 0 2.466-.415l.108.17-.2 1.14Zm-28.605 5.225c.169-.678.277-1.356.277-2.004 0-2.358-1.526-2.758-2.389-2.758-3.668 0-4.146 5.718-4.146 6.58 0 1.881 1.125 2.698 2.389 2.698 2.512-.016 3.437-2.59 3.869-4.516Zm2.435.74c-.509 2.019-1.942 5.502-6.35 5.502-3.113 0-4.824-1.618-4.824-4.793 0-.416.031-.863.092-1.356l.047-.355c.847-5.271 3.128-10.28 8.153-10.326.662-.016 2.019-.077 2.943-.293l-.323 2.096c-.925.231-2.405.37-3.268.37-1.063.015-1.803.416-2.312.91a4.366 4.366 0 0 0-.601.755 5.391 5.391 0 0 0-.339.631 7.237 7.237 0 0 1 2.235-.339c3.067 0 4.886 1.711 4.886 4.732.015.801-.124 1.634-.339 2.466Zm30.192-2.158c.555-.478.878-.786 1.649-1.526.817-.786 2.79-2.836 3.159-3.236l.262-.14h2.682l.062.217c-.231.215-.355.308-1.279 1.094-.37.308-.602.54-1.048.94l-3.037 2.79 3.607 6.874-.139.184-2.589.078-.185-.14c-.601-1.448-.771-1.772-1.603-3.467l-1.634-3.313c-.508 2.296-.832 3.73-1.402 6.735l-.154.138-2.374.077-.108-.17.956-4.006.37-1.742c.632-2.743.74-3.36 1.109-5.887l.17-.17a23.585 23.585 0 0 0 2.466-.416l.123.17-.246 1.155-.37 1.804-.447 1.957Zm-20.606 4.239c-.262.2-.509.447-.771.6-.601.37-1.403.54-2.035.54-2.126 0-2.743-1.803-2.743-2.913 0-.108.046-3.129 2.497-4.809 1.387-.94 2.897-.986 3.683-.986.355 0 .694.016 1.048.016l-1.679 7.552Zm4.469-9.11-.123-.184-3.237-.016c-2.158 0-5.178.14-7.351 2.698-.987 1.171-1.865 3.175-1.865 5.024 0 2.913 1.942 4.608 4.331 4.608 1.988 0 3.02-.863 3.421-1.186l-.17.94.108.17 2.204-.047.17-.17c.462-2.79.632-3.668 1.449-7.274l1.063-4.562Zm-61.694 12.47c-2.543 0-6.196-.802-4.87-6.674.493-2.204 2.019-6.859 8.261-6.859 6.087 0 5.178 4.978 4.808 6.735-1.109 4.963-4.146 6.797-8.199 6.797Zm.832-2.59c1.788 0 2.62-1.865 3.16-4.254.385-1.68.801-4.146-1.357-4.146-1.834 0-2.65 1.757-3.19 4.146-.509 2.22-.616 4.254 1.387 4.254Zm14.041 2.296c-1.171 0-3.098 0-3.915.031l-.139-.138c.232-.787.771-2.883 1.357-5.456.462-2.081.878-3.9 1.048-4.732-.987.03-2.497.03-3.237.046l-.138-.17c.2-.631.462-1.726.631-2.388l.232-.124c.647.031 3.144.047 5.132.047 2.42 0 4.778-.047 5.271-.077l.169.123c-.185.586-.493 1.788-.662 2.389l-.231.154c-.971-.015-1.696-.015-3.098-.015-.124.539-.494 2.096-1.125 4.885a150.943 150.943 0 0 0-1.095 5.256l-.2.17Zm13.563-10.017c-.786 0-1.665.03-2.066.03-.123.54-.601 2.543-1.032 4.5-.524 2.297-.987 4.455-1.156 5.349l-.231.154c-1.203 0-2.728 0-3.961.03l-.139-.138a465.75 465.75 0 0 0 1.51-6.458c.617-2.728 1.156-5.425 1.326-6.18l.2-.17c1.326 0 2.651.047 5.918.047 2.559 0 5.04-.077 6.366-.093l.108.154c-.17.663-.91 3.807-1.619 6.936a256.284 256.284 0 0 0-1.233 5.733l-.185.154c-1.048 0-2.974 0-3.991.031l-.108-.17c.216-.847.693-2.835 1.248-5.27.416-1.85.848-3.838 1.002-4.562-.355-.062-1.218-.077-1.957-.077Z"/></g><defs><clipPath id="a"><path fill="#fff" transform="translate(90 48.14)" d="M0 0h120v23.72H0z"/></clipPath></defs></svg>