<svg width="45" height="45" viewBox="0 0 45 45" fill="none" xmlns="http://www.w3.org/2000/svg"><g clip-path="url(#a)"><path d="M20.942 8.525c1.165-.185 2.657-.197 3.229-.032 1.02.296 1.379 1.16.796 1.917-.36.46-.864.712-2.187 1.085-2.456.679-4.249 1.665-5.774 3.166-1.121 1.085-1.739 2.115-1.918 3.177-.056.296-.056 4 0 8.218.068 5.292.057 7.768-.022 7.965-.191.493-.549.394-1.547-.383-2.815-2.236-4.643-5.172-5.382-8.678-.247-1.206-.247-3.879.011-4.974.728-3.189 2.601-6.18 5.09-8.13 2.3-1.807 4.765-2.872 7.704-3.33Zm9.43 2.663c.112-.11.257-.197.336-.197.235 0 1.21.81 2.118 1.786 3.263 3.484 4.43 6.924 3.803 11.175-.371 2.532-1 4.416-2.076 6.3-.627 1.074-2.343 2.772-3.745 3.703-1.838 1.227-4.17 2.235-6.043 2.608-.965.197-2.669.23-2.993.066-.281-.154-.281-.614.011-1.063.28-.45.37-.493 1.961-.9 1.862-.47 2.58-.832 3.42-1.74 1.234-1.305 2.557-3.496 2.971-4.888.18-.58.18-1.27.102-8.272-.057-4.196-.09-7.79-.08-7.997.023-.209.113-.46.215-.58Zm-8.22 1.348c.26-.164.55-.23 1.032-.23.874 0 1.334.263 1.66.963.27.603.27.615.403 9.336.045 3.1.124 5.73.18 5.838.112.264.672.527.92.44.336-.121 1.4-1.074 2.106-1.885.372-.428.73-.778.808-.778.259 0 .169.81-.202 1.83-.482 1.347-1.233 2.716-1.928 3.55-1.391 1.643-3.812 2.541-4.9 1.818-.853-.548-.93-.997-1.133-6.124-.135-3.594-.056-11 .124-12.677.124-1.073.436-1.775.93-2.081Zm-5.28 9.805c1.558-.767 3.386.055 3.789 1.688.236.953-.09 1.873-.897 2.542-.796.679-1.806.81-2.747.372-.303-.142-.695-.394-.863-.57-1.178-1.226-.808-3.287.718-4.032ZM22.5 40.5c-9.942 0-18-8.058-18-18s8.058-18 18-18 18 8.058 18 18-8.058 18-18 18Zm0-1.8c8.947 0 16.2-7.253 16.2-16.2S31.447 6.3 22.5 6.3 6.3 13.553 6.3 22.5s7.253 16.2 16.2 16.2Z" fill="#5A5A5A"/></g><defs><clipPath id="a"><path fill="#fff" d="M0 0h45v45H0z"/></clipPath></defs></svg>