<svg width="136" height="19" viewBox="0 0 136 19" fill="none" xmlns="http://www.w3.org/2000/svg"><g clip-path="url(#a)" fill="#5A5A5A"><path d="M82.667 3.896c-.32-.326-.48-.793-.48-1.401V.125h.77v2.34c0 .824.352 1.236 1.056 1.236.703 0 1.053-.412 1.049-1.236V.125h.758v2.37c0 .608-.159 1.075-.476 1.401-.318.327-.763.49-1.337.49-.573 0-1.02-.163-1.34-.49Zm8.75-3.771v4.2h-.634l-2.288-2.844v2.844h-.764v-4.2h.634l2.285 2.844V.125h.767Zm1.944 0h.77v4.2h-.77v-4.2Zm6.484 0-1.808 4.2h-.759l-1.813-4.2h.835l1.377 3.24 1.394-3.24h.774Zm4.378 3.546v.651h-3.11V.125h3.03v.651h-2.259v1.092h2.003v.643h-2.003v1.158l2.339.002Zm4.406.655-.848-1.23c-.035 0-.091.006-.16.006h-.937v1.224h-.77v-4.2h1.707c.322-.008.642.053.94.18.25.106.464.285.613.515.146.24.22.517.213.798.008.29-.071.575-.228.817-.16.234-.389.412-.654.51l.954 1.38h-.83Zm-.276-3.324c-.174-.144-.428-.217-.764-.217h-.902v1.674h.902c.336 0 .59-.073.764-.22a.755.755 0 0 0 .202-.28.754.754 0 0 0 .059-.34.763.763 0 0 0-.263-.618h.002Zm3.083 3.246a1.916 1.916 0 0 1-.707-.366l.266-.606c.188.146.4.258.625.333.239.085.49.128.744.129.306 0 .536-.05.691-.15a.453.453 0 0 0 .166-.167.471.471 0 0 0 .062-.229.382.382 0 0 0-.128-.298.896.896 0 0 0-.322-.186 7.66 7.66 0 0 0-.535-.15 6.052 6.052 0 0 1-.767-.228 1.261 1.261 0 0 1-.503-.357.962.962 0 0 1-.211-.657A1.127 1.127 0 0 1 111 .683c.14-.203.336-.36.563-.453.291-.12.604-.177.918-.169.252 0 .503.031.748.093.225.057.439.151.633.28l-.243.606a2.398 2.398 0 0 0-.569-.247 2.108 2.108 0 0 0-.574-.083c-.305 0-.531.052-.68.156a.487.487 0 0 0-.184.575.387.387 0 0 0 .097.133.934.934 0 0 0 .323.18c.131.044.308.094.534.15.257.056.511.132.758.225.195.076.369.198.507.357a.947.947 0 0 1 .211.651c.003.224-.061.444-.184.63a1.267 1.267 0 0 1-.565.45c-.294.12-.609.177-.926.168a3.132 3.132 0 0 1-.931-.137Zm4.199-4.123h.771v4.2h-.771v-4.2Zm3.566.659h-1.377V.125h3.521v.66h-1.377v3.54h-.767V.785Zm5.284 2.06v1.481h-.771v-1.47l-1.63-2.73h.826l1.216 2.046 1.226-2.046h.76l-1.627 2.719Zm-41.467 8.464a2.055 2.055 0 0 1-.8-.775 2.25 2.25 0 0 1 0-2.215c.192-.327.469-.595.8-.773a2.49 2.49 0 0 1 2.29 0c.33.178.607.444.799.77a2.26 2.26 0 0 1 0 2.22 2.06 2.06 0 0 1-.8.773 2.489 2.489 0 0 1-2.289 0Zm1.892-.595c.218-.124.399-.306.521-.528a1.609 1.609 0 0 0 0-1.518 1.357 1.357 0 0 0-.521-.528 1.573 1.573 0 0 0-1.494 0 1.35 1.35 0 0 0-.521.528 1.606 1.606 0 0 0 0 1.518c.122.222.302.405.521.528a1.574 1.574 0 0 0 1.494 0Zm3.902-2.733v1.28h2.003v.66h-2.003v1.608h-.771V7.325h3.03v.651l-2.259.005Zm8.998 2.575h-2.075l-.409.972h-.795l1.864-4.202h.76l1.872 4.201h-.806l-.411-.97Zm-.255-.612-.783-1.837-.776 1.837h1.559Zm5.544 1.584-.847-1.226a1.38 1.38 0 0 1-.16.006h-.936v1.224h-.775V7.325h1.707a2.27 2.27 0 0 1 .94.18c.25.107.464.286.613.516.147.24.221.517.214.798.007.29-.072.575-.229.817-.16.235-.389.413-.654.51l.954 1.38h-.827Zm-.275-3.324c-.175-.144-.429-.217-.765-.217h-.901V9.66h.901c.336 0 .59-.072.765-.218a.768.768 0 0 0 .26-.622.749.749 0 0 0-.263-.617h.003Zm3.506-.217h-1.377v-.66h3.521v.66h-1.377v3.54h-.771l.004-3.54Zm3.557-.661h.77v4.201h-.77v-4.2Zm3.489.655v1.28h2.004v.66h-2.004v1.608h-.771V7.325h3.03v.651l-2.259.005Zm3.835-.655h.77v4.201h-.77v-4.2Zm3.505 3.983a2.045 2.045 0 0 1-.794-.772 2.267 2.267 0 0 1 0-2.22c.191-.326.467-.593.797-.771a2.47 2.47 0 0 1 2.066-.099 1.9 1.9 0 0 1 .711.522l-.499.474a1.442 1.442 0 0 0-1.108-.492 1.534 1.534 0 0 0-.764.186 1.34 1.34 0 0 0-.527.525 1.618 1.618 0 0 0 0 1.524c.124.222.306.404.527.525.235.128.498.192.764.186a1.423 1.423 0 0 0 1.108-.497l.499.48a1.897 1.897 0 0 1-.714.522 2.367 2.367 0 0 1-.934.18 2.317 2.317 0 0 1-1.132-.273Zm4.36-3.983h.77v4.201h-.77v-4.2Zm5.407 3.23h-2.075l-.409.972h-.794l1.867-4.202h.759l1.873 4.201h-.806l-.415-.97Zm-.255-.612-.783-1.837-.775 1.837h1.558Zm2.834-2.618h.771v3.54H136v.661h-2.938v-4.2Zm-50.839 7.202h.77v4.201h-.77v-4.2Zm6.407 0v4.201h-.633l-2.287-2.847v2.845h-.765v-4.199h.634l2.289 2.843v-2.843h.762Zm2.786.661H90.04v-.66h3.52v.66h-1.376v3.54h-.77l.003-3.54Zm6.669 2.887v.65h-3.112v-4.198h3.03v.651h-2.26v1.092h2.004v.642h-2.003v1.159l2.341.004Zm1.688-3.548h.772v3.541h2.169v.66h-2.938l-.003-4.2Zm4.381 0h.771v3.541h2.169v.66h-2.938l-.002-4.2Zm4.381 0h.77v4.201h-.77v-4.2Zm5.554 2.053h.729v1.674a2.303 2.303 0 0 1-.747.396c-.283.092-.58.139-.878.138a2.342 2.342 0 0 1-1.143-.279 2.056 2.056 0 0 1-.8-.77 2.256 2.256 0 0 1 0-2.22 2.04 2.04 0 0 1 .803-.772c.355-.19.751-.285 1.153-.279.324-.005.646.055.948.174.276.11.522.285.718.51l-.487.48a1.556 1.556 0 0 0-1.144-.48 1.601 1.601 0 0 0-.779.186 1.35 1.35 0 0 0-.534.522c-.131.234-.197.5-.192.769a1.49 1.49 0 0 0 .192.756c.127.222.311.404.534.527.237.131.504.197.774.193a1.67 1.67 0 0 0 .853-.216V16.58Zm5.684 1.495v.65h-3.113v-4.198h3.03v.651h-2.258v1.092h2.004v.642h-2.004v1.159l2.341.004Zm5.375-3.548v4.201h-.634l-2.284-2.847v2.845h-.765v-4.199h.634l2.284 2.843v-2.843h.765Zm2.73 3.983a2.03 2.03 0 0 1-.794-.772 2.268 2.268 0 0 1 0-2.22c.191-.326.467-.593.797-.771a2.312 2.312 0 0 1 1.135-.279c.319-.004.635.057.93.18.274.115.518.294.712.522l-.498.474a1.45 1.45 0 0 0-1.109-.492 1.536 1.536 0 0 0-.764.186 1.35 1.35 0 0 0-.528.524 1.63 1.63 0 0 0 0 1.525c.124.221.307.403.528.525.235.127.498.191.764.186a1.434 1.434 0 0 0 1.109-.498l.498.48a1.896 1.896 0 0 1-.715.522 2.361 2.361 0 0 1-.933.18 2.31 2.31 0 0 1-1.132-.273Zm7.465-.435v.65h-3.113v-4.198h3.03v.651h-2.258v1.092h2.004v.642h-2.004v1.159l2.341.004ZM39.66.125h-3.9v18.598h3.9V.125ZM60.902 12.37c1.588 0 2.876-1.305 2.876-2.914 0-1.61-1.288-2.914-2.876-2.914-1.589 0-2.877 1.305-2.877 2.914 0 1.61 1.288 2.914 2.877 2.914ZM10.46 0a10.398 10.398 0 0 0-7.397 3.107A10.673 10.673 0 0 0 0 10.603v8.125h3.893v-8.176c.217-4.092 2.942-6.656 6.572-6.656s6.354 2.565 6.572 6.656v8.176h3.888v-8.13a10.674 10.674 0 0 0-3.066-7.494A10.398 10.398 0 0 0 10.46 0Z"/></g><defs><clipPath id="a"><path fill="#fff" d="M0 0h136v19H0z"/></clipPath></defs></svg>