<svg width="117" height="37" viewBox="0 0 117 37" fill="none" xmlns="http://www.w3.org/2000/svg"><g clip-path="url(#a)" fill="#5A5A5A"><path d="M28.92 11.425h8.366l.273 8.207h.106l3.477-8.207h8.345l-2.993 15.002h-5.057l2.36-11.788h-.128l-5.267 11.788h-4.697l-.466-11.788h-.148l-2.359 11.788h-4.804l2.992-15.002Zm32.15 9.429h.338c1.58 0 2.465-1.756 2.465-3.063 0-.964-.547-1.693-1.538-1.693h-.316l-.949 4.756Zm-4.193-4.756h-.315c-1.497 0-2.508 1.606-2.508 3.022 0 .876.527 1.733 1.54 1.733h.335l.948-4.755Zm-2.359 10.587.464-2.403H53.97c-3.878 0-5.29-2.226-5.29-4.455 0-3.3 2.614-7.159 7.755-7.159h.886l.441-2.25h5.65l-.443 2.25h.884c2.065 0 5.393.493 5.393 4.48 0 3.492-2.464 7.134-7.5 7.134h-1.118l-.463 2.403h-5.647Zm31.553-15.26-.885 4.437h-4.974l-2.106 10.565H72.46l2.107-10.565h-4.974l.885-4.437h15.594Zm6.911 0-1.707 8.57h.084l5.439-8.57h6.594l-2.991 15.002h-5.648l1.685-8.401h-.084l-5.414 8.4h-6.596l2.99-15.001h5.648Zm14.793 20.655.803-4.252 7.902 2.417-8.705 1.835Z"/><path d="M105.901 28.797H24.259c-1.508 0-2.164 1.701-2.797 3.347-.221.573-.569 1.475-.835 1.847-.482-.489-.835-2.825-.973-3.745l-.077-.51c-.486-3.16-.924-6.494-1.347-9.717C16.378 5.92 15.5.984 12.924.935c-3.23-.062-4.38 5.76-7.787 23.037l-.446 2.257c-.506 2.568-1.657 2.568-2.148 2.568H1.01L.63 31.02h1.914c1.282 0 3.545-.566 4.292-4.353l.445-2.258c2.101-10.652 4.087-20.7 5.49-21.203 1.219 1.32 2.414 10.41 3.292 17.106.427 3.237.865 6.583 1.356 9.768l.075.5c.381 2.549.856 5.72 3.207 5.72 1.508 0 2.164-1.7 2.797-3.346.243-.63.637-1.647.91-1.934h81.115l.379-2.223Z"/></g><defs><clipPath id="a"><path fill="#fff" transform="translate(0 .5)" d="M0 0h117v36H0z"/></clipPath></defs></svg>