<svg width="300" height="120" viewBox="0 0 300 120" fill="none" xmlns="http://www.w3.org/2000/svg"><path d="M89.047 72.598H213.21V50.43H89.047v22.168Z" fill="#949494"/><path d="M111.348 71.95h101.266V51.09H111.348v20.86Zm-21.648 0h20.844V51.09H89.699v20.86Z" fill="#fff"/><path d="M90.36 71.29h19.524V51.75H90.359v19.54Z" fill="#fff"/><path d="M120.041 56.092c.435-.099.804-.15 1.086-.15.514 0 .973.117 1.372.348.393.228.702.58.921 1.041.222.474.333.996.333 1.552 0 .795-.231 1.452-.687 1.95-.459.498-.987.738-1.614.738-.18 0-.406-.015-.664-.045a20.66 20.66 0 0 1-.747-.12v-5.314Zm3.79-.945c-.711-.255-1.689-.387-2.905-.387h-5.11v.75h.7c.453 0 .78.123 1.002.372.081.096.216.408.216 1.452v8.732c0 .951-.102 1.257-.165 1.356-.207.312-.552.465-1.053.465h-.7v.754h6.14v-.754h-.702c-.451 0-.775-.12-.985-.369-.087-.096-.228-.41-.228-1.452v-3.688c.336.072.669.13.984.171.385.048.745.072 1.072.072 1.359 0 2.43-.366 3.186-1.092.756-.726 1.138-1.68 1.138-2.833 0-.852-.253-1.602-.754-2.226a4.116 4.116 0 0 0-1.836-1.323Zm15.882-.468h-.192v.75h.693c.451 0 .778.12.997.372.084.096.228.417.228 1.452v5.452c0 1.399-.126 2.395-.369 2.968-.237.555-.693 1.02-1.351 1.383-.663.366-1.431.552-2.28.552-.657 0-1.218-.117-1.662-.348-.444-.228-.787-.519-1.021-.867-.237-.351-.402-.855-.492-1.5a12.516 12.516 0 0 1-.144-1.77v-5.87c0-.888.114-1.242.21-1.383.198-.297.528-.441 1.009-.441h.699v-.75h-6.14v.75h.691c.438 0 .753.108.939.32.132.151.288.535.288 1.504v5.266c0 1.663.108 2.77.33 3.385.33.897.9 1.62 1.695 2.151.792.531 1.954.798 3.46.798 1.383 0 2.499-.279 3.316-.83.816-.553 1.371-1.23 1.653-2.011.276-.762.414-1.84.414-3.205v-5.455c0-.936.108-1.239.174-1.338.249-.396.591-.585 1.05-.585h.693v-.75h-.192m8.672 1.392c.558-.108 1.017-.165 1.35-.165.802 0 1.453.246 1.936.732.486.492.726 1.116.726 1.912 0 .807-.297 1.455-.903 1.977-.606.522-1.534.79-2.752.79-.051 0-.117-.004-.219-.007-.036 0-.084-.003-.138-.003v-5.236Zm7.697 11.285c-.432-.279-.967-.86-1.585-1.728l-2.628-3.634c1.029-.27 1.815-.699 2.334-1.284a3.35 3.35 0 0 0 .861-2.286c0-.82-.255-1.537-.756-2.13a3.823 3.823 0 0 0-1.821-1.213c-.696-.216-1.779-.324-3.223-.324h-5.101v.75h.693c.454 0 .778.123.997.372.087.096.228.411.228 1.452v8.732c0 .948-.111 1.254-.174 1.353-.207.315-.549.468-1.051.468h-.693v.75h6.14v-.75h-.715c-.444 0-.762-.12-.975-.369-.087-.096-.228-.41-.228-1.452V62.33c.033.003.069.006.102.006.087.003.18.003.276.003.192 0 .432-.006.708-.015l4.525 6.233.057.078h3.91v-.73l-.174-.018c-.702-.078-1.275-.255-1.707-.53Zm6.019-12.593h-.192v.75h.667c.282 0 .555.072.816.216.162.093.27.204.318.33.054.132.117.462.117 1.278v8.729c0 1-.126 1.317-.201 1.416-.21.273-.555.408-1.05.408h-.667v.75h6.14v-.75h-.676c-.279 0-.549-.072-.801-.213-.168-.096-.279-.207-.327-.33-.054-.132-.114-.465-.114-1.281v-8.729c0-.999.129-1.314.204-1.413.213-.276.552-.411 1.038-.411h.676v-.75h-.195m20.343.555v-.558h-5.083v.75h.663c.471 0 .816.12 1.023.357.087.096.231.411.231 1.434v7.229l-7.978-9.698-.057-.072h-3.946v.75h.195c.369 0 .645.03.816.084.369.12.648.249.837.384.174.129.45.414.808.834V66.1c0 .942-.114 1.251-.186 1.353-.202.294-.553.435-1.069.435h-.663v.75h5.083v-.75h-.672c-.468 0-.813-.12-1.026-.357-.081-.093-.219-.405-.219-1.431v-7.778l8.63 10.466.057.07h.636V57.3c0-.942.117-1.251.186-1.353.204-.294.549-.438 1.059-.438h.675m8.932 2.721 1.948 4.76h-4.015l2.067-4.76Zm7.742 9.654c-.504-.03-.898-.165-1.171-.405-.288-.25-.618-.817-.978-1.687l-4.594-11.213-.051-.12h-.657l-.051.117-4.825 11.078c-.399.957-.762 1.594-1.08 1.894-.078.075-.309.219-.993.339l-.159.03v.717h4.621v-.735l-.18-.015c-.756-.054-1.051-.171-1.162-.261-.15-.117-.222-.247-.222-.394 0-.159.057-.48.324-1.098l.868-1.992h4.987c.171.417.747 1.821.747 1.824.255.597.384 1.036.384 1.297a.497.497 0 0 1-.213.402c-.105.084-.363.195-.975.222l-.186.009v.74h5.749v-.737M89.7 71.95h20.844V51.09H89.699v20.86Z" fill="#949494"/><path d="M90.402 71.206h19.354V51.834H90.402v19.372Z" fill="#fff"/><path d="M91.188 58.54h5.953v-5.959h-5.954v5.96Zm11.91 0h5.956v-5.959h-5.956v5.96Z" fill="#949494"/><path d="M97.14 64.5h5.957v-5.96h-5.956v5.96Zm-5.952 5.961h5.953V64.5h-5.954v5.962Zm11.91 0h5.956V64.5h-5.956v5.962Z" fill="#949494"/></svg>