<svg width="161" height="35" viewBox="0 0 161 35" fill="none" xmlns="http://www.w3.org/2000/svg"><g filter="url(#a)" fill="#3D57F2"><path d="M6.3 3.933c3.435 0 6.215 2.519 6.215 5.954 0 3.402-2.83 5.986-6.042 5.986-1.504 0-2.96-.417-4.056-1.667h-.125v8.669H0V10.833c0-4.2 2.423-6.9 6.3-6.9Zm-.033 9.93c2.275 0 3.827-1.8 3.827-3.976 0-2.175-1.521-3.941-3.827-3.941-2.307 0-3.892 1.766-3.892 3.925 0 2.191 1.602 3.991 3.892 3.991Zm8.375-3.959c0-3.435 2.879-5.97 6.264-5.97 3.386 0 6.265 2.535 6.265 5.97 0 3.435-2.88 5.969-6.265 5.969s-6.264-2.54-6.264-5.97Zm6.264 3.958c2.292 0 3.844-1.766 3.844-3.958s-1.554-3.958-3.844-3.958-3.844 1.75-3.844 3.958 1.555 3.958 3.844 3.958Zm14.72 2.011c-3.6 0-6.331-2.52-6.331-5.97 0-3.45 2.667-5.97 6.25-5.97 2.748 0 5.317 1.49 5.97 4.319h-2.347c-.571-1.521-1.946-2.306-3.542-2.306-2.42 0-3.894 1.798-3.894 3.99 0 2.224 1.521 3.926 3.942 3.926 1.57 0 2.994-.72 3.542-2.373h2.37c-.856 3.01-3.31 4.384-5.96 4.384Zm14.445-1.652-3.762-7.867h-.057v9.271h-2.208V4.167h3.517l3.729 7.835h.064l3.73-7.835H58.6v11.458h-2.208v-9.27h-.065l-3.762 7.866H50.07Zm10.974-4.317c0-3.435 2.877-5.97 6.264-5.97 3.388 0 6.265 2.535 6.265 5.97 0 3.435-2.88 5.969-6.264 5.969-3.386 0-6.265-2.54-6.265-5.97Zm6.264 3.958c2.292 0 3.844-1.766 3.844-3.958S69.6 5.946 67.31 5.946s-3.843 1.75-3.843 3.958 1.556 3.958 3.846 3.958h-.002Zm7.431 1.865v-2.373h.05a1.817 1.817 0 0 0 1.308-.57c.416-.475.637-1.325.866-2.57l.327-1.83c.375-2.11 1.127-4.255 4.302-4.255h4.465v11.496h-2.292V6.25h-1.783c-1.783 0-2.158.492-2.585 2.927l-.294 1.72c-.26 1.568-.654 2.916-1.471 3.793-.625.654-1.49 1.031-2.65 1.031l-.244.006Zm13.854-5.823c0-3.435 2.877-5.97 6.264-5.97 3.388 0 6.265 2.535 6.265 5.97 0 3.435-2.88 5.969-6.265 5.969s-6.264-2.54-6.264-5.97Zm6.264 3.958c2.292 0 3.844-1.766 3.844-3.958s-1.554-3.958-3.844-3.958-3.843 1.75-3.843 3.958 1.552 3.958 3.843 3.958Zm8.912 4.547h-2.207v-4.907h1.488c.654-.735.998-1.83 1.308-3.156l.492-2.127c.473-2.044 1.356-4.09 4.185-4.09h4.45v9.375h1.652v4.907h-2.216v-2.786h-9.167l.015 2.784Zm7.458-4.859V6.223h-2.142c-1.389 0-1.875 1.113-2.143 2.292l-.507 2.208c-.277 1.227-.702 2.242-1.129 2.667v.152l5.921.008Zm11.906 2.323c-3.648 0-6.298-2.519-6.298-5.969s2.667-5.97 6.217-5.97c2.748 0 6.041 1.8 6.041 6.15v.474h-9.977c.246 1.913 1.733 3.305 3.992 3.305 1.341 0 2.944-.492 3.385-1.653h2.357c-.707 2.52-3.373 3.663-5.717 3.663ZM119.176 0h2.37v2.37h-2.37V0Zm7.556 8.817c-.361-1.734-1.7-2.896-3.696-2.896-1.996 0-3.369 1.25-3.796 2.896h7.492ZM124.317 0h2.371v2.37h-2.371V0Zm15.587 4.18v4.545h1.913l2.708-4.546h2.519l-3.354 5.463 3.623 5.983h-2.567L141.85 10.8h-1.946v4.825h-2.158v-4.82h-1.948l-2.894 4.82h-2.569l3.631-5.983-3.352-5.463h2.519l2.709 4.546h1.914V4.179h2.148Zm9.015 6.295-.034-6.296h2.292l.017 3.254h.064a4.53 4.53 0 0 1 3.665-1.75c2.812 0 5.087 2.094 5.087 5.021 0 2.96-2.323 5.169-5.512 5.169-3.19 0-5.563-2.273-5.579-5.398Zm5.527 3.388c1.816 0 3.141-1.277 3.141-3.059 0-1.781-1.327-3.096-3.141-3.096-1.815 0-3.125 1.309-3.125 3.092 0 1.783 1.327 3.063 3.125 3.063ZM59.858 24.636h-3.813v6.71h-1.227v-7.87h5.042l-.002 1.16Zm1.064-1.161h1.227v1.398h.033c.546-.987 1.55-1.652 2.981-1.652 2.163 0 3.9 1.584 3.9 4.19 0 2.606-1.737 4.191-3.9 4.191-1.43 0-2.435-.664-2.98-1.652h-.034v4.805h-1.227v-11.28Zm6.848 3.936c0-1.738-1.125-2.982-2.846-2.982-1.72 0-2.844 1.25-2.844 2.982 0 1.731 1.125 2.981 2.844 2.981 1.719 0 2.846-1.244 2.846-2.981Zm2.325-.001c0-2.605 1.737-4.189 3.902-4.189 1.431 0 2.435.665 2.981 1.652h.033v-1.398h1.228v7.871H77.01V29.95h-.033c-.546.988-1.55 1.652-2.981 1.652-2.165 0-3.902-1.585-3.902-4.191Zm6.985 0c0-1.737-1.125-2.98-2.846-2.98-1.72 0-2.843 1.25-2.843 2.98 0 1.732 1.122 2.982 2.843 2.982 1.721 0 2.852-1.244 2.852-2.981h-.006Zm10.16-3.935v7.87h-1.228v-3.593H81.43v3.594h-1.215v-7.87h1.227v3.134h4.584v-3.135h1.214Zm8.345 1.125h-3.03v6.746h-1.228V24.6h-3.014v-1.125h7.272V24.6Zm7.497 4.258c0 1.459-1.057 2.488-2.692 2.488h-3.731v-7.87h1.227v2.916h2.521c1.618-.002 2.675.952 2.675 2.466Zm-1.296.02c0-.888-.494-1.382-1.515-1.382h-2.385v2.744h2.385c1.021 0 1.515-.513 1.515-1.363Zm3.323-5.403v7.87h-1.227v-7.87h1.227Z"/></g><defs><filter id="a" x="0" y="0" width="160.01" height="38.755" filterUnits="userSpaceOnUse" color-interpolation-filters="sRGB"><feFlood flood-opacity="0" result="BackgroundImageFix"/><feBlend in="SourceGraphic" in2="BackgroundImageFix" result="shape"/><feColorMatrix in="SourceAlpha" values="0 0 0 0 0 0 0 0 0 0 0 0 0 0 0 0 0 0 127 0" result="hardAlpha"/><feOffset dy="4"/><feGaussianBlur stdDeviation="2"/><feComposite in2="hardAlpha" operator="arithmetic" k2="-1" k3="1"/><feColorMatrix values="0 0 0 0 0 0 0 0 0 0 0 0 0 0 0 0 0 0 0.25 0"/><feBlend in2="shape" result="effect1_innerShadow_1466_1974"/></filter></defs></svg>