<svg width="300" height="120" viewBox="0 0 300 120" fill="none" xmlns="http://www.w3.org/2000/svg"><mask id="a" style="mask-type:luminance" maskUnits="userSpaceOnUse" x="95" y="25" width="126" height="49"><path d="M220.53 25.984H95.665v47.077H220.53V25.984Z" fill="#fff"/></mask><g mask="url(#a)" fill="#949494"><path d="M150.538 68.03h-3.359c-.112 0-.168-.112-.168-.168V57.688a.961.961 0 0 0 0-.562c-.168-.956-1.064-1.574-2.016-1.462-.952.169-1.568 1.068-1.456 2.024V70.39c0 .506.392.956.952 1.012h6.215c.896-.056 1.568-.843 1.512-1.743 0-1.067-.728-1.686-1.68-1.63Zm-12.15-11.523-8.959 12.142a1.573 1.573 0 0 0-.336 1.011c0 .506.224 1.069.728 1.35.784.505 1.736.337 2.296-.338l1.735-2.36h4.2v1.349c.056.955.84 1.686 1.736 1.63.952 0 1.624-.787 1.624-1.63V57.63c0-.505-.224-1.011-.56-1.292-.728-.675-1.848-.619-2.464.168Zm-.392 8.376h-1.568c-.056 0-.112-.057-.112-.113l1.68-2.304v2.417Zm-4.536-7.195c0-.9-.728-1.63-1.567-1.63-.448 0-.896.168-1.176.45l-3.808 3.99c-.056.056-.112.056-.168.056-.056 0-.112 0-.112-.056l-3.807-3.99c-.28-.282-.728-.507-1.176-.507-.896 0-1.568.731-1.568 1.574 0 .394.168.843.392 1.124l4.647 5.34.057 5.621c0 .9.727 1.63 1.623 1.63s1.624-.73 1.624-1.63l.112-5.564 4.535-5.34c.28-.337.392-.731.392-1.068ZM113.807 56c-4.2 0-7.615 3.43-7.615 7.645 0 4.216 3.415 7.645 7.615 7.645 4.199 0 7.615-3.486 7.615-7.701 0-4.104-3.416-7.532-7.615-7.589Zm0 11.692c-2.296 0-4.088-1.799-4.088-4.103 0-2.305 1.792-4.104 4.088-4.104 2.296 0 4.087 1.8 4.087 4.104 0 2.304-1.791 4.103-4.087 4.103Zm80.35-12.029c-.84.056-1.512.73-1.512 1.518v7.138c0 .057-.056.113-.112.113s-.056 0-.056-.056l-4.143-7.364c-.616-1.124-2.072-1.461-3.136-.787-.616.394-1.064 1.124-1.12 1.855v11.692c.056.956.896 1.63 1.736 1.574a1.69 1.69 0 0 0 1.568-1.574v-7.139c0-.056.056-.112.112-.112s.056 0 .056.056l4.255 7.532c.56 1.068 1.904 1.405 2.968.843a2.11 2.11 0 0 0 1.12-1.855v-11.86c-.056-.9-.784-1.63-1.736-1.574Zm-90.653 9.387c1.344-.843 2.24-2.304 2.184-3.878v-.056c.056-2.755-2.184-5.06-4.928-5.116-1.343-.112-2.743.338-3.695 1.293-1.064 1.068-1.4 2.417-1.4 3.879l.224 8.487c0 .9.728 1.63 1.624 1.63.896 0 1.624-.73 1.624-1.63l.056-4.047c0-.112.056-.168.168-.168h.112l3.975 5.452c.28.281.616.394 1.064.394.896 0 1.568-.731 1.624-1.574 0-.225-.056-.45-.168-.731l-2.464-3.935Zm-2.856-2.36h-.28c-.951-.057-1.567-.9-1.511-1.743.056-.956.895-1.574 1.735-1.518h.28c.952.056 1.568.9 1.512 1.743-.056.9-.896 1.742-1.736 1.517Zm67.696 3.484c-.224 0-.504.057-.784.17l-1.344.898a4.119 4.119 0 0 1-2.183.619c-2.352-.113-4.088-2.136-3.976-4.385.112-2.192 1.792-3.878 3.976-3.99.784 0 1.512.224 2.183.618l1.288.9c.224.112.448.168.784.168.896 0 1.624-.731 1.624-1.63 0-.338-.112-.787-.392-1.068a6.871 6.871 0 0 0-5.263-2.417c-4.2 0-7.615 3.428-7.615 7.644 0 4.047 3.135 7.42 7.167 7.645 2.184 0 4.199-.9 5.711-2.473.224-.281.392-.619.336-1.069.168-.899-.616-1.63-1.512-1.63Zm31.132-10.567c-1.007 0-1.735.843-1.735 1.742v12.31c0 1.012.84 1.743 1.735 1.743 1.008 0 1.736-.843 1.736-1.743V57.35c0-.955-.728-1.742-1.736-1.742ZM174 56.45a1.952 1.952 0 0 0-1.344-.562c-1.008 0-1.736.45-1.736 1.461v12.31c0 .956.784 1.63 1.68 1.63.896 0 1.679-.73 1.736-1.63V68.31h4.199l1.736 2.361c.28.394.84.619 1.344.619.952 0 1.623-.787 1.623-1.63 0-.338-.112-.731-.335-1.012L174 56.45Zm2.015 8.32c0 .055-.056.112-.112.112h-1.567v-2.53l1.679 2.361c.056 0 .056 0 0 .056Zm37.18-9.107c-.84.056-1.512.73-1.512 1.518v7.138c0 .057-.056.113-.112.113s-.056 0-.112-.056l-4.088-7.364c-.615-1.124-2.071-1.461-3.135-.787-.616.394-1.064 1.124-1.12 1.855v11.692c0 .956.784 1.686 1.68 1.686.896 0 1.68-.787 1.68-1.686v-7.139c0-.056.056-.112.112-.112s.056 0 .056.056l4.255 7.532c.56 1.068 1.904 1.405 2.968.843a2.112 2.112 0 0 0 1.12-1.855v-11.86c-.112-.9-.897-1.63-1.792-1.574Zm6.047 1.405v-.112c0-.45-.336-.562-.728-.562h-.504c-.168 0-.224.112-.224.169v1.517c0 .169.056.225.224.225s.225-.112.225-.225v-.562h.111l.28.562c.056.113.112.225.28.225.168 0 .224-.056.224-.169v-.112l-.336-.506c.224.056.448-.225.448-.45Zm-.672.113h-.335v-.45h.335c.168 0 .28.056.28.225s-.112.225-.28.225Zm-.056-1.63c-1.008 0-1.791.843-1.791 1.798 0 .956.84 1.8 1.791 1.8.952 0 1.792-.844 1.792-1.8-.056-.955-.84-1.798-1.792-1.798Zm0 3.148c-.783 0-1.344-.563-1.344-1.35 0-.786.561-1.349 1.344-1.349.784 0 1.344.563 1.344 1.35 0 .73-.616 1.349-1.344 1.349ZM169.97 47.794c-3.584-2.642-8.959-4.216-14.502-4.216-5.544 0-10.975 1.574-14.503 4.216-.336.225-.504.618-.504 1.068 0 .787.56 1.349 1.344 1.349.28 0 .56-.112.84-.281 2.408-1.799 7.055-3.71 12.935-3.71 5.879 0 10.47 1.911 12.878 3.71l.056.056c.56.394 1.456.281 1.848-.337.336-.618.224-1.462-.392-1.855Zm-14.502-1.012c-5.152 0-10.023 1.518-13.047 4.047h-.056c-.336.338-.392.9-.112 1.293.168.225.392.337.728.337a.718.718 0 0 0 .56-.224c2.688-2.249 7.167-3.654 11.871-3.654 4.703 0 9.126 1.349 11.87 3.654.392.337 1.008.28 1.288-.113.336-.393.28-1.012-.112-1.293-3.024-2.473-7.895-4.047-12.99-4.047Zm-16.686-9.724c.392-1.63-.56-3.26-2.24-3.766a3.294 3.294 0 0 0-.784-.113 3.017 3.017 0 0 0-3.024 3.036 3.017 3.017 0 0 0 3.024 3.035c1.512.112 2.688-.843 3.024-2.192Zm16.686 4.721a3.017 3.017 0 0 0 3.023-3.035 3.017 3.017 0 0 0-3.023-3.035 3.017 3.017 0 0 0-3.024 3.035c0 1.686 1.288 3.035 3.024 3.035Zm0-7.757a3.017 3.017 0 0 0 3.023-3.035c0-1.686-1.344-3.091-3.023-3.091a3.017 3.017 0 0 0-3.024 3.035c-.056 1.742 1.288 3.091 3.024 3.091Zm-8.959 2.755c-1.624.45-2.576 2.192-2.128 3.822.336 1.293 1.568 2.192 2.912 2.248h.056c.224 0 .504-.056.783-.112 1.624-.45 2.576-2.136 2.184-3.766a3.061 3.061 0 0 0-2.967-2.305c-.336 0-.56.056-.84.113Zm-3.808 6.914c.392-1.63-.56-3.373-2.24-3.767a3.285 3.285 0 0 0-.783-.112c-.504 0-1.064.169-1.568.394-.728.393-1.232 1.124-1.4 1.854-.224.844-.112 1.63.336 2.361.504.956 1.512 1.462 2.632 1.518.503 0 1.119-.112 1.567-.394.728-.393 1.288-1.068 1.456-1.854Zm20.102-1.012c.28.056.504.112.84.112 1.679 0 3.023-1.405 3.023-3.035a3.017 3.017 0 0 0-2.239-2.923c-.28-.056-.504-.112-.84-.112-1.68 0-3.024 1.405-3.024 3.091-.056 1.293.896 2.53 2.24 2.867Zm2.016-7.42c.223.056.503.112.839.112 1.68 0 3.024-1.405 3.024-3.035a3.017 3.017 0 0 0-2.24-2.923c-.28-.056-.504-.112-.84-.112-1.679 0-3.023 1.405-3.023 3.091 0 1.237.952 2.474 2.24 2.867Zm7.95 5.003c-.447-.281-1.007-.394-1.511-.394a3.017 3.017 0 0 0-3.024 3.036c0 .224.056.506.112.787.168.786.728 1.461 1.4 1.854 1.456.9 3.359.338 4.199-1.124.392-.73.504-1.517.336-2.36-.336-.675-.84-1.35-1.512-1.8Zm5.32-4.722c-.168-.787-.728-1.461-1.4-1.855-1.456-.9-3.36-.337-4.199 1.124-.392.731-.504 1.518-.336 2.361.168.787.727 1.462 1.399 1.855 1.456.9 3.36.394 4.2-1.068.448-.787.56-1.742.336-2.417Zm-32.756-.169c.28 0 .56-.056.84-.112 1.623-.45 2.575-2.192 2.183-3.766-.335-1.35-1.567-2.248-2.911-2.248-.28 0-.504.056-.84.112-1.624.45-2.576 2.192-2.184 3.766a3.01 3.01 0 0 0 2.912 2.248Z"/></g></svg>