<svg width="300" height="120" viewBox="0 0 300 120" fill="none" xmlns="http://www.w3.org/2000/svg"><mask id="a" style="mask-type:luminance" maskUnits="userSpaceOnUse" x="95" y="40" width="111" height="43"><path d="M205.586 40.864h-110v41.312h110V40.864Z" fill="#fff"/></mask><g mask="url(#a)" fill="#949494"><path d="M143.927 77.761h-2.96c-.099 0-.148-.099-.148-.148v-8.928a.846.846 0 0 0 0-.493c-.148-.839-.937-1.381-1.776-1.283-.838.148-1.381.937-1.282 1.776v11.148c0 .444.345.838.838.888h5.476a1.436 1.436 0 0 0 1.332-1.53c0-.937-.642-1.48-1.48-1.43ZM133.223 67.65l-7.893 10.655a1.38 1.38 0 0 0-.296.888c0 .444.198.937.642 1.184.69.443 1.529.295 2.022-.297l1.529-2.071h3.7v1.184c.049.838.74 1.48 1.529 1.43.838 0 1.43-.69 1.43-1.43V68.636c0-.444-.197-.888-.493-1.135-.641-.592-1.628-.543-2.17.148Zm-.346 7.35h-1.381c-.049 0-.098-.05-.098-.099l1.479-2.022v2.12Zm-3.995-6.314c0-.79-.641-1.43-1.381-1.43-.395 0-.79.147-1.036.394l-3.354 3.502c-.05.05-.099.05-.148.05-.05 0-.099 0-.099-.05l-3.354-3.502c-.247-.247-.642-.444-1.036-.444-.789 0-1.381.641-1.381 1.381 0 .346.148.74.345.987l4.094 4.686.049 4.933a1.431 1.431 0 0 0 2.861 0l.099-4.884 3.996-4.686c.246-.296.345-.641.345-.937Zm-17.314-1.48a6.716 6.716 0 0 0-6.709 6.709c0 3.7 3.01 6.708 6.709 6.708 3.7 0 6.709-3.058 6.709-6.758 0-3.6-3.009-6.61-6.709-6.659Zm0 10.26c-2.022 0-3.601-1.578-3.601-3.6 0-2.023 1.579-3.602 3.601-3.602 2.022 0 3.601 1.579 3.601 3.601 0 2.023-1.579 3.601-3.601 3.601Zm70.785-10.556c-.74.05-1.332.641-1.332 1.332v6.264c0 .05-.049.1-.099.1-.049 0-.049 0-.049-.05l-3.65-6.462c-.543-.987-1.825-1.282-2.763-.69-.542.345-.937.986-.986 1.627v10.26c.049.839.789 1.43 1.529 1.381a1.485 1.485 0 0 0 1.381-1.38v-6.265c0-.05.05-.099.099-.099s.049 0 .049.05l3.749 6.61c.493.936 1.677 1.232 2.614.74a1.85 1.85 0 0 0 .987-1.629V68.29c-.049-.789-.691-1.43-1.529-1.38Zm-79.861 8.238c1.184-.74 1.973-2.023 1.924-3.404v-.05c.049-2.416-1.924-4.439-4.341-4.488-1.184-.099-2.417.296-3.256 1.135-.937.937-1.233 2.12-1.233 3.403l.197 7.449a1.432 1.432 0 0 0 2.861 0l.05-3.552c0-.099.049-.148.147-.148h.1l3.501 4.785c.247.246.543.345.938.345.789 0 1.381-.641 1.43-1.381 0-.197-.049-.395-.148-.641l-2.17-3.453Zm-2.516-2.072h-.247c-.838-.05-1.38-.79-1.331-1.53.049-.838.789-1.38 1.529-1.33h.246c.839.048 1.382.788 1.332 1.528-.049.79-.789 1.53-1.529 1.332Zm59.637 3.058c-.197 0-.444.05-.691.148l-1.184.79a3.641 3.641 0 0 1-1.923.542 3.686 3.686 0 0 1-3.503-3.847 3.653 3.653 0 0 1 3.503-3.503c.69 0 1.331.198 1.923.543l1.135.79c.197.098.395.147.69.147.79 0 1.431-.641 1.431-1.43 0-.296-.099-.69-.345-.938a6.065 6.065 0 0 0-4.637-2.12 6.716 6.716 0 0 0-6.709 6.708c0 3.552 2.763 6.511 6.314 6.709 1.924 0 3.7-.79 5.032-2.17.197-.248.345-.543.296-.938.148-.79-.543-1.43-1.332-1.43Zm27.426-9.273c-.888 0-1.529.74-1.529 1.529v10.803c0 .888.74 1.529 1.529 1.529.888 0 1.529-.74 1.529-1.53V68.39c0-.839-.641-1.53-1.529-1.53Zm-22.444.74a1.723 1.723 0 0 0-1.184-.494c-.888 0-1.529.395-1.529 1.283v10.803c0 .838.691 1.43 1.48 1.43s1.479-.641 1.529-1.43v-1.184h3.699l1.53 2.072c.246.345.739.542 1.183.542a1.43 1.43 0 0 0 1.431-1.43 1.48 1.48 0 0 0-.296-.888L164.595 67.6Zm1.776 7.3c0 .05-.05.099-.099.099h-1.381v-2.22l1.48 2.072c.049 0 .049 0 0 .05Zm32.753-7.99c-.74.049-1.332.64-1.332 1.331v6.264c0 .05-.049.1-.098.1-.05 0-.05 0-.099-.05l-3.601-6.462c-.543-.987-1.825-1.282-2.762-.69a2.209 2.209 0 0 0-.987 1.627v10.26c0 .839.691 1.48 1.48 1.48s1.48-.69 1.48-1.48v-6.264c0-.05.049-.099.098-.099.05 0 .05 0 .05.05l3.749 6.61c.493.936 1.677 1.232 2.614.74.641-.346.987-.987.987-1.629V68.29c-.099-.789-.79-1.43-1.579-1.38Zm5.327 1.232v-.098c0-.395-.296-.494-.641-.494h-.444c-.148 0-.197.099-.197.148v1.332c0 .148.049.198.197.198.148 0 .198-.1.198-.198v-.493h.098l.247.493c.049.099.098.198.246.198s.198-.05.198-.148v-.1l-.296-.443c.197.05.394-.197.394-.395Zm-.592.099h-.295v-.395h.295c.148 0 .247.05.247.198 0 .148-.099.197-.247.197Zm-.049-1.43c-.888 0-1.578.74-1.578 1.578 0 .839.74 1.578 1.578 1.578.839 0 1.579-.74 1.579-1.578-.05-.839-.74-1.578-1.579-1.578Zm0 2.762c-.69 0-1.184-.493-1.184-1.184 0-.69.494-1.184 1.184-1.184.691 0 1.184.493 1.184 1.184a1.2 1.2 0 0 1-1.184 1.184Zm-42.765-9.571c-3.157-2.319-7.893-3.7-12.776-3.7s-9.668 1.382-12.776 3.7c-.296.197-.444.542-.444.937 0 .69.494 1.184 1.184 1.184.247 0 .493-.099.74-.247 2.121-1.578 6.215-3.255 11.395-3.255 5.179 0 9.224 1.677 11.345 3.255l.049.05c.494.345 1.283.246 1.628-.296.296-.543.197-1.283-.345-1.628Zm-12.776-.888c-4.538 0-8.83 1.332-11.493 3.552h-.05a.895.895 0 0 0-.098 1.134c.148.197.345.296.641.296.197 0 .345-.05.493-.197 2.368-1.973 6.314-3.206 10.458-3.206 4.143 0 8.04 1.183 10.457 3.206.345.296.888.246 1.135-.099.296-.345.246-.888-.099-1.134-2.664-2.17-6.955-3.552-11.444-3.552Zm-14.7-8.534c.346-1.43-.493-2.86-1.973-3.305a2.91 2.91 0 0 0-.69-.098 2.653 2.653 0 0 0-2.664 2.664 2.653 2.653 0 0 0 2.664 2.663c1.332.099 2.368-.74 2.663-1.924Zm14.7 4.144a2.653 2.653 0 0 0 2.664-2.664 2.653 2.653 0 0 0-2.664-2.663 2.653 2.653 0 0 0-2.664 2.663c0 1.48 1.135 2.664 2.664 2.664Zm0-6.807a2.653 2.653 0 0 0 2.664-2.664c0-1.48-1.184-2.713-2.664-2.713a2.653 2.653 0 0 0-2.664 2.664c-.049 1.529 1.135 2.713 2.664 2.713Zm-7.892 2.417c-1.431.394-2.269 1.923-1.875 3.354.296 1.135 1.381 1.924 2.565 1.973h.05c.197 0 .444-.05.69-.099 1.431-.394 2.269-1.874 1.924-3.305a2.695 2.695 0 0 0-2.614-2.022c-.296 0-.494.05-.74.099Zm-3.355 6.067c.346-1.43-.493-2.96-1.973-3.305a2.91 2.91 0 0 0-.69-.099c-.444 0-.937.148-1.381.346a2.536 2.536 0 0 0-1.234 1.627c-.197.74-.098 1.431.296 2.072.444.839 1.332 1.283 2.319 1.332.444 0 .986-.099 1.381-.345.641-.346 1.134-.937 1.282-1.628Zm17.709-.888c.247.05.444.099.74.099 1.48 0 2.664-1.233 2.664-2.664a2.65 2.65 0 0 0-1.974-2.565c-.246-.05-.444-.099-.739-.099-1.48 0-2.664 1.234-2.664 2.713-.049 1.135.789 2.22 1.973 2.516Zm1.776-6.511c.197.05.444.099.74.099 1.479 0 2.663-1.234 2.663-2.664 0-1.233-.838-2.27-1.973-2.565-.246-.05-.444-.099-.74-.099-1.48 0-2.663 1.233-2.663 2.713 0 1.085.838 2.17 1.973 2.516Zm7.004 4.39c-.394-.247-.888-.345-1.332-.345a2.652 2.652 0 0 0-2.663 2.663c0 .198.049.444.098.691.148.69.642 1.282 1.234 1.628 1.282.79 2.959.296 3.699-.987a3.002 3.002 0 0 0 .296-2.072c-.296-.591-.74-1.183-1.332-1.578Zm4.686-4.144c-.148-.69-.641-1.282-1.233-1.627-1.282-.79-2.96-.296-3.699.986-.346.642-.444 1.332-.296 2.072.148.69.641 1.283 1.233 1.628a2.668 2.668 0 0 0 3.699-.937c.395-.691.494-1.53.296-2.122Zm-28.856-.148c.246 0 .493-.049.74-.098 1.43-.395 2.269-1.924 1.923-3.305-.295-1.184-1.381-1.973-2.565-1.973-.246 0-.443.05-.739.099-1.431.394-2.27 1.923-1.924 3.305a2.65 2.65 0 0 0 2.565 1.973Z"/></g></svg>