<svg width="156" height="45" viewBox="0 0 156 45" fill="none" xmlns="http://www.w3.org/2000/svg"><g clip-path="url(#a)"><path d="M57.74 23.352c-.957.608-2.075.805-4.522.805h-1.025V31H49V13h4.264c2.284 0 3.426.22 4.406.829 1.493.949 2.33 2.655 2.33 4.725s-.863 3.897-2.26 4.798Zm-2.448-6.99c-.513-.122-.98-.17-2.028-.17h-1.07v4.775h.93c1.235 0 2.121-.146 2.611-.415.676-.39 1.048-1.07 1.048-1.948 0-1.12-.558-1.972-1.49-2.24v-.002ZM66.463 35h-3.368l2.45-5.772L61 17h3.203l3.038 8.744L70.797 17H74l-7.537 18Zm14.277-4C77.006 31 74 27.887 74 24s2.915-7 6.648-7a6.6 6.6 0 0 1 4.644 1.883c.865.845 1.275 1.544 1.708 2.897h-3.414c-.614-1.23-1.571-1.833-2.938-1.833-2.093 0-3.598 1.688-3.598 4.03 0 2.34 1.571 4.079 3.666 4.079 1.253 0 2.119-.532 2.87-1.762H87C85.953 29.286 83.675 31 80.74 31Zm11.631-14.81V31H89V13h11v3.192h-7.629v-.002Z" fill="#3D57F2"/><path d="M106.765 31v-9.174L101.604 31H98V17h3.237v9.174L106.398 17H110v14h-3.237.002Zm16.123 2v-2.85h-7.751V33H112v-5.959h1.778L117.759 17h2.482l3.981 10.041H126V33h-3.114.002Zm-3.886-11.562-1.943 5.604h3.863l-1.92-5.604Zm15.311 9.446c-1.641 0-2.896-.478-4.103-1.557V35H127V17.31h2.945v1.557c1.039-1.196 2.584-1.867 4.393-1.867 3.86 0 6.662 2.896 6.662 6.893 0 3.996-2.824 6.989-6.687 6.989v.002Zm-.386-10.962c-2.221 0-3.911 1.724-3.911 3.996 0 2.273 1.69 4.046 3.958 4.046 2.124 0 3.79-1.747 3.79-3.998 0-2.252-1.666-4.046-3.837-4.046v.002ZM148.988 31c-3.851 0-6.988-3.137-6.988-7s3.137-7 6.964-7c3.828 0 7.036 3.113 7.036 7.095 0 3.766-3.187 6.903-7.012 6.903V31Zm0-11.053c-2.068 0-3.804 1.809-3.804 4.005 0 2.197 1.688 4.104 3.828 4.104 2.14 0 3.801-1.812 3.801-4.056 0-2.244-1.711-4.056-3.827-4.056l.002.003Z" fill="#3D57F2"/><path d="M12.333 35.933c-1.586 1.071-2.92 2.087-3.224 3.289-.287 1.138.382 2.24 2.227 3.192l-.007-.004c11.33 4.843 17.572.878 1.002-6.479l.002.002ZM30.852 9.058c1.277-.742 2.33-1.673 2.919-2.6.82-1.289.326-2.686-1.907-3.872-11.324-4.852-17.6-.894-1.012 6.472Z" fill="#fff"/><path d="M31.19 38.51c7.284-3.479 10.38-6.623 11.548-9.189-2.96 9.34-11.42 15.727-21.142 15.679-3.638-.017 3.169-3.42 9.594-6.49ZM.052 27.55c.535 3.626 3.545 10.75 11.286 14.867-13.014-7.169 33.603-15.489 31.795-24.976-.533-3.623-3.54-10.737-11.27-14.855C44.819 9.748-1.756 18.068.053 27.55Z" fill="#3D57F2"/><path d="M39.99 22.495c-4.411 3.163-12.733 6.513-18.397 8.946 5.006 2.139 9.457 4.168 11.431 6.156 5.636-2.84 15.058-9.403 6.967-15.102h-.002Zm-36.795-.001c4.41-3.163 12.732-6.513 18.396-8.946-5.001-2.139-9.448-4.164-11.424-6.15-5.988 3.096-14.929 9.32-6.972 15.096Z" fill="#fff"/><path d="M11.99 6.49C4.706 9.97 1.61 13.112.442 15.677 3.402 6.338 11.862-.048 21.585 0c3.638.017-3.17 3.42-9.595 6.49Z" fill="#3D57F2"/></g><defs><clipPath id="a"><path fill="#fff" d="M0 0h156v45H0z"/></clipPath></defs></svg>