<svg width="300" height="120" viewBox="0 0 300 120" fill="none" xmlns="http://www.w3.org/2000/svg"><path d="M113.393 47.685c1.247 0 2.862.202 3.879.505l-.596 2.864c-.653-.242-1.785-.383-2.63-.383-2.688 0-3.686.403-3.686 4.295 0 3.873.998 4.398 3.686 4.398.845 0 1.977-.162 2.63-.384l.596 2.925c-1.037.282-2.632.463-3.879.463-4.3 0-6.335-1.715-6.335-7.442 0-5.748 2.035-7.24 6.335-7.24Zm11.854 3.167a177.066 177.066 0 0 0-1.746 5.324h3.839a124.653 124.653 0 0 1-1.592-5.325h-.501Zm2.976 8.127h-5.51c-.345 1.17-.633 2.239-.864 3.107h-3.302c1.114-3.934 3.207-10.105 4.743-14.058h4.779c1.267 4.396 3.264 10.386 4.704 14.058h-3.418a69.936 69.936 0 0 1-1.132-3.107Zm17.353-10.951h3.953v14.058h-2.993v-9.5c-1.018 2.36-2.421 5.95-3.302 8.33h-2.458c-.844-2.34-2.168-6.072-3.129-8.33v9.5h-2.995V48.028h4.147c1.113 2.34 2.437 5.587 3.437 8.23a119.43 119.43 0 0 1 3.34-8.23Zm12.664 2.824a174.254 174.254 0 0 0-1.746 5.324h3.839a126.4 126.4 0 0 1-1.594-5.325h-.499Zm2.976 8.127h-5.511c-.345 1.17-.632 2.239-.864 3.107h-3.301c1.114-3.934 3.206-10.105 4.742-14.058h4.78c1.267 4.396 3.264 10.386 4.704 14.058h-3.418a69.936 69.936 0 0 1-1.132-3.107Zm12.82-3.952c.808 0 1.344-.585 1.344-2.057 0-1.532-.46-2.158-1.305-2.158h-3.339v4.215h3.3Zm-6.393 7.06V48.028h7.468c2.747 0 3.667 2.058 3.667 4.942 0 2.54-1.152 4.74-3.646 4.74h-4.396v4.377h-3.093Zm19.306-14.402c1.248 0 2.86.202 3.877.505l-.593 2.864c-.653-.242-1.786-.383-2.632-.383-2.686 0-3.686.403-3.686 4.295 0 3.873 1 4.398 3.686 4.398.846 0 1.979-.162 2.632-.384l.593 2.925c-1.036.282-2.629.463-3.877.463-4.301 0-6.334-1.715-6.334-7.442 0-5.748 2.033-7.24 6.334-7.24Zm14.301 14.401c-1.709-5.163-2.977-6.313-5.089-6.555v6.555h-3.089V48.028h3.089v6.736c1.076-1.25 3.015-3.831 4.723-6.736h3.686c-2.226 3.63-3.781 5.728-4.376 6.313 1.421.564 2.783 1.633 4.722 7.745h-3.666Zm17.861 0h-3.053v-9.258a167.52 167.52 0 0 1-5.029 9.258h-4.05V48.028h3.032v9.64c1.843-3.166 3.666-6.433 5.319-9.64h3.781v14.058Zm8.216-17.564c0 .867.384 1.048 1.153 1.048.746 0 1.15-.18 1.15-1.048h1.804c0 1.977-1.093 2.884-3.033 2.884-1.882 0-3.014-.907-3.014-2.884h1.94Zm7.199 17.567h-3.053v-9.258a166.337 166.337 0 0 1-5.03 9.258h-4.049V48.032h3.033v9.64c1.842-3.167 3.667-6.434 5.317-9.64h3.782v14.057ZM115.39 71.446h2.15c-1.746 4.68-4.453 10.368-6.662 14.059h-2.399a34.897 34.897 0 0 0 2.169-3.49c-.826-2.623-3.109-7.785-4.722-10.569h2.284c1.209 2.26 2.707 5.546 3.665 8.35 1.326-2.783 2.747-5.97 3.515-8.35Zm6.488 14.059h-1.94V71.446h1.94v5.628h6.41v-5.628h1.94v14.059h-1.94V78.95h-6.41v6.555Zm22.813 0h-1.921V74.452c-1.938 3.711-4.107 7.604-6.276 11.053h-2.592V71.446h1.92v11.557a181.53 181.53 0 0 0 6.508-11.557h2.361v14.059Zm10.363-1.735c1.171 0 1.594-.908 1.594-2.36 0-1.513-.519-2.521-1.672-2.521h-4.664v4.88h4.742Zm-4.742-6.555h4.589c1.113 0 1.457-.907 1.457-2.057 0-1.27-.325-1.977-1.457-1.977h-4.589v4.034Zm8.428 4.376c0 2.683-1.248 3.914-3.399 3.914h-6.969V71.446h6.816c2.67 0 3.225 1.432 3.225 3.349 0 1.754-.326 2.985-2.706 3.207 2.533.12 3.033 1.572 3.033 3.589Zm12.605-10.145v1.755h-7.488v3.994h5.319v1.734h-5.319v4.82h7.488v1.756h-9.427V71.446h9.427Zm8.867 7.402c1.325 0 1.979-1.028 1.979-2.723 0-1.895-.654-2.944-1.902-2.944h-4.223v5.667h4.146Zm-6.103 6.657V71.446h6.468c2.899 0 3.764 2.118 3.764 4.7 0 2.3-1.018 4.457-3.686 4.457h-4.589v4.902h-1.957Zm18.671-14.402c1.208 0 2.764.223 3.781.526l-.481 1.835c-.767-.303-2.092-.485-3.071-.485-3.147 0-4.318.646-4.318 5.386 0 4.72 1.171 5.526 4.318 5.526.979 0 2.304-.182 3.071-.464l.481 1.835c-1.037.323-2.573.524-3.781.524-4.205 0-6.201-1.713-6.201-7.441 0-5.749 1.996-7.242 6.201-7.242Zm17.247 14.402h-1.92V74.452c-1.94 3.711-4.108 7.604-6.276 11.053h-2.593V71.446h1.92v11.557a181.53 181.53 0 0 0 6.508-11.557h2.361v14.059Zm7.118 0V73.2h-4.587v-1.755h11.134V73.2h-4.569v12.304h-1.978Zm18.505-14.059v1.755h-7.486v3.994h5.318v1.734h-5.318v4.82h7.486v1.756h-9.425V71.446h9.425Zm6.488 14.059V73.2h-4.589v-1.755h11.135V73.2h-4.57v12.304h-1.976Z" fill="#949494"/><path fill-rule="evenodd" clip-rule="evenodd" d="M72.691 67.004a.229.229 0 0 0-.22-.234c-8.515-.126-15.382-7.415-15.382-16.391 0-8.977 6.867-16.267 15.382-16.392a.23.23 0 0 0 .22-.234v-4.216a.237.237 0 0 0-.066-.166.222.222 0 0 0-.16-.068c-10.974.129-19.834 9.514-19.834 21.076 0 11.56 8.86 20.946 19.835 21.075a.22.22 0 0 0 .16-.068.241.241 0 0 0 .065-.167v-4.215Z" fill="#949494"/><path fill-rule="evenodd" clip-rule="evenodd" d="M72.693 85.737a.23.23 0 0 1 .22-.234c8.516-.125 15.382-7.415 15.382-16.391 0-8.977-6.866-16.267-15.382-16.391a.23.23 0 0 1-.22-.235v-4.214a.24.24 0 0 1 .066-.168.216.216 0 0 1 .16-.067c10.975.128 19.834 9.514 19.834 21.075 0 11.56-8.86 20.947-19.835 21.075a.214.214 0 0 1-.159-.067.24.24 0 0 1-.066-.168v-4.215Z" fill="#949494"/><path fill-rule="evenodd" clip-rule="evenodd" d="M72.69 62.087c3.692 0 6.689 3.145 6.689 7.026 0 3.804-2.877 6.9-6.469 7.02a.23.23 0 0 0-.216.235v4.216c0 .063.023.123.066.167a.22.22 0 0 0 .161.067c6.05-.128 10.916-5.319 10.916-11.705 0-6.467-4.99-11.708-11.146-11.708-3.692-.001-6.686-3.145-6.686-7.026 0-3.804 2.878-6.901 6.47-7.021a.23.23 0 0 0 .216-.234v-4.217a.242.242 0 0 0-.066-.167.22.22 0 0 0-.162-.067c-6.05.128-10.916 5.319-10.916 11.706 0 6.467 4.99 11.708 11.144 11.708Z" fill="#949494"/></svg>