<svg width="127" height="52" viewBox="0 0 127 52" fill="none" xmlns="http://www.w3.org/2000/svg"><g filter="url(#a)" fill="#3D57F2"><path d="M47.099 17.907c-1.93 3.085-3.423 6.226-8.592 9.517-.127.082-.247.177-.366.268-.644.49-3.272-.392-3.06-.259 1.694 1.064 2.496 1.915 3.747 3.61-.036-.243-.072-.381-.013-.609.068-.255-.197-.497.229-.732.348-.192.306-.157.326-.549.035-.495.389-.26.595-.439.162-.14-.036-.4.347-.588.112-.053.324-.114.379-.228.089-.186-.044-.514.3-.59.12-.024.325-.008.364-.136.049-.167-.017-.293.186-.42.088-.053.176-.08.25-.124.198-.119-.184-.358.383-.558.115-.04.343-.084.303-.244-.04-.16-.098-.215.056-.343.155-.118.586-.167.623-.313.012-.051-.022-.126-.01-.204.055-.367.646-.288.648-.541 0-.091-.007-.095.029-.186.125-.28.7-.306.702-.578 0-.046-.007-.1-.01-.146-.03-.437.73-.364.703-.741-.013-.17-.075-.24.1-.378.056-.043.12-.078.18-.11.135-.068.38-.152.37-.336-.006-.162-.064-.23.09-.373.15-.139.417-.2.415-.429 0-.18.065-.247.203-.351.102-.073.361-.2.403-.305.02-.049.004-.15 0-.207-.027-.403.582-.42.573-.771-.002-.095-.007-.119.036-.21.125-.24.626-.494.615-.767 0-.044-.009-.095-.014-.14-.035-.361.533-.443.442-.784-.052-.204.011-.268.145-.412.133-.142.245-.218.229-.428-.018-.231.132-.339.277-.486.136-.142.185-.192.216-.388.027-.177.178-.297.31-.403.236-.186.365-.297.566-.516a8.816 8.816 0 0 1 1.134-1.03c-1.836.86-3.062 2.663-3.976 4.414.711-1.939 1.476-3.457 2.496-4.4.818-.757 1.638-1.21 2.795-1.57-1.355.27-2.195.554-3.149 1.393-1.16 1.02-1.835 2.932-2.58 4.121m-11.686-5.705c.229.119.555-.01.73-.288.173-.277.13-.597-.099-.718-.228-.118-.555.011-.729.288-.174.277-.13.6.098.718Zm.532-.905c.18.092-.03.426-.209.331-.18-.093.029-.425.209-.332ZM30.472 38.2c-.104-.041-.247.039-.321.181-.075.142-.051.291.052.333.104.042.247-.038.321-.18.075-.142.051-.291-.052-.333Zm4.148.338c-.087-.033-.198.065-.247.222-.05.155-.016.306.072.34.09.033.198-.065.247-.22.047-.155.016-.308-.072-.34m-8.232-.987c-.09.117-.094.255-.007.306.087.051.23 0 .321-.118.09-.119.094-.255.007-.306-.087-.051-.23 0-.32.118Z"/><path d="M66.463 7.44c-.138-.363-4.623 2.795-8.054 3.49.92-.318 2.79-.784 4.282-2.39.208-.224.334-.357-.07-.33-.044.003-.242-.001-.097-.054.852-.3 1.133-.607 1.689-1.336.399-.526.123-.468-.322-.373-.103.022-.2.042-.302.06-.162.031 1.062-.38 1.385-.816.394-.53.784-1.436.853-2.112.002-.022-.008-.037-.028-.038-.26-.139-.808.366-.937.493-2.728 2.694-6.595 3.674-10.12 4.656-.09.024-.354.108-.704.222-.024.017-.051.028-.077.04l-.025-.029C49.077 3.251 42.036 0 34.618 0 25.066 0 16.441 5.272 12.02 13.783h-.002a3.366 3.366 0 0 1-.073.14c-1.953.711-4.305 2.404-5.533 3.11C4.652 18.046 2.94 18.91.97 19.42c-.189.05 0 .204.098.237.373.16 1.322.324 1.75.173.172-.07.34-.13.564-.244-.075.124-.303.228-.474.344-.185.126-.154.184.044.22.48.092 1.456-.12 1.962-.229-.832.85-3.652 1.34-4.875 1.602-.101.022.01.124.114.175.36.18 1.232.282 1.636.218.294-.045.583-.158.882-.215.11-.018.165-.034.277-.038-.072.027-.638.213-.391.33.234.111 1.418.033 1.666.005.418-.045.942-.136 1.3-.366-1.671.931-3.28 1.986-4.122 3.783-.143.306-.357.856.234.7.345-.091.396-.164.078.175C.488 27.606.236 29.64.484 29.922c.098.11.187.064.262-.035.531-.708 1.405-1.53 2.071-2.131.435-.396 1.182-1.05 1.714-1.28a.4.4 0 0 1 .143-.038c-.938 1.482-1.482 4.457-1.502 5.062-.005.146-.072 1.698.372 1.066.167-.235.325-.556.49-.81.17-.267.234-.227.234-.225-.386.784-.546 1.046-.727 1.935-.115.558-.267 1.409-.11 1.957.03.102.278.846.407.529.412-1.024.805-2.074 1.237-3.089.76-1.786 1.964-3.305 2.953-4.98-.392 1.467-.403 1.915-.446 3.433-.008.268-.015.569.282.663.171.055.202.068.115.268-.2.461-.374.638-.361 1.174.005.238.042.517.072.756.164 1.243.635.537 1.09-.017.347-.42.15.013-.034.236-.406.497-.579 1.035-.571 1.692.009.795.678 2.373 1.211 3.025.143.175.09.06.076-.151-.121-1.662-.02-3.31.327-4.938.092-.434.154-.851.255-1.288.017-.072.031-.137.048-.204a25.772 25.772 0 0 0 8.495 12.955 25.439 25.439 0 0 0 16.031 5.716c14.051 0 25.483-11.485 25.483-25.601 0-1.04-.067-2.078-.194-3.109.208-.135.379-.271.468-.403.194-.288-.314-.293-.56-.284a26.29 26.29 0 0 0-.139-.825l.24-.13c.25-.156.257-.264-.12-.237-.034.002-.07.008-.105.01l-.09-.044s0-.007-.003-.011c.354-.071.759-.153 1.123-.299a2.447 2.447 0 0 0 1.183-1.017c.07-.147-.722.013-.788.024-.575.106-1.15.23-1.724.352l-.071-.287c.437-.162.923-.382.459-.42a4.974 4.974 0 0 0-.572-.002l-.021-.08a5.44 5.44 0 0 1 .582-.066c.573-.042.927-.053 1.462-.266.49-.197 1.744-.902 1.971-1.423.078-.22-1.286.133-1.398.158-.624.15-1.248.32-1.874.472-.304.075-.662.163-.994.217l-.018-.066c.053-.018.105-.04.156-.058.446-.155.893-.306 1.339-.459.154-.053.687-.217.778-.32.147-.17-.347-.23-.113-.236.24-.005.49.031.728 0 .286-.036.752-.266 1.026-.393.245-.117.675-.33.887-.492.03-.022.223-.122.122-.16-.091-.035-.593.063-.706-.026.129-.015.916-.097 1.226-.425.17-.18.532-.477.591-.73.04-.188-4.96 1.339-5.484 1.463.551-.265 1.529-.649 2.485-1.263.399-.257.789-.532 1.166-.824.266-.207.593-.46.827-.703.169-.175.185-.277.101-.317-.175-.084-.333.047-.61.082.315-.233.741-.303 1.044-.5.247-.16.48-.406.513-.72.024-.36-1.944.659-4.369 1.544A13.64 13.64 0 0 0 62 12.442c.116-.086.353-.246.433-.357.14-.203-.136-.175-.181-.208.103-.051.21-.09.32-.13.712-.258 1.49-1.009 1.992-1.605.367-.435.15-.38-.234-.27-.177.052-.493.09-.689.12.512-.18 1.678-.744 2.028-1.149.147-.17.881-1.152.796-1.398m-31.847-6.4c6.981 0 13.61 3.002 18.259 8.252-.854.29-1.734.601-2.019.741a7.497 7.497 0 0 0-1.05.62l-.3.228c-1.336 1.091-1.675 2.414-2.642 4.238-1.472 2.777-2.873 5.312-5.14 7.537-1.41 1.385-3.872 3.722-6.003 3.578-1.262-.085-.593-2.467-.372-3.168.249-.79.593-1.567.94-2.316.399-.862.818-1.713 1.217-2.575.53-1.148 1.048-2.35 1.37-3.577a7.116 7.116 0 0 0 .171-2.766c1.087-.61.903-1.119.758-2.143l-.188.153c.127-.585-.044-1.02-.202-1.565l-.136.353c-.041-.57-.292-1.153-.56-1.616l-.194-.335c-.1.433-.203.884-.386 1.288-.176-.288-.575-.492-.813-.674l-.248-.19c.007.62.067.946-.67 1.083-1.153.213-2.372.523-3.308 1.268-.767.61-1.27 1.536-1.474 2.49-.724 1.027-1.384 2.138-2.014 3.224-.816 1.409-1.518 2.881-2.274 4.323-.718 1.368-2.171 4.376-2.171 4.376-1.614-.994-3.305-2.046-4.736-3.298-1.305-1.142-2.446-2.414-3.522-3.764l-.2-.252-.387-.497c-.416-.543-.833-1.13-1.288-1.638-.281-.314-.615-.627-1.027-.751h-.018a.865.865 0 0 1-.31-.055.99.99 0 0 1-.283-.013c-.033 0-.069.008-.103.01 4.342-7.767 12.467-12.57 21.323-12.57Zm-.217 11.07c.245-.901.841-1.687 1.786-1.648 1.33.053.307 1.689-.217 2.179-.526.27-1.109.632-1.64 1.019a3.419 3.419 0 0 1 .005-1.26l.07-.29H34.4Zm-.106 1.974c.523-.558 1.41-1.006 1.832-1.243.724.644-.624 2.169-.861 3.014-.987 3.508-.243 3.909-2.858 6.998-2.391 2.822-6.19 6.211-7.997 7.348-.559.352-.829.39-.98.303 4.136-4.79 6.617-8.905 9.405-14.173.37-.7.95-1.7 1.461-2.247m-6.37 25.294-.134.07c-.252.108-.353.16-.614.287.246.1.609.262.905.279h.04l-.358.266c.261.025.48.124.73.013.025.672-.224 1.377-.46 2.002-.143.38-.293.756-.415 1.14a4.973 4.973 0 0 0-1.873.948c.41-.444 1-2.168-.053-2.077.078-.182.118-.317.172-.495.12-.396.209-.8.292-1.203.104-.5.19-1.004.307-1.503.032-.14.234-.409.392-.693.012-.022.021-.045.034-.067l.1-.177c.047-.082.083-.168.112-.257l.037-.113c.025-.078.043-.16.054-.24l.014-.115c.006-.046.01-.09.011-.133l.008-.285.14-.14.139.272c.205.371.417.694.687 1.03l-.052.39a.849.849 0 0 1-.057.198l-.021.053a.848.848 0 0 1-.084.149l-.02.027a.816.816 0 0 1-.212.206l-.09.06.273.106-.003.002Zm-1.866-1.134a.544.544 0 0 1-.188-.51c.09-.393.404-.747 1.151-.967.002.045.038.237.037.284 0 .299-.055.629-.218.898-.205.337-.597.449-.782.295Zm.909-1.84c-.161-.135-.531-.302-.542-.523-.165.037-.189.007-.332.017.912-.999 2.176-2.007 3.39-3-.702 1.21-1.927 2.797-2.516 3.506Zm-.2-5.19c-.669.527-1.42 1.035-2.787 1.36.464-.576 1.006-1.272 1.072-2.032-1.107.53-2.35 1.276-3.443 1.31.573-.54.962-1.52 1.337-2.272-.089.556-.06 1.002.15 1.254.643.769 2.756-1.2 3.378-1.717l.555.547.007-.033c.022-.091-.129.687-.27 1.584M30.8 15.206c.674-.202 1.206-1.068 1.601-1.013.383.051.156.492.067.674-2.517 5.215-4.87 9.953-9.155 15.425-.202-.63.411-2.664 1.567-4.902 1.735-3.363 4.31-8.624 5.515-10.725-.129.468.152.618.404.541Zm.041-.282c-.087.01-.234 0-.275-.088-.035-.075-.075-.215.036-.413.4-.716.988-1.56 1.54-2.342.063-.005.306 0 .433-.036.11.145.298.331.566.328-.163.277-1.685 2.476-2.3 2.55ZM9.404 31.447c-.462-2.32-.063-5.064.425-7.593-1.85 1.103-3.824 4.097-4.807 6.052.22-1.894 1.968-4.946 3.43-7.154-1.302.472-4.088 2.392-5.294 3.405.861-1.825 3.55-4.127 5.44-5.677-1.136.258-3.5.712-4.368.497.818-.177 3.263-1.66 4.019-2.444-.88.248-3.004.543-3.7.405 1.097-.581 4.358-3.016 7.106-4.391 2.255-.702 2.52-.602 4.302 1.725 1.756 2.292 3.657 4.517 6.21 6.436l.963.683c.07.048.136.095.207.14.56.37 1.03.691 1.52.997l-.19.43c-1.887-1.259-3.613-2.589-5.24-4.185-2.325-2.283-4.047-4.787-4.805-5.385-.29-.23-.556.066-.62.143-.475.566-.517 1.027-.655 1.763l.229-.442c.14-.283.272-.487.388-.595.794-.72 1.023.26 1.15.454.174.27.266.26.488.44.161.134.165.178.176.373.02.354.576.344.625.721.033.254.055.3.29.423.187.097.421.173.429.416.005.195-.006.246.163.375.205.159.455.208.517.489.052.227.138.328.31.477.169.146.598.33.65.546.035.186-.017.208.166.343.229.17.55.171.61.51.041.233.077.301.266.449.221.173.582.193.63.5.034.221.025.216.188.387.23.244.301.233.55.404.185.134.168.166.24.358.17.442.757.408.837.758.045.202.054.264.223.406.214.179.415.195.602.324.158.11.127.194.147.345.06.33.515.534.785.68-.357.82-.696 1.665-.928 2.53a6.069 6.069 0 0 0-.085.363c-1.012.662-2.21 1.164-3.363 1.503.773-.677 1.738-1.538 2.242-2.875-1.19.55-3.294 1.095-4.567 1.102.9-.628 2.593-1.576 3.172-2.494-1.255.404-3.531 1.11-4.884 1.064 1.102-.328 2.416-1.449 3.036-2.32-1.749.42-3.961.968-5.799.81 1.018-.496 3.006-1.149 3.822-2.353-.94.48-3.706.962-4.83 1.29l.221-.809c.791-.47 2.202-1.157 2.884-2.15-.96.793-2.17 1.108-2.751 1.35.47-2.445 2.105-4.335 2.528-6.403.043-.212.072-.43.033-.589-.08-.33-.345-.446-.644.019C12.823 18.455 9.82 30.108 9.4 31.45m1.237-1.086.03-.113.08-.292.294-1.044.419-1.514c.66-.268 2.873-.271 3.745-.525-.665.421-3.623 1.31-3.618 1.795l.004.03c.018.063.088.12.234.165 1.06.335 3.643.151 5.043-.643-1.108.945-4.274 1.589-2.508 2.206 1.288.45 3.827-.302 5.075-.636-.836.67-3.898 1.857-2.585 2.149.973.217 3.254-.117 4.248-.888-.6.995-3.28 2.001-1.919 2.134 1.081.106 2.936-.32 3.784-.922-.91 1.094-2.647 2.101-1.114 1.906.82-.104 2.662-.803 3.29-1.204-1.817 3.23 1.24.284 1.444-.385a6.036 6.036 0 0 0-.04.767c.009.265.03.52.06.77l-.006.005c.013.133.027.264.046.395.009.068.054.388.08.562l-.062.056-.715.72-.109.065c-.38.135-.665.43-.921.726-.165.187-.281.38-.374.605-.05.123-.092.276-.161.391-.123.203-.406.28-.624.363l.192.184.011.01c-.274.07-.37.101-.64.185.207.122.508.317.772.37l.037.007h-.002l-.368.191c.232.059.645.21.89.143-.087.606-.431 1.204-.747 1.733-.192.32-.392.637-.566.967-.834.099-1.518.368-2.078.764-1.038.626-1.547 1.607-1.794 2.308a24.514 24.514 0 0 1-8.826-14.5m10.886 15.976c.628-.945 1.854-2.913 3.21-3.4-1.635.315-2.695 1.48-2.95 1.848-.508.734-.94.951-1.236.895-.105-.075-.208-.154-.313-.23-.102-.177-.127-.428-.053-.685.49-1.704 1.828-2.626 3.45-2.785.511-.993 1.175-2.035 1.224-3.096-.096.042-.18.05-.267.042-.128.03-.243.004-.382-.016.176-.087.3-.197.406-.339-.06.011-.116.013-.172.011-.281.055-.526-.08-.715-.146.263-.08.579-.12.84-.288-.189.015-.372.011-.479-.09.706-.274.403-.657.97-1.31.278-.322.566-.611.95-.702.119-.024.13-.011.33-.01.082.194.322.36.621.55-.807.168-1.326.748-1.28 1.285.04.465.399.806 1.04.487-.115.164-.386.465-.446.727-.26 1.124-.467 2.69-.977 3.457.41-.3.774.038.78.4.012.965-2.418 3.13-3.972 3.749-.194-.117-.39-.232-.582-.354m1.36.8c.491-.253.78-.48.78-.48.212-.174.227-.174.439-.387-.2.328-.363.85-.472 1.263-.252-.128-.5-.26-.747-.396Zm1.38.71c-.101-.047-.201-.1-.303-.149.071-.344.16-.668.278-.978.319-.833.885-1.562 1.574-2.14a8.265 8.265 0 0 0-1.25 2.21c-.14.376-.235.732-.299 1.058Zm2.98 1.17c-.316-.1-.63-.209-.941-.322.038-.085.09-.2.174-.373 1.293-2.834 2.909-3.503 2.882-3.565-3.092 1.535-3.32 3.59-4.087 3.54-.12-.05-.237-.105-.355-.156-.729-.772 1.152-4.138 3.03-4.522.224-.737.509-1.511.652-2.274.094-.19.192-.38.27-.585.075-.288.096-.578.056-.859a.59.59 0 0 1-.254.18h-.007l-.007.002h-.106c-.035 0-.07-.005-.109-.007h-.074l.009-.007.009-.007.009-.008.009-.007.01-.007.006-.008.008-.005.007-.007.007-.008.007-.005.008-.007.007-.006.005-.005.006-.008.007-.005.005-.005.006-.006.005-.007.006-.006.003-.005.006-.006.003-.007.004-.005.004-.006.003-.007.004-.006.005-.009.004-.003.004-.008.003-.007.004-.007.004-.008.003-.007.004-.007v-.004l.005-.003.004-.008v-.003l.003-.004v-.004l.004-.003v-.004l.004-.004v-.003l.003-.004v-.003l.004-.004v-.004l.004-.003v-.004l.003-.004v-.003l.004-.004v-.004l.003-.003v-.004l.004-.004v-.003l.004-.004v-.003l.003-.004v-.004l.004-.003v-.004l.004-.004v-.005l.003-.004v-.005l.004-.004.003-.005.006-.013v-.006l.004-.003v-.006l.003-.003.004-.006v-.003l.003-.006v-.004l.004-.005.004-.01.003-.008.004-.01v-.003l.005-.007.004-.01.004-.009a1.406 1.406 0 0 1-.066.046h-.003l-.004.004h-.003l-.004.003h-.004v.004h-.003l-.004.004h-.004l-.003.003h-.004l-.003.004h-.004l-.004.004h-.003l-.008.005h-.003l-.004.004h-.003l-.008.005h-.003l-.004.004-.007.003h-.004l-.004.004h-.003l-.004.004-.007.003h-.004l-.029.013h-.003l-.004.002h-.004l-.007.004h-.003l-.004.001h-.004l-.003.002h-.004l-.004.002h-.003l-.004.002h-.007l-.004.002h-.025c-.207.045-.401-.011-.572-.055h-.108.018l.003-.002h.037l.003-.002h.006l.003-.002h.04l.004-.001h.005l.004-.002h.007l.004-.002h.007l.004-.002h.007l.004-.002h.003l.004-.001h.004l.003-.002h.004l.004-.002h.007l.007-.004h.007l.004-.002h.011v-.003h.007l.004-.004c.165-.054.33-.127.478-.22l.008-.006.007-.005h.004l.003-.004h.004l.005-.005.004-.004h.004l.003-.004c.053-.034.104-.074.152-.114-.2.045-.435.085-.565-.01.654-.37.364-.708.689-1.362-.396.68-.134 1.024-.822 1.399.194-.113.289-.224.332-.34.06-.163.027-.325.056-.56.07-.55.242-1.263 1.061-1.596.363.014.407-.017.64-.092.131.256.23.343.58.682-.612.317-1.051.96-1.084 1.368-.052.675.597.793 1.09.44-.092.198-.322.566-.335.86-.056 1.262.05 3.17-.343 4.087.381-.392.822-.257.9.136.157.797-.252.697-.766 1.354-1.175 1.507-1.347 3.109-2.778 3.404m1.436-8.847a.773.773 0 0 0 .12-.063c.038.417-.042.738-.181 1.124a4.3 4.3 0 0 0 .061-1.062m1.547 3.533a5.74 5.74 0 0 0 .1-.63c.049-.449.065-.904.074-1.355l.008-.404-.004-.877-.007-.284.408.23c.604.35 1.168.628 1.893.907 0 .356-.034.953-.215 1.731-.095.408-.21.813-.29 1.225a5.37 5.37 0 0 0-1.236.643c.543-1.254-.636-1.206-.73-1.184m.386-4.988c-.145.378-.452.567-.693.478-.194-.073-.377-.335-.17-.776.208-.445.623-.822.886-.866.084.359.118.794-.025 1.164m.1-1.558c-.214-.162-.575-.548-.657-.707a2.555 2.555 0 0 1-.658.153c.781-1.231 1.94-2.529 3.048-3.8a86.974 86.974 0 0 1-1.734 4.354Zm-1.518 12.391c-.316-.07-.628-.15-.94-.233.254-.208.491-.446.69-.707l.133-.2c.17-.247.289-.587.403-.78-.227.892-.281 1.536-.287 1.922m4.087.57c.094-.435.11-.909.185-1.466.072-.544.19-1.695.968-3.47-1.066 1.37-1.547 4.146-2.497 4.825a26.65 26.65 0 0 1-1.018-.133c-.22-.27-.399-.805-.21-1.87.078-.351.236-1.617 1.068-2.906-1.068.8-1.68 2.35-1.766 2.74a8.723 8.723 0 0 0-.234 1.834c-.042-.01-.082-.016-.124-.026v-.007c0-.004 0-.007-.002-.009a7.7 7.7 0 0 1 .098-1.88c.329-1.76 1.176-2.81 2.86-3.404.213-1.201.541-2.462.278-3.623a.446.446 0 0 0 .269-.124c.107.675-.004 1.053-.086 1.542.16-.574.33-1.28.216-1.808l-.007.01-.004.005v.003c-.032.033-.061.064-.094.095l-.007.006a.614.614 0 0 1-.289.15h-.007l-.002.003h-.003c-.093.02-.19.022-.285.03h-.011.004l.003-.005h.004v-.003c.02-.017.038-.031.056-.048h.004l.003-.005h.004v-.004h.002a1.38 1.38 0 0 0 .348-.503l.004-.007v-.004l.003-.003.004-.008-.01.008-.008.007-.01.007a1.262 1.262 0 0 1-.24.16l-.01.004a.98.98 0 0 1-.156.06h-.007a.966.966 0 0 1-.557-.016l-.014-.004.003-.003h.004l.004-.006.003-.003h.004l.004-.006.003-.004h.004l.005-.005h.004l.004-.005h.003v-.002h.004l.003-.006h.004v-.002h.004l.003-.005h.004v-.002h.004l.003-.003h.004v-.004h.004l.003-.004h.004v-.004h.003l.01-.007.003-.002.004-.003h.003v-.004h.004l.004-.004h.003v-.003h.004l.004-.004h.003v-.003h.004l.003-.004h.004v-.004h.004l.003-.003h.004l.002-.004h.002l.003-.004h.004v-.003h.003l.004-.004.004-.004h.001l.002-.001h.004l.004-.006.001-.003h.004l.004-.006h.001l.002-.002.004-.004h.003l.002-.003.004-.004.003-.003h.002v-.002h.004l.004-.006h.001v-.001l.01-.006c.07-.042.146-.093.213-.142h.004l.007-.007.008-.006.005-.003h.002l.009-.01.007-.005.006-.004h.003l.008-.009.007-.007.005-.004.004-.003.007-.006.007-.007.006-.004h.003l.008-.009.007-.007.005-.004h.004l.007-.009.008-.007.005-.004.004-.004.007-.007.007-.007.005-.004.004-.003.007-.008.008-.007.005-.004.004-.003.009-.008.007-.007.005-.004.004-.003.007-.007.008-.008.003-.003.004-.004.007-.007.007-.008.004-.003.004-.004.007-.007.009-.008.004-.003.003-.004.008-.007c-.215.067-.385.122-.53.038l.03-.02h.004l.026-.022.005-.005.01-.006.02-.014.007-.006.021-.016.01-.007.014-.013.01-.01.013-.012.011-.01.013-.012.01-.01.019-.02.014-.015.008-.008.018-.021h.002l.014-.022.004-.004.003-.005.011-.015.006-.007.01-.017.004-.007.01-.015.005-.007.007-.014.005-.011v-.004l.01-.017.02-.047.009-.024.007-.02v-.005l.002-.002c.003-.015.009-.029.012-.044v-.007c.006-.014.008-.027.011-.042v-.005a.902.902 0 0 0 .017-.097l.001-.024v-.005l.002-.018v-.008c.022-.242.006-.519.142-.861-.236.484-.203.645-.352 1.096-.073.217-.225.36-.416.487-.105-.308-.112-.67-.036-1.031.303-.461.659-1.108.996-1.518.363-.006.684-.071.921-.173.162.191.198.288.553.623-.482.526-.716 1.106-.694 1.534.034.703.466.756.941.34-.072.216-.267.62-.241.927.109 1.315.475 3.281.178 4.27 1.548-1.457 1.075 2.991-.726 5.425a28.442 28.442 0 0 1-.695-.025M31.98 38.656c0-.124.026-.26.131-.485.229-.48.504-.818.73-.89-.139.105-.862 1.244-.86 1.375Zm3.24 5.629a.918.918 0 0 0-.261.012c.023-.224.025-.452.023-.663a11.103 11.103 0 0 0-.034-.696l-.11-.864.086.019c.504.603.847 1.31.923 2.175-.214-.004-.428-.005-.642-.004.002.006.01.015.013.02m-.557-6.672c-.212-.099-.542-.607-.682-.747-.172.085-.598.113-.841.154.667-1.353 1.844-2.822 2.852-4.252-.357 1.53-.821 3.429-1.329 4.843m.05 1.476c-.155.73-1.02.855-.728-.217.132-.483.439-.918.65-.991.097.362.162.809.079 1.208ZM34.565 50.2c-.056 0-.11-.003-.167-.003.267-.381.542-.855.807-1.45.58-1.278.978-2.667.918-3.545 4.375.064 7.43.915 9.91 2.121A24.197 24.197 0 0 1 34.565 50.2Zm1.78-7.797c.148.036.297.075.445.108.68.807.798 1.262.88 1.824-.337-.022-.675-.04-1.016-.051-.114-.737-.081-1.454-.312-1.88M58.864 23.04c.092.863.14 1.733.14 2.604 0 8.795-4.629 16.525-11.566 20.864a14.832 14.832 0 0 0-1.783-.718c-2.012-.69-4.598-1.187-7.322-1.405a3.29 3.29 0 0 0-.142-1.567c2.692.2 8.249-.42 10.148-1.518-1.126-.162-3.435 0-4.968-.478 1.758.246 3.345-.03 4.754-.841-.952.14-1.948.41-2.71-.02.985-.046 1.235-.443 1.847-1.218-1.638.7-2.998-.311-4.698-1.672-1.217-2.852-1.37-3.244-2.517-4.747 1.257 1.21 3.887 2.04 5.503 1.414.375-.146-1.314-.744-2.092-1.615 1.243.831 5.313 1.028 4.872.676-.626-.499-1.828-.953-2.427-1.494.655.222 1.408.334 2.09.423.155.02.609.096.736.025.17-.096-.483-.687-.288-.617.24.085.51.512.798.565.217.04 2.37-.15 2.113-.564-.057-.09-3.592-1.018-3.994-1.144.607.166 4.111.74 6.001-.016.392-.157-2.09-.616-3.487-1.376.419.175 3.447-.007 3.652-.271.124-.16-.245-.22-.444-.425.263.05.7.171.814.199.307.074.94.01 1.141-.033.296-.064.762-.195.994-.41.35-.326-2.837-.689-5.456-1.243.802.179 3.778.038 4.513-.354.31-.163-.508-.375-.57-.384.46-.076 1.025.02 1.59-.056.331-.046.697-.088 1.002-.235.133-.064.387-.186.055-.183-.2 0-.46.042-.588-.03.154-.039 1.772-.416 1.72-.693-.019-.097-.688-.047-.793-.046-1.15.022-2.29.088-3.443.09-.645 0-1.668-.004-2.272-.177 1.509.042 3.063-.086 4.532-.456.136-.034.907-.204.876-.368-.027-.145-.92-.286-.943-.352.205-.041.544.046.787.084.53.084.722.139 1.24-.005.14-.038.35-.115.585-.213Zm-.615-1.535a9.88 9.88 0 0 0 .383-.109c.032.18.06.36.087.54a66.02 66.02 0 0 0-.903.109c-1.078.133-2.581.333-3.639.202.338-.073 2.489-.324 4.072-.742Zm-1.721-1.435a21.128 21.128 0 0 0 1.701-.363l.04-.011c.014.06.03.12.047.18a5.677 5.677 0 0 1-.205.04c-.475.088-1.117.205-1.587.19-.221-.007-.143-.01.006-.037m2.047-2.057c.062-.027.127-.047.19-.07l-.012.047c-.06.007-.122.018-.178.023Zm-4.33-3.96c.73.207 2.883 1.202 4.883.631-1.255.778-3.346.895-5.693 1.192.807.428 3.223 1.25 4.821 1.091-1.115.35-3.789.629-5.5.846.567.412 3.334 1.297 4.617 1.044-1.76.978-4.237.718-5.53.729.435.433 2.374 1.443 3.888 1.554-1.004.284-3.152.771-5.138.536.806.614 2.235 1.467 3.573 1.538-2.018.729-4.099.362-4.935.439.361.488 1.645 1.472 3.103 1.77-1.95.757-3.573.304-4.695.185.596.716 1.26 1.236 2.68 1.76-1.859.396-2.435.203-4.276-.029.72.76 1.119 1.212 2.107 1.737-1.376.178-2.553-.088-3.934-.521.593.614 1.186 1.19 2.013 1.694-1.28-.005-2.109-.417-3.36-.772.616.933.86 1.295 1.436 1.822-1.552-.117-1.649-.315-3.12-.926.244.512.527 1.332 1.034 1.959-.856-.077-2.4-.634-2.956-.884-.1-.043-.22-.01-.125.108 1.42 1.77 2.69 4.747 2.702 4.781.503 1.44.441 1.713 1.995 2.436-1.287 0-1.94-.468-3.458-.913.362.403.712.691 1.122 1.014-2.383-.01-4.363-.274-6.001-.722l-.323-.084c.203-.774.379-1.554.526-2.338.076-.402.473-3.117.437-3.347-.83.74-1.75 2.123-2.296 2.977-.35.549-.67 1.116-.958 1.697-.333-.186-.963-.538-1.235-.72a13.1 13.1 0 0 0 .243-.689c.14-.442.34-1.211.508-1.896.12-.487.252-.999.243-1.298-.406.297-.579.48-.903.853a55.96 55.96 0 0 0-1.382 1.63l-.123.156c-.077-.086-.205-.228-.245-.281a10.797 10.797 0 0 1-.688-1.102c.182-.405.374-.824.414-1.081a4.011 4.011 0 0 0-.758.481c-.053-.137-.184-.472-.207-.543-.192-.58-.392-1.43-.314-2.363.107-1.283.548-2.688 1.475-4.184 1.438-1.416 4.211-4.127 4.911-6.28.292-.898.243-1.99.473-3.037 1.508-.975 2.115-1.997 2.11-2.247-.61.88-1.28 1.5-2.015 1.85.022-.088.045-.173.069-.259.101-.364.44-.84.625-1.179.205-.377.454-.953.441-1.452.011-.166 0-.308-.101-.445a.839.839 0 0 0-.189-.248c.492-.67 1.436-2.263-.016-2.396-.976-.025-1.828.449-2.16 1.875l-.055.008c-.127.016-.722-.03-.923-.026a.285.285 0 0 1-.069-.007 1.243 1.243 0 0 1-.403-.357c-.148.025-.391.098-.542.062.735-2.127 2.532-3.06 4.641-3.27.517-.09.574-.172.646-.48.38.308.573.575.513.922.494-.255.617-.41.757-.84.096.442.388.933-.098 1.918.373-.158.515-.196.694-.512.013.392-.01.523-.264.986.168-.022.437.011.562-.067-.098.408-.515.827-.981.97.272 1.745-.26 3.758-1.07 5.364-.18.337-.987 2.122-1.76 3.735-.582 1.217-2.418 5.596-.814 6.35 1.103.52 3.57-.88 4.394-1.51 3.739-2.857 5.035-4.61 7.836-9.588 1.09-1.94 1.605-3.774 2.664-4.403C53 9.55 59.734 8.604 61.66 7.404c-1.976 1.82-5.023 3.547-6.803 4.427 0 0 2.063.913 5.333.205-1.596 1.142-4.603 1.91-5.94 2.028m23.37 11.101V13.937h-1.042v7.89h-.738c-.63 0-.823-.19-.823-.636v-7.254h-1.041v6.902c0 .858.39 1.436 1.757 1.436h.845v3.309c0 .545 0 1.015-.608 1.015h-1.713v.448h1.67c1.172 0 1.692-1.179 1.692-1.882Zm3.773 1.882h1.041v-10.04h-1.04v4.504h-.412c-1.15 0-1.172-.492-1.172-1.252v-3.252h-1.041v3.269c0 .842.218 1.667 2.038 1.667h.586v5.104Zm5.249 0h1.04v-10.04h-1.04v2.015l-1.583 4.408v-6.423h-1.041v10.04h1.04v-2.41l1.584-4.41v6.82Zm4.164 0v-9.59h1.453v-.45H88.31v.45h1.454v9.59h1.041Zm5.616-1.784v-2.195H95.38v2.658c0 .447-.022 1.004-.802 1.004-.65 0-.781-.557-.781-1.102v-3.64h2.624v-3.164c0-.908-.305-1.883-1.843-1.883-1.345 0-1.844.957-1.844 1.792v6.44c0 .998.52 1.973 1.864 1.973 1.15 0 1.823-.645 1.823-1.883Zm-2.624-6.753c0-.727.087-1.137.823-1.137s.738.609.738 1.154v3.03h-1.561V18.51Zm7.525 8.537v-10.04H99.35c-1.063 0-1.453.76-1.453 1.601v5.22c0 2.228-.196 2.804-.738 2.804h-.303v.415h.954c.802 0 1.128-.71 1.128-3.203v-5.565c0-.447.065-.871.673-.871h.673v9.637h1.041l-.002.002Zm3.294-5.399h-.694v-4.64h-1.041v10.04h1.801c1.387 0 1.648-.56 1.648-1.37v-2.691c0-.975-.368-1.338-1.714-1.338m.673 4.425c0 .495-.324.56-.823.56h-.542v-4.57h.542c.673 0 .823.163.823.51v3.5Zm5.575-8.617h2.212v-.448h-3.253v10.038h1.041v-9.59Zm6.501 1.284c0-.909-.304-1.866-1.844-1.866-1.344 0-1.843.957-1.843 1.883v6.736c0 .842.499 1.668 1.801 1.668 1.172 0 1.888-.793 1.888-1.768V18.74l-.002.001Zm-1.063 6.753c0 .595-.043 1.22-.801 1.22s-.758-.642-.758-1.22v-7.05c0-.56.087-1.118.823-1.118s.738.575.738 1.137v7.033l-.002-.002Zm2.923-8.487v4.74c0 4.012-.911 4.837-1.649 5.052h-.087v2.245h.998v-1.828h3.232v1.828h.997V26.8h-.695v-9.792h-2.798.002Zm1.757 9.792h-2.493c.433-.594 1.193-1.552 1.193-4.674v-4.703h1.302V26.8h-.002Zm4.248-9.924c-1.085 0-1.736.677-1.736 1.883v1.32h1.041v-1.783c0-.447 0-1.004.716-1.004.608 0 .695.56.695 1.104v2.692h-.91c-1.041 0-1.714.56-1.714 1.552v2.51c0 1.22.304 1.898 1.365 1.898h2.32v-8.29c0-.907-.586-1.882-1.779-1.882m.716 9.756h-.91c-.586 0-.651-.41-.651-.856V22.44c0-.38.043-.938.651-.938h.91v5.13Zm-47.974 3.483h-2.06v13.11h1.041V38.09h.845c1.366 0 1.758-.578 1.758-1.436v-4.92c0-1.122-.456-1.618-1.584-1.618m.543 6.924c0 .447-.196.636-.824.636h-.738v-7.143h.782c.412 0 .781.157.781.636v5.873l-.001-.002Zm3.816-3.987c-1.343 0-1.842.957-1.842 1.882v6.737c0 .842.499 1.667 1.8 1.667 1.172 0 1.887-.792 1.887-1.767v-6.655c0-.91-.303-1.866-1.845-1.866m.782 8.62c0 .593-.043 1.218-.802 1.218-.758 0-.76-.641-.76-1.219v-7.05c0-.561.088-1.119.824-1.119s.738.576.738 1.137v7.034-.002Zm4.074-8.618c-1.192 0-1.8.975-1.8 1.882v6.505c0 .91.608 1.883 1.8 1.883 1.019 0 1.714-.644 1.714-1.883v-2.195h-1.041v2.658c0 .447 0 1.004-.717 1.004-.607 0-.716-.557-.716-1.104V34.57c0-.545.109-1.103.716-1.103.717 0 .717.56.717 1.004v2.395h1.04v-1.932c0-1.239-.694-1.882-1.713-1.882Zm4.554 0c-1.191 0-1.799.975-1.799 1.882v6.505c0 .91.608 1.883 1.8 1.883 1.019 0 1.713-.644 1.713-1.883v-2.195h-1.04v2.658c0 .447 0 1.004-.717 1.004-.608 0-.716-.557-.716-1.104V34.57c0-.545.108-1.103.716-1.103.716 0 .716.56.716 1.004v2.395h1.041v-1.932c0-1.239-.694-1.882-1.713-1.882Zm5.445 2.147-1.583 4.407v-6.421h-1.041v10.038h1.041v-2.41l1.583-4.408v6.819h1.041v-10.04h-1.04V35.2Zm5.205 0-1.583 4.227v-6.241h-1.04v10.038h1.04v-2.41l1.583-4.408v6.819h1.041v-10.04h-1.041V35.2Zm5.964 4.41c0-.553.043-.892.303-1.417.152-.339.52-.847.542-.847l.91-1.37a2.94 2.94 0 0 0 .456-.972c.108-.4.152-.663.152-1.078v-1.263c0-.847-.608-1.757-1.801-1.757-1.019 0-1.712.602-1.712 1.757v2.172h1.041v-2.511c0-.415 0-1.028.716-1.028.608 0 .717.52.717 1.028v1.172c0 .523.022.816-.153 1.34a2.7 2.7 0 0 1-.433.926l-.889 1.28a5.599 5.599 0 0 0-.411.692c-.368.694-.499 1.14-.499 1.88v3.621h3.469v-.42h-2.406v-3.2l-.002-.004Zm5.422-8.722c-1.346 0-1.845.91-1.845 1.757v9.138c0 .77.499 1.556 1.801 1.556 1.172 0 1.886-.74 1.886-1.649v-9.045c0-.848-.303-1.757-1.842-1.757Zm.779 10.895c0 .54-.021 1.135-.801 1.135s-.76-.596-.76-1.135v-9.432c0-.508.087-1.042.823-1.042.737 0 .738.55.738 1.073v9.401Zm3.341-2.173c0-.553.043-.892.303-1.417.152-.339.52-.847.542-.847l.91-1.37a2.94 2.94 0 0 0 .456-.972c.108-.4.152-.663.152-1.078v-1.263c0-.847-.608-1.757-1.801-1.757-1.019 0-1.714.602-1.714 1.757v2.172h1.041v-2.511c0-.415 0-1.028.715-1.028.607 0 .716.52.716 1.028v1.172c0 .523.022.816-.152 1.34-.109.37-.196.586-.434.926l-.888 1.28a5.737 5.737 0 0 0-.412.692c-.368.694-.499 1.14-.499 1.88v3.621h3.47v-.42h-2.407v-3.2l.002-.004Zm6.947-4.35v-2.6c0-.846-.608-1.756-1.799-1.756-1.019 0-1.714.602-1.714 1.757v2.172h1.041v-2.511c0-.416 0-1.028.716-1.028.606 0 .715.52.715 1.028v2.505c.014 1.178-.221 1.848-1.514 1.895h-.354v.423h.31c1.335.033 1.574.707 1.56 1.899v2.854c0 .508-.109 1.027-.715 1.027-.716 0-.716-.612-.716-1.027v-2.511h-1.041v2.172c0 1.155.694 1.756 1.714 1.756 1.191 0 1.799-.91 1.799-1.756v-2.947c-.058-1.392-.689-1.676-.724-1.676.035 0 .666-.286.724-1.678"/></g><defs><filter id="a" x="0" y="0" width="127.008" height="55.203" filterUnits="userSpaceOnUse" color-interpolation-filters="sRGB"><feFlood flood-opacity="0" result="BackgroundImageFix"/><feBlend in="SourceGraphic" in2="BackgroundImageFix" result="shape"/><feColorMatrix in="SourceAlpha" values="0 0 0 0 0 0 0 0 0 0 0 0 0 0 0 0 0 0 127 0" result="hardAlpha"/><feOffset dy="4"/><feGaussianBlur stdDeviation="2"/><feComposite in2="hardAlpha" operator="arithmetic" k2="-1" k3="1"/><feColorMatrix values="0 0 0 0 0 0 0 0 0 0 0 0 0 0 0 0 0 0 0.25 0"/><feBlend in2="shape" result="effect1_innerShadow_1466_2178"/></filter></defs></svg>