<svg width="93" height="57" viewBox="0 0 93 57" fill="none" xmlns="http://www.w3.org/2000/svg"><g clip-path="url(#a)" fill-rule="evenodd" clip-rule="evenodd" fill="#3D57F2"><path d="M85.214 56.768v-4.997c.623.823 1.91 1.355 2.954 1.355 2.76 0 3.879-1.252 3.879-5.469 0-4.217-1.128-5.451-3.88-5.451-1.043 0-2.33.531-2.953 1.354v-1.063H83.91v14.271h1.304Zm0-12.617a5.099 5.099 0 0 1 2.55-.677c2.432 0 2.836.412 2.836 4.183s-.404 4.2-2.836 4.2c-.9 0-1.75-.223-2.55-.677v-7.03Zm-4.2 7.415v-9.069H79.71v8.683c-.808.454-1.65.574-2.558.574-2.432 0-2.735-.223-2.735-3.685v-5.572h-1.304v5.837c0 3.977 1.085 4.792 3.5 4.792 1.389 0 2.474-.652 3.097-1.355l.362 1.252 1.287-.317-.336-1.149-.009.009Zm-14.566 1.56c3.155 0 4.24-1.269 4.24-5.512 0-4.243-1.102-5.408-4.24-5.408-3.14 0-4.241 1.182-4.241 5.408 0 4.226 1.085 5.512 4.24 5.512Zm0-9.652c2.373 0 2.793.454 2.793 4.183 0 3.729-.42 4.2-2.793 4.2s-2.794-.309-2.794-4.2.42-4.183 2.794-4.183Zm-5.85.309.169.068.353-1.363a2.58 2.58 0 0 0-.176-.077c-.346-.128-.825-.205-1.389-.205-1.128 0-1.994.634-2.819 1.354l-.37-1.26-1.263.343.421 1.32v8.871h1.305v-8.683c.807-.368 1.489-.591 2.39-.591.504 0 1.026.094 1.371.223m-11.958 8.34c2.718 0 2.979.326 2.979 1.843 0 1.225-.648 1.757-3.055 1.757-2.406 0-2.979-.412-2.979-1.757 0-.617.16-1.475.463-2.066.564.146 1.405.223 2.592.223Zm2.255-6.223c0 1.766-.278 2.211-2.693 2.211-2.272 0-2.591-.488-2.591-2.271s.395-2.212 2.65-2.212h2.171c.261.532.463 1.243.463 2.272Zm2.373-3.403h-5.066c-2.516 0-4.005.737-4.005 3.437 0 1.603.42 2.563 1.565 3.009-.505.326-1.001.797-1.001 1.457 0 .574.1 1.089.984 1.414-.867.489-1.65 1.329-1.65 2.52 0 1.946 1.347 2.666 4.343 2.666 3.416 0 4.645-.96 4.645-3.214 0-2.255-1.245-2.846-4.443-2.846-2.516 0-2.592-.283-2.592-1.106 0-.223.042-.488.101-.737.564.163 1.229.223 2.053.223 2.735 0 4.124-.9 4.124-3.197 0-.926-.539-1.826-1.288-2.494h2.23v-1.132ZM44.466 0v9.78c4.84.334 8.736 4.303 9.064 9.231h9.593V11.41H52.587c-.353 0-.665-.318-.665-.678V0h-7.464.008Z"/><path d="M51.931 30.42V19.69c0-4.552-3.652-8.28-8.13-8.28H33.275v7.603h10.528c.353 0 .665.317.665.677v10.73h7.464ZM11.25 19.689c0-.352-.31-.677-.664-.677H.05v-7.603h9.602c.328 4.928 4.224 8.897 9.063 9.231v23.923c0 .36.312.677.665.677h10.528v7.603H19.38c-4.477 0-8.13-3.729-8.13-8.28V19.689Z"/><path d="M29.908 19.011H19.38c-4.468 0-8.129-3.72-8.129-8.28V0h7.464v10.731c0 .36.312.678.665.678h10.528v7.602Z"/></g><defs><clipPath id="a"><path fill="#fff" transform="translate(.05)" d="M0 0h92.006v57H0z"/></clipPath></defs></svg>