<svg width="300" height="120" viewBox="0 0 300 120" fill="none" xmlns="http://www.w3.org/2000/svg"><path d="M101.468 72.977a13.945 13.945 0 0 1-7.168-7.02 14.308 14.308 0 0 1-.688-10.1 14.04 14.04 0 0 1 6.15-7.957 13.628 13.628 0 0 1 9.807-1.7 13.81 13.81 0 0 1 8.392 5.437 14.26 14.26 0 0 1 2.637 9.761 14.17 14.17 0 0 1-4.481 9.04 13.7 13.7 0 0 1-9.282 3.64 13.534 13.534 0 0 1-5.367-1.101Zm-6.32-10.337v.074l-.024.051v.176c0 .07-.005.138-.013.207a1.6 1.6 0 0 0-.012.17v.126c0 .025.018.044.04.066a.22.22 0 0 1 .06.085.329.329 0 0 1-.009.052.51.51 0 0 0-.016.1.035.035 0 0 1 .032.018.124.124 0 0 1-.007.107h.025v.076c.026.016.053.035.078.052.057.05.125.084.199.096a.109.109 0 0 0 .068-.023l.075-.075.049.024.024-.175a.313.313 0 0 0 .155.066.059.059 0 0 0 .048-.02.162.162 0 0 0 .02-.122c.004.002.009.004.014.003.022 0 .039-.024.057-.05a.169.169 0 0 1 .052-.054l.296-.076.172-.025h.05c.095-.02.192-.034.289-.04.245 0 .482-.084.675-.237h.42c.188.075.441.165.686.252.221.07.438.154.65.251l.049-.075a.933.933 0 0 0-.437-.2 1.14 1.14 0 0 1-.328-.127l.197.075c-.024-.025-.049-.056-.073-.085a1.06 1.06 0 0 0-.076-.09h.488a4.572 4.572 0 0 1-.512-.026l-.051-.047-.149-.025-.12-.044a.908.908 0 0 1-.421-.232l-.05-.075c.062.032.123.067.18.106a.76.76 0 0 0 .181.096c.075.04.152.072.231.1l-.038-.052h.013l-.024-.025.074.025h.026a1.005 1.005 0 0 1-.134-.167c-.094-.13-.198-.275-.278-.275-.036 0-.06.03-.083.09.008.007.011.013.01.018 0 .004-.005.01-.013.015a.225.225 0 0 0-.02.017 17.091 17.091 0 0 1-.463-.297l-.019-.013.012.008v.025l-.025.025-.049.05a.063.063 0 0 1-.046.013c-.015 0-.028 0-.028.013v.05a.096.096 0 0 1-.04.008h-.042a.06.06 0 0 0-.066.043c-.005 0-.021-.024-.048-.06l-.032-.049c-.038-.055-.075-.107-.09-.107-.003 0-.005.004-.005.013.008.033.01.068.007.103-.004 0-.009-.005-.014-.012a.097.097 0 0 0-.067-.04l-.025.074a.076.076 0 0 0-.038-.017c-.014 0-.022.013-.031.03a.172.172 0 0 1-.054.061.077.077 0 0 1-.06.027h-.052c-.026 0-.053.01-.087.08l-.149.126a.221.221 0 0 0-.089.025.21.21 0 0 1-.079.024c-.037 0-.07-.024-.103-.075a.151.151 0 0 1-.133.075.398.398 0 0 1-.093-.02.413.413 0 0 0-.088-.014c-.01 0-.02.002-.03.004a.163.163 0 0 1-.06.014c-.064 0-.106-.047-.16-.108l-.051-.056-.076-.023a.01.01 0 0 0-.009-.004c-.01 0-.019.014-.029.03-.01.014-.019.03-.028.03a.014.014 0 0 1-.008-.005v-.051l-.024-.025v-.153l-.124-.074-.1.1Zm13.02 1.382h.049l-.025.025a.277.277 0 0 0 .06-.025h.013-.01c.012-.008.019-.017.019-.025a.021.021 0 0 0-.003-.011.017.017 0 0 0-.006-.009.563.563 0 0 1 .293-.102.886.886 0 0 0 .275-.075l.025.05.048-.024c.025.038.074.038.121.038s.089 0 .102.037a.299.299 0 0 1-.166.071.044.044 0 0 1-.023-.005.02.02 0 0 1-.007-.007.027.027 0 0 1-.002-.009c-.025.017-.037.03-.034.039.002.008.017.013.046.013a1.73 1.73 0 0 0 .31-.052c-.039-.006-.06-.014-.06-.025 0-.01.051-.04.093-.057l.04-.017-.025.05a.279.279 0 0 0 .186-.082.19.19 0 0 1 .114-.057.167.167 0 0 1 .095.038l.024-.076.173.026c-.013-.076.044-.095.099-.113.055-.018.111-.038.099-.113a.258.258 0 0 1 .079-.022c.009 0 .014.002.016.007.003.006 0 .015-.008.03s-.008.012-.011.017c-.003.006-.013.018-.011.02h.008a.667.667 0 0 0 .291-.123.47.47 0 0 1 .181-.084.04.04 0 0 1 .024.007l-.024.025.05.025-.025-.025.005-.003a.763.763 0 0 1 .241-.123h.296c.18.146.394.242.621.28.06.016.117.031.17.047l-.025.025h.173a.093.093 0 0 0-.025.075c.176.052.358.082.541.092a.398.398 0 0 0 .238-.062c-.003.01.008.024.018.037.011.014.027.032.022.046-.006.014-.029.024-.073.03.079-.007.163-.008.22-.008h.239c.177.004.353-.011.527-.044l.049-.024.027-.006a.65.65 0 0 0 .319-.122c.018.021.041.04.067.052a.21.21 0 0 0 .081.023l-.001-.008.001-.007c.013-.023.077-.035.157-.05.125-.023.28-.052.336-.136.012.012 0 .025-.009.034-.009.01-.009.01-.008.013.001.003.007.003.017.003.135-.058.265-.127.388-.206.099-.061.201-.119.301-.171l1.507-.026c.133.071.269.134.408.19.14.054.276.117.408.188.004 0 .008-.001.01-.004a.013.013 0 0 0 .005-.01.056.056 0 0 0-.01-.037.06.06 0 0 0-.03-.023.462.462 0 0 0 .184.03h.161a.533.533 0 0 1 .249.048l-.05.025a.496.496 0 0 0 .18.04.41.41 0 0 0 .196-.06.885.885 0 0 1 .307-.104.486.486 0 0 0-.085.013.717.717 0 0 1-.131.02c-.041 0-.064-.012-.072-.035a.078.078 0 0 1 .05-.025.496.496 0 0 0 .086-.012.437.437 0 0 1 .086-.013.091.091 0 0 1 .04.004.083.083 0 0 1 .034.02v-.024a2.91 2.91 0 0 0 .358-.093l.112-.033.033-.008a.562.562 0 0 0 .24-.093l.198-.125a.402.402 0 0 1-.061.025.493.493 0 0 0-.06.025l-1.976.025a2.205 2.205 0 0 1-.186-.05 2.07 2.07 0 0 0-.18-.05h.088c.017 0 .028 0 .032-.006a.371.371 0 0 0-.114-.021.219.219 0 0 0-.044.004l-.116-.056a2.493 2.493 0 0 1-.245-.128h.049c-.046-.016-.092-.035-.094-.053 0-.008.006-.015.02-.023a.28.28 0 0 0-.083-.019.143.143 0 0 0-.065.02.132.132 0 0 0-.06-.028.335.335 0 0 1-.06-.022s-.003 0-.008-.003c-.026-.007-.094-.024-.106-.056a.029.029 0 0 1-.002-.016.04.04 0 0 1 .007-.015.07.07 0 0 1-.051.017.442.442 0 0 1-.113-.024.543.543 0 0 0-.147-.029.031.031 0 0 1-.005-.015.03.03 0 0 1 .005-.016c.013-.024.069-.027.12-.03.038 0 .071-.003.074-.014.003-.012-.004-.015-.018-.026a.458.458 0 0 0-.056-.003 1.259 1.259 0 0 0-.511.18c.268-.516.574-1.009.917-1.475.213-.293.409-.598.589-.914a.439.439 0 0 0-.029-.147.104.104 0 0 0-.102-.077c-.224.051-.497.56-.568.755a4.069 4.069 0 0 0-.986 1.938h-.004a.393.393 0 0 1-.12.048c0-.03.025-.05.046-.067.02-.017.028-.023.028-.033-.027.026-.056.05-.085.074-.031.024-.06.05-.088.077a3.79 3.79 0 0 0-.321.151l.197-.227a.11.11 0 0 1-.073.025l.12-.15c-.123.025-.123.1-.123.15h-.05l.05-.1c-.137.045-.143.109-.15.183a.248.248 0 0 1-.048.144l-.173-.025a1.85 1.85 0 0 0-.395.175h-.297a.472.472 0 0 1 .272-.175.028.028 0 0 1 .011.01.024.024 0 0 1 .005.014c0 .031-.057.07-.086.09a.069.069 0 0 0-.019.015l.015-.003.067-.015c.111-.023.264-.054.301-.136l-.272.126c-.011-.03-.013-.049-.005-.062.007-.012.031-.02.055-.023.025-.004.061-.01.073-.04a.11.11 0 0 0-.051-.013.358.358 0 0 0-.136.04.412.412 0 0 1-.158.047l.025-.025a2.51 2.51 0 0 0-.181.075l-.06.027c.008-.006.048-.028.048-.051l-.124.025c-.01.01-.015.019-.013.024.002.006.01.007.023.007a.338.338 0 0 0 .04-.003h.024l-.121.05-.838.015.019-.018h-.007a.125.125 0 0 0-.072.019l-.24.005-.016-.014c-.017-.013-.026-.02-.013-.052h-.046c-.054 0-.107.004-.16.012v-.004c0-.005-.003-.013-.012-.023l.023.004.074-.025h-.12l-.032-.03a.247.247 0 0 1-.023-.02c-.035 0-.052.003-.055.011-.004.008.008.02.02.034l.005.005h-.02l.024.004a.078.078 0 0 1 .026.046.142.142 0 0 0-.041-.005.482.482 0 0 0-.061.005.557.557 0 0 1-.06.004c-.05 0-.077-.017-.086-.054-.013-.013-.018-.024-.015-.03.003-.007.037-.016.074-.018.04.003.08-.006.115-.027h-.371l-.021-.004.021-.02h-.008a.208.208 0 0 1-.115-.026c0-.02.011-.03.032-.03a.24.24 0 0 1 .091.03.319.319 0 0 0-.208-.07c-.1-.009-.188-.017-.188-.132a.266.266 0 0 1-.098-.025l.024-.025-.074-.025c-.348-.132-.392-.171-.395-.19 0-.008.005-.013.012-.018.006-.005.01-.008.009-.013 0-.005-.004-.008-.013-.015a.277.277 0 0 0-.032-.015.189.189 0 0 1-.06.01c-.024 0-.042-.007-.046-.018-.005-.01 0-.012.005-.018l-.172.151a.38.38 0 0 1-.13.16c-.084.077-.171.155-.143.246a.17.17 0 0 1-.053.01.05.05 0 0 1-.035-.01.029.029 0 0 1-.008-.012.033.033 0 0 1-.003-.014.117.117 0 0 1-.04.009c-.028 0-.035-.018-.041-.036-.007-.019-.014-.04-.045-.04a.317.317 0 0 0-.12.042c0-.015.009-.022.023-.03a.167.167 0 0 0 .027-.02h-.004c-.086 0-.095.034-.095.049l-.025-.05a.021.021 0 0 1 .004.013.02.02 0 0 1-.004.013c-.019.032-.106.049-.147.049l.049-.126a.371.371 0 0 1-.197.1l.049-.074c-.081.035-.08.07-.08.098a.036.036 0 0 1-.001.018.033.033 0 0 1-.008.016c-.013.013-.046.019-.108.019h.222c-.144.064-.154.13-.162.188a.145.145 0 0 1-.036.088l-.049.025h-.541a.37.37 0 0 0 .074-.1.238.238 0 0 1 .109-.037.1.1 0 0 1 .084.056c.019.026.038.052.074.052a.29.29 0 0 0 .15-.075.104.104 0 0 0-.09-.047.25.25 0 0 0-.133.047c0-.038.056-.09.106-.135l.043-.041a1.18 1.18 0 0 1-.394.061c-.058 0-.116.006-.174.014h-.024a.378.378 0 0 1-.214.106.103.103 0 0 1-.033-.005c0 .013-.022.027-.049.044a.438.438 0 0 0-.075.057h-.421v-.025a.076.076 0 0 0 .054.02.746.746 0 0 0 .317-.172l-.272-.025c.012.006.017.013.017.021 0 .025-.047.058-.091.08l-.024-.075a.072.072 0 0 1-.08.053.654.654 0 0 1-.167-.037l-.013-.004a.716.716 0 0 0-.202-.041.16.16 0 0 0-.131.053.23.23 0 0 1 .068.015.204.204 0 0 0 .06.012c.015 0 .03-.005.042-.015a.074.074 0 0 0 .027-.037c.031.013.048.027.053.045.005.018-.01.052-.028.078a.117.117 0 0 0-.025.053h-.297a2.029 2.029 0 0 1-.273-.113 1.959 1.959 0 0 0-.27-.113.243.243 0 0 1 .104.03.185.185 0 0 0 .069.021l.024-.025.001-.002-.001-.002a.813.813 0 0 0-.456-.215.17.17 0 0 0-.086.02h-.15a.28.28 0 0 0-.038.025.12.12 0 0 1-.073.032.11.11 0 0 1-.037-.006c-.018.009-.026.015-.025.017 0 .003 0 0 .007 0a.75.75 0 0 0 .093-.015l.057-.01a.912.912 0 0 1 .06-.011c-.049.097-.066.1-.092.103-.026.003-.056.006-.127.09h.027l.025.026-.025.025a.18.18 0 0 1-.07.024c-.017 0-.022-.01-.028-.022v-.004a.039.039 0 0 0-.017-.021.04.04 0 0 0-.027-.006.171.171 0 0 0-.029.004c-.04.053-.069.077-.097.077a.098.098 0 0 1-.047-.017h-.005a.129.129 0 0 0-.063-.019.228.228 0 0 0-.133.061v-.05a.465.465 0 0 1-.215.043 1.832 1.832 0 0 1-.322-.04 2.467 2.467 0 0 0-.18-.029.129.129 0 0 0 .056.014c.041.005.092.012.112.04a.06.06 0 0 1 .008.023c0 .008 0 .017-.003.024l-.296.025a.13.13 0 0 0-.046-.019c-.024-.007-.049-.014-.051-.027-.002-.012.006-.017.023-.029l.099.025-.052-.049c-.077.009-.12.025-.125.047-.005.023.027.062.066.096a.538.538 0 0 1 .034.033h-.197a.077.077 0 0 0 .029-.047.078.078 0 0 0-.029-.053.57.57 0 0 0-.152-.015.763.763 0 0 0-.342.065.533.533 0 0 0-.345-.197c-.115-.032-.205-.057-.199-.122a.065.065 0 0 1-.06.04.114.114 0 0 1-.06-.02l.05-.025a.188.188 0 0 0-.095-.03.202.202 0 0 0-.104.036h-.004a.177.177 0 0 1-.088.032.102.102 0 0 1-.055-.017l.073-.05a.674.674 0 0 0-.219-.031c-.037 0-.073 0-.107.003-.035.003-.064 0-.094 0 .02-.08.04-.17.06-.258.027-.19.082-.374.164-.546.08-.268.172-.402.271-.402h.01c.169 0 .381.314.606.647.236.35.481.71.694.735h.024l.025-.026a.37.37 0 0 0 .049-.148c0-.254-.332-.587-.642-.88a5.07 5.07 0 0 1-.619-.628c.278-.593 1.36-.956 2.001-.98a7.092 7.092 0 0 0-.02.173c-.06.443-.095.889-.104 1.336-.013.355.054.708.198 1.031.049.05.073.05.074.05a.09.09 0 0 0 .036-.012.091.091 0 0 0 .039-.1v-1.345a7.183 7.183 0 0 1 .025-.88c.023-.218.134-.302.396-.302.499.047.981.21 1.408.478a.288.288 0 0 1 .024.1 2.494 2.494 0 0 1-.228.705c-.133.27-.223.559-.266.857a.28.28 0 0 0 .073.176l.025.025h.025c.154-.039.217-.229.297-.469.023-.068.046-.138.073-.21.046-.15.085-.306.12-.449.026-.12.06-.24.103-.355.024-.126.05-.126.074-.126h.012c.113 0 .408.313.408.404v.025h.025c.157.027.258.429.322.73l.028.143c.06.306.107.565.342.586h.021a.407.407 0 0 0 .149-.327 3.706 3.706 0 0 0-.69-1.614.437.437 0 0 1-.05-.125.63.63 0 0 1 .083.009c.055.009.11.014.165.015h.049c.139.022.28.03.421.025a7.05 7.05 0 0 0 .834-.068c.2-.025.39-.047.575-.058h.024l.025-.025a.48.48 0 0 1 .346-.075h.124a1.7 1.7 0 0 0 .345-.025c.47-.016.938-.076 1.398-.18a8.936 8.936 0 0 1 1.172-.172 8.219 8.219 0 0 1 2.149-.453h.321v-.033a1.58 1.58 0 0 1 .198-.018h.172l.025-.025a.125.125 0 0 0 .036-.045.125.125 0 0 0 .014-.056c-.05-.126-.15-.126-.247-.126l-.083.01a.691.691 0 0 0-.278.07h-.085a7.998 7.998 0 0 0-1.093.139l-.068.012a9.64 9.64 0 0 1-1.112.094l-.121.007c-.069.008-.137.014-.203.02-.326.034-.607.062-.71.23a.137.137 0 0 0-.02-.073.133.133 0 0 0-.055-.052h-.024a5.04 5.04 0 0 0-.822.105c-.323.07-.652.11-.982.123a1.156 1.156 0 0 1-.744-.207.326.326 0 0 0-.123-.025.356.356 0 0 1-.065.013c-.065.009-.139.02-.158.112 0 .005.001.01.003.014a.044.044 0 0 0 .01.011.091.091 0 0 1 .009.011l.003.014h-.009a.973.973 0 0 1-.311-.174l-.025-.025h-.025a.251.251 0 0 0-.083.014c.023-.121.035-.244.034-.367v-.043c0-.117.005-.237-.149-.26-.056 0-.084.043-.126.108l-.047.07v.049c.016.05.025.102.028.154a.53.53 0 0 0 .145.373l.025.025a.3.3 0 0 0 .074.19l.025.038.024.024h-.766l.025-.024a.1.1 0 0 1 .012-.038.087.087 0 0 0 .013-.038.14.14 0 0 0-.033-.066.143.143 0 0 0-.06-.041.1.1 0 0 1-.03-.019h-.007a.123.123 0 0 0-.091.021.132.132 0 0 0-.051.08.195.195 0 0 0 .099.101l.024.023c-.344 0-.685-.05-1.015-.148a2.077 2.077 0 0 0-1.26-.327c-.229 0-.452.014-.667.026-.207.012-.401.024-.593.024a2.175 2.175 0 0 0-.692-.075c-.596 0-1.191.051-1.778.151a1.19 1.19 0 0 1-.322-.025.109.109 0 0 1-.074-.025c.133-.062.276-.096.421-.1h.05v-.1a.179.179 0 0 0-.074-.101.171.171 0 0 0-.12-.027h-.078a3.9 3.9 0 0 1 .736-.122l.054-.005h.025l.025-.025.024-.051c-.024-.1-.1-.1-.173-.1l.021-.01a.119.119 0 0 0 .078-.09.144.144 0 0 0-.032-.073.129.129 0 0 0-.065-.042l-.027-.012h-.272c0 .01-.007.012-.016.015a.079.079 0 0 0-.057.061c.035.089.045.09.066.091.011 0 .022.004.033.009a.755.755 0 0 1 .195.05 4.55 4.55 0 0 1-.283.047l-.184.028a1.09 1.09 0 0 1-.144.05c-.097.027-.168.047-.202.152 0 .024 0 .05.024.05h-.098a.294.294 0 0 1-.026-.087c-.009-.047-.016-.08-.097-.114a.324.324 0 0 0-.125.123.249.249 0 0 1-.196.131 1.158 1.158 0 0 1-.025-.327v-.302c.025-.05.049-.05.073-.05a.17.17 0 0 1 .124.176v.05l.018.021a.112.112 0 0 0 .081.054c.092-.019.102-.064.111-.108a.156.156 0 0 1 .013-.042.273.273 0 0 1 .049-.101 19.13 19.13 0 0 1 1.754-.075h1.132c-.004 0-.093.014-.093.098a.08.08 0 0 0 .004.04.092.092 0 0 0 .02.035h-1.555a.077.077 0 0 0-.051.023.084.084 0 0 0-.024.052.132.132 0 0 0 .121.088.355.355 0 0 1 .054.014c.246.04.493.065.742.074.2-.059.409-.084.617-.074.405.009.81.04 1.211.096l.025.004c.049 0 .309 0 .568-.026.065 0 .136-.007.204-.014.069-.006.12-.011.166-.011a.257.257 0 0 1 .099-.025.137.137 0 0 0 .074.126l.049.05.025-.025h.123l.024-.024c0 .025.028.051.051.075l.024.025.05-.025a.088.088 0 0 1 .074-.025h.024l.025-.026a.092.092 0 0 1 .009-.032.176.176 0 0 0 .016-.068c0-.1-.076-.126-.148-.151a.134.134 0 0 0-.124.076.186.186 0 0 0-.173-.076h-.009c-.022-.05-.044-.05-.065-.05a.089.089 0 0 1-.037-.013.08.08 0 0 0-.037-.013c-.692-.025-1.352-.025-2.051-.025l.025-.025c0-.008.003-.017.009-.024a.08.08 0 0 0 .016-.052c0-.038-.044-.06-.08-.073h.671c.142.056.293.082.445.075.382-.008.762-.05 1.137-.125 0 .016.009.021.022.03.01.005.019.012.027.02l.025.025h.148v-.096c.242-.054.487-.092.734-.114l.106-.012a.191.191 0 0 1 .024.126 2.25 2.25 0 0 1-.045.347 2.419 2.419 0 0 0-.054.432.42.42 0 0 0 .049.251l.025.025h.049c.201-.02.237-.228.245-.428h.051v-.025h.05v-.051a.133.133 0 0 0-.098-.122c0-.111-.009-.222-.016-.312a2.698 2.698 0 0 1-.009-.17h.025c.174-.055.352-.098.533-.129l.109-.022c.123-.025.224-.05.321-.075a.192.192 0 0 1 .072-.028.18.18 0 0 0 .067.038l.034.015.025-.075v.075c.436-.067.876-.106 1.317-.118.289-.014.587-.028.882-.061h.05v-.05c-.017-.09-.047-.09-.089-.092a.21.21 0 0 1-.06-.008h-.272c-.244 0-.581.019-.826.034-.155.008-.278.016-.334.016a3.254 3.254 0 0 0-.47.025.949.949 0 0 1-.144.026.66.66 0 0 0-.089.014c-.011-.02-.029-.024-.05-.028a.16.16 0 0 1-.038-.013v-.003a1.06 1.06 0 0 1-.048-.223v-.429h.05l.024-.025.019-.036a.166.166 0 0 0 .03-.09.117.117 0 0 0-.017-.047.116.116 0 0 0-.037-.035l-.02-.019.025-.05v-.101h-.025a.134.134 0 0 0 .055-.052.145.145 0 0 0 .019-.074l-.01-.03a.137.137 0 0 0-.113-.122.03.03 0 0 0-.014.004.036.036 0 0 0-.011.009.037.037 0 0 1-.011.01.03.03 0 0 1-.014.003v-.302a2.209 2.209 0 0 1 .025-.452l.026-.068a1.3 1.3 0 0 1 .056-.135.384.384 0 0 0-.019.135 1.579 1.579 0 0 1-.013.168l-.025.025a.09.09 0 0 0-.02.035.079.079 0 0 0-.004.04v.226l.099-.025c.048 0 .073-.074.073-.1v-.076h.025v-.025a1.18 1.18 0 0 0 .024-.251v-.05a.082.082 0 0 0-.022-.052.08.08 0 0 0-.052-.024.053.053 0 0 0-.028.004.056.056 0 0 0-.023.018c.005-.012.011-.022.026-.022l.02-.01a.351.351 0 0 0 .203-.216.185.185 0 0 0 .024-.1.157.157 0 0 0-.046-.105.157.157 0 0 0-.102-.047.99.99 0 0 0-.322.1.973.973 0 0 1-.32.102c-.127-.026-.198-.055-.198-.352v-.051c-.026-.157-.052-.226-.149-.251-.146.043-.169.228-.187.377l-.01.076a.285.285 0 0 1-.117.177.26.26 0 0 0-.106.15c0 .08.03.13.124.201a18.097 18.097 0 0 1-.198 2.439 2.907 2.907 0 0 1-.432.038 3.635 3.635 0 0 0-.457.037c-.89.05-1.769.05-2.619.05h-.965a.48.48 0 0 1 .173-.025h.075l.022-.008c.06-.019.079-.026.101-.093-.036-.088-.07-.09-.105-.091a.105.105 0 0 1-.044-.009.475.475 0 0 0-.198-.025h-.144a.065.065 0 0 1-.028.014c-.024.008-.054.016-.071.086.004.014.01.028.017.041l-.017.035h.025v-.023a.11.11 0 0 0 .051.037l.022.011h-.841l.003-.004c.024-.024.045-.047.045-.071 0-.126-.1-.126-.148-.126-.048 0-.124.021-.124.1a.11.11 0 0 0 .004.041.108.108 0 0 0 .021.035h-.568a.122.122 0 0 0 .035-.044.122.122 0 0 0 .014-.056v-.05l-.049-.026c-.137-.046-.198-.201-.198-.503.011-.267.041-.533.091-.795.044-.235.072-.473.083-.712 0-.263-.086-.403-.248-.403a.839.839 0 0 1-.295.075.79.79 0 0 1-.174-.024.752.752 0 0 0-.173-.026c-.17 0-.268.141-.421.604a.309.309 0 0 0-.049.2c0 .116.018.226.149.252h.024c.024.32.049.98.05 1.005a.716.716 0 0 0 .183.306c.056.062.101.112.089.17a.345.345 0 0 1-.074.176c-.278.043-.56.06-.842.051h-1.11c-.064 0-.156-.005-.262-.01a8.186 8.186 0 0 0-.43-.015c-.06.006-.12.007-.18.01-.198.005-.352.01-.39.166v.025l.023.025c.228.121.485.174.742.151.281 0 .607-.024.923-.049.127-.01.247-.019.361-.026a.118.118 0 0 0-.025.038.134.134 0 0 1-.024.037c-.025-.026-.05-.05-.074-.05a.435.435 0 0 0-.255.109.447.447 0 0 0-.14.243.34.34 0 0 0 .123.226l.024.025.025-.025a.413.413 0 0 0 .108-.23c.022-.093.041-.173.12-.173a.12.12 0 0 1 .019 0h.049v-.075l.025.025.024.026h.025a.443.443 0 0 0 .098-.013.494.494 0 0 1 .1-.013c.098-.05.148-.075.148-.15v-.026a.81.81 0 0 0 .1.024.39.39 0 0 1 .098.026c.148.018.297.026.445.025h.049a.885.885 0 0 1-.009.073 2.87 2.87 0 0 0-.04.48h-.003c-.175.06-.357.094-.541.104-.027 0-.052 0-.075-.004a.586.586 0 0 1-.133-.016.32.32 0 0 0-.065-.01l-.024-.024a.18.18 0 0 0 .097-.052.18.18 0 0 0 .051-.1.068.068 0 0 0-.012-.033.07.07 0 0 0-.028-.023.14.14 0 0 0-.06-.019.702.702 0 0 0-.421.251.472.472 0 0 0-.097.016.308.308 0 0 1-.052.01h-.049s-.025 0-.05.049a.05.05 0 0 0 .014.036c.01.01.023.014.036.015.05 0 .074 0 .074.025v.025h-.074c-.025 0-.05 0-.074.075a.122.122 0 0 0 .022.034c.003.003.003.003.003.016a.094.094 0 0 1-.025.075 13.64 13.64 0 0 0-.328.032 9.58 9.58 0 0 1-.981.068 1.843 1.843 0 0 1-.815-.125l-.025-.024-.024.024c-.12.035-.246.052-.371.05a6.356 6.356 0 0 1-.982-.117 4.526 4.526 0 0 0-.624-.084.203.203 0 0 0-.173.051.094.094 0 0 0-.025.075c.05.255.47.302.915.352.345.035.69.052 1.037.05a6.29 6.29 0 0 0 1.73.152h1.135c.408-.04.819.003 1.21.125l.036.02a.162.162 0 0 0 .088.03.185.185 0 0 0 .152-.103c.009-.013.014-.023.021-.023.294 0 .593-.006.883-.012.301-.007.608-.013.92-.013a4.507 4.507 0 0 1-.189.272 4.211 4.211 0 0 0-.824 1.539h-.016a.12.12 0 0 1-.022.003l.038.02v.05a.159.159 0 0 0 .01.042.385.385 0 0 1 .015.083.83.83 0 0 1-.076-.07.465.465 0 0 0-.344-.184c.011-.022.06-.025.102-.027.042-.003.068-.004.071-.016.004-.012-.006-.018-.025-.032a.373.373 0 0 0-.236.068.291.291 0 0 1-.183.057.097.097 0 0 0 .053-.085c.007-.04.012-.076.095-.09h-.014c-.184 0-.234.025-.282.098l-.074-.024a.457.457 0 0 1-.279.145l-.018.005v-.05c-.032.144-.094.146-.172.146a.324.324 0 0 0-.149.03v-.075a.278.278 0 0 1-.226.138.221.221 0 0 1-.07-.013l.049-.075a.37.37 0 0 1-.174.051.275.275 0 0 0-.196.075h-.006l-.005-.004c-.004-.006 0-.018 0-.03 0-.013.01-.04 0-.053a.053.053 0 0 0-.023-.014.283.283 0 0 0-.067 0 .212.212 0 0 1-.159.071.089.089 0 0 1-.064-.02c0-.02.017-.057.049-.057.009 0 .018.002.025.007h.011a.044.044 0 0 0-.008.01.66.66 0 0 0-.003.014l.05-.05a.254.254 0 0 0-.045-.004.155.155 0 0 0-.091.03.162.162 0 0 1-.093.028.245.245 0 0 1-.043-.004.013.013 0 0 1-.004-.004.014.014 0 0 1 0-.006c0-.01.013-.021.03-.035a.174.174 0 0 0 .048-.055l-.54.176a.062.062 0 0 0 .02.043c.018.019.034.036.004.083h.197c.019.01.028.02.027.03 0 .033-.1.062-.165.085l-.034.011h.123v.043l.098-.025c-.048.03-.072.056-.07.078.001.02.047.045.087.06.04.017.067.026.068.043 0 .017-.019.029-.06.046a.907.907 0 0 0-.142.015.652.652 0 0 1-.105.01h.347a.456.456 0 0 1-.1.051.682.682 0 0 1 .22-.024l.05-.025a.05.05 0 0 1-.008.02c-.007.013-.015.027-.008.041.006.013.038.03.09.04a.306.306 0 0 1 .132-.03c.076.004.15.022.22.053l.019.008a.504.504 0 0 0 .197.046c.073-.02.108-.034.109-.048.002-.013-.023-.021-.048-.032-.026-.01-.055-.021-.055-.036 0-.015.014-.022.043-.035a.31.31 0 0 1 .061-.01.088.088 0 0 1 .039.005.097.097 0 0 1 .034.022.09.09 0 0 0 .072.028l.025-.101h.073a.093.093 0 0 1-.003.023.043.043 0 0 0 0 .023c.009 0 .018-.009.03-.02a.314.314 0 0 1 .043-.005c.012 0 .018 0 .019.006.001.005-.014.02-.035.038-.032.026-.072.061-.055.083a.373.373 0 0 1 .207-.125h.018l.001.003-.001.003c0 .015-.04.043-.067.061a.11.11 0 0 0-.025.02.138.138 0 0 0 .04-.013 1.04 1.04 0 0 1 .222-.126l1.063-.025-.049.075a.108.108 0 0 1 .049-.01.698.698 0 0 1 .208.056c.092.038.188.065.287.08l-.025.05h.124l-.05.026a.474.474 0 0 0 .094.008h.106a.484.484 0 0 1 .196.033.158.158 0 0 0-.037-.006.086.086 0 0 0-.062.028.09.09 0 0 0-.026.064h.421c0 .008.02.02.041.032s.055.031.053.046c-.002.014-.017.017-.045.023l.172-.026-.024.05c.176.056.358.083.542.08.162 0 .321-.016.489-.032h.014c.159-.016.341-.035.529-.035.093 0 .187.005.28.014v.026c.087-.04.169-.089.246-.145a1.99 1.99 0 0 1 .125-.081.082.082 0 0 1 .03-.006.22.22 0 0 1 .065.014l.012.003a.33.33 0 0 0 .165.013c-.013-.008-.019-.017-.018-.026 0-.025.049-.052.106-.082a.864.864 0 0 0 .109-.067l.173.15-.01-.009a.76.76 0 0 1-.138-.167l.025-.05h.024l.025.025a.102.102 0 0 1-.013.038.083.083 0 0 0-.012.038l.024-.025a.253.253 0 0 0 .06.09l-.009.01c.039.043.092.07.149.075a1.3 1.3 0 0 0 .172.046c.12.027.224.05.224.13.041.013.084.02.128.02a.945.945 0 0 0 .23-.038h.004a.941.941 0 0 1 .235-.04.49.49 0 0 1 .094.009l-.124.126.247.024v-.075h.002c.072 0 .121 0 .121.026l-.033.032a.07.07 0 0 0-.033-.011c-.012-.002-.021.008-.031.027Zm3.609-1.408a4.049 4.049 0 0 0-.495-.233h-.003s0 .003.004.006c.016.009.116.048.491.227h.003Zm-2.67-3.041c0 .024.025.05.05.075l.024.025h.024a.094.094 0 0 1 .075-.025h.073v-.076c0-.08-.045-.11-.085-.11a.093.093 0 0 0-.038.01c-.043 0-.123.02-.123.1Zm4.167-.261a.193.193 0 0 1-.041.008.113.113 0 0 1-.033.02c-.029.013-.067.03-.067.082v.05h.05c.117.02.232.053.344.094.06.02.116.04.174.056h.05c.048-.025.099-.05.099-.125-.054-.128-.199-.15-.34-.17a1.31 1.31 0 0 1-.154-.031.287.287 0 0 0-.082.016Zm-1.993.06a.173.173 0 0 0 .033.076c.018.022.04.04.066.05h.05a.21.21 0 0 0 .048-.011.191.191 0 0 1 .05-.013h.073l-.049-.05a.143.143 0 0 0-.148-.15c-.042-.003-.123.018-.123.098Zm1.68-.779a.176.176 0 0 1-.013.05.177.177 0 0 0-.012.051.08.08 0 0 0 .004.04.092.092 0 0 0 .02.035l.025.025h.049c.101-.004.2-.02.297-.05h.024l.025-.025.019-.035a.172.172 0 0 0 .03-.091c0-.1-.097-.126-.148-.126a.331.331 0 0 1-.068.023.393.393 0 0 0-.13.053v-.025a.116.116 0 0 0-.074-.075l-.027.008a.283.283 0 0 0-.146.092.133.133 0 0 0 .099.075v-.073l.026.048Zm-.445-.1a.113.113 0 0 0 .015.076c.013.023.034.04.059.05l.024.024h.025a.091.091 0 0 1 .074-.025h.05v-.075c0-.1-.097-.126-.149-.126-.051 0-.098.023-.098.074v.002Zm75.569 12.154a1.99 1.99 0 0 1 .625-1.386 1.92 1.92 0 0 1 1.408-.523 2.144 2.144 0 0 1 1.507.607l-.508.5-.141-.09.018-.017c.121-.143 0-.286-.07-.357a1.053 1.053 0 0 0-.788-.25 1.38 1.38 0 0 0-1.078.428 1.441 1.441 0 0 0-.395 1.107 2.02 2.02 0 0 0 .589 1.37c.362.362.849.568 1.357.574.438 0 .579-.179.631-.41h.158v.696c-.229.06-.465.09-.701.09a2.405 2.405 0 0 1-1.787-.613 2.487 2.487 0 0 1-.825-1.726Zm-20.844 2.248v-.82h.176a.333.333 0 0 0 .021.14.33.33 0 0 0 .33.216c.3 0 .596-.306.753-.66l-1.402-2.586c-.088-.179-.12-.25-.281-.25v-.144h.982v.178h-.035c-.07 0-.21.018-.12.196l1.104 2.087.736-1.98a.432.432 0 0 0 .052-.178.126.126 0 0 0-.12-.122h-.07v-.145h.906v.143c-.105 0-.245.036-.368.321l-.929 2.462c-.13.48-.43.893-.842 1.16a1.011 1.011 0 0 1-.403.072 1.417 1.417 0 0 1-.49-.09Zm-22.789-.248v-.787h.176l.017.178c.018.232.28.411.491.483.174.059.358.083.541.07a1.22 1.22 0 0 0 .661-.1c.207-.094.385-.244.514-.434a.9.9 0 0 0 .12-.482.84.84 0 0 0-.105-.356c-.228-.322-.631-.357-1.104-.357h-.316v-.393h.316c.185.027.374.005.549-.064a1.11 1.11 0 0 0 .45-.328.416.416 0 0 0 .069-.25.704.704 0 0 0-.473-.624.997.997 0 0 0-.596-.123.9.9 0 0 0-.56.123c-.369.178-.316.356-.301.481l.017.054-.157.053-.246-.749c.252-.135.525-.225.806-.267.168-.03.338-.042.508-.037.194 0 .388.018.579.054a1 1 0 0 1 .617.324c.16.18.253.412.26.655a.929.929 0 0 1-.243.573.9.9 0 0 1-.546.284 1.056 1.056 0 0 1 .842.428c.088.139.137.3.14.465.002.235-.052.468-.158.678a1.37 1.37 0 0 1-.789.66c-.26.084-.533.125-.806.122a2.333 2.333 0 0 1-1.273-.334Zm-7.485.25v-.823h.175a.346.346 0 0 0 .213.335.328.328 0 0 0 .138.022c.301 0 .596-.306.754-.66l-1.402-2.586c-.088-.179-.121-.25-.281-.25v-.144h.982v.178h-.036c-.069 0-.21.018-.12.196l1.104 2.087.754-1.98a.45.45 0 0 0 .051-.175.129.129 0 0 0-.12-.123h-.071v-.147h.912v.143c-.105 0-.245.036-.368.321l-.95 2.462c-.13.48-.43.893-.842 1.16a1.011 1.011 0 0 1-.403.072 1.42 1.42 0 0 1-.491-.09l.001.002Zm66.737.018v-.146a.705.705 0 0 0 .369-.321l.981-1.462a1.233 1.233 0 0 1-1.016-.625 1.161 1.161 0 0 1-.106-.5.946.946 0 0 1 .211-.607 1.285 1.285 0 0 1 1.069-.428H207v.123a.188.188 0 0 0-.154.056.205.205 0 0 0-.046.072.221.221 0 0 0-.011.085v3.372a.204.204 0 0 0 .056.157.195.195 0 0 0 .155.057v.143h-.947v-.143a.201.201 0 0 0 .196-.13.198.198 0 0 0 .014-.084V71.04h-.685l-1.245 1.873-.629.003Zm.825-2.98c0 .715.7.735 1.068.735h.667v-1.463h-.912c-.316-.005-.824.031-.824.726l.001.003Zm-11.307 2.98v-.146a.19.19 0 0 0 .154-.056.202.202 0 0 0 .056-.157v-3.337h-.912a.408.408 0 0 0-.262.054.293.293 0 0 0-.106.25h-.176v-.696h3.437v.698h-.175a.296.296 0 0 0-.024-.138.293.293 0 0 0-.082-.112.434.434 0 0 0-.262-.053h-.912v3.336a.188.188 0 0 0 .011.085.19.19 0 0 0 .199.129v.142h-.946Zm-21.597 0v-.146a.19.19 0 0 0 .154-.056.202.202 0 0 0 .045-.073.203.203 0 0 0 .01-.084v-3.337h-.911a.412.412 0 0 0-.263.054.301.301 0 0 0-.105.25h-.176v-.696h3.436v.698h-.174a.309.309 0 0 0-.105-.25.412.412 0 0 0-.263-.053h-.913v3.336a.205.205 0 0 0 .056.157.19.19 0 0 0 .155.057v.142h-.946Zm-6.276 0v-.146a.19.19 0 0 0 .154-.056.202.202 0 0 0 .045-.073.203.203 0 0 0 .01-.084v-3.337h-1.892v3.337a.203.203 0 0 0 .01.084c.01.028.025.052.045.073a.193.193 0 0 0 .155.057v.142h-.947v-.143a.18.18 0 0 0 .083-.01.2.2 0 0 0 .072-.046.202.202 0 0 0 .045-.072.204.204 0 0 0 .01-.085v-3.372a.204.204 0 0 0-.01-.085.203.203 0 0 0-.045-.072.204.204 0 0 0-.072-.046.188.188 0 0 0-.083-.011v-.143h3.368v.143a.201.201 0 0 0-.197.13.197.197 0 0 0-.013.084v3.372a.203.203 0 0 0 .01.085.2.2 0 0 0 .045.072.2.2 0 0 0 .072.046c.026.01.055.013.083.01v.143l-.948.003Zm-13.517 0v-.146a.2.2 0 0 0 .151-.06.2.2 0 0 0 .06-.153v-3.372a.205.205 0 0 0-.056-.157.191.191 0 0 0-.155-.057v-.143h.947v.143a.187.187 0 0 0-.154.057.19.19 0 0 0-.045.072.19.19 0 0 0-.011.085v3.372a.204.204 0 0 0 .056.157.19.19 0 0 0 .154.057v.142l-.947.003Zm-18.459 0v-.146a.188.188 0 0 0 .154-.056.205.205 0 0 0 .046-.073.221.221 0 0 0 .011-.084v-3.372c0-.16-.106-.214-.228-.214v-.143h1.454c1.351 0 1.525.678 1.525 1.053 0 .945-1.14 1.408-2.225 1.784v.892a.203.203 0 0 0 .01.085.205.205 0 0 0 .116.118c.027.01.055.013.084.01v.143l-.947.003Zm.722-1.641c1.087-.306 1.701-.857 1.701-1.357 0-.624-.614-.677-1.087-.677h-.617l.003 2.034Zm-1.981 1.64-1.192-2.142a3.946 3.946 0 0 1-.824.232v1.553a.189.189 0 0 0 .011.085.19.19 0 0 0 .116.118c.026.01.055.013.083.01v.143h-.95v-.144a.193.193 0 0 0 .2-.129.204.204 0 0 0 .011-.084v-3.372a.19.19 0 0 0-.011-.085.19.19 0 0 0-.116-.118.193.193 0 0 0-.084-.011v-.143h.947v.143a.201.201 0 0 0-.197.13.197.197 0 0 0-.013.084v1.427a3.086 3.086 0 0 0 1.525-.657c.227-.185.382-.445.438-.735 0-.178-.053-.232-.158-.25h-.052v-.142h.701c.002.406-.128.8-.368 1.124a2.41 2.41 0 0 1-.736.607l1.052 1.891a.548.548 0 0 0 .438.321v.143l-.821.002Zm70.225-.017v-.143a.193.193 0 0 0 .2-.129.19.19 0 0 0 .011-.085v-2.393l-1.964 1.624v.767a.204.204 0 0 0 .01.085.191.191 0 0 0 .2.13v.142h-.947v-.142a.193.193 0 0 0 .21-.215v-3.372a.203.203 0 0 0-.01-.085.198.198 0 0 0-.116-.118.193.193 0 0 0-.084-.01v-.144h.947v.143a.202.202 0 0 0-.196.13.196.196 0 0 0-.014.084v2.123l1.963-1.623v-.5a.203.203 0 0 0-.056-.156.193.193 0 0 0-.155-.057v-.143h.947v.143a.187.187 0 0 0-.154.056.192.192 0 0 0-.057.157v3.372a.204.204 0 0 0 .056.158.193.193 0 0 0 .155.057v.142l-.946.002Zm-6.485 0v-.143c.209-.018.209-.16.209-.25v-3.336a.203.203 0 0 0-.01-.085.198.198 0 0 0-.116-.118.19.19 0 0 0-.083-.01v-.143h1.612v.018a1.74 1.74 0 0 1 1.245.321.831.831 0 0 1 .262.589.89.89 0 0 1-.07.375.942.942 0 0 1-.614.498v.019c.264.033.508.161.688.36.18.2.284.458.295.728-.001.217-.065.43-.183.61a1.095 1.095 0 0 1-.484.407 2.318 2.318 0 0 1-.929.16h-1.822Zm.718-.375h.842c.403 0 1.314.018 1.314-.803 0-.838-.842-.91-1.314-.91h-.842v1.713Zm0-2.087h.946c.158 0 .912 0 .912-.606 0-.536-.541-.607-.912-.607h-.946v1.213Zm-12.345 2.46v-.142a.189.189 0 0 0 .154-.057.19.19 0 0 0 .045-.073.19.19 0 0 0 .011-.085v-3.372a.2.2 0 0 0-.056-.157.19.19 0 0 0-.154-.057v-.142h3.277v.695h-.175c-.07-.306-.281-.285-.438-.285h-1.929v1.195h1.315c.21 0 .368 0 .421-.214h.175v.803h-.176c-.052-.214-.228-.214-.421-.214h-1.315v1.713h1.964c.35 0 .578-.053.596-.339h.175v.735l-3.469-.004Zm-6.031 0v-.142a.2.2 0 0 0 .151-.06.217.217 0 0 0 .046-.071.214.214 0 0 0 .013-.084v-3.372a.188.188 0 0 0-.011-.085.19.19 0 0 0-.199-.129v-.142h.929v.142h.018a.193.193 0 0 0-.21.214v3.336h1.664v-3.336a.203.203 0 0 0-.01-.085.198.198 0 0 0-.116-.118.19.19 0 0 0-.083-.01v-.144h.946v.143a.193.193 0 0 0-.21.214v3.336h1.664v-3.336a.203.203 0 0 0-.01-.085.198.198 0 0 0-.116-.118.19.19 0 0 0-.083-.01v-.144h.946v.143a.19.19 0 0 0-.154.057.188.188 0 0 0-.045.072.188.188 0 0 0-.011.085v3.372a.204.204 0 0 0 .01.085c.01.027.026.052.046.072a.19.19 0 0 0 .154.057v.143h-5.329Zm-3.927 0v-.142a.195.195 0 0 0 .155-.057.188.188 0 0 0 .044-.073.19.19 0 0 0 .011-.085v-3.372a.189.189 0 0 0-.011-.085.19.19 0 0 0-.199-.129v-.142h3.261v.695h-.176c-.07-.306-.28-.285-.438-.285h-1.928v1.195h1.315c.209 0 .368 0 .421-.214h.175v.803h-.175c-.053-.214-.228-.214-.421-.214h-1.315v1.713h1.98c.351 0 .579-.053.596-.339h.176v.735l-3.471-.004Zm-15.637 0v-.142a.189.189 0 0 0 .154-.057.19.19 0 0 0 .045-.073.19.19 0 0 0 .011-.085v-2.391l-1.964 1.624v.767a.204.204 0 0 0 .056.157.193.193 0 0 0 .155.057v.143h-.947v-.143a.191.191 0 0 0 .2-.13.205.205 0 0 0 .011-.084v-3.372a.203.203 0 0 0-.056-.157.193.193 0 0 0-.155-.057v-.142h.947v.142a.188.188 0 0 0-.154.057.203.203 0 0 0-.046.072.221.221 0 0 0-.011.085v2.123l1.968-1.623v-.5a.203.203 0 0 0-.056-.156.191.191 0 0 0-.155-.057v-.143h.947v.143h-.018a.187.187 0 0 0-.154.056.19.19 0 0 0-.045.073.189.189 0 0 0-.011.084v3.372a.204.204 0 0 0 .01.085c.01.028.025.052.045.073a.195.195 0 0 0 .155.057v.142h-.932Zm-15.777 0v-.142a.19.19 0 0 0 .199-.13.19.19 0 0 0 .011-.085v-2.391l-1.962 1.624v.767a.204.204 0 0 0 .056.158.193.193 0 0 0 .155.057v.142h-.947v-.142a.2.2 0 0 0 .151-.06.202.202 0 0 0 .06-.155v-3.372a.221.221 0 0 0-.011-.085.19.19 0 0 0-.046-.072.194.194 0 0 0-.07-.046.195.195 0 0 0-.084-.01v-.144h.947v.143a.195.195 0 0 0-.155.057.2.2 0 0 0-.056.157v2.123l1.964-1.623v-.5a.202.202 0 0 0-.056-.157.19.19 0 0 0-.154-.056v-.143h.946v.143h-.018a.187.187 0 0 0-.154.056.202.202 0 0 0-.056.157v3.372a.205.205 0 0 0 .056.158.191.191 0 0 0 .154.057v.142h-.93Zm7.047-.036h-1.839v-.142a.193.193 0 0 0 .2-.13.205.205 0 0 0 .011-.085V69.13a.205.205 0 0 0-.056-.157.195.195 0 0 0-.155-.056v-.143h.947v.179h.018a.187.187 0 0 0-.154.056.192.192 0 0 0-.057.157v1.089c.394-.01.787.02 1.175.09.286.033.559.137.797.302.238.164.433.385.57.642.064.165.094.34.088.517a1.02 1.02 0 0 1-.158.551 1.314 1.314 0 0 1-1.287.5l-.1.002Zm-1.07-.338h1.087a.848.848 0 0 0 .877-.411.75.75 0 0 0 .088-.321.895.895 0 0 0-.526-.785 2.623 2.623 0 0 0-1.227-.321l-.301-.018.002 1.856Zm0 0h-.017.017Zm45.305-7.085c-.673-.881-1.61-.881-2.572-.881h-1.491c-.457 0-1.85 0-2.356 1.125-.12.22-.167.514-.504.514a.384.384 0 0 1-.271-.116.398.398 0 0 1-.114-.275c0-.294.072-.318.072-1.052 0-.612-.047-.857-.047-1.174 0-.27.047-.294.36-.538.289-.172.433-.343.649-1.248.562-2.87.884-5.783.963-8.709 0-1.81-.361-1.663-.361-2.326 0-.44.408-.39.697-.39.529 0 1.755.096 2.379.096 1.346 0 1.779-.122 2.332-.122.241 0 .745-.024.745.44a7.138 7.138 0 0 1-.193.735 8.752 8.752 0 0 0-.168 1.615v8.269c0 .49.072 1.419.457 1.663.144.099.528.147.528.613-.02.173-.052.345-.096.514a3.67 3.67 0 0 0-.024.513c.021.37.061.737.12 1.102a.386.386 0 0 1-.102.294.389.389 0 0 1-.282.122c-.382 0-.479-.516-.719-.784h-.002Zm-3.368-8.587c-.193 2.938-.481 4.134-.481 4.721 0 .27.072.465.673.465.842 0 .745-.415.745-.88v-6.582h.024c0-.22.024-.758-.384-.758-.716 0-.5 2.226-.572 3.034h-.005Zm-35.139 8.587c-.673-.881-1.61-.881-2.571-.881h-1.491c-.457 0-1.851 0-2.38 1.125-.095.22-.143.514-.481.514a.404.404 0 0 1-.281-.112.419.419 0 0 1-.128-.28c0-.293.073-.317.073-1.051 0-.612-.048-.857-.048-1.174 0-.27.048-.294.361-.538.264-.172.432-.343.649-1.248a52.84 52.84 0 0 0 .962-8.709c0-1.81-.361-1.663-.361-2.326 0-.44.409-.39.697-.39.529 0 1.779.096 2.38.096 1.346 0 1.755-.122 2.331-.122.241 0 .745-.024.745.44a3.767 3.767 0 0 1-.192.735 8.597 8.597 0 0 0-.192 1.615v8.269c0 .49.095 1.419.456 1.663.169.099.529.147.529.613a3.71 3.71 0 0 1-.072.514 3.67 3.67 0 0 0-.024.513c0 .612.095.832.095 1.102a.369.369 0 0 1-.089.29.362.362 0 0 1-.272.126c-.382 0-.502-.516-.696-.784Zm-3.34-8.588c-.168 2.939-.481 4.135-.481 4.722 0 .269.096.465.673.465.842 0 .745-.416.745-.881v-6.58c0-.221.048-.76-.361-.76-.721 0-.504 2.227-.576 3.035Zm15.263 5.48a7.113 7.113 0 0 1 .914-3.082c.865-1.566 1.707-2.055 1.707-2.52a26.578 26.578 0 0 0-1.178-3.67c-.889-2.275-1.177-2.055-1.177-2.325 0-.196.144-.417.721-.417.145-.004.29.004.433.025.264.025.577.074.842.074.225-.003.45-.02.673-.05.216-.028.432-.044.649-.048.506 0 .554.318.554.538a4.606 4.606 0 0 1-.048.563 4.25 4.25 0 0 0-.049.563c0 .953.409 1.714.649 1.714.264 0 .602-.98.602-1.444a1.396 1.396 0 0 0-.409-.954c-.12-.146-.336-.318-.336-.563 0-.391.456-.416.673-.416.481 0 .842.098 1.154.098.408 0 .769-.098 1.033-.098.505 0 .842.294.842 1.47a6.065 6.065 0 0 1-1.37 3.522c-.553.734-1.129 1.248-1.129 1.932 0 .808 1.394 4.085 1.538 4.404.866 1.982 1.25 2.227 1.25 2.571 0 .245-.241.343-.649.343-.793 0-.072-.074-1.444-.074a6.736 6.736 0 0 0-.697.025c-.167.03-.335.046-.505.049-.673 0-.649-.44-.649-.514.067-.34.107-.683.12-1.028 0-.807-.721-2.96-1.225-2.96-.217 0-.649.514-.649 1.688-.036.423.044.848.23 1.228.187.38.473.7.827.925.144.073.409.146.409.416 0 .318-.722.514-1.153.807-.529.368-.89.857-1.25.857-.532-.002-1.903-1.52-1.903-3.648v-.001Zm10.649-2.055v-5.626h.025c0-.808 0-4.428 3.341-4.428 3.053 0 3.317 2.544 3.317 4.184v5.528c0 1.639-.144 4.746-3.389 4.746-2.428 0-3.294-1.712-3.294-4.403Zm2.548-4.55v4.061c0 .93.048 1.933.842 1.933.914 0 .794-1.248.794-2.03v-3.89c0-.735 0-1.837-.866-1.837-.77.002-.77 1.103-.77 1.764v-.001Zm-21.97 4.55v-5.626c0-.808 0-4.428 3.342-4.428 3.077 0 3.341 2.544 3.341 4.184v5.528c0 1.639-.12 4.746-3.389 4.746-2.453 0-3.294-1.712-3.294-4.403Zm2.526-4.55v4.061c0 .93.048 1.933.818 1.933.913 0 .816-1.248.816-2.03v-3.89c0-.735 0-1.837-.864-1.837-.772.002-.772 1.103-.772 1.764l.002-.001Zm-21.586 4.55v-5.626c0-.808 0-4.428 3.341-4.428 3.053 0 3.318 2.544 3.318 4.184v5.528c0 1.639-.121 4.746-3.369 4.746-2.448 0-3.29-1.712-3.29-4.403Zm2.5-4.55v4.062h.024c0 .929.072 1.932.842 1.932.913 0 .792-1.248.792-2.03v-3.89c0-.735 0-1.837-.865-1.837-.795.002-.795 1.103-.795 1.764h.002Zm-9.978 8.733c-.73 0-1.461.042-2.187.123-.602 0-.649-.416-.649-.612 0-1.027.432-.612.432-4.257v-7.385c0-.857-.024-2.177-.072-2.764-.072-.832-.168-1.102-.168-1.492 0-.636.409-.685.697-.685.361 0 .722.024 1.106.049.361.024.744.024 1.129.024.842 0 1.37-.073 1.995-.073.722 0 2.526.44 2.526 4.574 0 .955-.096 2.251-.721 3.034-.193.245-.481.49-.481.685 0 .22.36.66.624 1.126a7.675 7.675 0 0 1 .986 3.987c0 1.959-.986 3.792-3.053 3.792a19.653 19.653 0 0 0-2.164-.126Zm.553-7.045v3.572c0 .318-.024.88.769.88.481 0 .938-.024.938-1.443 0-1.664-.962-3.62-1.49-3.62-.217 0-.217.39-.217.611Zm-.024-5.798v.906h.024a.873.873 0 0 0 .22.676.85.85 0 0 0 .646.277c.745 0 .745-1.051.745-1.419 0-.954-.361-1.272-.914-1.272-.601.001-.72.49-.72.832h-.001Zm65.862 12.425a5.8 5.8 0 0 1 .289-1.002c.185-.794.274-1.607.265-2.422v-7.655h.024c0-.807-.192-1.028-.602-1.028a.725.725 0 0 0-.673.392c-.096.098-.264.342-.528.342-.145 0-.457-.073-.457-.684 0-.515.072-.587.072-1.982a12.261 12.261 0 0 0-.144-1.933c0-.586.361-.685 1.178-.685.473 0 .946.024 1.417.074.399.064.8.104 1.203.122.649 0 1.13-.122 1.514-.122.361 0 .385.171.385.293a8.696 8.696 0 0 1-.289 1.225c-.08.527-.128 1.058-.144 1.591v3.305c0 .123 0 .27.216.27.165-.043.326-.1.481-.172.44-.16.903-.242 1.371-.245 2.716 0 2.788 2.593 2.788 3.376v4.526c0 2.912-2.887 2.912-3.606 2.912-.385 0-.722 0-1.106-.025a26.492 26.492 0 0 0-1.393-.05c-1.467 0-.361.099-1.707.099-.264-.005-.553-.104-.553-.52l-.001-.002Zm3.534-5.626v1.638c0 1.566.144 1.81.817 1.81.602 0 1.106-.097 1.106-1.198v-2.37c0-.538-.048-1.37-.937-1.37-1.034 0-.986.954-.986 1.492v-.002Z" fill="#949494"/></svg>