<svg width="300" height="120" viewBox="0 0 300 120" fill="none" xmlns="http://www.w3.org/2000/svg">
<path d="M101.468 72.9767C98.3063 71.6227 95.7513 69.1211 94.2996 65.9577C92.8479 62.7942 92.6029 59.1946 93.6124 55.8577C94.6219 52.5208 96.8137 49.6847 99.7623 47.9001C102.711 46.1154 106.206 45.5095 109.569 46.2C112.932 46.8904 115.923 48.8281 117.961 51.6366C119.999 54.4452 120.939 57.9243 120.598 61.3985C120.257 64.8727 118.66 68.0941 116.117 70.4372C113.573 72.7804 110.265 74.0781 106.835 74.0785C104.991 74.0813 103.166 73.7066 101.468 72.9767ZM95.1486 62.6396V62.7142L95.1239 62.765V62.9413C95.1233 63.0103 95.1189 63.0792 95.1107 63.1476C95.1036 63.2043 95.0996 63.2613 95.0986 63.3184V63.4439C95.0986 63.469 95.1173 63.4885 95.1389 63.51C95.1654 63.533 95.1861 63.5622 95.1991 63.5951C95.1975 63.6126 95.1945 63.63 95.1901 63.6471C95.1816 63.6795 95.1764 63.7127 95.1744 63.7462C95.1809 63.746 95.1873 63.7476 95.1929 63.7508C95.1986 63.7541 95.2032 63.7588 95.2063 63.7646C95.2133 63.7819 95.2162 63.8006 95.215 63.8193C95.2137 63.838 95.2083 63.8561 95.1991 63.8723H95.2237V63.9476C95.2502 63.9635 95.2767 63.9825 95.3025 64.0003C95.3587 64.0503 95.4274 64.0836 95.501 64.0964C95.5256 64.0964 95.5496 64.088 95.569 64.0725L95.6435 63.9978L95.6929 64.0223L95.7169 63.8466C95.7618 63.8825 95.8155 63.9054 95.8721 63.9127C95.8809 63.9132 95.8898 63.9117 95.898 63.9083C95.9062 63.905 95.9136 63.8998 95.9196 63.8931C95.9307 63.8751 95.9382 63.855 95.9416 63.834C95.945 63.8129 95.9443 63.7915 95.9395 63.7707C95.9438 63.7733 95.9488 63.7745 95.9539 63.7744C95.9755 63.7744 95.993 63.7499 96.011 63.7248C96.0239 63.7027 96.0416 63.6839 96.0628 63.6697L96.3593 63.5944L96.5313 63.5693H96.5812C96.6764 63.549 96.7728 63.5353 96.8699 63.5283C97.1145 63.5287 97.3521 63.4455 97.5447 63.2921H97.9657C98.1534 63.3667 98.406 63.4567 98.6507 63.5442C98.8721 63.6143 99.089 63.6981 99.3003 63.7952L99.3496 63.7199C99.2235 63.6158 99.0731 63.5466 98.913 63.5192C98.7978 63.4945 98.6871 63.4519 98.5846 63.3931L98.7819 63.4683C98.7578 63.4433 98.7331 63.412 98.7091 63.3827C98.6855 63.3511 98.6602 63.3208 98.6333 63.2921H99.1205C98.9497 63.2933 98.7791 63.2849 98.6092 63.267L98.5575 63.2204L98.409 63.1954C98.3687 63.18 98.3272 63.1654 98.2887 63.1513C98.1305 63.1133 97.9851 63.033 97.8677 62.9187L97.8184 62.844C97.8804 62.8758 97.9406 62.9112 97.9988 62.9499C98.0545 62.99 98.1151 63.0223 98.1792 63.046C98.2536 63.0851 98.3308 63.1185 98.4102 63.1458L98.3717 63.0937H98.3813H98.3849L98.3609 63.0686L98.4348 63.0937H98.4613C98.4107 63.0431 98.3655 62.9871 98.3266 62.9266C98.2333 62.7975 98.1287 62.6524 98.0493 62.6524C98.0132 62.6524 97.9892 62.6812 97.9663 62.7412C97.9741 62.7491 97.9771 62.7546 97.9765 62.7595C97.9759 62.7644 97.9705 62.7693 97.9627 62.7748C97.9555 62.7801 97.9487 62.7859 97.9422 62.792C97.8153 62.7142 97.6602 62.6139 97.4803 62.4951L97.4611 62.4823L97.4731 62.4902V62.5153L97.4485 62.5404L97.3992 62.59C97.386 62.6003 97.3693 62.6049 97.3528 62.6028C97.3384 62.6028 97.3252 62.6028 97.3252 62.6157V62.6665C97.3124 62.6718 97.2987 62.6743 97.2849 62.6738H97.2428C97.2286 62.6719 97.2141 62.6753 97.2021 62.6832C97.1901 62.6912 97.1813 62.7033 97.1772 62.7173C97.1718 62.7173 97.1556 62.6928 97.1291 62.6561L97.0966 62.6083C97.0587 62.5526 97.022 62.5006 97.0076 62.5006C97.004 62.5006 97.0016 62.5049 97.0016 62.5135C97.0095 62.5473 97.0121 62.5822 97.0094 62.6169C97.0052 62.6169 97.0004 62.612 96.995 62.6053C96.9872 62.5941 96.9771 62.5846 96.9655 62.5776C96.9539 62.5705 96.941 62.566 96.9276 62.5643L96.903 62.639C96.8919 62.6299 96.8786 62.6242 96.8645 62.6224C96.8506 62.6224 96.8434 62.6347 96.8338 62.6518C96.8209 62.6763 96.8023 62.6973 96.7797 62.713C96.7722 62.7217 96.7629 62.7286 96.7525 62.7332C96.7421 62.7379 96.7309 62.7402 96.7195 62.74C96.7111 62.7405 96.7027 62.7405 96.6943 62.74C96.6854 62.7395 96.6766 62.7395 96.6678 62.74C96.6425 62.74 96.6149 62.7497 96.5806 62.8201L96.432 62.9456C96.4009 62.9478 96.3706 62.9565 96.343 62.9713C96.3185 62.9842 96.2917 62.9921 96.2642 62.9946C96.2269 62.9946 96.1939 62.9707 96.1608 62.9199C96.1473 62.9434 96.1279 62.9628 96.1045 62.9761C96.0811 62.9893 96.0546 62.9959 96.0279 62.9952C95.9963 62.9924 95.9653 62.9858 95.9352 62.9756C95.9064 62.9677 95.8767 62.963 95.8468 62.9615C95.8367 62.9613 95.8266 62.9626 95.8168 62.9652C95.7977 62.9735 95.7773 62.9781 95.7566 62.9787C95.6935 62.9787 95.6514 62.9315 95.5978 62.8709C95.581 62.8526 95.5642 62.8336 95.5455 62.8146L95.4697 62.792C95.4687 62.7908 95.4674 62.7899 95.4659 62.7892C95.4645 62.7886 95.4629 62.7883 95.4613 62.7883C95.4517 62.7883 95.4421 62.8024 95.4324 62.8171C95.4228 62.8318 95.4132 62.8471 95.4036 62.8471C95.4007 62.8467 95.3979 62.8454 95.3958 62.8434V62.792L95.3717 62.7669V62.6145L95.2478 62.5398L95.1486 62.6396ZM108.168 64.0223H108.217L108.192 64.0474C108.213 64.0414 108.233 64.033 108.252 64.0223H108.265H108.261H108.255C108.267 64.0137 108.274 64.0052 108.274 63.9966C108.274 63.9929 108.273 63.9892 108.271 63.9858C108.27 63.9824 108.268 63.9794 108.265 63.977C108.351 63.9161 108.453 63.8807 108.558 63.8748C108.653 63.8649 108.746 63.8397 108.833 63.8001L108.858 63.8509L108.906 63.8258C108.931 63.8638 108.98 63.8638 109.027 63.8638C109.074 63.8638 109.116 63.8638 109.129 63.9011C109.082 63.9415 109.024 63.9662 108.963 63.9721C108.955 63.9726 108.947 63.9709 108.94 63.9672C108.937 63.9656 108.935 63.9632 108.933 63.9604C108.932 63.9576 108.931 63.9545 108.931 63.9513C108.906 63.9684 108.894 63.9813 108.897 63.9899C108.899 63.9984 108.914 64.0027 108.943 64.0027C109.047 63.9949 109.151 63.9777 109.253 63.9513C109.214 63.9446 109.193 63.9366 109.193 63.9262C109.193 63.9158 109.244 63.8858 109.286 63.8687C109.302 63.8619 109.316 63.8564 109.326 63.8515L109.301 63.9017C109.371 63.899 109.437 63.87 109.487 63.8203C109.518 63.7883 109.558 63.7679 109.601 63.7628C109.636 63.7652 109.669 63.7785 109.696 63.8007L109.72 63.7254L109.893 63.7505C109.88 63.6752 109.937 63.6557 109.992 63.6379C110.047 63.6201 110.103 63.6 110.091 63.5247C110.116 63.5133 110.143 63.5061 110.17 63.5032C110.179 63.5032 110.184 63.5055 110.186 63.51C110.189 63.5155 110.186 63.5253 110.178 63.54C110.17 63.5547 110.17 63.5516 110.167 63.5571C110.164 63.5626 110.154 63.5749 110.156 63.5767C110.158 63.5774 110.161 63.5774 110.164 63.5767C110.269 63.5599 110.369 63.5179 110.455 63.4543C110.509 63.4137 110.57 63.3851 110.636 63.3704C110.644 63.37 110.653 63.3724 110.66 63.3771L110.636 63.4022L110.686 63.4273L110.661 63.4022L110.666 63.3986C110.739 63.3436 110.82 63.3021 110.907 63.2761H111.203C111.383 63.4219 111.597 63.5184 111.824 63.5565C111.884 63.5718 111.941 63.5871 111.994 63.603L111.969 63.6281H112.142C112.132 63.638 112.125 63.6499 112.121 63.6629C112.117 63.676 112.115 63.6898 112.117 63.7034C112.293 63.7546 112.475 63.7854 112.658 63.7952C112.742 63.8002 112.825 63.7786 112.896 63.7334C112.893 63.7438 112.904 63.7566 112.914 63.7701C112.925 63.7836 112.941 63.8019 112.936 63.816C112.93 63.8301 112.907 63.8405 112.863 63.8466C112.942 63.8387 113.026 63.8381 113.083 63.8381H113.197H113.322C113.499 63.8418 113.675 63.827 113.849 63.794L113.898 63.7695L113.925 63.764C114.04 63.7525 114.15 63.7103 114.244 63.6416C114.262 63.6635 114.285 63.6814 114.311 63.6944C114.336 63.7073 114.364 63.7149 114.392 63.7169C114.391 63.7145 114.391 63.7119 114.391 63.7092C114.391 63.7066 114.391 63.704 114.392 63.7016C114.405 63.6789 114.469 63.6673 114.549 63.6526C114.674 63.6293 114.829 63.6 114.885 63.5155C114.897 63.5283 114.885 63.5406 114.876 63.5504C114.867 63.5602 114.867 63.5596 114.868 63.5626C114.869 63.5657 114.875 63.5663 114.885 63.5663C115.02 63.508 115.15 63.439 115.273 63.36C115.372 63.2988 115.474 63.2413 115.574 63.1886L117.081 63.1635C117.214 63.2342 117.35 63.2974 117.489 63.3527C117.629 63.4074 117.765 63.4704 117.897 63.5412C117.901 63.5412 117.905 63.5399 117.907 63.5374C117.91 63.5349 117.912 63.5315 117.912 63.5277C117.913 63.5145 117.91 63.5013 117.902 63.4903C117.895 63.4792 117.884 63.4709 117.872 63.4665C117.931 63.4889 117.993 63.4991 118.056 63.4965H118.139H118.217C118.302 63.4923 118.388 63.5089 118.466 63.5449L118.416 63.57C118.473 63.5946 118.534 63.6083 118.596 63.6104C118.665 63.6069 118.733 63.5859 118.792 63.5491C118.887 63.4961 118.991 63.461 119.099 63.4457C119.07 63.4477 119.042 63.4522 119.014 63.4592C118.971 63.4695 118.927 63.4759 118.883 63.4781C118.842 63.4781 118.819 63.4671 118.811 63.4445C118.824 63.4302 118.842 63.4213 118.861 63.4194C118.89 63.4176 118.919 63.4133 118.947 63.4065C118.975 63.3994 119.004 63.3951 119.033 63.3937C119.046 63.392 119.06 63.3934 119.073 63.3977C119.086 63.4021 119.098 63.4092 119.107 63.4188V63.3937C119.229 63.3703 119.348 63.3395 119.465 63.3012L119.577 63.2682L119.61 63.2596C119.696 63.2478 119.778 63.2162 119.85 63.1672L120.048 63.0417C120.028 63.0518 120.008 63.0602 119.987 63.0668C119.967 63.0736 119.947 63.082 119.927 63.0919L117.951 63.117C117.891 63.1041 117.826 63.0852 117.765 63.0662C117.704 63.0472 117.645 63.0295 117.585 63.0166H117.613C117.635 63.0166 117.656 63.0166 117.673 63.0166C117.69 63.0166 117.701 63.0166 117.705 63.0111C117.668 62.998 117.63 62.9908 117.591 62.9897C117.576 62.9897 117.561 62.9911 117.547 62.994L117.431 62.9377C117.347 62.8997 117.265 62.8572 117.186 62.8103H117.235C117.189 62.7944 117.143 62.7755 117.141 62.7565C117.141 62.7485 117.147 62.7418 117.161 62.7344C117.134 62.7238 117.106 62.7174 117.078 62.7155C117.055 62.7165 117.033 62.723 117.013 62.7344C116.996 62.7204 116.975 62.7109 116.953 62.7069C116.932 62.7014 116.912 62.694 116.893 62.6849C116.893 62.6849 116.89 62.6849 116.885 62.6818C116.859 62.6751 116.791 62.6579 116.779 62.6261C116.777 62.6209 116.776 62.6152 116.777 62.6098C116.778 62.6043 116.781 62.5992 116.784 62.5949C116.77 62.6071 116.752 62.6132 116.733 62.612C116.694 62.609 116.656 62.6009 116.62 62.5882C116.572 62.5718 116.523 62.5621 116.473 62.5594C116.47 62.5545 116.468 62.549 116.468 62.5435C116.468 62.5379 116.47 62.5324 116.473 62.5276C116.486 62.5037 116.542 62.5012 116.593 62.4988C116.631 62.4988 116.664 62.4951 116.667 62.4835C116.67 62.4719 116.663 62.4694 116.649 62.4584C116.63 62.456 116.612 62.4548 116.593 62.4547C116.412 62.4766 116.238 62.5377 116.082 62.6341C116.35 62.119 116.656 61.6262 116.999 61.1601C117.212 60.8668 117.408 60.5617 117.588 60.2463C117.587 60.1958 117.577 60.1459 117.559 60.0987C117.553 60.0762 117.539 60.0566 117.521 60.0427C117.502 60.0289 117.48 60.0217 117.457 60.0222C117.233 60.073 116.96 60.5823 116.889 60.7769C116.392 61.3187 116.051 61.9891 115.903 62.7149H115.899C115.862 62.7374 115.822 62.7537 115.779 62.7632C115.779 62.7332 115.804 62.7124 115.825 62.6959C115.845 62.6794 115.853 62.6732 115.853 62.6628C115.826 62.689 115.797 62.7137 115.768 62.7369C115.737 62.7609 115.708 62.7867 115.68 62.814C115.554 62.8654 115.45 62.9181 115.359 62.9652L115.556 62.7381C115.535 62.755 115.509 62.7637 115.483 62.7626L115.603 62.6126C115.48 62.6377 115.48 62.713 115.48 62.7626C115.463 62.7626 115.447 62.7626 115.43 62.7626L115.48 62.6622C115.343 62.7081 115.337 62.7718 115.33 62.8458C115.329 62.8977 115.313 62.9481 115.282 62.9897L115.109 62.9646C114.971 63.0074 114.839 63.0663 114.714 63.1403H114.417C114.485 63.051 114.581 62.9888 114.689 62.9646C114.694 62.967 114.697 62.9705 114.7 62.9748C114.703 62.9791 114.705 62.984 114.705 62.9891C114.705 63.0203 114.648 63.0589 114.619 63.0797C114.612 63.0834 114.605 63.0881 114.6 63.0937C114.605 63.0937 114.61 63.0926 114.615 63.0907C114.634 63.0858 114.656 63.0815 114.682 63.076C114.793 63.0527 114.946 63.0215 114.983 62.9401L114.711 63.0656C114.7 63.0368 114.698 63.0172 114.706 63.0044C114.713 62.9915 114.737 62.9848 114.761 62.9811C114.786 62.9774 114.822 62.9719 114.834 62.9401C114.818 62.932 114.801 62.9278 114.783 62.9279C114.736 62.9323 114.689 62.9462 114.647 62.9689C114.598 62.9947 114.544 63.0103 114.489 63.0148L114.514 62.9903C114.417 63.027 114.373 63.0466 114.333 63.065L114.273 63.0919C114.281 63.0864 114.321 63.0638 114.321 63.0405L114.197 63.0656C114.187 63.0766 114.182 63.0846 114.184 63.0901C114.186 63.0956 114.194 63.0974 114.207 63.0974C114.22 63.097 114.234 63.0957 114.247 63.0937H114.271C114.241 63.1072 114.203 63.1225 114.15 63.1439L113.312 63.1592L113.331 63.1409H113.324C113.299 63.1397 113.274 63.1463 113.252 63.1599L113.012 63.1647C113.007 63.1597 113.001 63.155 112.996 63.1507C112.979 63.1378 112.97 63.1305 112.983 63.0986H112.973H112.937C112.883 63.0992 112.83 63.1033 112.777 63.1109V63.1066C112.777 63.1017 112.774 63.0944 112.765 63.084L112.788 63.0882L112.862 63.0631H112.742L112.71 63.0338C112.702 63.0271 112.694 63.0199 112.687 63.0123C112.652 63.0123 112.635 63.016 112.632 63.024C112.628 63.0319 112.64 63.0442 112.652 63.0582L112.657 63.0631H112.637L112.661 63.0668C112.675 63.0788 112.684 63.0953 112.687 63.1133C112.673 63.1094 112.659 63.1075 112.646 63.1078C112.626 63.1081 112.605 63.1098 112.585 63.1127C112.566 63.1152 112.545 63.1166 112.525 63.117C112.475 63.117 112.448 63.1005 112.439 63.0631C112.426 63.0497 112.421 63.0393 112.424 63.0325C112.427 63.0258 112.461 63.0172 112.498 63.0148C112.538 63.018 112.578 63.0086 112.613 62.9879H112.242L112.221 62.9842L112.242 62.9634H112.234C112.194 62.9661 112.154 62.9572 112.119 62.9377C112.119 62.9181 112.13 62.9083 112.151 62.9083C112.183 62.9119 112.214 62.9219 112.242 62.9377C112.183 62.8907 112.109 62.8662 112.034 62.8685C111.934 62.8593 111.846 62.8507 111.846 62.7357C111.812 62.7337 111.779 62.7252 111.748 62.7106L111.772 62.6861L111.698 62.661C111.35 62.5294 111.306 62.4896 111.303 62.4712C111.303 62.4627 111.308 62.4578 111.315 62.4529C111.321 62.448 111.325 62.4449 111.324 62.44C111.324 62.4351 111.32 62.4315 111.311 62.4253C111.301 62.4196 111.29 62.4145 111.279 62.41C111.26 62.4165 111.239 62.4198 111.219 62.4198C111.195 62.4198 111.177 62.4131 111.173 62.4021C111.168 62.3911 111.173 62.3904 111.178 62.3843L111.006 62.5355C110.978 62.6002 110.933 62.6558 110.876 62.6959C110.792 62.7718 110.705 62.8501 110.733 62.9407C110.716 62.947 110.698 62.9505 110.68 62.9511C110.667 62.9519 110.655 62.948 110.645 62.9401C110.641 62.9369 110.639 62.933 110.637 62.9287C110.635 62.9244 110.634 62.9197 110.634 62.915C110.622 62.9201 110.608 62.923 110.594 62.9236C110.566 62.9236 110.559 62.9058 110.553 62.8875C110.546 62.8691 110.539 62.8483 110.508 62.8483C110.466 62.8538 110.425 62.868 110.388 62.8899C110.388 62.8746 110.397 62.8685 110.411 62.8599C110.42 62.8542 110.43 62.8475 110.438 62.8397H110.434C110.348 62.8397 110.339 62.874 110.339 62.8887L110.314 62.8385C110.317 62.8425 110.318 62.847 110.318 62.8517C110.318 62.8563 110.317 62.8609 110.314 62.8648C110.295 62.8973 110.208 62.9138 110.167 62.9138L110.216 62.7883C110.162 62.8411 110.093 62.8761 110.019 62.8887L110.068 62.814C109.987 62.8495 109.988 62.8838 109.988 62.912C109.989 62.9178 109.989 62.9239 109.987 62.9297C109.986 62.9356 109.983 62.941 109.979 62.9456C109.966 62.9591 109.933 62.9646 109.871 62.9646H110.093C109.949 63.0289 109.939 63.0944 109.931 63.1525C109.929 63.1854 109.917 63.2168 109.895 63.2413L109.846 63.2664H109.305C109.335 63.2375 109.36 63.2033 109.379 63.1654C109.412 63.1444 109.449 63.1318 109.488 63.1286C109.506 63.1296 109.523 63.1353 109.537 63.1451C109.552 63.1549 109.564 63.1684 109.572 63.1843C109.591 63.2113 109.61 63.237 109.646 63.237C109.702 63.2276 109.754 63.2016 109.796 63.1623C109.786 63.1472 109.773 63.135 109.757 63.1267C109.741 63.1185 109.724 63.1145 109.706 63.1152C109.658 63.1178 109.612 63.1341 109.573 63.1623C109.573 63.1243 109.629 63.0723 109.679 63.027L109.722 62.986C109.595 63.0286 109.462 63.0493 109.328 63.0472C109.27 63.0478 109.212 63.0525 109.154 63.0613H109.13C109.071 63.119 108.996 63.156 108.916 63.1666C108.904 63.1667 108.894 63.1651 108.883 63.1617C108.883 63.1752 108.861 63.1892 108.834 63.2064C108.807 63.2224 108.782 63.2413 108.759 63.2627H108.338V63.2376C108.345 63.2444 108.354 63.2497 108.363 63.2532C108.373 63.2566 108.382 63.2582 108.392 63.2578C108.51 63.2277 108.618 63.1689 108.709 63.0864L108.437 63.0613C108.449 63.0674 108.454 63.0742 108.454 63.0821C108.454 63.1072 108.407 63.1397 108.363 63.1617L108.339 63.087C108.334 63.1042 108.324 63.1192 108.309 63.129C108.294 63.1388 108.277 63.1428 108.259 63.1403C108.202 63.1352 108.146 63.1227 108.092 63.1029L108.079 63.0993C108.014 63.0757 107.946 63.0617 107.877 63.0576C107.853 63.0558 107.828 63.0597 107.805 63.0691C107.783 63.0784 107.762 63.0929 107.746 63.1115C107.769 63.1127 107.792 63.1174 107.814 63.1256C107.833 63.1328 107.853 63.1371 107.874 63.1384C107.889 63.1379 107.904 63.1327 107.916 63.1234C107.929 63.1141 107.938 63.1012 107.943 63.0864C107.974 63.0993 107.991 63.1133 107.996 63.1311C108.001 63.1488 107.986 63.1831 107.968 63.2088C107.955 63.224 107.947 63.2424 107.943 63.2621H107.646C107.553 63.2313 107.462 63.1935 107.373 63.1488C107.286 63.1047 107.196 63.067 107.103 63.0362C107.139 63.038 107.175 63.0481 107.207 63.0656C107.228 63.0774 107.252 63.0847 107.276 63.087L107.3 63.0619C107.301 63.0613 107.301 63.0606 107.301 63.0598C107.301 63.059 107.301 63.0582 107.3 63.0576C107.174 62.9391 107.014 62.8639 106.844 62.8428C106.814 62.842 106.784 62.8487 106.758 62.8624C106.717 62.8624 106.669 62.8624 106.608 62.8624C106.595 62.8696 106.582 62.878 106.57 62.8875C106.55 62.9065 106.524 62.9179 106.497 62.9199C106.485 62.9202 106.472 62.9184 106.46 62.9144C106.442 62.923 106.434 62.9291 106.435 62.9315C106.435 62.934 106.435 62.9315 106.442 62.9315C106.473 62.9284 106.504 62.9233 106.535 62.9162L106.592 62.9058C106.611 62.9015 106.632 62.8979 106.652 62.8948C106.603 62.9921 106.586 62.9946 106.56 62.9976C106.534 63.0007 106.504 63.0044 106.433 63.0888H106.46L106.485 63.1139L106.46 63.139C106.439 63.1518 106.415 63.1602 106.39 63.1635C106.373 63.1635 106.368 63.1531 106.362 63.1409V63.1366C106.359 63.1278 106.353 63.1205 106.345 63.1157C106.337 63.1109 106.328 63.109 106.318 63.1103C106.309 63.1106 106.299 63.1118 106.289 63.1139C106.249 63.1666 106.22 63.1911 106.192 63.1911C106.175 63.1895 106.159 63.1836 106.145 63.1739H106.14C106.121 63.1624 106.1 63.1558 106.077 63.155C106.027 63.1602 105.981 63.1816 105.944 63.2162V63.1654C105.877 63.197 105.803 63.2121 105.729 63.2094C105.621 63.2055 105.513 63.192 105.407 63.169C105.344 63.1574 105.284 63.1464 105.227 63.1403C105.244 63.1491 105.264 63.154 105.283 63.1543C105.324 63.1592 105.375 63.166 105.395 63.1947C105.399 63.2016 105.402 63.2093 105.403 63.2174C105.403 63.2254 105.403 63.2336 105.4 63.2413L105.104 63.2664C105.09 63.2571 105.074 63.2506 105.058 63.2474C105.034 63.24 105.009 63.2333 105.007 63.2204C105.005 63.2076 105.013 63.2027 105.03 63.1911L105.129 63.2162L105.077 63.1672C105 63.1758 104.957 63.1917 104.952 63.2143C104.947 63.237 104.979 63.2755 105.018 63.3104C105.03 63.3214 105.042 63.3325 105.052 63.3435H104.855C104.87 63.3318 104.881 63.3148 104.884 63.2957C104.882 63.275 104.871 63.2561 104.855 63.2431C104.805 63.2312 104.754 63.226 104.703 63.2278C104.586 63.2227 104.469 63.2449 104.361 63.2927C104.275 63.1847 104.151 63.1144 104.016 63.0962C103.901 63.0644 103.811 63.0387 103.817 62.9738C103.812 62.9861 103.804 62.9966 103.793 63.0039C103.783 63.0113 103.77 63.015 103.757 63.0148C103.735 63.0137 103.715 63.0065 103.697 62.994L103.747 62.9689C103.718 62.9507 103.686 62.9406 103.652 62.9395C103.615 62.9414 103.579 62.9537 103.548 62.975H103.544C103.518 62.9935 103.488 63.0047 103.456 63.0074C103.437 63.0071 103.417 63.0012 103.401 62.9903L103.474 62.9401C103.403 62.9177 103.329 62.9071 103.255 62.9089C103.218 62.9089 103.182 62.9089 103.148 62.912C103.113 62.915 103.084 62.912 103.054 62.912C103.074 62.8318 103.094 62.7412 103.114 62.6543C103.141 62.4646 103.196 62.2802 103.278 62.1077C103.358 61.8402 103.45 61.7055 103.549 61.7055H103.559C103.728 61.7055 103.94 62.0201 104.165 62.3531C104.401 62.7026 104.646 63.0631 104.859 63.0876H104.883L104.908 63.0625C104.935 63.0174 104.951 62.9668 104.957 62.9144C104.957 62.6598 104.625 62.3268 104.315 62.0342C104.091 61.8445 103.884 61.6356 103.696 61.4099C103.695 61.4087 103.695 61.4074 103.696 61.4062C103.974 60.8131 105.056 60.4501 105.697 60.4268C105.69 60.4825 105.683 60.5395 105.677 60.5988C105.617 61.0418 105.582 61.488 105.573 61.935C105.56 62.2898 105.627 62.643 105.771 62.9664C105.82 63.0154 105.844 63.016 105.845 63.016C105.857 63.0147 105.87 63.0106 105.881 63.0039C105.891 62.9973 105.901 62.9883 105.908 62.9776C105.915 62.9669 105.92 62.9547 105.922 62.9419C105.924 62.929 105.924 62.9159 105.92 62.9034C105.92 62.8989 105.92 62.8944 105.92 62.8899V61.5586C105.91 61.265 105.919 60.971 105.945 60.6784C105.968 60.4611 106.079 60.3772 106.341 60.3772C106.84 60.4238 107.322 60.5872 107.749 60.8547C107.763 60.8862 107.771 60.9203 107.773 60.9551C107.732 61.2005 107.656 61.4382 107.545 61.6602C107.412 61.9293 107.322 62.2187 107.279 62.5171C107.282 62.583 107.308 62.6456 107.352 62.6934L107.377 62.7179H107.402C107.556 62.6794 107.619 62.489 107.699 62.249C107.722 62.1811 107.745 62.1113 107.772 62.0391C107.818 61.8897 107.857 61.733 107.892 61.5904C107.918 61.4696 107.952 61.3507 107.995 61.2348C108.019 61.1093 108.045 61.1093 108.069 61.1093H108.081C108.194 61.1093 108.489 61.4221 108.489 61.5133V61.5384H108.514C108.671 61.5647 108.772 61.9669 108.836 62.268C108.846 62.3158 108.855 62.3641 108.864 62.4113C108.924 62.7173 108.971 62.9756 109.206 62.997H109.227C109.275 62.9578 109.313 62.9079 109.339 62.8513C109.365 62.7946 109.377 62.7326 109.376 62.6702C109.278 62.0831 109.041 61.5291 108.686 61.0561C108.663 61.0171 108.646 60.9748 108.636 60.9306C108.664 60.9319 108.692 60.9349 108.719 60.9398C108.774 60.9487 108.829 60.9538 108.884 60.9551H108.933C109.072 60.9768 109.213 60.9852 109.354 60.9802C109.633 60.974 109.912 60.9511 110.188 60.9116C110.388 60.8871 110.578 60.8651 110.763 60.8541H110.787L110.812 60.829C110.914 60.7607 111.037 60.7338 111.158 60.7537H111.282C111.397 60.7571 111.513 60.7487 111.627 60.7286C112.097 60.7132 112.565 60.6534 113.025 60.5499C113.411 60.4663 113.803 60.4084 114.197 60.3766C114.891 60.13 115.613 59.9777 116.346 59.9237H116.667V59.8906C116.732 59.8806 116.798 59.8747 116.865 59.8729H117.037L117.062 59.8484C117.077 59.8364 117.09 59.821 117.098 59.8034C117.107 59.7858 117.112 59.7664 117.112 59.7468C117.062 59.6213 116.962 59.6213 116.865 59.6213L116.782 59.6317C116.686 59.635 116.591 59.6586 116.504 59.7009C116.476 59.7009 116.444 59.7009 116.419 59.7009C116.052 59.722 115.687 59.7684 115.326 59.8398L115.258 59.8521C114.889 59.9047 114.518 59.936 114.146 59.9457L114.025 59.9525C113.956 59.961 113.888 59.9671 113.822 59.9739C113.496 60.0069 113.215 60.0351 113.112 60.2034C113.112 60.1774 113.106 60.1518 113.092 60.1296C113.079 60.1074 113.06 60.0895 113.037 60.0779H113.013C112.736 60.0904 112.462 60.1256 112.191 60.1832C111.868 60.2521 111.539 60.293 111.209 60.3056C110.945 60.3241 110.683 60.2512 110.465 60.0987C110.426 60.0824 110.384 60.0739 110.342 60.0736C110.32 60.08 110.299 60.0843 110.277 60.0865C110.212 60.0957 110.138 60.1061 110.119 60.1991C110.119 60.204 110.12 60.2088 110.122 60.2132C110.125 60.2175 110.128 60.2213 110.132 60.2242C110.135 60.2273 110.138 60.2311 110.141 60.2354C110.143 60.2397 110.144 60.2445 110.144 60.2493H110.135C110.022 60.2111 109.916 60.1522 109.824 60.0755L109.799 60.0504H109.774C109.746 60.0502 109.718 60.0547 109.691 60.0639C109.714 59.9429 109.726 59.8199 109.725 59.6966C109.725 59.6825 109.725 59.6684 109.725 59.6544C109.725 59.5374 109.73 59.4169 109.576 59.3948C109.52 59.3948 109.492 59.4371 109.45 59.5019C109.436 59.5221 109.421 59.546 109.403 59.5711V59.6207C109.419 59.6707 109.428 59.7226 109.431 59.7749C109.429 59.914 109.481 60.0482 109.576 60.1483L109.601 60.1734C109.603 60.2435 109.629 60.3106 109.675 60.3632L109.7 60.4005L109.724 60.425H108.958L108.983 60.4011C108.984 60.3877 108.989 60.3747 108.995 60.3632C109.002 60.3516 109.007 60.3386 109.008 60.3252C109.003 60.3007 108.992 60.2779 108.975 60.2591C108.959 60.2402 108.938 60.2259 108.915 60.2175C108.904 60.2133 108.894 60.207 108.885 60.1991H108.878C108.846 60.1939 108.814 60.2014 108.787 60.2202C108.761 60.2389 108.743 60.2673 108.736 60.2995C108.755 60.3449 108.791 60.3812 108.835 60.4011L108.859 60.4244C108.515 60.4236 108.174 60.3738 107.844 60.2763C107.468 60.0348 107.028 59.9204 106.584 59.9494C106.355 59.9494 106.132 59.9629 105.917 59.9751C105.71 59.9873 105.516 59.999 105.324 59.999C105.098 59.9371 104.865 59.9118 104.632 59.9243C104.036 59.9249 103.441 59.9754 102.854 60.0755C102.746 60.0818 102.638 60.0734 102.532 60.0504C102.506 60.0517 102.479 60.0427 102.458 60.0253C102.591 59.9629 102.734 59.9287 102.879 59.9249H102.929V59.8245C102.917 59.7829 102.891 59.747 102.855 59.7236C102.819 59.7002 102.777 59.6908 102.735 59.6972H102.695H102.657C102.898 59.633 103.144 59.592 103.393 59.5748L103.447 59.5699H103.472L103.497 59.5448L103.521 59.494C103.497 59.3936 103.421 59.3936 103.348 59.3936L103.369 59.3832C103.389 59.3766 103.406 59.3647 103.42 59.3488C103.434 59.3328 103.443 59.3134 103.447 59.2926C103.443 59.2662 103.432 59.2413 103.415 59.2212C103.398 59.2011 103.376 59.1865 103.35 59.1794L103.323 59.1671H103.051C103.051 59.1763 103.044 59.1788 103.035 59.1818C103.021 59.1856 103.008 59.1934 102.998 59.2042C102.988 59.215 102.981 59.2285 102.978 59.243C103.013 59.3318 103.023 59.3324 103.044 59.3342C103.055 59.3347 103.066 59.3376 103.077 59.3428C103.144 59.3505 103.209 59.3672 103.272 59.3924C103.198 59.4089 103.092 59.4248 102.989 59.4401C102.925 59.4493 102.861 59.4591 102.805 59.4683C102.758 59.488 102.71 59.5043 102.661 59.5172C102.564 59.5448 102.493 59.565 102.459 59.6697C102.459 59.6941 102.459 59.7192 102.483 59.7199H102.385C102.372 59.6924 102.363 59.6631 102.359 59.6329C102.35 59.5864 102.343 59.5521 102.262 59.5191C102.21 59.5475 102.167 59.5898 102.137 59.6415C102.117 59.678 102.089 59.7091 102.055 59.7319C102.021 59.7547 101.981 59.7687 101.941 59.7725C101.917 59.6653 101.909 59.5552 101.916 59.4456V59.1439C101.941 59.0937 101.965 59.0937 101.989 59.0937C102.027 59.1042 102.059 59.1275 102.082 59.1596C102.104 59.1916 102.115 59.2306 102.113 59.27V59.3195L102.131 59.341C102.14 59.3558 102.151 59.3685 102.166 59.3779C102.18 59.3874 102.196 59.3934 102.212 59.3954C102.304 59.3765 102.314 59.3312 102.323 59.2871C102.325 59.2725 102.33 59.2583 102.336 59.2449C102.345 59.2082 102.362 59.1738 102.385 59.1439C102.926 59.0937 103.516 59.0686 104.139 59.0686H105.258H105.271C105.267 59.0686 105.178 59.0833 105.178 59.1671C105.176 59.1808 105.177 59.1946 105.182 59.2076C105.186 59.2206 105.193 59.2325 105.202 59.2424H103.647C103.628 59.2434 103.609 59.2516 103.596 59.2653C103.582 59.2791 103.574 59.2975 103.572 59.3171C103.581 59.3424 103.598 59.3643 103.619 59.38C103.641 59.3957 103.666 59.4045 103.693 59.4052C103.711 59.4082 103.729 59.4127 103.747 59.4187C103.993 59.4589 104.24 59.4838 104.489 59.4934C104.689 59.4342 104.898 59.4089 105.106 59.4187C105.511 59.4276 105.916 59.4599 106.317 59.5154L106.342 59.5185C106.391 59.5185 106.651 59.5185 106.91 59.4934C106.975 59.4934 107.046 59.486 107.114 59.4793C107.183 59.4726 107.234 59.4677 107.28 59.4677C107.311 59.453 107.345 59.4446 107.379 59.4432C107.378 59.4691 107.385 59.4947 107.398 59.517C107.411 59.5393 107.43 59.5574 107.453 59.5693L107.502 59.6189L107.527 59.5938H107.65L107.674 59.5699C107.674 59.595 107.702 59.6213 107.725 59.6446L107.749 59.6697L107.799 59.6446C107.808 59.635 107.82 59.6277 107.833 59.6234C107.846 59.6191 107.859 59.6177 107.873 59.6195H107.897L107.922 59.5944C107.923 59.5831 107.926 59.5721 107.931 59.5619C107.941 59.5407 107.946 59.5175 107.947 59.494C107.947 59.3936 107.871 59.3679 107.799 59.3428C107.773 59.3422 107.748 59.3491 107.726 59.3625C107.704 59.3759 107.686 59.3954 107.675 59.4187C107.655 59.3913 107.629 59.3697 107.598 59.3564C107.568 59.343 107.534 59.3383 107.502 59.3428H107.493C107.471 59.2926 107.449 59.2926 107.428 59.2926C107.415 59.2913 107.402 59.2871 107.391 59.2804C107.38 59.2731 107.367 59.2687 107.354 59.2675C106.662 59.2424 106.002 59.2424 105.303 59.2424L105.328 59.2173C105.328 59.2085 105.331 59.2001 105.337 59.1934C105.348 59.1786 105.354 59.1601 105.353 59.1414C105.353 59.1029 105.309 59.0802 105.273 59.068H105.283H105.944C106.086 59.1241 106.237 59.1497 106.389 59.1433C106.771 59.1348 107.151 59.0928 107.526 59.0178C107.526 59.0337 107.535 59.0392 107.548 59.0478C107.558 59.0535 107.567 59.0603 107.575 59.068L107.6 59.0931H107.748V58.997C107.99 58.9434 108.235 58.9052 108.482 58.8825L108.588 58.8709C108.61 58.9087 108.619 58.9533 108.612 58.997C108.606 59.1137 108.591 59.2298 108.567 59.344C108.536 59.4862 108.518 59.6308 108.513 59.7762C108.503 59.8631 108.52 59.951 108.562 60.0271L108.587 60.0522H108.636C108.837 60.0314 108.873 59.8239 108.881 59.6238H108.932V59.5987H108.982V59.5479C108.981 59.5194 108.97 59.4922 108.953 59.4701C108.935 59.4481 108.911 59.4325 108.884 59.4254C108.884 59.3146 108.875 59.2039 108.868 59.1145C108.863 59.0453 108.859 58.9859 108.859 58.9443H108.884C109.058 58.8888 109.236 58.8456 109.417 58.8152L109.526 58.7931C109.649 58.768 109.75 58.7429 109.847 58.7178C109.869 58.7037 109.893 58.6941 109.919 58.6897C109.938 58.7072 109.961 58.7203 109.986 58.7283L110.02 58.7429L110.045 58.6677V58.7429C110.481 58.6764 110.921 58.6369 111.362 58.6248C111.651 58.6107 111.949 58.5967 112.244 58.5636H112.294V58.5134C112.277 58.4247 112.247 58.4234 112.205 58.4222C112.185 58.4223 112.165 58.4194 112.145 58.4136H111.873C111.629 58.4136 111.292 58.4326 111.047 58.4479C110.892 58.4565 110.769 58.4638 110.713 58.4638C110.556 58.4608 110.399 58.4692 110.243 58.4889C110.196 58.5013 110.148 58.5101 110.099 58.5152C110.069 58.5179 110.039 58.5226 110.01 58.5293C109.999 58.5097 109.981 58.5054 109.96 58.5006C109.947 58.4981 109.934 58.494 109.922 58.4883V58.4852C109.898 58.4129 109.882 58.338 109.874 58.2618V57.8334H109.924L109.948 57.8083C109.955 57.7948 109.961 57.7826 109.967 57.7715C109.985 57.7455 109.996 57.7146 109.997 57.6828C109.995 57.6656 109.989 57.6492 109.98 57.6347C109.97 57.6203 109.958 57.6082 109.943 57.5995C109.936 57.5928 109.929 57.5873 109.923 57.5812L109.948 57.5316V57.43H109.923C109.946 57.4183 109.965 57.4003 109.978 57.3781C109.991 57.3559 109.997 57.3304 109.997 57.3045C109.993 57.2941 109.99 57.2843 109.987 57.2745C109.984 57.2442 109.971 57.2158 109.951 57.1937C109.93 57.1715 109.903 57.1569 109.874 57.1521C109.869 57.1522 109.864 57.1534 109.86 57.1557C109.856 57.1579 109.852 57.1611 109.849 57.165C109.846 57.1688 109.842 57.172 109.838 57.1742C109.834 57.1765 109.829 57.1777 109.824 57.1778V56.876C109.817 56.7248 109.825 56.5732 109.849 56.4237C109.858 56.3992 109.867 56.3772 109.875 56.3564C109.891 56.3102 109.91 56.265 109.931 56.2211C109.917 56.2644 109.91 56.31 109.912 56.3558C109.911 56.4121 109.906 56.4683 109.899 56.5241L109.874 56.5492C109.865 56.559 109.858 56.5707 109.854 56.5837C109.849 56.5966 109.848 56.6103 109.85 56.6239V56.8503L109.949 56.8252C109.997 56.8252 110.022 56.7506 110.022 56.7242V56.649H110.047V56.6239C110.064 56.5414 110.072 56.4572 110.071 56.3729V56.3227C110.07 56.3031 110.062 56.2846 110.049 56.2708C110.035 56.2569 110.017 56.2486 109.997 56.2474C109.988 56.2461 109.978 56.2474 109.969 56.2513C109.96 56.2551 109.952 56.2614 109.946 56.2694C109.951 56.2572 109.957 56.2474 109.972 56.2474L109.992 56.2376C110.039 56.2186 110.082 56.1894 110.117 56.1519C110.152 56.1145 110.178 56.0698 110.195 56.0209C110.212 55.9905 110.221 55.9557 110.219 55.9206C110.217 55.8813 110.201 55.8442 110.173 55.8164C110.146 55.7885 110.109 55.7718 110.071 55.7694C109.959 55.7841 109.85 55.818 109.749 55.8697C109.649 55.9218 109.54 55.9559 109.429 55.9707C109.302 55.945 109.231 55.9157 109.231 55.6188V55.568C109.205 55.4107 109.179 55.3415 109.082 55.317C108.936 55.3599 108.913 55.5447 108.895 55.6935C108.891 55.721 108.888 55.7467 108.885 55.77C108.87 55.8422 108.828 55.9057 108.768 55.9469C108.716 55.982 108.678 56.0354 108.662 56.0968C108.662 56.177 108.692 56.2266 108.786 56.2982C108.775 57.1147 108.709 57.9295 108.588 58.7368C108.445 58.7602 108.301 58.7729 108.156 58.7748C108.003 58.7776 107.85 58.7901 107.699 58.8121C106.809 58.8623 105.93 58.8623 105.08 58.8623H104.115C104.171 58.8434 104.229 58.8349 104.288 58.8372H104.363L104.385 58.8292C104.445 58.8103 104.464 58.8035 104.486 58.7362C104.45 58.6481 104.416 58.6462 104.381 58.645C104.366 58.6454 104.351 58.6424 104.337 58.6364C104.274 58.6141 104.206 58.6056 104.139 58.6113H103.995C103.987 58.6183 103.977 58.6231 103.967 58.6254C103.943 58.6328 103.913 58.6413 103.896 58.7111C103.9 58.7254 103.906 58.7391 103.913 58.7521L103.896 58.787H103.921V58.7638C103.934 58.7806 103.952 58.7935 103.972 58.8011L103.994 58.8121H103.153L103.156 58.8084C103.18 58.784 103.201 58.7613 103.201 58.7368C103.201 58.6113 103.101 58.6113 103.053 58.6113C103.005 58.6113 102.929 58.6322 102.929 58.7117C102.928 58.7254 102.929 58.7392 102.933 58.7522C102.938 58.7653 102.945 58.7772 102.954 58.787H102.386C102.401 58.7751 102.413 58.7599 102.421 58.7425C102.43 58.7251 102.435 58.706 102.435 58.6866V58.6364L102.386 58.6113C102.249 58.5648 102.188 58.41 102.188 58.1082C102.199 57.841 102.229 57.5751 102.279 57.3125C102.323 57.0776 102.351 56.8396 102.362 56.6006C102.362 56.338 102.276 56.1984 102.114 56.1984C102.021 56.2411 101.921 56.2664 101.819 56.2731C101.76 56.2714 101.702 56.2632 101.645 56.2486C101.589 56.2336 101.531 56.2252 101.472 56.2235C101.302 56.2235 101.204 56.3643 101.051 56.8271C101.012 56.8862 100.995 56.9572 101.002 57.0278C101.002 57.1429 101.02 57.2531 101.151 57.2794H101.175C101.199 57.5989 101.224 58.2588 101.225 58.2845C101.259 58.4007 101.323 58.5061 101.408 58.5905C101.464 58.6517 101.509 58.7019 101.497 58.7607C101.489 58.8251 101.464 58.886 101.423 58.9364C101.145 58.9793 100.863 58.9963 100.581 58.9872H99.4711C99.4068 58.9872 99.3153 58.9823 99.2089 58.9768C99.073 58.9694 98.919 58.9621 98.7789 58.9621C98.7187 58.9676 98.6586 58.9694 98.5984 58.9713C98.4011 58.9774 98.2466 58.9817 98.2081 59.1377V59.1628L98.2321 59.1879C98.4601 59.3092 98.7174 59.3617 98.9737 59.3391C99.2552 59.3391 99.5812 59.3146 99.8969 59.2902C100.024 59.2804 100.144 59.2712 100.258 59.2645C100.247 59.2755 100.239 59.2883 100.233 59.3024C100.227 59.3159 100.219 59.3283 100.209 59.3391C100.184 59.3128 100.159 59.2889 100.135 59.2889C100.041 59.2961 99.9509 59.3343 99.8796 59.3978C99.8082 59.4612 99.759 59.5465 99.7393 59.6409C99.7496 59.7299 99.7942 59.8111 99.8632 59.8668L99.8873 59.8919L99.912 59.8668C99.9709 59.8038 100.009 59.7234 100.02 59.6372C100.042 59.5442 100.061 59.464 100.14 59.464C100.146 59.4635 100.152 59.4635 100.159 59.464H100.208V59.3893L100.233 59.4144L100.257 59.4395H100.282C100.315 59.4389 100.348 59.4346 100.38 59.4267C100.413 59.4192 100.446 59.4151 100.48 59.4144C100.578 59.3636 100.628 59.3385 100.628 59.2632V59.2381C100.66 59.2485 100.694 59.2564 100.728 59.262C100.761 59.2664 100.795 59.2753 100.826 59.2883C100.974 59.3057 101.123 59.314 101.271 59.3134H101.32C101.318 59.3379 101.315 59.3622 101.311 59.3863C101.284 59.5447 101.271 59.7053 101.271 59.8661H101.268C101.093 59.9256 100.911 59.9604 100.727 59.9696C100.7 59.9696 100.675 59.9696 100.652 59.9659C100.607 59.9657 100.563 59.9604 100.519 59.95C100.498 59.9447 100.476 59.9417 100.454 59.9408L100.43 59.9157C100.467 59.9089 100.501 59.8907 100.527 59.8637C100.554 59.8367 100.572 59.8021 100.578 59.7645C100.577 59.7524 100.573 59.7408 100.566 59.7309C100.559 59.721 100.549 59.7132 100.538 59.7082C100.52 59.6974 100.499 59.6909 100.478 59.6892C100.313 59.7192 100.163 59.8082 100.057 59.9402C100.024 59.9421 99.9913 59.9474 99.9595 59.9561C99.9427 59.9606 99.9256 59.9637 99.9084 59.9653H99.859C99.859 59.9653 99.8338 59.9653 99.8097 60.0149C99.8094 60.0215 99.8104 60.0281 99.8127 60.0343C99.815 60.0405 99.8185 60.0462 99.8229 60.051C99.8329 60.0601 99.8457 60.0653 99.859 60.0657C99.9084 60.0657 99.933 60.0657 99.933 60.0908V60.1159H99.859C99.8338 60.1159 99.8097 60.1159 99.7851 60.1906C99.7903 60.2034 99.7976 60.2151 99.8067 60.2254C99.8097 60.2285 99.8097 60.2285 99.8097 60.2414C99.8113 60.2549 99.8099 60.2686 99.8057 60.2815C99.8014 60.2944 99.7944 60.3062 99.7851 60.316C99.69 60.324 99.5764 60.335 99.4567 60.3479C99.131 60.3875 98.8036 60.4104 98.4757 60.4164C98.1983 60.4367 97.9199 60.3938 97.6608 60.2909L97.6361 60.2665L97.6121 60.2909C97.4914 60.3259 97.3664 60.343 97.241 60.3417C96.9113 60.3279 96.5832 60.2884 96.2594 60.2236C96.0534 60.1814 95.8449 60.1536 95.6351 60.1404C95.6044 60.135 95.5728 60.1368 95.5428 60.1456C95.5128 60.1544 95.4852 60.17 95.4619 60.1912C95.4526 60.2011 95.4455 60.213 95.4412 60.226C95.437 60.239 95.4356 60.2528 95.4373 60.2665C95.4872 60.5205 95.907 60.5676 96.352 60.6184C96.6966 60.6529 97.0427 60.6697 97.3889 60.6686C97.9559 60.7987 98.5376 60.8496 99.1181 60.8198H100.254C100.662 60.7806 101.073 60.8233 101.464 60.9453C101.478 60.952 101.489 60.9594 101.5 60.9649C101.526 60.9833 101.556 60.9937 101.588 60.9949C101.62 60.9924 101.65 60.9816 101.677 60.9636C101.704 60.9456 101.726 60.921 101.74 60.892C101.749 60.8786 101.754 60.8694 101.761 60.8694C102.055 60.8694 102.354 60.8633 102.644 60.8571C102.945 60.8504 103.252 60.8443 103.564 60.8443C103.53 60.9018 103.462 60.9961 103.375 61.1161C102.997 61.5639 102.716 62.0884 102.551 62.6549H102.548H102.535C102.528 62.6568 102.52 62.658 102.513 62.6585L102.551 62.6775V62.7271C102.552 62.7417 102.556 62.7561 102.561 62.7699C102.569 62.7967 102.574 62.8245 102.576 62.8526C102.549 62.8307 102.524 62.8072 102.5 62.7822C102.459 62.7284 102.407 62.6843 102.347 62.6526C102.288 62.6209 102.223 62.6025 102.156 62.5986C102.167 62.5771 102.216 62.5741 102.258 62.5716C102.3 62.5692 102.326 62.568 102.329 62.5557C102.333 62.5435 102.323 62.538 102.304 62.5239C102.22 62.5192 102.137 62.5431 102.068 62.5918C102.015 62.6313 101.95 62.6516 101.885 62.6494C101.9 62.6416 101.914 62.6295 101.923 62.6145C101.933 62.5995 101.938 62.5821 101.938 62.5643C101.945 62.5245 101.95 62.4878 102.033 62.4731H102.019C101.835 62.4731 101.785 62.4994 101.737 62.5722L101.663 62.5478C101.59 62.628 101.491 62.6795 101.384 62.6934L101.366 62.6977V62.6481C101.334 62.792 101.272 62.7938 101.194 62.7944C101.143 62.7924 101.092 62.8026 101.045 62.8244V62.7485C101.021 62.7886 100.988 62.8221 100.949 62.8461C100.909 62.8701 100.865 62.8839 100.819 62.8862C100.795 62.886 100.772 62.8818 100.749 62.874L100.798 62.7993C100.745 62.8305 100.685 62.8479 100.624 62.8501C100.552 62.848 100.481 62.8748 100.428 62.9248C100.426 62.925 100.424 62.9247 100.422 62.9241C100.42 62.9235 100.419 62.9225 100.417 62.9211C100.413 62.915 100.417 62.9034 100.417 62.8905C100.417 62.8777 100.427 62.8514 100.417 62.8379C100.411 62.8317 100.403 62.827 100.394 62.8243C100.386 62.8215 100.377 62.8207 100.368 62.822C100.354 62.822 100.341 62.823 100.327 62.825C100.307 62.8477 100.282 62.8658 100.255 62.8779C100.227 62.8901 100.198 62.896 100.168 62.8954C100.145 62.8972 100.122 62.8898 100.104 62.8746C100.104 62.8544 100.121 62.8177 100.153 62.8177C100.162 62.8178 100.171 62.8203 100.178 62.825H100.189C100.186 62.8281 100.183 62.8318 100.181 62.8359C100.18 62.84 100.179 62.8444 100.178 62.8489L100.228 62.7993C100.213 62.7965 100.198 62.7951 100.183 62.795C100.15 62.795 100.119 62.8052 100.092 62.8244C100.064 62.8435 100.032 62.8535 99.9986 62.8532C99.9843 62.8532 99.97 62.852 99.9559 62.8495C99.9544 62.8483 99.9531 62.8467 99.9523 62.8449C99.9515 62.8431 99.9511 62.8411 99.9511 62.8391C99.9511 62.8287 99.9649 62.8177 99.9811 62.8042C100.001 62.7895 100.018 62.7707 100.03 62.7491L99.4892 62.9254C99.4898 62.9336 99.4921 62.9415 99.4958 62.9488C99.4995 62.956 99.5046 62.9624 99.5108 62.9677C99.5282 62.9866 99.5445 63.0038 99.5138 63.0509H99.7111C99.7297 63.0601 99.7387 63.0705 99.7381 63.0815C99.7381 63.1139 99.6377 63.1427 99.5728 63.166L99.5385 63.177H99.6618V63.2204L99.7604 63.1954C99.7117 63.2253 99.6876 63.2511 99.6894 63.2725C99.6912 63.2939 99.7369 63.3178 99.7772 63.3337C99.8175 63.3496 99.844 63.3588 99.8446 63.3759C99.8452 63.3931 99.826 63.4047 99.7845 63.4224C99.7371 63.4234 99.6898 63.4281 99.6431 63.4365C99.6084 63.443 99.5732 63.4467 99.5379 63.4475H99.8855C99.8544 63.4685 99.8208 63.4856 99.7857 63.4983C99.7882 63.4978 99.7909 63.4978 99.7935 63.4983C99.8274 63.4972 99.8612 63.4934 99.8945 63.4867C99.9312 63.4794 99.9684 63.4751 100.006 63.4739L100.055 63.4488C100.054 63.456 100.051 63.463 100.047 63.469C100.04 63.4818 100.032 63.4965 100.039 63.51C100.045 63.5234 100.077 63.5406 100.129 63.5491C100.17 63.5299 100.215 63.5201 100.261 63.5204C100.337 63.5244 100.411 63.5422 100.481 63.573L100.5 63.581C100.553 63.6061 100.611 63.6216 100.67 63.6269C100.679 63.6277 100.688 63.6277 100.697 63.6269C100.77 63.6079 100.805 63.5926 100.806 63.5791C100.808 63.5657 100.783 63.5577 100.758 63.5473C100.732 63.5369 100.703 63.5259 100.703 63.5112C100.703 63.4965 100.717 63.4892 100.746 63.4763C100.766 63.4708 100.786 63.4671 100.807 63.4653C100.82 63.4641 100.834 63.466 100.846 63.4707C100.859 63.4755 100.87 63.4831 100.88 63.4928C100.889 63.5025 100.901 63.51 100.913 63.5148C100.926 63.5196 100.939 63.5215 100.952 63.5204L100.977 63.42H101.05C101.05 63.4278 101.049 63.4356 101.047 63.4433C101.045 63.4507 101.045 63.4585 101.047 63.4659C101.056 63.4659 101.065 63.4573 101.077 63.4451C101.091 63.4429 101.105 63.4417 101.12 63.4414C101.132 63.4414 101.138 63.4414 101.139 63.4469C101.14 63.4524 101.125 63.4677 101.104 63.4849C101.072 63.5112 101.032 63.5461 101.049 63.5681C101.102 63.5044 101.175 63.4603 101.256 63.4426C101.262 63.4418 101.268 63.4418 101.274 63.4426C101.275 63.4436 101.275 63.4446 101.275 63.4457C101.275 63.4468 101.275 63.4478 101.274 63.4488C101.274 63.4641 101.234 63.4922 101.207 63.51C101.198 63.5155 101.189 63.5223 101.182 63.5302C101.196 63.5277 101.21 63.5231 101.222 63.5167C101.291 63.4656 101.366 63.4234 101.444 63.3912L102.507 63.3661L102.458 63.4408C102.473 63.4338 102.49 63.4304 102.507 63.431C102.579 63.4389 102.649 63.4579 102.715 63.4873C102.807 63.5249 102.903 63.5518 103.002 63.5675L102.977 63.6177H103.101L103.051 63.6428C103.082 63.6486 103.114 63.6513 103.145 63.6508H103.197H103.251C103.317 63.648 103.384 63.6592 103.447 63.6838C103.435 63.6805 103.422 63.6786 103.41 63.6783C103.386 63.6788 103.364 63.6887 103.348 63.7059C103.331 63.7231 103.322 63.7461 103.322 63.7701H103.743C103.743 63.7781 103.763 63.7897 103.784 63.8019C103.805 63.8142 103.839 63.8332 103.837 63.8479C103.835 63.8625 103.82 63.865 103.792 63.8705L103.964 63.8454L103.94 63.8956C104.116 63.9512 104.298 63.978 104.482 63.9752C104.644 63.9752 104.803 63.9593 104.971 63.9427H104.985C105.144 63.9268 105.326 63.9078 105.514 63.9078C105.607 63.9076 105.701 63.9125 105.794 63.9225V63.9476C105.881 63.9079 105.963 63.8595 106.04 63.8032C106.081 63.775 106.123 63.7462 106.165 63.7218C106.174 63.7181 106.185 63.7162 106.195 63.7162C106.217 63.7175 106.239 63.7223 106.26 63.7303L106.272 63.7334C106.306 63.7452 106.341 63.7514 106.377 63.7518C106.397 63.7518 106.417 63.75 106.437 63.7462C106.424 63.7377 106.418 63.7291 106.419 63.7199C106.419 63.6948 106.468 63.6679 106.525 63.6379C106.563 63.6183 106.599 63.5958 106.634 63.5706L106.807 63.7218L106.797 63.712C106.743 63.6633 106.697 63.6072 106.659 63.5455L106.684 63.4953H106.708L106.733 63.5204C106.731 63.5338 106.727 63.5467 106.72 63.5583C106.713 63.5697 106.709 63.5824 106.708 63.5957L106.732 63.5706C106.745 63.6052 106.766 63.6364 106.792 63.6618L106.783 63.671C106.822 63.7143 106.875 63.741 106.932 63.7456C106.988 63.7651 107.046 63.7806 107.104 63.7922C107.224 63.8191 107.328 63.8423 107.328 63.9225C107.369 63.9354 107.412 63.9418 107.456 63.9415C107.534 63.9384 107.611 63.9257 107.686 63.9036H107.69C107.766 63.8807 107.845 63.8675 107.925 63.8644C107.956 63.8642 107.988 63.867 108.019 63.8729L107.895 63.999L108.142 64.0235V63.9482H108.144C108.216 63.9482 108.265 63.9482 108.265 63.9739L108.232 64.0064C108.222 63.9998 108.211 63.9959 108.199 63.9948C108.187 63.9935 108.178 64.0027 108.168 64.0223ZM111.777 62.6145C111.617 62.5253 111.452 62.4472 111.282 62.3806H111.279C111.279 62.3806 111.279 62.3837 111.283 62.3874C111.299 62.396 111.399 62.4351 111.774 62.6145H111.777ZM109.107 59.5729C109.107 59.5974 109.132 59.6231 109.157 59.6476L109.181 59.6727H109.205C109.215 59.6632 109.227 59.656 109.24 59.6517C109.253 59.6473 109.266 59.6459 109.28 59.6476H109.353V59.5723C109.353 59.4915 109.308 59.4628 109.268 59.4628C109.255 59.4629 109.242 59.4658 109.23 59.4713C109.187 59.4713 109.107 59.4928 109.107 59.5729ZM113.274 59.3116C113.261 59.3159 113.247 59.3188 113.233 59.3202C113.223 59.3283 113.212 59.3348 113.2 59.3391C113.171 59.3526 113.133 59.3691 113.133 59.4218V59.4713H113.183C113.3 59.4927 113.415 59.5245 113.527 59.5662C113.587 59.5852 113.643 59.606 113.701 59.6225H113.751C113.799 59.5974 113.85 59.5723 113.85 59.497C113.796 59.3691 113.651 59.3471 113.51 59.3263C113.458 59.3192 113.407 59.309 113.356 59.2957C113.328 59.2969 113.301 59.3023 113.274 59.3116ZM111.281 59.3728C111.286 59.4005 111.297 59.4265 111.314 59.4484C111.332 59.4704 111.354 59.4875 111.38 59.4983H111.43C111.446 59.4964 111.462 59.4925 111.478 59.4866C111.494 59.4802 111.51 59.4759 111.528 59.4738H111.601L111.552 59.4242C111.553 59.4044 111.55 59.3847 111.543 59.3662C111.536 59.3478 111.525 59.3308 111.512 59.3165C111.498 59.3025 111.481 59.2915 111.462 59.2842C111.444 59.2768 111.424 59.2732 111.404 59.2736C111.362 59.2712 111.281 59.292 111.281 59.3716V59.3728ZM112.961 58.593C112.959 58.6102 112.955 58.6271 112.948 58.6432C112.942 58.6594 112.937 58.6765 112.936 58.694C112.934 58.7076 112.935 58.7214 112.94 58.7344C112.944 58.7475 112.951 58.7594 112.96 58.7693L112.985 58.7944H113.034C113.135 58.7901 113.234 58.7732 113.331 58.7442H113.355L113.38 58.7191C113.387 58.7056 113.393 58.694 113.399 58.6836C113.417 58.657 113.428 58.6255 113.429 58.593C113.429 58.4938 113.332 58.4675 113.281 58.4675C113.259 58.4774 113.237 58.485 113.213 58.4901C113.167 58.4997 113.123 58.5175 113.083 58.5428V58.5177C113.077 58.5 113.068 58.4839 113.055 58.4708C113.042 58.4577 113.026 58.448 113.009 58.4424L112.982 58.451C112.925 58.4657 112.874 58.4977 112.836 58.5428C112.845 58.5626 112.859 58.5797 112.876 58.5928C112.893 58.606 112.914 58.6146 112.935 58.6181V58.5452L112.961 58.593ZM112.516 58.4926C112.512 58.519 112.517 58.5459 112.531 58.5687C112.544 58.5916 112.565 58.609 112.59 58.6181L112.614 58.6426H112.639C112.649 58.6332 112.661 58.6262 112.673 58.622C112.686 58.6177 112.7 58.6164 112.713 58.6181H112.763V58.5428C112.763 58.443 112.666 58.4173 112.614 58.4173C112.563 58.4173 112.516 58.44 112.516 58.4914V58.4926ZM188.085 70.6471C188.094 70.3855 188.154 70.1283 188.261 69.8905C188.369 69.6527 188.521 69.4388 188.71 69.2614C188.899 69.0839 189.121 68.9463 189.362 68.8566C189.604 68.7668 189.861 68.7267 190.118 68.7385C190.678 68.7343 191.219 68.9518 191.625 69.3451L191.117 69.8446L190.976 69.7552L190.994 69.7375C191.115 69.5949 190.994 69.4516 190.924 69.3806C190.816 69.2873 190.69 69.2172 190.555 69.1743C190.419 69.1314 190.277 69.1166 190.136 69.1309C189.936 69.12 189.737 69.1525 189.551 69.2263C189.365 69.3001 189.197 69.4133 189.058 69.5586C188.918 69.7039 188.811 69.8777 188.743 70.0686C188.675 70.2595 188.647 70.4629 188.663 70.6654C188.678 71.1825 188.889 71.6736 189.252 72.036C189.614 72.3984 190.101 72.6041 190.609 72.6101C191.047 72.6101 191.188 72.4313 191.24 72.1999H191.398V72.8959C191.169 72.9554 190.933 72.9854 190.697 72.9853C190.374 73.0088 190.05 72.9668 189.743 72.8617C189.436 72.7565 189.153 72.5903 188.91 72.3727C188.667 72.1551 188.469 71.8905 188.327 71.5942C188.185 71.298 188.103 70.976 188.085 70.6471ZM167.241 72.8953V72.0745H167.417C167.414 72.1221 167.421 72.1697 167.438 72.2143C167.454 72.2589 167.48 72.2994 167.513 72.3331C167.546 72.3669 167.586 72.3931 167.63 72.41C167.674 72.4269 167.721 72.4342 167.768 72.4313C168.068 72.4313 168.364 72.1253 168.521 71.7715L167.119 69.1847C167.031 69.006 166.999 68.9344 166.838 68.9344V68.7906H167.82V68.9693H167.785C167.715 68.9693 167.575 68.987 167.665 69.1652L168.769 71.2524L169.505 69.2723C169.535 69.2171 169.553 69.1562 169.557 69.0935C169.556 69.0615 169.543 69.0312 169.521 69.0085C169.498 68.9858 169.469 68.9725 169.437 68.9711H169.367V68.8273H170.273V68.9699C170.168 68.9699 170.028 69.006 169.905 69.2913L168.976 71.7531C168.846 72.2324 168.546 72.6457 168.134 72.913C168.006 72.9641 167.869 72.9885 167.731 72.9847C167.564 72.9839 167.398 72.9537 167.241 72.8953ZM144.452 72.6468V71.8602H144.628L144.645 72.0384C144.663 72.2703 144.925 72.4491 145.136 72.5207C145.31 72.5799 145.494 72.604 145.677 72.5917C145.902 72.6206 146.131 72.586 146.338 72.4917C146.545 72.3973 146.723 72.2469 146.852 72.0567C146.936 71.9111 146.978 71.744 146.972 71.575C146.964 71.4497 146.928 71.3279 146.867 71.2188C146.639 70.8974 146.236 70.8619 145.763 70.8619H145.447V70.4689H145.763C145.948 70.4957 146.137 70.4736 146.312 70.405C146.487 70.3363 146.642 70.2233 146.762 70.0766C146.811 70.0032 146.835 69.9156 146.831 69.8268C146.825 69.734 146.801 69.6433 146.762 69.5594C146.679 69.3908 146.534 69.2624 146.358 69.2025C146.176 69.1004 145.968 69.0577 145.762 69.0801C145.567 69.0587 145.371 69.1016 145.202 69.2025C144.833 69.3812 144.886 69.5594 144.901 69.6842L144.918 69.7381L144.761 69.7913L144.515 69.0421C144.767 68.9074 145.04 68.817 145.321 68.7746C145.489 68.7454 145.659 68.7333 145.829 68.7385C146.023 68.7385 146.217 68.7563 146.408 68.7918C146.645 68.8215 146.864 68.9366 147.025 69.1162C147.185 69.2959 147.278 69.5282 147.285 69.7711C147.272 69.9851 147.186 70.1876 147.042 70.344C146.898 70.5004 146.705 70.6009 146.496 70.6281C146.659 70.6294 146.82 70.6687 146.966 70.7429C147.112 70.8172 147.239 70.9245 147.338 71.0565C147.426 71.1949 147.475 71.3556 147.478 71.5205C147.48 71.7563 147.426 71.989 147.32 72.1987C147.151 72.5142 146.868 72.7507 146.531 72.8586C146.271 72.9427 145.998 72.984 145.725 72.981C145.278 72.9943 144.837 72.8784 144.452 72.6468ZM136.967 72.8971V72.0745H137.142C137.139 72.1221 137.147 72.1697 137.163 72.2143C137.18 72.2589 137.206 72.2994 137.239 72.3331C137.272 72.3669 137.312 72.3931 137.355 72.41C137.399 72.4269 137.446 72.4342 137.493 72.4313C137.794 72.4313 138.089 72.1253 138.247 71.7715L136.845 69.1847C136.757 69.006 136.724 68.9344 136.564 68.9344V68.7906H137.546V68.9693H137.51C137.441 68.9693 137.3 68.987 137.39 69.1652L138.494 71.2524L139.248 69.2723C139.277 69.218 139.294 69.1582 139.299 69.0966C139.298 69.0646 139.284 69.0343 139.262 69.0117C139.24 68.989 139.21 68.9757 139.179 68.9742H139.108V68.8273H140.02V68.9699C139.915 68.9699 139.775 69.006 139.652 69.2913L138.702 71.7531C138.572 72.2324 138.272 72.6457 137.86 72.913C137.732 72.9641 137.595 72.9885 137.457 72.9847C137.289 72.9841 137.123 72.9538 136.966 72.8953L136.967 72.8971ZM203.704 72.9149V72.7692C203.861 72.7103 203.991 72.5963 204.073 72.4478L205.054 70.9855C204.847 70.9756 204.646 70.9132 204.468 70.8041C204.291 70.6949 204.143 70.5425 204.038 70.3606C203.966 70.2044 203.93 70.0336 203.932 69.8611C203.93 69.6399 204.004 69.425 204.143 69.2545C204.277 69.1047 204.443 68.9882 204.628 68.9139C204.814 68.8396 205.013 68.8096 205.212 68.8261H207V68.9485C206.972 68.9459 206.943 68.9496 206.917 68.9594C206.89 68.9692 206.866 68.9848 206.846 69.0052C206.826 69.0256 206.81 69.0502 206.8 69.0773C206.791 69.1044 206.787 69.1334 206.789 69.1621V72.5342C206.787 72.5629 206.791 72.592 206.8 72.6192C206.81 72.6463 206.825 72.671 206.845 72.6915C206.866 72.7119 206.89 72.7276 206.916 72.7375C206.943 72.7473 206.972 72.751 207 72.7484V72.891H206.053V72.7484C206.081 72.7495 206.109 72.7447 206.135 72.7344C206.161 72.724 206.184 72.7083 206.204 72.6881C206.224 72.668 206.239 72.6439 206.249 72.6174C206.26 72.5909 206.264 72.5626 206.263 72.5342V71.0394H205.578L204.333 72.9124L203.704 72.9149ZM204.529 69.9358C204.529 70.6495 205.229 70.6703 205.597 70.6703H206.264V69.2074H205.352C205.036 69.2019 204.528 69.238 204.528 69.9333L204.529 69.9358ZM193.222 72.9149V72.7692C193.25 72.7718 193.278 72.7681 193.305 72.7583C193.332 72.7485 193.356 72.7329 193.376 72.7125C193.396 72.6921 193.411 72.6675 193.421 72.6403C193.43 72.6132 193.434 72.5843 193.432 72.5556V69.219H192.52C192.429 69.207 192.337 69.226 192.258 69.2729C192.222 69.303 192.193 69.3414 192.175 69.3848C192.157 69.4282 192.149 69.4754 192.152 69.5226H191.976V68.8273H195.413V69.5251H195.238C195.241 69.478 195.233 69.4308 195.214 69.3874C195.196 69.344 195.168 69.3056 195.132 69.2753C195.052 69.2302 194.961 69.2114 194.87 69.2215H193.958V72.558C193.955 72.5868 193.959 72.6157 193.969 72.6428C193.978 72.6699 193.994 72.6946 194.014 72.7149C194.034 72.7353 194.058 72.7509 194.085 72.7607C194.112 72.7705 194.14 72.7743 194.168 72.7716V72.9143L193.222 72.9149ZM171.625 72.9149V72.7692C171.653 72.7718 171.681 72.7681 171.708 72.7583C171.734 72.7485 171.759 72.7329 171.779 72.7125C171.799 72.6921 171.814 72.6675 171.824 72.6403C171.833 72.6132 171.837 72.5843 171.834 72.5556V69.219H170.923C170.832 69.207 170.74 69.226 170.66 69.2729C170.625 69.303 170.596 69.3414 170.578 69.3848C170.56 69.4282 170.552 69.4754 170.555 69.5226H170.379V68.8273H173.815V69.5251H173.641C173.644 69.478 173.636 69.4308 173.618 69.3874C173.6 69.344 173.572 69.3056 173.536 69.2753C173.457 69.2285 173.364 69.2095 173.273 69.2215H172.36V72.558C172.358 72.5868 172.361 72.6158 172.371 72.643C172.381 72.6701 172.396 72.6948 172.416 72.7152C172.436 72.7356 172.46 72.7512 172.487 72.761C172.514 72.7707 172.542 72.7744 172.571 72.7716V72.9143L171.625 72.9149ZM165.349 72.9149V72.7692C165.377 72.7718 165.405 72.7681 165.432 72.7583C165.458 72.7485 165.483 72.7329 165.503 72.7125C165.523 72.6921 165.538 72.6675 165.548 72.6403C165.557 72.6132 165.561 72.5843 165.558 72.5556V69.219H163.666V72.5556C163.663 72.5843 163.667 72.6132 163.676 72.6403C163.686 72.6675 163.701 72.6921 163.721 72.7125C163.741 72.7329 163.766 72.7485 163.792 72.7583C163.819 72.7681 163.847 72.7718 163.876 72.7692V72.9118H162.929V72.7692C162.957 72.7719 162.986 72.7683 163.012 72.7585C163.039 72.7488 163.063 72.7331 163.084 72.7127C163.104 72.6923 163.119 72.6677 163.129 72.6405C163.138 72.6133 163.142 72.5843 163.139 72.5556V69.1841C163.142 69.1553 163.138 69.1263 163.129 69.0991C163.119 69.0719 163.104 69.0473 163.084 69.0268C163.063 69.0064 163.039 68.9907 163.012 68.9808C162.986 68.971 162.957 68.9673 162.929 68.9699V68.8273H166.297V68.9699C166.269 68.9688 166.241 68.9736 166.215 68.9839C166.189 68.9943 166.165 69.01 166.146 69.0302C166.126 69.0503 166.11 69.0743 166.1 69.1008C166.09 69.1273 166.085 69.1557 166.087 69.1841V72.5562C166.084 72.585 166.088 72.614 166.097 72.6411C166.107 72.6683 166.122 72.6929 166.142 72.7133C166.163 72.7337 166.187 72.7494 166.214 72.7591C166.24 72.7689 166.269 72.7725 166.297 72.7698V72.9124L165.349 72.9149ZM151.832 72.9149V72.7692C151.86 72.7703 151.888 72.7656 151.914 72.7552C151.94 72.7449 151.964 72.7292 151.983 72.7091C152.003 72.6891 152.019 72.6651 152.029 72.6387C152.039 72.6123 152.044 72.584 152.043 72.5556V69.1841C152.045 69.1553 152.042 69.1263 152.032 69.0991C152.022 69.0719 152.007 69.0473 151.987 69.0268C151.967 69.0064 151.943 68.9907 151.916 68.9808C151.889 68.971 151.861 68.9673 151.832 68.9699V68.8273H152.779V68.9699C152.751 68.9672 152.722 68.971 152.696 68.9808C152.669 68.9907 152.645 69.0064 152.625 69.0268C152.605 69.0473 152.589 69.072 152.58 69.0992C152.57 69.1264 152.566 69.1554 152.569 69.1841V72.5562C152.567 72.5849 152.57 72.6138 152.58 72.641C152.589 72.6681 152.605 72.6927 152.625 72.7131C152.645 72.7335 152.669 72.7491 152.696 72.7589C152.722 72.7687 152.751 72.7724 152.779 72.7698V72.9124L151.832 72.9149ZM133.373 72.9149V72.7692C133.401 72.7718 133.43 72.7681 133.456 72.7583C133.483 72.7485 133.507 72.7329 133.527 72.7125C133.547 72.6921 133.563 72.6675 133.573 72.6404C133.582 72.6133 133.586 72.5843 133.584 72.5556V69.1841C133.584 69.0231 133.478 68.9699 133.356 68.9699V68.8273H134.81C136.161 68.8273 136.335 69.5055 136.335 69.8801C136.335 70.8252 135.195 71.2879 134.11 71.6637V72.5562C134.107 72.5849 134.111 72.6138 134.12 72.641C134.13 72.6681 134.146 72.6927 134.166 72.7131C134.186 72.7335 134.21 72.7491 134.236 72.7589C134.263 72.7687 134.291 72.7724 134.32 72.7698V72.9124L133.373 72.9149ZM134.095 71.2738C135.182 70.9678 135.796 70.4169 135.796 69.9174C135.796 69.2931 135.182 69.2398 134.709 69.2398H134.092L134.095 71.2738ZM132.114 72.9149L130.922 70.7725C130.656 70.8796 130.38 70.9574 130.098 71.0045V72.5568C130.095 72.5855 130.099 72.6145 130.109 72.6416C130.118 72.6687 130.134 72.6933 130.154 72.7137C130.174 72.7341 130.198 72.7497 130.225 72.7595C130.251 72.7693 130.28 72.773 130.308 72.7704V72.913H129.358V72.7692C129.387 72.7718 129.415 72.7681 129.442 72.7583C129.468 72.7485 129.493 72.7329 129.513 72.7125C129.533 72.6921 129.548 72.6675 129.558 72.6404C129.568 72.6133 129.571 72.5843 129.569 72.5556V69.1841C129.572 69.1553 129.568 69.1263 129.558 69.0991C129.549 69.0719 129.533 69.0473 129.513 69.0268C129.493 69.0064 129.469 68.9907 129.442 68.9808C129.415 68.971 129.387 68.9673 129.358 68.9699V68.8273H130.305V68.9699C130.277 68.9688 130.249 68.9736 130.223 68.9839C130.197 68.9943 130.174 69.01 130.154 69.0302C130.134 69.0503 130.119 69.0743 130.108 69.1008C130.098 69.1273 130.093 69.1557 130.095 69.1841V70.6109C130.652 70.536 131.179 70.3089 131.62 69.9535C131.847 69.7691 132.002 69.5089 132.058 69.219C132.058 69.0409 132.005 68.987 131.9 68.9693H131.848V68.8273H132.549C132.551 69.2328 132.421 69.6277 132.181 69.9511C131.978 70.2011 131.727 70.4073 131.445 70.5577L132.497 72.4491C132.536 72.5367 132.597 72.6124 132.674 72.6687C132.751 72.7251 132.841 72.7601 132.935 72.7704V72.913L132.114 72.9149ZM202.339 72.8971V72.7545C202.368 72.7571 202.396 72.7534 202.423 72.7436C202.45 72.7337 202.474 72.718 202.494 72.6976C202.514 72.6772 202.53 72.6525 202.539 72.6253C202.549 72.5981 202.553 72.5691 202.55 72.5403V70.147L200.586 71.7715V72.5384C200.583 72.5672 200.587 72.5962 200.596 72.6234C200.606 72.6506 200.621 72.6753 200.641 72.6958C200.661 72.7162 200.685 72.7319 200.712 72.7418C200.739 72.7516 200.767 72.7553 200.796 72.7527V72.8953H199.849V72.7527C199.878 72.7553 199.906 72.7516 199.933 72.7418C199.96 72.7319 199.984 72.7162 200.004 72.6958C200.024 72.6753 200.039 72.6506 200.049 72.6234C200.058 72.5962 200.062 72.5672 200.059 72.5384V69.1658C200.062 69.1371 200.058 69.1081 200.049 69.081C200.039 69.0539 200.024 69.0293 200.004 69.0089C199.984 68.9885 199.959 68.9728 199.933 68.963C199.906 68.9532 199.878 68.9495 199.849 68.9521V68.8095H200.796V68.9521C200.768 68.9511 200.74 68.9559 200.714 68.9663C200.688 68.9767 200.665 68.9924 200.645 69.0124C200.625 69.0325 200.61 69.0564 200.6 69.0828C200.589 69.1092 200.585 69.1374 200.586 69.1658V71.2891L202.549 69.6659V69.1664C202.551 69.1376 202.548 69.1087 202.538 69.0816C202.528 69.0545 202.513 69.0299 202.493 69.0095C202.473 68.9891 202.448 68.9735 202.422 68.9637C202.395 68.9539 202.366 68.9501 202.338 68.9528V68.8101H203.285V68.9528C203.257 68.9501 203.228 68.9539 203.202 68.9637C203.175 68.9735 203.151 68.9891 203.131 69.0095C203.11 69.0299 203.095 69.0545 203.085 69.0816C203.076 69.1087 203.072 69.1376 203.074 69.1664V72.5384C203.072 72.5672 203.075 72.5963 203.085 72.6234C203.095 72.6506 203.11 72.6753 203.13 72.6958C203.15 72.7162 203.175 72.7319 203.201 72.7417C203.228 72.7516 203.257 72.7553 203.285 72.7527V72.8953L202.339 72.8971ZM195.854 72.8971V72.7545C196.063 72.7361 196.063 72.5935 196.063 72.5042V69.1682C196.066 69.1395 196.062 69.1106 196.053 69.0835C196.043 69.0563 196.028 69.0317 196.008 69.0113C195.988 68.9909 195.963 68.9753 195.937 68.9655C195.91 68.9557 195.882 68.952 195.854 68.9546V68.812H197.466V68.8297C197.906 68.7737 198.35 68.8884 198.711 69.1511C198.791 69.2263 198.856 69.3172 198.901 69.4183C198.946 69.5195 198.971 69.6289 198.973 69.7399C198.977 69.8685 198.953 69.9963 198.903 70.1145C198.843 70.238 198.756 70.3466 198.65 70.4328C198.544 70.5189 198.421 70.5805 198.289 70.6134V70.6317C198.553 70.6652 198.797 70.793 198.977 70.9924C199.157 71.1917 199.261 71.4496 199.272 71.7201C199.271 71.9374 199.207 72.1497 199.089 72.3305C198.97 72.5112 198.802 72.6525 198.605 72.7368C198.309 72.8535 197.994 72.9083 197.676 72.8977L195.854 72.8971ZM196.572 72.5225H197.414C197.817 72.5225 198.728 72.5403 198.728 71.7194C198.728 70.8809 197.886 70.8099 197.414 70.8099H196.572V72.5225ZM196.572 70.4353H197.518C197.676 70.4353 198.43 70.4353 198.43 69.8287C198.43 69.2931 197.889 69.2215 197.518 69.2215H196.572V70.4353ZM184.227 72.8953V72.7527C184.255 72.7553 184.283 72.7516 184.31 72.7417C184.337 72.7319 184.361 72.7162 184.381 72.6958C184.401 72.6753 184.417 72.6506 184.426 72.6234C184.436 72.5963 184.44 72.5672 184.437 72.5384V69.1658C184.44 69.137 184.436 69.1081 184.426 69.081C184.416 69.0538 184.401 69.0292 184.381 69.0089C184.361 68.9885 184.337 68.9728 184.31 68.963C184.283 68.9532 184.255 68.9495 184.227 68.9521V68.8095H187.504V69.5055H187.329C187.259 69.1994 187.048 69.2196 186.891 69.2196H184.962V70.4151H186.277C186.487 70.4151 186.645 70.4151 186.698 70.2014H186.873V71.0039H186.697C186.645 70.7897 186.469 70.7897 186.276 70.7897H184.961V72.5035H186.925C187.275 72.5035 187.503 72.4503 187.521 72.1644H187.696V72.899L184.227 72.8953ZM178.196 72.8953V72.7527C178.224 72.7538 178.252 72.749 178.278 72.7386C178.304 72.7283 178.327 72.7125 178.347 72.6924C178.367 72.6723 178.382 72.6482 178.393 72.6217C178.403 72.5952 178.407 72.5669 178.406 72.5384V69.1658C178.409 69.137 178.405 69.1081 178.395 69.081C178.386 69.0538 178.37 69.0292 178.35 69.0089C178.33 68.9885 178.306 68.9728 178.279 68.963C178.253 68.9532 178.224 68.9495 178.196 68.9521V68.8095H179.125V68.9521H179.143C179.114 68.9495 179.086 68.9532 179.059 68.963C179.033 68.9728 179.008 68.9885 178.988 69.0089C178.968 69.0293 178.953 69.0539 178.943 69.081C178.934 69.1081 178.93 69.1371 178.933 69.1658V72.5017H180.597V69.1658C180.6 69.1371 180.596 69.1081 180.587 69.081C180.577 69.0539 180.562 69.0293 180.542 69.0089C180.522 68.9885 180.497 68.9728 180.471 68.963C180.444 68.9532 180.416 68.9495 180.388 68.9521V68.8095H181.334V68.9521C181.305 68.9495 181.277 68.9532 181.25 68.963C181.224 68.9728 181.199 68.9885 181.179 69.0089C181.159 69.0293 181.144 69.0539 181.134 69.081C181.125 69.1081 181.121 69.1371 181.124 69.1658V72.5017H182.788V69.1658C182.791 69.1371 182.787 69.1081 182.778 69.081C182.768 69.0539 182.753 69.0293 182.733 69.0089C182.713 68.9885 182.688 68.9728 182.662 68.963C182.635 68.9532 182.607 68.9495 182.579 68.9521V68.8095H183.525V68.9521C183.497 68.9495 183.469 68.9532 183.442 68.963C183.415 68.9728 183.391 68.9885 183.371 69.0089C183.351 69.0292 183.335 69.0538 183.326 69.081C183.316 69.1081 183.312 69.137 183.315 69.1658V72.5378C183.312 72.5666 183.316 72.5956 183.325 72.6228C183.335 72.65 183.351 72.6747 183.371 72.6952C183.391 72.7156 183.415 72.7313 183.442 72.7411C183.468 72.751 183.497 72.7547 183.525 72.7521V72.8947L178.196 72.8953ZM174.269 72.8953V72.7527C174.297 72.7553 174.326 72.7516 174.353 72.7418C174.379 72.7319 174.403 72.7162 174.424 72.6958C174.444 72.6753 174.459 72.6506 174.468 72.6234C174.478 72.5962 174.482 72.5672 174.479 72.5384V69.1658C174.482 69.1371 174.478 69.1081 174.468 69.081C174.459 69.0539 174.443 69.0293 174.423 69.0089C174.403 68.9885 174.379 68.9728 174.352 68.963C174.326 68.9532 174.297 68.9495 174.269 68.9521V68.8095H177.53V69.5055H177.354C177.284 69.1994 177.074 69.2196 176.916 69.2196H174.988V70.4151H176.303C176.512 70.4151 176.671 70.4151 176.724 70.2014H176.899V71.0039H176.724C176.671 70.7897 176.496 70.7897 176.303 70.7897H174.988V72.5035H176.968C177.319 72.5035 177.547 72.4503 177.564 72.1644H177.74V72.899L174.269 72.8953ZM158.632 72.8953V72.7527C158.66 72.7553 158.688 72.7516 158.715 72.7417C158.742 72.7319 158.766 72.7162 158.786 72.6958C158.806 72.6753 158.822 72.6506 158.831 72.6234C158.841 72.5963 158.845 72.5672 158.842 72.5384V70.147L156.878 71.7709V72.5378C156.876 72.5666 156.88 72.5956 156.889 72.6228C156.899 72.65 156.914 72.6747 156.934 72.6952C156.954 72.7156 156.979 72.7313 157.005 72.7411C157.032 72.751 157.061 72.7547 157.089 72.7521V72.8947H156.142V72.7521C156.171 72.7547 156.199 72.751 156.226 72.7411C156.253 72.7313 156.277 72.7156 156.297 72.6952C156.317 72.6747 156.332 72.65 156.342 72.6228C156.352 72.5956 156.355 72.5666 156.353 72.5378V69.1658C156.355 69.137 156.352 69.1081 156.342 69.081C156.332 69.0538 156.317 69.0292 156.297 69.0089C156.277 68.9885 156.252 68.9728 156.226 68.963C156.199 68.9532 156.171 68.9495 156.142 68.9521V68.8095H157.089V68.9521C157.061 68.9495 157.032 68.9532 157.006 68.963C156.979 68.9728 156.955 68.9885 156.935 69.0089C156.915 69.0292 156.899 69.0538 156.889 69.081C156.88 69.1081 156.876 69.137 156.878 69.1658V71.2891L158.846 69.6659V69.1664C158.848 69.1376 158.845 69.1087 158.835 69.0816C158.825 69.0545 158.81 69.0299 158.79 69.0095C158.77 68.9891 158.745 68.9735 158.719 68.9637C158.692 68.9539 158.664 68.9501 158.635 68.9528V68.8101H159.582V68.9528H159.564C159.536 68.9501 159.507 68.9538 159.481 68.9636C159.454 68.9734 159.43 68.9891 159.41 69.0095C159.39 69.0299 159.374 69.0545 159.365 69.0816C159.355 69.1087 159.351 69.1377 159.354 69.1664V72.5384C159.351 72.5672 159.355 72.5962 159.364 72.6234C159.374 72.6506 159.389 72.6753 159.409 72.6958C159.43 72.7162 159.454 72.7319 159.48 72.7418C159.507 72.7516 159.536 72.7553 159.564 72.7527V72.8953H158.632ZM142.855 72.8953V72.7527C142.883 72.7553 142.912 72.7516 142.938 72.7417C142.965 72.7319 142.989 72.7162 143.009 72.6958C143.029 72.6753 143.045 72.6506 143.054 72.6234C143.064 72.5963 143.068 72.5672 143.065 72.5384V70.147L141.103 71.7715V72.5384C141.101 72.5672 141.104 72.5963 141.114 72.6234C141.124 72.6506 141.139 72.6753 141.159 72.6958C141.179 72.7162 141.204 72.7319 141.23 72.7417C141.257 72.7516 141.286 72.7553 141.314 72.7527V72.8953H140.367V72.7527C140.395 72.7538 140.423 72.749 140.449 72.7386C140.475 72.7283 140.499 72.7125 140.518 72.6924C140.538 72.6723 140.554 72.6482 140.564 72.6217C140.574 72.5952 140.579 72.5669 140.578 72.5384V69.1658C140.58 69.137 140.576 69.1081 140.567 69.081C140.557 69.0538 140.542 69.0292 140.521 69.0089C140.501 68.9885 140.477 68.9728 140.451 68.963C140.424 68.9532 140.395 68.9495 140.367 68.9521V68.8095H141.314V68.9521C141.286 68.9495 141.257 68.9532 141.23 68.963C141.204 68.9728 141.18 68.9885 141.159 69.0089C141.139 69.0292 141.124 69.0538 141.114 69.081C141.105 69.1081 141.101 69.137 141.103 69.1658V71.2891L143.067 69.6659V69.1664C143.07 69.1376 143.066 69.1087 143.056 69.0816C143.046 69.0545 143.031 69.0299 143.011 69.0095C142.991 68.9891 142.967 68.9735 142.94 68.9637C142.913 68.9539 142.885 68.9501 142.857 68.9528V68.8101H143.803V68.9528H143.785C143.757 68.9501 143.728 68.9538 143.702 68.9636C143.675 68.9734 143.651 68.9891 143.631 69.0095C143.611 69.0299 143.596 69.0545 143.586 69.0816C143.576 69.1087 143.573 69.1377 143.575 69.1664V72.5384C143.573 72.5672 143.576 72.5962 143.586 72.6234C143.595 72.6506 143.611 72.6753 143.631 72.6958C143.651 72.7162 143.675 72.7319 143.702 72.7418C143.728 72.7516 143.757 72.7553 143.785 72.7527V72.8953H142.855ZM149.902 72.8592H148.063V72.7166C148.091 72.7192 148.12 72.7155 148.147 72.7056C148.173 72.6958 148.198 72.6801 148.218 72.6596C148.238 72.6392 148.253 72.6145 148.263 72.5873C148.273 72.5601 148.276 72.5311 148.274 72.5023V69.1303C148.276 69.1015 148.273 69.0725 148.263 69.0453C148.253 69.0182 148.238 68.9935 148.218 68.9731C148.198 68.9527 148.173 68.9371 148.147 68.9273C148.12 68.9176 148.091 68.9139 148.063 68.9166V68.774H149.01V68.9528H149.028C149 68.9501 148.971 68.9539 148.945 68.9637C148.918 68.9735 148.894 68.9891 148.874 69.0095C148.853 69.0299 148.838 69.0545 148.828 69.0816C148.819 69.1087 148.815 69.1376 148.817 69.1664V70.2547C149.211 70.2456 149.604 70.2755 149.992 70.3441C150.278 70.3784 150.551 70.4822 150.789 70.6467C151.027 70.8112 151.222 71.0316 151.359 71.2891C151.423 71.4535 151.453 71.6296 151.447 71.8064C151.448 72.0018 151.393 72.1934 151.289 72.3573C151.139 72.5517 150.94 72.701 150.714 72.789C150.487 72.877 150.241 72.9004 150.002 72.8567L149.902 72.8592ZM148.832 72.5207H149.919C150.089 72.5494 150.263 72.5256 150.42 72.4523C150.576 72.3791 150.707 72.2599 150.796 72.11C150.849 72.0112 150.879 71.9012 150.884 71.7886C150.877 71.6209 150.823 71.4587 150.731 71.3201C150.638 71.1814 150.508 71.0719 150.358 71.0039C149.98 70.7977 149.559 70.6874 149.131 70.6826L148.83 70.6648L148.832 72.5207ZM148.832 72.5207H148.815H148.832ZM194.137 65.4356C193.464 64.5548 192.527 64.5548 191.565 64.5548H190.074C189.617 64.5548 188.224 64.5548 187.718 65.6805C187.598 65.9002 187.551 66.194 187.214 66.194C187.112 66.1931 187.015 66.1516 186.943 66.0784C186.871 66.0053 186.83 65.9064 186.829 65.8029C186.829 65.5091 186.901 65.4846 186.901 64.7507C186.901 64.1386 186.854 63.8938 186.854 63.5767C186.854 63.3074 186.901 63.2829 187.214 63.0387C187.503 62.8673 187.647 62.6959 187.863 61.7912C188.425 58.921 188.747 56.0076 188.826 53.0822C188.826 51.2723 188.465 51.4186 188.465 50.7563C188.465 50.3162 188.873 50.3651 189.162 50.3651C189.691 50.3651 190.917 50.4625 191.541 50.4625C192.887 50.4625 193.32 50.34 193.873 50.34C194.114 50.34 194.618 50.3156 194.618 50.7808C194.567 51.029 194.502 51.2742 194.425 51.5153C194.319 52.0469 194.263 52.5875 194.257 53.13V61.3988C194.257 61.8885 194.329 62.8177 194.714 63.0625C194.858 63.1605 195.242 63.2094 195.242 63.6746C195.222 63.8481 195.19 64.0199 195.146 64.1888C195.126 64.3592 195.118 64.5308 195.122 64.7023C195.143 65.0715 195.183 65.4393 195.242 65.8041C195.246 65.8577 195.239 65.9115 195.221 65.9621C195.204 66.0127 195.176 66.059 195.14 66.0981C195.103 66.1372 195.06 66.1682 195.011 66.1893C194.963 66.2103 194.91 66.2209 194.858 66.2203C194.476 66.2197 194.379 65.7043 194.139 65.4356H194.137ZM190.769 56.8491C190.576 59.7872 190.288 60.9832 190.288 61.5702C190.288 61.8396 190.36 62.0354 190.961 62.0354C191.803 62.0354 191.706 61.6198 191.706 61.1546V54.5733H191.73C191.73 54.353 191.754 53.8149 191.346 53.8149C190.63 53.8149 190.846 56.0411 190.774 56.8485L190.769 56.8491ZM155.63 65.4356C154.957 64.5548 154.02 64.5548 153.059 64.5548H151.568C151.111 64.5548 149.717 64.5548 149.188 65.6805C149.093 65.9002 149.045 66.194 148.707 66.194C148.603 66.1945 148.502 66.1542 148.426 66.0815C148.35 66.0087 148.304 65.909 148.298 65.8029C148.298 65.5091 148.371 65.4846 148.371 64.7507C148.371 64.1386 148.323 63.8938 148.323 63.5767C148.323 63.3074 148.371 63.2829 148.684 63.0387C148.948 62.8673 149.116 62.6959 149.333 61.7912C149.894 58.921 150.216 56.0076 150.295 53.0822C150.295 51.2723 149.934 51.4186 149.934 50.7563C149.934 50.3162 150.343 50.3651 150.631 50.3651C151.16 50.3651 152.41 50.4625 153.011 50.4625C154.357 50.4625 154.766 50.34 155.342 50.34C155.583 50.34 156.087 50.3156 156.087 50.7808C156.048 51.0317 155.983 51.2778 155.895 51.5153C155.78 52.0461 155.716 52.5868 155.703 53.13V61.3988C155.703 61.8885 155.798 62.8177 156.159 63.0625C156.328 63.1605 156.688 63.2094 156.688 63.6746C156.676 63.8475 156.652 64.0194 156.616 64.1888C156.596 64.3592 156.588 64.5308 156.592 64.7023C156.592 65.3144 156.687 65.5342 156.687 65.8041C156.693 65.8562 156.689 65.9089 156.673 65.9589C156.658 66.009 156.632 66.0551 156.598 66.0944C156.564 66.1337 156.522 66.1652 156.476 66.1869C156.429 66.2086 156.378 66.22 156.326 66.2203C155.944 66.2197 155.824 65.7043 155.63 65.4356ZM152.29 56.8485C152.122 59.7866 151.809 60.9826 151.809 61.5696C151.809 61.8389 151.905 62.0348 152.482 62.0348C153.324 62.0348 153.227 61.6192 153.227 61.154V54.5733C153.227 54.353 153.275 53.8149 152.866 53.8149C152.145 53.8149 152.362 56.0411 152.29 56.8485ZM167.553 62.328C167.619 61.2425 167.932 60.1875 168.467 59.2461C169.332 57.6803 170.174 57.1907 170.174 56.7261C169.87 55.4751 169.477 54.2486 168.996 53.0565C168.107 50.7814 167.819 51.0011 167.819 50.7306C167.819 50.5353 167.963 50.3143 168.54 50.3143C168.685 50.3097 168.83 50.3179 168.973 50.3388C169.237 50.3639 169.55 50.4129 169.815 50.4129C170.04 50.4095 170.265 50.3932 170.488 50.3639C170.704 50.3353 170.92 50.319 171.137 50.3149C171.643 50.3149 171.691 50.6326 171.691 50.853C171.687 51.0413 171.67 51.2292 171.643 51.4155C171.614 51.6019 171.598 51.7901 171.594 51.9786C171.594 52.9323 172.003 53.6925 172.243 53.6925C172.507 53.6925 172.845 52.7132 172.845 52.2492C172.836 51.889 172.689 51.5467 172.436 51.2949C172.316 51.1486 172.1 50.9772 172.1 50.7324C172.1 50.3407 172.556 50.3162 172.773 50.3162C173.254 50.3162 173.615 50.4141 173.927 50.4141C174.335 50.4141 174.696 50.3162 174.96 50.3162C175.465 50.3162 175.802 50.61 175.802 51.7852C175.731 53.0791 175.25 54.3147 174.432 55.3078C173.879 56.0424 173.303 56.5559 173.303 57.2402C173.303 58.0476 174.697 61.3254 174.841 61.6443C175.707 63.6257 176.091 63.8705 176.091 64.2151C176.091 64.4599 175.85 64.5579 175.442 64.5579C174.649 64.5579 175.37 64.4844 173.998 64.4844C173.766 64.4805 173.533 64.4887 173.301 64.5089C173.134 64.5387 172.966 64.555 172.796 64.5579C172.123 64.5579 172.147 64.1178 172.147 64.0437C172.214 63.7049 172.254 63.3613 172.267 63.016C172.267 62.2086 171.546 60.0559 171.042 60.0559C170.825 60.0559 170.393 60.5701 170.393 61.7441C170.357 62.1672 170.437 62.5922 170.623 62.9721C170.81 63.352 171.096 63.672 171.45 63.8968C171.594 63.9703 171.859 64.0431 171.859 64.313C171.859 64.6307 171.137 64.8266 170.706 65.1204C170.177 65.4877 169.816 65.9773 169.456 65.9773C168.924 65.9749 167.553 64.4563 167.553 62.3286V62.328ZM178.202 60.2732V54.6468H178.227C178.227 53.8394 178.227 50.2188 181.568 50.2188C184.621 50.2188 184.885 52.7633 184.885 54.4025V59.931C184.885 61.5696 184.741 64.6766 181.496 64.6766C179.068 64.6766 178.202 62.9646 178.202 60.2738L178.202 60.2732ZM180.75 55.7228V59.7841C180.75 60.7133 180.798 61.7165 181.592 61.7165C182.506 61.7165 182.386 60.4685 182.386 59.6862V55.7963C182.386 55.0618 182.386 53.96 181.52 53.96C180.75 53.9618 180.75 55.063 180.75 55.7235V55.7228ZM158.78 60.2732V54.6468C158.78 53.8394 158.78 50.2188 162.122 50.2188C165.199 50.2188 165.463 52.7633 165.463 54.4025V59.931C165.463 61.5696 165.343 64.6766 162.074 64.6766C159.621 64.6766 158.78 62.9646 158.78 60.2738V60.2732ZM161.306 55.7228V59.7841C161.306 60.7133 161.354 61.7165 162.124 61.7165C163.037 61.7165 162.94 60.4685 162.94 59.6862V55.7963C162.94 55.0618 162.94 53.96 162.076 53.96C161.304 53.9618 161.304 55.063 161.304 55.7235L161.306 55.7228ZM139.72 60.2738V54.6468C139.72 53.8394 139.72 50.2188 143.061 50.2188C146.114 50.2188 146.379 52.7633 146.379 54.4025V59.931C146.379 61.5696 146.258 64.6766 143.01 64.6766C140.562 64.6766 139.72 62.9646 139.72 60.2738ZM142.22 55.7235V59.7847H142.244C142.244 60.7139 142.316 61.7171 143.086 61.7171C143.999 61.7171 143.878 60.4691 143.878 59.6868V55.7963C143.878 55.0618 143.878 53.96 143.013 53.96C142.218 53.9618 142.218 55.063 142.218 55.7235H142.22ZM132.242 64.4563C131.512 64.4568 130.781 64.4976 130.055 64.5787C129.453 64.5787 129.406 64.1625 129.406 63.9666C129.406 62.9395 129.838 63.3545 129.838 59.7101V52.3251C129.838 51.4681 129.814 50.1478 129.766 49.5608C129.694 48.729 129.598 48.4591 129.598 48.0685C129.598 47.4326 130.007 47.3836 130.295 47.3836C130.656 47.3836 131.017 47.4081 131.401 47.4326C131.762 47.4571 132.145 47.4571 132.53 47.4571C133.372 47.4571 133.9 47.3836 134.525 47.3836C135.247 47.3836 137.051 47.8237 137.051 51.9584C137.051 52.9127 136.955 54.2091 136.33 54.992C136.137 55.2368 135.849 55.4817 135.849 55.6769C135.849 55.8973 136.209 56.3374 136.473 56.8026C137.157 58.0138 137.498 59.3937 137.459 60.7898C137.459 62.7485 136.473 64.5818 134.406 64.5818C133.688 64.5002 132.965 64.4583 132.242 64.4563ZM132.795 57.411V60.9832C132.795 61.3009 132.771 61.8634 133.564 61.8634C134.045 61.8634 134.502 61.8389 134.502 60.4201C134.502 58.7564 133.54 56.7995 133.012 56.7995C132.795 56.7995 132.795 57.1907 132.795 57.411ZM132.771 51.6126V52.5185H132.795C132.782 52.6407 132.795 52.7644 132.833 52.8811C132.871 52.9978 132.933 53.1049 133.015 53.1952C133.097 53.2855 133.197 53.3569 133.308 53.4047C133.42 53.4525 133.54 53.4755 133.661 53.4722C134.406 53.4722 134.406 52.4206 134.406 52.0533C134.406 51.099 134.045 50.7814 133.492 50.7814C132.891 50.782 132.772 51.271 132.772 51.6132L132.771 51.6126ZM198.633 64.0382C198.699 63.6957 198.796 63.3601 198.922 63.0356C199.107 62.2423 199.196 61.4289 199.187 60.6135V52.9592H199.211C199.211 52.1519 199.019 51.9315 198.609 51.9315C198.472 51.926 198.337 51.9598 198.217 52.0289C198.098 52.0981 198.001 52.1998 197.936 52.3226C197.84 52.4206 197.672 52.6654 197.408 52.6654C197.263 52.6654 196.951 52.592 196.951 51.9805C196.951 51.4663 197.023 51.3935 197.023 49.9991C197.026 49.3519 196.978 48.7054 196.879 48.0661C196.879 47.4797 197.24 47.3812 198.057 47.3812C198.53 47.3805 199.003 47.4051 199.474 47.4546C199.873 47.5185 200.274 47.5594 200.677 47.577C201.326 47.577 201.807 47.4546 202.191 47.4546C202.552 47.4546 202.576 47.626 202.576 47.7484C202.509 48.1631 202.413 48.5723 202.287 48.9726C202.207 49.4996 202.159 50.0311 202.143 50.5641V53.8694C202.143 53.9918 202.143 54.1381 202.359 54.1381C202.524 54.0958 202.685 54.0386 202.84 53.9673C203.28 53.8073 203.743 53.7246 204.211 53.7225C206.927 53.7225 206.999 56.3154 206.999 57.0982V61.6241C206.999 64.5359 204.112 64.5359 203.393 64.5359C203.008 64.5359 202.671 64.5359 202.287 64.5108C201.831 64.4863 201.349 64.4618 200.894 64.4618C199.427 64.4618 200.533 64.5597 199.187 64.5597C198.923 64.5548 198.634 64.4563 198.634 64.0407L198.633 64.0382ZM202.167 58.4118V60.0504C202.167 61.6161 202.311 61.8604 202.984 61.8604C203.586 61.8604 204.09 61.763 204.09 60.6619V58.2918C204.09 57.7538 204.042 56.9219 203.153 56.9219C202.119 56.9219 202.167 57.8762 202.167 58.4142L202.167 58.4118Z" fill="#949494"/>
</svg>
