<svg width="157" height="49" viewBox="0 0 157 49" fill="none" xmlns="http://www.w3.org/2000/svg"><path d="M62.962 19.75h1.123c.483 0 1.204-.022 1.787-.362.643-.381.823-1.024.823-1.545 0-.421-.14-1.145-.982-1.526-.561-.262-1.226-.262-1.787-.262h-.964v3.695Zm0-5.705h.742c.403 0 2.028-.04 2.028-1.748 0-1.226-.945-1.688-2.01-1.688h-.763v3.436h.003Zm.702-5.564c.742 0 2.19 0 3.272.843.783.602 1.244 1.647 1.244 2.77 0 1.73-1.145 2.432-1.503 2.631.882.14 1.406.521 1.746.843.802.764.964 1.807.964 2.509 0 .783-.221 1.888-1.144 2.712-1.005.883-2.227 1.086-3.394 1.086H60.35V8.485h3.313V8.48Zm14.863 9.059c0-1.366-1.045-2.47-2.449-2.47-1.403 0-2.448 1.104-2.448 2.47 0 1.368 1.023 2.45 2.448 2.45 1.426 0 2.449-1.126 2.449-2.45Zm1.064-3.413c.864.783 1.466 1.988 1.466 3.414 0 1.426-.603 2.612-1.466 3.395-.743.683-1.866 1.227-3.513 1.227-1.647 0-2.77-.544-3.512-1.227-.864-.783-1.466-1.988-1.466-3.395 0-1.408.602-2.63 1.466-3.414.742-.684 1.868-1.227 3.512-1.227s2.77.543 3.513 1.227Zm11.326 7.755H88.47v-6.607h-2.371v3.193c0 .702-.1 1.788-.823 2.571-.181.2-.924.924-2.35.924-.24 0-.483-.019-.723-.081v-2.088c.122.022.262.04.38.04.543 0 .843-.221 1.005-.42.262-.322.303-.765.303-1.106v-5.12h7.027v8.697-.003Zm9.51-4.342c0-1.366-1.045-2.47-2.449-2.47-1.403 0-2.448 1.104-2.448 2.47 0 1.368 1.023 2.45 2.448 2.45 1.426 0 2.449-1.126 2.449-2.45Zm1.063-3.413c.864.783 1.466 1.988 1.466 3.414 0 1.426-.602 2.612-1.466 3.395-.742.683-1.865 1.227-3.512 1.227s-2.77-.544-3.512-1.227C93.602 20.153 93 18.948 93 17.541c0-1.408.602-2.63 1.466-3.414.742-.684 1.865-1.227 3.512-1.227s2.77.543 3.512 1.227Zm3.555-.944h2.449v3.07h3.412v-3.07h2.449v8.697h-2.449v-3.535h-3.412v3.535h-2.449v-8.697Zm15.285 2.088v6.61h-2.449v-6.61h-2.411v-2.087h7.268v2.087h-2.408Zm10.26 1.106c-.199-1.186-1.163-1.748-2.068-1.748-.904 0-1.846.584-2.046 1.748h4.114Zm2.249 3.074c-.262.642-1.244 2.712-4.276 2.712-1.407 0-2.471-.403-3.332-1.227-.963-.905-1.366-2.028-1.366-3.395 0-1.729.702-2.793 1.326-3.414 1.023-1.005 2.227-1.227 3.272-1.227 1.765 0 2.792.702 3.394 1.426.923 1.105 1.044 2.472 1.044 3.415v.2h-6.503c0 .52.14 1.085.421 1.466.262.362.805.824 1.747.824.942 0 1.625-.443 2.027-1.146l2.249.363-.003.003Zm4.932-3.798c-.542.461-.823 1.064-.823 1.869 0 .805.321 1.467.802 1.888.321.28.842.583 1.606.583.802 0 1.326-.321 1.647-.62.521-.484.764-1.205.764-1.848s-.262-1.367-.742-1.829c-.443-.402-1.086-.62-1.666-.62-.642 0-1.145.18-1.584.583m-.584 10.825h-2.448V13.187h2.448v1.124c.381-.543 1.226-1.408 2.832-1.408.765 0 1.987.181 2.97 1.164.642.643 1.304 1.726 1.304 3.455 0 1.969-.864 3.033-1.367 3.514-.661.624-1.665 1.126-2.95 1.126-.602 0-1.828-.1-2.789-1.407v5.729Zm19.695-4.604h-2.448v-8.696h2.448v8.697Zm-7.127-1.928c.262 0 .642-.018.904-.221a.876.876 0 0 0 .322-.702.708.708 0 0 0-.322-.625c-.262-.18-.62-.2-.842-.2h-1.204v1.748h1.145-.003Zm-1.145-6.768v3.092h1.906c.764 0 1.728.222 2.33.883.38.403.661 1.005.661 1.87 0 1.145-.502 1.847-.923 2.209-.643.562-1.366.643-1.946.643h-4.476v-8.697h2.448Zm-87.96 16.321h1.806l2.389 5 2.39-5h1.805l1.588 8.697H68.18l-.72-4.721-2.168 4.721h-.883l-2.17-4.721-.721 4.721h-2.452l1.588-8.697Zm18.226 3.192c-.2-1.186-1.164-1.748-2.068-1.748-.905 0-1.847.584-2.046 1.748h4.114Zm2.249 3.074c-.262.643-1.245 2.712-4.277 2.712-1.407 0-2.47-.403-3.331-1.227-.964-.905-1.366-2.028-1.366-3.395 0-1.729.702-2.793 1.325-3.414 1.023-1.005 2.227-1.226 3.272-1.226 1.766 0 2.792.702 3.394 1.426.923 1.105 1.045 2.471 1.045 3.414v.2h-6.504c0 .52.14 1.085.422 1.466.262.362.804.824 1.746.824s1.626-.443 2.028-1.145l2.249.362-.003.003Zm8.073-4.178h-2.57v1.928c0 1.124-.24 1.97-.964 2.59h3.534v-4.518Zm2.448-2.088v6.61h1.285v4.618h-2.208v-2.53h-5.983v2.53h-2.208v-4.619c.764-.04 1.285-.583 1.547-1.104.24-.521.34-1.205.34-2.228v-3.274h7.227v-.003Zm5.829 0v5.361l4.014-5.361h2.449v8.697h-2.449v-5.364l-4.014 5.364h-2.452v-8.697h2.452Zm11.788 0v3.373l3.25-3.373h3.053l-3.936 3.876 4.136 4.821h-3.132l-3.013-3.595-.358.359v3.236h-2.452v-8.697h2.452Zm10.474 0v5.361l4.018-5.361h2.448v8.697h-2.448v-5.364l-4.018 5.364h-2.449v-8.697h2.449ZM13.739 1.913a3.111 3.111 0 0 0-3.107 3.109 3.11 3.11 0 0 0 3.107 3.106 3.11 3.11 0 0 0 3.107-3.106 3.112 3.112 0 0 0-3.107-3.109ZM8.18 13.686a3.111 3.111 0 0 0-3.106-3.108 3.107 3.107 0 1 0 3.107 3.108Zm37.327 4.362h-14.75c1.649-3.315 2.829-7.343 3.192-12.235A5.417 5.417 0 0 0 28.94.015a5.421 5.421 0 0 0-5.81 4.999c-.529 7.138-3.554 12.303-8.99 15.351-4.34 2.433-8.722 2.702-8.865 2.712a5.417 5.417 0 0 0-5.191 5.612 5.421 5.421 0 0 0 5.418 5.21c.07 0 .137 0 .207-.003.65-.024 6.309-.325 12.487-3.426v14.368A4.166 4.166 0 0 0 22.366 49h4.086a4.166 4.166 0 0 0 4.17-4.162V34.612a4.166 4.166 0 0 1 4.17-4.162h10.712a4.166 4.166 0 0 0 4.17-4.162V22.21a4.166 4.166 0 0 0-4.17-4.162h.003Z" fill="#3D57F2"/></svg>