<svg width="300" height="120" viewBox="0 0 300 120" fill="none" xmlns="http://www.w3.org/2000/svg"><g clip-path="url(#a)" fill="#949494"><path d="m116.732 71.913-3.573-5.996-3.498 5.996h-4.185l5.378-9.03-5.479-8.378h4.373l3.512 5.595 3.346-5.595h4.185l-5.392 8.655 5.54 8.753h-4.207Zm17.751-6.01c0 3.82-2.85 6.185-6.581 6.185-3.289 0-6.059-1.82-6.329-5.821h3.728c.231 1.633 1.524 2.336 2.936 2.336 1.758 0 2.521-1.19 2.521-2.733 0-1.611-1.178-2.615-2.82-2.615a3 3 0 0 0-1.518.317c-.47.238-.87.595-1.162 1.036h-3.584l1.182-10.114h11.198l-.36 3.336h-8.029l-.317 3.333s.839-1 3.389-1c3.069 0 5.764 2.08 5.764 5.751"/><path d="M121.562 52.636c-1.884-7.407-7.853-12.61-20.236-12.61H86.371l2.031 13.861c1.527 12.512 6.264 16.535 14.646 18.016a.239.239 0 0 0 .226-.05.239.239 0 0 0 .069-.1.234.234 0 0 0 .014-.119.272.272 0 0 0-.169-.251c-5.666-2.408-6.31-10.31-7.52-18.241l-.937-6.32h8.536c7.871 0 13.947-.123 17.794 6.01a.31.31 0 0 0 .252.153.258.258 0 0 0 .186-.081.277.277 0 0 0 .074-.192.244.244 0 0 0 0-.076m33.341 10.158s.894 9.644-8.788 9.644c-5.112 0-9.048-3.937-9.048-9.285 0-5.347 3.962-9.284 9.199-9.284 4.041 0 7.258 2.34 8.486 5.941h-2.302a6.705 6.705 0 0 0-2.526-2.891 6.614 6.614 0 0 0-3.683-1.016c-4.024 0-7.003 3.085-7.003 7.302 0 4.085 2.828 7.246 7.003 7.246 3.512 0 6.184-2.259 6.483-5.82h-6.844v-1.82l9.023-.017Zm11-5.039v2.183a8.145 8.145 0 0 0-.897-.051c-2.957 0-5.01 1.931-5.01 5.562v6.625h-2.136V57.98h2.121v3.17c.847-2.115 2.543-3.45 5.043-3.45.291 0 .582.018.872.051m15.409 7.314a7.355 7.355 0 0 1-1.248 4.038 7.237 7.237 0 0 1-3.255 2.662 7.16 7.16 0 0 1-4.17.392 7.211 7.211 0 0 1-3.686-2.01 7.333 7.333 0 0 1-1.964-3.736 7.365 7.365 0 0 1 .418-4.209 7.284 7.284 0 0 1 2.658-3.269 7.177 7.177 0 0 1 4.007-1.232 7.057 7.057 0 0 1 2.801.528 7.11 7.11 0 0 1 2.372 1.595 7.187 7.187 0 0 1 1.563 2.407c.355.9.527 1.865.504 2.834Zm-12.312 0c0 3.114 2.241 5.33 5.072 5.33s5.097-2.216 5.097-5.33-2.27-5.33-5.097-5.33c-2.828 0-5.072 2.183-5.072 5.33Zm26.948-7.082v14.094h-2.133v-2.794a5.382 5.382 0 0 1-2.055 2.296 5.31 5.31 0 0 1-2.966.781c-3.123 0-4.992-1.997-4.992-5.435v-8.942h2.118v8.578c0 2.521 1.178 3.835 3.479 3.835 2.792 0 4.402-2.008 4.402-5.148v-7.276l2.147.01Zm17.316 7.07c0 4.267-2.776 7.349-6.635 7.349a6.01 6.01 0 0 1-3.142-.808 6.094 6.094 0 0 1-2.282-2.328v9.277h-2.135V57.984h2.135v2.91a6.136 6.136 0 0 1 2.286-2.36 6.057 6.057 0 0 1 3.164-.83c3.833 0 6.609 3.06 6.609 7.353v-.004Zm-2.279.004c0-3.09-1.985-5.33-4.816-5.33-2.831 0-5.022 2.215-5.022 5.33 0 3.114 2.162 5.33 5.022 5.33 2.859 0 4.816-2.216 4.816-5.33Z"/></g><defs><clipPath id="a"><path fill="#fff" transform="translate(86 40)" d="M0 0h128v39H0z"/></clipPath></defs></svg>