<svg width="218" height="38" viewBox="0 0 218 38" fill="none" xmlns="http://www.w3.org/2000/svg">
<g clip-path="url(#clip0_341_7099)">
<path d="M112.768 1.67006H119.303V16.4589H121.888V1.67006H128.484V0.866211H112.801L112.768 1.67006Z" fill="white"/>
<path d="M122.06 16.6233H119.133V1.83446H112.591L112.638 0.701172H128.653V1.83446H122.06V16.6233ZM119.472 16.2938H121.721V1.50502H128.314V1.03062H112.963L112.943 1.50502H119.472V16.2938Z" fill="white"/>
<path d="M198.099 12.1991L189.335 0.866211H186.736V16.0767H187.543V2.6551L198.418 16.4589H199.062V0.866211H198.099V12.1991Z" fill="white"/>
<path d="M199.231 16.6233H198.333L198.282 16.5574L187.712 3.13577V16.2411H186.566V0.701172H189.419L189.47 0.767061L197.94 11.7046V0.701172H199.241L199.231 16.6233ZM198.502 16.2938H198.892V1.03062H198.268V12.6897L189.25 1.03062H186.905V15.9117H187.373V2.1705L198.502 16.2938Z" fill="white"/>
<path d="M136.134 0.866211H133.546V16.4589H136.134V0.866211Z" fill="white"/>
<path d="M136.303 16.6233H133.376V0.701172H136.303V16.6233ZM133.715 16.2938H135.964V1.03062H133.715V16.2938Z" fill="white"/>
<path d="M174.817 0.866211L168.126 16.4589H169.291L171.511 10.8583H177.135L178.283 13.5729C178.283 13.5729 178.622 14.4031 179.469 16.3798L179.506 16.4687H182.321L175.464 0.866211H174.817ZM176.809 10.0544H171.788L174.268 4.16396L176.809 10.0544Z" fill="white"/>
<path d="M182.576 16.6233H179.394L179.313 16.4322C178.636 14.785 178.263 13.9515 178.158 13.7044L178.127 13.6253L177.019 11.0128H171.629L169.407 16.6134H167.872L174.692 0.701172H175.576L182.576 16.6233ZM179.621 16.2938H182.064L175.353 1.03062H174.916L168.38 16.2938H169.176L171.396 10.6932H177.246L178.473 13.5891L179.621 16.3037M177.064 10.2221H171.534L174.265 3.73536L177.064 10.2221ZM172.039 9.8927H176.555L174.272 4.58533L172.039 9.8927Z" fill="white"/>
<path d="M216.377 0.866211L211.343 9.32637L206.285 0.866211H203.046L209.236 10.4267V16.4589H211.8V10.2752L217.699 0.866211H216.377Z" fill="white"/>
<path d="M211.97 16.6233H209.066V10.4725L202.741 0.701172H206.383L211.343 8.9999L216.279 0.701172H218L211.97 10.321V16.6233ZM209.405 16.2938H211.631V10.2287L211.655 10.1892L217.397 1.03062H216.489L211.343 9.6555L206.187 1.03062H203.354L209.405 10.3836V16.2938Z" fill="white"/>
<path d="M157.498 16.4589H160.083V8.68065H164.657V7.85704H160.083V1.67006H167.032V0.866211H157.498V16.4589Z" fill="white"/>
<path d="M160.249 16.6233H157.325V0.701172H167.198V1.83446H160.249V7.692H164.823V8.84506H160.249V16.6233ZM157.664 16.2938H159.91V8.51561H164.484V8.02145H159.91V1.50502H166.859V1.03062H157.667L157.664 16.2938Z" fill="white"/>
<path d="M143.307 16.4589H145.895V8.68065H150.469V7.85704H145.895V1.67006H152.84V0.866211H143.307V16.4589Z" fill="white"/>
<path d="M146.064 16.6233H143.137V0.701172H153.009V1.83446H146.064V7.692H150.634V8.84506H146.064V16.6233ZM143.476 16.2938H145.725V8.51561H150.295V8.02145H145.725V1.50502H152.67V1.03062H143.476V16.2938Z" fill="white"/>
<path d="M43.2873 0.615234H41.6713V10.4986C41.6713 10.6403 41.6713 10.7951 41.6713 10.9631C41.6984 12.103 41.7357 13.826 40.7735 14.7748C40.5142 15.0129 40.2077 15.197 39.8728 15.3159C39.5378 15.4349 39.1815 15.4862 38.8254 15.4666C36.8638 15.4666 36.2337 13.9314 36.0541 13.2725L36.0236 13.1638H34.5566V13.3219C34.6989 14.7682 36.2032 16.2342 38.8119 16.2342C40.1264 16.2342 41.1834 15.8686 41.9051 15.1471C43.2941 13.793 43.2602 11.5232 43.2602 10.66L43.2873 0.615234Z" fill="white"/>
<path d="M38.8355 16.3331C36.1556 16.3331 34.6074 14.8144 34.4617 13.3187L34.4346 13.0321H36.1285L36.1827 13.2265C36.3555 13.859 36.9586 15.3349 38.8389 15.3349C39.1792 15.3541 39.52 15.3055 39.8404 15.1922C40.1608 15.0789 40.454 14.9033 40.7022 14.676C41.6305 13.7602 41.5899 12.0668 41.5662 10.9467C41.5662 10.7655 41.5662 10.6173 41.5662 10.4789V0.5H43.416V10.6436C43.416 11.5134 43.4465 13.8228 42.0202 15.213C41.2579 15.9543 40.1907 16.3331 38.8423 16.3331M34.7022 13.2627V13.2957C34.8377 14.6892 36.3013 16.1025 38.8389 16.1025C40.1195 16.1025 41.1325 15.7467 41.8508 15.0483C43.2059 13.7305 43.1822 11.487 43.1754 10.6469V0.730612H41.7999V10.4822C41.7999 10.6173 41.7999 10.7655 41.7999 10.9302C41.827 12.1031 41.8643 13.8557 40.8683 14.8408C40.5979 15.0896 40.2782 15.2823 39.9287 15.4069C39.5792 15.5315 39.2072 15.5855 38.8355 15.5655C36.8027 15.5655 36.1251 13.971 35.949 13.2858V13.2627H34.7022Z" fill="white"/>
<path d="M7.68003 14.36L0.999027 0.8099L0.958372 0.727539H0.118164V16.3136H1.03968V4.08129L6.97534 16.3136H7.70714L13.4056 3.541L13.5412 3.23132V16.3136H15.1538V0.727539H13.7309L7.68003 14.36Z" fill="white"/>
<path d="M15.2728 16.429H13.423V3.79475L7.79225 16.429H6.90122L1.14173 4.5953V16.429H0V0.612305H1.03332L1.10785 0.760555L7.67367 14.08L13.6534 0.612305H15.2728V16.429ZM13.6602 16.1984H15.0357V0.829739H13.8092L7.68384 14.6368L0.884251 0.829739H0.237155V16.1984H0.914742V3.56413L7.05029 16.1984H7.62963L13.6602 2.66804V16.1984Z" fill="white"/>
<path d="M24.4841 0.727539L17.793 16.3136H18.7822L21.4655 10.0541H28.2075L30.7586 16.3136H32.2798L25.8529 0.727539H24.4841ZM21.7264 9.43478L24.9178 1.94319L27.9669 9.43478H21.7264Z" fill="white"/>
<path d="M32.4563 16.429H30.6777L28.1198 10.1794H21.5472L18.8606 16.4389H17.6172L24.3931 0.612305H25.9176L25.9481 0.684783L32.4563 16.429ZM30.8301 16.1984H32.0938L25.7719 0.829739H24.5658L17.9729 16.1984H18.7047L21.388 9.9389H28.2892L30.8301 16.1984ZM28.1198 9.55016H21.5506L24.9385 1.64347L28.1198 9.55016ZM21.8792 9.31954H27.7979L24.9148 2.24965L21.8792 9.31954Z" fill="white"/>
<path d="M92.5245 14.4523C91.2846 15.3649 90.2241 15.5461 88.9164 15.5461C85.5081 15.5461 83.1298 12.614 83.1298 8.42019C83.1298 4.27577 85.5014 1.38324 88.9164 1.38324C90.1945 1.34353 91.4506 1.714 92.4907 2.43747L92.5991 2.50665L93.1208 1.91035L92.9785 1.81811C91.7787 1.02804 90.362 0.607852 88.913 0.61234C87.8977 0.617581 86.8944 0.826903 85.9662 1.22716C85.0381 1.62742 84.205 2.20997 83.5194 2.93822C82.1118 4.42868 81.3392 6.38351 81.3579 8.40702C81.3353 10.4607 82.1067 12.4478 83.5194 13.9746C84.2043 14.7055 85.0374 15.2907 85.9662 15.6932C86.8951 16.0958 87.8995 16.307 88.9164 16.3137C90.3956 16.3644 91.8424 15.8848 92.9819 14.9663L93.1073 14.8674L92.616 14.3766L92.5245 14.4523Z" fill="white"/>
<path d="M88.9159 16.4287C87.8837 16.4235 86.8636 16.2111 85.9197 15.8046C84.9759 15.3981 84.1285 14.8064 83.4309 14.0666C81.9961 12.514 81.2137 10.4939 81.2389 8.4067C81.2166 6.34956 82.0003 4.36128 83.4309 2.84566C84.1299 2.10865 84.9779 1.5199 85.9217 1.11628C86.8655 0.712661 87.8849 0.502858 88.9159 0.500009C90.3876 0.497745 91.8262 0.924639 93.0458 1.72555L93.2965 1.88697L92.6189 2.66117L92.4191 2.53269C91.4007 1.8204 90.1698 1.45344 88.9159 1.48834C85.5788 1.48834 83.2479 4.33475 83.2479 8.4067C83.2479 12.5346 85.5788 15.4173 88.9159 15.4173C90.2 15.4173 91.2401 15.2394 92.4529 14.3466L92.6427 14.2082L93.2931 14.8671L93.0695 15.045C91.9055 15.9835 90.427 16.4725 88.9159 16.4188M88.9159 0.720737C87.9164 0.726077 86.9287 0.93188 86.0146 1.32528C85.1006 1.71868 84.2798 2.29121 83.6037 3.00709C82.215 4.47889 81.4543 6.40939 81.476 8.4067C81.4533 10.4308 82.2126 12.3894 83.6037 13.8953C84.2791 14.6122 85.0997 15.1857 86.0138 15.5797C86.928 15.9737 87.916 16.1797 88.9159 16.1849C90.3719 16.2384 91.7972 15.7694 92.9205 14.8671L92.9442 14.8441L92.6054 14.5146L92.5817 14.5311C91.318 15.4601 90.2372 15.6479 88.9024 15.6479C85.4399 15.6545 83.004 12.6895 83.004 8.4067C83.004 4.12391 85.4331 1.25444 88.9092 1.25444C90.2092 1.21547 91.4864 1.59281 92.5444 2.32843H92.5681L92.9374 1.91003L92.9069 1.89027C91.7254 1.12521 90.3354 0.721352 88.9159 0.730621" fill="white"/>
<path d="M101.919 0.727539L95.2246 16.3136H96.2173L98.9039 10.0541H105.646L108.197 16.3136H109.718L103.284 0.727539H101.919ZM99.1614 9.43478L102.349 1.94319L105.399 9.43478H99.1614Z" fill="white"/>
<path d="M109.888 16.429H108.113L105.562 10.1695H98.9788L96.2956 16.429H95.0488L101.842 0.612305H103.366L103.397 0.684783L109.888 16.429ZM108.272 16.1984H109.539L103.204 0.829739H101.997L95.4046 16.1984H96.1364L98.823 9.9389H105.721L108.272 16.1984ZM105.579 9.55016H98.9822L102.353 1.64347L105.579 9.55016ZM99.338 9.31954H105.23L102.35 2.24965L99.338 9.31954Z" fill="white"/>
<path d="M73.2268 10.3605C75.0021 10.1925 77.9699 9.34583 77.9699 5.55391C77.9733 1.07675 73.6334 0.727539 72.3053 0.727539H66.3154V16.3136H67.9281V10.4264H71.316L77.1195 16.3136H78.8643L73.0845 10.3836L73.2268 10.3605ZM67.9281 9.6588V1.48856H72.3053C74.7683 1.48856 76.3708 3.08966 76.3708 5.57038C76.3708 8.05111 74.7751 9.67527 72.3053 9.67527L67.9281 9.6588Z" fill="white"/>
<path d="M79.1426 16.429H77.0691L71.2758 10.5418H68.0471V16.429H66.1973V0.612305H72.2955C73.6507 0.612305 78.0821 0.968106 78.0821 5.55398C78.0821 9.36567 75.1516 10.2716 73.339 10.4627L79.1426 16.429ZM77.1708 16.1984H78.6005L72.841 10.2683L73.2272 10.2354C74.9585 10.0707 77.8653 9.24707 77.8653 5.5441C77.8551 1.18225 73.6067 0.829739 72.3057 0.829739H66.4344V16.1984H67.8099V10.3112H71.3774L77.1708 16.1984ZM72.3057 9.77418H67.8099V1.35685H72.3057C74.8433 1.35685 76.483 3.00408 76.483 5.55398C76.483 8.10389 74.8433 9.77418 72.3057 9.77418ZM68.0471 9.54357H72.3057C74.6976 9.54357 76.2459 7.9787 76.2459 5.55398C76.2459 3.12927 74.6976 1.60064 72.3057 1.60064H68.0471V9.54357Z" fill="white"/>
<path d="M55.0439 0.615234C54.0276 0.615387 53.0225 0.822073 52.0931 1.22204C51.1637 1.62201 50.3305 2.20643 49.6469 2.93782C48.2139 4.46729 47.4327 6.46949 47.4617 8.53839C47.4398 10.5628 48.2226 12.5173 49.6469 13.994C50.327 14.7263 51.1576 15.3118 52.0849 15.7125C53.0122 16.1132 54.0156 16.3202 55.0304 16.3202C56.0451 16.3202 57.0486 16.1132 57.9759 15.7125C58.9032 15.3118 59.7337 14.7263 60.4138 13.994C61.8405 12.5186 62.6248 10.5635 62.6024 8.53839C62.6302 6.4691 61.8478 4.46696 60.4138 2.93782C59.733 2.21126 58.9038 1.63087 57.9791 1.23378C57.0544 0.836678 56.0547 0.631616 55.0439 0.631707M55.0439 15.5622C51.6221 15.5622 49.2336 12.6762 49.2336 8.54828C49.2336 4.33797 51.6221 1.39931 55.0439 1.39931C58.4657 1.39931 60.8305 4.33797 60.8305 8.54828C60.8305 12.6762 58.459 15.5622 55.0439 15.5622Z" fill="white"/>
<path d="M55.0433 16.4288C54.0106 16.429 52.9894 16.2189 52.0452 15.8121C51.1011 15.4053 50.2551 14.8107 49.5616 14.0666C48.1145 12.5697 47.3193 10.5863 47.3425 8.53195C47.3146 6.43554 48.108 4.40733 49.5616 2.85891C50.2531 2.11557 51.0971 1.52142 52.0392 1.11478C52.9813 0.708141 54.0007 0.498047 55.0314 0.498047C56.0622 0.498047 57.0815 0.708141 58.0236 1.11478C58.9658 1.52142 59.8098 2.11557 60.5012 2.85891C61.9541 4.4065 62.7474 6.43338 62.7203 8.52866C62.7411 10.5826 61.9462 12.5651 60.5012 14.0633C59.8112 14.8055 58.9692 15.399 58.0292 15.8058C57.0892 16.2126 56.0721 16.4237 55.0433 16.4255M55.0433 0.727397C54.0431 0.728 53.0541 0.93201 52.1399 1.32632C51.2256 1.72064 50.4062 2.29654 49.7344 3.01704C48.3218 4.52247 47.5515 6.49424 47.5797 8.53195C47.5579 10.5273 48.3299 12.4537 49.7344 13.9085C50.4034 14.6294 51.2205 15.2057 52.133 15.6001C53.0454 15.9946 54.0329 16.1984 55.0314 16.1984C56.03 16.1984 57.0174 15.9946 57.9299 15.6001C58.8423 15.2057 59.6595 14.6294 60.3285 13.9085C61.7324 12.4533 62.5043 10.5272 62.4832 8.53195C62.5097 6.49454 61.7395 4.52335 60.3285 3.01704C59.6598 2.29905 58.8443 1.7248 57.9342 1.33109C57.0241 0.937371 56.0394 0.732871 55.0433 0.730691M55.0433 15.6612C51.5503 15.6612 49.1144 12.7291 49.1144 8.53195C49.1144 4.24917 51.5503 1.28416 55.0433 1.28416C58.5362 1.28416 60.9484 4.26893 60.9484 8.53195C60.9484 12.7291 58.5193 15.6612 55.0433 15.6612ZM55.0433 1.495C51.6926 1.495 49.3516 4.38753 49.3516 8.52866C49.3516 12.5907 51.6926 15.4272 55.0433 15.4272C58.3939 15.4272 60.7113 12.5907 60.7113 8.52866C60.7113 4.39083 58.3804 1.48842 55.0433 1.48842" fill="white"/>
<path d="M51.266 24.1247V26.0125H53.4241V26.5593H51.266V28.4866H53.668V29.0664H50.5342V23.5449H53.668V24.1247H51.266Z" fill="white"/>
<path d="M53.763 29.1614H50.4395V23.4521H53.763V24.2198H51.361V25.923H53.5292V26.6544H51.361V28.3971H53.763V29.1614ZM50.6292 28.9769H53.5733V28.5816H51.1577V26.4666H53.3158V26.1042H51.1577V24.032H53.5597V23.6366H50.6156L50.6292 28.9769Z" fill="white"/>
<path d="M60.4271 28.3617C60.2883 28.5958 60.0838 28.7866 59.8376 28.9119C59.5368 29.0603 59.2024 29.1328 58.8653 29.1227C58.5152 29.1316 58.1676 29.0629 57.8489 28.9217C57.5703 28.8016 57.3287 28.6132 57.1476 28.3749C56.9714 28.142 56.8658 27.8658 56.8427 27.5776H57.6253C57.6436 27.7406 57.7004 27.8974 57.7913 28.0355C57.8898 28.191 58.0289 28.3183 58.1945 28.4045C58.3874 28.5067 58.605 28.5568 58.8246 28.5495C58.9592 28.5577 59.0941 28.5398 59.2215 28.4968C59.3488 28.4538 59.4662 28.3866 59.5666 28.2991C59.6523 28.2147 59.7193 28.1142 59.7636 28.0037C59.8078 27.8933 59.8284 27.7752 59.824 27.6567C59.8345 27.4592 59.7707 27.2648 59.6445 27.1098C59.5224 26.969 59.3697 26.8565 59.1973 26.7803C58.9622 26.6762 58.72 26.5881 58.4723 26.5168C58.1763 26.4249 57.8866 26.3148 57.6049 26.1873C57.3833 26.0823 57.1922 25.9249 57.0493 25.7294C56.8856 25.4913 56.8049 25.2084 56.819 24.9223C56.8133 24.6549 56.8874 24.3918 57.0324 24.1646C57.1806 23.9393 57.3939 23.7617 57.6456 23.6539C57.9413 23.5285 58.2615 23.4667 58.5841 23.4727C59.061 23.4471 59.5317 23.5872 59.9121 23.868C60.0741 23.9903 60.2093 24.1427 60.31 24.3163C60.4106 24.49 60.4746 24.6814 60.4982 24.8794H59.7089C59.6651 24.655 59.5459 24.4511 59.3701 24.2996C59.1575 24.1234 58.8833 24.0337 58.6044 24.0492C58.3477 24.0341 58.0947 24.1142 57.8963 24.2733C57.8063 24.3521 57.7356 24.4496 57.6893 24.5584C57.643 24.6673 57.6223 24.7849 57.6287 24.9025C57.6208 25.091 57.6834 25.2759 57.8048 25.423C57.9194 25.5644 58.0669 25.6773 58.2351 25.7525C58.4664 25.8501 58.7027 25.9359 58.9432 26.0094C59.2437 26.1011 59.5379 26.2111 59.824 26.3389C60.0519 26.4478 60.2477 26.611 60.3932 26.8133C60.5599 27.0637 60.6417 27.3587 60.627 27.6567C60.6285 27.9115 60.562 28.1624 60.4339 28.3847" fill="white"/>
<path d="M58.8651 29.2142C58.5058 29.2208 58.1494 29.1499 57.8217 29.0066C57.529 28.8772 57.2749 28.6777 57.0831 28.4268C56.8932 28.1822 56.776 27.8916 56.7443 27.5867V27.4846H57.7166V27.5703C57.7331 27.7194 57.7853 27.8627 57.8691 27.9887C57.962 28.1267 58.0889 28.24 58.2384 28.3181C58.4174 28.4109 58.6183 28.4563 58.8211 28.4499C58.9437 28.4586 59.0669 28.4432 59.1833 28.4047C59.2996 28.3662 59.4069 28.3054 59.4987 28.2259C59.5761 28.1506 59.6366 28.0604 59.6762 27.9612C59.7159 27.8619 59.7339 27.7557 59.7291 27.6493C59.739 27.4733 59.6824 27.2999 59.5698 27.1617C59.4571 27.0303 59.316 26.9245 59.1565 26.8521C58.9241 26.7517 58.6853 26.6659 58.4416 26.5951C58.1426 26.5026 57.8496 26.3926 57.5642 26.2657C57.3287 26.1525 57.1251 25.9851 56.9713 25.7781C56.7974 25.5229 56.7108 25.2208 56.724 24.9149C56.7191 24.6304 56.7979 24.3504 56.951 24.1078C57.1125 23.865 57.3449 23.6745 57.6184 23.5609C57.9266 23.4288 58.2607 23.3636 58.5975 23.3698C59.0968 23.3452 59.589 23.4934 59.9865 23.7882C60.1568 23.9219 60.2981 24.0871 60.4022 24.2743C60.5063 24.4615 60.5711 24.6669 60.593 24.8787V24.9841H59.6274V24.9083C59.5837 24.7034 59.4718 24.5181 59.309 24.3812C59.1128 24.2225 58.8625 24.1414 58.6077 24.1539C58.3741 24.1428 58.1442 24.2142 57.9606 24.3549C57.8809 24.4252 57.8186 24.5121 57.7781 24.609C57.7377 24.706 57.7201 24.8105 57.7268 24.9149C57.7178 25.0816 57.7721 25.2457 57.8792 25.3762C57.9875 25.5003 58.123 25.5993 58.2756 25.6661C58.5044 25.7623 58.7385 25.8459 58.9769 25.9164C59.2819 26.0077 59.5807 26.1178 59.8714 26.2459C60.1122 26.3628 60.3194 26.536 60.4744 26.7499C60.6521 27.0159 60.7398 27.3292 60.7251 27.646C60.7275 27.9173 60.6562 28.1843 60.5184 28.4202C60.3729 28.669 60.1564 28.8716 59.8951 29.0033C59.581 29.1599 59.2315 29.2369 58.8787 29.2274M56.9781 27.6856C57.0117 27.9234 57.1047 28.1497 57.2491 28.3445C57.4249 28.572 57.6584 28.7513 57.9267 28.865C58.2305 28.9958 58.56 29.061 58.8922 29.0561C59.2141 29.0655 59.5332 28.9964 59.8205 28.8551C60.0503 28.7384 60.2407 28.56 60.3694 28.3412C60.4909 28.1334 60.554 27.8982 60.5523 27.6592C60.5609 27.3724 60.4742 27.0905 60.305 26.8554C60.1695 26.6655 59.9864 26.5124 59.7731 26.4106C59.4902 26.2832 59.1994 26.1732 58.9024 26.0812C58.6585 26.0079 58.4187 25.9221 58.1842 25.8242C58.0065 25.7488 57.848 25.6364 57.72 25.4948C57.5849 25.3308 57.5151 25.1249 57.5235 24.9149C57.5171 24.7838 57.5405 24.653 57.592 24.5317C57.6436 24.4104 57.722 24.3017 57.8217 24.2132C58.0405 24.044 58.3148 23.9574 58.5941 23.9694C58.8964 23.9552 59.193 24.0529 59.4241 24.2429C59.5958 24.3915 59.7204 24.5846 59.7833 24.7996H60.3829C60.3185 24.4668 60.1334 24.1675 59.8612 23.9562C59.5043 23.6873 59.0623 23.5476 58.611 23.5609C58.3022 23.5539 57.9956 23.6135 57.7132 23.7355C57.4725 23.8363 57.2683 24.005 57.1271 24.2198C56.9918 24.4323 56.9223 24.6782 56.9272 24.9281C56.9134 25.1953 56.9882 25.4598 57.1407 25.6825C57.2754 25.8639 57.4533 26.0108 57.659 26.1108C57.9375 26.2376 58.2238 26.3477 58.5162 26.4403C58.7667 26.5142 59.0123 26.6033 59.2514 26.7071C59.4363 26.7904 59.5996 26.9131 59.7291 27.0662C59.8696 27.2379 59.9417 27.4531 59.9323 27.6724C59.9369 27.8031 59.914 27.9333 59.8651 28.055C59.8161 28.1768 59.7422 28.2876 59.6477 28.3807C59.5388 28.4773 59.411 28.5517 59.2719 28.5992C59.1327 28.6468 58.9852 28.6666 58.838 28.6574C58.6022 28.6633 58.3689 28.61 58.1604 28.5026C57.9819 28.407 57.8315 28.2687 57.7234 28.1007C57.641 27.9752 57.5846 27.8353 57.5574 27.6889L56.9781 27.6856Z" fill="white"/>
<path d="M67.5007 23.5449V24.1247H65.8948V29.0664H65.163V24.1247H63.5605V23.5449H67.5007Z" fill="white"/>
<path d="M65.9932 29.1614H65.0683V24.2198H63.4658V23.4521H67.5957V24.2198H65.9932V29.1614ZM65.258 28.9769H65.8001V24.0353H67.4195V23.6399H63.6555V24.0353H65.258V28.9769Z" fill="white"/>
<path d="M71.3734 24.1247V26.0125H73.5349V26.5593H71.3734V28.4866H73.7754V29.0664H70.6416V23.5449H73.7754V24.1247H71.3734Z" fill="white"/>
<path d="M73.8568 29.1614H70.5332V23.4521H73.8568V24.2198H71.4852V25.923H73.6467V26.6544H71.4852V28.3971H73.8568V29.1614ZM70.7229 28.9769H73.667V28.5816H71.265V26.4666H73.4265V26.1042H71.265V24.032H73.667V23.6366H70.7229V28.9769Z" fill="white"/>
<path d="M80.6159 23.5449V24.1247H79.0135V29.0664H78.2783V24.1247H76.6758V23.5449H80.6159Z" fill="white"/>
<path d="M79.1083 29.1614H78.1834V24.2198H76.5674V23.4521H80.6973V24.2198H79.1083V29.1614ZM78.3732 28.9769H78.9152V24.0353H80.5211V23.6399H76.7707V24.0353H78.3732V28.9769Z" fill="white"/>
<path d="M84.4886 23.5449H83.7568V29.0664H84.4886V23.5449Z" fill="white"/>
<path d="M84.587 29.1614H83.6621V23.4521H84.587V29.1614ZM83.8518 28.9769H84.3939V23.6366H83.8518V28.9769Z" fill="white"/>
<path d="M92.3107 23.9861C92.7699 24.3254 93.0991 24.8044 93.2458 25.3468H92.4902C92.3546 24.9924 92.1096 24.6875 91.7889 24.4737C91.4393 24.2478 91.0262 24.1327 90.6066 24.1443C90.2559 24.138 89.9107 24.2282 89.6105 24.4045C89.3108 24.5877 89.0701 24.8491 88.916 25.159C88.7422 25.5171 88.6564 25.9096 88.6653 26.3054C88.6564 26.6981 88.7422 27.0874 88.916 27.442C89.0687 27.7509 89.3097 28.0105 89.61 28.1899C89.9104 28.3692 90.2575 28.4607 90.6099 28.4534C91.0296 28.465 91.4426 28.3499 91.7923 28.124C92.1099 27.9106 92.3533 27.6085 92.4902 27.2575H93.2627C93.1161 27.799 92.7868 28.277 92.3276 28.6148C91.829 28.9615 91.2258 29.1366 90.6133 29.1123C90.1188 29.122 89.6312 28.9988 89.2039 28.7565C88.7959 28.5214 88.4646 28.1788 88.2486 27.7682C88.0161 27.3178 87.8998 26.8192 87.9098 26.3153C87.8999 25.8073 88.0162 25.3044 88.2486 24.8493C88.4649 24.4389 88.7961 24.0963 89.2039 23.861C89.6312 23.6186 90.1188 23.4955 90.6133 23.5052C91.2258 23.4809 91.829 23.6559 92.3276 24.0026" fill="white"/>
<path d="M90.5969 29.2083C90.0839 29.2163 89.5786 29.0863 89.1367 28.8327C88.7139 28.5861 88.3711 28.2288 88.1474 27.8016C87.9116 27.337 87.7954 26.8238 87.8086 26.3059C87.7953 25.7848 87.9116 25.2684 88.1474 24.8003C88.3707 24.3711 88.7135 24.0115 89.1367 23.7626C89.5801 23.5132 90.0848 23.3856 90.5969 23.3936C91.2302 23.3703 91.8534 23.5522 92.3688 23.9108C92.8421 24.2633 93.1827 24.7578 93.3378 25.3175L93.375 25.4361H92.4095L92.3857 25.3768C92.2526 25.0392 92.0161 24.7494 91.7082 24.5466C91.3736 24.3334 90.9798 24.2253 90.58 24.237C90.2465 24.2326 89.9188 24.322 89.6363 24.4944C89.3538 24.6668 89.1286 24.9149 88.9876 25.2088C88.8281 25.5543 88.7456 25.9288 88.7456 26.3075C88.7456 26.6863 88.8281 27.0607 88.9876 27.4062C89.1402 27.7007 89.375 27.9473 89.6652 28.1178C89.9499 28.286 90.2775 28.3728 90.6105 28.3682C91.0103 28.3799 91.4041 28.2718 91.7386 28.0585C92.0466 27.8558 92.2831 27.566 92.4162 27.2283L92.44 27.169H93.4055L93.3682 27.2876C93.2132 27.8474 92.8726 28.3418 92.3993 28.6944C91.8839 29.0529 91.2607 29.2349 90.6274 29.2116M90.6274 23.5847C90.1534 23.5733 89.685 23.6872 89.2722 23.9141C88.8663 24.1415 88.535 24.4762 88.3168 24.8794C88.0874 25.3191 87.9712 25.8063 87.978 26.2993C87.9711 26.7891 88.0874 27.2732 88.3168 27.7093C88.525 28.1058 88.843 28.4379 89.235 28.668C89.6478 28.895 90.1161 29.0088 90.5901 28.9975C91.1814 29.02 91.7638 28.8521 92.2468 28.5198C92.6544 28.2183 92.9561 27.8018 93.1108 27.3272H92.5314C92.3851 27.674 92.1379 27.9717 91.82 28.1837C91.4526 28.415 91.0206 28.53 90.5834 28.5132C90.2146 28.5186 89.8517 28.4227 89.5365 28.2364C89.2241 28.0452 88.9721 27.7739 88.8081 27.4524C88.6265 27.0847 88.536 26.6807 88.5438 26.2729C88.5361 25.862 88.6265 25.4548 88.8081 25.0836C88.9675 24.7591 89.2198 24.4862 89.5346 24.2975C89.8495 24.1087 90.2136 24.0123 90.5834 24.0195C91.0205 24.0042 91.452 24.1191 91.82 24.349C92.1373 24.563 92.3844 24.8616 92.5314 25.2088H93.1108C92.9561 24.7342 92.6544 24.3177 92.2468 24.0162C91.7649 23.6814 91.182 23.5122 90.5901 23.5352" fill="white"/>
<path d="M99.975 27.7909H97.4781L97.0004 29.0659H96.2178L98.3217 23.6465H99.1517L101.245 29.0659H100.456L99.975 27.7909ZM99.7649 27.2341L98.7248 24.4437L97.6847 27.2341H99.7649Z" fill="white"/>
<path d="M101.377 29.1621H100.381L99.907 27.8871H97.5354L97.0679 29.1621H96.0752L98.2503 23.5615H99.2124L101.377 29.1621ZM100.517 28.9776H101.1L99.0667 23.7427H98.3688L96.3361 28.9776H96.9222L97.3965 27.6994H100.026L100.517 28.9776ZM99.9002 27.3304H97.5489L98.7246 24.1776L99.9002 27.3304ZM97.8234 27.1459H99.6291L98.7246 24.7212L97.8234 27.1459Z" fill="white"/>
<path d="M113.032 23.9859C113.489 24.327 113.818 24.8053 113.967 25.3465H113.194C113.055 24.9904 112.805 24.6853 112.48 24.4735C112.129 24.2469 111.715 24.1318 111.294 24.144C110.944 24.1382 110.6 24.2284 110.301 24.4043C110.002 24.5875 109.761 24.8489 109.607 25.1587C109.43 25.5161 109.343 25.9089 109.353 26.3052C109.343 26.6983 109.43 27.088 109.607 27.4418C109.759 27.7507 110 28.0103 110.301 28.1896C110.601 28.369 110.948 28.4605 111.301 28.4532C111.721 28.4654 112.136 28.3503 112.486 28.1237C112.806 27.9091 113.051 27.6045 113.188 27.2507H113.96C113.811 27.791 113.482 28.2682 113.025 28.608C112.526 28.9547 111.923 29.1298 111.311 29.1055C110.816 29.1151 110.329 28.992 109.901 28.7497C109.493 28.5146 109.162 28.1719 108.946 27.7613C108.712 27.3115 108.596 26.8125 108.607 26.3085C108.596 25.8003 108.712 25.297 108.946 24.8425C109.162 24.4321 109.494 24.0895 109.901 23.8541C110.329 23.6118 110.816 23.4887 111.311 23.4983C111.923 23.474 112.526 23.6491 113.025 23.9958" fill="white"/>
<path d="M111.318 29.2081C110.805 29.2165 110.299 29.0865 109.857 28.8326C109.434 28.587 109.091 28.2294 108.868 27.8014C108.632 27.3369 108.516 26.8236 108.529 26.3057C108.516 25.7847 108.632 25.2682 108.868 24.8002C109.091 24.3709 109.434 24.0113 109.857 23.7624C110.301 23.5125 110.805 23.385 111.318 23.3934C111.951 23.3711 112.574 23.553 113.09 23.9107C113.563 24.2632 113.903 24.7576 114.058 25.3174L114.096 25.436H113.127L113.103 25.3767C112.972 25.0382 112.735 24.7479 112.425 24.5465C112.09 24.3328 111.695 24.2247 111.294 24.2368C110.961 24.2315 110.633 24.3183 110.349 24.4872C110.07 24.6652 109.847 24.915 109.705 25.2087C109.537 25.5531 109.453 25.931 109.461 26.3123C109.453 26.6904 109.537 27.065 109.705 27.4061C109.853 27.6975 110.08 27.9437 110.362 28.1177C110.647 28.285 110.975 28.3718 111.307 28.3681C111.708 28.3802 112.103 28.2721 112.439 28.0584C112.748 27.8569 112.985 27.5667 113.117 27.2282L113.14 27.1689H114.109L114.072 27.2875C113.917 27.8472 113.576 28.3417 113.103 28.6942C112.588 29.0528 111.964 29.2347 111.331 29.2114M111.331 23.5845C110.857 23.5732 110.389 23.687 109.976 23.914C109.575 24.1428 109.25 24.4775 109.038 24.8792C108.808 25.3189 108.692 25.8062 108.699 26.2991C108.692 26.789 108.808 27.273 109.038 27.7092C109.245 28.1063 109.563 28.4386 109.956 28.6678C110.368 28.8951 110.837 29.009 111.311 28.9973C111.902 29.0198 112.484 28.8519 112.968 28.5196C113.372 28.2247 113.675 27.8167 113.835 27.3501H113.259C113.113 27.6969 112.865 27.9946 112.547 28.2066C112.179 28.4375 111.746 28.5526 111.307 28.5361C110.94 28.5416 110.578 28.4457 110.264 28.2593C109.951 28.0691 109.699 27.7975 109.536 27.4753C109.352 27.1081 109.262 26.7038 109.271 26.2958C109.262 25.8847 109.352 25.4772 109.536 25.1065C109.695 24.7826 109.947 24.51 110.261 24.3213C110.575 24.1326 110.938 24.0358 111.307 24.0424C111.746 24.0274 112.178 24.1423 112.547 24.3719C112.865 24.5859 113.112 24.8845 113.259 25.2317H113.835C113.68 24.7571 113.378 24.3406 112.971 24.0391C112.489 23.7043 111.906 23.5351 111.314 23.5582" fill="white"/>
<path d="M118.1 24.1247V26.0125H120.258V26.5593H118.1V28.4866H120.499V29.0664H117.368V23.5449H120.499V24.1247H118.1Z" fill="white"/>
<path d="M120.61 29.1614H117.283V23.4521H120.61V24.2198H118.208V25.923H120.366V26.6544H118.208V28.3971H120.61V29.1614ZM117.476 28.9769H120.417V28.5816H118.018V26.4666H120.177V26.1042H118.018V24.032H120.417V23.6366H117.476V28.9769Z" fill="white"/>
<path d="M126.871 29.0664L125.391 26.8097H124.591V29.0664H123.859V23.5614H125.73C126.254 23.5225 126.774 23.6832 127.18 24.0094C127.341 24.1652 127.467 24.352 127.55 24.558C127.633 24.7639 127.67 24.9844 127.661 25.2053C127.68 25.6014 127.541 25.9895 127.274 26.2892C126.977 26.585 126.58 26.7673 126.156 26.8031L127.701 29.0829L126.871 29.0664ZM124.591 26.2925H125.665C126.495 26.2925 126.912 25.94 126.912 25.2284C126.912 24.5168 126.495 24.1642 125.665 24.1642H124.591V26.2925Z" fill="white"/>
<path d="M127.881 29.1622H126.82L125.353 26.9022H124.676V29.1622H123.751V23.4529H125.716C126.265 23.4133 126.808 23.5835 127.23 23.9273C127.402 24.0907 127.537 24.2875 127.626 24.5049C127.715 24.7223 127.755 24.9554 127.745 25.1891C127.763 25.6085 127.615 26.0186 127.332 26.3356C127.06 26.6114 126.703 26.7941 126.316 26.8561L127.881 29.1622ZM126.925 28.9777H127.525L125.994 26.721L126.143 26.698C126.547 26.6587 126.924 26.4812 127.207 26.1972C127.456 25.9136 127.584 25.5484 127.566 25.1759C127.575 24.9677 127.54 24.7599 127.462 24.5658C127.383 24.3718 127.264 24.1958 127.112 24.0492C126.725 23.7381 126.23 23.5856 125.73 23.6242H123.954V28.9612H124.496V26.7177H125.442L126.925 28.9777ZM125.665 26.3883H124.496V24.0822H125.665C126.776 24.0822 127.02 24.7147 127.02 25.2418C127.02 25.7689 126.79 26.3982 125.665 26.3982M124.676 26.1972H125.652C126.427 26.1972 126.804 25.8678 126.804 25.2089C126.804 24.55 126.427 24.2205 125.652 24.2205H124.676V26.1972Z" fill="white"/>
<path d="M134.301 27.7909H131.791L131.313 29.0659H130.537L132.641 23.6465H133.485L135.578 29.0659H134.789L134.301 27.7909ZM134.091 27.2341L133.051 24.4437L132.011 27.2341H134.091Z" fill="white"/>
<path d="M135.703 29.1621H134.707L134.233 27.8871H131.862L131.394 29.1621H130.401L132.576 23.5615H133.535L135.703 29.1621ZM134.84 28.9743H135.426L133.393 23.7394H132.705L130.672 28.9743H131.259L131.733 27.6961H134.365L134.84 28.9743ZM134.223 27.3271H131.872L133.047 24.1743L134.223 27.3271ZM132.146 27.1426H133.952L133.047 24.7179L132.146 27.1426Z" fill="white"/>
<path d="M144.411 23.6367V29.066H143.679V24.7338L141.897 29.066H141.243L139.458 24.7502V29.066H138.723V23.6367H139.604L141.582 28.1962L143.534 23.6367H144.411Z" fill="white"/>
<path d="M144.506 29.1621H143.581V25.2088L141.955 29.1621H141.172L139.546 25.2318V29.1621H138.621V23.5615H139.658L141.575 27.9728L143.469 23.5615H144.506V29.1621ZM143.774 28.9776H144.326V23.7295H143.608L141.586 28.4373L139.553 23.7295H138.831V28.9743H139.373V24.2731L141.325 28.9743H141.846L143.788 24.2534L143.774 28.9776Z" fill="white"/>
<path d="M148.734 23.5449H148.002V29.0664H148.734V23.5449Z" fill="white"/>
<path d="M148.832 29.1614H147.907V23.4521H148.832V29.1614ZM148.1 28.9769H148.642V23.6366H148.1V28.9769Z" fill="white"/>
<path d="M156.559 23.9861C157.017 24.3272 157.345 24.8055 157.494 25.3467H156.719C156.585 24.992 156.341 24.6867 156.021 24.4737C155.67 24.2471 155.256 24.132 154.835 24.1442C154.484 24.1387 154.139 24.2288 153.839 24.4045C153.546 24.5907 153.312 24.8517 153.161 25.1589C152.985 25.5163 152.898 25.9091 152.907 26.3054C152.898 26.6985 152.985 27.0882 153.161 27.442C153.313 27.7514 153.554 28.0115 153.855 28.1909C154.155 28.3703 154.503 28.4615 154.855 28.4534C155.276 28.4656 155.69 28.3505 156.041 28.1239C156.361 27.9101 156.605 27.6051 156.739 27.2509H157.515C157.366 27.7912 157.037 28.2684 156.58 28.6082C156.072 28.9648 155.454 29.1426 154.828 29.1123C154.334 29.1209 153.846 28.9979 153.419 28.7565C153.012 28.5196 152.681 28.1774 152.463 27.7681C152.231 27.3177 152.115 26.8191 152.125 26.3153C152.115 25.8072 152.231 25.3044 152.463 24.8492C152.682 24.4403 153.013 24.0982 153.419 23.8609C153.845 23.6138 154.332 23.485 154.828 23.4886C155.442 23.4639 156.046 23.6389 156.546 23.9861" fill="white"/>
<path d="M154.828 29.2079C154.317 29.2168 153.813 29.0879 153.372 28.8356C152.947 28.5902 152.603 28.2326 152.379 27.8044C152.143 27.3399 152.027 26.8266 152.04 26.3087C152.027 25.7877 152.143 25.2712 152.379 24.8032C152.603 24.3738 152.947 24.0143 153.372 23.7654C153.814 23.5156 154.317 23.3881 154.828 23.3964C155.463 23.3737 156.087 23.5555 156.604 23.9137C157.076 24.2672 157.416 24.7612 157.573 25.3204L157.606 25.439H156.641L156.617 25.3797C156.484 25.0418 156.248 24.7519 155.94 24.5495C155.604 24.3362 155.209 24.2281 154.808 24.2398C154.478 24.2383 154.154 24.3287 153.875 24.5003C153.596 24.672 153.373 24.9176 153.233 25.2084C153.063 25.5523 152.979 25.9306 152.989 26.312C152.979 26.6903 153.063 27.0653 153.233 27.4058C153.376 27.6973 153.603 27.9425 153.886 28.1124C154.169 28.2823 154.496 28.3698 154.828 28.3645C155.229 28.3762 155.624 28.2681 155.96 28.0548C156.268 27.8524 156.505 27.5625 156.638 27.2246L156.661 27.1653H157.627L157.593 27.2839C157.436 27.8426 157.095 28.3364 156.624 28.6906C156.102 29.053 155.469 29.235 154.828 29.2079ZM154.828 23.5809C154.354 23.5686 153.886 23.6825 153.473 23.9104C153.082 24.1442 152.767 24.4797 152.562 24.8789C152.332 25.3186 152.216 25.8059 152.223 26.2988C152.216 26.7887 152.332 27.2728 152.562 27.7089C152.766 28.1086 153.082 28.4443 153.473 28.6774C153.886 28.9053 154.354 29.0192 154.828 29.0069C155.421 29.0284 156.004 28.8606 156.488 28.5292C156.895 28.2276 157.196 27.811 157.349 27.3366H156.77C156.625 27.6832 156.378 27.9809 156.062 28.1932C155.693 28.4241 155.26 28.5391 154.822 28.5226C154.454 28.5282 154.092 28.4322 153.778 28.2459C153.465 28.0556 153.213 27.784 153.05 27.4618C152.867 27.0946 152.776 26.6903 152.785 26.2824C152.776 25.8712 152.867 25.4638 153.05 25.0931C153.213 24.773 153.468 24.5051 153.783 24.3212C154.098 24.1373 154.461 24.045 154.828 24.0553C155.266 24.0403 155.699 24.1552 156.068 24.3848C156.385 24.599 156.631 24.8976 156.776 25.2446H157.356C157.202 24.7702 156.902 24.3536 156.495 24.052C156.012 23.7172 155.428 23.548 154.835 23.571" fill="white"/>
<path d="M164.22 27.7909H161.723L161.266 29.0659H160.477L162.577 23.6465H163.407L165.504 29.0659H164.711L164.22 27.7909ZM164.01 27.2341L162.96 24.4437L161.944 27.2341H164.01Z" fill="white"/>
<path d="M165.622 29.1621H164.63L164.152 27.8871H161.781L161.313 29.1621H160.32L162.495 23.5615H163.458L165.622 29.1621ZM164.762 28.9776H165.348L163.315 23.7427H162.621L160.588 28.9776H161.174L161.648 27.6994H164.281L164.762 28.9776ZM164.145 27.3304H161.797L162.96 24.1743L164.145 27.3304ZM162.068 27.1459H163.874L162.96 24.7179L162.068 27.1459Z" fill="white"/>
<path d="M107.597 31.9189H105.436V37.503H107.597V31.9189Z" fill="#009247"/>
<path d="M109.769 31.9189H107.607V37.503H109.769V31.9189Z" fill="white"/>
<path d="M111.886 31.9189H109.725V37.503H111.886V31.9189Z" fill="#CE2A37"/>
<path d="M166.121 34.6172H113.828V34.8017H166.121V34.6172Z" fill="white"/>
<path d="M102.82 34.6172H50.5273V34.8017H102.82V34.6172Z" fill="white"/>
</g>
<defs>
<clipPath id="clip0_341_7099">
<rect width="218" height="37" fill="white" transform="translate(0 0.5)"/>
</clipPath>
</defs>
</svg>
