<svg width="106" height="32" viewBox="0 0 106 32" fill="none" xmlns="http://www.w3.org/2000/svg"><g clip-path="url(#a)" fill="#111415"><path d="M0 25h3L7 0s7.81-.027 8 0c0 0-.014 24.44 0 25h2v7h-4v-4H3v4s.298 0 0 0H0s-.055-6.453 0-7Zm11 0c0-.806 1-21 1-21h-2L6 25h5ZM31 0l6 28h-3l-1-6h-8l-1 6h-3l6-28h4Zm-2 4-3 15h6L29 4Zm76-4h1v28h-4V10s.106-.27 0 0l-7 18s.293 0 0 0h-3V0h4v18c-.106.27 0 0 0 0l7-18h2ZM51 17c-1.039-1.029-3.169-2-5-2h-1V3h7V0H41v28h5c1.831 0 3.907-.903 5-2 1.271-1.26 2-2.186 2-4v-1c0-1.814-.729-2.74-2-4Zm-4 8h-2c-.328 0 .178 0 0 0v-6c-.328 0 0 0 0 0h2c1.695 0 3 1.321 3 3s-1.305 3-3 3Zm38-8c-1.039-1.029-3.169-2-5-2h-1V3h7V0H75v28h5c1.831 0 3.907-.903 5-2 1.271-1.26 2-2.186 2-4v-1c0-1.814-.729-2.74-2-4Zm-4 8h-2c-.328 0 .178 0 0 0v-6h2c1.695 0 3 1.321 3 3s-1.305 3-3 3ZM62 0h-1s-2 20.96-2 21c-.119.744.343 1.297 0 2-.238.5-.59.621-1 1-.212.19-.723-.081-1 0-.225.068-.776.96-1 1-.176.027.062-.009 0 0v3c1.585 0 3.93-.837 5-2 1.149-1.23.749-3.377 1-5l2-18h3v25h3V0h-8Z"/></g><defs><clipPath id="a"><path fill="#fff" d="M0 0h106v32H0z"/></clipPath></defs></svg>