<svg width="146" height="32" viewBox="0 0 146 32" fill="none" xmlns="http://www.w3.org/2000/svg"><g clip-path="url(#a)" fill="#111415"><path d="M6 4c3.018 0 5 1.918 5 5s-2.183 6-5 6c-1.322 0-3.037-.886-4-2v8H0V10c0-3.775 2.592-6 6-6Zm0 9c1.998 0 3-2.05 3-4 0-1.95-.972-3-3-3S2 7.063 2 9s1.99 4 4 4Zm7-4c0-3.164 3.028-5 6-5s5 1.836 5 5c0 3.164-2.028 6-5 6s-6-2.834-6-6Zm6 4c2.01 0 3-1.98 3-4s-.99-3-3-3-4 .966-4 3 1.992 4 4 4Zm14 2c-3.224 0-6-2.82-6-6s2.794-5 6-5c2.461 0 4.413 1.395 5 4h-2c-.512-1.401-1.566-2-3-2-2.17 0-4 1.98-4 4s1.83 3 4 3c1.406 0 2.503-.477 3-2h2c-.76 2.774-2.628 4-5 4Zm12-1-3-8v9h-2V4h3l3 8h1l3-8h3v11h-2V6l-3 8h-3Zm11-5c0-3.164 3.028-5 6-5s5 1.836 5 5c0 3.164-2.028 6-5 6s-6-2.834-6-6Zm6 4c2.01 0 3-1.98 3-4s-.99-3-3-3-4 .966-4 3 1.992 4 4 4Zm6 2v-2c.389 0 .71-.645 1-1 .376-.45.798-.82 1-2V8c.333-2.001 1.197-4 4-4h4v11h-2V6h-2c-1.576 0-1.624.69-2 3v1c-.232 1.489-.278 3.178-1 4-.55.621-1.975 1-3 1Zm13-6c0-3.164 3.028-5 6-5s5 1.836 5 5c0 3.164-2.028 6-5 6s-6-2.834-6-6Zm6 4c2.01 0 3-1.98 3-4s-.99-3-3-3-4 .966-4 3 1.99 4 4 4Zm8 4h-2v-4h1c.579-.669.725-1.795 1-3l1-2c.42-1.861 1.499-4 4-4h4v9h1v4h-2v-3h-8v3Zm7-4V6h-2c-1.228 0-1.755.928-2 2l-1 2c-.245 1.117-.624 1.612-1 2v1h6Zm11 2c-3.271 0-6-2.74-6-6s2.819-5 6-5c2.464 0 5 1.89 5 6h-9c.22 1.806 1.975 3 4 3 1.202 0 2.605.096 3-1h2c-.646 2.379-2.903 3-5 3Zm-4-15h2v2h-2V0Zm7 8c-.323-1.636-1.211-2-3-2s-3.618.44-4 2h7Zm-2-8h2v2h-2V0Zm13 4v4h2l3-4h2l-3 5 3 6h-2l-3-5h-2v5h-1v-5h-2l-3 5h-2l3-6-3-5h2l3 4h2V4h1Zm9 6V4h2v3c.866-1.108 1.679-2 3-2 2.53 0 5 2.246 5 5s-2.131 5-5 5-4.985-2.06-5-5Zm5 3c1.632 0 3-1.322 3-3s-1.368-3-3-3-3 1.324-3 3c0 1.675 1.383 3 3 3ZM55 23h-4v6h-1v-7h5v1Zm1-2h1v2c.47-.944 1.77-2 3-2 1.861 0 3 1.513 3 4s-1.141 4-3 4c-1.23 0-2.533-1.056-3-2v5h-1V21Zm6 4c0-1.658-1.52-3-3-3s-2 1.342-2 3 .52 3 2 3 3-1.342 3-3Zm2 0c0-2.49 1.142-4 3-4 1.231 0 2.53 1.056 3 2v-2h1v8h-1v-2c-.47.944-1.769 2-3 2-1.86 0-3-1.51-3-4Zm6 0c0-1.66-.52-3-2-3s-3 1.34-3 3 1.52 3 3 3 2-1.34 2-3Zm9-3v7h-1v-3h-4v3h-1v-7h1v3h4v-3h1Zm9 1h-3v6h-1v-6h-3v-1h7v1Zm6 4c0 1.302-.451 2-2 2h-4v-7h1v3h3c1.532 0 2 .652 2 2Zm-1 0c0-.788-1.034-1-2-1h-2v2h2c.97 0 2-.245 2-1Zm3 2h-1v-7h1v7Z"/></g><defs><clipPath id="a"><path fill="#fff" d="M0 0h146v32H0z"/></clipPath></defs></svg>