<svg width="147" height="102" viewBox="0 0 147 102" fill="none" xmlns="http://www.w3.org/2000/svg">
<path d="M57.6 23.82C55.08 22.6067 51.2067 22 45.98 22C40.7533 22 36.8333 22.6067 34.22 23.82C31.6067 25.0333 29.6 27.74 28.2 31.94C26.8 36.14 26.1 42.44 26.1 50.84C26.1 58.96 26.8 65.12 28.2 69.32C29.6 73.4267 31.6067 76.1333 34.22 77.44C36.9267 78.7467 40.8467 79.4 45.98 79.4C51.1133 79.4 54.9867 78.7467 57.6 77.44C60.2133 76.1333 62.22 73.4267 63.62 69.32C65.02 65.12 65.72 58.96 65.72 50.84C65.72 42.44 65.02 36.14 63.62 31.94C62.22 27.74 60.2133 25.0333 57.6 23.82ZM45.98 101.1C29.3667 101.1 17.56 97.5067 10.56 90.32C3.56 83.04 0.0600001 69.88 0.0600001 50.84C0.0600001 40.76 0.946667 32.4067 2.72 25.78C4.58667 19.1533 7.52667 14.02 11.54 10.38C15.6467 6.64666 20.4067 4.03333 25.82 2.54C31.2333 1.04666 37.9533 0.299994 45.98 0.299994C54.0067 0.299994 60.7267 1.04666 66.14 2.54C71.5533 4.03333 76.2667 6.64666 80.28 10.38C84.2933 14.1133 87.1867 19.2933 88.96 25.92C90.8267 32.4533 91.76 40.76 91.76 50.84C91.76 69.88 88.26 83.04 81.26 90.32C74.26 97.5067 62.5 101.1 45.98 101.1ZM146.065 2.39999V99H120.165V39.92H102.805V21.72H109.105C117.505 21.72 121.705 16.96 121.705 7.43999V2.39999H146.065Z" fill="#185B94"/>
</svg>
