<svg width="200" height="200" viewBox="0 0 200 200" fill="none" xmlns="http://www.w3.org/2000/svg"><path d="m194.369 86.147-6.272-6.75c-4.104-4.417-6.02-10.558-5.194-16.642l1.263-9.299c1.446-10.64-5.474-20.557-15.64-22.413l-8.884-1.623c-5.813-1.061-10.832-4.857-13.598-10.285l-4.228-8.296c-4.837-9.493-16.034-13.28-25.307-8.562l-8.105 4.125a18.457 18.457 0 0 1-16.807 0l-8.104-4.125c-9.273-4.718-20.47-.93-25.307 8.562l-4.229 8.296c-2.765 5.428-7.784 9.224-13.597 10.285l-8.884 1.623C21.31 32.9 14.39 42.816 15.835 53.456l1.262 9.299c.827 6.084-1.09 12.225-5.194 16.642l-6.271 6.75c-7.178 7.723-7.178 19.982 0 27.705l6.271 6.75c4.104 4.417 6.02 10.557 5.194 16.643l-1.263 9.298c-1.445 10.64 5.475 20.557 15.642 22.413l8.884 1.623c5.813 1.061 10.832 4.857 13.597 10.286l4.229 8.295c4.837 9.493 16.034 13.28 25.307 8.562l8.104-4.125a18.46 18.46 0 0 1 16.807 0l8.105 4.125c9.273 4.72 20.47.931 25.307-8.562l4.228-8.295c2.766-5.429 7.785-9.225 13.598-10.286l8.884-1.623c10.166-1.857 17.086-11.773 15.64-22.413l-1.263-9.298c-.827-6.085 1.09-12.226 5.194-16.643l6.272-6.75c7.175-7.723 7.175-19.98 0-27.705ZM31.656 158.81c-3.756 0-6.8-3.17-6.8-7.08s3.044-7.08 6.8-7.08 6.8 3.17 6.8 7.08-3.044 7.08-6.8 7.08Z" fill="url(#a)"/><defs><linearGradient id="a" x1="55.127" y1="-105.564" x2="219.759" y2="256.145" gradientUnits="userSpaceOnUse"><stop offset=".245" stop-color="#FF5C00"/><stop offset="1" stop-color="#FFA800"/></linearGradient></defs></svg>