<svg width="164" height="136" viewBox="0 0 164 136" fill="none" xmlns="http://www.w3.org/2000/svg"><path d="M39.562 76.535V58.332h6.594c2.36 0 4.157.429 5.388 1.287 1.23.859 1.848 2.105 1.848 3.737 0 .943-.219 1.747-.656 2.413-.437.667-1.08 1.159-1.93 1.476.958.25 1.694.717 2.207 1.4.511.684.769 1.517.769 2.5 0 1.783-.569 3.124-1.709 4.019-1.139.895-2.826 1.35-5.062 1.368h-7.45v.003Zm4.424-10.614h2.307c.967-.008 1.656-.183 2.067-.528.412-.342.619-.848.619-1.517 0-.768-.223-1.322-.669-1.661-.446-.339-1.164-.507-2.156-.507h-2.168v4.213Zm0 2.875v4.365h2.9c.798 0 1.411-.182 1.84-.545.428-.362.643-.873.643-1.531 0-1.517-.76-2.28-2.283-2.289h-3.1Zm19.05 1.3H60.64v6.439h-4.425V58.332h7.224c2.177 0 3.88.479 5.106 1.436 1.227.957 1.841 2.31 1.841 4.058 0 1.266-.258 2.315-.776 3.148-.515.832-1.325 1.507-2.427 2.022l3.834 7.349v.189h-4.74l-3.241-6.438Zm-2.394-3.375h2.798c.842 0 1.473-.219 1.898-.657.425-.44.637-1.05.637-1.836s-.215-1.402-.643-1.849c-.429-.447-1.059-.67-1.892-.67h-2.798v5.012Zm27.964 1.089c0 1.775-.331 3.345-.996 4.712-.664 1.366-1.607 2.417-2.83 3.156-1.221.738-2.615 1.106-4.18 1.106-1.563 0-2.948-.356-4.16-1.07-1.211-.712-2.154-1.73-2.83-3.056-.675-1.326-1.031-2.846-1.064-4.563V67.07c0-1.783.328-3.357.988-4.719.66-1.363 1.606-2.414 2.836-3.157 1.232-.742 2.634-1.113 4.204-1.113 1.556 0 2.943.367 4.162 1.102 1.218.732 2.166 1.777 2.841 3.13.676 1.355 1.02 2.908 1.029 4.658v.837Zm-4.501-.764c0-1.808-.306-3.181-.916-4.118-.609-.937-1.48-1.406-2.616-1.406-2.218 0-3.391 1.65-3.517 4.95l-.013 1.339c0 1.784.299 3.154.894 4.111.597.959 1.485 1.439 2.66 1.439 1.119 0 1.98-.472 2.586-1.413.606-.942.913-2.294.921-4.063v-.839Zm22.112 9.489h-4.4l-6.505-11.326v11.326h-4.426V58.332h4.426l6.493 11.327V58.332h4.412v18.203Zm7.767-3.375h8.776v3.374h-14.299V74.22l8.75-12.5h-8.8v-3.389h14.259v2.25l-8.686 12.577Zm22.165-4.352h-6.96v4.351h8.22v3.374h-12.646v-18.2h12.67v3.389h-8.244v3.838h6.96v3.249ZM37.627 25.122l-1.821 2.446 6.63 4.94-1.465 1.964-6.628-4.94-1.79 2.4-1.516-1.13 5.073-6.81 1.517 1.13Zm9.256-.369-2.365 2.383.933 1.753-1.843 1.855-4.585-9.8 1.624-1.635 9.853 4.494-1.853 1.867-1.764-.917Zm-3.295.633 1.539-1.55-3.273-1.705 1.734 3.255Zm13.232-7.662c-.06.56-.309 1.156-.746 1.789a7.146 7.146 0 0 1-1.707 1.708c-1.078.782-2.178 1.075-3.301.88-1.122-.19-2.13-.86-3.026-2.002l-.521-.709c-.586-.81-.955-1.623-1.106-2.433-.15-.813-.079-1.574.22-2.288.297-.712.797-1.32 1.497-1.828 1.026-.74 1.991-1.084 2.897-1.024.907.059 1.745.519 2.513 1.383l-1.911 1.383c-.4-.412-.786-.633-1.153-.666-.367-.03-.76.102-1.173.402-.5.36-.731.85-.696 1.465.033.62.332 1.323.897 2.11l.36.499c.593.82 1.18 1.337 1.76 1.546.579.21 1.17.095 1.772-.34.517-.373.818-.766.905-1.179l-.924-1.279-1.38.998-.984-1.362 3.363-2.433 2.444 3.38Zm2.941-2.254 3.78-1.974.872 1.67-5.95 3.108-4.702-9.008 2.172-1.133 3.828 7.337Zm7.855-1.51-2.267.907-3.775-9.434 2.269-.908 3.773 9.435Zm9.449-2.81-2.352.633-5.12-5.166 1.643 6.101-2.364.638-2.641-9.809 2.364-.637 5.113 5.17-1.643-6.104 2.357-.636 2.643 9.81Zm6.968-5.158-3.827.44.276 2.412 4.52-.52.214 1.872-6.953.8L77.104.905 84.07.104l.216 1.877-4.534.521.244 2.127 3.827-.44.21 1.803Zm11.156 2.772-3.342-.31-.76 1.833-2.604-.243L93.139.277l2.293.212 2.79 10.465-2.62-.245-.413-1.945Zm-2.582-2.14 2.174.205-.76-3.609-1.414 3.404Zm14.237 2.759 2.839-5.823 2.338.656-4.812 9.201-2.448-.684.252-5.943-2.844 5.217-2.44-.683.655-10.367 2.345.656-.595 6.45 3.062-5.76 2.001.563-.353 6.517Zm8.616 5.667-3.021-1.46-1.353 1.45-2.355-1.14 7.782-7.52 2.071 1.004-1.05 10.781-2.365-1.147.291-1.967Zm-1.669-2.91 1.966.954.549-3.649-2.515 2.696Zm9.168 5.482-1.087-.757-2.055 2.948-2.008-1.398 5.804-8.339 3.282 2.287c.988.688 1.608 1.446 1.86 2.273.252.826.1 1.639-.458 2.44-.402.58-.855.98-1.355 1.197-.5.218-1.083.27-1.747.159l-.605 4.577-.06.087-2.154-1.5.583-3.974Zm-.01-2.303 1.27.886c.383.266.74.364 1.073.297.333-.066.624-.279.874-.639s.349-.71.297-1.05c-.051-.34-.267-.64-.644-.904l-1.272-.887-1.598 2.297Zm2.153 8.287 7.015-7.35 2.366 2.258c.65.622 1.093 1.326 1.33 2.115.237.788.246 1.588.026 2.405-.222.815-.65 1.558-1.282 2.228l-.323.337c-.642.673-1.36 1.14-2.152 1.401a4.326 4.326 0 0 1-2.398.106 4.728 4.728 0 0 1-2.165-1.194l-2.417-2.306Zm7.481-4.292-4.409 4.619.616.589c.507.484 1.07.675 1.689.574.618-.102 1.268-.509 1.948-1.223l.303-.319c.68-.708 1.052-1.374 1.123-1.994.073-.62-.153-1.18-.676-1.677l-.594-.569Zm4.176 12.946c.283-.219.427-.492.43-.813.003-.322-.104-.803-.326-1.437a12.464 12.464 0 0 1-.464-1.617c-.294-1.438.007-2.502.901-3.192a2.387 2.387 0 0 1 1.48-.521c.54-.005 1.089.157 1.645.487.557.327 1.064.788 1.521 1.381.446.578.744 1.176.893 1.795.148.617.13 1.2-.056 1.748a2.891 2.891 0 0 1-1.011 1.39l-1.495-1.934c.329-.252.506-.549.53-.887.026-.34-.092-.683-.358-1.024-.267-.345-.556-.562-.863-.642-.309-.083-.58-.034-.816.149-.207.158-.307.415-.304.764.003.351.131.873.383 1.566.251.694.41 1.3.48 1.815.171 1.255-.183 2.223-1.063 2.902-.703.546-1.459.706-2.27.486-.811-.22-1.576-.792-2.289-1.715-.504-.653-.842-1.331-1.017-2.041-.174-.709-.161-1.355.039-1.936.201-.58.566-1.076 1.097-1.484l1.501 1.941c-.431.335-.661.69-.694 1.072-.031.38.146.82.533 1.321.247.32.511.52.794.6.282.076.549.02.799-.174ZM77.946 135.218 71 133.798l.307-1.504 3.889-2.709c.971-.737 1.513-1.37 1.621-1.897.087-.43.06-.774-.081-1.035-.143-.263-.39-.43-.745-.502-.351-.071-.667.019-.947.272-.278.252-.464.604-.557 1.05l-2.31-.473a3.343 3.343 0 0 1 .803-1.597 3.275 3.275 0 0 1 1.52-.953c.601-.182 1.237-.203 1.907-.067 1.076.22 1.854.638 2.334 1.254.479.616.625 1.388.435 2.317a3.188 3.188 0 0 1-.453 1.1 5.078 5.078 0 0 1-.92 1.031c-.39.346-.999.792-1.82 1.333l-1.59 1.222 3.917.801-.364 1.777Zm9.691-3.403c-.083 1.372-.456 2.409-1.114 3.115-.662.704-1.552 1.022-2.67.955-1.129-.071-1.979-.498-2.55-1.281-.572-.786-.816-1.859-.734-3.22l.114-1.852c.083-1.37.454-2.408 1.114-3.114.662-.703 1.553-1.021 2.677-.954 1.123.068 1.97.497 2.543 1.281.57.785.816 1.86.733 3.225l-.113 1.845Zm-2.216-2.294c.045-.729-.018-1.28-.185-1.651-.169-.372-.459-.569-.873-.593-.403-.027-.707.124-.912.445-.204.322-.332.822-.388 1.502l-.157 2.59c-.046.756.015 1.316.185 1.678.168.363.459.556.872.58.398.025.704-.128.916-.457.21-.328.34-.858.39-1.585l.152-2.509Zm11.463 5.85-7.065.566-.123-1.529 2.983-3.683c.728-.977 1.071-1.735 1.028-2.272-.034-.438-.156-.762-.364-.972-.209-.211-.494-.304-.856-.276-.357.029-.634.206-.833.526-.198.32-.278.709-.243 1.163l-2.351.189a3.358 3.358 0 0 1 .329-1.759 3.29 3.29 0 0 1 1.195-1.339 3.855 3.855 0 0 1 1.816-.592c1.094-.089 1.956.097 2.589.557.631.457.984 1.16 1.061 2.107.03.398-.011.791-.13 1.181a5.15 5.15 0 0 1-.597 1.245c-.28.441-.74 1.035-1.38 1.785l-1.186 1.616 3.984-.32.143 1.807Zm3.139-6.743 1.084-.241c.857-.192 1.193-.706 1.006-1.546-.074-.327-.234-.571-.484-.733-.252-.161-.563-.201-.935-.118-.304.068-.55.215-.734.444a.832.832 0 0 0-.191.736l-2.294.51a2.407 2.407 0 0 1 .125-1.493c.2-.473.53-.883.996-1.226a4.21 4.21 0 0 1 1.623-.721c1.103-.247 2.027-.189 2.768.175.745.363 1.215.985 1.41 1.866.095.429.055.862-.123 1.296-.177.437-.488.83-.935 1.177.568.074 1.047.271 1.434.591.386.323.641.77.77 1.342.197.886.014 1.668-.55 2.351-.561.683-1.397 1.147-2.506 1.395a4.52 4.52 0 0 1-1.89.032c-.611-.124-1.108-.374-1.492-.747a2.735 2.735 0 0 1-.762-1.4l2.309-.513c.067.305.248.542.544.708.294.167.621.211.98.132.404-.09.701-.272.893-.552a1.16 1.16 0 0 0 .168-.942c-.11-.5-.315-.826-.611-.978-.297-.156-.664-.182-1.104-.086l-1.118.25-.381-1.709Z" fill="#fff"/><mask id="a" style="mask-type:luminance" maskUnits="userSpaceOnUse" x="0" y="40" width="67" height="94"><path d="m52.989 133.02 13.575-5.718-4.287-11.431-5.001-52.796-22.759-16.148-6.16 2.321-4.821-8.303L.115 80.86l52.874 52.16Z" fill="#fff"/></mask><g mask="url(#a)"><path fill-rule="evenodd" clip-rule="evenodd" d="M114.083 10.928c-1.087 1.957-5.457 2.433-8.423 1.707 1.49-1.344 4.688-2.624 7.435-1.95l.988.243-.868-.527c-2.415-1.461-3.747-4.616-3.83-6.61 2.605 1.579 5.337 4.996 4.698 7.137ZM88.065 129.274c.931 0 1.684.747 1.684 1.671a1.68 1.68 0 0 1-1.686 1.672 1.675 1.675 0 0 1-1.684-1.67 1.68 1.68 0 0 1 1.686-1.673Zm22.274-120.08-.767-.663c-2.133-1.846-5.566-2.156-7.509-1.636 2.302 1.992 6.407 3.549 8.276 2.299Zm-44.326.018c1.867 1.249 5.975-.311 8.277-2.304-1.942-.518-5.375-.207-7.51 1.642l-.767.662ZM83.73 130.968c-.517 2.173-4.598 3.799-7.652 3.889 1.071-1.692 3.805-3.776 6.635-3.86l1.017-.029c.036-2.234-3.52-4.797-6.458-5.623.621 1.899 2.756 4.582 5.48 5.349l.978.274Zm-6.352-.838c.262-2.219-3.015-5.125-5.855-6.239.425 1.95 2.276 4.833 4.909 5.866l.946.373-1.016-.073c-2.823-.199-5.754 1.601-6.993 3.175 3.049.216 7.273-.994 8.009-3.102Zm-6.236-1.47c-.947 2.025-5.273 2.807-8.283 2.285 1.391-1.444 4.49-2.94 7.279-2.461l1.004.176c.486-2.182-2.48-5.402-5.19-6.793.223 1.984 1.774 5.037 4.286 6.327l.904.466Zm-6.053-2.086c.704-2.123-1.919-5.622-4.474-7.277.021 1.997 1.253 5.188 3.623 6.724l.851.553-.98-.273c-2.726-.759-5.96.424-7.491 1.721 2.94.818 7.322.475 8.471-1.448Zm-5.813-2.682c-1.337 1.8-5.731 1.703-8.574.598 1.654-1.139 4.993-1.99 7.628-.966l.946.368c.917-2.04-1.338-5.784-3.713-7.687-.181 1.989.72 5.287 2.922 7.053l.791.634Zm-5.508-3.247c1.12-1.938-.745-5.887-2.913-8.02-.383 1.96.18 5.335 2.19 7.309l.723.711-.905-.46c-2.515-1.285-5.924-.771-7.685.197 2.714 1.386 7.077 1.92 8.59.263Zm-5.152-3.781c-1.673 1.497-5.958.528-8.52-1.12 1.852-.787 5.293-.959 7.666.57l.854.55-.647-.779c-1.8-2.168-2.017-5.58-1.437-7.491 1.941 2.338 3.394 6.453 2.084 8.27Zm-4.74-4.276c-1.816 1.323-5.981-.068-8.363-1.967 1.92-.597 5.363-.424 7.569 1.334l.794.633c1.487-1.678.46-5.917-1.234-8.438-.77 1.845-.9 5.262.67 7.598l.564.84Zm-4.283-4.728c-1.94 1.132-5.943-.668-8.118-2.793 1.971-.403 5.378.114 7.394 2.084l.724.709c1.652-1.522 1.059-5.842-.371-8.519-.954 1.759-1.43 5.146-.106 7.626l.477.893Zm-3.78-5.135c-2.045.936-5.844-1.257-7.793-3.588 2.002-.205 5.339.651 7.145 2.813l.648.775-.384-.934c-1.066-2.603-.247-5.923.879-7.58 1.151 2.807 1.301 7.166-.495 8.514Zm-3.24-5.484-.285-.97c-.796-2.693.352-5.919 1.642-7.453.86 2.907.568 7.26-1.357 8.423l-.567-.84c-1.577-2.33-4.81-3.513-6.821-3.511 1.701 2.514 5.258 5.075 7.388 4.351Zm-2.665-5.784c-2.193.51-5.472-2.393-6.91-5.066 2.002.197 5.098 1.699 6.431 4.176l.479.89c2.031-.965 2.764-5.265 2.205-8.243-1.438 1.397-2.91 4.49-2.391 7.251l.186.992Zm-2.066-6.017-.086-1.008c-.236-2.797 1.542-5.73 3.116-6.977.254 3.02-.912 7.229-3.03 7.985l-.387-.936c-1.075-2.597-4-4.4-5.973-4.796 1.158 2.803 4.127 6.019 6.36 5.732Zm-1.444-6.196.017-1.01c.048-2.809 2.115-5.547 3.807-6.632-.053 3.03-1.639 7.1-3.824 7.642l-.29-.969c-.805-2.691-3.535-4.778-5.456-5.371.868 2.906 3.496 6.403 5.746 6.34Zm-.808-6.31c-2.245-.162-4.502-3.903-5.072-6.882 1.851.782 4.354 3.13 4.882 5.89l.19.992c2.229-.319 4.22-4.21 4.58-7.219-1.792.909-4.125 3.426-4.46 6.215l-.12 1.004Zm-.162-6.357c-2.219-.386-4.085-4.335-4.348-7.353 1.762.961 4.015 3.547 4.259 6.347l.089 1.006c2.248-.096 4.625-3.767 5.288-6.726-1.876.724-4.453 2.997-5.068 5.74l-.22.986Zm.481-6.342c-2.166-.607-3.623-4.72-3.577-7.751 1.656 1.134 3.633 3.931 3.593 6.74l-.016 1.011c2.247.13 4.984-3.287 5.946-6.164-1.94.533-4.735 2.539-5.626 5.204l-.32.96Zm1.124-6.264.416-.921c1.156-2.565 4.14-4.279 6.123-4.618-1.247 2.769-4.316 5.893-6.539 5.539l.117-1.001c.326-2.79-1.357-5.773-2.891-7.066-.35 3.01.681 7.248 2.774 8.067Zm1.755-6.117c-2-1.024-2.596-5.346-1.94-8.307 1.392 1.441 2.765 4.577 2.158 7.32l-.218.987c2.174.573 5.545-2.23 7.068-4.859-2.007.137-5.15 1.546-6.56 3.982l-.508.877Zm2.365-5.914c-1.885-1.22-2.04-5.579-1.087-8.459 1.24 1.571 2.287 4.83 1.404 7.499l-.317.96c2.106.788 5.743-1.665 7.526-4.128-2.011-.062-5.28 1.025-6.931 3.306l-.595.822Zm2.955-5.648c2.014.996 5.881-1.081 7.904-3.354-1.994-.266-5.357.49-7.232 2.597l-.672.757.412-.924c1.149-2.567.438-5.913-.637-7.601-1.238 2.771-1.527 7.124.225 8.525Zm3.51-5.322c-1.6-1.57-.87-5.872.644-8.506.897 1.787 1.266 5.187-.139 7.626l-.505.88.748-.686c2.077-1.909 5.499-2.324 7.456-1.863-2.242 2.06-6.3 3.739-8.204 2.549Zm4.034-4.948.813-.61c2.261-1.691 5.707-1.761 7.607-1.107-2.439 1.827-6.647 3.093-8.42 1.717l.591-.824c1.643-2.287 1.623-5.707.912-7.574-1.773 2.47-2.936 6.677-1.503 8.398Zm4.516-4.518c-1.252-1.856.332-5.926 2.347-8.206.517 1.929.191 5.334-1.676 7.446l-.671.76c1.624 1.546 5.94.707 8.551-.864-1.824-.843-5.26-1.116-7.681.341l-.87.523Zm4.951-4.046c-1.057-1.971.931-5.863 3.167-7.928.32 1.971-.351 5.325-2.423 7.241l-.744.687.919-.434c2.557-1.209 5.945-.594 7.675.427-2.76 1.304-7.137 1.707-8.594.007Zm5.334-3.53.959-.34c2.666-.946 5.976.003 7.593 1.192-2.877 1.021-7.273.985-8.552-.852l.81-.611c2.256-1.699 3.263-4.97 3.146-6.963-2.434 1.834-4.807 5.508-3.956 7.574Zm5.666-2.978c-.637-2.142 2.096-5.56 4.704-7.14-.085 1.992-1.42 5.148-3.835 6.612l-.869.528.989-.243c2.748-.677 5.944.601 7.432 1.944-2.967.729-7.335.254-8.421-1.701Zm30.25 120.014c.516 2.171 4.596 3.794 7.65 3.883-1.07-1.692-3.803-3.773-6.633-3.855l-1.017-.028c-.034-2.234 3.524-4.8 6.463-5.629-.622 1.899-2.76 4.583-5.484 5.353l-.979.276Zm6.354-.844c-.261-2.219 3.019-5.128 5.86-6.245-.425 1.952-2.281 4.835-4.913 5.87l-.947.375 1.016-.075c2.823-.201 5.754 1.597 6.99 3.17-3.049.22-7.273-.985-8.006-3.095Zm6.236-1.475.904-.467c2.515-1.293 4.066-4.346 4.293-6.331-2.713 1.395-5.681 4.617-5.197 6.798l1.003-.175c2.788-.482 5.887 1.012 7.277 2.454-3.01.524-7.336-.253-8.28-2.279Zm6.056-2.09c-.703-2.121 1.923-5.623 4.481-7.281-.023 1.997-1.258 5.19-3.628 6.727l-.853.554.98-.274c2.725-.76 5.96.419 7.49 1.716-2.942.818-7.325.48-8.47-1.442Zm5.814-2.685c1.336 1.798 5.73 1.698 8.573.59-1.653-1.138-4.992-1.986-7.626-.96l-.947.37c-.916-2.04 1.343-5.785 3.72-7.69.179 1.988-.726 5.288-2.927 7.055l-.793.635Zm5.511-3.252c-1.117-1.937.75-5.888 2.92-8.021.382 1.96-.184 5.334-2.195 7.31l-.725.711.906-.461c2.517-1.287 5.924-.776 7.686.191-2.717 1.387-7.08 1.924-8.592.27Zm5.155-3.786c1.671 1.496 5.958.525 8.521-1.127-1.85-.785-5.291-.954-7.667.577l-.854.55.648-.778c1.8-2.17 2.022-5.582 1.443-7.493-1.943 2.339-3.398 6.454-2.091 8.271Zm4.745-4.281.565-.84c1.571-2.337 1.444-5.754.675-7.6-1.695 2.524-2.727 6.764-1.24 8.44l.793-.633c2.207-1.76 5.649-1.937 7.57-1.341-2.381 1.901-6.548 3.295-8.363 1.974Zm4.286-4.731c1.94 1.131 5.944-.673 8.123-2.799-1.971-.401-5.379.119-7.396 2.09l-.727.709c-1.648-1.52-1.053-5.842.379-8.52.953 1.757 1.427 5.144.1 7.625l-.479.895Zm3.784-5.138c2.045.933 5.846-1.261 7.798-3.595-2.002-.203-5.339.655-7.146 2.818l-.652.777.385-.934c1.068-2.603.254-5.924-.873-7.58-1.153 2.809-1.307 7.167.488 8.514Zm3.245-5.487c2.13.723 5.69-1.84 7.394-4.357-2.013-.001-5.246 1.184-6.826 3.517l-.568.84c-1.923-1.16-2.212-5.513-1.35-8.423 1.288 1.535 2.435 4.759 1.637 7.452l-.287.971Zm2.67-5.785c2.193.508 5.474-2.398 6.914-5.072-2.001.199-5.1 1.703-6.434 4.182l-.48.89c-2.03-.962-2.76-5.262-2.197-8.242 1.438 1.396 2.907 4.489 2.385 7.25l-.188.992Zm2.071-6.019c2.233.284 5.203-2.934 6.364-5.737-1.972.397-4.901 2.203-5.977 4.8l-.387.937c-2.118-.754-3.281-4.961-3.023-7.983 1.572 1.246 3.347 4.177 3.109 6.974l-.086 1.009Zm1.45-6.199c2.25.062 4.88-3.437 5.75-6.344-1.923.594-4.653 2.683-5.46 5.376l-.29.968c-2.184-.538-3.767-4.607-3.818-7.637 1.691 1.082 3.755 3.82 3.801 6.627l.017 1.01Zm.813-6.31c2.246-.162 4.506-3.907 5.079-6.884-1.852.783-4.358 3.133-4.889 5.893l-.19.991c-2.229-.317-4.217-4.207-4.574-7.215 1.791.907 4.123 3.423 4.454 6.211l.12 1.004Zm.169-6.357-.222-.985c-.613-2.742-3.188-5.013-5.063-5.736.662 2.957 3.036 6.627 5.285 6.721l.088-1.005c.247-2.8 2.502-5.388 4.264-6.35-.265 3.018-2.135 6.968-4.352 7.355Zm-.478-6.341c2.168-.609 3.628-4.723 3.586-7.754-1.657 1.134-3.637 3.935-3.598 6.742l.012 1.012c-2.247.131-4.981-3.283-5.94-6.159 1.94.532 4.733 2.535 5.62 5.2l.32.959Zm-1.12-6.263c2.095-.821 3.13-5.06 2.782-8.07-1.534 1.294-3.22 4.279-2.897 7.069l.115 1.001c-2.221.357-5.288-2.767-6.535-5.533 1.984.337 4.967 2.049 6.12 4.612l.415.921Zm-1.747-6.116c2-1.025 2.6-5.347 1.947-8.308-1.394 1.443-2.768 4.58-2.164 7.321l.217.987c-2.175.575-5.544-2.225-7.064-4.853 2.007.135 5.149 1.542 6.557 3.976l.507.877Zm-2.361-5.911-.593-.822c-1.65-2.28-4.917-3.365-6.929-3.3 1.78 2.462 5.416 4.912 7.522 4.122l-.316-.959c-.88-2.668.17-5.927 1.412-7.5.948 2.879.791 7.237-1.096 8.459Zm-2.949-5.646c-2.015.997-5.881-1.077-7.901-3.348 1.994-.268 5.356.485 7.227 2.591l.674.757-.411-.923c-1.147-2.567-.433-5.913.643-7.601 1.235 2.77 1.521 7.121-.232 8.524Zm-3.507-5.32c1.603-1.571.877-5.873-.636-8.504-.898 1.788-1.268 5.188.133 7.626l.503.878-.747-.686c-2.076-1.907-5.497-2.32-7.456-1.857 2.242 2.059 6.299 3.735 8.203 2.543Zm-4.03-4.943-.811-.608c-2.26-1.689-5.706-1.757-7.607-1.102 2.438 1.825 6.645 3.086 8.418 1.71l-.59-.823c-1.641-2.285-1.618-5.705-.906-7.574 1.772 2.467 2.932 6.674 1.496 8.397Zm-4.511-4.517c1.253-1.857-.327-5.926-2.34-8.204-.52 1.93-.197 5.334 1.67 7.444l.67.76c-1.625 1.547-5.939.712-8.55-.857 1.825-.844 5.26-1.12 7.68.334l.87.523Zm-4.947-4.04c1.058-1.973-.928-5.863-3.162-7.927-.321 1.973.346 5.324 2.417 7.239l.745.688-.919-.434c-2.556-1.207-5.946-.589-7.676.434 2.759 1.302 7.135 1.702 8.595 0Zm-5.332-3.526c.853-2.067-1.517-5.738-3.95-7.571-.12 1.993.886 5.264 3.139 6.96l.811.611c-1.278 1.839-5.676 1.878-8.551.859 1.618-1.19 4.928-2.141 7.594-1.199l.957.34Z" fill="#fff"/></g><mask id="b" style="mask-type:luminance" maskUnits="userSpaceOnUse" x="109" y="31" width="55" height="103"><path d="m110.865 55.218 28.652-9.628 8.305 3.66 15.267-17.768-2.923 38.66-11.431 40.013-29.296 22.866-10.003-5.717 4.287-12.862-2.858-59.224Z" fill="#fff"/></mask><g mask="url(#b)"><path fill-rule="evenodd" clip-rule="evenodd" d="M114.083 10.93c-1.087 1.957-5.457 2.433-8.423 1.707 1.49-1.344 4.687-2.624 7.434-1.95l.989.243-.869-.527c-2.414-1.461-3.747-4.616-3.83-6.61 2.606 1.579 5.338 4.996 4.699 7.137ZM88.064 129.276c.932 0 1.685.747 1.685 1.671a1.68 1.68 0 0 1-1.686 1.672 1.675 1.675 0 0 1-1.684-1.67 1.68 1.68 0 0 1 1.685-1.673ZM110.34 9.196l-.767-.663c-2.133-1.846-5.566-2.156-7.509-1.636 2.301 1.992 6.407 3.549 8.276 2.299Zm-44.326.018c1.867 1.249 5.974-.311 8.277-2.304-1.943-.518-5.376-.207-7.51 1.642l-.767.662ZM83.73 130.97c-.517 2.173-4.598 3.799-7.653 3.889 1.072-1.692 3.806-3.776 6.636-3.86l1.017-.029c.036-2.234-3.52-4.797-6.458-5.623.621 1.899 2.755 4.582 5.48 5.349l.978.274Zm-6.353-.838c.263-2.219-3.014-5.125-5.854-6.239.424 1.95 2.276 4.833 4.909 5.866l.945.373-1.015-.073c-2.823-.199-5.755 1.601-6.993 3.175 3.048.216 7.273-.994 8.008-3.102Zm-6.235-1.47c-.947 2.025-5.273 2.807-8.283 2.285 1.391-1.444 4.49-2.94 7.278-2.461l1.005.176c.485-2.182-2.48-5.402-5.19-6.793.222 1.984 1.774 5.037 4.285 6.327l.905.466Zm-6.053-2.086c.704-2.123-1.919-5.622-4.474-7.277.02 1.997 1.252 5.188 3.622 6.724l.852.553-.98-.273c-2.726-.759-5.96.424-7.492 1.721 2.94.818 7.323.475 8.472-1.448Zm-5.813-2.682c-1.337 1.8-5.732 1.703-8.574.598 1.654-1.139 4.992-1.99 7.628-.966l.946.368c.917-2.04-1.339-5.784-3.713-7.687-.181 1.989.72 5.287 2.921 7.053l.792.634Zm-5.509-3.247c1.12-1.938-.744-5.887-2.913-8.02-.382 1.96.18 5.335 2.19 7.309l.723.711-.904-.46c-2.516-1.285-5.924-.771-7.686.197 2.715 1.386 7.078 1.92 8.59.263Zm-5.151-3.781c-1.673 1.497-5.959.528-8.52-1.12 1.851-.787 5.293-.959 7.666.57l.854.55-.647-.779c-1.8-2.168-2.017-5.58-1.437-7.491 1.941 2.338 3.394 6.453 2.084 8.27Zm-4.74-4.276c-1.816 1.323-5.981-.068-8.363-1.967 1.92-.597 5.363-.424 7.569 1.334l.794.633c1.487-1.678.46-5.917-1.234-8.438-.77 1.845-.9 5.262.67 7.598l.564.84Zm-4.283-4.728c-1.94 1.132-5.943-.668-8.119-2.793 1.972-.403 5.38.114 7.395 2.084l.724.709c1.651-1.522 1.059-5.842-.371-8.519-.955 1.759-1.43 5.146-.106 7.626l.477.893Zm-3.78-5.135c-2.046.936-5.844-1.257-7.793-3.588 2.002-.205 5.339.651 7.144 2.813l.65.775-.385-.934c-1.066-2.603-.247-5.923.878-7.58 1.152 2.807 1.302 7.166-.494 8.514Zm-3.24-5.484-.286-.97c-.795-2.693.353-5.919 1.643-7.453.86 2.907.567 7.26-1.357 8.423l-.567-.84c-1.577-2.33-4.81-3.513-6.822-3.512 1.702 2.515 5.26 5.076 7.39 4.352Zm-2.666-5.784c-2.192.51-5.471-2.393-6.91-5.066 2.003.197 5.099 1.698 6.432 4.176l.478.89c2.032-.965 2.765-5.265 2.206-8.243-1.439 1.397-2.91 4.49-2.391 7.251l.185.992Zm-2.065-6.017-.086-1.008c-.236-2.797 1.541-5.73 3.116-6.977.254 3.02-.912 7.229-3.03 7.985l-.387-.936c-1.075-2.597-4-4.4-5.973-4.796 1.158 2.803 4.127 6.019 6.36 5.732Zm-1.445-6.196.018-1.01c.048-2.809 2.115-5.547 3.807-6.632-.053 3.03-1.639 7.1-3.825 7.642l-.29-.969c-.804-2.691-3.534-4.778-5.455-5.371.868 2.905 3.495 6.403 5.745 6.34Zm-.807-6.31c-2.245-.162-4.503-3.903-5.073-6.882 1.852.782 4.355 3.13 4.883 5.89l.19.992c2.229-.319 4.22-4.21 4.58-7.219-1.793.909-4.126 3.426-4.46 6.215l-.12 1.004Zm-.163-6.357c-2.218-.386-4.084-4.335-4.347-7.353 1.762.961 4.015 3.547 4.259 6.347l.088 1.006c2.249-.096 4.626-3.767 5.289-6.726-1.876.724-4.453 2.997-5.069 5.74l-.22.986Zm.482-6.342c-2.166-.607-3.623-4.72-3.577-7.751 1.655 1.134 3.633 3.931 3.592 6.74l-.015 1.011c2.247.13 4.984-3.287 5.946-6.164-1.94.533-4.735 2.538-5.626 5.204l-.32.96Zm1.124-6.264.416-.922c1.155-2.564 4.14-4.278 6.123-4.617-1.248 2.769-4.316 5.893-6.539 5.539l.117-1.002c.326-2.79-1.357-5.772-2.891-7.065-.35 3.01.681 7.248 2.774 8.067Zm1.754-6.117c-2-1.025-2.595-5.346-1.94-8.307 1.393 1.441 2.766 4.577 2.159 7.32l-.219.987c2.175.573 5.546-2.23 7.069-4.859-2.007.137-5.15 1.546-6.56 3.982l-.509.877Zm2.366-5.915c-1.886-1.22-2.04-5.578-1.087-8.458 1.24 1.571 2.287 4.83 1.404 7.498l-.317.96c2.106.79 5.743-1.664 7.526-4.127-2.012-.063-5.28 1.025-6.932 3.306l-.594.822Zm2.954-5.647c2.015.996 5.882-1.081 7.905-3.354-1.995-.266-5.358.49-7.232 2.597l-.673.757.413-.924c1.149-2.567.437-5.913-.637-7.601-1.239 2.771-1.527 7.124.224 8.525Zm3.51-5.322c-1.6-1.57-.87-5.872.645-8.506.897 1.787 1.265 5.187-.139 7.625l-.506.88.749-.685c2.077-1.909 5.498-2.325 7.456-1.863-2.242 2.06-6.3 3.738-8.205 2.549Zm4.035-4.948.813-.61c2.26-1.691 5.707-1.761 7.607-1.107-2.439 1.827-6.648 3.093-8.42 1.717l.591-.824c1.643-2.287 1.623-5.707.911-7.574-1.772 2.47-2.935 6.677-1.502 8.398Zm4.515-4.518c-1.251-1.856.333-5.926 2.347-8.206.518 1.929.192 5.334-1.675 7.446l-.672.76c1.625 1.546 5.94.707 8.552-.864-1.825-.843-5.26-1.116-7.682.341l-.87.523Zm4.952-4.046c-1.057-1.971.931-5.863 3.167-7.928.32 1.971-.352 5.325-2.423 7.241l-.744.687.918-.434c2.557-1.209 5.946-.595 7.676.427-2.76 1.304-7.137 1.707-8.594.007Zm5.334-3.53.959-.34c2.665-.946 5.975.003 7.592 1.191-2.877 1.022-7.272.986-8.55-.85l.81-.612c2.255-1.699 3.262-4.97 3.145-6.963-2.434 1.834-4.807 5.508-3.956 7.574Zm5.666-2.979c-.637-2.14 2.096-5.56 4.704-7.14-.086 1.993-1.42 5.15-3.836 6.613l-.868.527.988-.242c2.749-.678 5.945.601 7.433 1.944-2.967.729-7.336.254-8.421-1.702Zm30.25 120.015c.516 2.171 4.596 3.794 7.65 3.883-1.07-1.692-3.803-3.773-6.633-3.855l-1.017-.028c-.034-2.234 3.524-4.8 6.463-5.629-.622 1.899-2.76 4.583-5.485 5.353l-.978.276Zm6.354-.844c-.261-2.219 3.019-5.128 5.86-6.245-.426 1.952-2.281 4.835-4.913 5.87l-.947.375 1.016-.075c2.823-.201 5.754 1.597 6.99 3.17-3.049.22-7.273-.985-8.006-3.095Zm6.236-1.475.904-.467c2.514-1.293 4.066-4.346 4.293-6.331-2.713 1.395-5.682 4.617-5.197 6.798l1.003-.175c2.788-.482 5.887 1.012 7.277 2.454-3.01.524-7.336-.253-8.28-2.279Zm6.055-2.09c-.702-2.121 1.923-5.623 4.482-7.281-.023 1.997-1.259 5.19-3.629 6.727l-.853.554.98-.274c2.726-.76 5.96.419 7.49 1.716-2.941.818-7.324.48-8.47-1.442Zm5.815-2.685c1.335 1.798 5.73 1.698 8.573.59-1.653-1.138-4.992-1.986-7.626-.96l-.947.37c-.916-2.04 1.343-5.785 3.72-7.69.178 1.988-.726 5.288-2.927 7.055l-.793.635Zm5.511-3.252c-1.117-1.937.75-5.888 2.92-8.021.382 1.96-.184 5.334-2.196 7.31l-.724.711.906-.461c2.517-1.287 5.924-.776 7.686.191-2.718 1.387-7.08 1.924-8.592.27Zm5.154-3.786c1.672 1.496 5.959.525 8.522-1.127-1.85-.785-5.292-.954-7.667.577l-.855.55.649-.778c1.8-2.17 2.021-5.582 1.443-7.493-1.943 2.339-3.399 6.454-2.092 8.271Zm4.746-4.281.564-.84c1.572-2.337 1.445-5.754.676-7.6-1.696 2.524-2.727 6.764-1.24 8.44l.793-.633c2.207-1.76 5.649-1.937 7.57-1.341-2.381 1.901-6.549 3.295-8.363 1.974Zm4.286-4.731c1.94 1.131 5.944-.673 8.123-2.799-1.972-.401-5.379.119-7.396 2.09l-.727.709c-1.649-1.52-1.053-5.842.378-8.52.953 1.757 1.428 5.144.1 7.625l-.478.895Zm3.784-5.138c2.044.933 5.846-1.261 7.797-3.595-2.001-.203-5.338.655-7.145 2.818l-.652.777.384-.934c1.069-2.603.255-5.924-.872-7.58-1.153 2.809-1.308 7.167.488 8.514Zm3.244-5.487c2.13.723 5.69-1.84 7.395-4.357-2.013-.001-5.246 1.184-6.826 3.517l-.569.84c-1.922-1.16-2.211-5.513-1.35-8.423 1.289 1.535 2.436 4.759 1.638 7.452l-.288.971Zm2.67-5.785c2.193.508 5.475-2.398 6.915-5.072-2.002.199-5.1 1.703-6.435 4.181l-.48.89c-2.03-.96-2.76-5.26-2.197-8.24 1.439 1.395 2.907 4.488 2.386 7.25l-.189.99Zm2.072-6.019c2.233.284 5.203-2.934 6.364-5.737-1.973.397-4.901 2.203-5.977 4.8l-.387.937c-2.119-.754-3.282-4.962-3.023-7.983 1.571 1.246 3.347 4.177 3.109 6.974l-.086 1.009Zm1.45-6.199c2.25.062 4.88-3.437 5.75-6.344-1.923.594-4.653 2.683-5.46 5.376l-.29.968c-2.184-.538-3.767-4.607-3.819-7.637 1.692 1.082 3.756 3.82 3.802 6.627l.017 1.01Zm.813-6.31c2.245-.162 4.505-3.907 5.078-6.884-1.851.783-4.357 3.133-4.888 5.893l-.19.991c-2.229-.317-4.217-4.207-4.575-7.215 1.792.907 4.123 3.422 4.455 6.211l.12 1.004Zm.168-6.357-.221-.986c-.613-2.74-3.189-5.012-5.063-5.735.661 2.957 3.036 6.627 5.284 6.721l.089-1.005c.247-2.8 2.501-5.388 4.264-6.35-.266 3.018-2.136 6.968-4.353 7.355Zm-.477-6.341c2.167-.609 3.627-4.723 3.586-7.755-1.657 1.135-3.637 3.936-3.599 6.743l.013 1.012c-2.247.131-4.981-3.283-5.94-6.159 1.94.532 4.733 2.535 5.62 5.2l.32.959Zm-1.12-6.263c2.094-.822 3.13-5.06 2.782-8.07-1.535 1.294-3.22 4.279-2.898 7.069l.116 1.001c-2.221.357-5.288-2.767-6.536-5.533 1.985.337 4.968 2.049 6.12 4.611l.416.922Zm-1.747-6.116c2-1.026 2.6-5.347 1.947-8.308-1.394 1.442-2.768 4.58-2.164 7.321l.217.987c-2.176.575-5.544-2.226-7.064-4.853 2.007.135 5.148 1.542 6.557 3.976l.507.877Zm-2.361-5.911-.593-.822c-1.65-2.28-4.917-3.365-6.929-3.3 1.78 2.462 5.416 4.912 7.522 4.122l-.316-.959c-.88-2.668.17-5.927 1.411-7.5.949 2.879.792 7.237-1.095 8.459Zm-2.949-5.646c-2.016.997-5.881-1.077-7.901-3.349 1.994-.267 5.355.486 7.227 2.592l.674.757-.411-.923c-1.148-2.567-.433-5.913.642-7.601 1.236 2.77 1.522 7.121-.231 8.524Zm-3.507-5.32c1.603-1.571.877-5.873-.636-8.504-.898 1.788-1.268 5.188.133 7.626l.503.878-.747-.686c-2.076-1.907-5.497-2.32-7.456-1.857 2.241 2.059 6.299 3.734 8.203 2.543Zm-4.03-4.943-.812-.608c-2.26-1.689-5.705-1.758-7.607-1.102 2.439 1.825 6.646 3.086 8.419 1.71l-.59-.823c-1.642-2.285-1.619-5.705-.906-7.574 1.772 2.467 2.932 6.674 1.496 8.397Zm-4.512-4.517c1.253-1.857-.327-5.926-2.34-8.204-.52 1.93-.197 5.334 1.67 7.444l.67.76c-1.624 1.547-5.938.712-8.55-.857 1.826-.844 5.26-1.12 7.68.334l.87.523Zm-4.947-4.04c1.059-1.973-.927-5.863-3.161-7.927-.322 1.973.346 5.324 2.417 7.238l.744.69-.918-.435c-2.556-1.207-5.946-.589-7.676.434 2.759 1.302 7.134 1.701 8.594 0Zm-5.331-3.526c.853-2.067-1.517-5.738-3.95-7.571-.12 1.993.886 5.264 3.138 6.96l.812.611c-1.279 1.839-5.676 1.877-8.552.859 1.619-1.19 4.929-2.142 7.595-1.199l.957.34Z" fill="#fff"/></g><path fill-rule="evenodd" clip-rule="evenodd" d="m148.27 49.918.046-1.013c.128-2.818-1.754-5.704-3.366-6.907-.138 3.04 1.183 7.227 3.32 7.92Zm-120.296 0-.045-1.013c-.129-2.818 1.754-5.704 3.365-6.907.139 3.04-1.183 7.227-3.32 7.92Z" fill="#fff"/></svg>