<svg width="141" height="140" viewBox="0 0 141 140" fill="none" xmlns="http://www.w3.org/2000/svg">
<g clip-path="url(#clip0_121_310)">
<path d="M48.1385 112.234C47.9881 112.137 45.4753 109.876 44.8515 109.071C44.2409 108.266 43.0641 108.054 42.4492 107.731C41.8298 107.408 37.742 106.063 36.7598 106.762C35.7909 107.456 34.4549 107.886 33.9373 106.762C33.4285 105.629 33.1719 105.47 32.4552 105.311C31.7385 105.152 32.0968 104.293 32.0482 103.541C31.9907 102.785 31.5836 101.984 31.0705 102.524C30.5573 103.063 28.8142 104.457 28.562 103.749C28.3054 103.059 27.0711 100.157 28.9203 99.617C30.7608 99.0817 32.3003 99.4002 32.7649 99.8824C33.225 100.365 33.5789 101.71 34.1496 101.546C34.7159 101.382 34.4062 100.36 34.6097 99.5064C34.8132 98.657 36.1537 97.5244 36.7598 96.3432C37.3748 95.1575 37.4765 94.4629 38.2419 94.1356C39.0205 93.817 39.4275 93.3879 40.1442 92.8482C40.8654 92.3084 41.9847 91.835 42.4049 91.5563C42.8164 91.282 44.6568 90.3751 45.2673 90.5388C45.8823 90.7025 46.2893 90.4813 45.7805 89.5699C45.2673 88.6586 44.6037 85.9201 43.6304 84.6857C42.6571 83.4514 42.5509 83.1196 42.0908 81.9472C41.6307 80.7616 41.1131 79.744 40.7548 80.5492C40.3964 81.3588 39.631 82.4339 39.2196 81.4075C38.8126 80.3899 38.8613 80.4386 38.3481 79.9564C37.8393 79.4786 37.4234 79.3636 36.7112 79.1512C35.9945 78.9344 35.2778 79.2043 35.3264 79.9033C35.3751 80.6067 34.654 81.8455 35.1229 82.7568C35.583 83.6726 35.9944 84.6415 35.3751 84.96C34.7646 85.2786 35.3751 87.2207 34.7646 87.1588C34.1496 87.1101 33.8443 87.2207 33.8443 86.5129C33.8443 85.8183 34.1496 84.7433 33.017 84.7433C31.8933 84.7433 31.2253 84.1548 30.4068 83.562C29.584 82.9736 28.9203 83.2877 29.1239 81.9517C29.3274 80.6067 29.0265 80.1245 29.9423 79.3724C30.8669 78.6247 31.0749 78.1912 31.7385 78.5141C32.4065 78.8371 32.8622 78.8371 33.2825 78.4611C33.6895 78.085 34.4549 78.2443 34.4549 77.762C34.4549 77.2842 33.5833 77.2843 33.6895 76.4791C33.7868 75.665 34.2027 76.0986 34.3531 74.7537C34.5035 73.4132 33.3798 71.3737 32.2517 71.6391C31.1191 71.9134 29.3849 73.4663 29.0265 72.7673C28.6638 72.0683 27.9471 72.3912 26.5623 72.8734C25.1776 73.3557 19.4395 72.3912 19.0325 71.9046C19.0325 71.9046 18.0548 71.21 17.5416 71.586C17.0328 71.9621 14.9801 71.7984 14.3651 71.6922C13.7458 71.586 13.1839 72.3868 12.423 72.1258C11.6443 71.8515 8.93236 71.3162 8.32183 70.887C7.69804 70.4579 6.77341 70.4579 6.37524 70.2455C5.9638 70.0243 4.47289 69.9226 4.17205 70.3473C3.86679 70.7764 2.73865 71.5329 2.17236 72.0638C1.61051 72.6036 0.951318 72.5018 1.50875 73.63C2.07061 74.7537 0.0753504 75.4571 0.58412 76.687C1.09289 77.9125 0.482366 81.2438 2.53071 81.8941C4.58349 82.5401 6.27349 82.9117 7.45029 81.9517C8.63594 80.9828 10.4277 80.9828 10.9896 82.0578C11.5514 83.1285 11.8611 84.7388 13.7015 85.6502C15.5419 86.5704 17.1346 89.2027 17.0328 90.384C16.9355 91.5652 17.0904 95.4805 18.975 97.7412C20.8774 99.9975 22.824 104.081 22.97 103.112C23.1248 102.143 23.1248 101.174 23.5407 101.873C23.9433 102.577 25.0227 104.727 26.7658 105.098C28.5133 105.474 29.3849 105.576 30.0441 106.231C30.7077 106.872 31.2784 107.244 31.9907 107.571C32.7074 107.894 34.4504 108.863 34.8088 109.509C35.1716 110.155 35.0167 111.013 34.654 111.982C34.3 112.951 33.8886 113.916 34.3974 114.831C34.915 115.743 35.99 118.38 36.866 118.968C37.7375 119.561 38.6002 120.525 38.3967 121.87C38.1932 123.202 37.2199 128.949 37.3217 130.24C37.4279 131.523 36.1493 135.766 37.1713 137.487C38.1932 139.208 39.9452 139.748 40.7105 139.522C41.4759 139.314 40.8654 139.257 40.5026 138.452C40.1442 137.642 40.1929 136.624 40.6043 135.877C41.0202 135.12 41.0202 134.691 40.8123 133.833C40.6043 132.979 40.7105 132.488 41.2193 131.851C41.7369 131.205 43.887 129.488 44.555 128.736C45.2142 127.984 49.426 122.826 49.9878 122.392C50.5497 121.963 51.8282 120.945 52.2441 119.34C52.6555 117.729 54.1376 114.562 53.1156 113.748C52.0848 112.938 48.2934 112.345 48.1385 112.234Z" fill="#F6A847"/>
<path d="M58.3846 66.9143C58.6766 66.348 59.3845 64.919 59.7649 64.136H43.5286C43.7232 64.9987 44.4267 68.1973 44.2939 69.4935C44.1391 71.0022 44.6036 70.4668 45.0106 71.0597C45.4221 71.6481 45.3203 72.5639 45.0637 73.2584C44.8027 73.9574 44.6523 75.5147 45.4796 77.3419C46.2936 79.169 47.2669 81.474 48.0854 81.5846C48.9127 81.6907 48.7047 82.872 49.271 82.4428C49.8329 82.0048 49.9302 81.0492 50.3992 79.6512C50.8593 78.2576 50.8593 77.2313 52.0405 76.5367C53.2217 75.8377 56.4955 73.5858 57.2122 72.7718C57.9334 71.9666 58.7518 71.6437 58.4952 70.2545C58.2298 68.8521 57.9776 67.7239 58.3846 66.9143Z" fill="#F6A847"/>
<path d="M138.323 73.254C137.708 72.8248 134.023 69.874 132.43 70.25C130.851 70.6261 128.024 69.3873 127.564 69.1175C127.104 68.8476 123.317 67.6885 121.317 67.6133C120.322 67.5779 116.141 66.6488 114.394 65.9012C112.65 65.1491 111.168 61.4461 107.841 62.0345C107.412 62.1141 103.386 62.6804 102.36 63.5962C101.342 64.512 100.874 65.5782 100.312 65.795C99.7498 66.0118 98.1085 65.9012 98.1085 66.7108C98.1085 67.5159 98.6748 69.989 98.0112 69.5024C97.3431 69.0201 96.6751 67.892 96.3742 68.7503C96.069 69.613 95.5425 70.0952 95.2417 69.7678C94.9408 69.4493 93.388 69.7678 93.1889 70.3075C92.9854 70.8473 90.9857 72.0727 90.123 72.2453C89.2515 72.4045 88.8887 72.8381 88.4286 73.0549C87.9685 73.2672 84.4779 74.882 83.8187 74.2848C83.1507 73.6964 82.9472 74.0724 82.5357 74.183C82.5357 74.183 81.3058 73.9662 80.5405 72.9974C79.7662 72.0329 79.6158 72.3515 78.7443 71.4401C77.8772 70.5287 77.6692 69.6174 76.7977 69.9934C75.935 70.365 72.2453 74.1786 70.8075 75.8952C69.3785 77.6205 66.8125 79.3857 68.0911 80.6201C69.3785 81.8544 70.0377 81.6951 70.197 82.3853C70.3562 83.0799 70.5067 83.8364 70.7102 84.1107C70.9137 84.3805 72.1436 85.3406 72.7585 84.0532C73.3823 82.7613 73.4752 81.8544 74.1963 82.0712C74.913 82.2835 75.0635 82.7702 74.7007 83.7346C74.3423 84.7035 74.0902 86.2032 72.8603 86.1502C71.6304 86.0971 70.3031 85.3406 69.8829 85.5042C69.4758 85.6635 69.2281 86.0396 68.7591 86.4156C68.299 86.7917 66.8612 88.5613 65.8879 88.8312C64.919 89.1054 63.7422 88.8842 64.4058 89.685C65.0695 90.4858 66.0428 92.2642 65.1226 92.2112C64.2023 92.1536 62.6628 91.9988 62.561 92.9102C62.4593 93.8171 62.0522 94.3568 62.2557 95.0028C62.4593 95.6487 63.1273 96.883 63.9413 96.4538C64.773 96.0159 66.3569 95.5956 66.7639 94.6267C67.1753 93.6578 67.6398 92.5916 68.6618 92.6403C69.6838 92.6934 72.148 94.0383 71.9931 94.5205C71.8383 95.0027 71.3295 96.1309 71.9445 95.7548C72.555 95.3788 73.0682 94.9497 73.4265 94.7904C73.7849 94.6267 74.2539 95.3301 74.3998 95.5956C74.5547 95.8699 75.5811 96.4008 75.7846 95.5381C75.9925 94.6798 76.196 95.3301 76.8021 95.5956C77.4259 95.8699 79.2663 96.0778 79.5141 96.2946C79.7795 96.5069 80.3414 97.1528 79.6203 98.0111C78.9036 98.8694 78.0763 99.2012 76.9039 98.5509C75.7226 97.9049 74.4397 99.0906 73.1169 98.4447C71.7808 97.7988 72.3957 96.8874 70.8075 96.2459C69.2281 95.6 65.6357 96.4008 64.5032 96.7237C63.375 97.0423 63.3264 97.1573 62.8663 97.6882C62.4062 98.2279 59.3845 101.714 59.3845 103.7C59.3845 105.687 60.5082 111.062 64.1448 110.522C67.7858 109.983 69.989 110.306 69.582 111.376C69.1662 112.456 69.3785 112.721 70.0421 113.955C70.7057 115.185 72.2497 123.405 72.5019 124.741C72.7629 126.091 72.3028 127.803 73.9928 127.533C75.6873 127.268 77.479 126.843 78.1913 125.281C78.9124 123.724 79.0186 121.954 79.9388 121.043C80.8634 120.127 81.9916 120.127 82.0889 118.84C82.1862 117.548 81.8323 114.495 82.4472 113.787C83.0622 113.093 85.929 109.868 86.2343 108.58C86.5439 107.293 86.951 106.97 85.7742 106.97C84.5973 106.97 82.5977 106.811 82.027 105.736C81.4695 104.661 80.1335 102.621 80.1335 102.143C80.1335 101.661 80.9563 101.71 81.3589 102.732C81.7704 103.745 83.1993 106.815 84.8407 106.16C86.482 105.514 88.7914 104.771 88.84 103.745C88.8887 102.732 88.1233 101.546 87.296 101.608C86.4732 101.661 85.606 101.068 85.606 100.48C85.606 99.8869 85.7565 100.108 86.7298 100.48C87.7119 100.856 88.0127 101.493 89.4992 101.608C90.9857 101.71 92.6801 103.161 93.4942 103.811C94.3171 104.457 95.746 108.859 96.1088 109.284C96.4627 109.722 96.883 109.722 97.2369 108.855C97.5997 107.992 99.1349 105.262 100.006 104.501C100.878 103.749 100.927 102.736 101.435 103.378C101.949 104.023 104.152 105.634 104.307 106.603C104.461 107.567 104.205 109.66 104.665 109.018C105.125 108.372 105.488 107.032 105.886 107.625C106.302 108.222 106.302 109.133 107.271 108.434C108.248 107.74 109.938 107.465 109.018 105.961C108.098 104.457 108.713 103.546 109.284 103.493C109.846 103.435 113.69 102.74 113.792 100.639C113.894 98.5464 112.456 97.4183 113.137 96.3432C113.792 95.2682 114.765 94.3037 114.978 94.9497C115.181 95.5956 114.464 97.6837 115.385 97.3652C116.309 97.0422 117.384 97.0422 117.384 96.3919C117.384 95.746 117.176 94.1312 117.592 93.7109C118.004 93.2818 121.016 90.4371 121.379 89.309C121.737 88.1808 122.406 87.2164 121.839 86.3581C121.273 85.4998 120.304 85.7653 121.069 84.6946C121.839 83.6196 123.122 82.6286 124.096 82.5445C127.206 82.2747 126.33 86.1236 126.378 86.9775C126.44 87.8357 126.44 89.9903 126.896 88.9152C127.356 87.8402 127.891 86.5218 128.816 85.6104C129.741 84.6991 130.245 84.1062 130.307 83.3011C130.36 82.4959 130.4 82.2304 131.28 81.7969C132.152 81.3677 135.992 79.8635 136.35 78.846C136.704 77.8329 135.89 76.9083 136.81 76.9702C137.731 77.0189 138.602 78.0408 139.067 77.5055C139.531 76.9702 140.553 76.0058 140.5 75.466C140.438 74.9219 138.947 73.6831 138.323 73.254Z" fill="#F6A847"/>
<path d="M121.782 91.2955C121.472 91.9989 121.322 92.1051 120.862 93.5562C120.393 95.0029 120.547 94.6268 120.083 95.5382C119.623 96.454 118.862 96.5513 118.088 97.153C117.313 97.7458 117.11 98.9182 117.11 98.9182C116.446 99.8296 119.826 97.6264 121.003 96.9318C122.184 96.2372 121.879 95.4276 121.981 94.2995C122.083 93.1713 122.401 93.0076 122.901 92.5254C123.41 92.0476 123.003 91.0787 122.759 90.3841C122.49 89.6807 122.083 90.6009 121.782 91.2955Z" fill="#F6A847"/>
<path d="M111.275 115.672C111.629 115.402 111.372 114.814 111.934 114.92C112.5 115.022 113.009 115.354 113.686 114.977C114.345 114.597 114.911 114.756 114.809 114.119C114.712 113.473 114.809 112.615 114.659 112.084C114.504 111.544 113.584 111.381 112.912 111.978C112.252 112.571 111.332 113.482 111.332 113.155C111.332 112.841 111.735 111.978 111.531 111.438C111.332 110.903 111.629 110.421 110.611 110.85C109.585 111.279 109.023 111.173 108.664 111.766C108.306 112.358 107.895 113.376 107.284 112.73C106.665 112.089 104.873 110.748 104.873 110.748C104.727 110.584 102.679 108.917 103.395 110.049C104.108 111.182 105.183 113.111 105.7 113.81C106.205 114.509 106.771 115.314 107.386 114.938C108.005 114.562 108.107 114.455 108.93 114.938C109.731 115.407 110.916 115.942 111.275 115.672Z" fill="#F6A847"/>
<path d="M123.835 114.172C122.852 113.743 123.264 113.363 122.083 113.155C120.901 112.947 119.932 113.155 119.618 112.943C119.309 112.726 117.778 112.19 117.981 112.943C118.189 113.699 119.57 113.907 119.924 114.124C120.282 114.341 119.415 114.823 120.074 115.194C120.738 115.566 121.202 116.269 122.074 116.053C122.945 115.836 123.255 116.323 123.963 116.429C124.684 116.535 125.401 116.323 125.104 115.995C124.795 115.677 124.595 115.243 124.644 114.871C124.693 114.495 124.799 114.597 123.835 114.172Z" fill="#F6A847"/>
<path d="M123.317 118.95C122.958 117.875 122.087 115.893 121.888 116.853C121.68 117.822 120.295 118.512 119.778 118.459C119.309 118.411 119.574 117.924 119.574 117.49C119.574 117.061 119.304 116.632 118.136 116.955C116.951 117.278 116.707 118.406 116.389 118.3C116.088 118.198 115.261 117.977 114.752 118.574C114.243 119.167 113.774 120.291 113.168 120.508C112.544 120.724 110.496 120.99 110.496 121.857C110.496 122.711 111.013 123.998 110.96 124.702C110.907 125.405 109.969 127.007 111.217 127.493C111.934 127.776 112.442 127.816 113.274 127.391C114.093 126.958 117.623 125.83 118.088 126.201C118.548 126.577 119.295 127.462 119.627 127.652C120.277 128.037 120.454 128.94 121.326 129.152C122.184 129.369 122.861 129.475 123.215 129.475C123.578 129.475 124.852 129.046 125.162 128.29C125.467 127.533 126.033 125.768 126.29 124.905C126.555 124.047 126.799 123.082 126.033 122.326C125.263 121.583 123.675 120.025 123.317 118.95Z" fill="#F6A847"/>
<path d="M68.8168 66.087C69.4229 67.5647 71.5066 67.5735 72.1216 66.0959C79.5407 47.8598 95.3436 44.2984 95.3436 25.3191C95.3391 10.7816 82.8721 -0.840453 68.0514 0.557556C53.4608 1.93344 43.4801 16.0595 46.0239 30.482C48.6164 45.1302 62.1099 49.6427 68.8168 66.087ZM70.4625 12.1796C77.718 12.1796 83.5976 18.0636 83.5976 25.3147C83.5976 32.5702 77.7136 38.4498 70.4669 38.4498C63.2115 38.4498 57.3319 32.5702 57.3319 25.3147C57.3319 18.0592 63.207 12.1796 70.4625 12.1796Z" fill="#F6A847"/>
</g>
<defs>
<clipPath id="clip0_121_310">
<rect width="140" height="140" fill="white" transform="translate(0.5)"/>
</clipPath>
</defs>
</svg>
