<svg width="141" height="140" viewBox="0 0 141 140" fill="none" xmlns="http://www.w3.org/2000/svg">
<path fill-rule="evenodd" clip-rule="evenodd" d="M70.6166 17.5C57.442 17.5 45.437 21.8517 38.3349 25.4071C37.6932 25.7279 37.0953 26.0429 36.5382 26.3462C35.4357 26.9471 34.4966 27.5071 33.7499 28L41.8291 39.8942L45.6324 41.4079C60.4957 48.9067 80.4282 48.9067 95.2945 41.4079L99.6112 39.1679L107.253 28C105.67 26.9675 104.023 26.0352 102.324 25.2087C95.2595 21.6912 83.5433 17.5 70.6166 17.5ZM51.8245 30.9633C48.9636 30.428 46.1379 29.7189 43.3632 28.84C50.0162 25.8854 59.9328 22.75 70.6137 22.75C78.0132 22.75 85.0103 24.255 90.797 26.1625C84.0157 27.1163 76.7795 28.735 69.8845 30.7271C64.4595 32.2962 58.1187 32.1271 51.8245 30.9633ZM98.3745 45.7333L97.6599 46.095C81.3062 54.3433 59.6178 54.3433 43.2641 46.095L42.5874 45.7508C18.0232 72.7037 -0.730919 122.491 70.6166 122.491C141.958 122.491 122.746 71.7733 98.3745 45.7333ZM67.5832 70C66.0362 70 64.5524 70.6146 63.4585 71.7085C62.3645 72.8025 61.7499 74.2862 61.7499 75.8333C61.7499 77.3804 62.3645 78.8642 63.4585 79.9581C64.5524 81.0521 66.0362 81.6667 67.5832 81.6667V70ZM73.4166 64.1667V61.25H67.5832V64.1667C64.4891 64.1667 61.5216 65.3958 59.3337 67.5838C57.1457 69.7717 55.9166 72.7391 55.9166 75.8333C55.9166 78.9275 57.1457 81.895 59.3337 84.0829C61.5216 86.2708 64.4891 87.5 67.5832 87.5V99.1667C66.3769 99.167 65.2001 98.7932 64.2149 98.0969C63.2298 97.4007 62.4847 96.4161 62.0824 95.2787C61.8248 94.5493 61.288 93.952 60.5901 93.6184C59.8921 93.2847 59.0902 93.242 58.3607 93.4996C57.6313 93.7572 57.034 94.294 56.7004 94.9919C56.3667 95.6899 56.324 96.4918 56.5816 97.2212C57.3861 99.4962 58.8761 101.466 60.8463 102.859C62.8166 104.252 65.1702 105 67.5832 105V107.917H73.4166V105C76.5108 105 79.4782 103.771 81.6662 101.583C83.8541 99.395 85.0832 96.4275 85.0832 93.3333C85.0832 90.2391 83.8541 87.2717 81.6662 85.0838C79.4782 82.8958 76.5108 81.6667 73.4166 81.6667V70C75.9541 70 78.1153 71.6187 78.9203 73.8879C79.0398 74.2592 79.2324 74.6027 79.487 74.8982C79.7415 75.1937 80.0527 75.4351 80.4021 75.6082C80.7516 75.7813 81.1322 75.8826 81.5215 75.9061C81.9108 75.9295 82.3008 75.8747 82.6685 75.7447C83.0362 75.6148 83.3741 75.4125 83.6623 75.1497C83.9504 74.8869 84.1829 74.569 84.3461 74.2148C84.5092 73.8605 84.5996 73.4772 84.612 73.0874C84.6244 72.6976 84.5585 72.3093 84.4182 71.9454C83.6137 69.6705 82.1237 67.7009 80.1535 66.3078C78.1832 64.9148 75.8296 64.1667 73.4166 64.1667ZM73.4166 87.5V99.1667C74.9637 99.1667 76.4474 98.5521 77.5414 97.4581C78.6353 96.3642 79.2499 94.8804 79.2499 93.3333C79.2499 91.7862 78.6353 90.3025 77.5414 89.2085C76.4474 88.1146 74.9637 87.5 73.4166 87.5Z" fill="#F6A847"/>
</svg>
