<svg width="141" height="140" viewBox="0 0 141 140" fill="none" xmlns="http://www.w3.org/2000/svg">
<g clip-path="url(#clip0_121_342)">
<path d="M51.5473 37.0336L69.0473 49.5335C69.4823 49.8436 69.9898 50.0011 70.4998 50.0011C71.0097 50.0011 71.5172 49.8436 71.9523 49.5335L89.4522 37.0336C90.1098 36.5661 90.4998 35.8087 90.4998 35.0012C90.4998 34.1913 90.1098 33.4363 89.4522 32.9663L71.9523 20.4664C71.0822 19.8465 69.9173 19.8465 69.0473 20.4664L51.5473 32.9663C50.8897 33.4363 50.4998 34.1913 50.4998 35.0012C50.4998 35.8087 50.8897 36.5661 51.5473 37.0336Z" fill="#F6A847"/>
<path d="M75.5 52.4998C75.5 53.3073 75.8899 54.0647 76.5475 54.5323L94.0475 67.0322C94.4825 67.3422 94.99 67.4997 95.5 67.4997C96.01 67.4997 96.5175 67.3422 96.9525 67.0322L114.452 54.5323C115.11 54.0647 115.5 53.3073 115.5 52.4998C115.5 51.6923 115.11 50.9349 114.452 50.4673L96.9525 37.9675C96.0824 37.3448 94.9176 37.3448 94.0475 37.9675L76.5475 50.4673C75.8899 50.9349 75.5 51.6923 75.5 52.4998Z" fill="#F6A847"/>
<path d="M26.5473 54.5336L44.0473 67.0335C44.4823 67.3436 44.9898 67.5011 45.4998 67.5011C46.0097 67.5011 46.5172 67.3436 46.9523 67.0335L64.4522 54.5336C65.1098 54.0661 65.4998 53.3087 65.4998 52.5012C65.4998 51.6913 65.1098 50.9363 64.4522 50.4663L46.9523 37.9664C46.0822 37.3465 44.9173 37.3465 44.0473 37.9664L26.5473 50.4663C25.8897 50.9363 25.4998 51.6913 25.4998 52.5012C25.5 53.3087 25.89 54.0661 26.5473 54.5336Z" fill="#F6A847"/>
<path d="M71.9527 55.4661C71.0827 54.8463 69.9178 54.8463 69.0477 55.4661L51.5478 67.966C50.8902 68.4336 50.5002 69.191 50.5002 69.9985C50.5002 70.8084 50.8902 71.5634 51.5478 72.0334L69.0477 84.5333C69.4828 84.8434 69.9903 84.9984 70.5002 84.9984C71.0102 84.9984 71.5177 84.8434 71.9527 84.5333L89.4527 72.0334C90.1103 71.5634 90.5002 70.8084 90.5002 69.9985C90.5002 69.191 90.1103 68.4336 89.4527 67.966L71.9527 55.4661Z" fill="#F6A847"/>
<path d="M89.4527 102.966L71.9527 90.4661C71.0827 89.8463 69.9178 89.8463 69.0477 90.4661L51.5478 102.966C50.8902 103.434 50.5002 104.191 50.5002 104.998C50.5002 105.808 50.8902 106.563 51.5478 107.033L69.0477 119.533C69.4828 119.843 69.9903 119.998 70.5002 119.998C71.0102 119.998 71.5177 119.843 71.9527 119.533L89.4527 107.033C90.1103 106.563 90.5002 105.808 90.5002 104.998C90.5002 104.191 90.11 103.433 89.4527 102.966Z" fill="#F6A847"/>
<path d="M139.452 67.9663L121.953 55.4664C121.082 54.8465 119.918 54.8465 119.048 55.4664L101.548 67.9663C100.89 68.4339 100.5 69.1913 100.5 69.9987C100.5 70.8086 100.89 71.5636 101.548 72.0336L119.048 84.5335C119.483 84.8436 119.99 84.9987 120.5 84.9987C121.01 84.9987 121.517 84.8436 121.953 84.5335L139.452 72.0336C140.11 71.5636 140.5 70.8086 140.5 69.9987C140.5 69.1913 140.11 68.4336 139.452 67.9663Z" fill="#F6A847"/>
<path d="M114.452 85.4663L96.9525 72.9664C96.0824 72.3465 94.9176 72.3465 94.0475 72.9664L76.5475 85.4663C75.8899 85.9338 75.5 86.6913 75.5 87.4987C75.5 88.3086 75.8899 89.0636 76.5475 89.5336L94.0475 102.034C94.4825 102.344 94.99 102.499 95.5 102.499C96.01 102.499 96.5175 102.344 96.9525 102.034L114.452 89.5336C115.11 89.0636 115.5 88.3086 115.5 87.4987C115.5 86.6913 115.11 85.9336 114.452 85.4663Z" fill="#F6A847"/>
<path d="M40.5 69.9998C40.5 69.1923 40.1101 68.4349 39.4525 67.9673L21.9525 55.4675C21.0824 54.8448 19.9176 54.8448 19.0475 55.4675L1.54754 67.9673C0.889921 68.4349 0.5 69.1923 0.5 69.9998C0.5 70.8073 0.889921 71.5647 1.54754 72.0323L19.0475 84.5322C19.4825 84.8422 19.99 84.9997 20.5 84.9997C21.01 84.9997 21.5175 84.8422 21.9525 84.5322L39.4525 72.0323C40.1098 71.565 40.5 70.8075 40.5 69.9998Z" fill="#F6A847"/>
<path d="M65.4998 87.4998C65.4998 86.6923 65.1098 85.9349 64.4522 85.4673L46.9523 72.9675C46.0822 72.3448 44.9173 72.3448 44.0473 72.9675L26.5473 85.4673C25.8897 85.9349 25.4998 86.6923 25.4998 87.4998C25.4998 88.3073 25.8897 89.0647 26.5473 89.5323L44.0473 102.032C44.4823 102.342 44.9898 102.5 45.4998 102.5C46.0097 102.5 46.5172 102.342 46.9523 102.032L64.4522 89.5323C65.1098 89.065 65.4998 88.3075 65.4998 87.4998Z" fill="#F6A847"/>
</g>
<defs>
<clipPath id="clip0_121_342">
<rect width="140" height="140" fill="white" transform="translate(0.5)"/>
</clipPath>
</defs>
</svg>
