<svg width="140" height="140" viewBox="0 0 140 140" fill="none" xmlns="http://www.w3.org/2000/svg">
<path d="M39.0385 10.7693H14.8077C12.6539 10.7693 10.7693 12.6539 10.7693 14.8077V60.577C10.7693 62.7308 12.6539 64.6154 14.8077 64.6154H39.0385C41.1924 64.6154 43.077 62.7308 43.077 60.577V14.8077C43.077 12.6539 41.1924 10.7693 39.0385 10.7693Z" fill="#F6A847"/>
<path d="M82.1154 10.7693H57.8847C55.7308 10.7693 53.8462 12.6539 53.8462 14.8077V60.577C53.8462 62.7308 55.7308 64.6154 57.8847 64.6154H82.1154C84.2693 64.6154 86.1539 62.7308 86.1539 60.577V14.8077C86.1539 12.6539 84.2693 10.7693 82.1154 10.7693Z" fill="#F6A847"/>
<path d="M125.192 10.7693H100.962C98.8077 10.7693 96.9231 12.6539 96.9231 14.8077V60.577C96.9231 62.7308 98.8077 64.6154 100.962 64.6154H125.192C127.346 64.6154 129.231 62.7308 129.231 60.577V14.8077C129.231 12.6539 127.346 10.7693 125.192 10.7693Z" fill="#F6A847"/>
<path d="M39.0385 75.3845H14.8077C12.6539 75.3845 10.7693 77.2691 10.7693 79.423V125.192C10.7693 127.346 12.6539 129.231 14.8077 129.231H39.0385C41.1924 129.231 43.077 127.346 43.077 125.192V79.423C43.077 77.2691 41.1924 75.3845 39.0385 75.3845Z" fill="#F6A847"/>
<path d="M82.1154 75.3845H57.8847C55.7308 75.3845 53.8462 77.2691 53.8462 79.423V125.192C53.8462 127.346 55.7308 129.231 57.8847 129.231H82.1154C84.2693 129.231 86.1539 127.346 86.1539 125.192V79.423C86.1539 77.2691 84.2693 75.3845 82.1154 75.3845Z" fill="#F6A847"/>
<path d="M125.192 75.3845H100.962C98.8077 75.3845 96.9231 77.2691 96.9231 79.423V125.192C96.9231 127.346 98.8077 129.231 100.962 129.231H125.192C127.346 129.231 129.231 127.346 129.231 125.192V79.423C129.231 77.2691 127.346 75.3845 125.192 75.3845Z" fill="#F6A847"/>
</svg>
