<svg width="60" height="60" viewBox="0 0 60 60" fill="none" xmlns="http://www.w3.org/2000/svg">
<g clip-path="url(#clip0_1_341)">
<rect width="60" height="60" fill="white"/>
<path d="M11.4712 5.63916C9.00071 5.63916 7 7.64226 7 10.1104V27.1009H35.6157V10.1104C35.6157 7.63988 33.6126 5.63916 31.1445 5.63916H11.4712ZM35.6157 30.6779H7V36.9376C7 39.4057 9.0031 41.4088 11.4712 41.4088H12.3654C12.3654 39.5115 13.1192 37.6918 14.4608 36.3502C15.8024 35.0086 17.622 34.2549 19.5194 34.2549C21.4167 34.2549 23.2363 35.0086 24.578 36.3502C25.9196 37.6918 26.6733 39.5115 26.6733 41.4088H33.8272C34.3016 41.4088 34.7565 41.2204 35.0919 40.885C35.4273 40.5496 35.6157 40.0947 35.6157 39.6203V30.6779Z" fill="#F6A847"/>
<path d="M23.0963 41.4089C23.0963 40.4602 22.7195 39.5504 22.0486 38.8796C21.3778 38.2088 20.468 37.8319 19.5193 37.8319C18.5707 37.8319 17.6609 38.2088 16.9901 38.8796C16.3192 39.5504 15.9424 40.4602 15.9424 41.4089C15.9424 42.3575 16.3192 43.2673 16.9901 43.9382C17.6609 44.609 18.5707 44.9858 19.5193 44.9858C20.468 44.9858 21.3778 44.609 22.0486 43.9382C22.7195 43.2673 23.0963 42.3575 23.0963 41.4089ZM40.9811 11.0047C40.5068 11.0047 40.0519 11.1931 39.7165 11.5285C39.3811 11.8639 39.1926 12.3188 39.1926 12.7932V39.6204C39.1926 39.8278 39.2284 40.0258 39.2928 40.2118C39.59 38.4499 40.5358 36.863 41.9441 35.7633C43.3523 34.6636 45.1211 34.1307 46.9025 34.2694C48.6839 34.4082 50.3489 35.2085 51.5699 36.513C52.7909 37.8174 53.4796 39.5316 53.5005 41.3182C55.5346 40.9009 57.1299 39.0886 56.9916 36.828C56.4582 28.0963 53.3627 19.7155 48.0921 12.7335C47.6816 12.1937 47.1512 11.7565 46.5429 11.4565C45.9346 11.1565 45.265 11.0018 44.5867 11.0047H40.9811Z" fill="#F6A847"/>
<path d="M49.9236 41.409C49.9236 40.4603 49.5467 39.5505 48.8759 38.8797C48.2051 38.2089 47.2953 37.832 46.3466 37.832C45.3979 37.832 44.4881 38.2089 43.8173 38.8797C43.1465 39.5505 42.7697 40.4603 42.7697 41.409C42.7697 42.3577 43.1465 43.2675 43.8173 43.9383C44.4881 44.6091 45.3979 44.986 46.3466 44.986C47.2953 44.986 48.2051 44.6091 48.8759 43.9383C49.5467 43.2675 49.9236 42.3577 49.9236 41.409Z" fill="#F6A847"/>
</g>
<defs>
<clipPath id="clip0_1_341">
<rect width="60" height="60" fill="white"/>
</clipPath>
</defs>
</svg>
