<svg width="140" height="94" viewBox="0 0 140 94" fill="none" xmlns="http://www.w3.org/2000/svg">
<g clip-path="url(#clip0_57_1495)">
<path d="M37.1944 60.3232H35.9531V92.6717H37.1944V60.3232Z" fill="#7D192F"/>
<path d="M40.878 46.5117H39.6367V92.6718H40.878V46.5117Z" fill="#7D192F"/>
<path d="M44.4795 44.927H43.2382V92.6718H44.4795V44.927Z" fill="#7D192F"/>
<path d="M48.0812 68.7808H46.8398V92.6718H48.0812V68.7808Z" fill="#7D192F"/>
<path d="M48.0812 42.0347H46.8398V55.7925H48.0812V42.0347Z" fill="#7D192F"/>
<path d="M66.2335 85.1619H64.9922V92.6718H66.2335V85.1619Z" fill="#7D192F"/>
<path d="M69.9132 85.1619H68.6719V92.6718H69.9132V85.1619Z" fill="#7D192F"/>
<path d="M73.5147 85.1619H72.2734V92.6718H73.5147V85.1619Z" fill="#7D192F"/>
<path d="M77.1124 84.5164H75.8711V92.6717H77.1124V84.5164Z" fill="#7D192F"/>
<path d="M65.5694 34.0283H64.3281V39.3784H65.5694V34.0283Z" fill="#7D192F"/>
<path d="M69.253 31.8684H68.0117V39.3783H69.253V31.8684Z" fill="#7D192F"/>
<path d="M72.8546 32.9897H71.6133V39.1135H72.8546V32.9897Z" fill="#7D192F"/>
<path d="M76.4522 34.5952H75.2109V39.3742H76.4522V34.5952Z" fill="#7D192F"/>
<path d="M80.8468 81.8765H79.6055V92.6717H80.8468V81.8765Z" fill="#7D192F"/>
<path d="M84.5304 80.2422H83.2891V92.6677H84.5304V80.2422Z" fill="#7D192F"/>
<path d="M88.128 75.7651H86.8867V92.6676H88.128V75.7651Z" fill="#7D192F"/>
<path d="M91.7296 70.4194H90.4883V92.6678H91.7296V70.4194Z" fill="#7D192F"/>
<path d="M95.2647 44.1326H94.0234V92.6718H95.2647V44.1326Z" fill="#7D192F"/>
<path d="M98.9522 45.5146H97.7109V92.6677H98.9522V45.5146Z" fill="#7D192F"/>
<path d="M102.542 59.6118H101.301V92.6719H102.542V59.6118Z" fill="#7D192F"/>
<path d="M80.1904 36.9453H78.9491V41.6623H80.1904V36.9453Z" fill="#7D192F"/>
<path d="M83.8702 38.3894H82.6289V44.927H83.8702V38.3894Z" fill="#7D192F"/>
<path d="M87.4718 40.5535H86.2305V48.804H87.4718V40.5535Z" fill="#7D192F"/>
<path d="M91.0694 42.0347H89.8281V53.5002H91.0694V42.0347Z" fill="#7D192F"/>
<path d="M51.6124 74.8921H50.3711V92.8703H51.6124V74.8921Z" fill="#7D192F"/>
<path d="M55.296 78.9058H54.0547V92.8746H55.296V78.9058Z" fill="#7D192F"/>
<path d="M58.8976 82.5344H57.6562V92.8704H58.8976V82.5344Z" fill="#7D192F"/>
<path d="M62.4952 84.0613H61.2539V92.8704H62.4952V84.0613Z" fill="#7D192F"/>
<path d="M50.9483 41.3604H49.707V49.6771H50.9483V41.3604Z" fill="#7D192F"/>
<path d="M54.6319 38.3894H53.3906V44.927H54.6319V38.3894Z" fill="#7D192F"/>
<path d="M58.2335 37.1025H56.9922V42.796H58.2335V37.1025Z" fill="#7D192F"/>
<path d="M61.8351 35.2986H60.5938V40.5038H61.8351V35.2986Z" fill="#7D192F"/>
<path d="M64.2852 46.9999C64.2852 47.9819 64.5764 48.9419 65.1219 49.7584C65.6675 50.575 66.443 51.2114 67.3503 51.5872C68.2575 51.963 69.2559 52.0613 70.219 51.8697C71.1822 51.6781 72.0669 51.2052 72.7613 50.5108C73.4557 49.8164 73.9286 48.9317 74.1202 47.9686C74.3118 47.0054 74.2135 46.0071 73.8377 45.0998C73.4618 44.1925 72.8254 43.417 72.0089 42.8715C71.1924 42.3259 70.2324 42.0347 69.2504 42.0347C67.9335 42.0347 66.6706 42.5578 65.7394 43.489C64.8083 44.4201 64.2852 45.683 64.2852 46.9999ZM71.9275 46.9999C71.9275 47.5286 71.7707 48.0453 71.477 48.4849C71.1833 48.9245 70.7658 49.2671 70.2774 49.4694C69.789 49.6717 69.2516 49.7246 68.7331 49.6215C68.2146 49.5183 67.7383 49.2638 67.3645 48.89C66.9906 48.5161 66.7361 48.0399 66.6329 47.5214C66.5298 47.0029 66.5827 46.4654 66.785 45.977C66.9873 45.4886 67.3299 45.0711 67.7695 44.7774C68.2091 44.4837 68.7259 44.3269 69.2545 44.3269C69.9631 44.328 70.6423 44.61 71.1434 45.111C71.6444 45.6121 71.9264 46.2913 71.9275 46.9999Z" fill="#7D192F"/>
<path d="M58.4418 56.4422C59.5905 56.4413 60.7033 56.0421 61.5907 55.3127C62.4781 54.5833 63.0851 53.5688 63.3084 52.4421C63.5317 51.3153 63.3574 50.146 62.8152 49.1333C62.273 48.1206 61.3965 47.3273 60.3349 46.8884C59.2734 46.4495 58.0925 46.3923 56.9935 46.7264C55.8945 47.0606 54.9454 47.7655 54.3078 48.7209C53.6702 49.6764 53.3836 50.8234 53.4969 51.9665C53.6101 53.1096 54.1162 54.178 54.9289 54.9898C55.3904 55.4508 55.9381 55.8163 56.5409 56.0655C57.1436 56.3147 57.7896 56.4427 58.4418 56.4422ZM56.5509 49.586C56.9248 49.2124 57.4011 48.9581 57.9195 48.8552C58.4379 48.7522 58.9752 48.8053 59.4635 49.0077C59.9518 49.2101 60.3691 49.5527 60.6627 49.9922C60.9563 50.4317 61.113 50.9484 61.113 51.4769C61.113 52.0055 60.9563 52.5222 60.6627 52.9617C60.3691 53.4012 59.9518 53.7438 59.4635 53.9462C58.9752 54.1486 58.4379 54.2016 57.9195 54.0987C57.4011 53.9958 56.9248 53.7414 56.5509 53.3679C56.3019 53.1199 56.1044 52.8252 55.9696 52.5007C55.8348 52.1762 55.7654 51.8283 55.7654 51.4769C55.7654 51.1256 55.8348 50.7776 55.9696 50.4532C56.1044 50.1287 56.3019 49.834 56.5509 49.586Z" fill="#7D192F"/>
<path d="M58.9305 62.2846C58.9305 61.3025 58.6392 60.3426 58.0937 59.526C57.5481 58.7095 56.7726 58.0731 55.8653 57.6973C54.9581 57.3215 53.9597 57.2232 52.9966 57.4147C52.0334 57.6063 51.1487 58.0792 50.4543 58.7736C49.7599 59.468 49.287 60.3527 49.0954 61.3159C48.9038 62.2791 49.0022 63.2774 49.378 64.1847C49.7538 65.092 50.3902 65.8674 51.2067 66.413C52.0232 66.9586 52.9832 67.2498 53.9652 67.2498C55.2821 67.2498 56.545 66.7267 57.4762 65.7955C58.4073 64.8643 58.9305 63.6014 58.9305 62.2846ZM51.2881 62.2846C51.2881 61.7559 51.4449 61.2391 51.7386 60.7996C52.0323 60.36 52.4498 60.0174 52.9382 59.8151C53.4266 59.6128 53.9641 59.5598 54.4826 59.663C55.0011 59.7661 55.4773 60.0207 55.8512 60.3945C56.225 60.7683 56.4795 61.2446 56.5827 61.7631C56.6858 62.2816 56.6329 62.819 56.4306 63.3075C56.2283 63.7959 55.8857 64.2133 55.4461 64.507C55.0065 64.8007 54.4897 64.9575 53.9611 64.9575C53.2554 64.9521 52.5804 64.6682 52.0829 64.1676C51.5855 63.667 51.3058 62.9903 51.3047 62.2846H51.2881Z" fill="#7D192F"/>
<path d="M54.9326 69.5793C54.2399 70.2744 53.7687 71.1591 53.5785 72.1218C53.3883 73.0845 53.4877 74.0819 53.864 74.9882C54.2403 75.8945 54.8767 76.6689 55.6929 77.2138C56.509 77.7586 57.4683 78.0493 58.4496 78.0493C59.4309 78.0493 60.3902 77.7586 61.2063 77.2138C62.0225 76.6689 62.6589 75.8945 63.0352 74.9882C63.4115 74.0819 63.5109 73.0845 63.3207 72.1218C63.1305 71.1591 62.6593 70.2744 61.9666 69.5793C61.5054 69.1164 60.9572 68.7491 60.3537 68.4985C59.7502 68.2479 59.1031 68.1189 58.4496 68.1189C57.7961 68.1189 57.149 68.2479 56.5455 68.4985C55.942 68.7491 55.3939 69.1164 54.9326 69.5793ZM60.3364 74.9831C59.9625 75.3567 59.4862 75.611 58.9678 75.7139C58.4493 75.8169 57.912 75.7638 57.4237 75.5614C56.9355 75.359 56.5182 75.0164 56.2246 74.5769C55.931 74.1374 55.7742 73.6207 55.7742 73.0922C55.7742 72.5636 55.931 72.0469 56.2246 71.6074C56.5182 71.1679 56.9355 70.8253 57.4237 70.6229C57.912 70.4205 58.4493 70.3675 58.9678 70.4704C59.4862 70.5733 59.9625 70.8277 60.3364 71.2013C60.8372 71.7031 61.1184 72.3832 61.1184 73.0922C61.1184 73.8012 60.8372 74.4812 60.3364 74.9831Z" fill="#7D192F"/>
<path d="M69.2543 72.5999C68.2723 72.5999 67.3123 72.8911 66.4958 73.4366C65.6792 73.9822 65.0428 74.7577 64.667 75.665C64.2912 76.5722 64.1929 77.5706 64.3845 78.5337C64.5761 79.4969 65.0489 80.3816 65.7433 81.076C66.4377 81.7704 67.3225 82.2433 68.2856 82.4349C69.2488 82.6265 70.2471 82.5282 71.1544 82.1523C72.0617 81.7765 72.8371 81.1401 73.3827 80.3236C73.9283 79.5071 74.2195 78.5471 74.2195 77.5651C74.2195 76.2482 73.6964 74.9853 72.7652 74.0541C71.8341 73.123 70.5712 72.5999 69.2543 72.5999ZM69.2543 80.2422C68.7256 80.2422 68.2088 80.0854 67.7693 79.7917C67.3297 79.498 66.9871 79.0805 66.7848 78.5921C66.5825 78.1037 66.5296 77.5662 66.6327 77.0477C66.7358 76.5292 66.9904 76.053 67.3642 75.6792C67.7381 75.3053 68.2143 75.0508 68.7328 74.9476C69.2513 74.8445 69.7888 74.8974 70.2772 75.0997C70.7656 75.302 71.1831 75.6446 71.4768 76.0842C71.7705 76.5238 71.9272 77.0406 71.9272 77.5692C71.9261 78.2778 71.6442 78.957 71.1431 79.4581C70.6421 79.9591 69.9629 80.2411 69.2543 80.2422Z" fill="#7D192F"/>
<path d="M76.5458 69.5793C75.8532 70.2744 75.382 71.1591 75.1918 72.1218C75.0016 73.0845 75.101 74.0819 75.4773 74.9882C75.8536 75.8945 76.49 76.6689 77.3061 77.2138C78.1223 77.7586 79.0816 78.0493 80.0629 78.0493C81.0442 78.0493 82.0035 77.7586 82.8196 77.2138C83.6358 76.6689 84.2722 75.8945 84.6485 74.9882C85.0248 74.0819 85.1241 73.0845 84.934 72.1218C84.7438 71.1591 84.2726 70.2744 83.5799 69.5793C83.1186 69.1164 82.5705 68.7491 81.967 68.4985C81.3634 68.2479 80.7164 68.1189 80.0629 68.1189C79.4094 68.1189 78.7623 68.2479 78.1588 68.4985C77.5553 68.7491 77.0071 69.1164 76.5458 69.5793ZM81.9497 74.9831C81.5758 75.3567 81.0995 75.611 80.581 75.7139C80.0626 75.8169 79.5253 75.7638 79.037 75.5614C78.5487 75.359 78.1314 75.0164 77.8378 74.5769C77.5442 74.1374 77.3875 73.6207 77.3875 73.0922C77.3875 72.5636 77.5442 72.0469 77.8378 71.6074C78.1314 71.1679 78.5487 70.8253 79.037 70.6229C79.5253 70.4205 80.0626 70.3675 80.581 70.4704C81.0995 70.5733 81.5758 70.8277 81.9497 71.2013C82.4505 71.7031 82.7317 72.3832 82.7317 73.0922C82.7317 73.8012 82.4505 74.4812 81.9497 74.9831Z" fill="#7D192F"/>
<path d="M79.5664 62.2846C79.5664 63.2666 79.8576 64.2266 80.4032 65.0431C80.9488 65.8596 81.7242 66.496 82.6315 66.8718C83.5388 67.2476 84.5371 67.346 85.5003 67.1544C86.4635 66.9628 87.3482 66.4899 88.0426 65.7955C88.737 65.1011 89.2099 64.2164 89.4015 63.2532C89.593 62.2901 89.4947 61.2917 89.1189 60.3845C88.7431 59.4772 88.1067 58.7017 87.2902 58.1561C86.4736 57.6105 85.5137 57.3193 84.5316 57.3193C83.2148 57.3193 81.9518 57.8425 81.0207 58.7736C80.0895 59.7048 79.5664 60.9677 79.5664 62.2846ZM87.2087 62.2846C87.2087 62.8132 87.0519 63.33 86.7582 63.7696C86.4645 64.2091 86.0471 64.5517 85.5587 64.754C85.0702 64.9564 84.5328 65.0093 84.0143 64.9061C83.4958 64.803 83.0195 64.5484 82.6457 64.1746C82.2719 63.8008 82.0173 63.3245 81.9142 62.806C81.811 62.2875 81.864 61.7501 82.0663 61.2617C82.2686 60.7733 82.6112 60.3558 83.0508 60.0621C83.4903 59.7684 84.0071 59.6116 84.5358 59.6116C85.2443 59.6127 85.9236 59.8947 86.4246 60.3957C86.9257 60.8968 87.2076 61.576 87.2087 62.2846Z" fill="#7D192F"/>
<path d="M80.059 56.4422C81.2077 56.4413 82.3205 56.0421 83.2079 55.3127C84.0953 54.5833 84.7023 53.5688 84.9256 52.4421C85.1489 51.3153 84.9746 50.146 84.4324 49.1333C83.8902 48.1206 83.0136 47.3273 81.9521 46.8884C80.8906 46.4495 79.7097 46.3923 78.6107 46.7264C77.5117 47.0606 76.5625 47.7655 75.925 48.7209C75.2874 49.6764 75.0008 50.8234 75.114 51.9665C75.2273 53.1096 75.7334 54.178 76.5461 54.9898C77.0075 55.4508 77.5553 55.8163 78.158 56.0655C78.7608 56.3147 79.4068 56.4427 80.059 56.4422ZM78.1681 49.586C78.542 49.2124 79.0183 48.9581 79.5367 48.8552C80.0551 48.7522 80.5924 48.8053 81.0807 49.0077C81.569 49.2101 81.9863 49.5527 82.2799 49.9922C82.5735 50.4317 82.7302 50.9484 82.7302 51.4769C82.7302 52.0055 82.5735 52.5222 82.2799 52.9617C81.9863 53.4012 81.569 53.7438 81.0807 53.9462C80.5924 54.1486 80.0551 54.2016 79.5367 54.0987C79.0183 53.9958 78.542 53.7414 78.1681 53.3679C77.9191 53.1199 77.7216 52.8252 77.5868 52.5007C77.452 52.1762 77.3826 51.8283 77.3826 51.4769C77.3826 51.1256 77.452 50.7776 77.5868 50.4532C77.7216 50.1287 77.9191 49.834 78.1681 49.586Z" fill="#7D192F"/>
<path d="M69.2494 71.073C70.9876 71.073 72.6867 70.5576 74.132 69.5919C75.5772 68.6262 76.7037 67.2536 77.3689 65.6477C78.034 64.0419 78.2081 62.2748 77.869 60.57C77.5299 58.8652 76.6928 57.2993 75.4638 56.0702C74.2347 54.8411 72.6687 54.0041 70.9639 53.665C69.2591 53.3259 67.4921 53.4999 65.8862 54.1651C64.2803 54.8303 62.9077 55.9567 61.9421 57.4019C60.9764 58.8472 60.4609 60.5464 60.4609 62.2845C60.4642 64.6144 61.3912 66.8478 63.0386 68.4953C64.6861 70.1427 66.9195 71.0697 69.2494 71.073ZM69.2494 55.7884C70.5342 55.7884 71.7902 56.1694 72.8585 56.8832C73.9268 57.597 74.7594 58.6115 75.2511 59.7986C75.7427 60.9856 75.8714 62.2918 75.6207 63.5519C75.3701 64.812 74.7514 65.9695 73.8429 66.878C72.9344 67.7865 71.7769 68.4052 70.5167 68.6559C69.2566 68.9066 67.9504 68.7779 66.7634 68.2862C65.5764 67.7945 64.5618 66.9619 63.848 65.8936C63.1342 64.8253 62.7532 63.5694 62.7532 62.2845C62.7554 60.5623 63.4405 58.9113 64.6583 57.6935C65.8761 56.4757 67.5272 55.7906 69.2494 55.7884Z" fill="#7D192F"/>
<path d="M45.1797 62.2845C45.1797 67.0457 46.5915 71.7 49.2367 75.6588C51.8819 79.6176 55.6416 82.7031 60.0404 84.5251C64.4392 86.3472 69.2795 86.8239 73.9492 85.895C78.6189 84.9661 82.9083 82.6734 86.275 79.3067C89.6417 75.9401 91.9344 71.6506 92.8633 66.9809C93.7921 62.3112 93.3154 57.4709 91.4934 53.0721C89.6713 48.6734 86.5858 44.9137 82.627 42.2685C78.6682 39.6233 74.014 38.2114 69.2528 38.2114C62.8702 38.218 56.7509 40.7564 52.2378 45.2695C47.7246 49.7827 45.1863 55.9019 45.1797 62.2845ZM91.0335 62.2845C91.0335 66.5923 89.7561 70.8034 87.3628 74.3853C84.9695 77.9671 81.5678 80.7588 77.5879 82.4073C73.608 84.0559 69.2286 84.4872 65.0035 83.6468C60.7785 82.8064 56.8975 80.7319 53.8514 77.6858C50.8053 74.6397 48.7309 70.7588 47.8905 66.5337C47.0501 62.3087 47.4814 57.9293 49.1299 53.9494C50.7785 49.9694 53.5702 46.5677 57.152 44.1744C60.7338 41.7811 64.9449 40.5037 69.2528 40.5037C75.0266 40.5114 80.5618 42.8087 84.6442 46.8919C88.7265 50.975 91.0228 56.5106 91.0294 62.2845H91.0335Z" fill="#7D192F"/>
<path d="M31.9761 86.4031H5.24659C3.85578 86.401 2.52256 85.8475 1.53911 84.864C0.555655 83.8806 0.00218853 82.5474 0 81.1566L0 20.4194C0.00109397 19.0279 0.554078 17.6936 1.53765 16.7093C2.52122 15.7249 3.85506 15.1709 5.24659 15.1687H15.0115V17.6513H5.24659C4.51316 17.6524 3.81014 17.9445 3.29191 18.4635C2.77368 18.9825 2.48261 19.686 2.48261 20.4194V81.1566C2.48371 81.8893 2.77526 82.5917 3.29337 83.1098C3.81148 83.6279 4.51387 83.9194 5.24659 83.9205H31.9761V86.4031Z" fill="#7D192F"/>
<path d="M134.317 20.9326L123.894 15.7232V8.78845C123.894 8.48448 123.773 8.19295 123.558 7.97801C123.343 7.76306 123.052 7.64231 122.748 7.64231H108.609V4.96523C108.609 3.64837 108.086 2.38544 107.155 1.45428C106.224 0.52312 104.961 0 103.644 0L34.8592 0C33.5424 0 32.2794 0.52312 31.3483 1.45428C30.4171 2.38544 29.894 3.64837 29.894 4.96523V7.63817H15.7555C15.4515 7.63817 15.16 7.75893 14.9451 7.97387C14.7301 8.18881 14.6094 8.48034 14.6094 8.78431V15.2805V24.0731C14.6129 26.3131 15.4712 28.4673 17.0091 30.096C18.547 31.7247 20.6486 32.7049 22.8848 32.8367L27.9907 37.9261C28.8039 38.7437 29.7711 39.3921 30.8364 39.8338C31.9017 40.2756 33.044 40.5019 34.1972 40.4997H42.4933C42.7972 40.4997 43.0888 40.3789 43.3037 40.164C43.5186 39.9491 43.6394 39.6575 43.6394 39.3536V24.0731C43.6394 23.7691 43.5186 23.4776 43.3037 23.2626C43.0888 23.0477 42.7972 22.9269 42.4933 22.9269H34.2055C33.0522 22.9247 31.91 23.151 30.8447 23.5928C29.7794 24.0345 28.8122 24.6829 27.9989 25.5006L22.9675 30.5237C21.327 30.4178 19.7881 29.6927 18.662 28.4951C17.5358 27.2975 16.9066 25.7169 16.9017 24.0731V9.93045H29.894V12.6034C29.894 13.9203 30.4171 15.1832 31.3483 16.1143C32.2794 17.0455 33.5424 17.5686 34.8592 17.5686H52.9037C53.1829 19.6779 54.2171 21.6145 55.8147 23.0196C57.4124 24.4248 59.4652 25.2033 61.5928 25.2109H68.089V31.0037L40.9375 44.1284L40.8009 44.2071C39.803 44.874 38.9518 45.7376 38.2993 46.7451C37.6469 47.7526 37.2071 48.8826 37.0067 50.066L31.3918 83.7634C31.3918 83.8627 31.3918 83.962 31.3587 84.0613H14.6094V86.3536H31.3546C31.6279 88.4653 32.6604 90.4054 34.2594 91.8117C35.8583 93.218 37.9144 93.9944 40.0437 93.9959H98.4389C99.7169 93.9988 100.98 93.723 102.141 93.1876C103.301 92.6522 104.331 91.8702 105.158 90.896C105.985 89.9219 106.59 88.779 106.93 87.5471C107.271 86.3153 107.338 85.024 107.128 83.7634L101.493 50.066C101.293 48.8812 100.854 47.7496 100.201 46.7407C99.5486 45.7318 98.697 44.8668 97.6983 44.1988L97.5617 44.1202L70.3978 30.9954V25.2027H76.894C79.0216 25.195 81.0744 24.4165 82.6721 23.0114C84.2697 21.6062 85.3039 19.6696 85.5831 17.5603H103.628C104.944 17.5603 106.207 17.0372 107.139 16.1061C108.07 15.1749 108.593 13.912 108.593 12.5951V9.93045H121.585V15.7232L111.158 20.9367C109.695 21.6625 108.464 22.7838 107.606 24.1732C106.747 25.5627 106.295 27.165 106.301 28.7983V31.7154C106.301 32.0194 106.421 32.3109 106.636 32.5258C106.851 32.7408 107.143 32.8615 107.447 32.8615H138.016C138.32 32.8615 138.611 32.7408 138.826 32.5258C139.041 32.3109 139.162 32.0194 139.162 31.7154V28.7942C139.169 27.162 138.719 25.5605 137.863 24.1711C137.006 22.7816 135.778 21.6598 134.317 20.9326ZM29.6085 27.1391C30.2102 26.534 30.926 26.0542 31.7143 25.7275C32.5027 25.4008 33.348 25.2337 34.2013 25.2358H41.3761V38.2281H34.2055C33.3521 38.2304 32.5067 38.0634 31.7183 37.7367C30.9299 37.41 30.2142 36.9301 29.6126 36.3248L25.0198 31.7319L29.6085 27.1391ZM96.4901 46.1725C97.2117 46.6677 97.8261 47.3033 98.2967 48.0412C98.7673 48.7791 99.0845 49.6042 99.2292 50.4674L104.844 84.1564C104.999 85.0868 104.95 86.0398 104.699 86.9491C104.449 87.8584 104.003 88.7023 103.394 89.4221C102.784 90.1418 102.025 90.7203 101.17 91.1171C100.314 91.514 99.3821 91.7197 98.4389 91.7201H40.0603C39.1171 91.7197 38.1853 91.514 37.3297 91.1171C36.474 90.7203 35.7151 90.1418 35.1056 89.4221C34.496 88.7023 34.0506 87.8584 33.8001 86.9491C33.5496 86.0398 33.5002 85.0868 33.6552 84.1564L39.27 50.4674C39.4148 49.6042 39.7319 48.7791 40.2025 48.0412C40.6731 47.3033 41.2876 46.6677 42.0091 46.1725L69.2517 33.0022L96.4901 46.1725ZM76.894 22.9269H61.6094C60.0855 22.9251 58.6105 22.3886 57.4416 21.411C56.2726 20.4333 55.4838 19.0765 55.2125 17.5769H83.2867C83.0163 19.0761 82.2283 20.4329 81.0601 21.4106C79.8918 22.3883 78.4174 22.9249 76.894 22.9269ZM106.317 12.6117C106.316 13.3202 106.034 13.9995 105.533 14.5005C105.032 15.0016 104.353 15.2835 103.644 15.2846H34.8592C34.1506 15.2835 33.4714 15.0016 32.9704 14.5005C32.4693 13.9995 32.1874 13.3202 32.1863 12.6117V4.96523C32.1874 4.25665 32.4693 3.57741 32.9704 3.07638C33.4714 2.57534 34.1506 2.29337 34.8592 2.29228H103.64C104.349 2.29337 105.028 2.57534 105.529 3.07638C106.03 3.57741 106.312 4.25665 106.313 4.96523L106.317 12.6117ZM136.886 30.5692H108.609V28.7942C108.608 27.5897 108.944 26.4088 109.578 25.3851C110.213 24.3614 111.121 23.5357 112.201 23.0014L122.748 17.7259L133.295 23.0014C134.374 23.5365 135.282 24.3623 135.916 25.3859C136.551 26.4094 136.887 27.5899 136.886 28.7942V30.5692Z" fill="#7D192F"/>
<path d="M113.852 24.7759L106.727 31.5918L107.585 32.4888L114.71 25.6729L113.852 24.7759Z" fill="#7D192F"/>
<path d="M118.203 24.7778L111.078 31.5938L111.936 32.4907L119.061 25.6748L118.203 24.7778Z" fill="#7D192F"/>
<path d="M122.789 24.7781L115.664 31.594L116.522 32.491L123.647 25.6751L122.789 24.7781Z" fill="#7D192F"/>
<path d="M127.375 24.7786L120.25 31.5945L121.108 32.4915L128.233 25.6755L127.375 24.7786Z" fill="#7D192F"/>
<path d="M131.727 24.7734L124.602 31.5894L125.46 32.4863L132.585 25.6704L131.727 24.7734Z" fill="#7D192F"/>
<path d="M136.539 24.7793L129.414 31.5952L130.272 32.4922L137.397 25.6763L136.539 24.7793Z" fill="#7D192F"/>
<path d="M33.7532 31.6736L27.6914 37.428L28.546 38.3282L34.6078 32.5738L33.7532 31.6736Z" fill="#7D192F"/>
<path d="M38.3359 31.6755L31.2109 38.4915L32.069 39.3884L39.194 32.5725L38.3359 31.6755Z" fill="#7D192F"/>
<path d="M41.6243 32.9668L35.8008 38.4854L36.6546 39.3864L42.4781 33.8678L41.6243 32.9668Z" fill="#7D192F"/>
</g>
<defs>
<clipPath id="clip0_57_1495">
<rect width="139.175" height="94" fill="white"/>
</clipPath>
</defs>
</svg>
