<svg width="124" height="105" viewBox="0 0 124 105" fill="none" xmlns="http://www.w3.org/2000/svg">
<g clip-path="url(#clip0_57_1551)">
<path d="M31.3634 98.0283H14.633C14.1629 98.0273 13.7124 97.8401 13.38 97.5077C13.0476 97.1753 12.8604 96.7248 12.8594 96.2547V36.6426H31.3634V98.0283ZM14.7789 96.1088H29.4439V38.5621H14.7789V96.1088Z" fill="#7D192F"/>
<path d="M109.344 98.0515H92.6133V36.6658H111.117V96.2779C111.116 96.748 110.929 97.1985 110.597 97.5309C110.264 97.8633 109.814 98.0505 109.344 98.0515ZM94.5328 96.132H109.198V38.5853H94.5328V96.132Z" fill="#7D192F"/>
<path d="M122.28 30.2698H1.5356C1.12834 30.2698 0.73775 30.108 0.449768 29.82C0.161786 29.532 0 29.1414 0 28.7342V17.2171C0.0030482 14.5505 1.06373 11.9939 2.94935 10.1083C4.83497 8.22266 7.39154 7.16198 10.0582 7.15894H113.942C116.608 7.16198 119.165 8.22266 121.051 10.1083C122.936 11.9939 123.997 14.5505 124 17.2171V28.5499C123.999 29.0057 123.817 29.4426 123.495 29.7649C123.173 30.0872 122.736 30.2688 122.28 30.2698ZM1.9195 28.3503H122.08V17.2171C122.077 15.0596 121.219 12.9912 119.693 11.4656C118.168 9.93993 116.099 9.08149 113.942 9.07844H10.0582C7.90031 9.08047 5.83138 9.93859 4.30552 11.4645C2.77966 12.9903 1.92154 15.0592 1.9195 17.2171V28.3503Z" fill="#7D192F"/>
<path d="M124 16.1041H122.08V10.7679C122.078 8.61003 121.22 6.5411 119.694 5.01524C118.169 3.48937 116.1 2.63125 113.942 2.62922H10.0582C7.90031 2.63125 5.83138 3.48937 4.30552 5.01524C2.77966 6.5411 1.92154 8.61003 1.9195 10.7679V16.1041H0V10.7679C0.0030482 8.10125 1.06373 5.54468 2.94935 3.65906C4.83497 1.77344 7.39154 0.712765 10.0582 0.709717L113.942 0.709717C116.608 0.712765 119.165 1.77344 121.051 3.65906C122.936 5.54468 123.997 8.10125 124 10.7679V16.1041Z" fill="#7D192F"/>
<path d="M123.619 19.0984H122.467V13.7622C122.464 11.5028 121.565 9.33681 119.968 7.73917C118.37 6.14153 116.204 5.24264 113.945 5.23959H10.061C7.80131 5.24163 5.63474 6.14019 4.03688 7.73805C2.43902 9.33591 1.54045 11.5025 1.53842 13.7622V19.0984H0.386719V13.7622C0.389767 11.1973 1.41 8.73842 3.22362 6.92479C5.03725 5.11117 7.49617 4.09094 10.061 4.08789H113.945C116.509 4.09094 118.968 5.11117 120.782 6.92479C122.596 8.73842 123.616 11.1973 123.619 13.7622V19.0984Z" fill="#7D192F"/>
<path d="M40.4668 57.1047H29.8711V28.7344H40.4668V57.1047ZM31.0228 55.9529H39.3151V29.8861H31.0228V55.9529Z" fill="#7D192F"/>
<path d="M94.1347 57.1047H83.5391V28.7344H94.1347V57.1047ZM84.6908 55.9529H92.983V29.8861H84.6908V55.9529Z" fill="#7D192F"/>
<path d="M81.1949 104.708H42.8048V36.6426H81.1949V104.708ZM44.7243 102.789H79.2754V38.5621H44.7243V102.789Z" fill="#7D192F"/>
<path d="M83.3353 104.708H40.6916C40.2215 104.707 39.771 104.52 39.4386 104.188C39.1062 103.855 38.919 103.405 38.918 102.935V28.3503H85.1089V102.935C85.1079 103.405 84.9207 103.855 84.5883 104.188C84.2559 104.52 83.8054 104.707 83.3353 104.708ZM40.8452 102.789H83.1894V30.2698H40.8452V102.789Z" fill="#7D192F"/>
<path d="M40.8477 100.984H31.2502C30.7801 100.983 30.3296 100.796 29.9972 100.464C29.6648 100.131 29.4776 99.6808 29.4766 99.2107V55.5688H40.84L40.8477 100.984ZM31.4037 99.0648H38.9282V57.4884H31.4037V99.0648Z" fill="#7D192F"/>
<path d="M92.7421 100.984H83.1445V55.5688H94.508V99.2107C94.507 99.6795 94.3209 100.129 93.9901 100.461C93.6594 100.793 93.2108 100.981 92.7421 100.984ZM85.064 99.0648H92.5885V57.4884H85.0717L85.064 99.0648Z" fill="#7D192F"/>
<path d="M40.4668 21.8625H29.8711V7.54297H40.4668V21.8625ZM31.0228 20.7108H39.3151V8.69467H31.0228V20.7108Z" fill="#7D192F"/>
<path d="M94.1347 21.8625H83.5391V7.54297H94.1347V21.8625ZM84.6908 20.7108H92.983V8.69467H84.6908V20.7108Z" fill="#7D192F"/>
<path d="M93.5919 30.2699H30.4402L29.4805 29.3102V21.2867L30.4402 20.3269H93.5919L94.5517 21.2867V29.3102L93.5919 30.2699ZM31.4 28.3504H92.6322V22.2464H31.4V28.3504Z" fill="#7D192F"/>
<path d="M110.177 38.5621H93.5928L92.6331 37.6024V29.3101H94.5526V36.6426H109.882L121.737 28.5193L122.819 30.101L110.719 38.3932L110.177 38.5621Z" fill="#7D192F"/>
<path d="M30.4422 38.5622H13.8193L13.2819 38.3971L0.605469 29.8783L1.67655 28.2852L14.1111 36.6427H29.4825V29.3102H31.402V37.6024L30.4422 38.5622Z" fill="#7D192F"/>
<path d="M62.9625 52.4595H61.043V103.749H62.9625V52.4595Z" fill="#7D192F"/>
<path d="M52.4531 62.802L43.3945 71.8606L44.2089 72.675L53.2675 63.6164L52.4531 62.802Z" fill="#7D192F"/>
<path d="M58.0588 61.4188L43.3906 76.041L44.2037 76.8567L58.8719 62.2345L58.0588 61.4188Z" fill="#7D192F"/>
<path d="M58.0627 66.1412L43.3945 80.7634L44.2076 81.5791L58.8758 66.9569L58.0627 66.1412Z" fill="#7D192F"/>
<path d="M56.563 72.0119L43.3945 85.1804L44.2089 85.9948L57.3774 72.8263L56.563 72.0119Z" fill="#7D192F"/>
<path d="M70.659 62.8005L61.5977 71.8618L62.412 72.6762L71.4733 63.6149L70.659 62.8005Z" fill="#7D192F"/>
<path d="M76.258 61.4174L61.5898 76.0396L62.4029 76.8552L77.0711 62.233L76.258 61.4174Z" fill="#7D192F"/>
<path d="M76.262 66.1395L61.5938 80.7617L62.4068 81.5774L77.075 66.9552L76.262 66.1395Z" fill="#7D192F"/>
<path d="M74.7661 72.0132L61.5977 85.1816L62.412 85.996L75.5805 72.8275L74.7661 72.0132Z" fill="#7D192F"/>
<path d="M80.2369 51.4995H43.8047V53.419H80.2369V51.4995Z" fill="#7D192F"/>
<path d="M80.2369 90.312H43.8047V92.2315H80.2369V90.312Z" fill="#7D192F"/>
<path d="M47.4486 37.6023H46.2969V52.4593H47.4486V37.6023Z" fill="#7D192F"/>
<path d="M50.8665 37.6023H49.7148V52.4593H50.8665V37.6023Z" fill="#7D192F"/>
<path d="M54.2064 37.6023H53.0547V52.4593H54.2064V37.6023Z" fill="#7D192F"/>
<path d="M57.5462 37.6023H56.3945V52.4593H57.5462V37.6023Z" fill="#7D192F"/>
<path d="M31.4 8.1189H29.4805V21.2867H31.4V8.1189Z" fill="#7D192F"/>
<path d="M34.2025 8.1189H33.0508V21.2867H34.2025V8.1189Z" fill="#7D192F"/>
<path d="M37.3158 8.1189H36.1641V21.2867H37.3158V8.1189Z" fill="#7D192F"/>
<path d="M40.8453 8.1189H38.9258V21.2867H40.8453V8.1189Z" fill="#7D192F"/>
<path d="M85.0758 8.1189H83.1562V21.2867H85.0758V8.1189Z" fill="#7D192F"/>
<path d="M87.9172 8.1189H86.7655V21.2867H87.9172V8.1189Z" fill="#7D192F"/>
<path d="M91.0228 8.1189H89.8711V21.2867H91.0228V8.1189Z" fill="#7D192F"/>
<path d="M94.5526 8.1189H92.6331V21.2867H94.5526V8.1189Z" fill="#7D192F"/>
<path d="M60.8822 37.6023H59.7305V52.4593H60.8822V37.6023Z" fill="#7D192F"/>
<path d="M64.2259 37.6023H63.0742V52.4593H64.2259V37.6023Z" fill="#7D192F"/>
<path d="M67.5698 37.6023H66.4181V52.4593H67.5698V37.6023Z" fill="#7D192F"/>
<path d="M70.9837 37.6023H69.832V52.4593H70.9837V37.6023Z" fill="#7D192F"/>
<path d="M74.3236 37.6023H73.1719V52.4593H74.3236V37.6023Z" fill="#7D192F"/>
<path d="M77.7025 37.6023H76.5508V52.4593H77.7025V37.6023Z" fill="#7D192F"/>
<path d="M35.7415 29.2717H34.5898V56.5287H35.7415V29.2717Z" fill="#7D192F"/>
<path d="M30.9002 31.1097L29.9844 31.8081L34.6683 37.95L35.5841 37.2516L30.9002 31.1097Z" fill="#7D192F"/>
<path d="M30.9002 37.2491L29.9844 37.9475L34.6683 44.0894L35.5841 43.391L30.9002 37.2491Z" fill="#7D192F"/>
<path d="M30.9041 43.3924L29.9883 44.0908L34.6722 50.2327L35.588 49.5343L30.9041 43.3924Z" fill="#7D192F"/>
<path d="M30.9041 49.536L29.9883 50.2344L34.6722 56.3762L35.588 55.6778L30.9041 49.536Z" fill="#7D192F"/>
<path d="M39.4314 31.1056L34.7109 37.2485L35.6242 37.9503L40.3446 31.8074L39.4314 31.1056Z" fill="#7D192F"/>
<path d="M39.4353 37.2516L34.7148 43.3945L35.6281 44.0963L40.3485 37.9534L39.4353 37.2516Z" fill="#7D192F"/>
<path d="M39.4314 43.3937L34.7109 49.5366L35.6242 50.2384L40.3446 44.0955L39.4314 43.3937Z" fill="#7D192F"/>
<path d="M39.4314 49.5358L34.7109 55.6787L35.6242 56.3805L40.3446 50.2376L39.4314 49.5358Z" fill="#7D192F"/>
<path d="M89.4486 29.2717H88.2969V56.5287H89.4486V29.2717Z" fill="#7D192F"/>
<path d="M84.6123 31.1121L83.6992 31.814L88.4207 37.9561L89.3338 37.2541L84.6123 31.1121Z" fill="#7D192F"/>
<path d="M84.6123 37.2563L83.6992 37.9583L88.4207 44.1003L89.3338 43.3984L84.6123 37.2563Z" fill="#7D192F"/>
<path d="M84.6084 43.397L83.6953 44.0989L88.4168 50.241L89.3299 49.5391L84.6084 43.397Z" fill="#7D192F"/>
<path d="M84.6084 49.5413L83.6953 50.2432L88.4168 56.3853L89.3299 55.6833L84.6084 49.5413Z" fill="#7D192F"/>
<path d="M93.131 31.1031L88.4492 37.2466L89.3652 37.9447L94.047 31.8012L93.131 31.1031Z" fill="#7D192F"/>
<path d="M93.131 37.2486L88.4492 43.3921L89.3652 44.0902L94.047 37.9467L93.131 37.2486Z" fill="#7D192F"/>
<path d="M93.131 43.3902L88.4492 49.5337L89.3652 50.2318L94.047 44.0883L93.131 43.3902Z" fill="#7D192F"/>
<path d="M93.131 49.5318L88.4492 55.6753L89.3652 56.3734L94.047 50.2299L93.131 49.5318Z" fill="#7D192F"/>
<path d="M39.8854 92.9993H30.4414V94.9188H39.8854V92.9993Z" fill="#7D192F"/>
<path d="M93.6354 92.9993H84.1914V94.9188H93.6354V92.9993Z" fill="#7D192F"/>
<path d="M30.4432 90.312H13.8203V92.2315H30.4432V90.312Z" fill="#7D192F"/>
<path d="M110.178 90.312H93.5938V92.2315H110.178V90.312Z" fill="#7D192F"/>
</g>
<defs>
<clipPath id="clip0_57_1551">
<rect width="124" height="103.999" fill="white" transform="translate(0 0.709717)"/>
</clipPath>
</defs>
</svg>
