<svg width="60" height="60" viewBox="0 0 60 60" fill="none" xmlns="http://www.w3.org/2000/svg">
<rect width="60" height="60" fill="white"/>
<path fill-rule="evenodd" clip-rule="evenodd" d="M31.0468 3C25.5086 3 20.462 4.82371 17.4764 6.31372C17.2067 6.44818 16.9553 6.58019 16.7211 6.70731C16.2577 6.95911 15.8629 7.19379 15.549 7.40037L18.9453 12.385L20.5441 13.0194C26.7923 16.162 35.1714 16.162 41.4208 13.0194L43.2354 12.0806L46.4478 7.40037C45.7823 6.96766 45.0902 6.57697 44.3757 6.2306C41.4061 4.75648 36.4809 3 31.0468 3ZM23.1471 8.64225C21.9445 8.41789 20.7566 8.12072 19.5902 7.7524C22.3869 6.51418 26.5556 5.20018 31.0456 5.20018C34.1562 5.20018 37.0976 5.8309 39.5302 6.6303C36.6795 7.03 33.6376 7.70839 30.7391 8.54324C28.4585 9.20085 25.793 9.12996 23.1471 8.64225ZM42.7156 14.8321L42.4152 14.9837C35.5405 18.4404 26.4232 18.4404 19.5485 14.9837L19.2641 14.8394C8.9379 26.1349 1.05411 47 31.0468 47C61.0371 47 52.9608 25.745 42.7156 14.8321ZM29.7717 25.0018C29.1213 25.0018 28.4976 25.2594 28.0377 25.7179C27.5779 26.1763 27.3195 26.7981 27.3195 27.4465C27.3195 28.0948 27.5779 28.7166 28.0377 29.1751C28.4976 29.6336 29.1213 29.8911 29.7717 29.8911V25.0018ZM32.2239 22.5572V21.3349H29.7717V22.5572C28.471 22.5572 27.2235 23.0723 26.3038 23.9892C25.384 24.9061 24.8673 26.1498 24.8673 27.4465C24.8673 28.7432 25.384 29.9868 26.3038 30.9037C27.2235 31.8207 28.471 32.3358 29.7717 32.3358V37.2251C29.2646 37.2252 28.7699 37.0686 28.3557 36.7768C27.9416 36.485 27.6284 36.0723 27.4593 35.5957C27.351 35.29 27.1253 35.0397 26.8319 34.8999C26.5385 34.7601 26.2014 34.7421 25.8948 34.8501C25.5881 34.958 25.3371 35.183 25.1968 35.4755C25.0565 35.768 25.0386 36.1041 25.1469 36.4098C25.4851 37.3632 26.1114 38.1886 26.9397 38.7724C27.7679 39.3562 28.7573 39.6697 29.7717 39.6697V40.892H32.2239V39.6697C33.5246 39.6697 34.7721 39.1546 35.6918 38.2377C36.6115 37.3208 37.1283 36.0771 37.1283 34.7804C37.1283 33.4837 36.6115 32.2401 35.6918 31.3232C34.7721 30.4062 33.5246 29.8911 32.2239 29.8911V25.0018C33.2906 25.0018 34.1991 25.6802 34.5375 26.6312C34.5877 26.7868 34.6687 26.9307 34.7757 27.0546C34.8827 27.1784 35.0135 27.2796 35.1604 27.3521C35.3073 27.4247 35.4673 27.4671 35.631 27.477C35.7946 27.4868 35.9586 27.4638 36.1132 27.4094C36.2677 27.3549 36.4098 27.2701 36.5309 27.16C36.652 27.0498 36.7498 26.9166 36.8184 26.7682C36.8869 26.6197 36.925 26.4591 36.9302 26.2957C36.9354 26.1324 36.9077 25.9696 36.8487 25.8171C36.5105 24.8637 35.8842 24.0383 35.0559 23.4545C34.2277 22.8707 33.2382 22.5572 32.2239 22.5572ZM32.2239 32.3358V37.2251C32.8742 37.2251 33.498 36.9675 33.9578 36.5091C34.4177 36.0506 34.6761 35.4288 34.6761 34.7804C34.6761 34.1321 34.4177 33.5103 33.9578 33.0518C33.498 32.5933 32.8742 32.3358 32.2239 32.3358Z" fill="#F6A847"/>
</svg>
