<svg width="107" height="104" viewBox="0 0 107 104" fill="none" xmlns="http://www.w3.org/2000/svg">
<g clip-path="url(#clip0_57_1623)">
<path d="M47.2464 27.5166L40.5293 33.9424L41.3382 34.788L48.0553 28.3623L47.2464 27.5166Z" fill="#7D192F"/>
<path d="M51.3488 27.5184L44.6317 33.9441L45.4407 34.7897L52.1578 28.364L51.3488 27.5184Z" fill="#7D192F"/>
<path d="M55.6686 27.5188L48.9515 33.9446L49.7604 34.7902L56.4775 28.3645L55.6686 27.5188Z" fill="#7D192F"/>
<path d="M59.995 27.5191L53.2779 33.9448L54.0868 34.7905L60.8039 28.3647L59.995 27.5191Z" fill="#7D192F"/>
<path d="M64.0941 27.5184L57.377 33.9441L58.1859 34.7897L64.903 28.364L64.0941 27.5184Z" fill="#7D192F"/>
<path d="M68.6378 27.5171L61.9207 33.9429L62.7297 34.7885L69.4468 28.3628L68.6378 27.5171Z" fill="#7D192F"/>
<path d="M12.9559 87.6826H11.7857V102.943H12.9559V87.6826Z" fill="#7D192F"/>
<path d="M9.56566 87.6826H8.39542V102.943H9.56566V87.6826Z" fill="#7D192F"/>
<path d="M6.17205 87.6826H5.0018V102.943H6.17205V87.6826Z" fill="#7D192F"/>
<path d="M19.7498 87.6826H18.5796V102.943H19.7498V87.6826Z" fill="#7D192F"/>
<path d="M16.3562 87.6826H15.1859V102.943H16.3562V87.6826Z" fill="#7D192F"/>
<path d="M26.537 87.6826H25.3668V102.943H26.537V87.6826Z" fill="#7D192F"/>
<path d="M23.1434 87.6826H21.9731V102.943H23.1434V87.6826Z" fill="#7D192F"/>
<path d="M33.3309 87.6826H32.1606V102.943H33.3309V87.6826Z" fill="#7D192F"/>
<path d="M29.934 87.6826H28.7637V102.943H29.934V87.6826Z" fill="#7D192F"/>
<path d="M36.7245 87.6826H35.5543V102.943H36.7245V87.6826Z" fill="#7D192F"/>
<path d="M43.5084 87.6826H42.3381V102.943H43.5084V87.6826Z" fill="#7D192F"/>
<path d="M40.1181 87.6826H38.9479V102.943H40.1181V87.6826Z" fill="#7D192F"/>
<path d="M50.2989 87.6826H49.1287V102.943H50.2989V87.6826Z" fill="#7D192F"/>
<path d="M46.9053 87.6826H45.7351V102.943H46.9053V87.6826Z" fill="#7D192F"/>
<path d="M53.7527 87.6826H52.5825V102.943H53.7527V87.6826Z" fill="#7D192F"/>
<path d="M57.1463 87.6826H55.976V102.943H57.1463V87.6826Z" fill="#7D192F"/>
<path d="M63.9335 87.6826H62.7632V102.943H63.9335V87.6826Z" fill="#7D192F"/>
<path d="M60.5399 87.6826H59.3697V102.943H60.5399V87.6826Z" fill="#7D192F"/>
<path d="M70.7274 87.6826H69.5572V102.943H70.7274V87.6826Z" fill="#7D192F"/>
<path d="M67.3338 87.6826H66.1635V102.943H67.3338V87.6826Z" fill="#7D192F"/>
<path d="M77.5146 87.6826H76.3444V102.943H77.5146V87.6826Z" fill="#7D192F"/>
<path d="M74.121 87.6826H72.9507V102.943H74.121V87.6826Z" fill="#7D192F"/>
<path d="M84.3052 87.6826H83.1349V102.943H84.3052V87.6826Z" fill="#7D192F"/>
<path d="M80.9116 87.6826H79.7413V102.943H80.9116V87.6826Z" fill="#7D192F"/>
<path d="M87.7556 87.6826H86.5854V102.943H87.7556V87.6826Z" fill="#7D192F"/>
<path d="M91.1492 87.6826H89.9789V102.943H91.1492V87.6826Z" fill="#7D192F"/>
<path d="M97.9364 87.6826H96.7662V102.943H97.9364V87.6826Z" fill="#7D192F"/>
<path d="M94.5428 87.6826H93.3726V102.943H94.5428V87.6826Z" fill="#7D192F"/>
<path d="M101.337 87.6826H100.166V102.943H101.337V87.6826Z" fill="#7D192F"/>
<path d="M3.09338 88.498C2.88647 88.498 2.68803 88.5802 2.54172 88.7265C2.39541 88.8728 2.31321 89.0713 2.31321 89.2782V100.91C2.31321 101.117 2.39541 101.316 2.54172 101.462C2.68803 101.608 2.88647 101.691 3.09338 101.691H103.243C103.45 101.691 103.649 101.608 103.795 101.462C103.941 101.316 104.023 101.117 104.023 100.91V89.2704C104.023 89.0635 103.941 88.865 103.795 88.7187C103.649 88.5724 103.45 88.4902 103.243 88.4902L3.09338 88.498ZM103.239 104H3.09338C2.68654 104.001 2.28351 103.921 1.90748 103.766C1.53146 103.611 1.18987 103.383 0.902364 103.095C0.614863 102.807 0.387128 102.465 0.232268 102.089C0.0774073 101.713 -0.0015221 101.309 2.22315e-05 100.903V89.2704C-0.00100692 88.8639 0.0783027 88.4611 0.233394 88.0854C0.388485 87.7096 0.616301 87.3682 0.903751 87.0807C1.1912 86.7933 1.53262 86.5655 1.90839 86.4104C2.28415 86.2553 2.68687 86.176 3.09338 86.177H103.243C103.65 86.176 104.052 86.2553 104.428 86.4104C104.804 86.5655 105.145 86.7933 105.433 87.0807C105.72 87.3682 105.948 87.7096 106.103 88.0854C106.258 88.4611 106.338 88.8639 106.337 89.2704V100.903C106.338 101.309 106.259 101.713 106.104 102.089C105.95 102.465 105.722 102.807 105.434 103.095C105.147 103.383 104.805 103.611 104.429 103.766C104.053 103.921 103.65 104.001 103.243 104H103.239Z" fill="#7D192F"/>
<path d="M99.42 88.4981C99.2055 88.4989 98.9949 88.4408 98.8112 88.33C98.6275 88.2192 98.4778 88.0601 98.3785 87.87L84.2575 60.9738C84.1652 60.8121 84.1156 60.6295 84.1131 60.4433V44.3368C84.1136 43.9811 84.044 43.6289 83.9081 43.3002C83.7722 42.9715 83.5728 42.6729 83.3214 42.4214C83.0699 42.1699 82.7712 41.9705 82.4426 41.8346C82.1139 41.6988 81.7616 41.6291 81.406 41.6296H24.7152C24.3596 41.6291 24.0073 41.6988 23.6786 41.8346C23.3499 41.9705 23.0513 42.1699 22.7998 42.4214C22.5483 42.6729 22.3489 42.9715 22.2131 43.3002C22.0772 43.6289 22.0075 43.9811 22.008 44.3368V60.4199C22.0118 60.6069 21.9617 60.7911 21.8637 60.9504L7.7622 87.8935C7.69356 88.0296 7.59819 88.1505 7.4818 88.249C7.3654 88.3474 7.23036 88.4215 7.08474 88.4666C6.93911 88.5117 6.78589 88.5271 6.6342 88.5117C6.48252 88.4964 6.33548 88.4506 6.20187 88.3772C5.93372 88.2315 5.73308 87.9868 5.64272 87.6954C5.55236 87.4039 5.57943 87.0886 5.71817 86.8168L19.687 60.1508V44.3602C19.6865 43.6992 19.8163 43.0447 20.069 42.4339C20.3217 41.8231 20.6924 41.2682 21.1598 40.8008C21.6271 40.3335 22.1821 39.9628 22.7928 39.7101C23.4036 39.4574 24.0581 39.3276 24.7191 39.3281H81.406C82.0669 39.3276 82.7215 39.4574 83.3323 39.7101C83.943 39.9628 84.4979 40.3335 84.9653 40.8008C85.4327 41.2682 85.8033 41.8231 86.056 42.4339C86.3087 43.0447 86.4385 43.6992 86.438 44.3602V60.1781L100.415 86.8285C100.553 87.1003 100.58 87.4156 100.49 87.7071C100.4 87.9985 100.199 88.2432 99.931 88.3889C99.7711 88.4579 99.598 88.4911 99.4239 88.4864L99.42 88.4981Z" fill="#7D192F"/>
<path d="M53.0871 52.197C44.0411 52.197 35.4554 48.0855 30.1385 41.1694C30.0222 41.0508 29.9324 40.9088 29.8751 40.7528C29.8179 40.5968 29.7946 40.4305 29.8066 40.2648C29.8187 40.0991 29.8659 39.9378 29.9451 39.7918C30.0243 39.6457 30.1337 39.5182 30.266 39.4178C30.3983 39.3173 30.5505 39.2461 30.7124 39.209C30.8744 39.1719 31.0423 39.1697 31.2052 39.2026C31.3681 39.2354 31.522 39.3026 31.6569 39.3996C31.7918 39.4965 31.9045 39.6211 31.9875 39.7651C36.8714 46.1 44.7588 49.8721 53.1027 49.8721C61.4466 49.8721 69.3302 46.1 74.2179 39.7651C74.4196 39.574 74.6827 39.461 74.9601 39.4461C75.2375 39.4312 75.5111 39.5155 75.7321 39.684C75.953 39.8524 76.1068 40.0939 76.166 40.3653C76.2252 40.6367 76.1859 40.9203 76.0552 41.1655C70.7071 48.0816 62.1487 52.1931 53.1027 52.1931L53.0871 52.197Z" fill="#7D192F"/>
<path d="M27.5467 41.6257C27.2364 41.6257 26.9387 41.5024 26.7193 41.283C26.4998 41.0635 26.3765 40.7659 26.3765 40.4555V35.244C26.3765 34.9336 26.4998 34.636 26.7193 34.4165C26.9387 34.197 27.2364 34.0737 27.5467 34.0737C27.8571 34.0737 28.1548 34.197 28.3742 34.4165C28.5937 34.636 28.717 34.9336 28.717 35.244V40.4672C28.7139 40.7755 28.5893 41.0702 28.3701 41.2871C28.151 41.5041 27.8551 41.6258 27.5467 41.6257ZM35.2392 41.6257C35.0846 41.6289 34.931 41.6008 34.7876 41.5432C34.6442 41.4855 34.5139 41.3994 34.4046 41.2901C34.2953 41.1808 34.2092 41.0505 34.1515 40.9071C34.0938 40.7636 34.0657 40.61 34.0689 40.4555V35.244C34.0689 34.9336 34.1922 34.636 34.4117 34.4165C34.6312 34.197 34.9288 34.0737 35.2392 34.0737C35.3937 34.0705 35.5473 34.0986 35.6908 34.1563C35.8342 34.214 35.9645 34.3001 36.0738 34.4094C36.1831 34.5187 36.2692 34.649 36.3268 34.7924C36.3845 34.9358 36.4126 35.0894 36.4094 35.244V40.4672C36.4063 40.7762 36.2811 41.0715 36.0612 41.2885C35.8412 41.5056 35.5443 41.6268 35.2353 41.6257H35.2392Z" fill="#7D192F"/>
<path d="M70.9316 41.6257C70.777 41.6289 70.6234 41.6008 70.48 41.5432C70.3366 41.4855 70.2063 41.3994 70.097 41.2901C69.9877 41.1808 69.9016 41.0505 69.8439 40.9071C69.7863 40.7636 69.7582 40.61 69.7614 40.4555V35.244C69.7614 34.9336 69.8846 34.636 70.1041 34.4165C70.3236 34.197 70.6212 34.0737 70.9316 34.0737C71.242 34.0737 71.5396 34.197 71.7591 34.4165C71.9786 34.636 72.1018 34.9336 72.1018 35.244V40.4672C72.0988 40.7755 71.9741 41.0702 71.755 41.2871C71.5359 41.5041 71.24 41.6258 70.9316 41.6257ZM78.624 41.6257C78.4695 41.6289 78.3159 41.6008 78.1725 41.5432C78.029 41.4855 77.8988 41.3994 77.7894 41.2901C77.6801 41.1808 77.5941 41.0505 77.5364 40.9071C77.4787 40.7636 77.4506 40.61 77.4538 40.4555V35.244C77.4538 34.9336 77.5771 34.636 77.7965 34.4165C78.016 34.197 78.3137 34.0737 78.624 34.0737C78.9344 34.0737 79.2321 34.197 79.4515 34.4165C79.671 34.636 79.7943 34.9336 79.7943 35.244V40.4672C79.7912 40.7755 79.6665 41.0702 79.4474 41.2871C79.2283 41.5041 78.9324 41.6258 78.624 41.6257Z" fill="#7D192F"/>
<path d="M18.5011 34.0815H88.1582V24.0915H18.5011V34.0815ZM89.3128 36.422H17.3425C17.0322 36.422 16.7345 36.2987 16.515 36.0793C16.2956 35.8598 16.1723 35.5621 16.1723 35.2518V22.9329C16.1723 22.6226 16.2956 22.3249 16.515 22.1055C16.7345 21.886 17.0322 21.7627 17.3425 21.7627H89.3284C89.6388 21.7627 89.9364 21.886 90.1559 22.1055C90.3754 22.3249 90.4987 22.6226 90.4987 22.9329V35.244C90.4956 35.5523 90.3709 35.847 90.1518 36.0639C89.9327 36.2808 89.6368 36.4025 89.3284 36.4025L89.3128 36.422Z" fill="#7D192F"/>
<path d="M17.3413 26.2719H11.9698C11.8153 26.2751 11.6617 26.247 11.5183 26.1893C11.3748 26.1316 11.2446 26.0455 11.1352 25.9362C11.0259 25.8269 10.9399 25.6966 10.8822 25.5532C10.8245 25.4098 10.7964 25.2562 10.7996 25.1016C10.7996 24.7913 10.9229 24.4936 11.1423 24.2742C11.3618 24.0547 11.6595 23.9314 11.9698 23.9314H17.3413C17.6516 23.9314 17.9493 24.0547 18.1688 24.2742C18.3882 24.4936 18.5115 24.7913 18.5115 25.1016C18.5115 25.412 18.3882 25.7097 18.1688 25.9291C17.9493 26.1486 17.6516 26.2719 17.3413 26.2719ZM17.3413 34.2296H11.9698C11.8153 34.2328 11.6617 34.2047 11.5183 34.147C11.3748 34.0893 11.2446 34.0032 11.1352 33.8939C11.0259 33.7846 10.9399 33.6543 10.8822 33.5109C10.8245 33.3675 10.7964 33.2139 10.7996 33.0593C10.7996 32.749 10.9229 32.4513 11.1423 32.2318C11.3618 32.0124 11.6595 31.8891 11.9698 31.8891H17.3413C17.4958 31.8859 17.6494 31.914 17.7929 31.9717C17.9363 32.0294 18.0666 32.1154 18.1759 32.2247C18.2852 32.3341 18.3713 32.4643 18.4289 32.6078C18.4866 32.7512 18.5147 32.9048 18.5115 33.0593C18.5105 33.369 18.3867 33.6657 18.1674 33.8843C17.948 34.1029 17.651 34.2257 17.3413 34.2257V34.2296Z" fill="#7D192F"/>
<path d="M7.41276 35.6066H10.7987V22.5934H7.41276V35.6066ZM11.9572 37.9471H6.26592C6.11137 37.9503 5.95776 37.9222 5.81434 37.8645C5.67092 37.8068 5.54064 37.7208 5.43133 37.6114C5.32202 37.5021 5.23594 37.3719 5.17826 37.2284C5.12058 37.085 5.09248 36.9314 5.09567 36.7769V21.4349C5.09248 21.2803 5.12058 21.1267 5.17826 20.9833C5.23594 20.8399 5.32202 20.7096 5.43133 20.6003C5.54064 20.491 5.67092 20.4049 5.81434 20.3472C5.95776 20.2896 6.11137 20.2615 6.26592 20.2646H11.9767C12.1304 20.2646 12.2826 20.2949 12.4246 20.3537C12.5666 20.4125 12.6956 20.4987 12.8042 20.6074C12.9129 20.7161 12.9991 20.8451 13.0579 20.9871C13.1167 21.129 13.147 21.2812 13.147 21.4349V36.7652C13.147 37.0755 13.0237 37.3732 12.8042 37.5926C12.5848 37.8121 12.2871 37.9354 11.9767 37.9354L11.9572 37.9471Z" fill="#7D192F"/>
<path d="M94.6823 34.2257H89.3303C89.02 34.2257 88.7223 34.1024 88.5029 33.8829C88.2834 33.6635 88.1601 33.3658 88.1601 33.0554C88.1601 32.7451 88.2834 32.4474 88.5029 32.2279C88.7223 32.0085 89.02 31.8852 89.3303 31.8852H93.5393V26.268H89.3303C89.02 26.268 88.7223 26.1447 88.5029 25.9252C88.2834 25.7058 88.1601 25.4081 88.1601 25.0977C88.1601 24.7874 88.2834 24.4897 88.5029 24.2702C88.7223 24.0508 89.02 23.9275 89.3303 23.9275H94.6979C95.0083 23.9275 95.3059 24.0508 95.5254 24.2702C95.7448 24.4897 95.8681 24.7874 95.8681 25.0977V33.0554C95.8681 33.3658 95.7448 33.6635 95.5254 33.8829C95.3059 34.1024 95.0083 34.2257 94.6979 34.2257H94.6823Z" fill="#7D192F"/>
<path d="M79.3043 24.0913C79.1497 24.0945 78.9961 24.0664 78.8527 24.0087C78.7093 23.951 78.579 23.8649 78.4697 23.7556C78.3604 23.6463 78.2743 23.516 78.2166 23.3726C78.159 23.2292 78.1309 23.0756 78.1341 22.921V2.29734H28.0084V22.9327C28.0084 23.2431 27.8851 23.5408 27.6656 23.7602C27.4462 23.9797 27.1485 24.103 26.8382 24.103C26.5278 24.103 26.2301 23.9797 26.0107 23.7602C25.7912 23.5408 25.6679 23.2431 25.6679 22.9327V1.17C25.6647 1.01545 25.6928 0.861847 25.7505 0.718426C25.8082 0.575004 25.8943 0.444724 26.0036 0.335414C26.1129 0.226105 26.2432 0.140023 26.3866 0.0823411C26.53 0.0246591 26.6836 -0.00343211 26.8382 -0.000244408H79.3043C79.4589 -0.00343211 79.6125 0.0246591 79.7559 0.0823411C79.8993 0.140023 80.0296 0.226105 80.1389 0.335414C80.2482 0.444724 80.3343 0.575004 80.392 0.718426C80.4496 0.861847 80.4777 1.01545 80.4746 1.17V22.9288C80.4777 23.0834 80.4496 23.237 80.392 23.3804C80.3343 23.5238 80.2482 23.6541 80.1389 23.7634C80.0296 23.8727 79.8993 23.9588 79.7559 24.0165C79.6125 24.0742 79.4589 24.1023 79.3043 24.0991V24.0913Z" fill="#7D192F"/>
<path d="M61.4533 9.88078H44.7187C44.565 9.88078 44.4129 9.85051 44.2709 9.7917C44.1289 9.73289 43.9999 9.64669 43.8912 9.53802C43.7826 9.42936 43.6964 9.30035 43.6375 9.15837C43.5787 9.01639 43.5485 8.86421 43.5485 8.71053C43.5485 8.55685 43.5787 8.40468 43.6375 8.2627C43.6964 8.12072 43.7826 7.99171 43.8912 7.88304C43.9999 7.77437 44.1289 7.68817 44.2709 7.62936C44.4129 7.57055 44.565 7.54028 44.7187 7.54028H61.4533C61.7636 7.54028 62.0613 7.66358 62.2808 7.88304C62.5002 8.10251 62.6235 8.40016 62.6235 8.71053C62.6235 9.0209 62.5002 9.31856 62.2808 9.53802C62.0613 9.75749 61.7636 9.88078 61.4533 9.88078Z" fill="#7D192F"/>
<path d="M72.337 16.559H33.8358C33.5254 16.559 33.2278 16.4357 33.0083 16.2162C32.7888 15.9968 32.6655 15.6991 32.6655 15.3888C32.6655 15.0784 32.7888 14.7807 33.0083 14.5613C33.2278 14.3418 33.5254 14.2185 33.8358 14.2185H72.337C72.6473 14.2185 72.945 14.3418 73.1644 14.5613C73.3839 14.7807 73.5072 15.0784 73.5072 15.3888C73.5072 15.6991 73.3839 15.9968 73.1644 16.2162C72.945 16.4357 72.6473 16.559 72.337 16.559Z" fill="#7D192F"/>
<path d="M30.9337 64.1919C32.8985 64.1919 34.4913 63.3309 34.4913 62.2688C34.4913 61.2067 32.8985 60.3457 30.9337 60.3457C28.969 60.3457 27.3762 61.2067 27.3762 62.2688C27.3762 63.3309 28.969 64.1919 30.9337 64.1919Z" stroke="#7D192F" stroke-width="1.56033" stroke-miterlimit="10"/>
<path d="M41.9605 64.1919C43.9252 64.1919 45.518 63.3309 45.518 62.2688C45.518 61.2067 43.9252 60.3457 41.9605 60.3457C39.9957 60.3457 38.4029 61.2067 38.4029 62.2688C38.4029 63.3309 39.9957 64.1919 41.9605 64.1919Z" stroke="#7D192F" stroke-width="1.56033" stroke-miterlimit="10"/>
<path d="M52.9871 64.1919C54.9519 64.1919 56.5447 63.3309 56.5447 62.2688C56.5447 61.2067 54.9519 60.3457 52.9871 60.3457C51.0223 60.3457 49.4296 61.2067 49.4296 62.2688C49.4296 63.3309 51.0223 64.1919 52.9871 64.1919Z" stroke="#7D192F" stroke-width="1.56033" stroke-miterlimit="10"/>
<path d="M64.0138 64.1919C65.9786 64.1919 67.5714 63.3309 67.5714 62.2688C67.5714 61.2067 65.9786 60.3457 64.0138 60.3457C62.049 60.3457 60.4563 61.2067 60.4563 62.2688C60.4563 63.3309 62.049 64.1919 64.0138 64.1919Z" stroke="#7D192F" stroke-width="1.56033" stroke-miterlimit="10"/>
<path d="M75.0439 64.1919C77.0087 64.1919 78.6014 63.3309 78.6014 62.2688C78.6014 61.2067 77.0087 60.3457 75.0439 60.3457C73.0791 60.3457 71.4863 61.2067 71.4863 62.2688C71.4863 63.3309 73.0791 64.1919 75.0439 64.1919Z" stroke="#7D192F" stroke-width="1.56033" stroke-miterlimit="10"/>
<path d="M30.9337 72.8867C32.8985 72.8867 34.4913 72.0257 34.4913 70.9636C34.4913 69.9015 32.8985 69.0405 30.9337 69.0405C28.969 69.0405 27.3762 69.9015 27.3762 70.9636C27.3762 72.0257 28.969 72.8867 30.9337 72.8867Z" stroke="#7D192F" stroke-width="1.56033" stroke-miterlimit="10"/>
<path d="M41.9605 72.8867C43.9252 72.8867 45.518 72.0257 45.518 70.9636C45.518 69.9015 43.9252 69.0405 41.9605 69.0405C39.9957 69.0405 38.4029 69.9015 38.4029 70.9636C38.4029 72.0257 39.9957 72.8867 41.9605 72.8867Z" stroke="#7D192F" stroke-width="1.56033" stroke-miterlimit="10"/>
<path d="M52.9871 72.8867C54.9519 72.8867 56.5447 72.0257 56.5447 70.9636C56.5447 69.9015 54.9519 69.0405 52.9871 69.0405C51.0223 69.0405 49.4296 69.9015 49.4296 70.9636C49.4296 72.0257 51.0223 72.8867 52.9871 72.8867Z" stroke="#7D192F" stroke-width="1.56033" stroke-miterlimit="10"/>
<path d="M64.0138 72.8867C65.9786 72.8867 67.5714 72.0257 67.5714 70.9636C67.5714 69.9015 65.9786 69.0405 64.0138 69.0405C62.049 69.0405 60.4563 69.9015 60.4563 70.9636C60.4563 72.0257 62.049 72.8867 64.0138 72.8867Z" stroke="#7D192F" stroke-width="1.56033" stroke-miterlimit="10"/>
<path d="M75.0439 72.8867C77.0087 72.8867 78.6014 72.0257 78.6014 70.9636C78.6014 69.9015 77.0087 69.0405 75.0439 69.0405C73.0791 69.0405 71.4863 69.9015 71.4863 70.9636C71.4863 72.0257 73.0791 72.8867 75.0439 72.8867Z" stroke="#7D192F" stroke-width="1.56033" stroke-miterlimit="10"/>
<path d="M30.9337 81.6365C32.8985 81.6365 34.4913 80.7755 34.4913 79.7134C34.4913 78.6513 32.8985 77.7903 30.9337 77.7903C28.969 77.7903 27.3762 78.6513 27.3762 79.7134C27.3762 80.7755 28.969 81.6365 30.9337 81.6365Z" stroke="#7D192F" stroke-width="1.56033" stroke-miterlimit="10"/>
<path d="M41.9605 81.6365C43.9252 81.6365 45.518 80.7755 45.518 79.7134C45.518 78.6513 43.9252 77.7903 41.9605 77.7903C39.9957 77.7903 38.4029 78.6513 38.4029 79.7134C38.4029 80.7755 39.9957 81.6365 41.9605 81.6365Z" stroke="#7D192F" stroke-width="1.56033" stroke-miterlimit="10"/>
<path d="M52.9871 81.6365C54.9519 81.6365 56.5447 80.7755 56.5447 79.7134C56.5447 78.6513 54.9519 77.7903 52.9871 77.7903C51.0223 77.7903 49.4296 78.6513 49.4296 79.7134C49.4296 80.7755 51.0223 81.6365 52.9871 81.6365Z" stroke="#7D192F" stroke-width="1.56033" stroke-miterlimit="10"/>
<path d="M64.0138 81.6365C65.9786 81.6365 67.5714 80.7755 67.5714 79.7134C67.5714 78.6513 65.9786 77.7903 64.0138 77.7903C62.049 77.7903 60.4563 78.6513 60.4563 79.7134C60.4563 80.7755 62.049 81.6365 64.0138 81.6365Z" stroke="#7D192F" stroke-width="1.56033" stroke-miterlimit="10"/>
<path d="M75.0439 81.6365C77.0087 81.6365 78.6014 80.7755 78.6014 79.7134C78.6014 78.6513 77.0087 77.7903 75.0439 77.7903C73.0791 77.7903 71.4863 78.6513 71.4863 79.7134C71.4863 80.7755 73.0791 81.6365 75.0439 81.6365Z" stroke="#7D192F" stroke-width="1.56033" stroke-miterlimit="10"/>
<path d="M86.2043 81.6365C88.1691 81.6365 89.7619 80.7755 89.7619 79.7134C89.7619 78.6513 88.1691 77.7903 86.2043 77.7903C84.2395 77.7903 82.6468 78.6513 82.6468 79.7134C82.6468 80.7755 84.2395 81.6365 86.2043 81.6365Z" stroke="#7D192F" stroke-width="1.56033" stroke-miterlimit="10"/>
<path d="M20.1277 81.6365C22.0925 81.6365 23.6852 80.7755 23.6852 79.7134C23.6852 78.6513 22.0925 77.7903 20.1277 77.7903C18.1629 77.7903 16.5701 78.6513 16.5701 79.7134C16.5701 80.7755 18.1629 81.6365 20.1277 81.6365Z" stroke="#7D192F" stroke-width="1.56033" stroke-miterlimit="10"/>
</g>
<defs>
<clipPath id="clip0_57_1623">
<rect width="106.337" height="104" fill="white"/>
</clipPath>
</defs>
</svg>
