<svg width="49" height="49" viewBox="0 0 49 49" fill="none" xmlns="http://www.w3.org/2000/svg">
<rect width="49" height="49" fill="white"/>
<path d="M23.825 4C12.3421 4 3 13.3421 3 24.825V33.4528C3 35.5853 4.868 37.32 7.165 37.32H9.2475C9.79981 37.32 10.3295 37.1006 10.72 36.7101C11.1106 36.3195 11.33 35.7898 11.33 35.2375V24.5272C11.33 23.9749 11.1106 23.4452 10.72 23.0547C10.3295 22.6641 9.79981 22.4447 9.2475 22.4447H7.35659C8.51446 14.3854 15.4492 8.165 23.825 8.165C32.2008 8.165 39.1355 14.3854 40.2934 22.4447H38.4025C37.8502 22.4447 37.3205 22.6641 36.9299 23.0547C36.5394 23.4452 36.32 23.9749 36.32 24.5272V37.32C36.32 39.617 34.452 41.485 32.155 41.485H27.99V39.4025H19.66V45.65H32.155C36.749 45.65 40.485 41.914 40.485 37.32C42.782 37.32 44.65 35.5853 44.65 33.4528V24.825C44.65 13.3421 35.3079 4 23.825 4Z" fill="#EFAB56"/>
</svg>
