<svg width="110" height="106" viewBox="0 0 110 106" fill="none" xmlns="http://www.w3.org/2000/svg">
<g clip-path="url(#clip0_57_1690)">
<path d="M77.3049 32.5419H49.1581C48.837 32.5419 48.529 32.4144 48.302 32.1873C48.0749 31.9602 47.9473 31.6523 47.9473 31.3311C47.9473 31.01 48.0749 30.7021 48.302 30.475C48.529 30.2479 48.837 30.1204 49.1581 30.1204H77.3008C77.4535 30.1266 77.6035 30.1629 77.7421 30.2271C77.8808 30.2914 78.0054 30.3823 78.1089 30.4948C78.2123 30.6072 78.2926 30.739 78.3451 30.8825C78.3976 31.026 78.4213 31.1785 78.4148 31.3311C78.4237 31.6377 78.3127 31.9357 78.1055 32.1617C77.8983 32.3878 77.6111 32.5242 77.3049 32.5419Z" fill="#7D192F"/>
<path d="M77.3045 40.069H46.046C45.7249 40.069 45.4169 39.9415 45.1899 39.7144C44.9628 39.4873 44.8352 39.1794 44.8352 38.8582C44.8352 38.5371 44.9628 38.2292 45.1899 38.0021C45.4169 37.775 45.7249 37.6475 46.046 37.6475H77.3005C77.4532 37.6537 77.6031 37.69 77.7418 37.7542C77.8804 37.8185 78.005 37.9094 78.1085 38.0219C78.212 38.1343 78.2922 38.2661 78.3447 38.4096C78.3972 38.5531 78.4209 38.7056 78.4144 38.8582C78.4233 39.1648 78.3124 39.4628 78.1051 39.6888C77.8979 39.9149 77.6107 40.0513 77.3045 40.069Z" fill="#7D192F"/>
<path d="M69.2288 25.1723H54.5783C54.2572 25.1723 53.9492 25.0447 53.7221 24.8177C53.4951 24.5906 53.3675 24.2826 53.3675 23.9615C53.3675 23.6404 53.4951 23.3324 53.7221 23.1054C53.9492 22.8783 54.2572 22.7507 54.5783 22.7507H69.2288C69.3815 22.757 69.5315 22.7932 69.6701 22.8575C69.8088 22.9217 69.9334 23.0127 70.0368 23.1251C70.1403 23.2376 70.2206 23.3694 70.2731 23.5129C70.3256 23.6564 70.3492 23.8088 70.3427 23.9615C70.3516 24.2687 70.2401 24.5673 70.032 24.7935C69.8239 25.0196 69.5357 25.1556 69.2288 25.1723Z" fill="#7D192F"/>
<path d="M77.3045 47.5961H42.8173C42.4961 47.5961 42.1882 47.4686 41.9611 47.2415C41.734 47.0144 41.6065 46.7065 41.6065 46.3853C41.6065 46.0642 41.734 45.7563 41.9611 45.5292C42.1882 45.3021 42.4961 45.1746 42.8173 45.1746H77.3005C77.4532 45.1808 77.6031 45.2171 77.7418 45.2813C77.8804 45.3456 78.005 45.4365 78.1085 45.549C78.212 45.6614 78.2922 45.7932 78.3447 45.9367C78.3972 46.0802 78.4209 46.2327 78.4144 46.3853C78.4233 46.6919 78.3124 46.9899 78.1051 47.2159C77.8979 47.442 77.6107 47.5784 77.3045 47.5961Z" fill="#7D192F"/>
<path d="M77.3045 55.454H33.5346C33.2134 55.454 32.9055 55.3265 32.6784 55.0994C32.4513 54.8723 32.3238 54.5644 32.3238 54.2433C32.3238 53.9221 32.4513 53.6142 32.6784 53.3871C32.9055 53.16 33.2134 53.0325 33.5346 53.0325H77.3045C77.4572 53.0387 77.6072 53.075 77.7458 53.1392C77.8845 53.2035 78.0091 53.2944 78.1125 53.4069C78.216 53.5193 78.2963 53.6511 78.3488 53.7946C78.4013 53.9381 78.4249 54.0906 78.4184 54.2433C78.4273 54.5505 78.3158 54.849 78.1077 55.0752C77.8996 55.3014 77.6114 55.4373 77.3045 55.454Z" fill="#7D192F"/>
<path d="M29.007 56.8868C32.3715 55.8096 35.5332 54.1797 38.3623 52.0638L39.5731 51.1557C42.1884 49.1983 43.6091 46.2561 44.2346 44.678C44.3283 44.4353 44.3632 44.1738 44.3365 43.915C44.3099 43.6562 44.2224 43.4073 44.0813 43.1888C43.9876 43.0475 43.8733 42.921 43.7423 42.8134C45.1678 41.6001 46.3545 40.1314 47.2414 38.4828L47.8831 37.2277C48.2867 36.4568 48.6903 35.694 49.0939 34.9352C49.6913 33.8415 49.8446 33.0787 49.5944 32.4531C49.511 32.2676 49.3901 32.1013 49.2392 31.9648C50.5489 30.858 51.6826 29.5583 52.6012 28.1104C53.5254 26.6615 54.4779 25.2288 55.4788 23.8283C57.0004 21.7013 58.7802 19.199 59.0062 18.8519C59.1682 18.6321 59.2691 18.3733 59.2989 18.1019C59.3287 17.8304 59.2862 17.5559 59.1758 17.3062C59.0595 17.0756 58.8882 16.8773 58.677 16.7287C58.4658 16.5802 58.2213 16.486 57.965 16.4546C57.8383 16.4302 57.7082 16.4302 57.5816 16.4546C57.5816 16.4546 56.2739 16.7492 54.2115 17.3586C47.193 19.4452 32.1268 24.9139 28.7204 34.5074C28.4827 34.3421 28.2026 34.2483 27.9132 34.237C26.8074 34.2007 26.1536 35.3146 25.9356 35.6819C25.8347 35.8474 25.7136 36.029 25.5764 36.2308C24.4302 37.9339 22.2911 41.1102 23.8732 48.3871C24.5513 51.5069 25.6208 53.9849 27.0173 55.8536C27.1585 56.9716 28.5388 57.5487 29.007 56.8868ZM27.994 53.3432C27.0726 51.6438 26.4127 49.8151 26.0365 47.9189C24.6643 41.6067 26.3594 39.0398 27.3926 37.5021C27.5689 38.2964 27.7927 39.0794 28.0626 39.847C28.1452 40.0862 28.3082 40.2893 28.5238 40.4218C28.7395 40.5543 28.9944 40.6079 29.2451 40.5735C29.4955 40.5423 29.7277 40.4264 29.9031 40.2451C30.0786 40.0637 30.1868 39.8279 30.2097 39.5766L30.2702 39.1165C29.7738 28.0822 47.2979 21.7296 54.8573 19.5017C55.3214 19.3645 55.7492 19.2434 56.1286 19.1385L53.707 22.5327C52.6819 23.9615 51.6891 25.4306 50.7648 26.9158C49.9576 28.1831 48.198 30.5038 45.4535 31.8033C45.2323 31.9161 45.0552 32.0997 44.9507 32.325C44.8462 32.5502 44.8202 32.804 44.8769 33.0457C44.9336 33.2874 45.0698 33.5032 45.2636 33.6584C45.4574 33.8137 45.6976 33.8994 45.9459 33.902L47.1567 33.8657C46.7531 34.6446 46.3132 35.4236 45.9096 36.2106L45.2679 37.4738C45.2477 37.5142 43.4597 40.9892 40.2189 42.4421C39.9921 42.5431 39.8059 42.7174 39.6903 42.937C39.5746 43.1566 39.5362 43.4088 39.5812 43.6529C39.6428 43.8909 39.7755 44.1045 39.9615 44.2652C40.1475 44.426 40.378 44.5264 40.6225 44.5529L41.8333 44.6054C41.2359 45.913 40.0695 47.9835 38.2291 49.3638L36.9941 50.288C34.8538 51.8821 32.5113 53.185 30.0281 54.1625C30.468 53.1011 28.9222 52.1728 27.994 53.3432Z" fill="#7D192F"/>
<path d="M40.1009 34.4187C37.2313 39.1448 30.5397 48.5446 25.3252 64.6884C24.8853 66.0566 24.4857 67.4167 24.1427 68.7647C21.8704 77.6963 20.1794 88.1978 19.2148 94.9581" stroke="#7D192F" stroke-width="2.42157" stroke-linecap="round" stroke-linejoin="round"/>
<path d="M93.6339 89.2754V17.4717H108.741C108.923 17.4716 109.104 17.4311 109.269 17.3529C109.434 17.2747 109.58 17.1609 109.695 17.0196C109.811 16.8783 109.894 16.713 109.938 16.5358C109.983 16.3585 109.987 16.1736 109.951 15.9945C109.858 15.3972 106.953 1.31572 97.6699 0.121079L97.5084 0.0807191C97.3927 0.0383026 97.272 0.0111672 97.1492 0L26.5402 0C23.9915 0.00213371 21.5476 1.015 19.7447 2.81646C17.9417 4.61792 16.9268 7.0609 16.9225 9.60961V64.652L19.4127 64.7569V9.61365C19.4159 7.72574 20.1675 5.91614 21.5029 4.58157C22.8382 3.24699 24.6482 2.49636 26.5361 2.49422H93.194L92.7501 3.5355C91.8299 5.69474 91.2971 8.83875 91.1599 12.8747V89.2754C91.148 91.13 90.4162 92.9074 89.1188 94.2327C87.8214 95.558 86.0598 96.3274 84.2059 96.3787C76.3842 96.2091 73.4905 83.8672 73.1878 82.4425C73.1371 82.1569 72.9885 81.8979 72.7675 81.7101C72.5465 81.5223 72.267 81.4173 71.977 81.4133H38.9225C38.5703 81.4275 38.232 81.5549 37.9579 81.7766C37.8649 81.8996 37.7982 82.0406 37.7621 82.1906C37.726 82.3406 37.7212 82.4964 37.748 82.6483C37.748 82.9791 37.8794 83.2963 38.1133 83.5302C38.3472 83.764 38.6644 83.8954 38.9951 83.8954H70.968L71.1173 84.4484C71.8034 86.987 73.4178 91.7534 76.4892 95.1396L77.6233 96.3908H34.9229C34.7585 96.3886 34.5953 96.4194 34.4431 96.4813C34.2908 96.5432 34.1524 96.6349 34.0362 96.7512C33.9199 96.8674 33.8282 97.0058 33.7663 97.1581C33.7044 97.3103 33.6736 97.4735 33.6758 97.6379C33.6768 97.9679 33.8087 98.2841 34.0424 98.5171C34.2762 98.7501 34.5928 98.8809 34.9229 98.8809H84.2867C84.3647 98.859 84.4443 98.8429 84.5248 98.8325H84.5692C87.0145 98.6975 89.3157 97.6325 91.001 95.8556C92.6864 94.0786 93.6284 91.7244 93.6339 89.2754ZM93.6339 12.9151C93.8196 7.15979 94.9254 3.32159 96.5842 2.62337L96.7537 2.55072H96.9353C100.382 2.83728 103.837 4.42341 106.848 13.9927L107.154 14.9653H93.6339V12.9151Z" fill="#7D192F"/>
<path d="M1.21064 74.8428H12.4669L14.9289 100.16H7.37758L1.21064 74.8428Z" stroke="#7D192F" stroke-width="2.42157" stroke-linecap="round" stroke-linejoin="round"/>
<path d="M38.4336 74.8428H27.1773L24.7154 100.16H32.2707L38.4336 74.8428Z" stroke="#7D192F" stroke-width="2.42157" stroke-linecap="round" stroke-linejoin="round"/>
<path d="M12.4672 74.8428H27.1782L24.7163 100.16H14.9291L12.4672 74.8428Z" stroke="#7D192F" stroke-width="2.42157" stroke-linecap="round" stroke-linejoin="round"/>
<path d="M7.3772 100.16L3.95068 104.41H35.5441L32.271 100.16H7.3772Z" stroke="#7D192F" stroke-width="2.42157" stroke-linecap="round" stroke-linejoin="round"/>
<path d="M1.21064 74.8427C2.34318 74.6358 3.41001 74.1617 4.32254 73.4598C5.23506 72.7578 5.96694 71.8483 6.45738 70.8067C8.13231 67.2228 7.94665 64.7124 7.94665 64.7124H31.5772" stroke="#7D192F" stroke-width="2.42157" stroke-linecap="round" stroke-linejoin="round"/>
<path d="M38.4383 74.8427C37.3058 74.6358 36.2389 74.1617 35.3264 73.4598C34.4139 72.7578 33.682 71.8483 33.1916 70.8067C31.5166 67.2228 31.7023 64.7124 31.7023 64.7124H8.07177" stroke="#7D192F" stroke-width="2.42157" stroke-linecap="round" stroke-linejoin="round"/>
<path d="M46.437 83.0923H45.2262V98.8809H46.437V83.0923Z" fill="#7D192F"/>
<path d="M42.926 83.0923H41.7152V98.8809H42.926V83.0923Z" fill="#7D192F"/>
<path d="M39.4151 83.0923H38.2043V98.8809H39.4151V83.0923Z" fill="#7D192F"/>
<path d="M53.4637 83.0923H52.2529V98.8809H53.4637V83.0923Z" fill="#7D192F"/>
<path d="M49.9527 83.0923H48.7419V98.8809H49.9527V83.0923Z" fill="#7D192F"/>
<path d="M60.4872 83.0923H59.2764V98.8809H60.4872V83.0923Z" fill="#7D192F"/>
<path d="M56.9762 83.0923H55.7654V98.8809H56.9762V83.0923Z" fill="#7D192F"/>
<path d="M67.5138 83.0923H66.3031V98.8809H67.5138V83.0923Z" fill="#7D192F"/>
<path d="M64.0013 83.0923H62.7905V98.8809H64.0013V83.0923Z" fill="#7D192F"/>
<path d="M71.0248 83.0923H69.814V98.8809H71.0248V83.0923Z" fill="#7D192F"/>
<path d="M74.5358 87.5317H73.325V98.8808H74.5358V87.5317Z" fill="#7D192F"/>
<path d="M97.5045 1.01709H96.2937V15.9986H97.5045V1.01709Z" fill="#7D192F"/>
<path d="M104.531 4.64941H103.32V15.9985H104.531V4.64941Z" fill="#7D192F"/>
<path d="M101.02 2.22778H99.8094V15.9985H101.02V2.22778Z" fill="#7D192F"/>
</g>
<defs>
<clipPath id="clip0_57_1690">
<rect width="110" height="105.621" fill="white"/>
</clipPath>
</defs>
</svg>
