<svg width="92" height="106" viewBox="0 0 92 106" fill="none" xmlns="http://www.w3.org/2000/svg">
<g clip-path="url(#clip0_57_1964)">
<path d="M48.1729 81.3662H47.063V88.6032H48.1729V81.3662Z" fill="#7D192F"/>
<path d="M46.0103 32.3835C41.0825 32.3835 36.2653 33.8446 32.1677 36.5821C28.0702 39.3195 24.8763 43.2104 22.9898 47.7628C21.1034 52.3153 20.609 57.3248 21.5693 62.1582C22.5296 66.9915 24.9014 71.4316 28.3849 74.9172C31.8683 78.4027 36.307 80.7771 41.1398 81.7403C45.9726 82.7035 50.9824 82.2121 55.536 80.3283C60.0895 78.4446 63.9823 75.253 66.7222 71.1571C69.4621 67.0612 70.926 62.2448 70.929 57.317C70.925 50.708 68.2989 44.3706 63.627 39.6959C58.9551 35.0213 52.6193 32.3914 46.0103 32.3835ZM46.0103 79.9381C41.5327 79.9381 37.1557 78.6101 33.4329 76.1222C29.7102 73.6343 26.8089 70.0982 25.0961 65.9612C23.3832 61.8241 22.9358 57.2721 23.8104 52.8807C24.6851 48.4894 26.8424 44.4561 30.0095 41.291C33.1767 38.1259 37.2114 35.9712 41.6033 35.0995C45.9952 34.2278 50.547 34.6781 54.6829 36.3937C58.8188 38.1092 62.353 41.0128 64.8385 44.7372C67.324 48.4616 68.6491 52.8394 68.6461 57.317C68.6354 63.3158 66.2466 69.0655 62.0034 73.3059C57.7603 77.5462 52.009 79.9312 46.0103 79.9381Z" fill="#7D192F"/>
<path d="M44.8947 57.3169C44.8951 57.4662 44.9226 57.6141 44.9761 57.7535C45.0286 57.8923 45.1083 58.0191 45.2106 58.1265C45.3129 58.2339 45.4357 58.3197 45.5718 58.3788C45.8525 58.4882 46.1642 58.4882 46.4449 58.3788C46.5831 58.3226 46.7089 58.2396 46.8149 58.1346L54.7549 50.1947C54.9641 49.9798 55.0813 49.6917 55.0813 49.3918C55.0813 49.0919 54.9641 48.8038 54.7549 48.5889C54.54 48.3796 54.2519 48.2625 53.952 48.2625C53.6521 48.2625 53.364 48.3796 53.1491 48.5889L47.1812 54.5568V41.4519C47.1812 41.1486 47.0608 40.8579 46.8464 40.6434C46.632 40.429 46.3412 40.3086 46.0379 40.3086C45.7347 40.3086 45.4439 40.429 45.2295 40.6434C45.0151 40.8579 44.8947 41.1486 44.8947 41.4519V57.3169Z" fill="#7D192F"/>
<path d="M3.12961 98.0711H21.8584L35.7847 105.045C37.0488 105.676 38.4421 106.004 39.8546 106.004H51.968C53.3805 106.004 54.7738 105.676 56.0379 105.045L69.9864 98.0785H88.6967C89.3146 98.0903 89.9213 97.9121 90.4348 97.568C90.9482 97.2239 91.3437 96.7306 91.5678 96.1546C91.8128 95.5859 91.88 94.9564 91.7604 94.3488C91.6409 93.7413 91.3403 93.1842 90.8981 92.7507L86.7839 88.5439V26.09L90.9869 21.8869C91.4233 21.4493 91.7201 20.8921 91.8396 20.2857C91.9592 19.6794 91.8961 19.0512 91.6584 18.4807C91.4207 17.9103 91.0191 17.4231 90.5043 17.0811C89.9896 16.739 89.385 16.5573 88.767 16.5591H78.1779L72.8871 11.2831C72.0455 10.4389 71.0447 9.77016 69.9429 9.31544C68.841 8.86071 67.6598 8.62908 66.4678 8.63395H62.287L57.0183 3.35793C56.1767 2.5138 55.176 1.84502 54.0741 1.3903C52.9722 0.935573 51.7911 0.703942 50.599 0.708816H41.3124C40.1204 0.704147 38.9393 0.93587 37.8374 1.39058C36.7356 1.8453 35.7348 2.51397 34.8931 3.35793L29.5985 8.63395H25.4325C24.2405 8.62908 23.0593 8.86071 21.9574 9.31544C20.8556 9.77016 19.8548 10.4389 19.0132 11.2831L13.7335 16.5591H3.12961C2.51276 16.5454 1.90653 16.7211 1.39255 17.0624C0.878561 17.4038 0.481495 17.8944 0.254808 18.4682C0.00980354 19.0369 -0.0573498 19.6664 0.0621792 20.2739C0.181708 20.8815 0.482322 21.4386 0.924485 21.8721L5.12755 26.09V88.5439L0.924485 92.747C0.474278 93.1784 0.168322 93.7384 0.0484533 94.3503C-0.0714157 94.9622 0.000653952 95.5963 0.254808 96.1657C0.484286 96.7373 0.882126 97.2257 1.39556 97.566C1.90899 97.9063 2.51375 98.0824 3.12961 98.0711ZM2.67083 20.2553C2.54446 20.1399 2.45885 19.9867 2.42684 19.8186C2.39482 19.6506 2.41812 19.4766 2.49323 19.3229C2.55615 19.1696 2.66413 19.0391 2.80288 18.9486C2.94163 18.8581 3.1046 18.8119 3.27021 18.816H14.3365C14.49 18.8196 14.6425 18.7927 14.7855 18.7368C14.9284 18.6809 15.0587 18.5971 15.169 18.4904L20.7595 12.8851C21.3839 12.2549 22.1267 11.7544 22.9451 11.4121C23.7636 11.0699 24.6416 10.8928 25.5287 10.8909H30.1868C30.4916 10.8942 30.7854 10.7772 31.0045 10.5653L36.6098 4.95997C37.2364 4.3276 37.9821 3.82574 38.8039 3.48344C39.6257 3.14113 40.5072 2.96517 41.3974 2.96574H50.6878C51.5781 2.96517 52.4596 3.14113 53.2814 3.48344C54.1031 3.82574 54.8489 4.3276 55.4755 4.95997L61.0808 10.5653C61.2999 10.7772 61.5937 10.8942 61.8985 10.8909H66.5418C67.432 10.8905 68.3135 11.0666 69.1352 11.4089C69.957 11.7512 70.7028 12.2529 71.3295 12.8851L76.9348 18.4904C77.1539 18.7023 77.4477 18.8193 77.7524 18.816H88.7966C88.9631 18.8119 89.127 18.8585 89.2664 18.9497C89.4059 19.0409 89.5143 19.1724 89.5773 19.3266C89.6449 19.4815 89.6638 19.6533 89.6314 19.8192C89.599 19.9851 89.5169 20.1372 89.396 20.2553L85.2077 24.4583H6.87389L2.67083 20.2553ZM84.4973 26.7412V87.8631H78.855V26.7412H84.4973ZM76.5722 26.7412V87.8631H15.4502V26.7412H76.5722ZM13.1674 26.7412V87.8631H7.52507V26.7412H13.1674ZM2.67083 94.349L6.87389 90.146H85.2077L89.396 94.3342C89.5146 94.4548 89.5929 94.6093 89.6201 94.7763C89.6472 94.9433 89.6219 95.1146 89.5477 95.2666C89.4907 95.4204 89.3885 95.5534 89.2544 95.6479C89.1202 95.7423 88.9606 95.7939 88.7966 95.7957H69.8162C69.6378 95.8064 69.4619 95.8438 69.2945 95.9067L55.1277 102.973C54.1866 103.436 53.1534 103.68 52.1049 103.688H39.9841C38.9348 103.686 37.9001 103.442 36.9613 102.973L22.7797 95.8956C22.6182 95.8186 22.4405 95.7818 22.2617 95.7883H3.27021C3.10428 95.7916 2.94122 95.7446 2.80253 95.6535C2.66383 95.5624 2.556 95.4313 2.49323 95.2777C2.42515 95.1232 2.40567 94.9516 2.43739 94.7857C2.46911 94.6198 2.55053 94.4675 2.67083 94.349Z" fill="#7D192F"/>
<path d="M55.0811 9.74751C55.0811 9.4443 54.9607 9.15351 54.7463 8.9391C54.5319 8.7247 54.2411 8.60425 53.9379 8.60425H38.0876C37.7844 8.60425 37.4936 8.7247 37.2792 8.9391C37.0648 9.15351 36.9443 9.4443 36.9443 9.74751V17.6726C36.95 17.9741 37.0723 18.2616 37.2855 18.4748C37.4987 18.6879 37.7862 18.8102 38.0876 18.8159H53.9379C54.2411 18.8159 54.5319 18.6955 54.7463 18.4811C54.9607 18.2667 55.0811 17.9759 55.0811 17.6726V9.74751ZM52.7946 16.5294H39.2198V10.8908H52.7872L52.7946 16.5294Z" fill="#7D192F"/>
<path d="M30.1597 16.5332H22.2345C22.0844 16.5328 21.9357 16.5618 21.7968 16.6188C21.6579 16.6759 21.5316 16.7597 21.4251 16.8655C21.3185 16.9713 21.2339 17.0971 21.176 17.2356C21.1181 17.3741 21.0881 17.5227 21.0876 17.6728C21.0942 17.9739 21.2168 18.2609 21.4297 18.4739C21.6427 18.6869 21.9297 18.8095 22.2308 18.8161H30.1597C30.4629 18.8161 30.7537 18.6956 30.9681 18.4812C31.1825 18.2668 31.3029 17.976 31.3029 17.6728C31.3029 17.3696 31.1825 17.0788 30.9681 16.8644C30.7537 16.65 30.4629 16.5295 30.1597 16.5295V16.5332Z" fill="#7D192F"/>
<path d="M69.7876 16.5332H61.8588C61.5556 16.5332 61.2648 16.6537 61.0504 16.8681C60.836 17.0825 60.7155 17.3733 60.7155 17.6765C60.7212 17.9779 60.8435 18.2654 61.0567 18.4786C61.2698 18.6918 61.5573 18.814 61.8588 18.8197H69.7839C70.0871 18.8197 70.3779 18.6993 70.5923 18.4849C70.8067 18.2705 70.9272 17.9797 70.9272 17.6765C70.9272 17.3733 70.8067 17.0825 70.5923 16.8681C70.3779 16.6537 70.0871 16.5332 69.7839 16.5332H69.7876Z" fill="#7D192F"/>
<path d="M25.6317 26.3933H24.5217V47.1533H25.6317V26.3933Z" fill="#7D192F"/>
<path d="M25.6317 68.3167H24.5217V89.0767H25.6317V68.3167Z" fill="#7D192F"/>
<path d="M22.4092 26.3933H21.2992V88.5846H22.4092V26.3933Z" fill="#7D192F"/>
<path d="M19.1907 26.3933H18.0807V88.5846H19.1907V26.3933Z" fill="#7D192F"/>
<path d="M32.0726 26.3933H30.9626V38.503H32.0726V26.3933Z" fill="#7D192F"/>
<path d="M28.8541 26.3933H27.7441V40.8672H28.8541V26.3933Z" fill="#7D192F"/>
<path d="M38.5135 26.3933H37.4036V34.6662H38.5135V26.3933Z" fill="#7D192F"/>
<path d="M35.2911 26.3933H34.1811V36.3238H35.2911V26.3933Z" fill="#7D192F"/>
<path d="M44.9505 26.3933H43.8405V33.6303H44.9505V26.3933Z" fill="#7D192F"/>
<path d="M41.736 26.3933H40.626V34.1483H41.736V26.3933Z" fill="#7D192F"/>
<path d="M32.0726 76.6746H30.9626V88.7843H32.0726V76.6746Z" fill="#7D192F"/>
<path d="M28.8541 74.3105H27.7441V88.7845H28.8541V74.3105Z" fill="#7D192F"/>
<path d="M38.5135 80.5115H37.4036V88.7844H38.5135V80.5115Z" fill="#7D192F"/>
<path d="M35.2911 78.854H34.1811V88.7845H35.2911V78.854Z" fill="#7D192F"/>
<path d="M44.9505 81.5474H43.8405V88.7843H44.9505V81.5474Z" fill="#7D192F"/>
<path d="M41.736 81.0295H40.626V88.7845H41.736V81.0295Z" fill="#7D192F"/>
<path d="M48.1729 26.3933H47.063V33.6303H48.1729V26.3933Z" fill="#7D192F"/>
<path d="M54.6099 26.3933H53.4999V34.6662H54.6099V26.3933Z" fill="#7D192F"/>
<path d="M51.3914 26.3933H50.2814V33.6303H51.3914V26.3933Z" fill="#7D192F"/>
<path d="M61.0508 26.3933H59.9409V38.8804H61.0508V26.3933Z" fill="#7D192F"/>
<path d="M57.8323 26.3933H56.7224V36.3238H57.8323V26.3933Z" fill="#7D192F"/>
<path d="M67.4877 26.3933H66.3778V47.6861H67.4877V26.3933Z" fill="#7D192F"/>
<path d="M64.2693 26.3933H63.1593V40.8672H64.2693V26.3933Z" fill="#7D192F"/>
<path d="M54.6099 80.3301H53.4999V88.603H54.6099V80.3301Z" fill="#7D192F"/>
<path d="M51.3914 81.3662H50.2814V88.6032H51.3914V81.3662Z" fill="#7D192F"/>
<path d="M61.0508 76.116H59.9409V88.6031H61.0508V76.116Z" fill="#7D192F"/>
<path d="M57.8323 78.6726H56.7224V88.6031H57.8323V78.6726Z" fill="#7D192F"/>
<path d="M67.4877 67.3103H66.3778V88.6031H67.4877V67.3103Z" fill="#7D192F"/>
<path d="M64.2693 74.1292H63.1593V88.6031H64.2693V74.1292Z" fill="#7D192F"/>
<path d="M73.9327 26.3933H72.8227V88.5846H73.9327V26.3933Z" fill="#7D192F"/>
<path d="M70.7102 26.3933H69.6003V88.5846H70.7102V26.3933Z" fill="#7D192F"/>
<path d="M54.9994 58.7614L47.7098 64.9873L48.4307 65.8313L55.7202 59.6055L54.9994 58.7614Z" fill="#7D192F"/>
<path d="M60.4562 58.232L45.2621 71.177L45.9819 72.0219L61.1761 59.0769L60.4562 58.232Z" fill="#7D192F"/>
<path d="M60.1199 62.5735L49.5826 71.4624L50.2983 72.3108L60.8356 63.4219L60.1199 62.5735Z" fill="#7D192F"/>
</g>
<defs>
<clipPath id="clip0_57_1964">
<rect width="91.9124" height="105.291" fill="white" transform="translate(0 0.708984)"/>
</clipPath>
</defs>
</svg>
