<svg width="25" height="24" viewBox="0 0 25 24" fill="none" xmlns="http://www.w3.org/2000/svg">
<path d="M0 12C0.0100179 5.377 5.3866 0.01 12.0214 0C18.6563 0.01 24.0328 5.377 24.0429 12C24.0328 18.623 18.6563 23.99 12.0214 24C5.3866 23.99 0.0100179 18.623 0 12ZM12.0214 23.004C14.498 23.0065 16.9025 22.1722 18.8436 20.637L18.54 19.981C18.3654 20.0395 18.1753 20.0315 18.0061 19.9586C17.837 19.8857 17.7008 19.7531 17.6237 19.5861C17.5466 19.4191 17.5339 19.2295 17.5882 19.0538C17.6426 18.8781 17.76 18.7286 17.9179 18.634L17.1946 17.071C16.8918 17.1688 16.563 17.1473 16.2756 17.0108C15.9881 16.8743 15.7639 16.6332 15.6489 16.337L13.1705 16.97V16.982C13.1689 17.0867 13.1454 17.1899 13.1013 17.285C13.0572 17.38 12.9936 17.4647 12.9145 17.5336C12.8355 17.6025 12.7429 17.6541 12.6426 17.6849C12.5424 17.7158 12.4367 17.7252 12.3326 17.7127C12.2284 17.7001 12.128 17.6659 12.038 17.6121C11.948 17.5583 11.8703 17.4863 11.81 17.4006C11.7496 17.3149 11.708 17.2175 11.6879 17.1147C11.6677 17.0119 11.6694 16.9061 11.6928 16.804L8.21464 15.31C8.08828 15.529 7.89808 15.7044 7.66937 15.8129C7.44065 15.9213 7.18427 15.9576 6.93436 15.917L6.18502 18.507C6.31992 18.5774 6.43011 18.6871 6.5009 18.8217C6.57168 18.9562 6.59968 19.109 6.58118 19.2598C6.56268 19.4107 6.49854 19.5523 6.39733 19.6657C6.29612 19.7792 6.16265 19.8592 6.01472 19.895L6.06681 21.255C7.84136 22.3985 9.90924 23.0056 12.0214 23.003V23.004ZM5.76027 21.05L5.71619 19.908C5.52516 19.8773 5.35345 19.774 5.23709 19.6197C5.12073 19.4654 5.06876 19.2721 5.09209 19.0804C5.11542 18.8887 5.21223 18.7134 5.36221 18.5914C5.51219 18.4694 5.70369 18.4101 5.89651 18.426L6.64685 15.836C6.42125 15.7405 6.22882 15.5808 6.0936 15.3768C5.95837 15.1728 5.88634 14.9336 5.88649 14.689L1.20415 14.123C1.7637 16.9351 3.39774 19.4195 5.76027 21.05ZM19.084 20.442C20.218 19.4954 21.1512 18.3324 21.8289 17.021L17.9961 16.27C17.9047 16.5493 17.7174 16.7873 17.4671 16.942L18.2004 18.53C18.3598 18.5077 18.5221 18.5372 18.6633 18.6142C18.8046 18.6912 18.9172 18.8116 18.9844 18.9576C19.0517 19.1035 19.07 19.2672 19.0367 19.4243C19.0034 19.5815 18.9202 19.7238 18.7995 19.83L19.085 20.442H19.084ZM21.9672 16.744C22.6788 15.2635 23.0472 13.6421 23.0451 12C23.0475 9.45955 22.165 6.99729 20.5486 5.035L19.0339 5.551C19.06 5.66079 19.061 5.77505 19.0366 5.88524C19.0123 5.99544 18.9633 6.09872 18.8934 6.18737C18.8235 6.27603 18.7344 6.34776 18.6328 6.39722C18.5312 6.44668 18.4197 6.47259 18.3066 6.473C18.1622 6.47302 18.0208 6.43129 17.8995 6.35286C17.7783 6.27443 17.6824 6.16264 17.6234 6.031L14.4748 7.1C14.6152 7.605 14.5924 8.14131 14.4099 8.63268C14.2273 9.12404 13.8943 9.54546 13.458 9.837L16.3201 14.738C16.5169 14.6538 16.7322 14.6216 16.9451 14.6445C17.1581 14.6675 17.3615 14.7448 17.5358 14.8689C17.7102 14.9931 17.8495 15.16 17.9405 15.3536C18.0314 15.5471 18.0709 15.7608 18.0552 15.974L21.9662 16.744H21.9672ZM13.1054 16.676L15.5748 16.046C15.5457 15.8274 15.5755 15.6049 15.661 15.4016C15.7466 15.1983 15.8849 15.0213 16.0616 14.889L13.2005 9.989C12.8178 10.1837 12.391 10.2759 11.9618 10.2566C11.5326 10.2374 11.1159 10.1072 10.7522 9.879L7.97722 13.771C8.14851 13.9275 8.27251 14.1288 8.33518 14.352C8.39786 14.5752 8.3967 14.8114 8.33185 15.034L11.8211 16.531C11.8989 16.4261 12.003 16.3434 12.123 16.2912C12.2429 16.239 12.3744 16.2192 12.5044 16.2337C12.6344 16.2481 12.7584 16.2964 12.8638 16.3737C12.9693 16.451 13.0526 16.5545 13.1054 16.674V16.676ZM5.92256 14.392C5.96832 14.2065 6.05621 14.034 6.17942 13.8878C6.30263 13.7416 6.45787 13.6257 6.63313 13.5489C6.8084 13.4722 6.999 13.4367 7.19019 13.4452C7.38139 13.4537 7.56806 13.506 7.73579 13.598L10.5107 9.708C10.2197 9.47503 9.98485 9.17971 9.82359 8.84391C9.66232 8.5081 9.57875 8.1404 9.57907 7.768C9.57907 7.165 9.79846 6.582 10.1972 6.128L6.48756 2.487C4.55061 3.61072 3.00227 5.29645 2.04846 7.31998C1.09466 9.34351 0.780597 11.609 1.14805 13.815L5.92155 14.393L5.92256 14.392ZM14.3776 6.82L17.5573 5.737V5.727C17.5572 5.57013 17.6066 5.41722 17.6985 5.28996C17.7904 5.16269 17.92 5.06752 18.0691 5.01795C18.2182 4.96837 18.3792 4.96691 18.5292 5.01377C18.6791 5.06063 18.8105 5.15342 18.9047 5.279L20.3403 4.79C18.697 2.89451 16.4537 1.61721 13.9827 1.17025C11.5118 0.723303 8.96208 1.1336 6.75704 2.333L10.4035 5.914C10.7006 5.64746 11.0575 5.45604 11.4441 5.35583C11.8307 5.25562 12.2358 5.24956 12.6252 5.33815C13.0147 5.42674 13.3771 5.60739 13.6821 5.86492C13.987 6.12244 14.2256 6.4493 14.3776 6.818L14.3756 6.821L14.3776 6.82Z" fill="#626262"/>
</svg>
