<svg width="52" height="52" viewBox="0 0 52 52" fill="none" xmlns="http://www.w3.org/2000/svg">
<path d="M35.7903 20.2515H45.5403V10.5015" stroke="white" stroke-width="3" stroke-linecap="round" stroke-linejoin="round"/>
<path d="M13.3652 13.3657C15.0235 11.705 16.993 10.3875 19.1609 9.48855C21.3288 8.58964 23.6527 8.12695 25.9996 8.12695C28.3465 8.12695 30.6704 8.58964 32.8383 9.48855C35.0062 10.3875 36.9757 11.705 38.634 13.3657L45.5402 20.2516" stroke="white" stroke-width="3" stroke-linecap="round" stroke-linejoin="round"/>
<path d="M16.209 31.7485H6.45898V41.4985" stroke="white" stroke-width="3" stroke-linecap="round" stroke-linejoin="round"/>
<path d="M38.634 38.6345C36.9757 40.2952 35.0062 41.6127 32.8383 42.5116C30.6704 43.4105 28.3465 43.8732 25.9996 43.8732C23.6527 43.8732 21.3288 43.4105 19.1609 42.5116C16.993 41.6127 15.0235 40.2952 13.3652 38.6345L6.45898 31.7485" stroke="white" stroke-width="3" stroke-linecap="round" stroke-linejoin="round"/>
</svg>
