<svg width="277" height="80" viewBox="0 0 277 80" fill="none" xmlns="http://www.w3.org/2000/svg"><path d="M266.3 80H10.242C4.612 80 0 75.498 0 70V10C0 4.503 4.612 0 10.242 0H266.3c5.631 0 10.242 4.503 10.242 10v60c0 5.498-4.611 10-10.242 10Z" fill="#000"/><path d="M266.3 1.603c4.742 0 8.601 3.767 8.601 8.397v60c0 4.63-3.859 8.397-8.601 8.397H10.242c-4.742 0-8.6-3.767-8.6-8.397V10c0-4.63 3.858-8.398 8.6-8.398H266.3Zm0-1.603H10.242C4.612 0 0 4.503 0 10v60c0 5.498 4.612 10 10.242 10H266.3c5.631 0 10.242-4.502 10.242-10V10c0-5.497-4.611-10-10.242-10Z" fill="#A6A6A6"/><path d="M97.133 20.488c0 1.67-.512 3.008-1.521 4.005-1.16 1.183-2.67 1.777-4.522 1.777-1.77 0-3.28-.604-4.52-1.797-1.241-1.21-1.861-2.695-1.861-4.473 0-1.777.62-3.262 1.861-4.462 1.24-1.203 2.75-1.808 4.52-1.808.88 0 1.72.178 2.522.508.799.332 1.45.783 1.92 1.338l-1.07 1.055c-.822-.948-1.94-1.415-3.372-1.415-1.29 0-2.41.44-3.36 1.327-.94.89-1.41 2.043-1.41 3.457 0 1.416.47 2.578 1.41 3.468.95.878 2.07 1.328 3.36 1.328 1.37 0 2.522-.45 3.431-1.338.6-.587.94-1.397 1.03-2.432H91.09V19.58h5.95c.072.312.093.614.093.907Zm9.442-5.008h-5.59v3.8h5.039v1.445h-5.039v3.8h5.59v1.473h-7.173v-11.99h7.173v1.472Zm6.661 10.518h-1.583V15.48h-3.428v-1.472h8.442v1.472h-3.431v10.518Zm9.539 0v-11.99h1.58v11.99h-1.58Zm8.584 0h-1.57V15.48h-3.441v-1.472h8.452v1.472h-3.441v10.518Zm19.426-1.545c-1.212 1.213-2.712 1.817-4.502 1.817-1.8 0-3.301-.604-4.512-1.817-1.208-1.21-1.81-2.695-1.81-4.453 0-1.757.602-3.242 1.81-4.452 1.211-1.213 2.712-1.818 4.512-1.818 1.78 0 3.28.605 4.491 1.828 1.219 1.22 1.821 2.695 1.821 4.442 0 1.758-.602 3.243-1.81 4.453Zm-7.844-1.005c.912.898 2.021 1.348 3.342 1.348 1.311 0 2.43-.45 3.331-1.348.909-.898 1.37-2.05 1.37-3.448 0-1.397-.461-2.55-1.37-3.447-.901-.898-2.02-1.348-3.331-1.348-1.321 0-2.43.45-3.342 1.348-.909.898-1.369 2.05-1.369 3.447 0 1.398.46 2.55 1.369 3.448Zm11.873 2.55v-11.99h1.921l5.971 9.325h.069l-.069-2.305v-7.02h1.58v11.99h-1.649l-6.253-9.785h-.069l.069 2.315v7.47h-1.57Z" fill="#fff" stroke="#fff" stroke-width=".16" stroke-miterlimit="10"/><path d="M139.571 43.506c-4.811 0-8.741 3.575-8.741 8.508 0 4.892 3.93 8.505 8.741 8.505 4.822 0 8.752-3.613 8.752-8.505 0-4.933-3.93-8.508-8.752-8.508Zm0 13.663c-2.64 0-4.911-2.128-4.911-5.155 0-3.068 2.271-5.158 4.911-5.158 2.64 0 4.922 2.09 4.922 5.158 0 3.027-2.282 5.155-4.922 5.155Zm-19.073-13.663c-4.822 0-8.742 3.575-8.742 8.508 0 4.892 3.92 8.505 8.742 8.505 4.819 0 8.741-3.613 8.741-8.505 0-4.933-3.922-8.508-8.741-8.508Zm0 13.663c-2.643 0-4.922-2.128-4.922-5.155 0-3.068 2.279-5.158 4.922-5.158 2.64 0 4.911 2.09 4.911 5.158 0 3.027-2.271 5.155-4.911 5.155ZM97.801 46.114v3.615h8.841c-.258 2.02-.95 3.505-2.01 4.54-1.29 1.25-3.3 2.637-6.831 2.637-5.442 0-9.702-4.287-9.702-9.6 0-5.312 4.26-9.6 9.702-9.6 2.942 0 5.082 1.123 6.662 2.578l2.61-2.548c-2.21-2.06-5.15-3.642-9.272-3.642-7.462 0-13.733 5.927-13.733 13.212S90.34 60.52 97.801 60.52c4.033 0 7.062-1.29 9.443-3.71 2.44-2.383 3.201-5.733 3.201-8.438 0-.84-.072-1.612-.2-2.257H97.801Zm92.81 2.802c-.719-1.902-2.939-5.41-7.461-5.41-4.481 0-8.212 3.448-8.212 8.508 0 4.765 3.692 8.505 8.642 8.505 4.002 0 6.312-2.383 7.262-3.77l-2.97-1.933c-.991 1.415-2.341 2.353-4.292 2.353-1.938 0-3.329-.868-4.22-2.578l11.653-4.707-.402-.968ZM178.73 51.75c-.1-3.28 2.61-4.96 4.55-4.96 1.521 0 2.812.742 3.242 1.805l-7.792 3.155ZM169.259 60h3.83V35h-3.83v25Zm-6.274-14.6h-.128c-.86-.995-2.501-1.895-4.581-1.895-4.363 0-8.352 3.74-8.352 8.535 0 4.768 3.989 8.478 8.352 8.478 2.08 0 3.721-.908 4.581-1.933h.128v1.22c0 3.253-1.779 5-4.65 5-2.34 0-3.792-1.65-4.391-3.037l-3.331 1.357c.96 2.255 3.503 5.03 7.722 5.03 4.492 0 8.281-2.58 8.281-8.857V44.024h-3.631V45.4Zm-4.381 11.768c-2.64 0-4.85-2.158-4.85-5.128 0-2.997 2.21-5.185 4.85-5.185 2.602 0 4.653 2.188 4.653 5.185 0 2.97-2.051 5.128-4.653 5.128ZM208.546 35h-9.162v25h3.82v-9.47h5.342c4.243 0 8.404-2.998 8.404-7.765 0-4.765-4.172-7.763-8.404-7.763Zm.1 12.05h-5.442v-8.57h5.442c2.852 0 4.481 2.312 4.481 4.285 0 1.935-1.629 4.287-4.481 4.287Zm23.616-3.592c-2.761 0-5.631 1.19-6.811 3.827l3.39 1.388c.73-1.388 2.071-1.838 3.49-1.838 1.982 0 3.992 1.163 4.023 3.215v.263c-.692-.39-2.172-.968-3.992-.968-3.652 0-7.372 1.963-7.372 5.625 0 3.35 2.99 5.508 6.353 5.508 2.57 0 3.989-1.133 4.88-2.45h.131v1.932h3.689v-9.59c0-4.432-3.39-6.912-7.781-6.912Zm-.461 13.7c-1.25 0-2.991-.605-2.991-2.118 0-1.935 2.171-2.677 4.051-2.677 1.682 0 2.471.362 3.493.84-.3 2.315-2.341 3.955-4.553 3.955Zm21.685-13.153-4.391 10.838h-.131l-4.539-10.838h-4.12l6.821 15.145-3.892 8.428h3.992l10.511-23.573h-4.251ZM219.049 60h3.831V35h-3.831v25Z" fill="#fff"/><path d="M21.376 15.08c-.602.615-.95 1.573-.95 2.813v44.23c0 1.24.348 2.197.95 2.812l.148.135L46.91 40.295v-.585L21.524 14.935l-.148.145Z" fill="url(#a)"/><path d="m55.362 48.555-8.452-8.263v-.585l8.463-8.262.19.107 10.021 5.568c2.86 1.58 2.86 4.18 0 5.77l-10.022 5.557-.2.108Z" fill="url(#b)"/><path d="M55.561 48.449 46.91 40 21.375 64.934c.95.975 2.5 1.092 4.26.117L55.562 48.45Z" fill="url(#c)"/><path d="M55.563 31.552 25.638 14.95c-1.762-.965-3.311-.848-4.261.128L46.911 40l8.652-8.448Z" fill="url(#d)"/><defs><linearGradient id="a" x1="44.656" y1="62.583" x2="11.101" y2="28.215" gradientUnits="userSpaceOnUse"><stop stop-color="#00A0FF"/><stop offset=".007" stop-color="#00A1FF"/><stop offset=".26" stop-color="#00BEFF"/><stop offset=".512" stop-color="#00D2FF"/><stop offset=".76" stop-color="#00DFFF"/><stop offset="1" stop-color="#00E3FF"/></linearGradient><linearGradient id="b" x1="69.309" y1="39.997" x2="19.742" y2="39.997" gradientUnits="userSpaceOnUse"><stop stop-color="#FFE000"/><stop offset=".409" stop-color="#FFBD00"/><stop offset=".775" stop-color="orange"/><stop offset="1" stop-color="#FF9C00"/></linearGradient><linearGradient id="c" x1="50.856" y1="35.409" x2="5.353" y2="-11.197" gradientUnits="userSpaceOnUse"><stop stop-color="#FF3A44"/><stop offset="1" stop-color="#C31162"/></linearGradient><linearGradient id="d" x1="14.95" y1="79.648" x2="35.269" y2="58.836" gradientUnits="userSpaceOnUse"><stop stop-color="#32A071"/><stop offset=".069" stop-color="#2DA771"/><stop offset=".476" stop-color="#15CF74"/><stop offset=".801" stop-color="#06E775"/><stop offset="1" stop-color="#00F076"/></linearGradient></defs></svg>