<svg width="52" height="52" viewBox="0 0 52 52" fill="none" xmlns="http://www.w3.org/2000/svg">
<path d="M48.0797 24.7406L43.0625 27.2391L36.5625 14.8078L41.6406 12.2688C42.018 12.0764 42.4561 12.0411 42.8595 12.1704C43.2628 12.2998 43.5987 12.5834 43.7938 12.9594L48.7906 22.5266C48.892 22.7181 48.954 22.9279 48.973 23.1438C48.992 23.3596 48.9677 23.5771 48.9015 23.7834C48.8352 23.9896 48.7284 24.1806 48.5873 24.345C48.4462 24.5094 48.2736 24.6439 48.0797 24.7406V24.7406Z" stroke="white" stroke-width="3" stroke-linecap="round" stroke-linejoin="round"/>
<path d="M8.93752 27.036L3.92033 24.5173C3.72715 24.4226 3.55498 24.2901 3.41406 24.1275C3.27313 23.965 3.16633 23.7757 3.10001 23.5711C3.03369 23.3664 3.00919 23.1505 3.02798 22.9362C3.04678 22.7219 3.10847 22.5135 3.2094 22.3235L8.20627 12.7564C8.40174 12.3806 8.73618 12.0961 9.13834 11.9633C9.54051 11.8305 9.97863 11.86 10.3594 12.0454L15.4375 14.5845L8.93752 27.036Z" stroke="white" stroke-width="3" stroke-linecap="round" stroke-linejoin="round"/>
<path d="M43.0625 27.239L40.625 31.0578L33.15 38.5328C32.9463 38.7233 32.6994 38.8616 32.4306 38.9359C32.1617 39.0102 31.8789 39.0182 31.6063 38.9593L19.825 36.014C19.6098 35.954 19.4093 35.8503 19.2359 35.7093L8.9375 27.0359" stroke="white" stroke-width="3" stroke-linecap="round" stroke-linejoin="round"/>
<path d="M40.6251 31.0579L31.6876 24.5579L29.0876 26.5079C27.9611 27.3486 26.5932 27.8028 25.1876 27.8028C23.782 27.8028 22.414 27.3486 21.2876 26.5079L20.1907 25.6751C20.0052 25.534 19.8518 25.3552 19.7406 25.1505C19.6294 24.9457 19.563 24.7197 19.5457 24.4873C19.5284 24.255 19.5607 24.0216 19.6403 23.8026C19.72 23.5837 19.8453 23.3842 20.0079 23.2172L27.9704 15.2751C28.1199 15.1262 28.2974 15.0083 28.4926 14.9282C28.6878 14.848 28.8969 14.8071 29.1079 14.8079H36.5626" stroke="white" stroke-width="3" stroke-linecap="round" stroke-linejoin="round"/>
<path d="M15.5593 14.5844L25.1671 11.5376C25.5374 11.4314 25.9333 11.4602 26.2843 11.6188L33.3125 14.8079" stroke="white" stroke-width="3" stroke-linecap="round" stroke-linejoin="round"/>
<path d="M21.9375 44.8703L15.8234 43.3266C15.5743 43.2703 15.3436 43.1514 15.1531 42.9813L10.5625 39" stroke="white" stroke-width="3" stroke-linecap="round" stroke-linejoin="round"/>
</svg>
