<svg width="52" height="53" viewBox="0 0 52 53" fill="none" xmlns="http://www.w3.org/2000/svg">
<path d="M26 37.2595C30.4873 37.2595 34.125 33.6218 34.125 29.1345C34.125 24.6472 30.4873 21.0095 26 21.0095C21.5127 21.0095 17.875 24.6472 17.875 29.1345C17.875 33.6218 21.5127 37.2595 26 37.2595Z" stroke="white" stroke-width="3" stroke-linecap="round" stroke-linejoin="round"/>
<path d="M14.3 44.5719C15.3701 42.3804 17.0342 40.5335 19.1028 39.2416C21.1713 37.9496 23.5611 37.2646 26 37.2646C28.4388 37.2646 30.8287 37.9496 32.8972 39.2416C34.9658 40.5335 36.6299 42.3804 37.7 44.5719" stroke="white" stroke-width="3" stroke-linecap="round" stroke-linejoin="round"/>
<path d="M41.5391 24.3813C44.7372 24.8415 47.6224 26.5507 49.5625 29.1345" stroke="white" stroke-width="3" stroke-linecap="round" stroke-linejoin="round"/>
<path d="M33.9422 14.9563C34.4141 13.9713 35.1266 13.1212 36.0139 12.4843C36.9012 11.8474 37.9347 11.4444 39.0189 11.3125C40.1031 11.1806 41.203 11.3239 42.2172 11.7294C43.2313 12.1349 44.1269 12.7894 44.8213 13.6324C45.5157 14.4754 45.9865 15.4799 46.1901 16.5529C46.3938 17.6259 46.3237 18.733 45.9865 19.7718C45.6493 20.8107 45.0557 21.7478 44.2607 22.4966C43.4656 23.2454 42.4947 23.7819 41.4375 24.0563" stroke="white" stroke-width="3" stroke-linecap="round" stroke-linejoin="round"/>
<path d="M10.5625 24.0563C9.50537 23.7819 8.53442 23.2454 7.73936 22.4966C6.94429 21.7478 6.35074 20.8107 6.01351 19.7718C5.67629 18.733 5.60627 17.6259 5.80992 16.5529C6.01357 15.4799 6.48432 14.4754 7.1787 13.6324C7.87308 12.7894 8.7687 12.1349 9.78284 11.7294C10.797 11.3239 11.8969 11.1806 12.9811 11.3125C14.0653 11.4444 15.0988 11.8474 15.9861 12.4843C16.8734 13.1212 17.5859 13.9713 18.0578 14.9563" stroke="white" stroke-width="3" stroke-linecap="round" stroke-linejoin="round"/>
<path d="M2.4375 29.1345C4.37759 26.5507 7.26284 24.8415 10.4609 24.3813" stroke="white" stroke-width="3" stroke-linecap="round" stroke-linejoin="round"/>
</svg>
