<svg width="24" height="25" viewBox="0 0 24 25" fill="none" xmlns="http://www.w3.org/2000/svg">
<path d="M12 2.93945C10.0716 2.93945 8.18657 3.51128 6.58319 4.58262C4.97982 5.65397 3.73013 7.17671 2.99218 8.95829C2.25422 10.7399 2.06114 12.7003 2.43735 14.5916C2.81355 16.4829 3.74215 18.2202 5.10571 19.5837C6.46928 20.9473 8.20656 21.8759 10.0979 22.2521C11.9892 22.6283 13.9496 22.4352 15.7312 21.6973C17.5127 20.9593 19.0355 19.7096 20.1068 18.1063C21.1782 16.5029 21.75 14.6178 21.75 12.6895C21.7473 10.1044 20.7192 7.62607 18.8913 5.79818C17.0634 3.97029 14.585 2.94218 12 2.93945ZM16.2806 10.9701L11.0306 16.2201C10.961 16.2898 10.8783 16.3451 10.7872 16.3829C10.6962 16.4206 10.5986 16.44 10.5 16.44C10.4014 16.44 10.3038 16.4206 10.2128 16.3829C10.1218 16.3451 10.039 16.2898 9.96938 16.2201L7.71938 13.9701C7.57865 13.8293 7.49959 13.6385 7.49959 13.4395C7.49959 13.2404 7.57865 13.0496 7.71938 12.9088C7.86011 12.7681 8.05098 12.689 8.25 12.689C8.44903 12.689 8.6399 12.7681 8.78063 12.9088L10.5 14.6291L15.2194 9.90883C15.2891 9.83915 15.3718 9.78387 15.4628 9.74616C15.5539 9.70845 15.6515 9.68904 15.75 9.68904C15.8486 9.68904 15.9461 9.70845 16.0372 9.74616C16.1282 9.78387 16.2109 9.83915 16.2806 9.90883C16.3503 9.97851 16.4056 10.0612 16.4433 10.1523C16.481 10.2433 16.5004 10.3409 16.5004 10.4395C16.5004 10.538 16.481 10.6356 16.4433 10.7266C16.4056 10.8177 16.3503 10.9004 16.2806 10.9701Z" fill="white"/>
</svg>
