<svg width="168" height="27" viewBox="0 0 168 27" fill="none" xmlns="http://www.w3.org/2000/svg">
<g clip-path="url(#clip0_3904_1574)">
<path d="M75.9724 8.18013H84.3086V5.36909H75.9724V0.0421753H73.2302V3.2327C73.0931 15.6996 73.0931 19.874 76.5619 23.4722C78.55 25.6788 81.347 26.9578 84.2812 26.986V24.1749C82.0874 24.1187 80.0034 23.1629 78.4952 21.5325C76.274 19.1572 75.9724 16.0089 75.9724 8.18013Z" fill="#282828"/>
<path d="M24.748 16.1916V26.9859H27.4902V16.2337C27.4902 11.7923 30.9728 8.19417 35.3055 8.13795V5.39719C29.492 5.39719 24.7755 10.2322 24.748 16.1916Z" fill="url(#paint0_linear_3904_1574)"/>
<path d="M47.659 5.39719C44.67 5.39719 41.8182 6.71838 39.8301 8.99532V0H37.0879V16.1916C37.0879 22.151 41.8045 26.9859 47.6179 26.9859C53.4313 26.9859 58.1479 22.151 58.1479 16.1916C58.1479 10.2322 53.4313 5.39719 47.6179 5.39719H47.659ZM47.659 24.189C43.3401 24.189 39.8438 20.6049 39.8438 16.1775C39.8438 11.7501 43.3401 8.16606 47.659 8.16606C51.978 8.16606 55.4742 11.7501 55.4742 16.1775C55.4605 20.5908 51.9642 24.1609 47.659 24.1749V24.189Z" fill="url(#paint1_linear_3904_1574)"/>
<path d="M64.6611 16.1916V5.39719H61.9189V16.2337C61.9601 22.1791 66.6492 26.9719 72.4489 26.9859V24.2452C68.1437 24.189 64.6886 20.6049 64.6611 16.1916Z" fill="#282828"/>
<path d="M63.3032 3.14836C64.1533 3.14836 64.8251 2.4456 64.8388 1.57418C64.8388 0.702759 64.1533 0 63.3032 0C62.4531 0 61.7676 0.702759 61.7676 1.57418C61.7676 2.4456 62.4531 3.13431 63.3032 3.14836Z" fill="#282828"/>
<path d="M95.1675 14.7017C91.1776 12.0031 91.1776 9.22019 91.2187 5.35501H88.4766C88.4766 9.36074 88.4766 13.493 93.6456 17.0489C95.3595 18.2155 96.3878 20.1973 95.9764 21.5466C95.4966 23.2051 92.7681 24.189 88.6 24.189V27C95.7159 27 97.9508 24.4279 98.5678 22.3618C99.4179 19.4664 97.4984 16.3743 95.1675 14.7017Z" fill="#282828"/>
<path d="M111.375 8.1801C114.213 8.16605 116.845 9.74023 118.23 12.2842L120.643 10.9771C118.792 7.51951 115.268 5.36907 111.429 5.35501C105.643 5.43934 100.982 10.2181 100.899 16.1494C100.927 22.0947 105.63 26.9157 111.429 26.9438C115.022 26.9016 118.353 25.0323 120.328 21.9542L117.983 20.5065C116.53 22.7834 114.062 24.1608 111.402 24.189C107.083 24.3717 103.45 20.9422 103.271 16.5148C103.093 12.0874 106.439 8.36282 110.758 8.1801C110.977 8.1801 111.196 8.1801 111.416 8.1801H111.388H111.375Z" fill="url(#paint2_linear_3904_1574)"/>
<path d="M157.416 5.39719C151.616 5.4253 146.913 10.2462 146.886 16.1916V26.9859H149.628V16.2337C149.628 11.8063 153.124 8.22228 157.443 8.22228C161.762 8.22228 165.258 11.8063 165.258 16.2337V26.9859H168.001V16.1916C167.959 10.2322 163.229 5.41124 157.416 5.39719Z" fill="url(#paint3_linear_3904_1574)"/>
<path d="M18.4551 8.9953C14.5886 4.52575 7.91136 4.1041 3.55128 8.06766C-0.808792 12.0312 -1.22012 18.8761 2.64636 23.3456C6.51284 27.8152 13.1901 28.2368 17.5501 24.2733C17.8655 23.9781 18.1671 23.6689 18.4551 23.3456V26.9859H21.1972V5.39717H18.4551V8.9953ZM10.5987 24.1889C6.27976 24.1889 2.78347 20.6049 2.78347 16.1775C2.78347 11.7501 6.27976 8.16605 10.5987 8.16605C14.9176 8.16605 18.4139 11.7501 18.4139 16.1775C18.4139 20.5908 14.9039 24.1749 10.5987 24.1749V24.1889Z" fill="url(#paint4_linear_3904_1574)"/>
<path d="M140.592 8.99531C136.712 4.55388 130.062 4.17439 125.729 8.152C121.396 12.1296 121.026 18.9464 124.906 23.3878C126.908 25.6788 129.76 26.9859 132.763 26.9859C135.765 26.9859 138.631 25.6648 140.605 23.3457V26.9859H143.348V5.39719H140.605V8.99531H140.592ZM132.749 24.189C128.43 24.189 124.934 20.6189 124.92 16.1916C124.92 11.7642 128.403 8.18011 132.722 8.16606C137.041 8.152 140.537 11.7361 140.551 16.1635C140.551 16.1635 140.551 16.1775 140.551 16.1916C140.551 20.6049 137.054 24.1749 132.749 24.189Z" fill="url(#paint5_linear_3904_1574)"/>
</g>
<defs>
<linearGradient id="paint0_linear_3904_1574" x1="20.9638" y1="22.5867" x2="37.6196" y2="11.0161" gradientUnits="userSpaceOnUse">
<stop stop-color="#6752FF"/>
<stop offset="0.02" stop-color="#6551F8"/>
<stop offset="0.16" stop-color="#5546C1"/>
<stop offset="0.31" stop-color="#473D92"/>
<stop offset="0.45" stop-color="#3C356C"/>
<stop offset="0.55" stop-color="#37325C"/>
<stop offset="0.64" stop-color="#332F4E"/>
<stop offset="0.74" stop-color="#2D2B39"/>
<stop offset="0.87" stop-color="#29292C"/>
<stop offset="1" stop-color="#282828"/>
</linearGradient>
<linearGradient id="paint1_linear_3904_1574" x1="32.2205" y1="25.3274" x2="52.86" y2="6.31582" gradientUnits="userSpaceOnUse">
<stop offset="0.02" stop-color="#6551F8"/>
<stop offset="0.16" stop-color="#5546C1"/>
<stop offset="0.31" stop-color="#473D92"/>
<stop offset="0.45" stop-color="#3C356C"/>
<stop offset="0.6" stop-color="#332F4E"/>
<stop offset="0.79" stop-color="#2D2B39"/>
<stop offset="0.87" stop-color="#29292C"/>
<stop offset="0.94" stop-color="#282828"/>
</linearGradient>
<linearGradient id="paint2_linear_3904_1574" x1="128.76" y1="-2.0099" x2="108.402" y2="18.3292" gradientUnits="userSpaceOnUse">
<stop stop-color="#6752FF"/>
<stop offset="1" stop-color="#282828"/>
</linearGradient>
<linearGradient id="paint3_linear_3904_1574" x1="167.795" y1="10.8084" x2="143.419" y2="29.0305" gradientUnits="userSpaceOnUse">
<stop stop-color="#6752FF"/>
<stop offset="1" stop-color="#282828"/>
</linearGradient>
<linearGradient id="paint4_linear_3904_1574" x1="1.97453" y1="25.3977" x2="34.8268" y2="1.6648" gradientUnits="userSpaceOnUse">
<stop stop-color="#6752FF"/>
<stop offset="0.09" stop-color="#5E4CDF"/>
<stop offset="0.27" stop-color="#4D41A8"/>
<stop offset="0.44" stop-color="#40387A"/>
<stop offset="0.6" stop-color="#363156"/>
<stop offset="0.75" stop-color="#2E2C3D"/>
<stop offset="0.89" stop-color="#2A292D"/>
</linearGradient>
<linearGradient id="paint5_linear_3904_1574" x1="148.462" y1="0.379488" x2="128.252" y2="23.9768" gradientUnits="userSpaceOnUse">
<stop stop-color="#6752FF"/>
<stop offset="1" stop-color="#282828"/>
</linearGradient>
<clipPath id="clip0_3904_1574">
<rect width="168" height="27" fill="white"/>
</clipPath>
</defs>
</svg>
