<svg width="145" height="217" viewBox="0 0 145 217" fill="none" xmlns="http://www.w3.org/2000/svg"><path opacity=".4" d="M1.086 203.414a2 2 0 0 1 0-2.828l12.728-12.728a2 2 0 0 1 2.828 2.828L5.328 202l11.314 11.314a2 2 0 1 1-2.828 2.828L1.086 203.414ZM144.5 0c0 48.967.038 99.959-17.682 138.661-8.898 19.437-22.287 35.822-42.387 47.323C64.358 197.47 37.738 204 2.5 204v-4c34.762 0 60.643-6.444 79.944-17.488 19.275-11.029 32.136-26.728 40.738-45.516C140.462 99.251 140.5 49.243 140.5 0h4Z" fill="#563838"/></svg>