<svg width="104" height="130" viewBox="0 0 104 130" fill="none" xmlns="http://www.w3.org/2000/svg"><path opacity=".7" d="M7.293 128.831a1 1 0 0 0 1.414 0l6.364-6.364a1.001 1.001 0 0 0-1.414-1.415L8 126.709l-5.657-5.657a1.001 1.001 0 0 0-1.414 1.415l6.364 6.364ZM104 .624c-7.294 0-14.256-.265-20.893-.45-6.626-.185-12.926-.29-18.842.037C52.433.865 42.01 3.25 33.428 10.288c-8.577 7.036-15.17 18.6-19.627 37.299C9.344 66.284 7 92.218 7 128.123h2c0-35.844 2.343-61.598 6.746-80.072 4.403-18.473 10.841-29.565 18.95-36.217 8.106-6.648 18.028-8.982 29.68-9.626 5.825-.322 12.053-.22 18.675-.035 6.611.184 13.618.45 20.949.45v-2Z" fill="#563838"/></svg>