<svg width="79" height="47" viewBox="0 0 79 47" fill="none" xmlns="http://www.w3.org/2000/svg"><g clip-path="url(#a)" fill="#7F7D83"><path d="M13.462 20.055c.551 0 .996-.459.996-1.028 0-.568-.445-1.027-.996-1.027-.552 0-.997.459-.997 1.027 0 .569.445 1.028.997 1.028Zm21.412 15.582h-2.471L35.745 18l5.53 12.74L46.861 18l3.004 17.637h-2.47l-1.618-9.882L41.155 35.8l-4.59-10.064-1.687 9.901h-.004Zm16.276-17.47h2.632l4.196 10.981L62.266 18l4.144 11.148 4.339-10.966h2.633l-7.116 17.45-4.144-11.62-4.195 11.62-6.778-17.465ZM76.562 18H79v17.637h-2.438V18Z"/><path fill-rule="evenodd" clip-rule="evenodd" d="M34.396 45.552c.589 0 .978-.277 1.103-.497v.44h.57v-5.151h-.57v1.758c-.213-.22-.551-.368-1.066-.368-.978 0-1.794.789-1.794 1.926s.728 1.887 1.762 1.887l-.005.005Zm1.103-2.747v1.486c-.143.291-.496.697-1.033.697-.71 0-1.229-.497-1.229-1.338 0-.84.589-1.357 1.261-1.357.464 0 .784.182.997.512h.005Zm2.309-2.185a.35.35 0 0 0-.357-.348c-.213 0-.375.148-.375.349 0 .22.162.368.375.368a.354.354 0 0 0 .357-.368Zm-.088 1.19h-.57v3.685h.57V41.81Zm2.721 5.157c.909 0 1.6-.512 1.6-1.759v-3.412h-.59v.33c-.162-.2-.532-.401-1.066-.401-.978 0-1.78.716-1.78 1.906s.71 1.907 1.78 1.907c.603 0 .853-.182 1.085-.459v.22c0 .678-.357 1.08-1.047 1.08-.57 0-.91-.277-1.048-.55l-.515.24c.195.549.802.898 1.581.898Zm1.034-4.143v1.486a1.02 1.02 0 0 1-.997.678c-.765 0-1.26-.497-1.26-1.338 0-.84.588-1.357 1.26-1.357.482 0 .834.24.997.53Zm2.308-2.204a.35.35 0 0 0-.357-.348c-.213 0-.375.148-.375.349 0 .22.162.368.375.368a.354.354 0 0 0 .357-.368Zm-.088 1.19h-.57v3.685h.57V41.81Z"/><path d="M44.41 41.816h.745v-.937h.57v.937h1.229v.568h-1.228V44c0 .731.194.97.62.97.251 0 .446-.11.64-.258l.265.44c-.214.239-.57.387-1.015.387-.696 0-1.085-.478-1.085-1.395v-1.759h-.747v-.569h.005Z"/><path fill-rule="evenodd" clip-rule="evenodd" d="M49.244 41.72c-.514 0-1.085.22-1.423.53l.283.44c.338-.258.658-.401 1.066-.401.746 0 .96.44.96 1.099a3.702 3.702 0 0 0-.835-.11c-1.03 0-1.706.33-1.706 1.137 0 .679.515 1.118 1.298 1.118.621 0 1.034-.277 1.247-.587v.549h.57v-2.294c0-.936-.496-1.486-1.46-1.486v.005Zm.89 2.198v.368a1.245 1.245 0 0 1-1.122.717c-.482 0-.816-.22-.816-.607 0-.44.445-.588 1.173-.588.283 0 .589.053.765.11Z"/><path d="M51.733 40.33h.57v5.17h-.57v-5.17Z"/><path fill-rule="evenodd" clip-rule="evenodd" d="M57 41.72c-.515 0-1.085.22-1.424.53l.283.44c.338-.258.658-.401 1.066-.401.747 0 .96.44.96 1.099a3.703 3.703 0 0 0-.835-.11c-1.029 0-1.706.33-1.706 1.137 0 .679.515 1.118 1.298 1.118.622 0 1.03-.277 1.243-.587v.549h.57v-2.294c0-.936-.496-1.486-1.46-1.486l.004.005Zm.89 2.198v.368a1.244 1.244 0 0 1-1.122.717c-.478 0-.816-.22-.816-.607 0-.44.445-.588 1.173-.588.282 0 .588.053.764.11Zm3.18 3.049c.908 0 1.599-.512 1.599-1.759v-3.412h-.589v.33c-.162-.2-.533-.401-1.066-.401-.978 0-1.78.716-1.78 1.906s.714 1.907 1.78 1.907c.602 0 .853-.182 1.085-.459v.22c0 .678-.357 1.08-1.048 1.08-.57 0-.909-.277-1.048-.55l-.514.24c.194.549.802.898 1.58.898Zm1.015-4.143v1.486a.987.987 0 0 1-.997.678c-.765 0-1.26-.497-1.26-1.338 0-.84.588-1.357 1.26-1.357.482 0 .834.24.997.53Zm3.291 2.747a1.64 1.64 0 0 0 1.423-.77l-.375-.348c-.214.31-.603.55-1.034.55-.728 0-1.261-.402-1.298-1.157h2.81c.036-.167.036-.31.036-.44 0-1.027-.714-1.667-1.655-1.667-1.191 0-1.812.84-1.812 1.925 0 1.157.765 1.907 1.905 1.907Zm.96-2.255h-2.258c.088-.607.514-1.047 1.173-1.028.64 0 1.047.368 1.084 1.028Z"/><path d="M67.74 41.815h.57v.478c.232-.368.714-.55 1.229-.55.927 0 1.441.498 1.441 1.668V45.5h-.57v-2.016c0-.808-.338-1.175-1.047-1.175-.445 0-.853.291-1.048.75v2.437h-.57V41.81l-.005.004Zm7.398 2.915c-.264.53-.908.827-1.474.827-1.14 0-1.9-.75-1.9-1.907 0-1.08.746-1.925 1.868-1.925.64 0 1.21.291 1.442.75l-.445.31c-.25-.348-.552-.496-.997-.496-.728 0-1.28.568-1.28 1.356 0 .789.534 1.358 1.354 1.358.427 0 .784-.22.997-.569l.445.291-.01.005Zm.909 1.649c.051.019.088.038.144.038.264 0 .445-.182.695-.77l.107-.276-1.725-3.537h.677l1.335 2.786 1.015-2.785h.621l-1.353 3.631c-.482 1.247-.853 1.539-1.354 1.539a.903.903 0 0 1-.39-.091l.233-.53-.005-.005ZM22.158 35.618h3.894l.89-1.539h-5.818l-2.544 7.297-1.618-3.006-2.758 5.19V21.354H12.71V46.78h1.492l2.759-5.428 1.706 3.684.408-1.118.356-.95"/><path d="M4.784 32.517H.871L0 34.055h5.818l2.545-7.315 1.599 3.024 2.758-5.189v22.2h1.511v-25.42h-1.51l-2.74 5.428-1.706-3.684-.408 1.118h-.019l-.338.936v.02"/></g><path d="M2.558 3.575c.829 0 1.434.163 1.815.488.383.322.575.785.575 1.389 0 .272-.045.531-.136.777a1.65 1.65 0 0 1-.43.646 2.13 2.13 0 0 1-.787.44c-.323.105-.718.158-1.187.158h-.782V10H.879V3.575h1.679Zm-.07.637h-.862v2.62h.699c.41 0 .751-.044 1.024-.132.275-.088.482-.23.62-.427.137-.199.206-.462.206-.79 0-.428-.136-.746-.409-.954-.272-.211-.699-.317-1.279-.317Zm5.497.892c.574 0 1 .13 1.279.387.278.258.417.67.417 1.235V10H9.15l-.14-.712h-.035a2.673 2.673 0 0 1-.422.444 1.568 1.568 0 0 1-.51.268 2.42 2.42 0 0 1-.703.088c-.293 0-.554-.051-.782-.154a1.218 1.218 0 0 1-.536-.466c-.13-.208-.194-.471-.194-.79 0-.481.19-.85.571-1.108.381-.258.961-.399 1.74-.422l.831-.035v-.295c0-.416-.09-.707-.268-.874-.179-.167-.43-.25-.756-.25-.252 0-.492.036-.72.11a4.756 4.756 0 0 0-.65.258L6.35 5.51c.217-.112.466-.207.747-.286.281-.079.577-.119.888-.119Zm.975 2.523-.733.03c-.601.024-1.024.122-1.27.295a.844.844 0 0 0-.37.734c0 .275.084.479.25.61.168.133.39.199.664.199.428 0 .778-.119 1.05-.356.273-.238.41-.594.41-1.068v-.444Zm3.463-2.531c.36 0 .673.05.936.15.264.096.468.238.611.425.144.188.215.416.215.686 0 .29-.079.521-.237.694a1.343 1.343 0 0 1-.655.374v.035c.197.053.374.129.532.228a1.075 1.075 0 0 1 .527.98c0 .27-.073.513-.22.73-.146.214-.368.382-.667.505-.299.123-.677.185-1.134.185-.226 0-.44-.013-.641-.04a3.449 3.449 0 0 1-.55-.105 2.278 2.278 0 0 1-.43-.167v-.664c.205.1.445.188.72.264.276.076.573.114.892.114.246 0 .468-.028.664-.083a.997.997 0 0 0 .466-.277.723.723 0 0 0 .175-.505.71.71 0 0 0-.153-.47.889.889 0 0 0-.462-.278 2.69 2.69 0 0 0-.769-.092h-.646v-.598h.532c.413 0 .743-.058.989-.175a.608.608 0 0 0 .369-.594.587.587 0 0 0-.286-.536c-.19-.12-.463-.18-.817-.18a2.64 2.64 0 0 0-.699.084c-.202.052-.42.129-.655.228l-.259-.584c.252-.112.516-.195.791-.25.275-.056.563-.084.861-.084Zm5.375 0c.6 0 1.08.206 1.437.62.357.412.536 1.034.536 1.863 0 .547-.082 1.007-.246 1.38-.164.372-.396.653-.694.843-.296.19-.646.286-1.05.286a2.05 2.05 0 0 1-.673-.101 1.588 1.588 0 0 1-.497-.273 1.777 1.777 0 0 1-.342-.373h-.053l.03.413c.015.161.023.302.023.422v1.977h-.734v-6.97h.602l.096.713h.036c.093-.147.208-.28.342-.4a1.46 1.46 0 0 1 .492-.29c.197-.074.428-.11.695-.11Zm-.128.615c-.334 0-.603.064-.808.193a1.11 1.11 0 0 0-.444.58c-.094.255-.144.576-.15.963v.14c0 .408.044.752.132 1.033.091.281.24.495.444.642.208.146.487.22.835.22.299 0 .548-.081.747-.242.2-.161.347-.386.444-.673.1-.29.15-.622.15-.997 0-.569-.112-1.02-.334-1.354-.22-.337-.559-.505-1.016-.505Zm5.177-.607c.574 0 1 .13 1.279.387.278.258.418.67.418 1.235V10h-.532l-.14-.712h-.036a2.673 2.673 0 0 1-.422.444 1.568 1.568 0 0 1-.51.268 2.42 2.42 0 0 1-.703.088c-.293 0-.553-.051-.782-.154a1.218 1.218 0 0 1-.536-.466c-.13-.208-.194-.471-.194-.79 0-.481.19-.85.572-1.108.38-.258.96-.399 1.74-.422l.83-.035v-.295c0-.416-.089-.707-.267-.874-.18-.167-.431-.25-.756-.25-.252 0-.493.036-.721.11a4.807 4.807 0 0 0-.65.258l-.225-.553c.217-.112.466-.207.747-.286.282-.079.578-.119.888-.119Zm.976 2.523-.734.03c-.6.024-1.024.122-1.27.295a.844.844 0 0 0-.37.734c0 .275.084.479.251.61.167.133.388.199.664.199.427 0 .778-.119 1.05-.356.272-.238.409-.594.409-1.068v-.444Zm1.973-.519c0-.685.066-1.27.198-1.753.131-.486.335-.876.61-1.169a2.142 2.142 0 0 1 1.073-.606c.375-.103.756-.19 1.142-.264.387-.076.764-.142 1.13-.198l.127.642c-.184.026-.378.057-.58.092-.202.032-.404.067-.606.106a10.936 10.936 0 0 0-1.046.232c-.25.068-.465.185-.646.352a1.727 1.727 0 0 0-.427.69c-.102.293-.164.662-.184 1.107h.053a1.964 1.964 0 0 1 1.617-.822c.416 0 .763.091 1.041.273.279.179.488.43.629.756.14.325.21.706.21 1.142 0 .525-.09.966-.272 1.323a1.84 1.84 0 0 1-.756.809c-.325.179-.707.268-1.147.268-.34 0-.644-.066-.914-.198a1.867 1.867 0 0 1-.68-.58 2.844 2.844 0 0 1-.427-.936 5.01 5.01 0 0 1-.145-1.266Zm2.224 2.373c.278 0 .517-.058.716-.175.202-.118.357-.302.466-.554.111-.255.167-.586.167-.993 0-.51-.099-.908-.295-1.196-.193-.29-.504-.435-.931-.435-.267 0-.509.058-.726.172a2.04 2.04 0 0 0-.549.4 2.02 2.02 0 0 0-.325.417c0 .299.022.59.066.87.044.282.12.535.228.76.109.226.258.405.449.537.193.132.438.197.733.197Zm7.532-1.898c0 .396-.051.749-.154 1.06a2.17 2.17 0 0 1-.444.786 1.933 1.933 0 0 1-.703.492 2.434 2.434 0 0 1-.927.167c-.322 0-.618-.056-.888-.167a2.003 2.003 0 0 1-.694-.492 2.273 2.273 0 0 1-.453-.787 3.284 3.284 0 0 1-.158-1.059c0-.527.09-.976.268-1.345a1.91 1.91 0 0 1 .765-.848c.334-.196.73-.294 1.19-.294.44 0 .824.098 1.152.294.33.196.587.48.769.853.184.369.277.816.277 1.34Zm-3.665 0c0 .387.051.722.154 1.006.102.285.26.504.474.66.214.155.49.232.826.232.334 0 .608-.077.822-.232a1.35 1.35 0 0 0 .48-.66c.102-.284.153-.62.153-1.006 0-.384-.051-.715-.154-.993a1.332 1.332 0 0 0-.475-.65c-.213-.153-.49-.23-.83-.23-.501 0-.869.166-1.103.498-.232.33-.347.79-.347 1.375Zm8.209-1.78h-1.587V10h-.72V5.803h-1.565v-.62h3.872v.62Zm3.761-.62h.805l-2.079 2.325L44.829 10h-.857l-2.189-2.443V10h-.734V5.184h.734V7.52l2.074-2.337Zm3.644-.079c.574 0 1 .13 1.278.387.279.258.418.67.418 1.235V10h-.532l-.14-.712h-.036a2.674 2.674 0 0 1-.422.444 1.568 1.568 0 0 1-.51.268 2.42 2.42 0 0 1-.703.088c-.292 0-.553-.051-.782-.154a1.219 1.219 0 0 1-.536-.466c-.129-.208-.193-.471-.193-.79 0-.481.19-.85.571-1.108.38-.258.961-.399 1.74-.422l.83-.035v-.295c0-.416-.089-.707-.267-.874-.179-.167-.43-.25-.756-.25-.252 0-.492.036-.72.11a4.77 4.77 0 0 0-.651.258l-.224-.553c.217-.112.465-.207.747-.286.281-.079.577-.119.888-.119Zm.975 2.523-.734.03c-.6.024-1.024.122-1.27.295a.844.844 0 0 0-.369.734c0 .275.084.479.25.61.167.133.389.199.664.199.428 0 .778-.119 1.05-.356.273-.238.41-.594.41-1.068v-.444Zm6.49 2.46c-.433 0-.815-.088-1.146-.267a1.838 1.838 0 0 1-.774-.818c-.184-.366-.276-.827-.276-1.384 0-.583.096-1.059.29-1.428a1.9 1.9 0 0 1 .808-.826 2.49 2.49 0 0 1 1.17-.268c.24 0 .47.025.693.074.226.047.41.107.554.18l-.22.611a3.78 3.78 0 0 0-.51-.158 2.25 2.25 0 0 0-.535-.07c-.335 0-.613.072-.835.215a1.31 1.31 0 0 0-.497.633c-.108.278-.163.621-.163 1.028 0 .39.053.723.159.998.108.275.268.486.479.633.214.143.48.215.8.215.254 0 .484-.026.69-.079.204-.056.39-.12.557-.193v.65a2.26 2.26 0 0 1-.54.189c-.196.044-.43.066-.703.066Zm4.189-4.983c.574 0 1 .13 1.279.387.278.258.417.67.417 1.235V10h-.532l-.14-.712h-.035a2.674 2.674 0 0 1-.422.444 1.568 1.568 0 0 1-.51.268 2.42 2.42 0 0 1-.703.088c-.293 0-.554-.051-.782-.154a1.219 1.219 0 0 1-.537-.466c-.128-.208-.193-.471-.193-.79 0-.481.19-.85.571-1.108.381-.258.961-.399 1.74-.422l.831-.035v-.295c0-.416-.09-.707-.268-.874-.179-.167-.43-.25-.756-.25-.252 0-.492.036-.72.11a4.756 4.756 0 0 0-.65.258l-.225-.553c.217-.112.466-.207.747-.286.281-.079.577-.119.888-.119Zm.975 2.523-.733.03c-.601.024-1.024.122-1.27.295a.844.844 0 0 0-.37.734c0 .275.084.479.25.61.168.133.389.199.664.199.428 0 .778-.119 1.05-.356.273-.238.41-.594.41-1.068v-.444Zm2.918-2.443V8.21a12.874 12.874 0 0 1-.017.523 122.316 122.316 0 0 1-.031.532l2.628-4.082h.896V10h-.68V7.047a18.155 18.155 0 0 1 .017-.791l.013-.334L63.254 10h-.9V5.184h.694Zm3.116-1.982a1.68 1.68 0 0 1-.224.742c-.12.2-.297.35-.532.453-.234.1-.534.15-.9.15-.379 0-.683-.049-.915-.146a1.037 1.037 0 0 1-.51-.448c-.108-.2-.172-.45-.193-.751h.686c.032.322.118.542.259.659.14.117.37.176.685.176.282 0 .503-.062.664-.185.161-.123.258-.34.29-.65h.69Zm5.194 2.601h-1.586V10h-.72V5.803h-1.565v-.62h3.871v.62Zm2.756-.699c.574 0 1 .13 1.279.387.278.258.417.67.417 1.235V10h-.532l-.14-.712h-.035a2.673 2.673 0 0 1-.422.444 1.568 1.568 0 0 1-.51.268 2.42 2.42 0 0 1-.703.088c-.293 0-.554-.051-.782-.154a1.218 1.218 0 0 1-.537-.466c-.129-.208-.193-.471-.193-.79 0-.481.19-.85.571-1.108.381-.258.961-.399 1.74-.422l.831-.035v-.295c0-.416-.09-.707-.268-.874-.179-.167-.43-.25-.756-.25-.252 0-.492.036-.72.11a4.756 4.756 0 0 0-.65.258l-.225-.553c.217-.112.466-.207.747-.286.281-.079.577-.119.888-.119Zm.975 2.523-.733.03c-.601.024-1.024.122-1.27.295a.844.844 0 0 0-.37.734c0 .275.084.479.25.61.168.133.389.199.664.199.428 0 .778-.119 1.05-.356.273-.238.41-.594.41-1.068v-.444Z" fill="#7C7A82"/><defs><clipPath id="a"><path fill="#fff" transform="translate(0 18)" d="M0 0h79v29H0z"/></clipPath></defs></svg>