<svg width="240" height="280" viewBox="0 0 240 280" fill="none" xmlns="http://www.w3.org/2000/svg">
<g opacity="0.5" clip-path="url(#clip0_3164_11215)">
<path d="M189.53 205.779V207.205H229.029C233.022 207.205 236.767 208.281 240 210.151V208.521C236.725 206.775 232.99 205.779 229.029 205.779H189.53Z" fill="url(#paint0_linear_3164_11215)"/>
<path d="M189.53 209.104V210.529H229.029C233.125 210.529 236.917 211.858 240 214.107V212.377C236.84 210.312 233.073 209.104 229.029 209.104H189.53Z" fill="url(#paint1_linear_3164_11215)"/>
<path d="M189.53 212.429V213.854H229.029C233.319 213.854 237.208 215.625 240 218.476V216.528C237.051 213.976 233.217 212.429 229.029 212.429H189.53Z" fill="url(#paint2_linear_3164_11215)"/>
<path d="M229.029 215.753H189.53V217.178H229.029C233.891 217.178 238.086 220.074 240 224.234V221.419C237.549 217.992 233.546 215.753 229.029 215.753Z" fill="url(#paint3_linear_3164_11215)"/>
<path d="M229.029 220.5C233.859 220.5 237.792 224.439 237.792 229.285V259.341H239.214V229.285C239.214 223.655 234.645 219.075 229.029 219.075H189.53V220.5H229.029Z" fill="url(#paint4_linear_3164_11215)"/>
<path d="M229.029 223.824C232.032 223.824 234.476 226.275 234.476 229.285V233.699H234.514V235.124H234.476V259.341H235.898V229.285C235.898 225.487 232.818 222.399 229.029 222.399H189.53V223.824H229.029Z" fill="url(#paint5_linear_3164_11215)"/>
<path d="M108.157 232.277C96.0098 232.277 86.1312 222.37 86.1312 210.196V176.156H84.7095V210.196C84.7095 223.158 95.227 233.702 108.157 233.702H142.633V232.277H108.157Z" fill="url(#paint6_linear_3164_11215)"/>
<path d="M89.4471 210.193V176.153H88.0254V210.193C88.0254 221.323 97.0573 230.374 108.156 230.374H142.632V228.949H108.156C97.8401 228.949 89.4471 220.535 89.4471 210.193Z" fill="url(#paint7_linear_3164_11215)"/>
<path d="M92.7635 210.193V176.153H91.3418V210.193C91.3418 219.488 98.8849 227.05 108.156 227.05H142.633V225.625H108.156C99.6677 225.625 92.7603 218.7 92.7603 210.19L92.7635 210.193Z" fill="url(#paint8_linear_3164_11215)"/>
<path d="M96.0765 210.193V176.153H94.6548V210.193C94.6548 217.656 100.712 223.728 108.156 223.728H142.632V222.303H108.156C101.495 222.303 96.0765 216.871 96.0765 210.193Z" fill="url(#paint9_linear_3164_11215)"/>
<path d="M99.3929 210.193V176.153H97.9712V210.193C97.9712 215.824 102.54 220.404 108.156 220.404H142.633V218.979H108.156C103.326 218.979 99.3929 215.039 99.3929 210.193Z" fill="url(#paint10_linear_3164_11215)"/>
<path d="M102.709 210.193V176.153H101.288V210.193C101.288 213.988 104.367 217.079 108.157 217.079H142.633V215.654H108.157C105.153 215.654 102.709 213.204 102.709 210.193Z" fill="url(#paint11_linear_3164_11215)"/>
<path d="M188.108 252.599C188.108 264.777 178.227 274.68 166.083 274.68C153.939 274.68 144.057 264.773 144.057 252.599V194.579C144.057 190.783 140.977 187.693 137.188 187.693C133.399 187.693 130.319 190.78 130.319 194.579V215.654H131.741V194.579C131.741 191.568 134.185 189.118 137.188 189.118C140.192 189.118 142.636 191.568 142.636 194.579V252.599C142.636 265.561 153.153 276.105 166.083 276.105C179.013 276.105 189.53 265.561 189.53 252.599V198.851H188.108V252.599Z" fill="url(#paint12_linear_3164_11215)"/>
<path d="M166.083 271.355C155.767 271.355 147.374 262.941 147.374 252.599V194.579C147.374 188.948 142.805 184.368 137.189 184.368C131.572 184.368 127.003 188.948 127.003 194.579V215.654H128.425V194.579C128.425 189.736 132.358 185.793 137.189 185.793C142.019 185.793 145.952 189.733 145.952 194.579V252.599C145.952 263.729 154.984 272.781 166.083 272.781C177.182 272.781 186.214 263.726 186.214 252.599V198.852H184.793V252.599C184.793 262.941 176.4 271.355 166.083 271.355Z" fill="url(#paint13_linear_3164_11215)"/>
<path d="M166.083 268.031C157.594 268.031 150.687 261.106 150.687 252.596V194.576C150.687 187.113 144.629 181.04 137.185 181.04C129.741 181.04 123.684 187.113 123.684 194.576V215.651H125.105V194.576C125.105 187.898 130.524 182.466 137.185 182.466C143.847 182.466 149.265 187.898 149.265 194.576V252.596C149.265 261.891 156.808 269.453 166.08 269.453C175.351 269.453 182.894 261.891 182.894 252.596V198.848H181.473V252.596C181.473 261.106 174.565 268.031 166.077 268.031H166.083Z" fill="url(#paint14_linear_3164_11215)"/>
<path d="M166.083 264.706C159.422 264.706 154.003 259.274 154.003 252.596V194.576C154.003 185.281 146.46 177.719 137.189 177.719C127.917 177.719 120.374 185.281 120.374 194.576V215.651H121.796V194.576C121.796 186.066 128.703 179.141 137.192 179.141C145.681 179.141 152.588 186.066 152.588 194.576V252.596C152.588 260.059 158.646 266.131 166.086 266.131C173.527 266.131 179.588 260.059 179.588 252.596V198.848H178.166V252.596C178.166 259.274 172.748 264.706 166.086 264.706H166.083Z" fill="url(#paint15_linear_3164_11215)"/>
<path d="M166.083 261.382C161.253 261.382 157.32 257.442 157.32 252.596V194.576C157.32 183.449 148.288 174.394 137.189 174.394C126.09 174.394 117.058 183.449 117.058 194.576V215.651H118.479V194.576C118.479 184.234 126.872 175.82 137.189 175.82C147.505 175.82 155.898 184.234 155.898 194.576V252.596C155.898 258.227 160.467 262.807 166.083 262.807C171.7 262.807 176.268 258.227 176.268 252.596V198.848H174.847V252.596C174.847 257.439 170.917 261.382 166.083 261.382Z" fill="url(#paint16_linear_3164_11215)"/>
<path d="M160.636 194.579C160.636 193.778 160.594 192.987 160.518 192.206C160.511 192.154 160.505 192.1 160.498 192.049C160.47 191.792 160.438 191.536 160.403 191.283C160.38 191.117 160.355 190.95 160.329 190.787C160.224 190.143 160.093 189.506 159.939 188.881C159.898 188.714 159.853 188.551 159.808 188.388C159.767 188.231 159.722 188.074 159.674 187.917C159.629 187.766 159.585 187.613 159.537 187.462C159.329 186.812 159.096 186.175 158.837 185.553C158.77 185.393 158.7 185.233 158.626 185.073C158.575 184.954 158.521 184.839 158.466 184.72C158.374 184.525 158.281 184.326 158.185 184.134C157.863 183.484 157.511 182.847 157.131 182.232C157.089 182.165 157.045 182.097 157 182.03C156.738 181.614 156.463 181.207 156.176 180.81C151.911 174.916 144.99 171.073 137.188 171.073C124.259 171.073 113.741 181.617 113.741 194.579V215.654H115.163V194.579C115.163 182.402 125.045 172.498 137.188 172.498C149.332 172.498 159.214 182.405 159.214 194.579V252.599C159.214 256.398 162.297 259.486 166.083 259.486C169.869 259.486 172.952 256.398 172.952 252.599V198.852H171.53V252.599C171.53 255.61 169.086 258.06 166.083 258.06C163.08 258.06 160.636 255.61 160.636 252.599V194.579Z" fill="url(#paint17_linear_3164_11215)"/>
<path d="M77.8244 248.378C77.8244 260.552 67.9426 270.459 55.7988 270.459C43.6551 270.459 33.7733 260.552 33.7733 248.378V220.007H32.3516V248.378C32.3516 261.34 42.8691 271.884 55.7988 271.884C68.7286 271.884 79.2461 261.34 79.2461 248.378V176.153H77.8244V248.378Z" fill="url(#paint18_linear_3164_11215)"/>
<path d="M55.799 268.559C66.9012 268.559 75.93 259.505 75.93 248.378V176.153H74.5082V248.378C74.5082 258.72 66.1153 267.134 55.799 267.134C45.4827 267.134 37.0897 258.72 37.0897 248.378V220.007H35.668V248.378C35.668 259.505 44.6999 268.559 55.799 268.559Z" fill="url(#paint19_linear_3164_11215)"/>
<path d="M55.7986 265.238C65.0702 265.238 72.6133 257.676 72.6133 248.381V176.156H71.1916V248.381C71.1916 256.891 64.2842 263.816 55.7954 263.816C47.3066 263.816 40.3993 256.891 40.3993 248.381V220.01H38.9775V248.381C38.9775 257.676 46.5207 265.238 55.7922 265.238H55.7986Z" fill="url(#paint20_linear_3164_11215)"/>
<path d="M55.799 261.913C63.243 261.913 69.3006 255.841 69.3006 248.381V176.156H67.8788V248.381C67.8788 255.059 62.4603 260.491 55.799 260.491C49.1376 260.491 43.7191 255.059 43.7191 248.381V220.01H42.2974V248.381C42.2974 255.844 48.3549 261.913 55.799 261.913Z" fill="url(#paint21_linear_3164_11215)"/>
<path d="M55.7986 258.589C61.4152 258.589 65.9839 254.009 65.9839 248.378V176.153H64.5622V248.378C64.5622 253.221 60.6325 257.163 55.7986 257.163C50.9647 257.163 47.035 253.224 47.035 248.378V220.007H45.6133V248.378C45.6133 254.009 50.182 258.589 55.7986 258.589Z" fill="url(#paint22_linear_3164_11215)"/>
<path d="M55.7987 255.264C59.5878 255.264 62.6677 252.176 62.6677 248.378V176.153H61.246V248.378C61.246 251.389 58.8019 253.839 55.7987 253.839C52.7955 253.839 50.3514 251.389 50.3514 248.378V220.007H48.9297V248.378C48.9297 252.173 52.0128 255.264 55.7987 255.264Z" fill="url(#paint23_linear_3164_11215)"/>
<path d="M23.4473 203.387H61.2428V201.962H23.4473C10.5176 201.962 0 212.505 0 225.468V280H1.42173V225.468C1.42173 213.29 11.3035 203.387 23.4473 203.387Z" fill="url(#paint24_linear_3164_11215)"/>
<path d="M23.4474 206.711H61.2429V205.286H23.4474C12.3484 205.286 3.31641 214.341 3.31641 225.468V280H4.73813V225.468C4.73813 215.125 13.1311 206.711 23.4474 206.711Z" fill="url(#paint25_linear_3164_11215)"/>
<path d="M23.4475 210.036H61.243V208.611H23.4475C14.1759 208.611 6.63281 216.173 6.63281 225.468V280H8.05454V225.468C8.05454 216.957 14.9619 210.033 23.4507 210.033L23.4475 210.036Z" fill="url(#paint26_linear_3164_11215)"/>
<path d="M23.4474 213.357H61.2429V211.932H23.4474C16.0033 211.932 9.9458 218.005 9.9458 225.468V280H11.3675V225.468C11.3675 218.79 16.7861 213.357 23.4474 213.357Z" fill="url(#paint27_linear_3164_11215)"/>
<path d="M23.4475 216.682H61.243V215.257H23.4475C17.8309 215.257 13.2622 219.837 13.2622 225.468V280H14.6839V225.468C14.6839 220.625 18.6136 216.682 23.4475 216.682Z" fill="url(#paint28_linear_3164_11215)"/>
<path d="M23.4474 220.007H32.3515V220H33.7732V220.007H35.6678V220H37.0895V220.007H38.9841V220H40.4058V220.007H42.3004V220H43.7221V220.007H45.6167V220H47.0384V220.007H48.933V220H50.3547V220.007H61.2461V218.581H23.4506C19.6646 218.581 16.5815 221.669 16.5815 225.468V280H18.0033V225.468C18.0033 222.457 20.4474 220.007 23.4506 220.007H23.4474Z" fill="url(#paint29_linear_3164_11215)"/>
<path d="M33.7735 220H32.3516V220.007H33.7735V220Z" fill="url(#paint30_linear_3164_11215)"/>
<path d="M33.7735 220H32.3516V220.007H33.7735V220Z" fill="url(#paint31_linear_3164_11215)"/>
<path d="M37.0899 220H35.668V220.007H37.0899V220Z" fill="url(#paint32_linear_3164_11215)"/>
<path d="M37.0899 220H35.668V220.007H37.0899V220Z" fill="url(#paint33_linear_3164_11215)"/>
<path d="M40.4029 220H38.981V220.007H40.4029V220Z" fill="url(#paint34_linear_3164_11215)"/>
<path d="M40.4029 220H38.981V220.007H40.4029V220Z" fill="url(#paint35_linear_3164_11215)"/>
<path d="M43.7193 220H42.2974V220.007H43.7193V220Z" fill="url(#paint36_linear_3164_11215)"/>
<path d="M43.7193 220H42.2974V220.007H43.7193V220Z" fill="url(#paint37_linear_3164_11215)"/>
<path d="M47.0352 220H45.6133V220.007H47.0352V220Z" fill="url(#paint38_linear_3164_11215)"/>
<path d="M47.0352 220H45.6133V220.007H47.0352V220Z" fill="url(#paint39_linear_3164_11215)"/>
<path d="M50.3516 220H48.9297V220.007H50.3516V220Z" fill="url(#paint40_linear_3164_11215)"/>
<path d="M50.3516 220H48.9297V220.007H50.3516V220Z" fill="url(#paint41_linear_3164_11215)"/>
<path d="M111.706 254.198C107.92 254.198 104.837 257.285 104.837 261.084V280H106.259V261.084C106.259 258.073 108.703 255.623 111.706 255.623C114.709 255.623 117.153 258.073 117.153 261.084V280H118.575V261.084C118.575 257.288 115.495 254.198 111.706 254.198Z" fill="url(#paint42_linear_3164_11215)"/>
<path d="M111.706 250.873C106.09 250.873 101.521 255.453 101.521 261.084V280H102.943V261.084C102.943 256.241 106.872 252.298 111.706 252.298C116.54 252.298 120.47 256.238 120.47 261.084V280H121.892V261.084C121.892 255.453 117.323 250.873 111.706 250.873Z" fill="url(#paint43_linear_3164_11215)"/>
<path d="M111.706 247.548C104.262 247.548 98.2046 253.621 98.2046 261.084V280H99.6263V261.084C99.6263 254.406 105.045 248.974 111.706 248.974C118.368 248.974 123.786 254.406 123.786 261.084V280H125.208V261.084C125.208 253.621 119.15 247.548 111.706 247.548Z" fill="url(#paint44_linear_3164_11215)"/>
<path d="M111.706 244.227C102.434 244.227 94.8911 251.789 94.8911 261.084V280H96.3128V261.084C96.3128 252.574 103.22 245.649 111.709 245.649C120.198 245.649 127.105 252.574 127.105 261.084V280H128.527V261.084C128.527 251.789 120.984 244.227 111.712 244.227H111.706Z" fill="url(#paint45_linear_3164_11215)"/>
<path d="M111.706 240.902C100.604 240.902 91.5752 249.957 91.5752 261.084V280H92.9969V261.084C92.9969 250.742 101.39 242.328 111.706 242.328C122.022 242.328 130.415 250.742 130.415 261.084V280H131.837V261.084C131.837 249.954 122.805 240.902 111.706 240.902Z" fill="url(#paint46_linear_3164_11215)"/>
<path d="M111.706 237.578C98.7764 237.578 88.2588 248.122 88.2588 261.084V280H89.6805V261.084C89.6805 248.906 99.5623 239.003 111.706 239.003C123.85 239.003 133.732 248.91 133.732 261.084V280H135.153V261.084C135.153 248.122 124.636 237.578 111.706 237.578Z" fill="url(#paint47_linear_3164_11215)"/>
<path d="M215.818 253.884C215.818 250.873 218.262 248.423 221.265 248.423H234.469V246.997H221.265C217.479 246.997 214.396 250.085 214.396 253.884C214.396 257.682 217.479 260.77 221.265 260.77H240V259.345H221.265C218.262 259.345 215.818 256.894 215.818 253.884Z" fill="url(#paint48_linear_3164_11215)"/>
<path d="M202.556 253.884C202.556 243.541 210.949 235.127 221.265 235.127H234.476V233.702H221.265C210.166 233.702 201.134 242.757 201.134 253.884C201.134 265.01 210.166 274.065 221.265 274.065H240V272.64H221.265C210.949 272.64 202.556 264.226 202.556 253.884Z" fill="url(#paint49_linear_3164_11215)"/>
<path d="M234.514 233.699H234.476V235.124H234.514V233.699Z" fill="url(#paint50_linear_3164_11215)"/>
<path d="M234.514 233.699H234.476V235.124H234.514V233.699Z" fill="url(#paint51_linear_3164_11215)"/>
<path d="M199.24 253.884C199.24 241.706 209.121 231.803 221.265 231.803H234.47V230.378H221.265C208.335 230.378 197.818 240.921 197.818 253.884C197.818 266.846 208.335 277.39 221.265 277.39H240V275.964H221.265C209.121 275.964 199.24 266.058 199.24 253.884Z" fill="url(#paint52_linear_3164_11215)"/>
<path d="M212.505 253.884C212.505 249.041 216.434 245.098 221.268 245.098H234.473V243.673H221.268C215.652 243.673 211.083 248.253 211.083 253.884C211.083 259.514 215.652 264.094 221.268 264.094H240.003V262.669H221.268C216.438 262.669 212.505 258.73 212.505 253.884Z" fill="url(#paint53_linear_3164_11215)"/>
<path d="M209.189 253.884C209.189 247.206 214.607 241.773 221.268 241.773H234.473V240.348H221.268C213.824 240.348 207.77 246.421 207.77 253.884C207.77 261.346 213.828 267.416 221.268 267.416H240.003V265.99H221.268C214.607 265.99 209.189 260.558 209.189 253.88V253.884Z" fill="url(#paint54_linear_3164_11215)"/>
<path d="M205.872 253.884C205.872 245.374 212.779 238.449 221.268 238.449H234.473V237.024H221.268C211.997 237.024 204.454 244.586 204.454 253.88C204.454 263.175 211.997 270.737 221.268 270.737H240.003V269.312H221.268C212.779 269.312 205.872 262.387 205.872 253.877V253.884Z" fill="url(#paint55_linear_3164_11215)"/>
<path d="M212.77 94.306C200.626 94.306 190.744 84.3994 190.744 72.2252V43.854H189.323V72.2252C189.323 85.1873 199.84 95.7312 212.77 95.7312C225.7 95.7312 236.217 85.1873 236.217 72.2252V0H234.796V72.2252C234.796 84.3994 224.914 94.306 212.77 94.306Z" fill="url(#paint56_linear_3164_11215)"/>
<path d="M212.77 90.9813C202.454 90.9813 194.061 82.5674 194.061 72.2252V43.854H192.639V72.2252C192.639 83.3521 201.671 92.4066 212.77 92.4066C223.869 92.4066 232.901 83.3521 232.901 72.2252V0H231.479V72.2252C231.479 82.5674 223.086 90.9813 212.77 90.9813Z" fill="url(#paint57_linear_3164_11215)"/>
<path d="M212.77 87.6567C204.281 87.6567 197.374 80.7321 197.374 72.222V43.8508H195.952V72.222C195.952 81.5168 203.495 89.0788 212.767 89.0788C222.038 89.0788 229.582 81.5168 229.582 72.222V0H228.16V72.2252C228.16 80.7353 221.252 87.6599 212.764 87.6599L212.77 87.6567Z" fill="url(#paint58_linear_3164_11215)"/>
<path d="M212.77 84.3321C206.109 84.3321 200.69 78.9 200.69 72.222V43.8508H199.269V72.222C199.269 79.6847 205.326 85.7542 212.77 85.7542C220.214 85.7542 226.272 79.6815 226.272 72.222V0H224.85V72.2252C224.85 78.9032 219.431 84.3353 212.77 84.3353V84.3321Z" fill="url(#paint59_linear_3164_11215)"/>
<path d="M212.77 81.0075C207.939 81.0075 204.006 77.068 204.006 72.222V43.8508H202.584V72.222C202.584 77.8527 207.153 82.4328 212.77 82.4328C218.386 82.4328 222.955 77.8527 222.955 72.222V0H221.533V72.2252C221.533 77.068 217.604 81.0107 212.77 81.0107V81.0075Z" fill="url(#paint60_linear_3164_11215)"/>
<path d="M212.77 77.6861C209.767 77.6861 207.323 75.2359 207.323 72.2252V43.854H205.901V72.2252C205.901 76.0206 208.984 79.1114 212.77 79.1114C216.556 79.1114 219.639 76.0238 219.639 72.2252V0H218.217V72.2252C218.217 75.2359 215.773 77.6861 212.77 77.6861Z" fill="url(#paint61_linear_3164_11215)"/>
<path d="M156.971 78.205V103.847H158.393V49.3149C158.393 37.1375 168.275 27.2342 180.418 27.2342H218.214V25.8089H180.418C167.489 25.8089 156.971 36.3528 156.971 49.3149V78.205Z" fill="url(#paint62_linear_3164_11215)"/>
<path d="M161.706 49.3149C161.706 38.9728 170.099 30.5588 180.415 30.5588H218.211V29.1335H180.415C169.316 29.1335 160.284 38.1881 160.284 49.3149V103.847H161.706V49.3149Z" fill="url(#paint63_linear_3164_11215)"/>
<path d="M165.023 49.3149C165.023 40.8048 171.93 33.8802 180.419 33.8802H218.214V32.4549H180.419C171.147 32.4549 163.604 40.0169 163.604 49.3117V103.844H165.026V49.3117L165.023 49.3149Z" fill="url(#paint64_linear_3164_11215)"/>
<path d="M168.339 49.3149C168.339 42.6369 173.757 37.2048 180.419 37.2048H218.214V35.7795H180.419C172.975 35.7795 166.917 41.8522 166.917 49.3149V103.847H168.339V49.3149Z" fill="url(#paint65_linear_3164_11215)"/>
<path d="M171.655 49.3149C171.655 44.4722 175.585 40.5294 180.419 40.5294H218.214V39.1041H180.419C174.802 39.1041 170.233 43.6843 170.233 49.3149V103.847H171.655V49.3149Z" fill="url(#paint66_linear_3164_11215)"/>
<path d="M174.971 49.3149C174.971 46.3042 177.415 43.854 180.419 43.854H189.323V43.8476H190.744V43.854H192.639V43.8476H194.061V43.854H195.955V43.8476H197.377V43.854H199.272V43.8476H200.693V43.854H202.588V43.8476H204.01V43.854H205.904V43.8476H207.326V43.854H218.217V42.4287H180.422C176.636 42.4287 173.553 45.5163 173.553 49.3149V103.847H174.974V49.3149H174.971Z" fill="url(#paint67_linear_3164_11215)"/>
<path d="M190.745 43.8476H189.323V43.854H190.745V43.8476Z" fill="url(#paint68_linear_3164_11215)"/>
<path d="M190.745 43.8476H189.323V43.854H190.745V43.8476Z" fill="url(#paint69_linear_3164_11215)"/>
<path d="M194.058 43.8476H192.636V43.854H194.058V43.8476Z" fill="url(#paint70_linear_3164_11215)"/>
<path d="M194.058 43.8476H192.636V43.854H194.058V43.8476Z" fill="url(#paint71_linear_3164_11215)"/>
<path d="M197.374 43.8476H195.952V43.854H197.374V43.8476Z" fill="url(#paint72_linear_3164_11215)"/>
<path d="M197.374 43.8476H195.952V43.854H197.374V43.8476Z" fill="url(#paint73_linear_3164_11215)"/>
<path d="M200.69 43.8476H199.269V43.854H200.69V43.8476Z" fill="url(#paint74_linear_3164_11215)"/>
<path d="M200.69 43.8476H199.269V43.854H200.69V43.8476Z" fill="url(#paint75_linear_3164_11215)"/>
<path d="M204.006 43.8476H202.584V43.854H204.006V43.8476Z" fill="url(#paint76_linear_3164_11215)"/>
<path d="M204.006 43.8476H202.584V43.854H204.006V43.8476Z" fill="url(#paint77_linear_3164_11215)"/>
<path d="M207.323 43.8476H205.901V43.854H207.323V43.8476Z" fill="url(#paint78_linear_3164_11215)"/>
<path d="M207.323 43.8476H205.901V43.854H207.323V43.8476Z" fill="url(#paint79_linear_3164_11215)"/>
<path d="M99.3927 158.111H86.1308V155.286C86.1308 153.857 86.1308 153.085 86.0892 152.65H86.1308C86.1308 148.854 83.0477 145.764 79.2618 145.764H59.7538C55.9646 145.764 52.8848 148.851 52.8848 152.65C52.8848 156.448 55.9646 159.536 59.7538 159.536H102.945C106.731 159.536 109.814 156.448 109.814 152.65V121.892H108.393V152.65C108.393 155.661 105.949 158.111 102.945 158.111H99.3927ZM84.709 153.127V158.111H59.7538C56.7506 158.111 54.3065 155.661 54.3065 152.65C54.3065 149.639 56.7506 147.189 59.7538 147.189H79.2618C82.265 147.189 84.709 149.639 84.709 152.65V153.127Z" fill="url(#paint80_linear_3164_11215)"/>
<path d="M89.4025 152.65H89.444C89.444 147.019 84.8753 142.439 79.2587 142.439H59.7507C54.1341 142.439 49.5654 147.019 49.5654 152.65C49.5654 158.281 54.1341 162.861 59.7507 162.861H102.942C108.559 162.861 113.128 158.281 113.128 152.65V121.892H111.706V152.65C111.706 157.493 107.776 161.435 102.942 161.435H59.7507C54.9201 161.435 50.9872 157.496 50.9872 152.65C50.9872 147.804 54.9169 143.864 59.7507 143.864H79.2587C84.0894 143.864 88.0223 147.804 88.0223 152.65V158.111H89.444V155.286C89.444 153.857 89.444 153.085 89.4025 152.65Z" fill="url(#paint81_linear_3164_11215)"/>
<path d="M92.7187 152.65H92.7602C92.7602 145.187 86.7027 139.114 79.2586 139.114H59.7506C52.3065 139.114 46.249 145.187 46.249 152.65C46.249 160.113 52.3065 166.185 59.7506 166.185H102.942C110.386 166.185 116.444 160.113 116.444 152.65V121.892H115.022V152.65C115.022 159.328 109.604 164.76 102.942 164.76H59.7506C53.0893 164.76 47.6708 159.328 47.6708 152.65C47.6708 145.972 53.0893 140.54 59.7506 140.54H79.2586C85.9199 140.54 91.3385 145.972 91.3385 152.65V158.111H92.7602V155.331C92.7602 153.873 92.7602 153.089 92.7187 152.65Z" fill="url(#paint82_linear_3164_11215)"/>
<path d="M96.035 152.65H96.0798C96.0798 143.355 88.5366 135.793 79.2651 135.793H59.7571C50.4855 135.793 42.9424 143.355 42.9424 152.65C42.9424 161.945 50.4855 169.507 59.7571 169.507H102.949C112.22 169.507 119.763 161.945 119.763 152.65V121.892H118.342V152.65C118.342 161.16 111.434 168.085 102.946 168.085H59.7539C51.2651 168.085 44.3577 161.16 44.3577 152.65C44.3577 144.14 51.2651 137.215 59.7539 137.215H79.2619C87.7507 137.215 94.658 144.14 94.658 152.65V158.111H96.0702L96.0798 155.331C96.0798 153.873 96.0798 153.089 96.035 152.65Z" fill="url(#paint83_linear_3164_11215)"/>
<path d="M99.3512 152.65H99.3959C99.3959 141.52 90.364 132.468 79.265 132.468H59.757C48.6547 132.468 39.626 141.523 39.626 152.65C39.626 163.777 48.6579 172.831 59.757 172.831H102.949C114.048 172.831 123.08 163.777 123.08 152.65V121.892H121.658V152.65C121.658 162.992 113.265 171.406 102.949 171.406H59.757C49.4407 171.406 41.0477 162.992 41.0477 152.65C41.0477 142.308 49.4407 133.894 59.757 133.894H79.265C89.5813 133.894 97.9742 142.308 97.9742 152.65V158.111H99.3959V155.331C99.3959 153.873 99.3959 153.089 99.3512 152.65Z" fill="url(#paint84_linear_3164_11215)"/>
<path d="M88.0255 176.156H102.946C115.875 176.156 126.393 165.612 126.393 152.65V121.892H124.971V152.65C124.971 164.827 115.089 174.731 102.946 174.731H59.7539C47.607 174.731 37.7284 164.824 37.7284 152.65C37.7284 140.476 47.6102 130.569 59.7539 130.569H79.2619C91.4057 130.569 101.287 140.476 101.287 152.65V153.127C101.287 154.472 101.275 158.111 101.275 158.111H102.696L102.709 153.521C102.709 153.13 102.709 152.852 102.696 152.65H102.709C102.709 139.688 92.1916 129.144 79.2619 129.144H59.7539C46.8242 129.144 36.3066 139.688 36.3066 152.65C36.3066 165.612 46.8242 176.156 59.7539 176.156H88.0255Z" fill="url(#paint85_linear_3164_11215)"/>
<path d="M159.687 122.873H157.039C144.109 122.873 133.591 133.416 133.591 146.379C133.591 159.341 144.109 169.885 157.039 169.885H215.387C218.39 169.885 220.834 172.335 220.834 175.345C220.834 178.356 218.39 180.806 215.387 180.806H156.17C156.457 181.204 156.732 181.614 156.994 182.027C157.035 182.094 157.083 182.161 157.125 182.229H215.387C219.173 182.229 222.256 179.141 222.256 175.342C222.256 171.544 219.173 168.456 215.387 168.456H157.039C144.892 168.456 135.013 158.55 135.013 146.375C135.013 134.201 144.895 124.295 157.039 124.295H172.757C174.837 124.295 176.7 123.359 177.962 121.889H175.863C174.981 122.504 173.911 122.869 172.757 122.869H159.687V122.873Z" fill="url(#paint86_linear_3164_11215)"/>
<path d="M157.128 182.232C157.086 182.165 157.041 182.097 156.997 182.03C157.038 182.097 157.086 182.165 157.128 182.232Z" fill="url(#paint87_linear_3164_11215)"/>
<path d="M157.128 182.232C157.086 182.165 157.041 182.097 156.997 182.03C157.038 182.097 157.086 182.165 157.128 182.232Z" fill="url(#paint88_linear_3164_11215)"/>
<path d="M156.172 180.806C156.46 181.204 156.735 181.614 156.997 182.027C156.735 181.61 156.46 181.204 156.172 180.806Z" fill="url(#paint89_linear_3164_11215)"/>
<path d="M156.172 180.806C156.46 181.204 156.735 181.614 156.997 182.027C156.735 181.61 156.46 181.204 156.172 180.806Z" fill="url(#paint90_linear_3164_11215)"/>
<path d="M156.172 180.806C156.46 181.204 156.735 181.614 156.997 182.027C156.735 181.61 156.46 181.204 156.172 180.806Z" fill="url(#paint91_linear_3164_11215)"/>
<path d="M156.172 180.806C156.46 181.204 156.735 181.614 156.997 182.027C156.735 181.61 156.46 181.204 156.172 180.806Z" fill="url(#paint92_linear_3164_11215)"/>
<path d="M172.757 126.197H157.038C145.936 126.197 136.907 135.252 136.907 146.379C136.907 157.505 145.939 166.56 157.038 166.56H215.386C220.217 166.56 224.15 170.5 224.15 175.346C224.15 180.191 220.22 184.131 215.386 184.131H158.182C158.278 184.326 158.37 184.522 158.463 184.717C158.517 184.832 158.569 184.951 158.623 185.069C158.693 185.23 158.767 185.387 158.834 185.55C158.834 185.55 158.834 185.553 158.834 185.556H215.386C221.003 185.556 225.572 180.976 225.572 175.346C225.572 169.715 221.003 165.135 215.386 165.135H157.038C146.722 165.135 138.329 156.721 138.329 146.379C138.329 136.036 146.722 127.622 157.038 127.622H172.757C176.767 127.622 180.233 125.281 181.894 121.892H180.281C178.751 124.464 175.955 126.197 172.757 126.197Z" fill="url(#paint93_linear_3164_11215)"/>
<path d="M172.757 129.519H157.038C147.767 129.519 140.224 137.081 140.224 146.375C140.224 155.67 147.767 163.232 157.038 163.232H215.387C222.048 163.232 227.466 168.664 227.466 175.342C227.466 182.02 222.048 187.452 215.387 187.452H159.53C159.53 187.452 159.53 187.452 159.53 187.456C159.578 187.606 159.623 187.76 159.668 187.91C159.712 188.067 159.757 188.224 159.802 188.381C159.847 188.545 159.891 188.711 159.933 188.875H215.387C222.831 188.875 228.888 182.802 228.888 175.339C228.888 167.876 222.831 161.804 215.387 161.804H157.038C148.55 161.804 141.642 154.879 141.642 146.369C141.642 137.859 148.55 130.934 157.038 130.934H172.757C178.636 130.934 183.645 127.148 185.492 121.88H183.974C182.195 126.344 177.837 129.509 172.757 129.509V129.519Z" fill="url(#paint94_linear_3164_11215)"/>
<path d="M159.933 188.878C159.891 188.711 159.846 188.548 159.802 188.384C159.846 188.548 159.891 188.714 159.933 188.878Z" fill="url(#paint95_linear_3164_11215)"/>
<path d="M159.933 188.878C159.891 188.711 159.846 188.548 159.802 188.384C159.846 188.548 159.891 188.714 159.933 188.878Z" fill="url(#paint96_linear_3164_11215)"/>
<path d="M172.757 132.843H157.038C149.594 132.843 143.537 138.916 143.537 146.379C143.537 153.841 149.594 159.914 157.038 159.914H215.386C223.875 159.914 230.783 166.839 230.783 175.349C230.783 183.859 223.875 190.783 215.386 190.783H160.323C160.323 190.783 160.323 190.787 160.323 190.79C160.348 190.953 160.374 191.12 160.396 191.286C160.431 191.539 160.466 191.796 160.492 192.052C160.498 192.103 160.505 192.157 160.511 192.209H215.383C224.655 192.209 232.198 184.647 232.198 175.352C232.198 166.057 224.655 158.495 215.383 158.495H157.035C150.374 158.495 144.955 153.063 144.955 146.385C144.955 139.707 150.374 134.275 157.035 134.275H172.754C180.479 134.275 187 129.025 188.962 121.899H187.486C185.565 128.231 179.69 132.853 172.754 132.853L172.757 132.843Z" fill="url(#paint97_linear_3164_11215)"/>
<path d="M172.757 139.492H157.038C153.249 139.492 150.169 142.58 150.169 146.379C150.169 150.177 153.249 153.265 157.038 153.265H215.387C227.53 153.265 237.412 163.171 237.412 175.346C237.412 187.52 227.53 197.426 215.387 197.426H160.633V198.852H215.387C228.316 198.852 238.834 188.308 238.834 175.346C238.834 162.383 228.316 151.839 215.387 151.839H157.038C154.035 151.839 151.591 149.389 151.591 146.379C151.591 143.368 154.035 140.918 157.038 140.918H172.757C184.157 140.918 193.681 132.718 195.773 121.892H194.329C192.259 131.927 183.374 139.492 172.76 139.492H172.757Z" fill="url(#paint98_linear_3164_11215)"/>
<path d="M172.757 136.168H157.038C151.422 136.168 146.853 140.748 146.853 146.379C146.853 152.009 151.422 156.589 157.038 156.589H215.387C225.703 156.589 234.096 165.003 234.096 175.346C234.096 185.688 225.703 194.102 215.387 194.102H160.62C160.623 194.262 160.633 194.419 160.633 194.576V195.527H215.387C226.486 195.527 235.518 186.472 235.518 175.346C235.518 164.219 226.486 155.164 215.387 155.164H157.038C152.208 155.164 148.275 151.225 148.275 146.379C148.275 141.533 152.204 137.593 157.038 137.593H172.757C182.323 137.593 190.342 130.87 192.383 121.892H190.923C188.914 130.079 181.534 136.168 172.757 136.168Z" fill="url(#paint99_linear_3164_11215)"/>
<path d="M222.674 143.845C218.546 143.845 215.185 146.933 215.185 150.731V151.836H216.735V150.731C216.735 147.721 219.399 145.27 222.674 145.27H240.003V143.845H222.674Z" fill="url(#paint100_linear_3164_11215)"/>
<path d="M222.674 140.521C216.553 140.521 211.572 145.101 211.572 150.731V151.836H213.121V150.731C213.121 145.889 217.406 141.946 222.677 141.946H240.006V140.521H222.677H222.674Z" fill="url(#paint101_linear_3164_11215)"/>
<path d="M222.674 137.196C214.559 137.196 207.955 143.269 207.955 150.731V151.836H209.505V150.731C209.505 144.053 215.412 138.621 222.674 138.621H240.003V137.196H222.674Z" fill="url(#paint102_linear_3164_11215)"/>
<path d="M222.674 133.871C212.566 133.871 204.339 141.433 204.339 150.728V151.833H205.888V150.728C205.888 142.218 213.419 135.293 222.674 135.293H240.003V133.868H222.674V133.871Z" fill="url(#paint103_linear_3164_11215)"/>
<path d="M222.674 130.55C210.572 130.55 200.725 139.604 200.725 150.731V151.836H202.275V150.731C202.275 140.389 211.428 131.975 222.674 131.975H240.003V130.55H222.674Z" fill="url(#paint104_linear_3164_11215)"/>
<path d="M222.674 127.225C208.578 127.225 197.108 137.769 197.108 150.731V151.836H198.658V150.731C198.658 138.554 209.431 128.651 222.674 128.651H240.003V127.225H222.674Z" fill="url(#paint105_linear_3164_11215)"/>
<path d="M111.709 121.892H150.518V120.467H102.828C90.6839 120.467 80.8021 110.561 80.8021 98.3864C80.8021 86.2122 90.6839 76.3057 102.828 76.3057H131.074V74.8804H131.134H102.828C89.8979 74.8804 79.3804 85.4243 79.3804 98.3864C79.3804 111.348 89.8979 121.892 102.828 121.892H111.709Z" fill="url(#paint106_linear_3164_11215)"/>
<path d="M131.134 78.205H102.827C91.7282 78.205 82.6963 87.2596 82.6963 98.3864C82.6963 109.513 91.7282 118.568 102.827 118.568H150.517V117.143H102.827C92.511 117.143 84.118 108.729 84.118 98.3864C84.118 88.0443 92.511 79.6303 102.827 79.6303H131.073V78.205H131.134Z" fill="url(#paint107_linear_3164_11215)"/>
<path d="M131.134 81.5264H102.827C93.5558 81.5264 86.0127 89.0885 86.0127 98.3832C86.0127 107.678 93.5558 115.24 102.827 115.24H150.517V113.815H102.827C94.3386 113.815 87.4312 106.89 87.4312 98.38C87.4312 89.87 94.3386 82.9453 102.827 82.9453H131.073V81.52H131.134V81.5264Z" fill="url(#paint108_linear_3164_11215)"/>
<path d="M131.134 84.851H102.828C95.3834 84.851 89.3291 90.9237 89.3291 98.3864C89.3291 105.849 95.3866 111.922 102.828 111.922H150.518V110.497H102.828C96.1662 110.497 90.7476 105.064 90.7476 98.3864C90.7476 91.7084 96.1662 86.2763 102.828 86.2763H131.074V84.851H131.134Z" fill="url(#paint109_linear_3164_11215)"/>
<path d="M131.134 88.1756H102.827C97.2108 88.1756 92.6421 92.7557 92.6421 98.3864C92.6421 104.017 97.2108 108.597 102.827 108.597H150.517V107.172H102.827C97.9967 107.172 94.0638 103.232 94.0638 98.3864C94.0638 93.5404 97.9935 89.6009 102.827 89.6009H131.073V88.1756H131.134Z" fill="url(#paint110_linear_3164_11215)"/>
<path d="M97.3802 98.3864C97.3802 95.3757 99.8243 92.9255 102.828 92.9255H131.074V91.5002H131.134H102.828C99.0416 91.5002 95.9585 94.591 95.9585 98.3864C95.9585 102.182 99.0384 105.273 102.828 105.273H150.518V103.847H102.828C99.8243 103.847 97.3802 101.397 97.3802 98.3864Z" fill="url(#paint111_linear_3164_11215)"/>
<path d="M150.518 120.467V121.892H175.863H177.962H180.281H181.895H183.974H185.492H187.489H188.965H190.923H192.383H194.326H195.773H240V120.467H150.518Z" fill="url(#paint112_linear_3164_11215)"/>
<path d="M240.003 117.143H150.518V118.568H240.003V117.143Z" fill="url(#paint113_linear_3164_11215)"/>
<path d="M240.003 113.818H150.518V115.243H240.003V113.818Z" fill="url(#paint114_linear_3164_11215)"/>
<path d="M240.003 110.493H150.518V111.919H240.003V110.493Z" fill="url(#paint115_linear_3164_11215)"/>
<path d="M240.003 107.169H150.518V108.594H240.003V107.169Z" fill="url(#paint116_linear_3164_11215)"/>
<path d="M173.55 103.847H171.655H170.233H168.339H166.917H165.022H163.604H161.706H160.288H158.393H156.971H150.518V105.269H240V103.847H174.971H173.55Z" fill="url(#paint117_linear_3164_11215)"/>
<path d="M131.134 92.9255H131.073H156.971V91.5002H131.134V92.9255Z" fill="url(#paint118_linear_3164_11215)"/>
<path d="M131.134 91.5002H131.073V92.9255H131.134V91.5002Z" fill="url(#paint119_linear_3164_11215)"/>
<path d="M131.134 91.5002H131.073V92.9255H131.134V91.5002Z" fill="url(#paint120_linear_3164_11215)"/>
<path d="M131.134 89.6009H131.073H156.971V88.1756H131.134V89.6009Z" fill="url(#paint121_linear_3164_11215)"/>
<path d="M131.134 88.1756H131.073V89.6009H131.134V88.1756Z" fill="url(#paint122_linear_3164_11215)"/>
<path d="M131.134 88.1756H131.073V89.6009H131.134V88.1756Z" fill="url(#paint123_linear_3164_11215)"/>
<path d="M131.134 86.2763H131.073H156.971V84.851H131.134V86.2763Z" fill="url(#paint124_linear_3164_11215)"/>
<path d="M131.134 84.851H131.073V86.2763H131.134V84.851Z" fill="url(#paint125_linear_3164_11215)"/>
<path d="M131.134 84.851H131.073V86.2763H131.134V84.851Z" fill="url(#paint126_linear_3164_11215)"/>
<path d="M131.134 82.9517H131.073H156.971V81.5264H131.134V82.9517Z" fill="url(#paint127_linear_3164_11215)"/>
<path d="M131.134 81.5264H131.073V82.9517H131.134V81.5264Z" fill="url(#paint128_linear_3164_11215)"/>
<path d="M131.134 81.5264H131.073V82.9517H131.134V81.5264Z" fill="url(#paint129_linear_3164_11215)"/>
<path d="M131.134 79.6271H131.073H156.971V78.205H131.134V79.6271Z" fill="url(#paint130_linear_3164_11215)"/>
<path d="M131.134 78.205H131.073V79.6303H131.134V78.205Z" fill="url(#paint131_linear_3164_11215)"/>
<path d="M131.134 78.205H131.073V79.6303H131.134V78.205Z" fill="url(#paint132_linear_3164_11215)"/>
<path d="M131.073 76.3025V76.3057H156.971V74.8804H131.134V76.3025H131.073Z" fill="url(#paint133_linear_3164_11215)"/>
<path d="M131.134 74.8804H131.073V76.3057H131.134V74.8804Z" fill="url(#paint134_linear_3164_11215)"/>
<path d="M131.134 74.8804H131.073V76.3057H131.134V74.8804Z" fill="url(#paint135_linear_3164_11215)"/>
</g>
<defs>
<linearGradient id="paint0_linear_3164_11215" x1="189.53" y1="207.967" x2="252.476" y2="207.967" gradientUnits="userSpaceOnUse">
<stop stop-color="#D6D5FF"/>
<stop offset="0.9999" stop-color="#B9ADFE"/>
<stop offset="1" stop-color="#8566FB"/>
</linearGradient>
<linearGradient id="paint1_linear_3164_11215" x1="-0.000143535" y1="211.605" x2="249.16" y2="211.605" gradientUnits="userSpaceOnUse">
<stop stop-color="#8566FB"/>
<stop offset="1" stop-color="#D6D5FF"/>
</linearGradient>
<linearGradient id="paint2_linear_3164_11215" x1="-0.000130815" y1="215.452" x2="245.843" y2="215.452" gradientUnits="userSpaceOnUse">
<stop stop-color="#8566FB"/>
<stop offset="1" stop-color="#D6D5FF"/>
</linearGradient>
<linearGradient id="paint3_linear_3164_11215" x1="-0.000142864" y1="219.994" x2="242.527" y2="219.994" gradientUnits="userSpaceOnUse">
<stop stop-color="#8566FB"/>
<stop offset="1" stop-color="#D6D5FF"/>
</linearGradient>
<linearGradient id="paint4_linear_3164_11215" x1="-0.000119458" y1="239.208" x2="239.214" y2="239.208" gradientUnits="userSpaceOnUse">
<stop stop-color="#8566FB"/>
<stop offset="1" stop-color="#D6D5FF"/>
</linearGradient>
<linearGradient id="paint5_linear_3164_11215" x1="-9.43574e-05" y1="240.87" x2="235.898" y2="240.87" gradientUnits="userSpaceOnUse">
<stop stop-color="#8566FB"/>
<stop offset="1" stop-color="#D6D5FF"/>
</linearGradient>
<linearGradient id="paint6_linear_3164_11215" x1="84.7095" y1="204.927" x2="142.636" y2="204.927" gradientUnits="userSpaceOnUse">
<stop stop-color="#8566FB"/>
<stop offset="1" stop-color="#D6D5FF"/>
</linearGradient>
<linearGradient id="paint7_linear_3164_11215" x1="88.0254" y1="203.265" x2="142.636" y2="203.265" gradientUnits="userSpaceOnUse">
<stop stop-color="#8566FB"/>
<stop offset="1" stop-color="#D6D5FF"/>
</linearGradient>
<linearGradient id="paint8_linear_3164_11215" x1="91.3418" y1="201.603" x2="142.636" y2="201.603" gradientUnits="userSpaceOnUse">
<stop stop-color="#8566FB"/>
<stop offset="1" stop-color="#D6D5FF"/>
</linearGradient>
<linearGradient id="paint9_linear_3164_11215" x1="94.658" y1="199.941" x2="142.636" y2="199.941" gradientUnits="userSpaceOnUse">
<stop stop-color="#8566FB"/>
<stop offset="1" stop-color="#D6D5FF"/>
</linearGradient>
<linearGradient id="paint10_linear_3164_11215" x1="97.9712" y1="198.278" x2="142.636" y2="198.278" gradientUnits="userSpaceOnUse">
<stop stop-color="#8566FB"/>
<stop offset="1" stop-color="#D6D5FF"/>
</linearGradient>
<linearGradient id="paint11_linear_3164_11215" x1="101.288" y1="196.616" x2="142.636" y2="196.616" gradientUnits="userSpaceOnUse">
<stop stop-color="#8566FB"/>
<stop offset="1" stop-color="#D6D5FF"/>
</linearGradient>
<linearGradient id="paint12_linear_3164_11215" x1="130.319" y1="231.899" x2="189.53" y2="231.899" gradientUnits="userSpaceOnUse">
<stop stop-color="#8566FB"/>
<stop offset="1" stop-color="#D6D5FF"/>
</linearGradient>
<linearGradient id="paint13_linear_3164_11215" x1="127.003" y1="228.574" x2="186.214" y2="228.574" gradientUnits="userSpaceOnUse">
<stop stop-color="#8566FB"/>
<stop offset="1" stop-color="#D6D5FF"/>
</linearGradient>
<linearGradient id="paint14_linear_3164_11215" x1="123.687" y1="225.25" x2="182.898" y2="225.25" gradientUnits="userSpaceOnUse">
<stop stop-color="#8566FB"/>
<stop offset="1" stop-color="#D6D5FF"/>
</linearGradient>
<linearGradient id="paint15_linear_3164_11215" x1="120.371" y1="221.925" x2="179.582" y2="221.925" gradientUnits="userSpaceOnUse">
<stop stop-color="#8566FB"/>
<stop offset="1" stop-color="#D6D5FF"/>
</linearGradient>
<linearGradient id="paint16_linear_3164_11215" x1="117.054" y1="218.601" x2="176.265" y2="218.601" gradientUnits="userSpaceOnUse">
<stop stop-color="#8566FB"/>
<stop offset="1" stop-color="#D6D5FF"/>
</linearGradient>
<linearGradient id="paint17_linear_3164_11215" x1="113.738" y1="215.276" x2="172.949" y2="215.276" gradientUnits="userSpaceOnUse">
<stop stop-color="#8566FB"/>
<stop offset="1" stop-color="#D6D5FF"/>
</linearGradient>
<linearGradient id="paint18_linear_3164_11215" x1="32.3516" y1="224.02" x2="79.2461" y2="224.02" gradientUnits="userSpaceOnUse">
<stop stop-color="#8566FB"/>
<stop offset="1" stop-color="#D6D5FF"/>
</linearGradient>
<linearGradient id="paint19_linear_3164_11215" x1="35.668" y1="222.358" x2="75.93" y2="222.358" gradientUnits="userSpaceOnUse">
<stop stop-color="#8566FB"/>
<stop offset="1" stop-color="#D6D5FF"/>
</linearGradient>
<linearGradient id="paint20_linear_3164_11215" x1="38.9807" y1="220.695" x2="72.6133" y2="220.695" gradientUnits="userSpaceOnUse">
<stop stop-color="#8566FB"/>
<stop offset="1" stop-color="#D6D5FF"/>
</linearGradient>
<linearGradient id="paint21_linear_3164_11215" x1="42.2974" y1="219.033" x2="69.2974" y2="219.033" gradientUnits="userSpaceOnUse">
<stop stop-color="#8566FB"/>
<stop offset="1" stop-color="#D6D5FF"/>
</linearGradient>
<linearGradient id="paint22_linear_3164_11215" x1="45.6133" y1="217.371" x2="65.9807" y2="217.371" gradientUnits="userSpaceOnUse">
<stop stop-color="#8566FB"/>
<stop offset="1" stop-color="#D6D5FF"/>
</linearGradient>
<linearGradient id="paint23_linear_3164_11215" x1="48.9297" y1="215.708" x2="62.6677" y2="215.708" gradientUnits="userSpaceOnUse">
<stop stop-color="#8566FB"/>
<stop offset="1" stop-color="#D6D5FF"/>
</linearGradient>
<linearGradient id="paint24_linear_3164_11215" x1="0" y1="240.982" x2="61.2428" y2="240.982" gradientUnits="userSpaceOnUse">
<stop stop-color="#8566FB"/>
<stop offset="1" stop-color="#D6D5FF"/>
</linearGradient>
<linearGradient id="paint25_linear_3164_11215" x1="3.31641" y1="242.645" x2="61.2429" y2="242.645" gradientUnits="userSpaceOnUse">
<stop stop-color="#8566FB"/>
<stop offset="1" stop-color="#D6D5FF"/>
</linearGradient>
<linearGradient id="paint26_linear_3164_11215" x1="6.63281" y1="244.307" x2="61.243" y2="244.307" gradientUnits="userSpaceOnUse">
<stop stop-color="#8566FB"/>
<stop offset="1" stop-color="#D6D5FF"/>
</linearGradient>
<linearGradient id="paint27_linear_3164_11215" x1="9.949" y1="245.966" x2="61.2429" y2="245.966" gradientUnits="userSpaceOnUse">
<stop stop-color="#8566FB"/>
<stop offset="1" stop-color="#D6D5FF"/>
</linearGradient>
<linearGradient id="paint28_linear_3164_11215" x1="13.2622" y1="247.628" x2="61.243" y2="247.628" gradientUnits="userSpaceOnUse">
<stop stop-color="#8566FB"/>
<stop offset="1" stop-color="#D6D5FF"/>
</linearGradient>
<linearGradient id="paint29_linear_3164_11215" x1="16.5783" y1="249.291" x2="61.2429" y2="249.291" gradientUnits="userSpaceOnUse">
<stop stop-color="#8566FB"/>
<stop offset="1" stop-color="#D6D5FF"/>
</linearGradient>
<linearGradient id="paint30_linear_3164_11215" x1="32.3516" y1="220.003" x2="79.25" y2="220.003" gradientUnits="userSpaceOnUse">
<stop stop-color="#8566FB"/>
<stop offset="1" stop-color="#D6D5FF"/>
</linearGradient>
<linearGradient id="paint31_linear_3164_11215" x1="16.576" y1="220.003" x2="61.2473" y2="220.003" gradientUnits="userSpaceOnUse">
<stop stop-color="#8566FB"/>
<stop offset="1" stop-color="#D6D5FF"/>
</linearGradient>
<linearGradient id="paint32_linear_3164_11215" x1="35.668" y1="220.003" x2="75.936" y2="220.003" gradientUnits="userSpaceOnUse">
<stop stop-color="#8566FB"/>
<stop offset="1" stop-color="#D6D5FF"/>
</linearGradient>
<linearGradient id="paint33_linear_3164_11215" x1="16.5756" y1="220.003" x2="61.2469" y2="220.003" gradientUnits="userSpaceOnUse">
<stop stop-color="#8566FB"/>
<stop offset="1" stop-color="#D6D5FF"/>
</linearGradient>
<linearGradient id="paint34_linear_3164_11215" x1="38.981" y1="220.003" x2="72.6186" y2="220.003" gradientUnits="userSpaceOnUse">
<stop stop-color="#8566FB"/>
<stop offset="1" stop-color="#D6D5FF"/>
</linearGradient>
<linearGradient id="paint35_linear_3164_11215" x1="16.575" y1="220.003" x2="61.2463" y2="220.003" gradientUnits="userSpaceOnUse">
<stop stop-color="#8566FB"/>
<stop offset="1" stop-color="#D6D5FF"/>
</linearGradient>
<linearGradient id="paint36_linear_3164_11215" x1="42.2974" y1="220.003" x2="69.3014" y2="220.003" gradientUnits="userSpaceOnUse">
<stop stop-color="#8566FB"/>
<stop offset="1" stop-color="#D6D5FF"/>
</linearGradient>
<linearGradient id="paint37_linear_3164_11215" x1="16.5746" y1="220.003" x2="61.2459" y2="220.003" gradientUnits="userSpaceOnUse">
<stop stop-color="#8566FB"/>
<stop offset="1" stop-color="#D6D5FF"/>
</linearGradient>
<linearGradient id="paint38_linear_3164_11215" x1="45.6133" y1="220.003" x2="65.9838" y2="220.003" gradientUnits="userSpaceOnUse">
<stop stop-color="#8566FB"/>
<stop offset="1" stop-color="#D6D5FF"/>
</linearGradient>
<linearGradient id="paint39_linear_3164_11215" x1="16.5738" y1="220.003" x2="61.245" y2="220.003" gradientUnits="userSpaceOnUse">
<stop stop-color="#8566FB"/>
<stop offset="1" stop-color="#D6D5FF"/>
</linearGradient>
<linearGradient id="paint40_linear_3164_11215" x1="48.9297" y1="220.003" x2="62.6699" y2="220.003" gradientUnits="userSpaceOnUse">
<stop stop-color="#8566FB"/>
<stop offset="1" stop-color="#D6D5FF"/>
</linearGradient>
<linearGradient id="paint41_linear_3164_11215" x1="16.5732" y1="220.003" x2="61.2447" y2="220.003" gradientUnits="userSpaceOnUse">
<stop stop-color="#8566FB"/>
<stop offset="1" stop-color="#D6D5FF"/>
</linearGradient>
<linearGradient id="paint42_linear_3164_11215" x1="104.837" y1="267.099" x2="118.575" y2="267.099" gradientUnits="userSpaceOnUse">
<stop stop-color="#8566FB"/>
<stop offset="1" stop-color="#D6D5FF"/>
</linearGradient>
<linearGradient id="paint43_linear_3164_11215" x1="101.521" y1="265.436" x2="121.888" y2="265.436" gradientUnits="userSpaceOnUse">
<stop stop-color="#8566FB"/>
<stop offset="1" stop-color="#D6D5FF"/>
</linearGradient>
<linearGradient id="paint44_linear_3164_11215" x1="98.2046" y1="263.774" x2="125.205" y2="263.774" gradientUnits="userSpaceOnUse">
<stop stop-color="#8566FB"/>
<stop offset="1" stop-color="#D6D5FF"/>
</linearGradient>
<linearGradient id="paint45_linear_3164_11215" x1="94.8879" y1="262.112" x2="128.521" y2="262.112" gradientUnits="userSpaceOnUse">
<stop stop-color="#8566FB"/>
<stop offset="1" stop-color="#D6D5FF"/>
</linearGradient>
<linearGradient id="paint46_linear_3164_11215" x1="91.572" y1="260.45" x2="131.837" y2="260.45" gradientUnits="userSpaceOnUse">
<stop stop-color="#8566FB"/>
<stop offset="1" stop-color="#D6D5FF"/>
</linearGradient>
<linearGradient id="paint47_linear_3164_11215" x1="88.2588" y1="258.79" x2="135.153" y2="258.79" gradientUnits="userSpaceOnUse">
<stop stop-color="#8566FB"/>
<stop offset="1" stop-color="#D6D5FF"/>
</linearGradient>
<linearGradient id="paint48_linear_3164_11215" x1="214.399" y1="253.884" x2="270.789" y2="253.884" gradientUnits="userSpaceOnUse">
<stop stop-color="#8566FB"/>
<stop offset="1" stop-color="#D6D5FF"/>
</linearGradient>
<linearGradient id="paint49_linear_3164_11215" x1="201.134" y1="253.884" x2="270.789" y2="253.884" gradientUnits="userSpaceOnUse">
<stop stop-color="#8566FB"/>
<stop offset="1" stop-color="#D6D5FF"/>
</linearGradient>
<linearGradient id="paint50_linear_3164_11215" x1="189.505" y1="234.413" x2="235.899" y2="234.413" gradientUnits="userSpaceOnUse">
<stop stop-color="#8566FB"/>
<stop offset="1" stop-color="#D6D5FF"/>
</linearGradient>
<linearGradient id="paint51_linear_3164_11215" x1="201.115" y1="234.413" x2="270.81" y2="234.413" gradientUnits="userSpaceOnUse">
<stop stop-color="#8566FB"/>
<stop offset="1" stop-color="#D6D5FF"/>
</linearGradient>
<linearGradient id="paint52_linear_3164_11215" x1="197.818" y1="253.884" x2="268.054" y2="253.884" gradientUnits="userSpaceOnUse">
<stop stop-color="#8566FB"/>
<stop offset="1" stop-color="#D6D5FF"/>
</linearGradient>
<linearGradient id="paint53_linear_3164_11215" x1="211.083" y1="253.884" x2="270.789" y2="253.884" gradientUnits="userSpaceOnUse">
<stop stop-color="#8566FB"/>
<stop offset="1" stop-color="#D6D5FF"/>
</linearGradient>
<linearGradient id="paint54_linear_3164_11215" x1="207.767" y1="253.884" x2="270.789" y2="253.884" gradientUnits="userSpaceOnUse">
<stop stop-color="#8566FB"/>
<stop offset="1" stop-color="#D6D5FF"/>
</linearGradient>
<linearGradient id="paint55_linear_3164_11215" x1="204.45" y1="253.884" x2="270.789" y2="253.884" gradientUnits="userSpaceOnUse">
<stop stop-color="#8566FB"/>
<stop offset="1" stop-color="#D6D5FF"/>
</linearGradient>
<linearGradient id="paint56_linear_3164_11215" x1="189.323" y1="47.864" x2="236.217" y2="47.864" gradientUnits="userSpaceOnUse">
<stop stop-color="#8566FB"/>
<stop offset="1" stop-color="#D6D5FF"/>
</linearGradient>
<linearGradient id="paint57_linear_3164_11215" x1="192.636" y1="46.2017" x2="232.901" y2="46.2017" gradientUnits="userSpaceOnUse">
<stop stop-color="#8566FB"/>
<stop offset="1" stop-color="#D6D5FF"/>
</linearGradient>
<linearGradient id="paint58_linear_3164_11215" x1="195.952" y1="44.5394" x2="229.585" y2="44.5394" gradientUnits="userSpaceOnUse">
<stop stop-color="#8566FB"/>
<stop offset="1" stop-color="#D6D5FF"/>
</linearGradient>
<linearGradient id="paint59_linear_3164_11215" x1="199.269" y1="42.8803" x2="226.269" y2="42.8803" gradientUnits="userSpaceOnUse">
<stop stop-color="#8566FB"/>
<stop offset="1" stop-color="#D6D5FF"/>
</linearGradient>
<linearGradient id="paint60_linear_3164_11215" x1="202.584" y1="41.218" x2="222.952" y2="41.218" gradientUnits="userSpaceOnUse">
<stop stop-color="#8566FB"/>
<stop offset="1" stop-color="#D6D5FF"/>
</linearGradient>
<linearGradient id="paint61_linear_3164_11215" x1="205.901" y1="39.5557" x2="219.636" y2="39.5557" gradientUnits="userSpaceOnUse">
<stop stop-color="#8566FB"/>
<stop offset="1" stop-color="#D6D5FF"/>
</linearGradient>
<linearGradient id="paint62_linear_3164_11215" x1="156.971" y1="64.8265" x2="218.211" y2="64.8265" gradientUnits="userSpaceOnUse">
<stop stop-color="#8566FB"/>
<stop offset="1" stop-color="#D6D5FF"/>
</linearGradient>
<linearGradient id="paint63_linear_3164_11215" x1="160.287" y1="66.4888" x2="218.211" y2="66.4888" gradientUnits="userSpaceOnUse">
<stop stop-color="#8566FB"/>
<stop offset="1" stop-color="#D6D5FF"/>
</linearGradient>
<linearGradient id="paint64_linear_3164_11215" x1="163.604" y1="68.1511" x2="218.211" y2="68.1511" gradientUnits="userSpaceOnUse">
<stop stop-color="#8566FB"/>
<stop offset="1" stop-color="#D6D5FF"/>
</linearGradient>
<linearGradient id="paint65_linear_3164_11215" x1="166.917" y1="69.8134" x2="218.211" y2="69.8134" gradientUnits="userSpaceOnUse">
<stop stop-color="#8566FB"/>
<stop offset="1" stop-color="#D6D5FF"/>
</linearGradient>
<linearGradient id="paint66_linear_3164_11215" x1="170.233" y1="71.4758" x2="218.211" y2="71.4758" gradientUnits="userSpaceOnUse">
<stop stop-color="#8566FB"/>
<stop offset="1" stop-color="#D6D5FF"/>
</linearGradient>
<linearGradient id="paint67_linear_3164_11215" x1="173.55" y1="73.138" x2="218.211" y2="73.138" gradientUnits="userSpaceOnUse">
<stop stop-color="#8566FB"/>
<stop offset="1" stop-color="#D6D5FF"/>
</linearGradient>
<linearGradient id="paint68_linear_3164_11215" x1="189.323" y1="43.8508" x2="236.221" y2="43.8508" gradientUnits="userSpaceOnUse">
<stop stop-color="#8566FB"/>
<stop offset="1" stop-color="#D6D5FF"/>
</linearGradient>
<linearGradient id="paint69_linear_3164_11215" x1="173.547" y1="43.8508" x2="218.215" y2="43.8508" gradientUnits="userSpaceOnUse">
<stop stop-color="#8566FB"/>
<stop offset="1" stop-color="#D6D5FF"/>
</linearGradient>
<linearGradient id="paint70_linear_3164_11215" x1="192.636" y1="43.8508" x2="232.907" y2="43.8508" gradientUnits="userSpaceOnUse">
<stop stop-color="#8566FB"/>
<stop offset="1" stop-color="#D6D5FF"/>
</linearGradient>
<linearGradient id="paint71_linear_3164_11215" x1="173.546" y1="43.8508" x2="218.215" y2="43.8508" gradientUnits="userSpaceOnUse">
<stop stop-color="#8566FB"/>
<stop offset="1" stop-color="#D6D5FF"/>
</linearGradient>
<linearGradient id="paint72_linear_3164_11215" x1="195.952" y1="43.8508" x2="229.59" y2="43.8508" gradientUnits="userSpaceOnUse">
<stop stop-color="#8566FB"/>
<stop offset="1" stop-color="#D6D5FF"/>
</linearGradient>
<linearGradient id="paint73_linear_3164_11215" x1="173.546" y1="43.8508" x2="218.214" y2="43.8508" gradientUnits="userSpaceOnUse">
<stop stop-color="#8566FB"/>
<stop offset="1" stop-color="#D6D5FF"/>
</linearGradient>
<linearGradient id="paint74_linear_3164_11215" x1="199.269" y1="43.8508" x2="226.273" y2="43.8508" gradientUnits="userSpaceOnUse">
<stop stop-color="#8566FB"/>
<stop offset="1" stop-color="#D6D5FF"/>
</linearGradient>
<linearGradient id="paint75_linear_3164_11215" x1="173.546" y1="43.8508" x2="218.214" y2="43.8508" gradientUnits="userSpaceOnUse">
<stop stop-color="#8566FB"/>
<stop offset="1" stop-color="#D6D5FF"/>
</linearGradient>
<linearGradient id="paint76_linear_3164_11215" x1="202.584" y1="43.8508" x2="222.955" y2="43.8508" gradientUnits="userSpaceOnUse">
<stop stop-color="#8566FB"/>
<stop offset="1" stop-color="#D6D5FF"/>
</linearGradient>
<linearGradient id="paint77_linear_3164_11215" x1="173.545" y1="43.8508" x2="218.213" y2="43.8508" gradientUnits="userSpaceOnUse">
<stop stop-color="#8566FB"/>
<stop offset="1" stop-color="#D6D5FF"/>
</linearGradient>
<linearGradient id="paint78_linear_3164_11215" x1="205.901" y1="43.8508" x2="219.638" y2="43.8508" gradientUnits="userSpaceOnUse">
<stop stop-color="#8566FB"/>
<stop offset="1" stop-color="#D6D5FF"/>
</linearGradient>
<linearGradient id="paint79_linear_3164_11215" x1="173.544" y1="43.8508" x2="218.213" y2="43.8508" gradientUnits="userSpaceOnUse">
<stop stop-color="#8566FB"/>
<stop offset="1" stop-color="#D6D5FF"/>
</linearGradient>
<linearGradient id="paint80_linear_3164_11215" x1="52.8848" y1="140.713" x2="109.814" y2="140.713" gradientUnits="userSpaceOnUse">
<stop stop-color="#8566FB"/>
<stop offset="1" stop-color="#D6D5FF"/>
</linearGradient>
<linearGradient id="paint81_linear_3164_11215" x1="49.5718" y1="142.375" x2="113.131" y2="142.375" gradientUnits="userSpaceOnUse">
<stop stop-color="#8566FB"/>
<stop offset="1" stop-color="#D6D5FF"/>
</linearGradient>
<linearGradient id="paint82_linear_3164_11215" x1="46.2554" y1="144.037" x2="116.447" y2="144.037" gradientUnits="userSpaceOnUse">
<stop stop-color="#8566FB"/>
<stop offset="1" stop-color="#D6D5FF"/>
</linearGradient>
<linearGradient id="paint83_linear_3164_11215" x1="42.9392" y1="145.7" x2="119.763" y2="145.7" gradientUnits="userSpaceOnUse">
<stop stop-color="#8566FB"/>
<stop offset="1" stop-color="#D6D5FF"/>
</linearGradient>
<linearGradient id="paint84_linear_3164_11215" x1="39.6228" y1="147.362" x2="123.076" y2="147.362" gradientUnits="userSpaceOnUse">
<stop stop-color="#8566FB"/>
<stop offset="1" stop-color="#D6D5FF"/>
</linearGradient>
<linearGradient id="paint85_linear_3164_11215" x1="36.3066" y1="149.024" x2="126.393" y2="149.024" gradientUnits="userSpaceOnUse">
<stop stop-color="#8566FB"/>
<stop offset="1" stop-color="#D6D5FF"/>
</linearGradient>
<linearGradient id="paint86_linear_3164_11215" x1="133.591" y1="152.06" x2="222.259" y2="152.06" gradientUnits="userSpaceOnUse">
<stop stop-color="#8566FB"/>
<stop offset="1" stop-color="#D6D5FF"/>
</linearGradient>
<linearGradient id="paint87_linear_3164_11215" x1="113.69" y1="182.129" x2="172.966" y2="182.129" gradientUnits="userSpaceOnUse">
<stop stop-color="#8566FB"/>
<stop offset="1" stop-color="#D6D5FF"/>
</linearGradient>
<linearGradient id="paint88_linear_3164_11215" x1="133.565" y1="182.129" x2="222.33" y2="182.129" gradientUnits="userSpaceOnUse">
<stop stop-color="#8566FB"/>
<stop offset="1" stop-color="#D6D5FF"/>
</linearGradient>
<linearGradient id="paint89_linear_3164_11215" x1="113.732" y1="181.418" x2="172.951" y2="181.418" gradientUnits="userSpaceOnUse">
<stop stop-color="#8566FB"/>
<stop offset="1" stop-color="#D6D5FF"/>
</linearGradient>
<linearGradient id="paint90_linear_3164_11215" x1="133.588" y1="181.418" x2="222.268" y2="181.418" gradientUnits="userSpaceOnUse">
<stop stop-color="#8566FB"/>
<stop offset="1" stop-color="#D6D5FF"/>
</linearGradient>
<linearGradient id="paint91_linear_3164_11215" x1="113.732" y1="181.418" x2="172.951" y2="181.418" gradientUnits="userSpaceOnUse">
<stop stop-color="#8566FB"/>
<stop offset="1" stop-color="#D6D5FF"/>
</linearGradient>
<linearGradient id="paint92_linear_3164_11215" x1="133.588" y1="181.418" x2="222.268" y2="181.418" gradientUnits="userSpaceOnUse">
<stop stop-color="#8566FB"/>
<stop offset="1" stop-color="#D6D5FF"/>
</linearGradient>
<linearGradient id="paint93_linear_3164_11215" x1="136.907" y1="153.723" x2="225.572" y2="153.723" gradientUnits="userSpaceOnUse">
<stop stop-color="#8566FB"/>
<stop offset="1" stop-color="#D6D5FF"/>
</linearGradient>
<linearGradient id="paint94_linear_3164_11215" x1="140.224" y1="155.385" x2="228.888" y2="155.385" gradientUnits="userSpaceOnUse">
<stop stop-color="#8566FB"/>
<stop offset="1" stop-color="#D6D5FF"/>
</linearGradient>
<linearGradient id="paint95_linear_3164_11215" x1="113.73" y1="188.631" x2="172.951" y2="188.631" gradientUnits="userSpaceOnUse">
<stop stop-color="#8566FB"/>
<stop offset="1" stop-color="#D6D5FF"/>
</linearGradient>
<linearGradient id="paint96_linear_3164_11215" x1="140.22" y1="188.631" x2="228.899" y2="188.631" gradientUnits="userSpaceOnUse">
<stop stop-color="#8566FB"/>
<stop offset="1" stop-color="#D6D5FF"/>
</linearGradient>
<linearGradient id="paint97_linear_3164_11215" x1="143.54" y1="157.047" x2="232.204" y2="157.047" gradientUnits="userSpaceOnUse">
<stop stop-color="#8566FB"/>
<stop offset="1" stop-color="#D6D5FF"/>
</linearGradient>
<linearGradient id="paint98_linear_3164_11215" x1="150.169" y1="160.372" x2="238.837" y2="160.372" gradientUnits="userSpaceOnUse">
<stop stop-color="#8566FB"/>
<stop offset="1" stop-color="#D6D5FF"/>
</linearGradient>
<linearGradient id="paint99_linear_3164_11215" x1="146.856" y1="158.71" x2="235.521" y2="158.71" gradientUnits="userSpaceOnUse">
<stop stop-color="#8566FB"/>
<stop offset="1" stop-color="#D6D5FF"/>
</linearGradient>
<linearGradient id="paint100_linear_3164_11215" x1="215.185" y1="147.839" x2="277.441" y2="147.839" gradientUnits="userSpaceOnUse">
<stop stop-color="#8566FB"/>
<stop offset="1" stop-color="#D6D5FF"/>
</linearGradient>
<linearGradient id="paint101_linear_3164_11215" x1="211.569" y1="146.177" x2="277.441" y2="146.177" gradientUnits="userSpaceOnUse">
<stop stop-color="#8566FB"/>
<stop offset="1" stop-color="#D6D5FF"/>
</linearGradient>
<linearGradient id="paint102_linear_3164_11215" x1="207.955" y1="144.514" x2="277.441" y2="144.514" gradientUnits="userSpaceOnUse">
<stop stop-color="#8566FB"/>
<stop offset="1" stop-color="#D6D5FF"/>
</linearGradient>
<linearGradient id="paint103_linear_3164_11215" x1="204.339" y1="142.852" x2="277.441" y2="142.852" gradientUnits="userSpaceOnUse">
<stop stop-color="#8566FB"/>
<stop offset="1" stop-color="#D6D5FF"/>
</linearGradient>
<linearGradient id="paint104_linear_3164_11215" x1="200.725" y1="141.19" x2="277.441" y2="141.19" gradientUnits="userSpaceOnUse">
<stop stop-color="#8566FB"/>
<stop offset="1" stop-color="#D6D5FF"/>
</linearGradient>
<linearGradient id="paint105_linear_3164_11215" x1="197.108" y1="139.531" x2="276.728" y2="139.531" gradientUnits="userSpaceOnUse">
<stop stop-color="#8566FB"/>
<stop offset="1" stop-color="#D6D5FF"/>
</linearGradient>
<linearGradient id="paint106_linear_3164_11215" x1="114.949" y1="74.8772" x2="114.949" y2="121.889" gradientUnits="userSpaceOnUse">
<stop stop-color="#8566FB"/>
<stop offset="1" stop-color="#D6D5FF"/>
</linearGradient>
<linearGradient id="paint107_linear_3164_11215" x1="116.607" y1="78.2018" x2="116.607" y2="118.568" gradientUnits="userSpaceOnUse">
<stop stop-color="#8566FB"/>
<stop offset="1" stop-color="#D6D5FF"/>
</linearGradient>
<linearGradient id="paint108_linear_3164_11215" x1="118.265" y1="81.5264" x2="118.265" y2="115.243" gradientUnits="userSpaceOnUse">
<stop stop-color="#8566FB"/>
<stop offset="1" stop-color="#D6D5FF"/>
</linearGradient>
<linearGradient id="paint109_linear_3164_11215" x1="119.923" y1="84.851" x2="119.923" y2="111.919" gradientUnits="userSpaceOnUse">
<stop stop-color="#8566FB"/>
<stop offset="1" stop-color="#D6D5FF"/>
</linearGradient>
<linearGradient id="paint110_linear_3164_11215" x1="121.581" y1="88.1756" x2="121.581" y2="108.594" gradientUnits="userSpaceOnUse">
<stop stop-color="#8566FB"/>
<stop offset="1" stop-color="#D6D5FF"/>
</linearGradient>
<linearGradient id="paint111_linear_3164_11215" x1="123.236" y1="91.5002" x2="123.236" y2="105.269" gradientUnits="userSpaceOnUse">
<stop stop-color="#8566FB"/>
<stop offset="1" stop-color="#D6D5FF"/>
</linearGradient>
<linearGradient id="paint112_linear_3164_11215" x1="195.259" y1="74.877" x2="195.259" y2="121.889" gradientUnits="userSpaceOnUse">
<stop stop-color="#8566FB"/>
<stop offset="1" stop-color="#D6D5FF"/>
</linearGradient>
<linearGradient id="paint113_linear_3164_11215" x1="195.259" y1="78.2017" x2="195.259" y2="118.568" gradientUnits="userSpaceOnUse">
<stop stop-color="#8566FB"/>
<stop offset="1" stop-color="#D6D5FF"/>
</linearGradient>
<linearGradient id="paint114_linear_3164_11215" x1="195.259" y1="81.5262" x2="195.259" y2="115.243" gradientUnits="userSpaceOnUse">
<stop stop-color="#8566FB"/>
<stop offset="1" stop-color="#D6D5FF"/>
</linearGradient>
<linearGradient id="paint115_linear_3164_11215" x1="195.259" y1="84.851" x2="195.259" y2="111.919" gradientUnits="userSpaceOnUse">
<stop stop-color="#8566FB"/>
<stop offset="1" stop-color="#D6D5FF"/>
</linearGradient>
<linearGradient id="paint116_linear_3164_11215" x1="195.259" y1="88.1756" x2="195.259" y2="108.594" gradientUnits="userSpaceOnUse">
<stop stop-color="#8566FB"/>
<stop offset="1" stop-color="#D6D5FF"/>
</linearGradient>
<linearGradient id="paint117_linear_3164_11215" x1="195.259" y1="91.5002" x2="195.259" y2="105.269" gradientUnits="userSpaceOnUse">
<stop stop-color="#8566FB"/>
<stop offset="1" stop-color="#D6D5FF"/>
</linearGradient>
<linearGradient id="paint118_linear_3164_11215" x1="131.073" y1="92.2112" x2="156.971" y2="92.2112" gradientUnits="userSpaceOnUse">
<stop stop-color="#8566FB"/>
<stop offset="1" stop-color="#D6D5FF"/>
</linearGradient>
<linearGradient id="paint119_linear_3164_11215" x1="131.105" y1="91.5002" x2="131.105" y2="105.269" gradientUnits="userSpaceOnUse">
<stop stop-color="#8566FB"/>
<stop offset="1" stop-color="#D6D5FF"/>
</linearGradient>
<linearGradient id="paint120_linear_3164_11215" x1="131.073" y1="92.2112" x2="156.976" y2="92.2112" gradientUnits="userSpaceOnUse">
<stop stop-color="#8566FB"/>
<stop offset="1" stop-color="#D6D5FF"/>
</linearGradient>
<linearGradient id="paint121_linear_3164_11215" x1="131.073" y1="88.8898" x2="156.971" y2="88.8898" gradientUnits="userSpaceOnUse">
<stop stop-color="#8566FB"/>
<stop offset="1" stop-color="#D6D5FF"/>
</linearGradient>
<linearGradient id="paint122_linear_3164_11215" x1="131.105" y1="88.1756" x2="131.105" y2="108.594" gradientUnits="userSpaceOnUse">
<stop stop-color="#8566FB"/>
<stop offset="1" stop-color="#D6D5FF"/>
</linearGradient>
<linearGradient id="paint123_linear_3164_11215" x1="131.073" y1="88.8866" x2="156.976" y2="88.8866" gradientUnits="userSpaceOnUse">
<stop stop-color="#8566FB"/>
<stop offset="1" stop-color="#D6D5FF"/>
</linearGradient>
<linearGradient id="paint124_linear_3164_11215" x1="131.073" y1="85.5653" x2="156.971" y2="85.5653" gradientUnits="userSpaceOnUse">
<stop stop-color="#8566FB"/>
<stop offset="1" stop-color="#D6D5FF"/>
</linearGradient>
<linearGradient id="paint125_linear_3164_11215" x1="131.105" y1="84.851" x2="131.105" y2="111.918" gradientUnits="userSpaceOnUse">
<stop stop-color="#8566FB"/>
<stop offset="1" stop-color="#D6D5FF"/>
</linearGradient>
<linearGradient id="paint126_linear_3164_11215" x1="131.073" y1="85.5653" x2="156.976" y2="85.5653" gradientUnits="userSpaceOnUse">
<stop stop-color="#8566FB"/>
<stop offset="1" stop-color="#D6D5FF"/>
</linearGradient>
<linearGradient id="paint127_linear_3164_11215" x1="131.073" y1="82.2407" x2="156.971" y2="82.2407" gradientUnits="userSpaceOnUse">
<stop stop-color="#8566FB"/>
<stop offset="1" stop-color="#D6D5FF"/>
</linearGradient>
<linearGradient id="paint128_linear_3164_11215" x1="131.105" y1="81.5264" x2="131.105" y2="115.243" gradientUnits="userSpaceOnUse">
<stop stop-color="#8566FB"/>
<stop offset="1" stop-color="#D6D5FF"/>
</linearGradient>
<linearGradient id="paint129_linear_3164_11215" x1="131.073" y1="82.2407" x2="156.976" y2="82.2407" gradientUnits="userSpaceOnUse">
<stop stop-color="#8566FB"/>
<stop offset="1" stop-color="#D6D5FF"/>
</linearGradient>
<linearGradient id="paint130_linear_3164_11215" x1="131.073" y1="78.9161" x2="156.971" y2="78.9161" gradientUnits="userSpaceOnUse">
<stop stop-color="#8566FB"/>
<stop offset="1" stop-color="#D6D5FF"/>
</linearGradient>
<linearGradient id="paint131_linear_3164_11215" x1="131.105" y1="78.2018" x2="131.105" y2="118.568" gradientUnits="userSpaceOnUse">
<stop stop-color="#8566FB"/>
<stop offset="1" stop-color="#D6D5FF"/>
</linearGradient>
<linearGradient id="paint132_linear_3164_11215" x1="131.073" y1="78.9161" x2="156.976" y2="78.9161" gradientUnits="userSpaceOnUse">
<stop stop-color="#8566FB"/>
<stop offset="1" stop-color="#D6D5FF"/>
</linearGradient>
<linearGradient id="paint133_linear_3164_11215" x1="131.073" y1="75.5914" x2="156.971" y2="75.5914" gradientUnits="userSpaceOnUse">
<stop stop-color="#8566FB"/>
<stop offset="1" stop-color="#D6D5FF"/>
</linearGradient>
<linearGradient id="paint134_linear_3164_11215" x1="131.105" y1="74.8772" x2="131.105" y2="121.893" gradientUnits="userSpaceOnUse">
<stop stop-color="#8566FB"/>
<stop offset="1" stop-color="#D6D5FF"/>
</linearGradient>
<linearGradient id="paint135_linear_3164_11215" x1="131.073" y1="75.5914" x2="156.976" y2="75.5914" gradientUnits="userSpaceOnUse">
<stop stop-color="#8566FB"/>
<stop offset="1" stop-color="#D6D5FF"/>
</linearGradient>
<clipPath id="clip0_3164_11215">
<rect width="240" height="280" fill="white"/>
</clipPath>
</defs>
</svg>
