<svg width="118" height="44" viewBox="0 0 118 44" fill="none" xmlns="http://www.w3.org/2000/svg">
<g clip-path="url(#clip0_105_508)">
<path d="M28.6997 26.7191C28.7318 28.0935 28.4705 29.4588 27.9338 30.7224C27.397 31.986 26.5971 33.1184 25.5885 34.0429C23.5637 36.06 20.8334 37.1922 17.9878 37.1947C16.5869 37.2395 15.1914 36.9981 13.8852 36.4851C12.5791 35.972 11.3892 35.1979 10.3871 34.2091C9.37575 33.2851 8.56524 32.1596 8.00668 30.9037C7.44812 29.6477 7.15364 28.2886 7.14182 26.9121C7.10583 25.5445 7.36174 24.1851 7.8922 22.9261C8.42266 21.6671 9.21527 20.5379 10.2163 19.615C12.2558 17.6074 14.9958 16.489 17.8452 16.5011C19.2405 16.4553 20.6309 16.6896 21.9357 17.1905C23.2405 17.6913 24.4337 18.4487 25.4459 19.4186C26.4639 20.3379 27.279 21.4629 27.8381 22.7207C28.3971 23.9784 28.6878 25.3407 28.6912 26.7191M35.1817 26.651C35.181 24.4502 34.7224 22.274 33.8356 20.2632C32.9488 18.2524 31.6536 16.4518 30.0337 14.9778C28.4062 13.3995 26.4832 12.1644 24.377 11.3446C22.2709 10.5249 20.0239 10.137 17.7675 10.2036C13.8815 10.2137 10.1034 11.494 6.9992 13.8525V0.5L0.501007 0.568067L0.639356 26.9845C0.635491 29.1994 1.09526 31.3903 1.98857 33.4136C2.88189 35.4369 4.18861 37.2471 5.82323 38.7258C7.44731 40.2997 9.36524 41.5322 11.4656 42.3518C13.5659 43.1714 15.8067 43.5617 18.0578 43.5C20.3125 43.5168 22.5481 43.0827 24.6356 42.2229C26.7231 41.3631 28.621 40.0945 30.2199 38.4905C31.8313 36.9839 33.1079 35.1497 33.9654 33.1089C34.8229 31.0681 35.2418 28.8671 35.1945 26.651" fill="white"/>
<path d="M44.1589 8.55347H37.6607V43.4172H44.1589V8.55347Z" fill="white"/>
<path d="M44.1589 0.5H37.6607V7.05607H44.1589V0.5Z" fill="white"/>
<path d="M74.7216 22.709H54.2534C54.9633 20.5465 56.3338 18.6664 58.1682 17.3383C60.0027 16.0102 62.207 15.3024 64.4648 15.3163H64.5144C66.7721 15.3011 68.9765 16.0085 70.8107 17.3369C72.6449 18.6652 74.0136 20.546 74.7216 22.709ZM81.4435 29.2573C81.6284 28.1989 81.721 27.1261 81.7202 26.0513C81.754 23.7646 81.3274 21.4948 80.4663 19.3793C79.6052 17.2638 78.3275 15.3466 76.7106 13.7439C75.1777 12.1302 73.3374 10.8458 71.3 9.96788C69.2627 9.08999 67.0705 8.63673 64.8551 8.63534V8.625H64.1249V8.63965C61.9098 8.64232 59.7179 9.09617 57.6808 9.97398C55.6436 10.8518 53.8031 12.1355 52.2695 13.7482C49.0599 17.0189 47.2594 21.4354 47.2594 26.0379C47.2594 30.6404 49.0599 35.057 52.2695 38.3276C53.808 39.9316 55.6502 41.2074 57.6867 42.0793C59.7232 42.9512 61.9126 43.4015 64.1249 43.4034V43.4181H64.8551V43.4034C67.0676 43.4027 69.2574 42.9529 71.2941 42.0809C73.3308 41.2089 75.1728 39.9325 76.7106 38.3276C78.2257 36.8083 79.4475 35.0178 80.3136 33.0476H72.6275C72.4507 33.251 72.2799 33.4586 72.0818 33.6551C71.0969 34.6683 69.9181 35.469 68.6171 36.0085C67.3161 36.5481 65.92 36.8153 64.5135 36.7939H64.4589C62.1814 36.7901 59.9635 36.0594 58.1227 34.7064C56.2819 33.3535 54.9125 31.4476 54.2107 29.2617H81.4461L81.4435 29.2573Z" fill="white"/>
<path d="M82.7391 25.8471V43.413H89.3047V25.8471C89.2806 24.411 89.5503 22.9853 90.0971 21.6592C90.6439 20.3331 91.4559 19.135 92.4825 18.1399C93.4808 17.1135 94.6756 16.3027 95.9944 15.757C97.3131 15.2113 98.7281 14.9421 100.153 14.9657C101.565 14.9694 102.963 15.254 104.266 15.803C105.568 16.352 106.751 17.1548 107.746 18.1655C108.742 19.1761 109.529 20.3747 110.065 21.6928C110.601 23.0109 110.873 24.4226 110.868 25.8471V43.413H117.5V25.8471C117.499 23.5523 117.049 21.2803 116.176 19.1612C115.303 17.0421 114.024 15.1177 112.413 13.4982C110.801 11.8787 108.889 10.5959 106.785 9.72348C104.682 8.85104 102.428 8.40603 100.153 8.41396C97.8657 8.37985 95.5953 8.81681 93.4808 9.69814C91.3663 10.5795 89.4522 11.8866 87.8555 13.5397C86.2118 15.1274 84.9095 17.0394 84.0299 19.1568C83.1503 21.2741 82.712 23.5515 82.7425 25.8471" fill="white"/>
</g>
<defs>
<clipPath id="clip0_105_508">
<rect width="117" height="43" fill="white" transform="translate(0.5 0.5)"/>
</clipPath>
</defs>
</svg>
