<svg width="24" height="24" viewBox="0 0 24 24" fill="none" xmlns="http://www.w3.org/2000/svg"><path d="M9.684 23.862c-2.1-.434-4.058-1.403-5.596-2.766-3.948-3.501-5.168-9-3.082-13.894C1.518 6 2.35 4.78 3.382 3.72l.91-.934.064 5.467c.061 5.233.075 5.497.323 6.156.496 1.32 1.028 2.16 1.943 3.07 2.365 2.35 5.833 2.938 8.781 1.485 2.771-1.365 4.519-4.333 4.316-7.331-.137-2.014-.815-3.491-2.28-4.963-1.107-1.112-2.41-1.84-3.828-2.135-1.444-.302-1.374-.346-1.374.874v1.053l.79.145c3.065.564 5.092 3.568 4.453 6.6-.204.969-.66 1.824-1.39 2.611a5.603 5.603 0 0 1-4.035 1.767 5.562 5.562 0 0 1-5.05-3.175s-.238-.541-.315-.875c-.452-1.965-.163-6.102-.163-6.102l-.035-6.048.357-.185c.197-.101.386-.185.42-.185.033 0 .076 2.779.095 6.174 0 0-.434 4.45.102 6.156.078.246.225.667.225.667.47.957 1.224 1.8 2.204 2.263.744.351 1.118.51 2.218.51.719 0 1.356-.226 2.088-.563.864-.396 1.855-1.448 2.221-2.408 1.009-2.646-.396-5.492-3.102-6.286-1.106-.324-1.083-.342-1.083.859v1.049l.53.142c1.914.51 2.498 3.072.996 4.388-.53.465-1.01.67-1.846.67-.894 0-1.752-.54-2.193-1.369a2.524 2.524 0 0 1-.287-1.186c0-1.998-.044-5.59-.044-5.59L9.357.33l.275-.07c.151-.037.762-.13 1.357-.206 2.02-.257 5.007.403 7.013 1.55 2.736 1.562 4.806 4.247 5.669 7.35.296 1.068.329 1.379.329 3.096 0 1.71-.034 2.03-.324 3.075-1.172 4.218-4.154 7.233-8.418 8.512-.898.269-1.318.32-2.902.354-1.278.027-2.106-.013-2.672-.13Z" fill="#626262"/></svg>