<svg width="476" height="97" viewBox="0 0 476 97" fill="none" xmlns="http://www.w3.org/2000/svg"><path d="M326.334 48.138c0-14.43.044-28.861-.044-43.292-.011-1.93.472-2.576 2.422-2.423 2.291.176 4.614.154 6.904 0 1.754-.11 2.181.472 2.17 2.182-.076 11.316.022 22.633-.098 33.95-.022 2.006.591 2.444 2.454 2.368 3.617-.143 7.244-.165 10.861 0 2.005.087 2.619-.373 2.597-2.5-.121-11.229 0-22.469-.099-33.697-.011-1.831.417-2.467 2.302-2.314a39.11 39.11 0 0 0 6.411 0c2.093-.175 2.761.34 2.739 2.62-.131 13.773-.065 27.546-.065 41.33 0 15-.033 30.012.043 45.013 0 1.875-.372 2.62-2.389 2.445a38.503 38.503 0 0 0-6.652 0c-2.071.186-2.378-.647-2.367-2.478.077-13.86 0-27.72.088-41.57.011-2.007-.427-2.698-2.543-2.588a105.75 105.75 0 0 1-10.86 0c-2.148-.11-2.509.658-2.498 2.62.087 13.861 0 27.721.087 41.57.011 1.898-.405 2.6-2.411 2.435-2.29-.186-4.613-.153-6.904 0-1.72.11-2.203-.395-2.181-2.138.088-11.064.044-22.14.044-33.204V48.138h-.011Zm50.126.066c0-14.343.044-28.697-.055-43.04-.011-2.094.603-2.533 2.598-2.51 10.608.098 21.227.098 31.835 0 1.907-.023 2.532.416 2.444 2.4-.153 3.926-.033 3.926-4.099 3.926-6.41 0-12.832.055-19.243-.043-1.655-.022-2.028.482-2.017 2.061.077 9.266.088 18.532 0 27.787-.022 1.776.537 2.16 2.214 2.138 5.512-.099 11.025.033 16.537-.077 1.819-.033 2.608.252 2.509 2.358-.186 4.046-.043 4.046-4.208 4.046-5.019 0-10.038.044-15.057-.033-1.458-.022-1.995.318-1.984 1.886.066 12.051.077 24.102 0 36.153-.011 1.776.658 1.985 2.148 1.974 6.904-.066 13.819.033 20.723-.066 1.82-.022 2.587.296 2.499 2.369-.175 4.254-.044 4.265-4.241 4.265-10.038 0-20.077-.066-30.104.055-2.093.022-2.543-.603-2.532-2.599.088-14.343.044-28.696.044-43.04l-.011-.01Zm49.217-.022c0-14.42.043-28.85-.055-43.27-.011-2.083.581-2.675 2.608-2.5a35.75 35.75 0 0 0 6.411 0c2.148-.197 2.521.647 2.499 2.61-.099 9.913-.044 19.836-.044 29.75 0 16.721.033 33.433-.044 50.155 0 1.82.405 2.369 2.29 2.336 6.663-.12 13.326 0 19.978-.077 1.491-.022 1.94.362 1.94 1.897-.022 4.704.055 4.704-4.778 4.704-9.37 0-18.751-.066-28.12.044-2.061.022-2.762-.329-2.74-2.62.131-14.344.066-28.686.066-43.03h-.011ZM291.123 96.989c-.57-.066-4.723-4.024-4.592-4.244a5.589 5.589 0 0 1 1.052-1.272c3.2-3.07 6.335-6.206 9.031-9.737 2.301-3.026 4.208-6.25 5.216-9.946 1.249-4.572.548-8.76-2.553-12.445-2.378-2.83-4.888-5.527-7.628-8.027-2.115-1.93-4.066-4.057-5.95-6.228-6.642-7.61-7.54-14.924-3.036-24.015 3.551-7.182 9.03-12.84 14.685-18.356 3.671-3.575 3.649-3.509 7.693-.482 1.238.92 1.414 1.392.131 2.456-3.66 3.06-7.068 6.382-9.994 10.165-2.126 2.741-3.847 5.702-4.833 9.046-1.238 4.222-.526 8.115 2.203 11.58 2.433 3.103 5.227 5.9 8.142 8.553 2.795 2.555 5.381 5.296 7.847 8.158 4.986 5.779 5.896 12.249 3.309 19.288-1.512 4.112-3.78 7.808-6.498 11.229-3.945 4.967-8.537 9.31-13.26 13.52-.351.308-.724.582-.965.768v-.011ZM134.51 45.473c2.893.022 5.238 2.194 5.172 4.792-.066 2.511-2.356 4.562-5.129 4.606-2.882.044-5.26-2.073-5.271-4.693-.011-2.632 2.313-4.726 5.239-4.705h-.011Z" fill="#020202"/><path fill-rule="evenodd" clip-rule="evenodd" d="M266.259 93.766c1.13.005 2.274.01 3.44.01l-.131-.51a784.1 784.1 0 0 0-.965-3.734l-4.665-17.694c-5.857-22.214-11.714-44.426-17.516-66.652-.493-1.897-1.14-2.774-3.244-2.544-2.115.23-4.285.154-6.411.011-1.49-.098-1.94.472-2.203 1.853-3.783 19.739-7.594 39.471-11.405 59.206-1.609 8.332-3.218 16.665-4.825 24.998-.955 4.98-.943 4.98 3.816 5.112l.316.009c1.939.055 2.444-.658 2.794-2.39.85-4.173 1.751-8.334 2.652-12.496.902-4.161 1.803-8.322 2.652-12.495.329-1.645.976-2.083 2.587-2.05 4.843.11 9.709.142 14.553-.011 1.83-.066 2.323.669 2.707 2.248 1.482 6.14 3.028 12.255 4.574 18.374a3853.51 3853.51 0 0 1 1.738 6.89c.03.121.056.243.081.364.172.81.331 1.562 1.618 1.533 2.586-.054 5.171-.043 7.837-.032Zm-24.918-62.384a8958.48 8958.48 0 0 0-2.119-8.212c-.119.48-.209.824-.279 1.092-.091.35-.149.57-.192.794-.549 2.868-1.096 5.736-1.643 8.604-1.494 7.834-2.987 15.666-4.527 23.492-.296 1.502.329 1.611 1.523 1.6a613.51 613.51 0 0 1 12.581 0c1.206.011 1.775-.065 1.359-1.611-2.246-8.47-4.435-16.96-6.703-25.759Zm-37.87 61.498c1.059.004 2.116.008 3.17.008l-.011-.011c.172-.625-.105-.973-.348-1.28a3.491 3.491 0 0 1-.145-.19c-3.649-5.274-5.129-11.085-4.679-17.456.142-1.952.043-3.937-.11-5.9-.559-7.336-4.088-12.654-10.904-15.691-.526-.233-1.038-.49-1.602-.773a79.19 79.19 0 0 0-1.094-.543c.33-.21.632-.4.915-.577h.002c.6-.376 1.112-.696 1.603-1.046 7.124-5.077 11.716-11.766 12.285-20.615.614-9.694-6.049-19.047-16.087-23.126-8.121-3.29-16.647-3.476-25.25-3.29-1.983.044-2.367.724-2.367 2.566.053 23.02.049 46.047.046 69.076l-.002 17.266c0 .11.005.22.01.331.01.222.019.444-.01.656-.164 1.217.395 1.535 1.545 1.502 2.795-.066 5.6-.077 8.395 0 1.205.033 1.655-.384 1.501-1.546a5.761 5.761 0 0 1-.009-.82c.004-.137.009-.273.009-.408v-5.695c-.002-9.497-.003-19 .033-28.495 0-.153-.029-.322-.059-.494-.11-.632-.229-1.316 1.045-1.48 7.737-1.009 15.781 4.167 17.863 11.634 1.195 4.31 1.414 8.729 1.195 13.17-.208 4.2.57 8.158 2.74 11.798l.054.09c.437.734.836 1.4 1.962 1.38 2.772-.064 5.544-.053 8.304-.042Zm-33.137-80.763v34.201c0 .11-.004.22-.008.328-.027.746-.05 1.378 1.29 1.35 11.825-.275 21.37-12.666 18.477-24.08-1.973-7.775-8.121-13.05-16.701-14.31-2.039-.3-3.058.537-3.058 2.51ZM101.81 51.398l-.002-.001-.405-.189h.011c.355-.672.945-.973 1.517-1.266.221-.113.44-.225.642-.357 9.282-6.118 14.454-17.39 11.934-26.843-2.203-8.257-7.836-13.718-15.54-17.007C91.901 2.29 83.331 2.215 74.729 2.4c-2.017.044-2.378.79-2.356 2.61.065 6.826.057 13.652.049 20.479-.003 2.275-.006 4.55-.006 6.825l.002 13.173v.002c.004 15.371.008 30.746-.035 46.115 0 1.634.307 2.347 2.127 2.215 2.29-.164 4.613-.143 6.904 0 1.84.11 2.542-.307 2.487-2.368-.11-4.36-.09-8.724-.07-13.085v-.003c.008-1.706.016-3.41.016-5.115l-.002-4.183v-.002c-.002-4.183-.004-8.363.012-12.548a4.6 4.6 0 0 0-.02-.367c-.048-.604-.093-1.172 1.084-1.3 8.328-.877 15.956 4.32 17.994 12.424 1.03 4.1 1.129 8.279.942 12.467-.186 4.2.658 8.148 2.828 11.777l.098.166c.375.634.732 1.237 1.71 1.227 2.809-.04 5.618-.034 8.64-.027 1.175.002 2.382.005 3.634.005-5.447-6.678-6.323-14.025-5.753-21.734.041-.484.008-.975-.025-1.467a27.31 27.31 0 0 1-.03-.495c-.373-8.268-4.23-14.124-12-17.282-.385-.155-.757-.33-1.149-.512Zm-17.966-27.62c-.004 1.617-.008 3.235-.008 4.853h.01V46.34c0 .095-.002.188-.004.28-.018.779-.033 1.415 1.32 1.375 11.31-.318 20.745-11.842 18.652-22.906-1.644-8.674-8.066-14.222-17.93-15.659-1.654-.241-2.103.055-2.081 1.744.063 4.197.052 8.4.041 12.604ZM.047 38.427l-.003 9.93-.011-.01v43.29c0 .128-.003.254-.006.377-.026.994-.047 1.826 1.65 1.806 9.863-.077 19.67-.855 28.712-4.99 16.932-7.74 27.682-20.603 28.22-39.573.525-18.861-9.688-32.009-25.995-40.496-9.381-4.89-19.77-5.757-30.225-5.932C.339 2.796 0 3.465 0 5.318.059 16.35.053 27.39.047 38.428Zm11.704 2.277-.003 8.169h-.011c0 2.946.002 5.893.004 8.841.006 8.845.012 17.695-.037 26.544 0 1.546.34 2.095 1.907 1.656a66.38 66.38 0 0 1 2.662-.657c1.111-.259 2.221-.517 3.31-.845C35.2 79.729 46.763 64.937 46.981 49.41c.274-19.858-13.239-35.188-33.217-37.732-1.61-.198-2.06.11-2.06 1.81.059 9.067.053 18.14.047 27.216ZM476 14.726c-.028 8.997-8.54 15.384-17.523 13.85-9.074-1.557-14.466-9.749-11.54-17.545 2.159-5.768 8.515-9.606 15.178-9.156 6.696.45 12.263 4.857 13.677 10.877.176.732.195 1.504.204 1.838l.002.103.001.018.001.015Zm-14.915 12.6c-8.778 0-15.189-7.6-12.811-15.199 1.742-5.58 7.627-9.298 13.907-8.783 6.257.516 11.178 4.76 12.076 10.44 1.118 7.061-5.172 13.53-13.172 13.53v.012Zm6.471-6.92c-1.091-1.566-2.163-3.107-3.841-4.298 3.419-1.349 4.384-2.588 4.022-4.825-.362-2.171-1.819-3.169-5.041-3.3-1.256-.046-2.52-.041-3.785-.037-.876.003-1.752.006-2.626-.007-.931-.022-1.556.065-1.534 1.283.055 4.09.033 8.19 0 12.292-.011.822.252 1.173 1.107 1.195.975.022 1.03-.548 1.03-1.26l.002-1.315v-.001l.001-.328c.002-.764.003-1.527-.003-2.293v-.066c-.001-.666-.002-1.273.942-1.305h.003c1.917-.066 3.811-.131 5.104 1.7.316.445.649.878.983 1.312.569.74 1.137 1.478 1.614 2.273.844 1.404 1.896 1.546 3.441.932-.506-.638-.963-1.296-1.418-1.949l-.001-.001v-.001Zm-3.742-10.592c-1.03-.23-2.093-.241-3.156-.23v-.011l-.549.009c-.639.012-1.276.025-1.906-.01-1.375-.071-1.372.963-1.369 2.033.001.235.002.471-.012.698l-.015.226c-.058.84-.112 1.623.914 1.825 2.016.405 4.241.46 6.301-.264 1.019-.35 1.622-1.107 1.578-2.215-.055-1.13-.767-1.83-1.786-2.061Z" fill="#020202"/></svg>