<svg width="382" height="144" viewBox="0 0 382 144" fill="none" xmlns="http://www.w3.org/2000/svg"><path d="M.116 11.65C.4 9.83 1.192 7.857 2.143 6.472c2.5-3.64 5.98-5.56 10.318-5.401 5.137.195 9.068 2.697 10.87 7.613 2.681 7.309 5.086 14.712 7.593 22.079 3.248 9.556 6.474 19.128 9.715 28.692 2.477 7.308 4.962 14.617 7.411 21.94.349 1.038.669 1.886 1.998 1.85 1.344-.044 2.035-.733 2.434-1.95 2.507-7.622 5.05-15.235 7.571-22.848 5.261-15.894 10.55-31.774 15.753-47.69 1.504-4.596 4.127-7.997 9.003-9.244C89.4.338 93.463 1.455 96.71 4.848c3.176 3.314 4.164 7.382 2.769 11.754a7301.61 7301.61 0 0 1-15.87 49.16c-3.05 9.369-6.27 18.686-9.765 27.91-2.136 5.633-6.307 8.744-11.69 10.658-8.756 3.111-17.468 2.879-26.028-.696-4.33-1.813-7.621-4.778-9.423-9.245-3.757-9.325-6.918-18.86-10.027-28.401-4.716-14.459-9.33-28.96-13.988-43.44C1.758 19.633.03 16.16 0 13.093c0-.457.036-.943.116-1.443Zm232.258 92.702c-9.025 0-18.056.058-27.081-.022-5.645-.051-10.404-5.04-10.535-10.811-.124-5.503 4.454-10.84 9.903-11.021 7.557-.254 15.128-.174 22.692-.196 8.189-.022 16.385-.007 24.574.014 6.772.022 10.928-5.111 9.482-11.775-.661-3.038-1.948-5.612-5.166-6.729-1.403-.485-2.841-.304-4.258-.304-10.027-.03-20.047-.109-30.074.021-15.978.203-25.765-10.006-28.527-23.68-1.947-9.659-.85-18.976 4.731-27.394C202.968 5.13 209.849.787 218.685.643c17.097-.276 34.193-.167 51.29-.087 4.36.022 7.608 2.298 9.497 6.221 3.502 7.287-1.787 15.59-9.904 15.604-14.67.022-29.34 0-44.002 0-4.331 0-6.954 1.79-8.364 5.656-1.46 4.01-.312 8.94 2.558 11.333 1.686 1.406 3.655 1.631 5.718 1.624 10.536 0 21.079.014 31.615-.007 8.617-.022 15.898 2.842 21.34 9.694 4.033 5.076 6.249 10.876 6.932 17.322.777 7.382.043 14.524-3.35 21.195-4.817 9.455-12.41 14.944-23.28 15.132-8.785.16-17.569.029-26.361.036v-.014ZM381.944 40.9c0 9.302.058 18.605-.014 27.908-.087 10.746-4.541 19.49-12.861 26.183-11.248 9.049-24.348 11.471-38.415 10.202-7.31-.66-14.14-2.748-20.381-6.627-9.628-5.997-15.521-14.51-16.712-25.828-.945-9.02-.276-18.105-.349-27.154-.08-10.964-.022-21.934-.015-32.905 0-6.576 4.854-11.616 11.219-11.666 6.431-.051 11.451 5.003 11.466 11.645.022 16.626 0 33.245 0 49.87 0 5.657 1.555 10.732 5.914 14.568 3.205 2.82 7.121 4.256 11.321 4.93 5.406.87 10.717.588 15.847-1.479 6.205-2.501 9.758-7.178 10.63-13.682.908-6.743.327-13.56.371-20.339.072-11.442-.029-22.89.036-34.333.044-8.592 8.828-13.849 16.378-9.73 3.473 1.892 5.594 4.909 5.587 9.1-.022 9.781 0 19.562 0 29.344l-.022-.007ZM155.863 51.283c2.819-4.409 6.053-12.305 6.786-16.648-1.845 1.225-3.298 2.806-5.049 4.031-2.711 1.893-5.646 3.307-8.618 4.699-1.148.536-1.628.196-2.005-.957-1.868-5.641-3.822-11.254-5.726-16.88-.363-1.08-.596-2.248-2.078-2.248-1.584 0-2.194 1.008-2.645 2.378-2.31 7.048-4.716 14.067-7.026 21.115-.371 1.124-.865 1.667-2.122 1.928-5.951 1.219-11.88 2.495-17.315 5.431-5.1 2.756-9.22 6.475-12.17 11.457-.11.181-.313.304-.778.311.632-1.95 1.257-3.9 1.904-5.844 4.374-13.131 8.625-26.306 13.348-39.314 1.22-3.35 2.383-6.729 3.8-9.992 1.845-4.263 5.5-6.707 9.656-8.273 8.836-3.335 17.766-3.299 26.601.087 4.897 1.878 8.378 5.2 10.332 10.202 5.501 14.125 10.115 28.547 14.772 42.954 3.51 10.848 6.925 21.731 10.42 32.586 2.085 6.467-.93 13.174-6.91 15.226-6.685 2.299-13.377-.899-15.688-7.598-4.374-12.69-8.69-25.393-13.035-38.09-.465-.637-.211-1.268.116-1.834.967-1.696 1.955-3.393 3.43-4.72v-.007Z" fill="#555"/><path d="M155.783 51.246a44.32 44.32 0 0 1-11.771 14.93c-3.233 2.647-6.881 4.764-10.746 6.366-3.931 1.632-8.087 2.408-12.251 3.169-.465.087-.908.232-1.366.348-2.615.913-5.384 1.044-8.072 1.566-4.425.856-8.69 2.146-12.767 4.068-3.276 1.537-5.914 3.77-7.818 6.86-.327.536-.625 1.188-1.446 1.167 1.788-7.048 3.299-14.169 7.252-20.491 3.516-5.634 8.312-9.579 14.386-12.218 6.547-2.842 13.515-3.923 20.418-5.286 7.411-1.465 14.728-3.212 21.26-7.215 2.478-1.515 4.847-3.204 6.881-5.416-.392.428-.429 2.487-.603 3.132-.262.943-.581 1.871-.886 2.8-.669 2.044-1.425 4.052-2.355 5.996-.036.08-.072.16-.116.232v-.008Z" fill="#B2B2B2"/><path d="M89.546 89.712c1.213-1.232 1.831-2.878 3.044-4.147 4.128-4.322 9.526-6.04 15.048-7.534 3.793-1.03 7.695-1.5 11.553-2.19.131-.021.305.138.458.21-2.151 6.41-4.345 12.813-6.438 19.245-2.63 8.084-11.262 11.521-18.346 7.055-4.607-2.908-6.154-7.331-5.319-12.639Z" fill="#545454"/><path d="M29.427 131.637c0-3.386.044-6.78-.021-10.166-.037-2.023 4.89-2.081 5.841-.993.727.834.197 2.777.197 4.227 0 3.944 0 3.973 3.865 3.937 1.599-.014 3.67.689 4.68-.275 1.01-.965.283-3.046.312-4.626.058-3.619.022-3.626 3.633-3.626 1.613 0 2.422.824 2.427 2.473.007 6.431-.008 12.855.036 19.287.007 1.189-.24 1.733-1.577 1.53-1.446-.218-3.407.645-4.258-.384-.712-.87-.232-2.727-.247-4.148-.014-1.486-.029-2.98.015-4.466.029-.856-.16-1.306-1.17-1.284-2.216.058-4.432.029-6.641-.022-.901-.021-1.075.341-1.061 1.175.058 2.618 0 5.228.05 7.846.023.986-.275 1.276-1.322 1.297-4.737.08-4.737.124-4.737-4.633 0-2.378 0-4.756-.015-7.135l-.007-.014Zm100.838-3.85c2.1-1.501 4.091-2.553 6.576-2.371 3.022.224 5.282 2.11 5.398 5.119.153 3.98.044 7.968.095 11.956.007.733-.262.95-.916.907-.058 0-.116-.008-.181 0-4.636.21-4.622.21-4.6-4.373.007-2.131 0-4.263-.094-6.395-.051-1.167-.356-2.255-1.759-2.567-1.555-.348-2.986 0-4.25.863-.262.174-.211.878-.211 1.334-.015 3.249-.029 6.497.022 9.745.014 1.03-.233 1.4-1.388 1.407-4.28.022-4.272.08-4.272-4.191 0-6.199.021-12.392-.037-18.591-.007-1.153.124-1.769 1.497-1.617 1.359.152 3.204-.406 3.967.29.676.616.146 2.531.153 3.872v4.612Zm188.414 3.835c0-3.328.051-6.663-.029-9.991-.029-1.117.138-1.559 1.417-1.559 4.636 0 4.643-.058 4.65 4.582.007 4.285.044 8.578-.022 12.863-.014 1.102.298 1.45 1.395 1.421 2.689-.072 5.377.015 8.066-.058 1.068-.029 1.424.254 1.424 1.378.014 3.147.072 3.154-3.045 3.154-4.061 0-8.123-.065-12.185.007-1.286.022-1.765-.195-1.714-1.631.13-3.386.043-6.78.043-10.166Zm-50.753 6.279c1.301-3.835 2.543-7.265 3.597-10.76.334-1.102.821-1.377 1.867-1.319 1.417.072 2.834.021 4.454.021-2.208 5.692-4.119 11.297-6.597 16.656-.61 1.326-2.289 1.181-3.502 1.073-1.214-.109-3.067.174-3.582-1.204-1.693-4.488-3.401-8.977-5.101-13.465-.356-.935-.727-1.863-1.199-3.06 1.896 0 3.597.029 5.29-.014.857-.022.886.58 1.075 1.145 1.177 3.517 2.383 7.027 3.706 10.927h-.008Zm-157.621-3.241c0-.949-.014-1.907 0-2.856.022-1.175.334-2.4-1.671-2.205-1.112.109-.632-1.029-.661-1.631-.058-1.102-.407-2.494 1.591-2.154.516.087.763-.217.741-.739-.007-.181-.014-.356 0-.537.116-1.218-.567-3.074.349-3.509 1.271-.602 3.03-.181 4.577-.203.836-.015.713.58.756 1.116.109 1.277-.596 2.973.349 3.698.792.609 2.419.29 3.655.16 1.722-.174 1.257 1.008 1.242 1.834-.014.87.538 2.125-1.271 2.06-1.279-.051-3.038-.624-3.735.275-.647.834-.218 2.502-.24 3.8-.014 1.007.116 2.03.015 3.03-.226 2.4.944 3.575 3.749 2.85 1.562-.399 1.519.16 1.511 1.291 0 2.494.037 2.545-2.434 2.711-6.576.443-8.937-1.203-8.537-7.758.029-.413 0-.834 0-1.247l.014.014Zm171.027.015v-2.857c-.007-1.131.392-2.364-1.671-2.219-1.272.087-.531-1.298-.654-2.001-.182-1.03-.131-2.052 1.453-1.762.552.102.937-.138.85-.798a1.506 1.506 0 0 1 0-.355c.16-1.225-.581-2.958.276-3.582 1.119-.819 2.878-.152 4.353-.275.886-.073 1.126.326 1.111 1.145-.021 1.233-.559 2.814.218 3.604.785.805 2.391.268 3.619.232 1.104-.036 1.424.283 1.402 1.392-.051 2.451.015 2.458-2.456 2.473-.298 0-.603.036-.894-.015-1.54-.261-2.114.276-1.954 1.9.167 1.711.022 3.444.036 5.17.022 2.741 1.003 3.662 3.655 2.951 1.62-.435 1.482.174 1.642 1.37.269 2.045-.719 2.596-2.434 2.611-1.315.007-2.645.116-3.938-.058-3.008-.399-4.461-2.103-4.578-5.185-.043-1.247-.007-2.501-.007-3.756h-.029v.015Zm60.715-13.842c2.804 0 2.942 0 2.746 2.784-.131 1.929.545 2.538 2.34 2.234.232-.037.479 0 .719 0 2.202 0 2.856.957 2.282 3.146-.204.762-.691.638-1.214.689-1.337.131-3.124-.645-3.894.37-.64.841-.167 2.516-.182 3.829-.007.949-.015 1.906 0 2.856.036 2.719 1.01 3.611 3.677 3.002 1.351-.312 1.722-.268 1.627 1.255-.145 2.516-.029 2.537-2.507 2.69a28.76 28.76 0 0 1-2.862.021c-3.677-.137-5.457-1.885-5.566-5.539a137.794 137.794 0 0 1 0-6.954c.022-1.015-.066-1.776-1.388-1.551-.814.137-1.061-.291-.974-1.045.153-1.283-.668-3.205 1.948-2.813.399.058.385-.37.392-.653.015-.478 0-.949 0-1.428 0-1.929.952-2.893 2.856-2.893ZM158.486 143.76c-1.33 0-2.652-.007-3.982-.014-6.939-1.479-9.947-6.664-7.506-12.921 1.33-3.408 4.142-4.8 7.477-5.301a14.422 14.422 0 0 1 6.554.537c1.373.435 1.998 1.044 1.78 2.509-.138.935.298 2.356-.182 2.748-.886.718-1.489-.769-2.339-1.059-.843-.283-1.671-.689-2.536-.827-2.18-.34-3.967.443-4.81 1.98-1.163 2.11-1.061 5.438.327 6.939 1.62 1.762 3.684 1.617 5.82 1.196 1.38-.275 2.136-1.704 3.633-1.863.022.435.051.783.058 1.131.08 4.155-.109 4.365-4.287 4.938l-.007.007Zm-53.885-12.384c0 3.502-.029 7.011.015 10.514.014 1.051-.117 1.544-1.417 1.529-4.28-.029-4.28.044-4.273-4.227 0-6.127.037-12.254-.036-18.388-.014-1.363.283-1.849 1.758-1.813 3.96.095 3.96.015 3.96 4.003 0 1.428.008 2.849.008 4.278v4.097h-.015v.007Zm88.834-2.806c2.173-1.574 3.88-2.727 6.082-2.785.93-.021 1.46.087 1.366 1.218-.102 1.24.385 2.72-.138 3.691-.668 1.226-2.202.087-3.371.218-3.684.413-3.692.333-3.684 4.053 0 2.436-.022 4.88.014 7.316.015.812-.189 1.095-1.09 1.131-4.592.196-4.585.232-4.585-4.278 0-3.93.022-7.86-.029-11.79-.014-1.095.211-1.696 1.468-1.515a7.46 7.46 0 0 0 1.969 0c1.722-.196 2.856.13 1.991 2.741h.007Zm102.393 11.724c0-2.02 1.005-3.031 3.015-3.031 2.01 0 2.991 1.001 2.943 3.002-.049 2.002-1.11 3.041-3.183 3.118-1.855 0-2.783-1.029-2.783-3.089h.008Zm86.109.095c0 1.986-.971 2.984-2.914 2.994-.414 0-.843-.051-1.249.022-1.272.217-1.773-.283-1.57-1.537.029-.174 0-.356 0-.537 0-4.082 0-4.024 4.025-4.111 1.388-.029 1.962.341 1.715 1.755-.08.464-.014.949-.007 1.421v-.007Zm-11.226-17.192c0-4.3 0-4.271-4.36-4.184-.966.022-1.366.232-1.322 1.283.08 2.002.022 4.01.022 6.171-.727-.261-1.279-.464-1.831-.653-3.328-1.16-6.852-.159-8.981 2.64-2.405 3.168-2.369 6.728-1.381 10.339.938 3.408 3.582 4.931 6.431 4.924 1.991 0 4.076-.754 5.754-2.132-.545.449.131 1.552.545 1.776.458.254 1.519.058 2.042.08 1.381.044 3.125.189 3.103-1.689-.08-6.185-.037-12.37-.044-18.555h.022Zm-6.598 15.857c-1.605.667-3.269.957-4.577-.159-1.926-1.639-1.584-4.01-1.177-6.171.327-1.747 1.489-2.885 3.378-3.176 2.536-.391 3.314.211 3.314 2.683v2.139c0 .653.065 1.313-.015 1.958-.123.957.56 2.117-.923 2.734v-.008Zm-270.353-7.41c-.043-3.379-1.642-5.271-5.02-5.917-3.386-.645-6.765-.377-10.13.298-.668.137-1.031.355-.987 1.131.065 1.08.014 2.168.014 3.451 2.725-.986 5.18-1.624 7.796-1.232.865.13 1.614.369 2.231.986.305.311.494.696.429 1.131-.095.616-.64.391-1.003.442-1.889.254-3.793.413-5.667.754-3.132.573-5.021 2.429-5.24 4.996-.282 3.321 1.977 5.518 4.746 6.083a7.215 7.215 0 0 0 3.945-.297c.712-.268 3.117-1.269 3.277-2.066-.414 2.052.596 2.037 1.642 2.015.894-.021 1.795-.043 2.681.015.96.058 1.337-.225 1.315-1.276-.065-3.502.022-7.005-.021-10.499l-.008-.015Zm-7.505 8.165c-1.41.384-2.87.652-3.975-.617-.937-1.073-.334-2.799 1.126-3.292.785-.261 1.62-.384 2.442-.515 2.238-.34 2.238-.333 2.238 2.081.436 1.48-.603 2.002-1.839 2.343h.008Zm96.572-8.455c-.08-3.082-1.591-4.887-4.6-5.54-3.56-.768-7.12-.5-10.659.261-.516.109-.857.211-.828.863.058 1.153.014 2.306.014 3.604 1.105-.341 1.948-.638 2.805-.856 2.173-.558 4.352-.696 6.489.124.973.377 1.874 2.052.276 2.16-2.558.167-5.268.29-7.651 1.32-1.962.848-3.212 2.175-3.379 4.387-.254 3.342 1.998 5.496 4.759 6.032a7.288 7.288 0 0 0 3.706-.253c.276-.095 3.211-1.552 3.081-1.639.675.464-.117 1.573 1.031 1.523 1.643-.08 3.314.391 4.905-.298.131-.058.087-.551.087-.848 0-3.618.073-7.236-.022-10.855l-.014.015Zm-7.092 8.367c-1.46.436-2.964.784-4.229-.355-1.155-1.037-.515-2.987 1.134-3.509.792-.247 1.649-.276 2.449-.493 1.605-.443 2.652-.298 2.049 1.696.334 1.356-.066 2.27-1.403 2.661Zm39.447-14.226c-1.475-.261-2.971-.21-4.446-.029-3.619.457-7.47 2.763-7.942 8.44 0 2.4.247 4.605 1.846 6.541 1.758 2.124 4.846 3.219 7.738 3.487.879.08 1.744.087 2.543.022 1.577-.131 4.309-.276 5.551-1.37.85-.755.661-2.089.683-3.118.036-1.712-.574-1.625-1.736-.936-2.137 1.262-4.469 1.545-6.889 1.247-1.555-.195-2.855-.87-3.604-2.313-.762-1.464-.559-1.769 1.083-1.762 3.371.008 6.743.029 10.114 0 .494 0 1.17.291 1.352-.688.843-4.474-1.926-8.73-6.293-9.499v-.022Zm-.501 6.874c-.828-.065-1.664-.014-2.499-.014-.771 0-1.555-.073-2.318.007-1.432.152-1.526-.558-1.025-1.552.785-1.552 2.158-2.088 3.837-1.987 1.526.095 2.557.755 2.971 2.299.255.935.051 1.32-.973 1.24l.007.007Zm-146.468-6.62c-1.874-.537-3.785-.464-5.682-.275-3.843.384-7.026 3.393-7.535 7.004-.421 2.965-.181 6.265 2.02 8.512 1.839 1.878 4.643 2.77 7.325 2.966a15.09 15.09 0 0 0 2.07.014c1.73-.108 4.607-.195 5.987-1.377.916-.776.727-2.074.727-3.176 0-1.4-.356-1.762-1.599-.993-2.056 1.268-4.316 1.624-6.677 1.377-1.744-.181-3.255-.826-3.996-2.559-.378-.885-.618-1.639.966-1.581 3.422.116 6.852.051 10.281.029.473 0 1.054.254 1.316-.529 1.148-3.43-1.584-8.382-5.203-9.412Zm-2.637 6.62c-.364.007-.916.051-1.526.073-2.085.072-4.832-.066-2.783-2.335 1.039-1.153 2.347-1.436 3.873-1.218 1.278.181 2.034.884 2.448 2.008.618 1.668-.784 1.436-2.02 1.472h.008Zm190.165-7.258c-.755-2.937-3.117-4.169-5.929-4.706-2.252-.435-4.534-.239-6.808-.297-1.555 0-3.117.087-4.672-.022-1.242-.087-1.613.268-1.599 1.552.073 5.721.015 11.442.044 17.163 0 1.471-.639 3.436.262 4.292.988.928 2.957.16 4.49.297 1.003.087 1.402-.21 1.322-1.276-.094-1.363.109-2.748-.058-4.097-.232-1.914.473-2.392 2.333-2.233 2.899.247 5.718-.145 8.08-2.132 2.739-2.305 3.356-5.285 2.521-8.541h.014Zm-7.186 5.453c-1.569 1.145-3.415.877-5.18.848-.771-.015-.524-.805-.545-1.291-.037-.768-.008-1.544-.008-2.313h-.021c0-.239-.066-.5.014-.71.313-.863-.647-2.183.654-2.625 2.035-.703 5.442.471 6.089 1.907.639 1.407.211 3.306-.995 4.184h-.008Z" fill="#181818"/></svg>