<svg width="404" height="163" viewBox="0 0 404 163" fill="none" xmlns="http://www.w3.org/2000/svg"><path d="M91.31 69.887c0-10.49-.013-20.013 0-29.53.014-7.202.176-14.412.041-21.615-.054-3.003 2.242-2.172 3.589-2.172 1.414.129 3.542-.595 3.542 2.084-.074 22.63-.054 45.26-.074 67.898 0 .183-.162.372-.438.96C72.7 67.467 47.517 47.494 22.314 27.5c-1.084 1.103-.592 2.286-.599 3.321-.114 17.342-.296 34.677-.175 52.018.02 3.409-1.656 3.03-3.878 3.138-2.505.122-3.455-.412-3.434-3.26.141-20.94.12-41.886.02-62.832-.014-2.584.229-3.315 3.272-3.443 3.044-.128 6.047-.142 7.057.467 1.683 1.014 3.808 2.17 6.275 4.2C49.584 36.516 68.56 51.632 87.446 66.85c.956.771 1.932 1.515 3.865 3.03v.007Zm226.079-18.965c0-10.47.074-20.946-.054-31.416-.027-2.367.627-3.023 2.99-3.017 19.513.095 39.026.075 58.54.027 1.878 0 2.814.237 2.821 2.51 0 2.374-1.3 2.11-2.795 2.11-15.251-.014-30.508.06-45.759-.068-2.646-.02-3.434.67-3.36 3.362.188 7.088.208 14.19-.007 21.278-.087 2.806.902 3.266 3.414 3.246 14.133-.108 28.26-.06 42.393-.04 1.441 0 3.097-.636 3.171 2.076.081 2.834-1.575 2.387-3.232 2.387-14.241 0-28.488.048-42.729-.067-2.344-.02-3.051.581-3.003 2.982.154 7.319.175 14.643-.007 21.955-.068 2.556.653 3.179 3.164 3.158 15.925-.121 31.849-.067 47.773-.067 1.529 0 3.152-.433 3.071 2.205-.061 1.954-.64 2.461-2.518 2.428-6.168-.109-12.336-.04-18.504-.04-14.133 0-28.259-.048-42.393.046-2.282.014-3.077-.514-3.043-2.976.141-10.693.06-21.392.067-32.092v.013Zm-41.935 2.523c0 9.902-.074 19.81.06 29.712.027 2.28-.659 2.97-2.841 2.807-2.229-.162-4.498-.203-6.72.007-2.404.23-2.956-.67-2.942-2.997.094-19.357-.021-38.714.128-58.07.027-3.119-.795-3.985-3.886-3.87-6.49.25-13.002.041-19.499.095-1.643.014-2.687-.04-2.68-2.252 0-2.13.909-2.347 2.619-2.34 19.729.04 39.457.054 59.186-.014 1.946 0 2.444.595 2.485 2.476.047 2.008-.903 2.144-2.451 2.13-6.949-.047-13.898.061-20.847-.068-2.087-.04-2.679.582-2.653 2.665.101 9.902.048 19.81.048 29.712l-.007.007Zm-126.29 79.241c3.279-5.593 6.437-10.984 9.588-16.374.343-.582.633-1.197 1.03-1.739.727-1.001 1.852-.703 2.801-.629 1.077.088.916 1.083.916 1.854 0 7.764-.02 15.529 0 23.286 0 1.292-.175 2.117-1.798 2.124-1.589 0-2.182-.507-2.155-2.137.074-5.262.027-10.517.027-16.53-2.552 2.942-3.878 5.837-5.541 8.488-.896 1.427-1.737 2.888-2.613 4.322-2.161 3.544-2.68 3.551-4.868-.02-2.498-4.079-4.976-8.171-8.181-12.148 0 4.958.047 9.916-.034 14.867-.02 1.23.862 3.063-1.723 3.145-2.492.081-1.94-1.597-1.946-2.949-.02-7.203-.041-14.4.027-21.603.006-.947-.754-2.401 1.037-2.719 1.515-.27 2.424.379 3.211 1.759 2.997 5.268 6.141 10.463 9.239 15.677.222.372.518.697.983 1.319v.007Zm145.339 8.603c2.767 2.597 5.386 3.341 8.369 1.312.896-.608 1.508-1.251 2.471-.027 1.125 1.427.047 2.009-.815 2.679-3.191 2.489-8.039 2.259-11.79-.853-2.094-1.731-4.154-2.955-6.915-3.625-7.225-1.738-11.258-9.252-9.413-16.618 1.838-7.338 9.184-11.788 16.941-10.273 6.504 1.271 10.847 5.938 11.528 12.37.673 6.412-2.788 11.613-10.377 15.028l.001.007Zm-14.45-13.818c-.061 6.006 4.296 10.457 10.288 10.518 5.939.06 10.531-4.444 10.531-10.321 0-5.817-4.329-10.207-10.167-10.301-6.121-.102-10.592 4.139-10.652 10.098v.006ZM67.32 141.337c-8.45-.014-14.443-5.824-14.403-13.981.04-7.926 6.067-13.669 14.37-13.696 8.375-.027 14.49 5.912 14.415 14.008-.067 7.933-6.12 13.682-14.382 13.675v-.006Zm10.315-13.764c.034-5.878-4.188-10.132-10.12-10.199-6.107-.068-10.666 4.24-10.666 10.077 0 5.871 4.519 10.26 10.545 10.254 5.844-.007 10.2-4.322 10.241-10.132Zm286.901-.115c0-3.713.054-7.426-.02-11.14-.034-1.596.202-2.482 2.154-2.434 5.044.128 10.087.081 15.13.033 1.381-.013 2.027.332 1.993 1.887-.033 1.536-.902 1.536-1.979 1.529-3.475-.02-6.949.088-10.424-.047-2.06-.082-2.996.365-2.915 2.732.229 6.764-.667 5.431 5.474 5.566 2.128.048 4.262.068 6.39-.02 1.286-.054 1.798.359 1.805 1.704.006 1.394-.613 1.725-1.839 1.712-3.137-.041-6.275.047-9.413-.048-1.622-.047-2.343.284-2.41 2.185-.236 6.655-.324 6.655 6.41 6.648 2.464 0 4.935.048 7.393-.027 1.367-.04 2.087.318 2.033 1.867-.047 1.461-.861 1.583-1.986 1.576-5.265-.02-10.538-.061-15.803.014-1.73.027-2.04-.792-2.013-2.266.06-3.828.02-7.65.02-11.478v.007Zm-181.423.149c0-3.713.074-7.427-.034-11.133-.047-1.765.256-2.651 2.33-2.59 4.922.142 9.858.074 14.78.013 1.34-.013 2.074.21 2.08 1.792 0 1.759-1.05 1.637-2.222 1.63-3.474-.02-6.948.109-10.416-.04-2.034-.088-2.646.487-2.619 2.604.067 5.708-.047 5.708 5.602 5.708 2.013 0 4.033.027 6.046-.013 1.105-.021 1.953.033 1.987 1.535.033 1.576-.728 1.88-2.061 1.86-3.137-.047-6.275.047-9.406-.041-1.529-.04-2.094.352-2.175 2.036-.323 6.824-.397 6.818 6.504 6.811 2.465 0 4.929.027 7.394-.014 1.185-.02 1.892.237 1.871 1.651-.02 1.305-.511 1.792-1.797 1.779-5.374-.041-10.754-.082-16.127 0-1.656.02-1.771-.846-1.757-2.111.034-3.821.013-7.649.013-11.471l.007-.006Zm158.173-4.694c0-2.246.054-4.498-.021-6.743-.047-1.414.088-2.314 1.913-2.3 1.73.014 2.047.764 2.02 2.259-.068 4.721.168 9.449-.094 14.156-.512 9.043-8.552 13.791-16.841 10.084-3.191-1.427-5.204-3.929-5.73-7.392-.882-5.81-.256-11.667-.417-17.504-.047-1.792 1.158-1.474 2.282-1.556 1.388-.101 1.731.514 1.717 1.766-.04 4.606-.107 9.218.014 13.824.135 5.147 2.397 7.805 6.646 8.15 5.036.406 8.154-2.232 8.45-7.331.141-2.462.027-4.945.027-7.413h.034Zm-234.401 18.363c-2.983.162-5.757-.589-8.403-1.928-1.374-.697-2.148-1.441-1.226-3.131.983-1.813 1.805-.46 2.653-.014 3.198 1.677 6.558 2.279 10.087 1.475 1.858-.427 3.333-1.468 3.467-3.599.135-2.042-1.232-3.07-2.922-3.605-2.559-.818-5.185-1.4-7.743-2.225-3.926-1.271-5.73-3.605-5.623-7.014.108-3.361 2.155-5.897 5.825-6.959 3.905-1.13 7.743-.737 11.514.751 1.441.568 1.784 1.359 1.185 2.854-.694 1.724-1.562.994-2.599.507-2.828-1.319-5.764-1.819-8.821-.872-1.737.534-3.05 1.616-3.185 3.51-.134 1.988 1.259 3.084 2.936 3.639 2.229.737 4.538 1.224 6.78 1.907 4.936 1.508 6.875 3.794 6.565 7.629-.316 3.876-3.407 6.574-8.147 7.068-.774.081-1.569.013-2.35.013l.007-.006Zm-78.275.067c-6.828-.006-12.14-3.679-13.972-9.455-1.872-5.911.135-12.141 5.03-15.617 4.835-3.429 12.255-3.503 16.786-.149 1.387 1.028 2.882 1.962.667 3.774-1.461 1.197-1.946-.243-2.76-.75-3.913-2.449-7.886-2.435-11.764-.095-3.656 2.205-4.915 5.674-4.478 9.834.775 7.352 9.413 11.275 15.972 7.271 1.03-.629 1.885-2.07 3.373-.467 1.01 1.089 1.105 1.745-.094 2.672-2.68 2.076-5.67 3.124-8.76 2.996v-.014Zm201.077-11.89v9.111c0 1.332.31 2.691-1.905 2.664-2.013-.02-2.087-1.068-2.081-2.577.034-6.188-.074-12.377.061-18.559.047-2.144-.465-3.09-2.741-2.827-1.548.183-3.137-.013-4.699.068-1.28.068-1.832-.359-1.805-1.711.02-1.292.458-1.738 1.784-1.725 6.276.061 12.545.047 18.82 0 1.232-.007 1.858.291 1.852 1.677 0 1.319-.492 1.874-1.785 1.732-.222-.027-.451-.02-.673-.014-2.206.053-5.675-.422-6.235.393-.929 1.352-.597 4.312-.599 6.689v5.059l.006.02Zm29.021-1.698c0 3.714-.04 7.434.014 11.147.02 1.427-.155 2.32-1.96 2.313-1.757 0-2.02-.805-2.013-2.273.04-7.656.061-15.312-.014-22.969-.02-1.697.613-2.062 2.162-2.083 1.602-.027 1.852.704 1.838 2.043-.047 3.943-.02 7.879-.02 11.822h-.007Zm-84.759-39.85c-14.928-.29-28.341-3.368-40.151-11.633-18.449-12.918-18.375-36.956.04-49.874 22.523-15.793 58.54-15.583 80.996.467 17.547 12.546 17.594 36.164-.041 48.839-12.396 8.907-26.549 12.14-40.844 12.208v-.007Zm-.02-70.252c-11.353 0-21.19 3.294-28.758 9.624-14.517 12.154-14.787 34.791-.559 47.27 15.278 13.405 41.975 13.92 57.711 1.103 15.763-12.838 15.453-36.868-.673-49.252-8.174-6.277-17.574-8.718-27.715-8.752l-.006.007Z" fill="#080808"/></svg>