<svg width="131" height="91" viewBox="0 0 131 91" fill="none" xmlns="http://www.w3.org/2000/svg"><g opacity=".5" fill="#E0EDF8"><path d="M115.463 64.913v8.707h-10.304v-8.707h-4.405v21.726h4.405v-9.605h10.304v9.605h4.406V64.913h-4.406ZM65.767 83.169H55.655c1.763-1.608 2.616-5.848 2.754-10.678l.077-4.18h7.264v14.87l.017-.012Zm4.405-18.256H54.35s.094 3.734-.143 8.707c-.237 4.973-1.861 9.23-5.292 9.709v7.672h4.323v-4.362h14.924V91h4.406v-7.744h-2.352V64.913h-.044ZM32.421 76.07c-1.305 2.176-2.308 3.597-3.365 5.629.127-2.412.165-4.406.165-7.594v-9.192h-4.257v21.726h4.83l7.473-11.213c1.178-2.032 2.258-3.645 3.381-5.81-.165 2.969-.23 4.665-.23 7.776v9.247h4.311V64.913h-5.044L32.42 76.07Zm58.232 6.224s-1.327 1.162-5.887 1.162c-3.254 0-3.855-2.203-3.855-3.095 0-3.806 2.93-3.806 6.009-3.828h3.755v5.76h-.022Zm-4.868-17.519a51.794 51.794 0 0 0-7.512.551v3.596a32.282 32.282 0 0 1 6.967-.622c2.754 0 5.507 1.377 5.507 4.026v1.354l-4.686-.05c-9.363 0-9.627 4.126-9.627 6.665 0 3.706 2.864 6.223 8.03 6.223a16.456 16.456 0 0 0 6.498-1.366v1.338h4.004V73.455c-.122-2.374-1.102-8.702-9.18-8.702m-70.531 9.71c0 3.38-2.467 5.038-5.078 5.149a27.744 27.744 0 0 1-5.793-.518V68.239h4.014c3.19 0 6.714 1.146 6.857 5.403v.82Zm-8.443-9.765H0v26.055h4.406v-8.206c2.097.466 4.235.719 6.383.755 7.935.104 8.811-6.224 8.954-8.696l-.033-.265c0-7.01-3.822-9.62-12.876-9.62m120.272-.413h.551c.231 0 .347-.094.347-.308a.279.279 0 0 0-.099-.22.28.28 0 0 0-.232-.067h-.55l-.017.595Zm0 1.217h-.446v-2.203h1.102a.62.62 0 0 1 .627.37c.034.08.051.166.05.253a.552.552 0 0 1-.336.523c.176.071.264.143.264.55 0 .309 0 .391.105.425v.06h-.49a1.236 1.236 0 0 1-.061-.451c0-.287 0-.414-.352-.414h-.468l.005.887Z"/><path d="M125.514 64.395a1.982 1.982 0 0 1 1.238-1.825 1.99 1.99 0 0 1 2.701 1.46 1.99 1.99 0 0 1-1.951 2.37 2 2 0 0 1-1.988-2.005Zm-.551 0a2.536 2.536 0 0 0 3.044 2.471 2.544 2.544 0 0 0 1.986-1.999 2.537 2.537 0 0 0-4.289-2.275 2.548 2.548 0 0 0-.741 1.803Zm-47.471-31.93c6.322-1.553 11.72-7.953 11.72-14.561C89.211 8.194 80.085 0 70.551 0H48.019l4.774 8.778h16.213c5.216 0 8.73 5.034 8.73 9.225 0 4.064-3.944 8.63-8.812 8.63h-6.35l14.594 26.632h12.226C87.383 49.818 78.5 35.73 77.1 33.142a8.385 8.385 0 0 0-.364-.55l.755-.127ZM36.286 20.812c-6.322 1.586-11.714 7.935-11.714 14.555 0 9.704 9.131 17.898 18.664 17.898h22.541l-4.819-8.773h-16.19c-5.205 0-8.73-5.022-8.73-9.235 0-4.059 3.949-8.58 8.812-8.58h6.371C49.02 22.612 37.454 1.514 36.623 0H24.391c2.02 3.492 10.898 17.54 12.292 20.129.109.19.23.375.363.55l-.76.133Z"/></g></svg>