<svg width="60" height="60" viewBox="0 0 60 60" fill="none" xmlns="http://www.w3.org/2000/svg"><rect width="60" height="60" rx="30" fill="#fff"/><path d="M37.498 30a.655.655 0 0 1-.183.442.651.651 0 0 1-.45.175h-6.25v6.25a.654.654 0 0 1-.183.442.65.65 0 0 1-.9-.009.623.623 0 0 1-.184-.45V30.6h-6.25a.623.623 0 0 1-.633-.633c0-.167.058-.325.175-.45a.592.592 0 0 1 .441-.183h6.25v-6.25a.65.65 0 0 1 .175-.45.592.592 0 0 1 .442-.184c.159 0 .317.059.442.175a.617.617 0 0 1 .175.442v6.25h6.25c.158 0 .317.058.442.175a.616.616 0 0 1 .175.441l.066.067Z" fill="#1F1F1F"/></svg>