<svg width="115" height="115" viewBox="0 0 115 115" fill="none" xmlns="http://www.w3.org/2000/svg"><rect x="7" y="98" width="100" height="17" rx="8.5" fill="#E2E5EC"/><path d="M28.363 17.007v2.25-2.25Zm56.672-.02v-2.25 2.25Zm6.981 6.44-2.243.18v.003l2.243-.182Zm6.26 77.014-2.243.182v.001l2.243-.183Zm-6.414 7.548.085 2.248.097-.006-.182-2.242Zm-.56.021v2.25l.084-.002-.084-2.248Zm-75.865-7.002-2.248-.088a2.348 2.348 0 0 0-.002.088h2.25Zm.022-.539-2.244-.173a2.42 2.42 0 0 0-.005.085l2.248.088Zm5.923-77-2.243-.172 2.243.173Zm54.274-6.465a2.25 2.25 0 1 0 4.5 0h-4.5Zm-42.011 0a2.25 2.25 0 1 0 4.5 0h-4.5Zm13.383 64.628a2.25 2.25 0 0 0 2.687 3.61l-2.687-3.61Zm17.417 3.61a2.25 2.25 0 1 0 2.686-3.61l-2.686 3.61ZM28.364 19.257l56.672-.02-.001-4.5-56.673.02.002 4.5Zm56.672-.02a4.745 4.745 0 0 1 3.223 1.259l3.052-3.307a9.252 9.252 0 0 0-6.276-2.453l.001 4.5Zm3.223 1.259a4.751 4.751 0 0 1 1.514 3.112l4.486-.36a9.252 9.252 0 0 0-2.948-6.06l-3.052 3.308Zm1.515 3.114 6.26 77.013 4.485-.365-6.26-77.012-4.485.364Zm6.26 77.014a4.75 4.75 0 0 1-.214 1.842l4.284 1.379a9.276 9.276 0 0 0 .415-3.587l-4.486.366Zm-.214 1.842a4.758 4.758 0 0 1-.902 1.621l3.43 2.914a9.264 9.264 0 0 0 1.756-3.156l-4.284-1.379Zm-.902 1.621a4.749 4.749 0 0 1-1.453 1.151l2.052 4.005a9.247 9.247 0 0 0 2.83-2.242l-3.429-2.914Zm-1.453 1.151a4.741 4.741 0 0 1-1.784.508l.363 4.485a9.257 9.257 0 0 0 3.473-.988l-2.052-4.005Zm-1.687.502-.56.021.168 4.497.56-.021-.168-4.497Zm-.476.02H22.44v4.5h68.863v-4.5Zm-68.863 0a4.753 4.753 0 0 1-3.36-1.392l-3.182 3.182a9.252 9.252 0 0 0 6.542 2.71v-4.5Zm-3.36-1.392a4.752 4.752 0 0 1-1.392-3.36h-4.5c0 2.454.975 4.807 2.71 6.542l3.182-3.182Zm-1.393-3.272.02-.54-4.496-.175-.02.539 4.496.176Zm.016-.455 5.923-76.999-4.486-.345-5.924 76.999 4.487.345Zm5.923-76.998a4.751 4.751 0 0 1 1.51-3.121l-3.057-3.302a9.252 9.252 0 0 0-2.94 6.077l4.487.346Zm1.51-3.121a4.752 4.752 0 0 1 3.228-1.265v-4.5c-2.33 0-4.575.88-6.285 2.463l3.057 3.302Zm55.02-3.518v-4.517h-4.5v4.517h4.5Zm0-4.517c0-5.478-4.744-8.338-9.15-9.783C66.402 1.194 60.883.75 56.902.75v4.5c3.755 0 8.739.43 12.702 1.73 4.163 1.365 6.053 3.25 6.053 5.508h4.5ZM56.9.75c-4.071 0-9.611.719-14.216 2.502-4.416 1.71-9.039 4.859-9.039 10.25h4.5c0-2.344 2.011-4.446 6.164-6.054C48.272 5.914 53.235 5.25 56.9 5.25V.75ZM33.645 13.503v3.5h4.5v-3.5h-4.5Zm14.726 69.933a246.094 246.094 0 0 1 1.34 1.808l-.003.002a.1.1 0 0 1-.005.004l-.008.005-.003.003.04-.027c.048-.03.137-.087.268-.16.261-.146.689-.36 1.283-.581 1.184-.441 3.047-.915 5.599-.915v-4.5c-3.123 0-5.516.582-7.168 1.197-.824.307-1.46.62-1.908.87a9.12 9.12 0 0 0-.743.463l-.02.015-.008.006-.004.003-.002.001c0 .001-.001.002 1.342 1.806Zm8.51.14c2.769 0 4.738.48 5.968.922a9.31 9.31 0 0 1 1.319.581 4.492 4.492 0 0 1 .303.182l-.005-.004-.009-.006-.006-.005-.003-.002a.04.04 0 0 0-.002-.001s-.001-.001 1.342-1.806c1.343-1.806 1.342-1.806 1.341-1.807l-.002-.001-.004-.003a.544.544 0 0 0-.03-.022 5.009 5.009 0 0 0-.219-.149 8.875 8.875 0 0 0-.542-.321 13.79 13.79 0 0 0-1.96-.87c-1.705-.614-4.189-1.189-7.49-1.189v4.5Z" fill="#545459"/><path d="M23.606 18.87a7.002 7.002 0 0 0-2.224 4.6L18.11 66l49.008-49.007-38.755.014a7.001 7.001 0 0 0-4.757 1.864Zm38.898 89.14 33.652-33.652-1.09-13.41-47.062 47.062h14.5Zm35.458-4.854a7.004 7.004 0 0 0 .314-2.715l-.955-11.749-19.317 19.318h13.298l.56-.021a7.027 7.027 0 0 0 2.629-.748 7.008 7.008 0 0 0 3.471-4.085Z" fill="#887DA7" fill-opacity=".08"/><path d="M39.78 16.842a4.296 4.296 0 1 1-8.592 0 4.296 4.296 0 0 1 8.591 0Zm42.003 0a4.296 4.296 0 1 1-8.592 0 4.296 4.296 0 0 1 8.592 0ZM47.734 69.153a3.5 3.5 0 1 1-7 0 3.5 3.5 0 0 1 7 0Zm24.602 0a3.5 3.5 0 1 1-7 0 3.5 3.5 0 0 1 7 0Z" fill="#545459"/><path d="m14.46 26.731-2.077 21.21m90.865 31.295 2.076 21.209" stroke="#545459" stroke-width="3" stroke-linecap="round"/></svg>