<svg width="8" height="6" viewBox="0 0 8 6" fill="none" xmlns="http://www.w3.org/2000/svg">
<path d="M2.77433 5.7877C2.70766 5.7877 2.64516 5.77719 2.58683 5.7562C2.5285 5.73553 2.47433 5.7002 2.42433 5.6502L0.274329 3.5002C0.182662 3.40853 0.138829 3.2897 0.142829 3.1437C0.147162 2.99803 0.195162 2.87936 0.286829 2.7877C0.378495 2.69603 0.495162 2.6502 0.636829 2.6502C0.778496 2.6502 0.895162 2.69603 0.986829 2.7877L2.77433 4.5752L7.01183 0.337695C7.1035 0.246029 7.22233 0.200195 7.36833 0.200195C7.514 0.200195 7.63266 0.246029 7.72433 0.337695C7.816 0.429362 7.86183 0.548029 7.86183 0.693695C7.86183 0.839695 7.816 0.958529 7.72433 1.0502L3.12433 5.6502C3.07433 5.7002 3.02016 5.73553 2.96183 5.7562C2.9035 5.77719 2.841 5.7877 2.77433 5.7877Z" fill="white"/>
</svg>
