<svg width="39" height="45" viewBox="0 0 39 45" fill="none" xmlns="http://www.w3.org/2000/svg">
<path d="M1.77732 7.5916L1.63116 7.55787C1.60095 7.68878 1.56496 7.81307 1.52768 7.94178C1.5084 8.00834 1.48878 8.07608 1.46944 8.14653C1.41405 8.34832 1.36445 8.5614 1.34787 8.79351L1.3477 8.7935L1.34754 8.80064C1.29629 10.96 1.22158 12.9531 1.15231 14.8011C1.06429 17.1495 0.985047 19.2635 0.9739 21.1864C0.953957 24.6268 1.15102 27.4828 1.90953 30.0249C3.43088 35.1236 7.19808 38.9185 15.851 43.6653C16.7596 44.1841 17.6162 44.2511 18.5624 43.8596L18.5626 43.8595C18.6953 43.8044 18.9091 43.7248 19.1905 43.6201C20.6287 43.0845 23.8341 41.891 27.0209 39.947C30.8274 37.6249 34.6549 34.205 35.412 29.5045C37.0126 19.6834 37.7758 14.8248 37.9708 12.3567C38.0196 11.7387 38.0332 11.2658 38.0146 10.8999C37.9961 10.5351 37.9453 10.2675 37.8591 10.0654C37.6902 9.66882 37.3949 9.55366 37.0929 9.43591C37.0717 9.42763 37.0504 9.41933 37.0291 9.41093C36.8714 9.34856 36.5147 9.169 35.9988 8.89628C35.4865 8.62545 34.8256 8.26732 34.0648 7.85245C33.6431 7.6225 33.1909 7.37515 32.7165 7.1157C31.4797 6.43932 30.0925 5.68064 28.7045 4.93327C26.7843 3.89928 24.8601 2.88561 23.3278 2.13991C22.562 1.7672 21.8916 1.46026 21.3675 1.25104C21.1056 1.14651 20.8775 1.06529 20.6908 1.01249C20.5101 0.961402 20.3487 0.930971 20.2297 0.944195L20.2297 0.944181L20.2276 0.944436C20.0267 0.969548 19.5875 1.08343 18.9874 1.25779C18.3818 1.43375 17.5992 1.67527 16.7027 1.96137C14.9097 2.53362 12.6582 3.28509 10.4497 4.0491C8.24143 4.81306 6.07484 5.59002 4.45191 6.21321C3.64081 6.52467 2.96344 6.7985 2.48401 7.01355C2.24481 7.12084 2.05151 7.21499 1.9146 7.29297C1.84661 7.3317 1.78817 7.36887 1.74393 7.40388C1.72187 7.42134 1.69981 7.441 1.68122 7.46277C1.66439 7.48248 1.64 7.51578 1.63054 7.56069L1.77732 7.5916ZM1.77732 7.5916C1.74623 7.72633 1.70823 7.85761 1.67023 7.98888C1.59423 8.25144 1.51822 8.514 1.49749 8.8042L20.2462 1.09328C18.7538 1.27983 1.90169 7.00084 1.77732 7.5916ZM20.6741 2.34548L20.6741 2.3455L20.6766 2.34677C20.9112 2.46405 22.064 3.05652 23.6541 3.87368C27.9192 6.06564 35.3301 9.87424 36.5999 10.4638L36.5999 10.4638L36.6029 10.4652C36.6286 10.4764 36.6489 10.4849 36.6654 10.4919C36.6977 10.5055 36.7158 10.5131 36.732 10.5231C36.7387 10.5272 36.7387 10.5272 36.7383 10.5275C36.7381 10.5277 36.7379 10.5279 36.738 10.5285C36.7423 10.5447 36.7457 10.5843 36.7344 10.6775C36.7235 10.7673 36.7015 10.8904 36.6674 11.0646C36.6498 11.1547 36.6292 11.2572 36.6058 11.3739C36.4484 12.1585 36.1614 13.5887 35.7684 16.2443C35.2629 19.6432 34.9537 22.177 34.7219 24.1326C34.6971 24.342 34.6731 24.5446 34.65 24.7409C34.4564 26.3805 34.3151 27.5778 34.1407 28.5446C33.9461 29.6237 33.7116 30.4076 33.321 31.1877C32.9292 31.9705 32.3772 32.7556 31.5387 33.8349L31.5385 33.8352C29.9715 35.863 26.7281 38.2374 23.6091 39.9715C22.0517 40.8374 20.5331 41.5392 19.2797 41.9565C18.6527 42.1653 18.0967 42.3013 17.638 42.3523C17.1744 42.4039 16.8326 42.3661 16.6165 42.2515L16.6155 42.251C13.6098 40.6862 10.056 38.3009 7.2909 35.4662C4.52206 32.6276 2.56721 29.3627 2.7045 26.0357C2.76677 24.6034 2.87562 20.832 2.92615 17.069C2.97658 13.3141 2.96935 9.54994 2.79715 8.13597C2.79319 8.088 2.79199 8.06437 2.79363 8.0474C2.79417 8.04178 2.79489 8.03917 2.79512 8.03843C2.79519 8.03834 2.79529 8.03821 2.79541 8.03804C2.79767 8.03517 2.809 8.02274 2.84846 8.00194C2.88752 7.98137 2.94458 7.95744 3.02902 7.92708C3.16326 7.87881 3.35117 7.81965 3.61766 7.73574C3.68728 7.71382 3.76227 7.69021 3.84307 7.66466C4.23088 7.54204 4.74684 7.37654 5.43206 7.14295C9.75001 5.69793 12.8041 4.6601 14.9772 3.92164C16.7566 3.31698 17.9453 2.91304 18.7535 2.65065C19.6566 2.35742 20.0665 2.24741 20.29 2.22692C20.3942 2.21737 20.4459 2.22876 20.4855 2.24427C20.5081 2.25316 20.531 2.26511 20.562 2.28271C20.569 2.28668 20.5766 2.29104 20.5847 2.2957C20.6102 2.31041 20.6408 2.32804 20.6741 2.34548Z" fill="#202020" stroke="#202020" stroke-width="0.3"/>
<path d="M29.4185 31.253C31.4395 28.6101 31.3462 26.9311 32.0303 22.0807C33.7093 10.2967 34.0824 12.2866 30.7555 10.421C27.3664 8.55548 23.9151 6.78321 20.5883 4.85548C20.3084 4.70002 20.0286 4.66892 19.7488 4.79329C5.35296 10.8252 5.94372 8.27565 5.91262 12.1622C5.78825 25.874 5.57061 26.558 6.72103 28.8588C8.92859 33.2429 12.4109 36.321 16.7328 38.4975C19.3757 39.8656 26.8067 34.6731 29.4185 31.253ZM17.3236 37.4404C12.3177 35.1395 7.62271 30.5378 6.62776 25.0656C6.56557 24.6925 6.56557 25.0345 6.78322 17.479C7.00086 9.86136 6.68994 10.2345 7.21851 10.079C10.1723 9.14624 19.3757 5.91262 19.4067 5.91262C20.2773 5.50842 20.153 5.72607 29.1076 10.421C32.4345 12.1622 32.4656 11.9446 32.3723 12.5042C31.3462 19.158 31.1908 21.8941 30.6 26.1538C29.6673 32.7454 18.9093 38.1866 17.3236 37.4404Z" fill="#202020"/>
<path d="M11.6325 37.7573L11.6316 37.7567C7.98948 34.967 6.22278 32.8033 5.29744 31.325C4.83486 30.5861 4.5808 30.0157 4.40653 29.6174C4.39997 29.6024 4.39351 29.5876 4.38713 29.573C4.30978 29.3961 4.24445 29.2466 4.18206 29.1364C4.11798 29.0231 4.0339 28.9069 3.90068 28.8699L3.69993 28.8141L3.71074 29.0222C3.72762 29.3472 3.84222 29.7358 4.02623 30.1628C4.21113 30.5919 4.47031 31.0693 4.78503 31.5743C5.41451 32.5844 6.27177 33.7141 7.21801 34.8027C8.1644 35.8915 9.20238 36.9424 10.1946 37.7943C11.1838 38.6435 12.1383 39.3045 12.9172 39.6016L13.2873 39.7428L13.1035 39.3919C12.9292 39.0592 12.7748 38.8141 12.5535 38.5683C12.3343 38.3247 12.0534 38.0847 11.6325 37.7573Z" fill="#202020" stroke="#202020" stroke-width="0.3"/>
<path d="M22.4401 4.17644L22.4406 4.17671L33.2265 9.87925C33.2276 9.87963 33.2288 9.87999 33.2299 9.88036C33.3233 9.91083 33.4172 9.91386 33.5 9.87921C33.5853 9.84348 33.6425 9.77411 33.6664 9.69455C33.713 9.53915 33.6319 9.36661 33.4642 9.29112C32.964 9.02226 32.412 8.72179 31.8122 8.39535C29.4324 7.10007 26.3009 5.39568 22.6749 3.63231L22.6749 3.63231L22.6743 3.63206C22.4607 3.52919 22.2851 3.45918 22.1551 3.42189C22.0912 3.40357 22.0308 3.39089 21.9789 3.38886C21.9533 3.38786 21.9214 3.38905 21.8892 3.39852C21.8568 3.40802 21.8093 3.43067 21.7794 3.48291C21.749 3.53627 21.7542 3.59007 21.7642 3.62481C21.7739 3.65843 21.7912 3.68661 21.8065 3.70768C21.8374 3.75039 21.883 3.79446 21.9361 3.83872C22.0443 3.92889 22.2116 4.0425 22.4401 4.17644Z" fill="#202020" stroke="#202020" stroke-width="0.3"/>
<path d="M14.236 39.9647L13.9679 39.9814L14.1228 40.2009C14.3086 40.4641 14.4492 40.6373 14.6317 40.7449C14.8149 40.853 15.0249 40.8856 15.3179 40.9165L15.6301 40.9494L15.4596 40.6858C15.2852 40.4164 15.1224 40.2217 14.9254 40.1026C14.7231 39.9803 14.5026 39.948 14.236 39.9647Z" fill="#202020" stroke="#202020" stroke-width="0.3"/>
<path d="M34.5833 10.6616L34.602 10.6651L34.6209 10.6639C34.7524 10.6551 34.8672 10.6235 34.9504 10.5603C35.041 10.4915 35.0867 10.3893 35.0702 10.2785C35.0554 10.178 34.993 10.0927 34.9185 10.0287C34.8419 9.96301 34.7411 9.9094 34.6239 9.87335L34.624 9.87335L34.6229 9.87305C34.5039 9.83733 34.3882 9.85633 34.2982 9.91865C34.2108 9.97914 34.1562 10.0745 34.1434 10.1769C34.1304 10.2812 34.1606 10.3917 34.2391 10.4822C34.317 10.5721 34.4343 10.6337 34.5833 10.6616Z" fill="#202020" stroke="#202020" stroke-width="0.3"/>
<path d="M20.9035 19.2546L20.904 19.254C22.0297 17.7687 23.3035 16.4401 24.383 15.4819C24.9226 15.0029 25.4159 14.6144 25.8198 14.3446C26.0216 14.2099 26.2037 14.103 26.3598 14.0292C26.5097 13.9584 26.6524 13.9099 26.7718 13.9089C26.7731 13.9089 26.7744 13.9089 26.7756 13.9089V14.0589C27.4286 14.0278 27.553 14.5874 27.2109 14.9294L20.9035 19.2546ZM20.9035 19.2546C18.8915 21.9373 18.0316 23.6247 17.6316 24.4523C17.6007 24.5162 17.5729 24.5742 17.5477 24.6267C17.5183 24.6882 17.4924 24.7421 17.4694 24.7892C17.4657 24.7718 17.4618 24.7537 17.4578 24.7346C17.4438 24.669 17.4277 24.593 17.4078 24.5046C17.1887 23.4998 17.0241 22.6898 16.8912 22.0361C16.7519 21.3511 16.6475 20.8376 16.5519 20.4512C16.3649 19.6951 16.1972 19.3537 15.8074 19.1495C15.1277 18.7935 14.3721 18.6588 13.6119 18.8899C13.5496 18.908 13.4882 18.9251 13.4284 18.9418C13.2913 18.9801 13.163 19.0159 13.0538 19.0551C12.8949 19.1121 12.7464 19.1858 12.6418 19.3121C12.5334 19.4429 12.4888 19.6094 12.4941 19.8168C12.4993 20.0208 12.5529 20.2762 12.6523 20.6011C12.8514 21.2515 13.2484 22.2232 13.8796 23.701C14.121 24.2662 14.3967 24.9054 14.7092 25.6301C15.2163 26.8061 15.8205 28.207 16.5326 29.8814L16.5327 29.8818C16.7521 30.3937 17.2821 30.5736 17.7075 30.474C17.9223 30.4238 18.1211 30.3003 18.2417 30.1017C18.3632 29.9017 18.3941 29.6442 18.308 29.3486C18.2575 29.1406 18.2622 28.8653 18.3207 28.5302C18.379 28.1955 18.4891 27.8117 18.6394 27.3939C18.94 26.5582 19.3969 25.5996 19.9045 24.6464C20.9192 22.7409 22.1283 20.8728 22.6704 20.0828C24.0175 18.1474 25.0834 16.9898 25.8559 16.2671C26.2422 15.9058 26.5563 15.6523 26.7976 15.4634C26.8413 15.4293 26.8833 15.3967 26.9234 15.3656C27.0967 15.2313 27.2342 15.1247 27.3191 15.0334L20.9035 19.2546Z" fill="#202020" stroke="#202020" stroke-width="0.3"/>
<path d="M18.4537 35.8713C18.4536 35.8713 18.454 35.871 18.4547 35.8704L18.4537 35.8713ZM27.2449 30.4928L27.0432 30.2831C26.8218 30.4096 26.5406 30.6643 26.1874 30.9842C26.1647 31.0048 26.1416 31.0257 26.1182 31.0469C25.7253 31.4024 25.2296 31.847 24.5934 32.3347C23.3219 33.3095 21.4858 34.4596 18.7974 35.402L18.8471 35.5436L18.7976 35.402C18.6342 35.4591 18.5091 35.5082 18.4201 35.5492C18.3759 35.5696 18.3376 35.5894 18.307 35.6084C18.2833 35.6232 18.2408 35.6512 18.2147 35.6942C18.1996 35.719 18.178 35.7695 18.1973 35.8304C18.2161 35.8895 18.261 35.9179 18.2848 35.9293C18.3279 35.9501 18.3762 35.9518 18.4031 35.952C18.469 35.9524 18.5614 35.941 18.6704 35.9215C19.112 35.8424 19.9656 35.6036 20.9862 35.193C23.0238 34.3733 25.7734 32.8503 27.2449 30.4928Z" fill="#202020" stroke="#202020" stroke-width="0.3"/>
<path d="M8.94363 10.4795L8.81524 10.5579L8.8941 10.6861C8.92581 10.7376 8.97356 10.7641 9.01139 10.7778C9.04953 10.7917 9.09035 10.7975 9.12836 10.7996C9.20456 10.804 9.29806 10.7953 9.40091 10.7789C9.60852 10.7458 9.88556 10.6761 10.2053 10.5823C10.8463 10.3942 11.6791 10.1032 12.5139 9.79189C13.3493 9.48032 14.1895 9.14735 14.8465 8.8746C15.175 8.73826 15.4583 8.61667 15.6728 8.52014C15.8805 8.42664 16.0386 8.35016 16.103 8.30556L16.4487 8.06624L16.0296 8.03271C15.9086 8.02303 15.7246 8.04911 15.5094 8.09364C15.2885 8.13935 15.0174 8.2084 14.7132 8.2944C14.1045 8.4665 13.3562 8.7085 12.5985 8.97341C11.8406 9.23838 11.0716 9.52688 10.4212 9.7923C9.77405 10.0564 9.23504 10.3014 8.94363 10.4795Z" fill="#202020" stroke="#202020" stroke-width="0.3"/>
<path d="M27.7101 30.0941L27.7185 30.0957L27.727 30.0965C27.8824 30.1094 28.018 30.0255 28.1151 29.9345C28.2157 29.8402 28.3 29.716 28.357 29.5952C28.4118 29.4793 28.453 29.3426 28.4394 29.2257C28.4323 29.1646 28.4076 29.0903 28.3409 29.0384C28.2731 28.9856 28.1913 28.9786 28.119 28.9906L28.119 28.9903L28.1093 28.9926C27.8058 29.064 27.551 29.2685 27.4361 29.4838C27.3791 29.5908 27.3452 29.7234 27.3904 29.8494C27.4388 29.9846 27.56 30.064 27.7101 30.0941Z" fill="#202020" stroke="#202020" stroke-width="0.3"/>
<path d="M17.4747 7.31959L17.4748 7.31954L17.4707 7.31892C17.2134 7.27933 17.0195 7.38911 16.9503 7.56879C16.8892 7.72769 16.9416 7.94881 17.1503 8.01334C17.3889 8.10455 17.6042 7.96929 17.6966 7.81708C17.7439 7.7392 17.7749 7.63228 17.7392 7.52621C17.7001 7.41008 17.5979 7.34198 17.4747 7.31959Z" fill="#202020" stroke="#202020" stroke-width="0.3"/>
</svg>
