<svg width="24" height="24" viewBox="0 0 24 24" fill="none" xmlns="http://www.w3.org/2000/svg"><path d="M8.92 12c0-1.586 1.3-2.855 2.895-2.855 1.599 0 2.903 1.285 2.903 2.855s-1.304 2.855-2.903 2.855C10.22 14.855 8.92 13.57 8.92 12Zm2.895-12C6.128 0 1.364 3.84.011 9.023a.583.583 0 0 0 .571.7h4.911c.234 0 .44-.132.523-.335a6.41 6.41 0 0 1 5.803-3.672c3.518 0 6.382 2.82 6.382 6.288 0 3.47-2.864 6.29-6.386 6.29-2.57 0-4.786-1.5-5.799-3.673a.599.599 0 0 0-.523-.336H.583A.576.576 0 0 0 0 14.86c0 .039.015.075.015.12C1.356 20.16 6.128 24 11.815 24 18.542 24 24 18.625 24 12c0-6.621-5.458-12-12.185-12Z" fill="#626262"/></svg>