<svg width="172" height="24" viewBox="0 0 172 24" fill="none" xmlns="http://www.w3.org/2000/svg"><path d="M0 22.209h20.776l-1.194 1.672H0v-1.672Zm171.343 1.671H145.91l1.314-1.671h24.239v1.672h-.12ZM0 19.105h23.164l-1.313 1.671H0v-1.671ZM0 16h25.552l-1.313 1.672H0V16Zm171.343 4.776h-23.045l1.314-1.671h21.851v1.671h-.12ZM151.881 16h19.462v1.672h-20.776L151.881 16ZM22.448 23.88 33.433 9.195h13.612c1.552 0 1.552.597.716 1.552-.716.955-2.03 2.746-2.746 3.702-.358.597-1.075 1.432 1.194 1.432h18.269C63.045 18.03 58.03 24 49.194 24c-7.164-.12-26.746-.12-26.746-.12ZM85.373 16l-5.97 8H63.761l5.97-8h15.642Zm22.806 0-5.97 8H86.448l5.97-8h15.761Zm5.134 0s-1.194 1.552-1.671 2.269c-2.03 2.627-.239 5.731 6.209 5.731h25.313l5.97-8h-35.821Z" fill="#D40511"/><path d="m30.209.12-5.493 7.283h29.851c1.552 0 1.552.597.716 1.552-.716.955-2.03 2.746-2.746 3.702-.358.477-1.074 1.432 1.194 1.432h12.18s2.03-2.626 3.581-4.895c2.27-2.985.24-9.194-7.76-9.194-7.165.12-31.523.12-31.523.12Zm79.283 13.97H71.045L81.552.12h15.761l-5.97 8h7.045l5.97-8h15.761l-10.627 13.97ZM141.851.12l-10.508 13.97h-16.716L125.134.12h16.717Z" fill="#D40511"/></svg>