<svg width="125" height="38" viewBox="0 0 125 38" fill="none" xmlns="http://www.w3.org/2000/svg"><path d="m103.282 13.39 5.131 5.654 4.939-5.654h10.547l-10.307 11.59 10.448 11.686h-10.972l-5.082-5.698-5.036 5.698H92.354l10.358-11.637-10.358-11.64h10.928Z" fill="#FF5900"/><path d="M92.355 13.39v7.864H80.624v7.217h11.73v8.195h-20.35V0h20.352v8.173H80.624v5.217h11.73Z" fill="#FF5900"/><path d="M63.418 0v15.006h-.094c-1.902-2.185-4.276-2.945-7.031-2.945-5.644 0-9.896 3.839-11.388 8.91-1.704-5.588-6.094-9.015-12.602-9.015-5.286 0-9.46 2.373-11.638 6.239V13.39H9.74V8.173h11.924V0H0v36.666h9.739V21.255h9.708a14.607 14.607 0 0 0-.444 3.625c0 7.648 5.843 13.016 13.3 13.016 6.27 0 10.404-2.944 12.588-8.31h-8.347c-1.128 1.613-1.984 2.09-4.241 2.09-2.617 0-4.874-2.282-4.874-4.989h16.995C45.162 32.761 49.894 38 56.388 38c2.8 0 5.366-1.378 6.934-3.704h.095v2.374H72V0h-8.583ZM27.701 21.363c.541-2.33 2.348-3.85 4.603-3.85 2.483 0 4.197 1.474 4.648 3.85h-9.251Zm30.506 9.722c-3.165 0-5.132-2.95-5.132-6.029 0-3.29 1.71-6.455 5.132-6.455 3.547 0 4.96 3.165 4.96 6.456 0 3.12-1.497 6.028-4.96 6.028Z" fill="#7035E3"/></svg>