<svg width="125" height="38" viewBox="0 0 125 38" fill="none" xmlns="http://www.w3.org/2000/svg"><path d="M77.322 29.373c-7.243 5.338-17.741 8.186-26.78 8.186-12.673 0-24.083-4.687-32.715-12.483-.678-.613-.07-1.449.744-.971 9.315 5.42 20.833 8.68 32.73 8.68 8.025 0 16.852-1.66 24.968-5.105 1.226-.52 2.252.803 1.053 1.693Z" fill="#F90"/><path d="M80.333 25.928c-.922-1.183-6.12-.56-8.453-.283-.71.087-.82-.531-.179-.976 4.14-2.913 10.932-2.073 11.724-1.096.792.982-.206 7.79-4.096 11.04-.597.5-1.166.234-.9-.428.873-2.181 2.831-7.07 1.904-8.257Z" fill="#F90"/><path d="M72.043 4.102V1.269c0-.428.325-.716.716-.716h12.679c.407 0 .732.293.732.716v2.426c-.005.407-.347.938-.954 1.78l-6.57 9.38c2.44-.06 5.018.303 7.231 1.551.5.282.635.695.673 1.102v3.021c0 .413-.456.896-.933.646-3.9-2.045-9.082-2.268-13.395.022-.44.238-.9-.239-.9-.651v-2.87c0-.461.005-1.248.466-1.948L79.4 4.812h-6.625c-.407 0-.732-.287-.732-.71Zm-46.251 17.67h-3.857a.729.729 0 0 1-.69-.657V1.318c0-.396.331-.71.744-.71h3.597a.726.726 0 0 1 .7.662v2.587h.07c.939-2.5 2.702-3.667 5.078-3.667 2.415 0 3.923 1.166 5.008 3.667.933-2.5 3.054-3.667 5.328-3.667 1.616 0 3.385.667 4.465 2.165 1.22 1.665.97 4.085.97 6.206L47.2 21.056a.729.729 0 0 1-.743.716h-3.852c-.385-.027-.694-.336-.694-.716V10.563c0-.835.076-2.919-.109-3.71-.287-1.33-1.15-1.704-2.268-1.704-.933 0-1.91.624-2.305 1.622-.396.998-.358 2.67-.358 3.792v10.493a.729.729 0 0 1-.744.716h-3.852a.73.73 0 0 1-.694-.716l-.006-10.493c0-2.208.364-5.458-2.376-5.458-2.772 0-2.664 3.169-2.664 5.458v10.493c0 .396-.33.716-.743.716ZM97.086.19c5.724 0 8.822 4.915 8.822 11.165 0 6.039-3.424 10.83-8.822 10.83-5.62 0-8.68-4.916-8.68-11.041C88.406 4.98 91.504.19 97.086.19Zm.033 4.042c-2.843 0-3.022 3.873-3.022 6.288 0 2.42-.038 7.584 2.99 7.584 2.989 0 3.13-4.166 3.13-6.705 0-1.671-.071-3.668-.575-5.252-.434-1.378-1.297-1.915-2.523-1.915Zm16.211 17.54h-3.842c-.385-.027-.694-.336-.694-.716l-.005-19.803c.032-.363.352-.645.743-.645h3.575a.739.739 0 0 1 .689.553v3.027h.071C114.946 1.481 116.46.19 119.124.19c1.73 0 3.418.624 4.503 2.333 1.009 1.584 1.009 4.248 1.009 6.163v12.462c-.043.347-.364.624-.743.624h-3.869c-.352-.027-.645-.288-.683-.624V10.395c0-2.165.249-5.333-2.414-5.333-.939 0-1.802.63-2.23 1.584-.543 1.21-.613 2.414-.613 3.749v10.66a.742.742 0 0 1-.754.717Zm-51.395-9.456v-.836c-2.788 0-5.734.597-5.734 3.884 0 1.666.862 2.795 2.344 2.795 1.085 0 2.056-.668 2.669-1.753.76-1.334.721-2.588.721-4.09Zm3.89 9.402a.806.806 0 0 1-.911.092c-1.28-1.064-1.508-1.557-2.214-2.572-2.116 2.16-3.613 2.805-6.358 2.805-3.245 0-5.773-2.002-5.773-6.011 0-3.13 1.698-5.263 4.113-6.304 2.094-.923 5.018-1.085 7.253-1.34v-.5c0-.916.07-2.002-.466-2.794-.472-.71-1.373-1.003-2.165-1.003-1.47 0-2.783.754-3.103 2.316-.065.348-.32.69-.668.706L51.79 6.71c-.315-.07-.662-.325-.575-.808C52.078 1.367 56.174 0 59.84 0c1.877 0 4.33.5 5.81 1.92 1.878 1.753 1.699 4.091 1.699 6.636v6.011c0 1.807.749 2.599 1.454 3.575.25.348.304.765-.011 1.026-.787.656-2.186 1.877-2.957 2.56l-.01-.01Zm-54.459-9.402v-.836c-2.789 0-5.735.597-5.735 3.884 0 1.666.863 2.795 2.344 2.795 1.085 0 2.056-.668 2.67-1.753.759-1.334.721-2.588.721-4.09Zm3.89 9.402a.806.806 0 0 1-.911.092c-1.28-1.064-1.509-1.557-2.214-2.572-2.116 2.16-3.613 2.805-6.358 2.805C2.528 22.043 0 20.041 0 16.032c0-3.13 1.698-5.263 4.112-6.304 2.095-.923 5.019-1.085 7.254-1.34v-.5c0-.916.07-2.002-.466-2.794-.473-.71-1.373-1.003-2.165-1.003-1.47 0-2.783.754-3.104 2.316-.065.348-.32.69-.667.706L1.221 6.71c-.315-.07-.662-.325-.575-.808C1.508 1.367 5.604 0 9.272 0c1.877 0 4.33.5 5.81 1.92 1.878 1.753 1.698 4.091 1.698 6.636v6.011c0 1.807.75 2.599 1.454 3.575.25.348.304.765-.01 1.026-.787.656-2.187 1.877-2.957 2.56l-.011-.01Z" fill="#fff"/></svg>