<svg width="119" height="35" viewBox="0 0 119 35" fill="none" xmlns="http://www.w3.org/2000/svg">
<g clip-path="url(#clip0_464_707)">
<path d="M29.7405 7.28369C30.5053 8.28815 31.1528 9.37941 31.6697 10.5356L17.0047 21.5177L10.8758 17.6147V12.9192L17.0047 16.8222L29.7405 7.28369Z" fill="#00738E" fill-opacity="0.8"/>
<path d="M4.62072 17.2832C4.62072 17.0725 4.62578 16.8632 4.63589 16.6551L0.921596 16.4702C0.908954 16.7399 0.901372 17.0122 0.901372 17.287C0.899791 19.4342 1.31553 21.5605 2.12474 23.544C2.93395 25.5276 4.12071 27.3293 5.61693 28.8458L8.25157 26.1706C7.09983 25.0053 6.18616 23.6202 5.56305 22.095C4.93994 20.5698 4.6197 18.9345 4.62072 17.2832Z" fill="#00738E" fill-opacity="0.8"/>
<path d="M17.0013 4.70606C17.2086 4.70606 17.4146 4.71377 17.6194 4.72404L17.8052 0.949452C17.539 0.936609 17.2709 0.930188 17.0013 0.930188C14.8866 0.927568 12.7925 1.3493 10.8388 2.17117C8.88515 2.99304 7.11054 4.19886 5.61688 5.71939L8.25153 8.39589C9.39866 7.22547 10.7622 6.29694 12.2638 5.66371C13.7654 5.03048 15.3754 4.70502 17.0013 4.70606Z" fill="#00738E" fill-opacity="0.8"/>
<path d="M17.0013 29.8606C16.794 29.8606 16.5879 29.8606 16.3819 29.8439L16.196 33.6172C16.4632 33.6309 16.7316 33.6378 17.0013 33.6378C19.115 33.64 21.2082 33.218 23.1608 32.3959C25.1134 31.5738 26.8869 30.3678 28.3794 28.8473L25.7498 26.1721C24.6025 27.3419 23.239 28.2699 21.7377 28.9029C20.2364 29.5359 18.6268 29.8614 17.0013 29.8606Z" fill="#00738E" fill-opacity="0.8"/>
<path d="M23.9799 6.90078L27.1101 4.55691C24.2491 2.20336 20.6777 0.922178 16.9963 0.928736V4.70589C19.4892 4.70275 21.9243 5.46809 23.9799 6.90078Z" fill="#00738E" fill-opacity="0.8"/>
<path d="M33.1001 17.2831C33.1021 16.3005 33.0175 15.3196 32.8472 14.3523L29.382 16.9466C29.382 17.0584 29.382 17.1701 29.382 17.2831C29.3829 19.0404 29.0202 20.7783 28.3177 22.3841C27.6151 23.9899 26.5882 25.4278 25.3036 26.6046L27.803 29.4109C29.4731 27.8792 30.8077 26.0081 31.7202 23.9189C32.6328 21.8296 33.1029 19.5688 33.1001 17.2831Z" fill="#00738E" fill-opacity="0.8"/>
<path d="M17.0014 29.8605C15.2714 29.8611 13.5606 29.4926 11.9797 28.7789C10.3989 28.0652 8.98321 27.0221 7.82435 25.7173L5.06329 28.2551C6.57083 29.952 8.41261 31.308 10.4692 32.2353C12.5258 33.1625 14.7513 33.6403 17.0014 33.6376V29.8605Z" fill="#00738E" fill-opacity="0.8"/>
<path d="M8.69912 7.96149L6.20101 5.15527C4.53043 6.68665 3.19535 8.55765 2.28236 10.6469C1.36938 12.7362 0.898878 14.9971 0.901377 17.283H4.62073C4.61996 15.5258 4.98262 13.7879 5.68519 12.1821C6.38776 10.5763 7.41458 9.1384 8.69912 7.96149Z" fill="#00738E" fill-opacity="0.8"/>
<mask id="mask0_464_707" style="mask-type:luminance" maskUnits="userSpaceOnUse" x="41" y="6" width="78" height="23">
<path d="M118.5 6.61865H41.769V28.2394H118.5V6.61865Z" fill="white"/>
</mask>
<g mask="url(#mask0_464_707)">
<path d="M93.8084 10.2817L98.4149 6.87305H82.998V27.3558H98.4149V23.9472H87.3971V18.7005H96.7958V15.2919H87.3971V10.2817H93.8084Z" fill="#00738E" fill-opacity="0.8"/>
<path d="M72.6246 14.8527H67.2722V10.2805H75.8145L80.4181 6.86157H62.8758V27.3444H72.0585C77.2067 27.3444 80.1613 25.0008 80.1613 20.9136C80.1613 17.0035 77.4852 14.8527 72.6246 14.8527ZM71.8605 23.9347H67.2722V18.2592H71.8605C74.645 18.2592 75.9505 19.2103 75.9505 21.097C75.9505 22.9836 74.5614 23.9347 71.8605 23.9347Z" fill="#00738E" fill-opacity="0.8"/>
<path d="M109.747 6.87012H101.356V27.3528H105.754V21.5504H109.747C115.102 21.5504 118.414 18.7207 118.414 14.1993C118.414 9.67807 115.102 6.87012 109.747 6.87012ZM109.655 18.1392H105.754V10.2813H109.655C112.471 10.2813 114.025 11.6775 114.025 14.2118C114.025 16.7461 112.471 18.1392 109.655 18.1392Z" fill="#00738E" fill-opacity="0.8"/>
<path d="M56.275 22.5192C55.1387 23.1372 53.8657 23.4572 52.5737 23.4496C48.7066 23.4496 45.9012 20.6767 45.9012 16.8584C45.9012 13.04 48.7066 10.261 52.5737 10.261C53.9682 10.2373 55.3339 10.662 56.471 11.4733L59.5479 9.19735L59.3398 9.04886C57.545 7.46394 55.1468 6.62451 52.4018 6.62451C49.4244 6.62451 46.7247 7.63061 44.7971 9.461C43.8225 10.4034 43.0517 11.5376 42.5327 12.7926C42.0137 14.0476 41.7576 15.3965 41.7807 16.7553C41.76 18.1279 42.0149 19.4906 42.5301 20.7621C43.0452 22.0336 43.8101 23.1877 44.7791 24.1557C46.7156 26.0588 49.4094 27.1073 52.3656 27.1073C55.4545 27.1073 58.1543 26.0254 59.9823 24.0557L57.2282 21.995L56.275 22.5192Z" fill="#00738E" fill-opacity="0.8"/>
</g>
</g>
<defs>
<clipPath id="clip0_464_707">
<rect width="118" height="34" fill="white" transform="translate(0.5 0.5)"/>
</clipPath>
</defs>
</svg>
