<svg width="56" height="56" viewBox="0 0 56 56" fill="none" xmlns="http://www.w3.org/2000/svg"><path fill-rule="evenodd" clip-rule="evenodd" d="M13 9a5 5 0 0 0-5 5v18.873a5 5 0 0 0 5 5h8.973a.977.977 0 0 0-.003.068v5.451c0 .155.036.301.098.432h-3.823a1.5 1.5 0 0 0 0 3h18.627a1.5 1.5 0 0 0 0-3H33.05a.995.995 0 0 0 .098-.432v-5.45l-.002-.07h8.973a5 5 0 0 0 5-5V14a5 5 0 0 0-5-5H13Zm28.96 1.658H13.157a3.5 3.5 0 0 0-3.5 3.5v18.56a3.5 3.5 0 0 0 3.5 3.5H41.96a3.5 3.5 0 0 0 3.5-3.5v-18.56a3.5 3.5 0 0 0-3.5-3.5Zm-29.303 3.5a.5.5 0 0 1 .5-.5H41.96a.5.5 0 0 1 .5.5v18.56a.5.5 0 0 1-.5.5H13.157a.5.5 0 0 1-.5-.5v-18.56ZM17.21 26.23a1.5 1.5 0 0 1 1.5-1.5h17.23a1.5 1.5 0 1 1 0 3H18.71a1.5 1.5 0 0 1-1.5-1.5Zm5.691-6.62a1.5 1.5 0 1 0 0 3h9.314a1.5 1.5 0 0 0 0-3h-9.314Z" fill="url(#a)"/><defs><linearGradient id="a" x1="18.76" y1="-11.062" x2="49.282" y2="58.29" gradientUnits="userSpaceOnUse"><stop offset=".245" stop-color="#FF5C00"/><stop offset="1" stop-color="#FFA800"/></linearGradient></defs></svg>