<svg width="56" height="56" viewBox="0 0 56 56" fill="none" xmlns="http://www.w3.org/2000/svg"><path fill-rule="evenodd" clip-rule="evenodd" d="M16.694 18.89c0-6.015 4.875-10.89 10.89-10.89h2.048c5.277 0 9.423 4.515 8.975 9.773a1.5 1.5 0 0 1-2.989-.255A6.007 6.007 0 0 0 29.632 11h-2.049a7.89 7.89 0 0 0-7.889 7.89v5.807H38a6 6 0 0 1 6 6v12.276a6 6 0 0 1-6 6H18a6 6 0 0 1-6-6V30.697a6.002 6.002 0 0 1 4.694-5.857v-5.95Zm13.382 16.916a.576.576 0 0 0-.18.548l.748 2.994a.5.5 0 0 1-.485.621h-3.405a.5.5 0 0 1-.485-.62l.748-2.995a.576.576 0 0 0-.18-.548 2.343 2.343 0 1 1 3.239 0Z" fill="url(#a)"/><defs><linearGradient id="a" x1="20.802" y1="-13.732" x2="59.815" y2="53.209" gradientUnits="userSpaceOnUse"><stop offset=".245" stop-color="#FF5C00"/><stop offset="1" stop-color="#FFA800"/></linearGradient></defs></svg>