<svg width="56" height="56" viewBox="0 0 56 56" fill="none" xmlns="http://www.w3.org/2000/svg"><circle cx="28.002" cy="28.002" r="18.002" stroke="url(#a)" stroke-width="2"/><path fill-rule="evenodd" clip-rule="evenodd" d="M28 42.574c8.05 0 14.574-6.525 14.574-14.573 0-8.049-6.525-14.573-14.573-14.573-8.049 0-14.573 6.524-14.573 14.573 0 8.048 6.524 14.573 14.573 14.573Zm7.537-18.37a1.5 1.5 0 1 0-2.121-2.122l-7.862 7.862-2.988-2.89a1.5 1.5 0 0 0-2.085 2.156l4.047 3.916a1.5 1.5 0 0 0 2.104-.017l8.905-8.906Z" fill="url(#b)"/><defs><linearGradient id="a" x1="20.354" y1="-7.036" x2="48.415" y2="54.616" gradientUnits="userSpaceOnUse"><stop offset=".245" stop-color="#FF5C00"/><stop offset="1" stop-color="#FFA800"/></linearGradient><linearGradient id="b" x1="21.445" y1="-2.031" x2="45.497" y2="50.813" gradientUnits="userSpaceOnUse"><stop offset=".245" stop-color="#FF5C00"/><stop offset="1" stop-color="#FFA800"/></linearGradient></defs></svg>