<svg width="56" height="56" viewBox="0 0 56 56" fill="none" xmlns="http://www.w3.org/2000/svg"><path fill-rule="evenodd" clip-rule="evenodd" d="M31.666 7a2 2 0 0 1 2 2v6.334a2 2 0 0 0 2 2H42a2 2 0 0 1 2 2v23a6 6 0 0 1-6 6H19a6 6 0 0 1-6-6V13a6 6 0 0 1 6-6h12.666ZM19.2 21a1.5 1.5 0 0 0 0 3h9.3a1.5 1.5 0 1 0 0-3h-9.3Zm-1.595 9.297a1.5 1.5 0 0 1 1.5-1.5h18.788a1.5 1.5 0 1 1 0 3H19.105a1.5 1.5 0 0 1-1.5-1.5Zm1.5 6.013a1.5 1.5 0 0 0 0 3h12.212a1.5 1.5 0 1 0 0-3H19.105ZM37.62 7.854a.5.5 0 0 0-.853.353v5.526a.5.5 0 0 0 .5.5h5.526a.5.5 0 0 0 .353-.853L37.62 7.854Z" fill="url(#a)"/><defs><linearGradient id="a" x1="21.527" y1="-14.923" x2="61.651" y2="51.192" gradientUnits="userSpaceOnUse"><stop offset=".245" stop-color="#FF5C00"/><stop offset="1" stop-color="#FFA800"/></linearGradient></defs></svg>