<svg width="412" height="388" viewBox="0 0 412 388" fill="none" xmlns="http://www.w3.org/2000/svg">
<g clip-path="url(#clip0_84_6687)">
<path d="M86.1318 159.836C111.706 145.079 137.083 134.846 162.657 120.089C170.232 128.351 175.544 136.515 180.759 146.941C192.171 171.237 204.764 194.45 214.997 219.827C223.36 236.057 231.82 250.024 241.363 265.171C234.38 269.402 227.396 273.632 220.413 277.863C191.494 291.341 166.019 303.836 139.265 319.676C132.87 310.332 126.475 300.987 121.261 290.561C105.618 259.282 93.4173 227.019 75.4136 197.905" fill="white"/>
<path d="M86.0236 159.718C92.1908 156.019 98.4662 152.438 104.633 148.739C107.771 146.948 111.017 145.276 114.145 143.711L123.656 138.684L142.788 128.747C148.945 125.274 155.329 121.811 161.486 118.338L161.604 118.23C162.42 117.699 163.542 117.974 164.073 118.791L168.825 124.21C170.33 126.089 171.717 128.076 173.222 129.954C173.862 130.889 174.609 131.941 175.249 132.876L177.157 135.905C177.679 136.948 178.426 138 178.948 139.043L180.62 142.289C181.663 144.374 182.814 146.577 183.857 148.662L186.868 155.026L192.771 167.863L198.674 180.699C199.717 182.784 200.642 184.978 201.567 187.171L204.459 193.643L207.352 200.115C208.277 202.309 209.202 204.502 210.126 206.696L215.567 219.739L221.982 231.237L228.396 242.735C230.728 246.463 233.06 250.191 235.509 253.811L242.622 264.886C242.937 265.466 242.79 266.253 242.318 266.686L221.573 279.84L221.455 279.948L200.957 290.052L180.567 300.274L160.491 311.077C153.98 314.874 147.36 318.554 140.731 322.459C139.57 323.089 138.114 322.686 137.366 321.633L132.575 314.512L127.902 307.283L123.465 299.837L119.382 292.066L115.752 284.316C114.502 281.768 113.371 279.112 112.121 276.565C109.74 271.361 107.477 266.05 105.097 260.846C102.834 255.535 100.453 250.332 98.1897 245.02L94.6773 237.161C93.5459 234.505 92.2964 231.958 91.1649 229.302L87.5345 221.551L83.6778 213.79L81.6904 209.964L79.5851 206.246L75.4923 198.702C75.3841 198.584 75.5021 198.475 75.6202 198.367C75.7382 198.259 75.8464 198.377 75.9546 198.495L80.6277 205.724L82.9593 209.452L85.0647 213.17L89.3837 220.724L93.3584 228.377C94.7259 230.816 96.0836 233.482 97.3331 236.029L100.885 242.984C103.384 248.079 105.873 253.4 108.372 258.495C110.753 263.698 113.252 268.794 115.859 274.007C117.109 276.554 118.358 279.102 119.607 281.649L123.464 289.41L127.449 296.836L131.896 304.056L136.578 311.059L141.37 318.18L137.996 317.581C144.733 313.793 151.245 309.995 157.864 306.316L178.156 295.75C185.101 292.424 191.819 289.089 198.763 285.763L219.576 276.24L219.458 276.348L240.616 264.119L240.193 266.027L226.892 243.463L220.595 231.857L214.18 220.358L208.631 207.198C207.707 205.004 206.664 202.919 205.739 200.725L202.61 194.47L199.482 188.214C198.439 186.129 197.396 184.043 196.353 181.958L189.869 169.437L183.386 156.915L180.257 150.66C179.736 149.617 179.214 148.574 178.693 147.532L177.011 144.512L175.328 141.492C174.807 140.45 174.167 139.515 173.528 138.581C172.249 136.712 171.206 134.627 169.701 132.748C168.304 130.988 167.035 128.892 165.638 127.132L161.221 121.84L163.808 122.292C157.424 125.756 151.05 128.992 144.667 132.455C138.185 135.574 131.703 138.693 125.221 141.812C118.739 144.931 112.266 147.823 105.784 150.942C99.204 153.717 92.8302 156.954 86.3482 160.072C86.2302 160.181 86.122 160.063 86.0138 159.944C85.9056 159.826 86.0236 159.718 86.0236 159.718Z" fill="#333333"/>
<path d="M75.2172 202.43C81.1187 197.019 87.0201 191.609 92.9215 186.198C88.6911 179.214 89.0837 170.165 83.7712 162.001C84.3626 174.493 78.2649 184.429 75.5117 195.643C75.4135 197.905 75.3154 200.167 75.2172 202.43Z" fill="white"/>
<path d="M75.2172 202.43C76.4171 200.895 77.8433 199.37 79.2695 197.846L83.4299 193.379L87.5904 188.913L91.859 184.565L91.5248 187.044C91.0034 186.001 90.3639 185.067 89.8425 184.024L89.2325 182.411C89.0258 181.949 88.711 181.368 88.6224 180.798C88.3272 179.765 87.9238 178.614 87.6286 177.581C87.3334 176.549 87.0382 175.516 86.743 174.483C86.4478 173.45 86.1527 172.417 85.8575 171.385L85.3556 169.889C85.149 169.427 85.0605 168.857 84.8538 168.394L83.8799 167.332C83.6733 166.87 83.4667 166.408 83.2601 165.945L81.7843 163.388L86.1517 161.991L86.0636 166.634C85.8866 168.099 85.5917 169.673 85.4148 171.139C85.2673 171.926 85.0116 172.595 84.8642 173.382L84.3135 175.624C83.9104 177.08 83.399 178.418 82.8876 179.756C81.7468 182.54 80.7241 185.215 79.4751 187.881L77.8327 191.777L76.2986 195.79L76.3084 195.564C76.0923 197.934 75.6498 200.295 75.2172 202.43ZM75.2172 202.43C75.0891 200.158 74.961 197.885 74.8329 195.613L75.5899 191.226C75.9931 189.77 76.2782 188.422 76.6814 186.967L79.0807 178.684L79.6216 176.667C79.8871 175.772 80.1428 175.103 80.1722 174.425L80.6048 172.29C80.6342 171.611 80.8899 170.942 80.9194 170.264L81.1257 168.119C81.1552 167.441 81.4109 166.772 81.4403 166.093L81.3908 162.011L81.4006 161.785C81.3414 160.535 82.5217 159.453 83.771 159.394C84.6759 159.433 85.335 159.915 85.7581 160.614L87.4404 163.633C87.7552 164.214 87.9618 164.676 88.1685 165.138L88.7785 166.751C88.9851 167.214 89.1819 167.902 89.3885 168.364L89.9985 169.978C90.2937 171.01 90.5889 172.043 90.9923 173.194C91.2875 174.227 91.5827 175.26 91.7599 176.401C92.0551 177.434 92.3503 178.466 92.5373 179.381C92.6259 179.952 92.8325 180.414 93.0391 180.876L93.4229 182.48C93.6295 182.942 93.8361 183.404 94.0427 183.866L94.6625 185.253L94.7609 185.598C95.0659 186.404 94.9185 187.191 94.3283 187.732L89.6268 191.608L84.8171 195.366L80.2434 198.908C78.4926 200.079 76.968 201.259 75.2172 202.43Z" fill="#333333"/>
<path d="M142.31 275.607C147.129 269.016 155.195 265.966 162.178 261.736C177.13 256.718 189.916 249.339 203.884 240.878" fill="white"/>
<path d="M142.202 275.489L144.011 272.961C144.719 272.312 145.437 271.436 146.264 270.679C146.972 270.03 147.906 269.39 148.614 268.741L151.073 266.921C152.824 265.75 154.457 264.688 156.316 263.635C158.057 262.691 159.808 261.52 161.441 260.457L161.559 260.349L161.677 260.241L172.3 255.715C175.664 253.934 179.037 251.927 182.51 250.265C184.251 249.32 185.874 248.484 187.614 247.539L190.162 246.29C191.087 245.877 191.893 245.572 192.818 245.158C194.559 244.214 196.29 243.496 198.247 242.787C200.097 241.961 201.936 241.361 203.775 240.76C203.893 240.652 204.002 240.77 204.11 240.888C204.218 241.006 204.1 241.114 204.1 241.114C202.684 242.413 201.149 243.82 199.625 245C198.1 246.181 196.458 247.47 194.933 248.65C193.3 249.713 191.667 250.775 190.035 251.838C188.402 252.9 186.661 253.845 184.92 254.789C183.071 255.616 181.34 256.334 179.49 257.16L173.844 259.295L162.572 263.113L162.916 263.015C161.057 264.067 159.208 264.894 157.467 265.838C155.618 266.665 153.877 267.609 152.028 268.436L149.47 269.911L146.903 271.613L144.552 273.551L142.418 275.725C142.3 275.834 142.074 275.824 142.074 275.824C142.192 275.716 142.084 275.598 142.202 275.489Z" fill="#333333"/>
<path d="M139.26 267.542C145.161 262.131 152.145 257.901 157.948 254.753C172.899 249.735 185.686 242.356 199.653 233.895" fill="white"/>
<path d="M139.151 267.424L143.282 263.637C143.637 263.312 143.991 262.987 144.345 262.663L145.515 261.807L147.748 259.977C148.456 259.328 149.272 258.796 150.089 258.265L152.43 256.553C153.246 256.022 154.063 255.491 154.879 254.96L157.328 253.366L157.446 253.258L167.961 248.614C171.325 246.833 174.699 244.826 178.171 243.163C181.545 241.156 185.017 239.494 188.597 237.949C190.338 237.004 192.069 236.286 194.027 235.578C195.876 234.751 197.715 234.151 199.555 233.551C199.673 233.443 199.781 233.561 199.889 233.679C199.997 233.797 199.879 233.905 199.879 233.905C198.463 235.204 196.929 236.61 195.404 237.791C193.879 238.971 192.237 240.26 190.712 241.441C189.08 242.503 187.447 243.566 185.814 244.628C184.181 245.691 182.44 246.635 180.699 247.58C179.775 247.993 178.85 248.406 177.925 248.819L175.27 249.951L169.614 252.312L158.342 256.13L158.568 256.14L156.02 257.389C155.096 257.802 154.397 258.225 153.473 258.639L151.151 259.898C150.335 260.429 149.528 260.734 148.712 261.265L146.381 262.751L145.21 263.607C144.856 263.931 144.394 264.138 144.04 264.463L139.476 267.778C139.358 267.886 139.25 267.768 139.142 267.65C139.033 267.532 139.033 267.532 139.151 267.424Z" fill="#333333"/>
<path d="M135.029 260.558C149.095 249.835 167.488 243.833 183.718 235.47C187.259 232.224 190.8 228.977 195.423 226.911" fill="white"/>
<path d="M134.921 260.44C136.682 259.043 138.56 257.538 140.321 256.141C142.19 254.862 144.177 253.475 146.154 252.314C148.131 251.153 150.108 249.992 152.085 248.831L158.232 245.585C162.403 243.499 166.455 241.521 170.518 239.318C172.495 238.157 174.58 237.114 176.655 236.297C178.741 235.254 180.816 234.438 182.892 233.621L182.419 234.054C183.364 233.188 184.298 232.549 185.351 231.801C186.403 231.053 187.455 230.306 188.498 229.784C189.659 229.155 190.701 228.633 191.97 228.122C193.121 227.718 194.498 227.325 195.531 227.029C195.649 226.921 195.757 227.039 195.865 227.157C195.974 227.275 195.856 227.383 195.856 227.383C194.911 228.249 193.977 228.889 193.033 229.754C192.088 230.62 191.262 231.378 190.436 232.135C189.61 232.893 188.774 233.876 187.948 234.634C187.112 235.617 186.285 236.375 185.567 237.251C185.449 237.359 185.331 237.467 185.331 237.467L185.213 237.575C183.236 238.736 181.259 239.897 179.066 240.822C176.981 241.865 174.905 242.681 172.603 243.488C168.226 245.112 164.075 246.745 159.806 248.486L153.57 251.163L147.324 254.065C145.239 255.108 143.38 256.16 141.295 257.203L135.472 260.804C135.354 260.912 135.246 260.794 135.137 260.676C134.803 260.548 134.921 260.44 134.921 260.44Z" fill="#333333"/>
<path d="M130.799 253.575C144.766 245.114 157.553 237.736 172.504 232.718C179.487 228.487 187.553 225.437 192.372 218.846" fill="white"/>
<path d="M130.691 253.457C133.848 251.214 137.113 249.089 140.379 246.964C143.644 244.839 147.018 242.832 150.392 240.825C153.874 238.936 157.356 237.047 160.828 235.384L166.258 233.013C168.107 232.187 169.956 231.36 171.687 230.642L171.235 230.622C172.986 229.452 174.845 228.399 176.694 227.573C177.618 227.159 178.543 226.746 179.468 226.333C180.392 225.92 181.209 225.388 182.133 224.975C183.058 224.562 183.874 224.031 184.799 223.617C185.615 223.086 186.54 222.673 187.356 222.142C188.173 221.61 188.989 221.079 189.805 220.548C190.513 219.899 191.33 219.367 192.156 218.61C192.274 218.502 192.382 218.62 192.49 218.738C192.599 218.856 192.599 218.856 192.481 218.964C191.989 219.849 191.497 220.735 190.887 221.728C190.287 222.496 189.569 223.371 188.851 224.247C188.025 225.004 187.317 225.653 186.491 226.411C185.665 227.168 184.848 227.7 183.914 228.339C183.098 228.87 182.163 229.51 181.347 230.041C180.53 230.572 179.596 231.212 178.671 231.625C177.855 232.156 176.93 232.569 176.114 233.101C175.298 233.632 174.373 234.045 173.557 234.576L173.439 234.685C173.321 234.793 173.094 234.783 172.976 234.891C169.297 236.092 165.737 237.184 162.048 238.611C158.468 240.155 155.005 241.592 151.425 243.136L146.212 245.744L140.999 248.351C137.517 250.24 134.153 252.02 130.563 253.791C130.445 253.9 130.336 253.782 130.228 253.664C130.572 253.565 130.691 253.457 130.691 253.457Z" fill="#333333"/>
<path d="M126.569 246.591C139.356 239.213 153.323 230.752 168.274 225.734C176.34 222.684 183.323 218.453 188.143 211.862" fill="white"/>
<path d="M126.46 246.473C126.46 246.473 130.198 243.915 135.795 240.305C137.191 239.459 138.706 238.505 140.339 237.442C141.972 236.38 143.713 235.435 145.572 234.382C147.431 233.33 149.29 232.277 151.149 231.224C153.116 230.29 155.093 229.129 157.178 228.086C159.145 227.151 161.231 226.108 163.306 225.292C165.382 224.475 167.231 223.649 169.198 222.714C170.231 222.419 171.047 221.887 171.854 221.582C172.66 221.277 173.585 220.864 174.51 220.451C175.316 220.146 176.132 219.615 176.939 219.31C177.637 218.887 178.444 218.582 179.142 218.159C179.841 217.736 180.539 217.313 181.119 216.998C181.7 216.683 182.29 216.142 182.87 215.827C183.923 215.079 184.857 214.44 185.565 213.791C186.982 212.492 187.916 211.853 187.916 211.853C188.034 211.744 188.142 211.862 188.25 211.98C188.359 212.098 188.359 212.098 188.241 212.207C188.241 212.207 187.739 213.318 186.756 215.089C186.156 215.856 185.428 216.958 184.592 217.942C183.638 219.034 182.566 220.234 181.159 221.306C179.861 222.496 178.336 223.677 176.595 224.621C175.779 225.153 174.962 225.684 173.92 226.205C172.995 226.619 171.953 227.14 171.028 227.553C170.566 227.76 170.103 227.967 169.533 228.055L169.307 228.045L168.962 228.144L168.736 228.134L168.048 228.331C167.015 228.626 165.982 228.921 164.949 229.216C162.884 229.807 160.808 230.623 158.733 231.44C156.657 232.257 154.69 233.191 152.615 234.008C150.647 234.943 148.68 235.877 146.831 236.704C143.123 238.583 139.651 240.246 136.641 241.702C130.729 244.732 126.677 246.709 126.677 246.709C126.559 246.818 126.45 246.7 126.342 246.582L126.46 246.473Z" fill="#333333"/>
<path d="M123.42 240.788C125.781 238.624 126.961 237.542 129.322 235.377C146.83 223.67 169.65 220.127 183.912 204.879" fill="white"/>
<path d="M123.312 240.67L128.889 234.905L132.164 232.554L135.43 230.429C137.643 229.052 139.964 227.793 142.394 226.651C144.715 225.392 147.144 224.251 149.456 223.218C151.886 222.076 154.197 221.043 156.518 219.784L159.882 218.003C161.043 217.374 162.204 216.744 163.246 216.222C164.407 215.593 165.45 215.071 166.61 214.442C167.771 213.812 168.813 213.291 170.082 212.779C171.243 212.149 172.286 211.628 173.446 210.998C174.607 210.369 175.659 209.621 176.702 209.099C177.754 208.352 178.915 207.722 180.076 207.092C181.128 206.345 182.181 205.597 183.341 204.967C183.459 204.859 183.568 204.977 183.676 205.095C183.784 205.213 183.666 205.322 183.666 205.322C182.938 206.423 182.21 207.525 181.365 208.735C180.528 209.719 179.574 210.811 178.63 211.676C177.686 212.542 176.624 213.516 175.68 214.382C174.627 215.13 173.565 216.103 172.404 216.733C171.352 217.481 170.073 218.219 168.912 218.848C167.752 219.478 166.591 220.108 165.322 220.619C162.893 221.76 160.473 222.676 157.935 223.699C152.978 225.637 148.03 227.349 143.299 229.297L139.718 230.842L136.138 232.387L132.666 234.049L129.745 236.076L129.863 235.968L123.637 241.024C123.519 241.132 123.41 241.014 123.302 240.896C123.194 240.778 123.194 240.778 123.312 240.67Z" fill="#333333"/>
<path d="M119.19 233.804C128.73 222.885 141.321 220.031 154.009 214.915C163.255 210.783 171.419 205.47 179.681 197.895" fill="white"/>
<path d="M119.081 233.687C119.081 233.687 119.799 232.811 121.108 231.394C121.708 230.627 122.426 229.752 123.596 228.896C124.658 227.922 125.839 226.84 127.127 225.876C127.825 225.453 128.534 224.803 129.232 224.38C130.048 223.849 130.865 223.318 131.563 222.895C133.304 221.95 135.045 221.006 137.012 220.071C138.979 219.136 140.829 218.31 142.904 217.493C144.98 216.677 146.947 215.742 149.022 214.925C150.065 214.404 150.989 213.991 152.022 213.695L152.829 213.39L153.173 213.292C152.829 213.39 153.173 213.292 153.055 213.4L153.173 213.292L153.291 213.184L154.688 212.338C156.547 211.285 158.632 210.242 160.265 209.18C161.898 208.117 163.639 207.173 165.262 206.336C166.186 205.923 166.776 205.382 167.593 204.851C168.291 204.428 169.108 203.897 169.806 203.474C171.203 202.627 172.59 202.008 173.642 201.26C174.694 200.512 175.737 199.991 176.553 199.46C178.294 198.515 179.337 197.994 179.337 197.994C179.455 197.885 179.563 198.003 179.671 198.122C179.78 198.24 179.662 198.348 179.662 198.348C179.662 198.348 178.944 199.223 177.744 200.758C177.144 201.525 176.308 202.509 175.472 203.493C174.518 204.585 173.455 205.559 172.157 206.749C170.859 207.939 169.561 209.13 167.928 210.192C166.295 211.255 164.544 212.425 162.685 213.478C160.826 214.531 158.869 215.239 156.901 216.174L155.397 216.902L154.934 217.108L154.59 217.207L153.783 217.512L150.567 218.506C148.383 219.204 146.426 219.913 144.242 220.611C142.177 221.202 140.101 222.018 138.262 222.619C136.304 223.327 134.455 224.153 132.832 224.99C131.908 225.403 131.209 225.826 130.403 226.131C129.704 226.554 128.78 226.967 128.199 227.282C126.803 228.128 125.632 228.984 124.58 229.732C123.419 230.361 122.583 231.345 121.875 231.994C120.459 233.293 119.632 234.05 119.632 234.05C119.514 234.159 119.406 234.041 119.298 233.923C118.963 233.795 118.963 233.795 119.081 233.687Z" fill="#333333"/>
<path d="M114.959 226.821C119.779 220.23 126.762 216 134.828 212.949C149.779 207.931 163.746 199.471 176.533 192.092" fill="white"/>
<path d="M114.851 226.703C114.851 226.703 115.569 225.827 116.661 224.175C117.261 223.407 118.097 222.424 119.041 221.558C119.513 221.125 120.103 220.584 120.694 220.043C121.284 219.502 121.982 219.079 122.572 218.538C123.162 217.997 123.979 217.466 124.795 216.934C125.611 216.403 126.428 215.872 127.244 215.341C128.061 214.809 128.877 214.278 129.802 213.865C130.726 213.452 131.661 212.812 132.693 212.517C134.661 211.582 136.618 210.874 138.694 210.057C140.769 209.241 142.628 208.188 144.703 207.371C146.671 206.437 148.648 205.276 150.507 204.223C152.366 203.17 154.225 202.118 156.084 201.065C157.943 200.012 159.792 199.186 161.415 198.349C163.038 197.513 164.769 196.795 166.274 196.067C167.779 195.339 169.166 194.719 170.435 194.207C171.704 193.696 172.854 193.292 173.779 192.879C175.618 192.279 176.769 191.876 176.769 191.876C176.887 191.767 176.996 191.885 177.104 192.003C177.212 192.121 177.094 192.23 177.094 192.23C177.094 192.23 173.779 195.486 168.291 199.214C167.002 200.179 165.37 201.241 163.737 202.304C162.104 203.366 160.363 204.311 158.504 205.363C156.537 206.298 154.57 207.233 152.602 208.167C150.527 208.984 148.56 209.919 146.258 210.725C144.183 211.542 141.989 212.467 139.923 213.057C137.74 213.756 135.674 214.346 133.943 215.064C131.986 215.773 130.254 216.491 128.513 217.436C127.589 217.849 126.89 218.272 126.084 218.577C125.385 219 124.461 219.413 123.871 219.954C123.172 220.377 122.474 220.8 121.884 221.341C121.294 221.882 120.713 222.197 120.241 222.63C119.189 223.378 118.471 224.253 117.645 225.011C116.337 226.427 115.619 227.303 115.619 227.303C115.501 227.411 115.274 227.401 115.274 227.401C114.841 226.929 114.733 226.811 114.851 226.703Z" fill="#333333"/>
<path d="M110.729 219.837C124.892 206.852 143.188 203.112 159.418 194.749C162.959 191.503 167.68 187.174 172.303 185.108" fill="white"/>
<path d="M110.621 219.719L113.109 217.221C113.935 216.463 114.762 215.706 115.814 214.958L118.627 212.813L121.548 210.787L124.46 208.986C125.394 208.347 126.437 207.825 127.479 207.304C129.565 206.261 131.65 205.218 133.735 204.175C137.906 202.09 142.175 200.348 146.227 198.371C148.312 197.328 150.28 196.393 152.365 195.35C153.408 194.829 154.332 194.415 155.483 194.012C156.526 193.491 157.45 193.077 158.601 192.674L158.021 192.989C158.965 192.123 160.135 191.267 161.188 190.519C162.358 189.664 163.411 188.916 164.689 188.178C165.968 187.44 167.129 186.811 168.289 186.181C168.978 185.984 169.558 185.669 170.247 185.472C170.935 185.276 171.624 185.079 172.313 184.882C172.431 184.774 172.539 184.892 172.647 185.01C172.755 185.128 172.637 185.236 172.637 185.236L170.995 186.525L169.578 187.823C169.106 188.256 168.634 188.689 168.162 189.122C167.69 189.555 167.218 189.988 166.854 190.539L161.277 196.303C161.159 196.412 161.159 196.412 161.041 196.52L160.805 196.736C159.762 197.258 158.828 197.897 157.785 198.419C156.743 198.94 155.7 199.461 154.549 199.865C153.506 200.386 152.356 200.79 151.323 201.085L148.096 202.305C143.837 203.82 139.352 205.326 135.201 206.959C133.126 207.776 130.932 208.7 128.857 209.517C126.89 210.452 124.696 211.377 122.719 212.537L119.699 214.22L116.788 216.02L113.985 217.939L111.29 219.975C111.172 220.083 111.063 219.965 110.955 219.847C110.503 219.828 110.503 219.828 110.621 219.719Z" fill="#333333"/>
<path d="M106.499 212.854C120.564 202.13 137.876 194.948 155.187 187.766C159.81 185.699 163.449 180.191 168.072 178.124" fill="white"/>
<path d="M106.39 212.736C106.39 212.736 107.216 211.978 108.741 210.798C109.449 210.148 110.384 209.509 111.446 208.535C112.498 207.787 113.787 206.823 115.184 205.977C116.59 204.905 118.105 203.951 119.738 202.888C121.37 201.826 123.003 200.763 124.97 199.828C126.829 198.776 128.688 197.723 130.656 196.788C132.623 195.854 134.6 194.693 136.567 193.758C140.62 191.781 144.564 189.685 148.38 187.924C150.23 187.097 152.187 186.389 154.026 185.789L154.144 185.681L154.262 185.572C154.144 185.681 154.38 185.464 154.144 185.681L154.489 185.582L155.069 185.267C155.531 185.061 155.994 184.854 156.23 184.638C156.574 184.539 156.81 184.323 157.164 183.998C157.4 183.782 157.862 183.575 158.098 183.359C160.784 181.549 163.016 179.719 164.866 178.892C165.79 178.479 166.597 178.174 167.059 177.967C167.63 177.879 167.866 177.662 167.866 177.662C167.984 177.554 168.092 177.672 168.2 177.79C168.308 177.908 168.19 178.017 168.19 178.017C168.19 178.017 167.954 178.233 167.6 178.558C167.364 178.774 167.128 178.99 166.892 179.207C166.656 179.423 166.302 179.748 165.948 180.073C165.24 180.722 164.522 181.597 163.686 182.581C162.85 183.565 161.777 184.765 160.587 186.073C160.233 186.398 159.997 186.614 159.525 187.047C159.171 187.372 158.817 187.697 158.345 188.129C157.873 188.562 157.528 188.661 157.174 188.985L156.692 189.644L156.456 189.861L155.876 190.176C154.253 191.012 152.404 191.838 150.328 192.655C148.371 193.363 146.404 194.298 144.338 194.889C142.263 195.705 140.305 196.414 138.23 197.23C136.154 198.047 134.187 198.982 132.112 199.798C130.036 200.615 128.177 201.667 126.22 202.376C124.371 203.202 122.63 204.147 120.78 204.973C119.158 205.81 117.535 206.646 116.03 207.374C114.633 208.22 113.246 208.84 112.194 209.587C111.033 210.217 109.98 210.965 109.164 211.496C107.531 212.559 106.597 213.198 106.597 213.198C106.479 213.306 106.371 213.188 106.262 213.07C106.272 212.844 106.39 212.736 106.39 212.736Z" fill="#333333"/>
<path d="M102.268 205.87C116.236 197.409 130.203 188.949 145.154 183.93C150.957 180.782 159.023 177.732 163.842 171.141" fill="white"/>
<path d="M102.16 205.752C105.435 203.401 108.819 201.168 112.202 198.934L117.219 195.639L122.343 192.461L127.576 189.401L133.025 186.578L138.583 183.872C140.432 183.046 142.281 182.219 144.239 181.511L144.003 181.727C144.927 181.314 145.744 180.783 146.668 180.369C147.593 179.956 148.399 179.651 149.324 179.238C150.248 178.825 151.055 178.52 151.98 178.107C152.904 177.693 153.711 177.388 154.409 176.965L155.57 176.336C156.032 176.129 156.494 175.922 156.73 175.706L157.891 175.076C158.353 174.87 158.816 174.663 159.052 174.447L160.222 173.591C160.576 173.266 161.039 173.06 161.393 172.735C162.101 172.086 162.917 171.554 163.625 170.905C163.744 170.797 163.852 170.915 163.96 171.033C164.068 171.151 164.068 171.151 163.95 171.259C163.458 172.145 162.967 173.03 162.475 173.915C161.875 174.682 161.275 175.45 160.557 176.325C160.203 176.65 159.849 176.975 159.603 177.417L158.541 178.391C158.187 178.716 157.833 179.04 157.478 179.365L156.308 180.221C155.492 180.752 154.675 181.284 153.859 181.815C153.042 182.346 152.226 182.877 151.301 183.291C150.485 183.822 149.56 184.235 148.862 184.658C148.046 185.189 147.239 185.494 146.423 186.026C146.187 186.242 146.069 186.35 145.96 186.232C144.121 186.832 142.282 187.433 140.324 188.141L134.796 190.168L129.367 192.539L123.927 195.136C120.337 196.907 116.747 198.678 113.265 200.567L102.593 206.224C102.475 206.332 102.367 206.214 102.258 206.096C102.042 205.86 102.16 205.752 102.16 205.752Z" fill="#333333"/>
<path d="M99.218 197.804C113.185 189.343 125.972 181.965 140.923 176.947C146.726 173.798 154.792 170.748 159.611 164.157" fill="white"/>
<path d="M99.1098 197.686C102.267 195.443 105.533 193.318 108.798 191.193C112.064 189.068 115.438 187.061 118.811 185.054C122.293 183.165 125.775 181.276 129.247 179.614L134.677 177.242C136.526 176.416 138.375 175.59 140.107 174.871L139.772 174.743C141.513 173.799 143.136 172.963 144.985 172.136C145.91 171.723 146.716 171.418 147.641 171.005C148.566 170.592 149.372 170.287 150.071 169.864L151.231 169.234C151.694 169.027 152.156 168.821 152.392 168.604L153.553 167.975C154.015 167.768 154.477 167.561 154.713 167.345L155.884 166.489C156.238 166.164 156.7 165.958 157.054 165.633C157.762 164.984 158.579 164.453 159.287 163.803C159.405 163.695 159.513 163.813 159.621 163.931C159.73 164.049 159.73 164.049 159.612 164.157C159.12 165.043 158.628 165.928 158.136 166.813C157.536 167.581 156.936 168.348 156.218 169.224C155.864 169.548 155.51 169.873 155.264 170.316L154.202 171.289C153.494 171.939 152.678 172.47 151.851 173.227C151.035 173.759 150.219 174.29 149.402 174.821C148.586 175.352 147.769 175.884 146.845 176.297C145.104 177.241 143.481 178.078 141.858 178.914C141.74 179.022 141.514 179.012 141.514 179.012C137.943 180.331 134.274 181.305 130.585 182.732C127.005 184.276 123.543 185.713 119.962 187.257L114.749 189.865L109.536 192.472C106.054 194.361 102.69 196.142 99.1 197.913C98.982 198.021 98.8738 197.903 98.7656 197.785C98.9918 197.794 99.1098 197.686 99.1098 197.686Z" fill="#333333"/>
<path d="M61.839 197.316C87.4127 182.559 113.97 171.244 138.462 155.307C144.857 164.651 151.251 173.995 156.466 184.421C167.879 208.717 179.291 233.012 190.704 257.307C199.067 273.537 207.527 287.504 217.07 302.651C183.431 320.459 147.627 335.906 114.972 357.156C90.5734 318.697 73.1586 276.008 52.301 234.303" fill="white"/>
<path d="M61.7308 197.198C64.7603 195.289 68.016 193.391 71.0455 191.482L80.5766 186.002C86.852 182.421 93.3537 178.85 99.8455 175.505L109.367 170.251L118.888 164.997L128.193 159.508L137.4 153.674C138.334 153.034 139.682 153.319 140.321 154.254C142.348 157.175 144.266 159.978 146.293 162.9C148.319 165.821 150.12 168.732 152.028 171.762C152.983 173.277 153.937 174.791 154.665 176.296L157.184 180.939L158.443 183.26C158.856 184.185 159.279 184.883 159.584 185.69L161.758 190.431L178.455 228.782C179.901 232.018 181.239 235.136 182.685 238.372L187.034 247.854L191.383 257.336L196.43 266.395L201.585 275.572L204.222 280.107L206.976 284.533L218.113 302.13C218.428 302.71 218.28 303.497 217.69 304.038L217.572 304.146L204.805 311.072L192.048 317.772L166.316 330.936L153.559 337.636L140.9 344.68L128.457 351.961L116.339 359.595L116.221 359.703C114.943 360.441 113.487 360.038 112.739 358.985C109.778 354.097 106.708 349.09 103.865 344.094L95.5714 328.887L87.858 313.366L80.4889 297.746C78.1079 292.542 75.727 287.339 73.2378 282.018L66.213 266.3L52.1634 234.863C52.0551 234.745 52.1732 234.637 52.2912 234.529C52.4092 234.421 52.5174 234.539 52.6257 234.657C55.3509 239.762 58.0761 244.866 60.6931 249.853C63.4183 254.958 65.9173 260.053 68.5245 265.267L76.2379 280.788C78.8451 286.001 81.3441 291.096 83.843 296.191L91.6744 311.605L99.8795 326.241L108.301 341.113C111.262 346.001 114.224 350.89 117.185 355.778L113.594 354.942L125.939 347.318L138.608 340.047L151.483 333.239L164.349 326.657C173.034 322.388 181.719 318.118 190.395 314.074L203.359 307.836L216.333 301.372L215.91 303.281L205.245 285.251L202.609 280.717L200.09 276.074L195.161 266.907L190.232 257.74L185.657 248.248L181.082 238.756C179.518 235.628 177.953 232.5 176.389 229.372L157.942 192.192L155.65 187.559C155.227 186.861 154.813 185.936 154.499 185.356L153.239 183.034L150.829 178.51C149.983 177.113 149.028 175.598 148.074 174.084C146.274 171.172 144.473 168.261 142.447 165.339C140.646 162.428 138.62 159.507 136.701 156.703L139.623 157.284L130.308 162.999L120.679 168.135L111.049 173.271L101.203 178.17L81.5211 187.743L71.7932 192.534C68.5473 194.207 65.3013 195.88 62.0554 197.552C61.9374 197.66 61.8292 197.542 61.721 197.424C61.6127 197.306 61.7308 197.198 61.7308 197.198Z" fill="#333333"/>
<path d="M50.9244 239.909C53.5795 230.957 63.8095 230.268 68.6288 223.677C64.3002 218.956 65.7749 211.086 62.6267 205.283C61.5445 204.103 60.5606 200.66 59.4784 199.48C59.3803 201.742 59.2821 204.005 59.184 206.267C56.4308 217.481 50.3331 227.416 50.9244 239.909Z" fill="white"/>
<path d="M50.9245 239.909L51.3276 238.453C51.4653 237.893 51.7111 237.45 51.8488 236.889C52.0947 236.447 52.3405 236.004 52.5864 235.561C52.8323 235.119 53.3044 234.686 53.5503 234.243C54.2683 233.367 54.9764 232.718 55.8026 231.961C56.6288 231.203 57.4452 230.672 58.3796 230.032C60.1304 228.862 61.8812 227.691 63.4058 226.51C64.2222 225.979 64.9304 225.33 65.6385 224.681L66.4746 223.697L67.2024 222.595L67.3206 225.094L66.3467 224.031C66.0221 223.677 65.8155 223.215 65.4908 222.861C64.9596 222.045 64.6546 221.238 64.2413 220.313C63.5231 218.582 63.2573 216.871 62.8736 215.267C62.4898 213.664 62.3322 212.07 61.9386 210.693C61.7418 210.005 61.5451 209.316 61.3483 208.628L60.935 207.703L60.5218 206.779L60.9547 207.251C60.63 206.897 60.3054 206.543 60.207 206.198C59.9905 205.962 59.8922 205.618 59.6757 205.382C59.3609 204.802 59.1543 204.339 58.8395 203.759C58.6328 203.297 58.4262 202.834 58.2196 202.372C58.131 201.801 58.1409 201.575 58.0326 201.457C57.9244 201.339 57.9244 201.339 57.8162 201.221L61.8491 199.696C61.7509 201.959 61.6528 204.221 61.5546 206.483L61.5448 206.71L61.535 206.936L60.1091 211.067L58.5651 215.307L55.2706 223.324C54.7593 224.662 54.2479 226 53.7365 227.338L53.0777 229.462C52.822 230.131 52.5663 230.8 52.4188 231.587L51.996 233.496C51.8486 234.282 51.5929 234.951 51.5634 235.63C51.3865 237.096 51.1014 238.443 50.9245 239.909ZM50.9245 239.909C50.7571 238.542 50.5996 236.948 50.4322 235.581C50.3534 234.784 50.3829 234.106 50.5304 233.319L50.6285 231.056C50.658 230.377 50.8054 229.591 50.9529 228.804L51.2773 226.551C51.6805 225.095 51.8574 223.629 52.2605 222.174C52.6637 220.718 53.0669 219.262 53.4602 218.032L54.6599 213.891L55.8595 209.75L56.833 205.599L56.8133 206.051C56.9115 203.789 57.0096 201.526 57.1078 199.264L57.1176 199.037C57.1765 197.68 58.2388 196.706 59.4782 196.873C60.1569 196.903 60.8258 197.158 61.1406 197.739C61.4653 198.093 61.7899 198.447 61.8883 198.791C62.1048 199.027 62.2032 199.371 62.4196 199.608C62.7344 200.188 62.941 200.65 63.2558 201.23L63.8757 202.617C63.9741 202.962 64.0823 203.08 64.1905 203.198C64.2987 203.316 64.2987 203.316 64.4069 203.434L64.8398 203.906L65.4596 205.293L65.9713 206.562C66.2763 207.368 66.4632 208.283 66.6502 209.198C66.916 210.909 67.2998 212.513 67.4573 214.106C67.6148 215.7 67.8904 217.185 68.284 218.562C68.4808 219.251 68.7956 219.831 68.9924 220.519L69.5237 221.336L70.0549 222.152L70.3796 222.506C70.8026 223.205 70.7633 224.11 70.2912 224.543L69.1011 225.851L67.8028 227.041C66.8684 227.681 66.0422 228.438 65.1176 228.851C63.2586 229.904 61.4094 230.731 59.5504 231.783C58.6258 232.196 57.8094 232.728 56.993 233.259C56.1766 233.79 55.3602 234.322 54.652 234.971C54.298 235.295 53.9439 235.62 53.5898 235.945C53.2357 236.269 52.9898 236.712 52.6357 237.037C52.3899 237.479 52.0358 237.804 51.7899 238.247L50.9245 239.909Z" fill="#333333"/>
<path d="M118.115 310.824C132.082 302.363 144.869 294.985 159.82 289.967C165.623 286.818 173.689 283.768 178.509 277.177" fill="white"/>
<path d="M118.007 310.706C121.164 308.463 124.43 306.338 127.695 304.213C130.961 302.088 134.335 300.081 137.708 298.074C141.19 296.185 144.672 294.296 148.144 292.634L153.574 290.262C155.423 289.436 157.272 288.61 159.004 287.891L158.669 287.763C160.41 286.819 162.033 285.983 163.882 285.156C164.807 284.743 165.613 284.438 166.538 284.025C167.463 283.612 168.269 283.307 168.968 282.884L170.128 282.254C170.591 282.047 171.053 281.841 171.289 281.624L172.45 280.995C172.912 280.788 173.374 280.581 173.61 280.365L174.781 279.509C175.135 279.184 175.597 278.978 175.951 278.653C176.659 278.004 177.476 277.473 178.184 276.823C178.302 276.715 178.41 276.833 178.518 276.951C178.627 277.069 178.627 277.069 178.509 277.177C178.017 278.063 177.525 278.948 177.033 279.833C176.433 280.601 175.833 281.368 175.115 282.244C174.761 282.568 174.407 282.893 174.161 283.336L173.099 284.309C172.391 284.959 171.575 285.49 170.748 286.247C169.932 286.779 169.116 287.31 168.299 287.841C167.483 288.373 166.666 288.904 165.742 289.317C164.001 290.261 162.378 291.098 160.755 291.934C160.637 292.042 160.411 292.032 160.411 292.032C156.84 293.351 153.171 294.325 149.483 295.752C145.902 297.296 142.44 298.733 138.859 300.278L133.646 302.885L128.433 305.492C124.951 307.381 121.587 309.162 117.997 310.933C117.879 311.041 117.771 310.923 117.663 310.805C117.889 310.815 118.007 310.706 118.007 310.706Z" fill="#333333"/>
<path d="M114.967 305.021C126.77 294.2 141.721 289.182 155.59 282.983C162.573 278.753 168.377 275.604 174.278 270.194" fill="white"/>
<path d="M114.859 304.903L119.108 301.007C120.632 299.827 122.157 298.646 123.799 297.357C125.432 296.295 127.065 295.232 128.698 294.17L133.812 291.219L139.026 288.611L144.239 286.004L149.452 283.397C151.193 282.452 152.816 281.616 154.665 280.79L154.429 281.006C156.062 279.944 157.685 279.107 159.426 278.163C161.049 277.327 162.79 276.382 164.413 275.546C166.036 274.71 167.658 273.873 169.399 272.929C170.914 271.975 172.655 271.03 174.396 270.086C174.514 269.977 174.622 270.095 174.731 270.213C174.839 270.332 174.721 270.44 174.721 270.44C173.521 271.974 172.321 273.509 171.013 274.926C169.597 276.224 168.18 277.523 166.656 278.703C165.131 279.884 163.498 280.946 161.974 282.127C160.341 283.189 158.826 284.144 157.193 285.206L157.075 285.314L156.957 285.423C153.377 286.967 149.698 288.168 146.01 289.594L140.373 291.503L135.062 293.766L129.859 296.147C128.118 297.091 126.495 297.928 124.754 298.872C123.121 299.935 121.498 300.771 119.865 301.834L115.183 305.257C115.065 305.365 114.957 305.247 114.849 305.129C114.741 305.011 114.741 305.011 114.859 304.903Z" fill="#333333"/>
<path d="M110.736 298.038C115.556 291.447 122.539 287.216 129.425 285.248C144.376 280.23 158.343 271.77 172.31 263.309" fill="white"/>
<path d="M110.628 297.92C110.628 297.92 111.346 297.044 112.438 295.392C113.038 294.624 113.874 293.641 114.818 292.775C115.29 292.342 115.88 291.801 116.471 291.26C117.061 290.719 117.759 290.296 118.349 289.755C119.756 288.682 121.27 287.728 123.011 286.784C124.752 285.839 126.602 285.013 128.677 284.196C130.526 283.37 132.602 282.553 134.559 281.845C136.526 280.91 138.494 279.975 140.461 279.041C142.32 277.988 144.405 276.945 146.264 275.892C148.123 274.84 149.982 273.787 151.841 272.734C153.7 271.681 155.441 270.737 157.172 270.019C158.795 269.183 160.526 268.464 162.031 267.736C163.536 267.008 164.923 266.388 166.192 265.877C167.461 265.365 168.504 264.844 169.536 264.548C171.386 263.722 172.527 263.545 172.527 263.545C172.645 263.437 172.753 263.555 172.861 263.673C172.969 263.791 172.851 263.899 172.851 263.899C172.851 263.899 169.537 267.155 164.156 271.002C162.868 271.966 161.235 273.028 159.602 274.091C157.97 275.153 156.229 276.098 154.37 277.151C152.511 278.203 150.435 279.02 148.468 279.955C146.501 280.889 144.425 281.706 142.232 282.631C140.156 283.447 138.081 284.264 135.897 284.963C133.714 285.661 131.648 286.252 129.69 286.96C127.743 287.442 125.903 288.042 124.281 288.879C122.549 289.597 120.926 290.433 119.53 291.279C118.831 291.702 118.133 292.125 117.661 292.558C117.071 293.099 116.49 293.414 116.018 293.847C114.966 294.595 114.248 295.47 113.422 296.228C112.114 297.644 111.396 298.52 111.396 298.52C111.277 298.628 111.051 298.618 111.051 298.618C110.618 298.146 110.51 298.028 110.628 297.92Z" fill="#333333"/>
<path d="M106.506 291.054C111.325 284.463 118.309 280.232 125.194 278.265C140.145 273.246 154.113 264.786 168.08 256.325" fill="white"/>
<path d="M106.398 290.936C106.398 290.936 107.116 290.06 108.207 288.408C108.807 287.64 109.643 286.657 110.588 285.791C111.06 285.358 111.65 284.817 112.24 284.276C112.83 283.735 113.529 283.312 114.119 282.771C115.525 281.698 117.04 280.744 118.781 279.8C120.522 278.855 122.371 278.029 124.447 277.212C126.296 276.386 128.371 275.569 130.329 274.861C132.296 273.926 134.263 272.991 136.23 272.057C138.089 271.004 140.175 269.961 142.034 268.908C143.893 267.856 145.752 266.803 147.611 265.75C149.47 264.698 151.211 263.753 152.942 263.035C154.565 262.199 156.296 261.48 157.801 260.752C159.306 260.024 160.693 259.404 161.962 258.893C163.231 258.381 164.273 257.86 165.306 257.565C167.155 256.738 168.296 256.561 168.296 256.561C168.414 256.453 168.522 256.571 168.631 256.689C168.739 256.807 168.621 256.915 168.621 256.915C168.621 256.915 165.306 260.171 159.926 264.018C158.637 264.982 157.005 266.044 155.372 267.107C153.739 268.17 151.998 269.114 150.139 270.167C148.28 271.219 146.205 272.036 144.237 272.971C142.27 273.905 140.195 274.722 138.001 275.647C135.926 276.463 133.85 277.28 131.667 277.979C129.483 278.677 127.417 279.268 125.46 279.976C123.512 280.458 121.673 281.058 120.05 281.895C118.319 282.613 116.696 283.449 115.299 284.295C114.601 284.718 113.903 285.141 113.43 285.574C112.84 286.115 112.26 286.43 111.788 286.863C110.735 287.611 110.017 288.486 109.191 289.244C107.883 290.66 107.165 291.536 107.165 291.536C107.047 291.644 106.821 291.634 106.821 291.634C106.388 291.162 106.28 291.044 106.398 290.936Z" fill="#333333"/>
<path d="M102.276 284.07C116.341 273.347 134.735 267.345 150.964 258.982C154.505 255.736 159.226 251.407 163.849 249.341" fill="white"/>
<path d="M102.167 283.952C103.928 282.555 105.807 281.05 107.567 279.653C109.436 278.374 111.423 276.987 113.4 275.826C115.377 274.665 117.354 273.504 119.331 272.344L125.479 269.097L137.764 262.83C139.849 261.787 141.826 260.626 143.794 259.691C145.879 258.649 147.846 257.714 149.922 256.897L149.341 257.212C150.285 256.346 151.456 255.49 152.508 254.743C153.679 253.887 154.731 253.139 156.01 252.401C157.289 251.663 158.449 251.034 159.61 250.404C160.298 250.207 160.879 249.893 161.567 249.696C162.256 249.499 162.944 249.302 163.633 249.105C163.751 248.997 163.859 249.115 163.967 249.233C164.076 249.351 163.958 249.459 163.958 249.459L162.315 250.748L160.899 252.047C160.427 252.48 159.954 252.912 159.482 253.345C159.01 253.778 158.538 254.211 158.174 254.762L152.597 260.527C152.479 260.635 152.479 260.635 152.361 260.743L152.125 260.96C150.148 262.12 148.063 263.163 145.978 264.206C143.892 265.249 141.709 265.948 139.633 266.764C135.364 268.506 131.214 270.139 126.945 271.881L120.709 274.557L114.463 277.459C112.377 278.502 110.518 279.555 108.433 280.598L102.61 284.198C102.492 284.306 102.384 284.188 102.276 284.07C102.049 284.061 102.167 283.952 102.167 283.952Z" fill="#333333"/>
<path d="M98.0452 277.087C102.668 275.021 107.389 270.692 110.93 267.446C127.16 259.083 146.538 256.524 159.619 242.358" fill="white"/>
<path d="M97.937 276.969L99.678 276.024L101.311 274.962C102.363 274.214 103.425 273.24 104.478 272.493C106.484 270.653 108.373 268.922 110.271 266.964L110.389 266.856L113.409 265.173L116.665 263.275C118.75 262.232 120.943 261.307 123.019 260.49L129.481 257.824C131.675 256.899 133.642 255.964 135.727 254.921C136.77 254.4 137.812 253.879 138.737 253.465C139.78 252.944 140.704 252.531 141.747 252.009C142.789 251.488 143.714 251.075 144.757 250.553L147.767 249.097L150.668 247.523L153.688 245.841L156.599 244.04C157.534 243.401 158.468 242.761 159.403 242.122C159.521 242.014 159.629 242.132 159.737 242.25C159.845 242.368 159.727 242.476 159.727 242.476C159.117 243.469 158.508 244.463 157.672 245.447C156.954 246.322 156.118 247.306 155.4 248.182C154.573 248.939 153.629 249.805 152.803 250.562L149.99 252.707L146.96 254.615C145.918 255.137 144.983 255.776 143.823 256.406C142.78 256.927 141.738 257.449 140.587 257.852C139.436 258.256 138.393 258.777 137.36 259.072L124.14 263.372C121.957 264.071 119.881 264.887 117.698 265.586L114.471 266.806L111.353 268.144L111.589 267.928C109.475 269.649 107.36 271.371 105.137 272.975C104.085 273.722 102.914 274.578 101.753 275.208L100.012 276.152L98.1633 276.979C98.0453 277.087 97.937 276.969 97.8288 276.851C97.819 277.077 97.937 276.969 97.937 276.969Z" fill="#333333"/>
<path d="M93.8149 270.104C106.602 262.725 120.569 254.264 135.52 249.246C143.586 246.196 150.569 241.965 155.389 235.374" fill="white"/>
<path d="M93.7067 269.986C93.7067 269.986 97.4443 267.428 103.041 263.817C104.438 262.971 105.952 262.017 107.585 260.954C109.218 259.892 110.959 258.947 112.818 257.895C114.677 256.842 116.536 255.789 118.395 254.736C120.362 253.802 122.339 252.641 124.425 251.598C126.392 250.663 128.477 249.62 130.552 248.804C132.628 247.987 134.477 247.161 136.444 246.226C137.477 245.931 138.294 245.4 139.1 245.095C139.907 244.79 140.831 244.376 141.756 243.963C142.562 243.658 143.379 243.127 144.185 242.822C144.884 242.399 145.69 242.094 146.389 241.671C147.087 241.248 147.785 240.825 148.366 240.51C148.946 240.195 149.536 239.654 150.117 239.339C151.169 238.591 152.103 237.952 152.812 237.303C154.228 236.004 155.162 235.365 155.162 235.365C155.28 235.257 155.389 235.375 155.497 235.493C155.605 235.611 155.605 235.611 155.487 235.719C155.487 235.719 154.985 236.83 154.002 238.601C153.402 239.368 152.674 240.47 151.838 241.454C150.884 242.546 149.812 243.746 148.406 244.818C147.107 246.009 145.583 247.189 143.842 248.134C143.025 248.665 142.209 249.196 141.166 249.718C140.242 250.131 139.199 250.652 138.274 251.066C137.812 251.272 137.35 251.479 136.779 251.567L136.553 251.558L136.209 251.656L135.983 251.646L135.294 251.843C134.261 252.138 133.228 252.433 132.196 252.728C130.13 253.319 128.055 254.136 125.979 254.952C123.904 255.769 121.936 256.703 119.861 257.52C117.894 258.455 115.926 259.389 114.077 260.216C110.369 262.095 106.897 263.758 103.887 265.214C97.9756 268.244 93.9231 270.222 93.9231 270.222C93.805 270.33 93.6968 270.212 93.5886 270.094L93.7067 269.986Z" fill="#333333"/>
<path d="M90.6666 264.3C98.9286 256.725 107.092 251.413 116.338 247.281C129.027 242.164 141.618 239.31 151.158 228.391" fill="white"/>
<path d="M90.5584 264.182C90.5584 264.182 91.3846 263.425 92.8009 262.126C93.5091 261.477 94.3353 260.719 95.3976 259.745C96.3418 258.88 97.5221 257.798 98.9286 256.725C100.217 255.761 101.633 254.463 103.266 253.4C104.899 252.338 106.65 251.167 108.401 249.996C110.151 248.825 112.119 247.891 114.096 246.73L115.601 246.002C115.719 245.894 115.719 245.894 116.063 245.795L116.407 245.697L117.214 245.392C118.256 244.87 119.289 244.575 120.332 244.054C122.299 243.119 124.374 242.302 126.45 241.486C128.417 240.551 130.266 239.725 132.116 238.898C134.073 238.19 135.696 237.354 137.427 236.635C138.234 236.33 139.158 235.917 139.857 235.494C140.663 235.189 141.362 234.766 142.06 234.343C143.565 233.615 144.735 232.759 145.896 232.129C147.057 231.5 147.883 230.742 148.699 230.211C150.332 229.148 151.266 228.509 151.266 228.509C151.384 228.401 151.493 228.519 151.601 228.637C151.709 228.755 151.591 228.863 151.591 228.863C151.591 228.863 150.981 229.857 149.89 231.509C149.29 232.277 148.562 233.378 147.618 234.244C147.145 234.677 146.555 235.218 146.073 235.877C145.483 236.418 145.001 237.077 144.185 237.608C142.778 238.681 141.254 239.861 139.513 240.806C137.772 241.75 135.913 242.803 134.064 243.629C132.096 244.564 130.031 245.154 127.847 245.853C125.782 246.443 123.598 247.142 121.64 247.85L118.532 248.962L117.726 249.267L117.381 249.366C117.381 249.366 117.263 249.474 117.037 249.464L115.532 250.192C113.565 251.127 111.607 251.835 109.748 252.888C108.007 253.832 106.267 254.777 104.526 255.721C102.903 256.558 101.496 257.63 99.9813 258.584C98.5846 259.43 97.3059 260.168 96.2436 261.142C95.1912 261.89 94.247 262.756 93.4306 263.287C91.906 264.467 90.9716 265.107 90.9716 265.107C90.8536 265.215 90.7454 265.097 90.6371 264.979C90.4403 264.29 90.4403 264.29 90.5584 264.182Z" fill="#333333"/>
<path d="M86.4362 257.316C98.2391 246.495 113.19 241.477 128.24 234.196C135.223 229.966 142.109 227.998 146.928 221.407" fill="white"/>
<path d="M86.328 257.199L90.8131 253.086C92.4557 251.798 93.9802 250.617 95.6228 249.328C97.2556 248.266 99.0064 247.095 100.639 246.033C102.38 245.088 104.131 243.918 105.872 242.973C109.354 241.084 113.062 239.205 116.652 237.434L121.983 234.719C123.724 233.774 125.465 232.83 127.315 232.003L127.197 232.111C128.013 231.58 128.938 231.167 129.754 230.636C130.679 230.222 131.495 229.691 132.302 229.386L137.387 227.113C138.193 226.808 139.01 226.277 139.816 225.972C140.515 225.549 141.439 225.136 142.256 224.605C143.072 224.073 143.77 223.65 144.587 223.119C145.295 222.47 146.111 221.939 146.82 221.289C146.938 221.181 147.046 221.299 147.154 221.417C147.262 221.535 147.262 221.535 147.144 221.643C146.652 222.529 146.161 223.414 145.669 224.299C145.069 225.067 144.469 225.834 143.751 226.71C143.043 227.359 142.217 228.116 141.509 228.766C140.8 229.415 139.984 229.946 139.05 230.586C138.233 231.117 137.417 231.648 136.6 232.179L134.043 233.655C133.227 234.186 132.42 234.491 131.604 235.023C130.787 235.554 130.089 235.977 129.164 236.39L129.046 236.498C125.348 238.151 121.659 239.578 117.853 241.113C114.164 242.539 110.466 244.192 106.885 245.737C105.036 246.563 103.295 247.508 101.564 248.226C99.823 249.171 98.082 250.115 96.2328 250.942C94.6001 252.004 92.8591 252.949 91.2263 254.011L86.4264 257.543C86.3083 257.651 86.2001 257.533 86.0919 257.415C86.2099 257.307 86.2099 257.307 86.328 257.199Z" fill="#333333"/>
<path d="M82.2058 250.333C87.0251 243.742 95.0908 240.692 102.074 236.461C117.025 231.443 129.812 224.065 143.78 215.604" fill="white"/>
<path d="M82.0976 250.215L83.9073 247.687C84.6154 247.038 85.3334 246.162 86.1596 245.405C86.8678 244.755 87.8022 244.116 88.5104 243.467L90.9693 241.647C92.7201 240.476 94.3529 239.413 96.2119 238.361C97.9529 237.416 99.7037 236.245 101.336 235.183L101.455 235.075L101.573 234.966L112.196 230.441C115.56 228.66 118.933 226.653 122.406 224.99C124.146 224.046 125.769 223.209 127.51 222.265L130.058 221.015C130.983 220.602 131.789 220.297 132.714 219.884C134.455 218.94 136.186 218.221 138.143 217.513C139.993 216.686 141.832 216.086 143.671 215.486C143.789 215.378 143.898 215.496 144.006 215.614C144.114 215.732 143.996 215.84 143.996 215.84C142.58 217.139 141.045 218.545 139.521 219.726C137.996 220.906 136.354 222.195 134.829 223.376C133.196 224.438 131.563 225.501 129.931 226.563C128.298 227.626 126.557 228.57 124.816 229.515C122.967 230.341 121.236 231.059 119.386 231.886L113.74 234.021L102.468 237.839L102.812 237.74C100.953 238.793 99.104 239.619 97.363 240.564C95.5138 241.39 93.7728 242.335 91.9236 243.161L89.3663 244.637L86.7991 246.339L84.4483 248.277L82.314 250.451C82.196 250.559 81.9697 250.549 81.9697 250.549C82.0877 250.441 81.9795 250.323 82.0976 250.215Z" fill="#333333"/>
<path d="M79.1557 242.267C85.0571 236.856 92.0407 232.626 97.844 229.478C112.795 224.46 125.582 217.081 139.549 208.62" fill="white"/>
<path d="M79.0475 242.149L83.1785 238.362C83.5326 238.037 83.8867 237.712 84.2407 237.388L85.4112 236.532L87.6439 234.702C88.3521 234.053 89.1685 233.521 89.9849 232.99L92.3258 231.278C93.1422 230.747 93.9586 230.216 94.775 229.685L97.2242 228.091L97.3422 227.983L107.857 223.339C111.221 221.558 114.595 219.551 118.067 217.888C121.441 215.881 124.913 214.219 128.493 212.674C130.234 211.729 131.965 211.011 133.923 210.303C135.772 209.476 137.611 208.876 139.451 208.276C139.569 208.168 139.677 208.286 139.785 208.404C139.893 208.522 139.775 208.63 139.775 208.63C138.359 209.929 136.825 211.335 135.3 212.516C133.776 213.696 132.133 214.985 130.608 216.166C128.976 217.228 127.343 218.291 125.71 219.353C124.077 220.416 122.336 221.36 120.595 222.305C119.671 222.718 118.746 223.131 117.822 223.544L115.166 224.676L109.51 227.037L98.2376 230.855L98.4638 230.865L95.9163 232.114C94.9917 232.527 94.2933 232.95 93.3687 233.364L91.0474 234.623C90.231 235.154 89.4244 235.459 88.608 235.99L86.2769 237.476L85.1064 238.332C84.7524 238.657 84.2901 238.863 83.936 239.188L79.3721 242.503C79.2541 242.611 79.1459 242.493 79.0377 242.375C78.9294 242.257 78.9294 242.257 79.0475 242.149Z" fill="#333333"/>
<path d="M74.9252 235.284C88.9905 224.56 107.384 218.558 123.614 210.196C127.155 206.949 130.696 203.703 135.319 201.637" fill="white"/>
<path d="M74.817 235.166C76.5777 233.769 78.4563 232.264 80.2169 230.867C82.0858 229.588 84.0726 228.201 86.0497 227.04C88.0267 225.879 90.0037 224.718 91.9808 223.557L98.1284 220.31C102.299 218.225 106.351 216.247 110.414 214.043C112.391 212.882 114.476 211.839 116.551 211.023C118.637 209.98 120.712 209.163 122.788 208.347L122.315 208.78C123.26 207.914 124.194 207.274 125.247 206.527C126.299 205.779 127.351 205.031 128.394 204.51C129.555 203.88 130.597 203.359 131.866 202.847C133.017 202.444 134.394 202.05 135.427 201.755C135.545 201.647 135.653 201.765 135.761 201.883C135.87 202.001 135.752 202.109 135.752 202.109C134.807 202.975 133.873 203.614 132.929 204.48C131.984 205.346 131.158 206.103 130.332 206.861C129.506 207.618 128.67 208.602 127.844 209.359C127.008 210.343 126.181 211.101 125.463 211.976C125.345 212.084 125.227 212.193 125.227 212.193L125.109 212.301C123.132 213.462 121.155 214.623 118.962 215.547C116.877 216.59 114.801 217.407 112.499 218.214C108.122 219.837 103.971 221.47 99.7025 223.212L93.4663 225.888L87.2204 228.79C85.1351 229.833 83.2761 230.886 81.1908 231.929L75.3679 235.53C75.2499 235.638 75.1417 235.52 75.0335 235.402C74.699 235.274 74.817 235.166 74.817 235.166Z" fill="#333333"/>
</g>
<g clip-path="url(#clip1_84_6687)">
<path d="M292.437 159.191C295.063 157.32 297.731 155.358 300.449 153.528C302.991 151.838 305.534 150.149 308.265 148.766C314.216 145.897 320.174 143.251 326.216 140.423C327.361 139.851 328.5 139.055 329.506 138.307C331.294 136.82 331.176 135.884 329.255 134.557C328.249 133.872 327.46 132.957 327.468 131.749C327.461 130.094 328.041 128.599 328.712 127.146C329.257 125.966 330.074 124.912 330.619 123.731C331.988 120.288 330.948 117.054 328.015 114.819C327.38 114.526 326.919 114.092 326.681 113.652C326.165 112.863 325.487 112.66 324.642 112.821C323.175 113.135 321.751 113.358 320.333 113.805C315.374 115.48 310.47 117.512 305.714 119.942C300.649 122.56 295.634 125.311 290.612 127.838C285.325 130.463 280.274 133.529 275.364 136.769C272.207 138.835 269.091 140.811 265.934 142.878C264.837 143.583 263.65 144.247 262.644 144.994C257.747 148.681 252.942 152.41 247.954 156.054C243.714 159.274 241.52 163.548 240.611 168.855C240.437 168.995 240.262 169.135 239.997 169.232C239.822 169.372 239.515 169.561 239.34 169.7C238.732 170.301 238.488 171.069 238.865 171.684C239.242 172.298 240.052 172.452 240.799 172.026C241.68 171.552 242.56 171.077 243.489 170.735C244.061 170.448 244.641 170.386 245.277 170.679C247.903 171.671 250.584 171.588 253.378 170.785C260.831 168.719 267.704 165.284 274.48 161.584C283.588 156.647 292.647 151.578 301.616 146.467C306.408 143.723 311.2 140.979 315.942 138.103C318.268 136.643 320.504 135.142 322.781 133.55C322.955 133.41 323.13 133.271 323.347 133.04C323.968 134.318 324.359 135.38 324.931 136.526C324.1 137.133 323.444 137.601 322.696 138.027C319.881 139.591 317.199 141.106 314.426 142.579C313.679 143.005 312.973 143.34 312.177 143.633C308.643 145.086 305.017 146.496 301.532 148.081C297.739 149.854 294.135 151.935 290.482 153.883C289.909 154.169 289.204 154.504 288.722 154.832C287.583 155.628 287.478 156.571 288.449 157.57C288.91 158.003 289.419 158.569 289.88 159.002C290.669 159.917 291.431 159.938 292.437 159.191ZM298.278 145.587C292.25 148.861 286.18 152.227 280.152 155.501C276.017 157.777 271.791 160.012 267.607 162.155C262.717 164.634 257.772 166.756 252.583 168.215C250.187 168.871 247.77 168.857 245.501 167.809C243.999 167.005 243.901 166.74 244.935 165.455C247.562 162.152 250.601 159.149 254.009 156.537C256.629 154.443 259.158 152.306 261.826 150.344C268.385 145.442 275.126 140.624 282.439 136.951C285.17 135.569 287.894 133.963 290.576 132.448C291.149 132.162 291.855 131.826 292.56 131.491C294.235 136.451 296.211 140.998 299.905 144.686C299.333 144.972 298.851 145.3 298.278 145.587ZM322.732 130.554C316.39 135.225 309.768 139.547 302.629 143.08C300.213 141.634 299.152 139.161 297.832 137.01C296.841 135.34 296.157 133.483 295.431 131.715C294.893 130.256 295.061 129.892 296.381 129.18C298.581 127.993 300.823 126.716 303.072 125.661C307.92 123.273 312.767 120.886 317.615 118.498C318.893 117.877 320.22 117.388 321.547 116.899C322.078 116.704 322.658 116.641 322.958 116.229C323.825 115.307 324.642 115.684 325.466 116.285C325.878 116.586 326.199 116.844 326.611 117.144C328.441 118.43 329.181 120.644 328.349 122.683C327.189 125.672 325.401 128.592 322.732 130.554Z" fill="black"/>
<path d="M261.756 194.149C260.687 192.885 259.577 191.711 258.201 190.636C256.735 189.518 255.205 189.252 253.431 189.755C252.453 189.964 251.657 190.257 250.826 189.433C250.086 188.651 249.702 187.812 249.758 186.737C249.835 186.332 249.821 185.885 249.898 185.48C250.114 183.817 249.877 183.377 248.376 182.574C246.916 181.68 245.358 181.952 243.801 182.224C240.777 182.81 238.284 180.337 238.64 177.418C238.745 176.475 238.892 175.441 238.906 174.457C238.92 173.472 238.32 172.864 237.6 172.752C236.881 172.64 236.225 173.108 236.378 173.73C236.685 174.973 236.273 176.104 236.175 177.271C236.161 178.256 236.105 179.331 236.447 180.26C237.662 183.354 241.293 185.031 244.436 183.949C244.967 183.754 245.407 183.516 245.945 183.544C246.615 183.524 247.335 183.635 247.879 183.887C248.466 184.048 248.662 184.579 248.501 185.165C248.298 185.843 248.096 186.52 248.026 187.149C247.767 188.902 248.437 190.313 249.638 191.528C250.748 192.702 252.055 192.974 253.556 192.346C253.689 192.297 253.912 192.29 254.178 192.192C255.023 192.032 255.791 192.276 256.566 192.745C257.754 193.513 258.857 194.463 259.611 195.692C259.988 196.307 260.407 196.831 261.001 197.215C263.522 199.15 266.203 200.499 269.744 200.702C268.369 199.626 267.182 198.858 266.078 197.908C264.563 196.657 262.964 195.588 261.756 194.149Z" fill="black"/>
<path d="M292.511 131.359C291.764 131.785 291.1 132.029 290.527 132.316C287.845 133.831 285.121 135.437 282.39 136.819C275.035 140.582 268.336 145.31 261.777 150.211C259.109 152.174 256.58 154.31 253.961 156.405C250.601 159.149 247.562 162.152 244.844 165.413C243.811 166.698 243.908 166.964 245.41 167.767C247.728 168.948 250.054 168.92 252.492 168.173C257.681 166.715 262.759 164.543 267.516 162.114C271.7 159.97 275.926 157.736 280.061 155.46C286.089 152.185 292.159 148.82 298.187 145.545C298.76 145.259 299.242 144.931 299.724 144.603C296.12 140.956 294.187 136.318 292.511 131.359Z" fill="white"/>
<path d="M326.695 116.963C326.283 116.663 325.962 116.404 325.55 116.104C324.726 115.503 323.999 115.168 323.042 116.048C322.651 116.418 322.071 116.48 321.631 116.718C320.304 117.206 318.977 117.695 317.699 118.316C312.851 120.704 308.004 123.092 303.156 125.48C300.865 126.625 298.665 127.812 296.465 128.999C295.145 129.711 294.935 130.165 295.514 131.534C296.24 133.301 296.925 135.159 297.916 136.828C299.194 139.071 300.297 141.452 302.713 142.899C309.943 139.408 316.474 135.044 322.816 130.372C325.485 128.41 327.273 125.491 328.475 122.411C329.264 120.463 328.483 118.339 326.695 116.963Z" fill="white"/>
</g>
<path d="M153.284 256.104C152.491 185.178 44.2301 182.122 87.2787 93.042C124.105 58.9794 247 65.4231 292.193 114.283C337.386 163.143 330.233 354.032 278.711 359.129C219.888 364.947 184.493 318.81 153.284 256.104Z" fill="#0475C7" fill-opacity="0.15"/>
<path d="M342.785 264.61C342.55 264.209 341.927 265.024 340.293 267.87C339.796 268.642 339.2 269.568 338.577 270.383C337.954 271.198 337.304 271.902 336.78 272.562C335.579 273.816 334.496 274.427 334.496 274.427C334.27 274.624 334.144 274.668 333.918 274.865L334.107 273.958C334.793 270.593 335.073 267.246 335.073 263.875C335.1 257.244 333.627 250.644 330.114 245.223C328.344 242.457 326.123 240.086 323.576 238.067C320.903 236.091 317.905 234.467 314.736 233.263C312.948 232.67 311.033 232.121 309.146 231.682C309.019 231.725 308.893 231.769 308.767 231.812C306.419 232.855 307.178 234.281 307.593 234.862C307.62 234.973 307.746 234.93 307.774 235.041C309.507 235.411 311.268 235.893 312.93 236.529C315.919 237.554 318.61 239.042 320.976 240.882C323.342 242.722 325.383 244.914 326.945 247.39C330.07 252.342 331.533 258.343 331.425 264.641C331.371 267.789 331.037 270.914 330.45 274.124L330.378 274.39L330.297 274.056C330.215 273.723 330.234 273.235 330.152 272.902C330.116 272.192 330.053 271.37 330.017 270.66C329.98 269.95 330.044 269.086 330.134 268.333L330.107 268.222L330.08 268.11L330.053 267.999C333.204 268.006 325.781 267.894 326.468 267.9L326.368 268.055C325.276 268.067 325.556 268.092 326.368 268.055C326.296 268.32 326.197 268.475 326.251 268.697C326.107 269.228 326.061 269.604 326.043 270.092C325.818 271.975 326.098 273.686 326.351 275.285C326.513 275.951 326.703 276.729 326.739 277.439L327.118 278.995C327.254 279.551 327.389 280.107 327.552 280.773C327.931 282.329 328.311 283.885 328.69 285.441L329.205 287.553L329.34 288.108L329.395 288.331L329.422 288.442L329.449 288.553L329.864 287.448L331.273 283.114L332.004 281.058L332.437 279.465C332.564 279.422 332.69 279.378 332.69 279.378L332.943 279.292L333.295 279.051C333.774 278.767 334.153 278.638 334.604 278.242C334.956 278.002 335.435 277.718 335.787 277.477C335.787 277.477 336.013 277.279 336.464 276.884C336.916 276.489 337.692 275.742 338.442 274.884C339.191 274.026 339.787 273.1 340.356 272.062C341.394 270.142 341.981 268.617 341.882 268.772C342.685 266.45 342.992 264.9 342.785 264.61Z" fill="#202020"/>
<path d="M362.4 306.305L361.904 305.391L361.669 304.99L361.434 304.588C361.019 304.008 360.757 303.496 360.341 302.915L360.107 302.514L359.745 302.156L359.023 301.439C358.219 300.39 357.09 299.692 356.187 298.797C355.673 298.371 355.059 298.099 354.544 297.673L353.722 297.111C353.415 296.975 353.108 296.839 352.801 296.704C352.187 296.432 351.573 296.16 350.959 295.889C350.345 295.617 349.758 295.456 349.017 295.228L348.123 294.931L347.103 294.678C346.516 294.518 345.803 294.4 345.216 294.24C344.502 294.123 343.942 294.073 343.229 293.956L342.236 293.814C341.956 293.789 341.549 293.808 341.27 293.783C335.951 293.313 330.596 293.819 325.503 294.838C320.41 295.856 315.552 297.276 311.028 298.943C301.854 302.32 293.989 306.574 287.425 311.105C287.073 311.346 286.594 311.63 286.269 311.982L285.691 312.42L285.339 312.661C285.212 312.704 285.212 312.704 285.113 312.858C284.987 312.902 284.887 313.056 284.761 313.099C284.535 313.297 284.309 313.494 284.057 313.581C283.704 313.821 283.352 314.062 283.127 314.26C282.901 314.457 282.774 314.501 282.774 314.501C282.774 314.501 282.323 314.896 281.546 315.643C281.221 315.995 280.77 316.39 280.318 316.785C279.867 317.18 279.443 317.686 279.018 318.193C278.567 318.588 278.142 319.094 277.718 319.6C277.294 320.106 276.969 320.458 276.643 320.81C275.993 321.514 275.695 321.977 275.822 321.934C275.524 322.397 275.199 322.749 275.027 323.169C274.856 323.589 274.531 323.94 274.458 324.206C274.088 324.935 273.917 325.354 273.971 325.577C274.025 325.799 274.278 325.712 274.729 325.317C275.307 324.879 275.957 324.175 277.185 323.033C277.51 322.681 277.962 322.286 278.314 322.045C278.766 321.65 279.118 321.409 279.569 321.014C280.346 320.267 281.303 319.699 281.98 319.106C282.657 318.514 283.362 318.032 283.84 317.748C284.292 317.353 284.545 317.267 284.545 317.267C284.545 317.267 284.996 316.872 285.7 316.39C286.052 316.149 286.504 315.754 287.082 315.316C287.208 315.273 287.308 315.118 287.434 315.075C288.265 314.55 289.068 313.914 289.899 313.39C291.533 312.229 293.321 311.136 295.236 310C298.965 307.883 303.1 305.747 307.444 303.901C311.787 302.055 316.465 300.456 321.377 299.258C326.289 298.061 331.283 297.197 336.339 297.154C337.026 297.16 337.585 297.209 338.245 297.104C338.805 297.154 339.491 297.16 340.177 297.166L341.143 297.197C341.423 297.222 341.703 297.246 342.137 297.339C342.724 297.5 343.41 297.506 343.997 297.666C344.584 297.827 345.171 297.988 345.758 298.148L346.625 298.333C346.932 298.469 347.212 298.494 347.519 298.63C348.106 298.79 348.72 299.062 349.18 299.266C349.668 299.581 350.255 299.741 350.742 300.056C352.792 301.161 354.77 302.532 356.296 304.298L356.865 304.946C357.046 305.125 357.253 305.416 357.308 305.638C357.696 306.107 357.958 306.62 358.346 307.089C358.608 307.601 358.87 308.114 359.132 308.626C359.394 309.139 359.656 309.651 359.818 310.318C360.64 312.565 361.083 314.942 361.02 317.492C360.929 319.931 360.054 322.518 358.844 324.858C357.508 327.241 355.738 329.532 353.634 331.575C351.53 333.619 349.119 335.526 346.528 337.255C341.345 340.712 335.719 343.478 329.859 345.842C323.998 348.207 317.876 350.059 311.871 351.269C305.767 352.633 299.654 353.398 293.73 353.256C292.204 353.176 290.805 353.052 289.405 352.929C288.132 352.762 286.651 352.305 285.323 351.916C282.668 351.138 280.086 350.094 277.702 348.742C275.345 347.501 273.313 345.908 271.633 344.074C269.954 342.24 268.852 339.968 268.283 337.634C267.118 332.856 268.409 327.478 271.054 322.601C273.7 317.723 277.42 313.321 281.555 309.5C285.691 305.678 290.368 302.393 295.208 299.776C300.048 297.158 304.897 295.14 309.782 293.831C312.238 293.232 314.595 292.788 316.979 292.454C317.512 292.393 318.171 292.288 318.731 292.337L319.01 292.362L319.29 292.387C322.388 292.171 324.347 292.343 324.501 292.411C324.627 292.368 324.754 292.325 324.754 292.325C326.894 290.991 326.189 289.787 325.494 289.182C325.34 289.114 325.34 289.114 325.34 289.114C325.214 289.158 322.974 288.96 319.724 289.108L319.444 289.083L319.317 289.127L319.191 289.17C318.911 289.145 318.532 289.275 318.252 289.25C315.714 289.515 313.204 289.892 310.495 290.577C305.33 291.861 300.075 293.898 294.982 296.602C289.889 299.306 284.932 302.566 280.544 306.474C276.029 310.425 271.929 314.957 268.832 320.23C267.27 322.81 266.043 325.638 265.221 328.447C264.887 329.886 264.553 331.324 264.372 332.831C264.192 334.337 264.264 335.757 264.463 337.134C264.662 338.511 265.014 339.956 265.466 341.246C265.755 341.87 266.044 342.493 266.36 343.228C266.775 343.808 267.064 344.432 267.48 345.012C268.31 346.173 269.241 347.18 270.297 348.143C271.354 349.106 272.51 349.915 273.665 350.724C276.104 352.298 278.74 353.564 281.45 354.564C282.804 355.065 284.285 355.522 285.739 355.867C286.479 356.096 287.193 356.213 288.06 356.398C288.773 356.516 289.613 356.59 290.326 356.707C296.611 357.208 302.878 356.51 309.163 355.325C315.447 354.14 321.597 352.399 327.764 350.17C333.805 347.985 339.711 345.244 345.327 341.879C348.072 340.219 350.763 338.336 353.273 336.274C354.528 335.243 355.756 334.1 356.858 333.001C357.959 331.903 359.007 330.581 359.928 329.303C361.896 326.704 363.25 323.833 364.045 320.913C364.379 319.474 364.559 317.968 364.613 316.505C364.668 315.041 364.469 313.664 364.27 312.288C363.945 310.954 363.62 309.62 363.069 308.484C363.078 307.398 362.689 306.928 362.4 306.305Z" fill="#202020"/>
<path d="M332.945 309.631C330.967 309.946 328.61 310.39 326.786 310.773C324.962 311.156 323.545 311.52 323.545 311.52L320.231 312.532C310.668 315.44 301.115 318.946 291.751 323.231C289.909 324.101 287.94 325.015 286.125 325.997C285.999 326.04 285.899 326.194 285.899 326.194C284.762 328.269 286.27 328.837 287.236 328.868C287.39 328.936 287.363 328.824 287.489 328.781C289.304 327.8 291.146 326.929 292.988 326.059C301.973 321.904 311.4 318.441 320.836 315.576L323.644 314.737C323.644 314.737 326.046 313.916 328.448 313.095C330.85 312.273 333.252 311.452 332.999 311.539C336.99 309.934 339.537 308.582 332.945 309.631Z" fill="#202020"/>
<path d="M288.681 337.042C288.808 336.999 288.808 336.999 288.934 336.955C290.722 335.863 292.564 334.992 294.253 334.054C303.003 329.498 312.276 325.966 321.505 322.812L324.286 321.861C324.286 321.861 326.661 320.929 329.035 319.997C331.41 319.065 333.785 318.132 333.532 318.219C337.37 316.546 339.889 315.083 333.252 316.509C329.324 317.249 323.933 318.731 323.933 318.731L320.647 319.854C311.165 323.095 301.792 326.781 292.79 331.423C290.975 332.405 289.033 333.43 287.218 334.411C287.092 334.455 286.993 334.609 287.02 334.72C286.135 336.708 287.742 337.122 288.681 337.042Z" fill="#202020"/>
<path d="M311.988 333.772C310.091 334.42 307.816 335.198 306.073 335.914C304.303 336.519 302.94 337.105 302.94 337.105L299.734 338.562L298.118 339.235C296.276 340.106 294.307 341.019 292.465 341.89C292.339 341.933 292.24 342.087 292.24 342.087C290.975 344.205 292.61 344.73 293.576 344.761C293.73 344.829 293.703 344.718 293.829 344.674C295.671 343.804 297.513 342.933 299.355 342.063L300.944 341.279L303.671 340.106C303.671 340.106 305.992 338.951 308.286 337.686C310.606 336.531 312.773 335.309 312.647 335.352C314.435 334.259 315.97 333.253 316.141 332.833C316.313 332.413 315.247 332.537 311.988 333.772Z" fill="#202020"/>
<defs>
<clipPath id="clip0_84_6687">
<rect width="200" height="197.598" fill="white" transform="translate(0 235.547) rotate(-42.5159)"/>
</clipPath>
<clipPath id="clip1_84_6687">
<rect width="70.3" height="104.2" fill="white" transform="translate(275.058 89.4849) rotate(24.785)"/>
</clipPath>
</defs>
</svg>
