<?xml version="1.0" encoding="utf-8"?>
<!-- Generator: Adobe Illustrator 20.1.0, SVG Export Plug-In . SVG Version: 6.00 Build 0)  -->
<svg version="1.1" id="Layer_1" xmlns="http://www.w3.org/2000/svg" xmlns:xlink="http://www.w3.org/1999/xlink" x="0px" y="0px"
	 viewBox="0 0 536 492" style="enable-background:new 0 0 536 492;" xml:space="preserve">
<style type="text/css">
	.st0{fill:#7D192F;}
	.st1{fill:#F1F0ED;}
	.st2{fill:#CBC9C6;}
	.st3{fill:#7FAF17;}
	.st4{fill:#FFFFFF;}
	.st5{fill:#CE2B2B;}
	.st6{fill:#DA880F;}
</style>
<path class="st0" d="M57.3,74.2l78.2,12.2L136,87c7,8.6,23.5,28.2,33.8,37.8c5,4.7,16.1,11.9,28.3,19.2c12.1,7.3,25.2,14.4,34,18.9
	l1.8,0.9l-1.8,3.6l-1.8-0.9c-8.9-4.5-22-11.7-34.2-19c-12.1-7.3-23.6-14.7-28.9-19.7c-10.2-9.6-26.4-28.7-33.6-37.6l-76.7-12
	L57.3,74.2z M148.9,317.8l46.2,44l-2.8,2.9l-46.2-44L148.9,317.8z"/>
<path class="st1" d="M157.7,116.3h-5.5v-0.7c-0.8,0.5-1.7,0.8-2.7,0.8c0,0,0,0-0.1,0v3H144V115l-0.3,0.9l0,0c-0.4,1-0.9,1.8-1.7,2.5
	s-1.8,1-2.9,1c-0.5,0-0.9-0.1-1.4-0.2l-1.6-0.4v-2.6h-4.9v-8h-2.7V103h11v2.3h1.4l0.5,1.3l0.4-1.3h6.7c0.4-0.1,0.7-0.1,1.1-0.1
	c1,0,1.9,0.3,2.6,0.8v-0.7h8.5v0.3c0.7-0.3,1.5-0.5,2.3-0.5c1,0,2,0.2,2.8,0.8v-0.7h10.3v0.8c0.9-0.6,1.9-0.9,3.1-0.9
	c1,0,2,0.2,2.8,0.8v-0.7h5.3c1.1,0,2.2,0.2,3.2,0.8c0.2,0.2,0.4,0.3,0.6,0.5c1-1,2.4-1.4,3.8-1.4c0.6,0,1.1,0.1,1.6,0.2v-0.1h11
	c0.4-0.1,0.9-0.1,1.3-0.1c1.1,0,2.4,0.2,3.3,1.1c0.1,0.1,0.2,0.2,0.3,0.3c0.1-0.1,0.2-0.1,0.3-0.2c0.9-0.7,2.1-1,3.2-1h5.2v11h-5.5
	l0,0l0,0h-6.5c-0.4,0.1-0.9,0.1-1.3,0.1c-0.4,0-0.8,0-1.1-0.1h-4.5l-0.1-0.1v0.1h-5.5v-0.1c-0.1,0-0.1,0-0.2,0l0,0l-0.3-1.2
	c-0.4,0.1-0.8,0.1-1.2,0.1c0,0,0,0-0.1,0c-1,0-2.1-0.4-2.8-1.3l0,0l0,0l0,0l0,0c-0.2,0.4-0.5,0.8-0.9,1.2l0,0
	c-0.1,0.1-0.2,0.2-0.4,0.3l0,0c-1,0.7-2.2,0.9-3.4,0.9H182v-0.3c-0.3,0.1-0.6,0.2-0.9,0.2c-0.5,0.1-1.1,0.1-1.7,0.1
	c-0.9,0-1.7-0.2-2.4-0.5l-0.9,0.4h-18.4V116.3z M182,113.1L182,113.1L182,113.1L182,113.1z"/>
<path class="st1" d="M333.3,66l0.3-0.7l-1.7-0.8c-1.1-0.5-2.3-0.8-3.5-0.8s-2.3,0.3-3.4,0.8c-1,0.6-1.8,1.5-2.3,2.5l0,0
	c-0.5,1-0.7,2.2-0.7,3.4c0,1.8,0.4,3.5,1.6,4.9l0,0c1.2,1.3,2.8,1.9,4.6,1.9c0.8,0,1.7-0.1,2.4-0.3V80l-0.7,0.1
	c-1.2,0.2-2.2,0.4-3.1,0.5l0,0c-1.6,0.3-2.9,1.1-3.8,2.5l0,0c-0.8,1.3-1.1,2.9-1.1,4.7c0,1.6,0.3,3.2,1.3,4.4c1,1.3,2.4,1.9,4,1.9
	c0.8,0,1.6-0.1,2.4-0.5v3l1.6,0.4c0.5,0.1,0.9,0.2,1.4,0.2c1,0,2-0.3,2.9-1c0.8-0.7,1.4-1.5,1.7-2.5l0,0l0,0l0.5,0.2
	c0.5,0.2,1.1,0.3,1.6,0.3c0.9,0,1.8-0.3,2.5-1V94h9c0.9,0,1.9-0.1,2.7-0.5V94h5.4c1.2,0,2.4-0.2,3.4-0.9l0,0l0,0
	c0.8,0.8,1.9,1.1,2.9,1.1c0.4,0,0.9,0,1.3-0.1h2.7v3.1h5.5v-3c0,0,0,0,0.1,0c1.4,0,2.7-0.6,3.6-1.7s1.2-2.5,1.2-3.9
	s-0.3-2.8-1.2-3.9c-0.9-1.2-2.2-1.7-3.6-1.7c-0.4,0-0.8,0-1.1,0.1h-4.4v0.6c-0.9-0.6-1.9-0.8-2.9-0.8c-0.6,0-1.2,0.1-1.7,0.2
	c-0.6,0.1-1.2,0.3-1.7,0.6l-0.5,0.3c-0.1-0.1-0.2-0.1-0.3-0.2c-0.9-0.6-2.1-0.8-3.2-0.8h-5.3v3.3c-0.8-0.4-1.6-0.5-2.5-0.5V83h-15.8
	l-0.4,1.3l-0.5-1.3h-1.9l-0.5-2.9h4.2v-3c0,0,0,0,0.1,0c1.4,0,2.7-0.6,3.6-1.7l0.1,0.1l0,0c1.1,1.1,2.5,1.6,4,1.6
	c0.6,0,1.1,0,1.7-0.1c0.5-0.1,1.1-0.3,1.6-0.5l0.8-0.4V77h5.5v-2.6c0.2,0.4,0.5,0.8,0.8,1.1l0,0c1.1,1.1,2.5,1.6,4,1.6
	c0.6,0,1.1,0,1.7-0.1c0.3-0.1,0.6-0.1,0.9-0.2v0.3h10.3v-0.7c0.9,0.6,2,0.9,3.1,0.9c0.5,0,1,0,1.5-0.1c0.1,0,0.1,0,0.2,0v0.1h5.5
	v-0.1l0.1,0.1h7l-0.1-0.1l0.3-0.4v0.5h8.6l0.3-0.5v0.5h5.4V66h-0.8c0.1-0.3,0.1-0.5,0.1-0.8l0.2-2.2h-9.7l0.1,2.1
	c0,0.3,0.1,0.6,0.1,0.8h-3.9l-0.3,0.5V66h-13v0.1c-0.5-0.1-1.1-0.2-1.6-0.2c-1.2,0-2.3,0.3-3.2,0.9V66H361v0.7
	c-0.8-0.5-1.8-0.8-2.8-0.8c-0.8,0-1.6,0.2-2.3,0.5V66h-10.1v0.2c-0.6-0.3-1.3-0.4-2-0.4c-1.5,0-2.9,0.5-3.9,1.7
	c-0.9-1.1-2.2-1.7-3.6-1.7L333.3,66z"/>
<path class="st2" d="M264.2,295.2l-20.6,9.3l2.8,9.3l23.4-9.3L264.2,295.2z"/>
<path class="st0" d="M259.5,105.4c0,0,0,0,4.5,2.2s4.5,2.2,4.5,2.2l0,0l-0.6,1.3c-0.4,0.9-1.1,2.1-1.9,3.7c-1.6,3.2-4,7.9-6.8,13.6
	c-5.7,11.4-13.5,26.8-21.8,43.1c-16.5,32.6-35,68.9-42.7,83.1c-15.5,28.6-36.9,60-58.8,85c-11,12.6-43.3,43.4-72.5,70.8
	c-14.7,13.8-28.6,26.8-39,36.3c-5.2,4.8-9.4,8.7-12.4,11.4c-1.5,1.4-2.6,2.4-3.4,3.1c-0.4,0.4-0.7,0.6-0.9,0.8l-0.3,0.3l0,0
	c0,0,0,0-3.4-3.7s-3.4-3.7-3.4-3.7l0.3-0.3c0.2-0.2,0.5-0.5,0.9-0.8c0.8-0.7,1.9-1.8,3.4-3.1c2.9-2.7,7.2-6.6,12.3-11.4
	c10.3-9.5,24.3-22.5,38.9-36.3c29.4-27.6,61.2-58,71.8-70.1c21.4-24.4,42.4-55.2,57.6-83.1c7.6-14.1,26-50.2,42.6-82.8
	c8.3-16.3,16-31.8,21.8-43.1c2.9-5.7,5.2-10.3,6.8-13.6c0.8-1.6,1.4-2.9,1.9-3.7L259.5,105.4z"/>
<path class="st0" d="M165.1,5.6c0,0,0,0,1.3-2.6s1.3-2.6,1.3-2.6l0.5,0.3c0.3,0.2,0.8,0.4,1.4,0.7c1.3,0.6,3.1,1.6,5.3,2.7
	c4.4,2.3,10.4,5.4,16.8,8.7c12.7,6.7,27.1,14.6,33.3,18.9s19,15.1,30.2,24.6c5.6,4.8,10.8,9.3,14.7,12.6c1.9,1.7,3.5,3,4.6,4
	c0.5,0.5,1,0.8,1.3,1.1l0.3,0.3l109.3,80l149.8,131l-3.8,4.4L381.8,158.8L279.5,84c0,3.6-1.6,7.2-5.3,10.5
	c-4.8,4.3-10.4,4.9-15.1,4.2l6.8,6.7l30.7,23.2l215.1,205.7l-4,4.2L292.8,133.1l-30.7-23.2l-15.6-15.3l-0.5-0.3
	c-0.4-0.3-1-0.7-1.8-1.3c-1.5-1.1-3.7-2.7-6.4-4.7c-5.3-3.9-12.6-9.2-20.2-14.7c-15.3-11.1-31.9-22.7-37.8-25.8
	c-5.9-3.2-21.9-10.3-36.6-16.7c-7.3-3.2-14.2-6.2-19.3-8.4c-2.5-1.1-4.6-2-6.1-2.6c-0.7-0.3-1.3-0.6-1.7-0.7l-0.6-0.3
	c0,0,0,0,1.1-2.7s1.1-2.7,1.1-2.7l0.6,0.3c0.4,0.2,1,0.4,1.7,0.7c1.5,0.6,3.6,1.5,6.1,2.6c5.1,2.2,12,5.2,19.3,8.4
	c14.6,6.4,30.8,13.6,37,16.9c6.3,3.3,23.3,15.3,38.4,26.3c7.6,5.5,14.9,10.8,20.2,14.8c2.7,2,4.9,3.6,6.4,4.7c0.8,0.6,1.4,1,1.8,1.3
	l0.3,0.2c0.3,0.1,0.7,0.3,1,0.4c2.3,1,5.3,2.2,8.5,2.7c3.8,0.6,7.7,0.2,10.9-2.7c2.7-2.4,3.4-4.5,3.4-6.2c0-1.8-0.7-3.6-1.7-5.5l0,0
	c-0.3-0.2-0.7-0.6-1.2-1.1c-1.1-0.9-2.6-2.3-4.6-4c-3.8-3.3-9-7.8-14.6-12.6c-11.3-9.6-23.9-20.1-29.8-24.2
	c-5.9-4.1-19.9-11.8-32.7-18.6c-6.4-3.4-12.3-6.4-16.7-8.7c-2.2-1.1-4-2-5.2-2.7c-0.6-0.3-1.1-0.6-1.4-0.7L165.1,5.6z"/>
<path class="st0" d="M265.2,109.7l30.1-17.2l2.7,4.8l-30,17.2L265.2,109.7z M349.3,137.7c3.5-1.3,7.4-2.2,10.3-2.1l-0.2,5.5
	c-1.9-0.1-4.9,0.6-8.1,1.8s-6.2,2.8-8.1,4.4c-6.2,5.3-7.2,11.8-8.2,18.5c0,0.3-0.1,0.5-0.1,0.8l-5.5-0.8c0.1-0.4,0.1-0.7,0.2-1.1
	c1-6.6,2.2-15,10.1-21.6C342.1,141,345.8,139.1,349.3,137.7z"/>
<path d="M400.2,205.7l-0.9-0.8l1.9-2.1c-0.4-0.2-0.8-0.4-1.1-0.5c-0.3-0.2-0.6-0.4-0.8-0.6c-0.5-0.5-0.8-0.9-0.8-1.4
	c-0.1-0.5,0.1-0.9,0.5-1.4l2-2.1l0.9,0.8l-1.8,1.9c-0.2,0.3-0.4,0.5-0.4,0.8s0.2,0.5,0.5,0.8c0.2,0.2,0.5,0.4,0.7,0.5
	c0.3,0.2,0.6,0.3,1,0.5l2.3-2.5l0.9,0.8L400.2,205.7z"/>
<path d="M406.1,203.7l-1.9,2c-0.2,0.2-0.6,0.6-1,1l4.8-1.3l1,0.9l-3.6,4l-0.8-0.7l1.8-2c0.1-0.1,0.3-0.3,0.5-0.5s0.4-0.4,0.5-0.5
	l-4.8,1.3l-1-0.9l3.6-4L406.1,203.7z"/>
<path d="M408.2,213.1c-0.6-0.6-0.9-1.1-0.9-1.8c0-0.6,0.3-1.3,0.9-1.9c0.6-0.7,1.2-1,1.9-1.1c0.7-0.1,1.3,0.2,1.9,0.8
	c0.4,0.4,0.7,0.8,0.9,1.3l-0.9,0.5c-0.2-0.5-0.5-0.8-0.7-1c-0.7-0.6-1.5-0.5-2.3,0.4c-0.4,0.4-0.6,0.9-0.7,1.2c0,0.4,0.1,0.7,0.5,1
	s0.8,0.6,1.3,0.7l-0.7,0.7c-0.2,0-0.5-0.1-0.7-0.3C408.7,213.5,408.5,213.3,408.2,213.1z"/>
<path d="M417.1,213.7l-0.6,0.7l-1.3-1.2l-3,3.3l-0.9-0.8l3-3.3l-1.3-1.2l0.6-0.7L417.1,213.7z"/>
<path d="M419.6,219.7c-0.6,0.7-1.2,1-1.9,1.1c-0.7,0.1-1.3-0.2-1.9-0.7c-0.4-0.3-0.6-0.7-0.8-1.2c-0.1-0.4-0.1-0.9,0-1.3
	c0.1-0.5,0.4-0.9,0.8-1.3c0.6-0.6,1.2-1,1.9-1.1c0.7-0.1,1.3,0.2,1.9,0.7s0.9,1.1,0.9,1.8S420.2,219.1,419.6,219.7z M416.7,217.1
	c-0.8,0.9-0.9,1.7-0.2,2.3c0.7,0.6,1.4,0.5,2.3-0.5c0.8-0.9,0.9-1.7,0.2-2.3c-0.4-0.3-0.7-0.4-1.1-0.4
	C417.5,216.3,417.1,216.6,416.7,217.1z"/>
<path d="M426,221.8l-3.6,4l-0.9-0.8l3-3.3l-1.8-1.6l-3,3.3l-0.8-0.8l3.6-4L426,221.8z"/>
<path d="M425.6,228.9c-0.5-0.5-0.7-1-0.7-1.6h-0.1c-0.3,0.4-0.4,0.6-0.5,0.7l-1.5,1.6l-0.8-0.8l5.2-5.8l0.7,0.6
	c0,0.1-0.2,0.3-0.4,0.6l0,0c0.6-0.2,1.2,0,1.7,0.5s0.7,1,0.7,1.6s-0.4,1.2-1,1.9s-1.2,1-1.8,1.1
	C426.7,229.6,426.1,229.4,425.6,228.9z M428.5,225.3c-0.3-0.3-0.7-0.4-1-0.4c-0.3,0.1-0.7,0.3-1.1,0.7l-0.1,0.1
	c-0.4,0.5-0.7,0.9-0.7,1.3c0,0.4,0.1,0.7,0.5,1c0.3,0.3,0.6,0.4,1,0.3c0.4-0.1,0.8-0.4,1.2-0.8c0.4-0.4,0.6-0.9,0.7-1.2
	C429,225.9,428.8,225.6,428.5,225.3z"/>
<path d="M431.4,226.7l0.9,0.8l-1.2,3c-0.2,0.4-0.4,0.8-0.6,1.1l0,0c0.1-0.1,0.3-0.2,0.6-0.4c0.2-0.1,1.4-0.8,3.4-1.9l0.9,0.8l-5.8,3
	c-1.1,0.5-2,0.5-2.7-0.2c-0.2-0.2-0.4-0.4-0.5-0.6l0.6-0.7c0.1,0.1,0.2,0.3,0.4,0.4c0.4,0.4,0.9,0.4,1.5,0.1l0.5-0.2L431.4,226.7z"
	/>
<path d="M434.9,239.8l-0.8-0.7l1.3-1.4l-2.7-2.5l-1.3,1.4l-0.8-0.7l1.9-2.1l0.3,0.3c0.7-0.1,1.3-0.4,2-0.9c0.7-0.4,1.4-1,2-1.6
	l2.4,2.2l-3,3.3l0.6,0.5L434.9,239.8z M435.4,236.5l2.4-2.7L437,233c-0.5,0.5-1,0.9-1.6,1.2s-1.1,0.6-1.6,0.7L435.4,236.5z"/>
<path d="M441.5,235.9l-1.5,1.6l1.9,1.7l1.5-1.6l0.8,0.8l-3.6,4l-0.8-0.8l1.6-1.7l-1.9-1.7l-1.6,1.7l-0.8-0.8l3.6-4L441.5,235.9z"/>
<path d="M444.9,242l0.8,0.7c0.6,0.5,0.9,1,1,1.4s0,0.8-0.4,1.2s-0.8,0.6-1.3,0.6s-1-0.3-1.5-0.8l-1.7-1.5l3.6-4l0.8,0.8L444.9,242z
	 M445.5,244.6c0.2-0.2,0.2-0.4,0.2-0.6c-0.1-0.2-0.2-0.4-0.5-0.7l-0.7-0.7l-1,1.1l0.6,0.6c0.3,0.3,0.6,0.5,0.9,0.5
	C445.1,244.9,445.3,244.8,445.5,244.6z M446.7,247.9l-0.9-0.8l3.6-4l0.9,0.8L446.7,247.9z"/>
<path d="M452.4,245.9l-1.9,2c-0.2,0.2-0.6,0.6-1,1l4.8-1.3l1,0.9l-3.6,4l-0.8-0.7l1.8-2c0.1-0.1,0.3-0.3,0.5-0.5s0.4-0.4,0.5-0.5
	l-4.8,1.3l-1-0.9l3.6-4L452.4,245.9z M453.9,246.3c-0.5-0.5-0.8-0.9-0.9-1.3c-0.1-0.4,0.1-0.8,0.4-1.3l0.8,0.7
	c-0.1,0.2-0.2,0.4-0.3,0.5c0,0.1,0,0.3,0,0.4c0.1,0.1,0.2,0.3,0.4,0.5c0.2,0.2,0.5,0.3,0.7,0.3s0.5-0.1,0.7-0.3l0.8,0.7
	c-0.4,0.4-0.8,0.6-1.3,0.5C454.9,247,454.4,246.8,453.9,246.3z"/>
<path d="M457,252.9c0.8-0.9,1.6-1.4,2.3-1.6c0.7-0.2,1.5-0.1,2.3,0.4c0.6,0.4,1.3,0.8,2,1.3l-0.6,0.9c-0.9-0.6-1.6-1-2-1.3
	s-0.9-0.4-1.2-0.3c-0.4,0.1-0.8,0.4-1.3,0.8l0.1,0.1c0.3-0.1,0.6-0.1,1,0c0.3,0.1,0.6,0.2,0.9,0.5c0.5,0.4,0.7,1,0.7,1.5
	c0,0.6-0.3,1.1-0.8,1.7c-0.6,0.6-1.2,1-1.9,1c-0.7,0-1.3-0.2-1.9-0.7s-0.8-1.2-0.8-1.9C455.9,254.5,456.3,253.7,457,252.9z
	 M457.3,256.5c0.6,0.6,1.3,0.4,2.1-0.4c0.7-0.8,0.8-1.5,0.2-2c-0.2-0.1-0.3-0.2-0.5-0.3s-0.4-0.1-0.7-0.1c-0.2,0-0.4,0-0.6,0.1
	c-0.5,0.6-0.8,1.1-0.9,1.5C456.8,255.8,457,256.2,457.3,256.5z"/>
<path d="M462.7,255.2l0.9,0.8l-1.2,3c-0.2,0.4-0.4,0.8-0.6,1.1l0,0c0.1-0.1,0.3-0.2,0.6-0.4c0.2-0.1,1.4-0.8,3.4-1.9l0.9,0.8l-5.8,3
	c-1.1,0.5-2,0.5-2.7-0.2c-0.2-0.2-0.4-0.4-0.5-0.6l0.6-0.7c0.1,0.1,0.2,0.3,0.4,0.4c0.4,0.4,0.9,0.4,1.5,0.1l0.5-0.2L462.7,255.2z"
	/>
<path d="M467,266.4l-0.9-0.8l3-3.3l-1.1-1c-0.8,0.8-1.5,1.4-2.1,1.8s-1,0.6-1.4,0.6c-0.4,0.1-0.7-0.1-1-0.3
	c-0.2-0.2-0.3-0.3-0.4-0.5l0.6-0.7c0.1,0.1,0.1,0.2,0.2,0.3c0.2,0.2,0.7,0.1,1.3-0.3c0.6-0.4,1.5-1.2,2.6-2.2l2.7,2.4L467,266.4z"/>
<path d="M471.3,265.9l1,0.9c1.1,1,1.3,1.9,0.6,2.7c-0.4,0.4-0.8,0.6-1.3,0.5c-0.5,0-1-0.3-1.5-0.8l-1.9-1.7l3.6-4l0.8,0.8
	L471.3,265.9z M472,268.8c0.2-0.2,0.2-0.4,0.2-0.6c-0.1-0.2-0.3-0.5-0.5-0.7l-1-0.9l-1,1.1l1,0.9c0.3,0.3,0.5,0.4,0.8,0.4
	C471.6,269,471.9,269,472,268.8z"/>
<path d="M479,271.9c-0.4,0.5-1,0.5-1.6,0.1l0,0c0.3,0.3,0.4,0.6,0.4,0.9s-0.1,0.6-0.3,0.8c-0.3,0.4-0.8,0.5-1.2,0.5
	c-0.5-0.1-1-0.3-1.5-0.8l-1.9-1.7l3.6-4l1.9,1.7C479.4,270.4,479.6,271.2,479,271.9z M476.6,272.9c0.2-0.2,0.2-0.4,0.1-0.6
	s-0.3-0.5-0.6-0.7l-1-0.9l-1,1.1l1,0.9C475.8,273.3,476.3,273.3,476.6,272.9z M478,271.2c0.1-0.2,0.2-0.3,0.1-0.5s-0.2-0.4-0.5-0.6
	l-1-0.9l-0.9,1l0.9,0.8c0.3,0.3,0.5,0.4,0.7,0.5C477.7,271.4,477.9,271.4,478,271.2z"/>
<path d="M479.8,278.1l0.3-0.7l0,0c-0.4,0.1-0.8,0.1-1,0c-0.3-0.1-0.6-0.3-0.9-0.6c-0.4-0.4-0.6-0.7-0.6-1.2c0-0.4,0.1-0.8,0.5-1.2
	c0.4-0.4,0.8-0.6,1.3-0.5s1.1,0.4,1.7,0.9l0.7,0.6l0.2-0.2c0.2-0.3,0.3-0.5,0.3-0.7s-0.1-0.5-0.4-0.7c-0.2-0.2-0.4-0.3-0.7-0.4
	c-0.2-0.1-0.5-0.2-0.7-0.3l0.3-0.9c0.3,0.1,0.6,0.2,0.9,0.4c0.3,0.2,0.6,0.4,0.8,0.6c0.5,0.5,0.8,0.9,0.8,1.4
	c0.1,0.5-0.1,0.9-0.6,1.4l-2.4,2.7L479.8,278.1z M479.1,276.4c0.3,0.3,0.6,0.4,1,0.4c0.3,0,0.7-0.2,0.9-0.5l0.3-0.3l-0.5-0.4
	c-0.4-0.3-0.8-0.5-1.1-0.6c-0.3,0-0.5,0.1-0.8,0.3c-0.2,0.2-0.2,0.4-0.2,0.6C478.8,276,478.9,276.2,479.1,276.4z"/>
<path d="M483.7,281.7c-0.5-0.5-0.7-1-0.7-1.6h-0.1c-0.3,0.4-0.4,0.6-0.5,0.7l-1.5,1.6l-0.8-0.8l5.2-5.8l0.7,0.6
	c0,0.1-0.2,0.3-0.4,0.6l0,0c0.6-0.2,1.2,0,1.7,0.5s0.7,1,0.7,1.6s-0.4,1.2-1,1.9c-0.6,0.7-1.2,1-1.8,1.1
	C484.7,282.3,484.2,282.2,483.7,281.7z M486.6,278.1c-0.3-0.3-0.7-0.4-1-0.4c-0.3,0.1-0.7,0.3-1.1,0.7l-0.1,0.1
	c-0.4,0.5-0.7,0.9-0.7,1.3s0.1,0.7,0.5,1c0.3,0.3,0.6,0.4,1,0.3s0.8-0.4,1.2-0.8c0.4-0.4,0.6-0.9,0.7-1.2
	C487,278.7,486.9,278.3,486.6,278.1z"/>
<path d="M150.7,416.6l-1.1,0.9l-4.6-0.9l2.3,2.8l-0.9,0.7l-4.5-5.5l0.9-0.7l2.2,2.7v-4.5l1-0.8v4.5L150.7,416.6z"/>
<path d="M153.6,414.3c-0.5,0.4-1.1,0.6-1.7,0.4h-0.1c0.3,0.3,0.5,0.5,0.6,0.6l1.4,1.7l-0.9,0.7l-5-6l0.7-0.6
	c0.1,0.1,0.3,0.2,0.6,0.5l0,0c-0.1-0.6,0.2-1.2,0.7-1.7c0.5-0.4,1.1-0.6,1.7-0.4c0.6,0.1,1.2,0.5,1.7,1.2c0.6,0.7,0.9,1.3,0.9,2
	C154.3,413.4,154.1,413.9,153.6,414.3z M150.4,410.9c-0.4,0.3-0.5,0.6-0.5,0.9s0.2,0.7,0.6,1.2l0.1,0.1c0.4,0.5,0.8,0.8,1.2,0.9
	c0.3,0.1,0.7,0,1.1-0.3c0.3-0.3,0.4-0.6,0.4-1s-0.3-0.8-0.6-1.3c-0.4-0.5-0.8-0.8-1.1-0.9C151.1,410.6,150.7,410.7,150.4,410.9z"/>
<path d="M153.7,407.1l1.8,2.1c0.2,0.2,0.5,0.6,0.8,1.1l-0.6-5l1.1-0.9l3.4,4.2l-0.9,0.7l-1.7-2.1c-0.1-0.1-0.2-0.3-0.4-0.6
	c-0.2-0.3-0.3-0.5-0.4-0.6l0.6,4.9l-1.1,0.9l-3.4-4.2L153.7,407.1z"/>
<path d="M162.6,401.5c0.4,0.5,0.4,1-0.1,1.6l0,0c0.4-0.2,0.7-0.3,1-0.3s0.6,0.2,0.8,0.4c0.3,0.4,0.4,0.8,0.3,1.3
	c-0.1,0.5-0.5,0.9-1,1.4l-2,1.6l-3.4-4.2l2-1.6C161.2,400.9,162,400.8,162.6,401.5z M163.4,404c-0.2-0.2-0.4-0.3-0.6-0.2
	c-0.2,0-0.5,0.2-0.8,0.5l-1,0.8l1,1.2l1-0.9C163.6,404.9,163.7,404.4,163.4,404z M161.8,402.3c-0.1-0.2-0.3-0.2-0.5-0.2
	s-0.4,0.2-0.7,0.4l-1.1,0.9l0.8,1l0.9-0.8c0.3-0.2,0.5-0.5,0.6-0.7C162,402.7,162,402.5,161.8,402.3z"/>
<path d="M168.3,398.6c0.6,0.7,0.8,1.4,0.8,2c0,0.7-0.4,1.3-1,1.8c-0.4,0.3-0.8,0.5-1.2,0.6s-0.9,0-1.3-0.2c-0.4-0.2-0.8-0.5-1.2-0.9
	c-0.6-0.7-0.8-1.3-0.8-2s0.4-1.3,1-1.8s1.2-0.7,1.9-0.6C167.1,397.5,167.7,397.9,168.3,398.6z M165.3,401.1c0.8,1,1.5,1.1,2.3,0.6
	c0.7-0.6,0.7-1.4-0.1-2.3c-0.8-1-1.5-1.1-2.2-0.6c-0.4,0.3-0.5,0.7-0.5,1C164.7,400.2,164.9,400.6,165.3,401.1z"/>
<path d="M170.2,393.4l1-0.8l-0.1,3.4l3.6,0.6l-1,0.8l-3.5-0.6l1.7,2.1l-0.9,0.7l-3.4-4.2l0.9-0.7l1.7,2V393.4z"/>
<path d="M177.5,390.9c0.6,0.7,0.8,1.4,0.8,2s-0.4,1.3-1,1.8c-0.4,0.3-0.8,0.5-1.2,0.6s-0.9,0-1.3-0.2c-0.4-0.2-0.8-0.5-1.2-0.9
	c-0.6-0.7-0.8-1.3-0.8-2s0.4-1.3,1-1.8s1.2-0.7,1.9-0.6S177,390.2,177.5,390.9z M174.5,393.4c0.8,1,1.5,1.1,2.3,0.6
	c0.7-0.6,0.7-1.4-0.1-2.3c-0.8-1-1.5-1.1-2.2-0.6c-0.4,0.3-0.5,0.7-0.5,1C173.9,392.5,174.1,393,174.5,393.4z"/>
<path d="M183.8,389.3l-0.9,0.7l-2.9-3.5l-1.1,0.9c0.7,1,1.1,1.7,1.4,2.3c0.3,0.6,0.4,1.1,0.4,1.5s-0.2,0.7-0.5,1
	c-0.2,0.2-0.4,0.3-0.6,0.3l-0.6-0.7c0.1,0,0.2-0.1,0.3-0.2c0.3-0.2,0.2-0.7-0.1-1.4c-0.3-0.7-0.9-1.7-1.8-2.9l2.8-2.3L183.8,389.3z"
	/>
<path d="M187,386.7c-0.6,0.5-1.3,0.8-2,0.7c-0.7-0.1-1.3-0.4-1.8-1.1c-0.6-0.7-0.8-1.4-0.8-2c0-0.7,0.3-1.2,0.9-1.7
	c0.6-0.5,1.1-0.6,1.7-0.6c0.6,0.1,1.1,0.4,1.6,1l0.4,0.5l-2.8,2.3c0.3,0.4,0.7,0.6,1.1,0.7c0.4,0,0.8-0.1,1.1-0.4
	c0.2-0.2,0.5-0.4,0.6-0.6c0.2-0.2,0.3-0.5,0.5-0.8l0.6,0.7c-0.1,0.3-0.3,0.5-0.5,0.8C187.5,386.3,187.3,386.5,187,386.7z
	 M183.8,383.2c-0.3,0.2-0.4,0.5-0.5,0.8c0,0.3,0.1,0.7,0.3,1l1.9-1.6c-0.3-0.3-0.6-0.5-0.9-0.6C184.4,382.9,184.1,383,183.8,383.2z"
	/>
<path d="M187.1,379.5l1.4,1.7l2-1.6l-1.4-1.7l0.9-0.7l3.4,4.2l-0.9,0.7l-1.5-1.8l-2,1.6l1.5,1.8l-0.9,0.7l-3.4-4.2L187.1,379.5z"/>
<path d="M192.2,375.3l1.4,1.7l2-1.6l-1.4-1.7l0.9-0.7l3.4,4.2l-0.9,0.7l-1.5-1.8l-2,1.6l1.5,1.8l-0.9,0.7l-3.4-4.2L192.2,375.3z"/>
<path d="M198.6,372.8l0.8-0.7c0.6-0.5,1.1-0.7,1.5-0.8c0.4,0,0.8,0.2,1.2,0.6s0.5,0.9,0.4,1.3c-0.1,0.5-0.4,0.9-1,1.4l-1.7,1.4
	l-3.4-4.2l0.9-0.7L198.6,372.8z M201.3,372.6c-0.2-0.2-0.4-0.3-0.6-0.2c-0.2,0-0.5,0.2-0.8,0.4l-0.8,0.6l1,1.2l0.7-0.6
	c0.4-0.3,0.6-0.6,0.6-0.8C201.5,373.1,201.5,372.9,201.3,372.6z M204.8,371.9l-0.9,0.7l-3.4-4.2l0.9-0.7L204.8,371.9z"/>
<path d="M203.5,365.9l1.8,2.1c0.2,0.2,0.5,0.6,0.8,1.1l-0.6-5l1.1-0.9l3.4,4.2l-0.9,0.7l-1.7-2.1c-0.1-0.1-0.2-0.3-0.4-0.6
	c-0.2-0.3-0.3-0.5-0.4-0.6l0.6,4.9l-1.1,0.9l-3.4-4.2L203.5,365.9z M204.2,364.5c-0.5,0.4-1,0.7-1.4,0.7s-0.8-0.2-1.2-0.6l0.8-0.7
	c0.2,0.2,0.3,0.3,0.4,0.3c0.1,0.1,0.3,0.1,0.4,0c0.1,0,0.3-0.1,0.5-0.3c0.2-0.2,0.4-0.4,0.4-0.6s0-0.5-0.2-0.7l0.8-0.7
	c0.3,0.5,0.4,0.9,0.3,1.3C205.1,363.7,204.7,364.1,204.2,364.5z"/>
<path d="M213.7,357.6l3.4,4.2l-0.9,0.7l-2.9-3.5l-1.9,1.5l2.9,3.5l-0.9,0.7l-3.4-4.2L213.7,357.6z"/>
<path d="M220.4,359.2c-0.6,0.5-1.3,0.8-2,0.7c-0.7-0.1-1.3-0.4-1.8-1.1c-0.6-0.7-0.8-1.4-0.8-2c0-0.7,0.3-1.2,0.9-1.7
	c0.6-0.5,1.1-0.6,1.7-0.6c0.6,0.1,1.1,0.4,1.6,1l0.4,0.5l-2.8,2.3c0.3,0.4,0.7,0.6,1.1,0.7c0.4,0,0.8-0.1,1.1-0.4
	c0.2-0.2,0.5-0.4,0.6-0.6c0.2-0.2,0.3-0.5,0.5-0.8l0.6,0.7c-0.1,0.3-0.3,0.5-0.5,0.8C220.9,358.7,220.7,358.9,220.4,359.2z
	 M217.2,355.7c-0.3,0.2-0.4,0.5-0.5,0.8c0,0.3,0.1,0.7,0.3,1l1.9-1.6c-0.3-0.3-0.6-0.5-0.9-0.6C217.8,355.3,217.5,355.4,217.2,355.7
	z"/>
<path d="M225.2,355.2c-0.5,0.4-1.1,0.6-1.7,0.4h-0.1c0.3,0.3,0.5,0.5,0.6,0.6l1.4,1.7l-0.9,0.7l-5-6l0.7-0.6
	c0.1,0.1,0.3,0.2,0.6,0.5l0,0c-0.1-0.6,0.2-1.2,0.7-1.7c0.5-0.4,1.1-0.6,1.7-0.4c0.6,0.1,1.2,0.5,1.7,1.2c0.6,0.7,0.9,1.3,0.9,2
	C226,354.2,225.7,354.8,225.2,355.2z M222,351.8c-0.4,0.3-0.5,0.6-0.5,0.9s0.2,0.7,0.6,1.2l0.1,0.1c0.4,0.5,0.8,0.8,1.2,0.9
	c0.3,0.1,0.7,0,1.1-0.3c0.3-0.3,0.4-0.6,0.4-1s-0.3-0.8-0.6-1.3c-0.4-0.5-0.8-0.8-1.1-0.9C222.7,351.4,222.3,351.5,222,351.8z"/>
<path d="M229.8,351.4c-0.6,0.5-1.3,0.8-2,0.7c-0.7-0.1-1.3-0.4-1.8-1.1c-0.6-0.7-0.8-1.4-0.8-2c0-0.7,0.3-1.2,0.9-1.7
	c0.5-0.5,1.1-0.6,1.7-0.6c0.6,0.1,1.1,0.4,1.6,1l0.4,0.5l-2.8,2.3c0.3,0.4,0.7,0.6,1.1,0.7c0.4,0,0.8-0.1,1.1-0.4
	c0.2-0.2,0.5-0.4,0.6-0.6c0.2-0.2,0.3-0.5,0.5-0.8l0.6,0.7c-0.1,0.3-0.3,0.5-0.5,0.8C230.3,351,230.1,351.2,229.8,351.4z
	 M226.6,347.9c-0.3,0.2-0.4,0.5-0.5,0.8c0,0.3,0.1,0.7,0.3,1l1.9-1.6c-0.3-0.3-0.6-0.5-0.9-0.6C227.2,347.6,226.9,347.7,226.6,347.9
	z"/>
<path d="M228.3,345.5l1-0.8l2.8,1.7c0.4,0.2,0.8,0.5,1,0.7l0,0c-0.1-0.2-0.2-0.4-0.3-0.6s-0.6-1.4-1.4-3.6l1-0.8l2.1,6.2
	c0.4,1.1,0.2,2-0.5,2.6c-0.2,0.2-0.4,0.3-0.6,0.4l-0.6-0.7c0.2-0.1,0.3-0.2,0.5-0.3c0.4-0.4,0.5-0.8,0.3-1.5l-0.2-0.5L228.3,345.5z"
	/>
<path d="M240.1,342.8l-0.9,0.7l-2.9-3.5l-1.1,0.9c0.7,1,1.1,1.7,1.4,2.3c0.3,0.6,0.4,1.1,0.4,1.5s-0.2,0.7-0.5,1
	c-0.2,0.2-0.4,0.3-0.6,0.3l-0.6-0.7c0.1,0,0.2-0.1,0.3-0.2c0.3-0.2,0.2-0.7-0.1-1.4c-0.3-0.7-0.9-1.7-1.8-2.9l2.8-2.3L240.1,342.8z"
	/>
<path d="M243.4,336.6c0.6,0.7,0.8,1.4,0.8,2c0,0.7-0.4,1.3-1,1.8c-0.4,0.3-0.8,0.5-1.2,0.6s-0.9,0-1.3-0.2c-0.4-0.2-0.8-0.5-1.2-0.9
	c-0.6-0.7-0.8-1.3-0.8-2s0.4-1.3,1-1.8s1.2-0.7,1.9-0.6C242.2,335.5,242.8,335.9,243.4,336.6z M240.3,339.1c0.8,1,1.5,1.1,2.3,0.6
	c0.7-0.6,0.7-1.4-0.1-2.3c-0.8-1-1.5-1.1-2.2-0.6c-0.4,0.3-0.5,0.7-0.5,1C239.7,338.2,240,338.6,240.3,339.1z"/>
<path d="M245.3,331.4l1-0.8l-0.1,3.4l3.6,0.6l-1,0.8l-3.5-0.6l1.7,2.1l-0.9,0.7l-3.4-4.2l0.9-0.7l1.7,2V331.4z"/>
<path d="M172.2,19.8c-0.6-0.4-1.1-0.4-1.7-0.2c-0.6,0.2-1.1,0.6-1.5,1.4c-0.5,0.7-0.7,1.4-0.6,2c0.1,0.6,0.4,1.1,1,1.4
	c0.3,0.2,0.5,0.3,0.8,0.4s0.6,0.2,0.9,0.3l-0.5,0.8c-0.6-0.1-1.2-0.4-1.8-0.8c-0.9-0.6-1.4-1.3-1.5-2.1c-0.1-0.8,0.1-1.8,0.7-2.7
	c0.4-0.6,0.9-1.1,1.4-1.4s1.1-0.5,1.7-0.4s1.2,0.2,1.8,0.6s1.1,0.9,1.5,1.5l-0.9,0.6c-0.1-0.2-0.3-0.4-0.5-0.7
	C172.6,20.1,172.4,19.9,172.2,19.8z"/>
<path d="M173.8,28.4c-0.6-0.4-0.9-0.9-0.9-1.5h-0.1c-0.2,0.4-0.3,0.7-0.4,0.7l-1.2,1.9l-1-0.6l4.2-6.6l0.8,0.5
	c0,0.1-0.1,0.3-0.3,0.7l0,0c0.6-0.3,1.2-0.2,1.8,0.2c0.6,0.4,0.9,0.8,0.9,1.5c0.1,0.6-0.1,1.3-0.6,2s-1,1.2-1.6,1.4
	C175,28.8,174.4,28.7,173.8,28.4z M176.1,24.3c-0.4-0.2-0.7-0.3-1.1-0.2c-0.3,0.1-0.6,0.4-0.9,0.9l-0.1,0.1c-0.4,0.6-0.5,1-0.5,1.4
	s0.2,0.7,0.6,0.9c0.3,0.2,0.7,0.2,1,0.1c0.4-0.2,0.7-0.5,1-1s0.5-1,0.5-1.3C176.6,24.8,176.5,24.5,176.1,24.3z"/>
<path d="M178.9,31.5c-0.7-0.4-1.1-1-1.3-1.7c-0.1-0.7,0-1.4,0.5-2.1s1-1.2,1.7-1.4c0.6-0.2,1.3-0.1,1.9,0.3c0.6,0.4,1,0.9,1.1,1.5
	s0,1.2-0.4,1.8l-0.3,0.5l-3-1.9c-0.3,0.5-0.4,0.9-0.3,1.3c0.1,0.4,0.3,0.7,0.7,1c0.3,0.2,0.5,0.3,0.8,0.4s0.6,0.2,0.9,0.2l-0.5,0.8
	c-0.3,0-0.6-0.1-0.9-0.2C179.5,31.9,179.2,31.7,178.9,31.5z M181.2,27.4c-0.3-0.2-0.6-0.3-0.9-0.2c-0.3,0.1-0.6,0.3-0.9,0.6l2.1,1.3
	c0.2-0.4,0.3-0.7,0.3-1C181.7,27.9,181.5,27.6,181.2,27.4z"/>
<path d="M188.2,31l-0.5,0.8l-1.5-0.9l-2.4,3.8l-1-0.6l2.4-3.8l-1.5-0.9l0.5-0.8L188.2,31z"/>
<path d="M188.2,37.5c-0.7-0.5-1.1-1-1.3-1.7c-0.1-0.7,0-1.4,0.5-2.1c0.5-0.7,1-1.2,1.7-1.4c0.6-0.2,1.3-0.1,1.9,0.3
	c0.6,0.4,1,0.9,1.1,1.5s0,1.2-0.4,1.8l-0.3,0.5l-3-1.9c-0.3,0.5-0.4,0.9-0.3,1.3c0.1,0.4,0.3,0.7,0.7,1c0.3,0.2,0.5,0.3,0.8,0.4
	c0.3,0.1,0.6,0.2,0.9,0.2l-0.5,0.8c-0.3,0-0.6-0.1-0.9-0.2C188.8,37.8,188.5,37.7,188.2,37.5z M190.6,33.4c-0.3-0.2-0.6-0.3-0.9-0.2
	c-0.3,0.1-0.6,0.3-0.9,0.6l2.1,1.3c0.2-0.4,0.3-0.7,0.3-1C191.1,33.8,190.9,33.6,190.6,33.4z"/>
<path d="M195.1,35.3l-1.2,1.8l2.1,1.4l1.2-1.8l1,0.6l-2.9,4.6l-1-0.6l1.2-2l-2.1-1.4l-1.2,2l-1-0.6l2.9-4.6L195.1,35.3z"/>
<path d="M198.6,44c-0.7-0.4-1.1-1-1.2-1.6c-0.1-0.6,0.1-1.3,0.6-2.1s1-1.2,1.7-1.4c0.6-0.2,1.3,0,2,0.4c0.5,0.3,0.9,0.7,1.1,1.1
	L202,41c-0.3-0.4-0.6-0.7-0.9-0.9c-0.8-0.5-1.5-0.2-2.2,0.8c-0.3,0.5-0.5,1-0.4,1.3c0,0.4,0.2,0.7,0.6,0.9c0.4,0.3,0.9,0.4,1.4,0.5
	l-0.5,0.8c-0.2,0-0.5-0.1-0.7-0.1C199.1,44.4,198.8,44.2,198.6,44z"/>
<path d="M206.8,42.7l1.1,0.7l-3.3,1l0.5,3.7l-1.1-0.7l-0.5-3.6l-1.5,2.3l-1-0.6l2.9-4.6l1,0.6l-1.4,2.2L206.8,42.7z"/>
<path d="M209.8,44.6l-1.5,2.3c-0.2,0.3-0.4,0.7-0.8,1.2L212,46l1.2,0.8l-2.9,4.6l-0.9-0.6l1.5-2.3c0.1-0.1,0.2-0.3,0.4-0.6
	s0.3-0.5,0.4-0.6l-4.5,2.1l-1.2-0.8l2.9-4.6L209.8,44.6z"/>
<path d="M215.6,48.3l-1.5,2.3c-0.2,0.3-0.4,0.7-0.8,1.2l4.5-2.1l1.2,0.8l-2.9,4.6l-0.9-0.6l1.5-2.3c0.1-0.1,0.2-0.3,0.4-0.6
	s0.3-0.5,0.4-0.6l-4.5,2.1l-1.2-0.8l2.9-4.6L215.6,48.3z M217.1,48.5c-0.6-0.4-0.9-0.7-1.1-1.1c-0.1-0.4-0.1-0.8,0.2-1.3l0.9,0.6
	c-0.1,0.2-0.2,0.4-0.2,0.5s0,0.3,0.1,0.4c0.1,0.1,0.2,0.2,0.5,0.4s0.5,0.2,0.7,0.2s0.4-0.2,0.6-0.4l0.9,0.6
	c-0.3,0.4-0.7,0.7-1.2,0.7C218.2,49,217.7,48.9,217.1,48.5z"/>
<path d="M221.3,54.5c0.6-1,1.3-1.7,2-2s1.5-0.3,2.3,0c0.6,0.2,1.4,0.5,2.2,0.9l-0.4,0.9c-1-0.4-1.7-0.7-2.2-0.9s-0.9-0.2-1.3-0.1
	c-0.4,0.2-0.7,0.5-1.1,1h0.1c0.3-0.1,0.6-0.2,1-0.1c0.3,0,0.6,0.1,0.9,0.3c0.6,0.4,0.9,0.8,1,1.4c0.1,0.6-0.1,1.2-0.5,1.8
	c-0.5,0.7-1,1.2-1.7,1.3c-0.6,0.2-1.3,0-2-0.4s-1-1-1.1-1.7C220.5,56.2,220.7,55.4,221.3,54.5z M222.2,57.9c0.7,0.5,1.4,0.2,2-0.7
	s0.5-1.6-0.1-2c-0.2-0.1-0.4-0.2-0.6-0.2c-0.2,0-0.4,0-0.7,0c-0.2,0-0.4,0.1-0.6,0.2c-0.4,0.6-0.6,1.2-0.6,1.7
	C221.6,57.3,221.8,57.7,222.2,57.9z"/>
<path d="M227.2,55.7l1.1,0.7l-0.7,3.2c-0.1,0.5-0.2,0.9-0.4,1.2l0,0c0.1-0.1,0.3-0.3,0.5-0.5s1.2-1,3-2.4l1,0.7l-5.2,3.9
	c-1,0.7-1.8,0.8-2.7,0.3c-0.2-0.1-0.4-0.3-0.6-0.5l0.5-0.8c0.1,0.1,0.3,0.2,0.5,0.4c0.5,0.3,1,0.2,1.5-0.2l0.4-0.3L227.2,55.7z"/>
<path d="M233.4,66l-1-0.6l2.4-3.8l-1.3-0.8c-0.7,0.9-1.3,1.6-1.8,2.1s-0.9,0.8-1.3,0.9c-0.4,0.1-0.7,0.1-1.1-0.1
	c-0.2-0.1-0.4-0.3-0.5-0.4l0.5-0.8c0.1,0.1,0.2,0.2,0.3,0.3c0.3,0.2,0.7,0,1.3-0.5s1.3-1.4,2.2-2.7l3.1,1.9L233.4,66z"/>
<path d="M237.6,64.8l1.1,0.7c1.3,0.8,1.6,1.7,1.1,2.5c-0.3,0.5-0.7,0.7-1.2,0.8c-0.5,0-1-0.1-1.6-0.5l-2.1-1.3l2.9-4.6l1,0.6
	L237.6,64.8z M238.8,67.5c0.1-0.2,0.2-0.4,0-0.6c-0.1-0.2-0.3-0.4-0.6-0.6l-1.1-0.7l-0.8,1.3l1.1,0.7c0.3,0.2,0.6,0.3,0.8,0.3
	C238.5,67.8,238.7,67.7,238.8,67.5z"/>
<path d="M246.2,69.4c-0.3,0.5-0.9,0.7-1.6,0.4l0,0c0.3,0.3,0.5,0.5,0.6,0.8s0,0.6-0.2,0.9c-0.3,0.4-0.6,0.7-1.1,0.7s-1-0.2-1.7-0.6
	l-2.2-1.4l2.9-4.6l2.2,1.4C246.3,67.8,246.7,68.6,246.2,69.4z M244.1,70.8c0.1-0.2,0.2-0.4,0-0.6c-0.1-0.2-0.3-0.4-0.7-0.6l-1.1-0.7
	l-0.8,1.3l1.1,0.7C243.3,71.3,243.8,71.3,244.1,70.8z M245.1,68.8c0.1-0.2,0.1-0.4,0-0.5c-0.1-0.2-0.3-0.3-0.6-0.5l-1.2-0.7
	l-0.7,1.1l1,0.7c0.3,0.2,0.6,0.3,0.8,0.3C244.8,69.2,245,69.1,245.1,68.8z"/>
<path d="M248.1,75.4l0.2-0.8l0,0c-0.4,0.1-0.7,0.2-1,0.1c-0.3,0-0.6-0.2-1-0.4c-0.4-0.3-0.7-0.6-0.8-1s0-0.8,0.3-1.3
	s0.7-0.7,1.2-0.7s1.1,0.2,1.8,0.6l0.8,0.5l0.2-0.2c0.2-0.3,0.3-0.6,0.2-0.8c0-0.2-0.2-0.4-0.5-0.6c-0.2-0.1-0.5-0.3-0.7-0.3
	c-0.3-0.1-0.5-0.1-0.8-0.1l0.1-0.9c0.3,0,0.7,0.1,1,0.2s0.6,0.3,0.9,0.4c0.6,0.4,0.9,0.8,1.1,1.2c0.1,0.4,0,0.9-0.3,1.5l-1.9,3.1
	L248.1,75.4z M247.1,73.8c0.4,0.2,0.7,0.3,1,0.2c0.3-0.1,0.6-0.3,0.8-0.6l0.3-0.4l-0.6-0.3c-0.5-0.3-0.8-0.4-1.1-0.4
	s-0.5,0.1-0.7,0.4c-0.1,0.2-0.2,0.4-0.1,0.6C246.7,73.5,246.8,73.6,247.1,73.8z"/>
<path d="M252.5,78.3c-0.6-0.4-0.9-0.9-0.9-1.5h-0.1c-0.2,0.4-0.3,0.7-0.4,0.7l-1.2,1.9l-1-0.6l4.2-6.6l0.8,0.5
	c0,0.1-0.1,0.3-0.3,0.7l0,0c0.6-0.3,1.2-0.2,1.8,0.2c0.6,0.4,0.9,0.8,0.9,1.5c0.1,0.6-0.2,1.3-0.6,2c-0.5,0.7-1,1.2-1.6,1.4
	C253.6,78.7,253.1,78.6,252.5,78.3z M254.7,74.2c-0.4-0.2-0.7-0.3-1.1-0.2c-0.3,0.1-0.6,0.4-0.9,0.9l-0.1,0.1
	c-0.4,0.6-0.5,1-0.5,1.4s0.2,0.7,0.6,0.9c0.3,0.2,0.7,0.2,1,0.1c0.4-0.2,0.7-0.5,1-1s0.5-1,0.5-1.3
	C255.3,74.7,255.1,74.4,254.7,74.2z"/>
<g>
	<polygon class="st2" points="335.4,208.6 349.5,194.1 271.5,124.6 265.4,124.6 244.3,161.4 249.1,164.6 224.9,215.1 220.1,213.1 
		185.3,274.5 197,281.8 207.5,267.5 247.5,290.7 263.3,268.5 257.2,264.9 251.5,273.4 218.3,252.8 228.1,239.5 288.3,274.7 
		293.1,267.6 251.5,239.5 271.3,252.8 284.2,239.5 280.2,235.5 297.2,213.3 319.4,225 323.4,219.7 300.8,206 304,201.2 280.2,185 
		283,179.7 327.5,219.7 332.8,213.2 283.1,168.3 279.1,170.7 261.3,159.8 269.4,140.8 315.1,181.2 317.9,178 336.2,196.5 
		329.7,203.8 	"/>
	<polygon class="st2" points="217,301.7 210.9,311 221.4,319.9 195.1,340.5 184.2,331.3 185.8,329.9 189.4,332.3 201.9,318.6 
		191.4,309.7 179.3,323.8 182.5,327 180.9,328.5 172.4,321.4 189,298 198.2,303.3 204.7,295.2 180.5,279 155.9,319.8 194,354.2 
		238,321.5 236.4,315.4 	"/>
	<path class="st2" d="M147,330.7l-34,34.7l8.5,9.7L115,382l20.6,23l46.9-42.8l-32.7-31.5H147z M137.7,393.4l-8.1-8.9l4-4l8.5,9.3
		L137.7,393.4z M167.2,363.5l-20.2,21l-3.2-2.4l3.2-3.6l-4.8-4.9l-6.5,4.9l-6.1-10.6l22.2-21.8L167.2,363.5z"/>
</g>
<path class="st2" d="M287.9,232.3l7.4-10.3l17.3,11.9l-5.8,9.5L287.9,232.3z"/>
<path class="st2" d="M278.4,306.8l4.9-9.5l11.9,5.8l-6.2,9.5L278.4,306.8z"/>
<path class="st2" d="M285.4,276.4l-7,7l10.7,10.3l14.8-13.6l4.5,4.9l6.6-4.9l-12.8-11.5L289,281.8L285.4,276.4z"/>
<path class="st2" d="M325.8,265.6l13.2-12.8l7.8,7l-15.2,13.6L325.8,265.6z"/>
<path class="st2" d="M328.7,301.9l6.6-8.2l7,3.7l-7,9.5L328.7,301.9z"/>
<path class="st2" d="M335.3,283.4l8.6-12.8l11.1,7l-8.2,12.8L335.3,283.4z"/>
<path class="st2" d="M346.8,210.5l9.5-11.5l36.7,35l-25.2,30l-16.9-15.2l-7,4.1l-16.9-19l22.2-19.4L346.8,210.5z"/>
<path class="st2" d="M318.4,283.4l4.9-5.8l8.2,9.9l-5.8,4.5L318.4,283.4z"/>
<path class="st2" d="M315.1,318.8l8.2-13.2l8.2,7l-10.7,18.5l-15.7-9.9l3.3-6.2L315.1,318.8z"/>
<path class="st2" d="M261.5,285l-8.2-4.9l-4.9,4.9l14.8,8.6l4.9-1.6l5.8,2.9l2.5-4.5l-11.1-7L261.5,285z"/>
<path class="st0" d="M274.2,313.1c-1.6-0.6-2.5-0.7-2.8-0.7c-2.6,0.1-6.7,1.6-12.2,4.6c-5.3,2.9-11.5,6.9-18.2,11.5
	c-10.4,7.2-21.8,15.8-32.4,23.8c-3.1,2.3-6.1,4.6-9,6.8C179,374.5,95.5,448.1,65,476.6c-0.8,0.8-2.1,0.7-2.9-0.1
	c-0.8-0.8-0.7-2.1,0.1-2.9c30.6-28.4,114.2-102.1,135-117.7c2.9-2.2,5.9-4.4,8.9-6.7c10.7-8,22.1-16.7,32.6-24
	c6.7-4.7,13.1-8.8,18.6-11.7c5.4-2.9,10.3-4.9,13.9-5c1.2,0,2.7,0.4,4.3,1c1.7,0.6,3.7,1.5,6,2.6c4.6,2.2,10.6,5.4,17.3,9.2
	c13.5,7.7,30.4,18.1,47.2,29c16.8,10.8,33.6,22.1,46.7,31.5c6.6,4.7,12.3,9,16.7,12.5c4.3,3.4,7.6,6.3,9,8.2
	c4.2,5.5,10.9,18.8,17.5,32.8c6.7,14.2,13.3,29.4,17.5,39.1c0.4,1,0,2.2-1.1,2.6c-1,0.4-2.2,0-2.6-1.1c-4.1-9.7-10.8-24.9-17.4-39
	c-6.7-14.2-13.2-27-17.1-32.1c-1.1-1.4-3.9-4-8.3-7.5c-4.3-3.4-10-7.6-16.5-12.3c-13.1-9.4-29.8-20.6-46.6-31.4
	c-16.8-10.8-33.6-21.2-47-28.9c-6.7-3.8-12.5-6.9-17-9.1C277.6,314.4,275.7,313.6,274.2,313.1z"/>
<path class="st0" d="M401.7,231.9c0.8,0.8,0.8,2,0.1,2.9c-10.3,10.9-26.8,29.7-42.9,51s-31.8,44.9-40.4,65.2
	c-17.5,41.1-51.6,126.8-55.6,139.2c-0.3,1.1-1.5,1.6-2.5,1.3c-1.1-0.3-1.6-1.5-1.3-2.5c4.1-12.6,38.3-98.5,55.8-139.5
	c8.8-20.8,24.7-44.7,40.9-66c16.2-21.4,32.8-40.4,43.1-51.3C399.7,231.1,400.9,231.1,401.7,231.9z"/>
<g>
	<path d="M134.8,114.1h-1.5v-8h-2.7v-1.3h7v1.3h-2.7v8H134.8z"/>
	<path d="M137.9,107h1.6l1.4,4c0.2,0.6,0.4,1.1,0.4,1.6h0.1c0-0.2,0.1-0.5,0.2-0.8c0.1-0.3,0.6-1.9,1.6-4.7h1.6l-3,8
		c-0.5,1.5-1.5,2.2-2.7,2.2c-0.3,0-0.7,0-1-0.1V116c0.2,0.1,0.5,0.1,0.8,0.1c0.7,0,1.2-0.4,1.5-1.2l0.3-0.7L137.9,107z"/>
	<path d="M149.6,114.2c-0.9,0-1.6-0.3-2.1-1h-0.1c0.1,0.6,0.1,1,0.1,1.1v2.9H146V107h1.2c0,0.1,0.1,0.4,0.2,0.9h0.1
		c0.5-0.7,1.2-1.1,2.1-1.1c0.9,0,1.6,0.3,2,1c0.5,0.6,0.7,1.5,0.7,2.7c0,1.1-0.2,2-0.7,2.7C151.2,113.9,150.5,114.2,149.6,114.2z
		 M149.2,108.1c-0.6,0-1,0.2-1.3,0.5s-0.4,0.9-0.4,1.7v0.2c0,0.9,0.1,1.5,0.4,1.9c0.3,0.4,0.7,0.6,1.3,0.6c0.5,0,0.9-0.2,1.2-0.6
		s0.4-1,0.4-1.8s-0.1-1.4-0.4-1.8C150.2,108.3,149.8,108.1,149.2,108.1z"/>
	<path d="M158.8,107v1.2h-3v5.9h-1.5v-7L158.8,107L158.8,107z"/>
	<path d="M163.4,114.2c-1.1,0-1.9-0.3-2.6-1c-0.6-0.6-0.9-1.5-0.9-2.6s0.3-2,0.9-2.7c0.6-0.7,1.4-1,2.4-1c0.9,0,1.7,0.3,2.2,0.8
		c0.5,0.6,0.8,1.3,0.8,2.3v0.8h-4.7c0,0.7,0.2,1.2,0.6,1.6c0.3,0.4,0.8,0.5,1.5,0.5c0.4,0,0.8,0,1.2-0.1s0.7-0.2,1.2-0.4v1.2
		c-0.4,0.2-0.7,0.3-1.1,0.4C164.3,114.1,163.8,114.2,163.4,114.2z M163.1,108c-0.5,0-0.9,0.2-1.1,0.5c-0.3,0.3-0.5,0.7-0.5,1.3h3.2
		c0-0.6-0.1-1-0.4-1.3C163.9,108.2,163.6,108,163.1,108z"/>
	<path d="M169.4,107v2.8h3.3V107h1.5v7h-1.5v-3h-3.3v3h-1.5v-7H169.4z"/>
	<path d="M179.5,114.2c-1.1,0-1.9-0.3-2.6-1c-0.6-0.6-0.9-1.5-0.9-2.6s0.3-2,0.9-2.7c0.6-0.7,1.4-1,2.4-1c0.9,0,1.7,0.3,2.2,0.8
		c0.5,0.6,0.8,1.3,0.8,2.3v0.8h-4.7c0,0.7,0.2,1.2,0.6,1.6c0.3,0.4,0.8,0.5,1.5,0.5c0.4,0,0.8,0,1.2-0.1s0.7-0.2,1.2-0.4v1.2
		c-0.4,0.2-0.7,0.3-1.1,0.4C180.4,114.1,180,114.2,179.5,114.2z M179.3,108c-0.5,0-0.9,0.2-1.1,0.5c-0.3,0.3-0.5,0.7-0.5,1.3h3.2
		c0-0.6-0.1-1-0.4-1.3C180.1,108.2,179.7,108,179.3,108z"/>
	<path d="M190.2,108.8c0,0.8-0.5,1.3-1.5,1.5v0.1c0.5,0.1,1,0.2,1.2,0.5c0.3,0.3,0.4,0.6,0.4,1.1c0,0.7-0.3,1.2-0.8,1.5
		c-0.5,0.4-1.2,0.5-2.2,0.5h-3.4v-7h3.3C189.3,107,190.2,107.6,190.2,108.8z M188.9,111.9c0-0.3-0.1-0.6-0.4-0.7
		c-0.3-0.1-0.7-0.2-1.2-0.2h-1.7v2h1.8C188.4,113,188.9,112.6,188.9,111.9z M188.7,109c0-0.3-0.1-0.5-0.3-0.6s-0.5-0.2-1-0.2h-1.8
		v1.7h1.6c0.5,0,0.9-0.1,1.1-0.2C188.6,109.5,188.7,109.3,188.7,109z"/>
	<path d="M194.9,114.2c-1.1,0-1.9-0.3-2.4-0.9c-0.6-0.6-0.8-1.5-0.8-2.7s0.3-2.1,0.9-2.7c0.6-0.6,1.4-1,2.5-1c0.7,0,1.4,0.1,2,0.4
		l-0.5,1.2c-0.6-0.2-1.2-0.4-1.6-0.4c-1.2,0-1.8,0.8-1.8,2.4c0,0.8,0.2,1.4,0.5,1.8s0.7,0.6,1.3,0.6c0.7,0,1.3-0.2,1.9-0.5v1.3
		c-0.3,0.2-0.6,0.3-0.9,0.3C195.7,114.2,195.3,114.2,194.9,114.2z"/>
	<path d="M203,107h1.6l-2.9,3.4l3.1,3.6h-1.7l-3-3.6v3.6h-1.5v-7h1.5v3.4L203,107z"/>
	<path d="M210.6,114.1l-0.3-1h-0.1c-0.3,0.4-0.7,0.7-1,0.9c-0.3,0.2-0.8,0.2-1.3,0.2c-0.7,0-1.2-0.2-1.6-0.6
		c-0.4-0.4-0.6-0.9-0.6-1.6s0.3-1.3,0.8-1.6c0.5-0.4,1.4-0.6,2.5-0.6h1.2v-0.4c0-0.4-0.1-0.8-0.3-1s-0.5-0.3-1-0.3
		c-0.4,0-0.7,0.1-1,0.2s-0.6,0.2-1,0.4l-0.5-1.1c0.4-0.2,0.8-0.3,1.2-0.5c0.5-0.1,0.9-0.2,1.3-0.2c0.9,0,1.6,0.2,2,0.6
		c0.5,0.4,0.7,1,0.7,1.8v4.7L210.6,114.1L210.6,114.1z M208.3,113c0.5,0,1-0.2,1.3-0.5s0.5-0.7,0.5-1.3v-0.6h-0.9
		c-0.7,0-1.2,0.1-1.5,0.4c-0.3,0.2-0.5,0.5-0.5,1c0,0.3,0.1,0.6,0.3,0.7C207.7,113,208,113,208.3,113z"/>
	<path d="M214.6,114.1h-1.7l2-2.9c-0.5-0.1-0.8-0.4-1.1-0.7c-0.3-0.4-0.4-0.8-0.4-1.3c0-0.7,0.2-1.2,0.7-1.6s1.1-0.6,1.9-0.6h3.2v7
		h-1.5v-2.7h-1.4L214.6,114.1z M214.8,109.2c0,0.4,0.1,0.6,0.4,0.8c0.3,0.2,0.6,0.3,1.1,0.3h1.4v-2.1h-1.6c-0.4,0-0.7,0.1-0.9,0.3
		C214.9,108.6,214.8,108.8,214.8,109.2z"/>
</g>
<path d="M328.3,66.9c-0.9,0-1.6,0.3-2.1,0.9s-0.7,1.5-0.7,2.6s0.2,2,0.7,2.6s1.2,0.9,2.1,0.9c0.4,0,0.8,0,1.1-0.1
	c0.4-0.1,0.8-0.2,1.1-0.3v1.3c-0.7,0.3-1.6,0.4-2.5,0.4c-1.4,0-2.4-0.4-3.1-1.2c-0.7-0.8-1.1-2-1.1-3.5c0-1,0.2-1.8,0.5-2.5
	c0.4-0.7,0.9-1.3,1.5-1.7c0.7-0.4,1.5-0.6,2.4-0.6s1.8,0.2,2.6,0.6l-0.5,1.3c-0.3-0.1-0.6-0.3-1-0.4C329,67,328.7,66.9,328.3,66.9z"
	/>
<path d="M336.1,75.2c-0.9,0-1.6-0.3-2.1-1h-0.1c0.1,0.6,0.1,1,0.1,1.1v2.9h-1.5V68h1.2c0,0.1,0.1,0.4,0.2,0.9h0.1
	c0.5-0.7,1.2-1.1,2.1-1.1s1.6,0.3,2,1c0.5,0.6,0.7,1.5,0.7,2.7c0,1.1-0.2,2-0.7,2.7C337.7,74.8,337,75.2,336.1,75.2z M335.7,69.1
	c-0.6,0-1,0.2-1.3,0.5s-0.4,0.9-0.4,1.7v0.2c0,0.9,0.1,1.5,0.4,1.9s0.7,0.6,1.3,0.6c0.5,0,0.9-0.2,1.2-0.6s0.4-1,0.4-1.8
	s-0.1-1.4-0.4-1.8C336.7,69.3,336.3,69.1,335.7,69.1z"/>
<path d="M343.8,75.2c-1.1,0-1.9-0.3-2.6-1c-0.6-0.6-0.9-1.5-0.9-2.6s0.3-2,0.9-2.7s1.4-1,2.4-1c0.9,0,1.7,0.3,2.2,0.8
	c0.5,0.6,0.8,1.3,0.8,2.3v0.8h-4.7c0,0.7,0.2,1.2,0.6,1.6c0.3,0.4,0.8,0.5,1.5,0.5c0.4,0,0.8,0,1.2-0.1c0.4-0.1,0.7-0.2,1.2-0.4v1.2
	c-0.4,0.2-0.7,0.3-1.1,0.4C344.7,75.1,344.3,75.2,343.8,75.2z M343.6,69c-0.5,0-0.9,0.2-1.1,0.5c-0.3,0.3-0.5,0.7-0.5,1.3h3.2
	c0-0.6-0.1-1-0.4-1.3C344.4,69.2,344,69,343.6,69z"/>
<path d="M353.7,68v1.2h-2.3V75h-1.5v-5.9h-2.3V68H353.7z"/>
<path d="M358.2,75.2c-1.1,0-1.9-0.3-2.6-1c-0.6-0.6-0.9-1.5-0.9-2.6s0.3-2,0.9-2.7s1.4-1,2.4-1c0.9,0,1.7,0.3,2.2,0.8
	c0.5,0.6,0.8,1.3,0.8,2.3v0.8h-4.7c0,0.7,0.2,1.2,0.6,1.6c0.3,0.4,0.8,0.5,1.5,0.5c0.4,0,0.8,0,1.2-0.1c0.4-0.1,0.7-0.2,1.2-0.4v1.2
	c-0.4,0.2-0.7,0.3-1.1,0.4C359.1,75.1,358.7,75.2,358.2,75.2z M357.9,69c-0.5,0-0.9,0.2-1.1,0.5c-0.3,0.3-0.5,0.7-0.5,1.3h3.2
	c0-0.6-0.1-1-0.4-1.3C358.8,69.2,358.4,69,357.9,69z"/>
<path d="M364.3,68v2.8h3.3V68h1.5v7h-1.5v-3h-3.3v3h-1.5v-7H364.3z"/>
<path d="M374.2,75.2c-1.1,0-1.9-0.3-2.4-0.9s-0.8-1.5-0.8-2.7s0.3-2.1,0.9-2.7s1.4-1,2.5-1c0.7,0,1.4,0.1,2,0.4l-0.5,1.2
	c-0.6-0.2-1.2-0.4-1.6-0.4c-1.2,0-1.8,0.8-1.8,2.4c0,0.8,0.1,1.4,0.5,1.8c0.3,0.4,0.7,0.6,1.3,0.6c0.7,0,1.3-0.2,1.9-0.5v1.3
	c-0.3,0.2-0.6,0.3-0.9,0.3C375,75.1,374.6,75.2,374.2,75.2z"/>
<path d="M382.3,68h1.6l-2.9,3.4l3.1,3.6h-1.7l-3-3.6V75h-1.5v-7h1.5v3.4L382.3,68z"/>
<path d="M386.9,68v3.6c0,0.4,0,1-0.1,1.8l3.5-5.4h1.8v7h-1.4v-3.5c0-0.2,0-0.5,0-0.9s0-0.8,0.1-1l-3.5,5.4h-1.8v-7H386.9z"/>
<path d="M395.8,68v3.6c0,0.4,0,1-0.1,1.8l3.5-5.4h1.8v7h-1.4v-3.5c0-0.2,0-0.5,0-0.9s0-0.8,0.1-1l-3.5,5.4h-1.8v-7H395.8z
	 M397.6,67.2c-0.9,0-1.6-0.2-2-0.5s-0.6-0.9-0.7-1.6h1.4c0,0.3,0.1,0.5,0.2,0.7s0.2,0.3,0.4,0.4c0.2,0.1,0.4,0.1,0.8,0.1
	s0.7-0.1,0.9-0.3c0.2-0.2,0.3-0.5,0.4-0.9h1.4c-0.1,0.7-0.3,1.3-0.8,1.6C399.2,67,398.5,67.2,397.6,67.2z"/>
<path d="M323.8,87.8c0-1.6,0.3-2.8,0.8-3.6c0.5-0.8,1.4-1.4,2.5-1.6c0.9-0.2,1.9-0.4,3-0.5l0.2,1.3c-1.4,0.2-2.4,0.4-3,0.5
	c-0.7,0.1-1.1,0.4-1.4,0.8s-0.5,1.1-0.5,1.9h0.1c0.2-0.4,0.6-0.6,0.9-0.8c0.4-0.2,0.8-0.3,1.2-0.3c0.9,0,1.5,0.3,2,0.8
	s0.7,1.3,0.7,2.3c0,1.1-0.3,2-0.9,2.6s-1.4,0.9-2.4,0.9s-1.8-0.4-2.4-1.1C324.1,90.3,323.8,89.2,323.8,87.8z M327.2,90.9
	c1.1,0,1.7-0.7,1.7-2.2c0-1.4-0.5-2.1-1.5-2.1c-0.3,0-0.5,0.1-0.8,0.2s-0.5,0.3-0.7,0.5s-0.4,0.4-0.5,0.6c0,1,0.2,1.8,0.5,2.3
	C326.1,90.7,326.6,90.9,327.2,90.9z"/>
<path d="M331.2,85h1.6l1.4,4c0.2,0.6,0.4,1.1,0.4,1.6h0.1c0-0.2,0.1-0.5,0.2-0.8s0.6-1.9,1.6-4.7h1.6l-3,8c-0.5,1.5-1.5,2.2-2.7,2.2
	c-0.3,0-0.7,0-1-0.1V94c0.2,0.1,0.5,0.1,0.8,0.1c0.7,0,1.2-0.4,1.5-1.3L334,92L331.2,85z"/>
<path d="M345.1,92h-1.5v-5.9h-1.9c-0.1,1.5-0.3,2.7-0.5,3.5s-0.5,1.5-0.8,1.9s-0.7,0.6-1.3,0.6c-0.3,0-0.6,0-0.8-0.1v-1.2
	c0.2,0.1,0.3,0.1,0.5,0.1c0.4,0,0.8-0.5,1-1.5s0.4-2.5,0.6-4.5h4.7L345.1,92L345.1,92z"/>
<path d="M348.9,87.8h1.8c2,0,2.9,0.7,2.9,2c0,0.7-0.2,1.3-0.7,1.6c-0.5,0.4-1.2,0.6-2.2,0.6h-3.2v-7h1.5L348.9,87.8L348.9,87.8z
	 M352.1,89.9c0-0.4-0.1-0.6-0.4-0.7s-0.6-0.2-1.1-0.2h-1.7v2h1.7c0.5,0,0.9-0.1,1.1-0.3C351.9,90.5,352.1,90.2,352.1,89.9z"/>
<path d="M361.4,86.8c0,0.8-0.5,1.3-1.5,1.5v0.1c0.5,0.1,1,0.2,1.2,0.5c0.3,0.3,0.4,0.6,0.4,1.1c0,0.7-0.3,1.2-0.8,1.5
	c-0.5,0.4-1.2,0.5-2.2,0.5h-3.4v-7h3.3C360.5,85,361.4,85.6,361.4,86.8z M360.1,89.9c0-0.3-0.1-0.6-0.4-0.7S359,89,358.5,89h-1.7v2
	h1.8C359.6,90.9,360.1,90.6,360.1,89.9z M359.9,86.9c0-0.3-0.1-0.5-0.3-0.6c-0.2-0.1-0.5-0.2-1-0.2h-1.8v1.7h1.6
	c0.5,0,0.9-0.1,1.1-0.2C359.8,87.5,359.9,87.3,359.9,86.9z"/>
<path d="M367.7,92l-0.3-1h-0.1c-0.3,0.4-0.7,0.7-1,0.9c-0.3,0.2-0.8,0.2-1.3,0.2c-0.7,0-1.2-0.2-1.6-0.6s-0.6-0.9-0.6-1.6
	s0.3-1.3,0.8-1.6c0.5-0.4,1.4-0.6,2.5-0.6h1.2v-0.4c0-0.4-0.1-0.8-0.3-1c-0.2-0.2-0.5-0.3-1-0.3c-0.4,0-0.7,0.1-1,0.2
	s-0.6,0.2-1,0.4l-0.5-1.1c0.4-0.2,0.8-0.3,1.2-0.5c0.5-0.1,0.9-0.2,1.3-0.2c0.9,0,1.6,0.2,2,0.6c0.5,0.4,0.7,1,0.7,1.8V92H367.7z
	 M365.5,91c0.5,0,1-0.2,1.3-0.5s0.5-0.7,0.5-1.3v-0.6h-0.9c-0.7,0-1.2,0.1-1.5,0.4c-0.3,0.2-0.5,0.5-0.5,1c0,0.3,0.1,0.6,0.3,0.7
	C364.8,90.9,365.1,91,365.5,91z"/>
<path d="M374.6,92.2c-0.9,0-1.6-0.3-2.1-1h-0.1c0.1,0.6,0.1,1,0.1,1.1v2.9H371V85h1.2c0,0.1,0.1,0.4,0.2,0.9h0.1
	c0.5-0.7,1.2-1.1,2.1-1.1s1.6,0.3,2,1c0.5,0.6,0.7,1.5,0.7,2.7c0,1.1-0.2,2-0.7,2.7C376.1,91.8,375.4,92.2,374.6,92.2z M374.2,86.1
	c-0.6,0-1,0.2-1.3,0.5s-0.4,0.9-0.4,1.7v0.2c0,0.9,0.1,1.5,0.4,1.9s0.7,0.6,1.3,0.6c0.5,0,0.9-0.2,1.2-0.6c0.3-0.4,0.4-1,0.4-1.8
	s-0.1-1.4-0.4-1.8C375.1,86.3,374.7,86.1,374.2,86.1z"/>
<circle class="st3" cx="302" cy="72.3" r="10.6"/>
<path class="st4" d="M308.5,74.9l-3.4-8.3l-2.9,4.9l-2.9-4.9l-3.4,8.3h-1v1.3h5.1v-1.3h-0.8l0.7-2.1l2.1,3.4l2.1-3.4l0.7,2.1H304
	v1.3h5.1v-1.3H308.5z"/>
<circle class="st5" cx="356.3" cy="161.9" r="10.6"/>
<path class="st4" d="M362.8,164.5l-3.4-8.3l-2.9,4.9l-2.9-4.9l-3.4,8.3h-1v1.3h5.1v-1.3h-0.8l0.7-2.1l2.1,3.4l2.1-3.4l0.7,2.1h-0.8
	v1.3h5.1v-1.3H362.8z"/>
<circle class="st6" cx="239.5" cy="109.2" r="10.6"/>
<path class="st4" d="M246,111.8l-3.4-8.3l-2.9,4.9l-2.9-4.9l-3.4,8.3h-1v1.3h5.1v-1.3h-0.8l0.7-2.1l2.1,3.4l2.1-3.4l0.7,2.1h-0.8
	v1.3h5.1v-1.3H246z"/>
<path d="M173.6,308.9h-4.8V308l1.9-1.8c0.5-0.6,0.9-0.9,1.1-1.2c0.2-0.2,0.3-0.5,0.4-0.7c0.1-0.2,0.1-0.4,0.1-0.7
	c0-0.3-0.1-0.6-0.3-0.8c-0.2-0.2-0.5-0.3-0.8-0.3s-0.5,0-0.8,0.1s-0.6,0.3-0.9,0.5l-0.6-0.8c0.4-0.3,0.8-0.6,1.2-0.7
	s0.8-0.2,1.2-0.2c0.7,0,1.2,0.2,1.6,0.5c0.4,0.3,0.6,0.8,0.6,1.4c0,0.3-0.1,0.6-0.2,0.9c-0.1,0.3-0.3,0.6-0.5,0.9s-0.6,0.7-1.2,1.2
	l-1.3,1.2l0,0h3.4L173.6,308.9z"/>
<path d="M179.7,307.4h-1v1.6h-1.1v-1.6h-3.3v-0.9l3.3-4.7h1.1v4.6h1V307.4z M177.6,306.4v-1.8c0-0.6,0-1.2,0.1-1.6l0,0
	c-0.1,0.2-0.2,0.5-0.4,0.8l-1.8,2.6H177.6z"/>
<path d="M134,354.5h-4.8v-0.9l1.9-1.8c0.5-0.6,0.9-0.9,1.1-1.2c0.2-0.2,0.3-0.5,0.4-0.7c0.1-0.2,0.1-0.4,0.1-0.7
	c0-0.3-0.1-0.6-0.3-0.8c-0.2-0.2-0.5-0.3-0.8-0.3s-0.5,0-0.8,0.1s-0.6,0.3-0.9,0.5l-0.6-0.8c0.4-0.3,0.8-0.6,1.2-0.7
	s0.8-0.2,1.2-0.2c0.7,0,1.2,0.2,1.6,0.5c0.4,0.3,0.6,0.8,0.6,1.4c0,0.3-0.1,0.6-0.2,0.9c-0.1,0.3-0.3,0.6-0.5,0.9s-0.6,0.7-1.2,1.2
	l-1.3,1.2l0,0h3.4L134,354.5z"/>
<path d="M139.8,354.6H135v-0.9l1.9-1.8c0.5-0.6,0.9-0.9,1.1-1.2c0.2-0.2,0.3-0.5,0.4-0.7c0.1-0.2,0.1-0.4,0.1-0.7
	c0-0.3-0.1-0.6-0.3-0.8c-0.2-0.2-0.5-0.3-0.8-0.3s-0.5,0-0.8,0.1s-0.6,0.3-0.9,0.5l-0.6-0.8c0.4-0.3,0.8-0.6,1.2-0.7
	s0.8-0.2,1.2-0.2c0.7,0,1.2,0.2,1.6,0.5c0.4,0.3,0.6,0.8,0.6,1.4c0,0.3-0.1,0.6-0.2,0.9c-0.1,0.3-0.3,0.6-0.5,0.9s-0.6,0.7-1.2,1.2
	l-1.3,1.2l0,0h3.4L139.8,354.6z"/>
<path d="M143.4,354.7c-0.8,0-1.4-0.3-1.9-0.7c-0.4-0.5-0.6-1.2-0.6-2.1s0.2-1.6,0.7-2.1s1.1-0.7,1.9-0.7c0.6,0,1.1,0.1,1.5,0.3
	l-0.4,0.9c-0.5-0.2-0.9-0.3-1.2-0.3c-0.9,0-1.4,0.6-1.4,1.8c0,0.6,0.1,1.1,0.3,1.4s0.6,0.5,1,0.5c0.5,0,1-0.1,1.5-0.4v1
	c-0.2,0.1-0.4,0.2-0.7,0.3C144,354.7,143.7,354.7,143.4,354.7z"/>
<path d="M149.2,354.6h-1.1V350c0-0.6,0-1,0.1-1.3c-0.1,0.1-0.2,0.2-0.3,0.3c-0.1,0.1-0.5,0.4-1.1,0.9l-0.6-0.7l2.1-1.6h1
	L149.2,354.6z"/>
<path d="M248.3,205.2h-4.8v-0.9l1.9-1.8c0.5-0.6,0.9-0.9,1.1-1.2c0.2-0.2,0.3-0.5,0.4-0.7c0.1-0.2,0.1-0.4,0.1-0.7s-0.1-0.6-0.3-0.8
	s-0.5-0.3-0.8-0.3s-0.5,0-0.8,0.1s-0.6,0.3-0.9,0.5l-0.6-0.8c0.4-0.3,0.8-0.6,1.2-0.7c0.4-0.1,0.8-0.2,1.2-0.2
	c0.7,0,1.2,0.2,1.6,0.5c0.4,0.3,0.6,0.8,0.6,1.4c0,0.3-0.1,0.6-0.2,0.9c-0.1,0.3-0.3,0.6-0.5,0.9c-0.2,0.3-0.6,0.7-1.2,1.2l-1.3,1.2
	l0,0h3.4L248.3,205.2z"/>
<path d="M249.3,202.2c0-2.8,1.2-4.2,3.5-4.2c0.4,0,0.7,0,0.9,0.1v1c-0.2-0.1-0.5-0.1-0.9-0.1c-0.8,0-1.3,0.2-1.7,0.6s-0.6,1.1-0.6,2
	h0.1c0.2-0.3,0.4-0.5,0.7-0.6s0.6-0.2,1-0.2c0.6,0,1.1,0.2,1.5,0.6c0.4,0.4,0.5,0.9,0.5,1.6c0,0.7-0.2,1.3-0.6,1.8
	c-0.4,0.4-1,0.6-1.7,0.6c-0.5,0-1-0.1-1.3-0.4c-0.4-0.3-0.7-0.6-0.9-1.1C249.4,203.4,249.3,202.8,249.3,202.2z M251.7,204.4
	c0.4,0,0.7-0.1,0.9-0.4c0.2-0.3,0.3-0.6,0.3-1.1c0-0.4-0.1-0.7-0.3-1c-0.2-0.2-0.5-0.4-0.9-0.4c-0.2,0-0.5,0-0.7,0.2
	c-0.2,0.1-0.4,0.2-0.5,0.4s-0.2,0.4-0.2,0.6c0,0.5,0.1,0.8,0.4,1.2C251,204.2,251.4,204.4,251.7,204.4z"/>
<path class="st4" d="M214.7,212l-6.3-0.9l0,0c0.8,0.4,1.6,0.7,2.3,1.1l3.1,1.6l-0.5,0.9l-6.4-3.2l0.7-1.5l6,0.8l0,0l-4.1-4.4
	l0.7-1.5l6.4,3.2l-0.5,1l-3.1-1.6c-0.3-0.2-0.7-0.4-1.2-0.7s-0.8-0.4-0.9-0.5l0,0l4.3,4.6L214.7,212z"/>
<path class="st4" d="M217.7,206.1l-0.6,1.1l-1.3-2.3c-0.3,0.3-0.6,0.4-0.9,0.5c-0.3,0.1-0.7,0-1-0.2c-0.5-0.2-0.7-0.6-0.8-1
	c-0.1-0.5,0-1,0.3-1.5l1.1-2.2l4.8,2.4l-0.5,1l-1.9-0.9l-0.5,1L217.7,206.1z M214.4,204.2c0.2,0.1,0.5,0.1,0.7,0s0.4-0.3,0.6-0.7
	l0.5-1l-1.4-0.7l-0.6,1.1c-0.1,0.3-0.2,0.5-0.2,0.7C214.1,204,214.2,204.1,214.4,204.2z"/>
<path class="st4" d="M221.2,199.5c-0.4,0.7-0.9,1.2-1.5,1.3c-0.6,0.2-1.3,0-2.1-0.4s-1.3-0.9-1.6-1.5c-0.2-0.6-0.2-1.3,0.2-2.1
	c0.3-0.5,0.6-0.9,1-1.2l0.7,0.7c-0.4,0.3-0.7,0.7-0.8,0.9c-0.4,0.8-0.1,1.5,1,2.1c0.5,0.3,1,0.4,1.4,0.3c0.4-0.1,0.7-0.3,0.9-0.7
	c0.2-0.5,0.3-0.9,0.3-1.5l0.9,0.5c0,0.2,0,0.5-0.1,0.7C221.4,198.9,221.3,199.2,221.2,199.5z"/>
<path class="st4" d="M218.1,193.4l1.9,1l1.2-2.3l-1.9-1l0.5-1l4.8,2.4l-0.5,1l-2.1-1.1l-1.2,2.3l2.1,1.1l-0.5,1l-4.8-2.4
	L218.1,193.4z"/>
<path class="st4" d="M221,187.6l2.5,1.3c0.3,0.1,0.7,0.4,1.2,0.7l-2.5-4.3l0.6-1.2l4.8,2.4l-0.5,1l-2.4-1.2
	c-0.1-0.1-0.3-0.2-0.6-0.4s-0.5-0.3-0.6-0.4l2.5,4.3l-0.6,1.2l-4.8-2.4L221,187.6z"/>
<path class="st4" d="M229.9,180.2l0.4-0.7l2.5,1.3l-0.5,1l-1.7-0.9l-2,4l-4.8-2.4l0.5-1l4,2l1.1-2.2l-4-2l0.5-1L229.9,180.2z"/>
<path class="st4" d="M228.2,173.5l0.6-1.1l1.3,3.2l3.6-0.9l-0.6,1.2l-3.5,0.8l2.4,1.2l-0.5,1l-4.8-2.4l0.5-1l2.3,1.2L228.2,173.5z"
	/>
<path class="st4" d="M235.6,170.7l-0.8-0.1l0,0c0.2,0.4,0.3,0.7,0.2,1c0,0.3-0.1,0.6-0.3,1c-0.2,0.5-0.6,0.8-0.9,0.9
	c-0.4,0.1-0.8,0.1-1.3-0.2s-0.8-0.6-0.8-1.1c-0.1-0.5,0.1-1.1,0.4-1.9l0.4-0.8l-0.3-0.1c-0.3-0.2-0.6-0.2-0.8-0.1
	c-0.2,0.1-0.4,0.2-0.6,0.5c-0.1,0.2-0.2,0.5-0.3,0.8c0,0.3-0.1,0.5-0.1,0.8h-0.9c0-0.3,0-0.7,0.1-1s0.2-0.7,0.3-0.9
	c0.3-0.6,0.7-1,1.1-1.2c0.4-0.2,0.9-0.1,1.5,0.2l3.2,1.6L235.6,170.7z M234.2,171.9c0.2-0.4,0.2-0.7,0.1-1c-0.1-0.3-0.3-0.6-0.7-0.8
	l-0.4-0.2l-0.3,0.6c-0.2,0.5-0.3,0.9-0.3,1.2s0.2,0.5,0.5,0.7c0.2,0.1,0.4,0.1,0.6,0.1C233.9,172.3,234,172.2,234.2,171.9z"/>
<path class="st4" d="M237,168l-0.6,1.1l-1.3-2.3c-0.3,0.3-0.6,0.4-0.9,0.5c-0.3,0.1-0.7,0-1-0.2c-0.5-0.2-0.7-0.6-0.8-1
	c-0.1-0.5,0-1,0.3-1.5l1.1-2.2l4.8,2.4l-0.5,1l-1.9-0.9l-0.5,1L237,168z M233.8,166.2c0.2,0.1,0.5,0.1,0.7,0s0.4-0.3,0.6-0.7l0.5-1
	l-1.4-0.7l-0.6,1.1c-0.1,0.3-0.2,0.5-0.2,0.7C233.4,165.9,233.5,166,233.8,166.2z"/>
<path class="st4" d="M235.5,159.2l0.6-1.1l3.2,0.4c0.5,0,0.9,0.1,1.2,0.3l0,0c-0.1-0.1-0.3-0.3-0.5-0.4c-0.2-0.2-1.1-1.1-2.7-2.8
	l0.6-1.1l4.4,4.8c0.8,0.9,1,1.8,0.6,2.6c-0.1,0.2-0.3,0.4-0.4,0.6l-0.8-0.4c0.1-0.1,0.2-0.3,0.3-0.5c0.3-0.5,0.1-1-0.3-1.5l-0.4-0.4
	L235.5,159.2z"/>
<path class="st4" d="M245.1,152.1l-0.5,1l-4-2l-0.7,1.3c1,0.6,1.7,1.1,2.3,1.6c0.5,0.4,0.8,0.8,1,1.2s0.1,0.7,0,1.1
	c-0.1,0.2-0.2,0.4-0.4,0.5l-0.8-0.4c0.1-0.1,0.2-0.2,0.2-0.3c0.1-0.3-0.1-0.7-0.6-1.2c-0.6-0.5-1.5-1.2-2.9-2l1.6-3.2L245.1,152.1z"
	/>
<path class="st4" d="M241.6,147.1l2.5,1.3c0.3,0.1,0.7,0.4,1.2,0.7l-2.5-4.3l0.6-1.2l4.8,2.4l-0.5,1l-2.4-1.2
	c-0.1-0.1-0.3-0.2-0.6-0.4s-0.5-0.3-0.6-0.4l2.5,4.3l-0.6,1.2l-4.8-2.4L241.6,147.1z"/>
<path class="st4" d="M250.4,139.7l0.4-0.7l2.5,1.3l-0.5,1l-1.7-0.9l-2,4l-4.8-2.4l0.5-1l4,2l1.1-2.2l-4-2l0.5-1L250.4,139.7z"/>
<path class="st4" d="M253.6,135.4l-0.8-0.1l0,0c0.2,0.4,0.3,0.7,0.2,1c0,0.3-0.1,0.6-0.3,1c-0.2,0.5-0.6,0.8-0.9,0.9
	c-0.4,0.1-0.8,0.1-1.3-0.2s-0.8-0.6-0.8-1.1c-0.1-0.5,0.1-1.1,0.4-1.9l0.4-0.8l-0.3-0.1c-0.3-0.2-0.6-0.2-0.8-0.1
	c-0.2,0.1-0.4,0.2-0.6,0.5c-0.1,0.2-0.2,0.5-0.3,0.8c0,0.3-0.1,0.5-0.1,0.8h-0.9c0-0.3,0-0.7,0.1-1s0.2-0.7,0.3-0.9
	c0.3-0.6,0.7-1,1.1-1.2c0.4-0.2,0.9-0.1,1.5,0.2l3.2,1.6L253.6,135.4z M252.1,136.6c0.2-0.4,0.2-0.7,0.1-1.1
	c-0.1-0.3-0.3-0.6-0.7-0.8l-0.4-0.2l-0.3,0.6c-0.2,0.5-0.3,0.9-0.3,1.2s0.2,0.5,0.5,0.7c0.2,0.1,0.4,0.1,0.6,0.1
	C251.8,137,252,136.8,252.1,136.6z"/>
<path class="st1" d="M312.7,190.7v-3.2c-0.3,0-0.6,0-0.9,0c-1.2,0-2.4-0.3-3.3-1.1l0,0l0,0c-1-0.9-1.4-2.1-1.4-3.3v-5.8h11.1v2.3
	h3.8v0.5l0.3-0.5h4.9v0.8c0.9-0.7,2.1-0.9,3.2-0.9c0.5,0,0.9,0,1.4,0.1h19.4v0.8c0.9-0.6,1.9-0.9,3.1-0.9c1.4,0,2.7,0.4,3.6,1.5
	c1,1,1.4,2.3,1.4,3.7v2.8H359v2.1l-1.1,0.5c-0.5,0.2-1,0.4-1.6,0.5c-0.5,0.1-1.1,0.1-1.7,0.1c-1.2,0-2.4-0.3-3.3-1v0.9h-5.5v-0.3
	c-0.6,0.2-1.3,0.3-2,0.3h-10.2v-0.7l-0.3,0.2c-0.4,0.3-0.9,0.5-1.4,0.6s-1,0.1-1.5,0.1c-1.1,0-2.2-0.2-3.1-0.9v0.7h-5.4v-0.5
	l-0.3,0.5L312.7,190.7L312.7,190.7z M316.2,179.4h-1.5v4.4c-0.1,0-0.3,0.1-0.4,0.1h-0.1c-0.3,0.1-0.6,0.2-0.9,0.2
	c-0.1,0-0.3,0-0.4,0.1l0,0c-0.3,0-0.5,0-0.8,0c-0.1,0-0.2,0-0.3,0c-0.4,0-0.7-0.2-0.9-0.3c0,0-0.1-0.1-0.1-0.2l0,0
	c-0.1-0.2-0.2-0.3-0.2-0.6c0-0.1,0-0.2,0-0.4v-3.4h-1.5v3.8c0,0.8,0.2,1.3,0.7,1.8c0,0,0,0,0.1,0.1l0,0c0.5,0.4,1.1,0.5,1.9,0.5
	c0.1,0,0.2,0,0.3,0c0.2,0,0.4,0,0.6,0s0.3,0,0.5-0.1c0.1,0,0.2-0.1,0.4-0.1l0,0c0.2-0.1,0.4-0.1,0.7-0.2c0.2,0,0.3-0.1,0.5-0.2v3.7
	h1.5v-9.2H316.2z M313.5,187.4L313.5,187.4l-0.2-1.2c0.1,0,0.2,0,0.4-0.1l0,0l0,0c0.2,0,0.3-0.1,0.5-0.1 M318.6,188.7h1.8l3.5-5.4
	c0,0.1,0,0.2,0,0.4s0,0.3,0,0.5s0,0.4,0,0.5c0,0.2,0,0.3,0,0.4v3.5h1.4v-7h-1.8L320,187c0-0.1,0-0.3,0-0.4c0-0.4,0.1-0.8,0.1-1.1
	c0-0.1,0-0.2,0-0.4v-3.6h-1.4v7.2H318.6z M335.6,188.7h1.5v-5.9h2.3v-1.2h-6.1v1.2h2.3L335.6,188.7L335.6,188.7z M342.4,181.7h-1.5
	v7h2.9c0.7,0,1.2-0.1,1.7-0.3c0.1,0,0.2-0.1,0.3-0.2c0.1,0,0.1-0.1,0.2-0.1c0.5-0.4,0.7-0.9,0.7-1.6l0,0c0-0.7-0.2-1.2-0.7-1.5
	c-0.1,0-0.1-0.1-0.2-0.1c-0.1-0.1-0.2-0.1-0.4-0.2l0,0c-0.4-0.1-1-0.2-1.6-0.2h-1.4V181.7z M344.4,185.7c-0.2,0-0.4-0.1-0.6-0.1l0,0
	h-0.1h-1.3v2h1.1c0.1,0,0.1,0,0.2,0h0.1c0,0,0,0,0.1,0c0.2,0,0.4,0,0.5-0.1c0.2,0,0.3-0.1,0.4-0.2c0.1-0.1,0.2-0.2,0.3-0.3l0,0
	c0.1-0.1,0.1-0.3,0.1-0.5l0,0c0-0.1,0-0.2-0.1-0.4s-0.2-0.3-0.3-0.3C344.7,185.7,344.5,185.7,344.4,185.7z M327.3,186.6
	c0.1,0.5,0.3,0.9,0.6,1.3l0,0l0,0c0.6,0.6,1.4,0.9,2.4,0.9c0,0,0,0,0.1,0c0.4,0,0.7,0,1-0.1s0.6-0.2,0.9-0.3v-1.3
	c-0.2,0.1-0.4,0.2-0.6,0.3s-0.3,0.1-0.5,0.1l0,0c-0.2,0-0.5,0.1-0.8,0.1c0,0,0,0-0.1,0l0,0c-0.5,0-0.9-0.2-1.2-0.6c0,0,0,0-0.1-0.1
	l0,0c-0.3-0.4-0.4-1-0.4-1.7l0,0c0-0.8,0.1-1.3,0.4-1.7l0,0c0.3-0.5,0.8-0.7,1.4-0.7l0,0c0.2,0,0.5,0,0.8,0.1c0.2,0,0.3,0.1,0.5,0.2
	h0.1h0.1l0.5-1.2c-0.2-0.1-0.4-0.2-0.6-0.2c-0.1,0-0.2,0-0.2-0.1c-0.1,0-0.2,0-0.3-0.1c-0.3,0-0.5-0.1-0.8-0.1l0,0l0,0
	c-1.1,0-1.9,0.3-2.5,1c-0.3,0.4-0.6,0.8-0.7,1.3c-0.1,0.4-0.2,0.9-0.2,1.4l0,0C327.1,185.7,327.2,186.2,327.3,186.6z M349.3,188.7
	v-7h-1.5v7H349.3z M351.3,186.5c0.1,0.6,0.4,1,0.8,1.4c0.1,0.1,0.1,0.1,0.2,0.2l0,0c0.6,0.5,1.4,0.8,2.4,0.8c0,0,0,0,0.1,0
	c0.4,0,0.9,0,1.2-0.1c0.1,0,0.1,0,0.2,0l0,0c0.3-0.1,0.6-0.2,0.9-0.3v-1.2c-0.2,0.1-0.3,0.1-0.5,0.2c-0.2,0.1-0.4,0.1-0.6,0.2l0,0
	c-0.1,0-0.1,0-0.2,0c-0.2,0-0.4,0.1-0.7,0.1c-0.1,0-0.2,0-0.3,0c0,0,0,0-0.1,0c-0.3,0-0.5,0-0.7-0.1c-0.3-0.1-0.5-0.2-0.7-0.4
	c-0.1-0.1-0.1-0.1-0.2-0.2l0,0c-0.1-0.1-0.2-0.3-0.2-0.5c-0.1-0.2-0.1-0.4-0.1-0.6c0-0.1,0-0.2,0-0.3h4.7v-0.8c0-0.1,0-0.2,0-0.3
	c0-0.3-0.1-0.6-0.2-0.9c-0.1-0.4-0.3-0.8-0.6-1.1l-0.1-0.1l0,0c-0.5-0.5-1.2-0.7-2.1-0.7c-0.8,0-1.5,0.2-2.1,0.7l0,0
	c-0.1,0.1-0.2,0.2-0.3,0.3c-0.2,0.3-0.4,0.6-0.6,1c0,0.1-0.1,0.3-0.1,0.4c0,0.1-0.1,0.2-0.1,0.4c0,0.3-0.1,0.6-0.1,0.9
	c0,0.1,0,0.2,0,0.3C351.1,185.9,351.2,186.2,351.3,186.5C351.3,186.4,351.3,186.4,351.3,186.5z M352.7,184.4c0-0.4,0.1-0.7,0.2-0.9
	c0,0,0-0.1,0.1-0.1c0.1-0.1,0.1-0.2,0.2-0.3c0.3-0.3,0.7-0.5,1.1-0.5c0.5,0,0.8,0.2,1.1,0.5c0,0.1,0.1,0.1,0.1,0.2
	c0,0.1,0.1,0.1,0.1,0.2c0.1,0.3,0.2,0.6,0.2,0.9L352.7,184.4L352.7,184.4z M360.7,179.7v11h8.4v3.1h5.5v-3c0,0,0,0,0.1,0
	c0.7,0,1.3-0.1,1.9-0.4v2.8l1.6,0.4c0.5,0.1,0.9,0.2,1.4,0.2c1,0,2-0.3,2.9-1c0.5-0.4,0.9-0.9,1.2-1.4v1.7h5.4v-2.5h0.8v2.5h5.4
	v-2.5h2.3c0.7,0,1.3-0.1,2-0.3v0.3h5.5v-11h-5.5v3c-0.5-0.1-0.9-0.2-1.4-0.2v-2.8h-15.9l-0.4,1.3l-0.5-1.3h-5.5
	c-0.4-0.1-0.7-0.1-1.1-0.1s-0.8,0-1.1,0.1L360.7,179.7L360.7,179.7z M371.1,181.7v10.1h1.5v-2.9c0-0.1,0-0.5-0.1-1c0,0,0,0,0-0.1
	h0.1c0.2,0.2,0.3,0.4,0.5,0.5c0.3,0.2,0.8,0.4,1.2,0.4c0.1,0,0.2,0,0.3,0c0,0,0,0,0.1,0c0.8,0,1.4-0.3,1.9-0.8l0,0
	c0.1-0.1,0.1-0.1,0.1-0.2c0,0,0,0,0-0.1c0.5-0.6,0.7-1.5,0.7-2.6l0,0v-0.1c0-1.1-0.3-1.9-0.7-2.5l0,0l0,0c0-0.1-0.1-0.1-0.1-0.2
	c-0.1-0.1-0.2-0.2-0.4-0.3c-0.4-0.3-0.9-0.5-1.6-0.5c-0.1,0-0.2,0-0.4,0l0,0c-0.5,0.1-0.9,0.2-1.2,0.5c-0.2,0.1-0.4,0.3-0.5,0.5l0,0
	h-0.1c0,0,0,0,0-0.1c-0.1-0.5-0.2-0.8-0.2-0.9h-1.1V181.7z M373.1,183.2l-0.1,0.1c-0.2,0.3-0.4,0.7-0.4,1.3c0,0.1,0,0.2,0,0.3v0.2
	c0,0.3,0,0.5,0,0.7c0.1,0.5,0.2,0.9,0.4,1.2l0.1,0.1c0.1,0.1,0.1,0.1,0.2,0.2c0.3,0.2,0.6,0.3,1,0.3c0.1,0,0.2,0,0.3,0
	c0.4-0.1,0.6-0.3,0.9-0.6l0,0l0,0c0.3-0.4,0.4-1,0.4-1.8l0,0c0-0.8-0.1-1.3-0.4-1.7l0,0l0,0c-0.2-0.3-0.5-0.5-0.8-0.6
	c-0.1,0-0.2,0-0.4,0c-0.4,0-0.8,0.1-1,0.3C373.2,183.1,373.1,183.1,373.1,183.2z M378.7,188.3l0.1,0.2h-0.2
	C378.7,188.4,378.7,188.4,378.7,188.3z M385.6,191.2h1.4v-2.5h4.8v2.5h1.4v-3.6h-1v-5.9h-4.3c0,0.3,0,0.7-0.1,1
	c-0.1,0.8-0.2,1.5-0.4,2.3l0,0l0,0c-0.2,0.6-0.4,1.2-0.7,1.7c0,0,0,0.1-0.1,0.1c-0.1,0.3-0.3,0.5-0.4,0.7h-0.6L385.6,191.2
	L385.6,191.2z M396.1,181.7h-1.5v7h2.9c0.7,0,1.2-0.1,1.7-0.3c0.1,0,0.2-0.1,0.3-0.2c0.1,0,0.1-0.1,0.2-0.1c0.5-0.4,0.7-0.9,0.7-1.6
	l0,0c0-0.7-0.2-1.2-0.7-1.5c-0.1,0-0.1-0.1-0.2-0.1c-0.1-0.1-0.2-0.1-0.4-0.2l0,0c-0.4-0.1-1-0.2-1.6-0.2h-1.4V181.7z M398.1,185.7
	c-0.2,0-0.4-0.1-0.6-0.1l0,0h-0.1h-1.3v2h1.1c0.1,0,0.1,0,0.2,0h0.1c0,0,0,0,0.1,0c0.2,0,0.4,0,0.5-0.1c0.2,0,0.3-0.1,0.4-0.2
	c0.1-0.1,0.2-0.2,0.3-0.3l0,0c0.1-0.1,0.1-0.3,0.1-0.5l0,0c0-0.1,0-0.2-0.1-0.4s-0.2-0.3-0.3-0.3
	C398.4,185.7,398.2,185.7,398.1,185.7z M378.2,181.7l2.8,7l-0.3,0.7c-0.2,0.6-0.6,1-1,1.2c-0.1,0-0.2,0.1-0.3,0.1
	c-0.1,0-0.1,0-0.2,0c-0.2,0-0.4,0-0.5,0s-0.2,0-0.3,0v1.2c0.3,0.1,0.5,0.1,0.8,0.1c0.1,0,0.1,0,0.2,0c0.3,0,0.5,0,0.8-0.1
	c0.1,0,0.2-0.1,0.2-0.1c0.7-0.3,1.2-0.9,1.6-1.8c0,0,0,0,0-0.1s0.1-0.1,0.1-0.2l3-8h-1.6c-0.3,0.9-0.6,1.6-0.8,2.3
	c-0.2,0.5-0.3,0.9-0.4,1.3l0,0c-0.1,0.3-0.2,0.5-0.2,0.7c-0.1,0.2-0.1,0.4-0.1,0.4c-0.1,0.3-0.2,0.6-0.2,0.8l0,0h-0.1l0,0
	c0-0.3-0.1-0.6-0.2-1l0,0c0-0.1,0-0.2-0.1-0.2c0-0.1-0.1-0.2-0.1-0.4l-1.4-4h-1.7V181.7z M390.6,187.5v-4.7h-1.5
	c0,0.3-0.1,0.6-0.1,0.9c-0.1,0.6-0.2,1.1-0.4,1.7l0,0l0,0c0,0,0,0,0,0.1v0.1c-0.1,0.4-0.3,0.8-0.4,1.2c-0.1,0.3-0.3,0.6-0.5,0.8h2.9
	V187.5z M401.5,188.7h1.5v-7h-1.5V188.7z M367.3,188.7h1.5v-7h-6.1v7h1.5v-5.8h3.1V188.7z"/>
<g>
	<path d="M316.2,188.7h-1.5V185c-0.6,0.2-1.1,0.3-1.5,0.4c-0.4,0.1-0.9,0.1-1.3,0.1c-0.9,0-1.6-0.2-2-0.6c-0.5-0.4-0.7-1-0.7-1.8
		v-3.8h1.5v3.4c0,0.5,0.1,0.8,0.4,1.1c0.2,0.2,0.6,0.4,1.2,0.4c0.4,0,0.8,0,1.2-0.1c0.4-0.1,0.8-0.2,1.4-0.4v-4.4h1.5v9.4H316.2z"/>
	<path d="M320,181.7v3.6c0,0.4,0,1-0.1,1.8l3.5-5.4h1.8v7h-1.4v-3.5c0-0.2,0-0.5,0-0.9s0-0.8,0.1-1l-3.5,5.4h-1.8v-7L320,181.7
		L320,181.7z"/>
	<path d="M330.4,188.8c-1.1,0-1.9-0.3-2.4-0.9c-0.5-0.6-0.8-1.5-0.8-2.7s0.3-2.1,0.9-2.7c0.6-0.6,1.4-1,2.5-1c0.7,0,1.4,0.1,2,0.4
		l-0.5,1.2c-0.6-0.2-1.2-0.4-1.6-0.4c-1.2,0-1.8,0.8-1.8,2.4c0,0.8,0.1,1.4,0.5,1.8c0.3,0.4,0.7,0.6,1.3,0.6c0.7,0,1.3-0.2,1.9-0.5
		v1.3c-0.3,0.2-0.6,0.3-0.9,0.3C331.2,188.8,330.8,188.8,330.4,188.8z"/>
	<path d="M339.4,181.7v1.2h-2.3v5.9h-1.5v-5.9h-2.3v-1.2H339.4z"/>
	<path d="M342.4,184.5h1.4c1,0,1.7,0.2,2.2,0.5s0.7,0.8,0.7,1.5s-0.2,1.3-0.7,1.6c-0.5,0.4-1.2,0.5-2.1,0.5H341v-7h1.5v2.9H342.4z
		 M345.2,186.5c0-0.4-0.1-0.6-0.4-0.7c-0.3-0.1-0.6-0.2-1.1-0.2h-1.3v2h1.1c0.6,0,1-0.1,1.3-0.3C345,187.2,345.2,186.9,345.2,186.5z
		 M349.3,188.7h-1.5v-7h1.5V188.7z"/>
	<path d="M354.6,188.8c-1.1,0-1.9-0.3-2.6-1c-0.6-0.6-0.9-1.5-0.9-2.6s0.3-2,0.9-2.7s1.4-1,2.4-1c0.9,0,1.7,0.3,2.2,0.8
		c0.5,0.6,0.8,1.3,0.8,2.3v0.8h-4.7c0,0.7,0.2,1.2,0.6,1.6c0.3,0.4,0.8,0.5,1.5,0.5c0.4,0,0.8,0,1.2-0.1c0.4-0.1,0.7-0.2,1.2-0.4
		v1.2c-0.4,0.2-0.7,0.3-1.1,0.4C355.5,188.8,355.1,188.8,354.6,188.8z M354.3,182.7c-0.5,0-0.9,0.2-1.1,0.5
		c-0.3,0.3-0.5,0.7-0.5,1.3h3.2c0-0.6-0.1-1-0.4-1.3C355.2,182.8,354.8,182.7,354.3,182.7z"/>
	<path d="M368.8,181.7v7h-1.5v-5.8h-3.1v5.8h-1.5v-7H368.8z"/>
	<path d="M374.6,188.8c-0.9,0-1.6-0.3-2.1-1h-0.1c0.1,0.6,0.1,1,0.1,1.1v2.9H371v-10.1h1.2c0,0.1,0.1,0.4,0.2,0.9h0.1
		c0.5-0.7,1.2-1.1,2.1-1.1s1.6,0.3,2,1c0.5,0.6,0.7,1.5,0.7,2.7s-0.2,2-0.7,2.7C376.2,188.5,375.5,188.8,374.6,188.8z M374.3,182.8
		c-0.6,0-1,0.2-1.3,0.5s-0.4,0.9-0.4,1.7v0.2c0,0.9,0.1,1.5,0.4,1.9s0.7,0.6,1.3,0.6c0.5,0,0.9-0.2,1.2-0.6c0.3-0.4,0.4-1,0.4-1.8
		s-0.1-1.4-0.4-1.8C375.2,183,374.8,182.8,374.3,182.8z"/>
	<path d="M378.2,181.7h1.6l1.4,4c0.2,0.6,0.4,1.1,0.4,1.6h0.1c0-0.2,0.1-0.5,0.2-0.8s0.6-1.9,1.6-4.7h1.6l-3,8
		c-0.5,1.5-1.5,2.2-2.7,2.2c-0.3,0-0.7,0-1-0.1v-1.2c0.2,0.1,0.5,0.1,0.8,0.1c0.7,0,1.2-0.4,1.5-1.3l0.3-0.7L378.2,181.7z"/>
	<path d="M393.1,191.2h-1.4v-2.5h-4.8v2.5h-1.4v-3.6h0.6c0.5-0.7,0.9-1.6,1.2-2.6c0.3-1,0.5-2.1,0.5-3.3h4.3v5.9h1L393.1,191.2
		L393.1,191.2z M390.6,187.5v-4.7h-1.5c-0.1,0.9-0.2,1.7-0.5,2.6c-0.3,0.8-0.6,1.6-0.9,2.1L390.6,187.5L390.6,187.5z"/>
	<path d="M396.1,184.5h1.4c1,0,1.7,0.2,2.2,0.5s0.7,0.8,0.7,1.5s-0.2,1.3-0.7,1.6c-0.5,0.4-1.2,0.5-2.1,0.5h-2.9v-7h1.5v2.9H396.1z
		 M398.9,186.5c0-0.4-0.1-0.6-0.4-0.7c-0.3-0.1-0.6-0.2-1.1-0.2h-1.3v2h1.1c0.6,0,1-0.1,1.3-0.3
		C398.7,187.2,398.9,186.9,398.9,186.5z M403,188.7h-1.5v-7h1.5V188.7z"/>
</g>
<path d="M128,180.7"/>
<polygon points="122.5,177.6 122.5,177.5 122.5,177.5 "/>
<path class="st0" d="M118.8,229.5c-12.5,0-22.6,10.1-22.6,22.6v10.5c0,12.5,10.1,22.6,22.6,22.6h53.5l8.3,8.3l8.3-8.3h45.4
	c12.5,0,22.6-10.1,22.6-22.6v-10.5c0-12.5-10.1-22.6-22.6-22.6H118.8z"/>
<path class="st1" d="M172.3,285.2h-53.5c-12.5,0-22.6-10.1-22.6-22.6v-10.5c0-12.5,10.1-22.6,22.6-22.6h115.5
	c12.5,0,22.6,10.1,22.6,22.6v10.5c0,12.5-10.1,22.6-22.6,22.6h-45.4l-8.3,8.3L172.3,285.2z M189.8,287.3h44.5
	c13.7,0,24.7-11.1,24.7-24.7v-10.5c0-13.7-11.1-24.7-24.7-24.7H118.8c-13.7,0-24.7,11.1-24.7,24.7v10.5c0,13.7,11.1,24.7,24.7,24.7
	h52.6l9.2,9.2L189.8,287.3z"/>
<path class="st4" d="M123.5,254.1c-0.3,0-0.5-0.1-0.6-0.2c-0.1-0.1-0.2-0.4-0.2-0.6v-7.4c0-0.3,0.1-0.5,0.2-0.6
	c0.1-0.1,0.3-0.2,0.6-0.2c0.3,0,0.5,0.1,0.6,0.2c0.1,0.1,0.2,0.3,0.2,0.6v2.9h4.5v-2.9c0-0.3,0.1-0.5,0.2-0.6
	c0.1-0.1,0.3-0.2,0.6-0.2s0.5,0.1,0.6,0.2c0.1,0.1,0.2,0.3,0.2,0.6v7.4c0,0.3-0.1,0.5-0.2,0.6c-0.1,0.1-0.3,0.2-0.6,0.2
	s-0.5-0.1-0.6-0.2c-0.1-0.1-0.2-0.4-0.2-0.6v-3.1h-4.5v3.1c0,0.3-0.1,0.5-0.2,0.6C123.9,254,123.7,254.1,123.5,254.1z"/>
<path class="st4" d="M136.4,254.1c-0.8,0-1.6-0.2-2.2-0.6c-0.6-0.4-1.1-0.9-1.5-1.6c-0.3-0.7-0.5-1.5-0.5-2.4c0-0.7,0.1-1.3,0.3-1.9
	c0.2-0.6,0.5-1,0.8-1.4c0.4-0.4,0.8-0.7,1.3-0.9c0.5-0.2,1.1-0.3,1.7-0.3c0.9,0,1.6,0.2,2.2,0.6c0.6,0.4,1.1,0.9,1.5,1.6
	c0.3,0.7,0.5,1.5,0.5,2.4c0,0.7-0.1,1.3-0.3,1.9s-0.5,1-0.9,1.4c-0.4,0.4-0.8,0.7-1.3,0.9C137.6,254,137,254.1,136.4,254.1z
	 M136.4,252.8c0.5,0,1-0.1,1.4-0.4c0.4-0.2,0.7-0.6,0.9-1.1c0.2-0.5,0.3-1,0.3-1.7c0-1-0.2-1.8-0.7-2.3c-0.4-0.5-1.1-0.8-1.9-0.8
	c-0.5,0-1,0.1-1.4,0.4c-0.4,0.2-0.7,0.6-0.9,1.1c-0.2,0.5-0.3,1-0.3,1.7c0,1,0.2,1.8,0.7,2.3C134.9,252.5,135.6,252.8,136.4,252.8z"
	/>
<path class="st4" d="M144.8,254.1c-0.3,0-0.5-0.1-0.6-0.2c-0.1-0.1-0.2-0.4-0.2-0.6v-6.7h-2.4c-0.2,0-0.4-0.1-0.5-0.2
	c-0.1-0.1-0.2-0.3-0.2-0.5c0-0.2,0.1-0.4,0.2-0.5c0.1-0.1,0.3-0.2,0.5-0.2h6.5c0.2,0,0.4,0.1,0.5,0.2c0.1,0.1,0.2,0.3,0.2,0.5
	c0,0.2-0.1,0.4-0.2,0.5c-0.1,0.1-0.3,0.2-0.5,0.2h-2.4v6.7c0,0.3-0.1,0.5-0.2,0.6C145.2,254,145,254.1,144.8,254.1z"/>
<path class="st4" d="M148.7,254.1c-0.2,0-0.4,0-0.5-0.1c-0.1-0.1-0.2-0.2-0.2-0.4c0-0.2,0-0.3,0.1-0.5l3.3-7.3
	c0.1-0.2,0.2-0.4,0.4-0.5c0.2-0.1,0.3-0.2,0.5-0.2c0.2,0,0.4,0.1,0.5,0.2c0.2,0.1,0.3,0.3,0.4,0.5l3.3,7.3c0.1,0.2,0.1,0.4,0.1,0.5
	c0,0.2-0.1,0.3-0.2,0.4c-0.1,0.1-0.3,0.1-0.5,0.1c-0.2,0-0.4-0.1-0.5-0.2c-0.1-0.1-0.2-0.3-0.3-0.5l-0.8-1.9l0.7,0.4h-5.3l0.7-0.4
	l-0.8,1.9c-0.1,0.2-0.2,0.4-0.3,0.5C149.1,254.1,149,254.1,148.7,254.1z M152.3,246.9l-1.7,4.2l-0.3-0.4h4.2l-0.3,0.4L152.3,246.9
	L152.3,246.9z"/>
<path class="st4" d="M158.9,254.1c-0.3,0-0.5-0.1-0.6-0.2c-0.1-0.1-0.2-0.4-0.2-0.6V246c0-0.3,0.1-0.5,0.2-0.6
	c0.1-0.1,0.3-0.2,0.6-0.2h3c1,0,1.7,0.2,2.2,0.7s0.8,1.2,0.8,2c0,0.9-0.3,1.5-0.8,2c-0.5,0.5-1.3,0.7-2.2,0.7h-2.2v2.6
	c0,0.3-0.1,0.5-0.2,0.6C159.3,254,159.1,254.1,158.9,254.1z M159.7,249.5h2c0.6,0,1-0.1,1.3-0.4c0.3-0.3,0.4-0.6,0.4-1.1
	c0-0.5-0.1-0.9-0.4-1.1c-0.3-0.2-0.7-0.4-1.3-0.4h-2V249.5z"/>
<path class="st4" d="M167,254.1c-0.1,0-0.2,0-0.3-0.1c-0.1,0-0.2-0.1-0.2-0.1c-0.1-0.1-0.1-0.2-0.1-0.3c0-0.1,0-0.2,0-0.3v-7.4
	c0-0.2,0.1-0.4,0.2-0.6c0.1-0.1,0.3-0.2,0.6-0.2c0.2,0,0.4,0.1,0.5,0.2c0.1,0.1,0.2,0.3,0.2,0.6v5.9h-0.3l4.7-6.2
	c0.1-0.2,0.2-0.3,0.4-0.3c0.1-0.1,0.3-0.1,0.5-0.1c0.1,0,0.2,0,0.3,0.1c0.1,0.1,0.2,0.1,0.2,0.3c0.1,0.1,0.1,0.2,0.1,0.4v7.5
	c0,0.2-0.1,0.4-0.2,0.6c-0.1,0.1-0.3,0.2-0.5,0.2c-0.2,0-0.4-0.1-0.6-0.2c-0.1-0.1-0.2-0.3-0.2-0.6v-5.9h0.3l-4.7,6.2
	c-0.1,0.2-0.3,0.3-0.4,0.4C167.4,254.1,167.2,254.1,167,254.1z"/>
<path class="st4" d="M175.9,254.1c-0.2,0-0.4,0-0.5-0.1c-0.1-0.1-0.2-0.2-0.2-0.4c0-0.2,0-0.3,0.1-0.5l3.3-7.3
	c0.1-0.2,0.2-0.4,0.4-0.5c0.2-0.1,0.3-0.2,0.5-0.2c0.2,0,0.4,0.1,0.5,0.2c0.2,0.1,0.3,0.3,0.4,0.5l3.3,7.3c0.1,0.2,0.1,0.4,0.1,0.5
	c0,0.2-0.1,0.3-0.2,0.4c-0.1,0.1-0.3,0.1-0.5,0.1c-0.2,0-0.4-0.1-0.5-0.2c-0.1-0.1-0.2-0.3-0.3-0.5l-0.8-1.9l0.7,0.4h-5.3l0.7-0.4
	l-0.8,1.9c-0.1,0.2-0.2,0.4-0.3,0.5C176.3,254.1,176.1,254.1,175.9,254.1z M179.5,246.9l-1.7,4.2l-0.3-0.4h4.2l-0.3,0.4L179.5,246.9
	L179.5,246.9z"/>
<path class="st4" d="M191.9,254.1c-0.3,0-0.5-0.1-0.6-0.2c-0.1-0.1-0.2-0.4-0.2-0.6v-6.7h-3.1v1.7c0,0.8-0.1,1.4-0.1,2
	c-0.1,0.6-0.2,1.1-0.4,1.6c-0.2,0.5-0.4,0.9-0.7,1.2c-0.3,0.3-0.6,0.6-0.9,0.9c-0.2,0.1-0.4,0.2-0.6,0.1c-0.2,0-0.4-0.1-0.5-0.3
	c-0.1-0.2-0.2-0.4-0.1-0.6c0.1-0.2,0.2-0.3,0.4-0.5c0.3-0.2,0.5-0.4,0.7-0.7c0.2-0.3,0.4-0.6,0.5-1c0.1-0.4,0.2-0.8,0.3-1.4
	c0.1-0.5,0.1-1.2,0.1-1.9v-1.8c0-0.3,0.1-0.5,0.2-0.6c0.1-0.1,0.4-0.2,0.6-0.2h4.5c0.3,0,0.5,0.1,0.6,0.2c0.1,0.1,0.2,0.3,0.2,0.6
	v7.2c0,0.3-0.1,0.5-0.2,0.6C192.3,254,192.2,254.1,191.9,254.1z"/>
<path class="st4" d="M195.6,254c-0.3,0-0.5-0.1-0.6-0.2c-0.1-0.1-0.2-0.4-0.2-0.6v-7.2c0-0.3,0.1-0.5,0.2-0.6
	c0.1-0.1,0.3-0.2,0.6-0.2s0.5,0.1,0.6,0.2c0.1,0.1,0.2,0.3,0.2,0.6v2.9h2.4c0.6,0,1.2,0.1,1.6,0.3c0.4,0.2,0.8,0.5,1,0.9
	c0.2,0.4,0.4,0.8,0.4,1.4c0,0.8-0.3,1.5-0.8,1.9c-0.5,0.4-1.3,0.7-2.2,0.7H195.6z M196.3,252.7h2.2c0.6,0,1-0.1,1.2-0.3
	c0.3-0.2,0.4-0.5,0.4-1c0-0.4-0.1-0.8-0.4-1c-0.3-0.2-0.7-0.3-1.2-0.3h-2.2V252.7z"/>
<path class="st4" d="M204.1,254.1c-0.3,0-0.5-0.1-0.6-0.2c-0.1-0.1-0.2-0.4-0.2-0.6v-7.4c0-0.3,0.1-0.5,0.2-0.6
	c0.1-0.1,0.3-0.2,0.6-0.2s0.5,0.1,0.6,0.2c0.1,0.1,0.2,0.3,0.2,0.6v2.9h4.5v-2.9c0-0.3,0.1-0.5,0.2-0.6c0.1-0.1,0.3-0.2,0.6-0.2
	c0.3,0,0.5,0.1,0.6,0.2c0.1,0.1,0.2,0.3,0.2,0.6v7.4c0,0.3-0.1,0.5-0.2,0.6c-0.1,0.1-0.3,0.2-0.6,0.2c-0.3,0-0.5-0.1-0.6-0.2
	c-0.1-0.1-0.2-0.4-0.2-0.6v-3.1h-4.5v3.1c0,0.3-0.1,0.5-0.2,0.6C204.5,254,204.3,254.1,204.1,254.1z"/>
<path class="st4" d="M213.1,254.1c-0.2,0-0.4,0-0.5-0.1c-0.1-0.1-0.2-0.2-0.2-0.4c0-0.2,0-0.3,0.1-0.5l3.3-7.3
	c0.1-0.2,0.2-0.4,0.4-0.5c0.2-0.1,0.3-0.2,0.5-0.2c0.2,0,0.4,0.1,0.5,0.2c0.2,0.1,0.3,0.3,0.4,0.5l3.3,7.3c0.1,0.2,0.1,0.4,0.1,0.5
	c0,0.2-0.1,0.3-0.2,0.4c-0.1,0.1-0.3,0.1-0.5,0.1c-0.2,0-0.4-0.1-0.5-0.2c-0.1-0.1-0.2-0.3-0.3-0.5l-0.8-1.9l0.7,0.4h-5.3l0.7-0.4
	l-0.8,1.9c-0.1,0.2-0.2,0.4-0.3,0.5C213.5,254.1,213.4,254.1,213.1,254.1z M216.7,246.9l-1.7,4.2l-0.3-0.4h4.2l-0.3,0.4L216.7,246.9
	L216.7,246.9z"/>
<path class="st4" d="M228.4,254.1c-0.3,0-0.5-0.1-0.6-0.2c-0.1-0.1-0.2-0.4-0.2-0.6v-2.8h-1.1c-0.2,0-0.4,0-0.5,0.1
	c-0.2,0-0.3,0.1-0.4,0.2s-0.2,0.2-0.3,0.4l-1.3,2.4c-0.1,0.2-0.2,0.3-0.4,0.4c-0.2,0.1-0.3,0.1-0.5,0.1c-0.2,0-0.3-0.1-0.4-0.2
	s-0.2-0.2-0.2-0.4c0-0.2,0-0.3,0.1-0.5l0.9-1.6c0.2-0.3,0.4-0.6,0.7-0.8c0.3-0.2,0.6-0.3,0.9-0.3h0.4l0,0.2c-1,0-1.7-0.2-2.2-0.7
	c-0.5-0.5-0.8-1.1-0.8-1.9c0-0.6,0.1-1,0.4-1.4c0.2-0.4,0.6-0.7,1-0.9c0.5-0.2,1-0.3,1.6-0.3h3c0.3,0,0.5,0.1,0.6,0.2
	c0.2,0.1,0.2,0.3,0.2,0.6v7.2c0,0.3-0.1,0.5-0.2,0.6C228.8,254,228.6,254.1,228.4,254.1z M225.6,249.3h2v-2.8h-2
	c-0.6,0-1,0.1-1.3,0.4c-0.3,0.2-0.4,0.6-0.4,1c0,0.5,0.1,0.8,0.4,1.1C224.6,249.2,225,249.3,225.6,249.3z"/>
<path class="st4" d="M148.4,270.1c-0.3,0-0.5-0.1-0.6-0.2c-0.1-0.1-0.2-0.4-0.2-0.6v-7.4c0-0.3,0.1-0.5,0.2-0.6
	c0.1-0.1,0.3-0.2,0.6-0.2s0.5,0.1,0.6,0.2c0.1,0.1,0.2,0.3,0.2,0.6v3h1.4l-0.3,0.2l2.3-3.6c0.1-0.2,0.2-0.3,0.4-0.3
	c0.2-0.1,0.3-0.1,0.5,0c0.1,0,0.3,0.1,0.4,0.2c0.1,0.1,0.2,0.2,0.2,0.4c0,0.2,0,0.3-0.1,0.5l-2.1,3.2l-0.6-0.5
	c0.5,0.1,1,0.3,1.4,0.6c0.4,0.3,0.7,0.7,1,1.3l1,2.1c0.1,0.2,0.1,0.4,0.1,0.6c0,0.2-0.1,0.3-0.2,0.4c-0.1,0.1-0.3,0.1-0.4,0.2
	c-0.2,0-0.3,0-0.5-0.1c-0.1-0.1-0.3-0.2-0.4-0.4l-1-2.1c-0.2-0.4-0.4-0.7-0.7-0.9c-0.3-0.2-0.6-0.3-1-0.3h-1.1v3
	c0,0.3-0.1,0.5-0.2,0.6C148.8,270,148.6,270.1,148.4,270.1z"/>
<path class="st4" d="M159.9,270.1c-0.8,0-1.6-0.2-2.2-0.6c-0.6-0.4-1.1-0.9-1.5-1.6c-0.3-0.7-0.5-1.5-0.5-2.4c0-0.7,0.1-1.3,0.3-1.9
	c0.2-0.6,0.5-1,0.8-1.4c0.4-0.4,0.8-0.7,1.3-0.9c0.5-0.2,1.1-0.3,1.7-0.3c0.9,0,1.6,0.2,2.2,0.6c0.6,0.4,1.1,0.9,1.5,1.6
	c0.3,0.7,0.5,1.5,0.5,2.4c0,0.7-0.1,1.3-0.3,1.9c-0.2,0.6-0.5,1-0.9,1.4c-0.4,0.4-0.8,0.7-1.3,0.9
	C161.1,270,160.6,270.1,159.9,270.1z M159.9,268.8c0.5,0,1-0.1,1.4-0.4c0.4-0.2,0.7-0.6,0.9-1.1c0.2-0.5,0.3-1,0.3-1.7
	c0-1-0.2-1.8-0.7-2.3c-0.4-0.5-1.1-0.8-1.9-0.8c-0.5,0-1,0.1-1.4,0.4c-0.4,0.2-0.7,0.6-0.9,1.1c-0.2,0.5-0.3,1-0.3,1.7
	c0,1,0.2,1.8,0.7,2.3C158.5,268.5,159.1,268.8,159.9,268.8z"/>
<path class="st4" d="M166.7,270.1c-0.3,0-0.5-0.1-0.6-0.2c-0.1-0.1-0.2-0.4-0.2-0.6v-7.4c0-0.3,0.1-0.5,0.2-0.6
	c0.1-0.1,0.3-0.2,0.6-0.2s0.5,0.1,0.6,0.2c0.1,0.1,0.2,0.3,0.2,0.6v2.9h4.5v-2.9c0-0.3,0.1-0.5,0.2-0.6c0.1-0.1,0.3-0.2,0.6-0.2
	c0.3,0,0.5,0.1,0.6,0.2c0.1,0.1,0.2,0.3,0.2,0.6v7.4c0,0.3-0.1,0.5-0.2,0.6c-0.1,0.1-0.3,0.2-0.6,0.2c-0.3,0-0.5-0.1-0.6-0.2
	c-0.1-0.1-0.2-0.4-0.2-0.6v-3.1h-4.5v3.1c0,0.3-0.1,0.5-0.2,0.6C167.2,270,167,270.1,166.7,270.1z"/>
<path class="st4" d="M178.6,270.1c-0.3,0-0.5-0.1-0.6-0.2c-0.1-0.1-0.2-0.4-0.2-0.6v-6.7h-2.4c-0.2,0-0.4-0.1-0.5-0.2
	c-0.1-0.1-0.2-0.3-0.2-0.5c0-0.2,0.1-0.4,0.2-0.5c0.1-0.1,0.3-0.2,0.5-0.2h6.5c0.2,0,0.4,0.1,0.5,0.2c0.1,0.1,0.2,0.3,0.2,0.5
	c0,0.2-0.1,0.4-0.2,0.5c-0.1,0.1-0.3,0.2-0.5,0.2h-2.4v6.7c0,0.3-0.1,0.5-0.2,0.6C179.1,270,178.9,270.1,178.6,270.1z"/>
<path class="st4" d="M187,270.1c-0.8,0-1.6-0.2-2.2-0.6c-0.6-0.4-1.1-0.9-1.5-1.6c-0.3-0.7-0.5-1.5-0.5-2.4c0-0.7,0.1-1.3,0.3-1.9
	c0.2-0.6,0.5-1,0.8-1.4c0.4-0.4,0.8-0.7,1.3-0.9c0.5-0.2,1.1-0.3,1.7-0.3c0.9,0,1.6,0.2,2.2,0.6c0.6,0.4,1.1,0.9,1.5,1.6
	c0.3,0.7,0.5,1.5,0.5,2.4c0,0.7-0.1,1.3-0.3,1.9c-0.2,0.6-0.5,1-0.9,1.4c-0.4,0.4-0.8,0.7-1.3,0.9C188.3,270,187.7,270.1,187,270.1z
	 M187,268.8c0.5,0,1-0.1,1.4-0.4c0.4-0.2,0.7-0.6,0.9-1.1c0.2-0.5,0.3-1,0.3-1.7c0-1-0.2-1.8-0.7-2.3c-0.4-0.5-1.1-0.8-1.9-0.8
	c-0.5,0-1,0.1-1.4,0.4c-0.4,0.2-0.7,0.6-0.9,1.1c-0.2,0.5-0.3,1-0.3,1.7c0,1,0.2,1.8,0.7,2.3C185.6,268.5,186.2,268.8,187,268.8z"/>
<path class="st4" d="M193.8,270.1c-0.3,0-0.5-0.1-0.6-0.2c-0.1-0.1-0.2-0.4-0.2-0.6V262c0-0.3,0.1-0.5,0.2-0.6
	c0.1-0.1,0.3-0.2,0.6-0.2h3c1,0,1.7,0.2,2.2,0.7c0.5,0.5,0.8,1.2,0.8,2c0,0.9-0.3,1.5-0.8,2c-0.5,0.5-1.3,0.7-2.2,0.7h-2.2v2.6
	c0,0.3-0.1,0.5-0.2,0.6C194.3,270,194.1,270.1,193.8,270.1z M194.6,265.5h2c0.6,0,1-0.1,1.3-0.4c0.3-0.3,0.4-0.6,0.4-1.1
	c0-0.5-0.1-0.9-0.4-1.1c-0.3-0.2-0.7-0.4-1.3-0.4h-2V265.5z"/>
<path class="st4" d="M200.4,270.1c-0.2,0-0.4,0-0.5-0.1c-0.1-0.1-0.2-0.2-0.2-0.4c0-0.2,0-0.3,0.1-0.5l3.3-7.3
	c0.1-0.2,0.2-0.4,0.4-0.5c0.2-0.1,0.3-0.2,0.5-0.2c0.2,0,0.4,0.1,0.5,0.2c0.2,0.1,0.3,0.3,0.4,0.5l3.3,7.3c0.1,0.2,0.1,0.4,0.1,0.5
	c0,0.2-0.1,0.3-0.2,0.4c-0.1,0.1-0.3,0.1-0.5,0.1c-0.2,0-0.4-0.1-0.5-0.2c-0.1-0.1-0.2-0.3-0.3-0.5l-0.8-1.9l0.7,0.4h-5.3l0.7-0.4
	l-0.8,1.9c-0.1,0.2-0.2,0.4-0.3,0.5C200.8,270.1,200.7,270.1,200.4,270.1z M204,262.9l-1.7,4.2l-0.3-0.4h4.2l-0.3,0.4L204,262.9
	L204,262.9z"/>
</svg>
