<?xml version="1.0" encoding="utf-8"?>
<!-- Generator: Adobe Illustrator 20.1.0, SVG Export Plug-In . SVG Version: 6.00 Build 0)  -->
<svg version="1.1" id="Layer_1" xmlns="http://www.w3.org/2000/svg" xmlns:xlink="http://www.w3.org/1999/xlink" x="0px" y="0px"
	 viewBox="0 0 715 676" style="enable-background:new 0 0 715 676;" xml:space="preserve">
<style type="text/css">
	.st0{fill:#CBC9C6;}
	.st1{fill:#7D192F;}
	.st2{fill:#F1F0ED;}
	.st3{fill:#7FAF17;}
	.st4{fill:#FFFFFF;}
	.st5{fill:#CE2B2B;}
	.st6{fill:#DA880F;}
</style>
<path class="st0" d="M373.4,418l-29.2,13.2l4,13.2l33.2-13.2L373.4,418z"/>
<g>
	<path class="st1" d="M9,654.9l-9-9.8c1.5-1.4,150.9-138.7,181.1-173.1c29.3-33.4,59-76.4,81.7-118c21.5-39.5,103.7-203.4,104.5-205
		l11.9,5.9c-0.8,1.7-83.1,165.7-104.7,205.4c-23.1,42.4-53.4,86.3-83.3,120.4C160.4,515.7,15.2,649.2,9,654.9z"/>
</g>
<g>
	<path class="st1" d="M718.6,479.5L414,188.2l-43.5-33l-21.9-21.5l0,0C347.8,133,270.7,75.8,254,67c-16.9-8.9-90.4-40.3-91.1-40.7
		l3.2-7.6c3,1.3,74.6,31.9,91.7,40.9c16.7,8.8,87.5,61.3,95.1,66.9c0.5,0.2,1,0.4,1.6,0.7c9.1,3.8,19.5,7.2,27.6,0
		c6.2-5.5,5.6-10.3,2.4-16.6c-5.9-5.1-55.4-48.3-71.3-59.4c-16.8-11.7-79.7-43.5-80.3-43.8l3.7-7.4c2.6,1.3,64.1,32.4,81.3,44.4
		c16.9,11.8,68.7,57.1,72.4,60.4l155,113.4l0.1,0.1l212.2,185.6l-5.4,6.2L540.2,224.6l-145-106.1c0,4.6-1.8,9.8-7.6,14.9
		c-6.8,6-14.5,6.9-21.4,6l9.7,9.5l43.5,33l0.2,0.2l304.8,291.5L718.6,479.5z M351.2,130l-0.5,0.7l0.4-0.4L351.2,130z"/>
</g>
<g>
	<path class="st1" d="M473.6,235.8l-7.7-1.2l0.2-1.5c1.4-9.5,3.2-21.4,14.3-30.7c7-5.9,20.6-11,28.5-10.6l-0.3,7.8
		c-5.9-0.3-17.6,4.2-23.1,8.8c-8.8,7.4-10.3,16.8-11.6,25.9L473.6,235.8z M378.8,161.8L375,155l42.6-24.4l3.9,6.8L378.8,161.8z"/>
</g>
<path d="M566.4,290.7l-1.2-1.1l2.6-2.9c-0.6-0.2-1.1-0.5-1.5-0.7s-0.8-0.5-1.1-0.9c-0.7-0.6-1.1-1.3-1.2-1.9
	c-0.1-0.7,0.2-1.3,0.7-1.9l2.7-3l1.2,1.1l-2.4,2.7c-0.3,0.4-0.5,0.7-0.5,1.1s0.2,0.7,0.7,1.1c0.3,0.3,0.6,0.5,1,0.8
	c0.4,0.2,0.8,0.4,1.4,0.7l3.1-3.4l1.2,1.1L566.4,290.7z M574.4,287.9l-2.6,2.8c-0.3,0.3-0.8,0.8-1.4,1.4l6.6-1.8l1.4,1.3l-5,5.5
	l-1.1-1l2.5-2.8c0.1-0.2,0.4-0.4,0.7-0.7c0.3-0.3,0.6-0.6,0.7-0.7l-6.6,1.8l-1.4-1.3l5-5.5L574.4,287.9z M577.4,300.9
	c-0.8-0.8-1.2-1.6-1.2-2.5s0.4-1.8,1.3-2.7c0.8-0.9,1.7-1.4,2.6-1.5c0.9-0.1,1.8,0.3,2.6,1c0.6,0.5,1,1.1,1.3,1.7l-1.2,0.6
	c-0.3-0.6-0.6-1.1-1-1.4c-1-0.9-2-0.7-3.1,0.6c-0.6,0.6-0.9,1.2-0.9,1.7s0.2,1,0.6,1.4c0.5,0.5,1.1,0.8,1.8,1l-0.9,1
	c-0.3-0.1-0.6-0.2-0.9-0.3C578.1,301.4,577.8,301.2,577.4,300.9z M589.6,301.7l-0.8,0.9L587,301l-4.2,4.6l-1.2-1.1l4.2-4.6l-1.8-1.6
	l0.8-0.9L589.6,301.7z M593.1,309.9c-0.8,0.9-1.7,1.4-2.6,1.5c-0.9,0.1-1.8-0.2-2.6-1c-0.5-0.5-0.9-1-1-1.6c-0.2-0.6-0.2-1.2,0-1.8
	c0.2-0.6,0.5-1.2,1.1-1.8c0.8-0.9,1.7-1.4,2.6-1.5c0.9-0.1,1.8,0.3,2.6,1s1.2,1.6,1.2,2.5C594.3,308.2,593.9,309.1,593.1,309.9z
	 M589.1,306.3c-1.2,1.3-1.3,2.3-0.3,3.2c0.9,0.8,2,0.6,3.1-0.6c1.1-1.3,1.2-2.3,0.3-3.2c-0.5-0.4-1-0.6-1.5-0.5
	C590.2,305.3,589.7,305.7,589.1,306.3z M601.8,312.9l-5,5.5l-1.2-1.1l4.2-4.6l-2.5-2.2l-4.2,4.6L592,314l5-5.5L601.8,312.9z
	 M601.3,322.6c-0.7-0.6-1-1.4-0.9-2.2l-0.1-0.1c-0.4,0.5-0.6,0.8-0.7,0.9l-2,2.3l-1.2-1.1l7.2-7.9l0.9,0.9c-0.1,0.1-0.2,0.4-0.5,0.9
	l0.1,0.1c0.9-0.2,1.7,0,2.4,0.7c0.7,0.6,1,1.4,0.9,2.2c-0.1,0.8-0.5,1.7-1.3,2.6s-1.6,1.4-2.5,1.6
	C602.8,323.5,602,323.3,601.3,322.6z M605.3,317.6c-0.5-0.4-0.9-0.6-1.4-0.5s-1,0.4-1.5,1l-0.2,0.2c-0.6,0.7-0.9,1.3-1,1.7
	c-0.1,0.5,0.2,1,0.6,1.4c0.4,0.4,0.9,0.5,1.4,0.4s1.1-0.5,1.6-1.1c0.6-0.6,0.9-1.2,0.9-1.7C605.9,318.5,605.8,318,605.3,317.6z
	 M609.2,319.6l1.3,1.2l-1.7,4.1c-0.2,0.6-0.5,1.1-0.8,1.6l0,0c0.2-0.2,0.4-0.3,0.8-0.5c0.3-0.2,1.9-1,4.6-2.6l1.3,1.1l-8,4.1
	c-1.5,0.8-2.7,0.7-3.7-0.2c-0.3-0.2-0.5-0.5-0.7-0.8l0.8-0.9c0.1,0.2,0.3,0.4,0.5,0.6c0.6,0.5,1.3,0.5,2.1,0.1l0.7-0.3L609.2,319.6z
	 M614.1,337.6l-1.1-1l1.8-1.9l-3.8-3.4l-1.8,1.9l-1.1-1l2.6-2.8l0.4,0.4c0.9-0.2,1.8-0.6,2.8-1.2s1.9-1.3,2.7-2.2l3.3,3l-4.2,4.6
	l0.8,0.7L614.1,337.6z M614.8,333l3.4-3.7l-1.2-1.1c-0.7,0.6-1.4,1.2-2.2,1.7s-1.6,0.8-2.3,1L614.8,333z M623.2,332.3l-2,2.2
	l2.6,2.4l2-2.2l1.2,1.1l-5,5.5l-1.2-1.1l2.2-2.4l-2.6-2.4l-2.2,2.4l-1.2-1.1l5-5.5L623.2,332.3z M627.9,340.6l1.1,1
	c0.8,0.7,1.2,1.3,1.3,1.9s-0.1,1.2-0.5,1.7c-0.5,0.6-1.1,0.8-1.7,0.8c-0.6-0.1-1.3-0.4-2.1-1.1l-2.3-2.1l5-5.5l1.2,1.1L627.9,340.6z
	 M628.6,344.2c0.2-0.3,0.3-0.6,0.2-0.9s-0.3-0.6-0.7-1l-1-0.9l-1.4,1.6l0.9,0.8c0.5,0.4,0.9,0.7,1.2,0.7
	C628.1,344.6,628.4,344.5,628.6,344.2z M630.3,348.8l-1.2-1.1l5-5.5l1.2,1.1L630.3,348.8z M638.2,345.9l-2.6,2.8
	c-0.3,0.3-0.8,0.8-1.4,1.4l6.6-1.8l1.4,1.3l-5,5.5l-1.1-1l2.5-2.8c0.1-0.2,0.4-0.4,0.7-0.7c0.3-0.3,0.6-0.6,0.7-0.7l-6.6,1.8
	l-1.4-1.3l5-5.5L638.2,345.9z M640.2,346.6c-0.7-0.6-1.1-1.2-1.2-1.8c-0.1-0.5,0.1-1.1,0.6-1.8l1.1,1c-0.2,0.3-0.3,0.5-0.4,0.7
	c0,0.2,0,0.4,0,0.6c0.1,0.2,0.3,0.4,0.5,0.6c0.3,0.3,0.6,0.4,0.9,0.5c0.3,0,0.6-0.1,1-0.4l1.1,1c-0.6,0.5-1.1,0.8-1.7,0.7
	C641.6,347.5,640.9,347.2,640.2,346.6z M644.5,355.7c1.1-1.2,2.2-2,3.2-2.3s2.1-0.1,3.1,0.5c0.8,0.5,1.7,1.1,2.7,1.7l-0.8,1.2
	c-1.2-0.8-2.1-1.4-2.7-1.8c-0.6-0.4-1.2-0.5-1.7-0.4s-1.1,0.5-1.8,1.1l0.1,0.1c0.4-0.1,0.9-0.1,1.3,0c0.4,0.1,0.8,0.3,1.2,0.7
	c0.7,0.6,1,1.3,1,2.1c0,0.8-0.4,1.5-1.1,2.3c-0.8,0.9-1.7,1.4-2.6,1.4c-0.9,0.1-1.8-0.3-2.6-1s-1.2-1.6-1.1-2.6
	C643,357.8,643.5,356.7,644.5,355.7z M644.9,360.5c0.9,0.8,1.8,0.6,2.9-0.5c1-1.1,1.1-2,0.3-2.7c-0.2-0.2-0.5-0.3-0.8-0.4
	s-0.6-0.1-0.9-0.1c-0.3,0-0.6,0-0.8,0.1c-0.7,0.8-1.1,1.5-1.2,2.1S644.4,360.1,644.9,360.5z M652.3,358.7l1.3,1.2l-1.7,4.1
	c-0.2,0.6-0.5,1.1-0.8,1.6l0,0c0.2-0.2,0.5-0.3,0.8-0.5s1.9-1,4.6-2.6l1.3,1.1l-8,4.1c-1.5,0.8-2.7,0.7-3.7-0.2
	c-0.3-0.2-0.5-0.5-0.7-0.8l0.8-0.9c0.1,0.2,0.3,0.4,0.5,0.6c0.6,0.5,1.3,0.5,2.1,0.1l0.7-0.3L652.3,358.7z M658.2,374.1L657,373
	l4.2-4.6l-1.5-1.4c-1.2,1.1-2.1,1.9-2.9,2.4c-0.8,0.5-1.4,0.8-1.9,0.9s-1-0.1-1.4-0.4c-0.3-0.2-0.4-0.5-0.5-0.7l0.8-0.9
	c0.1,0.2,0.2,0.3,0.3,0.4c0.3,0.3,0.9,0.2,1.8-0.4c0.9-0.6,2.1-1.6,3.6-3.1l3.7,3.4L658.2,374.1z M664.1,373.5l1.4,1.3
	c1.5,1.4,1.8,2.6,0.9,3.7c-0.5,0.6-1.1,0.8-1.7,0.7c-0.7-0.1-1.4-0.4-2.1-1.1l-2.5-2.3l5-5.5l1.2,1.1L664.1,373.5z M665.1,377.4
	c0.2-0.3,0.3-0.6,0.2-0.9s-0.4-0.6-0.7-1l-1.3-1.2l-1.4,1.6l1.3,1.2c0.4,0.4,0.7,0.5,1.1,0.6C664.6,377.8,664.9,377.7,665.1,377.4z
	 M674.7,381.7c-0.6,0.6-1.3,0.7-2.2,0.1l0,0c0.4,0.4,0.6,0.9,0.6,1.3s-0.1,0.8-0.4,1.2c-0.5,0.5-1,0.7-1.7,0.7
	c-0.6-0.1-1.3-0.5-2.1-1.2l-2.6-2.4l5-5.5l2.6,2.4C675.2,379.6,675.5,380.7,674.7,381.7z M671.5,383.1c0.2-0.3,0.3-0.5,0.2-0.8
	s-0.4-0.6-0.8-1l-1.3-1.2l-1.4,1.6l1.4,1.3C670.3,383.6,671,383.7,671.5,383.1z M673.4,380.7c0.2-0.2,0.3-0.5,0.2-0.7
	c-0.1-0.3-0.3-0.5-0.6-0.8l-1.4-1.3l-1.2,1.3l1.2,1.1c0.4,0.4,0.7,0.6,1,0.7C672.9,381.1,673.2,381,673.4,380.7z M675.9,390.2l0.5-1
	l0,0c-0.6,0.1-1,0.1-1.4,0s-0.8-0.4-1.2-0.8c-0.5-0.5-0.8-1-0.9-1.6c0-0.6,0.2-1.1,0.7-1.6c0.5-0.6,1.1-0.8,1.8-0.7
	c0.7,0.1,1.5,0.5,2.4,1.3l1,0.8l0.3-0.3c0.3-0.4,0.5-0.7,0.5-1s-0.2-0.6-0.5-1c-0.3-0.3-0.6-0.5-0.9-0.6c-0.3-0.2-0.7-0.3-1-0.4
	l0.4-1.2c0.4,0.1,0.9,0.3,1.3,0.5c0.4,0.2,0.8,0.5,1.1,0.8c0.7,0.6,1.1,1.3,1.2,1.9c0.1,0.6-0.2,1.3-0.8,1.9l-3.4,3.7L675.9,390.2z
	 M674.9,387.9c0.4,0.4,0.9,0.6,1.3,0.6c0.5,0,0.9-0.2,1.3-0.6l0.4-0.5l-0.7-0.6c-0.6-0.5-1.1-0.8-1.5-0.8c-0.4-0.1-0.7,0.1-1.1,0.4
	c-0.2,0.2-0.3,0.5-0.3,0.8C674.4,387.3,674.6,387.6,674.9,387.9z M681.1,395.2c-0.7-0.6-1-1.4-0.9-2.2l-0.1-0.1
	c-0.4,0.5-0.6,0.8-0.7,0.9l-2,2.3l-1.2-1.1l7.2-7.9l0.9,0.9c-0.1,0.1-0.2,0.4-0.5,0.9l0.1,0.1c0.9-0.2,1.7,0,2.4,0.7
	c0.7,0.6,1,1.4,0.9,2.2c-0.1,0.8-0.5,1.7-1.3,2.6s-1.6,1.4-2.5,1.6C682.6,396.1,681.8,395.8,681.1,395.2z M685.2,390.2
	c-0.5-0.4-0.9-0.6-1.4-0.5s-1,0.4-1.5,1l-0.2,0.2c-0.6,0.7-0.9,1.3-1,1.7c-0.1,0.5,0.2,1,0.6,1.4c0.4,0.4,0.9,0.5,1.4,0.4
	s1.1-0.5,1.6-1.1c0.6-0.6,0.9-1.2,0.9-1.7C685.8,391,685.6,390.6,685.2,390.2z"/>
<path d="M213.8,585.6l-1.5,1.2l-6.3-1.3l3.2,3.8l-1.2,1l-6.3-7.6l1.2-1l3,3.7v-6.2l1.4-1.1v6.2L213.8,585.6z M217.8,582.5
	c-0.7,0.6-1.5,0.8-2.3,0.6l-0.1,0.1c0.4,0.4,0.7,0.7,0.8,0.8l1.9,2.3l-1.2,1l-6.8-8.3l1-0.8c0.1,0.1,0.4,0.3,0.8,0.6l0.1-0.1
	c-0.1-0.9,0.2-1.7,1-2.3c0.7-0.6,1.5-0.8,2.3-0.6s1.6,0.7,2.4,1.7c0.8,0.9,1.2,1.8,1.2,2.7C218.9,581.2,218.5,581.9,217.8,582.5z
	 M213.4,577.8c-0.5,0.4-0.7,0.8-0.7,1.3s0.3,1,0.8,1.6l0.2,0.2c0.6,0.7,1.1,1.1,1.6,1.2c0.5,0.1,1,0,1.5-0.4
	c0.4-0.3,0.6-0.8,0.5-1.3s-0.4-1.1-0.9-1.8c-0.5-0.6-1-1-1.5-1.2C214.3,577.3,213.9,577.4,213.4,577.8z M218,572.6l2.4,2.9
	c0.3,0.3,0.7,0.9,1.2,1.6l-0.8-6.8l1.5-1.2l4.7,5.7l-1.2,1l-2.4-2.9c-0.1-0.2-0.3-0.4-0.6-0.8c-0.3-0.4-0.5-0.6-0.6-0.8l0.8,6.8
	l-1.5,1.2l-4.7-5.7L218,572.6z M230.3,564.9c0.6,0.7,0.5,1.4-0.2,2.2l0,0c0.5-0.3,0.9-0.5,1.4-0.4s0.8,0.2,1.1,0.6
	c0.4,0.5,0.6,1.1,0.4,1.8c-0.2,0.6-0.7,1.3-1.4,1.9l-2.7,2.3l-4.7-5.7l2.7-2.2C228.3,564,229.5,563.9,230.3,564.9z M231.3,568.2
	c-0.2-0.3-0.5-0.4-0.8-0.3c-0.3,0.1-0.7,0.3-1.1,0.6l-1.4,1.2l1.3,1.6l1.4-1.2C231.5,569.4,231.7,568.8,231.3,568.2z M229.1,566
	c-0.2-0.2-0.4-0.3-0.7-0.3s-0.6,0.2-0.9,0.5l-1.5,1.2l1.1,1.4l1.3-1.1c0.4-0.3,0.7-0.6,0.8-0.9C229.4,566.5,229.4,566.2,229.1,566z
	 M238,560.8c0.8,0.9,1.1,1.9,1.1,2.8c0,0.9-0.5,1.7-1.4,2.4c-0.5,0.4-1.1,0.7-1.7,0.8c-0.6,0.1-1.2,0-1.8-0.3s-1.1-0.7-1.6-1.3
	c-0.8-0.9-1.1-1.9-1.1-2.8c0-0.9,0.5-1.7,1.4-2.4c0.8-0.7,1.7-1,2.6-0.8C236.4,559.4,237.3,559.9,238,560.8z M233.9,564.2
	c1.1,1.3,2.1,1.6,3.1,0.8s0.9-1.9-0.2-3.2c-1.1-1.3-2.1-1.6-3.1-0.8c-0.5,0.4-0.7,0.9-0.7,1.4C233.1,563,233.3,563.6,233.9,564.2z
	 M240.7,553.7l1.3-1.1l-0.1,4.7l5,0.8l-1.4,1.2l-4.9-0.9l2.4,2.9l-1.2,1l-4.7-5.7l1.2-1l2.3,2.8L240.7,553.7z M250.8,550.3
	c0.8,0.9,1.1,1.9,1.1,2.8c0,0.9-0.5,1.7-1.4,2.4c-0.5,0.4-1.1,0.7-1.7,0.8c-0.6,0.1-1.2,0-1.8-0.3s-1.1-0.7-1.6-1.3
	c-0.8-0.9-1.1-1.8-1.1-2.8c0-0.9,0.5-1.7,1.4-2.4c0.8-0.7,1.7-1,2.6-0.8C249.2,548.8,250,549.4,250.8,550.3z M246.6,553.7
	c1.1,1.3,2.1,1.6,3.1,0.8s0.9-1.9-0.2-3.2c-1.1-1.3-2.1-1.6-3.1-0.8c-0.5,0.4-0.7,0.9-0.7,1.4C245.8,552.5,246.1,553.1,246.6,553.7z
	 M259.4,548l-1.2,1l-3.9-4.8l-1.6,1.3c0.9,1.3,1.6,2.4,2,3.2s0.6,1.5,0.6,2s-0.2,1-0.6,1.3c-0.3,0.2-0.5,0.4-0.8,0.4l-0.8-1
	c0.2-0.1,0.3-0.1,0.4-0.2c0.4-0.3,0.3-0.9-0.2-1.9s-1.3-2.3-2.5-4l3.8-3.2L259.4,548z M263.8,544.5c-0.9,0.7-1.8,1.1-2.7,1
	c-0.9-0.1-1.8-0.6-2.5-1.5c-0.8-0.9-1.1-1.9-1.1-2.8c0-0.9,0.4-1.7,1.3-2.4c0.8-0.6,1.5-0.9,2.4-0.8c0.8,0.1,1.6,0.5,2.2,1.4
	l0.5,0.7l-3.8,3.2c0.5,0.5,1,0.8,1.5,0.9c0.5,0.1,1-0.1,1.6-0.5c0.3-0.3,0.6-0.6,0.9-0.9c0.2-0.3,0.5-0.7,0.7-1.1l0.8,1
	c-0.2,0.4-0.4,0.7-0.7,1C264.5,543.9,264.2,544.2,263.8,544.5z M259.4,539.7c-0.4,0.3-0.6,0.7-0.6,1.1c0,0.4,0.1,0.9,0.5,1.4
	l2.6-2.1c-0.4-0.5-0.8-0.7-1.2-0.8C260.2,539.2,259.8,539.4,259.4,539.7z M263.9,534.6l1.9,2.3l2.7-2.2l-1.9-2.3l1.2-1l4.7,5.7
	l-1.2,1l-2-2.5l-2.7,2.2l2,2.5l-1.2,1l-4.7-5.7L263.9,534.6z M270.9,528.8l1.9,2.3l2.7-2.2l-1.9-2.3l1.2-1l4.7,5.7l-1.2,1l-2-2.5
	l-2.7,2.2l2,2.5l-1.2,1l-4.7-5.7L270.9,528.8z M279.8,525.4l1.2-1c0.8-0.7,1.5-1,2.1-1.1c0.6,0,1.1,0.2,1.6,0.8s0.7,1.2,0.5,1.8
	s-0.6,1.3-1.4,1.9l-2.4,2l-4.7-5.7l1.2-1L279.8,525.4z M283.5,525.2c-0.2-0.3-0.5-0.4-0.8-0.3c-0.3,0.1-0.7,0.3-1.1,0.6l-1.1,0.9
	l1.3,1.6l0.9-0.8c0.5-0.4,0.8-0.8,0.9-1.1C283.8,525.8,283.7,525.4,283.5,525.2z M288.2,524.2l-1.2,1l-4.7-5.7l1.2-1L288.2,524.2z
	 M286.5,515.9l2.4,2.9c0.3,0.3,0.7,0.9,1.2,1.6l-0.8-6.8l1.5-1.2l4.7,5.7l-1.2,1l-2.4-2.9c-0.1-0.2-0.3-0.4-0.6-0.8
	c-0.3-0.4-0.5-0.6-0.6-0.8l0.8,6.8l-1.5,1.2l-4.7-5.7L286.5,515.9z M287.5,514c-0.7,0.6-1.4,0.9-1.9,0.9c-0.6,0-1.1-0.3-1.7-0.9
	l1.1-0.9c0.2,0.2,0.4,0.4,0.6,0.5s0.4,0.1,0.6,0s0.4-0.2,0.7-0.4c0.3-0.3,0.5-0.6,0.6-0.9c0.1-0.3,0-0.6-0.3-1l1.1-0.9
	c0.4,0.6,0.6,1.2,0.5,1.8C288.6,512.8,288.2,513.4,287.5,514z M300.5,504.4l4.7,5.7l-1.2,1l-3.9-4.8l-2.6,2.1l3.9,4.8l-1.2,1
	l-4.7-5.7L300.5,504.4z M309.7,506.6c-0.9,0.7-1.8,1.1-2.7,1c-0.9-0.1-1.8-0.6-2.5-1.5c-0.8-0.9-1.1-1.9-1.1-2.8s0.4-1.7,1.3-2.4
	c0.8-0.6,1.5-0.9,2.4-0.8c0.8,0.1,1.6,0.5,2.2,1.4l0.5,0.7l-3.8,3.2c0.5,0.5,1,0.8,1.5,0.9s1-0.1,1.6-0.5c0.3-0.3,0.6-0.6,0.9-0.9
	c0.2-0.3,0.5-0.7,0.7-1.1l0.8,1c-0.2,0.4-0.4,0.7-0.7,1C310.4,506,310.1,506.3,309.7,506.6z M305.3,501.8c-0.4,0.3-0.6,0.7-0.6,1.1
	s0.1,0.9,0.5,1.4l2.6-2.1c-0.4-0.5-0.8-0.7-1.2-0.8C306.1,501.4,305.7,501.5,305.3,501.8z M316.3,501.2c-0.7,0.6-1.5,0.8-2.3,0.6
	l-0.1,0.1c0.4,0.4,0.7,0.7,0.8,0.8l1.9,2.3l-1.2,1l-6.8-8.3l1-0.8c0.1,0.1,0.4,0.3,0.8,0.6l0.1-0.1c-0.1-0.9,0.2-1.7,1-2.3
	c0.7-0.6,1.5-0.8,2.3-0.6c0.8,0.2,1.6,0.7,2.4,1.7c0.8,0.9,1.2,1.8,1.2,2.7C317.4,499.8,317,500.6,316.3,501.2z M311.9,496.5
	c-0.5,0.4-0.7,0.8-0.7,1.3s0.3,1,0.8,1.6l0.2,0.2c0.6,0.7,1.1,1.1,1.6,1.2s1,0,1.5-0.4c0.4-0.3,0.6-0.8,0.5-1.3s-0.4-1.1-0.9-1.8
	c-0.5-0.6-1-1-1.5-1.2C312.8,496,312.4,496.1,311.9,496.5z M322.6,496c-0.9,0.7-1.8,1.1-2.7,1c-0.9-0.1-1.8-0.6-2.5-1.5
	c-0.8-0.9-1.1-1.9-1.1-2.8s0.4-1.7,1.3-2.4c0.8-0.6,1.5-0.9,2.4-0.8c0.8,0.1,1.6,0.5,2.2,1.4l0.5,0.7l-3.8,3.2
	c0.5,0.5,1,0.8,1.5,0.9s1.1-0.1,1.6-0.5c0.3-0.3,0.6-0.6,0.9-0.9c0.2-0.3,0.5-0.7,0.7-1.1l0.8,1c-0.2,0.4-0.4,0.7-0.7,1
	C323.3,495.3,323,495.6,322.6,496z M318.2,491.1c-0.4,0.3-0.6,0.7-0.6,1.1s0.1,0.9,0.5,1.4l2.6-2.1c-0.4-0.5-0.8-0.7-1.2-0.8
	C319,490.7,318.6,490.8,318.2,491.1z M320.6,487.8l1.3-1.1l3.8,2.3c0.6,0.3,1,0.7,1.4,1l0,0c-0.1-0.2-0.3-0.5-0.4-0.8
	s-0.8-2-1.9-4.9l1.3-1.1l2.9,8.5c0.5,1.6,0.3,2.8-0.8,3.6c-0.3,0.2-0.6,0.4-0.9,0.6l-0.8-1c0.2-0.1,0.4-0.3,0.7-0.5
	c0.6-0.5,0.7-1.2,0.4-2l-0.2-0.7L320.6,487.8z M336.7,484.1l-1.2,1l-3.9-4.8l-1.6,1.3c0.9,1.3,1.6,2.4,2,3.2c0.4,0.8,0.6,1.5,0.6,2
	s-0.2,1-0.6,1.3c-0.3,0.2-0.5,0.4-0.8,0.4l-0.8-1c0.2-0.1,0.3-0.1,0.4-0.2c0.4-0.3,0.3-0.9-0.2-1.9s-1.3-2.3-2.5-4l3.8-3.2
	L336.7,484.1z M341.3,475.5c0.8,0.9,1.1,1.9,1.1,2.8s-0.5,1.7-1.4,2.4c-0.5,0.4-1.1,0.7-1.7,0.8c-0.6,0.1-1.2,0-1.8-0.3
	c-0.6-0.3-1.1-0.7-1.6-1.3c-0.8-0.9-1.1-1.9-1.1-2.8s0.5-1.7,1.4-2.4c0.8-0.7,1.7-1,2.6-0.8C339.7,474.1,340.5,474.6,341.3,475.5z
	 M337.1,479c1.1,1.3,2.1,1.6,3.1,0.8c1-0.8,0.9-1.9-0.2-3.2c-1.1-1.3-2.1-1.6-3.1-0.8c-0.5,0.4-0.7,0.9-0.7,1.4
	C336.3,477.7,336.6,478.3,337.1,479z M344,468.5l1.3-1.1l-0.1,4.7l5,0.8l-1.4,1.2l-4.9-0.9l2.4,2.9l-1.2,1l-4.7-5.7l1.2-1l2.3,2.8
	L344,468.5z"/>
<path d="M242.9,27.3c-0.8-0.5-1.6-0.6-2.4-0.3c-0.8,0.3-1.5,0.9-2.1,1.9s-0.9,1.9-0.8,2.7c0.1,0.8,0.6,1.5,1.4,2
	c0.4,0.2,0.7,0.4,1.1,0.5c0.4,0.1,0.8,0.3,1.2,0.4l-0.7,1.2c-0.8-0.2-1.6-0.5-2.4-1c-1.2-0.8-1.9-1.7-2.1-2.9
	c-0.2-1.1,0.2-2.4,1-3.8c0.5-0.9,1.2-1.5,1.9-2c0.7-0.4,1.5-0.6,2.3-0.6s1.6,0.3,2.4,0.8c0.8,0.5,1.5,1.2,2,2l-1.2,0.8
	c-0.2-0.3-0.4-0.6-0.7-0.9C243.5,27.8,243.2,27.5,242.9,27.3z M245.2,39.1c-0.8-0.5-1.2-1.2-1.3-2l-0.1-0.1c-0.3,0.6-0.5,0.9-0.5,1
	l-1.6,2.6l-1.3-0.8l5.7-9.1l1.1,0.7c0,0.1-0.2,0.5-0.3,1h0.1c0.8-0.4,1.6-0.3,2.5,0.2c0.8,0.5,1.2,1.2,1.3,2s-0.2,1.8-0.9,2.8
	c-0.6,1-1.4,1.7-2.2,2C246.8,39.7,246,39.6,245.2,39.1z M248.3,33.5c-0.5-0.3-1-0.4-1.5-0.3c-0.4,0.2-0.9,0.6-1.3,1.3l-0.1,0.2
	c-0.5,0.8-0.7,1.4-0.7,1.9s0.3,0.9,0.9,1.3c0.5,0.3,0.9,0.3,1.4,0.1s1-0.7,1.4-1.4s0.7-1.3,0.6-1.8C249,34.2,248.8,33.8,248.3,33.5z
	 M252.1,43.5c-1-0.6-1.6-1.4-1.8-2.3c-0.2-0.9,0-1.9,0.7-2.9s1.4-1.7,2.3-1.9s1.8-0.1,2.7,0.5c0.8,0.5,1.3,1.2,1.5,2s0,1.7-0.6,2.5
	l-0.5,0.7l-4.2-2.7c-0.4,0.6-0.5,1.2-0.4,1.7s0.4,1,1,1.3c0.4,0.2,0.7,0.4,1.1,0.6c0.4,0.1,0.8,0.2,1.3,0.3l-0.7,1.1
	c-0.4-0.1-0.8-0.2-1.2-0.3C252.9,44,252.5,43.8,252.1,43.5z M255.3,37.9c-0.4-0.3-0.8-0.4-1.3-0.2c-0.4,0.1-0.8,0.4-1.2,0.9l2.8,1.8
	c0.3-0.5,0.4-1,0.4-1.4C256,38.5,255.8,38.1,255.3,37.9z M264.9,42.7l-0.7,1l-2-1.3l-3.3,5.2l-1.3-0.8l3.3-5.2l-2-1.3l0.7-1
	L264.9,42.7z M264.9,51.7c-1-0.6-1.6-1.4-1.8-2.3c-0.2-0.9,0-1.9,0.7-2.9c0.6-1,1.4-1.7,2.3-1.9c0.9-0.3,1.8-0.1,2.7,0.5
	c0.8,0.5,1.3,1.2,1.5,2s0,1.7-0.6,2.5l-0.5,0.7l-4.2-2.7c-0.4,0.6-0.5,1.2-0.4,1.7s0.4,1,1,1.3c0.4,0.2,0.7,0.4,1.1,0.6
	c0.4,0.1,0.8,0.2,1.3,0.3l-0.7,1.1c-0.4-0.1-0.8-0.2-1.2-0.3C265.8,52.1,265.4,51.9,264.9,51.7z M268.2,46c-0.4-0.3-0.8-0.4-1.3-0.2
	c-0.4,0.1-0.8,0.4-1.2,0.9l2.8,1.8c0.3-0.5,0.4-1,0.4-1.4C268.8,46.6,268.6,46.3,268.2,46z M274.4,48.7l-1.6,2.5l3,1.9l1.6-2.5
	l1.3,0.8l-4,6.3l-1.3-0.8l1.7-2.7l-3-1.9l-1.7,2.7l-1.3-0.8l4-6.3L274.4,48.7z M279.2,60.7c-0.9-0.6-1.5-1.3-1.6-2.2
	s0.1-1.8,0.8-2.9c0.7-1.1,1.4-1.7,2.3-1.9s1.8,0,2.8,0.6c0.7,0.4,1.2,0.9,1.6,1.5l-1.1,0.8c-0.4-0.6-0.8-1-1.2-1.2
	c-1.1-0.7-2.1-0.3-3,1.1c-0.4,0.7-0.6,1.3-0.6,1.8s0.3,1,0.9,1.3c0.6,0.4,1.2,0.6,2,0.6l-0.7,1.2c-0.3,0-0.6-0.1-1-0.2
	C279.9,61.1,279.6,60.9,279.2,60.7z M290.5,58.9l1.5,0.9l-4.5,1.4l0.8,5l-1.5-1l-0.7-4.9l-2,3.2l-1.3-0.8l4-6.3l1.3,0.8l-1.9,3
	L290.5,58.9z M294.6,61.5l-2,3.2c-0.2,0.4-0.6,0.9-1.1,1.6l6.2-2.9l1.6,1l-4,6.3l-1.3-0.8l2-3.2c0.1-0.2,0.3-0.4,0.6-0.8
	c0.3-0.4,0.5-0.6,0.6-0.8L291,68l-1.6-1l4-6.3L294.6,61.5z M302.5,66.6l-2,3.2c-0.2,0.4-0.6,0.9-1.1,1.6l6.2-2.9l1.6,1l-4,6.3
	L302,75l2-3.2c0.1-0.2,0.3-0.4,0.6-0.8c0.3-0.4,0.5-0.6,0.6-0.8l-6.2,2.9l-1.6-1l4-6.3L302.5,66.6z M304.7,66.9
	c-0.8-0.5-1.3-1-1.5-1.5s-0.1-1.1,0.3-1.8l1.2,0.8c-0.1,0.3-0.2,0.5-0.2,0.7s0,0.4,0.1,0.6s0.3,0.3,0.6,0.5c0.4,0.2,0.7,0.3,1,0.3
	s0.6-0.2,0.9-0.6l1.2,0.8c-0.5,0.6-1,0.9-1.6,1C306.2,67.6,305.5,67.3,304.7,66.9z M310.4,75.1c0.9-1.4,1.8-2.3,2.8-2.8s2-0.5,3.2,0
	c0.9,0.3,1.9,0.8,3,1.3l-0.6,1.3c-1.4-0.6-2.4-1-3-1.3c-0.7-0.3-1.2-0.3-1.8-0.1c-0.5,0.2-1,0.7-1.5,1.4l0.1,0.1
	c0.4-0.2,0.9-0.2,1.3-0.2c0.5,0,0.9,0.2,1.3,0.4c0.8,0.5,1.2,1.1,1.3,1.9c0.1,0.8-0.1,1.6-0.7,2.5c-0.6,1-1.4,1.6-2.3,1.8
	c-0.9,0.2-1.8,0-2.7-0.5c-0.9-0.6-1.4-1.4-1.5-2.4S309.6,76.3,310.4,75.1z M311.7,79.8c1,0.6,1.9,0.3,2.7-1c0.8-1.3,0.7-2.2-0.1-2.7
	c-0.2-0.2-0.5-0.3-0.8-0.3s-0.6,0-0.9,0c-0.3,0.1-0.6,0.1-0.8,0.3c-0.6,0.9-0.9,1.7-0.9,2.3C310.9,79,311.1,79.4,311.7,79.8z
	 M318.6,76.8l1.5,0.9l-1,4.4c-0.1,0.6-0.3,1.2-0.5,1.7l0,0c0.2-0.2,0.4-0.4,0.7-0.6c0.3-0.2,1.7-1.3,4.1-3.3l1.4,0.9l-7.2,5.4
	c-1.3,1-2.5,1.1-3.7,0.4c-0.3-0.2-0.6-0.4-0.8-0.6l0.7-1.1c0.2,0.2,0.4,0.3,0.6,0.5c0.6,0.4,1.3,0.3,2.1-0.3l0.6-0.4L318.6,76.8z
	 M327.1,90.9l-1.3-0.9l3.3-5.2l-1.7-1.1c-1,1.3-1.8,2.2-2.4,2.9c-0.7,0.6-1.2,1-1.8,1.2c-0.5,0.2-1,0.1-1.5-0.2
	c-0.3-0.2-0.5-0.4-0.7-0.6l0.7-1c0.1,0.1,0.2,0.3,0.4,0.3c0.4,0.2,1,0,1.7-0.7c0.8-0.7,1.8-1.9,3.1-3.7l4.2,2.7L327.1,90.9z
	 M332.8,89.3l1.6,1c1.8,1.1,2.2,2.3,1.5,3.5c-0.4,0.6-0.9,1-1.6,1s-1.4-0.2-2.3-0.7l-2.9-1.8l4-6.3l1.3,0.8L332.8,89.3z M334.5,93
	c0.2-0.3,0.2-0.6,0.1-0.9c-0.2-0.3-0.5-0.6-0.9-0.8l-1.5-0.9l-1.1,1.8l1.5,1c0.4,0.3,0.8,0.4,1.1,0.4
	C334.1,93.4,334.3,93.3,334.5,93z M344.6,95.5c-0.5,0.7-1.2,0.9-2.2,0.5l0,0c0.4,0.4,0.7,0.8,0.8,1.2c0.1,0.4,0,0.8-0.2,1.2
	c-0.4,0.6-0.9,0.9-1.6,0.9s-1.4-0.2-2.3-0.8l-3-1.9l4-6.3l3,1.9C344.8,93.4,345.3,94.5,344.6,95.5z M341.7,97.5
	c0.2-0.3,0.2-0.6,0.1-0.9c-0.2-0.3-0.5-0.6-0.9-0.9l-1.5-1l-1.1,1.8l1.6,1C340.7,98.2,341.3,98.1,341.7,97.5z M343.2,94.8
	c0.2-0.2,0.2-0.5,0-0.7c-0.1-0.2-0.4-0.5-0.8-0.7l-1.6-1l-1,1.5l1.4,0.9c0.4,0.3,0.8,0.4,1.1,0.5C342.8,95.2,343,95.1,343.2,94.8z
	 M347.3,103.8l0.3-1l0,0c-0.5,0.2-1,0.3-1.4,0.2c-0.4-0.1-0.8-0.2-1.3-0.5c-0.6-0.4-1-0.9-1.1-1.4c-0.1-0.6,0-1.1,0.4-1.7s1-1,1.6-1
	c0.7,0,1.5,0.3,2.5,0.9l1.1,0.7l0.2-0.3c0.3-0.4,0.3-0.8,0.3-1.1c-0.1-0.3-0.3-0.6-0.7-0.9c-0.3-0.2-0.7-0.4-1-0.4
	c-0.4-0.1-0.7-0.2-1.1-0.2l0.2-1.2c0.5,0,0.9,0.1,1.4,0.3c0.5,0.2,0.9,0.4,1.2,0.6c0.8,0.5,1.3,1.1,1.5,1.7s0,1.3-0.4,2l-2.7,4.2
	L347.3,103.8z M345.9,101.6c0.5,0.3,1,0.4,1.4,0.3c0.5-0.1,0.9-0.4,1.2-0.9l0.3-0.5L348,100c-0.6-0.4-1.2-0.6-1.6-0.6
	s-0.7,0.2-1,0.6c-0.2,0.3-0.2,0.5-0.2,0.8C345.4,101.1,345.6,101.4,345.9,101.6z M353.3,107.7c-0.8-0.5-1.2-1.2-1.3-2l-0.1-0.1
	c-0.3,0.6-0.5,0.9-0.5,1l-1.6,2.6l-1.3-0.8l5.7-9.1l1.1,0.7c0,0.1-0.2,0.5-0.3,1h0.1c0.8-0.4,1.6-0.3,2.5,0.2c0.8,0.5,1.2,1.2,1.3,2
	c0.1,0.8-0.2,1.8-0.9,2.8c-0.6,1-1.4,1.7-2.2,2C354.9,108.3,354.1,108.2,353.3,107.7z M356.4,102.1c-0.5-0.3-1-0.4-1.5-0.3
	c-0.4,0.2-0.9,0.6-1.3,1.3l-0.1,0.2c-0.5,0.8-0.7,1.4-0.7,1.9s0.3,0.9,0.9,1.3c0.5,0.3,0.9,0.3,1.4,0.1c0.5-0.2,1-0.7,1.4-1.4
	c0.4-0.7,0.7-1.3,0.6-1.8C357.2,102.8,356.9,102.4,356.4,102.1z"/>
<g>
	<polygon class="st0" points="474.2,295.4 494.3,274.8 383.7,176.2 375.1,176.2 345.4,228.5 352.3,233.1 317.9,304.7 311,301.8 
		261.7,388.9 278.3,399.2 293.2,378.9 349.9,411.8 372.2,380.3 363.6,375.1 355.6,387.1 308.5,357.9 322.4,339 407.8,388.9 
		414.7,378.9 355.7,339 383.8,357.9 402.1,339 396.4,333.3 420.5,301.8 452,318.4 457.7,310.9 425.6,291.4 430.2,284.5 396.4,261.6 
		400.4,254.2 463.4,310.9 470.8,301.7 400.3,238.1 394.6,241.5 369.4,226 380.8,199.1 445.6,256.4 449.6,251.8 475.4,278.2 
		466.2,288.5 	"/>
	<path class="st0" d="M207.2,468.4l-48,46.5l12,16.6l-9.2,9.7l29.1,32.6l66.5-60.7l-46.4-44.7H207.2z M194,557.3l-11.4-12.7l5.7-5.7
		l12,13.2L194,557.3z M235.9,514.8l-28.7,29.8l-4.6-3.4l4.6-5.2l-6.9-6.9l-9.2,6.9l-8.5-14.9l31.5-30.9L235.9,514.8z"/>
	<polygon class="st0" points="306.3,427.2 297.7,440.4 312.6,453 275.4,482.2 259.9,469.2 262.2,467.3 267.4,470.7 285.2,451.2 
		270.3,438.6 253.1,458.7 257.7,463.3 255.4,465.4 243.4,455.3 266.9,422.1 280.1,429.5 289.3,418 254.9,395.1 219.9,453 
		273.6,501.7 336.1,455.3 333.8,446.7 	"/>
</g>
<path class="st0" d="M407.1,328.8l10.5-14.6l24.5,16.9l-8.2,13.4L407.1,328.8z"/>
<path class="st0" d="M393.6,434.5l7-13.4l16.9,8.2l-8.8,13.4L393.6,434.5z"/>
<path class="st0" d="M403.6,391.3l-9.9,9.9l15.2,14.6l21-19.3l6.4,7l9.3-7l-18.1-16.4l-18.7,18.7L403.6,391.3z"/>
<path class="st0" d="M460.8,376.1l18.7-18.1l11.1,9.9L469,387.2L460.8,376.1z"/>
<path class="st0" d="M464.9,427.5l9.3-11.7l9.9,5.3l-9.9,13.4L464.9,427.5z"/>
<path class="st0" d="M474.2,401.2l12.3-18.1l15.8,9.9l-11.7,18.1L474.2,401.2z"/>
<path class="st0" d="M490.6,297.9l13.4-16.4l52,49.6l-35.6,42.6l-23.9-21.6l-9.9,5.8L462.7,331l31.5-27.5L490.6,297.9z"/>
<path class="st0" d="M450.3,401.2l7-8.2l11.7,14l-8.2,6.4L450.3,401.2z"/>
<path class="st0" d="M445.6,451.5l11.7-18.7l11.7,9.9L453.8,469l-22.2-14l4.7-8.8L445.6,451.5z"/>
<path class="st0" d="M369.7,403.6l-11.7-7l-7,7l21,12.3l7-2.3l8.2,4.1l3.5-6.4l-15.8-9.9L369.7,403.6z"/>
<g>
	<path class="st1" d="M639.3,675.9c-1.1,0-2.2-0.7-2.6-1.7c-13.1-30.7-38.1-86.5-48.9-100.8c-6.3-8.3-48.8-38.8-101.2-72.6
		c-62.1-40.1-96.8-58.3-102.8-58.3c0,0-0.1,0-0.1,0c-14.8,0.4-55.8,31.4-88.7,56.2c-4.5,3.4-8.9,6.7-13.1,9.9
		c-28.3,21.2-118,103.1-166.6,148.2c-1.2,1.1-3,1-4-0.2c-1.1-1.2-1-3,0.1-4c48.6-45.2,138.5-127.3,167-148.6
		c4.2-3.2,8.6-6.5,13.1-9.9c35.3-26.7,75.4-56.9,92-57.4c0,0,0.1,0,0.2,0c13.2,0,84.4,45.3,106,59.2c43.9,28.3,94.7,63.5,102.6,74
		c13.8,18.1,46,93.5,49.7,102c0.6,1.5-0.1,3.1-1.5,3.8C640.1,675.8,639.7,675.9,639.3,675.9z"/>
</g>
<g>
	<path class="st1" d="M389,645.9c-0.3,0-0.6,0-0.9-0.1c-1.5-0.5-2.3-2.1-1.9-3.6c5.6-17.4,33.7-87.6,59-147.3
		c24.6-57.9,88.7-134.2,119.2-166.4c1.1-1.2,2.9-1.2,4-0.1c1.2,1.1,1.2,2.9,0.1,4.1c-30.2,32-93.8,107.6-118,164.8
		c-25.3,59.6-53.3,129.6-58.8,146.9C391.3,645.1,390.2,645.9,389,645.9z"/>
</g>
<g>
	<path class="st1" d="M271.5,516.6L206,454.2l4-4.1l65.4,62.4L271.5,516.6z M327.7,236.9l-2.6-1.3c-23.7-12.1-74.2-40.7-89.5-55
		c-13.9-13-36.2-39.2-47.6-53.3l-71.2-8.3l0.7-5.7l73.5,8.6l0.7,0.9c11.1,13.8,33.9,40.5,47.8,53.6c14.9,13.9,64.8,42,88.2,54
		l2.6,1.3L327.7,236.9z"/>
</g>
<g>
	<path class="st2" d="M501.5,252c-1.4,0-2.8,0.3-3.9,1v-0.9h-3.1h-2.1h-3.1H488h-3.1h-1h-1h-2.1h-1h-7.4h-2
		c-0.6-0.1-1.2-0.2-1.9-0.2c-1.5,0-2.9,0.3-4.1,1V252h-3.1h-2.5h-1.7l0,0H454h-2h-0.3v-0.1v-3.1h-3.1h-2.1H444h-0.5h-2.6h-2.1h-3.1
		v3.1v5.2c0,1.7,0.6,3.5,2,4.8l1.4-1.6l0,0l-1.4,1.6l0,0l0,0c1.4,1.2,3.2,1.6,4.8,1.6c0.3,0,0.6,0,0.9,0v1.3v3.1h3.1h2.1h0.3h2.8
		h0.3h2.5h1.7l0,0h3.1h2h3.1v-0.8c1.2,0.7,2.6,1,4,1c0.7,0,1.5-0.1,2.2-0.2l0,0l0,0l0,0l0,0c0.7-0.2,1.3-0.4,2-0.8v0.8h3.1h2.1h2.1
		h0.9h2.1h4c0.8,0,1.6-0.1,2.4-0.3v0.3h3.1h2.1h3.1V267c1.3,0.8,2.8,1.1,4.3,1.1c0.8,0,1.6-0.1,2.4-0.2c0.8-0.2,1.5-0.4,2.3-0.8
		l1.8-0.8v-1.9v-0.8h0.5v-3.1v-1.1c0-1.9-0.5-3.9-2-5.3C505.4,252.6,503.5,252,501.5,252z M500.8,259.4l0.1-0.1l0,0L500.8,259.4
		L500.8,259.4z M458.8,255.3L458.8,255.3l-1.7-1.1l0,0L458.8,255.3z M454.6,265L454.6,265l1.7,1.1l0,0L454.6,265z"/>
	<path class="st2" d="M569,252.2h-2.1h-3.1v3.1v1.1c-0.4-0.1-0.9-0.2-1.3-0.2v-0.9v-3.1h-3.1h-2.1H557h-2.8h-0.3h-5.1H548h-3h-0.7
		h-2.2h-2.2l-0.4,1.2l-0.4-1.2h-2.2h-2.3h-3.4c-0.5-0.1-1-0.2-1.6-0.2s-1.1,0.1-1.6,0.2h-1.7h-1.7h-0.1h-3h-0.1h-8.5H510v3.1v9.7
		v3.1h3.1h2.1h1.3h1.8h1.3h2.1h0.1v1.2v3.1h3.1h2.1h3.1v-3.1v-1.1c0.7,0,1.4-0.1,2.1-0.4v1.3v2.5l2.4,0.5l0.4-1.6l0,0l-0.4,1.6
		c0.7,0.2,1.3,0.2,2,0.2c1.5,0,3-0.5,4.2-1.4c0.4-0.4,0.8-0.8,1.2-1.2v1.8h3.1h1.9h3.1v-3.1V268h0.5v0.4v3.1h3.1h1.9h3.1v-3.1V268
		h2.9c0.8,0,1.6-0.1,2.4-0.3v0.3h3.1h2.1h3.1v-3v-9.7v-3.1H569z M535,267.5l0.4-2l0,0L535,267.5L535,267.5z M528.9,258.9
		L528.9,258.9l0.1-0.1l0,0L528.9,258.9z M546.1,259.5L546.1,259.5L546.1,259.5L546.1,259.5L546.1,259.5z"/>
</g>
<path class="st2" d="M306.8,154.2h-4.4c-1.4,0-2.8,0.3-4,1.2l0,0l0,0l0,0l0,0c-0.3,0.2-0.6,0.5-0.8,0.8c-0.2-0.3-0.5-0.6-0.8-0.9
	l0,0l0,0l0,0l0,0c-1.2-1-2.7-1.3-4.1-1.3c-0.6,0-1.1,0.1-1.7,0.2h-4.3h-2.3h-1l-0.6,0.7l1.3,1.1l0,0l-1.3-1.1l-0.3,0.3v-1.1h-2.1
	h-2.1h-2.1v0.3c-0.9-0.3-1.9-0.5-2.9-0.5c-1.9,0-3.7,0.6-5,2l1.5,1.3l0,0l-1.5-1.3l0,0l1.5,1.3l0,0l-1.5-1.3
	c-0.1,0.1-0.2,0.2-0.3,0.4c-0.3-0.5-0.7-0.9-1.2-1.2c-1.1-0.7-2.6-1-4-1h-4.6h-2.1v1.7c0,0,0,0-0.1-0.1c-1.2-1.3-2.8-1.8-4.6-1.8
	c-1.9,0-3.6,0.6-4.8,2.1l-0.1,0.1v-2h-2.1h-2.1h-2.1v2.1v1.8h-0.4v-1.8v-2.1h-2.1h-2.1h-2.1v1.7c0,0,0,0-0.1-0.1
	c-1.2-1.3-2.8-1.8-4.6-1.8c-1.4,0-2.7,0.4-3.8,1.2v-1h-2.1h-6.3h-2.1v1.8c-1.1-1.3-2.6-2-4.4-2c-0.6,0-1.1,0.1-1.7,0.2V154h-1.6
	h-0.3h-1.4h-1.7H203h-1.8H200l-0.5,1.4l2,0.7l0,0l-2-0.7c-0.2,0.6-0.4,1.2-0.6,1.8l-0.6-1.8l-2,0.7l0,0l2-0.7l-0.5-1.4h-1.5h-0.6v-1
	v-2.1h-2.1H184h-2.1v2.1v1.8v2.1h2.1h1.7v9v2.1h2.1h2.1h2.1v-2v-9h0.2l0,0h0.1l0,0h-0.1l3.6,9l-0.1,0.1l0,0l0,0l0.2,0.1l0,0
	l-0.2-0.1c-0.1,0.2-0.1,0.3-0.2,0.3c-0.3,0-0.5,0-0.6-0.1l-0.5,2l0,0l0.5-2l-2.5-0.6v2.6v1.6v1.7l1.6,0.4l0.4-1.6l0,0L194,172
	c0.6,0.1,1.2,0.2,1.8,0.2c1.3,0,2.5-0.4,3.6-1.2c1-0.8,1.7-1.9,2.2-3.2l0,0l1.8-4.7v7v2.1h2.1h2.1h2.1v-2.1V168
	c0.3,0,0.5,0.1,0.8,0.1c1.7,0,3.3-0.7,4.4-2v1.8h2.1h2.1h2.1V166v-6h1.6c0,0.4-0.1,0.8-0.1,1.2c0,1.9,0.5,3.7,1.9,5.1l1.4-1.4l0,0
	l-1.4,1.4l0,0c1.3,1.4,3.1,1.9,5,1.9c0.8,0,1.5-0.1,2.2-0.2c0.7-0.1,1.4-0.4,2-0.7l-0.7-1.4l0,0l0.7,1.4l0,0v0.7h2.1h2.1h2.1v-2
	v-2.1h0.4v2.1v2.1h2.1h2.1h2.1V166c0.1,0.1,0.2,0.2,0.3,0.3l1.4-1.4l0,0l-1.4,1.4l0,0c1.3,1.4,3.1,1.9,5,1.9c0.8,0,1.5-0.1,2.2-0.2
	c0.7-0.1,1.4-0.4,2-0.7l-0.7-1.4l0,0l0.7,1.4l0,0v0.7h2.1h4.6c1.5,0,3.1-0.3,4.3-1.1l0,0l-1.1-1.5v-0.1l0,0l1.1,1.6
	c0.4-0.3,0.7-0.6,1-0.9c0.1,0.1,0.1,0.2,0.2,0.2l0,0l0,0l1.5-1.4l0,0l-1.5,1.4c1.3,1.4,3,2,4.9,2c0.7,0,1.4-0.1,2-0.2l0,0l0,0l0,0
	l0,0c0.4-0.1,0.8-0.2,1.1-0.4v0.4h2.1h2.1h2.1v-1.4l0.5,0.6l0.6,0.7h1h2.4h2.6c0.5,0.1,1,0.2,1.5,0.2c0.7,0,1.5-0.1,2.1-0.3v0.1h0.8
	h0.7h1.5h1.7h0.3h2h1.2l0.6-1l0.5-0.8v1.7h2.1h2.1h2.1V166v-9.7v-2.1H306.8z M287.5,158.5l0.4,0.8v0.1c-0.9,0.7-1.5,1.5-1.7,2.5
	l-0.8-0.9L287.5,158.5z M292,163.6l-0.4-0.5l0,0L292,163.6L292,163.6z M291.2,162.4L291.2,162.4l0.5,0.7l0,0L291.2,162.4z
	 M291.2,162.4L291.2,162.4l0.5,0.7l0,0L291.2,162.4z M289.8,158.4L289.8,158.4L289.8,158.4L289.8,158.4L289.8,158.4z M291.7,163.1
	L291.7,163.1l0.4,0.5l0,0L291.7,163.1z M298.4,161.7L298.4,161.7l0.2-0.2l0,0L298.4,161.7z M289.1,156.9L289.1,156.9l-0.4,0.2l0,0
	L289.1,156.9z M288,157.4L288,157.4L288,157.4L288,157.4L288,157.4z M273.1,162.3c0-0.1-0.2-0.4-0.2-1.2s0.2-1.2,0.2-1.2l0,0
	c0,0,0.1,0,0.2,0c0.2,0,0.6,0.1,1.4,0.4l1.5,0.6v0.3l-1.4,0.8l1,1.8l0,0l-1-1.8c-0.5,0.3-1,0.4-1.6,0.4
	C273.1,162.4,273.1,162.4,273.1,162.3z M276.3,156.7L276.3,156.7l-0.1-0.1l0,0L276.3,156.7z M276.3,156.3L276.3,156.3
	C276.2,156.4,276.2,156.4,276.3,156.3L276.3,156.3L276.3,156.3z M263.6,158.9L263.6,158.9l0.3-0.5l0,0L263.6,158.9z M255.1,163.7
	L255.1,163.7l0.1,0.2l0,0L255.1,163.7z M293.3,166.5L293.3,166.5L293.3,166.5L293.3,166.5L293.3,166.5z M209.8,162.4h-0.1
	c0,0,0-0.1-0.1-0.2c-0.1-0.2-0.1-0.6-0.1-1.1v-0.3c0-0.4,0-0.7,0.1-0.9c0,0,0,0,0-0.1c0,0,0.1,0,0.2,0l0,0c0.1,0.1,0.2,0.4,0.2,1.2
	C210,161.9,209.9,162.2,209.8,162.4z M211.5,158.6L211.5,158.6l-1.7,1.2L211.5,158.6L211.5,158.6z M232.7,163.7L232.7,163.7l0.1,0.2
	l0,0L232.7,163.7z M196.6,166.6l0.9,0.3l0,0L196.6,166.6L196.6,166.6z"/>
<g>
	<path class="st2" d="M567.1,92.2c0-0.3,0.1-0.5,0.1-0.8l0.3-3.3h-3.4h-1.9h-0.9h-1.9h-1h-1.9h-3.3l0.2,3.3l3.1-0.2l0,0l-3.1,0.2
		c0,0.3,0.1,0.6,0.1,0.8h-1l0,0H550h-1.7l0,0H548h-2.6h-2h-2.1h-0.9H539h-0.9h-0.5H535h-2.1h-0.6l-0.4-0.5v0.5h-2.1l0,0
		c-0.6-0.1-1.3-0.2-1.9-0.2c-1.5,0-2.9,0.3-4.2,1v-0.9h-3.1h-2.1H517h-1.6H514h-2h-3.1v0.7c-1.1-0.6-2.3-0.9-3.6-0.9
		c-1,0-2,0.2-2.8,0.5v-0.3h-3.1H491h-3.1v0.2c-0.8-0.3-1.6-0.4-2.5-0.4c-2,0-3.9,0.7-5.3,2.2c-1.3-1.5-3.1-2.2-5-2.2
		c-0.6,0-1.1,0.1-1.6,0.2h-1.7h-0.3l0.4-0.9l-2.6-1.3c-1.6-0.8-3.2-1.1-5-1.1c-1.7,0-3.3,0.4-4.8,1.2c-1.5,0.9-2.6,2.1-3.4,3.6l0,0
		l0,0l2,0.9l0,0l-2-0.9c-0.7,1.5-1,3.1-1,4.9c0,2.6,0.6,5,2.3,6.9l0,0l1.6-1.4l0,0l-1.6,1.4c1.7,1.9,4.1,2.7,6.6,2.7
		c1.1,0,2.1-0.1,3.1-0.3v1.4v3.1h3.1h2.1h3.1v-3.1v-1.1c1.9-0.1,3.5-0.8,4.8-2.2c1.6,1.6,3.6,2.2,5.7,2.2c0.8,0,1.6-0.1,2.4-0.2
		c0.8-0.2,1.5-0.4,2.3-0.8l0.7-0.3v1.1h3.1h2.1h3.1v-2.8c0.2,0.3,0.4,0.5,0.6,0.7l1.4-1.3l0,0l-1.4,1.3l0,0l0,0
		c1.6,1.6,3.6,2.3,5.8,2.3c0.8,0,1.6-0.1,2.4-0.2c0.3-0.1,0.6-0.1,0.9-0.2v0.3h3.1h2.1h1.5h1.6h1.5h2.1h3.1v-0.8c1.2,0.7,2.6,1,4,1
		c0.7,0,1.4-0.1,2.1-0.2l0,0h2.1v0.4l0.3-0.4h0.7h2.1h2.8h0.3h1.1h1.1h1.3h1.8h2.5h1.7l0,0h0.7h2.3h2l0,0h3l0,0h2.5h1.7l0,0h3.1h2
		h3.1v-3v-9.7v-3.1C568.6,92.2,567.1,92.2,567.1,92.2z M560.4,91L560.4,91H560l0,0H560.4z M561.4,90.9L561.4,90.9h0.2l0,0H561.4z
		 M560.9,91h-0.3l0,0l0,0l0,0h-0.1l0,0h0.1h-0.2l0,0h0.2H560.9L560.9,91z M560,90.9l-0.8-0.1l0,0L560,90.9L560,90.9z M463.7,100.2
		c0-0.1-0.3-0.4-0.3-1.6c0-1.1,0.2-1.5,0.4-1.6l0.1-0.1l0,0c0,0,0.1,0,0.4,0c0.2,0,0.4,0,0.6,0.1l0,0l0,0l0.6-1.8l0,0l-0.6,1.8
		c0.4,0.1,0.7,0.2,1,0.4l1.2,0.6v1.8l-0.6,0.2c-0.5,0.1-0.9,0.3-1.3,0.4c-0.3,0.1-0.6,0.1-0.9,0.1
		C463.9,100.3,463.7,100.3,463.7,100.2L463.7,100.2L463.7,100.2L463.7,100.2L463.7,100.2z M481.4,104.7L481.4,104.7l-0.9,0.9l0,0
		L481.4,104.7z M474.2,99L474.2,99l0.2-0.1l0,0L474.2,99z M484.7,99.3L484.7,99.3L484.7,99.3L484.7,99.3L484.7,99.3z M474.4,98.9
		L474.4,98.9l0.9-0.6l0,0L474.4,98.9z M529.1,100.2l0.8,1.4l0,0L529.1,100.2L529.1,100.2z M528.5,100c0.1,0,0.2,0.1,0.3,0.1
		c-0.1,0.1-0.2,0.1-0.3,0.1V100C528.5,100.1,528.5,100.1,528.5,100z"/>
	<path class="st2" d="M533.6,119.5L533.6,119.5L533.6,119.5L533.6,119.5L533.6,119.5c-1.3-1.7-3.2-2.5-5.3-2.5
		c-0.6,0-1.1,0.1-1.6,0.2H525h-1.7h-3.1v0.7c-1.2-0.6-2.5-0.8-3.7-0.8c-0.8,0-1.6,0.1-2.5,0.3l0,0l0,0l0,0l0,0
		c-0.9,0.2-1.7,0.5-2.5,0.9l1.1,2.1l0,0l-1.1-2.1l-0.5,0.3c-0.1-0.1-0.2-0.1-0.2-0.2c-1.4-0.9-3-1.1-4.5-1.1h-4.6h-3.1v3.1v1.4
		c-0.9-0.3-1.9-0.5-2.8-0.5v-0.8v-3.1h-3.1h-2.1h-0.1h-3h-0.1h-5.2h-1.3H478h-0.2h-2.2h-2.2l-0.4,1.2l-0.4-1.2h-2.2H470l-0.2-1.5
		l-0.5-3l-3,0.4l0.3,1.8l0,0l-0.3-1.8c-1.6,0.2-3.1,0.5-4.4,0.8l0.4,1.8l0,0l-0.4-1.8l0,0l0,0c-2.3,0.5-4.2,1.6-5.5,3.6l0,0
		c-1.2,1.9-1.6,4.2-1.6,6.6c0,2.3,0.5,4.5,1.8,6.3c1.4,1.9,3.5,2.8,5.8,2.8c1,0,2-0.2,3-0.5v1.4v2.5l2.4,0.5l0.4-1.6l0,0l-0.4,1.6
		c0.7,0.2,1.3,0.2,2,0.2c1.5,0,3-0.5,4.2-1.4c1.1-0.9,1.9-2.1,2.4-3.4l0.4,0.2c0.8,0.3,1.6,0.4,2.3,0.4c1.1,0,2.2-0.3,3.1-1v0.8h3.1
		h2.1h0.1h3h0.1h4.5c1.2,0,2.4-0.2,3.5-0.6v0.6h3.1h4.6c1.6,0,3.3-0.3,4.7-1.2c1.2,1,2.7,1.4,4.1,1.4c0.6,0,1.2-0.1,1.8-0.2h2h1.5
		v1.2v3.1h3.1h2.1h3.1v-3.1v-1.1c2-0.1,3.8-0.9,5.1-2.5l0,0l0,0l0,0l0,0c1.2-1.6,1.7-3.6,1.7-5.6
		C535.3,123.1,534.9,121.1,533.6,119.5z M468.5,132.5l0.4-2l0,0L468.5,132.5L468.5,132.5z M473.4,119.5l1.2,0.4l0,0L473.4,119.5
		L473.4,119.5z M472.9,119.4L472.9,119.4L472.9,119.4L472.9,119.4L472.9,119.4z M527.6,123.9L527.6,123.9L527.6,123.9L527.6,123.9
		L527.6,123.9z M517.1,127.6L517.1,127.6L517.1,127.6L517.1,127.6L517.1,127.6z M528.7,123.2l-0.9,0.6l0,0L528.7,123.2L528.7,123.2z
		 M478.1,128.3l0.8-2.2l0,0l0,0l0,0l0,0l0,0l0,0h0.1l0,0h-0.1L478.1,128.3L478.1,128.3z M479.2,125.5l-0.3,0.7l0,0L479.2,125.5z
		 M469.1,130L469.1,130L469.1,130L469.1,130L469.1,130z M513,120.9L513,120.9L513,120.9L513,120.9L513,120.9z M477.9,120.3
		L477.9,120.3L477.9,120.3L477.9,120.3L477.9,120.3z M472.6,119.5L472.6,119.5l-1.3,0.5l0,0L472.6,119.5z"/>
	<polygon class="st2" points="478.9,126.1 478.9,126.1 478.9,126.1 	"/>
	<circle class="st2" cx="560.6" cy="91" r="0"/>
</g>
<circle class="st3" cx="427" cy="102" r="15"/>
<path class="st4" d="M436.3,105.7l-4.8-11.8l-4.1,6.9l-4-6.9l-4.8,11.8h-1.4v1.8h7.3v-1.8h-1.1l1.1-2.9l3,4.9l3-4.9l1.1,2.9h-1.1
	v1.8h7.3v-1.8H436.3z"/>
<circle class="st5" cx="504" cy="229" r="15"/>
<path class="st4" d="M513.3,232.7l-4.8-11.8l-4.1,6.9l-4-6.9l-4.8,11.8h-1.4v1.8h7.3v-1.8h-1.1l1.1-2.9l3,4.9l3-4.9l1.1,2.9h-1.1
	v1.8h7.3v-1.8H513.3z"/>
<circle class="st6" cx="337" cy="160" r="15"/>
<path class="st4" d="M346.3,163.7l-4.8-11.8l-4.1,6.9l-4-6.9l-4.8,11.8h-1.4v1.8h7.3v-1.8h-1.1l1.1-2.9l3,4.9l3-4.9l1.1,2.9h-1.1
	v1.8h7.3v-1.8H346.3z"/>
<path d="M245.8,435.1h-5v-0.9l1.9-1.9c0.6-0.6,0.9-1,1.1-1.2c0.2-0.2,0.3-0.5,0.4-0.7c0.1-0.2,0.1-0.4,0.1-0.7
	c0-0.3-0.1-0.6-0.3-0.8c-0.2-0.2-0.5-0.3-0.8-0.3s-0.6,0-0.8,0.1c-0.3,0.1-0.6,0.3-0.9,0.6l-0.6-0.8c0.4-0.3,0.8-0.6,1.2-0.7
	s0.8-0.2,1.2-0.2c0.7,0,1.2,0.2,1.6,0.6c0.4,0.4,0.6,0.8,0.6,1.4c0,0.3-0.1,0.6-0.2,0.9c-0.1,0.3-0.3,0.6-0.6,0.9
	c-0.2,0.3-0.7,0.7-1.2,1.3l-1.3,1.2v0.1h3.5L245.8,435.1z M252.1,433.5h-1v1.6h-1.2v-1.6h-3.4v-0.9l3.4-4.8h1.2v4.8h1V433.5z
	 M250,432.5v-1.8c0-0.7,0-1.2,0.1-1.6l0,0c-0.1,0.2-0.2,0.5-0.5,0.8l-1.9,2.6H250z"/>
<path d="M186.8,499.8h-5v-0.9l1.9-1.9c0.6-0.6,0.9-1,1.1-1.2c0.2-0.2,0.3-0.5,0.4-0.7c0.1-0.2,0.1-0.4,0.1-0.7
	c0-0.3-0.1-0.6-0.3-0.8c-0.2-0.2-0.5-0.3-0.8-0.3s-0.6,0-0.8,0.1c-0.3,0.1-0.6,0.3-0.9,0.6l-0.6-0.8c0.4-0.3,0.8-0.6,1.2-0.7
	s0.8-0.2,1.2-0.2c0.7,0,1.2,0.2,1.6,0.6c0.4,0.4,0.6,0.8,0.6,1.4c0,0.3-0.1,0.6-0.2,0.9c-0.1,0.3-0.3,0.6-0.6,0.9
	c-0.2,0.3-0.7,0.7-1.2,1.3l-1.3,1.2v0.1h3.5L186.8,499.8z M192.8,499.8h-5v-0.9l1.9-1.9c0.6-0.6,0.9-1,1.1-1.2
	c0.2-0.2,0.3-0.5,0.4-0.7c0.1-0.2,0.1-0.4,0.1-0.7c0-0.3-0.1-0.6-0.3-0.8c-0.2-0.2-0.5-0.3-0.8-0.3s-0.6,0-0.8,0.1
	c-0.3,0.1-0.6,0.3-0.9,0.6l-0.6-0.8c0.4-0.3,0.8-0.6,1.2-0.7s0.8-0.2,1.2-0.2c0.7,0,1.2,0.2,1.6,0.6c0.4,0.4,0.6,0.8,0.6,1.4
	c0,0.3-0.1,0.6-0.2,0.9c-0.1,0.3-0.3,0.6-0.6,0.9c-0.2,0.3-0.7,0.7-1.2,1.3l-1.3,1.2v0.1h3.5L192.8,499.8z M196.5,499.9
	c-0.8,0-1.5-0.3-1.9-0.8s-0.6-1.2-0.6-2.1s0.2-1.7,0.7-2.2s1.1-0.7,2-0.7c0.6,0,1.1,0.1,1.6,0.3l-0.4,0.9c-0.5-0.2-0.9-0.3-1.2-0.3
	c-1,0-1.5,0.6-1.5,1.9c0,0.6,0.1,1.1,0.3,1.4s0.6,0.5,1.1,0.5s1-0.1,1.5-0.4v1c-0.2,0.1-0.4,0.2-0.7,0.3
	C197.1,499.9,196.8,500,196.5,499.9z M202.5,499.9h-1.2v-4.8c0-0.6,0-1,0.1-1.4c-0.1,0.1-0.2,0.2-0.3,0.3c-0.1,0.1-0.5,0.4-1.1,0.9
	l-0.6-0.8l2.2-1.7h1L202.5,499.9z"/>
<path d="M348.8,288.1h-5v-0.9l1.9-1.9c0.6-0.6,0.9-1,1.1-1.2s0.3-0.5,0.4-0.7s0.1-0.4,0.1-0.7c0-0.3-0.1-0.6-0.3-0.8
	c-0.2-0.2-0.5-0.3-0.8-0.3s-0.6,0-0.8,0.1c-0.3,0.1-0.6,0.3-0.9,0.6l-0.6-0.8c0.4-0.3,0.8-0.6,1.2-0.7c0.4-0.1,0.8-0.2,1.2-0.2
	c0.7,0,1.2,0.2,1.6,0.6s0.6,0.8,0.6,1.4c0,0.3-0.1,0.6-0.2,0.9s-0.3,0.6-0.6,0.9c-0.2,0.3-0.7,0.7-1.2,1.3l-1.3,1.2v0.1h3.5
	L348.8,288.1z M349.9,284.9c0-2.9,1.2-4.3,3.6-4.3c0.4,0,0.7,0,0.9,0.1v1c-0.3-0.1-0.5-0.1-0.9-0.1c-0.8,0-1.4,0.2-1.8,0.6
	s-0.6,1.1-0.7,2h0.1c0.2-0.3,0.4-0.5,0.7-0.6c0.3-0.1,0.6-0.2,1-0.2c0.7,0,1.2,0.2,1.6,0.6s0.5,1,0.5,1.7c0,0.8-0.2,1.4-0.7,1.8
	c-0.4,0.4-1,0.7-1.8,0.7c-0.5,0-1-0.1-1.4-0.4s-0.7-0.6-0.9-1.1C350,286.2,349.9,285.6,349.9,284.9z M352.4,287.2
	c0.4,0,0.7-0.1,0.9-0.4c0.2-0.3,0.3-0.6,0.3-1.1c0-0.4-0.1-0.8-0.3-1c-0.2-0.2-0.5-0.4-0.9-0.4c-0.3,0-0.5,0.1-0.7,0.2
	s-0.4,0.3-0.5,0.4c-0.1,0.2-0.2,0.4-0.2,0.6c0,0.5,0.1,0.9,0.4,1.2C351.7,287,352,287.2,352.4,287.2z"/>
<path class="st4" d="M302.8,300.1l-8.6-1.2l0,0c1.1,0.5,2.2,1,3.1,1.4l4.3,2.2l-0.7,1.3l-8.8-4.4l1-2l8.2,1.1l0,0l-5.7-6l1-2
	l8.8,4.4l-0.7,1.4l-4.3-2.2c-0.4-0.2-1-0.5-1.7-0.9s-1.1-0.6-1.2-0.7l0,0l6,6.3L302.8,300.1z M307,291.9l-0.8,1.6l-1.8-3.2
	c-0.4,0.4-0.8,0.6-1.2,0.7c-0.5,0.1-0.9,0-1.4-0.2c-0.6-0.3-1-0.8-1.1-1.4s0-1.3,0.4-2.1l1.5-3l6.6,3.4l-0.7,1.4l-2.6-1.3l-0.7,1.3
	L307,291.9z M302.5,289.4c0.3,0.2,0.7,0.2,1,0s0.6-0.5,0.8-0.9l0.7-1.3l-2-1l-0.8,1.5c-0.2,0.4-0.3,0.7-0.2,1
	C302,289,302.2,289.2,302.5,289.4z M311.7,282.8c-0.5,1-1.2,1.6-2,1.8c-0.9,0.2-1.8,0.1-2.9-0.5s-1.8-1.3-2.2-2.1
	c-0.3-0.9-0.2-1.8,0.3-2.8c0.4-0.7,0.8-1.3,1.3-1.7l0.9,1c-0.5,0.5-0.9,0.9-1.1,1.3c-0.6,1.1-0.1,2.1,1.4,2.9
	c0.7,0.4,1.4,0.5,1.9,0.4s0.9-0.4,1.2-1c0.3-0.6,0.5-1.3,0.4-2l1.2,0.6c0,0.3,0,0.6-0.1,1C312.1,282,312,282.4,311.7,282.8z
	 M307.5,274.5l2.7,1.4l1.6-3.1l-2.7-1.4l0.7-1.4l6.6,3.4l-0.7,1.4l-2.9-1.5l-1.6,3.1l2.9,1.5l-0.7,1.4l-6.6-3.4L307.5,274.5z
	 M311.6,266.4l3.4,1.7c0.4,0.2,1,0.5,1.7,1l-3.4-5.9l0.9-1.7l6.6,3.4l-0.7,1.4l-3.3-1.7c-0.2-0.1-0.5-0.3-0.9-0.5s-0.7-0.4-0.9-0.5
	l3.4,5.9l-0.9,1.7l-6.6-3.4L311.6,266.4z M323.7,256.3l0.5-1l3.4,1.7l-0.7,1.3l-2.3-1.2l-2.8,5.5l-6.6-3.4l0.7-1.4l5.5,2.8l1.6-3.1
	l-5.5-2.8l0.7-1.4L323.7,256.3z M321.4,247.1l0.8-1.5l1.8,4.4l4.9-1.2l-0.8,1.6l-4.8,1.2l3.4,1.7l-0.7,1.4l-6.6-3.4l0.7-1.4l3.2,1.6
	L321.4,247.1z M331.7,243.3l-1.1-0.2l0,0c0.2,0.5,0.4,1,0.3,1.4c0,0.4-0.2,0.8-0.4,1.4c-0.3,0.6-0.8,1.1-1.3,1.3s-1.1,0.1-1.8-0.2
	c-0.7-0.3-1.1-0.9-1.2-1.5c-0.1-0.7,0.1-1.6,0.6-2.6l0.5-1.2l-0.4-0.2c-0.4-0.2-0.8-0.3-1.1-0.2c-0.3,0.1-0.6,0.3-0.8,0.8
	c-0.2,0.3-0.3,0.7-0.3,1.1c-0.1,0.4-0.1,0.7-0.1,1.1l-1.2-0.1c0-0.5,0.1-0.9,0.2-1.4s0.3-0.9,0.5-1.3c0.4-0.8,0.9-1.4,1.5-1.6
	c0.6-0.2,1.3-0.2,2.1,0.2l4.5,2.3L331.7,243.3z M329.7,244.9c0.3-0.5,0.3-1,0.2-1.4c-0.1-0.5-0.5-0.8-1-1.1l-0.6-0.3l-0.4,0.9
	c-0.3,0.7-0.4,1.2-0.4,1.6c0,0.4,0.3,0.7,0.7,0.9c0.3,0.1,0.6,0.2,0.8,0.1C329.3,245.5,329.5,245.3,329.7,244.9z M333.6,239.5
	l-0.8,1.6l-1.8-3.2c-0.4,0.4-0.8,0.6-1.2,0.7c-0.5,0.1-0.9,0-1.4-0.2c-0.6-0.3-1-0.8-1.1-1.4c-0.1-0.6,0-1.3,0.4-2.1l1.5-3l6.6,3.4
	l-0.7,1.4l-2.6-1.3l-0.7,1.3L333.6,239.5z M329.1,237c0.3,0.2,0.7,0.2,1,0s0.6-0.5,0.8-0.9l0.7-1.3l-2-1l-0.8,1.5
	c-0.2,0.4-0.3,0.7-0.2,1C328.6,236.6,328.8,236.8,329.1,237z M331.4,227.4l0.8-1.5l4.4,0.6c0.6,0.1,1.2,0.2,1.7,0.4l0,0
	c-0.2-0.1-0.4-0.3-0.7-0.6c-0.3-0.3-1.5-1.5-3.7-3.8l0.8-1.5l6.1,6.6c1.1,1.2,1.4,2.4,0.8,3.6c-0.2,0.3-0.3,0.6-0.6,0.9l-1.1-0.6
	c0.2-0.2,0.3-0.4,0.4-0.7c0.3-0.7,0.2-1.4-0.5-2l-0.5-0.6L331.4,227.4z M344.7,217.6L344,219l-5.5-2.8l-0.9,1.8
	c1.4,0.8,2.4,1.6,3.1,2.1c0.7,0.6,1.2,1.1,1.4,1.6c0.2,0.5,0.2,1-0.1,1.5c-0.2,0.3-0.3,0.5-0.5,0.7l-1.1-0.6
	c0.1-0.1,0.2-0.3,0.3-0.4c0.2-0.4-0.1-1-0.9-1.7s-2.1-1.6-3.9-2.7l2.3-4.4L344.7,217.6z M339.9,210.8l3.4,1.7c0.4,0.2,1,0.5,1.7,1
	l-3.4-5.9l0.9-1.7l6.6,3.4l-0.7,1.4l-3.3-1.7c-0.2-0.1-0.5-0.3-0.9-0.5s-0.7-0.4-0.9-0.5l3.4,5.9l-0.9,1.7l-6.6-3.4L339.9,210.8z
	 M352,200.6l0.5-1l3.4,1.7l-0.7,1.3l-2.3-1.2l-2.8,5.5l-6.6-3.4l0.7-1.4l5.5,2.8l1.6-3.1l-5.5-2.8l0.7-1.4L352,200.6z M356.4,194.7
	l-1.1-0.2l0,0c0.2,0.5,0.4,1,0.3,1.4c0,0.4-0.2,0.8-0.4,1.4c-0.3,0.6-0.8,1.1-1.3,1.3s-1.1,0.1-1.8-0.2c-0.7-0.3-1.1-0.9-1.2-1.5
	c-0.1-0.7,0.1-1.6,0.6-2.6l0.5-1.2l-0.4-0.2c-0.4-0.2-0.8-0.3-1.1-0.2c-0.3,0.1-0.6,0.3-0.8,0.8c-0.2,0.3-0.3,0.7-0.3,1.1
	c-0.1,0.4-0.1,0.7-0.1,1.1l-1.2-0.1c0-0.5,0.1-0.9,0.2-1.4s0.3-0.9,0.5-1.3c0.4-0.8,0.9-1.4,1.5-1.6c0.6-0.2,1.3-0.2,2.1,0.2
	l4.5,2.3L356.4,194.7z M354.4,196.3c0.3-0.5,0.3-1,0.2-1.4c-0.1-0.5-0.5-0.8-1-1.1l-0.6-0.3l-0.4,0.9c-0.3,0.7-0.4,1.2-0.4,1.6
	c0,0.4,0.3,0.7,0.7,0.9c0.3,0.2,0.6,0.2,0.8,0.1C354,196.9,354.2,196.7,354.4,196.3z"/>
<path d="M189.9,166h-2.1v-11.1H184v-1.8h9.7v1.8h-3.8V166z M194.1,156.3h2.3l2,5.5c0.3,0.8,0.5,1.5,0.6,2.2h0.1
	c0.1-0.3,0.2-0.7,0.3-1.2s0.9-2.7,2.2-6.6h2.2l-4.2,11c-0.8,2-2,3-3.8,3c-0.5,0-0.9,0-1.3-0.1v-1.6c0.3,0.1,0.7,0.1,1.1,0.1
	c1,0,1.7-0.6,2.1-1.7l0.4-0.9L194.1,156.3z M210.4,166.2c-1.2,0-2.2-0.4-2.9-1.3h-0.1c0.1,0.8,0.1,1.3,0.1,1.5v4h-2.1v-14.1h1.7
	c0,0.2,0.1,0.6,0.3,1.3h0.1c0.6-1,1.6-1.5,2.9-1.5c1.2,0,2.2,0.4,2.8,1.3c0.7,0.9,1,2.1,1,3.7c0,1.6-0.3,2.8-1,3.7
	C212.5,165.7,211.6,166.2,210.4,166.2z M209.9,157.8c-0.8,0-1.4,0.2-1.8,0.7c-0.4,0.5-0.6,1.2-0.6,2.3v0.3c0,1.2,0.2,2,0.6,2.6
	c0.4,0.5,1,0.8,1.8,0.8c0.7,0,1.3-0.3,1.7-0.9c0.4-0.6,0.6-1.4,0.6-2.5s-0.2-1.9-0.6-2.5C211.2,158.1,210.6,157.8,209.9,157.8z
	 M223.1,156.3v1.6h-4.2v8.1h-2.1v-9.7L223.1,156.3L223.1,156.3z M229.4,166.2c-1.5,0-2.7-0.4-3.6-1.3c-0.9-0.9-1.3-2.1-1.3-3.7
	c0-1.6,0.4-2.8,1.2-3.7s1.9-1.4,3.3-1.4c1.3,0,2.3,0.4,3,1.2s1.1,1.9,1.1,3.2v1.1h-6.5c0,0.9,0.3,1.7,0.8,2.2s1.2,0.8,2,0.8
	c0.6,0,1.1-0.1,1.6-0.2c0.5-0.1,1-0.3,1.6-0.5v1.7c-0.5,0.2-1,0.4-1.5,0.5C230.7,166.1,230.1,166.2,229.4,166.2z M229,157.7
	c-0.7,0-1.2,0.2-1.6,0.6c-0.4,0.4-0.6,1-0.7,1.8h4.4c0-0.8-0.2-1.4-0.6-1.8C230.2,157.9,229.7,157.7,229,157.7z M237.8,156.3v3.9
	h4.6v-3.9h2.1v9.7h-2.1v-4.2h-4.6v4.2h-2.1v-9.7H237.8z M251.9,166.2c-1.5,0-2.7-0.4-3.6-1.3c-0.9-0.9-1.3-2.1-1.3-3.7
	c0-1.6,0.4-2.8,1.2-3.7s1.9-1.4,3.3-1.4c1.3,0,2.3,0.4,3,1.2s1.1,1.9,1.1,3.2v1.1h-6.5c0,0.9,0.3,1.7,0.8,2.2s1.2,0.8,2,0.8
	c0.6,0,1.1-0.1,1.6-0.2c0.5-0.1,1-0.3,1.6-0.5v1.7c-0.5,0.2-1,0.4-1.5,0.5C253.1,166.1,252.5,166.2,251.9,166.2z M251.5,157.7
	c-0.7,0-1.2,0.2-1.6,0.6c-0.4,0.4-0.6,1-0.7,1.8h4.4c0-0.8-0.2-1.4-0.6-1.8C252.6,157.9,252.1,157.7,251.5,157.7z M266.6,158.8
	c0,1.1-0.7,1.8-2,2.1v0.1c0.8,0.1,1.3,0.3,1.7,0.7c0.4,0.4,0.6,0.9,0.6,1.5c0,0.9-0.4,1.6-1.1,2.1s-1.7,0.7-3.1,0.7h-4.6v-9.7h4.6
	C265.3,156.3,266.6,157.1,266.6,158.8z M264.8,163c0-0.5-0.2-0.8-0.5-1c-0.4-0.2-0.9-0.3-1.6-0.3h-2.4v2.8h2.4
	C264.1,164.5,264.8,164,264.8,163z M264.5,158.9c0-0.4-0.2-0.7-0.5-0.8c-0.3-0.2-0.7-0.3-1.3-0.3h-2.5v2.3h2.2
	c0.7,0,1.2-0.1,1.6-0.3C264.4,159.7,264.5,159.4,264.5,158.9z M273.2,166.2c-1.5,0-2.6-0.4-3.4-1.3c-0.8-0.9-1.1-2.1-1.1-3.7
	c0-1.6,0.4-2.9,1.2-3.8c0.8-0.9,2-1.3,3.5-1.3c1,0,2,0.2,2.8,0.6l-0.6,1.7c-0.9-0.3-1.6-0.5-2.2-0.5c-1.7,0-2.5,1.1-2.5,3.4
	c0,1.1,0.2,1.9,0.6,2.5c0.4,0.5,1,0.8,1.8,0.8c0.9,0,1.8-0.2,2.6-0.7v1.8c-0.4,0.2-0.8,0.4-1.2,0.5
	C274.3,166.1,273.8,166.2,273.2,166.2z M284.4,156.3h2.3l-4,4.7l4.4,5h-2.4l-4.2-4.9v4.9h-2.1v-9.7h2.1v4.7L284.4,156.3z M294.9,166
	l-0.4-1.4h-0.1c-0.5,0.6-0.9,1-1.4,1.2s-1.1,0.3-1.8,0.3c-1,0-1.7-0.3-2.2-0.8s-0.8-1.2-0.8-2.2s0.4-1.8,1.1-2.3s1.9-0.8,3.4-0.8
	l1.7-0.1v-0.5c0-0.6-0.1-1.1-0.4-1.4c-0.3-0.3-0.7-0.5-1.3-0.5c-0.5,0-1,0.1-1.4,0.2c-0.5,0.1-0.9,0.3-1.3,0.5l-0.7-1.5
	c0.5-0.3,1.1-0.5,1.7-0.6s1.2-0.2,1.8-0.2c1.2,0,2.2,0.3,2.8,0.8c0.6,0.5,0.9,1.4,0.9,2.5v6.6h-1.6V166z M291.8,164.6
	c0.8,0,1.4-0.2,1.8-0.6c0.5-0.4,0.7-1,0.7-1.8v-0.8l-1.2,0.1c-1,0-1.7,0.2-2.1,0.5s-0.7,0.7-0.7,1.3c0,0.4,0.1,0.8,0.4,1
	C290.9,164.5,291.3,164.6,291.8,164.6z M300.4,166h-2.3l2.7-4c-0.7-0.2-1.2-0.5-1.5-1c-0.4-0.5-0.6-1.1-0.6-1.8c0-0.9,0.3-1.6,1-2.2
	c0.7-0.5,1.6-0.8,2.7-0.8h4.4v9.7h-2.1v-3.7h-2L300.4,166z M300.7,159.2c0,0.5,0.2,0.9,0.6,1.1c0.4,0.2,0.9,0.4,1.5,0.4h1.9v-2.9
	h-2.3c-0.6,0-1,0.1-1.3,0.4C300.9,158.4,300.7,158.8,300.7,159.2z"/>
<path d="M464.2,93.8c-1.2,0-2.2,0.4-2.9,1.3c-0.7,0.9-1,2-1,3.5c0,1.6,0.3,2.8,1,3.6c0.7,0.8,1.6,1.2,2.9,1.2c0.5,0,1.1-0.1,1.6-0.2
	s1-0.3,1.6-0.4v1.8c-1,0.4-2.2,0.6-3.4,0.6c-1.9,0-3.3-0.6-4.3-1.7s-1.5-2.8-1.5-4.9c0-1.3,0.2-2.5,0.7-3.5s1.2-1.8,2.1-2.3
	s2-0.8,3.3-0.8s2.5,0.3,3.6,0.8l-0.8,1.8c-0.4-0.2-0.9-0.4-1.4-0.5C465.2,93.8,464.7,93.8,464.2,93.8z M475,105.2
	c-1.2,0-2.2-0.4-2.9-1.3H472c0.1,0.8,0.1,1.3,0.1,1.5v4H470V95.3h1.7c0,0.2,0.1,0.6,0.3,1.3h0.1c0.6-1,1.6-1.5,2.9-1.5
	c1.2,0,2.2,0.4,2.8,1.3c0.7,0.9,1,2.1,1,3.7s-0.3,2.8-1,3.7C477.2,104.7,476.2,105.2,475,105.2z M474.5,96.8c-0.8,0-1.4,0.2-1.8,0.7
	s-0.6,1.2-0.6,2.3v0.3c0,1.2,0.2,2,0.6,2.6c0.4,0.5,1,0.8,1.8,0.8c0.7,0,1.3-0.3,1.7-0.9c0.4-0.6,0.6-1.4,0.6-2.5s-0.2-1.9-0.6-2.5
	C475.8,97.1,475.3,96.8,474.5,96.8z M485.7,105.2c-1.5,0-2.7-0.4-3.6-1.3s-1.3-2.1-1.3-3.7s0.4-2.8,1.2-3.7s1.9-1.4,3.3-1.4
	c1.3,0,2.3,0.4,3,1.2c0.7,0.8,1.1,1.9,1.1,3.2v1.1H483c0,0.9,0.3,1.7,0.8,2.2s1.2,0.8,2,0.8c0.6,0,1.1-0.1,1.6-0.2s1-0.3,1.6-0.5
	v1.7c-0.5,0.2-1,0.4-1.5,0.5C487,105.1,486.4,105.2,485.7,105.2z M485.4,96.7c-0.7,0-1.2,0.2-1.6,0.6s-0.6,1-0.7,1.8h4.4
	c0-0.8-0.2-1.4-0.6-1.8C486.5,96.9,486,96.7,485.4,96.7z M499.4,95.3v1.6h-3.2v8.1h-2.1v-8.1H491v-1.6H499.4z M505.7,105.2
	c-1.5,0-2.7-0.4-3.6-1.3s-1.3-2.1-1.3-3.7s0.4-2.8,1.2-3.7c0.8-0.9,1.9-1.4,3.3-1.4c1.3,0,2.3,0.4,3,1.2c0.7,0.8,1.1,1.9,1.1,3.2
	v1.1H503c0,0.9,0.3,1.7,0.8,2.2s1.2,0.8,2,0.8c0.6,0,1.1-0.1,1.6-0.2s1-0.3,1.6-0.5v1.7c-0.5,0.2-1,0.4-1.5,0.5
	C506.9,105.1,506.3,105.2,505.7,105.2z M505.3,96.7c-0.7,0-1.2,0.2-1.6,0.6s-0.6,1-0.7,1.8h4.4c0-0.8-0.2-1.4-0.6-1.8
	C506.5,96.9,505.9,96.7,505.3,96.7z M514,95.3v3.9h4.6v-3.9h2.1v9.7h-2.1v-4.2H514v4.2h-2v-9.7H514z M527.8,105.2
	c-1.5,0-2.6-0.4-3.4-1.3c-0.8-0.9-1.1-2.1-1.1-3.7s0.4-2.9,1.2-3.8s2-1.3,3.5-1.3c1,0,2,0.2,2.8,0.6l-0.6,1.7
	c-0.9-0.3-1.6-0.5-2.2-0.5c-1.7,0-2.5,1.1-2.5,3.4c0,1.1,0.2,1.9,0.6,2.5c0.4,0.5,1,0.8,1.8,0.8c0.9,0,1.8-0.2,2.6-0.7v1.8
	c-0.4,0.2-0.8,0.4-1.2,0.5C528.9,105.1,528.4,105.2,527.8,105.2z M539,95.3h2.3l-4,4.7l4.4,5h-2.4l-4.2-4.9v4.9H533v-9.7h2.1v4.7
	L539,95.3z M545.4,95.3v5c0,0.6,0,1.4-0.1,2.6l4.9-7.5h2.5v9.7h-2v-4.9c0-0.3,0-0.7,0-1.3c0-0.6,0.1-1,0.1-1.3l-4.9,7.5h-2.5v-9.7
	L545.4,95.3L545.4,95.3z M557.7,95.3v5c0,0.6,0,1.4-0.1,2.6l4.9-7.5h2.5v9.7h-2v-4.9c0-0.3,0-0.7,0-1.3c0-0.6,0.1-1,0.1-1.3
	l-4.9,7.5h-2.5v-9.7L557.7,95.3L557.7,95.3z M560.3,94.1c-1.2,0-2.2-0.2-2.7-0.7c-0.6-0.5-0.9-1.2-1-2.3h1.9c0,0.4,0.1,0.8,0.2,1
	c0.1,0.2,0.3,0.4,0.5,0.5s0.6,0.1,1.1,0.1c0.6,0,1-0.1,1.3-0.4s0.5-0.7,0.5-1.3h1.9c-0.1,1-0.4,1.7-1.1,2.2
	C562.5,93.8,561.5,94.1,560.3,94.1z M457.9,124.2c0-2.2,0.4-3.8,1.1-5s1.9-1.9,3.5-2.3c1.2-0.2,2.6-0.5,4.2-0.7l0.3,1.8
	c-1.9,0.3-3.3,0.5-4.2,0.7c-0.9,0.2-1.6,0.5-2,1.1s-0.6,1.5-0.7,2.6h0.1c0.3-0.5,0.8-0.9,1.3-1.1c0.5-0.3,1.1-0.4,1.7-0.4
	c1.2,0,2.1,0.4,2.8,1.1c0.7,0.8,1,1.8,1,3.2c0,1.6-0.4,2.8-1.2,3.6c-0.8,0.9-1.9,1.3-3.4,1.3c-1.4,0-2.5-0.5-3.4-1.6
	C458.3,127.5,457.9,126.1,457.9,124.2z M462.6,128.5c1.5,0,2.3-1,2.3-3c0-1.9-0.7-2.9-2.1-2.9c-0.4,0-0.8,0.1-1.1,0.2
	c-0.4,0.2-0.7,0.4-1,0.7c-0.3,0.3-0.5,0.5-0.7,0.8c0,1.4,0.2,2.4,0.7,3.1C461.1,128.1,461.8,128.5,462.6,128.5z M468.2,120.3h2.3
	l2,5.5c0.3,0.8,0.5,1.5,0.6,2.2h0.1c0.1-0.3,0.1-0.7,0.3-1.2c0.1-0.5,0.9-2.7,2.2-6.6h2.2l-4.2,11c-0.8,2-2,3-3.8,3
	c-0.5,0-0.9,0-1.3-0.1v-1.6c0.3,0.1,0.7,0.1,1.1,0.1c1,0,1.7-0.6,2.1-1.7l0.4-0.9L468.2,120.3z M487.5,130h-2.1v-8.1h-2.7
	c-0.2,2.1-0.4,3.7-0.7,4.9c-0.3,1.2-0.6,2-1.1,2.6c-0.4,0.5-1,0.8-1.7,0.8c-0.5,0-0.8-0.1-1.1-0.2v-1.6c0.2,0.1,0.4,0.1,0.7,0.1
	c0.6,0,1.1-0.7,1.4-2s0.6-3.4,0.8-6.2h6.5L487.5,130L487.5,130z M492.7,124.2h2.4c2.7,0,4.1,0.9,4.1,2.8c0,1-0.3,1.7-1,2.3
	c-0.7,0.5-1.7,0.8-3,0.8h-4.5v-9.7h2.1v3.8H492.7z M497.1,127c0-0.5-0.2-0.8-0.6-1s-0.9-0.3-1.6-0.3h-2.3v2.8h2.3
	c0.7,0,1.2-0.1,1.5-0.4C496.9,127.9,497.1,127.5,497.1,127z M510.1,122.8c0,1.1-0.7,1.8-2,2.1v0.1c0.8,0.1,1.3,0.3,1.7,0.7
	s0.6,0.9,0.6,1.5c0,0.9-0.4,1.6-1.1,2.1s-1.7,0.7-3.1,0.7h-4.6v-9.7h4.6C508.9,120.3,510.1,121.1,510.1,122.8z M508.3,127
	c0-0.5-0.2-0.8-0.5-1c-0.4-0.2-0.9-0.3-1.6-0.3h-2.4v2.8h2.4C507.6,128.5,508.3,128,508.3,127z M508.1,122.9c0-0.4-0.2-0.7-0.5-0.8
	c-0.3-0.2-0.7-0.3-1.3-0.3h-2.5v2.3h2.2c0.7,0,1.2-0.1,1.6-0.3C507.9,123.7,508.1,123.4,508.1,122.9z M518.8,130l-0.4-1.4h-0.1
	c-0.5,0.6-0.9,1-1.4,1.2s-1.1,0.3-1.8,0.3c-1,0-1.7-0.3-2.2-0.8s-0.8-1.2-0.8-2.2c0-1,0.4-1.8,1.1-2.3c0.7-0.5,1.9-0.8,3.4-0.8
	l1.7-0.1v-0.5c0-0.6-0.1-1.1-0.4-1.4c-0.3-0.3-0.7-0.5-1.3-0.5c-0.5,0-1,0.1-1.4,0.2c-0.5,0.1-0.9,0.3-1.3,0.5l-0.7-1.5
	c0.5-0.3,1.1-0.5,1.7-0.6c0.6-0.1,1.2-0.2,1.8-0.2c1.2,0,2.2,0.3,2.8,0.8s1,1.4,1,2.5v6.6h-1.7V130z M515.8,128.6
	c0.8,0,1.4-0.2,1.8-0.6c0.5-0.4,0.7-1,0.7-1.8v-0.8l-1.2,0.1c-1,0-1.7,0.2-2.1,0.5c-0.4,0.3-0.7,0.7-0.7,1.3c0,0.4,0.1,0.8,0.4,1
	C514.9,128.5,515.2,128.6,515.8,128.6z M528.3,130.2c-1.2,0-2.2-0.4-2.9-1.3h-0.1c0.1,0.8,0.1,1.3,0.1,1.5v4h-2.1v-14.1h1.7
	c0,0.2,0.1,0.6,0.3,1.3h0.1c0.6-1,1.6-1.5,2.9-1.5c1.2,0,2.2,0.4,2.8,1.3c0.7,0.9,1,2.1,1,3.7s-0.3,2.8-1,3.7
	C530.5,129.7,529.5,130.2,528.3,130.2z M527.8,121.8c-0.8,0-1.4,0.2-1.8,0.7c-0.4,0.5-0.6,1.2-0.6,2.3v0.3c0,1.2,0.2,2,0.6,2.6
	c0.4,0.5,1,0.8,1.8,0.8c0.7,0,1.3-0.3,1.7-0.9c0.4-0.6,0.6-1.4,0.6-2.5s-0.2-1.9-0.6-2.5C529.1,122.1,528.6,121.8,527.8,121.8z"/>
<path d="M448.7,265h-2.1v-5.1c-0.8,0.3-1.5,0.5-2.1,0.6s-1.2,0.2-1.9,0.2c-1.2,0-2.2-0.3-2.8-0.9c-0.7-0.6-1-1.4-1-2.4v-5.2h2.1v4.7
	c0,0.7,0.2,1.2,0.5,1.5s0.9,0.5,1.6,0.5c0.6,0,1.1,0,1.6-0.1s1.2-0.3,1.9-0.5v-6h2.1L448.7,265L448.7,265z M454,255.3v5
	c0,0.6,0,1.4-0.1,2.6l4.9-7.5h2.5v9.7h-2v-4.9c0-0.3,0-0.7,0-1.3c0-0.6,0.1-1,0.1-1.3l-4.9,7.5H452v-9.7h2V255.3z M468.3,265.2
	c-1.5,0-2.6-0.4-3.4-1.3s-1.1-2.1-1.1-3.7s0.4-2.9,1.2-3.8c0.8-0.9,2-1.3,3.5-1.3c1,0,2,0.2,2.8,0.6l-0.6,1.7
	c-0.9-0.3-1.6-0.5-2.2-0.5c-1.7,0-2.5,1.1-2.5,3.4c0,1.1,0.2,1.9,0.6,2.5c0.4,0.5,1,0.8,1.8,0.8c0.9,0,1.8-0.2,2.6-0.7v1.8
	c-0.4,0.2-0.8,0.4-1.2,0.5C469.4,265.1,468.9,265.2,468.3,265.2z M480.8,255.3v1.6h-3.2v8.1h-2.1v-8.1h-3.2v-1.6L480.8,255.3
	L480.8,255.3z M484.9,259.2h2c1.4,0,2.4,0.2,3,0.7c0.7,0.5,1,1.2,1,2.1c0,1-0.3,1.8-1,2.3s-1.7,0.8-3,0.8h-4v-9.7h2.1v3.8H484.9z
	 M488.9,262c0-0.5-0.2-0.8-0.5-1c-0.4-0.2-0.9-0.3-1.5-0.3h-1.8v2.8h1.6c0.8,0,1.4-0.1,1.8-0.4C488.7,262.9,488.9,262.5,488.9,262z
	 M494.5,265h-2.1v-9.7h2.1V265z M501.9,265.2c-1.5,0-2.7-0.4-3.6-1.3s-1.3-2.1-1.3-3.7s0.4-2.8,1.2-3.7c0.8-0.9,1.9-1.4,3.3-1.4
	c1.3,0,2.3,0.4,3,1.2s1.1,1.9,1.1,3.2v1.1h-6.5c0,0.9,0.3,1.7,0.8,2.2s1.2,0.8,2,0.8c0.6,0,1.1-0.1,1.6-0.2s1-0.3,1.6-0.5v1.7
	c-0.5,0.2-1,0.4-1.5,0.5C503.2,265.1,502.6,265.2,501.9,265.2z M501.5,256.7c-0.7,0-1.2,0.2-1.6,0.6s-0.6,1-0.7,1.8h4.4
	c0-0.8-0.2-1.4-0.6-1.8C502.7,256.9,502.2,256.7,501.5,256.7z M521.6,255.3v9.7h-2.1v-8.1h-4.4v8.1H513v-9.7H521.6z M529.7,265.2
	c-1.2,0-2.2-0.4-2.9-1.3h-0.1c0.1,0.8,0.1,1.3,0.1,1.5v4h-2.1v-14.1h1.7c0,0.2,0.1,0.6,0.3,1.3h0.1c0.6-1,1.6-1.5,2.9-1.5
	c1.2,0,2.2,0.4,2.8,1.3c0.7,0.9,1,2.1,1,3.7s-0.3,2.8-1,3.7C531.8,264.7,530.9,265.2,529.7,265.2z M529.2,256.8
	c-0.8,0-1.4,0.2-1.8,0.7c-0.4,0.5-0.6,1.2-0.6,2.3v0.3c0,1.2,0.2,2,0.6,2.6c0.4,0.5,1,0.8,1.8,0.8c0.7,0,1.3-0.3,1.7-0.9
	s0.6-1.4,0.6-2.5s-0.2-1.9-0.6-2.5C530.5,257.1,529.9,256.8,529.2,256.8z M534.7,255.3h2.3l2,5.5c0.3,0.8,0.5,1.5,0.6,2.2h0.1
	c0.1-0.3,0.1-0.7,0.3-1.2c0.1-0.5,0.9-2.7,2.2-6.6h2.2l-4.2,11c-0.8,2-2,3-3.8,3c-0.5,0-0.9-0.1-1.3-0.2v-1.6
	c0.3,0.1,0.7,0.1,1.1,0.1c1,0,1.7-0.6,2.1-1.7l0.4-0.9L534.7,255.3z M555.3,268.4h-1.9V265h-6.7v3.4h-1.9v-5h0.8
	c0.7-1,1.2-2.2,1.6-3.6c0.4-1.4,0.7-2.9,0.7-4.5h5.9v8.1h1.4v5H555.3z M551.9,263.4v-6.5h-2.1c-0.1,1.2-0.3,2.4-0.7,3.6
	s-0.8,2.2-1.3,3h4.1V263.4z M559.4,259.2h2c1.4,0,2.4,0.2,3,0.7c0.7,0.5,1,1.2,1,2.1c0,1-0.3,1.8-1,2.3s-1.7,0.8-3,0.8h-4v-9.7h2.1
	L559.4,259.2L559.4,259.2z M563.3,262c0-0.5-0.2-0.8-0.5-1c-0.4-0.2-0.9-0.3-1.5-0.3h-1.8v2.8h1.6c0.8,0,1.4-0.1,1.8-0.4
	C563.1,262.9,563.3,262.5,563.3,262z M569,265h-2.1v-9.7h2.1V265z"/>
<g>
	<path class="st1" d="M244.1,400.2h-75.8c-17.7,0-32.1-14.4-32.1-32.1v-14.8c0-17.7,14.4-32.1,32.1-32.1h163.8
		c17.7,0,32.1,14.4,32.1,32.1v14.8c0,17.7-14.4,32.1-32.1,32.1h-64.4L255.9,412L244.1,400.2z"/>
	<path class="st2" d="M244.1,400.2h-75.8c-17.7,0-32.1-14.4-32.1-32.1v-14.8c0-17.7,14.4-32.1,32.1-32.1h163.8
		c17.7,0,32.1,14.4,32.1,32.1v14.8c0,17.7-14.4,32.1-32.1,32.1h-64.4L255.9,412L244.1,400.2z M268.9,403.2h63.2
		c19.4,0,35.1-15.7,35.1-35.1v-14.8c0-19.4-15.7-35.1-35.1-35.1H168.3c-19.4,0-35.1,15.7-35.1,35.1v14.8c0,19.4,15.7,35.1,35.1,35.1
		h74.6l13,13L268.9,403.2z"/>
	<path class="st4" d="M174.8,355.3c-0.4,0-0.6-0.1-0.8-0.3c-0.2-0.2-0.3-0.5-0.3-0.9v-10.4c0-0.4,0.1-0.7,0.3-0.9
		c0.2-0.2,0.5-0.3,0.8-0.3c0.4,0,0.6,0.1,0.8,0.3c0.2,0.2,0.3,0.5,0.3,0.9v4.2h6.4v-4.2c0-0.4,0.1-0.7,0.3-0.9
		c0.2-0.2,0.5-0.3,0.9-0.3c0.4,0,0.6,0.1,0.8,0.3c0.2,0.2,0.3,0.5,0.3,0.9v10.4c0,0.4-0.1,0.7-0.3,0.9c-0.2,0.2-0.5,0.3-0.8,0.3
		c-0.4,0-0.6-0.1-0.9-0.3c-0.2-0.2-0.3-0.5-0.3-0.9v-4.4H176v4.4c0,0.4-0.1,0.7-0.3,0.9C175.5,355.2,175.2,355.3,174.8,355.3z"/>
	<path class="st4" d="M193.2,355.4c-1.2,0-2.3-0.3-3.2-0.8c-0.9-0.5-1.6-1.3-2.1-2.2c-0.5-1-0.7-2.1-0.7-3.4c0-1,0.1-1.9,0.4-2.6
		c0.3-0.8,0.7-1.5,1.2-2c0.5-0.6,1.2-1,1.9-1.3c0.7-0.3,1.6-0.5,2.5-0.5c1.2,0,2.3,0.3,3.2,0.8c0.9,0.5,1.6,1.3,2.1,2.2
		c0.5,1,0.7,2.1,0.7,3.4c0,1-0.1,1.9-0.4,2.7c-0.3,0.8-0.7,1.5-1.2,2c-0.5,0.6-1.2,1-1.9,1.3C194.9,355.2,194.1,355.4,193.2,355.4z
		 M193.2,353.4c0.8,0,1.4-0.2,1.9-0.5c0.5-0.4,1-0.9,1.2-1.5c0.3-0.7,0.4-1.5,0.4-2.4c0-1.4-0.3-2.5-1-3.3c-0.6-0.8-1.5-1.2-2.7-1.2
		c-0.8,0-1.4,0.2-1.9,0.5c-0.5,0.3-1,0.9-1.3,1.5c-0.3,0.7-0.4,1.5-0.4,2.4c0,1.4,0.3,2.5,1,3.3C191.1,353,192,353.4,193.2,353.4z"
		/>
	<path class="st4" d="M205,355.3c-0.4,0-0.6-0.1-0.8-0.3c-0.2-0.2-0.3-0.5-0.3-0.9v-9.6h-3.5c-0.3,0-0.5-0.1-0.7-0.2
		c-0.2-0.2-0.2-0.4-0.2-0.7c0-0.3,0.1-0.5,0.2-0.7c0.2-0.2,0.4-0.2,0.7-0.2h9.2c0.3,0,0.5,0.1,0.7,0.2c0.2,0.2,0.3,0.4,0.3,0.7
		c0,0.3-0.1,0.5-0.3,0.7c-0.2,0.2-0.4,0.2-0.7,0.2h-3.5v9.6c0,0.4-0.1,0.7-0.3,0.9C205.7,355.2,205.4,355.3,205,355.3z"/>
	<path class="st4" d="M210.7,355.3c-0.3,0-0.5-0.1-0.7-0.2c-0.2-0.1-0.3-0.3-0.3-0.5c0-0.2,0-0.5,0.1-0.7l4.7-10.4
		c0.2-0.3,0.3-0.6,0.5-0.7c0.2-0.2,0.5-0.2,0.8-0.2c0.3,0,0.5,0.1,0.7,0.2c0.2,0.1,0.4,0.4,0.6,0.7l4.7,10.4
		c0.1,0.3,0.2,0.5,0.1,0.7c0,0.2-0.1,0.4-0.3,0.5c-0.2,0.1-0.4,0.2-0.7,0.2c-0.3,0-0.6-0.1-0.8-0.2c-0.2-0.2-0.3-0.4-0.5-0.7
		l-1.2-2.7l1,0.6H212l1-0.6l-1.1,2.7c-0.2,0.3-0.3,0.6-0.5,0.7C211.2,355.2,211,355.3,210.7,355.3z M215.8,345.2l-2.5,5.9l-0.5-0.6
		h5.9l-0.4,0.6L215.8,345.2L215.8,345.2z"/>
	<path class="st4" d="M225,355.3c-0.4,0-0.6-0.1-0.9-0.3c-0.2-0.2-0.3-0.5-0.3-0.9v-10.3c0-0.4,0.1-0.7,0.3-0.9
		c0.2-0.2,0.5-0.3,0.9-0.3h4.3c1.4,0,2.4,0.3,3.2,1c0.7,0.7,1.1,1.6,1.1,2.9c0,1.2-0.4,2.2-1.1,2.9c-0.7,0.7-1.8,1-3.2,1h-3.2v3.6
		c0,0.4-0.1,0.7-0.3,0.9C225.7,355.2,225.4,355.3,225,355.3z M226.2,348.7h2.8c0.8,0,1.4-0.2,1.8-0.5c0.4-0.4,0.6-0.9,0.6-1.6
		s-0.2-1.2-0.6-1.6c-0.4-0.4-1-0.5-1.8-0.5h-2.8V348.7z"/>
	<path class="st4" d="M236.6,355.3c-0.2,0-0.3,0-0.4-0.1c-0.1,0-0.2-0.1-0.3-0.2c-0.1-0.1-0.1-0.2-0.2-0.4c0-0.1-0.1-0.3-0.1-0.5
		v-10.5c0-0.3,0.1-0.6,0.3-0.8c0.2-0.2,0.5-0.3,0.8-0.3c0.3,0,0.6,0.1,0.8,0.3s0.3,0.5,0.3,0.8v8.4h-0.4l6.7-8.8
		c0.2-0.2,0.3-0.4,0.5-0.5c0.2-0.1,0.4-0.2,0.7-0.2c0.2,0,0.3,0,0.5,0.1c0.1,0.1,0.2,0.2,0.3,0.4c0.1,0.2,0.1,0.3,0.1,0.5v10.6
		c0,0.4-0.1,0.6-0.3,0.8c-0.2,0.2-0.4,0.3-0.8,0.3c-0.3,0-0.6-0.1-0.8-0.3c-0.2-0.2-0.3-0.5-0.3-0.8v-8.4h0.4l-6.7,8.8
		c-0.2,0.2-0.4,0.4-0.5,0.5C237.1,355.3,236.9,355.3,236.6,355.3z"/>
	<path class="st4" d="M249.2,355.3c-0.3,0-0.5-0.1-0.7-0.2c-0.2-0.1-0.3-0.3-0.3-0.5c0-0.2,0-0.5,0.1-0.7l4.7-10.4
		c0.2-0.3,0.3-0.6,0.5-0.7c0.2-0.2,0.5-0.2,0.8-0.2c0.3,0,0.5,0.1,0.7,0.2c0.2,0.1,0.4,0.4,0.6,0.7l4.7,10.4
		c0.1,0.3,0.2,0.5,0.1,0.7c0,0.2-0.1,0.4-0.3,0.5c-0.2,0.1-0.4,0.2-0.7,0.2c-0.3,0-0.6-0.1-0.8-0.2c-0.2-0.2-0.3-0.4-0.5-0.7
		l-1.2-2.7l1,0.6h-7.5l1-0.6l-1.1,2.7c-0.2,0.3-0.3,0.6-0.5,0.7C249.7,355.2,249.5,355.3,249.2,355.3z M254.3,345.2l-2.5,5.9
		l-0.5-0.6h5.9l-0.4,0.6L254.3,345.2L254.3,345.2z"/>
	<path class="st4" d="M271.9,355.3c-0.4,0-0.6-0.1-0.8-0.3c-0.2-0.2-0.3-0.5-0.3-0.9v-9.6h-4.5v2.5c0,1.1-0.1,2-0.2,2.9
		c-0.1,0.8-0.3,1.6-0.6,2.2c-0.3,0.6-0.6,1.2-1,1.7c-0.4,0.5-0.8,0.9-1.3,1.3c-0.3,0.2-0.5,0.3-0.8,0.2c-0.3,0-0.5-0.2-0.7-0.5
		c-0.2-0.3-0.3-0.5-0.2-0.8c0.1-0.3,0.2-0.5,0.5-0.7c0.4-0.3,0.7-0.6,1-1c0.3-0.4,0.5-0.8,0.7-1.4c0.2-0.5,0.3-1.2,0.4-1.9
		c0.1-0.8,0.1-1.6,0.1-2.6v-2.6c0-0.4,0.1-0.7,0.3-0.9c0.2-0.2,0.5-0.3,0.9-0.3h6.4c0.4,0,0.7,0.1,0.9,0.3c0.2,0.2,0.3,0.5,0.3,0.9
		v10.3c0,0.4-0.1,0.7-0.3,0.9C272.5,355.2,272.2,355.3,271.9,355.3z"/>
	<path class="st4" d="M277.1,355.2c-0.4,0-0.7-0.1-0.9-0.3c-0.2-0.2-0.3-0.5-0.3-0.9v-10.3c0-0.4,0.1-0.7,0.3-0.9
		c0.2-0.2,0.5-0.3,0.9-0.3s0.6,0.1,0.8,0.3c0.2,0.2,0.3,0.5,0.3,0.9v4.2h3.4c0.9,0,1.6,0.1,2.3,0.4c0.6,0.3,1.1,0.7,1.5,1.2
		c0.3,0.5,0.5,1.2,0.5,2c0,1.2-0.4,2.1-1.1,2.7c-0.7,0.6-1.8,0.9-3.1,0.9H277.1z M278.2,353.4h3.1c0.8,0,1.4-0.1,1.8-0.4
		c0.4-0.3,0.6-0.8,0.6-1.4c0-0.6-0.2-1.1-0.6-1.4c-0.4-0.3-1-0.4-1.8-0.4h-3.1V353.4z"/>
	<path class="st4" d="M289.1,355.3c-0.4,0-0.6-0.1-0.8-0.3c-0.2-0.2-0.3-0.5-0.3-0.9v-10.4c0-0.4,0.1-0.7,0.3-0.9
		c0.2-0.2,0.5-0.3,0.8-0.3s0.6,0.1,0.8,0.3c0.2,0.2,0.3,0.5,0.3,0.9v4.2h6.4v-4.2c0-0.4,0.1-0.7,0.3-0.9c0.2-0.2,0.5-0.3,0.9-0.3
		s0.6,0.1,0.8,0.3c0.2,0.2,0.3,0.5,0.3,0.9v10.4c0,0.4-0.1,0.7-0.3,0.9c-0.2,0.2-0.5,0.3-0.8,0.3s-0.6-0.1-0.9-0.3
		c-0.2-0.2-0.3-0.5-0.3-0.9v-4.4h-6.4v4.4c0,0.4-0.1,0.7-0.3,0.9C289.8,355.2,289.5,355.3,289.1,355.3z"/>
	<path class="st4" d="M302,355.3c-0.3,0-0.5-0.1-0.7-0.2c-0.2-0.1-0.3-0.3-0.3-0.5c0-0.2,0-0.5,0.1-0.7l4.7-10.4
		c0.2-0.3,0.3-0.6,0.5-0.7c0.2-0.2,0.5-0.2,0.8-0.2c0.3,0,0.5,0.1,0.7,0.2c0.2,0.1,0.4,0.4,0.6,0.7l4.7,10.4
		c0.1,0.3,0.2,0.5,0.1,0.7c0,0.2-0.1,0.4-0.3,0.5c-0.2,0.1-0.4,0.2-0.7,0.2c-0.3,0-0.6-0.1-0.8-0.2c-0.2-0.2-0.3-0.4-0.5-0.7
		l-1.2-2.7l1,0.6h-7.5l1-0.6l-1.1,2.7c-0.2,0.3-0.3,0.6-0.5,0.7C302.5,355.2,302.3,355.3,302,355.3z M307.1,345.2l-2.5,5.9l-0.5-0.6
		h5.9l-0.4,0.6L307.1,345.2L307.1,345.2z"/>
	<path class="st4" d="M323.6,355.3c-0.4,0-0.6-0.1-0.9-0.3c-0.2-0.2-0.3-0.5-0.3-0.9v-4h-1.5c-0.3,0-0.5,0-0.8,0.1s-0.4,0.2-0.6,0.3
		c-0.2,0.1-0.3,0.3-0.5,0.6l-1.9,3.4c-0.2,0.3-0.3,0.5-0.6,0.6c-0.2,0.1-0.4,0.1-0.7,0.1c-0.2,0-0.4-0.1-0.6-0.3
		c-0.2-0.2-0.3-0.3-0.3-0.6c0-0.2,0-0.5,0.2-0.8l1.3-2.3c0.3-0.5,0.6-0.9,0.9-1.1s0.8-0.4,1.3-0.4h0.6l0,0.3c-1.4,0-2.4-0.3-3.2-1
		c-0.7-0.7-1.1-1.6-1.1-2.7c0-0.8,0.2-1.5,0.5-2c0.3-0.6,0.8-1,1.5-1.3c0.6-0.3,1.4-0.4,2.3-0.4h4.2c0.4,0,0.7,0.1,0.9,0.3
		c0.2,0.2,0.3,0.5,0.3,0.9v10.3c0,0.4-0.1,0.7-0.3,0.9C324.2,355.2,323.9,355.3,323.6,355.3z M319.7,348.5h2.8v-4h-2.8
		c-0.8,0-1.4,0.2-1.9,0.5c-0.4,0.3-0.6,0.8-0.6,1.5c0,0.7,0.2,1.2,0.6,1.5C318.2,348.3,318.9,348.5,319.7,348.5z"/>
	<path class="st4" d="M210.2,378.3c-0.4,0-0.6-0.1-0.9-0.3c-0.2-0.2-0.3-0.5-0.3-0.9v-10.4c0-0.4,0.1-0.7,0.3-0.9
		c0.2-0.2,0.5-0.3,0.9-0.3c0.4,0,0.6,0.1,0.8,0.3c0.2,0.2,0.3,0.5,0.3,0.9v4.3h2l-0.4,0.3l3.3-5.2c0.2-0.2,0.4-0.4,0.6-0.5
		c0.2-0.1,0.4-0.1,0.7-0.1c0.2,0,0.4,0.1,0.5,0.3s0.2,0.3,0.2,0.6c0,0.2,0,0.5-0.2,0.7l-3,4.6l-0.9-0.7c0.8,0.1,1.4,0.4,1.9,0.8
		c0.5,0.4,1,1,1.4,1.8l1.5,3c0.2,0.3,0.2,0.6,0.1,0.8c0,0.2-0.2,0.4-0.4,0.6c-0.2,0.1-0.4,0.2-0.6,0.2c-0.2,0-0.4,0-0.7-0.1
		c-0.2-0.1-0.4-0.3-0.5-0.6l-1.4-3c-0.3-0.6-0.6-1.1-1-1.3c-0.4-0.3-0.9-0.4-1.5-0.4h-1.6v4.3c0,0.4-0.1,0.7-0.3,0.9
		C210.8,378.2,210.6,378.3,210.2,378.3z"/>
	<path class="st4" d="M226.5,378.4c-1.2,0-2.3-0.3-3.2-0.8c-0.9-0.5-1.6-1.3-2.1-2.2c-0.5-1-0.7-2.1-0.7-3.4c0-1,0.1-1.9,0.4-2.6
		c0.3-0.8,0.7-1.5,1.2-2c0.5-0.6,1.2-1,1.9-1.3c0.7-0.3,1.6-0.5,2.5-0.5c1.2,0,2.3,0.3,3.2,0.8c0.9,0.5,1.6,1.3,2.1,2.2
		c0.5,1,0.7,2.1,0.7,3.4c0,1-0.1,1.9-0.4,2.7c-0.3,0.8-0.7,1.5-1.2,2c-0.5,0.6-1.2,1-1.9,1.3C228.3,378.2,227.5,378.4,226.5,378.4z
		 M226.5,376.4c0.8,0,1.4-0.2,1.9-0.5c0.5-0.4,1-0.9,1.2-1.5c0.3-0.7,0.4-1.5,0.4-2.4c0-1.4-0.3-2.5-1-3.3c-0.6-0.8-1.5-1.2-2.7-1.2
		c-0.8,0-1.4,0.2-1.9,0.5c-0.5,0.3-1,0.9-1.3,1.5c-0.3,0.7-0.4,1.5-0.4,2.4c0,1.4,0.3,2.5,1,3.3C224.5,376,225.4,376.4,226.5,376.4z
		"/>
	<path class="st4" d="M236.2,378.3c-0.4,0-0.6-0.1-0.9-0.3c-0.2-0.2-0.3-0.5-0.3-0.9v-10.4c0-0.4,0.1-0.7,0.3-0.9
		c0.2-0.2,0.5-0.3,0.9-0.3s0.6,0.1,0.8,0.3c0.2,0.2,0.3,0.5,0.3,0.9v4.2h6.4v-4.2c0-0.4,0.1-0.7,0.3-0.9c0.2-0.2,0.5-0.3,0.9-0.3
		s0.6,0.1,0.8,0.3c0.2,0.2,0.3,0.5,0.3,0.9v10.4c0,0.4-0.1,0.7-0.3,0.9c-0.2,0.2-0.5,0.3-0.8,0.3s-0.7-0.1-0.9-0.3
		c-0.2-0.2-0.3-0.5-0.3-0.9v-4.4h-6.4v4.4c0,0.4-0.1,0.7-0.3,0.9C236.8,378.2,236.5,378.3,236.2,378.3z"/>
	<path class="st4" d="M253,378.3c-0.4,0-0.6-0.1-0.8-0.3c-0.2-0.2-0.3-0.5-0.3-0.9v-9.6h-3.5c-0.3,0-0.5-0.1-0.7-0.2
		c-0.2-0.2-0.2-0.4-0.2-0.7c0-0.3,0.1-0.5,0.2-0.7c0.2-0.2,0.4-0.2,0.7-0.2h9.2c0.3,0,0.5,0.1,0.7,0.2c0.2,0.2,0.3,0.4,0.3,0.7
		c0,0.3-0.1,0.5-0.3,0.7c-0.2,0.2-0.4,0.2-0.7,0.2h-3.5v9.6c0,0.4-0.1,0.7-0.3,0.9C253.7,378.2,253.4,378.3,253,378.3z"/>
	<path class="st4" d="M265,378.4c-1.2,0-2.3-0.3-3.2-0.8c-0.9-0.5-1.6-1.3-2.1-2.2c-0.5-1-0.7-2.1-0.7-3.4c0-1,0.1-1.9,0.4-2.6
		c0.3-0.8,0.7-1.5,1.2-2c0.5-0.6,1.2-1,1.9-1.3c0.7-0.3,1.6-0.5,2.5-0.5c1.2,0,2.3,0.3,3.2,0.8c0.9,0.5,1.6,1.3,2.1,2.2
		c0.5,1,0.7,2.1,0.7,3.4c0,1-0.1,1.9-0.4,2.7c-0.3,0.8-0.7,1.5-1.2,2c-0.5,0.6-1.2,1-1.9,1.3C266.7,378.2,265.9,378.4,265,378.4z
		 M265,376.4c0.8,0,1.4-0.2,1.9-0.5c0.5-0.4,1-0.9,1.2-1.5c0.3-0.7,0.4-1.5,0.4-2.4c0-1.4-0.3-2.5-1-3.3c-0.6-0.8-1.5-1.2-2.7-1.2
		c-0.8,0-1.4,0.2-1.9,0.5c-0.5,0.3-1,0.9-1.3,1.5c-0.3,0.7-0.4,1.5-0.4,2.4c0,1.4,0.3,2.5,1,3.3C263,376,263.9,376.4,265,376.4z"/>
	<path class="st4" d="M274.6,378.3c-0.4,0-0.6-0.1-0.8-0.3c-0.2-0.2-0.3-0.5-0.3-0.9v-10.3c0-0.4,0.1-0.7,0.3-0.9
		c0.2-0.2,0.5-0.3,0.9-0.3h4.3c1.4,0,2.4,0.3,3.2,1c0.7,0.7,1.1,1.6,1.1,2.9s-0.4,2.2-1.1,2.9c-0.7,0.7-1.8,1-3.2,1h-3.2v3.6
		c0,0.4-0.1,0.7-0.3,0.9C275.3,378.2,275,378.3,274.6,378.3z M275.8,371.7h2.8c0.8,0,1.4-0.2,1.8-0.5c0.4-0.4,0.6-0.9,0.6-1.6
		s-0.2-1.2-0.6-1.6c-0.4-0.4-1-0.5-1.8-0.5h-2.8V371.7z"/>
	<path class="st4" d="M284,378.3c-0.3,0-0.5-0.1-0.7-0.2c-0.2-0.1-0.3-0.3-0.3-0.5c0-0.2,0-0.5,0.1-0.7l4.7-10.4
		c0.2-0.3,0.3-0.6,0.5-0.7c0.2-0.2,0.5-0.2,0.8-0.2c0.3,0,0.5,0.1,0.7,0.2c0.2,0.1,0.4,0.4,0.6,0.7l4.7,10.4
		c0.1,0.3,0.2,0.5,0.1,0.7c0,0.2-0.1,0.4-0.3,0.5c-0.2,0.1-0.4,0.2-0.7,0.2c-0.3,0-0.6-0.1-0.8-0.2c-0.2-0.2-0.3-0.4-0.5-0.7
		l-1.2-2.7l1,0.6h-7.5l1-0.6l-1.1,2.7c-0.2,0.3-0.3,0.6-0.5,0.7C284.6,378.2,284.3,378.3,284,378.3z M289.1,368.2l-2.5,5.9l-0.5-0.6
		h5.9l-0.4,0.6L289.1,368.2L289.1,368.2z"/>
</g>
</svg>
