<svg width="289" height="278" viewBox="0 0 289 278" fill="none" xmlns="http://www.w3.org/2000/svg">
<path d="M199.999 127.731C201.776 126.9 203.587 126.02 205.413 125.224C207.119 124.493 208.825 123.761 210.61 123.234C214.484 122.172 218.337 121.243 222.261 120.215C223.009 119.999 223.777 119.648 224.461 119.311C225.694 118.618 225.726 118.045 224.723 117.041C224.196 116.521 223.825 115.887 223.962 115.165C224.14 114.175 224.651 113.344 225.211 112.549C225.667 111.903 226.271 111.362 226.727 110.716C227.924 108.808 227.657 106.759 226.148 105.101C225.8 104.855 225.572 104.546 225.478 104.256C225.256 103.728 224.873 103.532 224.35 103.535C223.438 103.562 222.562 103.539 221.665 103.651C218.515 104.108 215.36 104.785 212.248 105.716C208.932 106.726 205.631 107.82 202.35 108.781C198.9 109.77 195.543 111.049 192.251 112.447C190.136 113.337 188.056 114.177 185.94 115.066C185.207 115.367 184.424 115.634 183.741 115.97C180.408 117.638 177.124 119.34 173.741 120.972C170.852 122.432 169.071 124.747 167.945 127.822C167.825 127.886 167.705 127.95 167.536 127.98C167.416 128.044 167.212 128.123 167.092 128.187C166.662 128.48 166.432 128.913 166.59 129.322C166.748 129.731 167.215 129.911 167.709 129.739C168.288 129.551 168.866 129.364 169.459 129.262C169.833 129.153 170.187 129.179 170.535 129.425C171.996 130.306 173.609 130.551 175.368 130.377C180.052 129.96 184.539 128.66 188.998 127.191C194.987 125.239 200.961 123.202 206.886 121.13C210.053 120.015 213.22 118.9 216.372 117.7C217.923 117.082 219.425 116.43 220.961 115.728C221.081 115.664 221.201 115.599 221.356 115.485C221.587 116.318 221.704 116.996 221.921 117.744C221.357 118.016 220.913 118.223 220.419 118.396C218.564 119.022 216.794 119.634 214.974 120.211C214.48 120.383 214.021 120.506 213.513 120.594C211.24 121.075 208.917 121.52 206.659 122.085C204.196 122.729 201.812 123.578 199.413 124.342C199.039 124.45 198.581 124.573 198.256 124.717C197.488 125.068 197.322 125.62 197.793 126.324C198.021 126.634 198.263 127.028 198.491 127.338C198.863 127.972 199.316 128.068 199.999 127.731ZM204.986 120.237C201.022 121.533 197.022 122.879 193.058 124.176C190.335 125.083 187.562 125.956 184.825 126.778C181.629 127.724 178.438 128.45 175.174 128.753C173.67 128.882 172.226 128.608 170.984 127.732C170.174 127.087 170.145 126.918 170.904 126.263C172.837 124.576 174.984 123.113 177.31 121.926C179.106 120.961 180.853 119.96 182.664 119.08C187.125 116.868 191.685 114.727 196.462 113.333C198.247 112.807 200.052 112.145 201.823 111.533C202.197 111.425 202.655 111.302 203.114 111.179C203.572 114.329 204.254 117.265 206.058 119.877C205.684 119.985 205.36 120.128 204.986 120.237ZM221.261 113.931C216.955 116.028 212.521 117.886 207.864 119.215C206.578 118.085 206.214 116.49 205.661 115.058C205.252 113.951 205.046 112.765 204.806 111.628C204.645 110.696 204.785 110.497 205.653 110.216C207.099 109.748 208.58 109.23 210.041 108.847C213.202 107.951 216.363 107.055 219.524 106.159C220.357 105.928 221.204 105.781 222.052 105.635C222.391 105.576 222.744 105.602 222.969 105.389C223.588 104.932 224.036 105.248 224.462 105.698C224.676 105.922 224.84 106.112 225.053 106.337C226.006 107.307 226.206 108.712 225.484 109.84C224.463 111.501 223.073 113.05 221.261 113.931Z" fill="black"/>
<path d="M177.813 145.27C177.313 144.396 176.778 143.572 176.073 142.778C175.319 141.949 174.433 141.622 173.317 141.728C172.709 141.746 172.201 141.833 171.795 141.249C171.438 140.7 171.3 140.157 171.452 139.52C171.542 139.286 171.583 139.017 171.673 138.783C171.986 137.813 171.892 137.524 171.082 136.878C170.307 136.183 169.346 136.175 168.385 136.167C166.512 136.185 165.292 134.433 165.826 132.726C165.992 132.174 166.194 131.572 166.31 130.984C166.427 130.397 166.134 129.967 165.716 129.822C165.298 129.676 164.854 129.883 164.878 130.272C164.925 131.049 164.554 131.681 164.368 132.367C164.251 132.955 164.1 133.592 164.202 134.185C164.589 136.169 166.577 137.57 168.575 137.268C168.914 137.21 169.203 137.116 169.522 137.192C169.925 137.253 170.343 137.399 170.641 137.609C170.975 137.77 171.033 138.108 170.873 138.442C170.677 138.825 170.481 139.207 170.371 139.576C170.023 140.596 170.269 141.513 170.854 142.372C171.389 143.196 172.141 143.502 173.108 143.291C173.192 143.276 173.327 143.297 173.496 143.267C174.019 143.264 174.452 143.495 174.864 143.86C175.49 144.45 176.045 145.139 176.361 145.957C176.519 146.366 176.712 146.725 177.025 147.02C178.32 148.454 179.776 149.555 181.872 150.065C181.167 149.271 180.541 148.681 179.986 147.992C179.217 147.078 178.378 146.263 177.813 145.27Z" fill="black"/>
<path d="M203.099 111.094C202.606 111.267 202.182 111.34 201.808 111.449C200.038 112.06 198.232 112.722 196.447 113.249C191.635 114.692 187.11 116.783 182.65 118.995C180.838 119.875 179.092 120.876 177.295 121.841C174.984 123.113 172.838 124.575 170.854 126.227C170.095 126.882 170.124 127.052 170.934 127.697C172.191 128.658 173.585 128.897 175.125 128.718C178.389 128.415 181.664 127.674 184.775 126.743C187.513 125.92 190.285 125.048 193.008 124.141C196.973 122.844 200.972 121.498 204.937 120.201C205.311 120.093 205.635 119.95 205.959 119.806C204.204 117.23 203.557 114.244 203.099 111.094Z" fill="white"/>
<path d="M225.123 106.238C224.91 106.013 224.746 105.823 224.532 105.598C224.106 105.149 223.708 104.868 223.039 105.289C222.765 105.468 222.411 105.442 222.122 105.535C221.274 105.682 220.427 105.829 219.594 106.06C216.433 106.956 213.272 107.852 210.111 108.747C208.615 109.181 207.169 109.649 205.723 110.117C204.855 110.398 204.68 110.647 204.876 111.529C205.116 112.666 205.322 113.852 205.731 114.959C206.249 116.44 206.648 117.986 207.934 119.116C212.641 117.822 217.026 115.929 221.331 113.832C223.143 112.951 224.533 111.402 225.59 109.692C226.276 108.613 226.041 107.257 225.123 106.238Z" fill="white"/>
<path d="M110.622 184.742C117.407 145.298 57.6358 132.573 90.6019 87.5207C114.51 72.3682 182.058 88.464 202.162 120.184C222.266 151.905 198.85 257.116 169.737 254.696C136.498 251.933 121.555 222.721 110.622 184.742Z" fill="#0475C7" fill-opacity="0.15"/>
<path d="M218.537 196.304C218.441 196.038 217.979 196.457 216.689 197.98C216.307 198.387 215.849 198.875 215.387 199.294C214.925 199.713 214.459 200.063 214.073 200.4C213.218 201.018 212.503 201.264 212.503 201.264C212.346 201.358 212.266 201.37 212.109 201.463L212.322 200.941C213.101 199.004 213.636 197.034 214.006 195.018C214.75 191.055 214.594 186.946 213.088 183.318C212.333 181.47 211.265 179.808 209.964 178.321C208.582 176.846 206.967 175.546 205.204 174.477C204.2 173.927 203.115 173.388 202.035 172.918C201.954 172.93 201.874 172.942 201.794 172.954C200.275 173.321 200.572 174.257 200.757 174.65C200.761 174.719 200.841 174.707 200.845 174.776C201.841 175.188 202.842 175.67 203.765 176.232C205.44 177.174 206.886 178.359 208.099 179.719C209.312 181.079 210.292 182.614 210.955 184.266C212.28 187.571 212.496 191.32 211.74 195.075C211.362 196.952 210.82 198.784 210.116 200.639L210.044 200.79L210.032 200.582C210.02 200.373 210.084 200.084 210.072 199.875C210.129 199.447 210.181 198.949 210.237 198.52C210.294 198.092 210.426 197.582 210.563 197.141L210.559 197.072L210.555 197.002L210.551 196.933C212.435 197.282 208.008 196.401 208.418 196.48L208.341 196.561C207.687 196.449 207.851 196.494 208.341 196.561C208.269 196.712 208.193 196.794 208.201 196.933C208.056 197.234 207.988 197.455 207.924 197.744C207.582 198.846 207.562 199.899 207.537 200.883C207.561 201.3 207.589 201.786 207.533 202.215L207.589 203.187C207.609 203.534 207.629 203.881 207.653 204.298C207.709 205.27 207.765 206.242 207.821 207.214L207.897 208.533L207.918 208.881L207.926 209.02L207.93 209.089L207.934 209.158L208.303 208.543L209.621 206.106L210.284 204.956L210.718 204.051C210.799 204.039 210.879 204.027 210.879 204.027L211.04 204.004L211.277 203.898C211.594 203.781 211.835 203.745 212.149 203.558C212.386 203.453 212.703 203.336 212.94 203.23C212.94 203.23 213.097 203.137 213.41 202.95C213.724 202.763 214.27 202.402 214.812 201.971C215.355 201.54 215.813 201.052 216.267 200.494C217.099 199.459 217.617 198.612 217.541 198.693C218.276 197.393 218.63 196.5 218.537 196.304Z" fill="#202020"/>
<path d="M225.691 223.393L225.495 222.792L225.398 222.526L225.302 222.26C225.117 221.867 225.017 221.532 224.832 221.139L224.736 220.874L224.559 220.62L224.206 220.112C223.84 219.396 223.242 218.855 222.8 218.22C222.539 217.909 222.201 217.679 221.94 217.368L221.511 216.942C221.342 216.827 221.173 216.712 221.004 216.597C220.667 216.367 220.33 216.137 219.992 215.907C219.655 215.677 219.321 215.517 218.904 215.299L218.402 215.023L217.819 214.76C217.486 214.6 217.072 214.451 216.739 214.291C216.325 214.142 215.995 214.051 215.582 213.903L215.003 213.709C214.838 213.663 214.593 213.63 214.429 213.584C211.299 212.719 208.042 212.434 204.884 212.484C201.726 212.534 198.665 212.85 195.777 213.35C189.919 214.363 184.749 216.043 180.326 218.033C180.089 218.138 179.771 218.255 179.538 218.43L179.144 218.629L178.907 218.734C178.827 218.746 178.827 218.746 178.751 218.827C178.67 218.839 178.594 218.921 178.514 218.933C178.357 219.026 178.2 219.12 178.04 219.143C177.803 219.249 177.566 219.354 177.409 219.447C177.252 219.541 177.172 219.553 177.172 219.553C177.172 219.553 176.858 219.74 176.312 220.101C176.079 220.276 175.766 220.463 175.452 220.649C175.139 220.836 174.829 221.092 174.52 221.348C174.207 221.535 173.897 221.791 173.588 222.048C173.279 222.304 173.046 222.478 172.813 222.653C172.347 223.003 172.117 223.247 172.198 223.235C171.969 223.479 171.736 223.654 171.587 223.886C171.438 224.119 171.205 224.293 171.133 224.444C170.832 224.839 170.683 225.071 170.691 225.21C170.699 225.349 170.86 225.325 171.173 225.139C171.567 224.94 172.033 224.59 172.893 224.042C173.126 223.867 173.439 223.681 173.676 223.575C173.989 223.388 174.227 223.283 174.54 223.096C175.086 222.735 175.721 222.5 176.191 222.22C176.661 221.94 177.135 221.729 177.453 221.612C177.766 221.425 177.927 221.401 177.927 221.401C177.927 221.401 178.24 221.215 178.714 221.004C178.951 220.899 179.265 220.712 179.658 220.513C179.739 220.501 179.815 220.42 179.895 220.408C180.45 220.185 181 219.893 181.555 219.67C182.659 219.156 183.849 218.699 185.118 218.229C187.581 217.372 190.289 216.549 193.089 215.922C195.889 215.295 198.862 214.852 201.931 214.675C205 214.498 208.081 214.529 211.11 215.059C211.52 215.138 211.849 215.229 212.255 215.238C212.585 215.329 212.994 215.409 213.404 215.488L213.978 215.612C214.143 215.658 214.308 215.703 214.557 215.806C214.89 215.967 215.3 216.046 215.633 216.206C215.967 216.367 216.3 216.527 216.634 216.687L217.132 216.893C217.3 217.008 217.465 217.054 217.634 217.169C217.967 217.329 218.305 217.559 218.558 217.732C218.815 217.973 219.148 218.134 219.405 218.376C220.51 219.262 221.542 220.299 222.261 221.522L222.53 221.972C222.618 222.099 222.711 222.296 222.719 222.435C222.899 222.758 223 223.093 223.181 223.416C223.281 223.751 223.381 224.087 223.482 224.422C223.582 224.757 223.682 225.092 223.706 225.509C223.951 226.943 223.955 228.413 223.637 229.931C223.316 231.38 222.508 232.831 221.528 234.098C220.467 235.376 219.157 236.552 217.674 237.543C216.192 238.534 214.541 239.41 212.801 240.16C209.322 241.658 205.654 242.695 201.89 243.465C198.125 244.236 194.261 244.672 190.537 244.736C186.736 244.882 182.996 244.668 179.469 243.933C178.566 243.717 177.742 243.49 176.919 243.262C176.175 243.023 175.34 242.587 174.589 242.209C173.086 241.452 171.656 240.544 170.379 239.474C169.106 238.473 168.066 237.297 167.262 236.016C166.459 234.735 166.05 233.255 165.966 231.797C165.793 228.811 167.156 225.737 169.273 223.11C171.391 220.484 174.099 218.26 176.992 216.428C179.884 214.597 183.042 213.146 186.224 212.112C189.406 211.078 192.527 210.403 195.593 210.156C197.127 210.068 198.585 210.061 200.048 210.123C200.373 210.145 200.779 210.154 201.108 210.245L201.273 210.291L201.438 210.336C203.314 210.547 204.466 210.866 204.551 210.923C204.631 210.911 204.712 210.899 204.712 210.899C206.138 210.337 205.849 209.539 205.499 209.101C205.415 209.044 205.415 209.044 205.415 209.044C205.334 209.056 204.017 208.691 202.057 208.423L201.892 208.378L201.812 208.39L201.731 208.402C201.566 208.356 201.325 208.392 201.161 208.346C199.614 208.227 198.072 208.176 196.376 208.289C193.146 208.489 189.78 209.131 186.437 210.189C183.095 211.247 179.772 212.652 176.719 214.508C173.585 216.375 170.636 218.635 168.205 221.448C166.988 222.82 165.943 224.377 165.143 225.967C164.785 226.79 164.428 227.614 164.154 228.495C163.881 229.376 163.768 230.233 163.736 231.078C163.704 231.924 163.756 232.826 163.884 233.648C163.989 234.052 164.093 234.457 164.201 234.931C164.386 235.324 164.491 235.729 164.675 236.121C165.045 236.907 165.491 237.611 166.017 238.303C166.543 238.995 167.145 239.605 167.748 240.216C169.033 241.425 170.471 242.472 171.981 243.367C172.737 243.815 173.572 244.251 174.404 244.617C174.821 244.835 175.235 244.984 175.733 245.19C176.147 245.338 176.641 245.475 177.055 245.623C180.758 246.612 184.583 246.883 188.472 246.864C192.36 246.846 196.229 246.48 200.162 245.824C204.014 245.18 207.847 244.189 211.575 242.793C213.399 242.102 215.215 241.271 216.943 240.313C217.807 239.834 218.666 239.286 219.446 238.75C220.225 238.214 220.997 237.538 221.688 236.875C223.15 235.537 224.275 233.969 225.071 232.309C225.429 231.486 225.702 230.604 225.895 229.735C226.088 228.866 226.12 228.021 226.153 227.176C226.105 226.342 226.057 225.509 225.852 224.769C225.976 224.12 225.796 223.797 225.691 223.393Z" fill="#202020"/>
<path d="M207.71 222.148C206.493 222.119 205.035 222.126 203.902 222.155C202.769 222.183 201.881 222.245 201.881 222.245L199.788 222.487C193.75 223.176 187.652 224.225 181.582 225.759C180.384 226.077 179.107 226.408 177.914 226.795C177.833 226.807 177.757 226.889 177.757 226.889C176.849 228.004 177.688 228.51 178.263 228.634C178.347 228.692 178.343 228.622 178.424 228.61C179.617 228.223 180.814 227.904 182.011 227.586C187.84 226.087 193.858 225.051 199.816 224.374L201.588 224.18C201.588 224.18 203.114 223.953 204.641 223.725C206.167 223.498 207.694 223.271 207.533 223.295C210.096 222.773 211.768 222.244 207.71 222.148Z" fill="#202020"/>
<path d="M178.23 233.681C178.31 233.669 178.31 233.669 178.391 233.657C179.58 233.2 180.777 232.882 181.89 232.506C187.623 230.742 193.556 229.648 199.422 228.775L201.189 228.511C201.189 228.511 202.712 228.215 204.235 227.918C205.757 227.621 207.28 227.324 207.119 227.348C209.598 226.769 211.265 226.17 207.139 226.295C204.709 226.306 201.322 226.601 201.322 226.601L199.233 226.912C193.207 227.809 187.197 228.984 181.304 230.772C180.111 231.16 178.837 231.56 177.644 231.948C177.563 231.96 177.487 232.041 177.491 232.111C176.744 233.202 177.66 233.626 178.23 233.681Z" fill="#202020"/>
<path d="M192.527 234.284C191.322 234.464 189.876 234.679 188.755 234.916C187.63 235.084 186.75 235.285 186.75 235.285L184.673 235.804L183.633 236.029C182.435 236.348 181.158 236.678 179.961 236.996C179.88 237.008 179.804 237.09 179.804 237.09C178.816 238.217 179.736 238.711 180.31 238.835C180.394 238.893 180.39 238.823 180.471 238.811C181.668 238.493 182.865 238.175 184.062 237.856L185.099 237.562L186.858 237.16C186.858 237.16 188.373 236.724 189.883 236.219C191.398 235.783 192.828 235.29 192.748 235.302C193.937 234.845 194.966 234.412 195.114 234.179C195.263 233.947 194.612 233.904 192.527 234.284Z" fill="#202020"/>
</svg>
