<svg width="251" height="236" viewBox="0 0 251 236" fill="none" xmlns="http://www.w3.org/2000/svg">
<path d="M52.9698 97.0527C68.5196 88.0797 83.9499 81.858 99.4996 72.885C104.105 77.9086 107.336 82.8725 110.506 89.2121C117.446 103.984 125.103 118.099 131.324 133.529C136.409 143.397 141.554 151.89 147.356 161.1C143.11 163.672 138.863 166.245 134.617 168.817C117.034 177.012 101.544 184.61 85.2765 194.241C81.3883 188.559 77.5001 182.878 74.3295 176.538C64.818 157.519 57.3997 137.902 46.4527 120.2" fill="white"/>
<path d="M52.904 96.9809C56.6539 94.7317 60.4696 92.5543 64.2194 90.3051C66.1273 89.2163 68.1009 88.1994 70.0028 87.2482L75.7861 84.1914L87.4185 78.1495C91.1624 76.0378 95.0439 73.9321 98.7878 71.8205L98.8596 71.7547C99.356 71.4317 100.038 71.5991 100.361 72.0955L103.25 75.3907C104.165 76.533 105.009 77.7411 105.924 78.8834C106.313 79.4515 106.767 80.0915 107.156 80.6596L108.317 82.5016C108.634 83.1356 109.088 83.7755 109.405 84.4095L110.422 86.3831C111.056 87.651 111.756 88.9907 112.39 90.2586L114.221 94.1281L117.81 101.933L121.4 109.738C122.034 111.006 122.596 112.339 123.158 113.673L124.917 117.608L126.676 121.544C127.238 122.878 127.801 124.211 128.363 125.545L131.671 133.475L135.571 140.467L139.472 147.458C140.889 149.725 142.307 151.992 143.797 154.192L148.122 160.927C148.313 161.279 148.223 161.758 147.936 162.021L135.323 170.019L135.251 170.085L122.788 176.228L110.39 182.444L98.1829 189.012C94.2237 191.321 90.1987 193.558 86.1678 195.933C85.4621 196.316 84.5768 196.071 84.1222 195.431L81.2091 191.101L78.3677 186.705L75.6698 182.178L73.1873 177.453L70.9798 172.74C70.2201 171.191 69.5321 169.577 68.7724 168.028C67.3247 164.864 65.9488 161.634 64.501 158.47C63.1251 155.241 61.6774 152.077 60.3015 148.847L58.1658 144.069C57.4778 142.454 56.7181 140.905 56.0301 139.29L53.8227 134.577L51.4777 129.859L50.2693 127.532L48.9892 125.271L46.5006 120.684C46.4348 120.612 46.5066 120.547 46.5784 120.481C46.6501 120.415 46.7159 120.487 46.7817 120.559L49.6231 124.954L51.0408 127.221L52.321 129.482L54.9471 134.075L57.3638 138.728C58.1953 140.211 59.0209 141.832 59.7806 143.381L61.9401 147.609C63.4596 150.707 64.9731 153.943 66.4926 157.041C67.9403 160.205 69.4597 163.303 71.045 166.472C71.8047 168.021 72.5645 169.57 73.3242 171.119L75.6692 175.838L78.0919 180.354L80.7958 184.743L83.6431 189.002L86.5563 193.332L84.5048 192.967C88.6015 190.664 92.5607 188.355 96.5857 186.117L108.924 179.693C113.146 177.671 117.231 175.643 121.454 173.621L134.109 167.83L134.037 167.896L146.901 160.46L146.644 161.621L138.557 147.901L134.728 140.844L130.828 133.852L127.454 125.85C126.892 124.516 126.257 123.248 125.695 121.915L123.793 118.111L121.89 114.307C121.256 113.039 120.622 111.771 119.988 110.504L116.046 102.89L112.104 95.2767L110.201 91.473C109.884 90.839 109.567 90.205 109.25 89.5711L108.227 87.735L107.204 85.899C106.887 85.265 106.499 84.6968 106.11 84.1287C105.332 82.9924 104.698 81.7245 103.783 80.5822C102.933 79.5117 102.162 78.2378 101.312 77.1673L98.6265 73.9497L100.2 74.2247C96.3181 76.3304 92.4426 78.2985 88.5611 80.4042C84.6198 82.3006 80.6785 84.1969 76.7372 86.0933C72.7959 87.9896 68.8606 89.7484 64.9193 91.6447C60.9182 93.3318 57.0427 95.2999 53.1014 97.1962C53.0296 97.262 52.9638 97.1903 52.8981 97.1185C52.8323 97.0467 52.904 96.9809 52.904 96.9809Z" fill="#333333"/>
<path d="M46.3333 122.951C49.9216 119.661 53.5099 116.371 57.0981 113.081C54.5259 108.835 54.7646 103.332 51.5344 98.3685C51.894 105.964 48.1864 112.005 46.5123 118.824C46.4526 120.2 46.393 121.575 46.3333 122.951Z" fill="white"/>
<path d="M46.3334 122.951C47.063 122.018 47.9301 121.091 48.7973 120.163L51.327 117.448L53.8567 114.732L56.4522 112.088L56.249 113.596C55.9319 112.962 55.5431 112.393 55.226 111.759L54.8551 110.779C54.7295 110.498 54.5381 110.145 54.4842 109.798C54.3047 109.17 54.0594 108.47 53.88 107.842C53.7005 107.214 53.521 106.586 53.3415 105.958C53.162 105.33 52.9825 104.702 52.803 104.074L52.4979 103.165C52.3723 102.884 52.3184 102.537 52.1928 102.256L51.6006 101.61C51.475 101.329 51.3493 101.048 51.2237 100.767L50.3264 99.2118L52.9819 98.3623L52.9283 101.185C52.8208 102.076 52.6414 103.033 52.5339 103.925C52.4442 104.403 52.2887 104.81 52.1991 105.288L51.8642 106.652C51.6191 107.537 51.3082 108.351 50.9972 109.164C50.3036 110.857 49.6817 112.484 48.9223 114.105L47.9237 116.473L46.9909 118.914L46.9969 118.776C46.8654 120.217 46.5964 121.653 46.3334 122.951ZM46.3334 122.951C46.2555 121.569 46.1776 120.188 46.0997 118.806L46.56 116.138C46.8051 115.253 46.9785 114.434 47.2236 113.549L48.6825 108.512L49.0114 107.286C49.1728 106.742 49.3283 106.335 49.3462 105.923L49.6092 104.625C49.6271 104.212 49.7826 103.805 49.8005 103.393L49.926 102.089C49.9439 101.676 50.0993 101.269 50.1172 100.857L50.0871 98.3745L50.0931 98.2369C50.0571 97.4774 50.7748 96.8194 51.5343 96.7834C52.0846 96.8073 52.4854 97.1003 52.7426 97.5249L53.7655 99.361C53.9569 99.7139 54.0826 99.995 54.2082 100.276L54.5791 101.257C54.7047 101.538 54.8244 101.957 54.95 102.238L55.3209 103.219C55.5004 103.847 55.6799 104.475 55.9252 105.174C56.1047 105.802 56.2842 106.43 56.3919 107.124C56.5714 107.752 56.7509 108.38 56.8646 108.936C56.9184 109.283 57.0441 109.564 57.1697 109.845L57.403 110.82C57.5287 111.101 57.6543 111.382 57.7799 111.664L58.1568 112.507L58.2166 112.716C58.4021 113.207 58.3124 113.685 57.9536 114.014L55.0949 116.371L52.1704 118.656L49.3895 120.809C48.3249 121.521 47.3979 122.239 46.3334 122.951Z" fill="#333333"/>
<path d="M87.1278 167.446C90.0581 163.438 94.9624 161.583 99.2086 159.011C108.299 155.96 116.074 151.474 124.567 146.329" fill="white"/>
<path d="M87.0621 167.374L88.1625 165.836C88.5931 165.442 89.0296 164.909 89.532 164.449C89.9626 164.054 90.5307 163.665 90.9613 163.27L92.4565 162.164C93.521 161.452 94.5138 160.806 95.6442 160.166C96.7027 159.592 97.7673 158.88 98.7601 158.234L98.8318 158.168L98.9036 158.102L105.363 155.35C107.408 154.267 109.46 153.047 111.571 152.036C112.629 151.462 113.616 150.953 114.675 150.379L116.224 149.619C116.786 149.368 117.276 149.183 117.839 148.931C118.897 148.357 119.95 147.92 121.14 147.49C122.264 146.987 123.383 146.622 124.501 146.257C124.573 146.191 124.639 146.263 124.704 146.335C124.77 146.407 124.699 146.473 124.699 146.473C123.837 147.262 122.904 148.117 121.977 148.835C121.05 149.553 120.052 150.337 119.125 151.055C118.132 151.701 117.139 152.347 116.146 152.993C115.154 153.639 114.095 154.213 113.036 154.787C111.912 155.29 110.859 155.726 109.735 156.229L106.302 157.527L99.448 159.848L99.6574 159.789C98.527 160.429 97.4026 160.931 96.3441 161.505C95.2197 162.008 94.1611 162.582 93.0367 163.085L91.4817 163.982L89.9208 165.017L88.4915 166.195L87.1937 167.517C87.1219 167.583 86.9844 167.577 86.9844 167.577C87.0562 167.511 86.9904 167.44 87.0621 167.374Z" fill="#333333"/>
<path d="M85.2734 162.542C88.8617 159.252 93.108 156.679 96.6366 154.765C105.727 151.714 113.502 147.227 121.995 142.083" fill="white"/>
<path d="M85.2075 162.47L87.7193 160.167C87.9346 159.97 88.1499 159.772 88.3652 159.575L89.0769 159.054L90.4345 157.942C90.8651 157.547 91.3615 157.224 91.8578 156.901L93.2812 155.86C93.7776 155.537 94.274 155.214 94.7704 154.891L96.2596 153.922L96.3313 153.856L102.725 151.033C104.77 149.95 106.822 148.729 108.933 147.718C110.984 146.498 113.095 145.487 115.272 144.548C116.331 143.974 117.383 143.537 118.574 143.106C119.698 142.604 120.816 142.239 121.935 141.874C122.007 141.808 122.072 141.88 122.138 141.952C122.204 142.023 122.132 142.089 122.132 142.089C121.271 142.879 120.338 143.734 119.411 144.452C118.484 145.17 117.485 145.953 116.558 146.671C115.566 147.317 114.573 147.963 113.58 148.609C112.587 149.255 111.529 149.83 110.47 150.404C109.908 150.655 109.346 150.906 108.784 151.158L107.169 151.846L103.73 153.281L96.8758 155.603L97.0133 155.609L95.4643 156.368C94.9021 156.62 94.4775 156.877 93.9153 157.128L92.5039 157.894C92.0075 158.217 91.5171 158.402 91.0207 158.725L89.6033 159.628L88.8916 160.149C88.6763 160.346 88.3952 160.472 88.1799 160.669L85.4049 162.685C85.3331 162.751 85.2673 162.679 85.2015 162.607C85.1357 162.536 85.1357 162.536 85.2075 162.47Z" fill="#333333"/>
<path d="M82.7009 158.295C91.2531 151.775 102.437 148.125 112.305 143.041C114.458 141.067 116.611 139.093 119.422 137.836" fill="white"/>
<path d="M82.6352 158.223C83.7057 157.374 84.848 156.459 85.9185 155.609C87.0548 154.832 88.2629 153.988 89.465 153.282C90.6671 152.576 91.8692 151.871 93.0713 151.165L96.8093 149.191C99.3451 147.922 101.809 146.72 104.279 145.38C105.481 144.674 106.749 144.04 108.011 143.543C109.279 142.909 110.541 142.413 111.803 141.916L111.516 142.179C112.09 141.653 112.658 141.264 113.298 140.81C113.938 140.355 114.578 139.9 115.212 139.583C115.918 139.2 116.552 138.883 117.323 138.572C118.023 138.327 118.86 138.088 119.488 137.908C119.56 137.842 119.626 137.914 119.691 137.986C119.757 138.058 119.686 138.124 119.686 138.124C119.111 138.65 118.543 139.039 117.969 139.565C117.395 140.091 116.893 140.552 116.39 141.013C115.888 141.473 115.38 142.071 114.877 142.532C114.369 143.13 113.867 143.591 113.43 144.123C113.358 144.189 113.286 144.255 113.286 144.255L113.215 144.32C112.013 145.026 110.81 145.732 109.477 146.295C108.209 146.929 106.947 147.425 105.547 147.916C102.886 148.903 100.362 149.896 97.7664 150.955L93.9746 152.582L90.1768 154.347C88.9089 154.981 87.7786 155.621 86.5107 156.255L82.9701 158.444C82.8984 158.51 82.8326 158.438 82.7668 158.367C82.5634 158.289 82.6352 158.223 82.6352 158.223Z" fill="#333333"/>
<path d="M80.1289 154.049C88.6214 148.905 96.3963 144.418 105.487 141.367C109.733 138.795 114.638 136.94 117.568 132.933" fill="white"/>
<path d="M80.0631 153.977C81.9828 152.614 83.9684 151.321 85.954 150.029C87.9395 148.737 89.9909 147.517 92.0423 146.297C94.1594 145.148 96.2766 144 98.3878 142.989L101.689 141.547C102.814 141.044 103.938 140.542 104.991 140.105L104.715 140.093C105.78 139.381 106.91 138.741 108.035 138.239C108.597 137.987 109.159 137.736 109.721 137.485C110.283 137.234 110.78 136.911 111.342 136.659C111.904 136.408 112.401 136.085 112.963 135.834C113.459 135.511 114.021 135.26 114.518 134.937C115.014 134.614 115.511 134.291 116.007 133.968C116.438 133.573 116.934 133.25 117.436 132.789C117.508 132.723 117.574 132.795 117.64 132.867C117.705 132.939 117.705 132.939 117.634 133.004C117.335 133.543 117.036 134.081 116.665 134.685C116.3 135.152 115.864 135.684 115.427 136.216C114.925 136.677 114.494 137.072 113.992 137.532C113.489 137.993 112.993 138.316 112.425 138.705C111.928 139.028 111.36 139.417 110.864 139.74C110.367 140.063 109.799 140.452 109.237 140.703C108.741 141.026 108.179 141.277 107.682 141.6C107.186 141.923 106.624 142.174 106.127 142.497L106.055 142.563C105.984 142.629 105.846 142.623 105.774 142.689C103.537 143.419 101.372 144.083 99.1296 144.95C96.9526 145.889 94.8474 146.763 92.6704 147.702L89.5006 149.287L86.3309 150.873C84.2137 152.021 82.1683 153.104 79.9853 154.181C79.9136 154.247 79.8478 154.175 79.782 154.103C79.9913 154.043 80.0631 153.977 80.0631 153.977Z" fill="#333333"/>
<path d="M77.5566 149.803C85.3315 145.316 93.824 140.172 102.915 137.121C107.819 135.266 112.065 132.694 114.996 128.686" fill="white"/>
<path d="M77.4907 149.731C77.4907 149.731 79.7633 148.176 83.1663 145.98C84.0156 145.466 84.9366 144.886 85.9294 144.24C86.9221 143.594 87.9807 143.019 89.1111 142.379C90.2414 141.739 91.3718 141.099 92.5021 140.459C93.6983 139.891 94.9004 139.185 96.1683 138.551C97.3644 137.983 98.6323 137.348 99.8943 136.852C101.156 136.355 102.281 135.853 103.477 135.284C104.105 135.105 104.601 134.782 105.092 134.597C105.582 134.411 106.144 134.16 106.706 133.909C107.197 133.723 107.693 133.4 108.184 133.215C108.608 132.957 109.099 132.772 109.523 132.515C109.948 132.257 110.373 132 110.725 131.809C111.078 131.617 111.437 131.288 111.79 131.097C112.43 130.642 112.998 130.254 113.429 129.859C114.29 129.069 114.858 128.68 114.858 128.68C114.93 128.615 114.996 128.686 115.061 128.758C115.127 128.83 115.127 128.83 115.055 128.896C115.055 128.896 114.75 129.572 114.152 130.648C113.788 131.115 113.345 131.785 112.837 132.383C112.257 133.047 111.605 133.777 110.75 134.429C109.96 135.152 109.033 135.87 107.975 136.444C107.478 136.767 106.982 137.09 106.348 137.407C105.786 137.659 105.152 137.976 104.589 138.227C104.308 138.353 104.027 138.478 103.68 138.532L103.543 138.526L103.334 138.586L103.196 138.58L102.777 138.7C102.149 138.879 101.521 139.059 100.893 139.238C99.6374 139.597 98.3754 140.094 97.1135 140.59C95.8515 141.087 94.6554 141.655 93.3935 142.152C92.1973 142.72 91.0012 143.288 89.8768 143.791C87.6221 144.933 85.5109 145.944 83.6808 146.83C80.0864 148.672 77.6223 149.875 77.6223 149.875C77.5505 149.94 77.4847 149.869 77.4189 149.797L77.4907 149.731Z" fill="#333333"/>
<path d="M75.6423 146.274C77.0776 144.958 77.7953 144.3 79.2306 142.984C89.8761 135.866 103.752 133.711 112.423 124.44" fill="white"/>
<path d="M75.5765 146.202L78.9674 142.697L80.959 141.267L82.9445 139.975C84.2902 139.138 85.7016 138.372 87.1789 137.678C88.5903 136.913 90.0675 136.219 91.473 135.59C92.9502 134.897 94.3557 134.268 95.7672 133.503L97.8126 132.42C98.5183 132.037 99.224 131.654 99.858 131.337C100.564 130.954 101.198 130.637 101.903 130.254C102.609 129.872 103.243 129.554 104.015 129.243C104.72 128.861 105.354 128.544 106.06 128.161C106.766 127.778 107.406 127.323 108.04 127.006C108.679 126.552 109.385 126.169 110.091 125.786C110.731 125.331 111.371 124.877 112.076 124.494C112.148 124.428 112.214 124.5 112.28 124.571C112.346 124.643 112.274 124.709 112.274 124.709C111.831 125.379 111.389 126.049 110.875 126.785C110.366 127.383 109.786 128.047 109.212 128.573C108.638 129.099 107.992 129.692 107.418 130.218C106.778 130.673 106.132 131.265 105.426 131.648C104.786 132.102 104.009 132.551 103.303 132.934C102.597 133.317 101.892 133.699 101.12 134.011C99.643 134.704 98.1717 135.261 96.6286 135.883C93.6143 137.062 90.606 138.103 87.7293 139.287L85.5523 140.226L83.3753 141.165L81.2641 142.176L79.4878 143.409L79.5596 143.343L75.7739 146.418C75.7022 146.483 75.6364 146.412 75.5706 146.34C75.5048 146.268 75.5048 146.268 75.5765 146.202Z" fill="#333333"/>
<path d="M73.0701 142.028C78.871 135.388 86.5265 133.653 94.2417 130.542C99.8636 128.03 104.828 124.8 109.851 120.194" fill="white"/>
<path d="M73.0043 141.956C73.0043 141.956 73.4409 141.424 74.2363 140.562C74.6011 140.096 75.0376 139.563 75.7493 139.043C76.3952 138.451 77.1128 137.793 77.8963 137.207C78.3209 136.949 78.7515 136.555 79.1761 136.297C79.6725 135.974 80.1689 135.651 80.5936 135.394C81.6521 134.82 82.7107 134.246 83.9069 133.677C85.103 133.109 86.2274 132.606 87.4893 132.11C88.7513 131.613 89.9474 131.045 91.2094 130.548C91.8433 130.231 92.4055 129.98 93.0335 129.801L93.5239 129.615L93.7332 129.555C93.5239 129.615 93.7332 129.555 93.6615 129.621L93.7332 129.555L93.805 129.49L94.6543 128.975C95.7846 128.335 97.0525 127.701 98.0453 127.055C99.0381 126.409 100.097 125.835 101.083 125.326C101.646 125.075 102.004 124.746 102.501 124.423C102.926 124.166 103.422 123.843 103.847 123.585C104.696 123.071 105.539 122.694 106.179 122.239C106.819 121.785 107.453 121.468 107.949 121.145C109.008 120.57 109.642 120.253 109.642 120.253C109.714 120.188 109.779 120.259 109.845 120.331C109.911 120.403 109.839 120.469 109.839 120.469C109.839 120.469 109.403 121.001 108.673 121.934C108.308 122.401 107.8 122.999 107.292 123.597C106.712 124.261 106.066 124.853 105.276 125.577C104.487 126.301 103.697 127.024 102.705 127.67C101.712 128.317 100.647 129.028 99.5169 129.668C98.3865 130.309 97.1964 130.739 96.0002 131.308L95.0852 131.75L94.8041 131.876L94.5947 131.936L94.1043 132.121L92.1486 132.725C90.8208 133.15 89.6307 133.581 88.3029 134.006C87.047 134.365 85.785 134.861 84.6666 135.226C83.4764 135.657 82.352 136.159 81.3652 136.668C80.803 136.919 80.3784 137.176 79.888 137.362C79.4634 137.619 78.9012 137.87 78.5483 138.062C77.6991 138.576 76.9874 139.097 76.3475 139.551C75.6417 139.934 75.1334 140.532 74.7028 140.927C73.8416 141.717 73.3393 142.177 73.3393 142.177C73.2675 142.243 73.2017 142.171 73.1359 142.099C72.9325 142.022 72.9325 142.022 73.0043 141.956Z" fill="#333333"/>
<path d="M70.4979 137.782C73.4282 133.774 77.6744 131.202 82.5787 129.347C91.6695 126.296 100.162 121.152 107.937 116.665" fill="white"/>
<path d="M70.4321 137.71C70.4321 137.71 70.8687 137.178 71.5325 136.173C71.8973 135.706 72.4056 135.108 72.9797 134.582C73.2668 134.319 73.6256 133.99 73.9845 133.661C74.3433 133.332 74.7679 133.074 75.1267 132.745C75.4856 132.416 75.982 132.093 76.4783 131.77C76.9747 131.447 77.4711 131.124 77.9675 130.801C78.4639 130.478 78.9603 130.155 79.5225 129.904C80.0847 129.653 80.6528 129.264 81.2808 129.084C82.477 128.516 83.6671 128.085 84.9291 127.589C86.191 127.092 87.3214 126.452 88.5833 125.956C89.7795 125.387 90.9816 124.681 92.1119 124.041C93.2423 123.401 94.3726 122.761 95.503 122.121C96.6333 121.481 97.7577 120.979 98.7445 120.47C99.7313 119.962 100.784 119.525 101.699 119.082C102.614 118.64 103.457 118.263 104.229 117.952C105 117.64 105.7 117.395 106.262 117.144C107.381 116.779 108.08 116.534 108.08 116.534C108.152 116.468 108.218 116.54 108.284 116.611C108.35 116.683 108.278 116.749 108.278 116.749C108.278 116.749 106.262 118.729 102.925 120.996C102.142 121.582 101.149 122.228 100.156 122.874C99.1635 123.52 98.1049 124.095 96.9745 124.735C95.7784 125.303 94.5823 125.871 93.3861 126.44C92.1242 126.936 90.928 127.504 89.5285 127.995C88.2666 128.492 86.9329 129.054 85.6769 129.413C84.3492 129.838 83.0932 130.197 82.0406 130.633C80.8504 131.064 79.7978 131.501 78.7392 132.075C78.177 132.326 77.7524 132.584 77.262 132.769C76.8373 133.026 76.2751 133.278 75.9163 133.607C75.4917 133.864 75.0671 134.121 74.7082 134.45C74.3494 134.779 73.9965 134.97 73.7095 135.234C73.0696 135.688 72.633 136.221 72.1306 136.681C71.3352 137.542 70.8987 138.075 70.8987 138.075C70.8269 138.141 70.6894 138.135 70.6894 138.135C70.4262 137.848 70.3604 137.776 70.4321 137.71Z" fill="#333333"/>
<path d="M67.9255 133.535C76.5374 125.639 87.6618 123.366 97.53 118.281C99.683 116.307 102.554 113.675 105.365 112.419" fill="white"/>
<path d="M67.8598 133.464L69.3728 131.944C69.8752 131.484 70.3775 131.023 71.0175 130.569L72.7279 129.264L74.5041 128.032L76.2744 126.938C76.8426 126.549 77.4765 126.232 78.1105 125.915C79.3784 125.281 80.6463 124.646 81.9142 124.012C84.45 122.744 87.0457 121.685 89.5097 120.483C90.7776 119.849 91.9738 119.28 93.2417 118.646C93.8756 118.329 94.4378 118.078 95.1376 117.833C95.7715 117.516 96.3337 117.264 97.0335 117.019L96.6806 117.21C97.2547 116.684 97.9664 116.164 98.6064 115.709C99.318 115.189 99.958 114.734 100.735 114.285C101.513 113.837 102.219 113.454 102.924 113.071C103.343 112.951 103.696 112.76 104.115 112.64C104.533 112.521 104.952 112.401 105.371 112.281C105.442 112.216 105.508 112.287 105.574 112.359C105.64 112.431 105.568 112.497 105.568 112.497L104.569 113.28L103.708 114.07C103.421 114.333 103.134 114.596 102.847 114.859C102.56 115.123 102.273 115.386 102.051 115.721L98.6605 119.226C98.5888 119.292 98.5888 119.292 98.517 119.358L98.3735 119.489C97.7395 119.806 97.1713 120.195 96.5374 120.512C95.9034 120.829 95.2695 121.146 94.5697 121.391C93.9358 121.708 93.236 121.954 92.608 122.133L90.6463 122.875C88.0567 123.796 85.3294 124.712 82.8055 125.705C81.5436 126.201 80.2099 126.764 78.9479 127.26C77.7518 127.829 76.4181 128.391 75.216 129.097L73.3799 130.12L71.6096 131.214L69.9052 132.381L68.2665 133.619C68.1947 133.685 68.1289 133.613 68.0631 133.541C67.788 133.529 67.788 133.529 67.8598 133.464Z" fill="#333333"/>
<path d="M65.3535 129.289C73.9057 122.769 84.4318 118.402 94.958 114.035C97.7689 112.778 99.9816 109.429 102.793 108.173" fill="white"/>
<path d="M65.2876 129.218C65.2876 129.218 65.7899 128.757 66.7169 128.039C67.1475 127.644 67.7157 127.256 68.3616 126.663C69.0015 126.209 69.7849 125.623 70.6342 125.108C71.4894 124.456 72.4104 123.876 73.4032 123.23C74.396 122.584 75.3888 121.938 76.5849 121.369C77.7153 120.729 78.8456 120.089 80.0418 119.521C81.2379 118.953 82.44 118.247 83.6362 117.678C86.1002 116.476 88.4985 115.202 90.819 114.131C91.9434 113.629 93.1336 113.198 94.252 112.833L94.3237 112.767L94.3955 112.701C94.3237 112.767 94.4673 112.635 94.3237 112.767L94.5331 112.707L94.8859 112.516C95.167 112.39 95.4481 112.265 95.5916 112.133C95.801 112.073 95.9445 111.941 96.1598 111.744C96.3033 111.613 96.5844 111.487 96.728 111.355C98.3607 110.255 99.7182 109.142 100.843 108.64C101.405 108.388 101.895 108.203 102.176 108.077C102.523 108.023 102.667 107.892 102.667 107.892C102.739 107.826 102.804 107.898 102.87 107.969C102.936 108.041 102.864 108.107 102.864 108.107C102.864 108.107 102.721 108.239 102.505 108.436C102.362 108.568 102.218 108.699 102.075 108.831C101.931 108.962 101.716 109.16 101.501 109.357C101.07 109.752 100.633 110.284 100.125 110.882C99.6168 111.481 98.9649 112.21 98.2413 113.006C98.026 113.203 97.8825 113.335 97.5954 113.598C97.3801 113.795 97.1648 113.993 96.8778 114.256C96.5907 114.519 96.3814 114.579 96.1661 114.776L95.873 115.177L95.7295 115.309L95.3766 115.5C94.3898 116.009 93.2655 116.511 92.0035 117.008C90.8133 117.439 89.6172 118.007 88.3612 118.366C87.0993 118.862 85.9091 119.293 84.6472 119.79C83.3852 120.286 82.1891 120.854 80.9271 121.351C79.6652 121.848 78.5348 122.488 77.3447 122.918C76.2203 123.421 75.1617 123.995 74.0373 124.498C73.0505 125.006 72.0637 125.515 71.1486 125.957C70.2994 126.472 69.4561 126.849 68.8162 127.303C68.1105 127.686 67.4705 128.141 66.9741 128.464C65.9814 129.11 65.4132 129.499 65.4132 129.499C65.3414 129.564 65.2756 129.493 65.2098 129.421C65.2158 129.283 65.2876 129.218 65.2876 129.218Z" fill="#333333"/>
<path d="M62.7812 125.042C71.2738 119.898 79.7663 114.754 88.8571 111.702C92.3857 109.788 97.29 107.934 100.22 103.926" fill="white"/>
<path d="M62.7153 124.971C64.7069 123.541 66.7642 122.183 68.8215 120.825L71.8716 118.821L74.9875 116.889L78.1693 115.029L81.4826 113.312L84.8617 111.667C85.986 111.164 87.1104 110.662 88.3006 110.231L88.1571 110.363C88.7193 110.112 89.2157 109.789 89.7778 109.537C90.34 109.286 90.8305 109.101 91.3926 108.849C91.9548 108.598 92.4453 108.413 93.0075 108.161C93.5696 107.91 94.0601 107.725 94.4847 107.467L95.1904 107.085C95.4715 106.959 95.7526 106.833 95.8961 106.702L96.6018 106.319C96.8829 106.193 97.164 106.068 97.3076 105.936L98.0193 105.416C98.2346 105.218 98.5157 105.093 98.731 104.895C99.1615 104.5 99.6579 104.177 100.089 103.783C100.16 103.717 100.226 103.789 100.292 103.86C100.358 103.932 100.358 103.932 100.286 103.998C99.9869 104.536 99.6879 105.075 99.3889 105.613C99.0241 106.079 98.6593 106.546 98.2228 107.078C98.0075 107.276 97.7922 107.473 97.6427 107.742L96.9968 108.334C96.7815 108.532 96.5662 108.729 96.3509 108.927L95.6392 109.447C95.1428 109.77 94.6464 110.093 94.15 110.416C93.6536 110.739 93.1573 111.062 92.5951 111.313C92.0987 111.636 91.5365 111.888 91.1119 112.145C90.6155 112.468 90.125 112.653 89.6287 112.976C89.4851 113.108 89.4134 113.174 89.3476 113.102C88.2291 113.467 87.1107 113.832 85.9206 114.263L82.5594 115.495L79.258 116.937L75.9506 118.516C73.7677 119.593 71.5847 120.67 69.4676 121.818L62.9785 125.258C62.9067 125.324 62.8409 125.252 62.7752 125.18C62.6436 125.037 62.7153 124.971 62.7153 124.971Z" fill="#333333"/>
<path d="M60.9265 120.138C69.419 114.994 77.1939 110.507 86.2847 107.456C89.8133 105.542 94.7176 103.687 97.6479 99.6797" fill="white"/>
<path d="M60.8607 120.067C62.7805 118.703 64.766 117.411 66.7516 116.119C68.7372 114.827 70.7885 113.606 72.8399 112.386C74.9571 111.237 77.0742 110.089 79.1854 109.078L82.4868 107.636C83.6112 107.134 84.7355 106.631 85.7882 106.194L85.5848 106.117C86.6434 105.542 87.6302 105.034 88.7546 104.531C89.3168 104.28 89.8072 104.095 90.3694 103.843C90.9316 103.592 91.422 103.407 91.8466 103.149L92.5523 102.767C92.8334 102.641 93.1145 102.515 93.2581 102.384L93.9638 102.001C94.2449 101.875 94.526 101.75 94.6695 101.618L95.3812 101.098C95.5965 100.9 95.8776 100.775 96.0929 100.577C96.5235 100.182 97.0199 99.8594 97.4504 99.4646C97.5222 99.3988 97.588 99.4706 97.6538 99.5423C97.7196 99.6141 97.7196 99.6141 97.6478 99.6799C97.3488 100.218 97.0498 100.757 96.7508 101.295C96.3861 101.761 96.0213 102.228 95.5847 102.76C95.3694 102.958 95.1541 103.155 95.0046 103.424L94.3587 104.016C93.9281 104.411 93.4317 104.734 92.9294 105.195C92.433 105.518 91.9366 105.841 91.4402 106.164C90.9438 106.487 90.4474 106.81 89.8852 107.061C88.8266 107.635 87.8398 108.144 86.853 108.652C86.7812 108.718 86.6437 108.712 86.6437 108.712C84.4727 109.514 82.2418 110.106 79.999 110.974C77.822 111.913 75.7168 112.786 73.5398 113.726L70.37 115.311L67.2002 116.896C65.0831 118.045 63.0377 119.127 60.8547 120.204C60.783 120.27 60.7172 120.198 60.6514 120.126C60.7889 120.132 60.8607 120.067 60.8607 120.067Z" fill="#333333"/>
<path d="M38.1988 119.841C53.7486 110.868 69.8966 103.989 84.7883 94.298C88.6765 99.9795 92.5647 105.661 95.7352 112.001C102.675 126.773 109.614 141.545 116.553 156.318C121.638 166.186 126.783 174.679 132.585 183.889C112.131 194.716 90.3611 204.108 70.5055 217.029C55.6704 193.645 45.0815 167.689 32.3994 142.33" fill="white"/>
<path d="M38.133 119.77C39.975 118.609 41.9546 117.455 43.7966 116.294L49.5919 112.962C53.4076 110.785 57.3608 108.613 61.3081 106.579L67.0974 103.385L72.8867 100.191L78.5444 96.8526L84.1422 93.3054C84.7104 92.9165 85.5298 93.0899 85.9186 93.6581C87.1509 95.4343 88.3173 97.1388 89.5496 98.915C90.7818 100.691 91.8765 102.462 93.037 104.304C93.6173 105.225 94.1975 106.146 94.6402 107.061L96.1716 109.884L96.9373 111.295C97.1885 111.857 97.4458 112.282 97.6312 112.772L98.9533 115.655L109.105 138.974C109.985 140.942 110.798 142.837 111.678 144.805L114.322 150.571L116.966 156.336L120.035 161.844L123.169 167.424L124.772 170.181L126.447 172.872L133.219 183.572C133.41 183.925 133.321 184.403 132.962 184.732L132.89 184.798L125.127 189.009L117.37 193.083L101.725 201.087L93.9677 205.161L86.2706 209.444L78.705 213.871L71.3369 218.513L71.2651 218.579C70.4876 219.027 69.6024 218.782 69.1478 218.142C67.3473 215.17 65.4809 212.126 63.7521 209.087L58.7092 199.841L54.0192 190.404L49.5386 180.906C48.0909 177.742 46.6432 174.579 45.1297 171.343L40.8583 161.786L32.3156 142.671C32.2498 142.6 32.3216 142.534 32.3934 142.468C32.4651 142.402 32.5309 142.474 32.5967 142.546C34.2538 145.65 35.9108 148.754 37.502 151.786C39.1591 154.89 40.6785 157.988 42.2638 161.158L46.9538 170.595C48.5391 173.765 50.0585 176.863 51.578 179.961L56.3398 189.333L61.3288 198.232L66.4494 207.275C68.2499 210.247 70.0505 213.22 71.851 216.192L69.6679 215.684L77.1736 211.048L84.8767 206.627L92.7055 202.488L100.528 198.486C105.809 195.889 111.09 193.293 116.365 190.834L124.248 187.042L132.136 183.111L131.879 184.272L125.395 173.309L123.792 170.552L122.26 167.729L119.263 162.155L116.266 156.581L113.484 150.81L110.703 145.038C109.752 143.137 108.8 141.235 107.849 139.333L96.6328 116.726L95.2389 113.909C94.9817 113.484 94.7305 112.922 94.539 112.569L93.7733 111.158L92.3077 108.407C91.7933 107.557 91.213 106.636 90.6328 105.715C89.5381 103.945 88.4434 102.175 87.2111 100.399C86.1165 98.6283 84.8842 96.852 83.7177 95.1476L85.4941 95.5003L79.8305 98.9758L73.9754 102.098L68.1203 105.221L62.1336 108.2L50.1662 114.021L44.2513 116.934C42.2776 117.951 40.304 118.968 38.3304 119.985C38.2586 120.051 38.1928 119.979 38.127 119.907C38.0612 119.835 38.133 119.77 38.133 119.77Z" fill="#333333"/>
<path d="M31.5625 145.74C33.1769 140.297 39.3971 139.878 42.3274 135.87C39.6955 133 40.5922 128.215 38.6779 124.686C38.0199 123.969 37.4216 121.875 36.7637 121.158C36.704 122.533 36.6443 123.909 36.5846 125.284C34.9106 132.103 31.203 138.144 31.5625 145.74Z" fill="white"/>
<path d="M31.5625 145.74L31.8076 144.855C31.8913 144.514 32.0408 144.245 32.1245 143.904C32.274 143.635 32.4235 143.365 32.573 143.096C32.7225 142.827 33.0096 142.564 33.1591 142.295C33.5957 141.762 34.0263 141.368 34.5286 140.907C35.031 140.446 35.5274 140.123 36.0955 139.735C37.1601 139.023 38.2246 138.311 39.1516 137.593C39.648 137.27 40.0786 136.875 40.5092 136.481L41.0175 135.882L41.46 135.213L41.532 136.732L40.9398 136.086C40.7424 135.87 40.6168 135.589 40.4194 135.374C40.0963 134.878 39.9109 134.387 39.6596 133.825C39.2229 132.772 39.0613 131.732 38.828 130.757C38.5946 129.782 38.4988 128.813 38.2595 127.976C38.1399 127.557 38.0202 127.138 37.9005 126.72L37.6493 126.158L37.398 125.595L37.6612 125.883C37.4638 125.667 37.2664 125.452 37.2066 125.243C37.075 125.099 37.0152 124.89 36.8836 124.746C36.6922 124.393 36.5665 124.112 36.3751 123.759C36.2495 123.478 36.1239 123.197 35.9982 122.916C35.9444 122.569 35.9503 122.432 35.8845 122.36C35.8187 122.288 35.8187 122.288 35.7529 122.216L38.2051 121.289C38.1454 122.665 38.0857 124.04 38.026 125.416L38.0201 125.554L38.0141 125.691L37.1471 128.203L36.2083 130.781L34.2051 135.656C33.8942 136.469 33.5833 137.283 33.2723 138.096L32.8717 139.388C32.7163 139.795 32.5608 140.202 32.4711 140.68L32.2141 141.84C32.1244 142.319 31.9689 142.726 31.951 143.138C31.8434 144.029 31.6701 144.849 31.5625 145.74ZM31.5625 145.74C31.4607 144.909 31.365 143.94 31.2632 143.108C31.2153 142.624 31.2332 142.211 31.3229 141.733L31.3826 140.357C31.4005 139.944 31.4901 139.466 31.5798 138.987L31.777 137.618C32.0222 136.733 32.1298 135.841 32.3749 134.956C32.62 134.071 32.8652 133.186 33.1043 132.438L33.8338 129.92L34.5632 127.402L35.1551 124.878L35.1432 125.153C35.2028 123.777 35.2625 122.402 35.3222 121.026L35.3282 120.889C35.364 120.063 36.0099 119.471 36.7635 119.573C37.1762 119.591 37.5829 119.746 37.7743 120.099C37.9717 120.314 38.1691 120.529 38.2289 120.739C38.3605 120.882 38.4204 121.092 38.552 121.235C38.7434 121.588 38.869 121.869 39.0604 122.222L39.4373 123.065C39.4971 123.275 39.5629 123.346 39.6287 123.418C39.6945 123.49 39.6945 123.49 39.7603 123.562L40.0235 123.849L40.4004 124.692L40.7115 125.464C40.8969 125.954 41.0106 126.51 41.1243 127.066C41.2859 128.107 41.5193 129.082 41.6151 130.051C41.7108 131.02 41.8784 131.923 42.1177 132.76C42.2374 133.179 42.4288 133.532 42.5485 133.95L42.8715 134.447L43.1945 134.943L43.3919 135.158C43.6491 135.583 43.6253 136.133 43.3382 136.397L42.6146 137.192L41.8251 137.916C41.257 138.305 40.7546 138.765 40.1924 139.017C39.0621 139.657 37.9377 140.159 36.8074 140.799C36.2452 141.05 35.7488 141.373 35.2524 141.696C34.756 142.02 34.2596 142.343 33.829 142.737C33.6137 142.935 33.3984 143.132 33.1831 143.33C32.9678 143.527 32.8183 143.796 32.603 143.993C32.4535 144.263 32.2382 144.46 32.0887 144.729L31.5625 145.74Z" fill="#333333"/>
<path d="M72.4167 188.858C80.9093 183.714 88.6841 179.227 97.7749 176.176C101.304 174.262 106.208 172.407 109.138 168.4" fill="white"/>
<path d="M72.3509 188.787C74.2707 187.423 76.2563 186.131 78.2418 184.839C80.2274 183.547 82.2788 182.326 84.3301 181.106C86.4473 179.958 88.5645 178.809 90.6756 177.798L93.977 176.356C95.1014 175.854 96.2258 175.351 97.2784 174.915L97.075 174.837C98.1336 174.263 99.1204 173.754 100.245 173.252C100.807 173 101.297 172.815 101.86 172.564C102.422 172.312 102.912 172.127 103.337 171.87L104.043 171.487C104.324 171.361 104.605 171.236 104.748 171.104L105.454 170.721C105.735 170.595 106.016 170.47 106.16 170.338L106.871 169.818C107.087 169.62 107.368 169.495 107.583 169.297C108.014 168.903 108.51 168.58 108.941 168.185C109.012 168.119 109.078 168.191 109.144 168.263C109.21 168.334 109.21 168.334 109.138 168.4C108.839 168.938 108.54 169.477 108.241 170.015C107.876 170.482 107.511 170.948 107.075 171.481C106.86 171.678 106.644 171.875 106.495 172.144L105.849 172.737C105.418 173.131 104.922 173.454 104.42 173.915C103.923 174.238 103.427 174.561 102.93 174.884C102.434 175.207 101.938 175.53 101.375 175.781C100.317 176.356 99.3301 176.864 98.3432 177.373C98.2715 177.438 98.1339 177.432 98.1339 177.432C95.9629 178.234 93.732 178.826 91.4892 179.694C89.3123 180.633 87.207 181.507 85.03 182.446L81.8603 184.031L78.6905 185.616C76.5733 186.765 74.5279 187.848 72.345 188.924C72.2732 188.99 72.2074 188.918 72.1416 188.847C72.2792 188.853 72.3509 188.787 72.3509 188.787Z" fill="#333333"/>
<path d="M70.5022 185.33C77.6788 178.75 86.7696 175.699 95.2024 171.93C99.4487 169.358 102.977 167.444 106.566 164.154" fill="white"/>
<path d="M70.4365 185.258L73.0201 182.89C73.9471 182.172 74.874 181.454 75.8728 180.67C76.8656 180.024 77.8584 179.378 78.8511 178.732L81.9611 176.938L85.1309 175.352L88.3006 173.767L91.4704 172.182C92.529 171.608 93.5158 171.099 94.6402 170.597L94.4967 170.728C95.4894 170.082 96.4763 169.574 97.5348 168.999C98.5217 168.491 99.5802 167.917 100.567 167.408C101.554 166.9 102.541 166.391 103.599 165.817C104.52 165.237 105.579 164.663 106.637 164.088C106.709 164.022 106.775 164.094 106.841 164.166C106.907 164.238 106.835 164.304 106.835 164.304C106.105 165.237 105.376 166.17 104.58 167.031C103.719 167.821 102.858 168.61 101.931 169.328C101.004 170.046 100.011 170.692 99.0842 171.41C98.0914 172.056 97.1703 172.636 96.1776 173.282L96.1058 173.348L96.034 173.414C93.857 174.353 91.6202 175.083 89.3774 175.95L85.9504 177.111L82.7208 178.487L79.557 179.934C78.4984 180.509 77.5116 181.017 76.453 181.591C75.4603 182.238 74.4734 182.746 73.4807 183.392L70.6339 185.474C70.5621 185.54 70.4963 185.468 70.4305 185.396C70.3647 185.324 70.3647 185.324 70.4365 185.258Z" fill="#333333"/>
<path d="M67.93 181.084C70.8603 177.076 75.1066 174.504 79.2931 173.307C88.384 170.256 96.8765 165.112 105.369 159.967" fill="white"/>
<path d="M67.8643 181.012C67.8643 181.012 68.3008 180.48 68.9646 179.475C69.3294 179.008 69.8377 178.41 70.4119 177.884C70.6989 177.621 71.0578 177.292 71.4166 176.963C71.7754 176.634 72.2 176.377 72.5589 176.048C73.4141 175.396 74.3351 174.815 75.3937 174.241C76.4523 173.667 77.5766 173.164 78.8386 172.668C79.963 172.165 81.2249 171.669 82.4151 171.238C83.6112 170.67 84.8074 170.101 86.0035 169.533C87.1339 168.893 88.4018 168.259 89.5321 167.619C90.6625 166.979 91.7928 166.339 92.9232 165.699C94.0535 165.058 95.1121 164.484 96.1647 164.047C97.1515 163.539 98.2041 163.102 99.1192 162.66C100.034 162.217 100.878 161.84 101.649 161.529C102.421 161.218 103.055 160.901 103.682 160.721C104.807 160.219 105.501 160.111 105.501 160.111C105.572 160.045 105.638 160.117 105.704 160.189C105.77 160.261 105.698 160.326 105.698 160.326C105.698 160.326 103.683 162.306 100.411 164.645C99.6278 165.231 98.635 165.877 97.6422 166.523C96.6495 167.169 95.5909 167.744 94.4605 168.384C93.3302 169.024 92.0682 169.52 90.8721 170.089C89.676 170.657 88.414 171.154 87.0803 171.716C85.8184 172.213 84.5564 172.709 83.2287 173.134C81.9009 173.559 80.645 173.918 79.4548 174.348C78.2706 174.642 77.1522 175.006 76.1654 175.515C75.1127 175.952 74.1259 176.46 73.2767 176.975C72.852 177.232 72.4274 177.489 72.1404 177.752C71.7815 178.081 71.4287 178.273 71.1416 178.536C70.5017 178.99 70.0651 179.523 69.5628 179.983C68.7674 180.845 68.3308 181.377 68.3308 181.377C68.259 181.443 68.1215 181.437 68.1215 181.437C67.8583 181.15 67.7925 181.078 67.8643 181.012Z" fill="#333333"/>
<path d="M65.3577 176.837C68.288 172.83 72.5343 170.257 76.7209 169.061C85.8117 166.01 94.3042 160.865 102.797 155.721" fill="white"/>
<path d="M65.292 176.766C65.292 176.766 65.7286 176.233 66.3923 175.228C66.7571 174.762 67.2655 174.164 67.8396 173.637C68.1267 173.374 68.4855 173.045 68.8443 172.716C69.2031 172.387 69.6278 172.13 69.9866 171.801C70.8418 171.149 71.7628 170.569 72.8214 169.994C73.88 169.42 75.0044 168.918 76.2663 168.421C77.3907 167.919 78.6526 167.422 79.8428 166.991C81.039 166.423 82.2351 165.855 83.4313 165.286C84.5616 164.646 85.8295 164.012 86.9599 163.372C88.0902 162.732 89.2205 162.092 90.3509 161.452C91.4812 160.812 92.5398 160.238 93.5924 159.801C94.5792 159.292 95.6319 158.856 96.5469 158.413C97.462 157.97 98.3052 157.593 99.0768 157.282C99.8483 156.971 100.482 156.654 101.11 156.475C102.235 155.972 102.928 155.864 102.928 155.864C103 155.799 103.066 155.87 103.132 155.942C103.198 156.014 103.126 156.08 103.126 156.08C103.126 156.08 101.11 158.06 97.839 160.399C97.0555 160.985 96.0628 161.631 95.07 162.277C94.0772 162.923 93.0186 163.497 91.8883 164.137C90.7579 164.777 89.496 165.274 88.2998 165.842C87.1037 166.41 85.8417 166.907 84.508 167.469C83.2461 167.966 81.9842 168.462 80.6564 168.887C79.3287 169.312 78.0727 169.671 76.8825 170.102C75.6983 170.395 74.5799 170.76 73.5931 171.268C72.5405 171.705 71.5537 172.214 70.7044 172.728C70.2798 172.985 69.8552 173.242 69.5681 173.506C69.2093 173.835 68.8564 174.026 68.5693 174.289C67.9294 174.744 67.4929 175.276 66.9905 175.737C66.1951 176.598 65.7585 177.13 65.7585 177.13C65.6868 177.196 65.5492 177.19 65.5492 177.19C65.286 176.903 65.2202 176.831 65.292 176.766Z" fill="#333333"/>
<path d="M62.7856 172.591C71.3378 166.071 82.522 162.422 92.3901 157.337C94.5431 155.363 97.4137 152.731 100.225 151.475" fill="white"/>
<path d="M62.7199 172.52C63.7904 171.67 64.9327 170.755 66.0032 169.906C67.1395 169.128 68.3476 168.285 69.5497 167.579C70.7518 166.873 71.9539 166.167 73.156 165.461L76.894 163.487L84.3639 159.676C85.6318 159.042 86.8339 158.336 88.03 157.768C89.298 157.134 90.4941 156.566 91.756 156.069L91.4032 156.261C91.9773 155.734 92.689 155.214 93.3289 154.759C94.0406 154.239 94.6805 153.784 95.458 153.335C96.2355 152.887 96.9412 152.504 97.6469 152.121C98.0656 152.001 98.4185 151.81 98.8371 151.69C99.2558 151.571 99.6744 151.451 100.093 151.331C100.165 151.266 100.231 151.337 100.296 151.409C100.362 151.481 100.29 151.547 100.29 151.547L99.2917 152.33L98.4305 153.12C98.1435 153.383 97.8564 153.646 97.5694 153.909C97.2823 154.173 96.9952 154.436 96.774 154.771L93.3831 158.276C93.3113 158.342 93.3113 158.342 93.2395 158.408L93.096 158.539C91.8939 159.245 90.626 159.879 89.3581 160.513C88.0902 161.147 86.7624 161.572 85.5005 162.069C82.9048 163.128 80.381 164.121 77.7853 165.179L73.9935 166.807L70.1957 168.571C68.9278 169.206 67.7975 169.846 66.5296 170.48L62.989 172.669C62.9173 172.735 62.8515 172.663 62.7857 172.591C62.6481 172.585 62.7199 172.52 62.7199 172.52Z" fill="#333333"/>
<path d="M60.2136 168.345C63.0246 167.089 65.8952 164.457 68.0482 162.483C77.9163 157.398 89.6987 155.842 97.6526 147.229" fill="white"/>
<path d="M60.1477 168.273L61.2063 167.699L62.1991 167.053C62.839 166.599 63.4849 166.006 64.1248 165.552C65.3449 164.433 66.4931 163.38 67.6473 162.19L67.7191 162.124L69.5552 161.101L71.5348 159.947C72.8027 159.313 74.1364 158.75 75.3983 158.254L79.3277 156.633C80.6614 156.07 81.8575 155.502 83.1254 154.868C83.7594 154.551 84.3934 154.234 84.9555 153.983C85.5895 153.665 86.1517 153.414 86.7856 153.097C87.4196 152.78 87.9818 152.529 88.6157 152.212L90.4458 151.326L92.2101 150.369L94.0462 149.346L95.8165 148.252C96.3846 147.863 96.9528 147.474 97.521 147.085C97.5927 147.019 97.6585 147.091 97.7243 147.163C97.7901 147.235 97.7183 147.301 97.7183 147.301C97.3476 147.905 96.9768 148.509 96.4685 149.107C96.0319 149.639 95.5236 150.237 95.087 150.77C94.5847 151.23 94.0106 151.757 93.5082 152.217L91.7977 153.521L89.9557 154.682C89.3218 154.999 88.7536 155.388 88.0479 155.771C87.4139 156.088 86.78 156.405 86.0802 156.65C85.3805 156.895 84.7465 157.212 84.1185 157.392L76.0803 160.006C74.7526 160.431 73.4906 160.928 72.1629 161.352L70.2012 162.094L68.3053 162.908L68.4488 162.776C67.163 163.823 65.8772 164.87 64.5256 165.845C63.8857 166.299 63.174 166.82 62.4683 167.203L61.4097 167.777L60.2853 168.279C60.2135 168.345 60.1477 168.273 60.0819 168.202C60.076 168.339 60.1477 168.273 60.1477 168.273Z" fill="#333333"/>
<path d="M57.6411 164.099C65.416 159.612 73.9085 154.468 82.9993 151.417C87.9036 149.562 92.1498 146.99 95.0801 142.982" fill="white"/>
<path d="M57.5754 164.027C57.5754 164.027 59.8481 162.472 63.251 160.276C64.1003 159.762 65.0213 159.182 66.0141 158.536C67.0069 157.89 68.0655 157.315 69.1958 156.675C70.3261 156.035 71.4565 155.395 72.5868 154.755C73.783 154.187 74.9851 153.481 76.253 152.847C77.4491 152.278 78.7171 151.644 79.979 151.148C81.2409 150.651 82.3653 150.149 83.5615 149.58C84.1895 149.401 84.6858 149.078 85.1763 148.892C85.6667 148.707 86.2289 148.456 86.7911 148.204C87.2815 148.019 87.7779 147.696 88.2683 147.511C88.6929 147.253 89.1834 147.068 89.608 146.811C90.0326 146.553 90.4572 146.296 90.8101 146.105C91.163 145.913 91.5218 145.584 91.8746 145.393C92.5146 144.938 93.0827 144.549 93.5133 144.155C94.3745 143.365 94.9427 142.976 94.9427 142.976C95.0144 142.911 95.0802 142.982 95.146 143.054C95.2118 143.126 95.2118 143.126 95.1401 143.192C95.1401 143.192 94.8351 143.867 94.2371 144.944C93.8723 145.411 93.4298 146.081 92.9214 146.679C92.3414 147.343 91.6895 148.072 90.8343 148.724C90.0448 149.448 89.1179 150.166 88.0593 150.74C87.5629 151.063 87.0665 151.386 86.4325 151.703C85.8704 151.955 85.2364 152.272 84.6742 152.523C84.3931 152.649 84.112 152.774 83.7651 152.828L83.6276 152.822L83.4182 152.882L83.2807 152.876L82.862 152.996C82.234 153.175 81.606 153.355 80.9781 153.534C79.7221 153.893 78.4601 154.39 77.1982 154.886C75.9363 155.383 74.7401 155.951 73.4782 156.448C72.282 157.016 71.0859 157.584 69.9615 158.087C67.7068 159.229 65.5956 160.24 63.7655 161.126C60.1711 162.968 57.707 164.171 57.707 164.171C57.6353 164.236 57.5695 164.165 57.5037 164.093L57.5754 164.027Z" fill="#333333"/>
<path d="M55.7268 160.57C60.7504 155.964 65.7143 152.734 71.3362 150.222C79.0514 147.111 86.7069 145.376 92.5078 138.736" fill="white"/>
<path d="M55.6611 160.498C55.6611 160.498 56.1635 160.038 57.0246 159.248C57.4552 158.853 57.9576 158.393 58.6035 157.801C59.1776 157.274 59.8953 156.616 60.7505 155.964C61.5339 155.378 62.3951 154.589 63.3879 153.943C64.3807 153.296 65.4452 152.585 66.5098 151.873C67.5743 151.161 68.7705 150.593 69.9726 149.887L70.8877 149.444C70.9594 149.378 70.9594 149.378 71.1687 149.318L71.3781 149.259L71.8685 149.073C72.5025 148.756 73.1304 148.577 73.7644 148.26C74.9605 147.691 76.2225 147.195 77.4844 146.698C78.6806 146.13 79.8049 145.627 80.9293 145.125C82.1195 144.694 83.1063 144.186 84.1589 143.749C84.6494 143.563 85.2115 143.312 85.6362 143.055C86.1266 142.87 86.5512 142.612 86.9758 142.355C87.8909 141.912 88.6026 141.392 89.3083 141.009C90.014 140.626 90.5164 140.166 91.0128 139.843C92.0056 139.197 92.5737 138.808 92.5737 138.808C92.6455 138.742 92.7113 138.814 92.7771 138.886C92.8429 138.957 92.7711 139.023 92.7711 139.023C92.7711 139.023 92.4003 139.627 91.7366 140.632C91.3718 141.099 90.9292 141.769 90.3551 142.295C90.068 142.558 89.7092 142.887 89.4162 143.288C89.0574 143.617 88.7643 144.018 88.2679 144.341C87.4127 144.993 86.4857 145.71 85.4271 146.285C84.3686 146.859 83.2382 147.499 82.1138 148.002C80.9177 148.57 79.6617 148.929 78.334 149.354C77.078 149.713 75.7503 150.137 74.5601 150.568L72.6702 151.244L72.1797 151.43L71.9704 151.489C71.9704 151.489 71.8986 151.555 71.7611 151.549L70.846 151.992C69.6499 152.56 68.4597 152.991 67.3294 153.631C66.2708 154.205 65.2122 154.78 64.1536 155.354C63.1668 155.862 62.3116 156.514 61.3906 157.095C60.5413 157.609 59.7638 158.058 59.1179 158.65C58.478 159.105 57.9039 159.631 57.4075 159.954C56.4805 160.672 55.9124 161.061 55.9124 161.061C55.8406 161.126 55.7748 161.055 55.709 160.983C55.5893 160.564 55.5893 160.564 55.6611 160.498Z" fill="#333333"/>
<path d="M53.1545 156.324C60.3311 149.744 69.4219 146.693 78.5724 142.266C82.8187 139.694 87.0053 138.497 89.9356 134.49" fill="white"/>
<path d="M53.0888 156.252L55.8159 153.752C56.8147 152.968 57.7417 152.25 58.7404 151.467C59.7332 150.821 60.7978 150.109 61.7905 149.463C62.8491 148.889 63.9137 148.177 64.9723 147.603C67.0894 146.454 69.3441 145.311 71.5271 144.235L74.7686 142.584C75.8272 142.009 76.8858 141.435 78.0102 140.932L77.9384 140.998C78.4348 140.675 78.997 140.424 79.4934 140.101C80.0556 139.85 80.552 139.527 81.0424 139.341L84.1344 137.959C84.6249 137.774 85.1213 137.451 85.6117 137.265C86.0363 137.008 86.5985 136.757 87.0949 136.434C87.5913 136.111 88.0159 135.854 88.5123 135.531C88.9429 135.136 89.4393 134.813 89.8699 134.418C89.9416 134.352 90.0074 134.424 90.0732 134.496C90.139 134.568 90.139 134.568 90.0673 134.633C89.7683 135.172 89.4693 135.71 89.1703 136.248C88.8055 136.715 88.4407 137.181 88.0041 137.714C87.5735 138.109 87.0712 138.569 86.6406 138.964C86.21 139.359 85.7136 139.682 85.1454 140.071C84.649 140.394 84.1526 140.717 83.6563 141.04L82.1013 141.937C81.6049 142.26 81.1145 142.445 80.6181 142.768C80.1217 143.091 79.6971 143.349 79.1349 143.6L79.0631 143.666C76.8143 144.671 74.5716 145.538 72.257 146.471C70.0142 147.339 67.7654 148.344 65.5885 149.283C64.4641 149.786 63.4055 150.36 62.3529 150.797C61.2943 151.371 60.2357 151.945 59.1113 152.448C58.1186 153.094 57.06 153.668 56.0672 154.314L53.1487 156.462C53.0769 156.527 53.0111 156.456 52.9453 156.384C53.0171 156.318 53.0171 156.318 53.0888 156.252Z" fill="#333333"/>
<path d="M50.5824 152.078C53.5127 148.07 58.4169 146.216 62.6632 143.644C71.754 140.592 79.5289 136.106 88.0214 130.961" fill="white"/>
<path d="M50.5167 152.006L51.6171 150.469C52.0477 150.074 52.4842 149.542 52.9866 149.081C53.4172 148.686 53.9853 148.297 54.4159 147.903L55.9111 146.796C56.9756 146.084 57.9684 145.438 59.0987 144.798C60.1573 144.224 61.2219 143.512 62.2147 142.866L62.2864 142.8L62.3582 142.734L68.8174 139.982C70.8628 138.9 72.9142 137.679 75.0254 136.668C76.0839 136.094 77.0708 135.586 78.1293 135.011L79.6783 134.252C80.2405 134 80.7309 133.815 81.2931 133.564C82.3517 132.989 83.4043 132.553 84.5945 132.122C85.7189 131.619 86.8373 131.255 87.9557 130.89C88.0275 130.824 88.0933 130.896 88.1591 130.967C88.2249 131.039 88.1531 131.105 88.1531 131.105C87.2919 131.894 86.359 132.75 85.432 133.468C84.505 134.185 83.5062 134.969 82.5793 135.687C81.5865 136.333 80.5937 136.979 79.6009 137.625C78.6081 138.271 77.5495 138.845 76.491 139.42C75.3666 139.922 74.314 140.359 73.1896 140.861L69.7566 142.159L62.9026 144.481L63.112 144.421C61.9816 145.061 60.8572 145.564 59.7987 146.138C58.6743 146.64 57.6157 147.215 56.4913 147.717L54.9363 148.614L53.3754 149.649L51.9461 150.828L50.6483 152.15C50.5765 152.215 50.439 152.209 50.439 152.209C50.5107 152.144 50.4449 152.072 50.5167 152.006Z" fill="#333333"/>
<path d="M48.7278 147.173C52.3161 143.883 56.5623 141.311 60.0909 139.397C69.1817 136.346 76.9566 131.859 85.4491 126.715" fill="white"/>
<path d="M48.6621 147.102L51.1739 144.799C51.3892 144.601 51.6045 144.404 51.8198 144.207L52.5315 143.686L53.8891 142.574C54.3196 142.179 54.816 141.856 55.3124 141.533L56.7358 140.492C57.2322 140.169 57.7286 139.846 58.225 139.523L59.7142 138.554L59.7859 138.488L66.1793 135.664C68.2247 134.582 70.2761 133.361 72.3873 132.35C74.4387 131.13 76.5499 130.119 78.7268 129.18C79.7854 128.605 80.838 128.169 82.0282 127.738C83.1526 127.236 84.271 126.871 85.3894 126.506C85.4612 126.44 85.527 126.512 85.5928 126.583C85.6586 126.655 85.5868 126.721 85.5868 126.721C84.7256 127.51 83.7927 128.366 82.8657 129.084C81.9387 129.801 80.9399 130.585 80.013 131.303C79.0202 131.949 78.0274 132.595 77.0346 133.241C76.0418 133.887 74.9832 134.461 73.9247 135.036C73.3625 135.287 72.8003 135.538 72.2381 135.789L70.6233 136.477L67.1844 137.913L60.3304 140.234L60.4679 140.24L58.9189 141C58.3567 141.251 57.9321 141.509 57.3699 141.76L55.9585 142.526C55.4621 142.849 54.9717 143.034 54.4753 143.357L53.0579 144.26L52.3462 144.781C52.1309 144.978 51.8498 145.104 51.6345 145.301L48.8595 147.317C48.7877 147.383 48.7219 147.311 48.6561 147.239C48.5903 147.167 48.5903 147.167 48.6621 147.102Z" fill="#333333"/>
<path d="M46.1558 142.927C54.708 136.407 65.8921 132.758 75.7602 127.673C77.9132 125.699 80.0662 123.725 82.8771 122.469" fill="white"/>
<path d="M46.09 142.856C47.1605 142.006 48.3028 141.091 49.3733 140.242C50.5096 139.464 51.7177 138.62 52.9198 137.915C54.1219 137.209 55.3241 136.503 56.5262 135.797L60.2641 133.823C62.7999 132.555 65.264 131.352 67.734 130.012C68.9361 129.306 70.204 128.672 71.466 128.176C72.7339 127.542 73.9958 127.045 75.2578 126.549L74.9707 126.812C75.5448 126.285 76.113 125.897 76.7529 125.442C77.3928 124.987 78.0327 124.533 78.6667 124.216C79.3724 123.833 80.0064 123.516 80.7779 123.205C81.4776 122.959 82.315 122.72 82.9429 122.541C83.0147 122.475 83.0805 122.547 83.1463 122.618C83.2121 122.69 83.1403 122.756 83.1403 122.756C82.5662 123.282 81.9981 123.671 81.4239 124.197C80.8498 124.724 80.3474 125.184 79.8451 125.645C79.3427 126.106 78.8344 126.704 78.332 127.164C77.8237 127.762 77.3214 128.223 76.8848 128.755C76.813 128.821 76.7413 128.887 76.7413 128.887L76.6695 128.953C75.4674 129.659 74.2653 130.365 72.9316 130.927C71.6637 131.561 70.4017 132.058 69.0022 132.548C66.3408 133.535 63.8169 134.528 61.2212 135.587L57.4294 137.214L53.6317 138.979C52.3638 139.613 51.2334 140.253 49.9655 140.887L46.425 143.077C46.3532 143.143 46.2874 143.071 46.2216 142.999C46.0182 142.921 46.09 142.856 46.09 142.856Z" fill="#333333"/>
<path d="M178.41 96.6601C180.007 95.5222 181.63 94.3292 183.282 93.2168C184.828 92.1894 186.374 91.1619 188.034 90.3214C191.653 88.5766 195.276 86.9677 198.949 85.2485C199.646 84.9003 200.338 84.4163 200.95 83.962C202.037 83.0577 201.965 82.4886 200.797 81.6815C200.186 81.2653 199.706 80.7089 199.71 79.9742C199.706 78.9677 200.059 78.059 200.467 77.1757C200.798 76.4581 201.295 75.8169 201.626 75.0993C202.459 73.0058 201.827 71.0395 200.043 69.6802C199.657 69.5018 199.377 69.2385 199.232 68.9709C198.918 68.491 198.506 68.3677 197.992 68.4653C197.101 68.6563 196.234 68.792 195.372 69.0637C192.357 70.0823 189.375 71.3176 186.483 72.795C183.404 74.387 180.355 76.0596 177.301 77.5964C174.086 79.1926 171.015 81.0564 168.029 83.0264C166.11 84.2831 164.215 85.4845 162.296 86.7412C161.629 87.17 160.907 87.5733 160.295 88.0276C157.318 90.2694 154.396 92.5366 151.363 94.7529C148.785 96.7102 147.451 99.3089 146.899 102.536C146.793 102.621 146.686 102.706 146.525 102.766C146.419 102.85 146.232 102.965 146.126 103.05C145.756 103.415 145.608 103.882 145.837 104.256C146.066 104.63 146.559 104.723 147.013 104.464C147.548 104.176 148.083 103.887 148.648 103.679C148.996 103.505 149.349 103.467 149.735 103.645C151.332 104.248 152.963 104.198 154.662 103.71C159.193 102.453 163.372 100.365 167.492 98.1148C173.03 95.1133 178.538 92.0312 183.992 88.9235C186.905 87.2551 189.819 85.5866 192.703 83.8375C194.117 82.9502 195.476 82.0374 196.861 81.0693C196.967 80.9844 197.073 80.8995 197.205 80.7594C197.582 81.5366 197.82 82.1821 198.168 82.8787C197.663 83.248 197.264 83.5325 196.809 83.7915C195.098 84.7424 193.467 85.6637 191.781 86.5595C191.326 86.8184 190.897 87.0222 190.413 87.2005C188.264 88.0834 186.06 88.9409 183.941 89.9045C181.635 90.9828 179.443 92.2479 177.222 93.4324C176.874 93.6064 176.445 93.8102 176.151 94.0097C175.459 94.4937 175.395 95.067 175.986 95.6744C176.266 95.9377 176.576 96.2818 176.856 96.5451C177.336 97.1015 177.799 97.1143 178.41 96.6601ZM181.962 88.3881C178.297 90.3792 174.606 92.4254 170.941 94.4165C168.426 95.8005 165.857 97.159 163.313 98.4623C160.34 99.9694 157.333 101.26 154.178 102.147C152.721 102.546 151.252 102.537 149.872 101.9C148.959 101.411 148.899 101.25 149.528 100.469C151.125 98.4602 152.973 96.6344 155.045 95.0465C156.638 93.7728 158.175 92.4736 159.798 91.2805C163.786 88.3 167.885 85.3705 172.331 83.1375C173.992 82.2969 175.648 81.3205 177.279 80.3992C177.627 80.2252 178.056 80.0214 178.485 79.8176C179.504 82.833 180.705 85.5978 182.952 87.8404C182.603 88.0145 182.31 88.214 181.962 88.3881ZM196.831 79.2475C192.975 82.0879 188.948 84.7159 184.608 86.864C183.139 85.9847 182.493 84.4812 181.691 83.1731C181.088 82.158 180.672 81.0283 180.231 79.9538C179.904 79.0662 180.006 78.8454 180.809 78.4124C182.146 77.6907 183.51 76.9138 184.877 76.2728C187.825 74.8209 190.772 73.369 193.72 71.9172C194.497 71.5393 195.304 71.2422 196.111 70.9451C196.433 70.8262 196.786 70.7881 196.969 70.5375C197.495 69.9771 197.992 70.2065 198.493 70.5718C198.744 70.7544 198.939 70.9116 199.19 71.0942C200.302 71.8758 200.752 73.2221 200.246 74.4621C199.541 76.2795 198.454 78.0545 196.831 79.2475Z" fill="black"/>
<path d="M159.755 117.916C159.105 117.147 158.43 116.434 157.594 115.78C156.702 115.1 155.772 114.938 154.693 115.244C154.099 115.371 153.615 115.55 153.109 115.048C152.659 114.573 152.426 114.063 152.46 113.409C152.507 113.163 152.498 112.891 152.545 112.645C152.677 111.634 152.533 111.366 151.62 110.878C150.732 110.334 149.785 110.5 148.838 110.665C146.999 111.022 145.483 109.518 145.7 107.743C145.764 107.17 145.853 106.541 145.862 105.942C145.87 105.343 145.505 104.974 145.068 104.906C144.631 104.838 144.231 105.122 144.325 105.5C144.511 106.256 144.261 106.944 144.201 107.653C144.193 108.252 144.158 108.906 144.366 109.471C145.105 111.352 147.313 112.372 149.224 111.714C149.547 111.595 149.815 111.451 150.142 111.468C150.549 111.455 150.987 111.523 151.318 111.676C151.675 111.774 151.793 112.097 151.696 112.453C151.573 112.865 151.449 113.277 151.407 113.659C151.249 114.725 151.657 115.583 152.387 116.322C153.062 117.036 153.856 117.202 154.77 116.82C154.85 116.79 154.986 116.786 155.148 116.726C155.661 116.629 156.129 116.777 156.6 117.062C157.322 117.529 157.993 118.107 158.451 118.854C158.68 119.228 158.935 119.547 159.296 119.78C160.829 120.957 162.46 121.777 164.613 121.9C163.776 121.246 163.054 120.779 162.383 120.201C161.462 119.441 160.49 118.791 159.755 117.916Z" fill="black"/>
<path d="M178.456 79.737C178.001 79.9959 177.598 80.1445 177.249 80.3185C175.619 81.2398 173.962 82.2163 172.302 83.0568C167.829 85.345 163.756 88.2193 159.768 91.1998C158.146 92.3929 156.608 93.6921 155.015 94.9658C152.972 96.6344 151.125 98.4602 149.473 100.443C148.844 101.224 148.903 101.386 149.816 101.874C151.226 102.592 152.64 102.576 154.122 102.121C157.278 101.234 160.365 99.9142 163.258 98.4368C165.802 97.1335 168.371 95.775 170.885 94.391C174.551 92.4 178.241 90.3537 181.907 88.3626C182.255 88.1885 182.548 87.989 182.841 87.7895C180.65 85.5723 179.474 82.7523 178.456 79.737Z" fill="white"/>
<path d="M199.24 70.9839C198.99 70.8012 198.795 70.6441 198.544 70.4614C198.043 70.0961 197.601 69.8922 197.02 70.4272C196.782 70.6522 196.429 70.6904 196.162 70.8347C195.355 71.1319 194.548 71.429 193.771 71.8068C190.823 73.2587 187.876 74.7105 184.928 76.1624C183.535 76.8586 182.197 77.5803 180.859 78.302C180.057 78.7351 179.929 79.0111 180.282 79.8435C180.723 80.918 181.139 82.0477 181.742 83.0628C182.519 84.4261 183.19 85.8743 184.659 86.7536C189.055 84.631 193.026 81.9775 196.882 79.1372C198.505 77.9441 199.592 76.1692 200.323 74.2965C200.803 73.1118 200.327 71.8207 199.24 70.9839Z" fill="white"/>
<path d="M100.794 168.87C100.347 128.85 39.26 127.125 63.5504 76.8613C84.3299 57.6413 153.674 61.2772 179.174 88.8467C204.675 116.416 200.639 224.126 171.567 227.002C138.376 230.285 118.404 204.252 100.794 168.87Z" fill="#0475C7" fill-opacity="0.15"/>
<path d="M209.024 160.759C208.881 160.515 208.502 161.01 207.508 162.741C207.206 163.21 206.844 163.773 206.465 164.269C206.086 164.764 205.691 165.192 205.373 165.594C204.643 166.356 203.984 166.728 203.984 166.728C203.846 166.848 203.77 166.874 203.632 166.994L203.748 166.442C204.165 164.396 204.335 162.362 204.335 160.312C204.351 156.28 203.456 152.267 201.32 148.971C200.243 147.289 198.893 145.847 197.344 144.62C195.719 143.418 193.896 142.431 191.969 141.699C190.882 141.338 189.718 141.004 188.57 140.737C188.493 140.764 188.416 140.79 188.34 140.816C186.912 141.451 187.373 142.318 187.626 142.671C187.642 142.738 187.719 142.712 187.736 142.78C188.79 143.005 189.861 143.298 190.871 143.685C192.688 144.308 194.325 145.213 195.763 146.331C197.202 147.45 198.443 148.783 199.393 150.288C201.293 153.299 202.182 156.948 202.117 160.777C202.084 162.692 201.881 164.592 201.524 166.544L201.48 166.705L201.431 166.502C201.381 166.3 201.392 166.003 201.343 165.8C201.321 165.369 201.282 164.869 201.26 164.438C201.238 164.006 201.277 163.48 201.332 163.022L201.315 162.955L201.299 162.887L201.282 162.82C203.198 162.823 198.685 162.756 199.102 162.759L199.042 162.853C198.378 162.861 198.548 162.876 199.042 162.853C198.998 163.015 198.938 163.109 198.971 163.244C198.883 163.567 198.855 163.796 198.844 164.092C198.707 165.237 198.877 166.277 199.031 167.249C199.13 167.655 199.245 168.128 199.267 168.559L199.498 169.506C199.58 169.843 199.663 170.181 199.762 170.587C199.992 171.533 200.223 172.479 200.454 173.425L200.767 174.709L200.849 175.047L200.882 175.182L200.899 175.249L200.915 175.317L201.168 174.645L202.024 172.01L202.469 170.76L202.732 169.791C202.809 169.765 202.886 169.738 202.886 169.738L203.04 169.686L203.254 169.539C203.545 169.367 203.775 169.288 204.05 169.048C204.264 168.901 204.555 168.729 204.769 168.582C204.769 168.582 204.906 168.462 205.181 168.222C205.455 167.982 205.927 167.527 206.383 167.006C206.839 166.484 207.201 165.921 207.547 165.29C208.178 164.123 208.535 163.195 208.475 163.289C208.963 161.878 209.15 160.935 209.024 160.759Z" fill="#202020"/>
<path d="M220.951 186.111L220.649 185.555L220.506 185.311L220.363 185.067C220.111 184.714 219.951 184.402 219.699 184.049L219.556 183.805L219.337 183.588L218.897 183.152C218.409 182.514 217.722 182.09 217.173 181.545C216.86 181.286 216.487 181.121 216.174 180.862L215.674 180.52C215.487 180.438 215.301 180.355 215.114 180.273C214.741 180.107 214.367 179.942 213.994 179.777C213.621 179.612 213.264 179.514 212.813 179.375L212.27 179.195L211.649 179.041C211.293 178.944 210.859 178.872 210.502 178.775C210.068 178.703 209.728 178.673 209.294 178.602L208.69 178.515C208.52 178.5 208.273 178.512 208.103 178.497C204.869 178.211 201.613 178.519 198.516 179.138C195.419 179.758 192.466 180.621 189.715 181.634C184.137 183.688 179.354 186.274 175.363 189.029C175.149 189.176 174.858 189.348 174.66 189.562L174.309 189.829L174.095 189.975C174.018 190.001 174.018 190.001 173.957 190.095C173.881 190.122 173.82 190.215 173.743 190.242C173.606 190.362 173.469 190.482 173.315 190.535C173.101 190.681 172.887 190.827 172.75 190.947C172.612 191.068 172.535 191.094 172.535 191.094C172.535 191.094 172.261 191.334 171.789 191.788C171.591 192.002 171.317 192.243 171.042 192.483C170.768 192.723 170.51 193.031 170.252 193.339C169.977 193.579 169.719 193.887 169.461 194.195C169.203 194.502 169.005 194.716 168.808 194.93C168.412 195.358 168.231 195.64 168.308 195.614C168.127 195.895 167.929 196.109 167.825 196.364C167.721 196.62 167.523 196.834 167.479 196.995C167.254 197.438 167.15 197.693 167.183 197.828C167.216 197.964 167.369 197.911 167.644 197.671C167.995 197.404 168.39 196.976 169.137 196.282C169.335 196.068 169.609 195.828 169.823 195.681C170.098 195.441 170.312 195.295 170.587 195.054C171.059 194.6 171.641 194.255 172.052 193.894C172.464 193.534 172.892 193.241 173.183 193.069C173.458 192.828 173.612 192.776 173.612 192.776C173.612 192.776 173.886 192.535 174.314 192.243C174.529 192.096 174.803 191.856 175.154 191.59C175.231 191.563 175.292 191.469 175.369 191.443C175.874 191.124 176.362 190.737 176.867 190.418C177.861 189.713 178.948 189.048 180.112 188.357C182.38 187.07 184.894 185.771 187.535 184.649C190.176 183.526 193.02 182.554 196.007 181.826C198.994 181.098 202.03 180.572 205.105 180.546C205.522 180.55 205.862 180.58 206.263 180.516C206.604 180.546 207.021 180.55 207.438 180.554L208.026 180.573C208.196 180.588 208.366 180.603 208.63 180.659C208.987 180.757 209.404 180.76 209.761 180.858C210.118 180.956 210.475 181.053 210.831 181.151L211.359 181.264C211.545 181.346 211.715 181.361 211.902 181.444C212.259 181.541 212.632 181.707 212.912 181.831C213.209 182.022 213.566 182.12 213.862 182.311C215.109 182.983 216.311 183.817 217.239 184.89L217.585 185.284C217.695 185.393 217.821 185.57 217.854 185.705C218.09 185.99 218.25 186.302 218.486 186.587C218.645 186.899 218.804 187.21 218.963 187.522C219.123 187.834 219.282 188.145 219.381 188.551C219.88 189.917 220.15 191.362 220.111 192.913C220.056 194.396 219.524 195.969 218.788 197.391C217.976 198.84 216.9 200.233 215.62 201.476C214.341 202.718 212.875 203.878 211.3 204.929C208.148 207.031 204.728 208.713 201.164 210.151C197.601 211.588 193.879 212.715 190.227 213.45C186.516 214.28 182.799 214.745 179.197 214.659C178.269 214.61 177.418 214.535 176.567 214.459C175.793 214.358 174.892 214.08 174.085 213.844C172.471 213.371 170.901 212.736 169.451 211.914C168.018 211.159 166.783 210.191 165.761 209.076C164.74 207.961 164.07 206.579 163.724 205.16C163.016 202.254 163.8 198.985 165.409 196.019C167.018 193.053 169.28 190.377 171.794 188.053C174.309 185.729 177.153 183.732 180.095 182.141C183.038 180.549 185.987 179.322 188.957 178.526C190.45 178.162 191.883 177.892 193.333 177.689C193.657 177.651 194.058 177.588 194.398 177.618L194.568 177.633L194.738 177.648C196.622 177.516 197.813 177.622 197.906 177.663C197.983 177.637 198.06 177.61 198.06 177.61C199.361 176.799 198.933 176.067 198.51 175.699C198.417 175.658 198.417 175.658 198.417 175.658C198.34 175.684 196.978 175.564 195.002 175.654L194.832 175.639L194.755 175.666L194.678 175.692C194.508 175.677 194.277 175.756 194.107 175.741C192.564 175.902 191.038 176.131 189.391 176.548C186.25 177.328 183.055 178.567 179.958 180.211C176.861 181.855 173.847 183.837 171.179 186.213C168.434 188.616 165.941 191.371 164.058 194.577C163.108 196.146 162.362 197.866 161.862 199.574C161.659 200.449 161.456 201.323 161.346 202.239C161.237 203.155 161.281 204.019 161.401 204.856C161.522 205.693 161.736 206.571 162.011 207.356C162.187 207.735 162.362 208.114 162.555 208.561C162.807 208.914 162.983 209.293 163.236 209.646C163.741 210.352 164.306 210.964 164.949 211.55C165.591 212.135 166.294 212.627 166.997 213.119C168.479 214.076 170.083 214.846 171.73 215.454C172.553 215.758 173.454 216.036 174.338 216.246C174.788 216.385 175.222 216.457 175.749 216.569C176.183 216.641 176.693 216.686 177.127 216.757C180.949 217.061 184.759 216.637 188.58 215.917C192.402 215.196 196.141 214.137 199.891 212.782C203.564 211.454 207.155 209.787 210.57 207.741C212.239 206.731 213.875 205.586 215.401 204.333C216.164 203.706 216.911 203.011 217.581 202.343C218.25 201.675 218.887 200.871 219.447 200.094C220.644 198.514 221.468 196.768 221.951 194.993C222.154 194.118 222.264 193.202 222.296 192.312C222.329 191.423 222.208 190.585 222.088 189.748C221.89 188.937 221.692 188.127 221.357 187.436C221.363 186.775 221.127 186.49 220.951 186.111Z" fill="#202020"/>
<path d="M203.041 188.133C201.838 188.324 200.405 188.594 199.296 188.827C198.187 189.06 197.325 189.281 197.325 189.281L195.31 189.897C189.496 191.665 183.687 193.797 177.993 196.402C176.873 196.931 175.677 197.487 174.573 198.084C174.496 198.11 174.436 198.204 174.436 198.204C173.744 199.465 174.661 199.81 175.248 199.829C175.342 199.871 175.325 199.803 175.402 199.777C176.506 199.18 177.626 198.651 178.746 198.121C184.209 195.595 189.941 193.489 195.678 191.748L197.386 191.237C197.386 191.237 198.846 190.738 200.307 190.239C201.767 189.739 203.228 189.24 203.074 189.293C205.501 188.317 207.049 187.495 203.041 188.133Z" fill="#202020"/>
<path d="M176.127 204.8C176.204 204.774 176.204 204.774 176.281 204.747C177.368 204.083 178.488 203.554 179.515 202.983C184.835 200.213 190.474 198.066 196.085 196.148L197.776 195.569C197.776 195.569 199.22 195.003 200.664 194.436C202.108 193.869 203.552 193.302 203.398 193.355C205.732 192.338 207.263 191.448 203.228 192.315C200.839 192.765 197.562 193.666 197.562 193.666L195.563 194.349C189.798 196.32 184.099 198.561 178.625 201.384C177.522 201.981 176.341 202.604 175.238 203.201C175.161 203.227 175.1 203.321 175.117 203.388C174.579 204.597 175.556 204.849 176.127 204.8Z" fill="#202020"/>
<path d="M190.298 202.811C189.145 203.205 187.761 203.678 186.702 204.114C185.626 204.481 184.797 204.838 184.797 204.838L182.847 205.724L181.865 206.133C180.745 206.662 179.548 207.218 178.428 207.747C178.351 207.773 178.29 207.867 178.29 207.867C177.522 209.155 178.516 209.474 179.103 209.493C179.197 209.534 179.18 209.467 179.257 209.44C180.377 208.911 181.497 208.382 182.617 207.852L183.583 207.376L185.241 206.663C185.241 206.663 186.652 205.961 188.047 205.191C189.458 204.489 190.776 203.746 190.699 203.772C191.786 203.108 192.719 202.496 192.824 202.241C192.928 201.985 192.28 202.06 190.298 202.811Z" fill="#202020"/>
</svg>
