<svg width="24" height="28" viewBox="0 0 24 28" fill="none" xmlns="http://www.w3.org/2000/svg"><path d="M10.807 0h5.016v21.192c-2.57.446-4.462.624-6.514.624C3.19 21.816 0 19.292 0 14.443c0-4.667 3.384-7.698 8.625-7.698.814 0 1.433.06 2.181.237L10.807 0Zm0 10.669a5.442 5.442 0 0 0-1.692-.242c-2.54 0-4.003 1.427-4.003 3.93 0 2.437 1.397 3.773 3.973 3.773.554 0 1.008-.027 1.722-.118v-7.347.004Zm12.993-3.6v10.613c0 3.655-.29 5.415-1.168 6.927-.814 1.459-1.892 2.38-4.103 3.391l-4.656-2.024c2.21-.953 3.289-1.781 3.973-3.062.714-1.309.943-2.826.943-6.809V7.068H23.8ZM18.789.022H23.8v4.699h-5.011v-4.7Z" fill="#626262"/></svg>