<svg width="33" height="24" viewBox="0 0 33 24" fill="none" xmlns="http://www.w3.org/2000/svg"><path d="M19.227 10.715h2.913a.254.254 0 0 0 .18-.075.261.261 0 0 0 .076-.183v-2.63a.26.26 0 0 0-.075-.183.254.254 0 0 0-.18-.076h-2.914a.253.253 0 0 0-.18.076.26.26 0 0 0-.075.182v2.631c0 .142.114.258.255.258Zm-4.062-7.567h2.912a.254.254 0 0 0 .181-.076.261.261 0 0 0 .075-.183V.258a.261.261 0 0 0-.075-.183.254.254 0 0 0-.18-.075h-2.913a.253.253 0 0 0-.18.076.26.26 0 0 0-.074.182v2.63c0 .143.112.259.254.259v.001Zm0 3.784h2.912a.255.255 0 0 0 .18-.077.262.262 0 0 0 .076-.183v-2.63a.261.261 0 0 0-.075-.182.254.254 0 0 0-.18-.075h-2.913a.253.253 0 0 0-.18.075.26.26 0 0 0-.074.183v2.63c0 .142.112.257.254.259Zm-4.029 0h2.915a.254.254 0 0 0 .18-.077.26.26 0 0 0 .073-.183v-2.63a.26.26 0 0 0-.074-.182.253.253 0 0 0-.18-.075h-2.913a.253.253 0 0 0-.18.075.26.26 0 0 0-.074.183v2.63c0 .142.114.257.255.259h-.002Zm-4.074 0h2.914a.254.254 0 0 0 .18-.077.26.26 0 0 0 .074-.183v-2.63a.26.26 0 0 0-.075-.182.253.253 0 0 0-.18-.075H7.063a.254.254 0 0 0-.18.075.26.26 0 0 0-.076.183v2.63a.26.26 0 0 0 .256.259Zm8.103 3.783h2.912a.254.254 0 0 0 .18-.075.261.261 0 0 0 .076-.183v-2.63a.261.261 0 0 0-.075-.183.254.254 0 0 0-.18-.076h-2.913a.253.253 0 0 0-.18.076.26.26 0 0 0-.074.182v2.631c0 .142.112.258.254.258Zm-4.029 0h2.915a.253.253 0 0 0 .18-.076.26.26 0 0 0 .073-.182v-2.63a.26.26 0 0 0-.156-.238.252.252 0 0 0-.097-.02h-2.915a.253.253 0 0 0-.179.075.26.26 0 0 0-.074.182v2.631c0 .142.114.258.255.258h-.002Zm-4.074 0h2.914a.253.253 0 0 0 .18-.075.26.26 0 0 0 .074-.183v-2.63a.26.26 0 0 0-.156-.238.252.252 0 0 0-.097-.02H7.062a.254.254 0 0 0-.18.075.26.26 0 0 0-.076.184v2.63c0 .141.116.257.256.257Zm-4.015 0h2.915a.253.253 0 0 0 .179-.076.26.26 0 0 0 .074-.182v-2.63a.26.26 0 0 0-.156-.238.251.251 0 0 0-.097-.02H3.047a.253.253 0 0 0-.179.075.26.26 0 0 0-.074.182v2.631c0 .142.113.258.254.258h-.001ZM32.674 9.06c-.09-.072-.924-.711-2.687-.711-.464.001-.93.042-1.388.121-.341-2.369-2.273-3.526-2.36-3.576l-.473-.277-.31.456a6.46 6.46 0 0 0-.842 1.992c-.316 1.352-.124 2.623.554 3.709-.818.462-2.131.575-2.398.585H1.033c-.273 0-.535.11-.728.306-.193.195-.303.46-.304.736-.025 1.93.297 3.849.952 5.66.75 1.99 1.863 3.457 3.314 4.354C5.889 23.423 8.529 24 11.52 24c1.351.004 2.699-.12 4.029-.37a16.7 16.7 0 0 0 5.256-1.936 14.493 14.493 0 0 0 3.589-2.977c1.721-1.976 2.747-4.177 3.51-6.132h.304c1.887 0 3.046-.765 3.685-1.406a4.08 4.08 0 0 0 .972-1.458l.135-.4-.326-.261Z" fill="#626262"/></svg>