<svg width="24" height="24" viewBox="0 0 24 24" fill="none" xmlns="http://www.w3.org/2000/svg">
<path fill-rule="evenodd" clip-rule="evenodd" d="M7.776 1C7.45933 1 7.15563 1.1258 6.93171 1.34971C6.7078 1.57363 6.582 1.87733 6.582 2.194C6.582 2.51067 6.7078 2.81437 6.93171 3.03829C7.15563 3.2622 7.45933 3.388 7.776 3.388H18.1217C18.2272 3.388 18.3284 3.4299 18.4029 3.50449C18.4775 3.57907 18.5194 3.68023 18.5194 3.78571V18.9074C18.5194 19.2241 18.6452 19.5278 18.8691 19.7517C19.0931 19.9756 19.3968 20.1014 19.7134 20.1014C20.0301 20.1014 20.3338 19.9756 20.5577 19.7517C20.7816 19.5278 20.9074 19.2241 20.9074 18.9074V3.78571C20.9074 3.0469 20.6139 2.33834 20.0915 1.81592C19.5691 1.29349 18.8605 1 18.1217 1H7.776ZM3 7.36686C3 6.73352 3.25159 6.12612 3.69943 5.67829C4.14727 5.23045 4.75466 4.97886 5.388 4.97886H14.1429C14.7762 4.97886 15.3836 5.23045 15.8314 5.67829C16.2793 6.12612 16.5309 6.73352 16.5309 7.36686V20.8977C16.5309 21.5311 16.2793 22.1384 15.8314 22.5863C15.3836 23.0341 14.7762 23.2857 14.1429 23.2857H5.388C4.75466 23.2857 4.14727 23.0341 3.69943 22.5863C3.25159 22.1384 3 21.5311 3 20.8977V7.36686ZM5.58686 8.95943C5.58686 8.41086 6.03257 7.96514 6.58114 7.96514H12.948C13.2119 7.96514 13.465 8.06999 13.6517 8.25661C13.8383 8.44324 13.9431 8.69636 13.9431 8.96029C13.9431 9.22421 13.8383 9.47733 13.6517 9.66396C13.465 9.85058 13.2119 9.95543 12.948 9.95543H6.58114C6.45043 9.95543 6.32099 9.92965 6.20025 9.87958C6.07951 9.8295 5.96982 9.75611 5.87747 9.6636C5.78512 9.57109 5.71192 9.46128 5.66205 9.34045C5.61218 9.21962 5.58663 9.09014 5.58686 8.95943ZM6.58114 11.944C6.31721 11.944 6.0641 12.0488 5.87747 12.2355C5.69085 12.4221 5.586 12.6752 5.586 12.9391C5.586 13.2031 5.69085 13.4562 5.87747 13.6428C6.0641 13.8294 6.31721 13.9343 6.58114 13.9343H12.948C13.2119 13.9343 13.465 13.8294 13.6517 13.6428C13.8383 13.4562 13.9431 13.2031 13.9431 12.9391C13.9431 12.6752 13.8383 12.4221 13.6517 12.2355C13.465 12.0488 13.2119 11.944 12.948 11.944H6.58114ZM5.58514 16.9189C5.58514 16.3703 6.03086 15.9246 6.57943 15.9246H9.76286C10.0268 15.9246 10.2799 16.0294 10.4665 16.216C10.6532 16.4027 10.758 16.6558 10.758 16.9197C10.758 17.1836 10.6532 17.4368 10.4665 17.6234C10.2799 17.81 10.0268 17.9149 9.76286 17.9149H6.57943C6.44871 17.9149 6.31928 17.8891 6.19854 17.839C6.07779 17.7889 5.96811 17.7155 5.87576 17.623C5.78341 17.5305 5.7102 17.4207 5.66034 17.2999C5.61047 17.1791 5.58492 17.0496 5.58514 16.9189Z" fill="#0475C7"/>
</svg>
