<svg width="24" height="24" viewBox="0 0 24 24" fill="none" xmlns="http://www.w3.org/2000/svg"><path fill-rule="evenodd" clip-rule="evenodd" d="M7.776 1a1.194 1.194 0 0 0 0 2.388h10.346a.397.397 0 0 1 .397.398v15.121a1.194 1.194 0 1 0 2.388 0V3.786A2.786 2.786 0 0 0 18.122 1H7.776ZM3 7.367a2.388 2.388 0 0 1 2.388-2.388h8.755a2.388 2.388 0 0 1 2.388 2.388v13.53a2.388 2.388 0 0 1-2.388 2.389H5.388A2.388 2.388 0 0 1 3 20.898V7.367Zm2.587 1.592c0-.548.446-.994.994-.994h6.367a.995.995 0 0 1 0 1.99H6.581a.994.994 0 0 1-.994-.996Zm.994 2.985a.995.995 0 1 0 0 1.99h6.367a.996.996 0 0 0 0-1.99H6.581Zm-.996 4.975c0-.549.446-.994.994-.994h3.184a.995.995 0 1 1 0 1.99H6.579a.994.994 0 0 1-.994-.996Z" fill="#0475C7"/></svg>