<svg width="155" height="46" viewBox="0 0 155 46" fill="none" xmlns="http://www.w3.org/2000/svg"><rect x=".5" y=".5" width="154" height="45" rx="2.5" stroke="#5B5B5B"/><path d="M32.148 12.65h-18.37a2.294 2.294 0 0 0-2.296 2.3v11.5c0 1.265 1.033 2.3 2.296 2.3h8.898v4.025h-5.74a.86.86 0 0 0-.862.863.863.863 0 0 0 .861.862H30.14a.86.86 0 0 0 .861-.862.863.863 0 0 0-.861-.863H24.4V28.75h7.75a2.294 2.294 0 0 0 2.295-2.3v-11.5a2.302 2.302 0 0 0-2.296-2.3Z" fill="#428D26"/><path d="M16.59 22.425a.863.863 0 0 0 .693 1.352.86.86 0 0 0 .57-.202l-1.262-1.15Zm4.811-4.025.632-.575a.862.862 0 0 0-1.263 0l.631.575Zm3.123 3.45-.631.575a.861.861 0 0 0 1.263 0l-.631-.575Zm4.823-4.025a.863.863 0 0 0-.695-1.38.86.86 0 0 0-.58.23l1.263 1.15h.012Zm-11.482 5.75 4.168-4.6-1.263-1.15-4.18 4.6 1.264 1.15h.011Zm2.894-4.6 3.134 3.45 1.263-1.15-3.123-3.45-1.263 1.15h-.011Zm4.408 3.45 4.168-4.6-1.263-1.15-4.179 4.6 1.263 1.15h.011Z" fill="#101010"/><path d="M47.649 15.298c1.743 0 3.05-1.066 3.3-2.665v-.063h-1.22v.063c-.312 1.015-1.034 1.586-2.08 1.586-1.47 0-2.416-1.205-2.416-3.057 0-1.878.946-3.046 2.416-3.046 1.058 0 1.793.571 2.054 1.51l.025.114h1.233v-.05c-.249-1.6-1.569-2.69-3.3-2.69C45.42 7 44 8.599 44 11.149c0 2.563 1.42 4.174 3.661 4.174l-.012-.025Zm5.977-2.74 2.117 2.613h1.47l-2.529-3.109 2.429-2.753h-1.395l-2.092 2.41h-.2V9.31h-1.182v5.862h1.183v-2.614h.199Zm6.127 2.714c.76 0 1.42-.393 1.756-1.015h.025v.914h1.183v-4.048c0-1.167-.884-1.928-2.292-1.928-1.42 0-2.279.774-2.366 1.776v.064h1.121v-.051c.1-.47.523-.787 1.208-.787.735 0 1.146.38 1.146 1.028v.444l-1.57.089c-1.37.089-2.141.71-2.141 1.738 0 1.066.772 1.776 1.93 1.776Zm-.735-1.801c0-.508.399-.825 1.108-.863l1.408-.089v.457c0 .761-.623 1.332-1.457 1.332-.636 0-1.059-.317-1.059-.837Zm9.813 1.7V9.309h-1.17v2.41c-.25.255-.71.42-1.184.42-.81 0-1.245-.381-1.245-1.18v-1.65h-1.17v1.789c0 1.269.747 2.08 2.104 2.08.573 0 1.12-.19 1.457-.532h.037v2.525h1.17Zm3.2.101c.76 0 1.42-.393 1.756-1.015h.025v.914h1.183v-4.048c0-1.167-.884-1.928-2.291-1.928-1.42 0-2.28.774-2.366 1.776v.064h1.12v-.051c.1-.47.523-.787 1.208-.787.735 0 1.146.38 1.146 1.028v.444l-1.569.089c-1.37.089-2.142.71-2.142 1.738 0 1.066.772 1.776 1.93 1.776Zm-.734-1.801c0-.508.398-.825 1.108-.863l1.407-.089v.457c0 .761-.623 1.332-1.457 1.332-.635 0-1.058-.317-1.058-.837Zm9.464-4.162h-4.782v.952h1.793v4.91h1.183v-4.91h1.806v-.952Zm1.083 5.862h2.279c1.332 0 2.192-.787 2.192-2.03 0-1.244-.86-2.03-2.192-2.03h-1.096V9.32h-1.183v5.85Zm2.167-3.096c.672 0 1.096.419 1.096 1.066s-.424 1.078-1.096 1.078h-.984v-2.157h.984v.013ZM44.648 36.739h4.806c3.935 0 6.252-2.486 6.252-6.737v-.012c0-4.238-2.329-6.661-6.252-6.661h-4.806v13.41ZM47 34.71v-9.35h2.204c2.615 0 4.11 1.65 4.11 4.63v.026c0 3.045-1.457 4.694-4.11 4.694H47Zm14.234 2.22c2.515 0 3.947-1.522 4.234-3.044l.037-.09h-2.117l-.025.064c-.224.66-.959 1.269-2.092 1.269-1.47 0-2.403-1.015-2.44-2.753h6.761v-.736c0-2.969-1.706-4.948-4.483-4.948-2.752 0-4.533 2.03-4.533 5.138v.013c0 3.134 1.744 5.088 4.658 5.088Zm-.087-8.437c1.207 0 2.08.787 2.241 2.348h-4.533c.187-1.523 1.084-2.348 2.291-2.348Zm9.327 8.438c2.366 0 4.047-1.244 4.047-3.096v-.013c0-1.433-.772-2.233-2.765-2.69l-1.619-.355c-.996-.24-1.37-.609-1.37-1.18 0-.723.623-1.205 1.62-1.205 1.07 0 1.68.584 1.793 1.37v.076h2.117v-.101c-.087-1.7-1.495-3.045-3.898-3.045-2.341 0-3.885 1.205-3.885 3.02 0 1.459.934 2.385 2.79 2.79l1.606.381c.996.229 1.332.559 1.332 1.142v.026c0 .723-.66 1.18-1.768 1.18-1.146 0-1.781-.508-1.943-1.358l-.025-.076h-2.241l.012.076c.2 1.84 1.656 3.058 4.197 3.058Zm5.23-.19h2.266v-3.426l.772-.812 3.051 4.237h2.615l-3.985-5.607 3.836-4.238h-2.615L78.02 30.98h-.05v-7.65h-2.266v13.41Zm12.801.19c.461 0 .872-.038 1.121-.077v-1.738c-.15 0-.324.038-.548.038-.822 0-1.245-.304-1.245-1.268v-5.202h1.793v-1.79h-1.793v-2.498H85.53v2.499h-1.37v1.776h1.37v5.405c0 2.03.96 2.855 2.989 2.855h-.013Zm6.414 0c2.826 0 4.67-1.916 4.67-5.113v-.026c0-3.172-1.868-5.1-4.683-5.1-2.814 0-4.67 1.941-4.67 5.1v.026c0 3.184 1.83 5.113 4.683 5.113Zm0-1.865c-1.445 0-2.366-1.18-2.366-3.248v-.026c0-2.03.933-3.235 2.353-3.235 1.445 0 2.366 1.18 2.366 3.235v.026c0 2.055-.921 3.248-2.353 3.248Zm5.753 4.922h2.279V35.09h.037a3.273 3.273 0 0 0 1.249 1.387 3.19 3.19 0 0 0 1.79.465c2.415 0 3.972-1.94 3.972-5.1v-.013c0-3.172-1.557-5.125-4.01-5.125-1.37 0-2.441.723-2.988 1.903h-.05v-1.7h-2.279V40v-.013Zm4.645-4.998c-1.407 0-2.391-1.244-2.391-3.172 0-1.942.996-3.172 2.391-3.172 1.457 0 2.366 1.205 2.366 3.172 0 1.953-.909 3.172-2.366 3.172Z" fill="#fff"/></svg>