<svg width="24" height="24" viewBox="0 0 24 24" fill="none" xmlns="http://www.w3.org/2000/svg"><g clip-path="url(#a)"><path d="M23.977 12c0 6.627-5.362 12-11.977 12C5.386 24 .023 18.627.023 12S5.386 0 12 0c6.615 0 11.977 5.373 11.977 12Z" fill="#626262"/><path d="M4.997 12.675c.144.754.482 1.34 1.013 1.756.542.416 1.206.624 1.992.624 1.096 0 1.893-.41 2.391-1.232l1.229.709c-.808 1.271-2.026 1.907-3.653 1.907-1.317 0-2.39-.416-3.22-1.249-.82-.844-1.23-1.907-1.23-3.19 0-1.272.405-2.33 1.213-3.173.808-.844 1.853-1.266 3.137-1.266 1.218 0 2.209.438 2.972 1.316.775.867 1.162 1.913 1.162 3.14 0 .214-.016.433-.05.658H4.998Zm2.872-3.73c-.774 0-1.416.225-1.925.675-.51.439-.825 1.03-.947 1.772h5.545c-.121-.799-.431-1.406-.93-1.823a2.636 2.636 0 0 0-1.743-.624Zm12.613 7.275h-1.694l-2.324-3.191-2.34 3.19H12.43l3.187-4.338-3.005-4.102h1.71l2.142 2.937 2.142-2.937h1.693l-2.988 4.085 3.17 4.355Z" fill="#fff"/></g><defs><clipPath id="a"><path fill="#fff" d="M0 0h24v24H0z"/></clipPath></defs></svg>