<svg width="24" height="24" viewBox="0 0 24 24" fill="none" xmlns="http://www.w3.org/2000/svg">
<path d="M7.17076 21.3734C6.25658 20.5629 5.28016 19.7928 4.61646 18.7023C3.21407 16.7845 2.13191 14.5641 1.39397 12.2259C0.948501 10.7108 0.796263 9.0814 0.221808 7.6193C-0.379644 6.56414 0.32305 5.40388 1.35872 5.06673C1.81993 4.96584 2.63212 4.47987 1.65195 4.83047C0.773015 5.54849 0.691271 4.17383 1.5897 4.08639C2.20315 3.99475 2.42963 3.42975 2.2189 2.92613C1.5627 2.44437 3.82002 1.91469 2.68386 1.19163C1.50046 -0.240203 4.33973 -0.515975 3.64079 1.10839C3.4728 2.36114 5.62513 0.880542 5.12492 2.32582C5.63263 3.01778 7.02302 2.48389 6.98777 3.45582C7.73022 3.51299 7.9837 4.20915 8.67514 4.26127C9.39808 4.62953 10.6985 4.91371 10.9445 5.82006C10.2298 6.45484 8.57765 4.51519 8.49965 6.26651C8.71414 8.85439 8.66014 11.5213 9.50383 13.9864C9.90579 15.4797 10.8747 16.6576 11.7499 17.8178C12.5861 18.9604 13.7185 19.7575 14.8749 20.4368C15.8903 20.9707 16.9845 21.3255 18.0891 21.5492C18.5346 21.1641 19.3273 19.7365 20.0262 20.3401C20.0577 21.0144 18.6396 21.7543 19.9595 21.6803C20.7327 21.4172 21.2719 22.3504 21.9123 21.5096C22.4981 22.289 24.3572 21.0102 23.9394 22.6085C23.3732 23.0155 22.5453 22.7708 21.9783 23.3307C21.0447 22.8095 20.2985 23.7991 19.2636 23.6763C18.1154 23.9042 16.9432 24 15.7793 24C13.8692 23.8293 11.9164 23.7595 10.0963 23.0146C9.07261 22.6775 8.07294 22.025 7.17076 21.3726V21.3734ZM8.78388 22.157C9.78355 22.6388 10.7645 23.1508 11.8616 23.3089C13.6 23.5763 15.3969 23.9966 17.1427 23.6158C16.3538 23.213 15.5333 23.7738 14.7482 23.3265C13.8032 23.5544 12.7916 23.2694 11.8301 23.1298C10.7405 22.5867 9.56082 22.21 8.53715 21.5004C7.26375 20.9791 9.1971 22.1705 9.54507 22.2714C10.3423 22.7792 8.66614 22.0082 8.43216 21.798C7.76396 21.3776 7.67847 21.4651 8.36542 21.8897C8.50191 21.9813 8.63914 22.078 8.78313 22.157H8.78388ZM6.88128 20.6462C7.85021 21.0489 6.87753 19.8844 6.43207 19.95C6.23708 19.5691 5.68213 19.3236 6.07285 19.1227C5.36565 19.3943 5.3349 18.0801 5.00268 18.2643C4.25649 18.0011 4.71395 17.0687 3.82677 16.4953C3.74503 15.8908 2.94409 15.3653 2.68611 14.4505C2.57287 13.9864 1.78393 12.6421 2.2684 13.8898C2.68236 15.0937 3.41281 16.1228 4.01801 17.1519C4.49047 18.1281 5.04543 19.153 5.90486 19.7617C6.19359 20.0728 6.47107 20.5503 6.88128 20.6462ZM4.0885 17.2091C4.12 17.0468 4.26399 17.5639 4.0885 17.2091V17.2091ZM8.04144 21.1279C7.73322 20.9968 8.25592 21.0228 8.04144 21.1279V21.1279ZM8.56865 21.3465C8.32642 21.5088 8.5139 21.0489 8.56865 21.3465V21.3465ZM9.2286 21.6534C8.74414 21.4432 9.54132 21.3163 9.2286 21.6534V21.6534ZM10.358 22.3588C9.74456 22.2403 10.5492 22.0435 10.358 22.3588V22.3588ZM8.18993 20.6638C7.55698 20.6596 8.67439 20.309 8.18993 20.6638V20.6638ZM8.68189 20.9396C8.5064 21.0228 8.66989 20.7513 8.68189 20.9396V20.9396ZM11.1507 22.6691C11.5489 22.949 13.471 23.282 12.2681 22.7826C12.0686 22.8305 10.0378 22.1385 11.1507 22.6691ZM7.23301 19.2446C6.6158 19.0344 7.19401 19.0563 7.23301 19.2446V19.2446ZM8.38116 19.9937C7.76021 19.8138 8.68189 19.7617 8.38116 19.9937V19.9937ZM9.35009 20.6596C8.65114 20.4755 9.7798 20.4797 9.35009 20.6596V20.6596ZM6.76429 18.6712C7.22926 19.0739 8.64289 18.7242 7.47899 18.435C6.94803 18.1155 5.75262 17.9011 6.56481 18.6233L6.76429 18.6712ZM10.0025 20.8917C9.19035 20.6773 10.1975 20.5192 10.0025 20.8917V20.8917ZM9.01786 20.0114C10.1585 20.3746 8.06094 19.2059 8.73664 19.8802L8.88887 19.9551L9.01786 20.0114ZM10.994 21.2902C10.0175 21.1237 12.0716 21.3037 10.994 21.2902V21.2902ZM6.35032 17.9708C6.08485 17.9927 6.30758 17.7472 6.35032 17.9708V17.9708ZM12.8186 22.437C12.4668 22.7439 12.8456 22.0301 12.8186 22.437V22.437ZM8.18993 19.2362C7.85396 19.2278 8.12319 19.0218 8.18993 19.2362V19.2362ZM6.45157 17.8304C5.60413 17.5236 7.06877 17.7909 6.45157 17.8304V17.8304ZM4.38923 16.3372C3.71728 15.742 4.31499 16.0043 4.38923 16.3372V16.3372ZM9.7993 20.1905C9.68606 20.0417 9.74456 20.2207 9.7993 20.1905V20.1905ZM13.162 22.5026C12.9821 22.5858 13.1545 22.284 13.162 22.5026V22.5026ZM9.50233 19.8449C8.97137 19.7575 9.56082 19.5557 9.50233 19.8449V19.8449ZM6.99452 18.0583C6.25658 17.7127 7.45124 18.0053 6.99452 18.0583V18.0583ZM11.2362 21.0144C10.5327 20.8564 11.9509 20.6949 11.2362 21.0144V21.0144ZM9.02986 19.3371C9.8578 19.4556 8.04519 18.7065 8.84613 19.2715L9.02986 19.3371ZM11.9044 21.3205C12.6776 20.7992 12.4241 22.5337 13.2168 21.4651C13.9982 20.8261 12.5411 22.2579 13.5055 21.5786C14.2007 21.0573 15.2319 21.8283 15.8806 22.078C16.3493 22.0519 16.806 22.5337 17.283 22.2403C18.2084 21.9603 15.4786 21.8283 16.1933 21.3339C15.3496 21.6097 14.7249 21.0052 14.3109 20.3965C13.3615 20.151 12.2681 19.6078 11.7956 18.667C11.6007 18.3164 12.0731 18.72 11.6277 18.1415C11.0577 17.5723 10.772 16.9241 10.3895 16.2321C9.93279 15.9606 9.87805 15.1551 9.8308 16.2061C9.83455 15.5402 9.27584 15.0937 9.1431 15.2821C9.13935 14.6431 9.73706 14.9626 9.31859 14.4892C9.2286 13.8233 8.93162 13.1314 8.84238 12.3831C8.70589 12.0241 8.82288 11.2531 8.36992 12.0678C8.20568 12.9304 8.31517 11.0084 8.57315 11.6432C8.90912 10.995 8.45241 11.0698 8.43216 11.1615C8.65114 10.6141 8.57315 9.83893 8.37366 10.1324C8.49066 9.55391 8.56115 8.00017 8.19818 8.27594C8.41716 7.67143 8.61215 5.50393 7.66722 6.33125C7.28025 6.33545 6.61655 6.48931 6.30383 6.66419C7.2885 7.27291 6.20259 6.88279 5.80362 6.78694C5.75262 7.34773 5.3544 7.10643 4.85869 7.11064C5.65138 7.21994 4.47172 8.01699 4.01501 7.71095C3.42556 8.02623 4.52647 8.81488 4.02701 9.05954C4.08925 9.4278 3.12483 8.92838 3.19907 9.77756C2.62462 9.50599 3.12108 10.789 3.40606 10.356C4.38248 10.6494 4.09375 11.3237 4.117 11.9678C3.96101 12.3402 3.33556 11.0875 3.98051 11.1446C3.4728 10.2206 3.41806 10.8117 2.99209 11.2413C2.8946 11.2716 4.07425 11.8543 3.33556 12.1435C3.98426 12.2528 4.00376 12.8926 4.13275 13.2953C4.52347 13.7552 4.44548 12.7917 4.91419 13.3433C4.61721 12.8531 3.34756 11.9636 4.36748 12.2486C4.36373 11.7584 4.18375 11.3599 4.49647 11.3725C4.8092 10.7419 4.1725 12.9271 4.87144 12.1258C5.06643 12.0291 5.11367 11.4952 5.46539 12.1737C5.96935 12.7345 5.64538 13.1373 4.93444 12.6244C5.05968 13.1104 5.88761 13.2852 5.73162 14.0436C5.89586 14.7137 6.12609 14.464 6.32933 14.4287C6.48531 15.0769 6.57531 14.5994 6.58356 14.2883C7.3065 14.4632 7.13401 14.9407 7.3605 15.2779C7.85621 15.5276 6.64955 13.5703 7.50523 14.6868C8.39991 15.5974 7.84121 15.974 7.03277 15.8294C7.54423 15.7857 7.70847 16.6046 8.34517 16.5735C8.92712 16.8846 9.32159 18.0751 8.31817 17.5807C7.9702 17.2301 6.74029 16.7921 7.74821 17.4622C8.67814 17.9439 9.41233 18.2332 10.3108 18.8368C10.9475 19.3489 11.2287 19.9408 11.4709 20.0543C10.9317 20.3435 9.8458 19.8222 10.6505 19.6642C10.1503 19.5633 9.58407 19.2791 10.0648 19.9794C10.475 20.3645 11.5137 20.3208 11.7012 20.3645C11.5407 20.7546 11.2714 20.7849 11.7087 20.8152C11.2204 21.1086 11.8646 21.1523 11.9081 21.3188L11.9044 21.3205ZM10.9122 18.1718C10.6152 17.8212 10.5372 17.173 10.8575 17.738C11.0217 17.8128 11.3847 18.8024 10.9122 18.1718ZM14.1505 20.4755C14.1542 20.6336 14.3342 20.4671 14.1505 20.4755V20.4755ZM10.4435 17.3184C10.4315 16.7971 10.5492 17.7253 10.4435 17.3184V17.3184ZM10.1195 16.8367C9.74831 16.0312 10.592 17.0645 10.1195 16.8367V16.8367ZM6.22133 13.8149C6.32708 14.2353 6.44032 13.7493 6.22133 13.8149V13.8149ZM9.32684 15.7025C9.45958 15.1375 9.48283 16.18 9.32684 15.7025V15.7025ZM7.13101 13.9949C6.97878 13.6838 7.45499 14.2883 7.13101 13.9949V13.9949ZM9.01411 14.6691C8.66239 13.7847 9.26384 14.1874 9.09211 14.818L9.01411 14.6691ZM5.76837 12.2427C5.61238 11.9535 5.35065 11.1001 5.43615 10.8411C5.51039 11.2615 6.23708 12.6631 5.79162 11.4196C5.29966 10.377 6.38107 11.7567 6.49506 12.0199C6.54606 12.278 6.19059 11.9501 6.42832 12.5538C5.9911 11.8618 6.17034 12.9346 5.76837 12.2427ZM4.7642 11.4675C4.80695 10.7932 4.99443 11.9316 4.7642 11.4675V11.4675ZM5.21716 11.6432C5.43165 11.1312 5.58014 12.3528 5.21716 11.6432V11.6432ZM4.13125 10.7016C3.75628 10.2854 3.48705 9.90031 4.147 10.4434C4.40498 10.4519 3.58454 9.57241 4.20924 10.1635C4.86919 10.2988 4.53322 11.3767 4.13125 10.7024V10.7016ZM4.70195 10.6839C4.8152 10.9202 4.92094 10.4434 4.70195 10.6839V10.6839ZM5.05368 10.8109C4.7252 10.1189 5.4519 11.1001 5.05368 10.8109V10.8109ZM4.35398 10.0626C3.26807 8.98135 5.72112 10.6318 4.52947 10.2644L4.35398 10.0626ZM7.46699 12.0897C6.99452 11.7744 7.34175 9.865 7.50223 11.1699C7.95895 11.0034 7.47524 11.8442 7.81496 11.8358C7.76396 12.3654 7.61173 12.558 7.46699 12.0897ZM8.6159 12.8514C8.66314 12.278 8.71339 13.2457 8.6159 12.8514V12.8514ZM8.41641 12.6286C8.42016 12.9178 8.46741 12.3831 8.41641 12.6286V12.6286ZM4.56922 9.70777C3.87027 8.62654 6.59631 10.7982 5.01468 9.97934C4.85044 9.93142 4.65171 9.91376 4.56922 9.70777ZM6.78379 11.0253C6.71705 10.1147 6.93228 11.1741 6.78379 11.0253V11.0253ZM8.46741 12.2343C8.47491 12.5756 8.5964 11.7172 8.46741 12.2343V12.2343ZM4.67421 9.2958C5.08817 9.1949 6.39307 10.1105 5.19392 9.55896C5.06118 9.39248 4.77995 9.46731 4.67421 9.2958ZM8.23268 11.2842C8.27992 10.356 8.48241 10.7285 8.23643 11.4154L8.23268 11.2842ZM4.98318 8.9721C5.15117 8.69633 4.53397 7.71515 5.07318 8.6215C5.30341 8.82749 5.74512 8.96706 5.3544 9.05534C5.96785 9.65985 5.20591 9.2176 4.98318 8.9721ZM8.05719 10.995C8.16293 11.6121 8.17418 9.93562 8.05719 10.995V10.995ZM4.63146 7.99513C4.6982 8.18766 4.76045 7.93375 4.63146 7.99513V7.99513ZM5.4324 8.52985C5.63938 8.04389 5.81112 9.07299 5.4324 8.52985V8.52985ZM7.69347 9.94403C7.69347 9.7557 7.73622 10.2114 7.69347 9.94403V9.94403ZM7.56523 9.61529C7.2525 8.74846 7.85846 10.0752 7.56523 9.61529V9.61529ZM7.36949 9.04609C7.3185 8.68708 7.55323 9.49674 7.36949 9.04609V9.04609ZM7.68597 8.47268C7.47149 8.04809 7.9597 6.59861 8.00994 7.49655C7.78346 8.19691 7.9477 8.59123 8.10369 7.64957C8.39691 6.90969 8.04144 9.11251 7.68597 8.47268ZM8.00619 6.31779C8.02944 6.47081 8.09994 6.18663 8.00619 6.31779V6.31779ZM7.47149 18.2155C7.3425 18.0886 7.48723 18.2945 7.47149 18.2155V18.2155ZM8.58065 18.8419C9.1941 19.0218 9.1941 18.7368 8.63539 18.6536C8.33467 18.3383 7.38974 18.0053 8.23718 18.614C8.29192 18.7721 8.47191 18.7671 8.5769 18.8419H8.58065ZM6.38932 17.2133C6.72904 17.4983 7.66647 18.0188 6.87003 17.3184C7.13926 16.9729 6.35857 16.7845 6.6158 16.5525C5.95961 16.0968 6.09609 16.1405 6.56106 16.1539C5.76387 15.7554 6.6743 15.7857 6.63155 15.5805C6.32333 15.515 5.11217 14.976 5.82687 15.6243C5.10017 15.2123 5.65138 15.7823 5.4324 15.721C4.68996 15.4931 6.09235 16.3557 5.31541 16.1413C5.74137 16.518 6.46357 17.1091 5.49539 16.5399C5.3664 16.7458 6.18684 17.0569 6.39007 17.2142L6.38932 17.2133ZM7.54948 17.9616C6.85803 17.3352 8.95937 18.4694 7.54948 17.9616V17.9616ZM13.486 21.9948C13.2948 22.2621 13.5055 21.6795 13.486 21.9948V21.9948ZM14.0995 22.284C14.4234 21.9292 14.1115 22.8448 14.6387 22.1966C14.6424 21.7324 14.6229 21.4567 14.0335 22.0217C13.8692 22.1226 13.7987 22.5514 14.1002 22.2848L14.0995 22.284ZM4.40498 15.4569C3.70603 15.0189 4.30749 15.0189 4.40498 15.4569V15.4569ZM5.05743 15.9387C4.19424 15.5318 4.8152 15.4881 5.05743 15.9387V15.9387ZM8.76813 18.4484C9.13111 18.8074 10.4323 18.7116 9.20985 18.4921C9.02611 18.1903 8.05794 18.2643 8.76813 18.4484ZM13.8655 21.9771C13.3263 22.2092 14.4242 21.4516 13.8655 21.9771V21.9771ZM15.0249 22.8666C14.7864 22.9415 15.0286 22.7002 15.0249 22.8666V22.8666ZM15.0249 22.6346C14.4272 22.6783 15.6421 21.8989 15.0249 22.6346V22.6346ZM2.80385 13.9553C2.27665 13.1146 2.47538 12.7337 1.96767 12.0502C1.87393 11.5205 1.10074 10.3291 1.56945 11.5945C1.99917 12.3301 2.12816 13.4727 2.80385 13.9545V13.9553ZM14.8337 22.3975C14.3687 22.0427 15.9706 21.5786 14.8337 22.3975V22.3975ZM15.7013 22.7792C15.3421 22.6657 16.2713 22.2361 15.7013 22.7792V22.7792ZM4.21374 14.5287C3.79603 14.4934 4.37798 14.2572 4.21374 14.5287V14.5287ZM15.5176 22.5202C16.0681 22.1217 15.3924 22.1831 15.4201 22.5556L15.5176 22.5202ZM8.04894 17.2394C7.75571 17.2612 8.02944 16.972 8.04894 17.2394V17.2394ZM8.51015 17.537C8.28367 17.59 8.36167 17.2041 8.51015 17.537V17.537ZM16.404 22.7918C17.1075 22.2184 15.9743 22.6783 16.2555 22.8969L16.404 22.7918ZM16.1348 22.643C15.5251 22.8835 16.7093 22.1041 16.1348 22.643V22.643ZM17.5132 23.6721C17.0445 23.5805 17.9002 23.3829 17.5132 23.6721V23.6721ZM4.56922 14.332C5.08517 14.4632 6.6353 15.7596 5.72112 14.4236C5.25241 14.2656 5.53364 12.9826 5.05293 13.2104C5.37315 13.8107 5.31841 14.0688 4.64646 13.688C3.79903 13.2281 4.17025 13.92 4.33373 14.1084C4.111 14.1655 4.63446 14.327 4.56847 14.332H4.56922ZM2.21365 12.2477C2.30364 11.8189 1.35797 9.8877 1.76444 11.28C1.91292 11.5692 1.89718 12.125 2.21365 12.2477ZM6.53406 15.2383C6.26858 14.9886 6.52206 15.1988 6.53406 15.2383V15.2383ZM7.19026 15.409C6.46732 15.2249 7.19026 14.9533 7.19026 15.409V15.409ZM12.8733 19.4245C12.4436 19.4161 12.7638 19.1135 12.8733 19.4245V19.4245ZM13.1463 19.6482C12.9903 19.6784 13.1073 19.4733 13.1463 19.6482V19.6482ZM15.3999 21.2372C15.1306 21.2154 15.6143 21.0573 15.3999 21.2372V21.2372ZM3.38956 12.5849C2.72586 12.3923 4.01051 12.3133 3.38956 12.5849V12.5849ZM12.3731 18.9293C11.9786 19.0428 12.3656 18.4787 12.3731 18.9293V18.9293ZM3.14358 11.9451C2.77611 11.8442 3.5418 11.792 3.14358 11.9451V11.9451ZM4.29924 12.5714C4.1785 12.6286 4.29174 12.4226 4.29924 12.5714V12.5714ZM18.3884 22.2579C18.8998 22.1444 20.0682 22.5514 20.2557 22.1049C19.6348 22.0915 18.1034 21.6147 18.0329 22.2184L18.1694 22.2445L18.3884 22.2579ZM4.66671 12.6765C4.35023 12.6589 4.67421 12.2208 4.66671 12.6765V12.6765ZM1.62795 10.3114C1.10449 10.1803 1.49146 9.44461 1.62795 10.3114V10.3114ZM2.35464 10.5174C1.69094 10.2635 2.36214 10.2375 2.35464 10.5174V10.5174ZM2.76861 10.7453C2.64787 10.636 2.67486 10.8806 2.76861 10.7453V10.7453ZM5.3694 12.6152C5.08067 12.5235 5.49464 12.4924 5.3694 12.6152V12.6152ZM2.49113 10.2333C1.6512 10.1324 2.42063 9.57661 2.49113 10.2333V10.2333ZM1.007 9.15118C0.862258 9.26469 0.987498 8.84935 1.007 9.15118V9.15118ZM1.22523 8.96285C1.03774 9.00657 1.18998 8.60384 1.22523 8.96285V8.96285ZM2.44838 9.78176C2.96434 9.55391 1.50721 9.30841 2.34264 9.73804L2.44838 9.78176ZM18.7791 21.0884C18.3614 20.9833 19.1113 20.7513 18.7791 21.0884V21.0884ZM20.7552 22.2361C20.4192 22.2932 20.8842 21.798 20.7552 22.2361V22.2361ZM2.57287 9.06374C2.16265 9.14698 2.62762 8.63916 2.57287 9.06374V9.06374ZM0.83526 7.75887C0.741517 7.15856 0.757266 6.1076 1.64745 6.46241C0.45579 6.72977 2.47163 8.12208 2.2174 7.0232C2.71761 7.04926 3.19757 6.69025 2.93209 7.23759C3.92052 7.11484 4.60371 6.15637 5.55689 6.28753C6.29933 6.17823 7.11151 6.09499 7.91245 5.76204C8.56865 5.70487 9.2016 4.91287 8.84238 4.44372C7.94395 4.35628 7.00652 4.48324 6.01435 4.70184C4.91644 4.95995 3.92052 5.44592 2.81135 5.65611C1.72919 5.81838 3.02584 6.10256 2.71761 6.16814C2.15516 6.38674 3.38956 6.53639 2.64337 6.7634C2.18665 6.66671 1.70594 6.48763 1.90093 5.94449C0.866007 6.09331 -0.0444207 6.57927 0.776015 7.75719L0.83526 7.75887ZM3.33106 6.33545C3.57329 5.33241 4.63146 7.15856 3.72928 6.46661C3.61979 6.37917 3.4443 6.30434 3.33106 6.33545ZM3.37756 5.84948C3.56129 6.01175 3.72553 5.56026 3.37756 5.84948V5.84948ZM3.82302 5.85873C3.85452 5.39883 4.83844 6.10424 3.98351 6.02521L3.82302 5.85873ZM4.42823 5.58212C4.49497 5.84528 4.65096 5.2929 4.42823 5.58212V5.58212ZM4.58496 5.46862C4.95618 4.9692 6.68255 5.14912 5.41665 5.42069C5.08067 5.13567 4.81895 5.58716 4.58496 5.46862ZM6.83854 5.0785C6.78004 3.71645 7.95595 5.56446 6.83854 5.0785V5.0785ZM7.47524 5.0743C7.70997 4.38655 8.38116 4.79852 7.58473 4.93389C7.60048 5.00872 7.56148 5.28869 7.47524 5.0743ZM2.31939 8.71314C1.58145 8.29696 3.01834 8.23138 2.31939 8.71314V8.71314ZM2.8346 8.87541C2.30364 8.75266 3.08058 8.58198 2.8346 8.87541V8.87541ZM1.31522 7.66218C0.846509 7.53102 1.71344 7.32083 1.31522 7.66218V7.66218ZM21.9191 22.1133C21.6146 22.2932 21.9311 21.7148 21.9191 22.1133V22.1133ZM19.826 20.5108C19.5568 20.5503 19.8845 20.0509 19.826 20.5108V20.5108ZM22.4936 22.2663C23.0523 22.2663 24.1809 22.0738 22.9698 22.0738C22.7785 22.1091 21.8606 22.0999 22.4936 22.2663ZM3.28757 8.59123C3.74053 8.55592 3.99476 8.03548 3.20132 8.06575C1.97067 7.92114 4.28349 8.53406 3.04534 8.35918C2.87735 8.48193 3.28007 8.62654 3.28757 8.59123ZM3.68653 8.81824C3.54555 8.98892 3.63929 8.4895 3.68653 8.81824V8.81824ZM4.15525 7.40827C3.88602 7.33344 4.35473 7.1367 4.15525 7.40827V7.40827ZM2.65537 4.59758C3.4638 4.2907 4.56547 3.94514 4.94419 4.7464C4.55722 4.22512 4.7882 3.71309 5.15492 4.47483C5.67088 5.25002 5.92811 4.12423 5.59213 3.86611C5.9746 4.4 6.40882 4.64971 5.85011 3.89638C6.45982 3.07747 4.62771 4.00568 4.20924 3.99727C4.00976 4.09816 2.13941 4.53116 2.65837 4.59758H2.65537ZM3.12783 3.58529C3.58904 3.19518 4.7177 3.81314 3.99101 3.19518C3.92427 3.1296 2.40489 3.66349 3.12783 3.58529ZM4.8032 3.66012C5.3424 3.67778 4.57297 2.85467 5.21341 3.22629C5.10767 2.84121 4.46722 2.76639 4.15075 2.61337C3.97526 2.96817 4.51372 3.66433 4.8032 3.66012ZM3.42481 1.95673C3.09633 2.10134 3.60854 1.67675 3.42481 1.95673V1.95673ZM4.108 2.14085C4.97118 2.0139 3.88527 1.72467 3.93252 2.13245L4.108 2.14085ZM2.83085 1.01927C2.22115 0.125531 3.97526 1.17229 3.35806 0.235672C2.8346 -0.228432 2.33439 0.761152 2.83085 1.01927ZM10.6542 5.74439C10.9355 5.18864 9.49783 4.99526 10.4668 5.54765C10.5567 5.58296 10.5335 5.78391 10.6542 5.74439Z" fill="#626262"/>
</svg>
