<svg width="24" height="24" viewBox="0 0 24 24" fill="none" xmlns="http://www.w3.org/2000/svg"><path d="M7.17 21.373c-.913-.81-1.89-1.58-2.554-2.67-1.402-1.918-2.484-4.139-3.222-6.477C.949 10.71.796 9.08.222 7.619-.38 6.564.323 5.404 1.359 5.067c.46-.101 1.273-.587.293-.237-.879.718-.96-.656-.062-.744.613-.091.84-.656.629-1.16-.656-.482 1.601-1.011.465-1.734C1.5-.24 4.34-.516 3.64 1.108 3.473 2.361 5.625.881 5.125 2.326c.508.692 1.898.158 1.863 1.13.742.057.996.753 1.687.805.723.369 2.023.653 2.27 1.56-.715.634-2.367-1.306-2.445.446.214 2.587.16 5.254 1.004 7.72.402 1.493 1.37 2.67 2.246 3.83.836 1.143 1.969 1.94 3.125 2.62 1.015.534 2.11.889 3.214 1.112.446-.385 1.238-1.813 1.937-1.209.032.674-1.386 1.414-.067 1.34.774-.263 1.313.67 1.953-.17.586.779 2.445-.5 2.027 1.098-.566.407-1.394.163-1.96.723-.934-.521-1.68.468-2.715.345-1.149.228-2.32.324-3.485.324-1.91-.17-3.863-.24-5.683-.985-1.023-.338-2.023-.99-2.925-1.642Zm1.614.784c1 .482 1.98.994 3.078 1.152 1.738.267 3.535.688 5.28.307-.788-.403-1.609.158-2.394-.29-.945.228-1.956-.057-2.918-.196-1.09-.543-2.27-.92-3.293-1.63-1.273-.52.66.67 1.008.771.797.508-.879-.263-1.113-.473-.668-.42-.754-.333-.067.092.137.091.274.188.418.267Zm-1.903-1.51c.97.402-.003-.763-.449-.697-.195-.38-.75-.626-.36-.827-.706.271-.737-1.043-1.07-.859-.746-.263-.288-1.195-1.175-1.769-.082-.604-.883-1.13-1.14-2.045-.114-.464-.903-1.808-.419-.56.414 1.204 1.145 2.233 1.75 3.262.472.976 1.027 2.001 1.887 2.61.289.31.566.788.976.884Zm-2.793-3.438c.032-.162.176.355 0 0Zm3.953 3.919c-.308-.131.215-.105 0 0Zm.528.218c-.243.163-.055-.297 0 0Zm.66.307c-.485-.21.312-.337 0 0Zm1.129.706c-.613-.119.191-.316 0 0ZM8.19 20.664c-.633-.004.484-.355 0 0Zm.492.276c-.176.083-.012-.189 0 0Zm2.469 1.73c.398.279 2.32.612 1.117.113-.2.047-2.23-.645-1.117-.114Zm-3.918-3.425c-.617-.21-.039-.189 0 0Zm1.148.749c-.62-.18.3-.232 0 0Zm.97.666c-.7-.184.429-.18 0 0Zm-2.588-1.99c.465.403 1.879.053.715-.236-.531-.32-1.726-.534-.914.188l.2.048Zm3.238 2.22c-.812-.214.195-.372 0 0Zm-.984-.88c1.14.364-.957-.805-.281-.13l.152.074.129.056Zm1.976 1.28c-.976-.167 1.078.013 0 0ZM6.35 17.97c-.265.022-.042-.224 0 0Zm6.469 4.466c-.352.307.027-.407 0 0Zm-4.63-3.2c-.335-.01-.066-.215 0 0ZM6.453 17.83c-.848-.306.617-.04 0 0ZM4.39 16.337c-.672-.595-.074-.333 0 0Zm5.41 3.854c-.113-.15-.054.03 0 0Zm3.363 2.312c-.18.083-.008-.219 0 0Zm-3.66-2.658c-.53-.087.059-.29 0 0Zm-2.507-1.787c-.738-.345.456-.053 0 0Zm4.241 2.956c-.703-.158.715-.32 0 0ZM9.03 19.337c.828.119-.985-.63-.184-.066l.184.066Zm2.874 1.983c.774-.52.52 1.214 1.313.145.781-.639-.676.793.288.114.696-.522 1.727.25 2.376.499.468-.026.925.456 1.402.162.925-.28-1.804-.412-1.09-.906-.843.276-1.468-.329-1.882-.938-.95-.245-2.043-.788-2.515-1.729-.195-.35.277.053-.168-.526-.57-.569-.856-1.217-1.239-1.909-.456-.271-.51-1.077-.558-.026.004-.666-.555-1.112-.688-.924-.004-.639.594-.32.176-.793-.09-.666-.387-1.358-.477-2.106-.136-.359-.02-1.13-.472-.315-.164.862-.055-1.06.203-.425.336-.648-.12-.573-.14-.482.218-.547.14-1.322-.06-1.029.118-.578.188-2.132-.175-1.856.22-.605.414-2.772-.53-1.945-.388.004-1.051.158-1.364.333.984.609-.101.219-.5.123-.051.56-.45.32-.945.324.792.109-.387.906-.844.6-.59.315.511 1.104.012 1.349.062.368-.902-.132-.828.718-.574-.272-.078 1.011.207.578.976.293.688.968.711 1.612-.156.372-.781-.88-.136-.823-.508-.924-.563-.333-.989.096-.097.03 1.082.613.344.902.648.11.668.75.797 1.152.39.46.312-.503.781.048-.297-.49-1.566-1.38-.547-1.094-.003-.49-.183-.89.13-.877.312-.63-.324 1.555.374.754.195-.097.243-.63.594.048.504.56.18.963-.53.45.125.486.953.661.797 1.42.164.67.394.42.597.385.156.648.246.17.255-.14.723.174.55.652.777.989.495.25-.711-1.708.144-.591.895.91.336 1.287-.472 1.142.511-.043.675.776 1.312.744.582.312.977 1.502-.027 1.008-.348-.35-1.578-.789-.57-.119.93.482 1.664.771 2.563 1.375.636.512.918 1.104 1.16 1.217-.54.29-1.625-.232-.82-.39-.5-.1-1.067-.385-.586.315.41.386 1.449.342 1.636.386-.16.39-.43.42.008.45-.489.294.156.337.2.504l-.005.002Zm-.992-3.148c-.297-.35-.375-.999-.055-.434.165.075.528 1.064.055.434Zm3.238 2.303c.004.159.184-.008 0 0Zm-3.707-3.157c-.011-.52.106.407 0 0Zm-.323-.481c-.372-.806.472.227 0 0Zm-3.9-3.022c.106.42.22-.066 0 0Zm3.106 1.888c.133-.566.156.477 0 0ZM7.13 13.995c-.152-.311.324.293 0 0Zm1.883.674c-.352-.884.25-.482.078.149l-.078-.149Zm-3.246-2.426c-.156-.29-.417-1.143-.332-1.402.074.42.801 1.822.356.579-.492-1.043.59.337.703.6.051.258-.304-.07-.067.534-.437-.692-.258.38-.66-.311Zm-1.004-.776c.043-.674.23.465 0 0Zm.453.176c.215-.512.363.71 0 0Zm-1.086-.941c-.375-.417-.644-.802.016-.259.258.009-.562-.87.062-.28.66.136.324 1.214-.078.54v-.001Zm.57-.018c.114.236.22-.24.001 0Zm.353.127c-.329-.692.398.29 0 0Zm-.7-.748c-1.086-1.082 1.367.569.175.201l-.175-.201Zm3.113 2.027c-.472-.316-.125-2.225.035-.92.457-.167-.027.674.313.666-.051.53-.203.722-.348.254Zm1.149.761c.047-.573.097.395 0 0Zm-.2-.222c.004.289.051-.246 0 0ZM4.57 9.708c-.699-1.081 2.027 1.09.446.271-.165-.048-.363-.065-.446-.271Zm2.215 1.317c-.067-.91.148.15 0 0Zm1.683 1.21c.008.34.13-.518 0 0Zm-3.793-2.94c.414-.1 1.72.816.52.264-.133-.167-.414-.092-.52-.263Zm3.559 1.99c.047-.929.25-.556.003.13l-.003-.13Zm-3.25-2.313c.168-.276-.449-1.257.09-.35.23.205.672.345.281.433.614.605-.148.163-.37-.083Zm3.074 2.023c.106.617.117-1.06 0 0Zm-3.426-3c.067.193.13-.061 0 0Zm.801.535c.207-.486.38.543 0 0Zm2.261 1.414c0-.188.043.267 0 0Zm-.128-.329c-.313-.867.293.46 0 0Zm-.196-.569c-.05-.359.184.45 0 0Zm.317-.573c-.215-.425.274-1.874.324-.976-.227.7-.062 1.094.094.153.293-.74-.063 1.463-.418.823Zm.32-2.155c.023.153.094-.131 0 0Zm-.535 11.898c-.128-.127.016.078 0 0Zm1.11.626c.613.18.613-.105.054-.188-.3-.316-1.245-.649-.398-.04.055.158.235.153.34.228h.004ZM6.39 17.213c.34.285 1.277.806.481.105.27-.345-.511-.534-.254-.766-.656-.455-.52-.412-.055-.398-.797-.399.113-.368.07-.573-.308-.066-1.519-.605-.804.043-.727-.412-.176.158-.395.097-.742-.228.66.635-.117.42.426.377 1.149.968.18.399-.129.206.692.517.895.674Zm1.16.749c-.691-.627 1.41.507 0 0Zm5.937 4.033c-.191.267.02-.316 0 0Zm.614.289c.323-.355.011.56.539-.087.003-.465-.016-.74-.605-.175-.165.1-.235.53.066.263v-.001Zm-9.695-6.827c-.699-.438-.098-.438 0 0Zm.652.482c-.863-.407-.242-.45 0 0Zm3.711 2.51c.363.358 1.664.263.442.043-.184-.302-1.152-.228-.442-.044Zm5.098 3.528c-.54.232.558-.525 0 0Zm1.159.89c-.239.075.004-.167 0 0Zm0-.232c-.598.043.617-.736 0 0Zm-12.221-8.68c-.527-.84-.329-1.221-.836-1.905-.094-.53-.867-1.72-.399-.456.43.736.56 1.879 1.235 2.36v.001Zm12.03 8.443c-.465-.355 1.137-.82 0 0Zm.867.381c-.359-.113.57-.543 0 0ZM4.214 14.53c-.418-.036.164-.272 0 0Zm11.304 7.991c.55-.398-.126-.337-.098.036l.098-.036Zm-7.47-5.28c-.292.021-.019-.268 0 0Zm.462.297c-.226.053-.148-.333 0 0Zm7.894 5.255c.704-.574-.43-.114-.148.105l.148-.105Zm-.27-.149c-.609.24.575-.539 0 0Zm1.38 1.03c-.47-.092.386-.29 0 0ZM4.568 14.331c.516.131 2.066 1.428 1.152.092-.469-.158-.187-1.441-.668-1.214.32.6.265.859-.407.478-.847-.46-.476.232-.312.42-.223.057.3.219.234.224h.001Zm-2.355-2.084c.09-.43-.856-2.36-.45-.968.149.29.133.845.45.968Zm4.32 2.99c-.265-.25-.012-.04 0 0Zm.656.171c-.723-.184 0-.456 0 0Zm5.683 4.015c-.43-.008-.11-.31 0 0Zm.273.224c-.156.03-.039-.175 0 0Zm2.254 1.59c-.27-.023.214-.18 0 0ZM3.39 12.584c-.664-.193.62-.272 0 0Zm8.983 6.344c-.394.114-.007-.45 0 0Zm-9.23-6.984c-.367-.1.399-.153 0 0Zm1.156.626c-.12.058-.007-.148 0 0Zm14.09 9.687c.51-.114 1.68.293 1.867-.153-.621-.014-2.153-.49-2.223.113l.136.026.22.014Zm-13.723-9.58c-.317-.018.007-.456 0 0ZM1.628 10.31c-.524-.13-.137-.866 0 0Zm.727.206c-.664-.253.007-.28 0 0Zm.414.228c-.121-.109-.094.136 0 0Zm2.6 1.87c-.288-.091.126-.123 0 0Zm-2.878-2.382c-.84-.1-.07-.656 0 0ZM1.007 9.151c-.145.114-.02-.302 0 0Zm.218-.188c-.187.044-.035-.36 0 0Zm1.223.819c.516-.228-.94-.474-.105-.044l.105.044ZM18.78 21.088c-.418-.105.332-.337 0 0Zm1.976 1.148c-.336.057.13-.438 0 0ZM2.573 9.064c-.41.083.055-.425 0 0ZM.835 7.759c-.093-.6-.078-1.651.812-1.297-1.191.268.825 1.66.57.561.5.026.98-.333.715.215.989-.123 1.672-1.082 2.625-.95.742-.11 1.555-.193 2.355-.526.657-.057 1.29-.85.93-1.318-.898-.088-1.835.04-2.828.258-1.098.258-2.093.744-3.203.954-1.082.162.215.447-.093.512-.563.219.672.368-.075.595-.456-.096-.937-.275-.742-.819-1.035.15-1.945.635-1.125 1.813l.06.002Zm2.496-1.424c.242-1.003 1.3.824.398.132-.11-.088-.285-.163-.398-.132Zm.047-.486c.183.163.348-.289 0 0Zm.445.01c.032-.46 1.015.245.16.166l-.16-.166Zm.605-.277c.067.263.223-.29 0 0Zm.157-.113c.371-.5 2.098-.32.832-.048-.336-.285-.598.166-.832.048Zm2.254-.39c-.059-1.363 1.117.485 0 0Zm.636-.005c.235-.687.906-.275.11-.14.015.075-.024.355-.11.14ZM2.32 8.714c-.738-.417.7-.483 0 0Zm.516.161c-.531-.122.246-.293 0 0Zm-1.52-1.213c-.468-.131.398-.341 0 0ZM21.92 22.113c-.304.18.012-.398 0 0Zm-2.093-1.602c-.27.04.058-.46 0 0Zm2.668 1.755c.558 0 1.687-.192.476-.192-.191.035-1.11.026-.476.192ZM3.288 8.591c.453-.035.707-.556-.087-.525-1.23-.145 1.082.468-.156.293-.168.123.235.268.243.232Zm.399.227c-.141.17-.048-.329 0 0Zm.468-1.41c-.269-.075.2-.271 0 0Zm-1.5-2.81c.809-.307 1.91-.653 2.29.148-.388-.52-.157-1.033.21-.271.516.775.773-.35.437-.609.383.534.817.784.258.03.61-.819-1.222.11-1.64.101-.2.101-2.07.534-1.552.6h-.003Zm.473-1.013c.461-.39 1.59.228.863-.39-.067-.065-1.586.468-.863.39Zm1.675.075c.54.018-.23-.805.41-.434-.105-.385-.746-.46-1.062-.613-.176.355.363 1.051.652 1.047ZM3.425 1.957c-.329.144.184-.28 0 0Zm.683.184c.863-.127-.223-.416-.175-.009l.175.009ZM2.831 1.019c-.61-.893 1.144.153.527-.783-.523-.464-1.024.525-.527.783Zm7.823 4.725c.281-.555-1.156-.749-.187-.196.09.035.066.236.187.196Z" fill="#626262"/></svg>