<svg width="60" height="60" viewBox="0 0 60 60" fill="none" xmlns="http://www.w3.org/2000/svg"><path d="m30 0 .006 29.97L41.48 2.285l-11.463 27.69L51.213 8.787 30.025 29.983 57.716 18.52 30.03 29.994 60 30l-29.97.006L57.715 41.48l-27.69-11.463 21.188 21.196-21.196-21.188L41.48 57.716 30.006 30.03 30 60l-.006-29.97L18.52 57.715l11.464-27.691L8.787 51.213l21.188-21.196L2.284 41.48 29.97 30.006 0 30l29.97-.006L2.285 18.52l27.691 11.464L8.787 8.787l21.196 21.188L18.52 2.284 29.994 29.97 30 0Z" fill="#F0C3D2" stroke="#fff" stroke-width="2"/></svg>