<svg width="171" height="50" viewBox="0 0 171 50" fill="none" xmlns="http://www.w3.org/2000/svg"><path d="M164.667 49.208H6.333C2.852 49.208 0 46.438 0 43.057V6.151C0 2.769 2.852 0 6.333 0h158.334C168.148 0 171 2.77 171 6.15v36.907c0 3.381-2.852 6.151-6.333 6.151Z" fill="#fff"/><path d="M164.667.986c2.932 0 5.318 2.317 5.318 5.165v36.906c0 2.848-2.386 5.165-5.318 5.165H6.333c-2.932 0-5.318-2.317-5.318-5.165V6.151C1.015 3.303 3.4.986 6.333.986h158.334Zm0-.986H6.333C2.852 0 0 2.77 0 6.15v36.907c0 3.381 2.852 6.151 6.333 6.151h158.334c3.481 0 6.333-2.77 6.333-6.151V6.151C171 2.769 168.148 0 164.667 0Z" fill="#A6A6A6"/><path d="M12.268 9.274c-.372.378-.588.967-.588 1.73V38.21c0 .763.216 1.352.588 1.73l.091.083 15.698-15.24v-.359L12.36 9.184l-.092.09Zm22.915 20.592-5.226-5.082v-.36l5.233-5.082.117.066 6.197 3.424c1.769.972 1.769 2.572 0 3.55L35.307 29.8l-.124.066Zm-.826.881-5.35-5.197-15.79 15.336c.588.6 1.546.672 2.635.073l18.505-10.213Zm0-12.285L15.852 8.249c-1.089-.593-2.047-.52-2.634.079l15.789 15.33 5.35-5.196Z" fill="#000"/><path d="M60.062 12.602c0 1.027-.316 1.85-.94 2.463-.718.728-1.652 1.094-2.797 1.094-1.094 0-2.028-.372-2.794-1.106-.768-.744-1.151-1.658-1.151-2.751s.383-2.007 1.15-2.745c.767-.74 1.701-1.112 2.795-1.112.545 0 1.064.11 1.56.312.494.205.896.482 1.188.823l-.662.65c-.508-.584-1.2-.871-2.086-.871-.797 0-1.49.27-2.077.816-.58.548-.872 1.257-.872 2.127 0 .87.291 1.585.872 2.133.588.54 1.28.816 2.078.816.847 0 1.56-.276 2.121-.822.37-.362.581-.86.637-1.497h-2.759v-.888h3.68c.044.192.057.378.057.558ZM65.9 9.52h-3.457v2.337h3.117v.89h-3.117v2.337H65.9v.905h-4.435V8.614H65.9v.906Zm4.12 6.47h-.979V9.52h-2.12v-.906h5.22v.906H70.02v6.47Zm5.9 0V8.613h.976v7.375h-.977Zm5.307 0h-.971V9.52h-2.128v-.906h5.227v.906h-2.129v6.47Zm12.011-.95c-.75.747-1.677 1.119-2.784 1.119-1.113 0-2.04-.372-2.79-1.118-.747-.745-1.119-1.658-1.119-2.739s.372-1.995 1.12-2.739c.748-.746 1.676-1.118 2.79-1.118 1.1 0 2.028.372 2.776 1.124.754.75 1.126 1.658 1.126 2.733 0 1.081-.372 1.995-1.12 2.739Zm-4.85-.617c.564.552 1.25.828 2.066.828.81 0 1.503-.276 2.06-.828.562-.553.847-1.261.847-2.121 0-.86-.285-1.569-.847-2.12-.557-.553-1.25-.83-2.06-.83-.817 0-1.502.277-2.066.83-.562.551-.847 1.26-.847 2.12 0 .86.285 1.569.847 2.12Zm7.342 1.567V8.613h1.187l3.693 5.736h.042l-.042-1.418V8.614h.977v7.375h-1.02l-3.866-6.018h-.043l.043 1.424v4.594h-.971Z" fill="#000" stroke="#000" stroke-width=".16" stroke-miterlimit="10"/><path d="M86.304 26.76c-2.975 0-5.405 2.2-5.405 5.233 0 3.01 2.43 5.232 5.405 5.232 2.982 0 5.412-2.223 5.412-5.232 0-3.034-2.43-5.233-5.412-5.233Zm0 8.404c-1.632 0-3.037-1.309-3.037-3.17 0-1.888 1.405-3.173 3.037-3.173 1.633 0 3.043 1.285 3.043 3.172 0 1.862-1.41 3.17-3.043 3.17ZM74.51 26.76c-2.981 0-5.405 2.2-5.405 5.233 0 3.01 2.424 5.232 5.405 5.232 2.98 0 5.406-2.223 5.406-5.232 0-3.034-2.426-5.233-5.406-5.233Zm0 8.404c-1.634 0-3.043-1.309-3.043-3.17 0-1.888 1.41-3.173 3.043-3.173 1.632 0 3.037 1.285 3.037 3.172 0 1.862-1.404 3.17-3.037 3.17Zm-14.035-6.8v2.224h5.468c-.16 1.242-.588 2.155-1.243 2.792-.798.769-2.041 1.622-4.225 1.622-3.364 0-5.999-2.637-5.999-5.905 0-3.267 2.635-5.905 6-5.905 1.819 0 3.142.691 4.12 1.586l1.613-1.567c-1.367-1.267-3.184-2.24-5.734-2.24-4.613 0-8.491 3.645-8.491 8.127 0 4.48 3.878 8.127 8.491 8.127 2.494 0 4.367-.794 5.84-2.282 1.509-1.466 1.979-3.527 1.979-5.19 0-.517-.044-.992-.124-1.389h-7.695Zm57.39 1.724c-.445-1.17-1.818-3.328-4.614-3.328-2.771 0-5.078 2.12-5.078 5.233 0 2.931 2.283 5.232 5.344 5.232a5.375 5.375 0 0 0 4.49-2.32l-1.836-1.188c-.613.87-1.447 1.447-2.654 1.447-1.199 0-2.058-.534-2.609-1.586l7.205-2.895-.248-.595Zm-7.347 1.742c-.062-2.017 1.614-3.05 2.814-3.05.94 0 1.738.456 2.004 1.11l-4.818 1.94Zm-5.857 5.076h2.369V21.53h-2.369v15.377Zm-3.879-8.98h-.079c-.532-.612-1.547-1.166-2.832-1.166-2.698 0-5.165 2.3-5.165 5.25 0 2.933 2.467 5.215 5.165 5.215 1.285 0 2.3-.559 2.832-1.19h.079v.751c0 2-1.1 3.076-2.875 3.076-1.447 0-2.345-1.015-2.715-1.869l-2.06.835c.593 1.387 2.166 3.094 4.775 3.094 2.777 0 5.12-1.587 5.12-5.448v-9.396h-2.245v.848Zm-2.709 7.238c-1.632 0-2.999-1.327-2.999-3.154 0-1.844 1.367-3.19 3-3.19 1.608 0 2.876 1.346 2.876 3.19 0 1.827-1.268 3.154-2.877 3.154Zm30.882-13.635h-5.666v15.377h2.363V31.08h3.303c2.623 0 5.196-1.844 5.196-4.777 0-2.93-2.579-4.774-5.196-4.774Zm.061 7.412h-3.364v-5.273h3.364c1.764 0 2.771 1.422 2.771 2.635 0 1.19-1.007 2.638-2.771 2.638Zm14.603-2.21c-1.706 0-3.481.732-4.211 2.354l2.096.854c.451-.854 1.281-1.13 2.158-1.13 1.226 0 2.469.714 2.488 1.977v.161c-.428-.24-1.343-.595-2.469-.595-2.258 0-4.558 1.207-4.558 3.46 0 2.06 1.849 3.388 3.928 3.388 1.59 0 2.467-.697 3.018-1.507h.081v1.189h2.281v-5.9c0-2.726-2.096-4.251-4.812-4.251Zm-.285 8.427c-.772 0-1.849-.372-1.849-1.303 0-1.19 1.343-1.647 2.505-1.647 1.04 0 1.528.223 2.16.517-.186 1.424-1.448 2.433-2.816 2.433Zm13.41-8.09-2.716 6.666h-.081l-2.807-6.666h-2.547l4.218 9.315-2.407 5.184h2.468l6.5-14.5h-2.628Zm-21.295 9.838h2.369V21.53h-2.369v15.377Z" fill="#000"/></svg>