<svg width="140" height="89" viewBox="0 0 140 89" fill="none" xmlns="http://www.w3.org/2000/svg">
<path d="M3 3C40.1721 25.9154 77.0629 49.2753 114.264 72.141C116.76 73.6748 120.095 74.6027 122.359 76.4527C123.572 77.4433 122.985 76.7665 122.677 74.9128C121.459 67.5882 119.652 60.0471 116.09 53.4314C111.642 45.1718 103.8 40.3203 98.7889 33.0278C97.7347 31.4937 99.547 36.6814 100.376 38.3404C102.565 42.7198 106.683 45.3829 110.138 48.7347C116.487 54.8949 122.132 62.1892 126.962 69.5232C128.819 72.343 139.436 86 136.485 86C107.507 86 77.487 83.7123 48.712 80.6104" stroke="#D9315A" stroke-width="6" stroke-linecap="round"/>
</svg>
