<svg width="31" height="31" viewBox="0 0 31 31" fill="none" xmlns="http://www.w3.org/2000/svg"><path d="M15.5 0C6.936 0 0 7.112 0 15.892c0 7.032 4.437 12.972 10.598 15.078.775.139 1.066-.338 1.066-.755 0-.378-.02-1.63-.02-2.96-3.894.735-4.902-.973-5.212-1.867-.174-.457-.93-1.868-1.588-2.245-.543-.298-1.318-1.033-.02-1.053 1.221-.02 2.093 1.152 2.383 1.629 1.395 2.404 3.624 1.728 4.515 1.311.136-1.033.542-1.728.988-2.126-3.449-.397-7.053-1.768-7.053-7.846 0-1.729.601-3.159 1.59-4.271-.156-.398-.698-2.027.154-4.212 0 0 1.298-.417 4.263 1.63a14.051 14.051 0 0 1 3.875-.537c1.317 0 2.635.179 3.875.536 2.964-2.066 4.262-1.629 4.262-1.629.853 2.186.31 3.814.155 4.212.988 1.112 1.589 2.523 1.589 4.27 0 6.1-3.623 7.45-7.072 7.847.562.497 1.046 1.45 1.046 2.94 0 2.126-.019 3.834-.019 4.37 0 .418.29.915 1.066.756a15.558 15.558 0 0 0 7.645-5.797A16.19 16.19 0 0 0 31 15.893C31 7.111 24.064 0 15.5 0Z" fill="#626262"/></svg>