<svg width="24" height="24" viewBox="0 0 24 24" fill="none" xmlns="http://www.w3.org/2000/svg"><path d="M23.96 10.624a9.11 9.11 0 0 0-.254-1.383c-.14-.512-.37-1.067-.671-1.66-.327-.575-.718-1.196-1.252-1.77-.208-.234-.437-.445-.671-.679.37-1.344-.442-2.515-.442-2.515-1.41-.082-2.288.407-2.615.621-.047-.023-.115-.043-.162-.067a59.545 59.545 0 0 0-.738-.254c-.255-.067-.51-.148-.765-.191a8.042 8.042 0 0 0-.81-.152c-.047 0-.095-.02-.141-.02C14.84.766 13.079 0 13.079 0c-2.014 1.192-2.408 2.789-2.408 2.789s0 .043-.021.086c-.115.02-.208.062-.323.086-.14.043-.302.087-.442.149s-.302.106-.442.168a18.57 18.57 0 0 0-.879.406c-.276.145-.547.3-.807.469a.295.295 0 0 1-.072-.043c-2.71-.957-5.116.191-5.116.191-.208 2.664 1.091 4.324 1.346 4.62-.073.172-.12.32-.187.492a9.97 9.97 0 0 0-.442 1.852c-.021.086-.021.191-.046.277C.743 12.671 0 15.014 0 15.014c2.084 2.215 4.539 2.34 4.539 2.34a9.67 9.67 0 0 0 1.065 1.449c.162.19.344.363.531.555-.765 2 .115 3.682.115 3.682 2.34.086 3.868-.937 4.19-1.172l.693.191c.717.172 1.46.278 2.178.301h.947c1.091 1.445 3.035 1.64 3.035 1.64 1.363-1.344 1.456-2.644 1.456-2.941v-.129c.28-.191.556-.383.837-.594.552-.45 1.015-.98 1.434-1.535.047-.043.068-.106.115-.148 1.55.086 2.637-.895 2.637-.895-.255-1.488-1.18-2.214-1.363-2.34l-.047-.042-.02-.024c0-.081.02-.168.02-.277.022-.168.022-.317.022-.488v-.617c0-.043 0-.087-.022-.13l-.046-.254c-.021-.171-.068-.32-.094-.492a6.009 6.009 0 0 0-.786-1.788 6.904 6.904 0 0 0-1.32-1.449 6.439 6.439 0 0 0-1.665-.976 6.247 6.247 0 0 0-1.83-.473c-.302-.042-.624-.042-.925-.042h-.463c-.162.023-.323.042-.463.066a5.628 5.628 0 0 0-1.716.594c-.509.278-.946.64-1.316 1.043a4.197 4.197 0 0 0-.836 1.3 4.305 4.305 0 0 0-.323 1.383v.512c0 .062 0 .106.02.172a3.46 3.46 0 0 0 .766 1.808c.28.34.577.597.925.808a4.2 4.2 0 0 0 1.065.469c.374.11.718.148 1.04.129h.489c.046 0 .089-.02.115-.02.046 0 .067-.023.115-.023.067-.02.161-.043.229-.062.14-.043.28-.106.42-.149.136-.067.25-.129.344-.195.026-.02.073-.043.094-.062a.229.229 0 0 0 .046-.34.353.353 0 0 0-.348-.066c-.02.023-.046.023-.088.042-.098.047-.2.082-.302.11-.119.02-.233.062-.348.082-.068 0-.115.023-.187.023h-.39c-.021 0 0 0 0 0h-.094c-.025 0-.068 0-.094-.024a3.678 3.678 0 0 1-.786-.21 2.55 2.55 0 0 1-.717-.45 2.634 2.634 0 0 1-.577-.66 2.163 2.163 0 0 1-.302-.808c-.025-.148-.046-.297-.025-.445v-.13s0 .02 0 0v-.105c0-.086.025-.148.046-.234.124-.66.472-1.266.998-1.727a1.86 1.86 0 0 1 .442-.316 2.45 2.45 0 0 1 .484-.258 3.93 3.93 0 0 1 .531-.172c.187-.043.373-.082.556-.082.094 0 .187-.023.28-.023h.183s.025 0 0 0h.094c.62.047 1.218.215 1.761.492.739.383 1.363.957 1.733 1.66.186.34.326.723.394 1.129.021.106.021.191.047.297v.555c0 .106-.021.214-.021.32-.026.106-.026.21-.047.316l-.073.32c-.02.106-.136.407-.207.618-.068.214-.39.789-.671 1.128a5.496 5.496 0 0 1-2.178 1.641c-.438.172-.88.32-1.342.383-.23.042-.46.066-.692.066h-.348s.02 0 0 0h-.022c-.115 0-.255 0-.373-.023a8.903 8.903 0 0 1-1.482-.254 8.006 8.006 0 0 1-1.388-.512 7.483 7.483 0 0 1-2.289-1.745 8.07 8.07 0 0 1-.81-1.148 6.702 6.702 0 0 1-.535-1.258 5.188 5.188 0 0 1-.23-1.32v-.66c0-.21.022-.445.068-.68.025-.234.073-.448.115-.682.047-.23.12-.446.187-.68.067-.234.301-.87.51-1.277a7.59 7.59 0 0 1 1.574-2.11c.162-.148.323-.277.51-.401a2.24 2.24 0 0 1 .415-.3c.183-.106.37-.211.578-.298.093-.042.186-.086.301-.129.047-.02.094-.042.162-.062.046-.02.093-.043.161-.067a7.91 7.91 0 0 1 .625-.21c.046-.02.119-.02.165-.043.046-.023.115-.02.161-.043.047-.023.208-.043.323-.086.047-.02.115-.02.162-.043.046 0 .114-.02.161-.02.046 0 .115-.023.161-.023l.187-.042c.046 0 .115-.02.162-.02.072 0 .114-.02.186-.02.047 0 .136-.023.183-.023.046 0 .072 0 .115-.019h.161c.073 0 .12 0 .187-.02h.094s.02 0 0 0h.853c.416.02.836.063 1.227.126a8.395 8.395 0 0 1 2.224.683c.65.289 1.258.652 1.805 1.086.022.02.068.042.094.081.021.024.068.043.089.087.072.042.119.105.187.148.067.043.115.106.186.149.047.066.115.11.162.171a7.902 7.902 0 0 1 1.528 1.98c.021.02.021.043.047.087.02.02.02.043.046.082.021.042.047.11.089.152.025.043.046.106.073.148.02.043.046.106.067.149.094.191.162.382.233.574.115.297.183.555.256.766.025.09.11.148.207.152.115 0 .183-.086.183-.195-.021-.254-.021-.53-.047-.85l.008-.005Z" fill="#626262"/></svg>