<svg width="180" height="16" viewBox="0 0 180 16" fill="none" xmlns="http://www.w3.org/2000/svg">
<g opacity="0.6">
<path d="M2.92637 0.276367C5.94623 0.276367 8.13399 0.331625 9.48965 0.432935L9.3868 2.07231H3.70238C3.17881 2.07231 2.79547 2.1552 2.57109 2.31177C2.3467 2.47755 2.22516 2.75385 2.22516 3.15909V12.2401H0V2.74464C0 2.01705 0.271138 1.42761 0.822753 0.967116C1.37437 0.506617 2.07557 0.276367 2.92637 0.276367Z" fill="white"/>
<path d="M16.9598 3.53662C19.5122 3.53662 20.7837 5.04706 20.7837 8.06793C20.7837 9.67968 20.4471 10.8125 19.7833 11.4664C19.1195 12.1203 18.0536 12.4427 16.5858 12.4427C15.0805 12.4427 13.7342 12.1572 12.5655 11.5769C12.6216 12.2585 12.6497 12.8571 12.6403 13.3729V15.6017H10.4619V3.76687H12.257L12.4347 5.04706C13.0237 4.59577 13.7249 4.23658 14.5476 3.96028C15.3704 3.67477 16.1744 3.53662 16.9598 3.53662ZM15.9968 10.7388C16.9598 10.7388 17.6236 10.5638 17.9882 10.2139C18.3528 9.86388 18.5398 9.1455 18.5398 8.05872C18.5398 7.00878 18.3715 6.28119 18.0256 5.87596C17.6797 5.47072 17.0813 5.2681 16.2305 5.2681C15.6696 5.2681 15.1179 5.35099 14.585 5.51677C14.0521 5.68255 13.407 5.94963 12.6497 6.31803V10.3612C12.8647 10.3888 13.1546 10.4257 13.5285 10.4809C13.9025 10.5362 14.1923 10.5823 14.398 10.6099C14.6037 10.6375 14.8562 10.6651 15.1553 10.6836C15.4358 10.7204 15.7257 10.7388 15.9968 10.7388Z" fill="white"/>
<path d="M33.3586 3.76678L29.0205 12.4978C28.3847 13.7872 27.6368 14.6806 26.758 15.1779C25.7856 15.7213 24.3926 15.8871 22.5788 15.6753L22.7938 14.1556C23.9999 14.2109 24.8974 14.1004 25.4958 13.8241C26.1129 13.5478 26.6084 13.0781 26.973 12.4057L27.0571 12.2308H26.7019C26.2998 12.2308 26.0567 12.0558 25.9446 11.715L21.9991 3.75757H24.3178L27.0945 9.58748C27.2628 9.98351 27.3937 10.3519 27.4966 10.7111H27.8144C27.8612 10.6006 27.936 10.4072 28.0388 10.1493C28.1417 9.89141 28.2164 9.70721 28.2632 9.58748L31.0213 3.75757H33.3586V3.76678Z" fill="white"/>
<path d="M45.0547 3.74854V12.2401H42.9324V5.36028H37.5284V12.2401H35.4061V3.74854H45.0547Z" fill="white"/>
<path d="M57.6577 3.74854V12.2401H55.5354V5.36028H50.1315V12.2401H48.0092V3.74854H57.6577Z" fill="white"/>
<path d="M66.0629 3.52734C67.3811 3.52734 68.3628 3.74838 68.9986 4.18125C69.6343 4.62333 69.9429 5.38776 69.9429 6.48375V12.24H68.2413L67.9795 10.8216C66.6425 11.89 65.156 12.4334 63.5011 12.4334C62.482 12.4334 61.6686 12.2216 61.0609 11.7979C60.4532 11.3742 60.1447 10.7664 60.1447 9.98354V9.1178C60.1447 8.43626 60.4158 7.91129 60.9581 7.5429C61.5003 7.1745 62.2764 6.9903 63.2674 6.9903H67.7644V6.47454C67.7551 5.98641 67.5961 5.66406 67.3063 5.50749C67.0165 5.34171 66.4368 5.26803 65.586 5.26803C64.3239 5.26803 62.7438 5.32329 60.8459 5.44302L60.6215 3.96021C62.5475 3.66549 64.3613 3.52734 66.0629 3.52734ZM62.3231 9.36647V9.69803C62.3231 10.3888 62.8747 10.7388 63.9686 10.7388C65.3617 10.7388 66.6238 10.3611 67.7644 9.61514V8.41784H63.7161C62.7906 8.45468 62.3231 8.76782 62.3231 9.36647Z" fill="white"/>
<path d="M83.3219 7.79167V7.84693C83.8361 7.89298 84.2661 7.97587 84.6214 8.08639C84.9767 8.20612 85.2852 8.34427 85.5564 8.51926C85.8275 8.69425 86.0893 8.96134 86.3417 9.32974C86.5848 9.69814 86.8185 10.0942 87.0242 10.5086C87.2392 10.9231 87.501 11.5033 87.8189 12.2401H85.5376C85.173 11.448 84.8832 10.8494 84.6588 10.4441C84.4344 10.0389 84.1726 9.67972 83.8735 9.37579C83.5743 9.06265 83.2564 8.86003 82.9292 8.75872C82.5926 8.65741 82.1625 8.61136 81.639 8.61136H80.0963C80.1524 8.89687 80.1805 9.14554 80.1805 9.35737V12.2493H78.002V3.77612H80.1805V6.09704C80.1805 6.41938 80.143 6.75095 80.0776 7.0825H81.48C82.471 7.0825 83.2097 6.85226 83.6865 6.40097C84.1633 5.94968 84.6868 5.07473 85.2572 3.78533H87.4916C86.8091 5.34182 86.2295 6.37333 85.7433 6.87988C85.2478 7.36801 84.4438 7.68115 83.3219 7.79167Z" fill="white"/>
<path d="M90.4461 4.54062C91.2501 3.85908 92.6152 3.51831 94.5412 3.51831C96.4765 3.51831 97.8321 3.85908 98.6362 4.54062C99.4309 5.22216 99.8329 6.3734 99.8329 8.00357C99.8329 9.63374 99.4309 10.7758 98.6362 11.4573C97.8415 12.1296 96.4765 12.4704 94.5412 12.4704C92.5965 12.4704 91.2314 12.1296 90.4367 11.4573C89.642 10.785 89.24 9.63374 89.24 8.00357C89.24 6.3734 89.642 5.22216 90.4461 4.54062ZM94.5412 5.20374C93.3725 5.20374 92.5778 5.39715 92.1571 5.78397C91.7363 6.17078 91.5213 6.90758 91.5213 8.00357C91.5213 9.09035 91.7363 9.81794 92.1571 10.2048C92.5778 10.5916 93.3725 10.785 94.5412 10.785C95.6911 10.785 96.4765 10.5916 96.9159 10.2048C97.346 9.81794 97.5704 9.08114 97.5704 8.00357C97.5704 6.926 97.3553 6.18 96.9159 5.79318C96.4765 5.39715 95.6911 5.20374 94.5412 5.20374Z" fill="white"/>
<path d="M112.773 3.76685H114.951C115.474 3.76685 115.746 4.01552 115.746 4.51285L116.204 12.24H114.222L113.801 5.30491H113.418L110.781 10.5638C110.66 10.8033 110.547 10.9783 110.435 11.0704C110.323 11.1717 110.155 11.2177 109.93 11.2177H108.369C108.145 11.2177 107.976 11.1625 107.864 11.0611C107.743 10.9598 107.63 10.7941 107.509 10.5638L104.891 5.30491H104.508L104.124 12.24H102.142L102.582 4.51285C102.582 4.01552 102.853 3.76685 103.386 3.76685H105.564C105.976 3.76685 106.247 3.98789 106.387 4.42075L108.528 8.63893C108.677 8.91522 108.836 9.32967 108.986 9.88227H109.323C109.36 9.79017 109.407 9.65202 109.463 9.47703C109.519 9.30204 109.575 9.14547 109.622 9.00732C109.669 8.87838 109.725 8.74944 109.781 8.63893L111.922 4.42075C112.053 3.98789 112.342 3.76685 112.773 3.76685Z" fill="white"/>
<path d="M128.601 3.74854V12.2401H126.479V5.36028H121.075V12.2401H118.953V3.74854H128.601Z" fill="white"/>
<path d="M137.006 3.52734C138.324 3.52734 139.306 3.74838 139.942 4.18125C140.578 4.62333 140.886 5.38776 140.886 6.48375V12.24H139.185L138.923 10.8216C137.586 11.89 136.099 12.4334 134.444 12.4334C133.425 12.4334 132.612 12.2216 132.004 11.7979C131.396 11.3742 131.088 10.7664 131.088 9.98354V9.1178C131.088 8.43626 131.359 7.91129 131.901 7.5429C132.444 7.1745 133.22 6.9903 134.211 6.9903H138.708V6.47454C138.698 5.98641 138.539 5.66406 138.25 5.50749C137.96 5.34171 137.38 5.26803 136.529 5.26803C135.267 5.26803 133.687 5.32329 131.789 5.44302L131.565 3.96021C133.481 3.66549 135.295 3.52734 137.006 3.52734ZM133.266 9.36647V9.69803C133.266 10.3888 133.818 10.7388 134.921 10.7388C136.314 10.7388 137.576 10.3611 138.717 9.61514V8.41784H134.659C133.734 8.45468 133.266 8.76782 133.266 9.36647Z" fill="white"/>
<path d="M153.611 3.76685V12.24H151.47V8.5192H145.944V12.24H143.803V3.76685H145.944V6.98113H151.47V3.76685H153.611Z" fill="white"/>
<path d="M166.485 12.2401H164.54V7.34959C164.54 6.9904 164.559 6.55753 164.596 6.05099H164.54C164.353 6.50227 164.082 6.8891 163.717 7.22986L158.36 12.2493H156.565V3.77612H158.528V8.72188C158.528 9.14554 158.5 9.55999 158.444 9.94681H158.519C158.828 9.44947 159.099 9.08107 159.342 8.84161L164.699 3.77612H166.494V12.2401H166.485Z" fill="white"/>
<path d="M179.359 12.2401H177.414V7.34956C177.414 6.99037 177.433 6.5575 177.47 6.05095H177.414C177.227 6.50224 176.956 6.88906 176.591 7.22983L171.234 12.2493H169.439V3.77609H171.402V8.72185C171.402 9.14551 171.374 9.55996 171.318 9.94678H171.393C171.702 9.44944 171.973 9.08104 172.216 8.84158L177.573 3.77609H179.368V12.2401H179.359ZM176.274 0H177.872C177.947 0.718378 177.657 1.31702 177.021 1.80515C176.386 2.29328 175.516 2.54195 174.432 2.54195C173.328 2.54195 172.459 2.29328 171.814 1.79595C171.169 1.29861 170.888 0.699958 170.972 0H172.552C172.543 0.469709 172.702 0.828896 173.029 1.07757C173.357 1.32624 173.824 1.44596 174.432 1.44596C175.03 1.44596 175.488 1.32624 175.806 1.07757C176.124 0.828896 176.283 0.469709 176.274 0Z" fill="white"/>
</g>
</svg>
