<svg width="33" height="31" viewBox="0 0 33 31" fill="none" xmlns="http://www.w3.org/2000/svg">
<path d="M14.7661 27.6512L14.7647 27.6499C10.5931 23.8019 7.21027 20.6752 4.85863 17.7485C2.51849 14.8361 1.2998 12.2408 1.2998 9.47199C1.2998 4.94067 4.76922 1.4502 9.16855 1.4502C11.6656 1.4502 14.0836 2.63793 15.6605 4.50693L16.4248 5.41282L17.1891 4.50693C18.766 2.63793 21.184 1.4502 23.6811 1.4502C28.0804 1.4502 31.5498 4.94067 31.5498 9.47199C31.5498 12.2408 30.3311 14.8361 27.991 17.7485C25.6393 20.6752 22.2565 23.8019 18.0849 27.6499L18.0835 27.6513L16.4248 29.1873L14.7661 27.6512Z" stroke="white" stroke-width="2"/>
</svg>
