<svg width="217" height="82" viewBox="0 0 217 82" fill="none" xmlns="http://www.w3.org/2000/svg">
<path d="M102.353 79.4151C101.894 78.0156 102.656 76.5091 104.056 76.0503C105.455 75.5914 106.962 76.3539 107.421 77.7533C107.88 79.1527 107.117 80.6592 105.718 81.1181C104.318 81.577 102.812 80.8145 102.353 79.4151ZM201.524 4.4322C201.065 3.03276 201.827 1.52629 203.227 1.0674C204.626 0.608517 206.133 1.37099 206.592 2.77044C207.05 4.16988 206.288 5.67636 204.889 6.13524C203.489 6.59413 201.983 5.83165 201.524 4.4322ZM151.834 41.4715L151.67 40.9991L151.834 41.4715ZM104.887 78.5842C104.46 78.323 104.46 78.3229 104.46 78.3229C104.46 78.3229 104.46 78.3228 104.461 78.3228C104.461 78.3227 104.461 78.3226 104.461 78.3224C104.461 78.3221 104.461 78.3217 104.461 78.3213C104.462 78.3203 104.463 78.319 104.464 78.3172C104.466 78.3138 104.469 78.3088 104.473 78.3023C104.481 78.2893 104.493 78.2702 104.509 78.2452C104.54 78.1952 104.587 78.1216 104.648 78.0255C104.772 77.8333 104.956 77.5513 105.2 77.1893C105.689 76.4652 106.419 75.4209 107.386 74.1342L108.186 74.7354C107.229 76.0073 106.509 77.0377 106.029 77.7487C105.789 78.1042 105.609 78.3798 105.49 78.5658C105.43 78.6588 105.385 78.7295 105.356 78.7765C105.341 78.8 105.33 78.8176 105.323 78.8291C105.32 78.8349 105.317 78.8391 105.315 78.8418C105.314 78.8432 105.314 78.8442 105.313 78.8448C105.313 78.8451 105.313 78.8453 105.313 78.8454C105.313 78.8454 105.313 78.8455 105.313 78.8455C105.313 78.8455 105.313 78.8454 105.313 78.8454C105.313 78.8454 105.313 78.8454 104.887 78.5842ZM113.934 66.3239C116.023 64.0706 118.452 61.6472 121.216 59.1913L121.88 59.9389C119.143 62.3711 116.737 64.7715 114.668 67.0037L113.934 66.3239ZM129.167 52.8141C131.818 50.9029 134.678 49.0461 137.745 47.3125L138.237 48.183C135.205 49.8972 132.376 51.7339 129.751 53.6253L129.167 52.8141ZM146.899 42.8226C148.449 42.1748 150.039 41.5649 151.67 40.9991L151.998 41.9439C150.387 42.5027 148.816 43.1052 147.285 43.7452L146.899 42.8226ZM151.67 40.9991C153.383 40.4049 155.068 39.7589 156.722 39.0687L157.107 39.9916C155.435 40.6893 153.731 41.3427 151.998 41.9439L151.67 40.9991ZM166.455 34.35C169.694 32.5615 172.773 30.6434 175.67 28.6698L176.233 29.4963C173.313 31.4856 170.208 33.4204 166.939 35.2254L166.455 34.35ZM184.363 22.2028C187.402 19.7465 190.135 17.3278 192.524 15.0833L193.209 15.812C190.804 18.0716 188.052 20.5069 184.992 22.9806L184.363 22.2028ZM200.142 7.36431C201.291 6.1037 202.174 5.08355 202.768 4.37947C203.065 4.02745 203.29 3.75446 203.441 3.56997C203.516 3.47773 203.572 3.40761 203.61 3.3608C203.629 3.3374 203.643 3.31982 203.652 3.30822C203.657 3.30242 203.66 3.29811 203.662 3.29531C203.663 3.29391 203.664 3.29289 203.665 3.29226C203.665 3.29193 203.665 3.29171 203.665 3.29158C203.665 3.29152 203.665 3.29148 203.665 3.29146C203.665 3.29145 203.665 3.29146 203.665 3.29145C203.665 3.29146 203.665 3.29148 204.058 3.60132C204.45 3.91116 204.45 3.91119 204.45 3.91122C204.45 3.91125 204.45 3.91129 204.45 3.91133C204.45 3.91141 204.45 3.91151 204.45 3.91164C204.45 3.91189 204.449 3.91224 204.449 3.91268C204.448 3.91357 204.447 3.91484 204.446 3.91648C204.443 3.91978 204.439 3.92459 204.434 3.93089C204.424 3.9435 204.41 3.9621 204.39 3.98652C204.351 4.03538 204.293 4.10758 204.216 4.20193C204.062 4.39063 203.833 4.66797 203.532 5.02449C202.93 5.73749 202.04 6.76726 200.881 8.03801L200.142 7.36431Z" fill="#202020"/>
<g clip-path="url(#clip0_219_165)">
<rect width="20" height="30.5" transform="translate(144.062 26.8551) rotate(-14.6617)" fill="white"/>
<path d="M154.675 53.0738C154.703 53.1787 154.719 53.4546 154.906 53.7418C155.068 54.1475 155.506 54.5371 155.942 54.7033C156.14 54.8194 156.311 54.8307 156.482 54.842C156.601 54.867 156.72 54.892 156.72 54.892C156.72 54.892 156.786 54.9307 157.009 54.9283C157.114 54.9008 157.233 54.9258 157.39 54.8847C157.442 54.871 157.495 54.8572 157.495 54.8572C157.771 54.8411 158.085 54.7588 158.347 54.6902C158.924 54.5393 159.421 54.2972 159.984 54.0939C160.534 53.8381 161.083 53.5823 161.619 53.2741C161.762 53.1805 161.867 53.1531 162.011 53.0595C162.154 52.9659 162.259 52.9384 162.403 52.8448C162.56 52.8037 162.651 52.7238 162.808 52.6827C162.966 52.6415 163.109 52.5479 163.214 52.5205C164.393 52.1001 165.704 51.7571 166.96 51.2044C167.614 50.9212 168.254 50.5855 168.84 50.0401C168.984 49.9465 169.114 49.8005 169.243 49.6545C169.373 49.5085 169.489 49.31 169.619 49.164C169.799 48.7808 169.913 48.3588 169.922 47.9643C169.992 47.1616 169.786 46.3751 169.594 45.641C169.349 44.9206 169.105 44.2003 168.742 43.4549C168.445 42.7482 168.096 42.0553 167.799 41.3486C167.502 40.642 167.191 39.8829 166.894 39.1762C165.679 36.2447 164.37 33.1696 163.114 30.0808C162.803 29.3217 162.479 28.5101 162.168 27.751C161.858 26.9919 161.533 26.1804 161.104 25.3963C160.889 25.0043 160.675 24.6122 160.355 24.2476C160.036 23.883 159.625 23.5983 159.137 23.4458C158.161 23.141 157.192 23.5065 156.419 23.7647C154.782 24.361 153.212 24.9961 151.614 25.5262C150.788 25.7982 150.016 26.0564 149.229 26.2622C148.39 26.4817 147.579 26.806 146.808 27.2877C146.43 27.5548 146.118 27.8605 145.819 28.2187C145.521 28.577 145.302 29.0263 145.202 29.5007C145.089 29.9226 145.107 30.422 145.164 30.8552C145.167 31.0786 145.222 31.2884 145.277 31.4981L145.441 32.1273C145.919 33.7391 146.593 35.2436 147.253 36.6956C147.913 38.1477 148.625 39.586 149.219 40.9993C149.813 42.4126 150.407 43.826 150.987 45.1868C151.919 47.4641 152.823 49.6365 153.687 51.6517C153.956 52.2535 154.132 52.7117 154.132 52.7117L154.198 52.7504C154.648 52.969 154.789 52.6519 154.853 52.4672L154.839 52.4147C154.839 52.4147 154.663 51.9565 154.393 51.3547C153.61 49.4308 152.733 47.3632 151.828 45.1908C151.248 43.8299 150.668 42.469 150.074 41.0557C149.48 39.6424 148.782 38.2565 148.122 36.8045C147.462 35.3524 146.802 33.9004 146.299 32.4072C146.15 32.0539 146.041 31.6344 145.945 31.2673C145.849 30.9003 145.805 30.5195 145.827 30.1775C145.825 29.954 145.889 29.7693 145.9 29.5982C145.964 29.4135 145.975 29.2425 146.105 29.0964C146.246 28.7794 146.506 28.4873 146.779 28.2477C147.326 27.7685 148.072 27.4054 148.844 27.1472C149.198 26.9987 149.617 26.8889 150.037 26.7792C150.456 26.6694 150.862 26.5073 151.229 26.4112C152.827 25.8811 154.398 25.246 155.982 24.6635C156.388 24.5013 156.755 24.4052 157.161 24.243C157.37 24.1882 157.528 24.147 157.737 24.0921C157.842 24.0647 157.895 24.051 158 24.0235L158.157 23.9824L158.275 24.0074C158.656 23.9638 158.96 24.0525 159.29 24.2461C159.607 24.3872 159.861 24.7131 160.048 25.0003C160.488 25.6134 160.799 26.3725 161.123 27.184C161.434 27.9431 161.745 28.7022 162.055 29.4613C163.298 32.4977 164.593 35.5203 165.795 38.3994C166.091 39.1061 166.402 39.8652 166.699 40.5718C166.848 40.9252 166.996 41.2785 167.144 41.6318C167.293 41.9852 167.441 42.3385 167.642 42.6781C168.275 44.0253 168.855 45.3862 169.093 46.7245C169.205 47.3674 169.226 48.0903 168.969 48.6058C168.892 48.7381 168.814 48.8704 168.723 48.9503C168.632 49.0301 168.502 49.1762 168.425 49.3085C168.204 49.5344 167.916 49.7216 167.682 49.895C166.572 50.5776 165.327 50.9593 164.135 51.3273C163.519 51.5443 162.942 51.6952 162.393 51.951C162.092 52.0858 161.844 52.2068 161.543 52.3415C161.294 52.4626 161.046 52.5836 160.759 52.7708C159.778 53.3073 158.771 53.739 157.827 53.9859C157.722 54.0134 157.617 54.0408 157.46 54.082L157.303 54.1231C157.25 54.1369 157.25 54.1369 157.198 54.1506L157.145 54.1643C157.093 54.178 157.093 54.178 157.093 54.178C157.041 54.1917 156.988 54.2055 156.936 54.2192C156.765 54.2079 156.66 54.2353 156.66 54.2353L156.607 54.249C156.555 54.2628 156.489 54.224 156.384 54.2515C156.213 54.2402 155.976 54.1902 155.791 54.1265C155.606 54.0628 155.394 53.8942 155.314 53.803C155.168 53.6732 155.154 53.6207 155.154 53.6207C154.915 53.3473 154.728 53.0601 154.648 52.969C154.673 52.8504 154.686 52.9028 154.675 53.0738Z" fill="#202020"/>
<path d="M166.637 45.6865L166.833 45.5791L167.12 45.392L167.263 45.2984L167.368 45.2709L167.421 45.2572C167.421 45.2572 167.421 45.2572 167.407 45.2048L167.259 44.8514C167.217 44.6941 167.124 44.5506 167.083 44.3932C166.893 43.8826 166.703 43.372 166.5 42.8089C165.675 40.7276 164.757 38.5028 163.825 36.2255C163.352 35.0606 162.788 33.9756 162.263 32.8245C162.007 32.2751 161.738 31.6734 161.468 31.0716C161.199 30.4698 160.943 29.9204 160.726 29.3049C160.509 28.6894 160.292 28.0739 160.022 27.4721C159.888 27.1712 159.753 26.8703 159.618 26.5694C159.525 26.4258 159.483 26.2685 159.39 26.1249L159.269 25.8765L159.04 25.432L159.027 25.3796C159.013 25.3271 159.013 25.3271 158.974 25.3933L158.869 25.4207L158.607 25.4893L158.293 25.5716L157.834 25.7475L156.904 26.0469C156.289 26.264 155.673 26.481 155.058 26.6981C152.438 27.6075 149.99 28.5282 147.597 29.6586L147.243 29.8071L147.047 29.9144L146.942 29.9418C146.89 29.9555 146.942 29.9418 146.956 29.9942L146.97 30.0467L147.281 30.8058C147.363 31.1204 147.498 31.4213 147.632 31.7222C147.849 32.3377 148.105 32.887 148.322 33.5025C148.795 34.6674 149.216 35.846 149.636 37.0246C150.515 39.3156 151.343 41.6203 152.22 43.6879C152.665 44.7478 153.149 45.7417 153.633 46.7355C153.875 47.2324 154.104 47.6769 154.346 48.1738C154.439 48.3174 154.48 48.4747 154.574 48.6183C154.896 49.2064 155.163 49.5847 155.177 49.6372L155.243 49.6759C155.731 49.8283 155.82 49.525 155.817 49.3015C155.804 49.2491 155.804 49.2491 155.804 49.2491C155.804 49.2491 155.589 48.857 155.267 48.269C155.24 48.1641 155.16 48.0729 155.132 47.9681C154.904 47.5236 154.676 47.0791 154.434 46.5822C153.911 45.6545 153.479 44.6469 153.047 43.6394C152.17 41.5718 151.318 39.3857 150.491 37.081C150.084 35.9548 149.612 34.79 149.191 33.6114C148.974 32.9959 148.718 32.4465 148.501 31.831C148.366 31.5301 148.232 31.2292 148.097 30.9283L147.935 30.5226L147.907 30.4177L147.894 30.3653L148.391 30.1232L149.241 29.7327C149.843 29.4632 150.406 29.2598 151.007 28.9903C152.225 28.5038 153.403 28.0834 154.621 27.5968C155.852 27.1627 157.083 26.7286 158.275 26.3606L158.537 26.292L158.551 26.3444C158.686 26.6453 158.859 26.8801 158.994 27.181C159.25 27.7303 159.467 28.3458 159.736 28.9476C159.953 29.5631 160.157 30.1262 160.426 30.728C160.696 31.3298 160.951 31.8791 161.207 32.4285C161.732 33.5796 162.296 34.6646 162.756 35.777C163.267 36.8758 163.674 38.0019 164.119 39.0619C164.565 40.1219 165.01 41.1819 165.389 42.2031C165.579 42.7138 165.768 43.2244 166.011 43.7213C166.132 43.9698 166.2 44.232 166.321 44.4804C166.349 44.5853 166.39 44.7426 166.47 44.8338C166.483 44.8862 166.483 44.8862 166.483 44.8862L166.378 44.9136C166.287 44.9935 166.13 45.0347 166.039 45.1145C165.79 45.2356 165.594 45.3429 165.398 45.4502C164.954 45.6785 164.496 45.8544 164.037 46.0303C163.121 46.3822 162.243 46.6678 161.432 46.9922C160.62 47.3166 159.823 47.6934 159.116 47.9903C158.815 48.125 158.566 48.2461 158.37 48.3534C158.279 48.4333 158.174 48.4607 158.174 48.4607C158.174 48.4607 157.744 48.7415 157.247 48.9835C156.802 49.2119 156.372 49.4927 156.424 49.4789C155.692 49.8945 155.237 50.2938 156.586 49.8847C157.373 49.6789 158.433 49.2335 158.433 49.2335C158.433 49.2335 158.538 49.2061 158.681 49.1125C158.786 49.085 158.877 49.0052 158.982 48.9777C159.178 48.8704 159.427 48.7494 159.623 48.6421C160.028 48.4799 160.368 48.279 160.774 48.1168C161.571 47.74 162.449 47.4543 163.366 47.1025C164.282 46.7507 165.251 46.3852 166.245 45.9011C166.388 45.8075 166.532 45.7139 166.637 45.6865Z" fill="#202020"/>
<path d="M163.513 49.8091C163.475 49.8752 163.461 49.8228 163.513 49.8091C163.37 49.9027 163.317 49.9164 163.317 49.9164C162.586 50.3319 162.116 50.6788 163.48 50.3221L163.637 50.281L163.689 50.2673L163.794 50.2398C163.952 50.1987 164.109 50.1575 164.252 50.0639C164.211 49.9066 164.184 49.8018 164.143 49.6444C164.129 49.592 164.101 49.4871 164.088 49.4347C164.074 49.3823 164.06 49.3298 164.06 49.3298C164.019 49.1725 163.978 49.0152 163.884 48.8716C163.763 48.6232 163.656 48.4271 163.656 48.4271C163.576 48.336 163.483 48.1924 163.35 48.115C163.284 48.0763 163.218 48.0375 163.152 47.9988C163.086 47.9601 163.02 47.9214 162.849 47.9101C162.625 47.9125 162.573 47.9263 162.468 47.9537C162.363 47.9811 162.258 48.0086 162.206 48.0223C162.048 48.0635 161.839 48.1183 161.695 48.2119C161.538 48.2531 161.342 48.3604 161.184 48.4015C161.079 48.429 161.041 48.4951 160.936 48.5226C160.883 48.5363 160.845 48.6024 160.792 48.6162C160.74 48.6299 160.701 48.696 160.61 48.7759C160.389 49.0018 160.339 49.239 160.275 49.4237C160.225 49.6609 160.214 49.8319 160.216 50.0554C160.219 50.2789 160.274 50.4886 160.381 50.6846C160.488 50.8807 160.662 51.1154 160.86 51.2315L160.979 51.2565C161.031 51.2428 161.045 51.2953 161.097 51.2815C161.216 51.3065 161.268 51.2928 161.387 51.3178C161.558 51.3291 161.702 51.2355 161.807 51.2081C162.055 51.087 162.199 50.9934 162.356 50.9523L162.395 50.8861C162.511 50.6877 162.522 50.5166 162.495 50.4118C162.467 50.3069 162.282 50.2432 162.164 50.2182C162.111 50.2319 162.111 50.2319 162.111 50.2319C161.849 50.3005 161.667 50.4603 161.51 50.5014C161.405 50.5288 161.352 50.5426 161.352 50.5426L161.3 50.5563L161.286 50.5038C161.154 50.4264 160.98 50.1917 160.964 49.9158C160.923 49.7585 160.948 49.6399 160.973 49.5213C160.998 49.4027 161.075 49.2704 161.114 49.2042C161.44 48.9509 162.409 48.5854 162.79 48.5418C162.79 48.5418 162.79 48.5418 162.842 48.5281L162.908 48.5668C162.974 48.6055 162.988 48.6579 163.054 48.6966C163.054 48.6966 163.187 48.7741 163.308 49.0225C163.388 49.1137 163.429 49.271 163.522 49.4146C163.536 49.467 163.55 49.5195 163.55 49.5195L163.563 49.5719L163.577 49.6243C163.566 49.7953 163.513 49.8091 163.513 49.8091Z" fill="#202020"/>
</g>
<g clip-path="url(#clip1_219_165)">
<rect width="20" height="13.6196" transform="translate(0.305664 17.4892) rotate(-13.319)" fill="white"/>
<mask id="path-5-outside-1_219_165" maskUnits="userSpaceOnUse" x="-0.901962" y="11.6606" width="24.8638" height="19.6647" fill="black">
<rect fill="white" x="-0.901962" y="11.6606" width="24.8638" height="19.6647"/>
<path d="M5.41557 29.3089C5.64917 28.8753 5.84297 28.4512 6.04619 28.0668C6.24941 27.6825 6.483 27.2489 6.6768 26.8247L7.92861 24.3008L8.12241 23.8766C8.12241 23.8766 8.76667 22.3371 8.73629 22.3863C8.78762 22.2481 8.82953 22.07 8.89029 21.9716L9.06833 22.0135L9.70091 22.2C9.70091 22.2 10.0968 22.2744 10.5021 22.3886C10.898 22.463 11.2939 22.5374 11.2939 22.5374C11.5117 22.5699 11.6803 22.572 11.8092 22.5835C11.8678 22.6537 11.917 22.6841 11.9662 22.7144C12.0553 22.7354 12.1747 22.7071 12.2145 22.6977C12.2543 22.6883 12.2543 22.6883 12.2543 22.6883C12.4062 22.4422 12.5978 22.1867 12.8293 21.9217L13.5238 21.1268C13.6547 20.9697 13.7459 20.8221 13.8862 20.7048L13.9868 20.5969C14.2632 20.6996 14.4999 20.8117 14.7764 20.9143L19.8757 23.2797L20.2998 23.4735C20.2998 23.4735 21.8697 24.0686 21.7807 24.0476C22.3735 24.2435 22.7694 24.3179 22.1599 23.8738C22.1808 23.7848 22.1337 23.5858 22.0981 23.2579C21.9872 22.6117 21.7401 21.7456 21.7401 21.7456L19.2031 14.4024L18.9162 13.5457C18.9277 13.4169 18.9581 13.3676 18.8481 13.4357C18.7895 13.3655 18.7099 13.3844 18.6607 13.354C18.8806 13.2179 18.7822 13.1571 18.0962 13.2775C17.4499 13.3884 16.5838 13.6355 16.5838 13.6355L2.09864 18.4938L1.1623 18.7995L1.13192 18.8487C1.04079 18.9964 1.01983 19.0854 1.03868 19.165C0.870055 19.1629 0.778923 19.3106 0.76739 19.4394L0.776812 19.4792L1.08254 20.4155L3.69491 28.0771C3.69491 28.0771 4.3106 29.6125 4.30118 29.5727C4.32002 29.6523 4.37867 29.7225 4.39751 29.8021L4.36713 29.8513L4.37656 29.8911C4.38387 30.0995 4.45193 30.2095 4.54096 30.2305C4.56922 30.3499 4.70747 30.4012 4.79649 30.4222L4.83629 30.4127L5.77264 30.107L20.2976 25.2393C20.2976 25.2393 21.833 24.6236 21.7932 24.6331C22.4017 24.3629 22.7621 24.1095 21.7178 24.3147C21.0716 24.4256 20.2055 24.6727 20.2055 24.6727L5.60093 29.5592L5.21235 29.6932C5.26368 29.555 5.36424 29.4471 5.41557 29.3089ZM21.0844 21.8167C21.0844 21.8167 21.7001 23.3522 21.6907 23.3124C21.7682 23.4621 21.8457 23.6119 21.9137 23.7219C21.9137 23.7219 21.9137 23.7219 21.8645 23.6915C21.3231 23.3574 20.545 22.9111 20.545 22.9111L20.0318 22.6964L14.9325 20.331C14.7451 20.2493 14.5178 20.177 14.3209 20.0555L15.4805 18.5621L16.8013 16.8624L17.4371 15.9974L17.8205 15.4863C17.8205 15.4863 18.0331 15.1417 18.2856 14.7878C18.4071 14.5909 18.4982 14.4432 18.5496 14.305L18.6553 14.5741L21.0844 21.8167ZM2.27036 19.0416L16.6759 14.2021C16.6759 14.2021 18.2113 13.5865 18.1715 13.5959C18.2511 13.577 18.3213 13.5184 18.3611 13.509C18.3307 13.5582 18.3307 13.5582 18.3402 13.598L18.3496 13.6378L18.4459 13.8672C18.0133 14.3479 17.4592 15.0254 17.4592 15.0254L17.1156 15.5271L16.4798 16.3921L15.1684 18.1316L13.8475 19.8313C13.6255 20.1361 13.394 20.401 13.1625 20.666C12.931 20.9309 12.6995 21.1959 12.4377 21.5101C12.2062 21.775 12.0145 22.0305 11.7924 22.3353L11.8018 22.3751C11.7034 22.3143 11.5746 22.3028 11.4269 22.2117C10.8247 21.976 9.99526 21.668 9.99526 21.668L9.41191 21.5119L8.33422 21.2206L6.29826 20.6098C4.93467 20.1761 3.5805 19.7821 2.18653 19.3976C1.99907 19.3159 1.83045 19.3138 1.6922 19.2625L2.27036 19.0416ZM4.25211 27.9452L1.6607 20.1946L1.52667 19.806C1.70472 19.848 1.84296 19.8993 2.01158 19.9014C3.35633 20.2555 4.7105 20.6495 6.03429 21.0926L8.03045 21.7128L8.66302 21.8993C8.60227 21.9977 8.54151 22.0962 8.44096 22.2041C8.11623 22.7853 7.63019 23.5728 7.63019 23.5728L7.36621 24.0556L6.10498 26.5398C5.91119 26.964 5.71739 27.3881 5.47437 27.7819C5.24077 28.2155 5.04697 28.6396 4.84375 29.024C4.75262 29.1716 4.66149 29.3193 4.57035 29.467C4.4992 28.8113 4.25211 27.9452 4.25211 27.9452Z"/>
</mask>
<path d="M5.41557 29.3089C5.64917 28.8753 5.84297 28.4512 6.04619 28.0668C6.24941 27.6825 6.483 27.2489 6.6768 26.8247L7.92861 24.3008L8.12241 23.8766C8.12241 23.8766 8.76667 22.3371 8.73629 22.3863C8.78762 22.2481 8.82953 22.07 8.89029 21.9716L9.06833 22.0135L9.70091 22.2C9.70091 22.2 10.0968 22.2744 10.5021 22.3886C10.898 22.463 11.2939 22.5374 11.2939 22.5374C11.5117 22.5699 11.6803 22.572 11.8092 22.5835C11.8678 22.6537 11.917 22.6841 11.9662 22.7144C12.0553 22.7354 12.1747 22.7071 12.2145 22.6977C12.2543 22.6883 12.2543 22.6883 12.2543 22.6883C12.4062 22.4422 12.5978 22.1867 12.8293 21.9217L13.5238 21.1268C13.6547 20.9697 13.7459 20.8221 13.8862 20.7048L13.9868 20.5969C14.2632 20.6996 14.4999 20.8117 14.7764 20.9143L19.8757 23.2797L20.2998 23.4735C20.2998 23.4735 21.8697 24.0686 21.7807 24.0476C22.3735 24.2435 22.7694 24.3179 22.1599 23.8738C22.1808 23.7848 22.1337 23.5858 22.0981 23.2579C21.9872 22.6117 21.7401 21.7456 21.7401 21.7456L19.2031 14.4024L18.9162 13.5457C18.9277 13.4169 18.9581 13.3676 18.8481 13.4357C18.7895 13.3655 18.7099 13.3844 18.6607 13.354C18.8806 13.2179 18.7822 13.1571 18.0962 13.2775C17.4499 13.3884 16.5838 13.6355 16.5838 13.6355L2.09864 18.4938L1.1623 18.7995L1.13192 18.8487C1.04079 18.9964 1.01983 19.0854 1.03868 19.165C0.870055 19.1629 0.778923 19.3106 0.76739 19.4394L0.776812 19.4792L1.08254 20.4155L3.69491 28.0771C3.69491 28.0771 4.3106 29.6125 4.30118 29.5727C4.32002 29.6523 4.37867 29.7225 4.39751 29.8021L4.36713 29.8513L4.37656 29.8911C4.38387 30.0995 4.45193 30.2095 4.54096 30.2305C4.56922 30.3499 4.70747 30.4012 4.79649 30.4222L4.83629 30.4127L5.77264 30.107L20.2976 25.2393C20.2976 25.2393 21.833 24.6236 21.7932 24.6331C22.4017 24.3629 22.7621 24.1095 21.7178 24.3147C21.0716 24.4256 20.2055 24.6727 20.2055 24.6727L5.60093 29.5592L5.21235 29.6932C5.26368 29.555 5.36424 29.4471 5.41557 29.3089ZM21.0844 21.8167C21.0844 21.8167 21.7001 23.3522 21.6907 23.3124C21.7682 23.4621 21.8457 23.6119 21.9137 23.7219C21.9137 23.7219 21.9137 23.7219 21.8645 23.6915C21.3231 23.3574 20.545 22.9111 20.545 22.9111L20.0318 22.6964L14.9325 20.331C14.7451 20.2493 14.5178 20.177 14.3209 20.0555L15.4805 18.5621L16.8013 16.8624L17.4371 15.9974L17.8205 15.4863C17.8205 15.4863 18.0331 15.1417 18.2856 14.7878C18.4071 14.5909 18.4982 14.4432 18.5496 14.305L18.6553 14.5741L21.0844 21.8167ZM2.27036 19.0416L16.6759 14.2021C16.6759 14.2021 18.2113 13.5865 18.1715 13.5959C18.2511 13.577 18.3213 13.5184 18.3611 13.509C18.3307 13.5582 18.3307 13.5582 18.3402 13.598L18.3496 13.6378L18.4459 13.8672C18.0133 14.3479 17.4592 15.0254 17.4592 15.0254L17.1156 15.5271L16.4798 16.3921L15.1684 18.1316L13.8475 19.8313C13.6255 20.1361 13.394 20.401 13.1625 20.666C12.931 20.9309 12.6995 21.1959 12.4377 21.5101C12.2062 21.775 12.0145 22.0305 11.7924 22.3353L11.8018 22.3751C11.7034 22.3143 11.5746 22.3028 11.4269 22.2117C10.8247 21.976 9.99526 21.668 9.99526 21.668L9.41191 21.5119L8.33422 21.2206L6.29826 20.6098C4.93467 20.1761 3.5805 19.7821 2.18653 19.3976C1.99907 19.3159 1.83045 19.3138 1.6922 19.2625L2.27036 19.0416ZM4.25211 27.9452L1.6607 20.1946L1.52667 19.806C1.70472 19.848 1.84296 19.8993 2.01158 19.9014C3.35633 20.2555 4.7105 20.6495 6.03429 21.0926L8.03045 21.7128L8.66302 21.8993C8.60227 21.9977 8.54151 22.0962 8.44096 22.2041C8.11623 22.7853 7.63019 23.5728 7.63019 23.5728L7.36621 24.0556L6.10498 26.5398C5.91119 26.964 5.71739 27.3881 5.47437 27.7819C5.24077 28.2155 5.04697 28.6396 4.84375 29.024C4.75262 29.1716 4.66149 29.3193 4.57035 29.467C4.4992 28.8113 4.25211 27.9452 4.25211 27.9452Z" fill="#202020"/>
<path d="M5.41557 29.3089C5.64917 28.8753 5.84297 28.4512 6.04619 28.0668C6.24941 27.6825 6.483 27.2489 6.6768 26.8247L7.92861 24.3008L8.12241 23.8766C8.12241 23.8766 8.76667 22.3371 8.73629 22.3863C8.78762 22.2481 8.82953 22.07 8.89029 21.9716L9.06833 22.0135L9.70091 22.2C9.70091 22.2 10.0968 22.2744 10.5021 22.3886C10.898 22.463 11.2939 22.5374 11.2939 22.5374C11.5117 22.5699 11.6803 22.572 11.8092 22.5835C11.8678 22.6537 11.917 22.6841 11.9662 22.7144C12.0553 22.7354 12.1747 22.7071 12.2145 22.6977C12.2543 22.6883 12.2543 22.6883 12.2543 22.6883C12.4062 22.4422 12.5978 22.1867 12.8293 21.9217L13.5238 21.1268C13.6547 20.9697 13.7459 20.8221 13.8862 20.7048L13.9868 20.5969C14.2632 20.6996 14.4999 20.8117 14.7764 20.9143L19.8757 23.2797L20.2998 23.4735C20.2998 23.4735 21.8697 24.0686 21.7807 24.0476C22.3735 24.2435 22.7694 24.3179 22.1599 23.8738C22.1808 23.7848 22.1337 23.5858 22.0981 23.2579C21.9872 22.6117 21.7401 21.7456 21.7401 21.7456L19.2031 14.4024L18.9162 13.5457C18.9277 13.4169 18.9581 13.3676 18.8481 13.4357C18.7895 13.3655 18.7099 13.3844 18.6607 13.354C18.8806 13.2179 18.7822 13.1571 18.0962 13.2775C17.4499 13.3884 16.5838 13.6355 16.5838 13.6355L2.09864 18.4938L1.1623 18.7995L1.13192 18.8487C1.04079 18.9964 1.01983 19.0854 1.03868 19.165C0.870055 19.1629 0.778923 19.3106 0.76739 19.4394L0.776812 19.4792L1.08254 20.4155L3.69491 28.0771C3.69491 28.0771 4.3106 29.6125 4.30118 29.5727C4.32002 29.6523 4.37867 29.7225 4.39751 29.8021L4.36713 29.8513L4.37656 29.8911C4.38387 30.0995 4.45193 30.2095 4.54096 30.2305C4.56922 30.3499 4.70747 30.4012 4.79649 30.4222L4.83629 30.4127L5.77264 30.107L20.2976 25.2393C20.2976 25.2393 21.833 24.6236 21.7932 24.6331C22.4017 24.3629 22.7621 24.1095 21.7178 24.3147C21.0716 24.4256 20.2055 24.6727 20.2055 24.6727L5.60093 29.5592L5.21235 29.6932C5.26368 29.555 5.36424 29.4471 5.41557 29.3089ZM21.0844 21.8167C21.0844 21.8167 21.7001 23.3522 21.6907 23.3124C21.7682 23.4621 21.8457 23.6119 21.9137 23.7219C21.9137 23.7219 21.9137 23.7219 21.8645 23.6915C21.3231 23.3574 20.545 22.9111 20.545 22.9111L20.0318 22.6964L14.9325 20.331C14.7451 20.2493 14.5178 20.177 14.3209 20.0555L15.4805 18.5621L16.8013 16.8624L17.4371 15.9974L17.8205 15.4863C17.8205 15.4863 18.0331 15.1417 18.2856 14.7878C18.4071 14.5909 18.4982 14.4432 18.5496 14.305L18.6553 14.5741L21.0844 21.8167ZM2.27036 19.0416L16.6759 14.2021C16.6759 14.2021 18.2113 13.5865 18.1715 13.5959C18.2511 13.577 18.3213 13.5184 18.3611 13.509C18.3307 13.5582 18.3307 13.5582 18.3402 13.598L18.3496 13.6378L18.4459 13.8672C18.0133 14.3479 17.4592 15.0254 17.4592 15.0254L17.1156 15.5271L16.4798 16.3921L15.1684 18.1316L13.8475 19.8313C13.6255 20.1361 13.394 20.401 13.1625 20.666C12.931 20.9309 12.6995 21.1959 12.4377 21.5101C12.2062 21.775 12.0145 22.0305 11.7924 22.3353L11.8018 22.3751C11.7034 22.3143 11.5746 22.3028 11.4269 22.2117C10.8247 21.976 9.99526 21.668 9.99526 21.668L9.41191 21.5119L8.33422 21.2206L6.29826 20.6098C4.93467 20.1761 3.5805 19.7821 2.18653 19.3976C1.99907 19.3159 1.83045 19.3138 1.6922 19.2625L2.27036 19.0416ZM4.25211 27.9452L1.6607 20.1946L1.52667 19.806C1.70472 19.848 1.84296 19.8993 2.01158 19.9014C3.35633 20.2555 4.7105 20.6495 6.03429 21.0926L8.03045 21.7128L8.66302 21.8993C8.60227 21.9977 8.54151 22.0962 8.44096 22.2041C8.11623 22.7853 7.63019 23.5728 7.63019 23.5728L7.36621 24.0556L6.10498 26.5398C5.91119 26.964 5.71739 27.3881 5.47437 27.7819C5.24077 28.2155 5.04697 28.6396 4.84375 29.024C4.75262 29.1716 4.66149 29.3193 4.57035 29.467C4.4992 28.8113 4.25211 27.9452 4.25211 27.9452Z" stroke="#202020" stroke-width="0.4" mask="url(#path-5-outside-1_219_165)"/>
</g>
<g clip-path="url(#clip2_219_165)">
<rect width="20" height="13.6196" transform="translate(44.0469 23.5737) rotate(32.2818)" fill="white"/>
<mask id="path-6-outside-2_219_165" maskUnits="userSpaceOnUse" x="35.734" y="22.1788" width="26.6108" height="24.4313" fill="black">
<rect fill="white" x="35.734" y="22.1788" width="26.6108" height="24.4313"/>
<path d="M39.1771 35.4943C39.6503 35.3578 40.089 35.1995 40.5058 35.0758C40.9226 34.9521 41.3958 34.8156 41.8344 34.6574L44.5136 33.7859L44.9522 33.6276C44.9522 33.6276 46.5029 33.0107 46.4465 33.0235C46.5812 32.9634 46.7377 32.8688 46.8506 32.8433L46.9452 32.9999L47.2545 33.5823C47.2545 33.5823 47.4784 33.9172 47.6804 34.2867C47.9042 34.6216 48.128 34.9565 48.128 34.9565C48.2572 35.1349 48.3737 35.2568 48.4556 35.3569C48.4465 35.4479 48.4592 35.5044 48.4719 35.5608C48.5192 35.6391 48.623 35.7046 48.6576 35.7264C48.6921 35.7483 48.6921 35.7483 48.6921 35.7483C48.9742 35.6846 49.2909 35.6428 49.6422 35.6228L50.696 35.5629C50.8998 35.5465 51.0691 35.5083 51.2511 35.5265L51.3985 35.5229C51.5186 35.7923 51.6041 36.0398 51.7242 36.3092L53.6019 41.6074L53.7602 42.0461C53.7602 42.0461 54.4334 43.5841 54.3861 43.5058C54.6609 44.0664 54.8847 44.4013 54.7756 43.6551C54.8539 43.6078 54.9631 43.4349 55.1724 43.1801C55.5565 42.6487 56.0025 41.8661 56.0025 41.8661L59.474 34.9159L59.8854 34.1115C59.9855 34.0296 60.0419 34.0168 59.9164 33.9859C59.9255 33.8949 59.8563 33.8512 59.8436 33.7948C60.0947 33.8567 60.0693 33.7438 59.5033 33.3379C58.9719 32.9538 58.1893 32.5078 58.1893 32.5078L44.5836 25.5576L43.7101 25.1025L43.6536 25.1152C43.4844 25.1534 43.4061 25.2007 43.3624 25.2699C43.246 25.1479 43.0767 25.1861 42.9766 25.268L42.9547 25.3026L42.4996 26.1761L38.8534 33.403C38.8534 33.403 38.1871 34.9172 38.2089 34.8826C38.1652 34.9518 38.1561 35.0428 38.1124 35.112L38.056 35.1247L38.0342 35.1593C37.8904 35.3103 37.8594 35.4359 37.9067 35.5142C37.8412 35.6179 37.9013 35.7526 37.9486 35.8308L37.9831 35.8527L38.8567 36.3078L52.497 43.2799C52.497 43.2799 54.0112 43.9462 53.9766 43.9244C54.5954 44.1701 55.0285 44.2503 54.1513 43.6477C53.6199 43.2637 52.8374 42.8177 52.8374 42.8177L39.1279 35.8019L38.7603 35.618C38.895 35.5579 39.0424 35.5543 39.1771 35.4943ZM55.4929 41.4475C55.4929 41.4475 54.8266 42.9617 54.8485 42.9271C54.7957 43.0872 54.7429 43.2474 54.7119 43.373C54.7119 43.373 54.7119 43.373 54.6992 43.3166C54.5591 42.6959 54.3335 41.8277 54.3335 41.8277L54.1279 41.3108L52.2502 36.0126C52.1775 35.8215 52.0701 35.6085 52.0192 35.3828L53.8974 35.1664L56.036 34.921L57.0989 34.77L57.7323 34.6864C57.7323 34.6864 58.1272 34.5972 58.5568 34.5299C58.7824 34.479 58.9517 34.4408 59.0864 34.3807L58.9681 34.6446L55.4929 41.4475ZM44.3124 26.0635L57.8489 32.9701C57.8489 32.9701 59.3631 33.6364 59.3285 33.6145C59.3977 33.6582 59.4887 33.6673 59.5233 33.6892C59.4669 33.7019 59.4669 33.7019 59.445 33.7365L59.4232 33.7711L59.3267 34.0004C58.6806 34.0276 57.8088 34.1058 57.8088 34.1058L57.21 34.2113L56.1471 34.3622L53.9867 34.6423L51.8481 34.8877C51.475 34.9423 51.1238 34.9623 50.7725 34.9823C50.4212 35.0023 50.07 35.0222 49.6623 35.055C49.311 35.0749 48.9943 35.1168 48.6212 35.1713L48.5994 35.2059C48.5739 35.0931 48.492 34.9929 48.4538 34.8237C48.2009 34.2285 47.8406 33.4204 47.8406 33.4204L47.544 32.8944L46.9981 31.9206L46.01 30.0386C45.3659 28.7609 44.6999 27.5177 43.9993 26.2527C43.9265 26.0616 43.8101 25.9397 43.75 25.805L44.3124 26.0635ZM39.3375 33.7089L43.062 26.4346L43.2459 26.067C43.3405 26.2236 43.4005 26.3582 43.517 26.4802C44.2048 27.6888 44.8708 28.9319 45.4804 30.1878L46.4339 32.0479L46.7432 32.6304C46.6304 32.6558 46.5175 32.6813 46.3701 32.6849C45.7276 32.8596 44.8249 33.0633 44.8249 33.0633L44.2952 33.2125L41.6379 34.0494C41.1993 34.2077 40.7606 34.366 40.3093 34.4679C39.8361 34.6044 39.3974 34.7627 38.9806 34.8864C38.8113 34.9246 38.6421 34.9628 38.4728 35.001C38.8915 34.4914 39.3375 33.7089 39.3375 33.7089Z"/>
</mask>
<path d="M39.1771 35.4943C39.6503 35.3578 40.089 35.1995 40.5058 35.0758C40.9226 34.9521 41.3958 34.8156 41.8344 34.6574L44.5136 33.7859L44.9522 33.6276C44.9522 33.6276 46.5029 33.0107 46.4465 33.0235C46.5812 32.9634 46.7377 32.8688 46.8506 32.8433L46.9452 32.9999L47.2545 33.5823C47.2545 33.5823 47.4784 33.9172 47.6804 34.2867C47.9042 34.6216 48.128 34.9565 48.128 34.9565C48.2572 35.1349 48.3737 35.2568 48.4556 35.3569C48.4465 35.4479 48.4592 35.5044 48.4719 35.5608C48.5192 35.6391 48.623 35.7046 48.6576 35.7264C48.6921 35.7483 48.6921 35.7483 48.6921 35.7483C48.9742 35.6846 49.2909 35.6428 49.6422 35.6228L50.696 35.5629C50.8998 35.5465 51.0691 35.5083 51.2511 35.5265L51.3985 35.5229C51.5186 35.7923 51.6041 36.0398 51.7242 36.3092L53.6019 41.6074L53.7602 42.0461C53.7602 42.0461 54.4334 43.5841 54.3861 43.5058C54.6609 44.0664 54.8847 44.4013 54.7756 43.6551C54.8539 43.6078 54.9631 43.4349 55.1724 43.1801C55.5565 42.6487 56.0025 41.8661 56.0025 41.8661L59.474 34.9159L59.8854 34.1115C59.9855 34.0296 60.0419 34.0168 59.9164 33.9859C59.9255 33.8949 59.8563 33.8512 59.8436 33.7948C60.0947 33.8567 60.0693 33.7438 59.5033 33.3379C58.9719 32.9538 58.1893 32.5078 58.1893 32.5078L44.5836 25.5576L43.7101 25.1025L43.6536 25.1152C43.4844 25.1534 43.4061 25.2007 43.3624 25.2699C43.246 25.1479 43.0767 25.1861 42.9766 25.268L42.9547 25.3026L42.4996 26.1761L38.8534 33.403C38.8534 33.403 38.1871 34.9172 38.2089 34.8826C38.1652 34.9518 38.1561 35.0428 38.1124 35.112L38.056 35.1247L38.0342 35.1593C37.8904 35.3103 37.8594 35.4359 37.9067 35.5142C37.8412 35.6179 37.9013 35.7526 37.9486 35.8308L37.9831 35.8527L38.8567 36.3078L52.497 43.2799C52.497 43.2799 54.0112 43.9462 53.9766 43.9244C54.5954 44.1701 55.0285 44.2503 54.1513 43.6477C53.6199 43.2637 52.8374 42.8177 52.8374 42.8177L39.1279 35.8019L38.7603 35.618C38.895 35.5579 39.0424 35.5543 39.1771 35.4943ZM55.4929 41.4475C55.4929 41.4475 54.8266 42.9617 54.8485 42.9271C54.7957 43.0872 54.7429 43.2474 54.7119 43.373C54.7119 43.373 54.7119 43.373 54.6992 43.3166C54.5591 42.6959 54.3335 41.8277 54.3335 41.8277L54.1279 41.3108L52.2502 36.0126C52.1775 35.8215 52.0701 35.6085 52.0192 35.3828L53.8974 35.1664L56.036 34.921L57.0989 34.77L57.7323 34.6864C57.7323 34.6864 58.1272 34.5972 58.5568 34.5299C58.7824 34.479 58.9517 34.4408 59.0864 34.3807L58.9681 34.6446L55.4929 41.4475ZM44.3124 26.0635L57.8489 32.9701C57.8489 32.9701 59.3631 33.6364 59.3285 33.6145C59.3977 33.6582 59.4887 33.6673 59.5233 33.6892C59.4669 33.7019 59.4669 33.7019 59.445 33.7365L59.4232 33.7711L59.3267 34.0004C58.6806 34.0276 57.8088 34.1058 57.8088 34.1058L57.21 34.2113L56.1471 34.3622L53.9867 34.6423L51.8481 34.8877C51.475 34.9423 51.1238 34.9623 50.7725 34.9823C50.4212 35.0023 50.07 35.0222 49.6623 35.055C49.311 35.0749 48.9943 35.1168 48.6212 35.1713L48.5994 35.2059C48.5739 35.0931 48.492 34.9929 48.4538 34.8237C48.2009 34.2285 47.8406 33.4204 47.8406 33.4204L47.544 32.8944L46.9981 31.9206L46.01 30.0386C45.3659 28.7609 44.6999 27.5177 43.9993 26.2527C43.9265 26.0616 43.8101 25.9397 43.75 25.805L44.3124 26.0635ZM39.3375 33.7089L43.062 26.4346L43.2459 26.067C43.3405 26.2236 43.4005 26.3582 43.517 26.4802C44.2048 27.6888 44.8708 28.9319 45.4804 30.1878L46.4339 32.0479L46.7432 32.6304C46.6304 32.6558 46.5175 32.6813 46.3701 32.6849C45.7276 32.8596 44.8249 33.0633 44.8249 33.0633L44.2952 33.2125L41.6379 34.0494C41.1993 34.2077 40.7606 34.366 40.3093 34.4679C39.8361 34.6044 39.3974 34.7627 38.9806 34.8864C38.8113 34.9246 38.6421 34.9628 38.4728 35.001C38.8915 34.4914 39.3375 33.7089 39.3375 33.7089Z" fill="#202020"/>
<path d="M39.1771 35.4943C39.6503 35.3578 40.089 35.1995 40.5058 35.0758C40.9226 34.9521 41.3958 34.8156 41.8344 34.6574L44.5136 33.7859L44.9522 33.6276C44.9522 33.6276 46.5029 33.0107 46.4465 33.0235C46.5812 32.9634 46.7377 32.8688 46.8506 32.8433L46.9452 32.9999L47.2545 33.5823C47.2545 33.5823 47.4784 33.9172 47.6804 34.2867C47.9042 34.6216 48.128 34.9565 48.128 34.9565C48.2572 35.1349 48.3737 35.2568 48.4556 35.3569C48.4465 35.4479 48.4592 35.5044 48.4719 35.5608C48.5192 35.6391 48.623 35.7046 48.6576 35.7264C48.6921 35.7483 48.6921 35.7483 48.6921 35.7483C48.9742 35.6846 49.2909 35.6428 49.6422 35.6228L50.696 35.5629C50.8998 35.5465 51.0691 35.5083 51.2511 35.5265L51.3985 35.5229C51.5186 35.7923 51.6041 36.0398 51.7242 36.3092L53.6019 41.6074L53.7602 42.0461C53.7602 42.0461 54.4334 43.5841 54.3861 43.5058C54.6609 44.0664 54.8847 44.4013 54.7756 43.6551C54.8539 43.6078 54.9631 43.4349 55.1724 43.1801C55.5565 42.6487 56.0025 41.8661 56.0025 41.8661L59.474 34.9159L59.8854 34.1115C59.9855 34.0296 60.0419 34.0168 59.9164 33.9859C59.9255 33.8949 59.8563 33.8512 59.8436 33.7948C60.0947 33.8567 60.0693 33.7438 59.5033 33.3379C58.9719 32.9538 58.1893 32.5078 58.1893 32.5078L44.5836 25.5576L43.7101 25.1025L43.6536 25.1152C43.4844 25.1534 43.4061 25.2007 43.3624 25.2699C43.246 25.1479 43.0767 25.1861 42.9766 25.268L42.9547 25.3026L42.4996 26.1761L38.8534 33.403C38.8534 33.403 38.1871 34.9172 38.2089 34.8826C38.1652 34.9518 38.1561 35.0428 38.1124 35.112L38.056 35.1247L38.0342 35.1593C37.8904 35.3103 37.8594 35.4359 37.9067 35.5142C37.8412 35.6179 37.9013 35.7526 37.9486 35.8308L37.9831 35.8527L38.8567 36.3078L52.497 43.2799C52.497 43.2799 54.0112 43.9462 53.9766 43.9244C54.5954 44.1701 55.0285 44.2503 54.1513 43.6477C53.6199 43.2637 52.8374 42.8177 52.8374 42.8177L39.1279 35.8019L38.7603 35.618C38.895 35.5579 39.0424 35.5543 39.1771 35.4943ZM55.4929 41.4475C55.4929 41.4475 54.8266 42.9617 54.8485 42.9271C54.7957 43.0872 54.7429 43.2474 54.7119 43.373C54.7119 43.373 54.7119 43.373 54.6992 43.3166C54.5591 42.6959 54.3335 41.8277 54.3335 41.8277L54.1279 41.3108L52.2502 36.0126C52.1775 35.8215 52.0701 35.6085 52.0192 35.3828L53.8974 35.1664L56.036 34.921L57.0989 34.77L57.7323 34.6864C57.7323 34.6864 58.1272 34.5972 58.5568 34.5299C58.7824 34.479 58.9517 34.4408 59.0864 34.3807L58.9681 34.6446L55.4929 41.4475ZM44.3124 26.0635L57.8489 32.9701C57.8489 32.9701 59.3631 33.6364 59.3285 33.6145C59.3977 33.6582 59.4887 33.6673 59.5233 33.6892C59.4669 33.7019 59.4669 33.7019 59.445 33.7365L59.4232 33.7711L59.3267 34.0004C58.6806 34.0276 57.8088 34.1058 57.8088 34.1058L57.21 34.2113L56.1471 34.3622L53.9867 34.6423L51.8481 34.8877C51.475 34.9423 51.1238 34.9623 50.7725 34.9823C50.4212 35.0023 50.07 35.0222 49.6623 35.055C49.311 35.0749 48.9943 35.1168 48.6212 35.1713L48.5994 35.2059C48.5739 35.0931 48.492 34.9929 48.4538 34.8237C48.2009 34.2285 47.8406 33.4204 47.8406 33.4204L47.544 32.8944L46.9981 31.9206L46.01 30.0386C45.3659 28.7609 44.6999 27.5177 43.9993 26.2527C43.9265 26.0616 43.8101 25.9397 43.75 25.805L44.3124 26.0635ZM39.3375 33.7089L43.062 26.4346L43.2459 26.067C43.3405 26.2236 43.4005 26.3582 43.517 26.4802C44.2048 27.6888 44.8708 28.9319 45.4804 30.1878L46.4339 32.0479L46.7432 32.6304C46.6304 32.6558 46.5175 32.6813 46.3701 32.6849C45.7276 32.8596 44.8249 33.0633 44.8249 33.0633L44.2952 33.2125L41.6379 34.0494C41.1993 34.2077 40.7606 34.366 40.3093 34.4679C39.8361 34.6044 39.3974 34.7627 38.9806 34.8864C38.8113 34.9246 38.6421 34.9628 38.4728 35.001C38.8915 34.4914 39.3375 33.7089 39.3375 33.7089Z" stroke="#202020" stroke-width="0.4" mask="url(#path-6-outside-2_219_165)"/>
</g>
<defs>
<clipPath id="clip0_219_165">
<rect width="20" height="30.5" fill="white" transform="translate(144.062 26.8551) rotate(-14.6617)"/>
</clipPath>
<clipPath id="clip1_219_165">
<rect width="20" height="13.6196" fill="white" transform="translate(0.305664 17.4892) rotate(-13.319)"/>
</clipPath>
<clipPath id="clip2_219_165">
<rect width="20" height="13.6196" fill="white" transform="translate(44.0469 23.5737) rotate(32.2818)"/>
</clipPath>
</defs>
</svg>
