<svg width="343" height="60" viewBox="0 0 343 60" fill="none" xmlns="http://www.w3.org/2000/svg">
<path d="M30.74 46.1235L18.772 30.1235L30.42 14.1235H19.22L9.62 28.1395V14.1235H0.0200002V46.1235H9.62V31.9795L19.86 46.1235H30.74ZM60.19 14.1235H31.39V23.3395H41.054V46.1235H50.654V23.3395H60.19V14.1235ZM78.4425 47.0195C87.8505 47.0195 95.4025 39.6595 95.4025 30.1235C95.4025 20.5875 87.8505 13.2275 78.4425 13.2275C69.0345 13.2275 61.4825 20.5875 61.4825 30.1235C61.4825 39.6595 69.0345 47.0195 78.4425 47.0195ZM78.4425 37.6755C74.2825 37.6755 71.0825 34.6675 71.0825 30.1235C71.0825 25.5795 74.2825 22.5715 78.4425 22.5715C82.6025 22.5715 85.8025 25.5795 85.8025 30.1235C85.8025 34.6675 82.6025 37.6755 78.4425 37.6755Z" fill="#0475C7"/>
<path d="M128.929 22.8915C131.361 20.7795 132.833 17.8355 132.833 14.1235C132.833 6.37953 126.497 1.32353 118.689 1.32353H101.153V46.1235H119.969C127.969 46.1235 134.433 40.9395 134.433 33.0035C134.433 28.4595 132.257 25.0035 128.929 22.8915ZM118.689 10.9235C121.057 10.9235 122.593 12.5875 122.593 14.8915C122.593 17.1955 120.993 18.8595 118.689 18.8595H111.393V10.9235H118.689ZM119.969 36.5235H111.393V27.9475H119.969C122.529 27.9475 124.193 29.7395 124.193 32.2355C124.193 34.7315 122.529 36.5235 119.969 36.5235ZM169.928 46.1235L157.96 30.1235L169.608 14.1235H158.408L148.808 28.1395V14.1235H139.208V46.1235H148.808V31.9795L159.048 46.1235H169.928ZM193.618 14.1235L187.602 33.7715L180.178 14.1235H169.938L182.482 45.5475C181.01 48.9395 178.962 49.9635 174.674 49.9635V58.9235C182.994 59.3715 189.33 55.3395 192.914 45.1635L203.858 14.1235H193.618ZM226.531 13.2275C222.243 13.2275 219.107 14.6995 216.995 17.1315V14.1235H207.395V58.9235H216.995V43.1155C219.107 45.5475 222.243 47.0195 226.531 47.0195C234.915 47.0195 241.827 39.6595 241.827 30.1235C241.827 20.5875 234.915 13.2275 226.531 13.2275ZM224.611 37.9315C220.195 37.9315 216.995 34.9235 216.995 30.1235C216.995 25.3235 220.195 22.3155 224.611 22.3155C229.027 22.3155 232.227 25.3235 232.227 30.1235C232.227 34.9235 229.027 37.9315 224.611 37.9315ZM262.63 47.0195C268.902 47.0195 274.342 43.7555 277.094 38.7635L268.71 33.9635C267.686 36.2035 265.318 37.5475 262.502 37.5475C258.342 37.5475 255.27 34.5395 255.27 30.1235C255.27 25.7075 258.342 22.6995 262.502 22.6995C265.318 22.6995 267.622 24.0435 268.71 26.2835L277.094 21.4195C274.342 16.4915 268.838 13.2275 262.63 13.2275C252.902 13.2275 245.67 20.5875 245.67 30.1235C245.67 39.6595 252.902 47.0195 262.63 47.0195ZM288.909 33.9635H311.629C311.885 32.7475 312.013 31.4675 312.013 30.1235C312.013 20.4595 305.101 13.2275 295.757 13.2275C285.645 13.2275 278.733 20.5875 278.733 30.1235C278.733 39.6595 285.517 47.0195 296.461 47.0195C302.541 47.0195 307.277 44.7795 310.413 40.4275L302.733 36.0115C301.453 37.4195 299.213 38.4435 296.589 38.4435C293.069 38.4435 290.125 37.2915 288.909 33.9635ZM288.717 26.7955C289.613 23.5315 292.045 21.7395 295.693 21.7395C298.573 21.7395 301.453 23.0835 302.477 26.7955H288.717ZM321.598 30.1235H331.838C331.838 25.7075 342.078 22.7635 342.078 13.2275C342.078 4.90753 334.782 0.427532 327.486 0.427532C320.382 0.427532 314.174 4.13953 311.358 10.7315L320.19 15.7875C321.47 12.7795 323.582 10.4115 327.102 10.4115C330.366 10.4115 331.838 11.8835 331.838 14.1235C331.838 19.7555 321.598 22.6355 321.598 30.1235ZM326.718 47.0195C330.046 47.0195 332.798 44.2675 332.798 40.9395C332.798 37.6115 330.046 34.8595 326.718 34.8595C323.39 34.8595 320.638 37.6115 320.638 40.9395C320.638 44.2675 323.39 47.0195 326.718 47.0195Z" fill="#333333"/>
</svg>
