<svg width="648" height="440" viewBox="0 0 648 440" fill="none" xmlns="http://www.w3.org/2000/svg">
<g filter="url(#filter0_d_739_800)">
<g filter="url(#filter1_dddd_739_800)">
<path d="M605.053 372.5H433V25.1974L456.41 12L628.464 12V359.303L605.053 372.5Z" fill="#141E4B" fill-opacity="0.06"/>
<path d="M434.5 26.0737V371H604.66L626.964 358.426V13.5L456.804 13.5L434.5 26.0737Z" stroke="url(#paint0_linear_739_800)" stroke-width="3"/>
</g>
</g>
<path d="M434.26 383.56C435.607 382.6 437.167 382.12 438.94 382.12C440.393 382.12 441.58 382.46 442.5 383.14C443.433 383.82 443.9 384.82 443.9 386.14C443.9 387.167 443.567 388.047 442.9 388.78C442.247 389.5 441.353 390.193 440.22 390.86C438.887 391.647 438.067 392.18 437.76 392.46C437.4 392.807 437.213 393.133 437.2 393.44L444 393.42V396H433.8V394.66C433.8 392.927 434.56 391.48 436.08 390.32C436.453 390.027 437.187 389.56 438.28 388.92C438.36 388.867 438.527 388.773 438.78 388.64C439.047 388.493 439.22 388.393 439.3 388.34C439.38 388.287 439.52 388.2 439.72 388.08C439.92 387.947 440.06 387.847 440.14 387.78C440.22 387.7 440.32 387.593 440.44 387.46C440.573 387.327 440.667 387.207 440.72 387.1C440.773 386.993 440.82 386.867 440.86 386.72C440.9 386.573 440.92 386.42 440.92 386.26C440.92 385.767 440.72 385.393 440.32 385.14C439.92 384.873 439.367 384.74 438.66 384.74C437.14 384.74 435.673 385.28 434.26 386.36V383.56ZM447.314 394.32C446.287 393 445.774 391.293 445.774 389.2C445.774 387.107 446.287 385.407 447.314 384.1C448.354 382.78 449.907 382.12 451.974 382.12C454.041 382.12 455.587 382.78 456.614 384.1C457.654 385.407 458.174 387.107 458.174 389.2C458.174 391.293 457.654 393 456.614 394.32C455.587 395.627 454.041 396.28 451.974 396.28C449.907 396.28 448.354 395.627 447.314 394.32ZM451.974 393.64C454.107 393.64 455.174 392.16 455.174 389.2C455.174 386.24 454.107 384.76 451.974 384.76C449.841 384.76 448.774 386.24 448.774 389.2C448.774 392.16 449.841 393.64 451.974 393.64ZM460.295 383.56C461.642 382.6 463.202 382.12 464.975 382.12C466.428 382.12 467.615 382.46 468.535 383.14C469.468 383.82 469.935 384.82 469.935 386.14C469.935 387.167 469.602 388.047 468.935 388.78C468.282 389.5 467.388 390.193 466.255 390.86C464.922 391.647 464.102 392.18 463.795 392.46C463.435 392.807 463.248 393.133 463.235 393.44L470.035 393.42V396H459.835V394.66C459.835 392.927 460.595 391.48 462.115 390.32C462.488 390.027 463.222 389.56 464.315 388.92C464.395 388.867 464.562 388.773 464.815 388.64C465.082 388.493 465.255 388.393 465.335 388.34C465.415 388.287 465.555 388.2 465.755 388.08C465.955 387.947 466.095 387.847 466.175 387.78C466.255 387.7 466.355 387.593 466.475 387.46C466.608 387.327 466.702 387.207 466.755 387.1C466.808 386.993 466.855 386.867 466.895 386.72C466.935 386.573 466.955 386.42 466.955 386.26C466.955 385.767 466.755 385.393 466.355 385.14C465.955 384.873 465.402 384.74 464.695 384.74C463.175 384.74 461.708 385.28 460.295 386.36V383.56ZM481.389 382.4V391.02H483.449V393.52H481.389V396H478.529V393.52H471.389V391.04L478.409 382.4H481.389ZM478.529 386.06L474.509 391.02H478.529V386.06ZM494.135 387.82V390.18H490.635V393.68H488.275V390.18H484.775V387.82H488.275V384.32H490.635V387.82H494.135ZM500.469 396V386.4H507.789V388.74H503.249V396H500.469ZM510.024 394.94C508.997 394.047 508.484 392.8 508.484 391.2C508.484 389.6 508.997 388.353 510.024 387.46C511.05 386.567 512.304 386.12 513.784 386.12C515.277 386.12 516.53 386.567 517.544 387.46C518.57 388.353 519.084 389.6 519.084 391.2C519.084 392.8 518.57 394.047 517.544 394.94C516.53 395.833 515.277 396.28 513.784 396.28C512.304 396.28 511.05 395.833 510.024 394.94ZM515.604 393.08C516.044 392.587 516.264 391.96 516.264 391.2C516.264 390.44 516.044 389.82 515.604 389.34C515.164 388.847 514.557 388.6 513.784 388.6C513.01 388.6 512.404 388.847 511.964 389.34C511.537 389.82 511.324 390.44 511.324 391.2C511.324 391.96 511.537 392.587 511.964 393.08C512.404 393.56 513.01 393.8 513.784 393.8C514.557 393.8 515.164 393.56 515.604 393.08ZM519.885 398.54V393.88H521.225C522.225 392.147 522.692 389.653 522.625 386.4H530.525V393.88H531.965V398.54H529.405V396H522.445V398.54H519.885ZM525.185 388.52C525.105 390.707 524.745 392.493 524.105 393.88H527.765V388.52H525.185Z" fill="#E3E5F0"/>
<g filter="url(#filter2_d_739_800)">
<g filter="url(#filter3_dddd_739_800)">
<path d="M390.053 372H226L226 132.197L249.41 119H413.463L413.464 358.803L390.053 372Z" fill="#3A4DA8" fill-opacity="0.8"/>
<path d="M226.5 132.49L226.5 371.5H389.922L412.964 358.51L412.963 119.5H249.541L226.5 132.49Z" stroke="#141E4B" stroke-opacity="0.06"/>
</g>
</g>
<path d="M227.26 383.56C228.607 382.6 230.167 382.12 231.94 382.12C233.393 382.12 234.58 382.46 235.5 383.14C236.433 383.82 236.9 384.82 236.9 386.14C236.9 387.167 236.567 388.047 235.9 388.78C235.247 389.5 234.353 390.193 233.22 390.86C231.887 391.647 231.067 392.18 230.76 392.46C230.4 392.807 230.213 393.133 230.2 393.44L237 393.42V396H226.8V394.66C226.8 392.927 227.56 391.48 229.08 390.32C229.453 390.027 230.187 389.56 231.28 388.92C231.36 388.867 231.527 388.773 231.78 388.64C232.047 388.493 232.22 388.393 232.3 388.34C232.38 388.287 232.52 388.2 232.72 388.08C232.92 387.947 233.06 387.847 233.14 387.78C233.22 387.7 233.32 387.593 233.44 387.46C233.573 387.327 233.667 387.207 233.72 387.1C233.773 386.993 233.82 386.867 233.86 386.72C233.9 386.573 233.92 386.42 233.92 386.26C233.92 385.767 233.72 385.393 233.32 385.14C232.92 384.873 232.367 384.74 231.66 384.74C230.14 384.74 228.673 385.28 227.26 386.36V383.56ZM240.314 394.32C239.287 393 238.774 391.293 238.774 389.2C238.774 387.107 239.287 385.407 240.314 384.1C241.354 382.78 242.907 382.12 244.974 382.12C247.041 382.12 248.587 382.78 249.614 384.1C250.654 385.407 251.174 387.107 251.174 389.2C251.174 391.293 250.654 393 249.614 394.32C248.587 395.627 247.041 396.28 244.974 396.28C242.907 396.28 241.354 395.627 240.314 394.32ZM244.974 393.64C247.107 393.64 248.174 392.16 248.174 389.2C248.174 386.24 247.107 384.76 244.974 384.76C242.841 384.76 241.774 386.24 241.774 389.2C241.774 392.16 242.841 393.64 244.974 393.64ZM253.295 383.56C254.642 382.6 256.202 382.12 257.975 382.12C259.428 382.12 260.615 382.46 261.535 383.14C262.468 383.82 262.935 384.82 262.935 386.14C262.935 387.167 262.602 388.047 261.935 388.78C261.282 389.5 260.388 390.193 259.255 390.86C257.922 391.647 257.102 392.18 256.795 392.46C256.435 392.807 256.248 393.133 256.235 393.44L263.035 393.42V396H252.835V394.66C252.835 392.927 253.595 391.48 255.115 390.32C255.488 390.027 256.222 389.56 257.315 388.92C257.395 388.867 257.562 388.773 257.815 388.64C258.082 388.493 258.255 388.393 258.335 388.34C258.415 388.287 258.555 388.2 258.755 388.08C258.955 387.947 259.095 387.847 259.175 387.78C259.255 387.7 259.355 387.593 259.475 387.46C259.608 387.327 259.702 387.207 259.755 387.1C259.808 386.993 259.855 386.867 259.895 386.72C259.935 386.573 259.955 386.42 259.955 386.26C259.955 385.767 259.755 385.393 259.355 385.14C258.955 384.873 258.402 384.74 257.695 384.74C256.175 384.74 254.708 385.28 253.295 386.36V383.56ZM274.489 385.88C274.489 386.573 274.303 387.18 273.929 387.7C273.569 388.207 273.069 388.573 272.429 388.8C273.189 389.027 273.816 389.433 274.309 390.02C274.803 390.593 275.049 391.347 275.049 392.28C275.049 392.973 274.896 393.587 274.589 394.12C274.296 394.64 273.889 395.053 273.369 395.36C272.849 395.667 272.269 395.893 271.629 396.04C271.003 396.2 270.329 396.28 269.609 396.28C267.943 396.28 266.369 395.973 264.889 395.36V392.58C266.196 393.313 267.689 393.667 269.369 393.64C270.209 393.64 270.889 393.493 271.409 393.2C271.929 392.907 272.189 392.46 272.189 391.86C272.189 390.807 271.403 390.28 269.829 390.28H267.589L267.609 387.72L269.489 387.74C270.169 387.74 270.696 387.62 271.069 387.38C271.456 387.127 271.649 386.767 271.649 386.3C271.649 385.807 271.436 385.427 271.009 385.16C270.583 384.88 269.963 384.74 269.149 384.74C267.803 384.74 266.463 385.147 265.129 385.96V383.18C266.436 382.473 267.916 382.12 269.569 382.12C271.036 382.12 272.223 382.447 273.129 383.1C274.036 383.753 274.489 384.68 274.489 385.88ZM281.477 396V386.4H288.797V388.74H284.257V396H281.477ZM291.032 394.94C290.005 394.047 289.492 392.8 289.492 391.2C289.492 389.6 290.005 388.353 291.032 387.46C292.058 386.567 293.312 386.12 294.792 386.12C296.285 386.12 297.538 386.567 298.552 387.46C299.578 388.353 300.092 389.6 300.092 391.2C300.092 392.8 299.578 394.047 298.552 394.94C297.538 395.833 296.285 396.28 294.792 396.28C293.312 396.28 292.058 395.833 291.032 394.94ZM296.612 393.08C297.052 392.587 297.272 391.96 297.272 391.2C297.272 390.44 297.052 389.82 296.612 389.34C296.172 388.847 295.565 388.6 294.792 388.6C294.018 388.6 293.412 388.847 292.972 389.34C292.545 389.82 292.332 390.44 292.332 391.2C292.332 391.96 292.545 392.587 292.972 393.08C293.412 393.56 294.018 393.8 294.792 393.8C295.565 393.8 296.172 393.56 296.612 393.08ZM300.893 398.54V393.88H302.233C303.233 392.147 303.699 389.653 303.633 386.4H311.533V393.88H312.973V398.54H310.413V396H303.453V398.54H300.893ZM306.193 388.52C306.113 390.707 305.753 392.493 305.113 393.88H308.773V388.52H306.193Z" fill="#E3E5F0"/>
<rect opacity="0.2" x="226" y="132" width="164" height="240" fill="url(#paint1_linear_739_800)"/>
<path d="M293.618 228.76C293.618 231.64 292.218 233.56 289.418 234.52C291.018 235.027 292.298 235.867 293.258 237.04C294.245 238.187 294.738 239.693 294.738 241.56C294.738 243 294.418 244.253 293.778 245.32C293.138 246.387 292.258 247.227 291.138 247.84C290.045 248.427 288.845 248.867 287.538 249.16C286.232 249.453 284.832 249.6 283.338 249.6C280.165 249.6 277.032 248.987 273.938 247.76V240.96C276.632 242.507 279.565 243.253 282.738 243.2C284.178 243.173 285.365 242.933 286.298 242.48C287.232 242 287.698 241.293 287.698 240.36C287.698 238.867 286.458 238.12 283.978 238.12H279.338L279.378 231.92L283.138 231.96C285.458 232.013 286.618 231.333 286.618 229.92C286.618 228.373 285.218 227.6 282.418 227.6C279.698 227.6 277.032 228.48 274.418 230.24V223.44C277.032 221.947 280.032 221.2 283.418 221.2C286.458 221.2 288.912 221.84 290.778 223.12C292.672 224.373 293.618 226.253 293.618 228.76ZM316.759 221.76V227.96L305.599 227.92L305.319 231.92C306.306 231.76 307.279 231.68 308.239 231.68C311.199 231.68 313.559 232.387 315.319 233.8C317.079 235.213 317.959 237.387 317.959 240.32C317.959 241.947 317.612 243.373 316.919 244.6C316.252 245.827 315.346 246.8 314.199 247.52C313.052 248.213 311.772 248.733 310.359 249.08C308.972 249.427 307.492 249.6 305.919 249.6C302.666 249.6 299.746 248.987 297.159 247.76V240.96C299.292 242.453 301.946 243.2 305.119 243.2C306.746 243.2 308.052 242.947 309.039 242.44C310.052 241.933 310.559 241.173 310.559 240.16C310.559 238.133 308.612 237.107 304.719 237.08C302.372 237.08 300.132 237.453 297.999 238.2L298.959 221.76H316.759ZM323.225 245.64C321.145 242.973 320.105 239.56 320.105 235.4C320.105 231.24 321.145 227.84 323.225 225.2C325.332 222.533 328.492 221.2 332.705 221.2C336.919 221.2 340.065 222.533 342.145 225.2C344.252 227.84 345.305 231.24 345.305 235.4C345.305 239.56 344.252 242.973 342.145 245.64C340.065 248.28 336.919 249.6 332.705 249.6C328.492 249.6 325.332 248.28 323.225 245.64ZM332.705 243.2C336.172 243.2 337.905 240.6 337.905 235.4C337.905 230.2 336.172 227.6 332.705 227.6C329.239 227.6 327.505 230.2 327.505 235.4C327.505 240.6 329.239 243.2 332.705 243.2ZM366.586 232.2V237.8H359.786V244.6H354.186V237.8H347.386V232.2H354.186V225.4H359.786V232.2H366.586ZM291.565 265V262.462C290.953 262.678 290.281 262.786 289.549 262.786C288.589 262.786 287.785 262.51 287.137 261.958C286.489 261.394 286.165 260.566 286.165 259.474V256.36H289.225V259.186C289.225 259.906 289.609 260.266 290.377 260.266C290.809 260.266 291.205 260.194 291.565 260.05V256.36H294.625V265H291.565ZM295.665 260.68C295.665 259.876 295.809 259.168 296.097 258.556C296.385 257.932 296.763 257.452 297.231 257.116C297.699 256.768 298.185 256.51 298.689 256.342C299.193 256.174 299.697 256.09 300.201 256.09C300.921 256.09 301.563 256.198 302.127 256.414C302.691 256.63 303.135 256.918 303.459 257.278C303.795 257.638 304.065 258.058 304.269 258.538C304.473 259.006 304.569 259.504 304.557 260.032C304.557 260.548 304.509 261.07 304.413 261.598H298.761C299.085 262.486 300.003 262.93 301.515 262.93C302.439 262.93 303.267 262.792 303.999 262.516V264.784C303.087 265.108 302.019 265.27 300.795 265.27C299.319 265.27 298.095 264.868 297.123 264.064C296.151 263.248 295.665 262.12 295.665 260.68ZM301.623 259.762C301.683 259.474 301.605 259.162 301.389 258.826C301.185 258.478 300.813 258.304 300.273 258.304C299.841 258.304 299.475 258.436 299.175 258.7C298.875 258.964 298.725 259.318 298.725 259.762H301.623ZM309.722 258.7C309.662 259.672 309.566 260.524 309.434 261.256C309.314 261.976 309.128 262.654 308.876 263.29C308.636 263.914 308.3 264.388 307.868 264.712C307.448 265.036 306.944 265.198 306.356 265.198C305.888 265.198 305.372 265.102 304.808 264.91V262.48C304.988 262.552 305.15 262.588 305.294 262.588C305.51 262.588 305.696 262.522 305.852 262.39C306.008 262.246 306.14 262.024 306.248 261.724C306.368 261.424 306.464 261.118 306.536 260.806C306.608 260.482 306.668 260.05 306.716 259.51C306.776 258.958 306.818 258.472 306.842 258.052C306.866 257.62 306.896 257.056 306.932 256.36H314.312V265H311.252V258.7H309.722ZM316.739 264.082C315.815 263.278 315.353 262.144 315.353 260.68C315.353 259.216 315.815 258.088 316.739 257.296C317.675 256.492 318.833 256.09 320.213 256.09C321.593 256.09 322.745 256.492 323.669 257.296C324.605 258.088 325.073 259.216 325.073 260.68C325.073 262.144 324.605 263.278 323.669 264.082C322.745 264.874 321.593 265.27 320.213 265.27C318.833 265.27 317.675 264.874 316.739 264.082ZM321.509 262.03C321.785 261.67 321.923 261.22 321.923 260.68C321.923 260.14 321.785 259.69 321.509 259.33C321.233 258.97 320.801 258.79 320.213 258.79C319.625 258.79 319.193 258.97 318.917 259.33C318.641 259.69 318.503 260.14 318.503 260.68C318.503 261.22 318.641 261.67 318.917 262.03C319.193 262.39 319.625 262.57 320.213 262.57C320.801 262.57 321.233 262.39 321.509 262.03ZM326.113 265V256.36H331.477C332.533 256.36 333.283 256.588 333.727 257.044C334.183 257.488 334.411 258.01 334.411 258.61C334.411 259.606 333.943 260.284 333.007 260.644C334.063 260.98 334.591 261.664 334.591 262.696C334.591 263.356 334.363 263.908 333.907 264.352C333.451 264.784 332.689 265 331.621 265H326.113ZM329.173 259.852H330.415C331.039 259.852 331.351 259.6 331.351 259.096C331.351 258.568 331.033 258.304 330.397 258.304H329.173V259.852ZM329.191 263.056H330.595C331.219 263.056 331.531 262.804 331.531 262.3C331.531 261.772 331.213 261.508 330.577 261.508H329.191V263.056ZM335.235 260.68C335.235 259.876 335.379 259.168 335.667 258.556C335.955 257.932 336.333 257.452 336.801 257.116C337.269 256.768 337.755 256.51 338.259 256.342C338.763 256.174 339.267 256.09 339.771 256.09C340.491 256.09 341.133 256.198 341.697 256.414C342.261 256.63 342.705 256.918 343.029 257.278C343.365 257.638 343.635 258.058 343.839 258.538C344.043 259.006 344.139 259.504 344.127 260.032C344.127 260.548 344.079 261.07 343.983 261.598H338.331C338.655 262.486 339.573 262.93 341.085 262.93C342.009 262.93 342.837 262.792 343.569 262.516V264.784C342.657 265.108 341.589 265.27 340.365 265.27C338.889 265.27 337.665 264.868 336.693 264.064C335.721 263.248 335.235 262.12 335.235 260.68ZM341.193 259.762C341.253 259.474 341.175 259.162 340.959 258.826C340.755 258.478 340.383 258.304 339.843 258.304C339.411 258.304 339.045 258.436 338.745 258.7C338.445 258.964 338.295 259.318 338.295 259.762H341.193ZM345.168 265V256.36H348.228V259.384H348.912L350.802 256.36H354.222L351.414 260.608L354.402 265H351L348.876 261.724H348.228V265H345.168Z" fill="white"/>
<path d="M468.716 137.652C468.716 138.716 468.473 139.64 467.988 140.424C467.521 141.208 466.877 141.805 466.056 142.216C465.253 142.627 464.385 142.925 463.452 143.112C462.519 143.317 461.52 143.42 460.456 143.42C457.992 143.42 455.519 142.991 453.036 142.132V137.232C455.239 138.315 457.572 138.837 460.036 138.8C462.351 138.8 463.508 138.147 463.508 136.84C463.508 135.739 462.64 135.188 460.904 135.188H456.256L456.284 130.708L460.596 130.736C462.033 130.736 462.752 130.26 462.752 129.308C462.752 128.169 461.679 127.6 459.532 127.6C457.628 127.563 455.575 128.085 453.372 129.168V124.268C455.481 123.409 457.675 122.98 459.952 122.98C462.435 122.98 464.385 123.437 465.804 124.352C467.223 125.267 467.932 126.62 467.932 128.412C467.932 130.484 466.905 131.875 464.852 132.584C466.028 132.939 466.961 133.545 467.652 134.404C468.361 135.244 468.716 136.327 468.716 137.652ZM469.389 146.5V139.5H471.321C472.628 137.241 473.216 133.928 473.085 129.56H484.705V139.5H486.749V146.5H482.409V143H473.729V146.5H469.389ZM477.425 133.06C477.351 135.711 476.94 137.857 476.193 139.5H479.945V133.06H477.425ZM487.347 136.28C487.347 135.029 487.571 133.928 488.019 132.976C488.467 132.005 489.055 131.259 489.783 130.736C490.511 130.195 491.267 129.793 492.051 129.532C492.835 129.271 493.619 129.14 494.403 129.14C495.523 129.14 496.522 129.308 497.399 129.644C498.276 129.98 498.967 130.428 499.471 130.988C499.994 131.548 500.414 132.201 500.731 132.948C501.048 133.676 501.198 134.451 501.179 135.272C501.179 136.075 501.104 136.887 500.955 137.708H492.163C492.667 139.089 494.095 139.78 496.447 139.78C497.884 139.78 499.172 139.565 500.311 139.136V142.664C498.892 143.168 497.231 143.42 495.327 143.42C493.031 143.42 491.127 142.795 489.615 141.544C488.103 140.275 487.347 138.52 487.347 136.28ZM496.615 134.852C496.708 134.404 496.587 133.919 496.251 133.396C495.934 132.855 495.355 132.584 494.515 132.584C493.843 132.584 493.274 132.789 492.807 133.2C492.34 133.611 492.107 134.161 492.107 134.852H496.615ZM502.127 136.56C502.127 134.096 502.883 132.239 504.395 130.988C505.925 129.737 507.755 129.112 509.883 129.112C511.357 129.112 512.739 129.42 514.027 130.036V134.096C512.963 133.48 511.824 133.172 510.611 133.172C509.565 133.172 508.707 133.424 508.035 133.928C507.363 134.432 507.027 135.216 507.027 136.28C507.027 137.288 507.363 138.053 508.035 138.576C508.707 139.099 509.537 139.36 510.527 139.36C511.908 139.36 513.121 139.061 514.167 138.464V142.524C512.729 143.121 511.189 143.42 509.547 143.42C507.493 143.42 505.739 142.841 504.283 141.684C502.845 140.508 502.127 138.8 502.127 136.56ZM515.965 143V129.56H520.725V133.48H523.301C525.056 133.48 526.419 133.928 527.389 134.824C528.36 135.72 528.845 136.859 528.845 138.24C528.845 139.621 528.36 140.76 527.389 141.656C526.419 142.552 525.056 143 523.301 143H515.965ZM520.725 139.78H522.013C522.629 139.78 523.105 139.64 523.441 139.36C523.777 139.08 523.945 138.707 523.945 138.24C523.945 137.773 523.777 137.4 523.441 137.12C523.105 136.84 522.629 136.7 522.013 136.7H520.725V139.78ZM453.428 168V154.56H457.824L461.632 160.804L465.44 154.56H469.836V168H465.188V161.28L462.668 165.396H460.596L458.076 161.28V168H453.428ZM473.629 166.572C472.192 165.321 471.473 163.557 471.473 161.28C471.473 159.003 472.192 157.248 473.629 156.016C475.085 154.765 476.887 154.14 479.033 154.14C481.18 154.14 482.972 154.765 484.409 156.016C485.865 157.248 486.593 159.003 486.593 161.28C486.593 163.557 485.865 165.321 484.409 166.572C482.972 167.804 481.18 168.42 479.033 168.42C476.887 168.42 475.085 167.804 473.629 166.572ZM481.049 163.38C481.479 162.82 481.693 162.12 481.693 161.28C481.693 160.44 481.479 159.74 481.049 159.18C480.62 158.62 479.948 158.34 479.033 158.34C478.119 158.34 477.447 158.62 477.017 159.18C476.588 159.74 476.373 160.44 476.373 161.28C476.373 162.12 476.588 162.82 477.017 163.38C477.447 163.94 478.119 164.22 479.033 164.22C479.948 164.22 480.62 163.94 481.049 163.38ZM503.654 168L500.966 163.324H499.79V168H495.03V163.324H493.854L491.166 168H486.126L490.382 161.252L486.406 154.56H491.446L494.162 159.684H495.03V154.56H499.79V159.684H500.658L503.374 154.56H508.414L504.438 161.252L508.694 168H503.654ZM508.224 161.28C508.224 160.029 508.448 158.928 508.896 157.976C509.344 157.005 509.932 156.259 510.66 155.736C511.388 155.195 512.144 154.793 512.928 154.532C513.712 154.271 514.496 154.14 515.28 154.14C516.4 154.14 517.399 154.308 518.276 154.644C519.154 154.98 519.844 155.428 520.348 155.988C520.871 156.548 521.291 157.201 521.608 157.948C521.926 158.676 522.075 159.451 522.056 160.272C522.056 161.075 521.982 161.887 521.832 162.708H513.04C513.544 164.089 514.972 164.78 517.324 164.78C518.762 164.78 520.05 164.565 521.188 164.136V167.664C519.77 168.168 518.108 168.42 516.204 168.42C513.908 168.42 512.004 167.795 510.492 166.544C508.98 165.275 508.224 163.52 508.224 161.28ZM517.492 159.852C517.586 159.404 517.464 158.919 517.128 158.396C516.811 157.855 516.232 157.584 515.392 157.584C514.72 157.584 514.151 157.789 513.684 158.2C513.218 158.611 512.984 159.161 512.984 159.852H517.492ZM526.588 168V158.48H522.668V154.56H535.268V158.48H531.348V168H526.588ZM535.679 161.28C535.679 160.029 535.903 158.928 536.351 157.976C536.799 157.005 537.387 156.259 538.115 155.736C538.843 155.195 539.599 154.793 540.383 154.532C541.167 154.271 541.951 154.14 542.735 154.14C543.855 154.14 544.853 154.308 545.731 154.644C546.608 154.98 547.299 155.428 547.803 155.988C548.325 156.548 548.745 157.201 549.063 157.948C549.38 158.676 549.529 159.451 549.511 160.272C549.511 161.075 549.436 161.887 549.287 162.708H540.495C540.999 164.089 542.427 164.78 544.779 164.78C546.216 164.78 547.504 164.565 548.643 164.136V167.664C547.224 168.168 545.563 168.42 543.659 168.42C541.363 168.42 539.459 167.795 537.947 166.544C536.435 165.275 535.679 163.52 535.679 161.28ZM544.947 159.852C545.04 159.404 544.919 158.919 544.583 158.396C544.265 157.855 543.687 157.584 542.847 157.584C542.175 157.584 541.605 157.789 541.139 158.2C540.672 158.611 540.439 159.161 540.439 159.852H544.947ZM467.512 186.98C467.512 189.052 466.831 190.648 465.468 191.768C464.105 192.869 462.36 193.42 460.232 193.42C458.085 193.42 456.331 192.767 454.968 191.46C453.624 190.135 452.952 188.035 452.952 185.16C452.952 180.829 454.324 177.805 457.068 176.088C458.151 175.416 459.345 174.94 460.652 174.66C461.977 174.38 463.125 174.156 464.096 173.988C465.085 173.801 465.832 173.465 466.336 172.98V177.18C465.701 177.759 464.637 178.141 463.144 178.328C461.669 178.496 460.596 178.748 459.924 179.084C459.289 179.401 458.785 179.887 458.412 180.54C458.039 181.193 457.852 181.819 457.852 182.416C458.86 181.165 460.213 180.54 461.912 180.54C463.573 180.54 464.917 181.109 465.944 182.248C466.989 183.368 467.512 184.945 467.512 186.98ZM457.936 186.14C457.88 186.401 457.852 186.681 457.852 186.98C457.852 187.279 457.88 187.568 457.936 187.848C457.992 188.109 458.095 188.399 458.244 188.716C458.393 189.033 458.636 189.295 458.972 189.5C459.327 189.687 459.747 189.78 460.232 189.78C460.717 189.78 461.128 189.687 461.464 189.5C461.819 189.295 462.071 189.033 462.22 188.716C462.369 188.399 462.472 188.109 462.528 187.848C462.584 187.568 462.612 187.279 462.612 186.98C462.612 186.681 462.584 186.401 462.528 186.14C462.472 185.86 462.369 185.561 462.22 185.244C462.071 184.927 461.819 184.675 461.464 184.488C461.128 184.283 460.717 184.18 460.232 184.18C459.747 184.18 459.327 184.283 458.972 184.488C458.636 184.675 458.393 184.927 458.244 185.244C458.095 185.561 457.992 185.86 457.936 186.14ZM469.192 193V179.56H473.952V183.48H476.528C478.283 183.48 479.646 183.928 480.616 184.824C481.587 185.72 482.072 186.859 482.072 188.24C482.072 189.621 481.587 190.76 480.616 191.656C479.646 192.552 478.283 193 476.528 193H469.192ZM484.032 193V179.56H488.792V193H484.032ZM473.952 189.78H475.24C475.856 189.78 476.332 189.64 476.668 189.36C477.004 189.08 477.172 188.707 477.172 188.24C477.172 187.773 477.004 187.4 476.668 187.12C476.332 186.84 475.856 186.7 475.24 186.7H473.952V189.78ZM493.993 193V183.48H490.073V179.56H502.673V183.48H498.753V193H493.993ZM503.975 193V179.56H508.735V183.48H511.311C513.065 183.48 514.428 183.928 515.399 184.824C516.369 185.72 516.855 186.859 516.855 188.24C516.855 189.621 516.369 190.76 515.399 191.656C514.428 192.552 513.065 193 511.311 193H503.975ZM508.735 189.78H510.023C510.639 189.78 511.115 189.64 511.451 189.36C511.787 189.08 511.955 188.707 511.955 188.24C511.955 187.773 511.787 187.4 511.451 187.12C511.115 186.84 510.639 186.7 510.023 186.7H508.735V189.78ZM523.499 193V179.56H528.259V185.916L533.047 179.56H537.219V193H532.459V186.644L527.671 193H523.499ZM544.774 193V179.56H553.118C554.76 179.56 555.927 179.915 556.618 180.624C557.327 181.315 557.682 182.127 557.682 183.06C557.682 184.609 556.954 185.664 555.498 186.224C557.14 186.747 557.962 187.811 557.962 189.416C557.962 190.443 557.607 191.301 556.898 191.992C556.188 192.664 555.003 193 553.342 193H544.774ZM549.534 184.992H551.466C552.436 184.992 552.922 184.6 552.922 183.816C552.922 182.995 552.427 182.584 551.438 182.584H549.534V184.992ZM549.562 189.976H551.746C552.716 189.976 553.202 189.584 553.202 188.8C553.202 187.979 552.707 187.568 551.718 187.568H549.562V189.976ZM559.635 193V179.56H564.395V183.48H566.971C568.726 183.48 570.089 183.928 571.059 184.824C572.03 185.72 572.515 186.859 572.515 188.24C572.515 189.621 572.03 190.76 571.059 191.656C570.089 192.552 568.726 193 566.971 193H559.635ZM574.475 193V179.56H579.235V193H574.475ZM564.395 189.78H565.683C566.299 189.78 566.775 189.64 567.111 189.36C567.447 189.08 567.615 188.707 567.615 188.24C567.615 187.773 567.447 187.4 567.111 187.12C566.775 186.84 566.299 186.7 565.683 186.7H564.395V189.78Z" fill="white"/>
<path d="M453.32 221V207H465.92V221H462.22V210.3H457.02V221H453.32ZM470.757 212.7C471.023 212.247 471.43 211.867 471.977 211.56C472.537 211.253 473.217 211.1 474.017 211.1C474.79 211.1 475.483 211.247 476.097 211.54C476.71 211.833 477.197 212.227 477.557 212.72C477.917 213.213 478.19 213.76 478.377 214.36C478.563 214.947 478.657 215.56 478.657 216.2C478.657 216.84 478.563 217.46 478.377 218.06C478.19 218.647 477.917 219.187 477.557 219.68C477.197 220.173 476.71 220.567 476.097 220.86C475.483 221.153 474.79 221.3 474.017 221.3C472.803 221.3 471.85 220.94 471.157 220.22V225.4H467.757V211.4H470.757V212.7ZM474.617 217.82C474.977 217.367 475.157 216.827 475.157 216.2C475.157 215.573 474.977 215.033 474.617 214.58C474.27 214.127 473.763 213.9 473.097 213.9C472.657 213.9 472.263 214.02 471.917 214.26C471.57 214.487 471.317 214.767 471.157 215.1V217.3C471.317 217.633 471.57 217.92 471.917 218.16C472.263 218.387 472.657 218.5 473.097 218.5C473.763 218.5 474.27 218.273 474.617 217.82ZM479.837 221V211.4H483.237V215.94L486.657 211.4H489.637V221H486.237V216.46L482.817 221H479.837ZM490.793 216.4C490.793 214.64 491.333 213.313 492.413 212.42C493.506 211.527 494.813 211.08 496.333 211.08C497.386 211.08 498.373 211.3 499.293 211.74V214.64C498.533 214.2 497.72 213.98 496.853 213.98C496.106 213.98 495.493 214.16 495.013 214.52C494.533 214.88 494.293 215.44 494.293 216.2C494.293 216.92 494.533 217.467 495.013 217.84C495.493 218.213 496.086 218.4 496.793 218.4C497.78 218.4 498.646 218.187 499.393 217.76V220.66C498.366 221.087 497.266 221.3 496.093 221.3C494.626 221.3 493.373 220.887 492.333 220.06C491.306 219.22 490.793 218 490.793 216.4ZM501.64 219.98C500.613 219.087 500.1 217.827 500.1 216.2C500.1 214.573 500.613 213.32 501.64 212.44C502.68 211.547 503.967 211.1 505.5 211.1C507.033 211.1 508.313 211.547 509.34 212.44C510.38 213.32 510.9 214.573 510.9 216.2C510.9 217.827 510.38 219.087 509.34 219.98C508.313 220.86 507.033 221.3 505.5 221.3C503.967 221.3 502.68 220.86 501.64 219.98ZM506.94 217.7C507.247 217.3 507.4 216.8 507.4 216.2C507.4 215.6 507.247 215.1 506.94 214.7C506.633 214.3 506.153 214.1 505.5 214.1C504.847 214.1 504.367 214.3 504.06 214.7C503.753 215.1 503.6 215.6 503.6 216.2C503.6 216.8 503.753 217.3 504.06 217.7C504.367 218.1 504.847 218.3 505.5 218.3C506.153 218.3 506.633 218.1 506.94 217.7ZM511.575 216.2C511.575 215.307 511.735 214.52 512.055 213.84C512.375 213.147 512.795 212.613 513.315 212.24C513.835 211.853 514.375 211.567 514.935 211.38C515.495 211.193 516.055 211.1 516.615 211.1C517.415 211.1 518.128 211.22 518.755 211.46C519.382 211.7 519.875 212.02 520.235 212.42C520.608 212.82 520.908 213.287 521.135 213.82C521.362 214.34 521.468 214.893 521.455 215.48C521.455 216.053 521.402 216.633 521.295 217.22H515.015C515.375 218.207 516.395 218.7 518.075 218.7C519.102 218.7 520.022 218.547 520.835 218.24V220.76C519.822 221.12 518.635 221.3 517.275 221.3C515.635 221.3 514.275 220.853 513.195 219.96C512.115 219.053 511.575 217.8 511.575 216.2ZM518.195 215.18C518.262 214.86 518.175 214.513 517.935 214.14C517.708 213.753 517.295 213.56 516.695 213.56C516.215 213.56 515.808 213.707 515.475 214C515.142 214.293 514.975 214.687 514.975 215.18H518.195ZM521.855 223.5V218.5H523.235C524.168 216.887 524.588 214.52 524.495 211.4H532.795V218.5H534.255V223.5H531.155V221H524.955V223.5H521.855ZM527.595 213.9C527.541 215.793 527.248 217.327 526.715 218.5H529.395V213.9H527.595ZM535.337 221V211.4H538.737V215.94L542.157 211.4H545.137V221H541.737V216.46L538.317 221H535.337ZM546.773 221V211.4H550.173V214.8H553.173V211.4H556.573V221H553.173V217.6H550.173V221H546.773ZM557.429 221L559.809 217.92C559.236 217.613 558.789 217.193 558.469 216.66C558.162 216.127 558.009 215.54 558.009 214.9C558.009 213.913 558.356 213.087 559.049 212.42C559.756 211.74 560.729 211.4 561.969 211.4H567.429V221H564.029V218.4H563.089L561.209 221H557.429ZM562.789 214C561.936 214 561.509 214.333 561.509 215C561.509 215.667 561.936 216 562.789 216H564.029V214H562.789ZM577.179 209.64C576.245 210.16 575.179 210.42 573.979 210.42C572.779 210.42 571.712 210.16 570.779 209.64V207.2C571.672 207.667 572.739 207.9 573.979 207.9C575.205 207.9 576.272 207.667 577.179 207.2V209.64ZM569.079 221V211.4H572.479V215.94L575.899 211.4H578.879V221H575.479V216.46L572.059 221H569.079ZM582.595 221V214.2H579.795V211.4H588.795V214.2H585.995V221H582.595ZM589.088 216.2C589.088 215.307 589.248 214.52 589.568 213.84C589.888 213.147 590.308 212.613 590.828 212.24C591.348 211.853 591.888 211.567 592.448 211.38C593.008 211.193 593.568 211.1 594.128 211.1C594.928 211.1 595.641 211.22 596.268 211.46C596.894 211.7 597.388 212.02 597.748 212.42C598.121 212.82 598.421 213.287 598.648 213.82C598.874 214.34 598.981 214.893 598.968 215.48C598.968 216.053 598.914 216.633 598.808 217.22H592.528C592.888 218.207 593.908 218.7 595.588 218.7C596.614 218.7 597.534 218.547 598.348 218.24V220.76C597.334 221.12 596.148 221.3 594.788 221.3C593.148 221.3 591.788 220.853 590.708 219.96C589.628 219.053 589.088 217.8 589.088 216.2ZM595.708 215.18C595.774 214.86 595.688 214.513 595.448 214.14C595.221 213.753 594.808 213.56 594.208 213.56C593.728 213.56 593.321 213.707 592.988 214C592.654 214.293 592.488 214.687 592.488 215.18H595.708ZM599.645 216.4C599.645 214.64 600.185 213.313 601.265 212.42C602.358 211.527 603.665 211.08 605.185 211.08C606.238 211.08 607.225 211.3 608.145 211.74V214.64C607.385 214.2 606.571 213.98 605.705 213.98C604.958 213.98 604.345 214.16 603.865 214.52C603.385 214.88 603.145 215.44 603.145 216.2C603.145 216.92 603.385 217.467 603.865 217.84C604.345 218.213 604.938 218.4 605.645 218.4C606.631 218.4 607.498 218.187 608.245 217.76V220.66C607.218 221.087 606.118 221.3 604.945 221.3C603.478 221.3 602.225 220.887 601.185 220.06C600.158 219.22 599.645 218 599.645 216.4ZM609.529 221V211.4H612.929V214.2H614.769C616.023 214.2 616.996 214.52 617.689 215.16C618.383 215.8 618.729 216.613 618.729 217.6C618.729 218.587 618.383 219.4 617.689 220.04C616.996 220.68 616.023 221 614.769 221H609.529ZM612.929 218.7H613.849C614.289 218.7 614.629 218.6 614.869 218.4C615.109 218.2 615.229 217.933 615.229 217.6C615.229 217.267 615.109 217 614.869 216.8C614.629 216.6 614.289 216.5 613.849 216.5H612.929V218.7ZM453.02 239V229.4H456.42V232.76H457.18L459.28 229.4H463.08L459.96 234.12L463.28 239H459.5L457.14 235.36H456.42V239H453.02ZM467.131 234.4C467.131 232.64 467.671 231.313 468.751 230.42C469.844 229.527 471.151 229.08 472.671 229.08C473.724 229.08 474.711 229.3 475.631 229.74V232.64C474.871 232.2 474.057 231.98 473.191 231.98C472.444 231.98 471.831 232.16 471.351 232.52C470.871 232.88 470.631 233.44 470.631 234.2C470.631 234.92 470.871 235.467 471.351 235.84C471.831 236.213 472.424 236.4 473.131 236.4C474.117 236.4 474.984 236.187 475.731 235.76V238.66C474.704 239.087 473.604 239.3 472.431 239.3C470.964 239.3 469.711 238.887 468.671 238.06C467.644 237.22 467.131 236 467.131 234.4ZM477.015 239V229.4H480.415V233.94L483.835 229.4H486.815V239H483.415V234.46L479.995 239H477.015ZM493.111 232C493.045 233.08 492.938 234.027 492.791 234.84C492.658 235.64 492.451 236.393 492.171 237.1C491.905 237.793 491.531 238.32 491.051 238.68C490.585 239.04 490.025 239.22 489.371 239.22C488.851 239.22 488.278 239.113 487.651 238.9V236.2C487.851 236.28 488.031 236.32 488.191 236.32C488.431 236.32 488.638 236.247 488.811 236.1C488.985 235.94 489.131 235.693 489.251 235.36C489.385 235.027 489.491 234.687 489.571 234.34C489.651 233.98 489.718 233.5 489.771 232.9C489.838 232.287 489.885 231.747 489.911 231.28C489.938 230.8 489.971 230.173 490.011 229.4H498.211V239H494.811V232H493.111ZM499.848 239V229.4H503.248V232.2H505.088C506.341 232.2 507.315 232.52 508.008 233.16C508.701 233.8 509.048 234.613 509.048 235.6C509.048 236.587 508.701 237.4 508.008 238.04C507.315 238.68 506.341 239 505.088 239H499.848ZM503.248 236.7H504.168C504.608 236.7 504.948 236.6 505.188 236.4C505.428 236.2 505.548 235.933 505.548 235.6C505.548 235.267 505.428 235 505.188 234.8C504.948 234.6 504.608 234.5 504.168 234.5H503.248V236.7ZM510.034 239V229.4H513.434V232.8H516.434V229.4H519.834V239H516.434V235.6H513.434V239H510.034ZM522.53 237.98C521.503 237.087 520.99 235.827 520.99 234.2C520.99 232.573 521.503 231.32 522.53 230.44C523.57 229.547 524.857 229.1 526.39 229.1C527.923 229.1 529.203 229.547 530.23 230.44C531.27 231.32 531.79 232.573 531.79 234.2C531.79 235.827 531.27 237.087 530.23 237.98C529.203 238.86 527.923 239.3 526.39 239.3C524.857 239.3 523.57 238.86 522.53 237.98ZM527.83 235.7C528.137 235.3 528.29 234.8 528.29 234.2C528.29 233.6 528.137 233.1 527.83 232.7C527.523 232.3 527.043 232.1 526.39 232.1C525.737 232.1 525.257 232.3 524.95 232.7C524.643 233.1 524.49 233.6 524.49 234.2C524.49 234.8 524.643 235.3 524.95 235.7C525.257 236.1 525.737 236.3 526.39 236.3C527.043 236.3 527.523 236.1 527.83 235.7ZM541.045 227.64C540.112 228.16 539.045 228.42 537.845 228.42C536.645 228.42 535.578 228.16 534.645 227.64V225.2C535.538 225.667 536.605 225.9 537.845 225.9C539.072 225.9 540.138 225.667 541.045 225.2V227.64ZM532.945 239V229.4H536.345V233.94L539.765 229.4H542.745V239H539.345V234.46L535.925 239H532.945ZM453.02 257V247.4H456.42V250.76H457.18L459.28 247.4H463.08L459.96 252.12L463.28 257H459.5L457.14 253.36H456.42V257H453.02ZM464.403 255.98C463.376 255.087 462.863 253.827 462.863 252.2C462.863 250.573 463.376 249.32 464.403 248.44C465.443 247.547 466.729 247.1 468.263 247.1C469.796 247.1 471.076 247.547 472.103 248.44C473.143 249.32 473.663 250.573 473.663 252.2C473.663 253.827 473.143 255.087 472.103 255.98C471.076 256.86 469.796 257.3 468.263 257.3C466.729 257.3 465.443 256.86 464.403 255.98ZM469.703 253.7C470.009 253.3 470.163 252.8 470.163 252.2C470.163 251.6 470.009 251.1 469.703 250.7C469.396 250.3 468.916 250.1 468.263 250.1C467.609 250.1 467.129 250.3 466.823 250.7C466.516 251.1 466.363 251.6 466.363 252.2C466.363 252.8 466.516 253.3 466.823 253.7C467.129 254.1 467.609 254.3 468.263 254.3C468.916 254.3 469.396 254.1 469.703 253.7ZM474.818 257V247.4H477.958L480.678 251.86L483.398 247.4H486.538V257H483.218V252.2L481.418 255.14H479.938L478.138 252.2V257H474.818ZM497.267 254.26C497.267 254.66 497.487 254.86 497.927 254.86C498.061 254.86 498.187 254.84 498.307 254.8V256.9C497.801 257.1 497.227 257.2 496.587 257.2C495.521 257.2 494.761 256.847 494.307 256.14C493.321 256.913 492.207 257.3 490.967 257.3C490.021 257.3 489.227 257.033 488.587 256.5C487.947 255.967 487.627 255.247 487.627 254.34C487.627 253.767 487.754 253.267 488.007 252.84C488.261 252.4 488.594 252.067 489.007 251.84C489.434 251.613 489.874 251.447 490.327 251.34C490.794 251.233 491.281 251.18 491.787 251.18C492.507 251.18 493.201 251.253 493.867 251.4V251.06C493.867 250.7 493.694 250.413 493.347 250.2C493.014 249.973 492.521 249.86 491.867 249.86C490.854 249.86 489.734 250.107 488.507 250.6V247.74C489.814 247.313 491.061 247.1 492.247 247.1C493.887 247.1 495.134 247.44 495.987 248.12C496.841 248.8 497.267 249.953 497.267 251.58V254.26ZM491.127 254.06C491.127 254.327 491.234 254.553 491.447 254.74C491.661 254.913 491.941 255 492.287 255C492.887 255 493.414 254.833 493.867 254.5V253.2C493.507 253.08 493.101 253.02 492.647 253.02C491.634 253.02 491.127 253.367 491.127 254.06ZM499.135 257V247.4H502.535V250.8H505.535V247.4H508.935V257H505.535V253.6H502.535V257H499.135ZM509.911 259.5V254.5H511.291C512.224 252.887 512.644 250.52 512.551 247.4H520.851V254.5H522.311V259.5H519.211V257H513.011V259.5H509.911ZM515.651 249.9C515.597 251.793 515.304 253.327 514.771 254.5H517.451V249.9H515.651ZM522.738 252.2C522.738 251.307 522.898 250.52 523.218 249.84C523.538 249.147 523.958 248.613 524.478 248.24C524.998 247.853 525.538 247.567 526.098 247.38C526.658 247.193 527.218 247.1 527.778 247.1C528.578 247.1 529.291 247.22 529.918 247.46C530.544 247.7 531.038 248.02 531.398 248.42C531.771 248.82 532.071 249.287 532.298 249.82C532.524 250.34 532.631 250.893 532.618 251.48C532.618 252.053 532.564 252.633 532.458 253.22H526.178C526.538 254.207 527.558 254.7 529.238 254.7C530.264 254.7 531.184 254.547 531.998 254.24V256.76C530.984 257.12 529.798 257.3 528.438 257.3C526.798 257.3 525.438 256.853 524.358 255.96C523.278 255.053 522.738 253.8 522.738 252.2ZM529.358 251.18C529.424 250.86 529.338 250.513 529.098 250.14C528.871 249.753 528.458 249.56 527.858 249.56C527.378 249.56 526.971 249.707 526.638 250C526.304 250.293 526.138 250.687 526.138 251.18H529.358ZM534.095 251.8L533.895 243H537.495L537.295 251.8H534.095ZM537.735 255.32C537.735 255.973 537.541 256.467 537.155 256.8C536.768 257.133 536.281 257.3 535.695 257.3C535.108 257.3 534.621 257.133 534.235 256.8C533.848 256.467 533.655 255.973 533.655 255.32C533.655 254.68 533.848 254.193 534.235 253.86C534.621 253.527 535.108 253.36 535.695 253.36C536.281 253.36 536.768 253.527 537.155 253.86C537.541 254.193 537.735 254.68 537.735 255.32Z" fill="#4962D8"/>
<g filter="url(#filter4_d_739_800)">
<g filter="url(#filter5_dddd_739_800)">
<path d="M183.053 372H19.0001L19 317.197L42.4102 304H206.463L206.463 358.803L183.053 372Z" fill="#314084" fill-opacity="0.8"/>
<path d="M19.5 317.49L19.5001 371.5H182.922L205.963 358.51L205.963 304.5H42.5415L19.5 317.49Z" stroke="#141E4B" stroke-opacity="0.06"/>
</g>
</g>
<path opacity="0.5" d="M20.26 383.56C21.6067 382.6 23.1667 382.12 24.94 382.12C26.3933 382.12 27.58 382.46 28.5 383.14C29.4333 383.82 29.9 384.82 29.9 386.14C29.9 387.167 29.5667 388.047 28.9 388.78C28.2467 389.5 27.3533 390.193 26.22 390.86C24.8867 391.647 24.0667 392.18 23.76 392.46C23.4 392.807 23.2133 393.133 23.2 393.44L30 393.42V396H19.8V394.66C19.8 392.927 20.56 391.48 22.08 390.32C22.4533 390.027 23.1867 389.56 24.28 388.92C24.36 388.867 24.5267 388.773 24.78 388.64C25.0467 388.493 25.22 388.393 25.3 388.34C25.38 388.287 25.52 388.2 25.72 388.08C25.92 387.947 26.06 387.847 26.14 387.78C26.22 387.7 26.32 387.593 26.44 387.46C26.5733 387.327 26.6667 387.207 26.72 387.1C26.7733 386.993 26.82 386.867 26.86 386.72C26.9 386.573 26.92 386.42 26.92 386.26C26.92 385.767 26.72 385.393 26.32 385.14C25.92 384.873 25.3667 384.74 24.66 384.74C23.14 384.74 21.6733 385.28 20.26 386.36V383.56ZM33.3141 394.32C32.2874 393 31.7741 391.293 31.7741 389.2C31.7741 387.107 32.2874 385.407 33.3141 384.1C34.3541 382.78 35.9074 382.12 37.9741 382.12C40.0407 382.12 41.5874 382.78 42.6141 384.1C43.6541 385.407 44.1741 387.107 44.1741 389.2C44.1741 391.293 43.6541 393 42.6141 394.32C41.5874 395.627 40.0407 396.28 37.9741 396.28C35.9074 396.28 34.3541 395.627 33.3141 394.32ZM37.9741 393.64C40.1074 393.64 41.1741 392.16 41.1741 389.2C41.1741 386.24 40.1074 384.76 37.9741 384.76C35.8407 384.76 34.7741 386.24 34.7741 389.2C34.7741 392.16 35.8407 393.64 37.9741 393.64ZM51.5352 382.4V393.42H53.8152V396H46.0552V393.42H48.6152V385.4L46.0552 386.36V383.66L49.3552 382.4H51.5352ZM64.7939 385.88C64.7939 386.573 64.6072 387.18 64.2339 387.7C63.8739 388.207 63.3739 388.573 62.7339 388.8C63.4939 389.027 64.1206 389.433 64.6139 390.02C65.1072 390.593 65.3539 391.347 65.3539 392.28C65.3539 392.973 65.2006 393.587 64.8939 394.12C64.6006 394.64 64.1939 395.053 63.6739 395.36C63.1539 395.667 62.5739 395.893 61.9339 396.04C61.3072 396.2 60.6339 396.28 59.9139 396.28C58.2472 396.28 56.6739 395.973 55.1939 395.36V392.58C56.5006 393.313 57.9939 393.667 59.6739 393.64C60.5139 393.64 61.1939 393.493 61.7139 393.2C62.2339 392.907 62.4939 392.46 62.4939 391.86C62.4939 390.807 61.7072 390.28 60.1339 390.28H57.8939L57.9139 387.72L59.7939 387.74C60.4739 387.74 61.0006 387.62 61.3739 387.38C61.7606 387.127 61.9539 386.767 61.9539 386.3C61.9539 385.807 61.7406 385.427 61.3139 385.16C60.8872 384.88 60.2672 384.74 59.4539 384.74C58.1072 384.74 56.7672 385.147 55.4339 385.96V383.18C56.7406 382.473 58.2206 382.12 59.8739 382.12C61.3406 382.12 62.5272 382.447 63.4339 383.1C64.3406 383.753 64.7939 384.68 64.7939 385.88ZM71.7816 396V386.4H79.1016V388.74H74.5616V396H71.7816ZM81.3363 394.94C80.3096 394.047 79.7963 392.8 79.7963 391.2C79.7963 389.6 80.3096 388.353 81.3363 387.46C82.3629 386.567 83.6163 386.12 85.0963 386.12C86.5896 386.12 87.8429 386.567 88.8563 387.46C89.8829 388.353 90.3963 389.6 90.3963 391.2C90.3963 392.8 89.8829 394.047 88.8563 394.94C87.8429 395.833 86.5896 396.28 85.0963 396.28C83.6163 396.28 82.3629 395.833 81.3363 394.94ZM86.9163 393.08C87.3563 392.587 87.5763 391.96 87.5763 391.2C87.5763 390.44 87.3563 389.82 86.9163 389.34C86.4763 388.847 85.8696 388.6 85.0963 388.6C84.3229 388.6 83.7163 388.847 83.2763 389.34C82.8496 389.82 82.6363 390.44 82.6363 391.2C82.6363 391.96 82.8496 392.587 83.2763 393.08C83.7163 393.56 84.3229 393.8 85.0963 393.8C85.8696 393.8 86.4763 393.56 86.9163 393.08ZM91.1973 398.54V393.88H92.5373C93.5373 392.147 94.004 389.653 93.9373 386.4H101.837V393.88H103.277V398.54H100.717V396H93.7573V398.54H91.1973ZM96.4973 388.52C96.4173 390.707 96.0573 392.493 95.4173 393.88H99.0773V388.52H96.4973Z" fill="#E3E5F0"/>
<rect opacity="0.2" x="19" y="317" width="164" height="55" fill="url(#paint2_linear_739_800)"/>
<path d="M104.551 319.24V336.04H107.943V341H94.9512V336.04H98.7912V325.096L94.9512 326.536V321.256L100.231 319.24H104.551ZM111.737 338.312C110.073 336.179 109.241 333.448 109.241 330.12C109.241 326.792 110.073 324.072 111.737 321.96C113.422 319.827 115.95 318.76 119.321 318.76C122.691 318.76 125.209 319.827 126.873 321.96C128.558 324.072 129.401 326.792 129.401 330.12C129.401 333.448 128.558 336.179 126.873 338.312C125.209 340.424 122.691 341.48 119.321 341.48C115.95 341.48 113.422 340.424 111.737 338.312ZM119.321 336.36C122.094 336.36 123.481 334.28 123.481 330.12C123.481 325.96 122.094 323.88 119.321 323.88C116.547 323.88 115.161 325.96 115.161 330.12C115.161 334.28 116.547 336.36 119.321 336.36ZM86.724 355V352.744C86.18 352.936 85.5827 353.032 84.932 353.032C84.0787 353.032 83.364 352.787 82.788 352.296C82.212 351.795 81.924 351.059 81.924 350.088V347.32H84.644V349.832C84.644 350.472 84.9853 350.792 85.668 350.792C86.052 350.792 86.404 350.728 86.724 350.6V347.32H89.444V355H86.724ZM90.3689 351.16C90.3689 350.445 90.4969 349.816 90.7529 349.272C91.0089 348.717 91.3449 348.291 91.7609 347.992C92.1769 347.683 92.6089 347.453 93.0569 347.304C93.5049 347.155 93.9529 347.08 94.4009 347.08C95.0409 347.08 95.6115 347.176 96.1129 347.368C96.6142 347.56 97.0089 347.816 97.2969 348.136C97.5955 348.456 97.8355 348.829 98.0169 349.256C98.1982 349.672 98.2835 350.115 98.2729 350.584C98.2729 351.043 98.2302 351.507 98.1449 351.976H93.1209C93.4089 352.765 94.2249 353.16 95.5689 353.16C96.3902 353.16 97.1262 353.037 97.7769 352.792V354.808C96.9662 355.096 96.0169 355.24 94.9289 355.24C93.6169 355.24 92.5289 354.883 91.6649 354.168C90.8009 353.443 90.3689 352.44 90.3689 351.16ZM95.6649 350.344C95.7182 350.088 95.6489 349.811 95.4569 349.512C95.2755 349.203 94.9449 349.048 94.4649 349.048C94.0809 349.048 93.7555 349.165 93.4889 349.4C93.2222 349.635 93.0889 349.949 93.0889 350.344H95.6649ZM102.864 349.4C102.811 350.264 102.725 351.021 102.608 351.672C102.501 352.312 102.336 352.915 102.112 353.48C101.899 354.035 101.6 354.456 101.216 354.744C100.843 355.032 100.395 355.176 99.872 355.176C99.456 355.176 98.9973 355.091 98.496 354.92V352.76C98.656 352.824 98.8 352.856 98.928 352.856C99.12 352.856 99.2853 352.797 99.424 352.68C99.5627 352.552 99.68 352.355 99.776 352.088C99.8827 351.821 99.968 351.549 100.032 351.272C100.096 350.984 100.149 350.6 100.192 350.12C100.245 349.629 100.283 349.197 100.304 348.824C100.325 348.44 100.352 347.939 100.384 347.32H106.944V355H104.224V349.4H102.864ZM109.102 354.184C108.28 353.469 107.87 352.461 107.87 351.16C107.87 349.859 108.28 348.856 109.102 348.152C109.934 347.437 110.963 347.08 112.19 347.08C113.416 347.08 114.44 347.437 115.262 348.152C116.094 348.856 116.51 349.859 116.51 351.16C116.51 352.461 116.094 353.469 115.262 354.184C114.44 354.888 113.416 355.24 112.19 355.24C110.963 355.24 109.934 354.888 109.102 354.184ZM113.342 352.36C113.587 352.04 113.71 351.64 113.71 351.16C113.71 350.68 113.587 350.28 113.342 349.96C113.096 349.64 112.712 349.48 112.19 349.48C111.667 349.48 111.283 349.64 111.038 349.96C110.792 350.28 110.67 350.68 110.67 351.16C110.67 351.64 110.792 352.04 111.038 352.36C111.283 352.68 111.667 352.84 112.19 352.84C112.712 352.84 113.096 352.68 113.342 352.36ZM117.434 355V347.32H122.202C123.14 347.32 123.807 347.523 124.202 347.928C124.607 348.323 124.81 348.787 124.81 349.32C124.81 350.205 124.394 350.808 123.562 351.128C124.5 351.427 124.97 352.035 124.97 352.952C124.97 353.539 124.767 354.029 124.362 354.424C123.956 354.808 123.279 355 122.33 355H117.434ZM120.154 350.424H121.258C121.812 350.424 122.09 350.2 122.09 349.752C122.09 349.283 121.807 349.048 121.242 349.048H120.154V350.424ZM120.17 353.272H121.418C121.972 353.272 122.25 353.048 122.25 352.6C122.25 352.131 121.967 351.896 121.402 351.896H120.17V353.272ZM125.542 351.16C125.542 350.445 125.67 349.816 125.926 349.272C126.182 348.717 126.518 348.291 126.934 347.992C127.35 347.683 127.782 347.453 128.23 347.304C128.678 347.155 129.126 347.08 129.574 347.08C130.214 347.08 130.785 347.176 131.286 347.368C131.787 347.56 132.182 347.816 132.47 348.136C132.769 348.456 133.009 348.829 133.19 349.256C133.371 349.672 133.457 350.115 133.446 350.584C133.446 351.043 133.403 351.507 133.318 351.976H128.294C128.582 352.765 129.398 353.16 130.742 353.16C131.563 353.16 132.299 353.037 132.95 352.792V354.808C132.139 355.096 131.19 355.24 130.102 355.24C128.79 355.24 127.702 354.883 126.838 354.168C125.974 353.443 125.542 352.44 125.542 351.16ZM130.838 350.344C130.891 350.088 130.822 349.811 130.63 349.512C130.449 349.203 130.118 349.048 129.638 349.048C129.254 349.048 128.929 349.165 128.662 349.4C128.395 349.635 128.262 349.949 128.262 350.344H130.838ZM134.372 355V347.32H137.092V350.008H137.7L139.38 347.32H142.42L139.924 351.096L142.58 355H139.556L137.668 352.088H137.092V355H134.372Z" fill="white"/>
<defs>
<filter id="filter0_d_739_800" x="417" y="0" width="227.463" height="392.5" filterUnits="userSpaceOnUse" color-interpolation-filters="sRGB">
<feFlood flood-opacity="0" result="BackgroundImageFix"/>
<feColorMatrix in="SourceAlpha" type="matrix" values="0 0 0 0 0 0 0 0 0 0 0 0 0 0 0 0 0 0 127 0" result="hardAlpha"/>
<feOffset dy="4"/>
<feGaussianBlur stdDeviation="8"/>
<feComposite in2="hardAlpha" operator="out"/>
<feColorMatrix type="matrix" values="0 0 0 0 0.029184 0 0 0 0 0.0549385 0 0 0 0 0.170833 0 0 0 0.5 0"/>
<feBlend mode="normal" in2="BackgroundImageFix" result="effect1_dropShadow_739_800"/>
<feBlend mode="normal" in="SourceGraphic" in2="effect1_dropShadow_739_800" result="shape"/>
</filter>
<filter id="filter1_dddd_739_800" x="414" y="8" width="233.463" height="431.5" filterUnits="userSpaceOnUse" color-interpolation-filters="sRGB">
<feFlood flood-opacity="0" result="BackgroundImageFix"/>
<feColorMatrix in="SourceAlpha" type="matrix" values="0 0 0 0 0 0 0 0 0 0 0 0 0 0 0 0 0 0 127 0" result="hardAlpha"/>
<feOffset dy="3"/>
<feGaussianBlur stdDeviation="3.5"/>
<feColorMatrix type="matrix" values="0 0 0 0 0.411765 0 0 0 0 0.470588 0 0 0 0 0.764706 0 0 0 0.05 0"/>
<feBlend mode="normal" in2="BackgroundImageFix" result="effect1_dropShadow_739_800"/>
<feColorMatrix in="SourceAlpha" type="matrix" values="0 0 0 0 0 0 0 0 0 0 0 0 0 0 0 0 0 0 127 0" result="hardAlpha"/>
<feOffset dy="12"/>
<feGaussianBlur stdDeviation="6"/>
<feColorMatrix type="matrix" values="0 0 0 0 0.411765 0 0 0 0 0.470588 0 0 0 0 0.764706 0 0 0 0.04 0"/>
<feBlend mode="normal" in2="effect1_dropShadow_739_800" result="effect2_dropShadow_739_800"/>
<feColorMatrix in="SourceAlpha" type="matrix" values="0 0 0 0 0 0 0 0 0 0 0 0 0 0 0 0 0 0 127 0" result="hardAlpha"/>
<feOffset dy="27"/>
<feGaussianBlur stdDeviation="8"/>
<feColorMatrix type="matrix" values="0 0 0 0 0.411765 0 0 0 0 0.470588 0 0 0 0 0.764706 0 0 0 0.03 0"/>
<feBlend mode="normal" in2="effect2_dropShadow_739_800" result="effect3_dropShadow_739_800"/>
<feColorMatrix in="SourceAlpha" type="matrix" values="0 0 0 0 0 0 0 0 0 0 0 0 0 0 0 0 0 0 127 0" result="hardAlpha"/>
<feOffset dy="48"/>
<feGaussianBlur stdDeviation="9.5"/>
<feColorMatrix type="matrix" values="0 0 0 0 0.411765 0 0 0 0 0.470588 0 0 0 0 0.764706 0 0 0 0.01 0"/>
<feBlend mode="normal" in2="effect3_dropShadow_739_800" result="effect4_dropShadow_739_800"/>
<feBlend mode="normal" in="SourceGraphic" in2="effect4_dropShadow_739_800" result="shape"/>
</filter>
<filter id="filter2_d_739_800" x="210" y="107" width="219.464" height="285" filterUnits="userSpaceOnUse" color-interpolation-filters="sRGB">
<feFlood flood-opacity="0" result="BackgroundImageFix"/>
<feColorMatrix in="SourceAlpha" type="matrix" values="0 0 0 0 0 0 0 0 0 0 0 0 0 0 0 0 0 0 127 0" result="hardAlpha"/>
<feOffset dy="4"/>
<feGaussianBlur stdDeviation="8"/>
<feComposite in2="hardAlpha" operator="out"/>
<feColorMatrix type="matrix" values="0 0 0 0 0.029184 0 0 0 0 0.0549385 0 0 0 0 0.170833 0 0 0 0.5 0"/>
<feBlend mode="normal" in2="BackgroundImageFix" result="effect1_dropShadow_739_800"/>
<feBlend mode="normal" in="SourceGraphic" in2="effect1_dropShadow_739_800" result="shape"/>
</filter>
<filter id="filter3_dddd_739_800" x="207" y="115" width="225.464" height="324" filterUnits="userSpaceOnUse" color-interpolation-filters="sRGB">
<feFlood flood-opacity="0" result="BackgroundImageFix"/>
<feColorMatrix in="SourceAlpha" type="matrix" values="0 0 0 0 0 0 0 0 0 0 0 0 0 0 0 0 0 0 127 0" result="hardAlpha"/>
<feOffset dy="3"/>
<feGaussianBlur stdDeviation="3.5"/>
<feColorMatrix type="matrix" values="0 0 0 0 0.411765 0 0 0 0 0.470588 0 0 0 0 0.764706 0 0 0 0.05 0"/>
<feBlend mode="normal" in2="BackgroundImageFix" result="effect1_dropShadow_739_800"/>
<feColorMatrix in="SourceAlpha" type="matrix" values="0 0 0 0 0 0 0 0 0 0 0 0 0 0 0 0 0 0 127 0" result="hardAlpha"/>
<feOffset dy="12"/>
<feGaussianBlur stdDeviation="6"/>
<feColorMatrix type="matrix" values="0 0 0 0 0.411765 0 0 0 0 0.470588 0 0 0 0 0.764706 0 0 0 0.04 0"/>
<feBlend mode="normal" in2="effect1_dropShadow_739_800" result="effect2_dropShadow_739_800"/>
<feColorMatrix in="SourceAlpha" type="matrix" values="0 0 0 0 0 0 0 0 0 0 0 0 0 0 0 0 0 0 127 0" result="hardAlpha"/>
<feOffset dy="27"/>
<feGaussianBlur stdDeviation="8"/>
<feColorMatrix type="matrix" values="0 0 0 0 0.411765 0 0 0 0 0.470588 0 0 0 0 0.764706 0 0 0 0.03 0"/>
<feBlend mode="normal" in2="effect2_dropShadow_739_800" result="effect3_dropShadow_739_800"/>
<feColorMatrix in="SourceAlpha" type="matrix" values="0 0 0 0 0 0 0 0 0 0 0 0 0 0 0 0 0 0 127 0" result="hardAlpha"/>
<feOffset dy="48"/>
<feGaussianBlur stdDeviation="9.5"/>
<feColorMatrix type="matrix" values="0 0 0 0 0.411765 0 0 0 0 0.470588 0 0 0 0 0.764706 0 0 0 0.01 0"/>
<feBlend mode="normal" in2="effect3_dropShadow_739_800" result="effect4_dropShadow_739_800"/>
<feBlend mode="normal" in="SourceGraphic" in2="effect4_dropShadow_739_800" result="shape"/>
</filter>
<filter id="filter4_d_739_800" x="3" y="292" width="219.463" height="100" filterUnits="userSpaceOnUse" color-interpolation-filters="sRGB">
<feFlood flood-opacity="0" result="BackgroundImageFix"/>
<feColorMatrix in="SourceAlpha" type="matrix" values="0 0 0 0 0 0 0 0 0 0 0 0 0 0 0 0 0 0 127 0" result="hardAlpha"/>
<feOffset dy="4"/>
<feGaussianBlur stdDeviation="8"/>
<feComposite in2="hardAlpha" operator="out"/>
<feColorMatrix type="matrix" values="0 0 0 0 0.029184 0 0 0 0 0.0549385 0 0 0 0 0.170833 0 0 0 0.5 0"/>
<feBlend mode="normal" in2="BackgroundImageFix" result="effect1_dropShadow_739_800"/>
<feBlend mode="normal" in="SourceGraphic" in2="effect1_dropShadow_739_800" result="shape"/>
</filter>
<filter id="filter5_dddd_739_800" x="0" y="300" width="225.463" height="139" filterUnits="userSpaceOnUse" color-interpolation-filters="sRGB">
<feFlood flood-opacity="0" result="BackgroundImageFix"/>
<feColorMatrix in="SourceAlpha" type="matrix" values="0 0 0 0 0 0 0 0 0 0 0 0 0 0 0 0 0 0 127 0" result="hardAlpha"/>
<feOffset dy="3"/>
<feGaussianBlur stdDeviation="3.5"/>
<feColorMatrix type="matrix" values="0 0 0 0 0.411765 0 0 0 0 0.470588 0 0 0 0 0.764706 0 0 0 0.05 0"/>
<feBlend mode="normal" in2="BackgroundImageFix" result="effect1_dropShadow_739_800"/>
<feColorMatrix in="SourceAlpha" type="matrix" values="0 0 0 0 0 0 0 0 0 0 0 0 0 0 0 0 0 0 127 0" result="hardAlpha"/>
<feOffset dy="12"/>
<feGaussianBlur stdDeviation="6"/>
<feColorMatrix type="matrix" values="0 0 0 0 0.411765 0 0 0 0 0.470588 0 0 0 0 0.764706 0 0 0 0.04 0"/>
<feBlend mode="normal" in2="effect1_dropShadow_739_800" result="effect2_dropShadow_739_800"/>
<feColorMatrix in="SourceAlpha" type="matrix" values="0 0 0 0 0 0 0 0 0 0 0 0 0 0 0 0 0 0 127 0" result="hardAlpha"/>
<feOffset dy="27"/>
<feGaussianBlur stdDeviation="8"/>
<feColorMatrix type="matrix" values="0 0 0 0 0.411765 0 0 0 0 0.470588 0 0 0 0 0.764706 0 0 0 0.03 0"/>
<feBlend mode="normal" in2="effect2_dropShadow_739_800" result="effect3_dropShadow_739_800"/>
<feColorMatrix in="SourceAlpha" type="matrix" values="0 0 0 0 0 0 0 0 0 0 0 0 0 0 0 0 0 0 127 0" result="hardAlpha"/>
<feOffset dy="48"/>
<feGaussianBlur stdDeviation="9.5"/>
<feColorMatrix type="matrix" values="0 0 0 0 0.411765 0 0 0 0 0.470588 0 0 0 0 0.764706 0 0 0 0.01 0"/>
<feBlend mode="normal" in2="effect3_dropShadow_739_800" result="effect4_dropShadow_739_800"/>
<feBlend mode="normal" in="SourceGraphic" in2="effect4_dropShadow_739_800" result="shape"/>
</filter>
<linearGradient id="paint0_linear_739_800" x1="526.732" y1="12.3025" x2="526.732" y2="375.302" gradientUnits="userSpaceOnUse">
<stop stop-color="#4962D8"/>
<stop offset="1" stop-color="#4962D8" stop-opacity="0"/>
</linearGradient>
<linearGradient id="paint1_linear_739_800" x1="390" y1="132" x2="275" y2="311" gradientUnits="userSpaceOnUse">
<stop stop-color="#141E4B"/>
<stop offset="1" stop-color="#141E4B" stop-opacity="0"/>
</linearGradient>
<linearGradient id="paint2_linear_739_800" x1="183" y1="317" x2="174.649" y2="373.723" gradientUnits="userSpaceOnUse">
<stop stop-color="#141E4B"/>
<stop offset="1" stop-color="#141E4B" stop-opacity="0"/>
</linearGradient>
</defs>
</svg>
