<svg width="1724" height="676" viewBox="0 0 1724 676" fill="none" xmlns="http://www.w3.org/2000/svg"><path d="M1088.29 577.922c149.44-12.76 152.78-79.006 132.11-115.957-15.11-10.659-47.4-8.858-61.33.935-13.93 9.794-91.91 61.541-103.02 86.707-28.87.075-69.966-7.792-3.4-39.859 22-25.061-97.289-8.423-137.169-9.797-39.88-1.375-25.069-27.494-127.009-40.537-101.941-13.044-183.904 8.294-236.849 20.224-52.945 11.929-66.289 71.86 60.947 81.787 127.236 9.928-5.847-56.957 34.613-60.312 40.459-3.356 302.431 19.041 228.947 39.894-73.485 20.853 62.719 49.676 212.16 36.915Z" fill="#FAE6D6"/><path d="M923.882 123.696c-23.817 14.275-67.854 24.799-111.891-14.157-17.785 9.881-56.22 25.097-67.681 6.917-9.311-14.77 28.351-25.54 59.585-31.092 12.276-2.182 24.076 3.755 33.568 11.84 13.386 11.401 29.386 15.711 34.798-14.836 7.509-42.386-50.555-31.823-80.525-21.243-20.09 5.434-63.828 25.788-78.056 63.729-14.227 37.941 35.241 40.51 61.753 37.051 35.075 4.611 92.678 18.576 42.486 37.546-50.193 18.97-24.866 33.923-5.928 39.028 24.536 26.512 95.345 55.824 182.293-39.028 80.866-88.213 7.906-94.387-48.009-85.282-8.081 1.316-15.37 5.317-22.393 9.527Z" fill="#FAD2D1"/><path d="M66.589 430.632c59.067-19.447 176.331-49.116 172.847-12.216-3.484 36.9-48.522 32.388-70.605 25.52 26.465 23.091 67.808 69.445 21.459 70.135-57.937.862-57.822 48.746-127.819-19.996C6.474 439.081-2.044 406.296.697 396.778c19.611-46.884 65.005-130.495 89.696-89.867 11.261 18.529 13.333 29.506 11.342 36.685 21.882-17.229 53.166-27.955 65.767-12.114 12.48 15.69-4.37 39.676-21.274 56.542-8.565 8.545-21.178 10.815-33.1 8.758-21.148-3.648-48.05-5.534-59.24 3.143-15.006 11.636 2.215 25.32 12.7 30.707Z" fill="#E9E7B6"/><path d="M1515.89 479.534c48.1-64.63 113.15-81.846 139.66-82.375 39.81 11.499-33.75 10.265-50.02 34.579-33.48 33.906-81.41 90.934-5.31 47.796 76.11-43.138 106.98-70.613 87.42-105.328-3.2-17.636-18.71-44.156-55.05-9.146-36.34 35.009-77.12 22.051-92.96 11.195 43.15-26.159 113.52-77.113 49.73-71.661-63.8 5.451-139.15 116.228-168.85 170.935 11.02 16.192 22.85 47.407-17.95 42.734-27.89-3.195-24.57 14.969-13.89 33.521 8.93 15.52 28.33 20.267 43.32 10.48 21.86-14.266 52.28-40.239 83.9-82.73Z" fill="#FAEBC8"/></svg>