<svg width="264" height="241" viewBox="0 0 264 241" fill="none" xmlns="http://www.w3.org/2000/svg">
<path d="M1.61652 201.093C3.09217 202.737 5.62115 202.874 7.26516 201.398C8.90916 199.922 9.04565 197.393 7.57 195.749C6.09435 194.105 3.56537 193.969 1.92137 195.444C0.277359 196.92 0.140875 199.449 1.61652 201.093ZM239.722 22.6206C241.198 24.2646 243.727 24.4011 245.371 22.9254C247.015 21.4498 247.151 18.9208 245.676 17.2768C244.2 15.6328 241.671 15.4963 240.027 16.972C238.383 18.4476 238.247 20.9766 239.722 22.6206ZM164.326 131.739L164.818 132.306L164.326 131.739ZM4.59326 198.421C4.67591 199.167 4.67594 199.167 4.67598 199.167C4.676 199.167 4.67605 199.167 4.67609 199.167C4.67617 199.167 4.67628 199.167 4.67642 199.167C4.67669 199.167 4.67707 199.167 4.67755 199.166C4.67851 199.166 4.67988 199.166 4.68166 199.166C4.68522 199.166 4.69043 199.165 4.69727 199.164C4.71096 199.163 4.73119 199.16 4.75789 199.157C4.8113 199.151 4.89059 199.142 4.99518 199.129C5.20436 199.104 5.51475 199.066 5.92169 199.014C6.73556 198.909 7.93566 198.747 9.48466 198.517L9.26426 197.033C7.72523 197.262 6.53472 197.422 5.73001 197.526C5.32765 197.578 5.02175 197.616 4.81696 197.64C4.71457 197.652 4.63745 197.661 4.5862 197.667C4.56057 197.67 4.54141 197.672 4.52879 197.674C4.52248 197.674 4.5178 197.675 4.51477 197.675C4.51325 197.675 4.51215 197.676 4.51145 197.676C4.51111 197.676 4.51086 197.676 4.51072 197.676C4.51065 197.676 4.51061 197.676 4.51059 197.676C4.51058 197.676 4.51058 197.676 4.51058 197.676C4.51059 197.676 4.51061 197.676 4.59326 198.421ZM19.1153 196.909C21.9732 196.386 25.1979 195.756 28.7366 195.005L28.4254 193.538C24.9009 194.285 21.6898 194.912 18.8448 195.434L19.1153 196.909ZM38.2588 192.856C41.2628 192.137 44.417 191.345 47.6994 190.472L47.314 189.022C44.0442 189.892 40.9022 190.681 37.9098 191.397L38.2588 192.856ZM57.0932 187.847C60.1355 186.955 63.2593 185.999 66.4505 184.974L65.9916 183.545C62.8132 184.567 59.7017 185.52 56.6713 186.408L57.0932 187.847ZM75.6826 181.872C78.7013 180.813 81.7648 179.694 84.8622 178.511L84.3268 177.109C81.2429 178.288 78.1923 179.402 75.1861 180.457L75.6826 181.872ZM93.9274 174.898C96.8959 173.665 99.885 172.373 102.886 171.019L102.269 169.652C99.2824 171 96.3071 172.286 93.3521 173.513L93.9274 174.898ZM111.731 166.859C114.63 165.439 117.531 163.958 120.426 162.416L119.721 161.093C116.841 162.626 113.955 164.099 111.071 165.512L111.731 166.859ZM128.963 157.675C131.766 156.051 134.556 154.367 137.325 152.62L136.525 151.351C133.772 153.088 130.998 154.763 128.211 156.377L128.963 157.675ZM145.488 147.239C148.16 145.399 150.805 143.495 153.416 141.527L152.513 140.329C149.92 142.284 147.292 144.175 144.637 146.004L145.488 147.239ZM161.086 135.47C162.34 134.432 163.585 133.377 164.818 132.306L163.834 131.173C162.61 132.237 161.375 133.284 160.129 134.315L161.086 135.47ZM164.818 132.306C166.081 131.209 167.324 130.112 168.549 129.016L167.548 127.898C166.33 128.989 165.092 130.081 163.834 131.173L164.818 132.306ZM175.809 122.315C178.248 119.995 180.603 117.68 182.877 115.376L181.809 114.323C179.546 116.616 177.202 118.919 174.775 121.229L175.809 122.315ZM189.72 108.217C192.007 105.746 194.201 103.291 196.307 100.859L195.173 99.877C193.078 102.297 190.894 104.739 188.619 107.198L189.72 108.217ZM202.672 93.2491C204.8 90.614 206.824 88.0122 208.748 85.4507L207.549 84.5499C205.635 87.0975 203.622 89.6853 201.505 92.3067L202.672 93.2491ZM214.55 77.4278C216.506 74.6155 218.339 71.8648 220.055 69.1858L218.792 68.3766C217.086 71.0399 215.263 73.7748 213.318 76.5713L214.55 77.4278ZM225.232 60.7428C226.992 57.7385 228.597 54.8522 230.056 52.1014L228.731 51.3984C227.281 54.131 225.687 56.9987 223.938 59.9845L225.232 60.7428ZM234.502 43.2437C236.078 39.9139 237.404 36.8775 238.512 34.1794L237.125 33.6096C236.026 36.2844 234.71 39.2968 233.147 42.6023L234.502 43.2437ZM241.992 24.8747C242.5 23.3489 242.858 22.1668 243.089 21.364C243.205 20.9626 243.289 20.656 243.344 20.4486C243.372 20.3449 243.392 20.266 243.406 20.2124C243.413 20.1857 243.418 20.1653 243.421 20.1512C243.423 20.1442 243.425 20.1388 243.426 20.135C243.426 20.1331 243.426 20.1316 243.427 20.1306C243.427 20.13 243.427 20.1296 243.427 20.1292C243.427 20.129 243.427 20.1289 243.427 20.1288C243.427 20.1287 243.427 20.1287 243.427 20.1286C243.427 20.1286 243.427 20.1285 242.699 19.9487C241.971 19.7689 241.971 19.7689 241.971 19.7689C241.971 19.7688 241.971 19.7688 241.971 19.7688C241.971 19.7688 241.971 19.7688 241.971 19.7688C241.971 19.7689 241.971 19.769 241.971 19.7693C241.971 19.7698 241.97 19.7708 241.97 19.7721C241.969 19.7748 241.968 19.779 241.967 19.7849C241.964 19.7966 241.959 19.8148 241.953 19.8393C241.94 19.8882 241.921 19.9625 241.895 20.0616C241.842 20.2597 241.76 20.5569 241.648 20.9488C241.422 21.7326 241.07 22.8951 240.569 24.4008L241.992 24.8747Z" fill="#202020"/>
<g clip-path="url(#clip0_216_164)">
<rect width="50" height="76.25" transform="translate(123.628 100.845) rotate(-14.6617)" fill="white"/>
<path d="M150.161 166.392C150.23 166.654 150.27 167.344 150.738 168.062C151.144 169.076 152.239 170.05 153.328 170.465C153.824 170.756 154.252 170.784 154.679 170.812C154.976 170.875 155.272 170.937 155.272 170.937C155.272 170.937 155.438 171.034 155.996 171.028C156.258 170.959 156.555 171.022 156.948 170.919C157.079 170.885 157.21 170.85 157.21 170.85C157.9 170.81 158.687 170.604 159.342 170.433C160.784 170.055 162.026 169.45 163.434 168.942C164.807 168.302 166.181 167.663 167.52 166.892C167.879 166.658 168.141 166.59 168.5 166.356C168.859 166.122 169.121 166.053 169.48 165.819C169.873 165.716 170.101 165.517 170.495 165.414C170.888 165.311 171.247 165.077 171.509 165.008C174.455 163.957 177.733 163.1 180.873 161.718C182.508 161.01 184.11 160.171 185.574 158.807C185.933 158.573 186.257 158.208 186.582 157.843C186.907 157.478 187.197 156.982 187.522 156.617C187.971 155.659 188.256 154.604 188.278 153.618C188.453 151.611 187.939 149.645 187.458 147.81C186.847 146.009 186.236 144.208 185.328 142.344C184.586 140.578 183.712 138.845 182.97 137.079C182.228 135.312 181.451 133.414 180.709 131.648C177.671 124.319 174.399 116.631 171.258 108.909C170.481 107.011 169.671 104.982 168.894 103.085C168.117 101.187 167.306 99.1582 166.233 97.1979C165.697 96.2178 165.16 95.2377 164.361 94.3262C163.563 93.4146 162.536 92.7028 161.316 92.3217C158.875 91.5596 156.453 92.4734 154.521 93.119C150.429 94.6097 146.503 96.1973 142.508 97.5227C140.444 98.2025 138.512 98.8481 136.546 99.3625C134.449 99.9113 132.42 100.722 130.494 101.926C129.548 102.594 128.768 103.358 128.022 104.254C127.275 105.15 126.729 106.273 126.479 107.459C126.195 108.514 126.241 109.762 126.384 110.845C126.391 111.404 126.528 111.928 126.665 112.452L127.076 114.025C128.271 118.055 129.955 121.816 131.605 125.446C133.255 129.076 135.036 132.672 136.521 136.205C138.006 139.739 139.49 143.272 140.941 146.674C143.271 152.367 145.532 157.799 147.69 162.836C148.364 164.341 148.804 165.486 148.804 165.486L148.969 165.583C150.093 166.13 150.446 165.337 150.605 164.875L150.571 164.744C150.571 164.744 150.131 163.598 149.457 162.094C147.498 157.284 145.306 152.115 143.044 146.684C141.594 143.282 140.144 139.88 138.659 136.346C137.174 132.813 135.427 129.348 133.777 125.718C132.127 122.088 130.477 118.458 129.22 114.725C128.849 113.842 128.575 112.793 128.335 111.875C128.095 110.958 127.986 110.006 128.042 109.151C128.036 108.592 128.195 108.13 128.223 107.703C128.383 107.241 128.411 106.813 128.736 106.448C129.089 105.656 129.738 104.925 130.422 104.326C131.789 103.128 133.652 102.221 135.584 101.575C136.468 101.204 137.516 100.929 138.565 100.655C139.614 100.381 140.628 99.9753 141.546 99.7352C145.541 98.4098 149.468 96.8222 153.428 95.3658C154.443 94.9603 155.36 94.7202 156.375 94.3148C156.899 94.1776 157.292 94.0747 157.817 93.9375C158.079 93.8689 158.21 93.8346 158.472 93.766L158.866 93.6631L159.162 93.7256C160.114 93.6166 160.872 93.8384 161.699 94.3224C162.492 94.6752 163.125 95.49 163.593 96.2079C164.694 97.7406 165.471 99.6383 166.282 101.667C167.059 103.565 167.835 105.463 168.612 107.36C171.718 114.951 174.956 122.508 177.96 129.706C178.702 131.472 179.479 133.37 180.221 135.137C180.592 136.02 180.963 136.903 181.335 137.787C181.706 138.67 182.077 139.553 182.579 140.402C184.161 143.77 185.611 147.173 186.206 150.518C186.487 152.126 186.539 153.933 185.896 155.222C185.702 155.552 185.509 155.883 185.281 156.083C185.053 156.282 184.728 156.648 184.535 156.978C183.982 157.543 183.264 158.011 182.677 158.445C179.903 160.151 176.791 161.105 173.81 162.025C172.271 162.568 170.829 162.945 169.456 163.585C168.704 163.922 168.082 164.224 167.33 164.561C166.709 164.864 166.088 165.166 165.37 165.634C162.92 166.975 160.401 168.055 158.041 168.672C157.779 168.741 157.517 168.809 157.124 168.912L156.73 169.015C156.599 169.049 156.599 169.049 156.468 169.084L156.337 169.118C156.206 169.152 156.206 169.152 156.206 169.152C156.075 169.186 155.944 169.221 155.813 169.255C155.385 169.227 155.123 169.295 155.123 169.295L154.992 169.33C154.861 169.364 154.695 169.267 154.433 169.336C154.006 169.308 153.413 169.183 152.951 169.023C152.489 168.864 151.958 168.443 151.759 168.215C151.394 167.89 151.359 167.759 151.359 167.759C150.76 167.075 150.292 166.357 150.093 166.13C150.155 165.833 150.19 165.964 150.161 166.392Z" fill="#202020"/>
<path d="M180.065 147.923L180.555 147.655L181.273 147.187L181.632 146.953L181.894 146.884L182.025 146.85C182.025 146.85 182.025 146.85 181.991 146.719L181.62 145.836C181.517 145.442 181.283 145.084 181.18 144.69C180.706 143.414 180.232 142.137 179.723 140.729C177.662 135.526 175.366 129.964 173.036 124.271C171.854 121.359 170.444 118.646 169.131 115.768C168.492 114.395 167.818 112.89 167.144 111.386C166.47 109.882 165.831 108.508 165.288 106.969C164.746 105.431 164.203 103.892 163.529 102.387C163.192 101.635 162.855 100.883 162.519 100.131C162.285 99.7717 162.182 99.3784 161.948 99.0195L161.645 98.3983L161.074 97.2871L161.04 97.156C161.006 97.0249 161.006 97.0249 160.909 97.1903L160.647 97.2589L159.991 97.4304L159.205 97.6362L158.059 98.0759L155.734 98.8244C154.195 99.367 152.656 99.9097 151.118 100.452C144.569 102.726 138.449 105.028 132.465 107.854L131.582 108.225L131.092 108.493L130.829 108.562C130.698 108.596 130.829 108.562 130.864 108.693L130.898 108.824L131.675 110.722C131.88 111.508 132.217 112.26 132.554 113.013C133.097 114.551 133.736 115.925 134.279 117.463C135.461 120.376 136.512 123.322 137.563 126.269C139.762 131.996 141.83 137.758 144.022 142.927C145.136 145.577 146.346 148.061 147.556 150.546C148.161 151.788 148.732 152.899 149.337 154.142C149.571 154.501 149.674 154.894 149.908 155.253C150.713 156.723 151.381 157.669 151.415 157.8L151.58 157.897C152.801 158.278 153.022 157.52 153.016 156.961C152.982 156.83 152.982 156.83 152.982 156.83C152.982 156.83 152.446 155.85 151.641 154.38C151.572 154.117 151.372 153.889 151.304 153.627C150.733 152.516 150.162 151.405 149.557 150.163C148.25 147.843 147.171 145.324 146.091 142.806C143.899 137.637 141.769 132.171 139.701 126.41C138.684 123.594 137.502 120.682 136.451 117.736C135.908 116.197 135.269 114.823 134.726 113.285C134.389 112.532 134.052 111.78 133.716 111.028L133.31 110.014L133.242 109.751L133.207 109.62L134.45 109.015L136.575 108.039C138.08 107.365 139.487 106.857 140.992 106.183C144.035 104.967 146.981 103.916 150.025 102.699C153.102 101.614 156.18 100.529 159.161 99.6086L159.816 99.4371L159.85 99.5682C160.187 100.32 160.621 100.907 160.958 101.66C161.597 103.033 162.14 104.572 162.814 106.076C163.356 107.615 163.865 109.023 164.538 110.527C165.212 112.032 165.852 113.405 166.491 114.778C167.804 117.656 169.214 120.369 170.362 123.15C171.641 125.897 172.658 128.712 173.771 131.362C174.885 134.012 175.998 136.662 176.946 139.215C177.42 140.492 177.894 141.768 178.499 143.01C178.802 143.632 178.973 144.287 179.276 144.908C179.345 145.17 179.448 145.564 179.647 145.792C179.682 145.923 179.682 145.923 179.682 145.923L179.419 145.991C179.191 146.191 178.798 146.294 178.57 146.493C177.949 146.796 177.459 147.064 176.969 147.333C175.858 147.903 174.712 148.343 173.567 148.783C171.276 149.663 169.082 150.377 167.053 151.188C165.024 151.999 163.029 152.941 161.263 153.683C160.511 154.02 159.889 154.322 159.399 154.591C159.171 154.79 158.909 154.859 158.909 154.859C158.909 154.859 157.832 155.561 156.59 156.166C155.479 156.737 154.402 157.439 154.533 157.404C152.704 158.443 151.564 159.442 154.938 158.419C156.905 157.904 159.555 156.791 159.555 156.791C159.555 156.791 159.817 156.722 160.176 156.488C160.438 156.42 160.666 156.22 160.928 156.151C161.418 155.883 162.039 155.581 162.529 155.312C163.544 154.907 164.393 154.405 165.407 153.999C167.402 153.057 169.596 152.343 171.887 151.463C174.178 150.584 176.6 149.67 179.085 148.46C179.444 148.226 179.803 147.992 180.065 147.923Z" fill="#202020"/>
<path d="M172.257 158.23C172.16 158.395 172.126 158.264 172.257 158.23C171.898 158.464 171.767 158.498 171.767 158.498C169.937 159.537 168.764 160.404 172.172 159.512L172.565 159.41L172.696 159.375L172.959 159.307C173.352 159.204 173.745 159.101 174.104 158.867C174.001 158.474 173.933 158.211 173.83 157.818C173.795 157.687 173.727 157.425 173.693 157.294C173.658 157.163 173.624 157.032 173.624 157.032C173.521 156.638 173.418 156.245 173.184 155.886C172.882 155.265 172.613 154.775 172.613 154.775C172.414 154.547 172.18 154.188 171.849 153.995C171.684 153.898 171.518 153.801 171.353 153.704C171.187 153.607 171.022 153.511 170.594 153.482C170.036 153.488 169.905 153.523 169.643 153.591C169.38 153.66 169.118 153.729 168.987 153.763C168.594 153.866 168.069 154.003 167.71 154.237C167.317 154.34 166.827 154.608 166.434 154.711C166.172 154.78 166.075 154.945 165.813 155.014C165.682 155.048 165.585 155.213 165.454 155.248C165.323 155.282 165.226 155.447 164.998 155.647C164.445 156.212 164.32 156.805 164.161 157.266C164.036 157.859 164.008 158.287 164.014 158.846C164.02 159.404 164.157 159.929 164.426 160.419C164.694 160.909 165.128 161.496 165.624 161.786L165.92 161.848C166.051 161.814 166.086 161.945 166.217 161.911C166.513 161.973 166.644 161.939 166.941 162.002C167.368 162.03 167.727 161.796 167.989 161.727C168.611 161.425 168.97 161.191 169.363 161.088L169.46 160.922C169.75 160.426 169.778 159.999 169.71 159.737C169.641 159.474 169.179 159.315 168.883 159.253C168.752 159.287 168.752 159.287 168.752 159.287C168.096 159.458 167.64 159.858 167.247 159.961C166.985 160.029 166.854 160.064 166.854 160.064L166.723 160.098L166.688 159.967C166.358 159.773 165.924 159.186 165.884 158.497C165.781 158.103 165.843 157.807 165.906 157.51C165.968 157.214 166.162 156.883 166.259 156.718C167.073 156.084 169.495 155.171 170.447 155.062C170.447 155.062 170.447 155.062 170.578 155.027L170.744 155.124C170.909 155.221 170.944 155.352 171.109 155.449C171.109 155.449 171.44 155.642 171.742 156.263C171.942 156.491 172.045 156.885 172.279 157.244C172.313 157.375 172.347 157.506 172.347 157.506L172.382 157.637L172.416 157.768C172.388 158.195 172.257 158.23 172.257 158.23Z" fill="#202020"/>
</g>
<g clip-path="url(#clip1_216_164)">
<rect width="30" height="20.4294" transform="translate(60.9712 21.6078) rotate(9.78258)" fill="white"/>
<mask id="path-5-outside-1_216_164" maskUnits="userSpaceOnUse" x="56.4223" y="20.4255" width="35.2727" height="27.1172" fill="black">
<rect fill="white" x="56.4223" y="20.4255" width="35.2727" height="27.1172"/>
<path d="M61.065 40.923C61.6424 40.4622 62.1594 39.9911 62.666 39.5804C63.1726 39.1697 63.7501 38.709 64.2671 38.2378L67.4797 35.4922L67.9968 35.0211C67.9968 35.0211 69.7917 33.2761 69.7208 33.3262C69.873 33.1657 70.0356 32.9447 70.1774 32.8446L70.3984 33.0072L71.1614 33.6368C71.1614 33.6368 71.6638 33.9725 72.1558 34.3686C72.6583 34.7042 73.1607 35.0399 73.1607 35.0399C73.4421 35.2129 73.6735 35.315 73.8445 35.4068C73.8841 35.5381 73.9341 35.609 73.9841 35.6799C74.0946 35.7612 74.276 35.7924 74.3365 35.8029C74.3969 35.8133 74.3969 35.8133 74.3969 35.8133C74.7513 35.5631 75.1662 35.3234 75.6415 35.0941L77.0675 34.4061C77.3406 34.2664 77.5532 34.1163 77.8159 34.0371L78.0181 33.9475C78.3392 34.2518 78.5998 34.5458 78.9208 34.8502L84.5642 41.1148L85.0354 41.6319C85.0354 41.6319 86.8512 43.3768 86.7407 43.2955C87.4433 43.9147 87.9457 44.2503 87.3661 43.2788C87.4474 43.1683 87.4995 42.866 87.6434 42.3928C87.8706 41.4359 88.0395 40.0954 88.0395 40.0954L88.8609 28.4709L88.9693 27.1199C89.0611 26.949 89.132 26.899 88.9402 26.9281C88.9005 26.7968 88.7796 26.776 88.7296 26.7051C89.1132 26.6467 89.0131 26.5049 87.9958 26.2673C87.0389 26.04 85.6984 25.8712 85.6984 25.8712L62.8537 24.049L61.3819 23.9198L61.311 23.9698C61.0984 24.1199 61.0171 24.2304 60.9962 24.3513C60.7648 24.2492 60.5522 24.3993 60.4604 24.5702L60.45 24.6307L60.3207 26.1025L59.4159 38.2107C59.4159 38.2107 59.3617 40.6916 59.3721 40.6311C59.3513 40.752 59.3909 40.8834 59.3701 41.0043L59.2992 41.0543L59.2887 41.1148C59.1762 41.4066 59.2054 41.5984 59.3158 41.6797C59.2846 41.8611 59.4451 42.0133 59.5556 42.0946L59.6161 42.105L61.0879 42.2343L83.993 44.0668C83.993 44.0668 86.4738 44.1211 86.4134 44.1106C87.412 44.096 88.0583 43.9584 86.4968 43.627C85.5399 43.3997 84.1994 43.2309 84.1994 43.2309L61.1734 41.3774L60.5584 41.3337C60.7105 41.1731 60.9128 41.0835 61.065 40.923ZM87.093 39.8077C87.093 39.8077 87.0388 42.2886 87.0492 42.2281C87.068 42.4804 87.0868 42.7326 87.116 42.9244C87.116 42.9244 87.116 42.9244 87.0659 42.8535C86.5155 42.0738 85.7046 41.0002 85.7046 41.0002L85.1229 40.4019L79.4795 34.1372C79.269 33.9141 78.998 33.6806 78.7978 33.3971L81.2766 32.0191L84.0994 30.4514L85.4857 29.6321L86.3154 29.1526C86.3154 29.1526 86.8116 28.8023 87.3682 28.4625C87.6518 28.2624 87.8644 28.1123 88.0166 27.9518L88.0041 28.3854L87.093 39.8077ZM62.7682 24.9059L85.492 26.7072C85.492 26.7072 87.9728 26.7614 87.9124 26.7509C88.0333 26.7718 88.1646 26.7322 88.2251 26.7426C88.1542 26.7926 88.1542 26.7926 88.1438 26.8531L88.1334 26.9135L88.1313 27.2867C87.2515 27.6953 86.0882 28.3041 86.0882 28.3041L85.3189 28.794L83.9326 29.6133L81.0994 31.2415L78.2767 32.8092C77.7909 33.099 77.3156 33.3283 76.8403 33.5576C76.3649 33.7869 75.8896 34.0162 75.3434 34.2956C74.8681 34.5249 74.4532 34.7647 73.9675 35.0544L73.957 35.1149C73.857 34.9731 73.686 34.8814 73.5359 34.6688C72.8438 33.9891 71.8806 33.076 71.8806 33.076L71.1677 32.5173L69.8522 31.4812L67.4026 29.4402C65.7765 28.0392 64.14 26.6988 62.443 25.3478C62.2325 25.1248 62.0011 25.0226 61.8405 24.8704L62.7682 24.9059ZM60.2623 38.3566L61.2485 26.1379L61.2922 25.5229C61.5132 25.6856 61.6737 25.8377 61.9052 25.9399C63.5521 27.2199 65.1886 28.5604 66.7543 29.951L69.1434 31.9815L69.9064 32.6111C69.7646 32.7112 69.6229 32.8112 69.4206 32.9009C68.6305 33.5117 67.4964 34.3123 67.4964 34.3123L66.8481 34.823L63.6459 37.5082C63.1289 37.9793 62.6118 38.4505 62.0448 38.8507C61.4673 39.3115 60.9503 39.7826 60.4437 40.1933C60.2311 40.3434 60.0184 40.4935 59.8058 40.6436C60.0935 39.6971 60.2623 38.3566 60.2623 38.3566Z"/>
</mask>
<path d="M61.065 40.923C61.6424 40.4622 62.1594 39.9911 62.666 39.5804C63.1726 39.1697 63.7501 38.709 64.2671 38.2378L67.4797 35.4922L67.9968 35.0211C67.9968 35.0211 69.7917 33.2761 69.7208 33.3262C69.873 33.1657 70.0356 32.9447 70.1774 32.8446L70.3984 33.0072L71.1614 33.6368C71.1614 33.6368 71.6638 33.9725 72.1558 34.3686C72.6583 34.7042 73.1607 35.0399 73.1607 35.0399C73.4421 35.2129 73.6735 35.315 73.8445 35.4068C73.8841 35.5381 73.9341 35.609 73.9841 35.6799C74.0946 35.7612 74.276 35.7924 74.3365 35.8029C74.3969 35.8133 74.3969 35.8133 74.3969 35.8133C74.7513 35.5631 75.1662 35.3234 75.6415 35.0941L77.0675 34.4061C77.3406 34.2664 77.5532 34.1163 77.8159 34.0371L78.0181 33.9475C78.3392 34.2518 78.5998 34.5458 78.9208 34.8502L84.5642 41.1148L85.0354 41.6319C85.0354 41.6319 86.8512 43.3768 86.7407 43.2955C87.4433 43.9147 87.9457 44.2503 87.3661 43.2788C87.4474 43.1683 87.4995 42.866 87.6434 42.3928C87.8706 41.4359 88.0395 40.0954 88.0395 40.0954L88.8609 28.4709L88.9693 27.1199C89.0611 26.949 89.132 26.899 88.9402 26.9281C88.9005 26.7968 88.7796 26.776 88.7296 26.7051C89.1132 26.6467 89.0131 26.5049 87.9958 26.2673C87.0389 26.04 85.6984 25.8712 85.6984 25.8712L62.8537 24.049L61.3819 23.9198L61.311 23.9698C61.0984 24.1199 61.0171 24.2304 60.9962 24.3513C60.7648 24.2492 60.5522 24.3993 60.4604 24.5702L60.45 24.6307L60.3207 26.1025L59.4159 38.2107C59.4159 38.2107 59.3617 40.6916 59.3721 40.6311C59.3513 40.752 59.3909 40.8834 59.3701 41.0043L59.2992 41.0543L59.2887 41.1148C59.1762 41.4066 59.2054 41.5984 59.3158 41.6797C59.2846 41.8611 59.4451 42.0133 59.5556 42.0946L59.6161 42.105L61.0879 42.2343L83.993 44.0668C83.993 44.0668 86.4738 44.1211 86.4134 44.1106C87.412 44.096 88.0583 43.9584 86.4968 43.627C85.5399 43.3997 84.1994 43.2309 84.1994 43.2309L61.1734 41.3774L60.5584 41.3337C60.7105 41.1731 60.9128 41.0835 61.065 40.923ZM87.093 39.8077C87.093 39.8077 87.0388 42.2886 87.0492 42.2281C87.068 42.4804 87.0868 42.7326 87.116 42.9244C87.116 42.9244 87.116 42.9244 87.0659 42.8535C86.5155 42.0738 85.7046 41.0002 85.7046 41.0002L85.1229 40.4019L79.4795 34.1372C79.269 33.9141 78.998 33.6806 78.7978 33.3971L81.2766 32.0191L84.0994 30.4514L85.4857 29.6321L86.3154 29.1526C86.3154 29.1526 86.8116 28.8023 87.3682 28.4625C87.6518 28.2624 87.8644 28.1123 88.0166 27.9518L88.0041 28.3854L87.093 39.8077ZM62.7682 24.9059L85.492 26.7072C85.492 26.7072 87.9728 26.7614 87.9124 26.7509C88.0333 26.7718 88.1646 26.7322 88.2251 26.7426C88.1542 26.7926 88.1542 26.7926 88.1438 26.8531L88.1334 26.9135L88.1313 27.2867C87.2515 27.6953 86.0882 28.3041 86.0882 28.3041L85.3189 28.794L83.9326 29.6133L81.0994 31.2415L78.2767 32.8092C77.7909 33.099 77.3156 33.3283 76.8403 33.5576C76.3649 33.7869 75.8896 34.0162 75.3434 34.2956C74.8681 34.5249 74.4532 34.7647 73.9675 35.0544L73.957 35.1149C73.857 34.9731 73.686 34.8814 73.5359 34.6688C72.8438 33.9891 71.8806 33.076 71.8806 33.076L71.1677 32.5173L69.8522 31.4812L67.4026 29.4402C65.7765 28.0392 64.14 26.6988 62.443 25.3478C62.2325 25.1248 62.0011 25.0226 61.8405 24.8704L62.7682 24.9059ZM60.2623 38.3566L61.2485 26.1379L61.2922 25.5229C61.5132 25.6856 61.6737 25.8377 61.9052 25.9399C63.5521 27.2199 65.1886 28.5604 66.7543 29.951L69.1434 31.9815L69.9064 32.6111C69.7646 32.7112 69.6229 32.8112 69.4206 32.9009C68.6305 33.5117 67.4964 34.3123 67.4964 34.3123L66.8481 34.823L63.6459 37.5082C63.1289 37.9793 62.6118 38.4505 62.0448 38.8507C61.4673 39.3115 60.9503 39.7826 60.4437 40.1933C60.2311 40.3434 60.0184 40.4935 59.8058 40.6436C60.0935 39.6971 60.2623 38.3566 60.2623 38.3566Z" fill="#202020"/>
<path d="M61.065 40.923C61.6424 40.4622 62.1594 39.9911 62.666 39.5804C63.1726 39.1697 63.7501 38.709 64.2671 38.2378L67.4797 35.4922L67.9968 35.0211C67.9968 35.0211 69.7917 33.2761 69.7208 33.3262C69.873 33.1657 70.0356 32.9447 70.1774 32.8446L70.3984 33.0072L71.1614 33.6368C71.1614 33.6368 71.6638 33.9725 72.1558 34.3686C72.6583 34.7042 73.1607 35.0399 73.1607 35.0399C73.4421 35.2129 73.6735 35.315 73.8445 35.4068C73.8841 35.5381 73.9341 35.609 73.9841 35.6799C74.0946 35.7612 74.276 35.7924 74.3365 35.8029C74.3969 35.8133 74.3969 35.8133 74.3969 35.8133C74.7513 35.5631 75.1662 35.3234 75.6415 35.0941L77.0675 34.4061C77.3406 34.2664 77.5532 34.1163 77.8159 34.0371L78.0181 33.9475C78.3392 34.2518 78.5998 34.5458 78.9208 34.8502L84.5642 41.1148L85.0354 41.6319C85.0354 41.6319 86.8512 43.3768 86.7407 43.2955C87.4433 43.9147 87.9457 44.2503 87.3661 43.2788C87.4474 43.1683 87.4995 42.866 87.6434 42.3928C87.8706 41.4359 88.0395 40.0954 88.0395 40.0954L88.8609 28.4709L88.9693 27.1199C89.0611 26.949 89.132 26.899 88.9402 26.9281C88.9005 26.7968 88.7796 26.776 88.7296 26.7051C89.1132 26.6467 89.0131 26.5049 87.9958 26.2673C87.0389 26.04 85.6984 25.8712 85.6984 25.8712L62.8537 24.049L61.3819 23.9198L61.311 23.9698C61.0984 24.1199 61.0171 24.2304 60.9962 24.3513C60.7648 24.2492 60.5522 24.3993 60.4604 24.5702L60.45 24.6307L60.3207 26.1025L59.4159 38.2107C59.4159 38.2107 59.3617 40.6916 59.3721 40.6311C59.3513 40.752 59.3909 40.8834 59.3701 41.0043L59.2992 41.0543L59.2887 41.1148C59.1762 41.4066 59.2054 41.5984 59.3158 41.6797C59.2846 41.8611 59.4451 42.0133 59.5556 42.0946L59.6161 42.105L61.0879 42.2343L83.993 44.0668C83.993 44.0668 86.4738 44.1211 86.4134 44.1106C87.412 44.096 88.0583 43.9584 86.4968 43.627C85.5399 43.3997 84.1994 43.2309 84.1994 43.2309L61.1734 41.3774L60.5584 41.3337C60.7105 41.1731 60.9128 41.0835 61.065 40.923ZM87.093 39.8077C87.093 39.8077 87.0388 42.2886 87.0492 42.2281C87.068 42.4804 87.0868 42.7326 87.116 42.9244C87.116 42.9244 87.116 42.9244 87.0659 42.8535C86.5155 42.0738 85.7046 41.0002 85.7046 41.0002L85.1229 40.4019L79.4795 34.1372C79.269 33.9141 78.998 33.6806 78.7978 33.3971L81.2766 32.0191L84.0994 30.4514L85.4857 29.6321L86.3154 29.1526C86.3154 29.1526 86.8116 28.8023 87.3682 28.4625C87.6518 28.2624 87.8644 28.1123 88.0166 27.9518L88.0041 28.3854L87.093 39.8077ZM62.7682 24.9059L85.492 26.7072C85.492 26.7072 87.9728 26.7614 87.9124 26.7509C88.0333 26.7718 88.1646 26.7322 88.2251 26.7426C88.1542 26.7926 88.1542 26.7926 88.1438 26.8531L88.1334 26.9135L88.1313 27.2867C87.2515 27.6953 86.0882 28.3041 86.0882 28.3041L85.3189 28.794L83.9326 29.6133L81.0994 31.2415L78.2767 32.8092C77.7909 33.099 77.3156 33.3283 76.8403 33.5576C76.3649 33.7869 75.8896 34.0162 75.3434 34.2956C74.8681 34.5249 74.4532 34.7647 73.9675 35.0544L73.957 35.1149C73.857 34.9731 73.686 34.8814 73.5359 34.6688C72.8438 33.9891 71.8806 33.076 71.8806 33.076L71.1677 32.5173L69.8522 31.4812L67.4026 29.4402C65.7765 28.0392 64.14 26.6988 62.443 25.3478C62.2325 25.1248 62.0011 25.0226 61.8405 24.8704L62.7682 24.9059ZM60.2623 38.3566L61.2485 26.1379L61.2922 25.5229C61.5132 25.6856 61.6737 25.8377 61.9052 25.9399C63.5521 27.2199 65.1886 28.5604 66.7543 29.951L69.1434 31.9815L69.9064 32.6111C69.7646 32.7112 69.6229 32.8112 69.4206 32.9009C68.6305 33.5117 67.4964 34.3123 67.4964 34.3123L66.8481 34.823L63.6459 37.5082C63.1289 37.9793 62.6118 38.4505 62.0448 38.8507C61.4673 39.3115 60.9503 39.7826 60.4437 40.1933C60.2311 40.3434 60.0184 40.4935 59.8058 40.6436C60.0935 39.6971 60.2623 38.3566 60.2623 38.3566Z" stroke="#202020" stroke-width="0.8" mask="url(#path-5-outside-1_216_164)"/>
</g>
<g clip-path="url(#clip2_216_164)">
<rect width="30" height="20.4294" transform="translate(105.358 7.3385) rotate(-13.319)" fill="white"/>
<mask id="path-6-outside-2_216_164" maskUnits="userSpaceOnUse" x="104.148" y="-0.802704" width="36.2075" height="28.7802" fill="black">
<rect fill="white" x="104.148" y="-0.802704" width="36.2075" height="28.7802"/>
<path d="M113.023 25.068C113.373 24.4177 113.664 23.7814 113.969 23.2049C114.274 22.6284 114.624 21.978 114.915 21.3418L116.792 17.5558L117.083 16.9196C117.083 16.9196 118.05 14.6103 118.004 14.6842C118.081 14.4768 118.144 14.2097 118.235 14.0621L118.502 14.1249L119.451 14.4047C119.451 14.4047 120.045 14.5163 120.653 14.6876C121.247 14.7992 121.84 14.9108 121.84 14.9108C122.167 14.9595 122.42 14.9626 122.613 14.9799C122.701 15.0852 122.775 15.1308 122.849 15.1763C122.982 15.2078 123.162 15.1654 123.221 15.1512C123.281 15.1371 123.281 15.1371 123.281 15.1371C123.509 14.7679 123.796 14.3847 124.144 13.9872L125.185 12.7949C125.382 12.5593 125.518 12.3378 125.729 12.1619L125.88 12.0001C126.294 12.1541 126.649 12.3222 127.064 12.4762L134.713 16.0243L135.349 16.315C135.349 16.315 137.704 17.2075 137.571 17.1761C138.46 17.4699 139.054 17.5815 138.139 16.9153C138.171 16.7818 138.1 16.4833 138.047 15.9916C137.88 15.0223 137.51 13.723 137.51 13.723L133.704 2.70832L133.274 1.4232C133.291 1.22997 133.337 1.15613 133.172 1.25823C133.084 1.15297 132.964 1.18124 132.891 1.13567C133.22 0.93147 133.073 0.840337 132.044 1.0209C131.074 1.18734 129.775 1.55797 129.775 1.55797L108.048 8.84535L106.643 9.30395L106.597 9.37778C106.461 9.59928 106.429 9.73281 106.458 9.85221C106.205 9.84905 106.068 10.0705 106.051 10.2638L106.065 10.3235L106.523 11.728L110.442 23.2203C110.442 23.2203 111.365 25.5235 111.351 25.4638C111.38 25.5832 111.468 25.6884 111.496 25.8078L111.45 25.8817L111.464 25.9414C111.475 26.254 111.577 26.4189 111.711 26.4504C111.753 26.6295 111.961 26.7065 112.094 26.7379L112.154 26.7238L113.558 26.2652L135.346 18.9637C135.346 18.9637 137.649 18.0401 137.589 18.0543C138.502 17.649 139.043 17.2689 137.476 17.5767C136.507 17.7431 135.208 18.1137 135.208 18.1137L113.301 25.4435L112.718 25.6446C112.795 25.4372 112.946 25.2754 113.023 25.068ZM136.526 13.8297C136.526 13.8297 137.45 16.1329 137.436 16.0732C137.552 16.2979 137.668 16.5225 137.77 16.6875C137.77 16.6875 137.77 16.6875 137.696 16.6419C136.884 16.1407 135.717 15.4714 135.717 15.4714L134.947 15.1492L127.298 11.6012C127.017 11.4786 126.676 11.3702 126.381 11.1879L128.12 8.94782L130.101 6.39827L131.055 5.10071L131.63 4.33411C131.63 4.33411 131.949 3.81728 132.328 3.28632C132.51 2.99099 132.647 2.76949 132.724 2.56213L132.883 2.96589L136.526 13.8297ZM108.305 9.66701L129.913 2.4079C129.913 2.4079 132.217 1.48437 132.157 1.4985C132.276 1.47023 132.382 1.38227 132.441 1.36813C132.396 1.44197 132.396 1.44197 132.41 1.50167L132.424 1.56137L132.568 1.90543C131.92 2.62646 131.088 3.64282 131.088 3.64282L130.573 4.39528L129.619 5.69284L127.652 8.30209L125.671 10.8516C125.338 11.3088 124.991 11.7062 124.643 12.1036C124.296 12.5011 123.949 12.8985 123.556 13.3698C123.209 13.7672 122.921 14.1505 122.588 14.6076L122.602 14.6673C122.455 14.5762 122.261 14.5589 122.04 14.4222C121.137 14.0686 119.892 13.6066 119.892 13.6066L119.017 13.3725L117.401 12.9356L114.347 12.0194C112.302 11.3688 110.27 10.7779 108.179 10.2011C107.898 10.0786 107.645 10.0754 107.438 9.99841L108.305 9.66701ZM111.278 23.0224L107.391 11.3966L107.19 10.8137C107.457 10.8766 107.664 10.9536 107.917 10.9568C109.934 11.488 111.965 12.0789 113.951 12.7436L116.945 13.6739L117.894 13.9536C117.803 14.1013 117.712 14.249 117.561 14.4108C117.074 15.2826 116.345 16.4639 116.345 16.4639L115.949 17.1881L114.057 20.9144C113.766 21.5506 113.476 22.1868 113.111 22.7775C112.761 23.4279 112.47 24.0641 112.165 24.6406C112.028 24.8621 111.892 25.0836 111.755 25.3051C111.648 24.3217 111.278 23.0224 111.278 23.0224Z"/>
</mask>
<path d="M113.023 25.068C113.373 24.4177 113.664 23.7814 113.969 23.2049C114.274 22.6284 114.624 21.978 114.915 21.3418L116.792 17.5558L117.083 16.9196C117.083 16.9196 118.05 14.6103 118.004 14.6842C118.081 14.4768 118.144 14.2097 118.235 14.0621L118.502 14.1249L119.451 14.4047C119.451 14.4047 120.045 14.5163 120.653 14.6876C121.247 14.7992 121.84 14.9108 121.84 14.9108C122.167 14.9595 122.42 14.9626 122.613 14.9799C122.701 15.0852 122.775 15.1308 122.849 15.1763C122.982 15.2078 123.162 15.1654 123.221 15.1512C123.281 15.1371 123.281 15.1371 123.281 15.1371C123.509 14.7679 123.796 14.3847 124.144 13.9872L125.185 12.7949C125.382 12.5593 125.518 12.3378 125.729 12.1619L125.88 12.0001C126.294 12.1541 126.649 12.3222 127.064 12.4762L134.713 16.0243L135.349 16.315C135.349 16.315 137.704 17.2075 137.571 17.1761C138.46 17.4699 139.054 17.5815 138.139 16.9153C138.171 16.7818 138.1 16.4833 138.047 15.9916C137.88 15.0223 137.51 13.723 137.51 13.723L133.704 2.70832L133.274 1.4232C133.291 1.22997 133.337 1.15613 133.172 1.25823C133.084 1.15297 132.964 1.18124 132.891 1.13567C133.22 0.93147 133.073 0.840337 132.044 1.0209C131.074 1.18734 129.775 1.55797 129.775 1.55797L108.048 8.84535L106.643 9.30395L106.597 9.37778C106.461 9.59928 106.429 9.73281 106.458 9.85221C106.205 9.84905 106.068 10.0705 106.051 10.2638L106.065 10.3235L106.523 11.728L110.442 23.2203C110.442 23.2203 111.365 25.5235 111.351 25.4638C111.38 25.5832 111.468 25.6884 111.496 25.8078L111.45 25.8817L111.464 25.9414C111.475 26.254 111.577 26.4189 111.711 26.4504C111.753 26.6295 111.961 26.7065 112.094 26.7379L112.154 26.7238L113.558 26.2652L135.346 18.9637C135.346 18.9637 137.649 18.0401 137.589 18.0543C138.502 17.649 139.043 17.2689 137.476 17.5767C136.507 17.7431 135.208 18.1137 135.208 18.1137L113.301 25.4435L112.718 25.6446C112.795 25.4372 112.946 25.2754 113.023 25.068ZM136.526 13.8297C136.526 13.8297 137.45 16.1329 137.436 16.0732C137.552 16.2979 137.668 16.5225 137.77 16.6875C137.77 16.6875 137.77 16.6875 137.696 16.6419C136.884 16.1407 135.717 15.4714 135.717 15.4714L134.947 15.1492L127.298 11.6012C127.017 11.4786 126.676 11.3702 126.381 11.1879L128.12 8.94782L130.101 6.39827L131.055 5.10071L131.63 4.33411C131.63 4.33411 131.949 3.81728 132.328 3.28632C132.51 2.99099 132.647 2.76949 132.724 2.56213L132.883 2.96589L136.526 13.8297ZM108.305 9.66701L129.913 2.4079C129.913 2.4079 132.217 1.48437 132.157 1.4985C132.276 1.47023 132.382 1.38227 132.441 1.36813C132.396 1.44197 132.396 1.44197 132.41 1.50167L132.424 1.56137L132.568 1.90543C131.92 2.62646 131.088 3.64282 131.088 3.64282L130.573 4.39528L129.619 5.69284L127.652 8.30209L125.671 10.8516C125.338 11.3088 124.991 11.7062 124.643 12.1036C124.296 12.5011 123.949 12.8985 123.556 13.3698C123.209 13.7672 122.921 14.1505 122.588 14.6076L122.602 14.6673C122.455 14.5762 122.261 14.5589 122.04 14.4222C121.137 14.0686 119.892 13.6066 119.892 13.6066L119.017 13.3725L117.401 12.9356L114.347 12.0194C112.302 11.3688 110.27 10.7779 108.179 10.2011C107.898 10.0786 107.645 10.0754 107.438 9.99841L108.305 9.66701ZM111.278 23.0224L107.391 11.3966L107.19 10.8137C107.457 10.8766 107.664 10.9536 107.917 10.9568C109.934 11.488 111.965 12.0789 113.951 12.7436L116.945 13.6739L117.894 13.9536C117.803 14.1013 117.712 14.249 117.561 14.4108C117.074 15.2826 116.345 16.4639 116.345 16.4639L115.949 17.1881L114.057 20.9144C113.766 21.5506 113.476 22.1868 113.111 22.7775C112.761 23.4279 112.47 24.0641 112.165 24.6406C112.028 24.8621 111.892 25.0836 111.755 25.3051C111.648 24.3217 111.278 23.0224 111.278 23.0224Z" fill="#202020"/>
<path d="M113.023 25.068C113.373 24.4177 113.664 23.7814 113.969 23.2049C114.274 22.6284 114.624 21.978 114.915 21.3418L116.792 17.5558L117.083 16.9196C117.083 16.9196 118.05 14.6103 118.004 14.6842C118.081 14.4768 118.144 14.2097 118.235 14.0621L118.502 14.1249L119.451 14.4047C119.451 14.4047 120.045 14.5163 120.653 14.6876C121.247 14.7992 121.84 14.9108 121.84 14.9108C122.167 14.9595 122.42 14.9626 122.613 14.9799C122.701 15.0852 122.775 15.1308 122.849 15.1763C122.982 15.2078 123.162 15.1654 123.221 15.1512C123.281 15.1371 123.281 15.1371 123.281 15.1371C123.509 14.7679 123.796 14.3847 124.144 13.9872L125.185 12.7949C125.382 12.5593 125.518 12.3378 125.729 12.1619L125.88 12.0001C126.294 12.1541 126.649 12.3222 127.064 12.4762L134.713 16.0243L135.349 16.315C135.349 16.315 137.704 17.2075 137.571 17.1761C138.46 17.4699 139.054 17.5815 138.139 16.9153C138.171 16.7818 138.1 16.4833 138.047 15.9916C137.88 15.0223 137.51 13.723 137.51 13.723L133.704 2.70832L133.274 1.4232C133.291 1.22997 133.337 1.15613 133.172 1.25823C133.084 1.15297 132.964 1.18124 132.891 1.13567C133.22 0.93147 133.073 0.840337 132.044 1.0209C131.074 1.18734 129.775 1.55797 129.775 1.55797L108.048 8.84535L106.643 9.30395L106.597 9.37778C106.461 9.59928 106.429 9.73281 106.458 9.85221C106.205 9.84905 106.068 10.0705 106.051 10.2638L106.065 10.3235L106.523 11.728L110.442 23.2203C110.442 23.2203 111.365 25.5235 111.351 25.4638C111.38 25.5832 111.468 25.6884 111.496 25.8078L111.45 25.8817L111.464 25.9414C111.475 26.254 111.577 26.4189 111.711 26.4504C111.753 26.6295 111.961 26.7065 112.094 26.7379L112.154 26.7238L113.558 26.2652L135.346 18.9637C135.346 18.9637 137.649 18.0401 137.589 18.0543C138.502 17.649 139.043 17.2689 137.476 17.5767C136.507 17.7431 135.208 18.1137 135.208 18.1137L113.301 25.4435L112.718 25.6446C112.795 25.4372 112.946 25.2754 113.023 25.068ZM136.526 13.8297C136.526 13.8297 137.45 16.1329 137.436 16.0732C137.552 16.2979 137.668 16.5225 137.77 16.6875C137.77 16.6875 137.77 16.6875 137.696 16.6419C136.884 16.1407 135.717 15.4714 135.717 15.4714L134.947 15.1492L127.298 11.6012C127.017 11.4786 126.676 11.3702 126.381 11.1879L128.12 8.94782L130.101 6.39827L131.055 5.10071L131.63 4.33411C131.63 4.33411 131.949 3.81728 132.328 3.28632C132.51 2.99099 132.647 2.76949 132.724 2.56213L132.883 2.96589L136.526 13.8297ZM108.305 9.66701L129.913 2.4079C129.913 2.4079 132.217 1.48437 132.157 1.4985C132.276 1.47023 132.382 1.38227 132.441 1.36813C132.396 1.44197 132.396 1.44197 132.41 1.50167L132.424 1.56137L132.568 1.90543C131.92 2.62646 131.088 3.64282 131.088 3.64282L130.573 4.39528L129.619 5.69284L127.652 8.30209L125.671 10.8516C125.338 11.3088 124.991 11.7062 124.643 12.1036C124.296 12.5011 123.949 12.8985 123.556 13.3698C123.209 13.7672 122.921 14.1505 122.588 14.6076L122.602 14.6673C122.455 14.5762 122.261 14.5589 122.04 14.4222C121.137 14.0686 119.892 13.6066 119.892 13.6066L119.017 13.3725L117.401 12.9356L114.347 12.0194C112.302 11.3688 110.27 10.7779 108.179 10.2011C107.898 10.0786 107.645 10.0754 107.438 9.99841L108.305 9.66701ZM111.278 23.0224L107.391 11.3966L107.19 10.8137C107.457 10.8766 107.664 10.9536 107.917 10.9568C109.934 11.488 111.965 12.0789 113.951 12.7436L116.945 13.6739L117.894 13.9536C117.803 14.1013 117.712 14.249 117.561 14.4108C117.074 15.2826 116.345 16.4639 116.345 16.4639L115.949 17.1881L114.057 20.9144C113.766 21.5506 113.476 22.1868 113.111 22.7775C112.761 23.4279 112.47 24.0641 112.165 24.6406C112.028 24.8621 111.892 25.0836 111.755 25.3051C111.648 24.3217 111.278 23.0224 111.278 23.0224Z" stroke="#202020" stroke-width="0.8" mask="url(#path-6-outside-2_216_164)"/>
</g>
<defs>
<clipPath id="clip0_216_164">
<rect width="50" height="76.25" fill="white" transform="translate(123.628 100.845) rotate(-14.6617)"/>
</clipPath>
<clipPath id="clip1_216_164">
<rect width="30" height="20.4294" fill="white" transform="translate(60.9712 21.6078) rotate(9.78258)"/>
</clipPath>
<clipPath id="clip2_216_164">
<rect width="30" height="20.4294" fill="white" transform="translate(105.358 7.3385) rotate(-13.319)"/>
</clipPath>
</defs>
</svg>
