<svg width="250" height="205" viewBox="0 0 250 205" fill="none" xmlns="http://www.w3.org/2000/svg">
<path d="M129.056 75.259C114.492 95.0943 89.1066 136.482 109.052 151.127C128.997 165.773 186.72 148.13 201.285 128.295C215.849 108.459 207.98 35.9605 188.035 21.3151C168.09 6.66972 143.621 55.4237 129.056 75.259Z" fill="#CDE3F4"/>
<g clip-path="url(#clip0_42_6421)">
<path d="M76.1325 74.4511C75.5393 74.3324 74.9462 74.6883 74.4717 75.1628C74.4717 75.1628 74.4717 75.2814 74.3531 75.2814C74.2345 75.4001 74.1159 75.6373 73.9972 75.8745C73.76 76.349 73.6414 76.9422 73.6414 77.4167C73.6414 77.8912 73.6414 78.3657 73.76 78.7215C73.76 79.0774 73.76 79.3146 73.76 79.6705C73.76 80.145 73.8786 80.6195 74.2345 80.9754C74.5903 81.4499 75.3021 81.8057 76.0138 81.6871C76.7256 81.5685 77.2001 81.094 77.4373 80.5009C77.6746 80.145 77.6746 79.6705 77.6746 79.196C77.6746 78.9588 77.7932 78.7215 77.7932 78.4843C77.9118 77.5353 77.7932 76.4677 77.4373 75.6373C77.2001 75.0442 76.8442 74.5697 76.1325 74.4511Z" fill="#202020"/>
<path d="M102.467 79.7891C102.467 80.2636 102.586 80.7381 102.942 81.094C103.297 81.5685 104.009 81.9244 104.721 81.8057C105.433 81.6871 105.907 81.2126 106.144 80.6195C106.382 80.2636 106.382 79.7891 106.382 79.3146C106.382 79.0774 106.5 78.8401 106.5 78.6029C106.619 77.6539 106.5 76.5863 106.144 75.7559C105.907 75.1628 105.433 74.8069 104.839 74.6883C104.246 74.5697 103.653 74.9256 103.179 75.4C103.179 75.4 103.179 75.5187 103.06 75.5187C102.942 75.6373 102.823 75.8745 102.704 76.1118C102.467 76.5863 102.348 77.1794 102.348 77.6539C102.348 78.1284 102.348 78.6029 102.467 78.9588C102.467 79.196 102.467 79.4333 102.467 79.7891Z" fill="#202020"/>
<path d="M94.0447 85.2458C93.4516 85.9576 92.9771 86.5507 92.1467 87.0252C91.3163 87.4997 90.3673 87.7369 89.537 87.7369C88.4694 87.7369 87.5204 87.4997 86.5714 87.2624C86.0969 87.1438 85.5038 86.9066 85.0293 86.6693C84.5548 86.4321 84.0803 86.1948 83.4872 86.1948C83.2499 86.1948 83.0127 86.3135 83.1313 86.6693C83.3685 87.8556 84.9106 88.6859 85.8596 89.2791C87.0459 89.9908 88.588 90.228 89.8929 90.228C91.0791 90.228 92.2653 89.8722 93.3329 89.2791C94.4006 88.6859 95.5868 87.7369 96.1799 86.5507C96.6544 85.1272 94.8751 84.2968 94.0447 85.2458Z" fill="#202020"/>
<path d="M146.832 69.113C145.053 68.0454 142.918 67.8081 140.783 67.6895C136.868 52.387 120.616 40.8805 101.162 40.8805C78.8608 40.8805 60.7113 56.0643 60.7113 74.6883C60.7113 89.1604 71.6247 101.497 86.9272 106.242C86.0969 107.073 85.2665 108.022 84.5547 108.971C83.2499 110.631 81.945 112.292 80.6402 113.834C78.6235 116.325 76.6069 118.935 74.5903 121.426C73.6413 117.867 72.4551 114.309 70.913 110.869C69.964 108.733 68.8964 106.48 67.9474 104.344C66.9984 102.328 66.168 100.192 64.7445 98.5317C61.8976 94.973 57.1526 95.5661 53.4753 97.4641C51.6959 98.4131 50.1538 99.718 49.7979 101.735C49.4421 103.633 50.5097 105.412 52.289 106.005C56.2036 107.429 60.9486 104.937 63.5583 101.972C64.1514 103.039 64.6259 104.226 65.1004 105.293C66.0494 107.31 66.9984 109.327 67.9474 111.343C69.8454 115.614 71.3875 120.003 72.3365 124.51C72.5737 125.697 73.9972 126.171 74.8276 125.103C77.4373 121.782 79.9284 118.461 82.5381 115.139C83.843 113.478 85.1479 111.818 86.3341 110.157C86.4527 109.92 86.69 109.682 86.8086 109.564C86.4527 110.75 86.0969 112.055 85.741 113.36C85.0292 115.969 84.1989 118.461 83.4871 121.07C82.0636 126.171 80.7588 131.391 79.4539 136.491C78.8608 139.101 78.2677 141.711 77.6746 144.321C77.0814 146.93 76.4883 149.54 76.6069 152.15C76.6069 156.539 78.7422 160.809 83.0126 162.233C83.9616 162.589 84.9106 162.707 85.741 162.826C85.0292 165.08 84.6734 167.452 84.1989 169.706C83.6058 172.672 83.2499 175.756 82.7754 178.84C82.4195 181.924 82.0636 184.89 81.8264 187.974C81.5891 190.465 81.5891 192.956 81.3519 195.448C78.3863 194.38 75.1834 194.143 72.0992 194.617C69.015 195.092 64.27 196.515 64.3887 200.43C64.5073 204.226 68.8964 204.226 71.6247 203.751C75.6579 203.158 79.5725 201.853 83.2499 200.192C84.0802 199.837 84.1989 198.888 83.9616 198.176C84.0802 197.939 84.1989 197.701 84.0802 197.345C83.9616 194.38 84.3175 191.296 84.5547 188.33C84.792 185.246 85.0292 182.162 85.3851 179.196C85.741 176.23 86.0969 173.265 86.4527 170.299C86.8086 167.927 87.2831 165.436 87.4017 163.063C88.2321 163.182 88.9438 163.182 89.7742 163.182C92.3839 163.3 94.9937 163.419 97.4848 163.419C102.111 163.419 106.737 163.063 111.245 161.877C111.245 164.487 111.601 167.096 111.838 169.587C112.194 172.909 112.431 176.112 112.787 179.433C113.38 185.958 114.092 192.601 114.685 199.125C114.685 199.599 115.041 200.074 115.516 200.192C118.956 201.379 122.633 201.379 126.192 200.43C128.92 199.718 133.902 197.701 133.665 194.261C133.546 190.584 128.92 190.821 126.31 191.177C122.989 191.652 119.667 192.838 116.82 194.736C116.227 189.516 115.753 184.415 115.16 179.196C114.804 175.993 114.448 172.79 114.092 169.587C113.736 166.859 113.618 164.131 113.024 161.521C116.702 160.453 120.616 158.555 121.803 154.522C122.396 152.387 122.396 150.133 122.159 147.998C121.803 145.507 121.447 142.897 121.091 140.406C120.261 134.593 119.193 128.781 118.007 122.968C117.888 122.494 117.769 122.019 117.651 121.545C118.956 123.443 120.261 125.341 121.565 127.12C122.04 127.713 122.989 127.832 123.582 127.357C131.411 120.359 137.698 111.818 142.206 102.328C143.392 99.9552 146.121 94.7358 144.578 92.0074C145.29 89.5163 146.002 87.0252 146.714 84.6527C147.544 81.6871 148.73 78.6029 149.205 75.5187C150.035 73.1462 149.205 70.5365 146.832 69.113ZM56.9154 103.277C55.9664 103.633 52.8821 104.344 52.6449 102.802C52.4076 101.023 55.3732 99.9552 56.5595 99.4807C58.3388 98.8876 60.3555 98.6503 61.7789 99.9552C60.4741 101.497 58.8133 102.684 56.9154 103.277ZM73.9972 200.786C73.1668 201.023 67.7101 202.446 67.5915 200.786C67.4729 199.599 69.6081 198.888 70.4385 198.65C71.6247 198.176 72.9296 197.939 74.2345 197.82C76.4883 197.583 78.6235 197.939 80.6402 198.65C78.5049 199.599 76.2511 200.311 73.9972 200.786ZM117.888 198.294C120.142 196.752 122.752 195.447 125.361 194.736C126.073 194.617 131.53 193.312 131.055 194.973C130.699 195.922 129.039 196.752 128.09 197.108C126.903 197.701 125.717 198.057 124.412 198.413C122.159 198.888 119.905 198.888 117.651 198.413C117.769 198.294 117.769 198.294 117.888 198.294ZM63.5583 74.6883C63.5583 57.6065 80.4029 43.8461 101.162 43.8461C118.837 43.8461 133.784 53.9291 137.698 67.5709C136.868 67.5709 135.919 67.4522 135.089 67.4522C133.665 67.3336 132.004 67.215 130.581 67.5709C127.971 68.164 126.666 70.4178 126.073 72.7903C125.361 75.6373 125.124 78.7215 124.768 81.5685C124.294 85.2458 123.701 88.8046 123.226 92.4819C122.87 95.0916 122.396 97.7014 122.159 100.43C116.109 103.633 108.991 105.649 101.162 105.649C80.4029 105.649 63.5583 91.7702 63.5583 74.6883ZM115.16 120.952C116.227 125.697 117.176 130.442 118.007 135.187C118.837 139.931 119.667 144.676 120.023 149.421C120.142 151.319 120.142 153.455 119.193 155.234C118.244 156.895 116.465 157.962 114.685 158.674C110.533 160.335 105.907 160.809 101.399 161.047C96.773 161.284 92.0281 161.165 87.4017 160.691C85.2665 160.453 83.1313 160.098 81.5891 158.555C80.2843 157.132 79.6912 155.234 79.4539 153.336C79.2167 150.845 79.8098 148.354 80.2843 145.863C80.7588 143.49 81.3519 141.118 81.8264 138.745C83.0126 133.289 84.4361 127.95 85.8596 122.612C86.5714 120.003 87.2831 117.274 87.9948 114.665C88.7066 112.173 89.4183 109.801 89.7742 107.31C93.3329 108.14 97.1289 108.615 101.043 108.615C104.484 108.615 107.686 108.259 110.889 107.547C110.889 107.784 111.008 108.022 111.127 108.259C111.008 108.496 111.008 108.733 111.127 108.971C111.72 110.631 112.313 112.173 113.143 113.834C113.855 116.088 114.567 118.461 115.16 120.952ZM131.767 115.02C129.157 118.461 126.31 121.545 123.226 124.51C121.447 122.019 119.786 119.528 118.244 117.037C117.532 115.851 116.702 114.546 115.99 113.241C115.397 111.106 114.804 108.852 114.211 106.717C116.939 106.005 119.43 104.937 121.921 103.751C121.803 104.226 121.921 104.819 122.04 105.175C122.633 106.48 123.938 107.073 125.361 107.191C128.327 107.547 131.411 107.784 134.495 108.14C134.614 108.14 134.733 108.14 134.851 108.14C135.207 108.378 135.563 108.615 136.038 108.733C134.733 110.987 133.309 113.004 131.767 115.02ZM141.138 98.8876C140.308 100.786 139.478 102.684 138.41 104.582C138.054 105.175 137.698 105.886 137.342 106.48C134.377 105.293 133.072 101.735 134.258 98.769C134.97 97.1082 136.156 95.8034 137.698 94.7358C138.41 94.2613 140.071 93.3123 141.257 93.3123C141.257 93.4309 141.138 93.5495 141.138 93.6681C141.613 93.6681 141.969 93.7868 142.443 93.7868C143.274 94.973 141.613 97.82 141.138 98.8876ZM146.476 75.6373C145.883 78.4843 144.816 81.2126 144.104 83.941C143.392 86.1948 142.799 88.4487 142.087 90.7025C137.936 89.9908 133.546 93.7868 131.886 97.3455C130.818 99.8366 130.937 102.802 132.242 105.293C130.581 105.175 129.039 105.056 127.378 104.937C126.429 104.819 125.243 104.937 124.412 104.582C124.294 104.582 124.294 104.463 124.175 104.463L123.938 104.344L123.819 104.226C123.819 104.226 123.819 104.226 123.819 104.107C124.531 101.497 124.887 98.6503 125.243 95.922C125.717 93.075 126.073 90.228 126.548 87.3811C127.022 84.4155 127.378 81.5685 127.852 78.6029C128.09 77.298 128.208 75.9932 128.446 74.6883C128.564 73.6207 128.801 72.5531 129.276 71.6041C130.462 69.5875 134.14 70.4178 136.156 70.5365C138.647 70.6551 141.376 70.6551 143.748 71.3668C144.578 71.6041 145.409 71.8413 146.002 72.5531C146.832 73.1462 146.714 74.4511 146.476 75.6373Z" fill="#202020"/>
</g>
<g clip-path="url(#clip1_42_6421)">
<path d="M187.481 75.2837C188.164 75.4373 188.963 75.5974 189.653 75.636L189.883 75.6489L189.877 75.7639C190.151 77.0485 190.419 78.4481 190.687 79.8477C190.961 81.1323 191.229 82.532 191.842 83.9509C191.842 83.9509 191.951 84.0724 192.066 84.0788C192.852 84.4689 193.318 84.3796 193.568 84.0474C193.574 83.9324 193.689 83.9388 193.696 83.8238C194.053 83.613 194.654 83.1851 195.39 82.4185C196.361 81.5497 197.461 80.4573 198.311 79.6972C198.554 79.48 198.79 79.3778 198.918 79.1542C199.155 79.052 199.276 78.9434 199.398 78.8348C199.641 78.6176 199.877 78.5155 199.877 78.5155C200.12 78.2983 200.472 78.2026 200.715 77.9854L201.187 77.781C201.303 77.7875 201.309 77.6724 201.424 77.6789L201.539 77.6853L201.891 77.5896C202.012 77.481 202.127 77.4874 202.357 77.5003C203.527 77.2195 204.913 77.1817 206.3 77.1438C207.693 76.991 209.202 76.8446 210.595 76.6917C213.388 76.2709 216.308 75.6266 219.038 74.2791C220.341 73.6597 221.658 72.8103 222.764 71.6029C223.864 70.5105 224.753 69.0601 225.181 67.5841C225.616 65.993 225.707 64.3826 225.445 62.8679C225.299 61.3597 224.801 59.9472 224.303 58.5347C223.805 57.1222 223.07 55.8119 222.214 54.6102C221.359 53.4084 220.388 52.2003 219.289 51.2157C217.091 49.2466 214.523 47.7183 211.699 46.6373C206.159 44.5967 200.177 44.2622 194.457 45.4424C191.658 45.9782 188.833 46.9741 186.212 48.4429C184.902 49.1774 183.7 50.0333 182.499 50.8892C181.405 51.8665 180.312 52.8439 179.321 54.0577C177.461 56.3768 176.028 59.2968 175.97 62.4089C175.796 65.5147 177.003 68.6976 179.187 70.8968C181.704 73.3453 184.631 74.6628 187.481 75.2837ZM181.282 56.129C182.03 55.1323 183.009 54.1485 183.98 53.2798C184.466 52.8454 184.952 52.411 185.546 52.0981C186.141 51.7852 186.627 51.3508 187.221 51.0379C189.49 49.6647 191.964 48.7646 194.539 48.1009C197.109 47.5522 199.78 47.2401 202.432 47.273C203.812 47.3502 205.078 47.4209 206.336 47.6067C207.595 47.7925 208.963 48.0997 210.209 48.5156C211.455 48.9314 212.694 49.4623 213.819 49.9867C214.381 50.249 214.937 50.6262 215.493 51.0034C215.717 51.1313 216.049 51.3807 216.272 51.5086C216.496 51.6365 216.828 51.8858 217.045 52.1287C219.032 53.7399 220.648 55.7918 221.785 58.1632C222.807 60.528 223.585 63.1101 223.335 65.5193C223.264 66.7846 222.746 67.7941 222.113 68.7972C221.48 69.8003 220.515 70.554 219.435 71.3013C217.281 72.6809 214.699 73.4596 212.136 73.8932C210.851 74.1675 209.458 74.3204 208.18 74.4797C207.483 74.5561 206.787 74.6325 206.205 74.7154L204 74.9383C203.304 75.0147 202.492 75.0847 201.789 75.2762C201.559 75.2633 201.438 75.3719 201.201 75.4741L200.85 75.5698L200.728 75.6784C200.492 75.7805 200.37 75.8891 200.14 75.8763C199.782 76.087 199.309 76.2914 198.951 76.5021C198.951 76.5021 198.83 76.6107 198.708 76.7193C198.587 76.8279 198.344 77.0451 198.101 77.2623C197.615 77.6967 197.001 78.3547 196.388 79.0127C195.39 80.3415 194.508 81.6768 194.514 81.5618C194.265 81.894 194.131 82.2327 194.003 82.4563C193.709 81.5168 193.422 80.4622 193.25 79.4141C192.975 78.1295 192.823 76.7363 192.44 75.3303L192.344 74.9787L192.14 74.5058L191.852 73.4512L191.859 73.3362L191.744 73.3298L191.514 73.3169L191.054 73.2912L190.133 73.2397C189.443 73.2011 188.875 73.0539 188.191 72.9003C185.68 72.4137 183.322 71.2434 181.456 69.5236C179.706 67.8103 178.684 65.4454 178.704 63.0234C178.725 60.6014 179.671 58.1158 181.282 56.129Z" fill="#202020"/>
<path d="M240.286 40.9665C241.577 40.5772 242.759 40.0664 243.948 39.4405C245.143 38.6997 246.115 37.8309 246.991 36.6106C247.752 35.3839 248.283 34.1443 248.475 32.7704C248.667 31.3965 248.623 30.1248 248.579 28.8531C248.26 26.2967 247.481 23.7147 245.987 21.5541C245.239 20.4738 244.371 19.5021 243.495 18.6455C242.505 17.7824 241.508 17.0343 240.39 16.3949C235.924 13.722 230.78 12.8574 225.808 13.0409C223.265 13.1294 220.817 13.5695 218.35 14.3546C215.883 15.1398 213.627 16.2829 211.581 17.7839C209.529 19.4 207.688 21.374 206.735 23.9746C205.788 26.4602 205.742 29.3423 206.636 31.9308C207.53 34.5193 209.146 36.5712 211.126 38.2974C212.117 39.1605 213.235 39.8 214.353 40.4394C214.692 40.5738 214.915 40.7016 215.254 40.836L215.707 40.9767L215.823 40.9832L215.068 42.0948C214.691 42.6507 214.307 43.3216 213.923 43.9924C213.917 44.1074 213.911 44.2225 213.911 44.2225C214.096 45.0405 214.543 45.2963 214.881 45.4306C215.112 45.4435 215.342 45.4564 215.578 45.3542C216.045 45.2649 216.511 45.1756 217.336 44.8756C218.627 44.4862 220.046 43.8732 221.1 43.586C221.688 43.3882 222.155 43.2989 222.506 43.2031C222.858 43.1074 223.088 43.1203 223.088 43.1203C223.439 43.0245 223.791 42.9288 224.136 42.9481C224.366 42.961 224.487 42.8524 224.717 42.8652L224.948 42.8781L225.874 42.8145C228.194 42.5981 230.616 42.6182 233.051 42.4082C235.39 41.8466 237.825 41.6366 240.286 40.9665ZM225.447 40.1367L224.52 40.2003L223.939 40.2832C223.587 40.3789 223.127 40.3532 222.661 40.4425C222.661 40.4425 222.194 40.5318 221.606 40.7297C220.903 40.9211 220.187 41.3426 219.356 41.7577C218.282 42.39 217.209 43.0223 216.851 43.233L217.362 42.3385L217.49 42.1149L217.739 41.7827C217.874 41.444 218.117 41.2268 218.251 40.8882L218.641 40.1023L218.89 39.7701L219.018 39.5465L218.903 39.54L217.21 38.8684C217.095 38.862 216.986 38.7405 216.756 38.7276L216.418 38.5933L216.079 38.459C215.855 38.3311 215.632 38.2032 215.293 38.0689C214.284 37.5509 213.396 36.9243 212.508 36.2977C210.853 34.9359 209.454 33.1268 208.643 31.1199C207.832 29.113 207.839 26.921 208.524 24.9977C209.215 22.9594 210.577 21.3047 212.386 19.9059C214.08 18.5006 216.099 17.4596 218.215 16.7702C220.331 16.0808 222.548 15.6279 224.868 15.4115C227.182 15.3101 229.488 15.3237 231.655 15.791C232.799 15.9703 233.821 16.2583 234.952 16.6677C235.968 17.0707 237.099 17.4801 237.993 17.9916C240.012 19.0277 241.782 20.3959 243.066 22.1985C244.356 23.8861 245.282 25.8994 245.735 28.1171C245.818 28.6987 245.907 29.1652 245.875 29.7404L245.945 30.552L245.9 31.3572C245.842 32.3924 245.669 33.4212 245.266 34.4372C244.467 36.3541 242.779 37.6443 240.779 38.3402C238.772 39.1511 236.445 39.4825 234.126 39.6989C231.806 39.9154 229.492 40.0168 227.064 40.1118C226.61 39.971 226.029 40.0539 225.447 40.1367Z" fill="#202020"/>
<path d="M177.969 47.2896L178.09 47.181C178.57 46.8617 178.608 46.1715 178.628 45.8264C178.634 45.7114 178.634 45.7114 178.519 45.705L175.913 42.7899L175.804 42.6685L176.175 42.2276C176.795 41.4546 177.524 40.803 178.144 40.03C179.5 38.4904 180.644 36.5928 181.111 34.4266C181.399 33.4042 181.464 32.2539 181.407 31.2122C181.349 30.1706 181.184 29.0074 180.781 27.9464C180.379 26.8855 179.856 25.9331 179.21 25.0893C178.565 24.2455 177.805 23.3953 176.917 22.7687C175.262 21.4069 173.237 20.4859 171.301 20.0315C170.278 19.7435 169.25 19.5706 168.221 19.3977L166.61 19.3076C166.035 19.2755 165.575 19.2497 164.994 19.3326C163.045 19.1082 160.948 19.4525 158.941 20.2634C157.049 21.0807 155.253 22.2495 153.674 23.6613C152.095 25.073 150.842 26.8491 149.928 28.7596L149.659 29.4369C149.531 29.6605 149.518 29.8905 149.39 30.1142C149.25 30.5678 148.987 31.1301 148.847 31.5838C148.674 32.6126 148.386 33.635 148.213 34.6638C147.982 36.7279 148.09 38.9263 149.009 41.0546C149.82 43.0616 151.334 44.877 153.117 46.0152C154.899 47.1534 157.052 47.8507 159.11 48.1966C161.168 48.5424 163.366 48.4346 165.354 47.9688C168.044 47.3116 167.456 47.5095 168.038 47.4266C168.389 47.3309 168.735 47.3502 169.086 47.2544C169.086 47.2544 169.438 47.1587 170.019 47.0758C170.601 46.993 171.412 46.923 172.218 46.968C173.834 46.943 175.317 47.2567 175.202 47.2503C176.467 47.321 177.611 47.5004 177.969 47.2896ZM171.528 44.8525C170.269 44.6667 169.228 44.7238 169.228 44.7238C168.761 44.8131 168.416 44.7938 167.949 44.8831C167.719 44.8702 167.483 44.9724 167.368 44.966L167.016 45.0617L166.901 45.0553L166.198 45.2467C165.259 45.5404 164.326 45.719 163.399 45.7825C162.472 45.8461 161.546 45.9097 160.626 45.8582C158.785 45.7553 156.964 45.3073 155.392 44.527C153.82 43.7468 152.504 42.5194 151.668 40.9725C150.831 39.4257 150.468 37.6746 150.57 35.8341C150.622 34.9139 150.788 34.0001 150.955 33.0863L151.108 32.4026C151.121 32.1725 151.249 31.9489 151.262 31.7189L151.793 30.4793C152.58 28.7925 153.59 27.2335 154.817 25.9175C155.182 25.5918 155.431 25.2595 155.795 24.9338L156.882 24.0714L158.078 23.3306C158.435 23.1198 158.908 22.9155 159.266 22.7047C160.922 21.9896 162.794 21.5174 164.648 21.3902C166.501 21.2631 168.335 21.481 170.156 21.929C171.977 22.377 173.664 23.1637 175.108 24.1675C175.887 24.6727 176.43 25.28 177.082 26.0087C177.619 26.7311 178.04 27.447 178.455 28.2779C178.755 29.1024 178.94 29.9204 179.004 30.8471C179.074 31.6587 179.022 32.5789 178.741 33.4863C178.414 35.1988 177.519 36.7642 176.285 38.1952C175.665 38.9683 175.051 39.6263 174.316 40.3929L173.824 40.9423C173.459 41.2681 173.204 41.7153 172.839 42.0411L172.59 42.3733L172.468 42.4819L172.577 42.6034L173.12 43.2107L173.989 44.1824L175.401 45.7613C174.154 45.3455 172.672 45.0318 171.528 44.8525Z" fill="#202020"/>
<path d="M187.635 56.0226C187.622 56.2527 187.615 56.3677 187.609 56.4828C187.609 56.4828 187.602 56.5978 187.718 56.6042C187.718 56.6042 187.718 56.6042 187.833 56.6107C187.948 56.6171 188.069 56.5085 188.069 56.5085C188.069 56.5085 188.063 56.6235 188.178 56.6299C188.178 56.6299 188.171 56.745 188.286 56.7514C188.395 56.8729 188.51 56.8793 188.733 57.0072C188.849 57.0136 188.849 57.0136 188.849 57.0136L189.2 56.9179L189.552 56.8222L190.478 56.7586C191.175 56.6822 191.756 56.5993 192.447 56.6379C195.687 56.4729 198.907 56.653 202.237 56.9546L204.192 57.064C204.192 57.064 205.924 57.0454 207.541 57.0204C209.158 56.9955 210.896 56.8619 210.666 56.849C212.059 56.6962 213.107 56.524 213.357 56.1918C213.6 55.9746 212.922 55.706 210.743 55.4687C207.995 55.0843 204.564 54.5462 204.564 54.5462L202.378 54.424C199.042 54.2375 195.713 53.9359 192.243 54.088C191.553 54.0494 190.856 54.1258 190.16 54.2023L189.22 54.4959L188.99 54.483C188.875 54.4766 188.875 54.4766 188.639 54.5787L188.05 54.7766L187.929 54.8852C187.801 55.1089 187.68 55.2175 187.667 55.4475C187.66 55.5625 187.539 55.6711 187.539 55.6711C187.539 55.6711 187.539 55.6711 187.532 55.7862C187.309 55.6583 187.635 56.0226 187.635 56.0226Z" fill="#202020"/>
<path d="M187.582 61.0967C187.69 61.2182 187.69 61.2182 187.69 61.2182L191.716 61.4433C195.627 61.662 199.545 61.7657 203.462 61.8694L205.302 61.9723C205.302 61.9723 207.034 61.9538 208.651 61.9288C210.268 61.9038 211.878 61.9939 211.763 61.9874C214.422 61.9053 216.281 61.6632 211.949 60.7286C209.444 60.1269 205.776 59.6911 205.776 59.6911L203.591 59.5688C199.68 59.3501 195.647 59.24 191.736 59.0213L187.825 58.8026C187.825 58.8026 187.704 58.9112 187.589 58.9048C186.381 59.8757 187.026 60.7195 187.582 61.0967Z" fill="#202020"/>
<path d="M194.917 64.0455C194.246 63.6618 193.339 63.3803 193.339 63.3803C193.339 63.3803 191.952 63.4181 190.572 63.3409C189.881 63.3023 189.191 63.2637 188.61 63.3466C188.035 63.3144 187.69 63.2951 187.69 63.2951L187.683 63.4101C187.28 64.4261 187.459 65.3592 187.554 65.7107C187.548 65.8257 187.548 65.8257 187.548 65.8257C187.548 65.8257 187.893 65.845 188.468 65.8772C189.043 65.9094 189.734 65.9479 190.43 65.8715C191.817 65.8337 193.197 65.9109 193.197 65.9109L194.833 65.5408C195.434 65.1129 195.92 64.6785 194.917 64.0455Z" fill="#202020"/>
<path d="M215.478 22.3865C215.586 22.508 215.586 22.508 215.586 22.508L219.612 22.7331C222.833 22.9132 225.939 23.0869 229.16 23.267L231 23.37C231 23.37 232.732 23.3514 234.342 23.4415C235.959 23.4165 237.569 23.5066 237.454 23.5001C240.107 23.533 241.973 23.1759 237.64 22.2413C235.135 21.6396 231.474 21.0887 231.474 21.0887L229.288 20.9665C226.067 20.7864 222.962 20.6127 219.741 20.4326L215.715 20.2074C215.715 20.2074 215.594 20.316 215.478 20.3096C214.283 21.0505 214.922 22.0093 215.478 22.3865Z" fill="#202020"/>
<path d="M235.983 27.1102C238.648 26.9131 240.399 26.5495 236.176 25.7363C233.664 25.2497 229.99 24.9289 229.99 24.9289L227.798 24.9217L219.158 24.6693C217.893 24.5985 216.512 24.5214 215.247 24.4506C215.247 24.4506 215.125 24.5592 215.01 24.5528C213.687 25.5173 214.441 26.4825 214.882 26.8533C214.99 26.9748 214.99 26.9748 214.99 26.9748C216.371 27.052 217.636 27.1227 219.016 27.1999L227.541 27.4459L229.497 27.5552C229.497 27.5552 231.229 27.5367 232.852 27.3967C234.59 27.2631 236.092 27.2317 235.983 27.1102Z" fill="#202020"/>
<path d="M228.186 30.3666C226.94 29.9507 225.227 29.6242 225.227 29.6242C225.227 29.6242 222.581 29.4763 219.936 29.3283C218.555 29.2511 217.29 29.1804 216.261 29.0074C215.801 28.9817 215.341 28.956 214.996 28.9367C214.766 28.9238 214.536 28.9109 214.536 28.9109L214.414 29.0195C214.293 29.1281 214.287 29.2432 214.28 29.3582C214.274 29.4732 214.267 29.5882 214.146 29.6968C214.018 29.9205 213.89 30.1441 213.884 30.2591C213.877 30.3741 213.871 30.4892 213.864 30.6042C213.858 30.7192 213.966 30.8407 213.966 30.8407C214.075 30.9621 214.069 31.0772 214.177 31.1986C214.171 31.3137 214.171 31.3137 214.286 31.3201C214.401 31.3265 217.04 31.5895 219.686 31.7375C222.331 31.8854 224.977 32.0333 224.977 32.0333C224.977 32.0333 228.217 31.8684 228.108 31.7469C229.393 31.4726 230.224 31.0575 228.186 30.3666Z" fill="#202020"/>
<path d="M167.515 25.8199C166.333 26.3307 164.914 26.9437 163.725 27.5696C162.658 28.0868 161.82 28.6169 161.82 28.6169C161.219 29.0449 160.504 29.4664 159.903 29.8943C158.465 30.8524 157.02 31.9255 155.575 32.9985C154.488 33.8609 153.517 34.7296 152.43 35.592L152.302 35.8156C152.097 37.4195 153.241 37.5989 153.829 37.401C153.944 37.4074 153.944 37.4074 153.95 37.2924C154.922 36.4236 155.894 35.5549 156.974 34.8076C158.304 33.7281 159.742 32.77 161.065 31.8055C161.545 31.4862 162.139 31.1732 162.625 30.7389C162.625 30.7389 163.948 29.7744 165.271 28.8099C166.594 27.8454 167.911 26.9959 167.796 26.9895C170.193 25.3927 171.536 24.0832 167.515 25.8199Z" fill="#202020"/>
<path d="M166.331 30.4846C163.96 31.6213 160.854 33.5245 160.854 33.5245L159.051 34.8084L158.572 35.1277C157.376 35.8686 156.29 36.7309 155.203 37.5932C155.203 37.5932 155.081 37.7018 155.075 37.8169C154.915 38.6156 155.119 39.0886 155.451 39.3379C155.784 39.5873 156.244 39.613 156.48 39.5109C156.595 39.5173 156.595 39.5173 156.595 39.5173C157.561 38.7636 158.647 37.9012 159.728 37.1539L160.207 36.8346L161.767 35.7679C161.767 35.7679 163.096 34.6884 164.419 33.7239C165.743 32.7594 166.957 31.6735 166.836 31.7821C169.022 29.8274 170.141 28.3899 166.331 30.4846Z" fill="#202020"/>
<path d="M163.664 36.9125C162.859 36.8675 161.919 37.1611 161.919 37.1611C161.919 37.1611 161.562 37.3719 161.089 37.5762C160.609 37.8956 159.9 38.2021 159.184 38.6236C158.468 39.0451 157.752 39.4666 157.266 39.901C156.787 40.2203 156.422 40.5461 156.422 40.5461L156.416 40.6611C156.818 41.7221 157.598 42.2273 157.936 42.3616L158.051 42.368C158.051 42.368 158.294 42.1508 158.774 41.8315C159.253 41.5121 159.854 41.0842 160.448 40.7713C161.049 40.3433 161.759 40.0368 162.232 39.8325C162.711 39.5131 163.063 39.4174 163.063 39.4174C163.063 39.4174 163.427 39.0916 163.791 38.7658C164.156 38.4401 164.52 38.1143 164.405 38.1078C164.789 37.437 164.942 36.7532 163.664 36.9125Z" fill="#202020"/>
</g>
<defs>
<clipPath id="clip0_42_6421">
<rect width="100" height="163.464" fill="white" transform="translate(49.6793 40.8805)"/>
</clipPath>
<clipPath id="clip1_42_6421">
<rect width="100" height="73.3871" fill="white" transform="translate(149.679 8.4375) rotate(3.20074)"/>
</clipPath>
</defs>
</svg>
