<svg width="848" height="553" viewBox="0 0 848 553" fill="none" xmlns="http://www.w3.org/2000/svg">
<path d="M1.18145 407.047C2.41071 409.724 5.57716 410.897 8.25391 409.668C10.9307 408.439 12.1041 405.272 10.8748 402.596C9.64557 399.919 6.47912 398.745 3.80237 399.975C1.12561 401.204 -0.0478107 404.37 1.18145 407.047ZM631.487 239.778C632.716 242.455 635.883 243.629 638.56 242.399C641.236 241.17 642.41 238.004 641.18 235.327C639.951 232.65 636.785 231.477 634.108 232.706C631.431 233.935 630.258 237.102 631.487 239.778ZM411.663 396.773L411.259 395.858L411.663 396.773ZM6.02814 404.821C5.79875 405.795 5.79877 405.795 5.7988 405.795C5.79881 405.795 5.79885 405.795 5.79888 405.795C5.79895 405.795 5.79904 405.795 5.79916 405.795C5.79939 405.795 5.79972 405.795 5.80015 405.795C5.80101 405.795 5.80226 405.795 5.8039 405.796C5.80717 405.797 5.812 405.798 5.81838 405.799C5.83113 405.802 5.85009 405.807 5.8752 405.813C5.92543 405.824 6.00028 405.842 6.09942 405.865C6.29768 405.911 6.59308 405.979 6.98282 406.067C7.76231 406.244 8.91923 406.504 10.4314 406.834L10.8582 404.88C9.35166 404.551 8.20025 404.293 7.42609 404.117C7.03901 404.029 6.74624 403.962 6.55056 403.916C6.45272 403.894 6.37914 403.876 6.33019 403.865C6.30571 403.859 6.28739 403.855 6.27527 403.852C6.2692 403.851 6.26469 403.85 6.26173 403.849C6.26025 403.849 6.25916 403.848 6.25846 403.848C6.25811 403.848 6.25786 403.848 6.2577 403.848C6.25762 403.848 6.25757 403.848 6.25754 403.848C6.25753 403.848 6.25752 403.848 6.25751 403.848C6.25752 403.848 6.25753 403.848 6.02814 404.821ZM20.0483 408.857C22.9087 409.439 26.1665 410.086 29.7911 410.782L30.1679 408.817C26.5509 408.123 23.3004 407.478 20.447 406.898L20.0483 408.857ZM39.4081 412.577C42.4498 413.13 45.6703 413.702 49.0582 414.285L49.3979 412.314C46.0161 411.732 42.8016 411.161 39.7658 410.61L39.4081 412.577ZM58.7539 415.912C61.873 416.421 65.1045 416.935 68.4414 417.45L68.7465 415.473C65.4155 414.959 62.1897 414.446 59.0761 413.938L58.7539 415.912ZM78.0893 418.897C81.2426 419.357 84.4749 419.814 87.781 420.267L88.0525 418.286C84.7521 417.834 81.5255 417.377 78.3776 416.918L78.0893 418.897ZM97.5251 421.56C100.731 421.972 103.997 422.377 107.319 422.774L107.557 420.788C104.241 420.392 100.98 419.987 97.7797 419.577L97.5251 421.56ZM116.999 423.888C120.205 424.243 123.457 424.589 126.751 424.924L126.954 422.934C123.666 422.6 120.419 422.255 117.219 421.9L116.999 423.888ZM136.566 425.878C139.773 426.174 143.015 426.46 146.289 426.732L146.455 424.739C143.187 424.467 139.951 424.182 136.751 423.886L136.566 425.878ZM156.073 427.5C159.317 427.739 162.588 427.964 165.885 428.175L166.013 426.179C162.722 425.969 159.457 425.744 156.22 425.505L156.073 427.5ZM175.647 428.749C178.899 428.924 182.173 429.083 185.466 429.226L185.553 427.228C182.267 427.085 179 426.926 175.754 426.752L175.647 428.749ZM195.258 429.598C198.511 429.704 201.78 429.793 205.063 429.864L205.106 427.864C201.831 427.794 198.569 427.705 195.323 427.599L195.258 429.598ZM214.887 430.018C218.142 430.051 221.408 430.064 224.683 430.057L224.679 428.057C221.412 428.064 218.154 428.051 214.907 428.018L214.887 430.018ZM234.507 429.976C237.768 429.929 241.035 429.861 244.308 429.771L244.253 427.771C240.989 427.861 237.73 427.929 234.478 427.977L234.507 429.976ZM254.118 429.434C257.383 429.3 260.651 429.142 263.919 428.961L263.808 426.964C260.55 427.145 257.292 427.302 254.036 427.436L254.118 429.434ZM273.714 428.345C276.977 428.115 280.239 427.86 283.497 427.58L283.325 425.587C280.078 425.867 276.827 426.121 273.574 426.35L273.714 428.345ZM293.272 426.656C296.53 426.321 299.781 425.959 303.025 425.568L302.786 423.582C299.554 423.972 296.314 424.333 293.068 424.667L293.272 426.656ZM312.763 424.305C316.011 423.853 319.249 423.371 322.476 422.858L322.162 420.883C318.948 421.394 315.723 421.874 312.487 422.324L312.763 424.305ZM332.149 421.22C335.383 420.637 338.603 420.022 341.806 419.373L341.408 417.412C338.22 418.059 335.015 418.671 331.794 419.251L332.149 421.22ZM351.391 417.315C354.6 416.587 357.791 415.822 360.959 415.02L360.469 413.081C357.316 413.879 354.142 414.64 350.948 415.364L351.391 417.315ZM370.448 412.488C373.611 411.598 376.75 410.669 379.862 409.699L379.267 407.79C376.173 408.754 373.052 409.678 369.906 410.562L370.448 412.488ZM389.213 406.632C392.318 405.561 395.392 404.447 398.433 403.288L397.721 401.419C394.7 402.57 391.646 403.677 388.561 404.741L389.213 406.632ZM407.576 399.625C409.082 398.991 410.58 398.345 412.067 397.688L411.259 395.858C409.782 396.511 408.296 397.152 406.8 397.782L407.576 399.625ZM412.067 397.688C413.599 397.011 415.122 396.331 416.637 395.649L415.817 393.825C414.305 394.505 412.786 395.183 411.259 395.858L412.067 397.688ZM425.631 391.532C428.666 390.119 431.668 388.697 434.635 387.267L433.767 385.465C430.807 386.891 427.814 388.309 424.787 389.719L425.631 391.532ZM443.542 382.903C446.521 381.42 449.463 379.929 452.371 378.432L451.455 376.654C448.556 378.147 445.621 379.633 442.65 381.113L443.542 382.903ZM461.196 373.814C464.145 372.246 467.055 370.672 469.927 369.095L468.965 367.342C466.1 368.915 463.198 370.484 460.257 372.048L461.196 373.814ZM478.565 364.274C481.48 362.621 484.354 360.965 487.186 359.307L486.176 357.581C483.352 359.234 480.486 360.886 477.579 362.534L478.565 364.274ZM495.732 354.226C498.595 352.497 501.413 350.768 504.186 349.04L503.128 347.342C500.363 349.065 497.553 350.79 494.698 352.514L495.732 354.226ZM512.549 343.747C515.372 341.932 518.146 340.121 520.87 338.315L519.765 336.648C517.048 338.449 514.283 340.255 511.468 342.064L512.549 343.747ZM529.121 332.759C531.896 330.861 534.616 328.971 537.281 327.091L536.128 325.457C533.47 327.331 530.759 329.216 527.992 331.108L529.121 332.759ZM545.349 321.309C548.071 319.328 550.731 317.361 553.328 315.41L552.127 313.811C549.538 315.755 546.886 317.717 544.172 319.692L545.349 321.309ZM561.217 309.391C563.888 307.32 566.487 305.272 569.015 303.249L567.765 301.688C565.246 303.704 562.655 305.746 559.992 307.81L561.217 309.391ZM576.719 296.982C579.341 294.813 581.876 292.68 584.325 290.586L583.025 289.066C580.585 291.153 578.058 293.279 575.444 295.44L576.719 296.982ZM591.822 284.065C594.39 281.793 596.847 279.577 599.193 277.425L597.841 275.951C595.504 278.095 593.056 280.303 590.496 282.568L591.822 284.065ZM606.417 270.676C608.967 268.248 611.356 265.924 613.584 263.715L612.176 262.294C609.957 264.494 607.578 266.809 605.038 269.227L606.417 270.676ZM620.546 256.661C623.121 253.992 625.393 251.568 627.363 249.417L625.889 248.066C623.93 250.204 621.67 252.616 619.107 255.272L620.546 256.661ZM633.955 241.987C635.009 240.753 635.798 239.802 636.325 239.157C636.589 238.835 636.787 238.589 636.919 238.423C636.986 238.341 637.035 238.278 637.069 238.235C637.086 238.214 637.099 238.198 637.107 238.187C637.112 238.181 637.115 238.177 637.117 238.174C637.118 238.173 637.119 238.172 637.12 238.171C637.12 238.17 637.12 238.17 637.121 238.17C637.121 238.17 637.121 238.17 637.121 238.169C637.121 238.169 637.121 238.169 637.121 238.169C637.121 238.169 637.121 238.169 636.334 237.553C635.546 236.936 635.547 236.936 635.547 236.936L635.547 236.936C635.547 236.936 635.547 236.936 635.546 236.936C635.546 236.936 635.546 236.936 635.546 236.937C635.546 236.937 635.545 236.938 635.544 236.939C635.542 236.941 635.54 236.945 635.536 236.95C635.528 236.959 635.517 236.974 635.501 236.994C635.469 237.034 635.422 237.094 635.357 237.174C635.229 237.334 635.036 237.574 634.777 237.891C634.259 238.525 633.479 239.465 632.435 240.688L633.955 241.987Z" fill="#202020"/>
<g clip-path="url(#clip0_211_163)">
<rect width="30" height="20.4294" transform="translate(340.971 245.039) rotate(9.78258)" fill="white"/>
<mask id="path-2-outside-1_211_163" maskUnits="userSpaceOnUse" x="336.422" y="243.856" width="35.2727" height="27.1172" fill="black">
<rect fill="white" x="336.422" y="243.856" width="35.2727" height="27.1172"/>
<path d="M341.065 264.354C341.642 263.893 342.159 263.422 342.666 263.011C343.173 262.601 343.75 262.14 344.267 261.669L347.48 258.923L347.997 258.452C347.997 258.452 349.792 256.707 349.721 256.757C349.873 256.597 350.036 256.376 350.177 256.276L350.398 256.438L351.161 257.068C351.161 257.068 351.664 257.403 352.156 257.799C352.658 258.135 353.161 258.471 353.161 258.471C353.442 258.644 353.674 258.746 353.844 258.838C353.884 258.969 353.934 259.04 353.984 259.111C354.095 259.192 354.276 259.223 354.336 259.234C354.397 259.244 354.397 259.244 354.397 259.244C354.751 258.994 355.166 258.754 355.642 258.525L357.067 257.837C357.341 257.697 357.553 257.547 357.816 257.468L358.018 257.378C358.339 257.683 358.6 257.977 358.921 258.281L364.564 264.546L365.035 265.063C365.035 265.063 366.851 266.808 366.741 266.726C367.443 267.346 367.946 267.681 367.366 266.71C367.447 266.599 367.5 266.297 367.643 265.824C367.871 264.867 368.04 263.526 368.04 263.526L368.861 251.902L368.969 250.551C369.061 250.38 369.132 250.33 368.94 250.359C368.901 250.228 368.78 250.207 368.73 250.136C369.113 250.078 369.013 249.936 367.996 249.698C367.039 249.471 365.698 249.302 365.698 249.302L342.854 247.48L341.382 247.351L341.311 247.401C341.098 247.551 341.017 247.661 340.996 247.782C340.765 247.68 340.552 247.83 340.46 248.001L340.45 248.062L340.321 249.533L339.416 261.642C339.416 261.642 339.362 264.122 339.372 264.062C339.351 264.183 339.391 264.314 339.37 264.435L339.299 264.485L339.289 264.546C339.176 264.838 339.205 265.029 339.316 265.111C339.285 265.292 339.445 265.444 339.556 265.526L339.616 265.536L341.088 265.665L363.993 267.498C363.993 267.498 366.474 267.552 366.413 267.542C367.412 267.527 368.058 267.389 366.497 267.058C365.54 266.831 364.199 266.662 364.199 266.662L341.173 264.808L340.558 264.765C340.711 264.604 340.913 264.514 341.065 264.354ZM367.093 263.239C367.093 263.239 367.039 265.719 367.049 265.659C367.068 265.911 367.087 266.164 367.116 266.355C367.116 266.355 367.116 266.355 367.066 266.284C366.516 265.505 365.705 264.431 365.705 264.431L365.123 263.833L359.48 257.568C359.269 257.345 358.998 257.112 358.798 256.828L361.277 255.45L364.099 253.882L365.486 253.063L366.315 252.583C366.315 252.583 366.812 252.233 367.368 251.893C367.652 251.693 367.864 251.543 368.017 251.383L368.004 251.816L367.093 263.239ZM342.768 248.337L365.492 250.138C365.492 250.138 367.973 250.192 367.912 250.182C368.033 250.203 368.165 250.163 368.225 250.174C368.154 250.224 368.154 250.224 368.144 250.284L368.133 250.344L368.131 250.718C367.252 251.126 366.088 251.735 366.088 251.735L365.319 252.225L363.933 253.044L361.099 254.672L358.277 256.24C357.791 256.53 357.316 256.759 356.84 256.989C356.365 257.218 355.89 257.447 355.343 257.727C354.868 257.956 354.453 258.196 353.967 258.485L353.957 258.546C353.857 258.404 353.686 258.312 353.536 258.1C352.844 257.42 351.881 256.507 351.881 256.507L351.168 255.948L349.852 254.912L347.403 252.871C345.777 251.47 344.14 250.13 342.443 248.779C342.232 248.556 342.001 248.454 341.841 248.301L342.768 248.337ZM340.262 261.788L341.248 249.569L341.292 248.954C341.513 249.116 341.674 249.269 341.905 249.371C343.552 250.651 345.189 251.991 346.754 253.382L349.143 255.412L349.906 256.042C349.765 256.142 349.623 256.242 349.421 256.332C348.631 256.943 347.496 257.743 347.496 257.743L346.848 258.254L343.646 260.939C343.129 261.41 342.612 261.881 342.045 262.282C341.467 262.742 340.95 263.214 340.444 263.624C340.231 263.774 340.018 263.924 339.806 264.075C340.093 263.128 340.262 261.788 340.262 261.788Z"/>
</mask>
<path d="M341.065 264.354C341.642 263.893 342.159 263.422 342.666 263.011C343.173 262.601 343.75 262.14 344.267 261.669L347.48 258.923L347.997 258.452C347.997 258.452 349.792 256.707 349.721 256.757C349.873 256.597 350.036 256.376 350.177 256.276L350.398 256.438L351.161 257.068C351.161 257.068 351.664 257.403 352.156 257.799C352.658 258.135 353.161 258.471 353.161 258.471C353.442 258.644 353.674 258.746 353.844 258.838C353.884 258.969 353.934 259.04 353.984 259.111C354.095 259.192 354.276 259.223 354.336 259.234C354.397 259.244 354.397 259.244 354.397 259.244C354.751 258.994 355.166 258.754 355.642 258.525L357.067 257.837C357.341 257.697 357.553 257.547 357.816 257.468L358.018 257.378C358.339 257.683 358.6 257.977 358.921 258.281L364.564 264.546L365.035 265.063C365.035 265.063 366.851 266.808 366.741 266.726C367.443 267.346 367.946 267.681 367.366 266.71C367.447 266.599 367.5 266.297 367.643 265.824C367.871 264.867 368.04 263.526 368.04 263.526L368.861 251.902L368.969 250.551C369.061 250.38 369.132 250.33 368.94 250.359C368.901 250.228 368.78 250.207 368.73 250.136C369.113 250.078 369.013 249.936 367.996 249.698C367.039 249.471 365.698 249.302 365.698 249.302L342.854 247.48L341.382 247.351L341.311 247.401C341.098 247.551 341.017 247.661 340.996 247.782C340.765 247.68 340.552 247.83 340.46 248.001L340.45 248.062L340.321 249.533L339.416 261.642C339.416 261.642 339.362 264.122 339.372 264.062C339.351 264.183 339.391 264.314 339.37 264.435L339.299 264.485L339.289 264.546C339.176 264.838 339.205 265.029 339.316 265.111C339.285 265.292 339.445 265.444 339.556 265.526L339.616 265.536L341.088 265.665L363.993 267.498C363.993 267.498 366.474 267.552 366.413 267.542C367.412 267.527 368.058 267.389 366.497 267.058C365.54 266.831 364.199 266.662 364.199 266.662L341.173 264.808L340.558 264.765C340.711 264.604 340.913 264.514 341.065 264.354ZM367.093 263.239C367.093 263.239 367.039 265.719 367.049 265.659C367.068 265.911 367.087 266.164 367.116 266.355C367.116 266.355 367.116 266.355 367.066 266.284C366.516 265.505 365.705 264.431 365.705 264.431L365.123 263.833L359.48 257.568C359.269 257.345 358.998 257.112 358.798 256.828L361.277 255.45L364.099 253.882L365.486 253.063L366.315 252.583C366.315 252.583 366.812 252.233 367.368 251.893C367.652 251.693 367.864 251.543 368.017 251.383L368.004 251.816L367.093 263.239ZM342.768 248.337L365.492 250.138C365.492 250.138 367.973 250.192 367.912 250.182C368.033 250.203 368.165 250.163 368.225 250.174C368.154 250.224 368.154 250.224 368.144 250.284L368.133 250.344L368.131 250.718C367.252 251.126 366.088 251.735 366.088 251.735L365.319 252.225L363.933 253.044L361.099 254.672L358.277 256.24C357.791 256.53 357.316 256.759 356.84 256.989C356.365 257.218 355.89 257.447 355.343 257.727C354.868 257.956 354.453 258.196 353.967 258.485L353.957 258.546C353.857 258.404 353.686 258.312 353.536 258.1C352.844 257.42 351.881 256.507 351.881 256.507L351.168 255.948L349.852 254.912L347.403 252.871C345.777 251.47 344.14 250.13 342.443 248.779C342.232 248.556 342.001 248.454 341.841 248.301L342.768 248.337ZM340.262 261.788L341.248 249.569L341.292 248.954C341.513 249.116 341.674 249.269 341.905 249.371C343.552 250.651 345.189 251.991 346.754 253.382L349.143 255.412L349.906 256.042C349.765 256.142 349.623 256.242 349.421 256.332C348.631 256.943 347.496 257.743 347.496 257.743L346.848 258.254L343.646 260.939C343.129 261.41 342.612 261.881 342.045 262.282C341.467 262.742 340.95 263.214 340.444 263.624C340.231 263.774 340.018 263.924 339.806 264.075C340.093 263.128 340.262 261.788 340.262 261.788Z" fill="#202020"/>
<path d="M341.065 264.354C341.642 263.893 342.159 263.422 342.666 263.011C343.173 262.601 343.75 262.14 344.267 261.669L347.48 258.923L347.997 258.452C347.997 258.452 349.792 256.707 349.721 256.757C349.873 256.597 350.036 256.376 350.177 256.276L350.398 256.438L351.161 257.068C351.161 257.068 351.664 257.403 352.156 257.799C352.658 258.135 353.161 258.471 353.161 258.471C353.442 258.644 353.674 258.746 353.844 258.838C353.884 258.969 353.934 259.04 353.984 259.111C354.095 259.192 354.276 259.223 354.336 259.234C354.397 259.244 354.397 259.244 354.397 259.244C354.751 258.994 355.166 258.754 355.642 258.525L357.067 257.837C357.341 257.697 357.553 257.547 357.816 257.468L358.018 257.378C358.339 257.683 358.6 257.977 358.921 258.281L364.564 264.546L365.035 265.063C365.035 265.063 366.851 266.808 366.741 266.726C367.443 267.346 367.946 267.681 367.366 266.71C367.447 266.599 367.5 266.297 367.643 265.824C367.871 264.867 368.04 263.526 368.04 263.526L368.861 251.902L368.969 250.551C369.061 250.38 369.132 250.33 368.94 250.359C368.901 250.228 368.78 250.207 368.73 250.136C369.113 250.078 369.013 249.936 367.996 249.698C367.039 249.471 365.698 249.302 365.698 249.302L342.854 247.48L341.382 247.351L341.311 247.401C341.098 247.551 341.017 247.661 340.996 247.782C340.765 247.68 340.552 247.83 340.46 248.001L340.45 248.062L340.321 249.533L339.416 261.642C339.416 261.642 339.362 264.122 339.372 264.062C339.351 264.183 339.391 264.314 339.37 264.435L339.299 264.485L339.289 264.546C339.176 264.838 339.205 265.029 339.316 265.111C339.285 265.292 339.445 265.444 339.556 265.526L339.616 265.536L341.088 265.665L363.993 267.498C363.993 267.498 366.474 267.552 366.413 267.542C367.412 267.527 368.058 267.389 366.497 267.058C365.54 266.831 364.199 266.662 364.199 266.662L341.173 264.808L340.558 264.765C340.711 264.604 340.913 264.514 341.065 264.354ZM367.093 263.239C367.093 263.239 367.039 265.719 367.049 265.659C367.068 265.911 367.087 266.164 367.116 266.355C367.116 266.355 367.116 266.355 367.066 266.284C366.516 265.505 365.705 264.431 365.705 264.431L365.123 263.833L359.48 257.568C359.269 257.345 358.998 257.112 358.798 256.828L361.277 255.45L364.099 253.882L365.486 253.063L366.315 252.583C366.315 252.583 366.812 252.233 367.368 251.893C367.652 251.693 367.864 251.543 368.017 251.383L368.004 251.816L367.093 263.239ZM342.768 248.337L365.492 250.138C365.492 250.138 367.973 250.192 367.912 250.182C368.033 250.203 368.165 250.163 368.225 250.174C368.154 250.224 368.154 250.224 368.144 250.284L368.133 250.344L368.131 250.718C367.252 251.126 366.088 251.735 366.088 251.735L365.319 252.225L363.933 253.044L361.099 254.672L358.277 256.24C357.791 256.53 357.316 256.759 356.84 256.989C356.365 257.218 355.89 257.447 355.343 257.727C354.868 257.956 354.453 258.196 353.967 258.485L353.957 258.546C353.857 258.404 353.686 258.312 353.536 258.1C352.844 257.42 351.881 256.507 351.881 256.507L351.168 255.948L349.852 254.912L347.403 252.871C345.777 251.47 344.14 250.13 342.443 248.779C342.232 248.556 342.001 248.454 341.841 248.301L342.768 248.337ZM340.262 261.788L341.248 249.569L341.292 248.954C341.513 249.116 341.674 249.269 341.905 249.371C343.552 250.651 345.189 251.991 346.754 253.382L349.143 255.412L349.906 256.042C349.765 256.142 349.623 256.242 349.421 256.332C348.631 256.943 347.496 257.743 347.496 257.743L346.848 258.254L343.646 260.939C343.129 261.41 342.612 261.881 342.045 262.282C341.467 262.742 340.95 263.214 340.444 263.624C340.231 263.774 340.018 263.924 339.806 264.075C340.093 263.128 340.262 261.788 340.262 261.788Z" stroke="#202020" stroke-width="0.8" mask="url(#path-2-outside-1_211_163)"/>
</g>
<g clip-path="url(#clip1_211_163)">
<rect width="30" height="20.4294" transform="translate(385.358 230.769) rotate(-13.319)" fill="white"/>
<mask id="path-3-outside-2_211_163" maskUnits="userSpaceOnUse" x="384.148" y="222.628" width="36.2075" height="28.7802" fill="black">
<rect fill="white" x="384.148" y="222.628" width="36.2075" height="28.7802"/>
<path d="M393.023 248.499C393.373 247.849 393.664 247.212 393.969 246.636C394.274 246.059 394.624 245.409 394.915 244.773L396.793 240.987L397.083 240.351C397.083 240.351 398.05 238.041 398.004 238.115C398.081 237.908 398.144 237.641 398.235 237.493L398.502 237.556L399.451 237.836C399.451 237.836 400.045 237.947 400.653 238.118C401.247 238.23 401.84 238.342 401.84 238.342C402.167 238.39 402.42 238.394 402.613 238.411C402.701 238.516 402.775 238.562 402.849 238.607C402.983 238.639 403.162 238.596 403.221 238.582C403.281 238.568 403.281 238.568 403.281 238.568C403.509 238.199 403.796 237.816 404.144 237.418L405.185 236.226C405.382 235.99 405.518 235.769 405.729 235.593L405.88 235.431C406.295 235.585 406.65 235.753 407.064 235.907L414.713 239.455L415.349 239.746C415.349 239.746 417.704 240.638 417.571 240.607C418.46 240.901 419.054 241.012 418.139 240.346C418.171 240.213 418.1 239.914 418.047 239.422C417.88 238.453 417.51 237.154 417.51 237.154L413.704 226.139L413.274 224.854C413.291 224.661 413.337 224.587 413.172 224.689C413.084 224.584 412.964 224.612 412.891 224.567C413.221 224.362 413.073 224.271 412.044 224.452C411.075 224.618 409.775 224.989 409.775 224.989L388.048 232.276L386.643 232.735L386.598 232.809C386.461 233.03 386.429 233.164 386.458 233.283C386.205 233.28 386.068 233.501 386.051 233.695L386.065 233.754L386.523 235.159L390.442 246.651C390.442 246.651 391.366 248.954 391.351 248.895C391.38 249.014 391.468 249.119 391.496 249.239L391.45 249.313L391.464 249.372C391.475 249.685 391.578 249.85 391.711 249.881C391.753 250.06 391.961 250.137 392.094 250.169L392.154 250.155L393.559 249.696L415.346 242.395C415.346 242.395 417.649 241.471 417.589 241.485C418.502 241.08 419.043 240.7 417.476 241.008C416.507 241.174 415.208 241.545 415.208 241.545L393.301 248.874L392.718 249.075C392.795 248.868 392.946 248.706 393.023 248.499ZM416.526 237.261C416.526 237.261 417.45 239.564 417.436 239.504C417.552 239.729 417.668 239.953 417.77 240.118C417.77 240.118 417.77 240.118 417.696 240.073C416.884 239.572 415.717 238.902 415.717 238.902L414.947 238.58L407.298 235.032C407.017 234.91 406.676 234.801 406.381 234.619L408.12 232.379L410.102 229.829L411.055 228.532L411.63 227.765C411.63 227.765 411.949 227.248 412.328 226.717C412.51 226.422 412.647 226.2 412.724 225.993L412.883 226.397L416.526 237.261ZM388.305 233.098L409.913 225.839C409.913 225.839 412.217 224.915 412.157 224.929C412.276 224.901 412.382 224.813 412.441 224.799C412.396 224.873 412.396 224.873 412.41 224.933L412.424 224.992L412.569 225.336C411.92 226.057 411.088 227.074 411.088 227.074L410.573 227.826L409.619 229.124L407.652 231.733L405.671 234.283C405.338 234.74 404.991 235.137 404.643 235.535C404.296 235.932 403.949 236.329 403.556 236.801C403.209 237.198 402.921 237.581 402.588 238.039L402.602 238.098C402.455 238.007 402.262 237.99 402.04 237.853C401.137 237.5 399.893 237.038 399.893 237.038L399.018 236.803L397.401 236.366L394.347 235.45C392.302 234.8 390.27 234.209 388.179 233.632C387.898 233.509 387.645 233.506 387.438 233.429L388.305 233.098ZM391.278 246.453L387.391 234.828L387.19 234.245C387.457 234.308 387.664 234.385 387.917 234.388C389.934 234.919 391.965 235.51 393.951 236.174L396.945 237.105L397.894 237.385C397.803 237.532 397.712 237.68 397.561 237.842C397.074 238.714 396.345 239.895 396.345 239.895L395.949 240.619L394.057 244.345C393.766 244.982 393.476 245.618 393.111 246.208C392.761 246.859 392.47 247.495 392.165 248.072C392.029 248.293 391.892 248.515 391.755 248.736C391.648 247.753 391.278 246.453 391.278 246.453Z"/>
</mask>
<path d="M393.023 248.499C393.373 247.849 393.664 247.212 393.969 246.636C394.274 246.059 394.624 245.409 394.915 244.773L396.793 240.987L397.083 240.351C397.083 240.351 398.05 238.041 398.004 238.115C398.081 237.908 398.144 237.641 398.235 237.493L398.502 237.556L399.451 237.836C399.451 237.836 400.045 237.947 400.653 238.118C401.247 238.23 401.84 238.342 401.84 238.342C402.167 238.39 402.42 238.394 402.613 238.411C402.701 238.516 402.775 238.562 402.849 238.607C402.983 238.639 403.162 238.596 403.221 238.582C403.281 238.568 403.281 238.568 403.281 238.568C403.509 238.199 403.796 237.816 404.144 237.418L405.185 236.226C405.382 235.99 405.518 235.769 405.729 235.593L405.88 235.431C406.295 235.585 406.65 235.753 407.064 235.907L414.713 239.455L415.349 239.746C415.349 239.746 417.704 240.638 417.571 240.607C418.46 240.901 419.054 241.012 418.139 240.346C418.171 240.213 418.1 239.914 418.047 239.422C417.88 238.453 417.51 237.154 417.51 237.154L413.704 226.139L413.274 224.854C413.291 224.661 413.337 224.587 413.172 224.689C413.084 224.584 412.964 224.612 412.891 224.567C413.221 224.362 413.073 224.271 412.044 224.452C411.075 224.618 409.775 224.989 409.775 224.989L388.048 232.276L386.643 232.735L386.598 232.809C386.461 233.03 386.429 233.164 386.458 233.283C386.205 233.28 386.068 233.501 386.051 233.695L386.065 233.754L386.523 235.159L390.442 246.651C390.442 246.651 391.366 248.954 391.351 248.895C391.38 249.014 391.468 249.119 391.496 249.239L391.45 249.313L391.464 249.372C391.475 249.685 391.578 249.85 391.711 249.881C391.753 250.06 391.961 250.137 392.094 250.169L392.154 250.155L393.559 249.696L415.346 242.395C415.346 242.395 417.649 241.471 417.589 241.485C418.502 241.08 419.043 240.7 417.476 241.008C416.507 241.174 415.208 241.545 415.208 241.545L393.301 248.874L392.718 249.075C392.795 248.868 392.946 248.706 393.023 248.499ZM416.526 237.261C416.526 237.261 417.45 239.564 417.436 239.504C417.552 239.729 417.668 239.953 417.77 240.118C417.77 240.118 417.77 240.118 417.696 240.073C416.884 239.572 415.717 238.902 415.717 238.902L414.947 238.58L407.298 235.032C407.017 234.91 406.676 234.801 406.381 234.619L408.12 232.379L410.102 229.829L411.055 228.532L411.63 227.765C411.63 227.765 411.949 227.248 412.328 226.717C412.51 226.422 412.647 226.2 412.724 225.993L412.883 226.397L416.526 237.261ZM388.305 233.098L409.913 225.839C409.913 225.839 412.217 224.915 412.157 224.929C412.276 224.901 412.382 224.813 412.441 224.799C412.396 224.873 412.396 224.873 412.41 224.933L412.424 224.992L412.569 225.336C411.92 226.057 411.088 227.074 411.088 227.074L410.573 227.826L409.619 229.124L407.652 231.733L405.671 234.283C405.338 234.74 404.991 235.137 404.643 235.535C404.296 235.932 403.949 236.329 403.556 236.801C403.209 237.198 402.921 237.581 402.588 238.039L402.602 238.098C402.455 238.007 402.262 237.99 402.04 237.853C401.137 237.5 399.893 237.038 399.893 237.038L399.018 236.803L397.401 236.366L394.347 235.45C392.302 234.8 390.27 234.209 388.179 233.632C387.898 233.509 387.645 233.506 387.438 233.429L388.305 233.098ZM391.278 246.453L387.391 234.828L387.19 234.245C387.457 234.308 387.664 234.385 387.917 234.388C389.934 234.919 391.965 235.51 393.951 236.174L396.945 237.105L397.894 237.385C397.803 237.532 397.712 237.68 397.561 237.842C397.074 238.714 396.345 239.895 396.345 239.895L395.949 240.619L394.057 244.345C393.766 244.982 393.476 245.618 393.111 246.208C392.761 246.859 392.47 247.495 392.165 248.072C392.029 248.293 391.892 248.515 391.755 248.736C391.648 247.753 391.278 246.453 391.278 246.453Z" fill="#202020"/>
<path d="M393.023 248.499C393.373 247.849 393.664 247.212 393.969 246.636C394.274 246.059 394.624 245.409 394.915 244.773L396.793 240.987L397.083 240.351C397.083 240.351 398.05 238.041 398.004 238.115C398.081 237.908 398.144 237.641 398.235 237.493L398.502 237.556L399.451 237.836C399.451 237.836 400.045 237.947 400.653 238.118C401.247 238.23 401.84 238.342 401.84 238.342C402.167 238.39 402.42 238.394 402.613 238.411C402.701 238.516 402.775 238.562 402.849 238.607C402.983 238.639 403.162 238.596 403.221 238.582C403.281 238.568 403.281 238.568 403.281 238.568C403.509 238.199 403.796 237.816 404.144 237.418L405.185 236.226C405.382 235.99 405.518 235.769 405.729 235.593L405.88 235.431C406.295 235.585 406.65 235.753 407.064 235.907L414.713 239.455L415.349 239.746C415.349 239.746 417.704 240.638 417.571 240.607C418.46 240.901 419.054 241.012 418.139 240.346C418.171 240.213 418.1 239.914 418.047 239.422C417.88 238.453 417.51 237.154 417.51 237.154L413.704 226.139L413.274 224.854C413.291 224.661 413.337 224.587 413.172 224.689C413.084 224.584 412.964 224.612 412.891 224.567C413.221 224.362 413.073 224.271 412.044 224.452C411.075 224.618 409.775 224.989 409.775 224.989L388.048 232.276L386.643 232.735L386.598 232.809C386.461 233.03 386.429 233.164 386.458 233.283C386.205 233.28 386.068 233.501 386.051 233.695L386.065 233.754L386.523 235.159L390.442 246.651C390.442 246.651 391.366 248.954 391.351 248.895C391.38 249.014 391.468 249.119 391.496 249.239L391.45 249.313L391.464 249.372C391.475 249.685 391.578 249.85 391.711 249.881C391.753 250.06 391.961 250.137 392.094 250.169L392.154 250.155L393.559 249.696L415.346 242.395C415.346 242.395 417.649 241.471 417.589 241.485C418.502 241.08 419.043 240.7 417.476 241.008C416.507 241.174 415.208 241.545 415.208 241.545L393.301 248.874L392.718 249.075C392.795 248.868 392.946 248.706 393.023 248.499ZM416.526 237.261C416.526 237.261 417.45 239.564 417.436 239.504C417.552 239.729 417.668 239.953 417.77 240.118C417.77 240.118 417.77 240.118 417.696 240.073C416.884 239.572 415.717 238.902 415.717 238.902L414.947 238.58L407.298 235.032C407.017 234.91 406.676 234.801 406.381 234.619L408.12 232.379L410.102 229.829L411.055 228.532L411.63 227.765C411.63 227.765 411.949 227.248 412.328 226.717C412.51 226.422 412.647 226.2 412.724 225.993L412.883 226.397L416.526 237.261ZM388.305 233.098L409.913 225.839C409.913 225.839 412.217 224.915 412.157 224.929C412.276 224.901 412.382 224.813 412.441 224.799C412.396 224.873 412.396 224.873 412.41 224.933L412.424 224.992L412.569 225.336C411.92 226.057 411.088 227.074 411.088 227.074L410.573 227.826L409.619 229.124L407.652 231.733L405.671 234.283C405.338 234.74 404.991 235.137 404.643 235.535C404.296 235.932 403.949 236.329 403.556 236.801C403.209 237.198 402.921 237.581 402.588 238.039L402.602 238.098C402.455 238.007 402.262 237.99 402.04 237.853C401.137 237.5 399.893 237.038 399.893 237.038L399.018 236.803L397.401 236.366L394.347 235.45C392.302 234.8 390.27 234.209 388.179 233.632C387.898 233.509 387.645 233.506 387.438 233.429L388.305 233.098ZM391.278 246.453L387.391 234.828L387.19 234.245C387.457 234.308 387.664 234.385 387.917 234.388C389.934 234.919 391.965 235.51 393.951 236.174L396.945 237.105L397.894 237.385C397.803 237.532 397.712 237.68 397.561 237.842C397.074 238.714 396.345 239.895 396.345 239.895L395.949 240.619L394.057 244.345C393.766 244.982 393.476 245.618 393.111 246.208C392.761 246.859 392.47 247.495 392.165 248.072C392.029 248.293 391.892 248.515 391.755 248.736C391.648 247.753 391.278 246.453 391.278 246.453Z" stroke="#202020" stroke-width="0.8" mask="url(#path-3-outside-2_211_163)"/>
</g>
<path d="M727.056 75.259C712.492 95.0943 687.107 136.482 707.052 151.127C726.997 165.773 784.72 148.13 799.285 128.295C813.849 108.459 805.98 35.9605 786.035 21.3151C766.09 6.66972 741.621 55.4237 727.056 75.259Z" fill="#CDE3F4"/>
<g clip-path="url(#clip2_211_163)">
<path d="M674.132 74.4511C673.539 74.3324 672.946 74.6883 672.472 75.1628C672.472 75.1628 672.472 75.2814 672.353 75.2814C672.234 75.4001 672.116 75.6373 671.997 75.8745C671.76 76.349 671.641 76.9422 671.641 77.4167C671.641 77.8912 671.641 78.3657 671.76 78.7215C671.76 79.0774 671.76 79.3146 671.76 79.6705C671.76 80.145 671.879 80.6195 672.234 80.9754C672.59 81.4499 673.302 81.8057 674.014 81.6871C674.726 81.5685 675.2 81.094 675.437 80.5009C675.675 80.145 675.675 79.6705 675.675 79.196C675.675 78.9588 675.793 78.7215 675.793 78.4843C675.912 77.5353 675.793 76.4677 675.437 75.6373C675.2 75.0442 674.844 74.5697 674.132 74.4511Z" fill="#202020"/>
<path d="M700.467 79.7891C700.467 80.2636 700.586 80.7381 700.942 81.094C701.297 81.5685 702.009 81.9244 702.721 81.8057C703.433 81.6871 703.907 81.2126 704.144 80.6195C704.382 80.2636 704.382 79.7891 704.382 79.3146C704.382 79.0774 704.5 78.8401 704.5 78.6029C704.619 77.6539 704.5 76.5863 704.144 75.7559C703.907 75.1628 703.433 74.8069 702.839 74.6883C702.246 74.5697 701.653 74.9256 701.179 75.4C701.179 75.4 701.179 75.5187 701.06 75.5187C700.942 75.6373 700.823 75.8745 700.704 76.1118C700.467 76.5863 700.348 77.1794 700.348 77.6539C700.348 78.1284 700.348 78.6029 700.467 78.9588C700.467 79.196 700.467 79.4333 700.467 79.7891Z" fill="#202020"/>
<path d="M692.045 85.2458C691.452 85.9576 690.977 86.5507 690.147 87.0252C689.316 87.4997 688.367 87.7369 687.537 87.7369C686.469 87.7369 685.52 87.4997 684.571 87.2624C684.097 87.1438 683.504 86.9066 683.029 86.6693C682.555 86.4321 682.08 86.1948 681.487 86.1948C681.25 86.1948 681.013 86.3135 681.131 86.6693C681.369 87.8556 682.911 88.6859 683.86 89.2791C685.046 89.9908 686.588 90.228 687.893 90.228C689.079 90.228 690.265 89.8722 691.333 89.2791C692.401 88.6859 693.587 87.7369 694.18 86.5507C694.654 85.1272 692.875 84.2968 692.045 85.2458Z" fill="#202020"/>
<path d="M744.832 69.113C743.053 68.0454 740.918 67.8081 738.783 67.6895C734.868 52.387 718.616 40.8805 699.162 40.8805C676.861 40.8805 658.711 56.0643 658.711 74.6883C658.711 89.1604 669.625 101.497 684.927 106.242C684.097 107.073 683.266 108.022 682.555 108.971C681.25 110.631 679.945 112.292 678.64 113.834C676.624 116.325 674.607 118.935 672.59 121.426C671.641 117.867 670.455 114.309 668.913 110.869C667.964 108.733 666.896 106.48 665.947 104.344C664.998 102.328 664.168 100.192 662.745 98.5317C659.898 94.973 655.153 95.5661 651.475 97.4641C649.696 98.4131 648.154 99.718 647.798 101.735C647.442 103.633 648.51 105.412 650.289 106.005C654.204 107.429 658.949 104.937 661.558 101.972C662.151 103.039 662.626 104.226 663.1 105.293C664.049 107.31 664.998 109.327 665.947 111.343C667.845 115.614 669.387 120.003 670.336 124.51C670.574 125.697 671.997 126.171 672.828 125.103C675.437 121.782 677.928 118.461 680.538 115.139C681.843 113.478 683.148 111.818 684.334 110.157C684.453 109.92 684.69 109.682 684.809 109.564C684.453 110.75 684.097 112.055 683.741 113.36C683.029 115.969 682.199 118.461 681.487 121.07C680.064 126.171 678.759 131.391 677.454 136.491C676.861 139.101 676.268 141.711 675.675 144.321C675.081 146.93 674.488 149.54 674.607 152.15C674.607 156.539 676.742 160.809 681.013 162.233C681.962 162.589 682.911 162.707 683.741 162.826C683.029 165.08 682.673 167.452 682.199 169.706C681.606 172.672 681.25 175.756 680.775 178.84C680.42 181.924 680.064 184.89 679.826 187.974C679.589 190.465 679.589 192.956 679.352 195.448C676.386 194.38 673.183 194.143 670.099 194.617C667.015 195.092 662.27 196.515 662.389 200.43C662.507 204.226 666.896 204.226 669.625 203.751C673.658 203.158 677.573 201.853 681.25 200.192C682.08 199.837 682.199 198.888 681.962 198.176C682.08 197.939 682.199 197.701 682.08 197.345C681.962 194.38 682.317 191.296 682.555 188.33C682.792 185.246 683.029 182.162 683.385 179.196C683.741 176.23 684.097 173.265 684.453 170.299C684.809 167.927 685.283 165.436 685.402 163.063C686.232 163.182 686.944 163.182 687.774 163.182C690.384 163.3 692.994 163.419 695.485 163.419C700.111 163.419 704.737 163.063 709.245 161.877C709.245 164.487 709.601 167.096 709.838 169.587C710.194 172.909 710.431 176.112 710.787 179.433C711.38 185.958 712.092 192.601 712.685 199.125C712.685 199.599 713.041 200.074 713.516 200.192C716.956 201.379 720.633 201.379 724.192 200.43C726.92 199.718 731.902 197.701 731.665 194.261C731.546 190.584 726.92 190.821 724.31 191.177C720.989 191.652 717.667 192.838 714.82 194.736C714.227 189.516 713.753 184.415 713.16 179.196C712.804 175.993 712.448 172.79 712.092 169.587C711.736 166.859 711.618 164.131 711.024 161.521C714.702 160.453 718.616 158.555 719.803 154.522C720.396 152.387 720.396 150.133 720.159 147.998C719.803 145.507 719.447 142.897 719.091 140.406C718.261 134.593 717.193 128.781 716.007 122.968C715.888 122.494 715.769 122.019 715.651 121.545C716.956 123.443 718.261 125.341 719.565 127.12C720.04 127.713 720.989 127.832 721.582 127.357C729.411 120.359 735.698 111.818 740.206 102.328C741.392 99.9552 744.121 94.7358 742.578 92.0074C743.29 89.5163 744.002 87.0252 744.714 84.6527C745.544 81.6871 746.73 78.6029 747.205 75.5187C748.035 73.1462 747.205 70.5365 744.832 69.113ZM654.915 103.277C653.966 103.633 650.882 104.344 650.645 102.802C650.408 101.023 653.373 99.9552 654.559 99.4807C656.339 98.8876 658.355 98.6503 659.779 99.9552C658.474 101.497 656.813 102.684 654.915 103.277ZM671.997 200.786C671.167 201.023 665.71 202.446 665.592 200.786C665.473 199.599 667.608 198.888 668.438 198.65C669.625 198.176 670.93 197.939 672.234 197.82C674.488 197.583 676.624 197.939 678.64 198.65C676.505 199.599 674.251 200.311 671.997 200.786ZM715.888 198.294C718.142 196.752 720.752 195.447 723.361 194.736C724.073 194.617 729.53 193.312 729.055 194.973C728.699 195.922 727.039 196.752 726.09 197.108C724.903 197.701 723.717 198.057 722.412 198.413C720.159 198.888 717.905 198.888 715.651 198.413C715.769 198.294 715.769 198.294 715.888 198.294ZM661.558 74.6883C661.558 57.6065 678.403 43.8461 699.162 43.8461C716.837 43.8461 731.784 53.9291 735.698 67.5709C734.868 67.5709 733.919 67.4522 733.089 67.4522C731.665 67.3336 730.004 67.215 728.581 67.5709C725.971 68.164 724.666 70.4178 724.073 72.7903C723.361 75.6373 723.124 78.7215 722.768 81.5685C722.294 85.2458 721.701 88.8046 721.226 92.4819C720.87 95.0916 720.396 97.7014 720.159 100.43C714.109 103.633 706.991 105.649 699.162 105.649C678.403 105.649 661.558 91.7702 661.558 74.6883ZM713.16 120.952C714.227 125.697 715.176 130.442 716.007 135.187C716.837 139.931 717.667 144.676 718.023 149.421C718.142 151.319 718.142 153.455 717.193 155.234C716.244 156.895 714.465 157.962 712.685 158.674C708.533 160.335 703.907 160.809 699.399 161.047C694.773 161.284 690.028 161.165 685.402 160.691C683.266 160.453 681.131 160.098 679.589 158.555C678.284 157.132 677.691 155.234 677.454 153.336C677.217 150.845 677.81 148.354 678.284 145.863C678.759 143.49 679.352 141.118 679.826 138.745C681.013 133.289 682.436 127.95 683.86 122.612C684.571 120.003 685.283 117.274 685.995 114.665C686.707 112.173 687.418 109.801 687.774 107.31C691.333 108.14 695.129 108.615 699.043 108.615C702.484 108.615 705.686 108.259 708.889 107.547C708.889 107.784 709.008 108.022 709.127 108.259C709.008 108.496 709.008 108.733 709.127 108.971C709.72 110.631 710.313 112.173 711.143 113.834C711.855 116.088 712.567 118.461 713.16 120.952ZM729.767 115.02C727.157 118.461 724.31 121.545 721.226 124.51C719.447 122.019 717.786 119.528 716.244 117.037C715.532 115.851 714.702 114.546 713.99 113.241C713.397 111.106 712.804 108.852 712.211 106.717C714.939 106.005 717.43 104.937 719.921 103.751C719.803 104.226 719.921 104.819 720.04 105.175C720.633 106.48 721.938 107.073 723.361 107.191C726.327 107.547 729.411 107.784 732.495 108.14C732.614 108.14 732.733 108.14 732.851 108.14C733.207 108.378 733.563 108.615 734.038 108.733C732.733 110.987 731.309 113.004 729.767 115.02ZM739.138 98.8876C738.308 100.786 737.478 102.684 736.41 104.582C736.054 105.175 735.698 105.886 735.342 106.48C732.377 105.293 731.072 101.735 732.258 98.769C732.97 97.1082 734.156 95.8034 735.698 94.7358C736.41 94.2613 738.071 93.3123 739.257 93.3123C739.257 93.4309 739.138 93.5495 739.138 93.6681C739.613 93.6681 739.969 93.7868 740.443 93.7868C741.274 94.973 739.613 97.82 739.138 98.8876ZM744.476 75.6373C743.883 78.4843 742.816 81.2126 742.104 83.941C741.392 86.1948 740.799 88.4487 740.087 90.7025C735.936 89.9908 731.546 93.7868 729.886 97.3455C728.818 99.8366 728.937 102.802 730.242 105.293C728.581 105.175 727.039 105.056 725.378 104.937C724.429 104.819 723.243 104.937 722.412 104.582C722.294 104.582 722.294 104.463 722.175 104.463L721.938 104.344L721.819 104.226C721.819 104.226 721.819 104.226 721.819 104.107C722.531 101.497 722.887 98.6503 723.243 95.922C723.717 93.075 724.073 90.228 724.548 87.3811C725.022 84.4155 725.378 81.5685 725.852 78.6029C726.09 77.298 726.208 75.9932 726.446 74.6883C726.564 73.6207 726.801 72.5531 727.276 71.6041C728.462 69.5875 732.14 70.4178 734.156 70.5365C736.647 70.6551 739.376 70.6551 741.748 71.3668C742.578 71.6041 743.409 71.8413 744.002 72.5531C744.832 73.1462 744.714 74.4511 744.476 75.6373Z" fill="#202020"/>
</g>
<g clip-path="url(#clip3_211_163)">
<path d="M785.481 75.2837C786.164 75.4373 786.963 75.5974 787.653 75.636L787.883 75.6489L787.877 75.7639C788.151 77.0485 788.419 78.4481 788.687 79.8477C788.961 81.1323 789.229 82.532 789.842 83.9509C789.842 83.9509 789.951 84.0724 790.066 84.0788C790.852 84.4689 791.318 84.3796 791.568 84.0474C791.574 83.9324 791.689 83.9388 791.696 83.8238C792.053 83.613 792.654 83.1851 793.39 82.4185C794.361 81.5497 795.461 80.4573 796.311 79.6972C796.554 79.48 796.79 79.3778 796.918 79.1542C797.155 79.052 797.276 78.9434 797.398 78.8348C797.641 78.6176 797.877 78.5155 797.877 78.5155C798.12 78.2983 798.472 78.2026 798.715 77.9854L799.187 77.781C799.303 77.7875 799.309 77.6724 799.424 77.6789L799.539 77.6853L799.891 77.5896C800.012 77.481 800.127 77.4874 800.357 77.5003C801.527 77.2195 802.913 77.1817 804.3 77.1438C805.693 76.991 807.202 76.8446 808.595 76.6917C811.388 76.2709 814.308 75.6266 817.038 74.2791C818.341 73.6597 819.658 72.8103 820.764 71.6029C821.864 70.5105 822.753 69.0601 823.181 67.5841C823.616 65.993 823.707 64.3826 823.445 62.8679C823.299 61.3597 822.801 59.9472 822.303 58.5347C821.805 57.1222 821.07 55.8119 820.214 54.6102C819.359 53.4084 818.388 52.2003 817.289 51.2157C815.091 49.2466 812.523 47.7183 809.699 46.6373C804.159 44.5967 798.177 44.2622 792.457 45.4424C789.658 45.9782 786.833 46.9741 784.212 48.4429C782.902 49.1774 781.7 50.0333 780.499 50.8892C779.405 51.8665 778.312 52.8439 777.321 54.0577C775.461 56.3768 774.028 59.2968 773.97 62.4089C773.796 65.5147 775.003 68.6976 777.187 70.8968C779.704 73.3453 782.631 74.6628 785.481 75.2837ZM779.282 56.129C780.03 55.1323 781.009 54.1485 781.98 53.2798C782.466 52.8454 782.952 52.411 783.546 52.0981C784.141 51.7852 784.627 51.3508 785.221 51.0379C787.49 49.6647 789.964 48.7646 792.539 48.1009C795.109 47.5522 797.78 47.2401 800.432 47.273C801.812 47.3502 803.078 47.4209 804.336 47.6067C805.595 47.7925 806.963 48.0997 808.209 48.5156C809.455 48.9314 810.694 49.4623 811.819 49.9867C812.381 50.249 812.937 50.6262 813.493 51.0034C813.717 51.1313 814.049 51.3807 814.272 51.5086C814.496 51.6365 814.828 51.8858 815.045 52.1287C817.032 53.7399 818.648 55.7918 819.785 58.1632C820.807 60.528 821.585 63.1101 821.335 65.5193C821.264 66.7846 820.746 67.7941 820.113 68.7972C819.48 69.8003 818.515 70.554 817.435 71.3013C815.281 72.6809 812.699 73.4596 810.136 73.8932C808.851 74.1675 807.458 74.3204 806.18 74.4797C805.483 74.5561 804.787 74.6325 804.205 74.7154L802 74.9383C801.304 75.0147 800.492 75.0847 799.789 75.2762C799.559 75.2633 799.438 75.3719 799.201 75.4741L798.85 75.5698L798.728 75.6784C798.492 75.7805 798.37 75.8891 798.14 75.8763C797.782 76.087 797.309 76.2914 796.951 76.5021C796.951 76.5021 796.83 76.6107 796.708 76.7193C796.587 76.8279 796.344 77.0451 796.101 77.2623C795.615 77.6967 795.001 78.3547 794.388 79.0127C793.39 80.3415 792.508 81.6768 792.514 81.5618C792.265 81.894 792.131 82.2327 792.003 82.4563C791.709 81.5168 791.422 80.4622 791.25 79.4141C790.975 78.1295 790.823 76.7363 790.44 75.3303L790.344 74.9787L790.14 74.5058L789.852 73.4512L789.859 73.3362L789.744 73.3298L789.514 73.3169L789.054 73.2912L788.133 73.2397C787.443 73.2011 786.875 73.0539 786.191 72.9003C783.68 72.4137 781.322 71.2434 779.456 69.5236C777.706 67.8103 776.684 65.4454 776.704 63.0234C776.725 60.6014 777.671 58.1158 779.282 56.129Z" fill="#202020"/>
<path d="M838.286 40.9665C839.577 40.5772 840.759 40.0664 841.948 39.4405C843.143 38.6997 844.115 37.8309 844.991 36.6106C845.752 35.3839 846.283 34.1443 846.475 32.7704C846.667 31.3965 846.623 30.1248 846.579 28.8531C846.26 26.2967 845.481 23.7147 843.987 21.5541C843.239 20.4738 842.371 19.5021 841.495 18.6455C840.505 17.7824 839.508 17.0343 838.39 16.3949C833.924 13.722 828.78 12.8574 823.808 13.0409C821.265 13.1294 818.817 13.5695 816.35 14.3546C813.883 15.1398 811.627 16.2829 809.581 17.7839C807.529 19.4 805.688 21.374 804.735 23.9746C803.788 26.4602 803.742 29.3423 804.636 31.9308C805.53 34.5193 807.146 36.5712 809.126 38.2974C810.117 39.1605 811.235 39.8 812.353 40.4394C812.692 40.5738 812.915 40.7016 813.254 40.836L813.707 40.9767L813.823 40.9832L813.068 42.0948C812.691 42.6507 812.307 43.3216 811.923 43.9924C811.917 44.1074 811.911 44.2225 811.911 44.2225C812.096 45.0405 812.543 45.2963 812.881 45.4306C813.112 45.4435 813.342 45.4564 813.578 45.3542C814.045 45.2649 814.511 45.1756 815.336 44.8756C816.627 44.4862 818.046 43.8732 819.1 43.586C819.688 43.3882 820.155 43.2989 820.506 43.2031C820.858 43.1074 821.088 43.1203 821.088 43.1203C821.439 43.0245 821.791 42.9288 822.136 42.9481C822.366 42.961 822.487 42.8524 822.717 42.8652L822.948 42.8781L823.874 42.8145C826.194 42.5981 828.616 42.6182 831.051 42.4082C833.39 41.8466 835.825 41.6366 838.286 40.9665ZM823.447 40.1367L822.52 40.2003L821.939 40.2832C821.587 40.3789 821.127 40.3532 820.661 40.4425C820.661 40.4425 820.194 40.5318 819.606 40.7297C818.903 40.9211 818.187 41.3426 817.356 41.7577C816.282 42.39 815.209 43.0223 814.851 43.233L815.362 42.3385L815.49 42.1149L815.739 41.7827C815.874 41.444 816.117 41.2268 816.251 40.8882L816.641 40.1023L816.89 39.7701L817.018 39.5465L816.903 39.54L815.21 38.8684C815.095 38.862 814.986 38.7405 814.756 38.7276L814.418 38.5933L814.079 38.459C813.855 38.3311 813.632 38.2032 813.293 38.0689C812.284 37.5509 811.396 36.9243 810.508 36.2977C808.853 34.9359 807.454 33.1268 806.643 31.1199C805.832 29.113 805.839 26.921 806.524 24.9977C807.215 22.9594 808.577 21.3047 810.386 19.9059C812.08 18.5006 814.099 17.4596 816.215 16.7702C818.331 16.0808 820.548 15.6279 822.868 15.4115C825.182 15.3101 827.488 15.3237 829.655 15.791C830.799 15.9703 831.821 16.2583 832.952 16.6677C833.968 17.0707 835.099 17.4801 835.993 17.9916C838.012 19.0277 839.782 20.3959 841.066 22.1985C842.356 23.8861 843.282 25.8994 843.735 28.1171C843.818 28.6987 843.907 29.1652 843.875 29.7404L843.945 30.552L843.9 31.3572C843.842 32.3924 843.669 33.4212 843.266 34.4372C842.467 36.3541 840.779 37.6443 838.779 38.3402C836.772 39.1511 834.445 39.4825 832.126 39.6989C829.806 39.9154 827.492 40.0168 825.064 40.1118C824.61 39.971 824.029 40.0539 823.447 40.1367Z" fill="#202020"/>
<path d="M775.969 47.2896L776.09 47.181C776.57 46.8617 776.608 46.1715 776.628 45.8264C776.634 45.7114 776.634 45.7114 776.519 45.705L773.913 42.7899L773.804 42.6685L774.175 42.2276C774.795 41.4546 775.524 40.803 776.144 40.03C777.5 38.4904 778.644 36.5928 779.111 34.4266C779.399 33.4042 779.464 32.2539 779.407 31.2122C779.349 30.1706 779.184 29.0074 778.781 27.9464C778.379 26.8855 777.856 25.9331 777.21 25.0893C776.565 24.2455 775.805 23.3953 774.917 22.7687C773.262 21.4069 771.237 20.4859 769.301 20.0315C768.278 19.7435 767.25 19.5706 766.221 19.3977L764.61 19.3076C764.035 19.2755 763.575 19.2497 762.994 19.3326C761.045 19.1082 758.948 19.4525 756.941 20.2634C755.049 21.0807 753.253 22.2495 751.674 23.6613C750.095 25.073 748.842 26.8491 747.928 28.7596L747.659 29.4369C747.531 29.6605 747.518 29.8905 747.39 30.1142C747.25 30.5678 746.987 31.1301 746.847 31.5838C746.674 32.6126 746.386 33.635 746.213 34.6638C745.982 36.7279 746.09 38.9263 747.009 41.0546C747.82 43.0616 749.334 44.877 751.117 46.0152C752.899 47.1534 755.052 47.8507 757.11 48.1966C759.168 48.5424 761.366 48.4346 763.354 47.9688C766.044 47.3116 765.456 47.5095 766.038 47.4266C766.389 47.3309 766.735 47.3502 767.086 47.2544C767.086 47.2544 767.438 47.1587 768.019 47.0758C768.601 46.993 769.412 46.923 770.218 46.968C771.834 46.943 773.317 47.2567 773.202 47.2503C774.467 47.321 775.611 47.5004 775.969 47.2896ZM769.528 44.8525C768.269 44.6667 767.228 44.7238 767.228 44.7238C766.761 44.8131 766.416 44.7938 765.949 44.8831C765.719 44.8702 765.483 44.9724 765.368 44.966L765.016 45.0617L764.901 45.0553L764.198 45.2467C763.259 45.5404 762.326 45.719 761.399 45.7825C760.472 45.8461 759.546 45.9097 758.626 45.8582C756.785 45.7553 754.964 45.3073 753.392 44.527C751.82 43.7468 750.504 42.5194 749.668 40.9725C748.831 39.4257 748.468 37.6746 748.57 35.8341C748.622 34.9139 748.788 34.0001 748.955 33.0863L749.108 32.4026C749.121 32.1725 749.249 31.9489 749.262 31.7189L749.793 30.4793C750.58 28.7925 751.59 27.2335 752.817 25.9175C753.182 25.5918 753.431 25.2595 753.795 24.9338L754.882 24.0714L756.078 23.3306C756.435 23.1198 756.908 22.9155 757.266 22.7047C758.922 21.9896 760.794 21.5174 762.648 21.3902C764.501 21.2631 766.335 21.481 768.156 21.929C769.977 22.377 771.664 23.1637 773.108 24.1675C773.887 24.6727 774.43 25.28 775.082 26.0087C775.619 26.7311 776.04 27.447 776.455 28.2779C776.755 29.1024 776.94 29.9204 777.004 30.8471C777.074 31.6587 777.022 32.5789 776.741 33.4863C776.414 35.1988 775.519 36.7642 774.285 38.1952C773.665 38.9683 773.051 39.6263 772.316 40.3929L771.824 40.9423C771.459 41.2681 771.204 41.7153 770.839 42.0411L770.59 42.3733L770.468 42.4819L770.577 42.6034L771.12 43.2107L771.989 44.1824L773.401 45.7613C772.154 45.3455 770.672 45.0318 769.528 44.8525Z" fill="#202020"/>
<path d="M785.635 56.0226C785.622 56.2527 785.615 56.3677 785.609 56.4828C785.609 56.4828 785.602 56.5978 785.718 56.6042C785.718 56.6042 785.718 56.6042 785.833 56.6107C785.948 56.6171 786.069 56.5085 786.069 56.5085C786.069 56.5085 786.063 56.6235 786.178 56.6299C786.178 56.6299 786.171 56.745 786.286 56.7514C786.395 56.8729 786.51 56.8793 786.733 57.0072C786.849 57.0136 786.849 57.0136 786.849 57.0136L787.2 56.9179L787.552 56.8222L788.478 56.7586C789.175 56.6822 789.756 56.5993 790.447 56.6379C793.687 56.4729 796.907 56.653 800.237 56.9546L802.192 57.064C802.192 57.064 803.924 57.0454 805.541 57.0204C807.158 56.9955 808.896 56.8619 808.666 56.849C810.059 56.6962 811.107 56.524 811.357 56.1918C811.6 55.9746 810.922 55.706 808.743 55.4687C805.995 55.0843 802.564 54.5462 802.564 54.5462L800.378 54.424C797.042 54.2375 793.713 53.9359 790.243 54.088C789.553 54.0494 788.856 54.1258 788.16 54.2023L787.22 54.4959L786.99 54.483C786.875 54.4766 786.875 54.4766 786.639 54.5787L786.05 54.7766L785.929 54.8852C785.801 55.1089 785.68 55.2175 785.667 55.4475C785.66 55.5625 785.539 55.6711 785.539 55.6711C785.539 55.6711 785.539 55.6711 785.532 55.7862C785.309 55.6583 785.635 56.0226 785.635 56.0226Z" fill="#202020"/>
<path d="M785.582 61.0967C785.69 61.2182 785.69 61.2182 785.69 61.2182L789.716 61.4433C793.627 61.662 797.545 61.7657 801.462 61.8694L803.302 61.9723C803.302 61.9723 805.034 61.9538 806.651 61.9288C808.268 61.9038 809.878 61.9939 809.763 61.9874C812.422 61.9053 814.281 61.6632 809.949 60.7286C807.444 60.1269 803.776 59.6911 803.776 59.6911L801.591 59.5688C797.68 59.3501 793.647 59.24 789.736 59.0213L785.825 58.8026C785.825 58.8026 785.704 58.9112 785.589 58.9048C784.381 59.8757 785.026 60.7195 785.582 61.0967Z" fill="#202020"/>
<path d="M792.917 64.0455C792.246 63.6618 791.339 63.3803 791.339 63.3803C791.339 63.3803 789.952 63.4181 788.572 63.3409C787.881 63.3023 787.191 63.2637 786.61 63.3466C786.035 63.3144 785.69 63.2951 785.69 63.2951L785.683 63.4101C785.28 64.4261 785.459 65.3592 785.554 65.7107C785.548 65.8257 785.548 65.8257 785.548 65.8257C785.548 65.8257 785.893 65.845 786.468 65.8772C787.043 65.9094 787.734 65.9479 788.43 65.8715C789.817 65.8337 791.197 65.9109 791.197 65.9109L792.833 65.5408C793.434 65.1129 793.92 64.6785 792.917 64.0455Z" fill="#202020"/>
<path d="M813.478 22.3865C813.586 22.508 813.586 22.508 813.586 22.508L817.612 22.7331C820.833 22.9132 823.939 23.0869 827.16 23.267L829 23.37C829 23.37 830.732 23.3514 832.342 23.4415C833.959 23.4165 835.569 23.5066 835.454 23.5001C838.107 23.533 839.973 23.1759 835.64 22.2413C833.135 21.6396 829.474 21.0887 829.474 21.0887L827.288 20.9665C824.067 20.7864 820.962 20.6127 817.741 20.4326L813.715 20.2074C813.715 20.2074 813.594 20.316 813.478 20.3096C812.283 21.0505 812.922 22.0093 813.478 22.3865Z" fill="#202020"/>
<path d="M833.983 27.1102C836.648 26.9131 838.399 26.5495 834.176 25.7363C831.664 25.2497 827.99 24.9289 827.99 24.9289L825.798 24.9217L817.158 24.6693C815.893 24.5985 814.512 24.5214 813.247 24.4506C813.247 24.4506 813.125 24.5592 813.01 24.5528C811.687 25.5173 812.441 26.4825 812.882 26.8533C812.99 26.9748 812.99 26.9748 812.99 26.9748C814.371 27.052 815.636 27.1227 817.016 27.1999L825.541 27.4459L827.497 27.5552C827.497 27.5552 829.229 27.5367 830.852 27.3967C832.59 27.2631 834.092 27.2317 833.983 27.1102Z" fill="#202020"/>
<path d="M826.186 30.3666C824.94 29.9507 823.227 29.6242 823.227 29.6242C823.227 29.6242 820.581 29.4763 817.936 29.3283C816.555 29.2511 815.29 29.1804 814.261 29.0074C813.801 28.9817 813.341 28.956 812.996 28.9367C812.766 28.9238 812.536 28.9109 812.536 28.9109L812.414 29.0195C812.293 29.1281 812.287 29.2432 812.28 29.3582C812.274 29.4732 812.267 29.5882 812.146 29.6968C812.018 29.9205 811.89 30.1441 811.884 30.2591C811.877 30.3741 811.871 30.4892 811.864 30.6042C811.858 30.7192 811.966 30.8407 811.966 30.8407C812.075 30.9621 812.069 31.0772 812.177 31.1986C812.171 31.3137 812.171 31.3137 812.286 31.3201C812.401 31.3265 815.04 31.5895 817.686 31.7375C820.331 31.8854 822.977 32.0333 822.977 32.0333C822.977 32.0333 826.217 31.8684 826.108 31.7469C827.393 31.4726 828.224 31.0575 826.186 30.3666Z" fill="#202020"/>
<path d="M765.515 25.8199C764.333 26.3307 762.914 26.9437 761.725 27.5696C760.658 28.0868 759.82 28.6169 759.82 28.6169C759.219 29.0449 758.504 29.4664 757.903 29.8943C756.465 30.8524 755.02 31.9255 753.575 32.9985C752.488 33.8609 751.517 34.7296 750.43 35.592L750.302 35.8156C750.097 37.4195 751.241 37.5989 751.829 37.401C751.944 37.4074 751.944 37.4074 751.95 37.2924C752.922 36.4236 753.894 35.5549 754.974 34.8076C756.304 33.7281 757.742 32.77 759.065 31.8055C759.545 31.4862 760.139 31.1732 760.625 30.7389C760.625 30.7389 761.948 29.7744 763.271 28.8099C764.594 27.8454 765.911 26.9959 765.796 26.9895C768.193 25.3927 769.536 24.0832 765.515 25.8199Z" fill="#202020"/>
<path d="M764.331 30.4846C761.96 31.6213 758.854 33.5245 758.854 33.5245L757.051 34.8084L756.572 35.1277C755.376 35.8686 754.29 36.7309 753.203 37.5932C753.203 37.5932 753.081 37.7018 753.075 37.8169C752.915 38.6156 753.119 39.0886 753.451 39.3379C753.784 39.5873 754.244 39.613 754.48 39.5109C754.595 39.5173 754.595 39.5173 754.595 39.5173C755.561 38.7636 756.647 37.9012 757.728 37.1539L758.207 36.8346L759.767 35.7679C759.767 35.7679 761.096 34.6884 762.419 33.7239C763.743 32.7594 764.957 31.6735 764.836 31.7821C767.022 29.8274 768.141 28.3899 764.331 30.4846Z" fill="#202020"/>
<path d="M761.664 36.9125C760.859 36.8675 759.919 37.1611 759.919 37.1611C759.919 37.1611 759.562 37.3719 759.089 37.5762C758.609 37.8956 757.9 38.2021 757.184 38.6236C756.468 39.0451 755.752 39.4666 755.266 39.901C754.787 40.2203 754.422 40.5461 754.422 40.5461L754.416 40.6611C754.818 41.7221 755.598 42.2273 755.936 42.3616L756.051 42.368C756.051 42.368 756.294 42.1508 756.774 41.8315C757.253 41.5121 757.854 41.0842 758.448 40.7713C759.049 40.3433 759.759 40.0368 760.232 39.8325C760.711 39.5131 761.063 39.4174 761.063 39.4174C761.063 39.4174 761.427 39.0916 761.791 38.7658C762.156 38.4401 762.52 38.1143 762.405 38.1078C762.789 37.437 762.942 36.7532 761.664 36.9125Z" fill="#202020"/>
</g>
<g clip-path="url(#clip4_211_163)">
<rect width="60" height="91.5" transform="translate(352.379 350.954) rotate(-2.6299)" fill="white"/>
<path d="M367.124 434.52C367.139 434.845 367.013 435.664 367.383 436.624C367.605 437.916 368.647 439.333 369.821 440.093C370.331 440.558 370.826 440.698 371.32 440.838C371.653 440.985 371.985 441.133 371.985 441.133C371.985 441.133 372.155 441.288 372.812 441.42C373.137 441.406 373.469 441.553 373.957 441.531C374.119 441.523 374.281 441.516 374.281 441.516C375.101 441.641 376.076 441.596 376.888 441.559C378.674 441.477 380.284 441.077 382.063 440.833C383.835 440.426 385.607 440.019 387.371 439.45C387.851 439.265 388.176 439.25 388.656 439.065C389.135 438.88 389.46 438.865 389.94 438.68C390.427 438.658 390.745 438.481 391.232 438.458C391.719 438.436 392.199 438.251 392.524 438.236C396.245 437.74 400.306 437.553 404.337 436.717C406.433 436.295 408.523 435.711 410.582 434.477C411.062 434.292 411.534 433.945 412.007 433.598C412.479 433.25 412.944 432.741 413.416 432.393C414.184 431.381 414.781 430.215 415.054 429.063C415.761 426.751 415.65 424.315 415.545 422.041C415.278 419.774 415.011 417.508 414.412 415.094C413.983 412.835 413.391 410.583 412.962 408.324C412.532 406.065 412.096 403.643 411.666 401.384C409.934 392.023 408.017 382.182 406.263 372.333C405.826 369.912 405.382 367.328 404.945 364.906C404.508 362.485 404.064 359.901 403.295 357.332C402.91 356.047 402.526 354.763 401.816 353.493C401.107 352.223 400.08 351.131 398.743 350.379C396.07 348.874 392.999 349.34 390.57 349.615C385.394 350.341 380.389 351.222 375.368 351.778C372.777 352.06 370.348 352.334 367.911 352.446C365.312 352.565 362.729 353.01 360.167 353.941C358.89 354.488 357.783 355.19 356.683 356.054C355.583 356.919 354.661 358.1 354.071 359.43C353.473 360.597 353.216 362.073 353.113 363.38C352.98 364.038 353.01 364.687 353.04 365.337L353.13 367.286C353.523 372.314 354.559 377.15 355.588 381.823C356.616 386.496 357.807 391.162 358.666 395.68C359.524 400.198 360.383 404.716 361.234 409.072C362.545 416.337 363.84 423.276 365.113 429.729C365.527 431.663 365.757 433.118 365.757 433.118L365.927 433.272C367.109 434.195 367.721 433.353 368.024 432.851L368.016 432.688C368.016 432.688 367.787 431.234 367.372 429.3C366.276 423.165 364.996 416.55 363.701 409.61C362.849 405.254 361.998 400.898 361.14 396.38C360.281 391.862 359.098 387.359 358.069 382.685C357.04 378.012 356.012 373.339 355.471 368.644C355.256 367.514 355.196 366.215 355.144 365.078C355.092 363.941 355.202 362.796 355.482 361.807C355.615 361.149 355.917 360.647 356.057 360.152C356.36 359.65 356.5 359.155 356.972 358.808C357.585 357.966 358.529 357.272 359.482 356.74C361.386 355.676 363.8 355.076 366.229 354.802C367.359 354.587 368.658 354.528 369.958 354.468C371.257 354.408 372.549 354.186 373.686 354.134C378.706 353.578 383.712 352.697 388.725 351.978C390.017 351.756 391.154 351.704 392.446 351.482C393.096 351.452 393.583 351.43 394.233 351.4C394.557 351.385 394.72 351.377 395.045 351.362L395.532 351.34L395.864 351.487C397.009 351.598 397.843 352.048 398.693 352.823C399.535 353.435 400.074 354.55 400.444 355.509C401.353 357.584 401.79 360.005 402.234 362.589C402.671 365.011 403.108 367.432 403.544 369.854C405.291 379.54 407.201 389.218 408.926 398.417C409.355 400.676 409.792 403.098 410.221 405.357C410.436 406.487 410.65 407.616 410.865 408.746C411.08 409.875 411.294 411.005 411.671 412.127C412.685 416.475 413.536 420.831 413.398 424.907C413.325 426.863 412.935 428.997 411.857 430.349C411.547 430.689 411.237 431.028 410.92 431.206C410.603 431.383 410.13 431.73 409.82 432.07C409.031 432.595 408.071 432.964 407.274 433.327C403.59 434.635 399.699 434.977 395.971 435.311C394.029 435.563 392.242 435.645 390.47 436.052C389.503 436.259 388.699 436.459 387.732 436.666C386.927 436.866 386.122 437.065 385.163 437.435C381.951 438.396 378.725 439.033 375.801 439.167C375.476 439.182 375.152 439.197 374.664 439.219L374.177 439.242C374.015 439.249 374.015 439.249 373.852 439.257L373.69 439.264C373.527 439.272 373.527 439.272 373.527 439.272C373.365 439.279 373.202 439.286 373.04 439.294C372.545 439.154 372.22 439.169 372.22 439.169L372.058 439.176C371.895 439.184 371.726 439.029 371.401 439.044C370.906 438.904 370.241 438.609 369.739 438.306C369.237 438.004 368.72 437.376 368.542 437.059C368.195 436.587 368.188 436.424 368.188 436.424C367.656 435.472 367.286 434.512 367.109 434.195C367.256 433.863 367.264 434.025 367.124 434.52Z" fill="#202020"/>
<path d="M406.839 420.325L407.481 420.132L408.441 419.763L408.921 419.578L409.246 419.563L409.408 419.556C409.408 419.556 409.408 419.556 409.401 419.393L409.186 418.264C409.164 417.776 408.979 417.297 408.957 416.809C408.72 415.192 408.482 413.576 408.238 411.796C407.12 405.174 405.817 398.072 404.507 390.807C403.848 387.094 402.872 383.557 402.05 379.851C401.643 378.08 401.229 376.145 400.815 374.211C400.4 372.277 399.993 370.505 399.741 368.563C399.489 366.622 399.237 364.68 398.823 362.746C398.616 361.779 398.409 360.811 398.201 359.844C398.017 359.365 397.994 358.877 397.809 358.397L397.61 357.593L397.218 356.146L397.21 355.983C397.203 355.821 397.203 355.821 397.048 355.991L396.723 356.006L395.911 356.043L394.936 356.088L393.482 356.317L390.565 356.614C388.624 356.866 386.682 357.118 384.74 357.37C376.486 358.4 368.727 359.57 360.997 361.39L359.868 361.605L359.226 361.797L358.901 361.812C358.738 361.82 358.901 361.812 358.908 361.975L358.916 362.137L359.352 364.559C359.397 365.533 359.604 366.5 359.812 367.468C360.063 369.409 360.47 371.181 360.722 373.123C361.381 376.836 361.878 380.557 362.374 384.278C363.522 391.55 364.508 398.83 365.788 405.445C366.432 408.833 367.231 412.052 368.03 415.271C368.429 416.88 368.821 418.327 369.221 419.937C369.406 420.416 369.428 420.904 369.613 421.384C370.19 423.31 370.737 424.587 370.744 424.75L370.914 424.905C372.251 425.657 372.701 424.823 372.833 424.166C372.826 424.003 372.826 424.003 372.826 424.003C372.826 424.003 372.441 422.719 371.864 420.792C371.85 420.467 371.672 420.15 371.657 419.825C371.265 418.378 370.873 416.931 370.474 415.321C369.52 412.272 368.883 409.046 368.247 405.82C366.966 399.205 365.833 392.258 364.848 384.978C364.359 381.42 363.7 377.706 363.204 373.985C362.952 372.044 362.545 370.272 362.293 368.33C362.086 367.363 361.878 366.396 361.671 365.429L361.449 364.137L361.434 363.812L361.427 363.65L363.036 363.25L365.775 362.636C367.709 362.222 369.488 361.977 371.423 361.563C375.299 360.896 379.02 360.4 382.896 359.734C386.779 359.23 390.662 358.726 394.391 358.392L395.203 358.354L395.21 358.517C395.418 359.484 395.78 360.281 395.987 361.248C396.394 363.02 396.646 364.962 397.06 366.896C397.312 368.838 397.557 370.617 397.971 372.551C398.386 374.485 398.792 376.257 399.199 378.029C400.021 381.735 400.997 385.271 401.648 388.822C402.462 392.366 402.951 395.925 403.595 399.313C404.239 402.702 404.883 406.091 405.357 409.324C405.594 410.941 405.831 412.558 406.231 414.167C406.431 414.972 406.468 415.784 406.668 416.589C406.683 416.914 406.705 417.401 406.882 417.718C406.89 417.881 406.89 417.881 406.89 417.881L406.565 417.896C406.247 418.073 405.76 418.095 405.443 418.273C404.638 418.473 403.996 418.665 403.354 418.857C401.907 419.249 400.452 419.479 398.998 419.708C396.089 420.167 393.335 420.457 390.751 420.901C388.167 421.345 385.591 421.952 383.332 422.381C382.364 422.588 381.56 422.788 380.917 422.98C380.6 423.158 380.275 423.173 380.275 423.173C380.275 423.173 378.836 423.727 377.226 424.126C375.779 424.519 374.34 425.073 374.502 425.065C372.096 425.827 370.509 426.714 374.724 426.357C377.161 426.246 380.55 425.602 380.55 425.602C380.55 425.602 380.874 425.587 381.354 425.402C381.679 425.387 381.997 425.21 382.321 425.195C382.964 425.002 383.768 424.803 384.411 424.61C385.703 424.388 386.825 424.011 388.117 423.789C390.693 423.182 393.447 422.893 396.356 422.434C399.265 421.975 402.336 421.508 405.555 420.709C406.035 420.524 406.514 420.34 406.839 420.325Z" fill="#202020"/>
<path d="M395.097 430.468C394.942 430.638 394.935 430.475 395.097 430.468C394.617 430.652 394.455 430.66 394.455 430.66C392.048 431.422 390.454 432.146 394.677 431.952L395.164 431.93L395.327 431.922L395.652 431.907C396.139 431.885 396.626 431.862 397.106 431.678C397.084 431.19 397.069 430.865 397.046 430.378C397.039 430.216 397.024 429.891 397.017 429.728C397.009 429.566 397.002 429.404 397.002 429.404C396.979 428.916 396.957 428.429 396.772 427.949C396.572 427.144 396.38 426.502 396.38 426.502C396.203 426.185 396.018 425.705 395.678 425.395C395.508 425.24 395.338 425.085 395.168 424.93C394.999 424.775 394.829 424.62 394.334 424.48C393.677 424.348 393.514 424.355 393.189 424.37C392.865 424.385 392.54 424.4 392.377 424.407C391.89 424.43 391.24 424.459 390.76 424.644C390.273 424.667 389.631 424.859 389.144 424.881C388.819 424.896 388.664 425.066 388.339 425.081C388.176 425.088 388.021 425.258 387.859 425.266C387.697 425.273 387.542 425.443 387.224 425.621C386.434 426.145 386.139 426.81 385.837 427.312C385.542 427.977 385.402 428.471 385.269 429.129C385.137 429.786 385.167 430.435 385.359 431.078C385.551 431.72 385.913 432.517 386.423 432.982L386.755 433.13C386.918 433.122 386.925 433.285 387.088 433.277C387.42 433.425 387.582 433.417 387.915 433.565C388.409 433.705 388.889 433.52 389.214 433.505C390.019 433.305 390.499 433.12 390.986 433.098L391.141 432.928C391.606 432.419 391.746 431.924 391.731 431.599C391.716 431.274 391.214 430.972 390.881 430.824C390.719 430.832 390.719 430.832 390.719 430.832C389.907 430.869 389.272 431.224 388.785 431.246C388.46 431.261 388.298 431.268 388.298 431.268L388.135 431.276L388.128 431.113C387.788 430.803 387.426 430.006 387.551 429.187C387.528 428.699 387.676 428.367 387.823 428.035C387.971 427.702 388.281 427.363 388.436 427.193C389.55 426.653 392.622 426.186 393.766 426.297C393.766 426.297 393.766 426.297 393.929 426.289L394.099 426.444C394.268 426.599 394.276 426.762 394.446 426.917C394.446 426.917 394.786 427.227 394.985 428.031C395.163 428.349 395.185 428.836 395.37 429.316C395.377 429.478 395.385 429.641 395.385 429.641L395.392 429.803L395.4 429.965C395.26 430.46 395.097 430.468 395.097 430.468Z" fill="#202020"/>
</g>
<defs>
<clipPath id="clip0_211_163">
<rect width="30" height="20.4294" fill="white" transform="translate(340.971 245.039) rotate(9.78258)"/>
</clipPath>
<clipPath id="clip1_211_163">
<rect width="30" height="20.4294" fill="white" transform="translate(385.358 230.769) rotate(-13.319)"/>
</clipPath>
<clipPath id="clip2_211_163">
<rect width="100" height="163.464" fill="white" transform="translate(647.679 40.8805)"/>
</clipPath>
<clipPath id="clip3_211_163">
<rect width="100" height="73.3871" fill="white" transform="translate(747.679 8.4375) rotate(3.20074)"/>
</clipPath>
<clipPath id="clip4_211_163">
<rect width="60" height="91.5" fill="white" transform="translate(352.379 350.954) rotate(-2.6299)"/>
</clipPath>
</defs>
</svg>
