<svg width="891" height="1026" viewBox="0 0 891 1026" fill="none" xmlns="http://www.w3.org/2000/svg"><path d="M946.726 924.698c-97.069 70.878-219.974 108.422-348.721 106.532-128.747-1.89-255.759-43.108-360.375-116.949-104.615-73.842-180.677-175.96-215.813-289.743-35.135-113.782-27.276-232.534 22.3-336.935C93.691 183.201 182.064 99.293 294.86 49.528 407.657-.237 538.237-12.93 665.359 13.514c127.122 26.444 243.305 90.469 329.648 181.659 86.343 91.19 137.763 204.179 145.903 320.586l-165.018-.027c-5.78-82.694-42.31-162.96-103.647-227.74-61.338-64.78-143.873-110.262-234.178-129.048-90.306-18.785-183.068-9.768-263.197 25.584-80.128 35.352-142.908 94.96-178.125 169.125-35.218 74.166-40.801 158.525-15.841 239.355 24.959 80.829 78.993 153.373 153.31 205.829 74.317 52.456 164.545 81.737 256.005 83.081 91.46 1.343 178.77-25.33 247.727-75.681l108.78 118.461Z" fill="#fff" fill-opacity=".15"/></svg>