<svg width="658" height="417" viewBox="0 0 658 417" fill="none" xmlns="http://www.w3.org/2000/svg">
<path d="M1.18145 271.047C2.41071 273.724 5.57716 274.897 8.25391 273.668C10.9307 272.439 12.1041 269.272 10.8748 266.596C9.64557 263.919 6.47912 262.745 3.80237 263.975C1.12561 265.204 -0.0478107 268.37 1.18145 271.047ZM631.487 103.778C632.716 106.455 635.883 107.629 638.56 106.399C641.236 105.17 642.41 102.004 641.18 99.3269C639.951 96.6501 636.785 95.4767 634.108 96.706C631.431 97.9352 630.258 101.102 631.487 103.778ZM411.663 260.773L411.259 259.858L411.663 260.773ZM6.02814 268.821C5.79875 269.795 5.79877 269.795 5.7988 269.795C5.79881 269.795 5.79885 269.795 5.79888 269.795C5.79895 269.795 5.79904 269.795 5.79916 269.795C5.79939 269.795 5.79972 269.795 5.80015 269.795C5.80101 269.795 5.80226 269.795 5.8039 269.796C5.80717 269.797 5.812 269.798 5.81838 269.799C5.83113 269.802 5.85009 269.807 5.8752 269.813C5.92543 269.824 6.00028 269.842 6.09942 269.865C6.29768 269.911 6.59308 269.979 6.98282 270.067C7.76231 270.244 8.91923 270.504 10.4314 270.834L10.8582 268.88C9.35166 268.551 8.20025 268.293 7.42609 268.117C7.03901 268.029 6.74624 267.962 6.55056 267.916C6.45272 267.894 6.37914 267.876 6.33019 267.865C6.30571 267.859 6.28739 267.855 6.27527 267.852C6.2692 267.851 6.26469 267.85 6.26173 267.849C6.26025 267.849 6.25916 267.848 6.25846 267.848C6.25811 267.848 6.25786 267.848 6.2577 267.848C6.25762 267.848 6.25757 267.848 6.25754 267.848C6.25753 267.848 6.25752 267.848 6.25751 267.848C6.25752 267.848 6.25753 267.848 6.02814 268.821ZM20.0483 272.857C22.9087 273.439 26.1665 274.086 29.7911 274.782L30.1679 272.817C26.5509 272.123 23.3004 271.478 20.447 270.898L20.0483 272.857ZM39.4081 276.577C42.4498 277.13 45.6703 277.702 49.0582 278.285L49.3979 276.314C46.0161 275.732 42.8016 275.161 39.7658 274.61L39.4081 276.577ZM58.7539 279.912C61.873 280.421 65.1045 280.935 68.4414 281.45L68.7465 279.473C65.4155 278.959 62.1897 278.446 59.0761 277.938L58.7539 279.912ZM78.0893 282.897C81.2426 283.357 84.4749 283.814 87.781 284.267L88.0525 282.286C84.7521 281.834 81.5255 281.377 78.3776 280.918L78.0893 282.897ZM97.5251 285.56C100.731 285.972 103.997 286.377 107.319 286.774L107.557 284.788C104.241 284.392 100.98 283.987 97.7797 283.577L97.5251 285.56ZM116.999 287.888C120.205 288.243 123.457 288.589 126.751 288.924L126.954 286.934C123.666 286.6 120.419 286.255 117.219 285.9L116.999 287.888ZM136.566 289.878C139.773 290.174 143.015 290.46 146.289 290.732L146.455 288.739C143.187 288.467 139.951 288.182 136.751 287.886L136.566 289.878ZM156.073 291.5C159.317 291.739 162.588 291.964 165.885 292.175L166.013 290.179C162.722 289.969 159.457 289.744 156.22 289.505L156.073 291.5ZM175.647 292.749C178.899 292.924 182.173 293.083 185.466 293.226L185.553 291.228C182.267 291.085 179 290.926 175.754 290.752L175.647 292.749ZM195.258 293.598C198.511 293.704 201.78 293.793 205.063 293.864L205.106 291.864C201.831 291.794 198.569 291.705 195.323 291.599L195.258 293.598ZM214.887 294.018C218.142 294.051 221.408 294.064 224.683 294.057L224.679 292.057C221.412 292.064 218.154 292.051 214.907 292.018L214.887 294.018ZM234.507 293.976C237.768 293.929 241.035 293.861 244.308 293.771L244.253 291.771C240.989 291.861 237.73 291.929 234.478 291.977L234.507 293.976ZM254.118 293.434C257.383 293.3 260.651 293.142 263.919 292.961L263.808 290.964C260.55 291.145 257.292 291.302 254.036 291.436L254.118 293.434ZM273.714 292.345C276.977 292.115 280.239 291.86 283.497 291.58L283.325 289.587C280.078 289.867 276.827 290.121 273.574 290.35L273.714 292.345ZM293.272 290.656C296.53 290.321 299.781 289.959 303.025 289.568L302.786 287.582C299.554 287.972 296.314 288.333 293.068 288.667L293.272 290.656ZM312.763 288.305C316.011 287.853 319.249 287.371 322.476 286.858L322.162 284.883C318.948 285.394 315.723 285.874 312.487 286.324L312.763 288.305ZM332.149 285.22C335.383 284.637 338.603 284.022 341.806 283.373L341.408 281.412C338.22 282.059 335.015 282.671 331.794 283.251L332.149 285.22ZM351.391 281.315C354.6 280.587 357.791 279.822 360.959 279.02L360.469 277.081C357.316 277.879 354.142 278.64 350.948 279.364L351.391 281.315ZM370.448 276.488C373.611 275.598 376.75 274.669 379.862 273.699L379.267 271.79C376.173 272.754 373.052 273.678 369.906 274.562L370.448 276.488ZM389.213 270.632C392.318 269.561 395.392 268.447 398.433 267.288L397.721 265.419C394.7 266.57 391.646 267.677 388.561 268.741L389.213 270.632ZM407.576 263.625C409.082 262.991 410.58 262.345 412.067 261.688L411.259 259.858C409.782 260.511 408.296 261.152 406.8 261.782L407.576 263.625ZM412.067 261.688C413.599 261.011 415.122 260.331 416.637 259.649L415.817 257.825C414.305 258.505 412.786 259.183 411.259 259.858L412.067 261.688ZM425.631 255.532C428.666 254.119 431.668 252.697 434.635 251.267L433.767 249.465C430.807 250.891 427.814 252.309 424.787 253.719L425.631 255.532ZM443.542 246.903C446.521 245.42 449.463 243.929 452.371 242.432L451.455 240.654C448.556 242.147 445.621 243.633 442.65 245.113L443.542 246.903ZM461.196 237.814C464.145 236.246 467.055 234.672 469.927 233.095L468.965 231.342C466.1 232.915 463.198 234.484 460.257 236.048L461.196 237.814ZM478.565 228.274C481.48 226.621 484.354 224.965 487.186 223.307L486.176 221.581C483.352 223.234 480.486 224.886 477.579 226.534L478.565 228.274ZM495.732 218.226C498.595 216.497 501.413 214.768 504.186 213.04L503.128 211.342C500.363 213.065 497.553 214.79 494.698 216.514L495.732 218.226ZM512.549 207.747C515.372 205.932 518.146 204.121 520.87 202.315L519.765 200.648C517.048 202.449 514.283 204.255 511.468 206.064L512.549 207.747ZM529.121 196.759C531.896 194.861 534.616 192.971 537.281 191.091L536.128 189.457C533.47 191.331 530.759 193.216 527.992 195.108L529.121 196.759ZM545.349 185.309C548.071 183.328 550.731 181.361 553.328 179.41L552.127 177.811C549.538 179.755 546.886 181.717 544.172 183.692L545.349 185.309ZM561.217 173.391C563.888 171.32 566.487 169.272 569.015 167.249L567.765 165.688C565.246 167.704 562.655 169.746 559.992 171.81L561.217 173.391ZM576.719 160.982C579.341 158.813 581.876 156.68 584.325 154.586L583.025 153.066C580.585 155.153 578.058 157.279 575.444 159.44L576.719 160.982ZM591.822 148.065C594.39 145.793 596.847 143.577 599.193 141.425L597.841 139.951C595.504 142.095 593.056 144.303 590.496 146.568L591.822 148.065ZM606.417 134.676C608.967 132.248 611.356 129.924 613.584 127.715L612.176 126.294C609.957 128.494 607.578 130.809 605.038 133.227L606.417 134.676ZM620.546 120.661C623.121 117.992 625.393 115.568 627.363 113.417L625.889 112.066C623.93 114.204 621.67 116.616 619.107 119.272L620.546 120.661ZM633.955 105.987C635.009 104.753 635.798 103.802 636.325 103.157C636.589 102.835 636.787 102.589 636.919 102.423C636.986 102.341 637.035 102.278 637.069 102.235C637.086 102.214 637.099 102.198 637.107 102.187C637.112 102.181 637.115 102.177 637.117 102.174C637.118 102.173 637.119 102.172 637.12 102.171C637.12 102.17 637.12 102.17 637.121 102.17C637.121 102.17 637.121 102.17 637.121 102.169C637.121 102.169 637.121 102.169 637.121 102.169C637.121 102.169 637.121 102.169 636.334 101.553C635.546 100.936 635.547 100.936 635.547 100.936L635.547 100.936C635.547 100.936 635.547 100.936 635.546 100.936C635.546 100.936 635.546 100.936 635.546 100.937C635.546 100.937 635.545 100.938 635.544 100.939C635.542 100.941 635.54 100.945 635.536 100.95C635.528 100.959 635.517 100.974 635.501 100.994C635.469 101.034 635.422 101.094 635.357 101.174C635.229 101.334 635.036 101.574 634.777 101.891C634.259 102.525 633.479 103.465 632.435 104.688L633.955 105.987Z" fill="#202020"/>
<g clip-path="url(#clip0_211_163)">
<rect width="30" height="20.4294" transform="translate(340.971 109.039) rotate(9.78258)" fill="white"/>
<mask id="path-2-outside-1_211_163" maskUnits="userSpaceOnUse" x="336.422" y="107.856" width="35.2727" height="27.1172" fill="black">
<rect fill="white" x="336.422" y="107.856" width="35.2727" height="27.1172"/>
<path d="M341.065 128.354C341.642 127.893 342.159 127.422 342.666 127.011C343.173 126.601 343.75 126.14 344.267 125.669L347.48 122.923L347.997 122.452C347.997 122.452 349.792 120.707 349.721 120.757C349.873 120.597 350.036 120.376 350.177 120.276L350.398 120.438L351.161 121.068C351.161 121.068 351.664 121.403 352.156 121.799C352.658 122.135 353.161 122.471 353.161 122.471C353.442 122.644 353.674 122.746 353.844 122.838C353.884 122.969 353.934 123.04 353.984 123.111C354.095 123.192 354.276 123.223 354.336 123.234C354.397 123.244 354.397 123.244 354.397 123.244C354.751 122.994 355.166 122.754 355.642 122.525L357.067 121.837C357.341 121.697 357.553 121.547 357.816 121.468L358.018 121.378C358.339 121.683 358.6 121.977 358.921 122.281L364.564 128.546L365.035 129.063C365.035 129.063 366.851 130.808 366.741 130.726C367.443 131.346 367.946 131.681 367.366 130.71C367.447 130.599 367.5 130.297 367.643 129.824C367.871 128.867 368.04 127.526 368.04 127.526L368.861 115.902L368.969 114.551C369.061 114.38 369.132 114.33 368.94 114.359C368.901 114.228 368.78 114.207 368.73 114.136C369.113 114.078 369.013 113.936 367.996 113.698C367.039 113.471 365.698 113.302 365.698 113.302L342.854 111.48L341.382 111.351L341.311 111.401C341.098 111.551 341.017 111.661 340.996 111.782C340.765 111.68 340.552 111.83 340.46 112.001L340.45 112.062L340.321 113.533L339.416 125.642C339.416 125.642 339.362 128.122 339.372 128.062C339.351 128.183 339.391 128.314 339.37 128.435L339.299 128.485L339.289 128.546C339.176 128.838 339.205 129.029 339.316 129.111C339.285 129.292 339.445 129.444 339.556 129.526L339.616 129.536L341.088 129.665L363.993 131.498C363.993 131.498 366.474 131.552 366.413 131.542C367.412 131.527 368.058 131.389 366.497 131.058C365.54 130.831 364.199 130.662 364.199 130.662L341.173 128.808L340.558 128.765C340.711 128.604 340.913 128.514 341.065 128.354ZM367.093 127.239C367.093 127.239 367.039 129.719 367.049 129.659C367.068 129.911 367.087 130.164 367.116 130.355C367.116 130.355 367.116 130.355 367.066 130.284C366.516 129.505 365.705 128.431 365.705 128.431L365.123 127.833L359.48 121.568C359.269 121.345 358.998 121.112 358.798 120.828L361.277 119.45L364.099 117.882L365.486 117.063L366.315 116.583C366.315 116.583 366.812 116.233 367.368 115.893C367.652 115.693 367.864 115.543 368.017 115.383L368.004 115.816L367.093 127.239ZM342.768 112.337L365.492 114.138C365.492 114.138 367.973 114.192 367.912 114.182C368.033 114.203 368.165 114.163 368.225 114.174C368.154 114.224 368.154 114.224 368.144 114.284L368.133 114.344L368.131 114.718C367.252 115.126 366.088 115.735 366.088 115.735L365.319 116.225L363.933 117.044L361.099 118.672L358.277 120.24C357.791 120.53 357.316 120.759 356.84 120.989C356.365 121.218 355.89 121.447 355.343 121.727C354.868 121.956 354.453 122.196 353.967 122.485L353.957 122.546C353.857 122.404 353.686 122.312 353.536 122.1C352.844 121.42 351.881 120.507 351.881 120.507L351.168 119.948L349.852 118.912L347.403 116.871C345.777 115.47 344.14 114.13 342.443 112.779C342.232 112.556 342.001 112.454 341.841 112.301L342.768 112.337ZM340.262 125.788L341.248 113.569L341.292 112.954C341.513 113.116 341.674 113.269 341.905 113.371C343.552 114.651 345.189 115.991 346.754 117.382L349.143 119.412L349.906 120.042C349.765 120.142 349.623 120.242 349.421 120.332C348.631 120.943 347.496 121.743 347.496 121.743L346.848 122.254L343.646 124.939C343.129 125.41 342.612 125.881 342.045 126.282C341.467 126.742 340.95 127.214 340.444 127.624C340.231 127.774 340.018 127.924 339.806 128.075C340.093 127.128 340.262 125.788 340.262 125.788Z"/>
</mask>
<path d="M341.065 128.354C341.642 127.893 342.159 127.422 342.666 127.011C343.173 126.601 343.75 126.14 344.267 125.669L347.48 122.923L347.997 122.452C347.997 122.452 349.792 120.707 349.721 120.757C349.873 120.597 350.036 120.376 350.177 120.276L350.398 120.438L351.161 121.068C351.161 121.068 351.664 121.403 352.156 121.799C352.658 122.135 353.161 122.471 353.161 122.471C353.442 122.644 353.674 122.746 353.844 122.838C353.884 122.969 353.934 123.04 353.984 123.111C354.095 123.192 354.276 123.223 354.336 123.234C354.397 123.244 354.397 123.244 354.397 123.244C354.751 122.994 355.166 122.754 355.642 122.525L357.067 121.837C357.341 121.697 357.553 121.547 357.816 121.468L358.018 121.378C358.339 121.683 358.6 121.977 358.921 122.281L364.564 128.546L365.035 129.063C365.035 129.063 366.851 130.808 366.741 130.726C367.443 131.346 367.946 131.681 367.366 130.71C367.447 130.599 367.5 130.297 367.643 129.824C367.871 128.867 368.04 127.526 368.04 127.526L368.861 115.902L368.969 114.551C369.061 114.38 369.132 114.33 368.94 114.359C368.901 114.228 368.78 114.207 368.73 114.136C369.113 114.078 369.013 113.936 367.996 113.698C367.039 113.471 365.698 113.302 365.698 113.302L342.854 111.48L341.382 111.351L341.311 111.401C341.098 111.551 341.017 111.661 340.996 111.782C340.765 111.68 340.552 111.83 340.46 112.001L340.45 112.062L340.321 113.533L339.416 125.642C339.416 125.642 339.362 128.122 339.372 128.062C339.351 128.183 339.391 128.314 339.37 128.435L339.299 128.485L339.289 128.546C339.176 128.838 339.205 129.029 339.316 129.111C339.285 129.292 339.445 129.444 339.556 129.526L339.616 129.536L341.088 129.665L363.993 131.498C363.993 131.498 366.474 131.552 366.413 131.542C367.412 131.527 368.058 131.389 366.497 131.058C365.54 130.831 364.199 130.662 364.199 130.662L341.173 128.808L340.558 128.765C340.711 128.604 340.913 128.514 341.065 128.354ZM367.093 127.239C367.093 127.239 367.039 129.719 367.049 129.659C367.068 129.911 367.087 130.164 367.116 130.355C367.116 130.355 367.116 130.355 367.066 130.284C366.516 129.505 365.705 128.431 365.705 128.431L365.123 127.833L359.48 121.568C359.269 121.345 358.998 121.112 358.798 120.828L361.277 119.45L364.099 117.882L365.486 117.063L366.315 116.583C366.315 116.583 366.812 116.233 367.368 115.893C367.652 115.693 367.864 115.543 368.017 115.383L368.004 115.816L367.093 127.239ZM342.768 112.337L365.492 114.138C365.492 114.138 367.973 114.192 367.912 114.182C368.033 114.203 368.165 114.163 368.225 114.174C368.154 114.224 368.154 114.224 368.144 114.284L368.133 114.344L368.131 114.718C367.252 115.126 366.088 115.735 366.088 115.735L365.319 116.225L363.933 117.044L361.099 118.672L358.277 120.24C357.791 120.53 357.316 120.759 356.84 120.989C356.365 121.218 355.89 121.447 355.343 121.727C354.868 121.956 354.453 122.196 353.967 122.485L353.957 122.546C353.857 122.404 353.686 122.312 353.536 122.1C352.844 121.42 351.881 120.507 351.881 120.507L351.168 119.948L349.852 118.912L347.403 116.871C345.777 115.47 344.14 114.13 342.443 112.779C342.232 112.556 342.001 112.454 341.841 112.301L342.768 112.337ZM340.262 125.788L341.248 113.569L341.292 112.954C341.513 113.116 341.674 113.269 341.905 113.371C343.552 114.651 345.189 115.991 346.754 117.382L349.143 119.412L349.906 120.042C349.765 120.142 349.623 120.242 349.421 120.332C348.631 120.943 347.496 121.743 347.496 121.743L346.848 122.254L343.646 124.939C343.129 125.41 342.612 125.881 342.045 126.282C341.467 126.742 340.95 127.214 340.444 127.624C340.231 127.774 340.018 127.924 339.806 128.075C340.093 127.128 340.262 125.788 340.262 125.788Z" fill="#202020"/>
<path d="M341.065 128.354C341.642 127.893 342.159 127.422 342.666 127.011C343.173 126.601 343.75 126.14 344.267 125.669L347.48 122.923L347.997 122.452C347.997 122.452 349.792 120.707 349.721 120.757C349.873 120.597 350.036 120.376 350.177 120.276L350.398 120.438L351.161 121.068C351.161 121.068 351.664 121.403 352.156 121.799C352.658 122.135 353.161 122.471 353.161 122.471C353.442 122.644 353.674 122.746 353.844 122.838C353.884 122.969 353.934 123.04 353.984 123.111C354.095 123.192 354.276 123.223 354.336 123.234C354.397 123.244 354.397 123.244 354.397 123.244C354.751 122.994 355.166 122.754 355.642 122.525L357.067 121.837C357.341 121.697 357.553 121.547 357.816 121.468L358.018 121.378C358.339 121.683 358.6 121.977 358.921 122.281L364.564 128.546L365.035 129.063C365.035 129.063 366.851 130.808 366.741 130.726C367.443 131.346 367.946 131.681 367.366 130.71C367.447 130.599 367.5 130.297 367.643 129.824C367.871 128.867 368.04 127.526 368.04 127.526L368.861 115.902L368.969 114.551C369.061 114.38 369.132 114.33 368.94 114.359C368.901 114.228 368.78 114.207 368.73 114.136C369.113 114.078 369.013 113.936 367.996 113.698C367.039 113.471 365.698 113.302 365.698 113.302L342.854 111.48L341.382 111.351L341.311 111.401C341.098 111.551 341.017 111.661 340.996 111.782C340.765 111.68 340.552 111.83 340.46 112.001L340.45 112.062L340.321 113.533L339.416 125.642C339.416 125.642 339.362 128.122 339.372 128.062C339.351 128.183 339.391 128.314 339.37 128.435L339.299 128.485L339.289 128.546C339.176 128.838 339.205 129.029 339.316 129.111C339.285 129.292 339.445 129.444 339.556 129.526L339.616 129.536L341.088 129.665L363.993 131.498C363.993 131.498 366.474 131.552 366.413 131.542C367.412 131.527 368.058 131.389 366.497 131.058C365.54 130.831 364.199 130.662 364.199 130.662L341.173 128.808L340.558 128.765C340.711 128.604 340.913 128.514 341.065 128.354ZM367.093 127.239C367.093 127.239 367.039 129.719 367.049 129.659C367.068 129.911 367.087 130.164 367.116 130.355C367.116 130.355 367.116 130.355 367.066 130.284C366.516 129.505 365.705 128.431 365.705 128.431L365.123 127.833L359.48 121.568C359.269 121.345 358.998 121.112 358.798 120.828L361.277 119.45L364.099 117.882L365.486 117.063L366.315 116.583C366.315 116.583 366.812 116.233 367.368 115.893C367.652 115.693 367.864 115.543 368.017 115.383L368.004 115.816L367.093 127.239ZM342.768 112.337L365.492 114.138C365.492 114.138 367.973 114.192 367.912 114.182C368.033 114.203 368.165 114.163 368.225 114.174C368.154 114.224 368.154 114.224 368.144 114.284L368.133 114.344L368.131 114.718C367.252 115.126 366.088 115.735 366.088 115.735L365.319 116.225L363.933 117.044L361.099 118.672L358.277 120.24C357.791 120.53 357.316 120.759 356.84 120.989C356.365 121.218 355.89 121.447 355.343 121.727C354.868 121.956 354.453 122.196 353.967 122.485L353.957 122.546C353.857 122.404 353.686 122.312 353.536 122.1C352.844 121.42 351.881 120.507 351.881 120.507L351.168 119.948L349.852 118.912L347.403 116.871C345.777 115.47 344.14 114.13 342.443 112.779C342.232 112.556 342.001 112.454 341.841 112.301L342.768 112.337ZM340.262 125.788L341.248 113.569L341.292 112.954C341.513 113.116 341.674 113.269 341.905 113.371C343.552 114.651 345.189 115.991 346.754 117.382L349.143 119.412L349.906 120.042C349.765 120.142 349.623 120.242 349.421 120.332C348.631 120.943 347.496 121.743 347.496 121.743L346.848 122.254L343.646 124.939C343.129 125.41 342.612 125.881 342.045 126.282C341.467 126.742 340.95 127.214 340.444 127.624C340.231 127.774 340.018 127.924 339.806 128.075C340.093 127.128 340.262 125.788 340.262 125.788Z" stroke="#202020" stroke-width="0.8" mask="url(#path-2-outside-1_211_163)"/>
</g>
<g clip-path="url(#clip1_211_163)">
<rect width="30" height="20.4294" transform="translate(385.358 94.7694) rotate(-13.319)" fill="white"/>
<mask id="path-3-outside-2_211_163" maskUnits="userSpaceOnUse" x="384.148" y="86.6282" width="36.2075" height="28.7802" fill="black">
<rect fill="white" x="384.148" y="86.6282" width="36.2075" height="28.7802"/>
<path d="M393.023 112.499C393.373 111.849 393.664 111.212 393.969 110.636C394.274 110.059 394.624 109.409 394.915 108.773L396.793 104.987L397.083 104.351C397.083 104.351 398.05 102.041 398.004 102.115C398.081 101.908 398.144 101.641 398.235 101.493L398.502 101.556L399.451 101.836C399.451 101.836 400.045 101.947 400.653 102.118C401.247 102.23 401.84 102.342 401.84 102.342C402.167 102.39 402.42 102.394 402.613 102.411C402.701 102.516 402.775 102.562 402.849 102.607C402.983 102.639 403.162 102.596 403.221 102.582C403.281 102.568 403.281 102.568 403.281 102.568C403.509 102.199 403.796 101.816 404.144 101.418L405.185 100.226C405.382 99.9902 405.518 99.7687 405.729 99.5928L405.88 99.431C406.295 99.585 406.65 99.7531 407.064 99.9071L414.713 103.455L415.349 103.746C415.349 103.746 417.704 104.638 417.571 104.607C418.46 104.901 419.054 105.012 418.139 104.346C418.171 104.213 418.1 103.914 418.047 103.422C417.88 102.453 417.51 101.154 417.51 101.154L413.704 90.1392L413.274 88.8541C413.291 88.6609 413.337 88.587 413.172 88.6891C413.084 88.5839 412.964 88.6121 412.891 88.5666C413.221 88.3624 413.073 88.2712 412.044 88.4518C411.075 88.6183 409.775 88.9889 409.775 88.9889L388.048 96.2763L386.643 96.7349L386.598 96.8087C386.461 97.0302 386.429 97.1637 386.458 97.2831C386.205 97.28 386.068 97.5015 386.051 97.6947L386.065 97.7544L386.523 99.1589L390.442 110.651C390.442 110.651 391.366 112.954 391.351 112.895C391.38 113.014 391.468 113.119 391.496 113.239L391.45 113.313L391.464 113.372C391.475 113.685 391.578 113.85 391.711 113.881C391.753 114.06 391.961 114.137 392.094 114.169L392.154 114.155L393.559 113.696L415.346 106.395C415.346 106.395 417.649 105.471 417.589 105.485C418.502 105.08 419.043 104.7 417.476 105.008C416.507 105.174 415.208 105.545 415.208 105.545L393.301 112.874L392.718 113.075C392.795 112.868 392.946 112.706 393.023 112.499ZM416.526 101.261C416.526 101.261 417.45 103.564 417.436 103.504C417.552 103.729 417.668 103.953 417.77 104.118C417.77 104.118 417.77 104.118 417.696 104.073C416.884 103.572 415.717 102.902 415.717 102.902L414.947 102.58L407.298 99.0321C407.017 98.9095 406.676 98.8011 406.381 98.6188L408.12 96.3787L410.102 93.8292L411.055 92.5316L411.63 91.765C411.63 91.765 411.949 91.2482 412.328 90.7172C412.51 90.4219 412.647 90.2004 412.724 89.993L412.883 90.3968L416.526 101.261ZM388.305 97.0979L409.913 89.8388C409.913 89.8388 412.217 88.9153 412.157 88.9294C412.276 88.9011 412.382 88.8132 412.441 88.799C412.396 88.8729 412.396 88.8729 412.41 88.9326L412.424 88.9923L412.569 89.3363C411.92 90.0574 411.088 91.0737 411.088 91.0737L410.573 91.8262L409.619 93.1238L407.652 95.733L405.671 98.2826C405.338 98.7397 404.991 99.1371 404.643 99.5345C404.296 99.932 403.949 100.329 403.556 100.801C403.209 101.198 402.921 101.581 402.588 102.039L402.602 102.098C402.455 102.007 402.262 101.99 402.04 101.853C401.137 101.5 399.893 101.038 399.893 101.038L399.018 100.803L397.401 100.366L394.347 99.4503C392.302 98.7997 390.27 98.2088 388.179 97.6321C387.898 97.5095 387.645 97.5063 387.438 97.4293L388.305 97.0979ZM391.278 110.453L387.391 98.8275L387.19 98.2446C387.457 98.3075 387.664 98.3845 387.917 98.3877C389.934 98.9189 391.965 99.5098 393.951 100.174L396.945 101.105L397.894 101.385C397.803 101.532 397.712 101.68 397.561 101.842C397.074 102.714 396.345 103.895 396.345 103.895L395.949 104.619L394.057 108.345C393.766 108.982 393.476 109.618 393.111 110.208C392.761 110.859 392.47 111.495 392.165 112.072C392.029 112.293 391.892 112.515 391.755 112.736C391.648 111.753 391.278 110.453 391.278 110.453Z"/>
</mask>
<path d="M393.023 112.499C393.373 111.849 393.664 111.212 393.969 110.636C394.274 110.059 394.624 109.409 394.915 108.773L396.793 104.987L397.083 104.351C397.083 104.351 398.05 102.041 398.004 102.115C398.081 101.908 398.144 101.641 398.235 101.493L398.502 101.556L399.451 101.836C399.451 101.836 400.045 101.947 400.653 102.118C401.247 102.23 401.84 102.342 401.84 102.342C402.167 102.39 402.42 102.394 402.613 102.411C402.701 102.516 402.775 102.562 402.849 102.607C402.983 102.639 403.162 102.596 403.221 102.582C403.281 102.568 403.281 102.568 403.281 102.568C403.509 102.199 403.796 101.816 404.144 101.418L405.185 100.226C405.382 99.9902 405.518 99.7687 405.729 99.5928L405.88 99.431C406.295 99.585 406.65 99.7531 407.064 99.9071L414.713 103.455L415.349 103.746C415.349 103.746 417.704 104.638 417.571 104.607C418.46 104.901 419.054 105.012 418.139 104.346C418.171 104.213 418.1 103.914 418.047 103.422C417.88 102.453 417.51 101.154 417.51 101.154L413.704 90.1392L413.274 88.8541C413.291 88.6609 413.337 88.587 413.172 88.6891C413.084 88.5839 412.964 88.6121 412.891 88.5666C413.221 88.3624 413.073 88.2712 412.044 88.4518C411.075 88.6183 409.775 88.9889 409.775 88.9889L388.048 96.2763L386.643 96.7349L386.598 96.8087C386.461 97.0302 386.429 97.1637 386.458 97.2831C386.205 97.28 386.068 97.5015 386.051 97.6947L386.065 97.7544L386.523 99.1589L390.442 110.651C390.442 110.651 391.366 112.954 391.351 112.895C391.38 113.014 391.468 113.119 391.496 113.239L391.45 113.313L391.464 113.372C391.475 113.685 391.578 113.85 391.711 113.881C391.753 114.06 391.961 114.137 392.094 114.169L392.154 114.155L393.559 113.696L415.346 106.395C415.346 106.395 417.649 105.471 417.589 105.485C418.502 105.08 419.043 104.7 417.476 105.008C416.507 105.174 415.208 105.545 415.208 105.545L393.301 112.874L392.718 113.075C392.795 112.868 392.946 112.706 393.023 112.499ZM416.526 101.261C416.526 101.261 417.45 103.564 417.436 103.504C417.552 103.729 417.668 103.953 417.77 104.118C417.77 104.118 417.77 104.118 417.696 104.073C416.884 103.572 415.717 102.902 415.717 102.902L414.947 102.58L407.298 99.0321C407.017 98.9095 406.676 98.8011 406.381 98.6188L408.12 96.3787L410.102 93.8292L411.055 92.5316L411.63 91.765C411.63 91.765 411.949 91.2482 412.328 90.7172C412.51 90.4219 412.647 90.2004 412.724 89.993L412.883 90.3968L416.526 101.261ZM388.305 97.0979L409.913 89.8388C409.913 89.8388 412.217 88.9153 412.157 88.9294C412.276 88.9011 412.382 88.8132 412.441 88.799C412.396 88.8729 412.396 88.8729 412.41 88.9326L412.424 88.9923L412.569 89.3363C411.92 90.0574 411.088 91.0737 411.088 91.0737L410.573 91.8262L409.619 93.1238L407.652 95.733L405.671 98.2826C405.338 98.7397 404.991 99.1371 404.643 99.5345C404.296 99.932 403.949 100.329 403.556 100.801C403.209 101.198 402.921 101.581 402.588 102.039L402.602 102.098C402.455 102.007 402.262 101.99 402.04 101.853C401.137 101.5 399.893 101.038 399.893 101.038L399.018 100.803L397.401 100.366L394.347 99.4503C392.302 98.7997 390.27 98.2088 388.179 97.6321C387.898 97.5095 387.645 97.5063 387.438 97.4293L388.305 97.0979ZM391.278 110.453L387.391 98.8275L387.19 98.2446C387.457 98.3075 387.664 98.3845 387.917 98.3877C389.934 98.9189 391.965 99.5098 393.951 100.174L396.945 101.105L397.894 101.385C397.803 101.532 397.712 101.68 397.561 101.842C397.074 102.714 396.345 103.895 396.345 103.895L395.949 104.619L394.057 108.345C393.766 108.982 393.476 109.618 393.111 110.208C392.761 110.859 392.47 111.495 392.165 112.072C392.029 112.293 391.892 112.515 391.755 112.736C391.648 111.753 391.278 110.453 391.278 110.453Z" fill="#202020"/>
<path d="M393.023 112.499C393.373 111.849 393.664 111.212 393.969 110.636C394.274 110.059 394.624 109.409 394.915 108.773L396.793 104.987L397.083 104.351C397.083 104.351 398.05 102.041 398.004 102.115C398.081 101.908 398.144 101.641 398.235 101.493L398.502 101.556L399.451 101.836C399.451 101.836 400.045 101.947 400.653 102.118C401.247 102.23 401.84 102.342 401.84 102.342C402.167 102.39 402.42 102.394 402.613 102.411C402.701 102.516 402.775 102.562 402.849 102.607C402.983 102.639 403.162 102.596 403.221 102.582C403.281 102.568 403.281 102.568 403.281 102.568C403.509 102.199 403.796 101.816 404.144 101.418L405.185 100.226C405.382 99.9902 405.518 99.7687 405.729 99.5928L405.88 99.431C406.295 99.585 406.65 99.7531 407.064 99.9071L414.713 103.455L415.349 103.746C415.349 103.746 417.704 104.638 417.571 104.607C418.46 104.901 419.054 105.012 418.139 104.346C418.171 104.213 418.1 103.914 418.047 103.422C417.88 102.453 417.51 101.154 417.51 101.154L413.704 90.1392L413.274 88.8541C413.291 88.6609 413.337 88.587 413.172 88.6891C413.084 88.5839 412.964 88.6121 412.891 88.5666C413.221 88.3624 413.073 88.2712 412.044 88.4518C411.075 88.6183 409.775 88.9889 409.775 88.9889L388.048 96.2763L386.643 96.7349L386.598 96.8087C386.461 97.0302 386.429 97.1637 386.458 97.2831C386.205 97.28 386.068 97.5015 386.051 97.6947L386.065 97.7544L386.523 99.1589L390.442 110.651C390.442 110.651 391.366 112.954 391.351 112.895C391.38 113.014 391.468 113.119 391.496 113.239L391.45 113.313L391.464 113.372C391.475 113.685 391.578 113.85 391.711 113.881C391.753 114.06 391.961 114.137 392.094 114.169L392.154 114.155L393.559 113.696L415.346 106.395C415.346 106.395 417.649 105.471 417.589 105.485C418.502 105.08 419.043 104.7 417.476 105.008C416.507 105.174 415.208 105.545 415.208 105.545L393.301 112.874L392.718 113.075C392.795 112.868 392.946 112.706 393.023 112.499ZM416.526 101.261C416.526 101.261 417.45 103.564 417.436 103.504C417.552 103.729 417.668 103.953 417.77 104.118C417.77 104.118 417.77 104.118 417.696 104.073C416.884 103.572 415.717 102.902 415.717 102.902L414.947 102.58L407.298 99.0321C407.017 98.9095 406.676 98.8011 406.381 98.6188L408.12 96.3787L410.102 93.8292L411.055 92.5316L411.63 91.765C411.63 91.765 411.949 91.2482 412.328 90.7172C412.51 90.4219 412.647 90.2004 412.724 89.993L412.883 90.3968L416.526 101.261ZM388.305 97.0979L409.913 89.8388C409.913 89.8388 412.217 88.9153 412.157 88.9294C412.276 88.9011 412.382 88.8132 412.441 88.799C412.396 88.8729 412.396 88.8729 412.41 88.9326L412.424 88.9923L412.569 89.3363C411.92 90.0574 411.088 91.0737 411.088 91.0737L410.573 91.8262L409.619 93.1238L407.652 95.733L405.671 98.2826C405.338 98.7397 404.991 99.1371 404.643 99.5345C404.296 99.932 403.949 100.329 403.556 100.801C403.209 101.198 402.921 101.581 402.588 102.039L402.602 102.098C402.455 102.007 402.262 101.99 402.04 101.853C401.137 101.5 399.893 101.038 399.893 101.038L399.018 100.803L397.401 100.366L394.347 99.4503C392.302 98.7997 390.27 98.2088 388.179 97.6321C387.898 97.5095 387.645 97.5063 387.438 97.4293L388.305 97.0979ZM391.278 110.453L387.391 98.8275L387.19 98.2446C387.457 98.3075 387.664 98.3845 387.917 98.3877C389.934 98.9189 391.965 99.5098 393.951 100.174L396.945 101.105L397.894 101.385C397.803 101.532 397.712 101.68 397.561 101.842C397.074 102.714 396.345 103.895 396.345 103.895L395.949 104.619L394.057 108.345C393.766 108.982 393.476 109.618 393.111 110.208C392.761 110.859 392.47 111.495 392.165 112.072C392.029 112.293 391.892 112.515 391.755 112.736C391.648 111.753 391.278 110.453 391.278 110.453Z" stroke="#202020" stroke-width="0.8" mask="url(#path-3-outside-2_211_163)"/>
</g>
<g clip-path="url(#clip2_211_163)">
<rect width="60" height="91.5" transform="translate(352.379 214.954) rotate(-2.6299)" fill="white"/>
<path d="M367.124 298.52C367.139 298.845 367.013 299.664 367.383 300.624C367.605 301.916 368.647 303.333 369.821 304.093C370.331 304.558 370.826 304.698 371.32 304.838C371.653 304.985 371.985 305.133 371.985 305.133C371.985 305.133 372.155 305.288 372.812 305.42C373.137 305.406 373.469 305.553 373.957 305.531C374.119 305.523 374.281 305.516 374.281 305.516C375.101 305.641 376.076 305.596 376.888 305.559C378.674 305.477 380.284 305.077 382.063 304.833C383.835 304.426 385.607 304.019 387.371 303.45C387.851 303.265 388.176 303.25 388.656 303.065C389.135 302.88 389.46 302.865 389.94 302.68C390.427 302.658 390.745 302.481 391.232 302.458C391.719 302.436 392.199 302.251 392.524 302.236C396.245 301.74 400.306 301.553 404.337 300.717C406.433 300.295 408.523 299.711 410.582 298.477C411.062 298.292 411.534 297.945 412.007 297.598C412.479 297.25 412.944 296.741 413.416 296.393C414.184 295.381 414.781 294.215 415.054 293.063C415.761 290.751 415.65 288.315 415.545 286.041C415.278 283.774 415.011 281.508 414.412 279.094C413.983 276.835 413.391 274.583 412.962 272.324C412.532 270.065 412.096 267.643 411.666 265.384C409.934 256.023 408.017 246.182 406.263 236.333C405.826 233.912 405.382 231.328 404.945 228.906C404.508 226.485 404.064 223.901 403.295 221.332C402.91 220.047 402.526 218.763 401.816 217.493C401.107 216.223 400.08 215.131 398.743 214.379C396.07 212.874 392.999 213.34 390.57 213.615C385.394 214.341 380.389 215.222 375.368 215.778C372.777 216.06 370.348 216.334 367.911 216.446C365.312 216.565 362.729 217.01 360.167 217.941C358.89 218.488 357.783 219.19 356.683 220.054C355.583 220.919 354.661 222.1 354.071 223.43C353.473 224.597 353.216 226.073 353.113 227.38C352.98 228.038 353.01 228.687 353.04 229.337L353.13 231.286C353.523 236.314 354.559 241.15 355.588 245.823C356.616 250.496 357.807 255.162 358.666 259.68C359.524 264.198 360.383 268.716 361.234 273.072C362.545 280.337 363.84 287.276 365.113 293.729C365.527 295.663 365.757 297.118 365.757 297.118L365.927 297.272C367.109 298.195 367.721 297.353 368.024 296.851L368.016 296.688C368.016 296.688 367.787 295.234 367.372 293.3C366.276 287.165 364.996 280.55 363.701 273.61C362.849 269.254 361.998 264.898 361.14 260.38C360.281 255.862 359.098 251.359 358.069 246.685C357.04 242.012 356.012 237.339 355.471 232.644C355.256 231.514 355.196 230.215 355.144 229.078C355.092 227.941 355.202 226.796 355.482 225.807C355.615 225.149 355.917 224.647 356.057 224.152C356.36 223.65 356.5 223.155 356.972 222.808C357.585 221.966 358.529 221.272 359.482 220.74C361.386 219.676 363.8 219.076 366.229 218.802C367.359 218.587 368.658 218.528 369.958 218.468C371.257 218.408 372.549 218.186 373.686 218.134C378.706 217.578 383.712 216.697 388.725 215.978C390.017 215.756 391.154 215.704 392.446 215.482C393.096 215.452 393.583 215.43 394.233 215.4C394.557 215.385 394.72 215.377 395.045 215.362L395.532 215.34L395.864 215.487C397.009 215.598 397.843 216.048 398.693 216.823C399.535 217.435 400.074 218.55 400.444 219.509C401.353 221.584 401.79 224.005 402.234 226.589C402.671 229.011 403.108 231.432 403.544 233.854C405.291 243.54 407.201 253.218 408.926 262.417C409.355 264.676 409.792 267.098 410.221 269.357C410.436 270.487 410.65 271.616 410.865 272.746C411.08 273.875 411.294 275.005 411.671 276.127C412.685 280.475 413.536 284.831 413.398 288.907C413.325 290.863 412.935 292.997 411.857 294.349C411.547 294.689 411.237 295.028 410.92 295.206C410.603 295.383 410.13 295.73 409.82 296.07C409.031 296.595 408.071 296.964 407.274 297.327C403.59 298.635 399.699 298.977 395.971 299.311C394.029 299.563 392.242 299.645 390.47 300.052C389.503 300.259 388.699 300.459 387.732 300.666C386.927 300.866 386.122 301.065 385.163 301.435C381.951 302.396 378.725 303.033 375.801 303.167C375.476 303.182 375.152 303.197 374.664 303.219L374.177 303.242C374.015 303.249 374.015 303.249 373.852 303.257L373.69 303.264C373.527 303.272 373.527 303.272 373.527 303.272C373.365 303.279 373.202 303.286 373.04 303.294C372.545 303.154 372.22 303.169 372.22 303.169L372.058 303.176C371.895 303.184 371.726 303.029 371.401 303.044C370.906 302.904 370.241 302.609 369.739 302.306C369.237 302.004 368.72 301.376 368.542 301.059C368.195 300.587 368.188 300.424 368.188 300.424C367.656 299.472 367.286 298.512 367.109 298.195C367.256 297.863 367.264 298.025 367.124 298.52Z" fill="#202020"/>
<path d="M406.839 284.325L407.481 284.132L408.441 283.763L408.921 283.578L409.246 283.563L409.408 283.556C409.408 283.556 409.408 283.556 409.401 283.393L409.186 282.264C409.164 281.776 408.979 281.297 408.957 280.809C408.72 279.192 408.482 277.576 408.238 275.796C407.12 269.174 405.817 262.072 404.507 254.807C403.848 251.094 402.872 247.557 402.05 243.851C401.643 242.08 401.229 240.145 400.815 238.211C400.4 236.277 399.993 234.505 399.741 232.563C399.489 230.622 399.237 228.68 398.823 226.746C398.616 225.779 398.409 224.811 398.201 223.844C398.017 223.365 397.994 222.877 397.809 222.397L397.61 221.593L397.218 220.146L397.21 219.983C397.203 219.821 397.203 219.821 397.048 219.991L396.723 220.006L395.911 220.043L394.936 220.088L393.482 220.317L390.565 220.614C388.624 220.866 386.682 221.118 384.74 221.37C376.486 222.4 368.727 223.57 360.997 225.39L359.868 225.605L359.226 225.797L358.901 225.812C358.738 225.82 358.901 225.812 358.908 225.975L358.916 226.137L359.352 228.559C359.397 229.533 359.604 230.5 359.812 231.468C360.063 233.409 360.47 235.181 360.722 237.123C361.381 240.836 361.878 244.557 362.374 248.278C363.522 255.55 364.508 262.83 365.788 269.445C366.432 272.833 367.231 276.052 368.03 279.271C368.429 280.88 368.821 282.327 369.221 283.937C369.406 284.416 369.428 284.904 369.613 285.384C370.19 287.31 370.737 288.587 370.744 288.75L370.914 288.905C372.251 289.657 372.701 288.823 372.833 288.166C372.826 288.003 372.826 288.003 372.826 288.003C372.826 288.003 372.441 286.719 371.864 284.792C371.85 284.467 371.672 284.15 371.657 283.825C371.265 282.378 370.873 280.931 370.474 279.321C369.52 276.272 368.883 273.046 368.247 269.82C366.966 263.205 365.833 256.258 364.848 248.978C364.359 245.42 363.7 241.706 363.204 237.985C362.952 236.044 362.545 234.272 362.293 232.33C362.086 231.363 361.878 230.396 361.671 229.429L361.449 228.137L361.434 227.812L361.427 227.65L363.036 227.25L365.775 226.636C367.709 226.222 369.488 225.977 371.423 225.563C375.299 224.896 379.02 224.4 382.896 223.734C386.779 223.23 390.662 222.726 394.391 222.392L395.203 222.354L395.21 222.517C395.418 223.484 395.78 224.281 395.987 225.248C396.394 227.02 396.646 228.962 397.06 230.896C397.312 232.838 397.557 234.617 397.971 236.551C398.386 238.485 398.792 240.257 399.199 242.029C400.021 245.735 400.997 249.271 401.648 252.822C402.462 256.366 402.951 259.925 403.595 263.313C404.239 266.702 404.883 270.091 405.357 273.324C405.594 274.941 405.831 276.558 406.231 278.167C406.431 278.972 406.468 279.784 406.668 280.589C406.683 280.914 406.705 281.401 406.882 281.718C406.89 281.881 406.89 281.881 406.89 281.881L406.565 281.896C406.247 282.073 405.76 282.095 405.443 282.273C404.638 282.473 403.996 282.665 403.354 282.857C401.907 283.249 400.452 283.479 398.998 283.708C396.089 284.167 393.335 284.457 390.751 284.901C388.167 285.345 385.591 285.952 383.332 286.381C382.364 286.588 381.56 286.788 380.917 286.98C380.6 287.158 380.275 287.173 380.275 287.173C380.275 287.173 378.836 287.727 377.226 288.126C375.779 288.519 374.34 289.073 374.502 289.065C372.096 289.827 370.509 290.714 374.724 290.357C377.161 290.246 380.55 289.602 380.55 289.602C380.55 289.602 380.874 289.587 381.354 289.402C381.679 289.387 381.997 289.21 382.321 289.195C382.964 289.002 383.768 288.803 384.411 288.61C385.703 288.388 386.825 288.011 388.117 287.789C390.693 287.182 393.447 286.893 396.356 286.434C399.265 285.975 402.336 285.508 405.555 284.709C406.035 284.524 406.514 284.34 406.839 284.325Z" fill="#202020"/>
<path d="M395.097 294.468C394.942 294.638 394.935 294.475 395.097 294.468C394.617 294.652 394.455 294.66 394.455 294.66C392.048 295.422 390.454 296.146 394.677 295.952L395.164 295.93L395.327 295.922L395.652 295.907C396.139 295.885 396.626 295.862 397.106 295.678C397.084 295.19 397.069 294.865 397.046 294.378C397.039 294.216 397.024 293.891 397.017 293.728C397.009 293.566 397.002 293.404 397.002 293.404C396.979 292.916 396.957 292.429 396.772 291.949C396.572 291.144 396.38 290.502 396.38 290.502C396.203 290.185 396.018 289.705 395.678 289.395C395.508 289.24 395.338 289.085 395.168 288.93C394.999 288.775 394.829 288.62 394.334 288.48C393.677 288.348 393.514 288.355 393.189 288.37C392.865 288.385 392.54 288.4 392.377 288.407C391.89 288.43 391.24 288.459 390.76 288.644C390.273 288.667 389.631 288.859 389.144 288.881C388.819 288.896 388.664 289.066 388.339 289.081C388.176 289.088 388.021 289.258 387.859 289.266C387.697 289.273 387.542 289.443 387.224 289.621C386.434 290.145 386.139 290.81 385.837 291.312C385.542 291.977 385.402 292.471 385.269 293.129C385.137 293.786 385.167 294.435 385.359 295.078C385.551 295.72 385.913 296.517 386.423 296.982L386.755 297.13C386.918 297.122 386.925 297.285 387.088 297.277C387.42 297.425 387.582 297.417 387.915 297.565C388.409 297.705 388.889 297.52 389.214 297.505C390.019 297.305 390.499 297.12 390.986 297.098L391.141 296.928C391.606 296.419 391.746 295.924 391.731 295.599C391.716 295.274 391.214 294.972 390.881 294.824C390.719 294.832 390.719 294.832 390.719 294.832C389.907 294.869 389.272 295.224 388.785 295.246C388.46 295.261 388.298 295.268 388.298 295.268L388.135 295.276L388.128 295.113C387.788 294.803 387.426 294.006 387.551 293.187C387.528 292.699 387.676 292.367 387.823 292.035C387.971 291.702 388.281 291.363 388.436 291.193C389.55 290.653 392.622 290.186 393.766 290.297C393.766 290.297 393.766 290.297 393.929 290.289L394.099 290.444C394.268 290.599 394.276 290.762 394.446 290.917C394.446 290.917 394.786 291.227 394.985 292.031C395.163 292.349 395.185 292.836 395.37 293.316C395.377 293.478 395.385 293.641 395.385 293.641L395.392 293.803L395.4 293.965C395.26 294.46 395.097 294.468 395.097 294.468Z" fill="#202020"/>
</g>
<defs>
<clipPath id="clip0_211_163">
<rect width="30" height="20.4294" fill="white" transform="translate(340.971 109.039) rotate(9.78258)"/>
</clipPath>
<clipPath id="clip1_211_163">
<rect width="30" height="20.4294" fill="white" transform="translate(385.358 94.7694) rotate(-13.319)"/>
</clipPath>
<clipPath id="clip2_211_163">
<rect width="60" height="91.5" fill="white" transform="translate(352.379 214.954) rotate(-2.6299)"/>
</clipPath>
</defs>
</svg>
