<svg width="36" height="36" viewBox="0 0 36 36" fill="none" xmlns="http://www.w3.org/2000/svg">
<path d="M29.3654 7.41211H6.63325C4.72345 7.41211 3.17578 8.95978 3.17578 10.8691V24.9703C3.17578 26.8797 4.72345 28.4274 6.63325 28.4274H29.3654C31.2747 28.4274 32.8228 26.8797 32.8228 24.9703V10.8691C32.8228 8.95978 31.2747 7.41211 29.3654 7.41211ZM31.172 25.9018L30.5138 26.6812L21.2974 19.1593L19.87 20.5174C18.8122 21.4888 17.1864 21.4888 16.1286 20.5174L14.7012 19.1593L5.48478 26.6812L4.82664 25.9018L13.4799 17.9969L4.76995 9.81126L5.28489 9.12897L17.9993 18.7628L30.7137 9.12897L31.2282 9.81126L22.5188 17.9969L31.172 25.9018Z" fill="#F6A847"/>
</svg>
