<svg width="36" height="36" viewBox="0 0 36 36" fill="none" xmlns="http://www.w3.org/2000/svg">
<path fill-rule="evenodd" clip-rule="evenodd" d="M18 3C23.799 3 28.5 7.70101 28.5 13.5C28.5 15.4128 27.99 17.205 27.0949 18.7506C26.4982 19.781 23.4666 25.0308 18 34.5C12.5334 25.0308 9.50178 19.781 8.90507 18.7506C8.01 17.205 7.5 15.4128 7.5 13.5C7.5 7.70101 12.201 3 18 3ZM18 9C15.5147 9 13.5 11.0147 13.5 13.5C13.5 15.9853 15.5147 18 18 18C20.4853 18 22.5 15.9853 22.5 13.5C22.5 11.0147 20.4853 9 18 9Z" fill="#F6A847"/>
</svg>
