<svg width="36" height="36" viewBox="0 0 36 36" fill="none" xmlns="http://www.w3.org/2000/svg">
<path d="M8.3859 4.43309C6.34883 5.75424 5.94865 9.88392 6.71774 13.2497C7.3167 15.8708 8.59013 19.3868 10.7375 22.6977C12.7575 25.8124 15.5758 28.6052 17.7247 30.2211C20.4843 32.2959 24.4181 33.6148 26.4552 32.2936C27.4853 31.6256 29.0156 29.8004 29.0855 29.4729C29.0855 29.4729 28.1881 28.0892 27.9911 27.7855L24.9817 23.1454C24.7581 22.8005 23.3556 23.1157 22.6432 23.5193C21.6821 24.0638 20.7971 25.5248 20.7971 25.5248C20.1381 25.9056 19.5862 25.5262 18.433 24.9955C17.0156 24.3433 15.4221 22.3172 14.1538 20.482C12.9954 18.5756 11.7953 16.2942 11.7779 14.7342C11.7636 13.4648 11.6423 12.8062 12.2587 12.3597C12.2587 12.3597 13.9537 12.1475 14.8428 11.4921C15.5018 11.0062 16.3615 9.85422 16.1379 9.50934L13.1285 4.86923C12.9316 4.56558 12.0342 3.18189 12.0342 3.18189C11.7066 3.11212 9.41597 3.76505 8.3859 4.43309Z" fill="#F6A847"/>
</svg>
