<svg width="90" height="91" viewBox="0 0 90 91" fill="none" xmlns="http://www.w3.org/2000/svg"><g clip-path="url(#a)"><path d="M89.755 45.337V88.57c0 1.913-.078 2.035-1.99 2.052-14.522.133-29.042.255-43.569.089-4.793-.056-9.582-.04-14.376-.09-2.069-.021-2.23-.22-2.23-2.24 0-23.894.028-47.793-.033-71.687 0-1.448.417-2.49 1.301-3.478 3.198-3.555 6.373-7.127 9.627-10.632C39.77 1.204 41.31.472 43.379.488c12.63.1 25.26.1 37.89.028C83.627.505 85.99.189 88.365.2c1.068.005 1.43.405 1.424 1.453-.028 13.744-.028 27.488-.034 41.232v2.451Z" fill="#fff" stroke="#353434" stroke-width=".75" stroke-miterlimit="10"/><path d="M29.353 16.423V89.08c19.637-.1 39.191-.089 58.823 0V2.119H41.243c.19 4.481-.005 8.813.034 13.145.01.915-.278 1.198-1.23 1.181-3.525-.061-7.046-.022-10.7-.022h.006Z" fill="#fff" stroke="#353434" stroke-width=".75" stroke-miterlimit="10"/><path d="M62.66 28.797h2.58c.173-.283.095-.577.095-.854V11.126c0-1.087.117-1.215 1.213-1.226 1.529-.01 3.053.011 4.582-.01.618-.012.901.271.962.837.028.26.034.527.034.793-.017 5.496-.04 10.987-.056 16.484v.843c1.374 0 2.675-.011 3.977.005.406.006 1.056-.183 1.067.444.011.704-.678.466-1.09.472-2.258.022-4.516-.028-6.768.016-7.741.155-15.483.04-23.224.078-.223 0-.445.005-.662-.006-.334-.016-.645-.11-.65-.51-.012-.405.305-.51.633-.521.595-.017 1.196-.006 1.79-.011.151 0 .301-.017.435-.028v-13.45c0-1.054.306-1.448 1.346-1.503 1.123-.061 2.258-.045 3.38-.006.78.028.98.244 1.019 1.01.039.748.033 1.497.039 2.252v11.68h2.58V11.104c0-1.265.3-1.564 1.557-1.564 1.396 0 2.786-.006 4.182 0 .79 0 .957.194.957.993 0 5.89-.006 11.786-.006 17.676 0 .172.023.344.034.577l-.006.011Z" stroke="#353434" stroke-width=".75" stroke-miterlimit="10"/><path d="M66.386 10.938v17.87c1.608.078 3.165.067 4.722.028V10.938h-4.722Zm-9.41-.383v18.22h4.594v-18.22h-4.594Zm-4.654 18.247v-14.01h-3.766v14.01h3.766Z" fill="#F4DAE1"/><path d="M42.606 36.529h3.331a.533.533 0 0 1-.05-.26.638.638 0 0 1 .022-.1c-.278-.383-.545-.783-.74-1.215h-3.948c.49.493.962 1.02 1.385 1.575Zm-2.92-1.349a6.3 6.3 0 0 1-.233-.171s-.006-.011-.012-.011c-.344.072-.617.25-.623.72-.01.794.73.788 1.335.8h.64c-.384-.416-.757-.838-1.062-1.32-.017-.012-.028-.017-.045-.028v.01Zm39.536-.232H47.194c.167.272.322.555.495.826.05.078.089.15.139.228.111.172.222.344.328.521h31.038c.629 0 1.346 0 1.324-.826-.022-.738-.7-.749-1.296-.749ZM42.294 53.179a.387.387 0 0 1-.072.16c-.361.45-.684.927-1 1.415h4.026c.15-.283.311-.555.461-.837.045-.084.09-.161.128-.245.011-.016.011-.016.011-.022v-.01c.017-.04.034-.073.05-.112.056-.116.1-.233.145-.355h-3.76l.011.006Zm-2.397 1.57c.345-.527.684-1.06 1.057-1.57h-.167c-.333 0-.667-.011-1 .011-.518.039-1.013.205-.98.821.028.538.49.688.968.727h.122v.01Zm39.987-1.515c-.378-.055-.762-.05-1.146-.05H47.923c-.05.383-.273.744-.462 1.077 0 .005-.011.022-.022.044a.17.17 0 0 0-.023.05l-.033.066a16.84 16.84 0 0 0-.133.294c-.006.017-.017.034-.023.05h31.728c.306 0 .623.011.918-.05.417-.083.684-.36.656-.787-.022-.372-.272-.627-.645-.682v-.012Zm-39.208 7.294c.35-.577.817-1.082 1.307-1.553h-1.307c-.712 0-1.852-.316-1.824.82.028 1.016 1.123.733 1.813.733h.011Zm38.902-1.558c-.334-.006-.667-.006-1.001-.006H59.629c-4.721 0-9.443 0-14.165.005-.044.056-.089.106-.133.161l-.022.022v.006c-.023.022-.04.05-.061.072-.056.067-.117.133-.173.2l-.39.438c-.01.011-.005.011-.01.017 0 .005 0 0-.017.016a1.108 1.108 0 0 0-.078.089c-.05.055-.094.11-.145.166-.089.106-.177.222-.272.328-.011.016-.028.027-.039.044 11.562.011 23.119.011 34.68.011.262 0 .524 0 .78-.006.544-.016.984-.227.956-.831-.028-.538-.45-.721-.945-.733h-.017Zm-19.904 7.349H40.28c-.628-.017-1.457.066-1.457-.788 0-.86.834-.782 1.457-.782h38.897c.606 0 1.334-.028 1.334.788 0 .81-.728.787-1.34.787H59.668l.006-.005Zm-.067 6.001H40.793c-.295 0-.595.005-.89-.006-.55-.022-1.118-.144-1.096-.82.017-.6.551-.722 1.063-.744.261-.011.517-.005.778-.005 12.725 0 25.455 0 38.18.005.661 0 1.65-.255 1.668.765.016 1.032-.974.794-1.635.794-6.418.01-12.836.005-19.26.005l.006.006Zm.128 5.557H40.898c-.333 0-.667.011-1-.005-.551-.028-1.118-.145-1.085-.832.028-.6.562-.71 1.073-.733.262-.01.523-.005.779-.005 12.708 0 25.41 0 38.118.011.684 0 1.74-.288 1.707.826-.028 1.004-1.04.733-1.696.733-6.351.016-12.708.01-19.06.01v-.005Zm19.52-30.256H49.363c.028.527-.122 1.06-.25 1.576h30.12c.612 0 1.28-.04 1.29-.777.011-.743-.645-.81-1.262-.799h-.006Zm-34.363 1.576h1.896a37.11 37.11 0 0 1-.028-1.575h-1.574c-.06.532-.155 1.059-.294 1.575Zm-1.546-1.576h-2.659c-.295 0-.595-.01-.89.012-.517.038-1.012.2-.984.815.022.538.484.699.956.732.334.022.668.011 1.002.011h2.096c.156-.527.306-1.054.479-1.575v.005Zm1.762-4.426h2.598a37.957 37.957 0 0 1-.206-1.57h-2.63c.105.528.183 1.049.244 1.57h-.005Zm-1.618-1.186c-.033-.128-.072-.256-.106-.383H40.42c-.645 0-1.563-.161-1.59.754-.028.938.884.782 1.535.81.183.011.372 0 .556 0h2.808c-.066-.4-.144-.799-.239-1.187v.006Zm35.176-.377c-2.197-.028-4.394-.012-6.596-.012H48.985c.01.061 0 .122.005.183.106.455.14.921.14 1.387h9.337c6.713 0 13.425.006 20.138-.011.717 0 1.852.327 1.885-.749.028-1.093-1.101-.793-1.824-.804v.006Z" stroke="#353434" stroke-width=".75" stroke-miterlimit="10"/><path d="M49.763 39.906c-.378-1.292-1.902-5.995-6.379-9.65-6.579-5.364-18.93-7.987-27.545-.378-7.886 6.967-9.132 19.402-2.397 28.226a863.757 863.757 0 0 0-2.62 2.174c-4.26 3.639-6.957 8.209-7.819 9.701-2.09 3.86-3.565 6.667-2.352 8.597 0 0 .65 1.06 2.074 1.47 5.734 1.658 15.455-13.96 17.207-16.817 1.274.87 6.418 4.165 13.258 3.184 7.152-1.026 11.134-6.002 12.413-7.604.757-.943 7.03-9.058 4.16-18.903Zm-21 19.319c-7.674-.494-13.48-7.255-12.98-14.732.479-7.15 6.58-12.762 13.57-12.9 7.858-.15 14.676 6.66 14.182 14.686-.462 7.466-7.091 13.44-14.771 12.945Z" fill="#fff" stroke="#353434" stroke-width=".75" stroke-miterlimit="10"/><path d="M44.33 57.777c-.89 1.093-4.583 5.502-10.69 6.573-.394.072-2.096.416-4.37.15-9.366-1.093-14.338-7.466-14.338-7.466-5.455-7.127-3.514-15.37-3.125-16.856.384-1.48 1.423-5.285 4.866-8.63.5-.488 3.148-3.028 7.241-4.226 5.823-1.709 12.118-.106 17.446 3.566.184.094.467.25.795.455 0 0 2.659 1.658 4.5 4.958 1.83 3.284 4.01 13.7-2.32 21.476h-.005Zm-24.159 0c.929.777 4.294 3.4 9.204 3.472 5.628.089 10.545-3.206 13.136-7.327 4.194-6.666 2.586-15.918-2.024-19.65-.4-.322-.768-.56-1.046-.727.006-.028.023-.083.006-.144-.05-.261-.462-.389-.55-.416-.946-.311-2.787-2.091-6.257-2.857-5.428-1.192-10.027 1.16-10.506 1.415-.84.449-3.637 1.968-5.572 5.063-3.927 6.273-2.486 16.057 3.61 21.166v.005Z" fill="#EAEDFF"/><path d="M29.72 64.643c2.27.222 3.876-.055 4.371-.15 5.817-1.109 9.238-5.573 10.178-6.8 4.377-5.718 6.045-14.67 2.119-21.536-1.435-2.507-3.282-4.154-4.578-5.125-1.24-.876-8.642-5.935-17.446-3.566-4.204 1.131-6.762 3.427-7.38 4.004-5.639 5.253-8.013 15.087-3.798 22.996 4.41 8.275 13.614 9.895 16.54 10.177h-.006Z" stroke="#353434" stroke-width=".75" stroke-miterlimit="10"/><path d="M42.578 53.767c-.361.566-4.81 7.354-12.73 7.41-4.972.033-8.403-2.624-9.226-3.261-6.668-5.186-8.376-14.499-3.62-21.554.355-.532 2.051-3.145 5.405-4.886 6.523-3.395 13.136-.35 13.831-.017 1.285.616 5.806 3.006 7.87 8.436 2.663 7.01-1.052 13.117-1.524 13.866l-.006.006Z" stroke="#353434" stroke-width=".75" stroke-miterlimit="10"/></g><defs><clipPath id="a"><path fill="#fff" d="M0 0h90v91H0z"/></clipPath></defs></svg>