<svg width="22" height="22" viewBox="0 0 22 22" fill="none" xmlns="http://www.w3.org/2000/svg"><path d="M11 7.505A3.499 3.499 0 0 0 7.505 11 3.508 3.508 0 0 0 11 14.495 3.508 3.508 0 0 0 14.495 11 3.508 3.508 0 0 0 11 7.505ZM21.5 11c0-1.455 0-2.88-.075-4.335-.075-1.68-.465-3.18-1.695-4.395C18.5 1.04 17.015.65 15.335.575 13.88.5 12.455.5 11 .5S8.12.5 6.665.575C4.985.65 3.485 1.04 2.27 2.27 1.04 3.5.65 4.985.575 6.665.5 8.12.5 9.545.5 11s0 2.88.075 4.335c.075 1.68.465 3.18 1.695 4.395 1.23 1.23 2.715 1.62 4.395 1.695 1.455.075 2.88.075 4.335.075s2.88 0 4.335-.075c1.68-.075 3.18-.465 4.395-1.695 1.23-1.23 1.62-2.715 1.695-4.395.09-1.44.075-2.88.075-4.335ZM11 16.385A5.371 5.371 0 0 1 5.615 11c0-2.985 2.4-5.385 5.385-5.385s5.385 2.4 5.385 5.385-2.4 5.385-5.385 5.385Zm5.61-9.735c-.69 0-1.26-.555-1.26-1.26s.555-1.26 1.26-1.26 1.26.555 1.26 1.26a1.2 1.2 0 0 1-.36.885 1.2 1.2 0 0 1-.885.36l-.015.015Z" fill="#000" fill-opacity=".8"/></svg>