<svg width="24" height="24" viewBox="0 0 24 24" fill="none" xmlns="http://www.w3.org/2000/svg">
<path fill-rule="evenodd" clip-rule="evenodd" d="M17.5959 5.53952C17.455 5.37963 17.2834 5.24965 17.0913 5.15729C16.8993 5.06493 16.6906 5.01207 16.4777 5.00184C16.2648 4.9916 16.052 5.02421 15.852 5.09771C15.6519 5.17122 15.4686 5.28414 15.313 5.42977C15.1574 5.5754 15.0326 5.75079 14.946 5.94554C14.8594 6.1403 14.8128 6.35045 14.8089 6.56355C14.805 6.77665 14.844 6.98836 14.9234 7.18614C15.0028 7.38392 15.1212 7.56374 15.2714 7.71494L19.3497 12.0778L15.2697 16.4389C15.1195 16.5902 15.0011 16.77 14.9217 16.9678C14.8422 17.1655 14.8033 17.3772 14.8072 17.5903C14.8111 17.8034 14.8577 18.0136 14.9443 18.2083C15.0309 18.4031 15.1557 18.5785 15.3113 18.7241C15.4669 18.8698 15.6502 18.9827 15.8503 19.0562C16.0503 19.1297 16.2631 19.1623 16.476 19.1521C16.6889 19.1418 16.8975 19.089 17.0896 18.9966C17.2817 18.9042 17.4533 18.7743 17.5942 18.6144L22.6942 13.1647C22.9696 12.8697 23.1227 12.4813 23.1227 12.0778C23.1227 11.6743 22.9696 11.2859 22.6942 10.9909L17.5959 5.53952ZM8.8548 7.71666C9.00501 7.56545 9.12334 7.38563 9.20278 7.18785C9.28221 6.99007 9.32114 6.77836 9.31726 6.56526C9.31337 6.35216 9.26675 6.14201 9.18016 5.94726C9.09357 5.75251 8.96877 5.57712 8.81315 5.43148C8.65753 5.28585 8.47426 5.17293 8.2742 5.09943C8.07415 5.02592 7.86137 4.99332 7.64848 5.00355C7.43559 5.01379 7.22692 5.06665 7.03484 5.15901C6.84275 5.25137 6.67116 5.38134 6.53023 5.54123L1.42852 10.9909C1.15315 11.2859 1 11.6743 1 12.0778C1 12.4813 1.15315 12.8697 1.42852 13.1647L6.5268 18.6144C6.81868 18.9082 7.21354 19.0768 7.62763 19.0843C8.04172 19.0919 8.44246 18.9378 8.74485 18.6548C9.04724 18.3718 9.2275 17.9822 9.24739 17.5685C9.26727 17.1548 9.12523 16.7496 8.85137 16.4389L4.7748 12.0778L8.8548 7.71666Z" fill="#0475C7"/>
</svg>
