<svg width="20" height="20" viewBox="0 0 20 20" fill="none" xmlns="http://www.w3.org/2000/svg">
<g clip-path="url(#clip0_341_2964)">
<path d="M1.49805 10.375C1.49805 14.2129 3.95898 17.4648 7.35742 18.666V2.08398C3.95898 3.28516 1.49805 6.53711 1.49805 10.375Z" fill="#75A843"/>
<path d="M19.0762 10.375C19.0762 6.53711 16.6152 3.28516 13.2168 2.08398V18.666C16.6445 17.4648 19.0762 14.2129 19.0762 10.375Z" fill="#ED4C5C"/>
<path d="M7.35742 18.666C8.26562 18.9883 9.26172 19.1641 10.2871 19.1641C11.3125 19.1641 12.3086 18.9883 13.2168 18.666V2.08398C12.3086 1.76172 11.3125 1.58594 10.2871 1.58594C9.26172 1.58594 8.26562 1.76172 7.35742 2.08398V18.666Z" fill="white"/>
</g>
<defs>
<clipPath id="clip0_341_2964">
<rect width="18.75" height="18.75" fill="white" transform="translate(1 1)"/>
</clipPath>
</defs>
</svg>
