<svg width="160" height="32" viewBox="0 0 160 32" fill="none" xmlns="http://www.w3.org/2000/svg">
<g clip-path="url(#clip0_252_568)">
<path d="M18.4646 0V21.3939L0.0532074 32.0863L9.26044 16.0416L18.4646 0Z" fill="black"/>
<path d="M21.2176 0V21.3939L39.6321 32.0863L30.4248 16.0416L21.2176 0Z" fill="white"/>
<path d="M75.6215 3.20068L65.2882 13.5601L76.2741 29.1723H70.6542L62.17 16.7336L58.4718 20.4543V29.1723H53.9759V3.20068H58.4718V14.9827L69.8928 3.20068H75.6215Z" fill="black"/>
<path d="M82.531 3.09125V7.17667H78.3977V3.09125H82.531ZM82.531 10.3502V29.1723H78.3977V10.3502H82.531Z" fill="black"/>
<path d="M106.106 3.20068V7.14019H97.8755V29.1723H93.3433V7.14019H85.113V3.20068H106.106Z" fill="black"/>
<path d="M126.728 25.2328V29.1723H109.035V3.20068H113.603V25.2328H126.728Z" fill="black"/>
<path d="M133.589 3.09125V7.17667H129.455V3.09125H133.589ZM133.589 10.3502V29.1723H129.455V10.3502H133.589Z" fill="black"/>
<path d="M159.556 3.20068V29.1723H154.879L142.842 10.0584V29.1723H138.563V3.20068H143.313L155.206 22.3511V3.20068H159.556Z" fill="black"/>
</g>
<defs>
<clipPath id="clip0_252_568">
<rect width="160" height="32" fill="white"/>
</clipPath>
</defs>
</svg>
