<svg width="24" height="24" viewBox="0 0 24 24" fill="none" xmlns="http://www.w3.org/2000/svg"><g clip-path="url(#a)"><path d="M23.643 5.43a.439.439 0 0 1 .012.097v5.153a.373.373 0 0 1-.187.324l-4.325 2.492v4.934a.37.37 0 0 1-.187.323L9.929 23.95a.302.302 0 0 1-.067.027l-.023.012a.394.394 0 0 1-.191 0 .12.12 0 0 1-.027-.012.32.32 0 0 1-.063-.027L.535 18.753a.376.376 0 0 1-.191-.323V2.973c0-.032.007-.067.016-.098.003-.012.007-.02.012-.031l.023-.059c.004-.012.015-.02.023-.031l.035-.047a.221.221 0 0 0 .035-.027c.016-.012.027-.024.043-.032L5.043.05a.376.376 0 0 1 .375 0l4.516 2.598c.016.008.027.02.039.032l.039.027c.011.015.022.03.031.047.008.007.02.02.027.031l.024.059c.004.012.012.02.012.031a.265.265 0 0 1 .015.098v9.652l3.758-2.164V5.528a.367.367 0 0 1 .028-.129l.023-.058c.008-.016.02-.024.027-.036.012-.015.02-.031.031-.042a.188.188 0 0 1 .04-.027.16.16 0 0 1 .038-.032l4.516-2.598a.358.358 0 0 1 .375 0l4.512 2.598c.016.008.027.02.043.032a.221.221 0 0 1 .035.027c.012.01.023.027.035.042.008.012.02.02.024.036.012.019.015.039.023.058a.08.08 0 0 1 .016.032l-.002-.001Zm-.742 5.03V6.18l-1.578.906-2.18 1.258v4.28l3.758-2.163Zm-4.508 7.75v-4.285l-2.149 1.223-6.125 3.5v4.324l8.274-4.762ZM1.093 3.625V18.21l8.273 4.762v-4.324l-4.325-2.45c-.016-.007-.027-.02-.039-.031-.012-.008-.027-.016-.035-.027h-.004c-.012-.012-.02-.027-.032-.04-.007-.011-.019-.023-.027-.038a.18.18 0 0 1-.019-.047c-.007-.016-.016-.027-.02-.043a.242.242 0 0 1-.007-.055c-.004-.016-.007-.027-.007-.043V5.788L2.67 4.531l-1.579-.906ZM5.228.808 1.472 2.972l3.757 2.164 3.758-2.164L5.229.808Zm1.957 13.508 2.18-1.257V3.625l-1.579.906L5.604 5.79v9.433l1.582-.905ZM18.768 3.364l-3.762 2.164 3.762 2.163 3.758-2.163-3.758-2.164Zm-.375 4.98L14.631 6.18v4.28l2.18 1.258 1.581.906.001-4.28Zm-8.652 9.653 8.27-4.719-3.754-2.164-8.266 4.758 3.75 2.125Z" fill="#626262"/></g><defs><clipPath id="a"><path fill="#fff" d="M0 0h24v24H0z"/></clipPath></defs></svg>