<svg width="192" height="33" viewBox="0 0 192 33" fill="none" xmlns="http://www.w3.org/2000/svg"><path d="M187.431 19.717h4.539c-.091 1.488-.501 2.808-1.23 3.962-.718 1.154-1.725 2.055-3.021 2.702-1.285.648-2.834.972-4.645.972-1.417 0-2.687-.243-3.811-.729a8.106 8.106 0 0 1-2.884-2.125c-.79-.921-1.392-2.034-1.807-3.34-.415-1.305-.622-2.768-.622-4.387v-1.533c0-1.62.212-3.082.637-4.388.436-1.316 1.053-2.434 1.853-3.355a8.25 8.25 0 0 1 2.899-2.125c1.124-.496 2.379-.744 3.765-.744 1.842 0 3.396.334 4.661 1.002 1.275.668 2.262 1.589 2.96 2.763.708 1.174 1.133 2.51 1.275 4.008h-4.554c-.051-.891-.228-1.645-.531-2.262a3.019 3.019 0 0 0-1.382-1.412c-.607-.324-1.417-.486-2.429-.486-.759 0-1.422.142-1.989.425-.566.283-1.042.714-1.427 1.29-.384.577-.673 1.306-.865 2.187-.182.87-.273 1.892-.273 3.066v1.564c0 1.143.086 2.15.258 3.02.172.861.435 1.59.789 2.187a3.68 3.68 0 0 0 1.397 1.336c.577.293 1.27.44 2.08.44.951 0 1.735-.152 2.353-.455a3.148 3.148 0 0 0 1.412-1.352c.334-.597.531-1.34.592-2.231Zm-14.423 3.78v3.552h-11.127v-3.552h11.127Zm-9.655-18.551v22.103h-4.554V4.946h4.554ZM147.368 19.17h-5.633v-3.552h5.633c.87 0 1.578-.142 2.125-.425.546-.293.946-.698 1.199-1.214.253-.516.38-1.098.38-1.746 0-.658-.127-1.27-.38-1.837a3.069 3.069 0 0 0-1.199-1.366c-.547-.344-1.255-.517-2.125-.517h-4.054V27.05h-4.554V4.946h8.608c1.73 0 3.213.314 4.448.941 1.244.618 2.196 1.473 2.854 2.566.657 1.093.986 2.343.986 3.75 0 1.427-.329 2.661-.986 3.704-.658 1.042-1.61 1.847-2.854 2.413-1.235.567-2.718.85-4.448.85Zm-18.111 8.183c-1.275 0-2.419-.202-3.431-.607-1.012-.415-1.872-.987-2.581-1.715a7.619 7.619 0 0 1-1.609-2.536 8.546 8.546 0 0 1-.562-3.097v-.607c0-1.245.177-2.383.532-3.416.354-1.032.86-1.928 1.518-2.687a6.665 6.665 0 0 1 2.429-1.745c.951-.415 2.024-.623 3.218-.623 1.164 0 2.196.192 3.097.577a6.065 6.065 0 0 1 2.262 1.64c.617.708 1.083 1.558 1.397 2.55.313.982.47 2.075.47 3.28v1.82h-13.055v-2.914h8.759v-.334c0-.607-.111-1.149-.334-1.624a2.571 2.571 0 0 0-.972-1.154c-.435-.284-.991-.425-1.669-.425-.577 0-1.073.126-1.488.38a2.933 2.933 0 0 0-1.017 1.062 5.767 5.767 0 0 0-.577 1.61 10.195 10.195 0 0 0-.182 2.003v.607c0 .658.091 1.265.273 1.822a4.42 4.42 0 0 0 .804 1.442c.355.405.78.719 1.276.942.506.222 1.078.334 1.715.334.79 0 1.523-.152 2.201-.456a4.763 4.763 0 0 0 1.777-1.412l2.125 2.308c-.344.496-.815.971-1.412 1.427-.587.455-1.295.83-2.125 1.123-.83.284-1.776.425-2.839.425Zm-14.271-13.147V27.05h-4.372V10.624h4.114l.258 3.582Zm4.949-3.688-.076 4.053c-.212-.03-.47-.056-.774-.076a7.857 7.857 0 0 0-.804-.046c-.618 0-1.154.081-1.61.243-.445.152-.819.38-1.123.683a2.978 2.978 0 0 0-.668 1.109 5.424 5.424 0 0 0-.243 1.487l-.88-.273c0-1.063.106-2.04.318-2.93.213-.9.522-1.685.926-2.353.415-.668.921-1.184 1.519-1.548.597-.365 1.28-.547 2.049-.547.243 0 .491.02.744.06.253.031.46.077.622.137Zm-27.568 8.486v-.32c0-1.204.172-2.312.516-3.324.344-1.022.845-1.907 1.503-2.656a6.735 6.735 0 0 1 2.429-1.746c.961-.425 2.064-.638 3.309-.638s2.353.213 3.325.638a6.712 6.712 0 0 1 2.444 1.745 7.562 7.562 0 0 1 1.518 2.657c.344 1.012.516 2.12.516 3.325v.319c0 1.194-.172 2.302-.516 3.324a7.746 7.746 0 0 1-1.518 2.657 6.74 6.74 0 0 1-2.429 1.746c-.962.415-2.065.622-3.31.622-1.244 0-2.353-.207-3.324-.622a6.88 6.88 0 0 1-2.444-1.746 7.883 7.883 0 0 1-1.503-2.657c-.344-1.022-.516-2.13-.516-3.324Zm4.372-.32v.32c0 .688.06 1.33.182 1.928a5.21 5.21 0 0 0 .577 1.579c.273.445.627.794 1.062 1.047.436.253.967.38 1.594.38.608 0 1.129-.127 1.564-.38a2.897 2.897 0 0 0 1.048-1.047 5.2 5.2 0 0 0 .576-1.58c.132-.597.198-1.24.198-1.927v-.32c0-.667-.066-1.295-.198-1.882a4.94 4.94 0 0 0-.592-1.578 2.94 2.94 0 0 0-1.047-1.094c-.435-.263-.962-.394-1.579-.394s-1.144.131-1.579.394a3.106 3.106 0 0 0-1.047 1.094 5.212 5.212 0 0 0-.577 1.578 9.286 9.286 0 0 0-.182 1.883Zm-13.101 5.254c.536 0 1.012-.102 1.427-.304a2.41 2.41 0 0 0 .971-.88c.243-.385.37-.836.38-1.352h4.114c-.01 1.154-.319 2.181-.926 3.082-.607.89-1.422 1.594-2.444 2.11-1.022.506-2.166.76-3.431.76-1.275 0-2.389-.213-3.34-.638a6.518 6.518 0 0 1-2.353-1.761 7.715 7.715 0 0 1-1.412-2.642 10.916 10.916 0 0 1-.47-3.249v-.44c0-1.164.156-2.247.47-3.249.314-1.012.785-1.892 1.412-2.641a6.443 6.443 0 0 1 2.353-1.776c.941-.425 2.044-.638 3.31-.638 1.346 0 2.525.258 3.537.774a5.768 5.768 0 0 1 2.398 2.217c.587.951.886 2.08.896 3.385h-4.114a3.424 3.424 0 0 0-.35-1.488 2.518 2.518 0 0 0-.94-1.062c-.405-.274-.906-.41-1.503-.41-.638 0-1.16.136-1.564.41a2.618 2.618 0 0 0-.941 1.093c-.223.455-.38.976-.47 1.563a13.103 13.103 0 0 0-.122 1.822v.44c0 .638.04 1.25.121 1.837.081.587.233 1.108.456 1.564.232.455.551.815.956 1.078.405.263.931.395 1.579.395ZM73.239 3.731V27.05h-4.387V3.731h4.387ZM66.24 23.497v3.552H54.475v-3.552H66.24ZM55.963 4.946v22.103h-4.555V4.946h4.555Zm8.744 9.002v3.462H54.475v-3.462h10.232Zm1.518-9.002v3.567h-11.75V4.946h11.75Z" fill="#fff"/><path fill-rule="evenodd" clip-rule="evenodd" d="M14.613 16.789V3.419A3.42 3.42 0 0 1 18.033 0H34.2a3.42 3.42 0 0 1 3.42 3.42v13.37a3.42 3.42 0 0 1-3.42 3.42H18.033a3.42 3.42 0 0 1-3.42-3.42Zm2.487 0c0 .515.418.932.933.932H34.2a.933.933 0 0 0 .933-.932V3.419a.933.933 0 0 0-.933-.932H18.033a.933.933 0 0 0-.933.933v13.369Z" fill="#fff"/><path fill-rule="evenodd" clip-rule="evenodd" d="M0 28.915v-13.37a3.42 3.42 0 0 1 3.42-3.42h16.167a3.42 3.42 0 0 1 3.42 3.42v13.37a3.42 3.42 0 0 1-3.42 3.42H3.42A3.42 3.42 0 0 1 0 28.914Zm2.487 0c0 .515.418.932.933.932h16.167a.933.933 0 0 0 .933-.932v-13.37a.933.933 0 0 0-.933-.932H3.42a.933.933 0 0 0-.933.933v13.369Z" fill="#fff"/><path fill-rule="evenodd" clip-rule="evenodd" d="M24.873 28.915v-3.42a3.42 3.42 0 0 1 3.42-3.42H34.2a3.42 3.42 0 0 1 3.42 3.42v3.42a3.42 3.42 0 0 1-3.42 3.42h-5.907a3.42 3.42 0 0 1-3.42-3.42Zm2.487 0c0 .515.418.932.933.932H34.2a.933.933 0 0 0 .933-.932v-3.42a.933.933 0 0 0-.933-.933h-5.907a.933.933 0 0 0-.933.933v3.42Z" fill="#63D23A"/></svg>