<svg width="116" height="54" viewBox="0 0 116 54" fill="none" xmlns="http://www.w3.org/2000/svg"><path fill-rule="evenodd" clip-rule="evenodd" d="m24.468 34.722 2.08-6.116 1.982 6.116h-4.062Zm.693-11.09-5.943 16.894h3.368l.99-3.006h5.845l.99 3.006h3.369L27.737 23.63h-2.576ZM59.041 1.14c6.24 0 12.283.415 17.93 1.348C69.936.933 62.011 0 53.59 0 23.974 0 0 11.401 0 25.393c0 7.048 6.043 13.37 15.85 18.035C7.925 38.971 3.07 33.271 3.07 27.052c0-14.303 25.063-25.808 55.97-25.912ZM38.236 40.526h-3.17V23.63h3.17l4.26 9.121 4.26-9.12h3.17v16.894h-3.17v-9.847l-3.17 6.427h-2.18l-3.17-6.427v9.847ZM55.672 23.63v16.895h-3.17V23.63h3.17Zm11.293 10.261h-2.873v-2.798h6.043v2.384c0 2.591-.396 3.938-1.486 5.182-1.09 1.244-2.675 1.97-4.458 1.97-1.684 0-3.269-.622-4.358-1.866-.694-.83-1.288-1.866-1.387-2.799-.1-.725-.198-1.969-.198-3.938V31.3c0-3.42.297-4.767 1.585-6.011 1.188-1.244 2.575-1.866 4.457-1.866.991 0 1.882.104 2.576.518.792.311 1.288.726 2.278 1.659l-2.179 2.28c-.693-.726-.99-.933-1.486-1.244a4.22 4.22 0 0 0-1.288-.207c-.891 0-1.585.31-2.08.933-.297.414-.594.933-.594 1.347-.1.726-.199 1.866-.199 3.42v.519c0 2.695.199 3.627.793 4.25.495.621 1.189.828 1.981.828 1.783 0 2.873-1.243 2.873-3.213v-.622Zm14.265-2.176c0 3.42-.1 4.25-.793 5.079-.495.621-1.188.932-2.08.932-.793 0-1.486-.31-2.08-.932-.892-.933-.793-2.903-.793-4.975 0-2.073 0-3.628.793-4.56.495-.623 1.287-.934 2.08-.934.792 0 1.585.311 2.08.933.694.83.793 1.659.793 4.457Zm3.269-.83v1.14c0 2.385.099 4.872-1.684 6.738-1.189 1.244-2.675 1.866-4.458 1.866-1.783 0-3.269-.622-4.458-1.866-1.684-1.762-1.585-4.56-1.585-6.426v-.933c0-3.42.397-4.768 1.585-6.012 1.189-1.243 2.675-1.865 4.458-1.865 1.783 0 3.269.622 4.458 1.866 1.188 1.14 1.684 2.694 1.684 5.493Zm9.212-6.425c-.198-.104 0-.311.198-.311.199 0 .595-.104.595-.311 0-.104-.1-.311 0-.415 0-.104-.198-.31-.297-.414-.1-.104-.297-.208 0-.415s.594.207.891 0c.297-.31-.198-.518-.198-.83-.099-.207-.396-.414-.396-.621 0-.207.198-.311.198-.726-.1-.414-.694-1.036-.694-1.036 0-.311.298-.622.595-.622.198 0 .396.104.693.104.198 0 .198-.415.198-.622l-.297-.622s-.396-.933-.396-1.244a2.395 2.395 0 0 0-.495-.725c-.1-.104 0-.311.198-.311.297 0 .198.207.396.518.198.207.297.207.495.207.199 0 .397-.207.595-.31.297-.519 1.189.207 1.387.207.099 0 .198-.208.198-.208s-.1-.31-.297-.622c-.199-.207-.397-.518-.397-.518s-.693-.933-.792-1.036c-.1-.104-.892-.83-1.09-1.037-.198-.207-.891-.622-.99-.725-.1-.208-.199-.519 0-.622.198-.104.594.414.594.414l.396.208s.396-.104.595 0c.198.103.297 0 .495 0s.297-.104.594-.208h.594c.199.104.595 0 .991-.103.396-.104.594 0 .694-.208.099-.207-.298-.621-.298-.725-.099-.104-.594-.311-.693-.518-.198-.208-.297-.415-.396-.518-.1-.104-.496 0-.694.103-.198 0-.099.207-.495.104-.198-.104-.495 0-.693.207-.1.104-.397.415-.694.415-.099-.104-.396-.104-.693-.311-.198-.104-.595-.311-.694-.415-.297-.207-.495.104-.792 0-.694-.31-1.189-.207-1.288-.31-.099-.208 0-.519-.099-.726-.1-.208-.396-.208-.396-.311 0-.104-.198-.311-.297-.518-.1-.208.099-.415 0-.622 0-.208-.397-.311-.397-.311s-.198-.104-.396 0c-.198.103-.198.103-.396.31l-.297.623c-.1.31.099 1.14.198 1.347.099.104.297.207.594.31.297.105.297-.103.495 0 .199.208.397.208.496.312.099.103-.694.207-1.09.103-.198 0-.693.208-.693.208s-.397 0-.793.207c-.594.311-.792.83-.792.933 0 .207-.1.31-.198.622-.1.31-.199.725-.199.725l-.297.622c-.099.207-.198.726-.198.726s-.099.414.1.622c.296.207.098.518-.397.414-.198 0-.396 0-.594.207-.298.311-.793 1.452-.793 1.452s-.198.932-.297 1.45c0 .208-.198.83-.297 1.244 0 .104-.297.622-.198 1.037.198.103.792-.622.891-.83.1-.207.595-1.243.694-1.554.198-.518.792-1.037.99-1.348.198-.31.1-.621.594-1.14.595-.621.496-.518.595-.725.198-.311.792-.518.892-.518.594-.104.594.518 1.09.725.296.104.594.415.594.622 0 .207-.298.415-.496.83-.099.207.198.932.297 1.14.1.207.397.725.496 1.036.099.31.396.518.891.414.396 0 .694.519-.297.415-.297 0-.693.104-.792.104-.199 0-.397 0-.694.103-.396.104-.297.415-.297.622.099.311.198.518.396.83.198.31.297 1.036.396 1.14.1.207-.297.31-.198.621 0 .208.198.311.297.415.1.104.397.104.892-.104.297-.103.495.311.297.415-.099.104-.693.207-.792.518-.1.207.297.83-.1 1.244-.098.104 0 .829 0 1.036 0 .208.298.518.397.622.099.104.198.83.198.933 0 .207 0 .415.198.622.1.104.198.31.297.415 0 .103-.099.31-.297.207-.099-.104-.495 0-.693.103-.198.104-.496.519-.595.726-.198.415-.198 1.244 0 1.555.1.207.298.31.298.518 0 .31.099.414-.1.829 0 .104-.099.415-.099.726-.099.725.991 3.524 1.387 4.042.496.518 1.288 1.97 1.783 2.798.496.83.397.519.297.83-.099.31-.297.414-.594.621-.297.208-.396.726-.594.933-.1.311-.892 1.037-.892 1.14 0 .104-.693 1.037-.297 1.244.396.207.694-.207.99-.415.793-.621 1.19-1.347 1.784-1.554.693-.208.891-.622.99-.933.1-.311.1-.415-.099-.726-.099-.207-.198-.725-.198-.932-.099-.208-.396-.726-.495-.83-.1-.103-.297-1.347-.198-1.45.099-.104.099-.415.198-.623.099-.207-.1-.518-.198-.621-.198-.104-.297-.311-.397-.726-.099-.518.1-.415.397-.622.297-.207-.1-.414 0-.829.099-.518-.496-.622-.793-1.037-.297-.414-.495-.829-.495-1.036 0-.207-.198-.622-.297-.726-.1-.207-.198-.31-.198-.621 0-.208.297-.415.396-.622.099-.207-.1-.311-.1-.415 0-.104 0-.414.199-.518.198-.104.396 0 .495.104.1.103.198.207.198.725 0 .207 0 .207.298.518.297.311.891.519 1.486.311.099-.103.495-.207.693-.414.396-.311.792-.104 1.189-.104.396 0 .792 0 1.09-.31.197-.104.296-.312.396-.52 0-.206.495-.517.594-.725.099-.207.099-.518-.1-.622-.197-.103-.395.208-.693.208-.297 0-.297-.104-.495-.207-.198-.104-.396 0-.495.207-.1.103-.495.103-.495-.207 0-.415-.298-.519-.298-.83-.099-.414-.396-.622-.495-.829-.198-.207-.198-.415-.495-.725-.297-.311-.396-.622-.694-.726-.198-.104-.495-1.036-.792-1.036-.198-.415-.595-.208-.793-.311Zm8.916-11.298c-.099 0-.396 0-.694-.104-.297-.103-1.386-.725-1.585-.829-.198-.103-.792-.414-.891-.518-.198-.31 0-.622.099-.725 0-.104.198-.415.297-.415.198 0 .297.31.198.518-.099.207.099.415.496.518h.495c.099 0 .396 0 .396-.103.099 0 .099.103.099.31 0 .208.198.415.495.519.199.104.496.207.595.31.099.105.396.105.297.312.099.104-.198.207-.297.207Zm2.476 22.491c.099.104-.693 1.14-1.188 1.14-.496 0-.694-.414-.793-.725-.099-.31-.495-1.244-.594-1.555-.099-.31-.496-.829-.496-.829s-.792-1.036-1.188-1.658c-.397-.518-1.09-.933-1.09-1.348-.099-.414.297-.621.594-.829.298-.103.595-.414.793-.518.198-.104.396-.31.594-.31.198-.104.397.103.099.414-.297.207.198.207.298.518.099.207-.496.622-.298 1.14.099.415.595.622.595 1.14.099.518.594.933.693 1.14.099.208.198.518.396.726.099.103.198.207.298.414.099.415-.1.311-.199.415 0 .104 0 .207.199.518.198.311.495.311.594.207.099-.103.594-.103.693 0Zm7.826-15.547c1.981 2.695 3.071 5.494 3.071 8.5C116 42.599 92.027 54 62.408 54c-10.797 0-20.902-1.555-29.322-4.146 7.727 1.866 16.543 2.902 25.954 2.902 30.907 0 55.87-11.608 55.87-25.808 0-2.384-.693-4.664-1.981-6.84Z" fill="#1F1F1F"/></svg>