<svg width="111" height="29" viewBox="0 0 111 29" fill="none" xmlns="http://www.w3.org/2000/svg"><path d="M7.09 25.34c-2.188 0-3.828-.587-4.92-1.76C1.075 22.407.53 20.687.53 18.42v-7.64c0-2.267.546-3.987 1.64-5.16 1.092-1.173 2.732-1.76 4.92-1.76h1.64V.5h4.32v3.36h1.64c2.186 0 3.826.587 4.92 1.76 1.092 1.173 1.64 2.893 1.64 5.16v7.64c0 2.267-.548 3.987-1.64 5.16-1.094 1.173-2.734 1.76-4.92 1.76h-1.64v3.16H8.73v-3.16H7.09Zm0-17.6c-.72 0-1.268.227-1.64.68-.374.427-.56 1.12-.56 2.08v8.2c0 1.867.732 2.8 2.2 2.8h1.64V7.74H7.09Zm5.96 13.76h1.64c1.466 0 2.2-.933 2.2-2.8v-8.2c0-.96-.188-1.653-.56-2.08-.374-.453-.92-.68-1.64-.68h-1.64V21.5Zm23.92.28c0 2.267-.56 4.013-1.68 5.24-1.12 1.2-2.747 1.8-4.88 1.8-2.134 0-3.76-.6-4.88-1.8-1.12-1.227-1.68-2.973-1.68-5.24V7.22c0-2.267.56-4 1.68-5.2C26.65.793 28.275.18 30.41.18c2.133 0 3.76.613 4.88 1.84 1.12 1.2 1.68 2.933 1.68 5.2v2.72h-4.16v-3c0-1.84-.76-2.76-2.28-2.76-1.52 0-2.28.92-2.28 2.76v15.12c0 1.813.76 2.72 2.28 2.72 1.52 0 2.28-.907 2.28-2.72v-4h4.16v3.72Zm7.07-1.88v8.6h-4.4V.5h4.4v12.2L49.8.5h4.4l-6.12 12.48L54.2 28.5h-4.52L45.4 17.34l-1.36 2.56Zm17.133 4.64c.72 0 1.253-.053 1.6-.16.373-.133.64-.4.8-.8.186-.427.293-1.067.32-1.92L64.612.5h12.44v28h-4.48v-24h-3.84l-.48 16.92c-.08 2.56-.614 4.387-1.6 5.48-.987 1.093-2.587 1.64-4.8 1.64h-.68v-4ZM90.22 28.5l-.76-5.08h-5.4l-.76 5.08h-4.04l4.48-28h6.44l4.48 28h-4.44Zm-1.36-8.88L86.74 5.46l-2.12 14.16h4.24ZM96.75.5h12.319v4h-7.92v7.16h2.56c2.187 0 3.84.6 4.96 1.8 1.12 1.173 1.68 2.88 1.68 5.12v3c0 2.24-.56 3.96-1.68 5.16-1.12 1.173-2.773 1.76-4.96 1.76h-6.96V.5Zm6.959 24c.747 0 1.307-.2 1.68-.6.374-.4.56-1.08.56-2.04V18.3c0-.96-.186-1.64-.56-2.04-.373-.4-.933-.6-1.68-.6h-2.56v8.84h2.56Z" fill="#fff"/></svg>