<svg width="269" height="44" viewBox="0 0 269 44" fill="none" xmlns="http://www.w3.org/2000/svg">
<path d="M21.4336 14.3717C21.3302 14.5374 21.2056 14.6889 21.063 14.8224C21.0144 14.8612 20.9738 14.9092 20.9437 14.9637C20.9136 15.0181 20.8945 15.078 20.8875 15.1399C20.8806 15.2017 20.8858 15.2643 20.9031 15.3241C20.9203 15.3839 20.9491 15.4398 20.9879 15.4884C21.0663 15.5867 21.1805 15.6498 21.3054 15.6639C21.3672 15.6709 21.4298 15.6656 21.4896 15.6484C21.5494 15.6312 21.6053 15.6023 21.6539 15.5635C21.9295 15.3184 22.16 15.0269 22.335 14.7022H22.7356C22.9132 15.0423 23.1507 15.3477 23.4367 15.6036C23.5192 15.6692 23.6217 15.7046 23.7271 15.7038C23.8259 15.7059 23.9229 15.6769 24.0043 15.6209C24.0858 15.5648 24.1475 15.4846 24.1807 15.3915C24.214 15.2984 24.2171 15.1972 24.1896 15.1022C24.1621 15.0073 24.1054 14.9234 24.0276 14.8625C23.9235 14.769 23.8295 14.665 23.7471 14.552C24.0393 14.4773 24.3108 14.3377 24.5414 14.1435C24.7721 13.9492 24.9559 13.7055 25.0792 13.4303C25.1993 12.9495 24.8488 12.8494 24.8288 12.1583C24.8288 11.267 25.3496 10.8964 25.0792 10.3756C24.9395 10.1773 24.7667 10.0045 24.5684 9.86483C24.3484 9.64901 24.0903 9.47582 23.8072 9.35405C23.4367 9.22386 23.2964 9.35405 22.8057 9.35405C21.8843 9.35405 21.694 8.9234 21.2733 9.10367C21.0831 9.18379 20.8928 9.57439 20.5122 10.3756C20.1316 11.1768 20.0715 11.4573 19.751 11.6476C19.6709 11.6476 19.5307 11.7677 19.4906 11.8979C19.4506 12.0281 19.6108 12.1884 19.751 12.4087C20.0315 12.8694 19.751 13.0998 20.0114 13.4102C20.2718 13.7207 20.5222 13.5505 21.013 13.921C21.1874 14.0506 21.3339 14.2141 21.4436 14.4018M22.5553 10.4758C22.8366 10.4758 23.1115 10.5592 23.3454 10.7154C23.5793 10.8717 23.7616 11.0938 23.8692 11.3537C23.9769 11.6136 24.005 11.8995 23.9502 12.1754C23.8953 12.4513 23.7598 12.7047 23.5609 12.9036C23.362 13.1025 23.1086 13.2379 22.8328 13.2928C22.5569 13.3477 22.2709 13.3195 22.0111 13.2119C21.7512 13.1042 21.5291 12.9219 21.3728 12.6881C21.2165 12.4542 21.1331 12.1792 21.1331 11.8979C21.1331 11.7112 21.1699 11.5262 21.2414 11.3537C21.3129 11.1812 21.4176 11.0244 21.5497 10.8923C21.6817 10.7603 21.8385 10.6555 22.0111 10.584C22.1836 10.5126 22.3685 10.4758 22.5553 10.4758Z" fill="#7D192F"/>
<path d="M40.8223 9.50451V6.63013C40.8226 6.51032 40.7771 6.39493 40.6953 6.30746C40.6134 6.22 40.5012 6.16705 40.3817 6.15941C39.2734 6.08227 38.207 5.70489 37.297 5.06774C37.2394 5.02599 37.1732 4.99782 37.1032 4.98534C37.0332 4.97285 36.9613 4.97638 36.8929 4.99566C36.8245 5.01493 36.7613 5.04945 36.7081 5.09662C36.655 5.1438 36.6132 5.20241 36.5859 5.26804C36.5456 5.36593 36.5396 5.47452 36.5686 5.57629C36.5977 5.67805 36.6602 5.76704 36.7461 5.8289C37.6813 6.46827 38.7564 6.87358 39.8809 7.01071V9.50451C39.8858 16.3779 37.9748 23.1166 34.3625 28.9642C32.4882 31.995 30.1878 34.7406 27.532 37.1167V30.8271C28.3724 30.7213 29.1532 30.3376 29.7503 29.7369C30.3474 29.1361 30.7264 28.353 30.8271 27.512C31.7504 27.4041 32.6021 26.9611 33.2205 26.2669C33.8389 25.5728 34.1811 24.6759 34.1822 23.7463C34.1822 23.6836 34.1697 23.6216 34.1454 23.5638C34.1212 23.506 34.0856 23.4537 34.0408 23.4098C33.996 23.366 33.943 23.3315 33.8847 23.3085C33.8264 23.2854 33.7641 23.2742 33.7015 23.2755H7.12088C6.99603 23.2755 6.8763 23.3251 6.78803 23.4134C6.69975 23.5017 6.65016 23.6214 6.65016 23.7463C6.65397 24.6757 6.99867 25.5715 7.61891 26.2637C8.23916 26.9559 9.09183 27.3966 10.0153 27.502C10.1159 28.343 10.495 29.1261 11.092 29.7268C11.6891 30.3276 12.47 30.7113 13.3103 30.8171V37.1067C10.6551 34.7301 8.35478 31.9846 6.4799 28.9542C2.8658 23.1105 0.951406 16.3755 0.951454 9.50451V7.01071C2.48163 6.79375 3.89991 6.08555 4.99273 4.99273C6.08555 3.89991 6.79375 2.48163 7.01071 0.951453H10.4159C10.5319 0.953423 10.6447 0.914271 10.7346 0.840939C10.8244 0.767607 10.8854 0.664834 10.9067 0.550841C10.9183 0.483505 10.9151 0.414444 10.8974 0.348455C10.8796 0.282467 10.8477 0.221133 10.8039 0.168716C10.76 0.116299 10.7053 0.0740557 10.6435 0.0449204C10.5817 0.015785 10.5143 0.000456643 10.446 1.70615e-07H6.65016C6.5234 -0.000105459 6.40152 0.0488398 6.31004 0.136585C6.21856 0.224329 6.16458 0.344067 6.15941 0.470719C6.04766 1.94744 5.40845 3.3347 4.35851 4.37912C3.30857 5.42354 1.91797 6.05544 0.440674 6.15941C0.321111 6.16705 0.208963 6.22 0.127084 6.30746C0.0452049 6.39493 -0.000243315 6.51032 9.79769e-07 6.63013V9.50451C0.00107311 16.4047 1.88104 23.1744 5.43816 29.087C8.99528 34.9997 14.0953 39.8321 20.1908 43.0658C20.26 43.1035 20.3374 43.1232 20.4162 43.1232C20.4949 43.1232 20.5724 43.1035 20.6415 43.0658C26.7352 39.8308 31.8332 34.9977 35.3885 29.0852C38.9438 23.1726 40.8222 16.4037 40.8223 9.50451ZM7.63166 24.207H33.1907C33.0775 24.8694 32.7342 25.4707 32.2212 25.9049C31.7082 26.3391 31.0585 26.5784 30.3864 26.5806H10.446C9.77388 26.5784 9.12414 26.3391 8.61116 25.9049C8.09818 25.4707 7.75486 24.8694 7.64167 24.207M16.6554 31.0875V39.7607C15.8409 39.1865 15.0497 38.5789 14.2818 37.9379V30.8571H16.6554V31.0875ZM19.9805 31.0875V41.8539C19.1726 41.3999 18.3814 40.9192 17.6069 40.4117V30.8571H19.9805V31.0875ZM23.3056 31.0875V40.4017C22.5378 40.9158 21.7465 41.3965 20.932 41.8439V30.8271H23.3056V31.0875ZM26.6307 31.0875V37.9279C25.8628 38.5956 25.0716 39.2032 24.257 39.7507V30.8571H26.6307V31.0875ZM13.8111 29.8957C13.139 29.8935 12.4893 29.6542 11.9763 29.22C11.4633 28.7858 11.12 28.1845 11.0068 27.522H29.8656C29.754 28.1897 29.4087 28.796 28.8913 29.2326C28.374 29.6693 27.7183 29.9078 27.0413 29.9057L13.8111 29.8957Z" fill="#7D192F"/>
<path d="M6.64283 17.0861C6.63336 17.2429 6.63336 17.4001 6.64283 17.5568C6.7596 18.4739 7.20617 19.3171 7.89915 19.9289C8.59212 20.5408 9.48412 20.8796 10.4086 20.8819H23.7289C24.6518 20.8814 25.5425 20.5429 26.2327 19.9304C26.3536 19.8245 26.4673 19.7108 26.5733 19.5899C27.0734 19.0291 27.3943 18.3315 27.4947 17.5869V17.1161V4.27653H33.6641C33.7889 4.27653 33.9087 4.22694 33.9969 4.13866C34.0852 4.05038 34.1348 3.93065 34.1348 3.80581C34.1451 3.64573 34.1451 3.48516 34.1348 3.32508C34.0183 2.40973 33.5731 1.5679 32.8823 0.956237C32.1914 0.344577 31.3018 0.00475179 30.3791 0L17.0788 0C16.1559 0.000513992 15.2652 0.338979 14.5749 0.951453C14.4546 1.05792 14.3409 1.17164 14.2344 1.29197C13.6219 1.98226 13.2835 2.87296 13.283 3.7958V16.6154H7.11355C7.05089 16.614 6.9886 16.6252 6.93033 16.6483C6.87206 16.6714 6.81898 16.7058 6.7742 16.7497C6.72943 16.7935 6.69386 16.8458 6.66958 16.9036C6.6453 16.9614 6.6328 17.0234 6.63281 17.0861M30.3791 0.951453C31.0511 0.953644 31.7009 1.19291 32.2139 1.62711C32.7269 2.06132 33.0702 2.6626 33.1834 3.32508H27.5748C27.688 2.6626 28.0313 2.06132 28.5443 1.62711C29.0573 1.19291 29.707 0.953644 30.3791 0.951453ZM14.2344 3.7958C14.2371 3.04224 14.5376 2.3203 15.0704 1.78746C15.6033 1.25461 16.3252 0.954093 17.0788 0.951453H27.8652C27.1706 1.56339 26.7221 2.40699 26.6033 3.32508C26.593 3.48516 26.593 3.64573 26.6033 3.80581V17.0861C26.6167 17.2427 26.6167 17.4002 26.6033 17.5568C26.4909 18.2192 26.1477 18.8205 25.6344 19.2541C25.1211 19.6876 24.4709 19.9255 23.799 19.9255C23.1271 19.9255 22.4769 19.6876 21.9636 19.2541C21.4504 18.8205 21.1071 18.2192 20.9947 17.5568C20.9947 17.4867 20.9947 17.2764 20.9947 17.0661C20.9921 16.943 20.9414 16.8258 20.8534 16.7397C20.7654 16.6535 20.6472 16.6053 20.524 16.6054H14.2344V3.7958ZM13.2329 17.5668H19.9532C20.0693 18.4858 20.5182 19.3303 21.2151 19.9405H10.4386C9.76656 19.9383 9.11681 19.699 8.60383 19.2648C8.09085 18.8306 7.74753 18.2293 7.63434 17.5668H13.2329Z" fill="#7D192F"/>
<path d="M123.898 25.4287H112.711C112.397 25.4366 112.099 25.5666 111.88 25.7912C111.661 26.0157 111.539 26.3169 111.539 26.6305C111.538 26.7853 111.567 26.9387 111.625 27.082C111.684 27.2254 111.77 27.3557 111.879 27.4656C111.988 27.5755 112.117 27.6627 112.26 27.7222C112.403 27.7817 112.556 27.8124 112.711 27.8124H117.068V41.6936C117.052 41.8653 117.073 42.0385 117.128 42.2019C117.183 42.3653 117.271 42.5155 117.388 42.6428C117.504 42.7701 117.646 42.8718 117.804 42.9414C117.961 43.0109 118.132 43.0469 118.304 43.0469C118.477 43.0469 118.648 43.0109 118.805 42.9414C118.963 42.8718 119.105 42.7701 119.221 42.6428C119.337 42.5155 119.426 42.3653 119.481 42.2019C119.536 42.0385 119.557 41.8653 119.541 41.6936V27.8124H123.898C124.052 27.811 124.204 27.7794 124.346 27.7193C124.487 27.6592 124.616 27.5718 124.724 27.4621C124.832 27.3523 124.917 27.2224 124.974 27.0797C125.032 26.9371 125.061 26.7844 125.06 26.6305C125.06 26.3186 124.939 26.0188 124.722 25.7946C124.505 25.5703 124.21 25.4391 123.898 25.4287Z" fill="#7D192F"/>
<path d="M106.171 25.3086C106.006 25.3099 105.842 25.3439 105.69 25.4087C105.538 25.4734 105.401 25.5676 105.285 25.6859C105.17 25.8041 105.079 25.9441 105.018 26.0976C104.957 26.2512 104.926 26.4153 104.929 26.5805V32.8902H96.7166V26.5805C96.7166 26.2551 96.5873 25.9431 96.3572 25.713C96.1271 25.4829 95.8151 25.3537 95.4897 25.3537C95.1643 25.3537 94.8522 25.4829 94.6222 25.713C94.3921 25.9431 94.2628 26.2551 94.2628 26.5805V41.6936C94.2474 41.864 94.2677 42.0358 94.3223 42.198C94.377 42.3602 94.4648 42.5092 94.5802 42.6355C94.6957 42.7618 94.8361 42.8627 94.9927 42.9318C95.1493 43.0008 95.3186 43.0365 95.4897 43.0365C95.6608 43.0365 95.8301 43.0008 95.9867 42.9318C96.1432 42.8627 96.2837 42.7618 96.3991 42.6355C96.5146 42.5092 96.6024 42.3602 96.6571 42.198C96.7117 42.0358 96.732 41.864 96.7166 41.6936V35.2938H104.929V41.6936C104.929 42.019 105.058 42.3311 105.288 42.5611C105.519 42.7912 105.831 42.9205 106.156 42.9205C106.481 42.9205 106.793 42.7912 107.024 42.5611C107.254 42.3311 107.383 42.019 107.383 41.6936V26.5805C107.386 26.2526 107.261 25.9365 107.035 25.6991C106.808 25.4616 106.499 25.3216 106.171 25.3086Z" fill="#7D192F"/>
<path d="M81.0534 25.1387C79.8953 25.1552 78.7522 25.4031 77.6912 25.8676C76.6302 26.3321 75.6728 27.0039 74.875 27.8436C74.0773 28.6833 73.4554 29.6739 73.0459 30.7573C72.6364 31.8407 72.4475 32.995 72.4903 34.1525C72.4903 39.2603 76.1459 43.1061 81.0033 43.1061C82.1614 43.0896 83.3045 42.8418 84.3655 42.3773C85.4265 41.9128 86.384 41.2409 87.1817 40.4012C87.9794 39.5615 88.6013 38.5709 89.0108 37.4875C89.4203 36.4041 89.6092 35.2498 89.5664 34.0924V34.0523C89.5664 28.9445 85.9108 25.0986 81.0534 25.0986M81.0534 40.7125C77.6682 40.7125 75.0442 37.808 75.0442 34.1024V34.0523C75.0442 30.3066 77.6182 27.4823 81.0534 27.4823C84.4886 27.4823 87.0626 30.3867 87.0626 34.1024C87.0626 37.8481 84.4886 40.6724 81.0534 40.6724" fill="#7D192F"/>
<path d="M135.778 25.1387C134.621 25.1566 133.478 25.4053 132.419 25.8704C131.359 26.3355 130.403 27.0076 129.606 27.8471C128.809 28.6867 128.188 29.6769 127.779 30.7596C127.37 31.8424 127.182 32.9959 127.225 34.1525C127.225 39.2603 130.88 43.1061 135.738 43.1061C136.896 43.0896 138.039 42.8418 139.1 42.3773C140.161 41.9128 141.118 41.2409 141.916 40.4012C142.714 39.5615 143.336 38.5709 143.745 37.4875C144.155 36.4041 144.344 35.2498 144.301 34.0924V34.0523C144.301 28.9445 140.645 25.0986 135.788 25.0986M135.788 40.7125C132.403 40.7125 129.779 37.808 129.779 34.1024V34.0523C129.779 30.3066 132.353 27.4823 135.788 27.4823C139.223 27.4823 141.797 30.3867 141.797 34.1024C141.797 37.8481 139.223 40.6724 135.788 40.6724" fill="#7D192F"/>
<path d="M154.811 25.4287H150.134C149.806 25.4417 149.496 25.5818 149.27 25.8192C149.044 26.0566 148.919 26.3727 148.922 26.7007V41.7236C148.922 42.049 149.051 42.361 149.281 42.5911C149.511 42.8212 149.823 42.9505 150.149 42.9505C150.474 42.9505 150.786 42.8212 151.016 42.5911C151.246 42.361 151.376 42.049 151.376 41.7236V36.9263H154.52C157.826 36.9263 161.171 35.1335 161.171 31.1174C161.171 27.6922 158.677 25.4788 154.821 25.4788M154.591 34.6228H151.376V27.8124H154.681C157.235 27.8124 158.687 29.0242 158.687 31.1474C158.687 33.1505 157.034 34.5226 154.581 34.5226" fill="#7D192F"/>
<path d="M171.963 26.2703C171.864 25.974 171.672 25.7172 171.416 25.5371C171.16 25.357 170.854 25.263 170.541 25.2688H170.451C170.136 25.2634 169.827 25.3572 169.569 25.5369C169.31 25.7167 169.114 25.9732 169.009 26.2703L162.93 41.1531C162.835 41.3532 162.787 41.5725 162.789 41.794C162.785 41.947 162.812 42.0991 162.867 42.2417C162.923 42.3843 163.006 42.5144 163.112 42.6244C163.219 42.7344 163.346 42.8221 163.486 42.8825C163.627 42.9428 163.778 42.9746 163.931 42.9758C164.189 42.976 164.44 42.8947 164.649 42.7436C164.857 42.5925 165.013 42.3794 165.093 42.1346L166.695 38.4189H174.207L175.799 42.0645C175.883 42.317 176.042 42.5378 176.255 42.6972C176.468 42.8566 176.725 42.9468 176.991 42.9558C177.15 42.9532 177.307 42.9193 177.453 42.8559C177.599 42.7926 177.732 42.7012 177.842 42.5868C177.953 42.4724 178.04 42.3373 178.098 42.1892C178.157 42.0412 178.186 41.8831 178.183 41.7239C178.175 41.5165 178.128 41.3124 178.043 41.123L171.963 26.2703ZM173.265 36.0553H167.657L170.451 28.674L173.265 36.0553Z" fill="#7D192F"/>
<path d="M63.8737 33.1609L69.1718 27.4923C69.411 27.2527 69.5475 26.9294 69.5524 26.5909C69.558 26.2672 69.4381 25.9539 69.2178 25.7168C68.9974 25.4796 68.6938 25.337 68.3706 25.319C68.1913 25.3263 68.0153 25.37 67.8535 25.4475C67.6916 25.5249 67.5472 25.6346 67.4291 25.7696L59.1965 34.8836V26.6209C59.2119 26.4519 59.1918 26.2814 59.1377 26.1205C59.0835 25.9596 58.9964 25.8118 58.8819 25.6864C58.7674 25.5611 58.628 25.461 58.4727 25.3925C58.3174 25.324 58.1495 25.2886 57.9797 25.2886C57.8099 25.2886 57.642 25.324 57.4867 25.3925C57.3313 25.461 57.192 25.5611 57.0775 25.6864C56.963 25.8118 56.8759 25.9596 56.8217 26.1205C56.7675 26.2814 56.7475 26.4519 56.7628 26.6209V41.6439C56.7475 41.813 56.7675 41.9834 56.8217 42.1443C56.8759 42.3052 56.963 42.453 57.0775 42.5784C57.192 42.7038 57.3313 42.8039 57.4867 42.8724C57.642 42.9409 57.8099 42.9763 57.9797 42.9763C58.1495 42.9763 58.3174 42.9409 58.4727 42.8724C58.628 42.8039 58.7674 42.7038 58.8819 42.5784C58.9964 42.453 59.0835 42.3052 59.1377 42.1443C59.1918 41.9834 59.2119 41.813 59.1965 41.6439V38.1686L62.2011 34.9637L67.7196 42.375C67.8204 42.5516 67.9661 42.6984 68.142 42.8004C68.3179 42.9025 68.5177 42.9561 68.7211 42.9559C69.0558 42.9429 69.3722 42.7993 69.6024 42.556C69.8326 42.3126 69.9585 41.9889 69.953 41.6539C69.9554 41.3268 69.8459 41.0087 69.6425 40.7525L63.8737 33.1609Z" fill="#7D192F"/>
<path d="M106.158 0.290527H94.9609C94.6473 0.298368 94.3493 0.428442 94.1304 0.652986C93.9115 0.877529 93.789 1.17875 93.7891 1.49236C93.7891 1.80407 93.9122 2.10316 94.1317 2.3245C94.3511 2.54585 94.6492 2.67153 94.9609 2.67417H99.3175V16.5554C99.302 16.7272 99.3225 16.9003 99.3776 17.0637C99.4328 17.2271 99.5213 17.3773 99.6377 17.5046C99.7541 17.6319 99.8957 17.7336 100.053 17.8032C100.211 17.8727 100.382 17.9087 100.554 17.9087C100.727 17.9087 100.897 17.8727 101.055 17.8032C101.213 17.7336 101.355 17.6319 101.471 17.5046C101.587 17.3773 101.676 17.2271 101.731 17.0637C101.786 16.9003 101.807 16.7272 101.791 16.5554V2.67417H106.158C106.312 2.67286 106.464 2.64125 106.606 2.58115C106.747 2.52105 106.876 2.43363 106.984 2.32389C107.091 2.21415 107.177 2.08423 107.234 1.94156C107.292 1.79888 107.321 1.64625 107.32 1.49236C107.32 1.18044 107.199 0.880664 106.982 0.656393C106.765 0.432122 106.47 0.300925 106.158 0.290527Z" fill="#7D192F"/>
<path d="M68.6476 0.169922C68.3146 0.175197 67.9973 0.31185 67.7646 0.550102C67.532 0.788354 67.403 1.10889 67.4057 1.44186V7.7515H59.1931V1.44186C59.1931 1.11648 59.0639 0.804417 58.8338 0.574334C58.6037 0.34425 58.2916 0.214991 57.9663 0.214991C57.6409 0.214991 57.3288 0.34425 57.0987 0.574334C56.8686 0.804417 56.7394 1.11648 56.7394 1.44186V16.5549C56.724 16.7254 56.7442 16.8972 56.7989 17.0593C56.8535 17.2215 56.9414 17.3705 57.0568 17.4968C57.1722 17.6232 57.3127 17.7241 57.4693 17.7931C57.6259 17.8621 57.7951 17.8978 57.9663 17.8978C58.1374 17.8978 58.3066 17.8621 58.4632 17.7931C58.6198 17.7241 58.7603 17.6232 58.8757 17.4968C58.9911 17.3705 59.079 17.2215 59.1336 17.0593C59.1883 16.8972 59.2085 16.7254 59.1931 16.5549V10.1552H67.4057V16.5549C67.4057 16.8803 67.5349 17.1924 67.765 17.4225C67.9951 17.6526 68.3072 17.7818 68.6325 17.7818C68.9579 17.7818 69.27 17.6526 69.5001 17.4225C69.7302 17.1924 69.8594 16.8803 69.8594 16.5549V1.44186C69.8623 1.11395 69.7374 0.797802 69.5112 0.560383C69.285 0.322964 68.9752 0.182922 68.6476 0.169922Z" fill="#7D192F"/>
<path d="M230.283 0.169922C229.95 0.175197 229.633 0.31185 229.4 0.550102C229.168 0.788354 229.039 1.10889 229.041 1.44186V7.7515H220.829V1.44186C220.829 1.11648 220.699 0.804417 220.469 0.574334C220.239 0.34425 219.927 0.214991 219.602 0.214991C219.276 0.214991 218.964 0.34425 218.734 0.574334C218.504 0.804417 218.375 1.11648 218.375 1.44186V16.5549C218.375 16.8803 218.504 17.1924 218.734 17.4225C218.964 17.6526 219.276 17.7818 219.602 17.7818C219.927 17.7818 220.239 17.6526 220.469 17.4225C220.699 17.1924 220.829 16.8803 220.829 16.5549V10.1552H229.041V16.5549C229.041 16.8803 229.171 17.1924 229.401 17.4225C229.631 17.6526 229.943 17.7818 230.268 17.7818C230.594 17.7818 230.906 17.6526 231.136 17.4225C231.366 17.1924 231.495 16.8803 231.495 16.5549V1.44186C231.498 1.11395 231.373 0.797802 231.147 0.560383C230.921 0.322964 230.611 0.182922 230.283 0.169922Z" fill="#7D192F"/>
<path d="M83.1315 0C81.9734 0.0165548 80.8303 0.26436 79.7693 0.728862C78.7083 1.19336 77.7509 1.8652 76.9532 2.7049C76.1554 3.5446 75.5336 4.53524 75.124 5.61864C74.7145 6.70204 74.5256 7.85635 74.5684 9.01377C74.5684 14.1216 78.224 17.9674 83.0814 17.9674C84.2395 17.9509 85.3826 17.7031 86.4436 17.2386C87.5046 16.7741 88.4621 16.1022 89.2598 15.2625C90.0575 14.4228 90.6794 13.4322 91.0889 12.3488C91.4984 11.2654 91.6873 10.1111 91.6445 8.95367C91.6145 3.84587 87.9589 0 83.1315 0ZM83.1315 15.6138C79.7464 15.6138 77.1223 12.7094 77.1223 9.00375V8.95367C77.1223 5.20795 79.6963 2.38364 83.1315 2.38364C86.5668 2.38364 89.1407 5.28808 89.1407 9.01377C89.1407 12.7595 86.5668 15.5838 83.1315 15.5838" fill="#7D192F"/>
<path d="M158.012 0.220255H157.762C157.524 0.226559 157.291 0.292136 157.085 0.411051C156.878 0.529966 156.705 0.698465 156.58 0.901295L147.827 13.2802V1.42209C147.827 1.10334 147.7 0.797652 147.475 0.572265C147.249 0.346877 146.944 0.220255 146.625 0.220255C146.306 0.220255 146 0.346877 145.775 0.572265C145.55 0.797652 145.423 1.10334 145.423 1.42209V16.5752C145.416 16.7298 145.441 16.8841 145.495 17.029C145.549 17.174 145.632 17.3064 145.739 17.4186C145.845 17.5308 145.973 17.6203 146.115 17.6819C146.257 17.7435 146.41 17.7759 146.565 17.7771H146.655C146.896 17.7625 147.131 17.6915 147.339 17.5698C147.548 17.448 147.725 17.2788 147.857 17.076L156.87 4.38662V16.5752C156.87 16.894 156.997 17.1997 157.222 17.4251C157.448 17.6504 157.754 17.7771 158.072 17.7771C158.391 17.7771 158.697 17.6504 158.922 17.4251C159.147 17.1997 159.274 16.894 159.274 16.5752V1.46215C159.273 1.29775 159.239 1.13521 159.175 0.983822C159.111 0.832434 159.018 0.69516 158.9 0.579838C158.783 0.464516 158.644 0.373405 158.492 0.311708C158.34 0.25001 158.177 0.218935 158.012 0.220255Z" fill="#7D192F"/>
<path d="M134.639 0.290527H129.962C129.634 0.303528 129.324 0.443569 129.098 0.680988C128.872 0.918407 128.747 1.23456 128.75 1.56247V16.5854C128.75 16.9108 128.879 17.2229 129.109 17.4529C129.339 17.683 129.652 17.8123 129.977 17.8123C130.302 17.8123 130.614 17.683 130.844 17.4529C131.075 17.2229 131.204 16.9108 131.204 16.5854V11.7881H134.349C137.654 11.7881 140.999 9.99535 140.999 5.97922C140.999 2.55398 138.505 0.340604 134.649 0.340604M134.419 9.48457H131.204V2.67417H134.509C137.063 2.67417 138.515 3.88602 138.515 6.00926C138.515 8.01232 136.862 9.38442 134.409 9.38442" fill="#7D192F"/>
<path d="M117.815 1.13166C117.715 0.835312 117.523 0.578487 117.268 0.398413C117.012 0.218339 116.706 0.124372 116.393 0.130133H116.303C115.988 0.124732 115.679 0.218534 115.42 0.398267C115.161 0.578 114.966 0.834564 114.861 1.13166L108.781 16.0244C108.686 16.2246 108.638 16.4438 108.641 16.6654C108.637 16.8183 108.664 16.9705 108.719 17.1131C108.774 17.2556 108.858 17.3857 108.964 17.4957C109.07 17.6057 109.197 17.6935 109.338 17.7538C109.479 17.8142 109.63 17.8459 109.783 17.8472C110.04 17.8473 110.291 17.7661 110.5 17.615C110.709 17.4639 110.864 17.2507 110.945 17.0059L112.547 13.2902H120.058L121.661 16.9658C121.745 17.2184 121.904 17.4392 122.117 17.5986C122.33 17.758 122.587 17.8482 122.853 17.8572C123.172 17.8519 123.477 17.7206 123.7 17.4917C123.923 17.2628 124.047 16.955 124.045 16.6353C124.036 16.428 123.989 16.2241 123.904 16.0344L117.815 1.13166ZM119.097 10.9066H113.508L116.303 3.52532L119.097 10.9066Z" fill="#7D192F"/>
<path d="M173.263 1.13166C173.164 0.835312 172.972 0.578487 172.716 0.398413C172.46 0.218339 172.154 0.124372 171.841 0.130133H171.751C171.436 0.124732 171.127 0.218534 170.869 0.398267C170.61 0.578 170.414 0.834565 170.309 1.13166L164.25 16.0244C164.155 16.2246 164.107 16.4438 164.109 16.6654C164.108 16.8166 164.137 16.9667 164.193 17.1069C164.25 17.2472 164.334 17.3749 164.44 17.4827C164.546 17.5906 164.672 17.6766 164.811 17.7357C164.95 17.7948 165.1 17.8258 165.251 17.8272C165.509 17.8273 165.76 17.746 165.969 17.5949C166.177 17.4438 166.333 17.2307 166.413 16.9859L168.015 13.2702H175.527L177.119 16.9458C177.203 17.1984 177.362 17.4192 177.575 17.5786C177.788 17.7379 178.045 17.8282 178.311 17.8372C178.631 17.8319 178.935 17.7005 179.159 17.4717C179.382 17.2428 179.506 16.935 179.503 16.6153C179.495 16.4079 179.448 16.2039 179.363 16.0144L173.263 1.13166ZM174.545 10.9066H168.957L171.751 3.52532L174.545 10.9066Z" fill="#7D192F"/>
<path d="M245.373 1.13166C245.273 0.835312 245.081 0.578487 244.826 0.398413C244.57 0.218339 244.263 0.124372 243.951 0.130133H243.861C243.546 0.124732 243.237 0.218534 242.978 0.398267C242.719 0.578 242.523 0.834565 242.418 1.13166L236.359 16.0244C236.264 16.2245 236.216 16.4438 236.219 16.6654C236.218 16.8166 236.246 16.9667 236.303 17.1069C236.359 17.2472 236.443 17.3749 236.549 17.4827C236.655 17.5906 236.781 17.6766 236.921 17.7357C237.06 17.7948 237.209 17.8258 237.361 17.8272C237.618 17.8273 237.869 17.746 238.078 17.5949C238.287 17.4438 238.442 17.2307 238.522 16.9859L240.125 13.2702H247.636L249.229 16.9458C249.313 17.1984 249.472 17.4192 249.685 17.5786C249.898 17.7379 250.155 17.8282 250.421 17.8372C250.74 17.8319 251.045 17.7005 251.268 17.4717C251.491 17.2428 251.615 16.935 251.612 16.6153C251.605 16.4079 251.557 16.2039 251.472 16.0144L245.373 1.13166ZM246.655 10.9066H241.066L243.861 3.52532L246.655 10.9066Z" fill="#7D192F"/>
<path d="M259.975 10.7165L256.39 15.654C256.171 15.9003 256.047 16.2161 256.039 16.5454C256.041 16.8751 256.171 17.1913 256.4 17.4282C256.63 17.6651 256.941 17.8044 257.271 17.8173C257.495 17.8109 257.713 17.7478 257.906 17.634C258.098 17.5201 258.259 17.3592 258.373 17.1663L262.629 11.1571H266.555V16.5253C266.54 16.6944 266.56 16.8648 266.614 17.0257C266.668 17.1866 266.755 17.3345 266.87 17.4598C266.984 17.5852 267.124 17.6853 267.279 17.7538C267.434 17.8223 267.602 17.8577 267.772 17.8577C267.942 17.8577 268.11 17.8223 268.265 17.7538C268.42 17.6853 268.56 17.5852 268.674 17.4598C268.789 17.3345 268.876 17.1866 268.93 17.0257C268.984 16.8648 269.004 16.6944 268.989 16.5253V1.59252C268.996 1.42809 268.97 1.26394 268.913 1.10948C268.856 0.955018 268.77 0.813268 268.658 0.69234C268.546 0.571412 268.412 0.473679 268.262 0.404733C268.113 0.335787 267.951 0.296981 267.787 0.290535H261.988C261.141 0.258639 260.296 0.400328 259.505 0.706899C258.715 1.01347 257.995 1.47844 257.391 2.07326C256.536 3.04533 256.078 4.3041 256.109 5.59864C256.057 6.77309 256.42 7.92842 257.134 8.86227C257.848 9.79612 258.868 10.449 260.015 10.7064M262.188 2.69421H266.625V8.82357H262.208C259.995 8.82357 258.563 7.61171 258.563 5.72884C258.563 3.84596 259.885 2.72425 262.188 2.72425" fill="#7D192F"/>
<path d="M213.934 12.1788C213.934 8.11259 210.709 6.31985 207.505 6.31985H204.079V1.59263C204.095 1.42355 204.075 1.25313 204.02 1.09223C203.966 0.93133 203.879 0.783487 203.765 0.658127C203.65 0.532767 203.511 0.432642 203.356 0.364138C203.2 0.295634 203.032 0.260254 202.862 0.260254C202.693 0.260254 202.525 0.295634 202.369 0.364138C202.214 0.432642 202.075 0.532767 201.96 0.658127C201.846 0.783487 201.759 0.93133 201.704 1.09223C201.65 1.25313 201.63 1.42355 201.646 1.59263V16.5254C201.639 16.6907 201.665 16.8556 201.722 17.0107C201.78 17.1658 201.867 17.308 201.98 17.4291C202.093 17.5501 202.228 17.6477 202.379 17.716C202.53 17.7844 202.692 17.8223 202.857 17.8274H207.795C211.531 17.8274 213.934 15.614 213.934 12.1888M211.471 12.0186C211.471 14.1518 210.079 15.3536 207.655 15.3536H204.079V8.72352H207.565C209.938 8.72352 211.471 10.0355 211.471 12.0586" fill="#7D192F"/>
<path d="M196.312 1.56218C196.312 1.38865 196.277 1.21689 196.209 1.0573C196.141 0.897719 196.041 0.75363 195.915 0.633769C195.79 0.513908 195.641 0.42077 195.479 0.359998C195.316 0.299225 195.143 0.272084 194.97 0.280218H187.298C187.138 0.274879 186.978 0.301289 186.829 0.357921C186.679 0.414553 186.542 0.500285 186.426 0.610168C186.309 0.72005 186.216 0.851904 186.151 0.998115C186.085 1.14433 186.05 1.302 186.046 1.46202C186.046 8.47273 185.605 12.1383 184.574 14.1814C184.123 15.0628 183.722 15.2331 183.262 15.2331H183.132C182.681 15.2331 181.719 15.2331 181.559 16.3247C181.525 16.5035 181.534 16.6879 181.587 16.8623C181.639 17.0366 181.733 17.1958 181.86 17.3263C182.063 17.5105 182.303 17.6509 182.563 17.7388C182.823 17.8267 183.098 17.8601 183.372 17.837C184.15 17.7916 184.898 17.5201 185.524 17.0557C186.151 16.5914 186.628 15.9545 186.897 15.223C188.319 12.1684 188.56 7.30094 188.64 2.65384H193.858V16.5551C193.842 16.7269 193.863 16.9 193.918 17.0634C193.973 17.2269 194.062 17.377 194.178 17.5043C194.294 17.6316 194.436 17.7333 194.594 17.8029C194.752 17.8725 194.922 17.9084 195.095 17.9084C195.267 17.9084 195.438 17.8725 195.596 17.8029C195.754 17.7333 195.895 17.6316 196.012 17.5043C196.128 17.377 196.216 17.2269 196.272 17.0634C196.327 16.9 196.347 16.7269 196.332 16.5551L196.312 1.56218Z" fill="#7D192F"/>
</svg>
