<svg width="45" height="45" viewBox="0 0 45 45" fill="none" xmlns="http://www.w3.org/2000/svg"><path d="M38.117 37.709c8.788-8.787 7.997-23.824-1.767-33.588L4.53 35.941c9.764 9.765 24.801 10.554 33.587 1.768" fill="#8B5E3C"/><path d="M36.35 4.121c4.881 4.881 1.716 15.963-7.07 24.75-8.789 8.787-19.869 11.951-24.75 7.07-4.881-4.88-1.716-15.961 7.071-24.748C20.39 2.405 31.47-.76 36.35 4.12Z" fill="#603913"/><path d="M5.511 30.271a1.248 1.248 0 0 1-2.096-.586c-.085-.336-1.969-8.337 3.766-14.072 1.4-1.4 3.479-4.718 4.07-5.68.5-.52.918-.338 1.873-1.294.437-.438 1.756-2.81 5.548.786.438.415.488 1.098.145 1.594L5.657 30.096a1.336 1.336 0 0 1-.146.175" fill="#F5F8FA"/><path d="M13.072 7.76c2.292-1.796 5.972-.394 6.876.495.853.852.583 2.48-.102 3.472L6.685 30.807a2.498 2.498 0 0 1-4.485-.823c-.09-.367-2.13-9.029 4.096-15.257 1.115-1.114 2.424-2.17 3.636-3.64a35.96 35.96 0 0 1 2.594-2.91l.546-.417Zm1.588 1.692a106.84 106.84 0 0 1-1.821 1.772s-3.005 3.503-4.775 5.271c-5.301 5.304-3.438 12.891-3.438 12.891L19.192 9.791s-3.49-1.302-4.532-.339" fill="#603913"/><path d="M34.583 5.889c3.904 3.905.74 13.402-7.072 21.212-7.81 7.81-17.307 10.977-21.212 7.072-3.905-3.906-.74-13.403 7.07-21.213C21.18 5.149 30.677 1.984 34.583 5.889Z" fill="#F5F8FA"/><path d="M31.985 8.596c2.898 2.898.104 10.393-6.242 16.739-6.348 6.348-13.84 9.14-16.74 6.242C6.107 28.68 8.9 21.186 15.247 14.84c6.347-6.347 13.841-9.142 16.739-6.243" fill="#99AAB5"/><path d="m19.751 12.424-1.47-.419c-.702-.39-1.694-.418-2.37.207l-1.515 1.592c-.716.862-2.397 2.672-3.742 4.017-4.759 4.759-2.899 10.903-2.818 11.163a.625.625 0 0 0 1.11.168l10.996-15.836a.625.625 0 0 0-.19-.892" fill="#99AAB5"/><path d="M15.3 32.57s4.011-2.606 4.714-4.714c.786-2.356 5.827-2.815 6.612-5.172.784-2.357 2.095-5.957 2.816-7.398.72-1.441 1.573-.001 2.358-2.357.785-2.359 2.355-3.93 2.355-3.93s0 11.001-2.355 13.357c-2.358 2.358-11.786 11.786-12.573 10.999-.785-.785-3.927-.785-3.927-.785" fill="#F5F8FA"/><path d="M16.453 34.663s4.662-3.172 5.395-5.368c.818-2.455 6.612-3.274 7.43-5.729.82-2.455 1.995-6.857 2.392-7.365 1.145-1.474 1.635-.001 2.455-2.454.818-2.458 2.454-4.093 2.454-4.093s0 11.457-2.454 13.912C31.67 26.023 21.849 35.843 21.03 35.024c-.82-.818-4.578-.361-4.578-.361" fill="#603913"/><path d="M17.789 36.825s4.512-2.931 5.302-5.303c.884-2.65 7.956-4.42 8.84-7.072.884-2.651.884-6.186 1.768-7.07.884-.885 1.767 0 2.651-2.652.884-2.652 2.651-4.42 2.651-4.42s0 12.375-2.651 15.027c-2.651 2.651-13.258 13.258-14.141 12.374-.885-.884-4.42-.884-4.42-.884" fill="#8B5E3C"/><path d="M28.995 40.079a.587.587 0 0 1-.349.165c-4.711.532-8.616-1.422-8.781-1.505-.336-.171-.5-.57-.362-.893.134-.323.52-.446.86-.272.036.019 3.428 2.303 7.726 1.816.356-.04 1.032-.019 1.11.345.046.219-.065.206-.204.344Zm12.946-11.474c-.144.142-.134.265-.362.206-.36-.091-.373-.645-.319-.997.615-3.989-.45-8.13-2.301-12.94-.135-.35.033-.719.367-.815.339-.099.724.105.858.456 1.944 5.041 2.571 9.544 1.92 13.765a.577.577 0 0 1-.163.325Zm-10.455 12.46c-.114-.356-1.045-.075-1.391.001-8.669 1.908-14.575-1.731-14.64-1.761-.34-.17-.724-.042-.856.279-.133.322.032.722.37.89.281.141 6.01 3.187 15.156 1.175.114-.026.901-.164.977-.24.153-.153.462-.104.384-.344" fill="#A97C50"/></svg>