<svg width="62" height="24" viewBox="0 0 62 24" fill="none" xmlns="http://www.w3.org/2000/svg"><path d="M.078 23V.453h3.5v9.531h11.563V.454h3.515V23h-3.515v-9.984H3.578V23h-3.5Zm29.422.328c-1.573 0-2.948-.344-4.125-1.031-1.167-.698-2.073-1.682-2.719-2.953-.646-1.282-.968-2.802-.968-4.563v-.031c0-1.75.322-3.26.968-4.531.657-1.271 1.568-2.25 2.735-2.938 1.177-.687 2.541-1.031 4.093-1.031 1.563 0 2.927.344 4.094 1.031 1.177.677 2.089 1.651 2.734 2.922.657 1.271.985 2.787.985 4.547v.031c0 1.771-.328 3.292-.984 4.563-.646 1.27-1.553 2.255-2.72 2.953-1.166.687-2.53 1.031-4.093 1.031Zm.016-2.844c.875 0 1.635-.224 2.28-.672.647-.447 1.147-1.093 1.5-1.937.355-.854.532-1.885.532-3.094v-.031c0-1.198-.177-2.219-.531-3.063-.354-.854-.86-1.5-1.516-1.937-.656-.448-1.422-.672-2.297-.672-.864 0-1.625.224-2.28.672-.647.448-1.152 1.094-1.517 1.938-.364.843-.546 1.864-.546 3.062v.031c0 1.209.177 2.24.53 3.094.366.844.876 1.49 1.532 1.938.656.447 1.427.671 2.313.671ZM40.046 23V.453h3.392V23h-3.391Zm13.017.328c-1.396 0-2.61-.349-3.641-1.047-1.031-.698-1.828-1.682-2.39-2.953-.563-1.281-.844-2.797-.844-4.547v-.015c0-1.75.28-3.26.843-4.532.573-1.27 1.37-2.25 2.39-2.937 1.032-.698 2.235-1.047 3.61-1.047 1.157 0 2.183.276 3.078.828a5.646 5.646 0 0 1 2.11 2.281h.062V.453h3.407V23H58.28v-2.781h-.062a5.743 5.743 0 0 1-2.063 2.281c-.885.552-1.916.828-3.093.828Zm.89-2.922c.854 0 1.604-.229 2.25-.687.656-.469 1.167-1.125 1.531-1.969.375-.844.563-1.833.563-2.969v-.015c0-1.136-.188-2.12-.563-2.954-.375-.843-.885-1.494-1.53-1.953-.647-.468-1.397-.703-2.25-.703-.886 0-1.652.23-2.298.688-.646.448-1.146 1.094-1.5 1.937-.343.834-.515 1.828-.515 2.985v.015c0 1.156.172 2.162.515 3.016.354.844.854 1.49 1.5 1.937.646.448 1.412.672 2.297.672Z" fill="url(#a)"/><defs><linearGradient id="a" x1="-29" y1="3" x2="93.447" y2=".196" gradientUnits="userSpaceOnUse"><stop stop-color="#023BE4"/><stop offset="1" stop-color="#00D3AD"/></linearGradient></defs></svg>