<svg width="315" height="23" viewBox="0 0 315 23" fill="none" xmlns="http://www.w3.org/2000/svg"><path d="M24.349 1h8.19l-.03 21h-4.5V3.4L19.849 22h-6.36L5.359 3.4V22h-4.5V1h8.19l7.68 18.45L24.349 1Zm33.698 21-2.19-4.71h-13.26L40.407 22h-4.65l9.96-21h7.17l9.96 21h-4.8Zm-13.83-8.22h10.02l-5.01-10.8-5.01 10.8ZM83.835 22l-7.68-7.98h-5.43V22h-4.68V1h14.43c2.42 0 4.38.57 5.88 1.71 1.52 1.12 2.28 2.77 2.28 4.95 0 2.02-.64 3.55-1.92 4.59-1.26 1.02-2.99 1.6-5.19 1.74l8.28 8.01h-5.97ZM70.725 4.75v5.73h9.51c1.14 0 2.04-.24 2.7-.72.68-.5 1.02-1.2 1.02-2.1 0-.92-.34-1.63-1.02-2.13-.68-.52-1.58-.78-2.7-.78h-9.51ZM117.236 22h-6l-9.12-8.76h-4.38V22h-4.68V1h4.68v8.64h4.32l8.64-8.64h5.67l-10.59 10.14L117.236 22Zm3.33 0V1h20.31v3.66h-15.63v4.92h12.3v3.48h-12.3v5.28h16.2V22h-20.88Zm23.099-17.16V1h22.95v3.84h-9.12V22h-4.68V4.84h-9.15Zm46.732 5.94h12.03v9.51a31.482 31.482 0 0 1-11.25 2.07c-4.44 0-7.89-.97-10.35-2.91-2.46-1.94-3.69-4.59-3.69-7.95 0-3.32 1.13-5.96 3.39-7.92 2.26-1.96 5.42-2.94 9.48-2.94 3.18 0 5.81.6 7.89 1.8 2.1 1.2 3.42 2.83 3.96 4.89l-4.53.3c-.46-.96-1.35-1.73-2.67-2.31-1.32-.58-2.87-.87-4.65-.87-2.6 0-4.62.65-6.06 1.95-1.42 1.3-2.13 3-2.13 5.1 0 2.14.81 3.85 2.43 5.13 1.62 1.28 3.97 1.92 7.05 1.92 2.26 0 4.54-.28 6.84-.84V13.9h-7.74v-3.12ZM224.606 22l-7.68-7.98h-5.43V22h-4.68V1h14.43c2.42 0 4.38.57 5.88 1.71 1.52 1.12 2.28 2.77 2.28 4.95 0 2.02-.64 3.55-1.92 4.59-1.26 1.02-2.99 1.6-5.19 1.74l8.28 8.01h-5.97Zm-13.11-17.25v5.73h9.51c1.14 0 2.04-.24 2.7-.72.68-.5 1.02-1.2 1.02-2.1 0-.92-.34-1.63-1.02-2.13-.68-.52-1.58-.78-2.7-.78h-9.51Zm24.377 14.67c-2.36-1.96-3.54-4.6-3.54-7.92 0-3.32 1.18-5.96 3.54-7.92 2.36-1.96 5.66-2.94 9.9-2.94s7.54.98 9.9 2.94c2.38 1.96 3.57 4.6 3.57 7.92 0 3.32-1.19 5.96-3.57 7.92-2.36 1.96-5.66 2.94-9.9 2.94s-7.54-.98-9.9-2.94Zm3.42-13.02c-1.52 1.3-2.28 3-2.28 5.1 0 2.1.76 3.8 2.28 5.1 1.54 1.3 3.7 1.95 6.48 1.95 2.78 0 4.94-.65 6.48-1.95 1.54-1.3 2.31-3 2.31-5.1 0-2.1-.77-3.8-2.31-5.1-1.54-1.3-3.7-1.95-6.48-1.95-2.78 0-4.94.65-6.48 1.95ZM282.378 1h4.68v12.24c0 2.9-1 5.15-3 6.75-1.98 1.58-4.92 2.37-8.82 2.37-3.9 0-6.85-.79-8.85-2.37-2-1.6-3-3.85-3-6.75V1h4.68v11.79c0 1.84.59 3.26 1.77 4.26 1.18.98 2.98 1.47 5.4 1.47 2.4 0 4.19-.49 5.37-1.47 1.18-1 1.77-2.42 1.77-4.26V1Zm24.201 0c2.42 0 4.38.57 5.88 1.71 1.52 1.14 2.28 2.82 2.28 5.04 0 2.24-.74 3.9-2.22 4.98-1.46 1.06-3.44 1.59-5.94 1.59h-9.39V22h-4.68V1h14.07Zm-.24 9.69c1.16 0 2.07-.25 2.73-.75.66-.5.99-1.23.99-2.19s-.33-1.68-.99-2.16c-.66-.5-1.57-.75-2.73-.75h-9.15v5.85h9.15Z" fill="#fff"/></svg>