<svg width="45" height="48" viewBox="0 0 45 48" fill="none" xmlns="http://www.w3.org/2000/svg">
<path d="M23.5863 15.8147C23.4726 15.997 23.3355 16.1637 23.1785 16.3106C23.125 16.3533 23.0804 16.4061 23.0472 16.4661C23.0141 16.526 22.9931 16.5919 22.9854 16.6599C22.9778 16.728 22.9836 16.7969 23.0025 16.8627C23.0215 16.9285 23.0532 16.9899 23.0959 17.0435C23.1821 17.1516 23.3078 17.2211 23.4452 17.2366C23.5133 17.2443 23.5822 17.2385 23.648 17.2195C23.7138 17.2006 23.7752 17.1688 23.8288 17.1261C24.132 16.8564 24.3857 16.5357 24.5782 16.1784H25.019C25.2145 16.5526 25.4758 16.8886 25.7904 17.1702C25.8812 17.2424 25.994 17.2813 26.1101 17.2804C26.2188 17.2828 26.3255 17.2509 26.4151 17.1892C26.5047 17.1275 26.5726 17.0392 26.6092 16.9368C26.6458 16.8344 26.6492 16.723 26.619 16.6185C26.5887 16.514 26.5263 16.4217 26.4407 16.3547C26.3262 16.2519 26.2227 16.1374 26.1321 16.013C26.4536 15.9309 26.7523 15.7772 27.0061 15.5635C27.2599 15.3498 27.4622 15.0815 27.5978 14.7787C27.7301 14.2497 27.3444 14.1395 27.3223 13.3791C27.3223 12.3982 27.8954 11.9905 27.5978 11.4174C27.4441 11.1992 27.254 11.009 27.0358 10.8553C26.7937 10.6178 26.5097 10.4273 26.1982 10.2933C25.7905 10.15 25.6362 10.2933 25.0961 10.2933C24.0822 10.2933 23.8728 9.81939 23.41 10.0178C23.2006 10.1059 22.9912 10.5357 22.5724 11.4174C22.1536 12.2991 22.0875 12.6076 21.7348 12.817C21.6467 12.817 21.4924 12.9493 21.4483 13.0925C21.4042 13.2358 21.5805 13.4122 21.7348 13.6546C22.0434 14.1616 21.7348 14.415 22.0214 14.7567C22.3079 15.0983 22.5834 14.911 23.1234 15.3187C23.3154 15.4613 23.4766 15.6413 23.5973 15.8477M24.8206 11.5276C25.1301 11.5276 25.4327 11.6194 25.6901 11.7913C25.9474 11.9633 26.148 12.2077 26.2664 12.4937C26.3849 12.7796 26.4159 13.0943 26.3555 13.3979C26.2951 13.7014 26.1461 13.9803 25.9272 14.1991C25.7083 14.418 25.4295 14.567 25.1259 14.6274C24.8224 14.6878 24.5077 14.6568 24.2217 14.5384C23.9358 14.4199 23.6914 14.2193 23.5194 13.962C23.3475 13.7046 23.2557 13.4021 23.2557 13.0925C23.2557 12.887 23.2962 12.6835 23.3748 12.4937C23.4535 12.3038 23.5687 12.1313 23.714 11.986C23.8594 11.8406 24.0319 11.7254 24.2217 11.6467C24.4116 11.5681 24.6151 11.5276 24.8206 11.5276Z" fill="white"/>
<path d="M44.9205 10.4587V7.29572C44.9207 7.16389 44.8707 7.03691 44.7806 6.94067C44.6905 6.84443 44.5671 6.78616 44.4356 6.77775C43.216 6.69287 42.0426 6.2776 41.0412 5.57649C40.9779 5.53055 40.905 5.49955 40.828 5.48581C40.751 5.47208 40.6718 5.47596 40.5966 5.49717C40.5213 5.51837 40.4518 5.55636 40.3932 5.60827C40.3347 5.66018 40.2887 5.72467 40.2587 5.7969C40.2144 5.90462 40.2078 6.02411 40.2398 6.13609C40.2718 6.24806 40.3405 6.34599 40.435 6.41406C41.4641 7.11761 42.6471 7.56361 43.8845 7.71451V10.4587C43.8899 18.0221 41.7871 25.4373 37.8121 31.8719C35.7496 35.207 33.2183 38.2282 30.296 40.8428V33.9218C31.2207 33.8054 32.0799 33.3832 32.7369 32.7221C33.394 32.0611 33.811 31.1993 33.9218 30.2739C34.9378 30.1552 35.875 29.6677 36.5555 28.9039C37.236 28.1401 37.6126 27.1531 37.6137 26.1301C37.6138 26.0612 37.6 25.9929 37.5733 25.9293C37.5466 25.8658 37.5074 25.8082 37.4581 25.7599C37.4089 25.7117 37.3505 25.6738 37.2863 25.6484C37.2222 25.623 37.1537 25.6107 37.0847 25.6122H7.83574C7.69836 25.6122 7.56661 25.6667 7.46947 25.7639C7.37233 25.861 7.31776 25.9928 7.31776 26.1301C7.32195 27.1529 7.70126 28.1386 8.38377 28.9003C9.06628 29.662 10.0046 30.1469 11.0207 30.2629C11.1315 31.1883 11.5485 32.0501 12.2056 32.7111C12.8626 33.3721 13.7218 33.7944 14.6465 33.9108V40.8318C11.7247 38.2166 9.19351 35.1955 7.13041 31.8609C3.1535 25.4306 1.04692 18.0194 1.04697 10.4587V7.71451C2.73076 7.47577 4.29142 6.69647 5.49395 5.49395C6.69647 4.29142 7.47578 2.73076 7.71451 1.04697H11.4616C11.5891 1.04914 11.7134 1.00605 11.8122 0.925361C11.9111 0.844667 11.9782 0.731576 12.0016 0.60614C12.0144 0.532044 12.0109 0.45605 11.9914 0.383437C11.9718 0.310824 11.9367 0.243333 11.8885 0.185654C11.8402 0.127975 11.78 0.0814902 11.712 0.0494299C11.644 0.0173697 11.5698 0.000502485 11.4946 1.87743e-07H7.31776C7.17828 -0.000116046 7.04416 0.0537428 6.9435 0.150296C6.84284 0.24685 6.78344 0.378608 6.77775 0.517974C6.65478 2.14294 5.9514 3.66946 4.79606 4.81874C3.64071 5.96801 2.11051 6.66334 0.484913 6.77775C0.353347 6.78616 0.229941 6.84443 0.139842 6.94067C0.049743 7.03691 -0.000267741 7.16389 1.07813e-06 7.29572V10.4587C0.00118083 18.0516 2.06988 25.5008 5.98409 32.007C9.89831 38.5132 15.5103 43.8308 22.2178 47.3891C22.2939 47.4306 22.3791 47.4523 22.4657 47.4523C22.5524 47.4523 22.6376 47.4306 22.7137 47.3891C29.4192 43.8294 35.0289 38.5111 38.9411 32.005C42.8533 25.4989 44.9204 18.0504 44.9205 10.4587ZM8.39779 26.6371H36.5227C36.3981 27.3661 36.0203 28.0277 35.4559 28.5055C34.8914 28.9833 34.1764 29.2466 33.4369 29.249H11.4946C10.7551 29.2466 10.0401 28.9833 9.47563 28.5055C8.91115 28.0277 8.53336 27.3661 8.40881 26.6371M18.3275 34.2083V43.7523C17.4311 43.1204 16.5605 42.4518 15.7156 41.7465V33.9549H18.3275V34.2083ZM21.9863 34.2083V46.0556C21.0973 45.556 20.2267 45.027 19.3744 44.4686V33.9549H21.9863V34.2083ZM25.6452 34.2083V44.4576C24.8003 45.0233 23.9297 45.5523 23.0333 46.0446V33.9218H25.6452V34.2083ZM29.3041 34.2083V41.7355C28.4592 42.4702 27.5885 43.1388 26.6922 43.7413V33.9549H29.3041V34.2083ZM15.1976 32.8969C14.458 32.8945 13.7431 32.6312 13.1786 32.1534C12.6141 31.6756 12.2363 31.0139 12.1118 30.285H32.8638C32.741 31.0197 32.361 31.6868 31.7917 32.1673C31.2224 32.6478 30.5009 32.9102 29.756 32.9079L15.1976 32.8969Z" fill="white"/>
<path d="M7.31571 18.8014C7.30529 18.9739 7.30529 19.1468 7.31571 19.3193C7.4442 20.3284 7.9356 21.2563 8.69815 21.9296C9.46069 22.6029 10.4422 22.9757 11.4595 22.9782H26.1171C27.1325 22.9776 28.1127 22.6052 28.8722 21.9312C29.0052 21.8147 29.1304 21.6895 29.247 21.5565C29.7973 20.9394 30.1504 20.1718 30.2609 19.3524V18.8344V4.70585H37.0496C37.187 4.70585 37.3187 4.65128 37.4159 4.55414C37.513 4.457 37.5676 4.32525 37.5676 4.18788C37.5789 4.01173 37.5789 3.83503 37.5676 3.65888C37.4394 2.65164 36.9495 1.7253 36.1893 1.05223C35.4291 0.379169 34.4502 0.00522882 33.4348 0L18.7993 0C17.7838 0.000565592 16.8037 0.373008 16.0441 1.04697C15.9117 1.16413 15.7866 1.28926 15.6694 1.42167C14.9955 2.18126 14.623 3.16138 14.6224 4.17685V18.2834H7.83368C7.76474 18.2819 7.6962 18.2942 7.63208 18.3196C7.56795 18.345 7.50955 18.3829 7.46027 18.4311C7.411 18.4794 7.37186 18.537 7.34514 18.6006C7.31843 18.6641 7.30467 18.7324 7.30469 18.8014M33.4348 1.04697C34.1744 1.04938 34.8893 1.31267 35.4538 1.79046C36.0183 2.26825 36.3961 2.9299 36.5206 3.65888H30.349C30.4736 2.9299 30.8514 2.26825 31.4158 1.79046C31.9803 1.31267 32.6953 1.04938 33.4348 1.04697M15.6694 4.17685C15.6723 3.34765 16.003 2.55324 16.5893 1.9669C17.1757 1.38056 17.9701 1.04987 18.7993 1.04697H30.6686C29.9042 1.72034 29.4107 2.64862 29.28 3.65888C29.2687 3.83503 29.2687 4.01173 29.28 4.18788V18.8014C29.2948 18.9737 29.2948 19.147 29.28 19.3193C29.1564 20.0483 28.7787 20.7099 28.2138 21.187C27.649 21.664 26.9336 21.9258 26.1942 21.9258C25.4549 21.9258 24.7394 21.664 24.1746 21.187C23.6098 20.7099 23.2321 20.0483 23.1084 19.3193C23.1084 19.2422 23.1084 19.0108 23.1084 18.7793C23.1055 18.6439 23.0497 18.5149 22.9529 18.4202C22.856 18.3254 22.7259 18.2723 22.5904 18.2724H15.6694V4.17685ZM14.5673 19.3304H21.9623C22.09 20.3415 22.5841 21.2708 23.3509 21.9423H11.4926C10.753 21.9399 10.0381 21.6766 9.47357 21.1988C8.90909 20.721 8.53131 20.0593 8.40676 19.3304H14.5673Z" fill="white"/>
</svg>
