<svg width="90" height="29" viewBox="0 0 90 29" fill="none" xmlns="http://www.w3.org/2000/svg">
<g clip-path="url(#clip0_746_1540)">
<path d="M90 10.2127H84.7272V23.4713H79.9196V10.2127H74.6209V6.39893H90V10.2127Z" fill="#00738E"/>
<path d="M55.9075 6.39893H60.7151V16.4325L67.8231 6.39893H72.4239V23.4713H67.6163V13.4634L60.5083 23.4713H55.9075V6.39893Z" fill="#00738E"/>
<path d="M47.714 23.4713L47.6881 14.4104L43.2682 21.782H41.0971L36.6513 14.6152V23.4713H32.1798V6.39893H36.1861L42.2602 16.2533L48.1534 6.39893H52.1855L52.2372 23.4713H47.714Z" fill="#00738E"/>
<path fill-rule="evenodd" clip-rule="evenodd" d="M3.38599 19.5298L6.69443 19.8881V26.7478L3.38599 25.5448V19.5298Z" fill="#00738E"/>
<path fill-rule="evenodd" clip-rule="evenodd" d="M8.11603 20.0415L12.9753 20.579V29L8.11603 27.2595V20.0415Z" fill="#00738E"/>
<path fill-rule="evenodd" clip-rule="evenodd" d="M0 12.8489L2.37794 12.3882V18.1472L0 18.0193V12.8489Z" fill="#00738E"/>
<path fill-rule="evenodd" clip-rule="evenodd" d="M3.38599 12.1836L6.69443 11.5181V18.3777L3.38599 18.1986V12.1836Z" fill="#00738E"/>
<path fill-rule="evenodd" clip-rule="evenodd" d="M8.11603 11.2366L12.9753 10.2896V18.7106L8.11603 18.4546V11.2366Z" fill="#00738E"/>
<path fill-rule="evenodd" clip-rule="evenodd" d="M0 6.52673L2.37794 5.32373V11.1084L0 11.6971V6.52673Z" fill="#00738E"/>
<path fill-rule="evenodd" clip-rule="evenodd" d="M3.38599 4.83755L6.69443 3.17383V10.0079L3.38599 10.8526V4.83755Z" fill="#00738E"/>
<path fill-rule="evenodd" clip-rule="evenodd" d="M8.11603 2.45719L12.9753 0V8.42101L8.11603 9.6496V2.45719Z" fill="#00738E"/>
<path fill-rule="evenodd" clip-rule="evenodd" d="M0 19.1714L2.37794 19.4273V25.1864L0 24.3417V19.1714Z" fill="#00738E"/>
<path fill-rule="evenodd" clip-rule="evenodd" d="M14.8622 0L27.8375 3.76258V10.2127L14.8622 8.42101V0Z" fill="#00738E"/>
<path fill-rule="evenodd" clip-rule="evenodd" d="M14.8622 20.5792L27.8375 19.5298V25.9543L14.8622 29.0002V20.5792Z" fill="#00738E"/>
</g>
<defs>
<clipPath id="clip0_746_1540">
<rect width="90" height="29" fill="white"/>
</clipPath>
</defs>
</svg>
