<svg width="168" height="40" viewBox="0 0 168 40" fill="none" xmlns="http://www.w3.org/2000/svg"><g clip-path="url(#a)" fill="#E0EDF8"><path d="M26.16 32.33h-6.39v1.73h6.39v-1.73Zm59.66 0h-6.4v1.73h6.4v-1.73Z"/><path d="M28.12 29.22v-1.73H16.11v11.68h12.01v-1.73h-9.8v-8.22h9.8Zm-16.36 9.95v-9.92H2.21v10H0V27.49h14v11.68h-2.24Zm36.61 0c-2.65 0-3.67-1.15-3.67-2.82v-6c0-1.67 1-2.82 3.67-2.82h9.41v1.72h-9.41c-1 0-1.46.38-1.46 1.07v6.08c0 .69.47 1.07 1.46 1.07h9.41v1.73l-9.41-.03Zm23.02 0v-9.92h-9.55v10h-2.21V27.49h14v11.68h-2.24Zm37.919 0v-9.92h-6.12v-1.76h14.28v1.76h-6v10l-2.16-.08Zm46.55-2.49 1.1-1.72h6.54l.84.83-.84.89h-7.64Zm-36.91 2.49V27.49h1.93v8.68l11.62-8.68h1.91v11.68h-1.92v-9.09l-12.42 9.09h-1.12Z"/><path d="m164.68 39.17-6-9.41-6.12 9.41h-2.49l7.76-11.68h1.61l7.71 11.68h-2.47Zm-16.4-6.14a1.83 1.83 0 0 0 1.38-1.94v-1.08c0-1.56-1-2.52-3.59-2.52h-9.5v11.68h9.5c2.89 0 3.71-1.19 3.71-2.52v-1.71a1.83 1.83 0 0 0-1.5-1.91Zm-.68 3.2c0 1-.62 1.21-1.5 1.21h-7.32v-8.19h7.29c1 0 1.38.26 1.38.91v1.21c0 .65-.35.91-1.38.91h-5.84v1.73h5.84c.88 0 1.5.26 1.5 1l.03 1.22Zm-44.989-8.74h-2.62l-4.4 4.74h-2.28v1.73h2.33l4.42 5.21h2.54l-5.18-6.24 5.19-5.44ZM91.84 31.61h.01v-4.12h-2.21v11.68h2.21V34.3h-.01v-2.69Zm-4.07-2.39v-1.73H75.76v11.68h12.01v-1.73h-9.81v-8.22h9.81Zm-48.19-1.73h-9.57v11.68h2.2v-9.92h7.37c1 0 1.46.38 1.46 1.07v1.73c0 .7-.47 1.08-1.46 1.08h-5.91v1.73h5.91c2.65 0 3.66-1.15 3.66-2.82v-1.73c0-1.67-1.01-2.82-3.66-2.82Zm103.801-7.24a99.882 99.882 0 0 0-120.66 0C40.66 10.5 61.21 4.08 83.05 4.08c21.84 0 42.4 6.45 60.33 16.17Z"/><path d="M125.829 19.61a83.918 83.918 0 0 0-85.55 0 112.609 112.609 0 0 1 85.55 0Z"/></g><defs><clipPath id="a"><path fill="#fff" d="M0 0h167.17v39.17H0z"/></clipPath></defs></svg>