<svg width="91" height="18" viewBox="0 0 91 18" fill="none" xmlns="http://www.w3.org/2000/svg">
<g clip-path="url(#clip0_354_154)">
<path d="M10.5018 0V12.0341L0.0302734 18.0485L5.26689 9.02341L10.5018 0Z" fill="white"/>
<path d="M12.0674 0V12.0341L22.5406 18.0485L17.304 9.02341L12.0674 0Z" fill="#FF9915"/>
<path d="M43.0101 1.80039L37.1331 7.62758L43.3813 16.4094H40.185L35.3596 9.41268L33.2563 11.5055V16.4094H30.6992V1.80039H33.2563V8.4278L39.752 1.80039H43.0101Z" fill="white"/>
<path d="M46.9399 1.73883V4.03688H44.5891V1.73883H46.9399ZM46.9399 5.82197V16.4094H44.5891V5.82197H46.9399Z" fill="white"/>
<path d="M60.3482 1.80039V4.01636H55.6671V16.4094H53.0895V4.01636H48.4084V1.80039H60.3482Z" fill="white"/>
<path d="M72.077 14.1934V16.4094H62.0138V1.80039H64.6121V14.1934H72.077Z" fill="white"/>
<path d="M75.9789 1.73883V4.03688H73.6281V1.73883H75.9789ZM75.9789 5.82197V16.4094H73.6281V5.82197H75.9789Z" fill="white"/>
<path d="M90.7481 1.80039V16.4094H88.088L81.2417 5.65783V16.4094H78.8084V1.80039H81.5098L88.2736 12.5725V1.80039H90.7481Z" fill="white"/>
</g>
<defs>
<clipPath id="clip0_354_154">
<rect width="91" height="18" fill="white"/>
</clipPath>
</defs>
</svg>
