<svg width="118" height="48" viewBox="0 0 118 48" fill="none" xmlns="http://www.w3.org/2000/svg"><path d="M49.479 7.355h5.81L44.217 26.543h-8.58L30.759 7.355h5.975l3.728 16.392L49.48 7.355Zm23.475 0c1.773 0 3.143.412 4.112 1.234.987.822 1.48 1.983 1.48 3.481 0 2.047-.667 3.646-2.001 4.797-1.316 1.133-3.106 1.7-5.372 1.7H60.675l-1.289 7.976h-1.48L60.95 7.355h12.005Zm-1.7 10.005c1.719 0 3.117-.448 4.195-1.343 1.078-.895 1.617-2.147 1.617-3.755 0-1.188-.393-2.092-1.179-2.714-.786-.64-1.864-.96-3.234-.96H62.237l-1.398 8.772h10.416Zm17.521-5.51c2.45 0 4.212.448 5.29 1.344 1.097.895 1.517 2.138 1.261 3.728l-1.534 9.62h-1.234l.576-3.535c-.75 1.206-1.9 2.156-3.454 2.85-1.535.676-3.344 1.014-5.427 1.014-3.892 0-5.838-1.178-5.838-3.535 0-2.76 2.74-4.322 8.222-4.688l7.1-.493.246-1.48c.183-1.06-.173-1.946-1.069-2.659-.895-.73-2.33-1.096-4.303-1.096-1.681 0-3.134.274-4.358.822-1.206.548-2.001 1.37-2.385 2.467h-1.37c.42-1.444 1.361-2.531 2.823-3.262 1.462-.73 3.28-1.096 5.454-1.096ZM84.72 25.803c2.448 0 4.44-.502 5.975-1.507 1.535-1.024 2.44-2.376 2.714-4.057l.164-1.041-6.934.466c-4.569.274-6.853 1.425-6.853 3.453 0 .804.402 1.453 1.206 1.946.804.494 2.047.74 3.728.74Zm30.109-13.623h1.645l-11.348 16.418c-1.023 1.517-1.882 2.522-2.576 3.015-.695.494-1.773.74-3.235.74-.64 0-1.215-.036-1.727-.11l.192-1.096c.494.055 1.024.083 1.59.083 1.042 0 1.846-.192 2.412-.576.567-.384 1.252-1.16 2.056-2.33l1.206-1.782h-.521L98.329 12.18h1.562l5.756 13.677 9.182-13.677Z" fill="#131416"/><path d="m0 18.267 1.28-3.06h15.41a1.53 1.53 0 0 1 0 3.06H0Z" fill="#1C77FF"/><path d="m8.95 12.015 1.95-4.66h6.051c3.363 0 5.985.713 7.867 2.138 1.9 1.407 2.85 3.418 2.85 6.03 0 3.473-1.251 6.177-3.755 8.114-2.503 1.937-5.838 2.905-10.004 2.905h-10.8l.146-.92 1.567-3.744h4.73l-.001.005h4.522c2.559 0 4.514-.494 5.866-1.48 1.352-.987 2.028-2.376 2.028-4.167 0-1.352-.539-2.394-1.617-3.124-1.078-.731-2.659-1.097-4.742-1.097h-4.495v.001H8.951Z" fill="#131416"/><path d="M30.908 42.592c-.38 0-.73-.062-1.052-.185a2.58 2.58 0 0 1-.832-.533 2.543 2.543 0 0 1-.747-1.828 2.452 2.452 0 0 1 .754-1.821c.237-.232.514-.41.832-.533a2.827 2.827 0 0 1 1.052-.192c.384 0 .738.066 1.06.2.327.127.604.32.832.575l-.462.448a1.797 1.797 0 0 0-.64-.44c-.237-.1-.491-.15-.761-.15-.28 0-.54.047-.783.142a1.834 1.834 0 0 0-1.031 1.01 1.995 1.995 0 0 0-.142.761c0 .275.047.531.142.768a1.852 1.852 0 0 0 1.031 1.003c.242.095.503.142.783.142.27 0 .524-.047.76-.142.238-.1.451-.252.64-.455l.463.448c-.228.256-.505.45-.832.583a2.774 2.774 0 0 1-1.067.199Zm12.83-.185c.323.123.674.185 1.053.185.389 0 .744-.066 1.067-.2a2.2 2.2 0 0 0 .832-.582l-.462-.448c-.19.203-.404.355-.64.455a2.03 2.03 0 0 1-.761.142c-.28 0-.541-.047-.783-.142a1.85 1.85 0 0 1-1.031-1.003 2.047 2.047 0 0 1-.142-.768c0-.275.047-.529.142-.761a1.832 1.832 0 0 1 1.031-1.01c.242-.095.503-.142.783-.142.27 0 .523.05.76.15.237.094.45.241.64.44l.463-.448a2.138 2.138 0 0 0-.832-.576 2.758 2.758 0 0 0-1.06-.199c-.38 0-.73.064-1.052.192a2.433 2.433 0 0 0-.833.533 2.438 2.438 0 0 0-.554.804c-.133.308-.2.647-.2 1.017a2.543 2.543 0 0 0 .747 1.828c.237.227.515.405.832.533Z" fill="#858688"/><path fill-rule="evenodd" clip-rule="evenodd" d="M68.577 42.592c-.379 0-.732-.064-1.06-.192a2.563 2.563 0 0 1-.838-.533 2.52 2.52 0 0 1-.555-.811 2.526 2.526 0 0 1-.2-1.01c0-.365.067-.702.2-1.01a2.506 2.506 0 0 1 1.394-1.344 2.847 2.847 0 0 1 1.06-.192c.379 0 .727.064 1.045.192.322.123.602.301.839.533.242.228.427.496.555.804.133.308.199.647.199 1.017 0 .37-.066.709-.2 1.017a2.377 2.377 0 0 1-.554.81 2.562 2.562 0 0 1-.84.534 2.865 2.865 0 0 1-1.045.185Zm0-.633c.275 0 .53-.047.761-.142a1.798 1.798 0 0 0 1.017-1.01c.1-.232.15-.486.15-.761s-.05-.529-.15-.761a1.763 1.763 0 0 0-.405-.604 1.748 1.748 0 0 0-.612-.406 1.993 1.993 0 0 0-.76-.142c-.28 0-.539.047-.776.142a1.83 1.83 0 0 0-.611.406c-.176.17-.313.372-.413.604a1.995 1.995 0 0 0-.142.761c0 .275.047.529.142.76.1.233.237.437.413.613.175.17.379.303.611.398.237.095.496.142.775.142Z" fill="#858688"/><path d="M93.162 42.592c-.38 0-.73-.062-1.053-.185a2.58 2.58 0 0 1-.832-.533 2.543 2.543 0 0 1-.747-1.828c0-.37.067-.709.2-1.017a2.44 2.44 0 0 1 .554-.804c.237-.232.514-.41.832-.533a2.827 2.827 0 0 1 1.053-.192c.384 0 .737.066 1.06.2.326.127.604.32.831.575l-.462.448a1.797 1.797 0 0 0-.64-.44 2.121 2.121 0 0 0-1.543-.007 1.832 1.832 0 0 0-1.031 1.01 1.993 1.993 0 0 0-.143.76c0 .275.048.531.143.768a1.85 1.85 0 0 0 1.03 1.003c.243.095.503.142.783.142.27 0 .524-.047.761-.142.237-.1.45-.252.64-.455l.462.448c-.227.256-.505.45-.832.583a2.769 2.769 0 0 1-1.066.199Zm7.194-5.035h-.711v2.14h-2.86v-2.14h-.71v4.978h.71v-2.219h2.86v2.219h.711v-4.978Z" fill="#858688"/><path fill-rule="evenodd" clip-rule="evenodd" d="m101.092 42.535 2.254-4.978h.704l2.262 4.978h-.747l-.547-1.244h-2.647l-.547 1.244h-.732Zm2.603-4.256 1.073 2.443h-2.147l1.074-2.443Z" fill="#858688"/><path d="M107.055 37.557v4.978h.711v-3.71l2.987 3.71h.583v-4.978h-.711v3.71l-2.987-3.71h-.583Zm6.759.619v4.359h.704v-4.36h1.707v-.618h-4.118v.619h1.707Z" fill="#858688"/><path fill-rule="evenodd" clip-rule="evenodd" d="M85.769 37.557v4.978h.711V41.02h1.23a3.6 3.6 0 0 0 .317-.013l1.07 1.528h.775l-1.18-1.666c.046-.017.091-.035.135-.055a1.6 1.6 0 0 0 .711-.59c.166-.261.25-.572.25-.932 0-.36-.084-.67-.25-.931a1.58 1.58 0 0 0-.711-.598c-.308-.137-.68-.206-1.117-.206h-1.94Zm.711 2.859h1.21c.454 0 .798-.097 1.03-.292.237-.199.356-.476.356-.832 0-.355-.119-.63-.356-.825-.232-.194-.576-.291-1.03-.291h-1.21v2.24Z" fill="#858688"/><path d="M81.716 41.916V40.31h2.496v-.604h-2.496v-1.53h2.802v-.618h-3.514v4.978h3.613v-.619h-2.901Zm-7.504-4.359v4.978h.683v-3.607l1.8 3.003h.327l1.8-3.026.006 3.63h.682l-.007-4.978h-.583l-2.049 3.497-2.075-3.497h-.584Zm-10.998.619v4.359h.704v-4.36h1.707v-.618h-4.118v.619h1.707Z" fill="#858688"/><path fill-rule="evenodd" clip-rule="evenodd" d="M57.322 42.535v-4.978h1.942c.436 0 .808.069 1.116.206.308.138.545.337.711.598.166.26.25.57.25.931 0 .36-.084.671-.25.932a1.641 1.641 0 0 1-.71.597c-.309.138-.681.206-1.117.206h-1.23v1.508h-.712Zm1.92-2.126h-1.209v-2.233h1.21c.454 0 .798.097 1.03.291.238.195.356.47.356.825 0 .356-.118.63-.355.825-.233.194-.577.292-1.032.292Z" fill="#858688"/><path d="M54.003 40.802v1.733h.704v-1.723l1.977-3.255h-.704l-1.6 2.626-1.593-2.626h-.761l1.977 3.245Z" fill="#858688"/><path fill-rule="evenodd" clip-rule="evenodd" d="M47.704 42.535v-4.978h1.942c.436 0 .808.069 1.116.206.308.138.545.337.711.598.166.26.25.57.25.931 0 .36-.084.671-.25.932a1.597 1.597 0 0 1-.71.59c-.045.02-.09.038-.136.055l1.18 1.666h-.775l-1.07-1.528a3.74 3.74 0 0 1-.316.013h-1.23v1.515h-.712Zm1.92-2.12h-1.209v-2.24h1.21c.454 0 .798.098 1.03.292.237.195.356.47.356.825 0 .356-.119.633-.356.832-.232.195-.576.292-1.03.292Z" fill="#858688"/><path d="M37.591 40.878v-.59h1.913v.59h-1.913Zm-3.77-3.321v4.978h.711v-4.978h-.71Zm-10.91 0v4.978h.711v-3.71l2.987 3.71h.583v-4.978h-.71v3.71l-2.988-3.71h-.583Zm-2.201 4.978v-4.978h.71v4.978h-.71Zm-5.713-4.978 2.19 4.978h.704l2.183-4.978h-.71l-1.806 4.093-1.793-4.093h-.768Z" fill="#858688"/><path fill-rule="evenodd" clip-rule="evenodd" d="m10.052 42.535 2.254-4.978h.704l2.262 4.978h-.747l-.547-1.244h-2.647l-.547 1.244h-.732Zm2.603-4.256 1.073 2.443h-2.147l1.074-2.443ZM5 37.557v4.978h2.098c.53 0 .998-.104 1.4-.313.409-.209.724-.5.947-.875.227-.374.341-.808.341-1.301 0-.493-.114-.927-.341-1.301a2.283 2.283 0 0 0-.946-.875c-.403-.209-.87-.313-1.401-.313H5Zm2.055 4.36H5.711v-3.741h1.344c.413 0 .768.078 1.067.234.303.157.538.375.704.655.166.28.249.606.249.98 0 .37-.083.698-.249.982-.166.28-.4.498-.704.655-.299.156-.654.234-1.067.234Z" fill="#858688"/></svg>