<svg width="240" height="48" viewBox="0 0 240 48" fill="none" xmlns="http://www.w3.org/2000/svg"><g clip-path="url(#a)"><path d="M7.796 43.569c.357.42.535.963.535 1.626 0 .856-.313 1.513-.948 1.969-.628.456-1.562.692-2.796.692H0V37.89h4.301c1.113 0 1.969.221 2.582.67.614.443.92 1.078.92 1.898 0 .55-.135 1.02-.406 1.398a2.44 2.44 0 0 1-1.12.863c.656.143 1.163.428 1.512.849h.007Zm-6.74-4.808v3.617H4.23c.806 0 1.427-.157 1.862-.464.435-.307.656-.756.656-1.348 0-.592-.221-1.034-.656-1.341-.435-.307-1.056-.464-1.862-.464H1.056Zm5.535 7.775c.456-.3.685-.777.685-1.426 0-1.242-.899-1.862-2.704-1.862H1.056v3.745h3.516c.892 0 1.57-.15 2.019-.457Zm14.038.407v.913H13.58V37.89h6.834v.913h-5.778v3.545h5.157v.899h-5.157v3.702h5.992v-.007Zm11.57-1.748h-5.55l-1.198 2.66h-1.099l4.558-9.964h1.042l4.558 9.965h-1.113l-1.198-2.66Zm-.385-.856-2.39-5.35-2.39 5.35h4.787-.007Zm7.974 2.49c-.72-.742-1.084-1.82-1.084-3.232v-5.706h1.056v5.664c0 1.155.264 2.018.785 2.589.52.57 1.276.856 2.26.856.985 0 1.755-.285 2.276-.856.52-.57.785-1.434.785-2.59v-5.663h1.027v5.706c0 1.413-.357 2.49-1.077 3.232-.714.742-1.72 1.112-3.01 1.112-1.291 0-2.297-.37-3.018-1.112Zm14.859-8.025h-3.503v-.913h8.06v.913h-3.502v9.052h-1.055v-9.052Zm12.426 5.606v3.446H66.03V44.41l-3.987-6.52h1.127l3.416 5.592 3.417-5.592h1.056l-3.987 6.52Zm14.922-.784a1.07 1.07 0 0 1-.314-.785c0-.313.107-.556.314-.763.207-.207.456-.307.756-.307s.55.1.756.307c.207.207.314.457.314.763 0 .307-.107.564-.314.778a1.008 1.008 0 0 1-.756.32c-.3 0-.55-.106-.756-.313Zm22.362-5.735v9.965h-.87l-6.406-8.089v8.089h-1.055V37.89h.87l6.42 8.089V37.89h1.041Zm12.34 7.304h-5.549l-1.199 2.66h-1.098l4.558-9.964h1.041l4.551 9.965h-1.105l-1.199-2.66Zm-.385-.856-2.389-5.35-2.39 5.35h4.786-.007Zm8.631-5.535h-3.502v-.913h8.053v.913h-3.502v9.052h-1.056v-9.052h.007Zm9.88 8.025c-.721-.742-1.085-1.82-1.085-3.232v-5.706h1.056v5.664c0 1.155.264 2.018.785 2.589.52.57 1.276.856 2.261.856.984 0 1.755-.285 2.275-.856.521-.57.785-1.434.785-2.59v-5.663h1.027v5.706c0 1.413-.357 2.49-1.077 3.232-.713.742-1.719 1.112-3.01 1.112-1.291 0-2.297-.37-3.017-1.112Zm19.929 1.027-2.275-3.203a7.193 7.193 0 0 1-.799.043h-2.675v3.16h-1.056V37.89h3.731c1.27 0 2.268.307 2.989.913.72.606 1.084 1.44 1.084 2.504 0 .777-.2 1.434-.592 1.968-.392.535-.956.92-1.691 1.163l2.433 3.417h-1.156.007Zm-.841-4.708c.52-.435.784-1.049.784-1.833 0-.785-.264-1.427-.784-1.855-.521-.428-1.277-.649-2.261-.649h-2.647v4.993h2.647c.984 0 1.74-.22 2.261-.656Zm14.216 3.795v.913h-7.048V37.89h6.834v.913h-5.778v3.545h5.15v.899h-5.15v3.702h5.992v-.007Zm11.777-3.317a1.07 1.07 0 0 1-.314-.785c0-.313.107-.556.314-.763.207-.207.463-.307.756-.307.292 0 .549.1.756.307.207.207.314.457.314.763 0 .307-.107.564-.314.778a1.02 1.02 0 0 1-.756.32 1.05 1.05 0 0 1-.756-.313Zm15.692 3.659a4.786 4.786 0 0 1-1.861-1.812 5.085 5.085 0 0 1-.678-2.596c0-.956.228-1.826.678-2.596a4.801 4.801 0 0 1 1.869-1.812c.799-.435 1.69-.657 2.675-.657.741 0 1.426.122 2.047.371.627.25 1.155.607 1.598 1.085l-.671.67c-.777-.785-1.762-1.184-2.946-1.184-.785 0-1.505.178-2.147.542a4.01 4.01 0 0 0-1.512 1.477 4.114 4.114 0 0 0-.549 2.104c0 .777.185 1.484.549 2.111a3.91 3.91 0 0 0 1.512 1.477c.642.364 1.362.542 2.147.542 1.198 0 2.176-.4 2.946-1.198l.671.67a4.354 4.354 0 0 1-1.598 1.092 5.56 5.56 0 0 1-2.055.378c-.984 0-1.876-.221-2.667-.657l-.008-.007Zm17.42-2.09h-5.55l-1.198 2.66h-1.099l4.558-9.964h1.042l4.558 9.965h-1.113l-1.198-2.66Zm-.386-.856-2.389-5.35-2.39 5.35h4.786-.007Zm13.988 3.517-2.275-3.203a7.193 7.193 0 0 1-.799.043h-2.675v3.16h-1.056V37.89h3.731c1.27 0 2.268.307 2.989.913.72.606 1.084 1.44 1.084 2.504 0 .777-.2 1.434-.592 1.968-.392.535-.956.92-1.691 1.163l2.433 3.417h-1.156.007Zm-.834-4.708c.52-.435.784-1.049.784-1.833 0-.785-.264-1.427-.784-1.855-.521-.428-1.277-.649-2.261-.649h-2.647v4.993h2.647c.984 0 1.74-.22 2.261-.656ZM240 46.943v.913h-7.048V37.89h6.834v.913h-5.778v3.545h5.157v.899h-5.157v3.702H240v-.007Z" fill="#4F635C"/><path d="m20.757 12.497.143-.2a7.803 7.803 0 0 0 1.398-4.458c0-4.322-3.517-7.832-7.832-7.832H0v25.858h15.208c4.322 0 7.832-3.517 7.832-7.832 0-1.99-.756-3.888-2.119-5.35l-.17-.179.006-.007ZM5.478 5.478h8.98a2.356 2.356 0 0 1 2.355 2.354 2.356 2.356 0 0 1-2.354 2.354h-8.98V5.478Zm9.73 14.901h-9.73v-4.708h9.73a2.356 2.356 0 0 1 2.354 2.354 2.356 2.356 0 0 1-2.354 2.354ZM176.387 0v26.6c2.354-.143 5.443-1.934 5.443-5.729v-2.888h12.276v-5.479H181.83V5.478h13.966V0h-19.409ZM50.76 0 39.231 25.858h5.999l1.505-3.375h13.731l1.505 3.375h6L56.465 0h-5.707Zm2.46 16.998c-3.502 0-5.57 3.545-6.327 5.129l6.712-15.058 4.423 9.922H53.22v.007Zm51.636-.385L91.361.114h-.015l-.1-.114h-4.622v26.6c2.354-.143 5.443-1.934 5.443-5.729V9.644l13.253 16.214h4.972V0h-5.443v16.613h.007ZM140.515 0l-11.527 25.858h5.999l1.505-3.375h13.731l1.505 3.375h5.999L146.221 0h-5.706Zm2.461 16.998c-3.488 0-5.557 3.517-6.313 5.115l6.705-15.037 4.423 9.922h-4.815ZM240 25.858 228.487 0h-5.706l-11.527 25.858h5.999l1.505-3.375h13.731l1.505 3.375H240Zm-14.758-8.86c-3.488 0-5.557 3.517-6.313 5.115l6.705-15.037 4.422 9.922h-4.814Z" fill="#000"/></g><defs><clipPath id="a"><path fill="#fff" d="M0 0h240v47.941H0z"/></clipPath></defs></svg>