<svg width="381" height="61" viewBox="0 0 381 61" fill="none" xmlns="http://www.w3.org/2000/svg">
<path d="M30.3237 20.3297C30.1774 20.5642 30.0012 20.7785 29.7995 20.9673C29.7307 21.0221 29.6733 21.09 29.6307 21.1671C29.5881 21.2441 29.5611 21.3288 29.5512 21.4163C29.5414 21.5038 29.5488 21.5924 29.5732 21.677C29.5976 21.7616 29.6384 21.8405 29.6932 21.9094C29.8041 22.0484 29.9656 22.1377 30.1423 22.1576C30.2298 22.1675 30.3183 22.16 30.4029 22.1357C30.4875 22.1113 30.5665 22.0705 30.6354 22.0156C31.0252 21.6689 31.3513 21.2566 31.5987 20.7973H32.1654C32.4167 21.2784 32.7526 21.7103 33.1571 22.0723C33.2738 22.1651 33.4188 22.2151 33.568 22.214C33.7077 22.217 33.845 22.176 33.9601 22.0967C34.0753 22.0174 34.1626 21.9039 34.2096 21.7722C34.2567 21.6405 34.261 21.4974 34.2222 21.3631C34.1833 21.2288 34.1031 21.1101 33.993 21.0239C33.8458 20.8918 33.7128 20.7446 33.5963 20.5847C34.0095 20.4791 34.3936 20.2816 34.7199 20.0069C35.0461 19.7321 35.3061 19.3873 35.4805 18.998C35.6505 18.318 35.1547 18.1763 35.1263 17.1988C35.1263 15.9379 35.863 15.4137 35.4805 14.677C35.2829 14.3965 35.0385 14.1521 34.758 13.9545C34.4468 13.6492 34.0818 13.4042 33.6813 13.232C33.1571 13.0478 32.9588 13.232 32.2646 13.232C30.9612 13.232 30.692 12.6228 30.097 12.8778C29.8278 12.9912 29.5586 13.5437 29.0203 14.677C28.4819 15.8104 28.3969 16.2071 27.9436 16.4763C27.8303 16.4763 27.6319 16.6463 27.5752 16.8304C27.5186 17.0146 27.7453 17.2413 27.9436 17.553C28.3403 18.2047 27.9436 18.5305 28.3119 18.9697C28.6803 19.4089 29.0345 19.168 29.7287 19.6922C29.9755 19.8755 30.1827 20.1068 30.3378 20.3722M31.9104 14.8187C32.3083 14.8187 32.6972 14.9367 33.0281 15.1578C33.3589 15.3788 33.6167 15.693 33.769 16.0606C33.9213 16.4282 33.9611 16.8327 33.8835 17.2229C33.8059 17.6132 33.6143 17.9716 33.3329 18.253C33.0516 18.5343 32.6931 18.7259 32.3029 18.8035C31.9126 18.8812 31.5081 18.8413 31.1405 18.689C30.7729 18.5368 30.4588 18.2789 30.2377 17.9481C30.0166 17.6173 29.8987 17.2283 29.8987 16.8304C29.8987 16.5663 29.9507 16.3047 30.0518 16.0606C30.1529 15.8165 30.3011 15.5947 30.4879 15.4079C30.6747 15.2211 30.8965 15.0729 31.1405 14.9718C31.3846 14.8707 31.6462 14.8187 31.9104 14.8187Z" fill="black"/>
<path d="M57.7453 13.4446V9.37865C57.7456 9.20918 57.6814 9.04595 57.5655 8.92223C57.4497 8.79851 57.2911 8.72361 57.1219 8.7128C55.5542 8.60369 54.0458 8.06986 52.7585 7.16858C52.6771 7.10953 52.5834 7.06968 52.4844 7.05202C52.3854 7.03436 52.2837 7.03935 52.1869 7.06661C52.0901 7.09387 52.0008 7.1427 51.9255 7.20944C51.8503 7.27617 51.7912 7.35907 51.7526 7.45192C51.6957 7.59039 51.6871 7.744 51.7282 7.88794C51.7694 8.03189 51.8578 8.15777 51.9793 8.24528C53.3021 9.1497 54.8229 9.72303 56.4136 9.917V13.4446C56.4205 23.1674 53.7174 32.6997 48.6075 40.9714C45.9562 45.2586 42.7022 49.1424 38.9455 52.5035V43.6065C40.1342 43.4569 41.2388 42.9141 42.0834 42.0643C42.928 41.2146 43.4641 40.1068 43.6065 38.9172C44.9126 38.7645 46.1173 38.1378 46.9921 37.1559C47.8669 36.1741 48.351 34.9053 48.3525 33.5903C48.3525 33.5017 48.3348 33.4139 48.3005 33.3322C48.2661 33.2505 48.2158 33.1764 48.1525 33.1144C48.0891 33.0524 48.0141 33.0036 47.9316 32.971C47.8492 32.9384 47.7611 32.9226 47.6725 32.9245H10.0728C9.89625 32.9245 9.72689 32.9946 9.60201 33.1195C9.47714 33.2444 9.40699 33.4137 9.40699 33.5903C9.41238 34.9051 9.89997 36.1722 10.7773 37.1514C11.6547 38.1306 12.8609 38.7538 14.1672 38.903C14.3095 40.0926 14.8457 41.2004 15.6903 42.0502C16.5349 42.8999 17.6394 43.4427 18.8281 43.5923V52.4893C15.0721 49.1275 11.8183 45.2439 9.16615 40.9572C4.05383 32.6911 1.34581 23.1639 1.34588 13.4446V9.917C3.5104 9.61011 5.51662 8.60832 7.06247 7.06247C8.60832 5.51662 9.61012 3.51039 9.91701 1.34588H14.7338C14.8978 1.34867 15.0575 1.29328 15.1846 1.18955C15.3117 1.08582 15.3979 0.940442 15.428 0.779193C15.4445 0.683943 15.44 0.586252 15.4149 0.492908C15.3898 0.399564 15.3447 0.312805 15.2827 0.238658C15.2206 0.164511 15.1432 0.104756 15.0558 0.0635422C14.9684 0.0223287 14.873 0.000645945 14.7763 2.41344e-07H9.40699C9.22768 -0.000149177 9.05527 0.0690864 8.92587 0.193206C8.79647 0.317325 8.72012 0.486701 8.7128 0.665856C8.55473 2.75476 7.65053 4.7171 6.16533 6.19449C4.68014 7.67188 2.71306 8.56573 0.623356 8.7128C0.454228 8.72361 0.295589 8.79851 0.179767 8.92223C0.0639446 9.04595 -0.000344182 9.20918 1.38593e-06 9.37865V13.4446C0.00151796 23.2053 2.66083 32.7813 7.69256 41.1451C12.7243 49.5088 19.9385 56.3446 28.561 60.9187C28.6588 60.9721 28.7684 61 28.8797 61C28.9911 61 29.1007 60.9721 29.1985 60.9187C37.8183 56.3427 45.0297 49.5061 50.0588 41.1425C55.088 32.7789 57.7451 23.2038 57.7453 13.4446ZM10.7954 34.242H46.9499C46.7898 35.1791 46.3042 36.0297 45.5785 36.6439C44.8529 37.2581 43.9338 37.5965 42.9831 37.5996H14.7763C13.8257 37.5965 12.9066 37.2581 12.1809 36.6439C11.4553 36.0297 10.9696 35.1791 10.8095 34.242M23.56 43.9748V56.2436C22.4077 55.4313 21.2885 54.5719 20.2024 53.6652V43.649H23.56V43.9748ZM28.2635 43.9748V59.2045C27.1206 58.5623 26.0014 57.8822 24.9059 57.1644V43.649H28.2635V43.9748ZM32.967 43.9748V57.1503C31.8808 57.8775 30.7616 58.5575 29.6093 59.1903V43.6065H32.967V43.9748ZM37.6705 43.9748V53.651C36.5843 54.5955 35.4651 55.4549 34.3128 56.2294V43.649H37.6705V43.9748ZM19.5365 42.2889C18.5858 42.2858 17.6667 41.9474 16.9411 41.3332C16.2154 40.719 15.7298 39.8684 15.5697 38.9313H42.2464C42.0885 39.8758 41.6001 40.7335 40.8682 41.3511C40.1364 41.9687 39.2089 42.3061 38.2513 42.3031L19.5365 42.2889Z" fill="black"/>
<path d="M9.40479 24.1692C9.39141 24.3909 9.39141 24.6133 9.40479 24.835C9.56997 26.1322 10.2017 27.325 11.1819 28.1905C12.1622 29.0561 13.424 29.5352 14.7316 29.5385H33.5739C34.8794 29.5378 36.1393 29.059 37.1157 28.1926C37.2867 28.0428 37.4476 27.8819 37.5974 27.7109C38.3048 26.9177 38.7588 25.9309 38.9008 24.8775V24.2117V6.04937H47.6278C47.8044 6.04937 47.9737 5.97922 48.0986 5.85435C48.2235 5.72948 48.2936 5.56011 48.2936 5.38352C48.3082 5.15708 48.3082 4.92993 48.2936 4.70349C48.1288 3.40869 47.4991 2.21787 46.5218 1.35265C45.5445 0.487422 44.2862 0.00672165 42.9809 0L24.167 0C22.8616 0.000727069 21.6016 0.479503 20.6252 1.34588C20.455 1.49648 20.2941 1.65734 20.1435 1.82756C19.2771 2.80401 18.7983 4.06395 18.7976 5.36935V23.5033H10.0706C9.98202 23.5014 9.89391 23.5172 9.81148 23.5499C9.72906 23.5825 9.65397 23.6312 9.59063 23.6932C9.52729 23.7553 9.47698 23.8293 9.44263 23.911C9.40829 23.9928 9.3906 24.0805 9.39063 24.1692M42.9809 1.34588C43.9316 1.34898 44.8507 1.68743 45.5763 2.30164C46.302 2.91584 46.7876 3.76639 46.9477 4.70349H39.0141C39.1742 3.76639 39.6599 2.91584 40.3855 2.30164C41.1112 1.68743 42.0303 1.34898 42.9809 1.34588ZM20.1435 5.36935C20.1472 4.30341 20.5723 3.28219 21.3261 2.52845C22.0798 1.77471 23.101 1.34961 24.167 1.34588H39.425C38.4424 2.2115 37.808 3.40481 37.6399 4.70349C37.6254 4.92993 37.6254 5.15708 37.6399 5.38352V24.1692C37.6589 24.3907 37.6589 24.6135 37.6399 24.835C37.481 25.772 36.9954 26.6226 36.2694 27.2358C35.5433 27.8491 34.6235 28.1856 33.6731 28.1856C32.7227 28.1856 31.803 27.8491 31.0769 27.2358C30.3508 26.6226 29.8653 25.772 29.7063 24.835C29.7063 24.7358 29.7063 24.4383 29.7063 24.1408C29.7026 23.9667 29.6308 23.8009 29.5064 23.6791C29.3819 23.5573 29.2146 23.4891 29.0405 23.4891H20.1435V5.36935ZM18.7268 24.8492H28.2329C28.3972 26.1491 29.0323 27.3436 30.018 28.2068H14.7741C13.8235 28.2037 12.9044 27.8652 12.1787 27.251C11.4531 26.6368 10.9674 25.7863 10.8073 24.8492H18.7268Z" fill="black"/>
<path d="M175.267 35.9697H159.443C158.999 35.9808 158.578 36.1648 158.268 36.4824C157.958 36.8001 157.785 37.2262 157.785 37.6698C157.783 37.8886 157.825 38.1057 157.907 38.3085C157.99 38.5112 158.112 38.6956 158.266 38.851C158.42 39.0064 158.603 39.1298 158.805 39.214C159.007 39.2982 159.224 39.3415 159.443 39.3415H165.605V58.9772C165.584 59.2202 165.613 59.4651 165.691 59.6963C165.769 59.9274 165.894 60.1398 166.058 60.3199C166.223 60.5 166.423 60.6439 166.647 60.7423C166.87 60.8407 167.111 60.8915 167.355 60.8915C167.599 60.8915 167.84 60.8407 168.064 60.7423C168.287 60.6439 168.487 60.5 168.652 60.3199C168.816 60.1398 168.942 59.9274 169.02 59.6963C169.098 59.4651 169.127 59.2202 169.105 58.9772V39.3415H175.267C175.485 39.3397 175.7 39.2949 175.901 39.2099C176.101 39.1249 176.283 39.0013 176.435 38.846C176.588 38.6908 176.709 38.507 176.79 38.3052C176.872 38.1034 176.913 37.8875 176.911 37.6698C176.911 37.2286 176.74 36.8045 176.433 36.4873C176.126 36.17 175.708 35.9844 175.267 35.9697Z" fill="black"/>
<path d="M150.172 35.8003C149.938 35.8021 149.707 35.8502 149.492 35.9418C149.277 36.0334 149.082 36.1667 148.919 36.334C148.756 36.5012 148.627 36.6992 148.541 36.9164C148.454 37.1336 148.412 37.3658 148.415 37.5995V46.5248H136.798V37.5995C136.798 37.1392 136.615 36.6978 136.29 36.3724C135.965 36.0469 135.523 35.864 135.063 35.864C134.603 35.864 134.161 36.0469 133.836 36.3724C133.51 36.6978 133.327 37.1392 133.327 37.5995V58.9778C133.306 59.2188 133.334 59.4618 133.412 59.6912C133.489 59.9206 133.613 60.1314 133.776 60.3101C133.94 60.4888 134.138 60.6315 134.36 60.7292C134.581 60.8268 134.821 60.8773 135.063 60.8773C135.305 60.8773 135.544 60.8268 135.766 60.7292C135.987 60.6315 136.186 60.4888 136.349 60.3101C136.513 60.1314 136.637 59.9206 136.714 59.6912C136.791 59.4618 136.82 59.2188 136.798 58.9778V49.9249H148.415V58.9778C148.415 59.438 148.598 59.8794 148.924 60.2049C149.249 60.5304 149.691 60.7132 150.151 60.7132C150.611 60.7132 151.053 60.5304 151.378 60.2049C151.704 59.8794 151.886 59.438 151.886 58.9778V37.5995C151.89 37.1357 151.714 36.6885 151.394 36.3526C151.074 36.0168 150.636 35.8187 150.172 35.8003Z" fill="black"/>
<path d="M114.664 35.5596C113.026 35.583 111.409 35.9336 109.908 36.5906C108.407 37.2477 107.053 38.198 105.925 39.3858C104.796 40.5736 103.917 41.9749 103.337 43.5075C102.758 45.04 102.491 46.6728 102.551 48.31C102.551 55.5353 107.722 60.9755 114.593 60.9755C116.232 60.952 117.849 60.6015 119.349 59.9445C120.85 59.2874 122.205 58.3371 123.333 57.1492C124.461 55.9614 125.341 54.5601 125.92 53.0276C126.5 51.4951 126.767 49.8623 126.706 48.225V48.1684C126.706 40.9431 121.535 35.5029 114.664 35.5029M114.664 57.5895C109.876 57.5895 106.164 53.481 106.164 48.2392V48.1684C106.164 42.8698 109.805 38.8747 114.664 38.8747C119.524 38.8747 123.165 42.9832 123.165 48.2392C123.165 53.5377 119.524 57.5328 114.664 57.5328" fill="black"/>
<path d="M192.064 35.5596C190.427 35.5849 188.812 35.9368 187.313 36.5947C185.814 37.2526 184.461 38.2032 183.334 39.3908C182.207 40.5784 181.329 41.9791 180.75 43.5107C180.172 45.0423 179.905 46.674 179.966 48.31C179.966 55.5353 185.137 60.9755 192.008 60.9755C193.646 60.952 195.263 60.6015 196.764 59.9445C198.265 59.2874 199.619 58.3371 200.747 57.1492C201.876 55.9614 202.755 54.5601 203.335 53.0276C203.914 51.4951 204.181 49.8623 204.121 48.225V48.1684C204.121 40.9431 198.95 35.5029 192.079 35.5029M192.079 57.5895C187.29 57.5895 183.578 53.481 183.578 48.2392V48.1684C183.578 42.8698 187.219 38.8747 192.079 38.8747C196.938 38.8747 200.579 42.9832 200.579 48.2392C200.579 53.5377 196.938 57.5328 192.079 57.5328" fill="black"/>
<path d="M218.994 35.9697H212.378C211.915 35.9881 211.477 36.1862 211.157 36.5221C210.837 36.8579 210.66 37.3051 210.664 37.769V59.0197C210.664 59.48 210.847 59.9214 211.172 60.2468C211.498 60.5723 211.939 60.7552 212.4 60.7552C212.86 60.7552 213.301 60.5723 213.627 60.2468C213.952 59.9214 214.135 59.48 214.135 59.0197V52.2336H218.584C223.259 52.2336 227.991 49.6977 227.991 44.0167C227.991 39.1715 224.463 36.0406 219.009 36.0406M218.683 48.9752H214.135V39.3415H218.81C222.423 39.3415 224.477 41.0557 224.477 44.0592C224.477 46.8926 222.14 48.8335 218.669 48.8335" fill="black"/>
<path d="M243.247 37.1602C243.106 36.741 242.835 36.3777 242.473 36.123C242.111 35.8683 241.678 35.7354 241.235 35.7435H241.108C240.662 35.7359 240.226 35.8686 239.859 36.1228C239.493 36.377 239.216 36.74 239.068 37.1602L230.468 58.2126C230.334 58.4958 230.266 58.8059 230.27 59.1193C230.264 59.3356 230.302 59.5509 230.38 59.7526C230.459 59.9542 230.577 60.1383 230.727 60.2939C230.877 60.4495 231.057 60.5736 231.256 60.659C231.455 60.7443 231.669 60.7892 231.885 60.791C232.25 60.7912 232.605 60.6763 232.9 60.4625C233.195 60.2488 233.415 59.9473 233.529 59.601L235.795 54.345H246.421L248.673 59.5018C248.792 59.8591 249.017 60.1715 249.318 60.3969C249.62 60.6223 249.983 60.75 250.359 60.7627C250.584 60.759 250.806 60.711 251.013 60.6214C251.22 60.5319 251.406 60.4025 251.563 60.2407C251.72 60.0788 251.843 59.8878 251.925 59.6783C252.008 59.4689 252.049 59.2453 252.045 59.0201C252.034 58.7267 251.967 58.4381 251.847 58.1701L243.247 37.1602ZM245.089 51.0015H237.155L241.108 40.5603L245.089 51.0015Z" fill="black"/>
<path d="M90.347 46.9073L97.8414 38.8887C98.1798 38.5499 98.3729 38.0925 98.3798 37.6137C98.3878 37.1558 98.2182 36.7127 97.9065 36.3772C97.5948 36.0417 97.1653 35.84 96.7081 35.8145C96.4544 35.8248 96.2056 35.8866 95.9766 35.9962C95.7477 36.1058 95.5434 36.2609 95.3764 36.452L83.731 49.3441V37.6562C83.7527 37.417 83.7243 37.176 83.6477 36.9484C83.571 36.7208 83.4478 36.5116 83.2859 36.3343C83.1239 36.157 82.9268 36.0153 82.7071 35.9184C82.4873 35.8215 82.2498 35.7715 82.0096 35.7715C81.7695 35.7715 81.532 35.8215 81.3122 35.9184C81.0925 36.0153 80.8954 36.157 80.7334 36.3343C80.5715 36.5116 80.4482 36.7208 80.3716 36.9484C80.295 37.176 80.2666 37.417 80.2883 37.6562V58.9069C80.2666 59.1461 80.295 59.3872 80.3716 59.6148C80.4482 59.8424 80.5715 60.0515 80.7334 60.2288C80.8954 60.4062 81.0925 60.5478 81.3122 60.6447C81.532 60.7416 81.7695 60.7916 82.0096 60.7916C82.2498 60.7916 82.4873 60.7416 82.7071 60.6447C82.9268 60.5478 83.1239 60.4062 83.2859 60.2288C83.4478 60.0515 83.571 59.8424 83.6477 59.6148C83.7243 59.3872 83.7527 59.1461 83.731 58.9069V53.9909L87.9811 49.4574L95.7872 59.9411C95.9298 60.191 96.136 60.3986 96.3848 60.5429C96.6336 60.6873 96.9163 60.7631 97.2039 60.7628C97.6774 60.7444 98.1249 60.5413 98.4506 60.1971C98.7762 59.8529 98.9542 59.3949 98.9465 58.9211C98.95 58.4584 98.795 58.0084 98.5073 57.646L90.347 46.9073Z" fill="black"/>
<path d="M150.172 0.411133H134.333C133.89 0.422223 133.468 0.60622 133.159 0.923849C132.849 1.24148 132.676 1.66758 132.676 2.11119C132.676 2.55212 132.85 2.97519 133.16 3.2883C133.471 3.6014 133.892 3.77918 134.333 3.78291H140.496V23.4186C140.474 23.6616 140.503 23.9065 140.581 24.1377C140.659 24.3688 140.784 24.5813 140.949 24.7613C141.114 24.9414 141.314 25.0853 141.537 25.1837C141.76 25.2821 142.002 25.3329 142.246 25.3329C142.49 25.3329 142.731 25.2821 142.954 25.1837C143.177 25.0853 143.378 24.9414 143.542 24.7613C143.707 24.5813 143.832 24.3688 143.91 24.1377C143.988 23.9065 144.017 23.6616 143.995 23.4186V3.78291H150.172C150.39 3.78106 150.605 3.73635 150.805 3.65134C151.006 3.56632 151.188 3.44266 151.34 3.28743C151.493 3.13219 151.613 2.94842 151.695 2.7466C151.776 2.54478 151.817 2.32887 151.816 2.11119C151.816 1.66996 151.645 1.24591 151.338 0.928668C151.031 0.611426 150.613 0.425841 150.172 0.411133Z" fill="black"/>
<path d="M97.102 0.240723C96.6311 0.248184 96.1821 0.441487 95.8531 0.778506C95.524 1.11553 95.3415 1.56894 95.3453 2.03995V10.9653H83.7282V2.03995C83.7282 1.57967 83.5454 1.13825 83.2199 0.812784C82.8945 0.487319 82.453 0.304475 81.9927 0.304475C81.5325 0.304475 81.091 0.487319 80.7656 0.812784C80.4401 1.13825 80.2573 1.57967 80.2573 2.03995V23.4182C80.2355 23.6593 80.2641 23.9022 80.3414 24.1316C80.4187 24.361 80.543 24.5718 80.7063 24.7505C80.8696 24.9292 81.0683 25.072 81.2898 25.1696C81.5113 25.2673 81.7507 25.3177 81.9927 25.3177C82.2348 25.3177 82.4742 25.2673 82.6957 25.1696C82.9172 25.072 83.1159 24.9292 83.2792 24.7505C83.4425 24.5718 83.5668 24.361 83.6441 24.1316C83.7214 23.9022 83.75 23.6593 83.7282 23.4182V14.3654H95.3453V23.4182C95.3453 23.8785 95.5281 24.3199 95.8536 24.6453C96.1791 24.9708 96.6205 25.1537 97.0808 25.1537C97.541 25.1537 97.9825 24.9708 98.3079 24.6453C98.6334 24.3199 98.8162 23.8785 98.8162 23.4182V2.03995C98.8203 1.5761 98.6436 1.12889 98.3236 0.79305C98.0037 0.457208 97.5655 0.259112 97.102 0.240723Z" fill="black"/>
<path d="M325.731 0.240723C325.26 0.248184 324.812 0.441487 324.483 0.778506C324.153 1.11553 323.971 1.56894 323.975 2.03995V10.9653H312.358V2.03995C312.358 1.57967 312.175 1.13825 311.849 0.812784C311.524 0.487319 311.082 0.304475 310.622 0.304475C310.162 0.304475 309.72 0.487319 309.395 0.812784C309.07 1.13825 308.887 1.57967 308.887 2.03995V23.4182C308.887 23.8785 309.07 24.3199 309.395 24.6453C309.72 24.9708 310.162 25.1537 310.622 25.1537C311.082 25.1537 311.524 24.9708 311.849 24.6453C312.175 24.3199 312.358 23.8785 312.358 23.4182V14.3654H323.975V23.4182C323.975 23.8785 324.158 24.3199 324.483 24.6453C324.808 24.9708 325.25 25.1537 325.71 25.1537C326.17 25.1537 326.612 24.9708 326.937 24.6453C327.263 24.3199 327.446 23.8785 327.446 23.4182V2.03995C327.45 1.5761 327.273 1.12889 326.953 0.79305C326.633 0.457208 326.195 0.259112 325.731 0.240723Z" fill="black"/>
<path d="M117.586 0C115.948 0.0234176 114.331 0.373951 112.83 1.03101C111.329 1.68807 109.975 2.63842 108.847 3.82622C107.718 5.01402 106.838 6.41534 106.259 7.94786C105.68 9.48038 105.413 11.1132 105.473 12.7504C105.473 19.9757 110.644 25.4159 117.515 25.4159C119.154 25.3924 120.771 25.0419 122.271 24.3849C123.772 23.7278 125.127 22.7774 126.255 21.5896C127.383 20.4018 128.263 19.0005 128.842 17.468C129.422 15.9355 129.689 14.3027 129.628 12.6654C129.586 5.44018 124.415 0 117.586 0ZM117.586 22.0866C112.798 22.0866 109.086 17.9781 109.086 12.7363V12.6654C109.086 7.36692 112.727 3.37178 117.586 3.37178C122.446 3.37178 126.086 7.48025 126.086 12.7504C126.086 18.0489 122.446 22.0441 117.586 22.0441" fill="black"/>
<path d="M223.517 0.311581H223.163C222.826 0.320497 222.497 0.413259 222.205 0.581471C221.913 0.749682 221.667 0.988032 221.491 1.27495L209.109 18.7855V2.01164C209.109 1.56075 208.93 1.12834 208.611 0.809516C208.292 0.490693 207.86 0.311581 207.409 0.311581C206.958 0.311581 206.525 0.490693 206.207 0.809516C205.888 1.12834 205.709 1.56075 205.709 2.01164V23.4465C205.699 23.6652 205.734 23.8835 205.81 24.0885C205.887 24.2935 206.004 24.4809 206.155 24.6395C206.306 24.7982 206.487 24.9249 206.688 25.012C206.889 25.0991 207.105 25.1449 207.324 25.1466H207.451C207.792 25.126 208.124 25.0256 208.419 24.8533C208.715 24.6811 208.965 24.4418 209.151 24.1549L221.902 6.20511V23.4465C221.902 23.8974 222.081 24.3298 222.4 24.6487C222.718 24.9675 223.151 25.1466 223.602 25.1466C224.053 25.1466 224.485 24.9675 224.804 24.6487C225.123 24.3298 225.302 23.8974 225.302 23.4465V2.06831C225.3 1.83575 225.252 1.60583 225.162 1.39168C225.071 1.17754 224.939 0.983357 224.773 0.820229C224.607 0.6571 224.411 0.528219 224.195 0.440945C223.98 0.353671 223.749 0.309713 223.517 0.311581Z" fill="black"/>
<path d="M190.451 0.411133H183.835C183.372 0.429523 182.934 0.627618 182.614 0.96346C182.294 1.2993 182.117 1.74651 182.121 2.21036V23.4611C182.121 23.9214 182.304 24.3628 182.629 24.6883C182.955 25.0137 183.396 25.1966 183.857 25.1966C184.317 25.1966 184.758 25.0137 185.084 24.6883C185.409 24.3628 185.592 23.9214 185.592 23.4611V16.675H190.041C194.716 16.675 199.448 14.1391 199.448 8.45807C199.448 3.61291 195.92 0.481969 190.466 0.481969M190.14 13.4166H185.592V3.78291H190.267C193.88 3.78291 195.934 5.49714 195.934 8.50058C195.934 11.334 193.597 13.2749 190.126 13.2749" fill="black"/>
<path d="M166.665 1.60066C166.524 1.18146 166.253 0.818167 165.891 0.563443C165.529 0.308719 165.096 0.175798 164.653 0.183947H164.526C164.08 0.176308 163.643 0.308995 163.277 0.563237C162.911 0.817479 162.634 1.1804 162.486 1.60066L153.886 22.6672C153.752 22.9504 153.684 23.2605 153.688 23.5739C153.682 23.7902 153.72 24.0055 153.798 24.2072C153.877 24.4088 153.995 24.5928 154.145 24.7485C154.295 24.9041 154.475 25.0282 154.674 25.1136C154.873 25.1989 155.087 25.2438 155.303 25.2456C155.668 25.2458 156.023 25.1309 156.318 24.9171C156.613 24.7034 156.833 24.4019 156.946 24.0556L159.213 18.7996H169.839L172.105 23.9989C172.224 24.3562 172.449 24.6686 172.75 24.894C173.052 25.1194 173.415 25.2471 173.791 25.2598C174.243 25.2523 174.674 25.0665 174.99 24.7428C175.306 24.419 175.481 23.9836 175.477 23.5314C175.465 23.2381 175.398 22.9496 175.279 22.6814L166.665 1.60066ZM168.479 15.4278H160.573L164.526 4.98661L168.479 15.4278Z" fill="black"/>
<path d="M245.093 1.60066C244.952 1.18146 244.681 0.818167 244.319 0.563443C243.957 0.308719 243.524 0.175798 243.082 0.183947H242.954C242.509 0.176308 242.072 0.308995 241.706 0.563237C241.34 0.817479 241.063 1.1804 240.914 1.60066L232.343 22.6672C232.209 22.9504 232.141 23.2605 232.145 23.5739C232.143 23.7879 232.183 24.0001 232.263 24.1985C232.343 24.3969 232.462 24.5775 232.612 24.7301C232.762 24.8827 232.94 25.0043 233.137 25.0879C233.334 25.1715 233.546 25.2154 233.76 25.2173C234.124 25.2175 234.479 25.1025 234.774 24.8888C235.07 24.6751 235.29 24.3735 235.403 24.0273L237.67 18.7712H248.295L250.548 23.9706C250.666 24.3279 250.891 24.6402 251.193 24.8657C251.494 25.0911 251.858 25.2188 252.234 25.2315C252.686 25.224 253.117 25.0382 253.433 24.7144C253.748 24.3907 253.923 23.9553 253.92 23.5031C253.908 23.2097 253.841 22.9211 253.721 22.653L245.093 1.60066ZM246.907 15.4278H239.002L242.954 4.98661L246.907 15.4278Z" fill="black"/>
<path d="M347.097 1.60066C346.956 1.18146 346.685 0.818167 346.323 0.563443C345.961 0.308719 345.528 0.175798 345.086 0.183947H344.958C344.513 0.176308 344.076 0.308995 343.71 0.563237C343.344 0.817479 343.067 1.1804 342.918 1.60066L334.347 22.6672C334.212 22.9502 334.144 23.2605 334.149 23.5739C334.147 23.7879 334.187 24.0001 334.267 24.1985C334.347 24.3969 334.466 24.5775 334.616 24.7301C334.766 24.8827 334.944 25.0043 335.141 25.0879C335.338 25.1715 335.55 25.2154 335.764 25.2173C336.128 25.2175 336.483 25.1025 336.778 24.8888C337.074 24.6751 337.294 24.3735 337.407 24.0273L339.674 18.7712H350.299L352.552 23.9706C352.67 24.3279 352.895 24.6402 353.197 24.8657C353.498 25.0911 353.861 25.2188 354.238 25.2315C354.69 25.224 355.121 25.0382 355.437 24.7144C355.752 24.3907 355.927 23.9553 355.924 23.5031C355.912 23.2097 355.845 22.9211 355.725 22.653L347.097 1.60066ZM348.911 15.4278H341.006L344.958 4.98661L348.911 15.4278Z" fill="black"/>
<path d="M367.751 15.1585L362.679 22.1429C362.37 22.4913 362.195 22.9381 362.184 23.4038C362.187 23.8703 362.37 24.3175 362.694 24.6526C363.019 24.9877 363.46 25.1848 363.926 25.203C364.243 25.194 364.552 25.1048 364.824 24.9437C365.097 24.7827 365.324 24.555 365.485 24.2822L371.506 15.7819H377.059V23.3755C377.037 23.6146 377.066 23.8557 377.142 24.0833C377.219 24.3109 377.342 24.52 377.504 24.6974C377.666 24.8747 377.863 25.0163 378.083 25.1132C378.303 25.2101 378.54 25.2602 378.78 25.2602C379.021 25.2602 379.258 25.2101 379.478 25.1132C379.698 25.0163 379.895 24.8747 380.057 24.6974C380.219 24.52 380.342 24.3109 380.418 24.0833C380.495 23.8557 380.523 23.6146 380.502 23.3755V2.25225C380.511 2.01965 380.475 1.78746 380.394 1.56897C380.314 1.35047 380.191 1.14996 380.034 0.978897C379.876 0.807838 379.686 0.669591 379.474 0.572063C379.263 0.474536 379.034 0.419643 378.802 0.410525H370.599C369.4 0.365405 368.205 0.565832 367.087 0.999492C365.969 1.43315 364.951 2.09088 364.096 2.93228C362.886 4.30732 362.239 6.08792 362.283 7.91911C362.209 9.58044 362.722 11.2147 363.733 12.5357C364.743 13.8567 366.185 14.7801 367.808 15.1444M370.882 3.81064H377.158V12.4809H370.911C367.78 12.4809 365.754 10.7667 365.754 8.10329C365.754 5.43986 367.624 3.85314 370.882 3.85314" fill="black"/>
<path d="M302.621 17.2276C302.621 11.4757 298.059 8.93977 293.525 8.93977H288.68V2.25288C288.702 2.01371 288.674 1.77264 288.597 1.54504C288.52 1.31744 288.397 1.1083 288.235 0.930976C288.073 0.753648 287.876 0.612017 287.656 0.515114C287.437 0.418211 287.199 0.368164 286.959 0.368164C286.719 0.368164 286.481 0.418211 286.261 0.515114C286.042 0.612017 285.845 0.753648 285.683 0.930976C285.521 1.1083 285.397 1.31744 285.321 1.54504C285.244 1.77264 285.216 2.01371 285.238 2.25288V23.3761C285.228 23.6098 285.265 23.8432 285.346 24.0626C285.427 24.282 285.551 24.4831 285.711 24.6543C285.87 24.8256 286.062 24.9635 286.275 25.0603C286.488 25.157 286.718 25.2105 286.952 25.2178H293.936C299.221 25.2178 302.621 22.0869 302.621 17.2417M299.136 17.0009C299.136 20.0185 297.166 21.7185 293.738 21.7185H288.68V12.3399H293.61C296.968 12.3399 299.136 14.1958 299.136 17.0575" fill="black"/>
<path d="M277.674 2.20992C277.674 1.96446 277.625 1.72149 277.528 1.49575C277.432 1.27001 277.291 1.06619 277.113 0.896641C276.936 0.727092 276.726 0.595343 276.496 0.509377C276.266 0.423411 276.021 0.385019 275.776 0.396525H264.924C264.697 0.388973 264.472 0.42633 264.26 0.506439C264.048 0.586548 263.854 0.707822 263.69 0.863255C263.525 1.01869 263.393 1.2052 263.301 1.41203C263.208 1.61885 263.158 1.84188 263.153 2.06825C263.153 11.9853 262.529 17.1704 261.07 20.0605C260.433 21.3072 259.866 21.5481 259.214 21.5481H259.03C258.392 21.5481 257.032 21.5481 256.806 23.0923C256.757 23.3452 256.771 23.606 256.845 23.8527C256.919 24.0993 257.051 24.3245 257.231 24.509C257.519 24.7696 257.857 24.9683 258.225 25.0926C258.593 25.2169 258.983 25.2642 259.37 25.2315C260.471 25.1672 261.529 24.7831 262.415 24.1264C263.301 23.4696 263.976 22.5686 264.357 21.5339C266.369 17.2129 266.709 10.3277 266.822 3.75414H274.203V23.4181C274.181 23.6611 274.21 23.906 274.288 24.1372C274.366 24.3684 274.491 24.5808 274.656 24.7609C274.821 24.941 275.021 25.0848 275.244 25.1832C275.467 25.2816 275.709 25.3325 275.953 25.3325C276.197 25.3325 276.438 25.2816 276.661 25.1832C276.884 25.0848 277.085 24.941 277.249 24.7609C277.414 24.5808 277.539 24.3684 277.617 24.1372C277.695 23.906 277.724 23.6611 277.702 23.4181L277.674 2.20992Z" fill="black"/>
</svg>
