<svg width="296" height="48" viewBox="0 0 296 48" fill="none" xmlns="http://www.w3.org/2000/svg">
<path d="M23.5863 15.8147C23.4726 15.997 23.3355 16.1637 23.1785 16.3106C23.125 16.3533 23.0804 16.4061 23.0472 16.4661C23.0141 16.526 22.9931 16.5919 22.9854 16.6599C22.9778 16.728 22.9836 16.7969 23.0025 16.8627C23.0215 16.9285 23.0532 16.9899 23.0959 17.0435C23.1821 17.1516 23.3078 17.2211 23.4452 17.2366C23.5133 17.2443 23.5822 17.2385 23.648 17.2195C23.7138 17.2006 23.7752 17.1688 23.8288 17.1261C24.132 16.8564 24.3857 16.5357 24.5782 16.1784H25.019C25.2145 16.5526 25.4758 16.8886 25.7904 17.1702C25.8812 17.2424 25.994 17.2813 26.1101 17.2804C26.2188 17.2828 26.3255 17.2509 26.4151 17.1892C26.5047 17.1275 26.5726 17.0392 26.6092 16.9368C26.6458 16.8344 26.6492 16.723 26.619 16.6185C26.5887 16.514 26.5263 16.4217 26.4407 16.3547C26.3262 16.2519 26.2227 16.1374 26.1321 16.013C26.4536 15.9309 26.7523 15.7772 27.0061 15.5635C27.2599 15.3498 27.4622 15.0815 27.5978 14.7787C27.7301 14.2497 27.3444 14.1395 27.3223 13.3791C27.3223 12.3982 27.8954 11.9905 27.5978 11.4174C27.4441 11.1992 27.254 11.009 27.0358 10.8553C26.7937 10.6178 26.5097 10.4273 26.1982 10.2933C25.7905 10.15 25.6362 10.2933 25.0961 10.2933C24.0822 10.2933 23.8728 9.81939 23.41 10.0178C23.2006 10.1059 22.9912 10.5357 22.5724 11.4174C22.1536 12.2991 22.0875 12.6076 21.7348 12.817C21.6467 12.817 21.4924 12.9493 21.4483 13.0925C21.4042 13.2358 21.5805 13.4122 21.7348 13.6546C22.0434 14.1616 21.7348 14.415 22.0214 14.7567C22.3079 15.0983 22.5834 14.911 23.1234 15.3187C23.3154 15.4613 23.4766 15.6413 23.5973 15.8477M24.8206 11.5276C25.1301 11.5276 25.4327 11.6194 25.6901 11.7913C25.9474 11.9633 26.148 12.2077 26.2664 12.4937C26.3849 12.7796 26.4159 13.0943 26.3555 13.3979C26.2951 13.7014 26.1461 13.9803 25.9272 14.1991C25.7083 14.418 25.4295 14.567 25.1259 14.6274C24.8224 14.6878 24.5077 14.6568 24.2217 14.5384C23.9358 14.4199 23.6914 14.2193 23.5194 13.962C23.3475 13.7046 23.2557 13.4021 23.2557 13.0925C23.2557 12.887 23.2962 12.6835 23.3748 12.4937C23.4535 12.3038 23.5687 12.1313 23.714 11.986C23.8594 11.8406 24.0319 11.7254 24.2217 11.6467C24.4116 11.5681 24.6151 11.5276 24.8206 11.5276Z" fill="white"/>
<path d="M44.9205 10.4587V7.29572C44.9207 7.16389 44.8707 7.03691 44.7806 6.94067C44.6905 6.84443 44.5671 6.78616 44.4356 6.77775C43.216 6.69287 42.0426 6.2776 41.0412 5.57649C40.9779 5.53055 40.905 5.49955 40.828 5.48581C40.751 5.47208 40.6718 5.47596 40.5966 5.49717C40.5213 5.51837 40.4518 5.55636 40.3932 5.60827C40.3347 5.66018 40.2887 5.72467 40.2587 5.7969C40.2144 5.90462 40.2078 6.02411 40.2398 6.13609C40.2718 6.24806 40.3405 6.34599 40.435 6.41406C41.4641 7.11761 42.6471 7.56361 43.8845 7.71451V10.4587C43.8899 18.0221 41.7871 25.4373 37.8121 31.8719C35.7496 35.207 33.2183 38.2282 30.296 40.8428V33.9218C31.2207 33.8054 32.0799 33.3832 32.7369 32.7221C33.394 32.0611 33.811 31.1993 33.9218 30.2739C34.9378 30.1552 35.875 29.6677 36.5555 28.9039C37.236 28.1401 37.6126 27.1531 37.6137 26.1301C37.6138 26.0612 37.6 25.9929 37.5733 25.9293C37.5466 25.8658 37.5074 25.8082 37.4581 25.7599C37.4089 25.7117 37.3505 25.6738 37.2863 25.6484C37.2222 25.623 37.1537 25.6107 37.0847 25.6122H7.83574C7.69836 25.6122 7.56661 25.6667 7.46947 25.7639C7.37233 25.861 7.31776 25.9928 7.31776 26.1301C7.32195 27.1529 7.70126 28.1386 8.38377 28.9003C9.06628 29.662 10.0046 30.1469 11.0207 30.2629C11.1315 31.1883 11.5485 32.0501 12.2056 32.7111C12.8626 33.3721 13.7218 33.7944 14.6465 33.9108V40.8318C11.7247 38.2166 9.19351 35.1955 7.13041 31.8609C3.1535 25.4306 1.04692 18.0194 1.04697 10.4587V7.71451C2.73076 7.47577 4.29142 6.69647 5.49395 5.49395C6.69647 4.29142 7.47578 2.73076 7.71451 1.04697H11.4616C11.5891 1.04914 11.7134 1.00605 11.8122 0.925361C11.9111 0.844667 11.9782 0.731576 12.0016 0.60614C12.0144 0.532044 12.0109 0.45605 11.9914 0.383437C11.9718 0.310824 11.9367 0.243333 11.8885 0.185654C11.8402 0.127975 11.78 0.0814902 11.712 0.0494299C11.644 0.0173697 11.5698 0.000502485 11.4946 1.87743e-07H7.31776C7.17828 -0.000116046 7.04416 0.0537428 6.9435 0.150296C6.84284 0.24685 6.78344 0.378608 6.77775 0.517974C6.65478 2.14294 5.9514 3.66946 4.79606 4.81874C3.64071 5.96801 2.11051 6.66334 0.484913 6.77775C0.353347 6.78616 0.229941 6.84443 0.139842 6.94067C0.049743 7.03691 -0.000267741 7.16389 1.07813e-06 7.29572V10.4587C0.00118083 18.0516 2.06988 25.5008 5.98409 32.007C9.89831 38.5132 15.5103 43.8308 22.2178 47.3891C22.2939 47.4306 22.3791 47.4523 22.4657 47.4523C22.5524 47.4523 22.6376 47.4306 22.7137 47.3891C29.4192 43.8294 35.0289 38.5111 38.9411 32.005C42.8533 25.4989 44.9204 18.0504 44.9205 10.4587ZM8.39779 26.6371H36.5227C36.3981 27.3661 36.0203 28.0277 35.4559 28.5055C34.8914 28.9833 34.1764 29.2466 33.4369 29.249H11.4946C10.7551 29.2466 10.0401 28.9833 9.47563 28.5055C8.91115 28.0277 8.53336 27.3661 8.40881 26.6371M18.3275 34.2083V43.7523C17.4311 43.1204 16.5605 42.4518 15.7156 41.7465V33.9549H18.3275V34.2083ZM21.9863 34.2083V46.0556C21.0973 45.556 20.2267 45.027 19.3744 44.4686V33.9549H21.9863V34.2083ZM25.6452 34.2083V44.4576C24.8003 45.0233 23.9297 45.5523 23.0333 46.0446V33.9218H25.6452V34.2083ZM29.3041 34.2083V41.7355C28.4592 42.4702 27.5885 43.1388 26.6922 43.7413V33.9549H29.3041V34.2083ZM15.1976 32.8969C14.458 32.8945 13.7431 32.6312 13.1786 32.1534C12.6141 31.6756 12.2363 31.0139 12.1118 30.285H32.8638C32.741 31.0197 32.361 31.6868 31.7917 32.1673C31.2224 32.6478 30.5009 32.9102 29.756 32.9079L15.1976 32.8969Z" fill="white"/>
<path d="M7.31571 18.8014C7.30529 18.9739 7.30529 19.1468 7.31571 19.3193C7.4442 20.3284 7.9356 21.2563 8.69815 21.9296C9.46069 22.6029 10.4422 22.9757 11.4595 22.9782H26.1171C27.1325 22.9776 28.1127 22.6052 28.8722 21.9312C29.0052 21.8147 29.1304 21.6895 29.247 21.5565C29.7973 20.9394 30.1504 20.1718 30.2609 19.3524V18.8344V4.70585H37.0496C37.187 4.70585 37.3187 4.65128 37.4159 4.55414C37.513 4.457 37.5676 4.32525 37.5676 4.18788C37.5789 4.01173 37.5789 3.83503 37.5676 3.65888C37.4394 2.65164 36.9495 1.7253 36.1893 1.05223C35.4291 0.379169 34.4502 0.00522882 33.4348 0L18.7993 0C17.7838 0.000565592 16.8037 0.373009 16.0441 1.04697C15.9117 1.16413 15.7866 1.28926 15.6694 1.42167C14.9955 2.18126 14.623 3.16138 14.6224 4.17685V18.2834H7.83368C7.76474 18.2819 7.6962 18.2942 7.63208 18.3196C7.56795 18.345 7.50955 18.3829 7.46027 18.4311C7.411 18.4794 7.37186 18.537 7.34514 18.6006C7.31843 18.6641 7.30467 18.7324 7.30469 18.8014M33.4348 1.04697C34.1744 1.04938 34.8893 1.31267 35.4538 1.79046C36.0183 2.26825 36.3961 2.9299 36.5206 3.65888H30.349C30.4736 2.9299 30.8514 2.26825 31.4158 1.79046C31.9803 1.31267 32.6953 1.04938 33.4348 1.04697ZM15.6694 4.17685C15.6723 3.34765 16.003 2.55324 16.5893 1.9669C17.1757 1.38056 17.9701 1.04987 18.7993 1.04697H30.6686C29.9042 1.72034 29.4107 2.64863 29.28 3.65888C29.2687 3.83503 29.2687 4.01173 29.28 4.18788V18.8014C29.2948 18.9737 29.2948 19.147 29.28 19.3193C29.1564 20.0483 28.7787 20.7099 28.2138 21.187C27.649 21.664 26.9336 21.9258 26.1942 21.9258C25.4549 21.9258 24.7394 21.664 24.1746 21.187C23.6098 20.7099 23.2321 20.0483 23.1084 19.3193C23.1084 19.2422 23.1084 19.0108 23.1084 18.7793C23.1055 18.6439 23.0497 18.5149 22.9529 18.4202C22.856 18.3254 22.7259 18.2723 22.5904 18.2724H15.6694V4.17685ZM14.5673 19.3304H21.9623C22.09 20.3415 22.5841 21.2708 23.3509 21.9423H11.4926C10.753 21.9399 10.0381 21.6766 9.47357 21.1988C8.90909 20.721 8.53131 20.0593 8.40676 19.3304H14.5673Z" fill="white"/>
<path d="M136.338 27.9814H124.028C123.683 27.9901 123.355 28.1332 123.114 28.3803C122.873 28.6274 122.738 28.9588 122.738 29.3039C122.737 29.4742 122.769 29.643 122.833 29.8008C122.897 29.9585 122.992 30.1019 123.112 30.2228C123.232 30.3437 123.375 30.4397 123.532 30.5052C123.689 30.5707 123.857 30.6044 124.028 30.6044H128.822V45.8791C128.805 46.0681 128.827 46.2586 128.888 46.4385C128.949 46.6183 129.046 46.7836 129.174 46.9236C129.302 47.0637 129.458 47.1756 129.632 47.2522C129.805 47.3287 129.993 47.3683 130.183 47.3683C130.373 47.3683 130.56 47.3287 130.734 47.2522C130.908 47.1756 131.064 47.0637 131.192 46.9236C131.32 46.7836 131.417 46.6183 131.478 46.4385C131.538 46.2586 131.561 46.0681 131.544 45.8791V30.6044H136.338C136.507 30.6029 136.675 30.5682 136.831 30.502C136.986 30.4359 137.128 30.3397 137.246 30.2189C137.365 30.0982 137.459 29.9552 137.522 29.7982C137.586 29.6412 137.618 29.4733 137.616 29.3039C137.616 28.9607 137.483 28.6308 137.245 28.384C137.006 28.1373 136.681 27.9929 136.338 27.9814Z" fill="white"/>
<path d="M116.82 27.8496C116.638 27.851 116.458 27.8885 116.291 27.9597C116.124 28.031 115.972 28.1346 115.845 28.2648C115.718 28.3949 115.618 28.5489 115.551 28.7178C115.484 28.8868 115.451 29.0674 115.454 29.2492V36.1923H106.417V29.2492C106.417 28.8912 106.274 28.5478 106.021 28.2946C105.768 28.0414 105.425 27.8992 105.066 27.8992C104.708 27.8992 104.365 28.0414 104.112 28.2946C103.859 28.5478 103.716 28.8912 103.716 29.2492V45.8795C103.699 46.0671 103.722 46.2561 103.782 46.4345C103.842 46.613 103.939 46.7769 104.066 46.9159C104.193 47.055 104.347 47.166 104.52 47.242C104.692 47.3179 104.878 47.3572 105.066 47.3572C105.255 47.3572 105.441 47.3179 105.613 47.242C105.786 47.166 105.94 47.055 106.067 46.9159C106.194 46.7769 106.291 46.613 106.351 46.4345C106.411 46.2561 106.433 46.0671 106.417 45.8795V38.8373H115.454V45.8795C115.454 46.2376 115.596 46.581 115.849 46.8341C116.102 47.0873 116.446 47.2296 116.804 47.2296C117.162 47.2296 117.505 47.0873 117.758 46.8341C118.011 46.581 118.154 46.2376 118.154 45.8795V29.2492C118.157 28.8884 118.019 28.5405 117.77 28.2793C117.521 28.018 117.181 27.8639 116.82 27.8496Z" fill="white"/>
<path d="M89.2027 27.6622C87.9283 27.6805 86.6705 27.9531 85.503 28.4643C84.3355 28.9754 83.2819 29.7147 82.4041 30.6387C81.5263 31.5627 80.842 32.6528 80.3914 33.8449C79.9407 35.0371 79.7329 36.3073 79.78 37.5809C79.78 43.2015 83.8025 47.4334 89.1476 47.4334C90.4219 47.4152 91.6798 47.1425 92.8473 46.6314C94.0148 46.1203 95.0684 45.381 95.9462 44.457C96.824 43.533 97.5083 42.4429 97.9589 41.2507C98.4096 40.0586 98.6174 38.7884 98.5703 37.5148V37.4707C98.5703 31.8501 94.5478 27.6182 89.2027 27.6182M89.2027 44.7995C85.4777 44.7995 82.5903 41.6035 82.5903 37.5258V37.4707C82.5903 33.3489 85.4226 30.2411 89.2027 30.2411C92.9828 30.2411 95.8151 33.4371 95.8151 37.5258C95.8151 41.6475 92.9828 44.7554 89.2027 44.7554" fill="white"/>
<path d="M149.407 27.6622C148.133 27.6819 146.876 27.9557 145.71 28.4674C144.544 28.9792 143.492 29.7187 142.615 30.6426C141.738 31.5664 141.055 32.656 140.605 33.8475C140.155 35.0389 139.948 36.3082 139.995 37.5809C139.995 43.2015 144.017 47.4334 149.362 47.4334C150.637 47.4152 151.895 47.1425 153.062 46.6314C154.23 46.1203 155.283 45.381 156.161 44.457C157.039 43.533 157.723 42.4429 158.174 41.2507C158.624 40.0586 158.832 38.7884 158.785 37.5148V37.4707C158.785 31.8501 154.763 27.6182 149.418 27.6182M149.418 44.7995C145.693 44.7995 142.805 41.6035 142.805 37.5258V37.4707C142.805 33.3489 145.637 30.2411 149.418 30.2411C153.198 30.2411 156.03 33.4371 156.03 37.5258C156.03 41.6475 153.198 44.7554 149.418 44.7554" fill="white"/>
<path d="M170.359 27.9814H165.212C164.852 27.9958 164.511 28.1499 164.262 28.4111C164.013 28.6724 163.876 29.0202 163.879 29.3811V45.9122C163.879 46.2702 164.021 46.6136 164.274 46.8668C164.528 47.12 164.871 47.2622 165.229 47.2622C165.587 47.2622 165.93 47.12 166.184 46.8668C166.437 46.6136 166.579 46.2702 166.579 45.9122V40.6332H170.04C173.676 40.6332 177.357 38.6605 177.357 34.2412C177.357 30.4721 174.613 28.0366 170.37 28.0366M170.117 38.0985H166.579V30.6044H170.216C173.026 30.6044 174.624 31.9379 174.624 34.2743C174.624 36.4784 172.806 37.9883 170.106 37.9883" fill="white"/>
<path d="M189.224 28.907C189.114 28.5809 188.903 28.2983 188.622 28.1002C188.341 27.902 188.003 27.7986 187.659 27.805H187.56C187.214 27.799 186.874 27.9022 186.589 28.1C186.304 28.2978 186.089 28.5801 185.973 28.907L179.284 45.2838C179.179 45.5041 179.126 45.7454 179.129 45.9892C179.125 46.1574 179.154 46.3249 179.215 46.4818C179.276 46.6386 179.368 46.7818 179.485 46.9029C179.602 47.0239 179.742 47.1205 179.896 47.1869C180.051 47.2533 180.217 47.2882 180.386 47.2896C180.669 47.2898 180.945 47.2003 181.175 47.0341C181.405 46.8678 181.576 46.6332 181.664 46.3639L183.427 42.2752H191.693L193.445 46.2867C193.537 46.5646 193.713 46.8076 193.947 46.983C194.182 47.1584 194.464 47.2577 194.757 47.2676C194.932 47.2647 195.105 47.2273 195.265 47.1577C195.426 47.088 195.571 46.9873 195.693 46.8615C195.815 46.7356 195.911 46.5869 195.975 46.424C196.04 46.2611 196.071 46.0871 196.068 45.912C196.06 45.6837 196.007 45.4592 195.914 45.2508L189.224 28.907ZM190.657 39.6743H184.485L187.56 31.552L190.657 39.6743Z" fill="white"/>
<path d="M70.2794 36.4898L76.1094 30.2521C76.3726 29.9885 76.5229 29.6327 76.5282 29.2602C76.5345 28.904 76.4025 28.5593 76.16 28.2983C75.9176 28.0374 75.5834 27.8805 75.2278 27.8606C75.0305 27.8686 74.8369 27.9167 74.6588 28.002C74.4807 28.0872 74.3218 28.2079 74.1918 28.3565L65.1328 38.3854V29.2933C65.1497 29.1072 65.1276 28.9197 65.068 28.7426C65.0084 28.5656 64.9125 28.4029 64.7865 28.265C64.6606 28.127 64.5072 28.0168 64.3363 27.9415C64.1653 27.8661 63.9806 27.8271 63.7937 27.8271C63.6069 27.8271 63.4222 27.8661 63.2512 27.9415C63.0803 28.0168 62.9269 28.127 62.801 28.265C62.675 28.4029 62.5791 28.5656 62.5195 28.7426C62.4599 28.9197 62.4378 29.1072 62.4547 29.2933V45.8244C62.4378 46.0104 62.4599 46.198 62.5195 46.375C62.5791 46.5521 62.675 46.7147 62.801 46.8527C62.9269 46.9906 63.0803 47.1008 63.2512 47.1762C63.4222 47.2516 63.6069 47.2905 63.7937 47.2905C63.9806 47.2905 64.1653 47.2516 64.3363 47.1762C64.5072 47.1008 64.6606 46.9906 64.7865 46.8527C64.9125 46.7147 65.0084 46.5521 65.068 46.375C65.1276 46.198 65.1497 46.0104 65.1328 45.8244V42.0002L68.439 38.4735L74.5114 46.6289C74.6223 46.8232 74.7827 46.9848 74.9763 47.097C75.1699 47.2093 75.3897 47.2683 75.6135 47.2681C75.9818 47.2537 76.3299 47.0958 76.5832 46.828C76.8366 46.5602 76.9751 46.204 76.969 45.8354C76.9718 45.4755 76.8512 45.1254 76.6274 44.8435L70.2794 36.4898Z" fill="white"/>
<path d="M116.818 0.319336H104.496C104.151 0.327963 103.824 0.471096 103.583 0.718181C103.342 0.965267 103.207 1.29673 103.207 1.64182C103.207 1.98482 103.343 2.31394 103.584 2.5575C103.826 2.80107 104.153 2.93936 104.496 2.94227H109.29V18.217C109.273 18.406 109.296 18.5965 109.357 18.7764C109.417 18.9562 109.515 19.1214 109.643 19.2615C109.771 19.4016 109.927 19.5135 110.1 19.5901C110.274 19.6666 110.462 19.7062 110.652 19.7062C110.841 19.7062 111.029 19.6666 111.203 19.5901C111.376 19.5135 111.532 19.4016 111.66 19.2615C111.788 19.1214 111.886 18.9562 111.946 18.7764C112.007 18.5965 112.03 18.406 112.013 18.217V2.94227H116.818C116.987 2.94083 117.154 2.90605 117.31 2.83991C117.466 2.77378 117.607 2.67758 117.726 2.55683C117.845 2.43607 117.939 2.29311 118.002 2.13611C118.066 1.97911 118.097 1.81115 118.096 1.64182C118.096 1.29858 117.963 0.968716 117.724 0.72193C117.486 0.475145 117.161 0.330777 116.818 0.319336Z" fill="white"/>
<path d="M75.5388 0.1875C75.1725 0.193304 74.8232 0.343676 74.5673 0.605846C74.3113 0.868016 74.1693 1.22073 74.1723 1.58713V8.53019H65.1353V1.58713C65.1353 1.22908 64.993 0.885692 64.7399 0.63251C64.4867 0.379329 64.1433 0.237093 63.7852 0.237093C63.4272 0.237093 63.0838 0.379329 62.8306 0.63251C62.5774 0.885692 62.4352 1.22908 62.4352 1.58713V18.2174C62.4182 18.4049 62.4405 18.594 62.5007 18.7724C62.5608 18.9509 62.6575 19.1148 62.7845 19.2538C62.9115 19.3929 63.0661 19.5039 63.2384 19.5799C63.4107 19.6558 63.5969 19.6951 63.7852 19.6951C63.9735 19.6951 64.1598 19.6558 64.3321 19.5799C64.5044 19.5039 64.659 19.3929 64.786 19.2538C64.913 19.1148 65.0097 18.9509 65.0698 18.7724C65.1299 18.594 65.1522 18.4049 65.1353 18.2174V11.1752H74.1723V18.2174C74.1723 18.5755 74.3145 18.9188 74.5677 19.172C74.8209 19.4252 75.1643 19.5674 75.5223 19.5674C75.8804 19.5674 76.2237 19.4252 76.4769 19.172C76.7301 18.9188 76.8723 18.5755 76.8723 18.2174V1.58713C76.8755 1.2263 76.7381 0.878413 76.4891 0.617159C76.2402 0.355905 75.8994 0.201806 75.5388 0.1875Z" fill="white"/>
<path d="M253.389 0.1875C253.022 0.193304 252.673 0.343676 252.417 0.605846C252.161 0.868016 252.019 1.22073 252.022 1.58713V8.53019H242.985V1.58713C242.985 1.22908 242.843 0.885692 242.59 0.63251C242.337 0.379329 241.993 0.237093 241.635 0.237093C241.277 0.237093 240.934 0.379329 240.681 0.63251C240.427 0.885692 240.285 1.22908 240.285 1.58713V18.2174C240.285 18.5755 240.427 18.9188 240.681 19.172C240.934 19.4252 241.277 19.5674 241.635 19.5674C241.993 19.5674 242.337 19.4252 242.59 19.172C242.843 18.9188 242.985 18.5755 242.985 18.2174V11.1752H252.022V18.2174C252.022 18.5755 252.164 18.9188 252.418 19.172C252.671 19.4252 253.014 19.5674 253.372 19.5674C253.73 19.5674 254.074 19.4252 254.327 19.172C254.58 18.9188 254.722 18.5755 254.722 18.2174V1.58713C254.725 1.2263 254.588 0.878413 254.339 0.617159C254.09 0.355905 253.749 0.201806 253.389 0.1875Z" fill="white"/>
<path d="M91.472 0C90.1977 0.0182167 88.9398 0.290899 87.7723 0.802032C86.6048 1.31316 85.5512 2.05244 84.6734 2.97644C83.7956 3.90044 83.1113 4.99053 82.6607 6.18269C82.2101 7.37485 82.0022 8.64504 82.0493 9.91865C82.0493 15.5392 86.0719 19.7712 91.4169 19.7712C92.6913 19.753 93.9492 19.4803 95.1167 18.9691C96.2842 18.458 97.3378 17.7187 98.2156 16.7947C99.0934 15.8707 99.7777 14.7806 100.228 13.5885C100.679 12.3963 100.887 11.1261 100.84 9.85253C100.807 4.23196 96.784 0 91.472 0ZM91.472 17.1813C87.747 17.1813 84.8596 13.9853 84.8596 9.90763V9.85253C84.8596 5.73078 87.6919 2.62293 91.472 2.62293C95.2522 2.62293 98.0845 5.81894 98.0845 9.91865C98.0845 14.0404 95.2522 17.1482 91.472 17.1482" fill="white"/>
<path d="M173.874 0.24272H173.598C173.336 0.249656 173.08 0.321817 172.853 0.45267C172.626 0.583523 172.435 0.768937 172.298 0.992129L162.666 14.6137V1.56521C162.666 1.21446 162.527 0.878082 162.278 0.630068C162.03 0.382053 161.694 0.24272 161.343 0.24272C160.993 0.24272 160.656 0.382053 160.408 0.630068C160.16 0.878082 160.021 1.21446 160.021 1.56521V18.2396C160.013 18.4097 160.04 18.5795 160.1 18.7389C160.16 18.8984 160.251 19.0442 160.368 19.1676C160.485 19.291 160.626 19.3896 160.783 19.4574C160.939 19.5251 161.107 19.5607 161.277 19.562H161.376C161.642 19.5461 161.9 19.4679 162.13 19.3339C162.359 19.1999 162.554 19.0138 162.699 18.7906L172.618 4.82734V18.2396C172.618 18.5903 172.757 18.9267 173.005 19.1747C173.253 19.4227 173.589 19.562 173.94 19.562C174.291 19.562 174.627 19.4227 174.875 19.1747C175.123 18.9267 175.263 18.5903 175.263 18.2396V1.60929C175.261 1.42838 175.224 1.24953 175.153 1.08294C175.083 0.916355 174.98 0.7653 174.851 0.638401C174.722 0.511502 174.57 0.411245 174.402 0.343354C174.234 0.275463 174.055 0.241267 173.874 0.24272Z" fill="white"/>
<path d="M148.152 0.319336H143.005C142.645 0.333642 142.304 0.487741 142.055 0.748995C141.806 1.01025 141.669 1.35814 141.672 1.71897V18.2501C141.672 18.6081 141.814 18.9515 142.067 19.2047C142.321 19.4579 142.664 19.6001 143.022 19.6001C143.38 19.6001 143.723 19.4579 143.977 19.2047C144.23 18.9515 144.372 18.6081 144.372 18.2501V12.9711H147.833C151.469 12.9711 155.15 10.9984 155.15 6.57911C155.15 2.81002 152.406 0.37444 148.163 0.37444M147.91 10.4364H144.372V2.94227H148.009C150.819 2.94227 152.417 4.27578 152.417 6.61217C152.417 8.81632 150.599 10.3262 147.899 10.3262" fill="white"/>
<path d="M129.646 1.24493C129.536 0.918825 129.325 0.636217 129.044 0.438066C128.763 0.239914 128.425 0.136514 128.081 0.142853H127.982C127.635 0.13691 127.296 0.240129 127.011 0.437905C126.726 0.635682 126.511 0.918002 126.395 1.24493L119.706 17.6327C119.601 17.853 119.548 18.0943 119.551 18.3381C119.547 18.5063 119.576 18.6738 119.637 18.8307C119.698 18.9876 119.79 19.1307 119.907 19.2518C120.024 19.3728 120.164 19.4694 120.318 19.5358C120.473 19.6022 120.639 19.6371 120.808 19.6385C121.091 19.6387 121.367 19.5492 121.597 19.383C121.827 19.2167 121.998 18.9821 122.086 18.7128L123.849 14.6241H132.115L133.878 18.6687C133.97 18.9466 134.145 19.1896 134.38 19.365C134.614 19.5403 134.897 19.6396 135.19 19.6495C135.541 19.6437 135.877 19.4992 136.122 19.2473C136.368 18.9955 136.504 18.6568 136.501 18.305C136.492 18.0768 136.44 17.8525 136.347 17.6438L129.646 1.24493ZM131.057 12.0012H124.907L127.982 3.87888L131.057 12.0012Z" fill="white"/>
<path d="M190.659 1.24493C190.549 0.918825 190.338 0.636217 190.057 0.438066C189.775 0.239914 189.438 0.136514 189.094 0.142853H188.995C188.648 0.13691 188.308 0.240129 188.024 0.437905C187.739 0.635682 187.523 0.918002 187.408 1.24493L180.74 17.6327C180.636 17.853 180.583 18.0943 180.586 18.3381C180.585 18.5045 180.616 18.6696 180.678 18.8239C180.741 18.9782 180.833 19.1188 180.949 19.2375C181.066 19.3562 181.205 19.4508 181.358 19.5158C181.511 19.5808 181.676 19.615 181.842 19.6165C182.126 19.6166 182.402 19.5272 182.632 19.3609C182.861 19.1947 183.033 18.9601 183.121 18.6907L184.884 14.602H193.15L194.902 18.6466C194.994 18.9246 195.169 19.1676 195.404 19.3429C195.638 19.5183 195.921 19.6176 196.213 19.6275C196.565 19.6217 196.9 19.4771 197.146 19.2253C197.392 18.9735 197.528 18.6348 197.525 18.283C197.516 18.0547 197.464 17.8302 197.371 17.6217L190.659 1.24493ZM192.07 12.0012H185.92L188.995 3.87888L192.07 12.0012Z" fill="white"/>
<path d="M270.011 1.24493C269.901 0.918825 269.69 0.636217 269.408 0.438066C269.127 0.239914 268.79 0.136514 268.446 0.142853H268.346C268 0.13691 267.66 0.240129 267.375 0.437905C267.09 0.635682 266.875 0.918002 266.759 1.24493L260.092 17.6327C259.987 17.8529 259.934 18.0942 259.938 18.3381C259.936 18.5045 259.968 18.6696 260.03 18.8239C260.092 18.9782 260.184 19.1188 260.301 19.2375C260.418 19.3562 260.557 19.4508 260.71 19.5158C260.863 19.5808 261.028 19.615 261.194 19.6165C261.477 19.6166 261.754 19.5272 261.983 19.3609C262.213 19.1947 262.384 18.9601 262.472 18.6907L264.236 14.602H272.501L274.254 18.6466C274.346 18.9246 274.521 19.1676 274.755 19.3429C274.99 19.5183 275.272 19.6176 275.565 19.6275C275.917 19.6217 276.252 19.4771 276.498 19.2253C276.743 18.9735 276.879 18.6348 276.877 18.283C276.868 18.0547 276.815 17.8302 276.722 17.6217L270.011 1.24493ZM271.421 12.0012H265.272L268.346 3.87888L271.421 12.0012Z" fill="white"/>
<path d="M286.073 11.7919L282.128 17.2251C281.887 17.4961 281.751 17.8437 281.742 18.2059C281.745 18.5688 281.887 18.9167 282.139 19.1774C282.392 19.438 282.735 19.5914 283.098 19.6056C283.344 19.5985 283.584 19.5291 283.796 19.4038C284.008 19.2785 284.185 19.1015 284.31 18.8892L288.994 12.2768H293.314V18.1839C293.297 18.3699 293.319 18.5575 293.379 18.7345C293.438 18.9116 293.534 19.0743 293.66 19.2122C293.786 19.3502 293.94 19.4603 294.11 19.5357C294.281 19.6111 294.466 19.65 294.653 19.65C294.84 19.65 295.025 19.6111 295.195 19.5357C295.366 19.4603 295.52 19.3502 295.646 19.2122C295.772 19.0743 295.868 18.9116 295.927 18.7345C295.987 18.5575 296.009 18.3699 295.992 18.1839V1.75199C295.999 1.57105 295.971 1.39043 295.909 1.22046C295.846 1.05049 295.751 0.894507 295.628 0.761439C295.505 0.628371 295.357 0.520827 295.193 0.44496C295.028 0.369093 294.85 0.326391 294.67 0.319298H288.288C287.356 0.284199 286.426 0.440113 285.557 0.777459C284.687 1.11481 283.895 1.62646 283.23 2.28099C282.289 3.35064 281.785 4.73579 281.819 6.16028C281.762 7.45264 282.161 8.72395 282.947 9.75155C283.733 10.7791 284.855 11.4975 286.117 11.7808M288.509 2.96427H293.391V9.70895H288.531C286.095 9.70895 284.519 8.37545 284.519 6.30355C284.519 4.23165 285.974 2.99733 288.509 2.99733" fill="white"/>
<path d="M235.415 13.4012C235.415 8.92676 231.866 6.95405 228.339 6.95405H224.57V1.75226C224.587 1.56621 224.565 1.37868 224.505 1.20163C224.446 1.02458 224.35 0.861892 224.224 0.723948C224.098 0.586003 223.945 0.475827 223.774 0.400446C223.603 0.325065 223.418 0.286133 223.231 0.286133C223.044 0.286133 222.86 0.325065 222.689 0.400446C222.518 0.475827 222.364 0.586003 222.238 0.723948C222.112 0.861892 222.017 1.02458 221.957 1.20163C221.897 1.37868 221.875 1.56621 221.892 1.75226V18.1842C221.885 18.366 221.914 18.5475 221.977 18.7182C222.04 18.8888 222.136 19.0453 222.26 19.1785C222.384 19.3117 222.533 19.4191 222.699 19.4943C222.865 19.5695 223.044 19.6112 223.226 19.6169H228.659C232.77 19.6169 235.415 17.1813 235.415 13.4122M232.704 13.2248C232.704 15.5723 231.172 16.8947 228.505 16.8947H224.57V9.59902H228.405C231.017 9.59902 232.704 11.0427 232.704 13.2689" fill="white"/>
<path d="M216.006 1.71884C216.006 1.5279 215.967 1.33889 215.892 1.16329C215.817 0.987683 215.707 0.829129 215.569 0.697236C215.431 0.565342 215.268 0.462853 215.089 0.39598C214.91 0.329107 214.72 0.299241 214.529 0.308191H206.087C205.911 0.302317 205.735 0.331377 205.571 0.393695C205.406 0.456012 205.255 0.550351 205.127 0.671264C204.999 0.792178 204.896 0.937268 204.824 1.09816C204.753 1.25905 204.714 1.43255 204.709 1.60864C204.709 9.32314 204.224 13.3567 203.089 15.605C202.593 16.5748 202.153 16.7621 201.646 16.7621H201.502C201.006 16.7621 199.948 16.7621 199.772 17.9634C199.735 18.1601 199.745 18.363 199.803 18.5549C199.86 18.7468 199.963 18.9219 200.103 19.0655C200.327 19.2682 200.59 19.4227 200.876 19.5194C201.163 19.6161 201.466 19.6529 201.767 19.6275C202.623 19.5775 203.446 19.2787 204.135 18.7678C204.825 18.2569 205.35 17.556 205.646 16.7511C207.211 13.3898 207.476 8.03372 207.564 2.9201H213.306V18.2169C213.289 18.4059 213.311 18.5964 213.372 18.7762C213.432 18.9561 213.53 19.1213 213.658 19.2614C213.786 19.4015 213.942 19.5134 214.115 19.59C214.289 19.6665 214.477 19.706 214.667 19.706C214.856 19.706 215.044 19.6665 215.218 19.59C215.391 19.5134 215.547 19.4015 215.675 19.2614C215.803 19.1213 215.901 18.9561 215.962 18.7762C216.022 18.5964 216.045 18.4059 216.028 18.2169L216.006 1.71884Z" fill="white"/>
</svg>
