<svg width="118" height="53" viewBox="0 0 118 53" fill="none" xmlns="http://www.w3.org/2000/svg">
<path fill-rule="evenodd" clip-rule="evenodd" d="M24.8898 34.0787L27.006 28.0768L29.0213 34.0787H24.8898ZM25.5952 23.1939L19.5491 39.7754H22.9752L23.9829 36.8253H29.9283L30.936 39.7754H34.3621L28.2152 23.1939H25.5952ZM60.0581 1.119C66.4065 1.119 72.5534 1.52591 78.2972 2.44146C71.1426 0.915547 63.0811 0 54.5158 0C24.386 0 0 11.19 0 24.9232C0 31.8407 6.14688 38.0461 16.123 42.6238C8.06149 38.2495 3.12383 32.6545 3.12383 26.5509C3.12383 12.5125 28.6183 1.22073 60.0581 1.119ZM38.8967 39.7754H35.6721V23.1939H38.8967L43.2297 32.1459L47.5628 23.1939H50.7874V39.7754H47.5628V30.1113L44.3382 36.4184H42.1213L38.8967 30.1113V39.7754ZM56.6319 23.1939V39.7754H53.4073V23.1939H56.6319ZM68.1196 33.2649H65.1973V30.5182H71.3442V32.858C71.3442 35.4012 70.9411 36.7236 69.8326 37.9443C68.7242 39.1651 67.1119 39.8772 65.298 39.8772C63.585 39.8772 61.9727 39.2668 60.8642 38.0461C60.1588 37.2322 59.5542 36.215 59.4535 35.2994C59.3527 34.5873 59.2519 33.3666 59.2519 31.4338V30.7217C59.2519 27.3647 59.5542 26.0422 60.8642 24.8215C62.0734 23.6008 63.4842 22.9904 65.3988 22.9904C66.4065 22.9904 67.3134 23.0921 68.0188 23.499C68.8249 23.8042 69.3288 24.2111 70.3365 25.1267L68.1196 27.3647C67.4142 26.6526 67.1119 26.4491 66.608 26.144C66.3057 26.0422 65.8019 25.9405 65.298 25.9405C64.3911 25.9405 63.6857 26.2457 63.1819 26.856C62.8796 27.263 62.5773 27.7716 62.5773 28.1785C62.4765 28.8906 62.3758 30.0096 62.3758 31.5355V32.0441C62.3758 34.6891 62.5773 35.6046 63.1819 36.215C63.6857 36.8253 64.3911 37.0288 65.1973 37.0288C67.0111 37.0288 68.1196 35.8081 68.1196 33.8752V33.2649ZM82.6302 31.1286C82.6302 34.4856 82.5295 35.2994 81.8241 36.1132C81.3202 36.7236 80.6149 37.0288 79.7079 37.0288C78.9018 37.0288 78.1964 36.7236 77.5918 36.1132C76.6849 35.1977 76.7857 33.2649 76.7857 31.2303C76.7857 29.1958 76.7857 27.6699 77.5918 26.7543C78.0956 26.144 78.9018 25.8388 79.7079 25.8388C80.5141 25.8388 81.3202 26.144 81.8241 26.7543C82.5295 27.5681 82.6302 28.382 82.6302 31.1286ZM85.9556 30.3148V31.4338C85.9556 33.7735 86.0564 36.215 84.2425 38.0461C83.0333 39.2668 81.5218 39.8772 79.7079 39.8772C77.8941 39.8772 76.3826 39.2668 75.1734 38.0461C73.4603 36.3167 73.5611 33.5701 73.5611 31.739V30.8234C73.5611 27.4664 73.9641 26.144 75.1734 24.9232C76.3826 23.7025 77.8941 23.0921 79.7079 23.0921C81.5218 23.0921 83.0333 23.7025 84.2425 24.9232C85.4518 26.0422 85.9556 27.5681 85.9556 30.3148ZM95.3271 24.0077C95.1255 23.906 95.3271 23.7025 95.5286 23.7025C95.7302 23.7025 96.1332 23.6008 96.1332 23.3973C96.1332 23.2956 96.0325 23.0921 96.1332 22.9904C96.1332 22.8887 95.9317 22.6852 95.8309 22.5835C95.7301 22.4818 95.5286 22.38 95.8309 22.1766C96.1332 21.9731 96.4355 22.38 96.7378 22.1766C97.0401 21.8714 96.5363 21.6679 96.5363 21.3628C96.4355 21.1593 96.1332 20.9559 96.1332 20.7524C96.1332 20.5489 96.3348 20.4472 96.3348 20.0403C96.234 19.6334 95.6294 19.023 95.6294 19.023C95.6294 18.7179 95.9317 18.4127 96.234 18.4127C96.4355 18.4127 96.6371 18.5144 96.9394 18.5144C97.1409 18.5144 97.1409 18.1075 97.1409 17.904C97.0401 17.7006 96.8386 17.2937 96.8386 17.2937C96.8386 17.2937 96.4355 16.3781 96.4355 16.0729C96.3348 15.8695 96.234 15.666 95.9317 15.3608C95.8309 15.2591 95.9317 15.0557 96.1332 15.0557C96.4355 15.0557 96.3348 15.2591 96.5363 15.5643C96.7378 15.7678 96.8386 15.7678 97.0401 15.7678C97.2417 15.7678 97.4432 15.5643 97.6448 15.4626C97.9471 14.9539 98.854 15.666 99.0555 15.666C99.1563 15.666 99.257 15.4626 99.257 15.4626C99.257 15.4626 99.1563 15.1574 98.9547 14.8522C98.7532 14.6488 98.5517 14.3436 98.5517 14.3436C98.5517 14.3436 97.8463 13.428 97.7455 13.3263C97.6448 13.2246 96.8386 12.5125 96.6371 12.309C96.4355 12.1056 95.7301 11.6987 95.6294 11.5969C95.5286 11.3935 95.4278 11.0883 95.6294 10.9866C95.8309 10.8848 96.234 11.3935 96.234 11.3935L96.6371 11.5969C96.6371 11.5969 97.0401 11.4952 97.2417 11.5969C97.4432 11.6987 97.544 11.5969 97.7455 11.5969C97.9471 11.5969 98.0478 11.4952 98.3501 11.3935C98.6524 11.3935 98.7532 11.3935 98.9547 11.3935C99.1563 11.4952 99.5593 11.3935 99.9624 11.2917C100.366 11.19 100.567 11.2917 100.668 11.0883C100.769 10.8848 100.366 10.4779 100.366 10.3762C100.265 10.2745 99.7609 10.071 99.6601 9.86756C99.4586 9.66411 99.3578 9.46065 99.257 9.35892C99.1563 9.2572 98.7532 9.35893 98.5517 9.46065C98.3501 9.46065 98.4509 9.66411 98.0478 9.56238C97.8463 9.46065 97.544 9.56238 97.3424 9.76584C97.2417 9.86756 96.9394 10.1727 96.6371 10.1727C96.5363 10.071 96.234 10.071 95.9317 9.86756C95.7301 9.76583 95.3271 9.56238 95.2263 9.46065C94.924 9.2572 94.7225 9.56238 94.4202 9.46065C93.7148 9.15547 93.2109 9.2572 93.1102 9.15547C93.0094 8.95202 93.1102 8.64683 93.0094 8.44338C92.9086 8.23992 92.6063 8.23992 92.6063 8.1382C92.6063 8.03647 92.4048 7.83301 92.304 7.62956C92.2032 7.4261 92.4048 7.22265 92.304 7.01919C92.304 6.81574 91.9009 6.71401 91.9009 6.71401C91.9009 6.71401 91.6994 6.61228 91.4979 6.71401C91.2963 6.81574 91.2963 6.81574 91.0948 7.01919C90.994 7.22265 90.8933 7.4261 90.7925 7.62956C90.6917 7.93474 90.8933 8.74856 90.994 8.95202C91.0948 9.05374 91.2963 9.15547 91.5986 9.2572C91.9009 9.35893 91.9009 9.15547 92.1025 9.2572C92.304 9.46065 92.5056 9.46065 92.6063 9.56238C92.7071 9.66411 91.9009 9.76583 91.4979 9.66411C91.2963 9.66411 90.7925 9.86756 90.7925 9.86756C90.7925 9.86756 90.3894 9.86756 89.9863 10.071C89.3817 10.3762 89.1802 10.8848 89.1802 10.9866C89.1802 11.19 89.0794 11.2917 88.9787 11.5969C88.8779 11.9021 88.7771 12.309 88.7771 12.309C88.7771 12.309 88.5756 12.7159 88.4748 12.9194C88.374 13.1228 88.2733 13.6315 88.2733 13.6315C88.2733 13.6315 88.1725 14.0384 88.374 14.2418C88.6763 14.4453 88.4748 14.7505 87.971 14.6488C87.7694 14.6488 87.5679 14.6488 87.3664 14.8522C87.064 15.1574 86.5602 16.2764 86.5602 16.2764C86.5602 16.2764 86.3587 17.1919 86.2579 17.7006C86.2579 17.904 86.0564 18.5144 85.9556 18.9213C85.9556 19.023 85.6533 19.5317 85.7541 19.9386C85.9556 20.0403 86.5602 19.3282 86.661 19.1248C86.7617 18.9213 87.2656 17.904 87.3664 17.5988C87.5679 17.0902 88.1725 16.5816 88.374 16.2764C88.5756 15.9712 88.4748 15.666 88.9787 15.1574C89.5833 14.547 89.4825 14.6488 89.5833 14.4453C89.7848 14.1401 90.3894 13.9367 90.4902 13.9367C91.0948 13.8349 91.0948 14.4453 91.5986 14.6488C91.9009 14.7505 92.2032 15.0557 92.2032 15.2591C92.2032 15.4626 91.9009 15.666 91.6994 16.0729C91.5986 16.2764 91.9009 16.9885 92.0017 17.1919C92.1025 17.3954 92.4048 17.904 92.5056 18.2092C92.6063 18.5144 92.9086 18.7178 93.4125 18.6161C93.8155 18.6161 94.1179 19.1248 93.1102 19.023C92.8079 19.023 92.4048 19.1248 92.304 19.1248C92.1025 19.1248 91.9009 19.1248 91.5986 19.2265C91.1956 19.3282 91.2963 19.6334 91.2963 19.8369C91.3971 20.142 91.4979 20.3455 91.6994 20.6507C91.9009 20.9559 92.0017 21.6679 92.1025 21.7697C92.2032 21.9731 91.8002 22.0749 91.9009 22.38C91.9009 22.5835 92.1025 22.6852 92.2032 22.7869C92.304 22.8887 92.6063 22.8887 93.1102 22.6852C93.4125 22.5835 93.614 22.9904 93.4125 23.0921C93.3117 23.1939 92.7071 23.2956 92.6063 23.6008C92.5056 23.8042 92.9086 24.4146 92.5056 24.8215C92.4048 24.9232 92.5056 25.6353 92.5056 25.8388C92.5056 26.0422 92.8079 26.3474 92.9086 26.4491C93.0094 26.5509 93.1102 27.263 93.1102 27.3647C93.1102 27.5681 93.1102 27.7716 93.3117 27.975C93.4125 28.0768 93.5132 28.2802 93.614 28.382C93.614 28.4837 93.5132 28.6871 93.3117 28.5854C93.2109 28.4837 92.8079 28.5854 92.6063 28.6871C92.4048 28.7889 92.1025 29.1958 92.0017 29.3992C91.8002 29.8061 91.8002 30.62 92.0017 30.9251C92.1025 31.1286 92.304 31.2303 92.304 31.4338C92.304 31.739 92.4048 31.8407 92.2032 32.2476C92.2032 32.3493 92.1025 32.6545 92.1025 32.9597C92.0017 33.6718 93.1102 36.4184 93.5132 36.9271C94.0171 37.4357 94.8232 38.8599 95.3271 39.6737C95.8309 40.4875 95.7301 40.1823 95.6294 40.4875C95.5286 40.7927 95.3271 40.8944 95.0248 41.0979C94.7225 41.3013 94.6217 41.81 94.4202 42.0134C94.3194 42.3186 93.5132 43.0307 93.5132 43.1324C93.5132 43.2342 92.8079 44.1497 93.2109 44.3532C93.614 44.5566 93.9163 44.1497 94.2186 43.9463C95.0248 43.3359 95.4278 42.6238 96.0325 42.4203C96.7378 42.2169 96.9394 41.81 97.0401 41.5048C97.1409 41.1996 97.1409 41.0979 96.9394 40.7927C96.8386 40.5893 96.7378 40.0806 96.7378 39.8772C96.6371 39.6737 96.3348 39.1651 96.234 39.0633C96.1332 38.9616 95.9317 37.7409 96.0325 37.6392C96.1332 37.5374 96.1332 37.2322 96.234 37.0288C96.3348 36.8253 96.1332 36.5202 96.0325 36.4184C95.8309 36.3167 95.7301 36.1132 95.6294 35.7063C95.5286 35.1977 95.7302 35.2994 96.0325 35.096C96.3348 34.8925 95.9317 34.6891 96.0325 34.2822C96.1332 33.7735 95.5286 33.6718 95.2263 33.2649C94.924 32.858 94.7225 32.4511 94.7225 32.2476C94.7225 32.0441 94.5209 31.6372 94.4202 31.5355C94.3194 31.3321 94.2186 31.2303 94.2186 30.9251C94.2186 30.7217 94.5209 30.5182 94.6217 30.3148C94.7225 30.1113 94.5209 30.0096 94.5209 29.9079C94.5209 29.8061 94.5209 29.501 94.7225 29.3992C94.924 29.2975 95.1255 29.3992 95.2263 29.501C95.3271 29.6027 95.4278 29.7044 95.4278 30.2131C95.4278 30.4165 95.4278 30.4165 95.7301 30.7217C96.0325 31.0269 96.6371 31.2303 97.2417 31.0269C97.3424 30.9251 97.7455 30.8234 97.9471 30.62C98.3501 30.3148 98.7532 30.5182 99.1563 30.5182C99.5594 30.5182 99.9624 30.5182 100.265 30.2131C100.466 30.1113 100.567 29.9079 100.668 29.7044C100.668 29.501 101.172 29.1958 101.272 28.9923C101.373 28.7889 101.373 28.4837 101.172 28.382C100.97 28.2802 100.769 28.5854 100.466 28.5854C100.164 28.5854 100.164 28.4837 99.9624 28.382C99.7609 28.2802 99.5593 28.382 99.4586 28.5854C99.3578 28.6871 98.9547 28.6871 98.9547 28.382C98.9547 27.975 98.6524 27.8733 98.6524 27.5681C98.5517 27.1612 98.2494 26.9578 98.1486 26.7543C97.9471 26.5509 97.9471 26.3474 97.6448 26.0422C97.3424 25.737 97.2417 25.4319 96.9394 25.3301C96.7378 25.2284 96.4355 24.3129 96.1332 24.3129C95.9317 23.906 95.5286 24.1094 95.3271 24.0077ZM104.396 12.9194C104.295 12.9194 103.993 12.9194 103.691 12.8177C103.389 12.7159 102.28 12.1056 102.079 12.0038C101.877 11.9021 101.272 11.5969 101.172 11.4952C100.97 11.19 101.172 10.8848 101.272 10.7831C101.272 10.6814 101.474 10.3762 101.575 10.3762C101.776 10.3762 101.877 10.6814 101.776 10.8848C101.675 11.0883 101.877 11.2917 102.28 11.3935C102.381 11.3935 102.683 11.3935 102.784 11.3935C102.885 11.3935 103.187 11.3935 103.187 11.2917C103.288 11.2917 103.288 11.3935 103.288 11.5969C103.288 11.8004 103.489 12.0038 103.792 12.1056C103.993 12.2073 104.295 12.309 104.396 12.4107C104.497 12.5125 104.799 12.5125 104.699 12.7159C104.799 12.8177 104.497 12.9194 104.396 12.9194ZM106.915 34.9942C107.016 35.096 106.21 36.1132 105.706 36.1132C105.202 36.1132 105.001 35.7063 104.9 35.4012C104.799 35.096 104.396 34.1804 104.295 33.8752C104.195 33.5701 103.792 33.0614 103.792 33.0614C103.792 33.0614 102.985 32.0441 102.582 31.4338C102.179 30.9251 101.474 30.5182 101.474 30.1113C101.373 29.7044 101.776 29.501 102.079 29.2975C102.381 29.1958 102.683 28.8906 102.885 28.7889C103.086 28.6871 103.288 28.4837 103.489 28.4837C103.691 28.382 103.892 28.5854 103.59 28.8906C103.288 29.094 103.792 29.094 103.892 29.3992C103.993 29.6027 103.389 30.0096 103.59 30.5182C103.691 30.9251 104.195 31.1286 104.195 31.6372C104.295 32.1459 104.799 32.5528 104.9 32.7562C105.001 32.9597 105.102 33.2649 105.303 33.4683C105.404 33.5701 105.505 33.6718 105.605 33.8752C105.706 34.2822 105.505 34.1804 105.404 34.2822C105.404 34.3839 105.404 34.4856 105.605 34.7908C105.807 35.096 106.109 35.096 106.21 34.9942C106.311 34.8925 106.815 34.8925 106.915 34.9942ZM114.876 19.7351C116.892 22.38 118 25.1267 118 28.0768C118 41.81 93.614 53 63.4842 53C52.5004 53 42.222 51.4741 33.6567 48.9309C41.5167 50.762 50.4851 51.7793 60.0581 51.7793C91.4979 51.7793 116.892 40.3858 116.892 26.4491C116.892 24.1094 116.186 21.8714 114.876 19.7351Z" fill="white"/>
</svg>
