<svg width="140" height="24" viewBox="0 0 140 24" fill="none" xmlns="http://www.w3.org/2000/svg">
<path d="M12.91 18.5974L8.048 12.0974L12.78 5.59744H8.23L4.33 11.2914V5.59744H0.43V18.5974H4.33V12.8514L8.49 18.5974H12.91ZM24.8741 5.59744H13.1741V9.34144H17.1001V18.5974H21.0001V9.34144H24.8741V5.59744ZM32.2891 18.9614C36.1111 18.9614 39.1791 15.9714 39.1791 12.0974C39.1791 8.22344 36.1111 5.23344 32.2891 5.23344C28.4671 5.23344 25.3991 8.22344 25.3991 12.0974C25.3991 15.9714 28.4671 18.9614 32.2891 18.9614ZM32.2891 15.1654C30.5991 15.1654 29.2991 13.9434 29.2991 12.0974C29.2991 10.2514 30.5991 9.02944 32.2891 9.02944C33.9791 9.02944 35.2791 10.2514 35.2791 12.0974C35.2791 13.9434 33.9791 15.1654 32.2891 15.1654Z" fill="#0475C7"/>
<path d="M52.7991 9.15944C53.7871 8.30144 54.3851 7.10544 54.3851 5.59744C54.3851 2.45144 51.8111 0.397441 48.6391 0.397441H41.5151V18.5974H49.1591C52.4091 18.5974 55.0351 16.4914 55.0351 13.2674C55.0351 11.4214 54.1511 10.0174 52.7991 9.15944ZM48.6391 4.29744C49.6011 4.29744 50.2251 4.97344 50.2251 5.90944C50.2251 6.84544 49.5751 7.52144 48.6391 7.52144H45.6751V4.29744H48.6391ZM49.1591 14.6974H45.6751V11.2134H49.1591C50.1991 11.2134 50.8751 11.9414 50.8751 12.9554C50.8751 13.9694 50.1991 14.6974 49.1591 14.6974ZM69.4549 18.5974L64.5929 12.0974L69.3249 5.59744H64.7749L60.8749 11.2914V5.59744H56.9749V18.5974H60.8749V12.8514L65.0349 18.5974H69.4549ZM79.079 5.59744L76.635 13.5794L73.619 5.59744H69.459L74.555 18.3634C73.957 19.7414 73.125 20.1574 71.383 20.1574V23.7974C74.763 23.9794 77.337 22.3414 78.793 18.2074L83.239 5.59744H79.079ZM92.4501 5.23344C90.7081 5.23344 89.4341 5.83144 88.5761 6.81944V5.59744H84.6761V23.7974H88.5761V17.3754C89.4341 18.3634 90.7081 18.9614 92.4501 18.9614C95.8561 18.9614 98.6641 15.9714 98.6641 12.0974C98.6641 8.22344 95.8561 5.23344 92.4501 5.23344ZM91.6701 15.2694C89.8761 15.2694 88.5761 14.0474 88.5761 12.0974C88.5761 10.1474 89.8761 8.92544 91.6701 8.92544C93.4641 8.92544 94.7641 10.1474 94.7641 12.0974C94.7641 14.0474 93.4641 15.2694 91.6701 15.2694ZM107.115 18.9614C109.663 18.9614 111.873 17.6354 112.991 15.6074L109.585 13.6574C109.169 14.5674 108.207 15.1134 107.063 15.1134C105.373 15.1134 104.125 13.8914 104.125 12.0974C104.125 10.3034 105.373 9.08144 107.063 9.08144C108.207 9.08144 109.143 9.62744 109.585 10.5374L112.991 8.56144C111.873 6.55944 109.637 5.23344 107.115 5.23344C103.163 5.23344 100.225 8.22344 100.225 12.0974C100.225 15.9714 103.163 18.9614 107.115 18.9614ZM117.791 13.6574H127.021C127.125 13.1634 127.177 12.6434 127.177 12.0974C127.177 8.17144 124.369 5.23344 120.573 5.23344C116.465 5.23344 113.657 8.22344 113.657 12.0974C113.657 15.9714 116.413 18.9614 120.859 18.9614C123.329 18.9614 125.253 18.0514 126.527 16.2834L123.407 14.4894C122.887 15.0614 121.977 15.4774 120.911 15.4774C119.481 15.4774 118.285 15.0094 117.791 13.6574ZM117.713 10.7454C118.077 9.41944 119.065 8.69144 120.547 8.69144C121.717 8.69144 122.887 9.23744 123.303 10.7454H117.713ZM131.071 12.0974H135.231C135.231 10.3034 139.391 9.10744 139.391 5.23344C139.391 1.85344 136.427 0.0334414 133.463 0.0334414C130.577 0.0334414 128.055 1.54144 126.911 4.21944L130.499 6.27344C131.019 5.05144 131.877 4.08944 133.307 4.08944C134.633 4.08944 135.231 4.68744 135.231 5.59744C135.231 7.88544 131.071 9.05544 131.071 12.0974ZM133.151 18.9614C134.503 18.9614 135.621 17.8434 135.621 16.4914C135.621 15.1394 134.503 14.0214 133.151 14.0214C131.799 14.0214 130.681 15.1394 130.681 16.4914C130.681 17.8434 131.799 18.9614 133.151 18.9614Z" fill="#333333"/>
</svg>
