<svg width="191" height="164" viewBox="0 0 191 164" fill="none" xmlns="http://www.w3.org/2000/svg">
<path d="M58.7051 2.59412e-06V17.3736C26.2775 20.326 0.785782 47.6576 0.785782 80.8459C0.785782 114.05 26.2775 141.382 58.7051 144.334V163.481H131.328C168.234 163.481 190.874 146.661 190.874 118.634C190.874 96.6898 177.797 81.0411 155.856 77.2996C173.601 72.8591 184.579 59.0808 184.579 40.8785C184.579 15.4209 163.548 2.59412e-06 129.701 2.59412e-06H58.7051ZM123.928 57.7473C118.425 43.6173 108.013 31.9207 94.8 24.7581H128.287C145.804 24.5144 156.311 32.2244 156.311 45.7747C156.311 59.7808 145.804 67.735 128.287 67.735H86.2584V53.4039C80.0452 48.9793 72.5144 46.5069 64.528 46.5069C62.5438 46.5069 60.5923 46.653 58.7051 46.9626V114.746C60.5923 115.055 62.5438 115.201 64.528 115.201C72.4981 115.201 80.0452 112.68 86.2584 108.256V92.021H128.287C149.772 91.7773 162.622 100.659 162.622 115.136C162.622 130.313 149.772 138.951 128.287 138.723H91.2764C106.829 131.504 119.007 118.195 124.708 101.879H102.36C94.96 115.153 80.7768 124.148 64.528 124.148C40.6678 124.148 21.2476 104.725 21.2476 80.8459C21.2476 56.9825 40.6678 37.56 64.528 37.56C79.9149 37.56 93.4473 45.6286 101.108 57.7473H123.928Z" fill="white"/>
</svg>
