<svg width="93" height="32" viewBox="0 0 93 32" fill="none" xmlns="http://www.w3.org/2000/svg"><path d="M13.024.8h5.824L18.832 12h-3.184V2.608L12.336 12H7.84L4.528 2.608V12H1.344V.8h5.824l2.96 9.248L13.024.8ZM31.916 12l-.913-2.16H24.54L23.628 12h-3.28L25.26.8h5.12L35.306 12h-3.392ZM25.61 7.344h4.337l-2.177-5.12-2.16 5.12ZM45.886 12 42.22 8.032h-2.08V12h-3.328V.8h7.968c1.344 0 2.453.31 3.328.928.885.619 1.328 1.552 1.328 2.8 0 1.995-1.147 3.141-3.44 3.44L50.093 12h-4.208ZM40.14 3.456v2.08h4.48c.458 0 .821-.085 1.088-.256.266-.17.4-.421.4-.752a.905.905 0 0 0-.416-.784c-.267-.192-.624-.288-1.072-.288h-4.48ZM65.128 12H60.92l-4.256-4.336h-1.648V12h-3.328V.8h3.328v4.32H56.6L60.648.8h3.984L59.24 6.176 65.128 12Zm1.528 0V.8h11.408v2.592h-8.08v1.696h6.305V7.52h-6.305v1.888h8.385V12H66.656Zm12.837-8.48V.8h12.768v2.72h-4.72V12h-3.328V3.52h-4.72ZM7.904 24.776h6.816v5.28a18.26 18.26 0 0 1-6.32 1.136c-2.432 0-4.325-.507-5.68-1.52C1.376 28.648.704 27.224.704 25.4c0-1.824.624-3.243 1.872-4.256 1.248-1.024 2.992-1.536 5.232-1.536 1.77 0 3.227.33 4.368.992 1.141.661 1.867 1.563 2.176 2.704l-3.248.208c-.245-.363-.661-.65-1.248-.864-.587-.224-1.27-.336-2.048-.336-1.216 0-2.15.283-2.8.848-.65.555-.976 1.301-.976 2.24 0 .96.368 1.717 1.104 2.272.747.544 1.861.816 3.344.816 1.056 0 2.128-.107 3.216-.32v-1.2H7.904v-2.192ZM25.994 31l-3.664-3.968h-2.08V31h-3.328V19.8h7.968c1.344 0 2.453.31 3.328.928.886.619 1.328 1.552 1.328 2.8 0 1.995-1.146 3.141-3.44 3.44L30.202 31h-4.208Zm-5.744-8.544v2.08h4.48c.459 0 .822-.085 1.088-.256.267-.17.4-.421.4-.752a.905.905 0 0 0-.416-.784c-.267-.192-.624-.288-1.072-.288h-4.48Zm12.781 7.2c-1.312-1.024-1.968-2.443-1.968-4.256 0-1.813.656-3.232 1.968-4.256 1.312-1.024 3.136-1.536 5.472-1.536 2.336 0 4.16.512 5.472 1.536 1.312 1.024 1.968 2.443 1.968 4.256 0 1.813-.656 3.232-1.968 4.256-1.312 1.024-3.136 1.536-5.472 1.536-2.336 0-4.16-.512-5.472-1.536Zm2.432-6.496c-.714.555-1.072 1.301-1.072 2.24 0 .939.358 1.69 1.072 2.256.726.555 1.739.832 3.04.832 1.302 0 2.31-.277 3.024-.832.726-.565 1.088-1.317 1.088-2.256 0-.939-.362-1.685-1.088-2.24-.714-.565-1.722-.848-3.024-.848-1.301 0-2.314.283-3.04.848Zm22.362-3.36h3.328v6.416c0 1.568-.56 2.79-1.68 3.664-1.12.875-2.752 1.312-4.896 1.312-2.155 0-3.792-.437-4.912-1.312s-1.68-2.096-1.68-3.664V19.8h3.328v6.08c0 .81.261 1.445.784 1.904.533.459 1.36.688 2.48.688 2.165 0 3.248-.864 3.248-2.592V19.8Zm13.779 0c1.344 0 2.453.315 3.328.944.885.619 1.328 1.563 1.328 2.832 0 1.27-.421 2.192-1.264 2.768-.843.565-1.973.848-3.392.848h-4.432V31h-3.328V19.8h7.76Zm-.16 4.832c.992 0 1.488-.352 1.488-1.056 0-.704-.496-1.056-1.488-1.056h-4.272v2.112h4.272Z" fill="#000"/></svg>