<svg width="647" height="40" viewBox="0 0 647 40" fill="none" xmlns="http://www.w3.org/2000/svg">
<path d="M6.53613 40H46.5361V0H6.53613V40ZM18.9544 6.66667C18.9544 3.66013 23.3989 3.66013 23.3989 6.66667V22.2222C23.3989 24.3137 26.4054 24.4444 26.4054 22.2222V6.66667C26.4054 3.66013 30.8499 3.66013 30.8499 6.66667V22.3529C30.8499 26.0131 28.1048 28.366 24.8368 28.366C21.5688 28.366 18.8237 25.8824 18.8237 22.3529L18.9544 6.66667ZM15.9479 6.66667V28.366C15.9479 29.0196 16.6015 29.8039 17.3858 29.8039H38.0394L32.6799 17.2549C32.5492 16.732 32.4185 16.3399 32.4185 15.817C32.4185 15.2941 32.6799 14.3791 33.0721 13.7255L38.0394 5.62092C38.4316 4.8366 39.0852 4.44444 40.0002 4.31373C41.1767 4.31373 42.2224 5.09804 42.3531 6.40523C42.3531 6.66667 42.3531 7.18954 42.2224 7.45098L37.778 14.7712C37.2551 15.5556 37.3858 16.2092 37.6472 16.8627L44.4446 34.2484H15.9479C13.4642 34.2484 11.5035 32.2876 11.5035 29.8039V6.53595C11.5035 3.66013 15.9479 3.66013 15.9479 6.66667Z" fill="white"/>
<path d="M61.4386 5.09802H53.334V34.3791H70.3274V27.3202H61.4386V5.09802Z" fill="white"/>
<path d="M99.3462 5.09802H91.1109V22.3529C91.1109 24.183 90.8495 28.1046 86.405 28.1046C81.9606 28.1046 81.6992 24.0523 81.6992 22.3529V5.09802H73.4639V22.4836C73.4639 25.6209 74.1175 35.1634 86.405 35.1634C98.6926 35.1634 99.2155 25.6209 99.2155 22.4836V5.09802H99.3462Z" fill="white"/>
<path d="M112.811 21.83L121.307 34.3791H131.634L120.131 19.3464L131.242 5.09802H121.7L112.811 17.3856V5.09802H104.706V34.3791H112.811V21.83Z" fill="white"/>
<path d="M176.994 5.09802H168.759V34.3791H176.994V5.09802Z" fill="white"/>
<path d="M200 27.3202H191.111V5.09802H183.007V34.3791H200V27.3202Z" fill="white"/>
<path d="M147.974 35.5555C158.954 35.5555 164.052 27.7124 164.052 19.7385C164.052 11.7646 158.954 3.92151 147.974 3.92151C136.994 3.92151 131.896 11.7646 131.896 19.7385C131.896 27.7124 136.994 35.5555 147.974 35.5555ZM147.974 11.1111C151.896 11.1111 155.425 13.9869 155.425 19.7385C155.425 25.4901 151.896 28.366 147.974 28.366C144.052 28.366 140.523 25.4901 140.523 19.7385C140.523 13.9869 144.052 11.1111 147.974 11.1111Z" fill="white"/>
<path d="M221.961 34.5098H636.471" stroke="white" stroke-width="0.5"/>
<path d="M310.44 20.6013V2.77649H315.431V16.3234H320.779V20.6013H310.44Z" fill="white"/>
<path d="M322.75 20.6013V2.77649H327.741V20.6013H322.75Z" fill="white"/>
<path d="M333.451 20.6013V7.05446H329.53V2.77649H342.364V7.05446H338.442V20.6013H333.451Z" fill="white"/>
<path d="M342.353 20.6013L348.694 2.77649H354.754L361.095 20.6013H355.747L354.754 17.5202H348.694L347.701 20.6013H342.353ZM351.724 7.02899L349.687 13.5987H353.761L351.724 7.02899Z" fill="white"/>
<path d="M373.666 4.02423L371.883 7.76745C371.043 7.00353 369.922 6.18868 368.649 6.18868C367.147 6.18868 366.79 7.07992 366.79 7.71652C366.79 8.78601 368.013 9.09158 368.904 9.29529C371.527 9.90643 374.455 11.0523 374.455 15.2539C374.455 18.7934 371.934 21.1106 367.758 21.1106C365.466 21.1106 363.658 20.3467 361.086 18.2586L363.455 14.4645C364.855 15.8141 366.408 16.8327 367.885 16.8327C368.802 16.8327 369.642 16.3998 369.642 15.3303C369.642 13.7006 368.115 13.4969 366.23 12.9112C364.804 12.4783 361.978 11.4852 361.978 7.64013C361.978 4.76269 364.066 2.26721 368.242 2.26721C371.043 2.26721 372.953 3.51495 373.666 4.02423Z" fill="white"/>
<path d="M389.901 14.7191V19.7865C388.297 20.8814 386.616 21.1106 385.088 21.1106C379.792 21.1106 375.972 17.3929 375.972 11.6889C375.972 5.73032 380.174 2.26721 385.012 2.26721C386.59 2.26721 388.398 2.67464 389.901 3.6932V8.8624C388.984 7.79291 387.584 6.72342 385.674 6.72342C382.924 6.72342 381.116 8.91333 381.116 11.8417C381.116 14.5409 382.822 16.6544 385.674 16.6544C387.533 16.6544 388.984 15.6613 389.901 14.7191Z" fill="white"/>
<path d="M401.188 21.1106C394.669 21.1106 391.613 16.4507 391.613 11.6889C391.613 6.92714 394.669 2.26721 401.188 2.26721C407.707 2.26721 410.762 6.92714 410.762 11.6889C410.762 16.4507 407.707 21.1106 401.188 21.1106ZM401.188 16.8327C403.505 16.8327 405.619 15.1266 405.619 11.6889C405.619 8.25127 403.505 6.54517 401.188 6.54517C398.871 6.54517 396.757 8.25127 396.757 11.6889C396.757 15.1266 398.871 16.8327 401.188 16.8327Z" fill="white"/>
<path d="M417.887 20.6013L420.485 2.77649H425.476L428.608 13.6496L431.74 2.77649H436.731L439.328 20.6013H434.541L433.217 10.2629L430.212 20.6013H427.004L423.999 10.2629L422.675 20.6013H417.887Z" fill="white"/>
<path d="M441.165 8.30219H445.621V20.6013H441.165V8.30219ZM441.037 4.73723C441.037 3.43856 442.081 2.39453 443.38 2.39453C444.679 2.39453 445.723 3.43856 445.723 4.73723C445.723 6.03589 444.679 7.07992 443.38 7.07992C442.081 7.07992 441.037 6.03589 441.037 4.73723Z" fill="white"/>
<path d="M461.893 20.6013H457.615V19.1499C456.75 20.2703 455.4 21.0597 453.592 21.0597C450.409 21.0597 447.837 18.5897 447.837 14.439C447.837 11.307 449.492 7.84384 453.592 7.84384C455.222 7.84384 456.317 8.30219 457.437 9.5754V1.88525H461.893V20.6013ZM455.12 17.3929C456.699 17.3929 457.794 16.247 457.794 14.439C457.794 12.6565 456.699 11.5107 455.12 11.5107C453.235 11.5107 452.446 12.9876 452.446 14.439C452.446 15.9159 453.235 17.3929 455.12 17.3929Z" fill="white"/>
<path d="M478.132 20.6013H473.854V19.1499C472.988 20.2703 471.638 21.0597 469.83 21.0597C466.647 21.0597 464.075 18.5897 464.075 14.439C464.075 11.307 465.731 7.84384 469.83 7.84384C471.46 7.84384 472.555 8.30219 473.675 9.5754V1.88525H478.132V20.6013ZM471.358 17.3929C472.937 17.3929 474.032 16.247 474.032 14.439C474.032 12.6565 472.937 11.5107 471.358 11.5107C469.474 11.5107 468.684 12.9876 468.684 14.439C468.684 15.9159 469.474 17.3929 471.358 17.3929Z" fill="white"/>
<path d="M480.976 20.6013V1.88525H485.432V20.6013H480.976Z" fill="white"/>
<path d="M496.792 16.8581H501.07C499.644 21.0597 495.519 21.0597 494.449 21.0597C490.629 21.0597 487.625 18.7425 487.625 14.439C487.625 10.543 490.197 7.84384 494.398 7.84384C500.255 7.84384 501.273 12.682 501.172 15.4321H491.801C491.75 16.9854 492.667 18.386 494.449 18.386C495.671 18.386 496.563 17.8512 496.792 16.8581ZM491.903 13.013H496.894C496.817 11.7398 496.002 10.5176 494.398 10.5176C492.896 10.5176 491.979 11.6889 491.903 13.013Z" fill="white"/>
<path d="M509.478 20.6013V2.77649H520.173V7.05446H514.469V9.54993H519.638V13.4714H514.469V16.3234H520.173V20.6013H509.478Z" fill="white"/>
<path d="M531.769 9.80457V8.30219H536.047V20.6013H531.769V19.1499C530.903 20.2703 529.553 21.0597 527.745 21.0597C524.613 21.0597 522.016 18.5897 522.016 14.439C522.016 11.3324 523.671 7.84384 527.745 7.84384C529.452 7.84384 530.674 8.40405 531.769 9.80457ZM529.273 17.3929C530.852 17.3929 531.947 16.247 531.947 14.439C531.947 12.6565 530.852 11.5107 529.273 11.5107C527.414 11.5107 526.625 13.013 526.625 14.439C526.625 15.9159 527.44 17.3929 529.273 17.3929Z" fill="white"/>
<path d="M538 19.7865L539.248 16.7053C540.114 17.2655 541.387 17.8512 542.686 17.8512C543.73 17.8512 543.984 17.3419 543.984 16.9854C543.984 16.1706 543.017 16.0433 542.558 15.9669C539.885 15.5594 538.408 14.5918 538.408 12.1727C538.408 9.8555 539.885 7.84384 543.45 7.84384C545.436 7.84384 547.066 8.35312 548.262 8.91333L546.862 11.7653C545.792 11.0523 544.774 10.7722 544.035 10.7722C542.737 10.7722 542.686 11.5616 542.686 11.8162C542.686 12.5292 543.042 12.7329 544.85 12.9621C545.538 13.0385 548.441 13.4714 548.441 16.6799C548.441 18.8952 547.066 21.0597 542.991 21.0597C540.954 21.0597 539.401 20.6777 538 19.7865Z" fill="white"/>
<path d="M551.11 20.6013V11.5107H549.506V8.30219H551.11V4.91547H555.566V8.30219H558.061V11.5107H555.566V20.6013H551.11Z" fill="white"/>
<path d="M565.777 20.6013V2.77649H572.296C579.63 2.77649 581.463 7.69106 581.463 11.6889C581.463 16.4762 578.688 20.6013 572.296 20.6013H565.777ZM570.768 16.3234H571.328C576.268 16.3234 576.319 12.6056 576.319 11.6889C576.319 10.6958 576.268 7.05446 571.328 7.05446H570.768V16.3234Z" fill="white"/>
<path d="M582.633 20.6013L585.23 2.77649H590.221L593.353 13.6496L596.485 2.77649H601.476L604.074 20.6013H599.286L597.962 10.2629L594.957 20.6013H591.749L588.744 10.2629L587.42 20.6013H582.633Z" fill="white"/>
<path d="M619.177 14.7191V19.7865C617.573 20.8814 615.892 21.1106 614.364 21.1106C609.068 21.1106 605.248 17.3929 605.248 11.6889C605.248 5.73032 609.449 2.26721 614.288 2.26721C615.866 2.26721 617.674 2.67464 619.177 3.6932V8.8624C618.26 7.79291 616.86 6.72342 614.95 6.72342C612.2 6.72342 610.392 8.91333 610.392 11.8417C610.392 14.5409 612.098 16.6544 614.95 16.6544C616.809 16.6544 618.26 15.6613 619.177 14.7191Z" fill="white"/>
<path d="M634.818 14.7191V19.7865C633.214 20.8814 631.533 21.1106 630.006 21.1106C624.709 21.1106 620.889 17.3929 620.889 11.6889C620.889 5.73032 625.091 2.26721 629.929 2.26721C631.508 2.26721 633.316 2.67464 634.818 3.6932V8.8624C633.902 7.79291 632.501 6.72342 630.591 6.72342C627.841 6.72342 626.033 8.91333 626.033 11.8417C626.033 14.5409 627.739 16.6544 630.591 16.6544C632.45 16.6544 633.902 15.6613 634.818 14.7191Z" fill="white"/>
</svg>
