<svg width="242" height="196" viewBox="0 0 242 196" fill="none" xmlns="http://www.w3.org/2000/svg">
<path d="M123.506 41.8279C123.207 42.3085 122.845 42.7466 122.429 43.1301C122.281 43.2436 122.158 43.3851 122.065 43.5464C121.972 43.7077 121.912 43.8856 121.888 44.0701C121.864 44.2546 121.877 44.4421 121.925 44.6217C121.973 44.8013 122.057 44.9697 122.17 45.1171C122.284 45.2645 122.425 45.3881 122.587 45.4809C122.748 45.5736 122.926 45.6337 123.11 45.6577C123.295 45.6817 123.482 45.6691 123.662 45.6206C123.842 45.5722 124.01 45.4888 124.157 45.3753C124.953 44.6633 125.621 43.8205 126.133 42.8832L127.301 42.7709C127.822 43.7599 128.513 44.6492 129.344 45.3977C129.587 45.5885 129.888 45.6914 130.197 45.6896C130.478 45.6832 130.751 45.5915 130.979 45.4268C131.208 45.2621 131.381 45.032 131.476 44.7669C131.57 44.5018 131.583 44.2142 131.511 43.942C131.439 43.6699 131.286 43.4259 131.072 43.2424C130.755 42.9326 130.476 42.5858 130.242 42.2096C130.55 42.1332 130.851 42.028 131.14 41.8953C131.811 41.6323 132.421 41.2333 132.931 40.7233C133.441 40.2133 133.84 39.6033 134.103 38.9317C134.463 37.5397 133.452 37.2478 133.362 35.2272C133.362 32.6453 134.889 31.5676 134.103 30.0409C133.698 29.4656 133.197 28.9643 132.622 28.5591C131.974 27.9269 131.212 27.424 130.376 27.0773C129.299 26.6956 128.895 27.0773 127.413 27.0773C124.719 27.0773 124.18 25.82 122.923 26.3364C122.384 26.5609 121.822 27.7284 120.677 30.0409C119.532 32.3534 119.398 33.1841 118.432 33.7454C118.185 33.8801 117.781 34.0822 117.691 34.4863C117.601 34.8904 118.051 35.3395 118.432 35.9681C119.24 37.3152 118.432 37.9887 119.173 38.9317C119.914 39.8747 120.655 39.3358 122.137 40.4135C122.645 40.7881 123.073 41.2616 123.394 41.8055M126.627 30.3777C127.448 30.3777 128.252 30.6213 128.935 31.0777C129.618 31.5341 130.15 32.1827 130.464 32.9417C130.779 33.7007 130.861 34.5358 130.701 35.3415C130.54 36.1472 130.145 36.8873 129.564 37.4682C128.983 38.0491 128.243 38.4447 127.437 38.6049C126.632 38.7652 125.796 38.6829 125.038 38.3686C124.279 38.0542 123.63 37.5218 123.173 36.8388C122.717 36.1557 122.473 35.3527 122.473 34.5312C122.47 33.9849 122.576 33.4435 122.784 32.9382C122.991 32.4329 123.297 31.9739 123.683 31.5876C124.07 31.2013 124.529 30.8954 125.034 30.6878C125.539 30.4801 126.081 30.3747 126.627 30.3777Z" fill="white"/>
<path d="M178.664 17.9614C175.44 17.7334 172.337 16.6397 169.683 14.7957C169.515 14.6706 169.321 14.5856 169.115 14.5473C168.909 14.509 168.697 14.5183 168.496 14.5747C168.294 14.6311 168.108 14.733 167.952 14.8725C167.796 15.012 167.674 15.1854 167.595 15.3795C167.481 15.6663 167.465 15.9829 167.55 16.2796C167.636 16.5763 167.817 16.8362 168.067 17.0184C170.771 18.9047 173.89 20.1135 177.159 20.5433V27.638C177.178 47.6449 171.619 67.2609 161.107 84.2832C155.66 93.0952 148.976 101.08 141.259 107.992V89.6941C143.706 89.3856 145.978 88.2676 147.716 86.5181C149.453 84.7686 150.555 82.4882 150.846 80.0399C153.533 79.7209 156.01 78.4268 157.806 76.4031C159.602 74.3794 160.593 71.7669 160.59 69.0611C160.59 68.6979 160.446 68.3495 160.189 68.0927C159.932 67.8358 159.584 67.6916 159.221 67.6916H81.8527C81.6709 67.6886 81.4904 67.7218 81.3217 67.7893C81.1529 67.8568 80.9993 67.9572 80.8697 68.0847C80.7401 68.2121 80.6372 68.3641 80.567 68.5318C80.4968 68.6994 80.4606 68.8793 80.4607 69.0611C80.4583 71.7669 81.4491 74.3794 83.2452 76.4031C85.0413 78.4268 87.5177 79.7209 90.2046 80.0399C90.496 82.4882 91.598 84.7686 93.3353 86.5181C95.0726 88.2676 97.3452 89.3856 99.7914 89.6941V107.992C92.0765 101.078 85.3928 93.0941 79.9443 84.2832C69.4316 67.2609 63.8726 47.6449 63.8914 27.638V20.5433C68.3908 19.9343 72.5656 17.8644 75.7741 14.6518C78.9826 11.4392 81.0472 7.26184 81.6506 2.76173H91.4395C91.775 2.76871 92.1024 2.65803 92.3648 2.44888C92.6273 2.23973 92.8083 1.94532 92.8764 1.6167C92.9086 1.41975 92.8981 1.21817 92.8456 1.02564C92.7931 0.833102 92.6998 0.65411 92.572 0.500796C92.4442 0.347483 92.285 0.223434 92.1051 0.137061C91.9252 0.0506873 91.7288 0.00400861 91.5293 0.00018983H80.4831C80.1118 -0.00589103 79.7529 0.13433 79.4841 0.390573C79.2152 0.646816 79.058 0.998519 79.0462 1.36973C78.7288 5.66874 76.8759 9.7102 73.8257 12.7563C70.7755 15.8023 66.7315 17.6498 62.4321 17.9614C62.0846 17.9842 61.7589 18.1386 61.5212 18.393C61.2835 18.6474 61.1516 18.9828 61.1523 19.331V27.6829C61.1507 47.7609 66.6169 67.4602 76.9644 84.6664C87.3119 101.873 102.15 115.936 119.886 125.347C120.086 125.453 120.31 125.509 120.537 125.509C120.764 125.509 120.987 125.453 121.188 125.347C138.934 115.935 153.781 101.866 164.133 84.6513C174.485 67.4362 179.951 47.7259 179.943 27.638V19.2861C179.933 18.9457 179.796 18.6214 179.559 18.3765C179.323 18.1316 179.003 17.9836 178.664 17.9614ZM83.3569 70.4531H157.716C157.388 72.3843 156.388 74.1373 154.893 75.4026C153.397 76.6679 151.503 77.3641 149.544 77.3682H91.5293C89.5704 77.3641 87.676 76.6679 86.1806 75.4026C84.6853 74.1373 83.6851 72.3843 83.3569 70.4531ZM109.49 90.4799V115.693C107.126 114.017 104.821 112.243 102.575 110.372V89.8063H109.49V90.4799ZM119.167 90.4799V121.8C116.817 120.483 114.512 119.083 112.252 117.601V89.8063H119.167V90.4799ZM128.844 90.4799V117.601C126.599 119.098 124.294 120.498 121.929 121.8V89.8063H128.844V90.4799ZM138.52 90.4799V110.372C136.29 112.243 133.985 114.017 131.605 115.693V89.8063H138.52V90.4799ZM101.206 87.0223C99.247 87.0182 97.3526 86.3221 95.8572 85.0568C94.3619 83.7915 93.3618 82.0384 93.0335 80.1072H148.04C147.712 82.0384 146.711 83.7915 145.216 85.0568C143.721 86.3221 141.826 87.0182 139.867 87.0223H101.206Z" fill="white"/>
<path d="M80.4897 49.7302C80.4618 50.1862 80.4618 50.6436 80.4897 51.0997C80.828 53.7686 82.1268 56.223 84.1432 58.0039C86.1597 59.7848 88.7557 60.7704 91.446 60.7763H130.242C132.933 60.7704 135.529 59.7848 137.545 58.0039C139.561 56.223 140.86 53.7686 141.199 51.0997V49.7302V12.4382H159.16C159.342 12.4411 159.522 12.4079 159.691 12.3404C159.86 12.2729 160.013 12.1725 160.143 12.0451C160.272 11.9176 160.375 11.7656 160.445 11.598C160.516 11.4303 160.552 11.2504 160.552 11.0686C160.58 10.6125 160.58 10.1552 160.552 9.69908C160.218 7.01839 158.914 4.55249 156.888 2.76598C154.862 0.979468 152.252 -0.00430546 149.551 1.4165e-05H110.867C108.179 0.000283632 105.584 0.982349 103.57 2.76155C103.22 3.07001 102.89 3.39994 102.582 3.74942C100.801 5.76263 99.8186 8.35823 99.8204 11.0462V48.3382H81.8592C81.4939 48.3441 81.1456 48.4933 80.8894 48.7537C80.6332 49.0141 80.4896 49.3648 80.4897 49.7302ZM149.551 2.76155C151.511 2.76114 153.407 3.45571 154.904 4.72181C156.4 5.9879 157.399 7.74352 157.723 9.67662H141.468C141.794 7.76055 142.781 6.01926 144.257 4.75578C145.734 3.49231 147.607 2.78663 149.551 2.76155ZM102.582 11.0462C102.582 8.84895 103.455 6.74173 105.008 5.18806C106.562 3.63439 108.669 2.76155 110.867 2.76155H142.299C141.948 3.0689 141.618 3.39889 141.311 3.74942C139.849 5.4055 138.918 7.46268 138.639 9.65417C138.611 10.1103 138.611 10.5676 138.639 11.0237V49.7302C138.642 51.8102 137.862 53.8152 136.454 55.3467C135.047 56.8781 133.114 57.8241 131.042 57.9966C128.969 58.1691 126.907 57.5555 125.265 56.2778C123.624 55 122.523 53.1516 122.182 51.0997C122.182 50.8976 122.182 50.269 122.182 49.6628C122.165 49.3093 122.014 48.9755 121.76 48.7294C121.505 48.4834 121.167 48.3435 120.813 48.3382H102.851L102.582 11.0462ZM99.7082 51.0997H119.263C119.597 53.7746 120.899 56.2347 122.923 58.0148H91.4909C89.5308 58.0152 87.6341 57.3206 86.1378 56.0545C84.6415 54.7884 83.6426 53.0328 83.3185 51.0997H99.7082Z" fill="white"/>
<path d="M127.856 175.279H115.149C114.793 175.291 114.457 175.44 114.209 175.696C113.962 175.952 113.824 176.293 113.824 176.649C113.824 177.002 113.963 177.342 114.211 177.594C114.459 177.846 114.795 177.99 115.149 177.996H120.088V193.712C120.063 193.911 120.08 194.113 120.139 194.305C120.198 194.497 120.297 194.674 120.43 194.825C120.563 194.976 120.726 195.096 120.909 195.179C121.092 195.262 121.291 195.304 121.491 195.304C121.692 195.304 121.891 195.262 122.074 195.179C122.257 195.096 122.42 194.976 122.553 194.825C122.685 194.674 122.784 194.497 122.843 194.305C122.902 194.113 122.92 193.911 122.895 193.712V177.996H127.834C128.187 177.99 128.524 177.846 128.772 177.594C129.02 177.342 129.159 177.002 129.159 176.649C129.159 176.293 129.021 175.952 128.773 175.696C128.526 175.44 128.189 175.291 127.834 175.279" fill="white"/>
<path d="M107.796 175.121C107.607 175.124 107.421 175.164 107.248 175.239C107.075 175.314 106.918 175.422 106.787 175.558C106.655 175.693 106.552 175.853 106.482 176.029C106.413 176.204 106.379 176.392 106.382 176.58V183.742H96.952V176.603C96.952 176.234 96.8053 175.88 96.5443 175.619C96.2832 175.358 95.9291 175.211 95.56 175.211C95.1908 175.211 94.8367 175.358 94.5757 175.619C94.3146 175.88 94.168 176.234 94.168 176.603V193.756C94.168 194.125 94.3146 194.479 94.5757 194.74C94.8367 195.001 95.1908 195.148 95.56 195.148C95.9291 195.148 96.2832 195.001 96.5443 194.74C96.8053 194.479 96.952 194.125 96.952 193.756V186.482H106.269V193.756C106.269 194.125 106.416 194.479 106.677 194.74C106.938 195.001 107.292 195.148 107.661 195.148C108.031 195.148 108.385 195.001 108.646 194.74C108.907 194.479 109.053 194.125 109.053 193.756V176.603C109.067 176.243 108.946 175.892 108.713 175.617C108.48 175.343 108.153 175.166 107.796 175.121Z" fill="white"/>
<path d="M79.2085 174.964C77.8956 174.984 76.6 175.266 75.3973 175.792C74.1945 176.319 73.1089 177.08 72.2037 178.031C71.2986 178.982 70.5921 180.104 70.1256 181.332C69.6592 182.559 69.442 183.867 69.487 185.179C69.4263 186.488 69.6315 187.796 70.0903 189.024C70.5491 190.251 71.2519 191.373 72.1562 192.322C73.0606 193.27 74.1478 194.025 75.3521 194.542C76.5565 195.059 77.8531 195.326 79.1636 195.327C80.4764 195.307 81.7721 195.026 82.9748 194.499C84.1775 193.972 85.2632 193.211 86.1683 192.26C87.0735 191.309 87.7799 190.187 88.2464 188.96C88.7129 187.732 88.93 186.424 88.8851 185.112C88.9489 183.801 88.746 182.491 88.2886 181.261C87.8312 180.03 87.129 178.906 86.2243 177.955C85.3196 177.004 84.2313 176.247 83.0254 175.729C81.8195 175.211 80.5209 174.943 79.2085 174.941M79.2085 192.678C78.2608 192.644 77.3294 192.421 76.4688 192.023C75.6082 191.624 74.8355 191.059 74.196 190.358C73.5564 189.658 73.0627 188.838 72.7438 187.945C72.4248 187.051 72.287 186.104 72.3383 185.157C72.2776 184.222 72.4051 183.285 72.713 182.4C73.0209 181.516 73.5032 180.702 74.1311 180.007C74.7591 179.312 75.5201 178.75 76.3691 178.354C77.218 177.958 78.1377 177.737 79.0738 177.703C80.0195 177.74 80.9484 177.965 81.8065 178.365C82.6645 178.764 83.4345 179.331 84.0717 180.03C84.7089 180.73 85.2006 181.55 85.5182 182.442C85.8357 183.333 85.9728 184.279 85.9215 185.224C85.9821 186.159 85.8547 187.096 85.5468 187.981C85.2388 188.865 84.7566 189.679 84.1286 190.374C83.5007 191.069 82.7397 191.631 81.8907 192.027C81.0418 192.423 80.1221 192.644 79.186 192.678" fill="white"/>
<path d="M141.337 174.964C140.025 174.984 138.729 175.266 137.526 175.792C136.323 176.319 135.238 177.08 134.333 178.031C133.427 178.982 132.721 180.104 132.255 181.332C131.788 182.559 131.571 183.867 131.616 185.179C131.555 186.488 131.76 187.796 132.219 189.024C132.678 190.251 133.381 191.373 134.285 192.322C135.189 193.27 136.277 194.025 137.481 194.542C138.685 195.059 139.982 195.326 141.292 195.327C142.605 195.307 143.901 195.026 145.104 194.499C146.306 193.972 147.392 193.211 148.297 192.26C149.202 191.309 149.909 190.187 150.375 188.96C150.842 187.732 151.059 186.424 151.014 185.112C151.078 183.801 150.875 182.491 150.418 181.261C149.96 180.03 149.258 178.906 148.353 177.955C147.448 177.004 146.36 176.247 145.154 175.729C143.948 175.211 142.65 174.943 141.337 174.941M141.337 192.678C140.39 192.644 139.458 192.421 138.598 192.023C137.737 191.624 136.964 191.059 136.325 190.358C135.685 189.658 135.192 188.838 134.873 187.945C134.554 187.051 134.416 186.104 134.467 185.157C134.407 184.222 134.534 183.285 134.842 182.4C135.15 181.516 135.632 180.702 136.26 180.007C136.888 179.312 137.649 178.75 138.498 178.354C139.347 177.958 140.267 177.737 141.203 177.703C142.159 177.717 143.102 177.923 143.977 178.31C144.852 178.696 145.639 179.255 146.293 179.953C146.947 180.651 147.454 181.473 147.782 182.371C148.111 183.269 148.256 184.224 148.208 185.179C148.268 186.114 148.141 187.051 147.833 187.936C147.525 188.821 147.043 189.634 146.415 190.329C145.787 191.024 145.026 191.586 144.177 191.982C143.328 192.378 142.408 192.599 141.472 192.633" fill="white"/>
<path d="M162.949 175.279H157.651C157.282 175.297 156.933 175.456 156.678 175.723C156.423 175.991 156.281 176.346 156.281 176.716V193.757C156.281 194.126 156.428 194.48 156.689 194.741C156.95 195.002 157.304 195.149 157.673 195.149C158.042 195.149 158.396 195.002 158.658 194.741C158.919 194.48 159.065 194.126 159.065 193.757V188.346H162.635C166.384 188.346 170.179 186.303 170.179 181.745C170.179 177.861 167.35 175.347 162.972 175.347M162.702 185.719H159.043V177.996H162.792C165.688 177.996 167.283 179.365 167.283 181.79C167.283 184.035 165.419 185.629 162.613 185.629" fill="white"/>
<path d="M182.418 176.245C182.315 175.897 182.102 175.593 181.81 175.378C181.518 175.163 181.164 175.05 180.802 175.055C180.44 175.051 180.086 175.161 179.792 175.371C179.497 175.581 179.277 175.879 179.163 176.222L172.158 193.083C172.051 193.308 171.997 193.553 172.001 193.802C171.995 193.977 172.024 194.151 172.087 194.314C172.149 194.477 172.244 194.626 172.366 194.752C172.487 194.878 172.633 194.977 172.794 195.046C172.955 195.114 173.128 195.149 173.303 195.149C173.595 195.15 173.88 195.06 174.117 194.891C174.355 194.722 174.533 194.482 174.628 194.206L176.446 189.985H184.978L186.796 194.161C186.892 194.446 187.072 194.696 187.312 194.876C187.553 195.057 187.843 195.16 188.143 195.171C188.323 195.168 188.501 195.13 188.666 195.059C188.831 194.987 188.98 194.884 189.105 194.754C189.23 194.625 189.329 194.473 189.395 194.305C189.461 194.138 189.493 193.959 189.491 193.779C189.482 193.547 189.429 193.318 189.333 193.106L182.418 176.245ZM183.878 187.336H177.524L180.69 178.961L183.878 187.336Z" fill="white"/>
<path d="M59.6758 184.102L65.6928 177.659C65.9643 177.383 66.1174 177.013 66.1194 176.626C66.1257 176.258 65.9885 175.903 65.737 175.635C65.4856 175.366 65.1396 175.207 64.7723 175.189C64.5669 175.197 64.3653 175.247 64.18 175.336C63.9946 175.425 63.8295 175.55 63.6946 175.706L54.3548 186.011V176.626C54.3799 176.43 54.3629 176.231 54.3049 176.042C54.247 175.853 54.1495 175.678 54.0188 175.53C53.8882 175.381 53.7275 175.263 53.5473 175.181C53.3672 175.1 53.1717 175.058 52.974 175.058C52.7763 175.058 52.5809 175.1 52.4008 175.181C52.2206 175.263 52.0599 175.381 51.9292 175.53C51.7986 175.678 51.7011 175.853 51.6431 176.042C51.5852 176.231 51.5682 176.43 51.5933 176.626V193.712C51.5682 193.908 51.5852 194.107 51.6431 194.296C51.7011 194.485 51.7986 194.659 51.9292 194.808C52.0599 194.956 52.2206 195.075 52.4008 195.157C52.5809 195.238 52.7763 195.28 52.974 195.28C53.1717 195.28 53.3672 195.238 53.5473 195.157C53.7275 195.075 53.8882 194.956 54.0188 194.808C54.1495 194.659 54.247 194.485 54.3049 194.296C54.3629 194.107 54.3799 193.908 54.3548 193.712V189.738L57.7225 186.101L63.9865 194.52C64.0975 194.721 64.2598 194.89 64.457 195.008C64.6542 195.126 64.8792 195.19 65.1091 195.193C65.4882 195.176 65.8457 195.011 66.1056 194.735C66.3654 194.458 66.5073 194.091 66.5011 193.712C66.498 193.344 66.3715 192.988 66.1419 192.701L59.6758 184.102Z" fill="white"/>
<path d="M56.1523 142.726H43.4223C43.0669 142.737 42.73 142.887 42.4828 143.142C42.2356 143.398 42.0975 143.74 42.0977 144.095C42.0976 144.449 42.2364 144.788 42.4842 145.04C42.732 145.292 43.0689 145.436 43.4223 145.442H48.3616V161.158C48.3364 161.357 48.3538 161.56 48.4128 161.752C48.4718 161.944 48.5709 162.121 48.7037 162.271C48.8364 162.422 48.9997 162.543 49.1827 162.625C49.3656 162.708 49.5641 162.751 49.7649 162.751C49.9656 162.751 50.1641 162.708 50.3471 162.625C50.53 162.543 50.6933 162.422 50.826 162.271C50.9588 162.121 51.0579 161.944 51.1169 161.752C51.1759 161.56 51.1933 161.357 51.1681 161.158V145.442H56.1523C56.5057 145.436 56.8426 145.292 57.0904 145.04C57.3382 144.788 57.477 144.449 57.477 144.095C57.4771 143.74 57.339 143.398 57.0918 143.142C56.8446 142.887 56.5077 142.737 56.1523 142.726Z" fill="white"/>
<path d="M197.057 142.589C196.868 142.592 196.682 142.632 196.509 142.707C196.335 142.782 196.179 142.89 196.047 143.026C195.916 143.161 195.813 143.321 195.743 143.497C195.674 143.672 195.639 143.86 195.642 144.048V151.21H186.37V144.026C186.37 143.843 186.334 143.662 186.264 143.493C186.194 143.324 186.091 143.171 185.962 143.041C185.833 142.912 185.68 142.81 185.511 142.74C185.342 142.67 185.161 142.634 184.978 142.634C184.795 142.634 184.614 142.67 184.445 142.74C184.276 142.81 184.123 142.912 183.994 143.041C183.864 143.171 183.762 143.324 183.692 143.493C183.622 143.662 183.586 143.843 183.586 144.026V161.179C183.586 161.362 183.622 161.543 183.692 161.711C183.762 161.88 183.864 162.034 183.994 162.163C184.123 162.292 184.276 162.395 184.445 162.465C184.614 162.535 184.795 162.571 184.978 162.571C185.161 162.571 185.342 162.535 185.511 162.465C185.68 162.395 185.833 162.292 185.962 162.163C186.091 162.034 186.194 161.88 186.264 161.711C186.334 161.543 186.37 161.362 186.37 161.179V153.927H195.687V161.201C195.687 161.384 195.723 161.565 195.793 161.734C195.863 161.903 195.966 162.056 196.095 162.185C196.224 162.315 196.378 162.417 196.547 162.487C196.715 162.557 196.896 162.593 197.079 162.593C197.262 162.593 197.443 162.557 197.612 162.487C197.781 162.417 197.934 162.315 198.064 162.185C198.193 162.056 198.295 161.903 198.365 161.734C198.435 161.565 198.471 161.384 198.471 161.201V144.026C198.478 143.652 198.338 143.291 198.082 143.018C197.827 142.746 197.475 142.584 197.102 142.566" fill="white"/>
<path d="M29.9478 142.388C28.6291 142.408 27.3277 142.691 26.1204 143.222C24.9131 143.753 23.8243 144.52 22.9182 145.479C22.0122 146.437 21.3072 147.567 20.8449 148.802C20.3825 150.037 20.1722 151.353 20.2263 152.671C20.1626 153.98 20.3648 155.288 20.8208 156.517C21.2768 157.745 21.9771 158.869 22.8794 159.819C23.7817 160.77 24.8672 161.528 26.0705 162.047C27.2738 162.566 28.5699 162.837 29.8805 162.841C31.1913 162.824 32.4856 162.546 33.6879 162.023C34.8902 161.501 35.9765 160.744 36.8834 159.797C37.7903 158.851 38.4997 157.733 38.9703 156.509C39.4409 155.286 39.6633 153.981 39.6244 152.671C39.6882 151.36 39.4853 150.049 39.028 148.819C38.5706 147.589 37.8683 146.464 36.9636 145.513C36.0589 144.563 34.9707 143.805 33.7647 143.287C32.5588 142.769 31.2603 142.501 29.9478 142.5M29.9478 160.237C28.9961 160.202 28.0609 159.978 27.1972 159.577C26.3334 159.176 25.5587 158.606 24.9185 157.901C24.2783 157.196 23.7857 156.37 23.4695 155.472C23.1534 154.574 23.0201 153.621 23.0777 152.671C23.017 151.736 23.1444 150.798 23.4524 149.914C23.7603 149.029 24.2425 148.215 24.8705 147.52C25.4985 146.825 26.2595 146.264 27.1084 145.868C27.9574 145.472 28.8771 145.251 29.8131 145.217C30.7616 145.239 31.6959 145.452 32.5611 145.841C33.4263 146.23 34.205 146.788 34.8514 147.483C35.4977 148.177 35.9987 148.994 36.3249 149.885C36.6511 150.776 36.7958 151.723 36.7506 152.671C36.8145 153.606 36.6892 154.545 36.3825 155.43C36.0757 156.316 35.5937 157.132 34.9651 157.827C34.3365 158.523 33.5743 159.085 32.7239 159.479C31.8734 159.874 30.9522 160.093 30.0152 160.124" fill="white"/>
<path d="M115.022 142.635H114.73C114.458 142.641 114.191 142.717 113.956 142.854C113.72 142.992 113.523 143.187 113.383 143.421L103.437 157.475V144.004C103.44 143.821 103.407 143.64 103.34 143.47C103.273 143.3 103.173 143.145 103.045 143.013C102.918 142.882 102.766 142.777 102.599 142.704C102.431 142.632 102.25 142.593 102.068 142.59C101.702 142.602 101.356 142.756 101.104 143.021C100.852 143.286 100.714 143.639 100.72 144.004V161.225C100.711 161.401 100.738 161.578 100.8 161.744C100.861 161.91 100.955 162.061 101.077 162.189C101.199 162.317 101.346 162.419 101.508 162.489C101.671 162.559 101.846 162.594 102.023 162.594C102.299 162.577 102.566 162.495 102.804 162.354C103.043 162.214 103.244 162.019 103.392 161.786L113.563 147.372V161.225C113.563 161.592 113.705 161.945 113.961 162.209C114.217 162.473 114.565 162.627 114.932 162.639C115.298 162.627 115.644 162.472 115.896 162.208C116.148 161.943 116.285 161.59 116.279 161.225V144.049C116.28 143.682 116.137 143.329 115.881 143.065C115.626 142.801 115.277 142.646 114.91 142.635" fill="white"/>
<path d="M88.4542 142.726H83.0883C82.719 142.743 82.3706 142.902 82.1155 143.17C81.8605 143.437 81.7183 143.793 81.7188 144.162V161.181C81.7188 161.55 81.8654 161.904 82.1265 162.165C82.3875 162.426 82.7416 162.573 83.1107 162.573C83.4799 162.573 83.834 162.426 84.095 162.165C84.3561 161.904 84.5027 161.55 84.5027 161.181V155.77H88.0725C91.8219 155.77 95.6163 153.727 95.6163 149.169C95.6163 145.285 92.7874 142.77 88.4093 142.77M88.1399 153.143H84.5476V145.42H88.2971C91.1933 145.42 92.7874 146.789 92.7874 149.192C92.7874 151.437 90.9239 153.031 88.1174 153.031" fill="white"/>
<path d="M69.3724 143.691C69.2696 143.344 69.056 143.039 68.7642 142.824C68.4723 142.61 68.1183 142.496 67.7559 142.501C67.3943 142.497 67.0406 142.608 66.746 142.818C66.4514 143.027 66.2312 143.325 66.117 143.669L59.2243 160.552C59.1182 160.777 59.0645 161.022 59.0672 161.271C59.0612 161.445 59.0904 161.62 59.1531 161.783C59.2158 161.946 59.3108 162.095 59.4323 162.221C59.5539 162.346 59.6995 162.446 59.8604 162.514C60.0214 162.583 60.1945 162.618 60.3694 162.618C60.6611 162.619 60.946 162.529 61.1837 162.36C61.4214 162.191 61.5999 161.951 61.694 161.675L63.5126 157.454H71.8646L73.728 161.652C73.8235 161.938 74.0035 162.187 74.2441 162.367C74.4847 162.548 74.7746 162.651 75.0751 162.663C75.255 162.66 75.4325 162.621 75.5975 162.55C75.7626 162.478 75.9119 162.375 76.037 162.246C76.1621 162.116 76.2605 161.964 76.3266 161.796C76.3927 161.629 76.4252 161.45 76.4222 161.271C76.4118 161.038 76.3585 160.81 76.2651 160.597L69.3724 143.691ZM70.8318 154.782H64.478L67.6437 146.408L70.8318 154.782Z" fill="white"/>
<path d="M132.306 143.691C132.203 143.344 131.99 143.039 131.698 142.824C131.406 142.61 131.052 142.496 130.69 142.501C130.328 142.497 129.974 142.608 129.68 142.818C129.385 143.027 129.165 143.325 129.051 143.669L122.158 160.552C122.051 160.776 121.997 161.022 122.001 161.271C121.995 161.445 122.024 161.62 122.087 161.783C122.149 161.946 122.244 162.095 122.366 162.221C122.487 162.346 122.633 162.446 122.794 162.514C122.955 162.583 123.128 162.618 123.303 162.618C123.595 162.619 123.88 162.529 124.117 162.36C124.355 162.191 124.533 161.951 124.628 161.675L126.446 157.454H134.978L136.684 161.652C136.78 161.938 136.96 162.187 137.2 162.367C137.441 162.548 137.731 162.651 138.031 162.663C138.211 162.66 138.389 162.621 138.554 162.55C138.719 162.478 138.868 162.375 138.993 162.246C139.118 162.116 139.217 161.964 139.283 161.796C139.349 161.629 139.381 161.45 139.378 161.271C139.369 161.038 139.316 160.81 139.221 160.597L132.306 143.691ZM133.765 154.782H127.412L130.577 146.408L133.765 154.782Z" fill="white"/>
<path d="M214.224 143.691C214.121 143.344 213.908 143.039 213.616 142.824C213.324 142.61 212.97 142.496 212.607 142.501C212.247 142.5 211.895 142.612 211.601 142.822C211.307 143.031 211.086 143.327 210.969 143.669L204.076 160.552C203.97 160.777 203.916 161.022 203.919 161.271C203.913 161.445 203.942 161.62 204.005 161.783C204.067 161.946 204.162 162.095 204.284 162.221C204.405 162.346 204.551 162.446 204.712 162.514C204.873 162.583 205.046 162.618 205.221 162.618C205.513 162.619 205.798 162.529 206.035 162.36C206.273 162.191 206.451 161.951 206.546 161.675L208.364 157.454H216.896L218.58 161.652C218.675 161.938 218.855 162.187 219.096 162.367C219.336 162.548 219.626 162.651 219.927 162.663C220.107 162.66 220.284 162.621 220.449 162.55C220.614 162.478 220.763 162.375 220.889 162.246C221.014 162.116 221.112 161.964 221.178 161.796C221.244 161.629 221.277 161.45 221.274 161.271C221.264 161.038 221.211 160.81 221.117 160.597L214.224 143.691ZM215.683 154.782H209.33L212.495 146.408L215.683 154.782Z" fill="white"/>
<path d="M230.801 154.557L226.76 160.17C226.509 160.448 226.366 160.806 226.355 161.18C226.361 161.552 226.508 161.908 226.767 162.175C227.025 162.442 227.376 162.6 227.747 162.617C228.003 162.61 228.252 162.539 228.472 162.409C228.692 162.28 228.875 162.096 229.005 161.876L233.832 155.141H238.322V161.18C238.297 161.376 238.314 161.575 238.372 161.764C238.43 161.953 238.527 162.128 238.658 162.276C238.789 162.425 238.949 162.544 239.13 162.625C239.31 162.706 239.505 162.749 239.703 162.749C239.901 162.749 240.096 162.706 240.276 162.625C240.456 162.544 240.617 162.425 240.748 162.276C240.878 162.128 240.976 161.953 241.034 161.764C241.092 161.575 241.109 161.376 241.084 161.18V144.207C241.096 143.829 240.959 143.462 240.703 143.185C240.446 142.908 240.091 142.743 239.714 142.725H233.136C232.161 142.678 231.187 142.833 230.275 143.181C229.363 143.529 228.533 144.061 227.837 144.746C226.86 145.852 226.339 147.289 226.378 148.764C226.317 150.106 226.736 151.425 227.558 152.486C228.381 153.547 229.554 154.281 230.868 154.557M233.338 145.576H238.367V152.491H233.36C230.846 152.491 229.229 151.122 229.229 148.967C229.229 146.811 230.734 145.554 233.338 145.554" fill="white"/>
<path d="M178.52 156.219C178.523 155.285 178.332 154.361 177.959 153.505C177.586 152.649 177.039 151.879 176.353 151.246C175.667 150.613 174.857 150.129 173.974 149.825C173.09 149.522 172.154 149.405 171.223 149.483H167.339V144.207C167.364 144.011 167.347 143.812 167.289 143.623C167.231 143.434 167.134 143.259 167.003 143.111C166.873 142.962 166.712 142.844 166.532 142.762C166.352 142.681 166.156 142.639 165.958 142.639C165.761 142.639 165.565 142.681 165.385 142.762C165.205 142.844 165.044 142.962 164.914 143.111C164.783 143.259 164.685 143.434 164.628 143.623C164.57 143.812 164.553 144.011 164.578 144.207V161.158C164.565 161.535 164.702 161.902 164.959 162.18C165.215 162.457 165.57 162.622 165.947 162.64H171.56C172.452 162.739 173.354 162.647 174.207 162.369C175.06 162.091 175.844 161.633 176.505 161.027C177.167 160.421 177.691 159.68 178.042 158.855C178.393 158.029 178.564 157.138 178.542 156.241M175.758 156.106C175.758 158.531 174.187 159.901 171.425 159.901H167.339V152.29H171.291C173.985 152.29 175.781 153.771 175.781 156.084" fill="white"/>
<path d="M158.484 144.162C158.485 143.965 158.445 143.769 158.367 143.588C158.29 143.406 158.176 143.242 158.033 143.106C157.891 142.969 157.722 142.863 157.537 142.794C157.352 142.725 157.155 142.694 156.958 142.703H148.202C148.018 142.694 147.834 142.722 147.662 142.785C147.489 142.848 147.331 142.946 147.197 143.072C147.063 143.197 146.956 143.349 146.882 143.517C146.807 143.685 146.767 143.866 146.765 144.05C146.765 152.043 146.271 156.174 145.103 158.486C144.587 159.474 144.138 159.676 143.621 159.676H143.487C142.97 159.676 141.893 159.676 141.713 160.911C141.676 161.111 141.687 161.318 141.745 161.513C141.804 161.708 141.908 161.887 142.05 162.034C142.281 162.246 142.554 162.408 142.852 162.509C143.15 162.61 143.466 162.646 143.779 162.617C144.663 162.572 145.514 162.267 146.225 161.74C146.936 161.212 147.475 160.487 147.775 159.654C149.391 156.174 149.661 150.673 149.751 145.397H155.678V161.113C155.653 161.312 155.67 161.515 155.729 161.706C155.788 161.898 155.887 162.075 156.02 162.226C156.153 162.377 156.316 162.497 156.499 162.58C156.682 162.663 156.88 162.705 157.081 162.705C157.282 162.705 157.48 162.663 157.663 162.58C157.846 162.497 158.01 162.377 158.142 162.226C158.275 162.075 158.374 161.898 158.433 161.706C158.492 161.515 158.51 161.312 158.484 161.113V144.162Z" fill="white"/>
<path d="M13.4936 142.589C13.3049 142.592 13.1186 142.632 12.9454 142.707C12.7721 142.782 12.6154 142.89 12.484 143.026C12.3527 143.161 12.2493 143.321 12.1798 143.497C12.1104 143.672 12.0761 143.86 12.0791 144.048V151.21H2.80663V144.026C2.8096 143.837 2.77537 143.65 2.70589 143.474C2.63641 143.299 2.53305 143.139 2.4017 143.003C2.27035 142.868 2.11359 142.759 1.94038 142.684C1.76716 142.609 1.58088 142.569 1.39218 142.566C1.01501 142.578 0.6576 142.738 0.397147 143.011C0.136694 143.284 -0.00589221 143.648 0.000186688 144.026V161.179C-0.00589221 161.556 0.136694 161.921 0.397147 162.194C0.6576 162.467 1.01501 162.626 1.39218 162.638C1.58088 162.635 1.76716 162.595 1.94038 162.52C2.11359 162.445 2.27035 162.337 2.4017 162.201C2.53305 162.066 2.63641 161.906 2.70589 161.73C2.77537 161.555 2.8096 161.367 2.80663 161.179V153.927H12.1465V161.201C12.1465 161.57 12.2931 161.924 12.5542 162.185C12.8152 162.447 13.1693 162.593 13.5385 162.593C13.9076 162.593 14.2617 162.447 14.5227 162.185C14.7838 161.924 14.9305 161.57 14.9305 161.201V144.026C14.9305 143.837 14.8933 143.65 14.8211 143.476C14.7489 143.302 14.643 143.143 14.5096 143.01C14.3762 142.876 14.2178 142.77 14.0434 142.698C13.8691 142.626 13.6823 142.589 13.4936 142.589Z" fill="white"/>
</svg>
