<svg width="258" height="19" viewBox="0 0 258 19" fill="none" xmlns="http://www.w3.org/2000/svg"><path d="M17.536 1.2h8.736L26.248 18h-4.776V3.912L16.504 18H9.76L4.792 3.912V18H.016V1.2h8.736l4.44 13.872L17.536 1.2ZM45.873 18l-1.368-3.24H34.81L33.441 18h-4.92L35.89 1.2h7.68L50.961 18h-5.088Zm-9.456-6.984h6.504l-3.264-7.68-3.24 7.68ZM66.827 18l-5.496-5.952h-3.12V18H53.22V1.2h11.952c2.016 0 3.68.464 4.992 1.392 1.328.928 1.992 2.328 1.992 4.2 0 2.992-1.72 4.712-5.16 5.16L73.14 18h-6.312ZM58.211 5.184v3.12h6.72c.688 0 1.232-.128 1.632-.384.4-.256.6-.632.6-1.128 0-.496-.208-.888-.624-1.176-.4-.288-.936-.432-1.608-.432h-6.72ZM95.691 18H89.38l-6.384-6.504h-2.472V18h-4.992V1.2h4.992v6.48H82.9l6.072-6.48h5.976L86.86 9.264 95.692 18Zm2.294 0V1.2h17.112v3.888h-12.12v2.544h9.456v3.648h-9.456v2.832h12.576V18H97.985ZM117.24 5.28V1.2h19.152v4.08h-7.08V18h-4.992V5.28h-7.08Zm37.999 3.384h10.224v7.92c-3.104 1.136-6.264 1.704-9.48 1.704-3.648 0-6.488-.76-8.52-2.28-2.016-1.536-3.024-3.672-3.024-6.408s.936-4.864 2.808-6.384c1.872-1.536 4.488-2.304 7.848-2.304 2.656 0 4.84.496 6.552 1.488 1.712.992 2.8 2.344 3.264 4.056l-4.872.312c-.368-.544-.992-.976-1.872-1.296-.88-.336-1.904-.504-3.072-.504-1.824 0-3.224.424-4.2 1.272-.976.832-1.464 1.952-1.464 3.36 0 1.44.552 2.576 1.656 3.408 1.12.816 2.792 1.224 5.016 1.224 1.584 0 3.192-.16 4.824-.48v-1.8h-5.688V8.664ZM182.374 18l-5.496-5.952h-3.12V18h-4.992V1.2h11.952c2.016 0 3.68.464 4.992 1.392 1.328.928 1.992 2.328 1.992 4.2 0 2.992-1.72 4.712-5.16 5.16L188.686 18h-6.312Zm-8.616-12.816v3.12h6.72c.688 0 1.232-.128 1.632-.384.4-.256.6-.632.6-1.128 0-.496-.208-.888-.624-1.176-.4-.288-.936-.432-1.608-.432h-6.72Zm19.172 10.8c-1.968-1.536-2.952-3.664-2.952-6.384s.984-4.848 2.952-6.384c1.968-1.536 4.704-2.304 8.208-2.304 3.504 0 6.24.768 8.208 2.304 1.968 1.536 2.952 3.664 2.952 6.384s-.984 4.848-2.952 6.384c-1.968 1.536-4.704 2.304-8.208 2.304-3.504 0-6.24-.768-8.208-2.304Zm3.648-9.744c-1.072.832-1.608 1.952-1.608 3.36s.536 2.536 1.608 3.384c1.088.832 2.608 1.248 4.56 1.248 1.952 0 3.464-.416 4.536-1.248 1.088-.848 1.632-1.976 1.632-3.384s-.544-2.528-1.632-3.36c-1.072-.848-2.584-1.272-4.536-1.272-1.952 0-3.472.424-4.56 1.272ZM230.12 1.2h4.992v9.624c0 2.352-.84 4.184-2.52 5.496-1.68 1.312-4.128 1.968-7.344 1.968-3.232 0-5.688-.656-7.368-1.968-1.68-1.312-2.52-3.144-2.52-5.496V1.2h4.992v9.12c0 1.216.392 2.168 1.176 2.856.8.688 2.04 1.032 3.72 1.032 3.248 0 4.872-1.296 4.872-3.888V1.2Zm20.669 0c2.016 0 3.68.472 4.992 1.416 1.328.928 1.992 2.344 1.992 4.248 0 1.904-.632 3.288-1.896 4.152-1.264.848-2.96 1.272-5.088 1.272h-6.648V18h-4.992V1.2h11.64Zm-.24 7.248c1.488 0 2.232-.528 2.232-1.584s-.744-1.584-2.232-1.584h-6.408v3.168h6.408Z" fill="#fff"/></svg>