<svg width="315" height="88" viewBox="0 0 315 88" fill="none" xmlns="http://www.w3.org/2000/svg">
<path d="M182.817 34.317V53.6726L165.742 63.3608L148.657 53.6726V34.317L165.742 24.6392L182.817 34.317Z" fill="#314084"/>
<path d="M192.128 58.9562L204.558 65.9974L165.742 88L126.927 65.9974V22.0026L165.742 0L204.558 22.0026L192.128 29.0438L165.742 14.0825L139.346 29.0438V58.9562L165.742 73.9175L192.128 58.9562Z" fill="#314084"/>
<path d="M165.742 44.0051L148.657 53.6725V34.3169L165.742 44.0051Z" fill="#141E4B"/>
<path d="M182.817 34.3169V53.6829L165.742 44.0051L182.817 34.3169Z" fill="#314084"/>
<path d="M182.817 34.317L165.742 44.0052V24.6392L182.817 34.317Z" fill="#141E4B"/>
<path d="M182.817 53.683L165.742 63.3608V44.0051L182.817 53.683Z" fill="#141E4B"/>
<path d="M165.742 44.0051V63.3608L148.657 53.683V53.6726L165.742 44.0051Z" fill="#314084"/>
<path d="M165.742 24.6392V44.0052L148.657 34.317L165.742 24.6392Z" fill="#314084"/>
<path opacity="0.3" d="M192.128 58.9562L204.558 65.9974L165.742 88L126.927 65.9974V22.0026L165.742 0L204.558 22.0026L192.128 29.0438L165.742 14.0825L139.346 29.0438V58.9562L165.742 73.9175L192.128 58.9562Z" fill="#3A4DA8"/>
<path opacity="0.3" d="M182.817 34.3169V53.6829L165.742 44.0051L182.817 34.3169Z" fill="#3A4DA8"/>
<path opacity="0.3" d="M165.742 44.0051V63.3608L148.657 53.683V53.6726L165.742 44.0051Z" fill="#3A4DA8"/>
<path opacity="0.3" d="M165.742 24.6392V44.0052L148.657 34.317L165.742 24.6392Z" fill="#3A4DA8"/>
<path d="M10.8704 34.4307C13.8198 34.4307 16.3478 34.6478 18.4544 35.0924L18.0542 37.9565C15.8211 37.8117 13.43 37.7497 10.8704 37.7497C8.28975 37.7497 6.52015 38.2873 5.55108 39.3523C4.59254 40.4173 4.10801 42.3714 4.10801 45.2045C4.10801 48.0375 4.59254 49.9917 5.55108 51.0567C6.50961 52.1216 8.28975 52.6593 10.8704 52.6593C14.1884 52.6593 16.7796 52.5559 18.644 52.3595L19.0443 55.1925C16.8955 55.7198 14.1674 55.9783 10.8704 55.9783C6.85721 55.9783 4.04481 55.1718 2.42267 53.5692C0.811068 51.9459 0 49.1542 0 45.1941C0 41.2341 0.811068 38.4528 2.42267 36.8398C4.04481 35.2371 6.85721 34.4307 10.8704 34.4307Z" fill="white"/>
<path d="M42.8076 38.0184H34.0859V55.5957H30.1254V38.0184H21.467V34.7925H42.8181V38.0184H42.8076Z" fill="white"/>
<path d="M56.0164 34.5237C59.4187 34.5237 61.7571 34.989 63.0527 35.9299C64.3378 36.8604 64.9909 38.6285 64.9909 41.2237C64.9909 43.8189 64.3694 45.5767 63.1159 46.5176C61.8625 47.4481 59.6399 47.9238 56.4483 47.9238C54.4786 47.9238 52.4456 47.81 50.339 47.5929V55.6164H46.3784V34.7925C48.6536 34.6167 51.8663 34.5237 56.0164 34.5237ZM50.339 44.8322H55.9006C57.8492 44.8322 59.187 44.5841 59.9138 44.0774C60.6406 43.5708 61.0093 42.6196 61.0093 41.2134C61.0093 39.8072 60.6406 38.856 59.9138 38.3597C59.187 37.8634 57.8492 37.6255 55.9006 37.6255C53.1935 37.6255 51.3396 37.6359 50.339 37.6566V44.8322Z" fill="white"/>
<path d="M79.1582 34.3997C83.2556 34.3997 86.1102 35.1751 87.7112 36.7261C89.3228 38.277 90.1234 41.0997 90.1234 45.2045C90.1234 49.3093 89.3228 52.132 87.7112 53.6829C86.0996 55.2339 83.2556 56.0093 79.1582 56.0093C75.0817 56.0093 72.2377 55.2339 70.6156 53.6726C68.9935 52.1113 68.1929 49.299 68.1929 45.2148C68.1929 41.1307 69.004 38.3184 70.6156 36.7571C72.2377 35.1855 75.0817 34.3997 79.1582 34.3997ZM84.5407 39.2386C83.5611 38.1633 81.7704 37.6256 79.1687 37.6256C76.5669 37.6256 74.7763 38.1736 73.7967 39.2489C72.8171 40.3346 72.322 42.3198 72.322 45.1942C72.322 48.0686 72.8171 50.0538 73.7967 51.1394C74.7763 52.2251 76.5669 52.7627 79.1687 52.7627C81.7704 52.7627 83.5611 52.2251 84.5407 51.1497C85.5203 50.0744 86.0154 48.0892 86.0154 45.1942C86.0154 42.2991 85.5203 40.3139 84.5407 39.2386Z" fill="white"/>
<path d="M114.887 55.6061H111.074V41.9682C111.074 41.0273 111.148 40.1278 111.285 39.28H111.095C110.6 40.3036 110.095 41.1721 109.557 41.8752L98.0234 55.6061H93.9997V34.7926H97.7812V48.2444C97.7812 49.2266 97.7074 50.1468 97.5705 50.9843H97.7812C98.0656 50.3433 98.5922 49.4954 99.3506 48.4511L110.843 34.7926H114.898V55.6061H114.887ZM107.788 28.8267H110.579C110.706 30.0777 110.2 31.122 109.094 31.9802C107.977 32.8384 106.471 33.2623 104.565 33.2623C102.637 33.2623 101.11 32.8281 99.9826 31.9699C98.8556 31.1014 98.3605 30.0571 98.508 28.837H101.268C101.247 29.6642 101.521 30.2845 102.1 30.7188C102.669 31.1531 103.49 31.3702 104.554 31.3702C105.597 31.3702 106.397 31.1531 106.966 30.7188C107.546 30.2742 107.809 29.6435 107.788 28.8267Z" fill="white"/>
<path d="M219.041 38.0184H210.32V55.5957H206.348V38.0184H197.69V34.7925H219.041V38.0184Z" fill="white"/>
<path d="M239.613 52.556L239.792 55.42C237.338 55.5854 233.356 55.6578 227.868 55.6578C226.225 55.6578 224.919 55.3063 223.95 54.6032C222.981 53.9001 222.486 52.9385 222.486 51.7081V38.6803C222.486 37.4705 222.97 36.5193 223.95 35.7955C224.919 35.0821 226.225 34.7202 227.868 34.7202C233.356 34.7202 237.327 34.8029 239.792 34.958L239.613 37.8531H228.742C227.921 37.8531 227.331 37.9875 226.973 38.246C226.615 38.5045 226.436 38.9594 226.436 39.6005V43.2504H238.106V46.1454H226.436V50.7879C226.436 51.4289 226.615 51.8839 226.973 52.1424C227.331 52.4009 227.921 52.5353 228.742 52.5353H239.613V52.556Z" fill="white"/>
<path d="M254.928 46.1972H253.664L247.186 55.6062H242.973L250.589 44.9047L243.489 34.803H247.671L253.601 43.4882H254.981L260.911 34.803H265.125L258.025 44.9047L265.641 55.6062H261.406L254.928 46.1972Z" fill="white"/>
<path d="M289.404 34.7925V55.5957H285.443V46.0626H273.341V55.5957H269.412V34.7925H273.341V42.9607H285.443V34.7925H289.404Z" fill="white"/>
<path d="M304.035 34.3997C308.132 34.3997 310.987 35.1751 312.588 36.7261C314.2 38.277 315 41.0997 315 45.2045C315 49.3093 314.2 52.132 312.588 53.6829C310.976 55.2339 308.132 56.0093 304.035 56.0093C299.958 56.0093 297.114 55.2339 295.492 53.6726C293.87 52.1113 293.07 49.299 293.07 45.2148C293.07 41.1307 293.881 38.3184 295.492 36.7571C297.114 35.1855 299.958 34.3997 304.035 34.3997ZM309.407 39.2386C308.427 38.1633 306.637 37.6256 304.035 37.6256C301.433 37.6256 299.642 38.1736 298.663 39.2489C297.683 40.3346 297.188 42.3198 297.188 45.1942C297.188 48.0686 297.683 50.0538 298.663 51.1394C299.642 52.2251 301.433 52.7627 304.035 52.7627C306.637 52.7627 308.427 52.2251 309.407 51.1497C310.386 50.0744 310.881 48.0892 310.881 45.1942C310.881 42.2991 310.397 40.3139 309.407 39.2386Z" fill="white"/>
</svg>
