<svg width="200" height="34" viewBox="0 0 200 34" fill="none" xmlns="http://www.w3.org/2000/svg">
<g clip-path="url(#clip0_1_150)">
<path d="M103.456 1.07461H109.452V14.6643H111.824V1.07461H117.875V0.335938H103.487L103.456 1.07461Z" fill="white"/>
<path d="M111.982 14.8157H109.297V1.22597H103.295L103.338 0.18457H118.031V1.22597H111.982V14.8157ZM109.607 14.5129H111.671V0.92324H117.72V0.487304H103.637L103.618 0.92324H109.607V14.5129Z" fill="white"/>
<path d="M181.742 10.75L173.702 0.335938H171.318V14.3131H172.057V1.97978L182.035 14.6643H182.625V0.335938H181.742V10.75Z" fill="white"/>
<path d="M182.781 14.8157H181.957L181.91 14.7551L172.213 2.42177V14.4645H171.162V0.18457H173.779L173.826 0.245117L181.596 10.2959V0.18457H182.79L182.781 14.8157ZM182.112 14.5129H182.47V0.487304H181.898V11.201L173.624 0.487304H171.473V14.1618H171.902V1.53476L182.112 14.5129Z" fill="white"/>
<path d="M124.894 0.335938H122.519V14.6643H124.894V0.335938Z" fill="white"/>
<path d="M125.049 14.8157H122.363V0.18457H125.049V14.8157ZM122.674 14.5129H124.738V0.487304H122.674V14.5129Z" fill="white"/>
<path d="M160.383 0.335938L154.244 14.6643H155.313L157.349 9.51785H162.509L163.563 12.0124C163.563 12.0124 163.873 12.7753 164.65 14.5917L164.685 14.6734H167.268L160.977 0.335938H160.383ZM162.211 8.77917H157.604L159.879 3.3663L162.211 8.77917Z" fill="white"/>
<path d="M167.501 14.8157H164.582L164.507 14.6401C163.886 13.1264 163.544 12.3605 163.448 12.1335L163.42 12.0608L162.403 9.66013H157.458L155.419 14.8066H154.011L160.268 0.18457H161.079L167.501 14.8157ZM164.79 14.5129H167.031L160.874 0.487304H160.473L154.477 14.5129H155.208L157.244 9.36648H162.611L163.737 12.0275L164.79 14.522M162.444 8.93357H157.371L159.876 2.97275L162.444 8.93357ZM157.834 8.63084H161.977L159.882 3.7538L157.834 8.63084Z" fill="white"/>
<path d="M198.511 0.335938L193.892 8.11014L189.252 0.335938H186.28L191.959 9.12126V14.6643H194.312V8.98201L199.723 0.335938H198.511Z" fill="white"/>
<path d="M194.467 14.8157H191.804V9.16365L186.001 0.18457H189.342L193.892 7.81043L198.421 0.18457H200L194.467 9.02439V14.8157ZM192.115 14.5129H194.157V8.93962L194.178 8.9033L199.447 0.487304H198.614L193.892 8.41287L189.162 0.487304H186.563L192.115 9.08191V14.5129Z" fill="white"/>
<path d="M144.494 14.6643H146.865V7.51678H151.061V6.75994H146.865V1.07461H153.24V0.335938H144.494V14.6643Z" fill="white"/>
<path d="M147.018 14.8157H144.335V0.18457H153.393V1.22597H147.018V6.60858H151.214V7.66814H147.018V14.8157ZM144.646 14.5129H146.707V7.36541H150.903V6.91131H146.707V0.92324H153.082V0.487304H144.649L144.646 14.5129Z" fill="white"/>
<path d="M131.474 14.6643H133.848V7.51678H138.044V6.75994H133.848V1.07461H140.22V0.335938H131.474V14.6643Z" fill="white"/>
<path d="M134.004 14.8157H131.318V0.18457H140.375V1.22597H134.004V6.60858H138.197V7.66814H134.004V14.8157ZM131.629 14.5129H133.693V7.36541H137.886V6.91131H133.693V0.92324H140.065V0.487304H131.629V14.5129Z" fill="white"/>
<path d="M39.7134 0.105957H38.2308V9.18796C38.2308 9.31814 38.2308 9.46042 38.2308 9.61482C38.2557 10.6623 38.2899 12.2456 37.4072 13.1174C37.1693 13.3362 36.8881 13.5054 36.5808 13.6147C36.2735 13.724 35.9466 13.7711 35.6199 13.7532C33.8203 13.7532 33.2422 12.3424 33.0774 11.737L33.0495 11.6371H31.7036V11.7824C31.8342 13.1114 33.2142 14.4586 35.6075 14.4586C36.8135 14.4586 37.7832 14.1225 38.4453 13.4595C39.7197 12.2153 39.6886 10.1295 39.6886 9.3363L39.7134 0.105957Z" fill="white"/>
<path d="M35.6293 14.5494C33.1707 14.5494 31.7503 13.1538 31.6166 11.7794L31.5917 11.516H33.1458L33.1956 11.6946C33.3541 12.2758 33.9073 13.6321 35.6324 13.6321C35.9446 13.6497 36.2573 13.6051 36.5512 13.5009C36.8451 13.3968 37.1142 13.2354 37.3419 13.0266C38.1935 12.185 38.1562 10.629 38.1345 9.59968C38.1345 9.43318 38.1345 9.29695 38.1345 9.1698V0H39.8316V9.32117C39.8316 10.1204 39.8595 12.2425 38.551 13.5201C37.8516 14.2012 36.8726 14.5494 35.6355 14.5494M31.8373 11.7279V11.7582C31.9616 13.0387 33.3044 14.3375 35.6324 14.3375C36.8073 14.3375 37.7366 14.0105 38.3956 13.3687C39.6389 12.1578 39.6171 10.0962 39.6109 9.32419V0.211913H38.349V9.17282C38.349 9.29695 38.349 9.43318 38.349 9.58454C38.3738 10.6623 38.408 12.2728 37.4942 13.178C37.2462 13.4067 36.9529 13.5837 36.6322 13.6982C36.3116 13.8127 35.9703 13.8623 35.6293 13.844C33.7644 13.844 33.1427 12.3788 32.9811 11.7491V11.7279H31.8373Z" fill="white"/>
<path d="M7.04626 12.7359L0.916896 0.284424L0.879597 0.20874H0.108765V14.5311H0.954194V3.29057L6.39975 14.5311H7.07113L12.2991 2.79408L12.4234 2.50952V14.5311H13.9029V0.20874H12.5975L7.04626 12.7359Z" fill="white"/>
<path d="M14.0117 14.637H12.3147V3.02719L7.14885 14.637H6.3314L1.04746 3.76283V14.637H0V0.102783H0.948L1.01638 0.239013L7.04006 12.4785L12.526 0.102783H14.0117V14.637ZM12.5322 14.4251H13.7942V0.302587H12.669L7.04939 12.9901L0.811239 0.302587H0.217574V14.4251H0.839213V2.81528L6.46816 14.4251H6.99966L12.5322 1.99184V14.4251Z" fill="white"/>
<path d="M22.4629 0.20874L16.3242 14.5311H17.2318L19.6935 8.77913H25.8788L28.2193 14.5311H29.6149L23.7186 0.20874H22.4629ZM19.9328 8.20999L22.8608 1.32583L25.6581 8.20999H19.9328Z" fill="white"/>
<path d="M29.7765 14.637H28.1447L25.798 8.89416H19.7681L17.3033 14.6461H16.1626L22.379 0.102783H23.7777L23.8057 0.169385L29.7765 14.637ZM28.2846 14.4251H29.4439L23.644 0.302587H22.5375L16.489 14.4251H17.1603L19.622 8.67317H25.9534L28.2846 14.4251ZM25.798 8.31594H19.7712L22.8794 1.05034L25.798 8.31594ZM20.0727 8.10403H25.5027L22.8577 1.60737L20.0727 8.10403Z" fill="white"/>
<path d="M84.8848 12.8206C83.7472 13.6592 82.7744 13.8257 81.5746 13.8257C78.4478 13.8257 76.2658 11.1314 76.2658 7.2776C76.2658 3.46921 78.4415 0.811212 81.5746 0.811212C82.7472 0.774722 83.8995 1.11515 84.8537 1.77996L84.9532 1.84353L85.4319 1.29559L85.3013 1.21082C84.2006 0.484811 82.9008 0.0986917 81.5715 0.102816C80.64 0.107632 79.7196 0.299982 78.868 0.667786C78.0165 1.03559 77.2522 1.57091 76.6232 2.24011C75.3319 3.60972 74.623 5.40605 74.6402 7.26549C74.6195 9.15269 75.3272 10.9786 76.6232 12.3817C77.2516 13.0533 78.0159 13.591 78.868 13.9609C79.7202 14.3308 80.6417 14.525 81.5746 14.5311C82.9317 14.5776 84.259 14.137 85.3044 13.2929L85.4194 13.2021L84.9687 12.751L84.8848 12.8206Z" fill="white"/>
<path d="M81.5746 14.6372C80.6276 14.6324 79.6917 14.4372 78.8258 14.0637C77.9599 13.6902 77.1825 13.1464 76.5424 12.4666C75.2261 11.0399 74.5083 9.18356 74.5314 7.26561C74.511 5.37527 75.23 3.54821 76.5424 2.15547C77.1837 1.47822 77.9617 0.937207 78.8276 0.566313C79.6935 0.195418 80.6287 0.0026266 81.5746 8.23564e-06C82.9248 -0.00207262 84.2446 0.390209 85.3635 1.12618L85.5935 1.27452L84.9719 1.98594L84.7885 1.86787C83.8542 1.21334 82.725 0.876134 81.5746 0.908209C78.513 0.908209 76.3746 3.52383 76.3746 7.26561C76.3746 11.0589 78.513 13.7078 81.5746 13.7078C82.7526 13.7078 83.7068 13.5443 84.8196 12.7239L84.9936 12.5968L85.5904 13.2022L85.3852 13.3657C84.3173 14.228 82.9609 14.6774 81.5746 14.6281M81.5746 0.20284C80.6576 0.207747 79.7514 0.396863 78.9128 0.758365C78.0743 1.11987 77.3213 1.64598 76.7009 2.30381C75.4269 3.65628 74.7291 5.43025 74.749 7.26561C74.7282 9.12556 75.4247 10.9254 76.7009 12.3092C77.3206 12.968 78.0734 13.4949 78.9121 13.857C79.7508 14.2191 80.6572 14.4084 81.5746 14.4132C82.9103 14.4624 84.2179 14.0313 85.2485 13.2022L85.2702 13.181L84.9594 12.8783L84.9377 12.8934C83.7783 13.7471 82.7868 13.9197 81.5622 13.9197C78.3856 13.9258 76.1508 11.2011 76.1508 7.26561C76.1508 3.33008 78.3794 0.693268 81.5684 0.693268C82.7611 0.657459 83.9328 1.0042 84.9035 1.68018H84.9252L85.264 1.29571L85.2361 1.27754C84.1521 0.57452 82.8769 0.203405 81.5746 0.211922" fill="white"/>
<path d="M93.5039 0.20874L87.3621 14.5311H88.2728L90.7376 8.77913H96.9229L99.2633 14.5311H100.659L94.7565 0.20874H93.5039ZM90.9738 8.20999L93.8986 1.32583L96.696 8.20999H90.9738Z" fill="white"/>
<path d="M100.814 14.637H99.1856L96.8452 8.88508H90.8059L88.3443 14.637H87.2004L93.4324 0.102783H94.8311L94.859 0.169385L100.814 14.637ZM99.3317 14.4251H100.494L94.6819 0.302587H93.5754L87.5268 14.4251H88.1982L90.663 8.67317H96.9913L99.3317 14.4251ZM96.8607 8.31594H90.8091L93.9017 1.05034L96.8607 8.31594ZM91.1354 8.10403H96.5406L93.8986 1.60737L91.1354 8.10403Z" fill="white"/>
<path d="M67.1806 9.06067C68.8093 8.90627 71.532 8.12825 71.532 4.64379C71.5351 0.529638 67.5535 0.20874 66.3351 0.20874H60.8398V14.5311H62.3193V9.12121H65.4275L70.7519 14.5311H72.3526L67.05 9.08186L67.1806 9.06067ZM62.3193 8.41585V0.908055H66.3351C68.5948 0.908055 70.065 2.37934 70.065 4.65892C70.065 6.93851 68.601 8.43098 66.3351 8.43098L62.3193 8.41585Z" fill="white"/>
<path d="M72.6074 14.637H70.7052L65.3902 9.22717H62.4281V14.637H60.731V0.102783H66.3258C67.569 0.102783 71.6346 0.429735 71.6346 4.64379C71.6346 8.14641 68.946 8.97893 67.2831 9.15452L72.6074 14.637ZM70.7985 14.4251H72.1101L66.8262 8.9759L67.1805 8.94563C68.7688 8.79426 71.4356 8.03743 71.4356 4.6347C71.4263 0.626512 67.5286 0.302587 66.3351 0.302587H60.9486V14.4251H62.2105V9.01526H65.4834L70.7985 14.4251ZM66.3351 8.5218H62.2105V0.786961H66.3351C68.6631 0.786961 70.1675 2.30063 70.1675 4.64379C70.1675 6.98694 68.6631 8.5218 66.3351 8.5218ZM62.4281 8.30989H66.3351C68.5295 8.30989 69.9499 6.8719 69.9499 4.64379C69.9499 2.41567 68.5295 1.01098 66.3351 1.01098H62.4281V8.30989Z" fill="white"/>
<path d="M50.4989 0.105957C49.5664 0.106097 48.6443 0.296025 47.7917 0.663562C46.939 1.0311 46.1746 1.56813 45.5475 2.24023C44.2328 3.64568 43.5161 5.48555 43.5427 7.3867C43.5226 9.247 44.2408 11.043 45.5475 12.4C46.1714 13.0729 46.9334 13.6109 47.7841 13.9791C48.6349 14.3473 49.5555 14.5375 50.4864 14.5375C51.4174 14.5375 52.338 14.3473 53.1887 13.9791C54.0395 13.6109 54.8014 13.0729 55.4253 12.4C56.7343 11.0442 57.4538 9.24764 57.4332 7.3867C57.4587 5.48519 56.7409 3.64538 55.4253 2.24023C54.8008 1.57258 54.04 1.03925 53.1917 0.674346C52.3434 0.309446 51.4262 0.121011 50.4989 0.121094M50.4989 13.841C47.3596 13.841 45.1683 11.189 45.1683 7.39578C45.1683 3.52685 47.3596 0.826463 50.4989 0.826463C53.6381 0.826463 55.8077 3.52685 55.8077 7.39578C55.8077 11.189 53.6319 13.841 50.4989 13.841Z" fill="white"/>
<path d="M50.4989 14.6371C49.5515 14.6373 48.6145 14.4443 47.7484 14.0704C46.8822 13.6966 46.106 13.1502 45.4698 12.4665C44.1422 11.0909 43.4126 9.26835 43.4339 7.38056C43.4083 5.45412 44.1362 3.59036 45.4698 2.16749C46.1042 1.48442 46.8785 0.938441 47.7428 0.564774C48.6072 0.191107 49.5423 -0.00195313 50.488 -0.00195312C51.4336 -0.00195313 52.3688 0.191107 53.2331 0.564774C54.0975 0.938441 54.8718 1.48442 55.5062 2.16749C56.8391 3.58959 57.5669 5.45214 57.542 7.37753C57.5611 9.26492 56.8319 11.0867 55.5062 12.4635C54.8731 13.1454 54.1006 13.6908 53.2383 14.0646C52.3759 14.4385 51.4428 14.6324 50.4989 14.6341M50.4989 0.208801C49.5813 0.209355 48.674 0.396824 47.8352 0.759167C46.9964 1.12151 46.2447 1.65072 45.6283 2.3128C44.3324 3.69617 43.6256 5.50806 43.6515 7.38056C43.6315 9.21412 44.3398 10.9843 45.6283 12.3212C46.2421 12.9836 46.9918 13.5132 47.8289 13.8756C48.666 14.2381 49.5719 14.4254 50.488 14.4254C51.4041 14.4254 52.31 14.2381 53.1471 13.8756C53.9842 13.5132 54.7339 12.9836 55.3477 12.3212C56.6357 10.9839 57.3438 9.21401 57.3245 7.38056C57.3488 5.50833 56.6422 3.69698 55.3477 2.3128C54.7342 1.65303 53.9861 1.12534 53.1511 0.763543C52.3161 0.40175 51.4127 0.213831 50.4989 0.211828M50.4989 13.9317C47.2943 13.9317 45.0595 11.2374 45.0595 7.38056C45.0595 3.44502 47.2943 0.72042 50.4989 0.72042C53.7034 0.72042 55.9165 3.46319 55.9165 7.38056C55.9165 11.2374 53.6879 13.9317 50.4989 13.9317ZM50.4989 0.91417C47.4249 0.91417 45.2771 3.57217 45.2771 7.37753C45.2771 11.1102 47.4249 13.7168 50.4989 13.7168C53.5729 13.7168 55.6989 11.1102 55.6989 7.37753C55.6989 3.5752 53.5604 0.908115 50.4989 0.908115" fill="white"/>
<path d="M47.0332 21.7088V23.4435H49.0132V23.946H47.0332V25.717H49.237V26.2498H46.3619V21.176H49.237V21.7088H47.0332Z" fill="white"/>
<path d="M49.324 26.3377H46.2748V21.0913H49.324V21.7967H47.1203V23.3618H49.1095V24.0339H47.1203V25.6353H49.324V26.3377ZM46.4489 26.1682H49.1499V25.8049H46.9338V23.8613H48.9137V23.5283H46.9338V21.6241H49.1375V21.2608H46.4365L46.4489 26.1682Z" fill="white"/>
<path d="M55.4378 25.602C55.3104 25.8171 55.1228 25.9925 54.8969 26.1076C54.621 26.2439 54.3142 26.3106 54.0049 26.3013C53.6837 26.3095 53.3648 26.2463 53.0724 26.1166C52.8169 26.0063 52.5952 25.8331 52.429 25.6141C52.2674 25.4001 52.1705 25.1463 52.1493 24.8815H52.8673C52.8841 25.0313 52.9362 25.1753 53.0196 25.3023C53.11 25.4451 53.2376 25.5621 53.3895 25.6414C53.5665 25.7353 53.7661 25.7813 53.9676 25.7746C54.091 25.7821 54.2148 25.7656 54.3317 25.7261C54.4485 25.6866 54.5562 25.6249 54.6483 25.5445C54.7269 25.467 54.7884 25.3746 54.829 25.2731C54.8696 25.1716 54.8885 25.063 54.8845 24.9542C54.8941 24.7727 54.8355 24.5941 54.7198 24.4516C54.6078 24.3223 54.4676 24.2188 54.3095 24.1489C54.0938 24.0532 53.8716 23.9722 53.6443 23.9067C53.3728 23.8222 53.107 23.7211 52.8486 23.604C52.6453 23.5074 52.47 23.3628 52.3389 23.1832C52.1887 22.9643 52.1146 22.7044 52.1275 22.4415C52.1224 22.1958 52.1904 21.954 52.3234 21.7452C52.4593 21.5382 52.655 21.375 52.8859 21.2759C53.1573 21.1607 53.451 21.1039 53.7469 21.1094C54.1844 21.0859 54.6163 21.2146 54.9653 21.4727C55.1139 21.585 55.238 21.7251 55.3303 21.8847C55.4226 22.0442 55.4814 22.2202 55.503 22.4021H54.7788C54.7387 22.1959 54.6293 22.0085 54.468 21.8693C54.273 21.7073 54.0214 21.6249 53.7656 21.6392C53.5301 21.6253 53.2979 21.6989 53.1159 21.8451C53.0334 21.9176 52.9685 22.0071 52.926 22.1071C52.8835 22.2072 52.8645 22.3152 52.8704 22.4233C52.8632 22.5965 52.9206 22.7664 53.032 22.9016C53.1371 23.0316 53.2724 23.1353 53.4268 23.2044C53.6389 23.2941 53.8558 23.3729 54.0764 23.4405C54.352 23.5247 54.6219 23.6258 54.8845 23.7432C55.0935 23.8433 55.2732 23.9933 55.4067 24.1792C55.5596 24.4093 55.6346 24.6803 55.6211 24.9542C55.6225 25.1883 55.5615 25.4189 55.444 25.6232" fill="white"/>
<path d="M54.0049 26.3861C53.6752 26.3922 53.3483 26.3271 53.0476 26.1954C52.7791 26.0765 52.5459 25.8931 52.37 25.6626C52.1958 25.4378 52.0882 25.1708 52.0592 24.8906V24.7968H52.9512V24.8755C52.9663 25.0125 53.0142 25.1442 53.0911 25.2599C53.1763 25.3868 53.2928 25.4909 53.4299 25.5627C53.5941 25.6479 53.7785 25.6897 53.9645 25.6838C54.077 25.6917 54.19 25.6776 54.2967 25.6423C54.4035 25.6069 54.5019 25.551 54.5861 25.4779C54.6571 25.4087 54.7126 25.3259 54.749 25.2347C54.7854 25.1435 54.8019 25.0459 54.7975 24.9481C54.8066 24.7864 54.7546 24.627 54.6514 24.5001C54.548 24.3793 54.4185 24.2821 54.2722 24.2155C54.059 24.1233 53.8399 24.0444 53.6164 23.9794C53.342 23.8943 53.0732 23.7932 52.8113 23.6766C52.5953 23.5727 52.4085 23.4189 52.2674 23.2286C52.1079 22.9941 52.0284 22.7165 52.0405 22.4354C52.0361 22.1739 52.1083 21.9166 52.2488 21.6937C52.397 21.4706 52.6102 21.2956 52.8611 21.1912C53.1438 21.0698 53.4504 21.0099 53.7593 21.0156C54.2174 20.993 54.669 21.1292 55.0337 21.4001C55.1899 21.5229 55.3195 21.6748 55.415 21.8468C55.5105 22.0188 55.57 22.2076 55.5901 22.4021V22.499H54.7042V22.4294C54.6642 22.241 54.5615 22.0708 54.4121 21.945C54.2321 21.7992 54.0024 21.7246 53.7687 21.7361C53.5544 21.7259 53.3435 21.7915 53.175 21.9208C53.102 21.9854 53.0448 22.0653 53.0076 22.1543C52.9705 22.2434 52.9544 22.3395 52.9605 22.4354C52.9523 22.5886 53.0021 22.7394 53.1004 22.8593C53.1998 22.9733 53.324 23.0643 53.4641 23.1257C53.6739 23.2141 53.8887 23.2909 54.1075 23.3557C54.3873 23.4396 54.6613 23.5408 54.928 23.6585C55.149 23.7659 55.3391 23.9251 55.4813 24.1217C55.6443 24.366 55.7248 24.654 55.7113 24.9451C55.7134 25.1944 55.648 25.4398 55.5217 25.6565C55.3882 25.8852 55.1895 26.0713 54.9498 26.1924C54.6616 26.3362 54.341 26.407 54.0173 26.3982M52.2736 24.9814C52.3045 25.2 52.3898 25.4079 52.5223 25.5869C52.6836 25.796 52.8978 25.9608 53.1439 26.0652C53.4227 26.1855 53.7249 26.2454 54.0297 26.2408C54.325 26.2495 54.6178 26.186 54.8814 26.0561C55.0922 25.9488 55.2669 25.7849 55.3849 25.5839C55.4964 25.393 55.5543 25.1768 55.5528 24.9572C55.5607 24.6936 55.4811 24.4346 55.3259 24.2185C55.2016 24.0441 55.0336 23.9034 54.8379 23.8098C54.5784 23.6928 54.3116 23.5917 54.0391 23.5071C53.8153 23.4398 53.5954 23.3609 53.3801 23.271C53.2171 23.2017 53.0717 23.0984 52.9543 22.9682C52.8303 22.8176 52.7663 22.6284 52.774 22.4354C52.7682 22.315 52.7896 22.1947 52.8369 22.0833C52.8842 21.9718 52.9561 21.8719 53.0476 21.7906C53.2483 21.6351 53.5 21.5555 53.7562 21.5666C54.0336 21.5535 54.3057 21.6433 54.5177 21.8179C54.6752 21.9544 54.7895 22.1319 54.8472 22.3295H55.3974C55.3383 22.0236 55.1684 21.7486 54.9187 21.5545C54.5913 21.3074 54.1858 21.1789 53.7718 21.1912C53.4884 21.1847 53.2071 21.2395 52.9481 21.3516C52.7272 21.4443 52.5399 21.5993 52.4104 21.7967C52.2862 21.9919 52.2225 22.2179 52.227 22.4475C52.2143 22.6931 52.283 22.9361 52.4228 23.1408C52.5464 23.3074 52.7096 23.4424 52.8984 23.5344C53.1539 23.6509 53.4165 23.752 53.6847 23.8371C53.9146 23.905 54.1399 23.9869 54.3592 24.0823C54.5289 24.1588 54.6787 24.2716 54.7975 24.4123C54.9264 24.5701 54.9926 24.7678 54.984 24.9693C54.9881 25.0894 54.9671 25.209 54.9223 25.3209C54.8774 25.4329 54.8095 25.5347 54.7229 25.6202C54.6229 25.709 54.5057 25.7773 54.378 25.821C54.2504 25.8647 54.115 25.8829 53.98 25.8745C53.7637 25.8799 53.5496 25.8309 53.3584 25.7322C53.1946 25.6444 53.0566 25.5172 52.9574 25.3629C52.8818 25.2476 52.8301 25.119 52.8051 24.9844L52.2736 24.9814Z" fill="white"/>
<path d="M61.9277 21.176V21.7088H60.4544V26.2498H59.783V21.7088H58.3129V21.176H61.9277Z" fill="white"/>
<path d="M60.5445 26.3377H59.696V21.7967H58.2258V21.0913H62.0147V21.7967H60.5445V26.3377ZM59.8701 26.1682H60.3674V21.6271H61.8531V21.2639H58.3999V21.6271H59.8701V26.1682Z" fill="white"/>
<path d="M65.4804 21.7088V23.4435H67.4634V23.946H65.4804V25.717H67.6841V26.2498H64.809V21.176H67.6841V21.7088H65.4804Z" fill="white"/>
<path d="M67.7587 26.3377H64.7095V21.0913H67.7587V21.7967H65.5829V23.3618H67.566V24.0339H65.5829V25.6353H67.7587V26.3377ZM64.8836 26.1682H67.5846V25.8049H65.3809V23.8613H67.3639V23.5283H65.3809V21.6241H67.5846V21.2608H64.8836V26.1682Z" fill="white"/>
<path d="M73.9596 21.176V21.7088H72.4894V26.2498H71.8149V21.7088H70.3447V21.176H73.9596Z" fill="white"/>
<path d="M72.5764 26.3377H71.7279V21.7967H70.2452V21.0913H74.0341V21.7967H72.5764V26.3377ZM71.9019 26.1682H72.3992V21.6271H73.8725V21.2639H70.4317V21.6271H71.9019V26.1682Z" fill="white"/>
<path d="M77.5122 21.176H76.8408V26.2498H77.5122V21.176Z" fill="white"/>
<path d="M77.6023 26.3377H76.7538V21.0913H77.6023V26.3377ZM76.9278 26.1682H77.4252V21.2608H76.9278V26.1682Z" fill="white"/>
<path d="M84.689 21.5817C85.1103 21.8935 85.4123 22.3336 85.5469 22.832H84.8538C84.7293 22.5064 84.5046 22.2262 84.2104 22.0298C83.8895 21.8222 83.5106 21.7164 83.1256 21.727C82.8039 21.7213 82.4872 21.8042 82.2118 21.9662C81.9368 22.1345 81.716 22.3747 81.5746 22.6595C81.4152 22.9885 81.3365 23.3492 81.3446 23.713C81.3364 24.0738 81.4152 24.4315 81.5746 24.7574C81.7147 25.0413 81.9358 25.2798 82.2114 25.4446C82.4869 25.6094 82.8054 25.6935 83.1287 25.6868C83.5137 25.6974 83.8927 25.5917 84.2135 25.3841C84.5048 25.188 84.7281 24.9103 84.8538 24.5879H85.5624C85.4279 25.0855 85.1258 25.5247 84.7046 25.8351C84.2471 26.1537 83.6937 26.3146 83.1318 26.2923C82.6781 26.3011 82.2307 26.188 81.8388 25.9653C81.4644 25.7493 81.1605 25.4344 80.9623 25.0571C80.7491 24.6432 80.6424 24.185 80.6515 23.7221C80.6425 23.2552 80.7491 22.7931 80.9623 22.3749C81.1608 21.9978 81.4646 21.683 81.8388 21.4667C82.2307 21.244 82.6781 21.1309 83.1318 21.1397C83.6937 21.1174 84.2471 21.2783 84.7046 21.5969" fill="white"/>
<path d="M83.1162 26.3802C82.6456 26.3876 82.182 26.2682 81.7766 26.0351C81.3887 25.8085 81.0742 25.4801 80.869 25.0876C80.6527 24.6607 80.546 24.189 80.5582 23.7131C80.546 23.2343 80.6526 22.7597 80.869 22.3297C81.0738 21.9352 81.3883 21.6048 81.7766 21.376C82.1833 21.1469 82.6464 21.0297 83.1162 21.037C83.6972 21.0156 84.269 21.1828 84.7418 21.5123C85.1761 21.8362 85.4885 22.2906 85.6308 22.8049L85.665 22.9139H84.7791L84.7574 22.8594C84.6352 22.5491 84.4183 22.2828 84.1357 22.0965C83.8288 21.9006 83.4675 21.8013 83.1007 21.812C82.7947 21.808 82.4941 21.8901 82.235 22.0485C81.9758 22.207 81.7692 22.4349 81.6398 22.705C81.4934 23.0225 81.4178 23.3666 81.4178 23.7147C81.4178 24.0627 81.4934 24.4068 81.6398 24.7243C81.7798 24.9949 81.9953 25.2215 82.2615 25.3782C82.5226 25.5327 82.8232 25.6125 83.1287 25.6083C83.4955 25.619 83.8568 25.5196 84.1637 25.3237C84.4462 25.1374 84.6632 24.8711 84.7853 24.5608L84.8071 24.5063H85.6929L85.6587 24.6153C85.5165 25.1297 85.204 25.584 84.7698 25.908C84.297 26.2375 83.7252 26.4046 83.1442 26.3833M83.1442 21.2126C82.7093 21.2021 82.2796 21.3068 81.9009 21.5153C81.5285 21.7243 81.2246 22.0318 81.0244 22.4023C80.814 22.8063 80.7073 23.2541 80.7136 23.7071C80.7072 24.1572 80.8139 24.602 81.0244 25.0028C81.2154 25.3672 81.5072 25.6723 81.8668 25.8837C82.2455 26.0923 82.6751 26.1969 83.11 26.1865C83.6525 26.2072 84.1868 26.0529 84.6299 25.7475C85.0038 25.4705 85.2806 25.0878 85.4225 24.6516H84.891C84.7568 24.9703 84.53 25.2439 84.2383 25.4387C83.9013 25.6512 83.505 25.757 83.1038 25.7415C82.7655 25.7465 82.4325 25.6583 82.1434 25.4872C81.8568 25.3115 81.6256 25.0621 81.4751 24.7667C81.3085 24.4288 81.2255 24.0576 81.2327 23.6829C81.2256 23.3052 81.3085 22.9311 81.4751 22.59C81.6214 22.2918 81.8528 22.041 82.1417 21.8676C82.4305 21.6942 82.7646 21.6055 83.1038 21.6122C83.5048 21.598 83.9007 21.7037 84.2383 21.9149C84.5294 22.1116 84.7561 22.386 84.891 22.705H85.4225C85.2806 22.2689 85.0038 21.8861 84.6299 21.6091C84.1878 21.3015 83.653 21.146 83.11 21.1672" fill="white"/>
<path d="M91.7198 25.0784H89.429L88.9908 26.25H88.2728L90.203 21.27H90.9645L92.8853 26.25H92.1611L91.7198 25.0784ZM91.527 24.5668L90.5728 22.0026L89.6186 24.5668H91.527Z" fill="white"/>
<path d="M93.0065 26.3376H92.0927L91.6576 25.1661H89.4819L89.0529 26.3376H88.1422L90.1377 21.1912H91.0204L93.0065 26.3376ZM92.2171 26.1681H92.7517L90.8868 21.3577H90.2465L88.3815 26.1681H88.9193L89.3544 24.9935H91.7664L92.2171 26.1681ZM91.6514 24.6544H89.4943L90.5728 21.7573L91.6514 24.6544ZM89.746 24.4849H91.4027L90.5728 22.2568L89.746 24.4849Z" fill="white"/>
<path d="M103.699 21.5817C104.118 21.8952 104.42 22.3346 104.557 22.832H103.848C103.72 22.5047 103.491 22.2243 103.192 22.0297C102.87 21.8215 102.49 21.7157 102.104 21.727C101.784 21.7216 101.468 21.8045 101.194 21.9662C100.919 22.1345 100.698 22.3747 100.556 22.6594C100.394 22.9878 100.315 23.3488 100.323 23.7129C100.315 24.0742 100.394 24.4322 100.556 24.7574C100.697 25.0412 100.918 25.2798 101.193 25.4446C101.469 25.6094 101.787 25.6935 102.11 25.6867C102.497 25.698 102.877 25.5922 103.198 25.384C103.492 25.1868 103.716 24.9069 103.842 24.5818H104.55C104.413 25.0783 104.112 25.5168 103.693 25.829C103.235 26.1476 102.682 26.3085 102.12 26.2862C101.666 26.295 101.219 26.1819 100.827 25.9592C100.452 25.7432 100.148 25.4283 99.9503 25.051C99.7356 24.6376 99.6288 24.1791 99.6395 23.716C99.6288 23.2489 99.7355 22.7865 99.9503 22.3688C100.149 21.9917 100.453 21.6769 100.827 21.4606C101.219 21.2379 101.666 21.1248 102.12 21.1336C102.682 21.1113 103.235 21.2722 103.693 21.5908" fill="white"/>
<path d="M102.126 26.3801C101.655 26.3878 101.192 26.2683 100.786 26.035C100.398 25.8093 100.083 25.4807 99.8788 25.0874C99.6624 24.6605 99.5558 24.1889 99.568 23.713C99.5557 23.2342 99.6624 22.7596 99.8788 22.3295C100.084 21.9351 100.398 21.6046 100.786 21.3759C101.193 21.1463 101.656 21.029 102.126 21.0368C102.707 21.0164 103.278 21.1835 103.752 21.5121C104.186 21.8361 104.498 22.2904 104.641 22.8048L104.675 22.9138H103.786L103.764 22.8593C103.643 22.5482 103.426 22.2815 103.142 22.0964C102.835 21.9001 102.472 21.8007 102.104 21.8118C101.799 21.807 101.498 21.8868 101.237 22.0419C100.981 22.2055 100.777 22.435 100.647 22.7049C100.492 23.0214 100.415 23.3687 100.423 23.7191C100.416 24.0665 100.492 24.4107 100.647 24.7241C100.782 24.9919 100.991 25.2181 101.249 25.378C101.511 25.5318 101.811 25.6115 102.117 25.6081C102.485 25.6192 102.847 25.5199 103.155 25.3235C103.438 25.1384 103.656 24.8717 103.776 24.5607L103.798 24.5062H104.687L104.653 24.6151C104.511 25.1295 104.198 25.5839 103.764 25.9078C103.291 26.2373 102.719 26.4045 102.138 26.3831M102.138 21.2124C101.704 21.202 101.274 21.3066 100.895 21.5152C100.528 21.7255 100.229 22.0331 100.034 22.4022C99.8237 22.8062 99.7171 23.2539 99.7234 23.7069C99.717 24.1571 99.8237 24.6019 100.034 25.0026C100.224 25.3676 100.516 25.6729 100.877 25.8836C101.255 26.0924 101.685 26.1971 102.12 26.1863C102.662 26.207 103.197 26.0527 103.64 25.7474C104.011 25.4764 104.289 25.1015 104.435 24.6727H103.907C103.773 24.9914 103.546 25.2649 103.254 25.4598C102.916 25.672 102.519 25.7777 102.117 25.7625C101.779 25.7676 101.447 25.6794 101.159 25.5082C100.872 25.3334 100.641 25.0838 100.491 24.7877C100.323 24.4503 100.24 24.0788 100.249 23.7039C100.24 23.3261 100.323 22.9517 100.491 22.6111C100.637 22.3133 100.868 22.0628 101.156 21.8894C101.445 21.7161 101.778 21.6271 102.117 21.6332C102.519 21.6194 102.915 21.725 103.254 21.936C103.545 22.1326 103.772 22.407 103.907 22.7261H104.435C104.294 22.2899 104.017 21.9072 103.643 21.6302C103.201 21.3225 102.666 21.167 102.123 21.1882" fill="white"/>
<path d="M108.349 21.7088V23.4435H110.329V23.946H108.349V25.717H110.549V26.2498H107.677V21.176H110.549V21.7088H108.349Z" fill="white"/>
<path d="M110.652 26.3377H107.6V21.0913H110.652V21.7967H108.448V23.3618H110.428V24.0339H108.448V25.6353H110.652V26.3377ZM107.777 26.1682H110.475V25.8049H108.274V23.8613H110.254V23.5283H108.274V21.6241H110.475V21.2608H107.777V26.1682Z" fill="white"/>
<path d="M116.396 26.2499L115.037 24.1762H114.304V26.2499H113.633V21.1913H115.348C115.83 21.1556 116.307 21.3032 116.679 21.603C116.827 21.7461 116.942 21.9178 117.018 22.1071C117.094 22.2963 117.129 22.4989 117.12 22.7019C117.137 23.0659 117.011 23.4225 116.766 23.6979C116.493 23.9697 116.129 24.1373 115.74 24.1702L117.157 26.2651L116.396 26.2499ZM114.304 23.7009H115.289C116.051 23.7009 116.433 23.377 116.433 22.7231C116.433 22.0692 116.051 21.7453 115.289 21.7453H114.304V23.7009Z" fill="white"/>
<path d="M117.322 26.3377H116.349L115.003 24.261H114.382V26.3377H113.533V21.0914H115.336C115.84 21.0549 116.338 21.2113 116.725 21.5273C116.883 21.6775 117.007 21.8583 117.088 22.0581C117.169 22.2578 117.207 22.4721 117.198 22.6868C117.214 23.0722 117.078 23.449 116.818 23.7403C116.569 23.9938 116.242 24.1616 115.886 24.2186L117.322 26.3377ZM116.445 26.1682H116.996L115.591 24.0945L115.727 24.0733C116.098 24.0372 116.444 23.8741 116.703 23.6131C116.932 23.3525 117.05 23.0169 117.033 22.6747C117.042 22.4833 117.009 22.2924 116.937 22.114C116.866 21.9357 116.756 21.774 116.616 21.6393C116.262 21.3534 115.807 21.2133 115.348 21.2488H113.72V26.1531H114.217V24.0915H115.084L116.445 26.1682ZM115.289 23.7887H114.217V21.6696H115.289C116.309 21.6696 116.532 22.2508 116.532 22.7352C116.532 23.2196 116.321 23.7978 115.289 23.7978M114.382 23.6131H115.277C115.989 23.6131 116.334 23.3104 116.334 22.7049C116.334 22.0995 115.989 21.7967 115.277 21.7967H114.382V23.6131Z" fill="white"/>
<path d="M123.212 25.0784H120.909L120.471 26.25H119.759L121.689 21.27H122.463L124.384 26.25H123.66L123.212 25.0784ZM123.019 24.5668L122.065 22.0026L121.111 24.5668H123.019Z" fill="white"/>
<path d="M124.499 26.3376H123.585L123.15 25.1661H120.974L120.545 26.3376H119.634L121.63 21.1912H122.51L124.499 26.3376ZM123.706 26.1651H124.244L122.379 21.3546H121.748L119.883 26.1651H120.421L120.856 24.9905H123.271L123.706 26.1651ZM123.141 24.6514H120.983L122.062 21.7542L123.141 24.6514ZM121.235 24.4819H122.892L122.062 22.2538L121.235 24.4819Z" fill="white"/>
<path d="M132.487 21.261V26.25H131.815V22.2691L130.181 26.25H129.581L127.943 22.2842V26.25H127.268V21.261H128.076L129.892 25.4508L131.682 21.261H132.487Z" fill="white"/>
<path d="M132.574 26.3376H131.725V22.7048L130.233 26.3376H129.515L128.023 22.726V26.3376H127.175V21.1912H128.126L129.885 25.2448L131.623 21.1912H132.574V26.3376ZM131.902 26.1681H132.409V21.3456H131.75L129.895 25.6716L128.03 21.3456H127.368V26.1651H127.865V21.8451L129.655 26.1651H130.134L131.915 21.8269L131.902 26.1681Z" fill="white"/>
<path d="M136.453 21.176H135.782V26.2498H136.453V21.176Z" fill="white"/>
<path d="M136.543 26.3377H135.695V21.0913H136.543V26.3377ZM135.872 26.1682H136.369V21.2608H135.872V26.1682Z" fill="white"/>
<path d="M143.633 21.5818C144.052 21.8953 144.354 22.3348 144.491 22.8321H143.779C143.657 22.5061 143.433 22.2256 143.139 22.0299C142.817 21.8217 142.437 21.7159 142.051 21.7271C141.729 21.722 141.413 21.8049 141.137 21.9663C140.868 22.1373 140.653 22.3772 140.515 22.6595C140.353 22.9879 140.274 23.3489 140.282 23.7131C140.274 24.0743 140.353 24.4324 140.515 24.7575C140.655 25.0418 140.876 25.2808 141.152 25.4457C141.427 25.6106 141.746 25.6943 142.069 25.6869C142.456 25.6981 142.836 25.5923 143.157 25.3841C143.451 25.1876 143.675 24.9074 143.798 24.5819H144.509C144.372 25.0784 144.071 25.5169 143.652 25.8292C143.185 26.1569 142.619 26.3202 142.045 26.2923C141.591 26.3003 141.144 26.1872 140.752 25.9654C140.379 25.7477 140.075 25.4333 139.875 25.0572C139.662 24.6433 139.555 24.1851 139.564 23.7221C139.555 23.2553 139.662 22.7932 139.875 22.375C140.075 21.9992 140.379 21.6848 140.752 21.4668C141.142 21.2397 141.59 21.1213 142.045 21.1247C142.607 21.1019 143.162 21.2628 143.62 21.5818" fill="white"/>
<path d="M142.045 26.3801C141.575 26.3882 141.113 26.2698 140.708 26.038C140.319 25.8125 140.003 25.4839 139.797 25.0904C139.581 24.6635 139.474 24.1919 139.487 23.716C139.474 23.2372 139.581 22.7626 139.797 22.3325C140.003 21.938 140.319 21.6076 140.708 21.3789C141.114 21.1494 141.576 21.0321 142.045 21.0398C142.626 21.0189 143.199 21.186 143.673 21.5151C144.106 21.84 144.419 22.294 144.562 22.8078L144.593 22.9168H143.707L143.686 22.8623C143.564 22.5518 143.347 22.2854 143.064 22.0994C142.756 21.9034 142.394 21.8041 142.026 21.8148C141.723 21.8135 141.426 21.8965 141.17 22.0542C140.914 22.2119 140.709 22.4377 140.581 22.7049C140.425 23.0209 140.348 23.3685 140.357 23.719C140.348 24.0666 140.425 24.4112 140.581 24.7241C140.713 24.9919 140.921 25.2173 141.18 25.3734C141.44 25.5296 141.74 25.61 142.045 25.6051C142.412 25.6158 142.775 25.5165 143.083 25.3205C143.366 25.1345 143.583 24.8681 143.704 24.5576L143.726 24.5031H144.612L144.581 24.6121C144.436 25.1255 144.124 25.5793 143.692 25.9048C143.213 26.2377 142.633 26.405 142.045 26.3801ZM142.045 21.2094C141.61 21.198 141.18 21.3027 140.801 21.5121C140.443 21.727 140.153 22.0353 139.965 22.4021C139.755 22.8062 139.648 23.2539 139.654 23.7069C139.648 24.157 139.755 24.6019 139.965 25.0026C140.153 25.3699 140.442 25.6784 140.801 25.8927C141.18 26.1021 141.61 26.2067 142.045 26.1954C142.588 26.2152 143.123 26.061 143.568 25.7564C143.941 25.4793 144.216 25.0965 144.357 24.6605H143.826C143.693 24.979 143.467 25.2526 143.176 25.4476C142.838 25.6598 142.44 25.7655 142.038 25.7504C141.701 25.7555 141.369 25.6673 141.081 25.4961C140.794 25.3212 140.562 25.0717 140.413 24.7756C140.245 24.4382 140.162 24.0667 140.17 23.6918C140.162 23.314 140.245 22.9395 140.413 22.5989C140.563 22.3048 140.796 22.0586 141.085 21.8896C141.375 21.7206 141.707 21.6359 142.045 21.6453C142.447 21.6315 142.843 21.7371 143.182 21.948C143.472 22.1449 143.698 22.4193 143.832 22.7382H144.363C144.223 22.3022 143.947 21.9194 143.574 21.6423C143.13 21.3346 142.595 21.1791 142.051 21.2003" fill="white"/>
<path d="M150.661 25.0784H148.37L147.95 26.25H147.226L149.153 21.27H149.915L151.839 26.25H151.111L150.661 25.0784ZM150.468 24.5668L149.504 22.0026L148.572 24.5668H150.468Z" fill="white"/>
<path d="M151.947 26.3376H151.037L150.598 25.1661H148.423L147.994 26.3376H147.083L149.078 21.1912H149.961L151.947 26.3376ZM151.158 26.1681H151.696L149.831 21.3577H149.193L147.328 26.1681H147.866L148.301 24.9935H150.716L151.158 26.1681ZM150.592 24.6544H148.438L149.504 21.7542L150.592 24.6544ZM148.687 24.4849H150.343L149.504 22.2538L148.687 24.4849Z" fill="white"/>
<path d="M98.7132 28.8716H96.7302V34.0029H98.7132V28.8716Z" fill="#009247"/>
<path d="M100.706 28.8716H98.7225V34.0029H100.706V28.8716Z" fill="white"/>
<path d="M102.648 28.8716H100.665V34.0029H102.648V28.8716Z" fill="#CE2A37"/>
<path d="M152.404 31.3511H104.429V31.5206H152.404V31.3511Z" fill="white"/>
<path d="M94.3307 31.3511H46.3557V31.5206H94.3307V31.3511Z" fill="white"/>
</g>
<defs>
<clipPath id="clip0_1_150">
<rect width="200" height="34" fill="white"/>
</clipPath>
</defs>
</svg>
