<svg width="119" height="22" viewBox="0 0 119 22" fill="none" xmlns="http://www.w3.org/2000/svg">
<path d="M11.77 16.5974L7.656 11.0974L11.66 5.59744H7.81L4.51 10.4154V5.59744H1.21V16.5974H4.51V11.7354L8.03 16.5974H11.77ZM21.8934 5.59744H11.9934V8.76544H15.3154V16.5974H18.6154V8.76544H21.8934V5.59744ZM28.1677 16.9054C31.4017 16.9054 33.9977 14.3754 33.9977 11.0974C33.9977 7.81944 31.4017 5.28944 28.1677 5.28944C24.9337 5.28944 22.3377 7.81944 22.3377 11.0974C22.3377 14.3754 24.9337 16.9054 28.1677 16.9054ZM28.1677 13.6934C26.7377 13.6934 25.6377 12.6594 25.6377 11.0974C25.6377 9.53544 26.7377 8.50144 28.1677 8.50144C29.5977 8.50144 30.6977 9.53544 30.6977 11.0974C30.6977 12.6594 29.5977 13.6934 28.1677 13.6934Z" fill="white"/>
<path d="M45.5223 8.61144C46.3583 7.88544 46.8643 6.87344 46.8643 5.59744C46.8643 2.93544 44.6863 1.19744 42.0023 1.19744H35.9743V16.5974H42.4423C45.1923 16.5974 47.4143 14.8154 47.4143 12.0874C47.4143 10.5254 46.6663 9.33744 45.5223 8.61144ZM42.0023 4.49744C42.8163 4.49744 43.3443 5.06944 43.3443 5.86144C43.3443 6.65344 42.7943 7.22544 42.0023 7.22544H39.4943V4.49744H42.0023ZM42.4423 13.2974H39.4943V10.3494H42.4423C43.3223 10.3494 43.8943 10.9654 43.8943 11.8234C43.8943 12.6814 43.3223 13.2974 42.4423 13.2974ZM59.6157 16.5974L55.5017 11.0974L59.5057 5.59744H55.6557L52.3557 10.4154V5.59744H49.0557V16.5974H52.3557V11.7354L55.8757 16.5974H59.6157ZM67.7591 5.59744L65.6911 12.3514L63.1391 5.59744H59.6191L63.9311 16.3994C63.4251 17.5654 62.7211 17.9174 61.2471 17.9174V20.9974C64.1071 21.1514 66.2851 19.7654 67.5171 16.2674L71.2791 5.59744H67.7591ZM79.0732 5.28944C77.5992 5.28944 76.5212 5.79544 75.7952 6.63144V5.59744H72.4952V20.9974H75.7952V15.5634C76.5212 16.3994 77.5992 16.9054 79.0732 16.9054C81.9552 16.9054 84.3312 14.3754 84.3312 11.0974C84.3312 7.81944 81.9552 5.28944 79.0732 5.28944ZM78.4132 13.7814C76.8952 13.7814 75.7952 12.7474 75.7952 11.0974C75.7952 9.44744 76.8952 8.41344 78.4132 8.41344C79.9312 8.41344 81.0312 9.44744 81.0312 11.0974C81.0312 12.7474 79.9312 13.7814 78.4132 13.7814ZM91.4822 16.9054C93.6382 16.9054 95.5082 15.7834 96.4542 14.0674L93.5722 12.4174C93.2202 13.1874 92.4062 13.6494 91.4382 13.6494C90.0082 13.6494 88.9522 12.6154 88.9522 11.0974C88.9522 9.57944 90.0082 8.54544 91.4382 8.54544C92.4062 8.54544 93.1982 9.00744 93.5722 9.77744L96.4542 8.10544C95.5082 6.41144 93.6162 5.28944 91.4822 5.28944C88.1382 5.28944 85.6522 7.81944 85.6522 11.0974C85.6522 14.3754 88.1382 16.9054 91.4822 16.9054ZM100.515 12.4174H108.325C108.413 11.9994 108.457 11.5594 108.457 11.0974C108.457 7.77544 106.081 5.28944 102.869 5.28944C99.3934 5.28944 97.0174 7.81944 97.0174 11.0974C97.0174 14.3754 99.3494 16.9054 103.111 16.9054C105.201 16.9054 106.829 16.1354 107.907 14.6394L105.267 13.1214C104.827 13.6054 104.057 13.9574 103.155 13.9574C101.945 13.9574 100.933 13.5614 100.515 12.4174ZM100.449 9.95344C100.757 8.83144 101.593 8.21544 102.847 8.21544C103.837 8.21544 104.827 8.67744 105.179 9.95344H100.449ZM111.752 11.0974H115.272C115.272 9.57944 118.792 8.56744 118.792 5.28944C118.792 2.42944 116.284 0.889442 113.776 0.889442C111.334 0.889442 109.2 2.16544 108.232 4.43144L111.268 6.16944C111.708 5.13544 112.434 4.32144 113.644 4.32144C114.766 4.32144 115.272 4.82744 115.272 5.59744C115.272 7.53344 111.752 8.52344 111.752 11.0974ZM113.512 16.9054C114.656 16.9054 115.602 15.9594 115.602 14.8154C115.602 13.6714 114.656 12.7254 113.512 12.7254C112.368 12.7254 111.422 13.6714 111.422 14.8154C111.422 15.9594 112.368 16.9054 113.512 16.9054Z" fill="#333333"/>
</svg>
