<svg width="256" height="45" viewBox="0 0 256 45" fill="none" xmlns="http://www.w3.org/2000/svg">
<g clip-path="url(#clip0_180_229)">
<path d="M132.407 1.8905H140.051V19.4772H143.075V1.8905H150.791V0.93457H132.446L132.407 1.8905Z" fill="white"/>
<path d="M143.277 19.6727H139.853V2.08598H132.201L132.256 0.738281H150.989V2.08598H143.277V19.6727ZM140.249 19.2809H142.881V1.69421H150.593V1.13005H132.637L132.613 1.69421H140.249V19.2809Z" fill="white"/>
<path d="M232.221 14.4116L221.969 0.93457H218.93V19.0227H219.873V3.0619L232.594 19.4772H233.347V0.93457H232.221V14.4116Z" fill="white"/>
<path d="M233.545 19.6727H232.495L232.436 19.5943L220.071 3.63348V19.2182H218.732V0.738281H222.069L222.128 0.816636L232.036 13.8235V0.738281H233.557L233.545 19.6727ZM232.693 19.2809H233.149V1.13005H232.42V14.9949L221.871 1.13005H219.128V18.8264H219.675V2.48559L232.693 19.2809Z" fill="white"/>
<path d="M159.739 0.93457H156.711V19.4772H159.739V0.93457Z" fill="white"/>
<path d="M159.938 19.6727H156.514V0.738281H159.938V19.6727ZM156.91 19.2809H159.541V1.13005H156.91V19.2809Z" fill="white"/>
<path d="M204.988 0.93457L197.162 19.4772H198.525L201.121 12.817H207.699L209.043 16.0452C209.043 16.0452 209.439 17.0325 210.43 19.3832L210.473 19.4889H213.766L205.745 0.93457H204.988ZM207.319 11.8611H201.446L204.346 4.85622L207.319 11.8611Z" fill="white"/>
<path d="M214.063 19.6727H210.342L210.247 19.4454C209.455 17.4866 209.019 16.4954 208.896 16.2016L208.86 16.1075L207.564 13.0008H201.259L198.659 19.6609H196.864L204.842 0.738281H205.876L214.063 19.6727ZM210.608 19.2809H213.465L205.614 1.13005H205.103L197.459 19.2809H198.39L200.986 12.6207H207.83L209.264 16.0644L210.608 19.2926M207.616 12.0605H201.148L204.342 4.34651L207.616 12.0605ZM201.739 11.6687H207.021L204.35 5.35728L201.739 11.6687Z" fill="white"/>
<path d="M253.602 0.93457L247.713 10.9953L241.796 0.93457H238.007L245.248 12.3038V19.4772H248.248V12.1236L255.147 0.93457H253.602Z" fill="white"/>
<path d="M248.446 19.6727H245.05V12.3583L237.651 0.738281H241.911L247.713 10.607L253.487 0.738281H255.5L248.446 12.178V19.6727ZM245.446 19.2809H248.05V12.0683L248.077 12.0213L254.795 1.13005H253.733L247.713 11.3867L241.681 1.13005H238.368L245.446 12.2525V19.2809Z" fill="white"/>
<path d="M184.729 19.4772H187.753V10.2274H193.103V9.24799H187.753V1.8905H195.881V0.93457H184.729V19.4772Z" fill="white"/>
<path d="M187.947 19.6727H184.527V0.738281H196.075V2.08598H187.947V9.0517H193.297V10.4229H187.947V19.6727ZM184.924 19.2809H187.551V10.0311H192.901V9.44347H187.551V1.69421H195.679V1.13005H184.928L184.924 19.2809Z" fill="white"/>
<path d="M168.129 19.4772H171.157V10.2274H176.507V9.24799H171.157V1.8905H179.281V0.93457H168.129V19.4772Z" fill="white"/>
<path d="M171.355 19.6727H167.931V0.738281H179.479V2.08598H171.355V9.0517H176.701V10.4229H171.355V19.6727ZM168.327 19.2809H170.958V10.0311H176.304V9.44347H170.958V1.69421H179.082V1.13005H168.327V19.2809Z" fill="white"/>
<path d="M51.1344 0.636719H49.2441V12.3899C49.2441 12.5584 49.2441 12.7425 49.2441 12.9423C49.2758 14.2978 49.3194 16.3468 48.1939 17.4751C47.8906 17.7582 47.5321 17.9772 47.1403 18.1186C46.7485 18.2601 46.3316 18.3211 45.9152 18.2978C43.6206 18.2978 42.8835 16.4722 42.6735 15.6886L42.6378 15.5593H40.9219V15.7474C41.0883 17.4673 42.8479 19.2107 45.8993 19.2107C47.437 19.2107 48.6734 18.7758 49.5175 17.9178C51.1423 16.3076 51.1027 13.6083 51.1027 12.5819L51.1344 0.636719Z" fill="white"/>
<path d="M45.9272 19.3286C42.7925 19.3286 40.9814 17.5225 40.811 15.7439L40.7793 15.403H42.7608L42.8242 15.6342C43.0263 16.3864 43.7317 18.1415 45.9311 18.1415C46.3292 18.1643 46.7279 18.1065 47.1026 17.9718C47.4774 17.8371 47.8204 17.6282 48.1108 17.358C49.1966 16.2689 49.149 14.2551 49.1213 12.9231C49.1213 12.7076 49.1213 12.5313 49.1213 12.3668V0.5H51.2851V12.5627C51.2851 13.597 51.3207 16.3433 49.6523 17.9966C48.7607 18.8781 47.5124 19.3286 45.9351 19.3286M41.0924 15.6773V15.7165C41.2509 17.3737 42.9629 19.0544 45.9311 19.0544C47.4291 19.0544 48.614 18.6312 49.4542 17.8007C51.0394 16.2336 51.0116 13.5656 51.0037 12.5666V0.774241H49.3947V12.3707C49.3947 12.5313 49.3947 12.7076 49.3947 12.9035C49.4265 14.2982 49.47 16.3825 48.3049 17.5539C47.9887 17.8498 47.6147 18.0789 47.2059 18.2271C46.7971 18.3753 46.362 18.4395 45.9272 18.4158C43.5494 18.4158 42.7568 16.5196 42.5507 15.7047V15.6773H41.0924Z" fill="white"/>
<path d="M9.48398 16.9821L1.66904 0.868451L1.62148 0.770508H0.638672V19.3053H1.71659V4.75875L8.65968 19.3053H9.51568L16.1814 4.11625L16.3399 3.74798V19.3053H18.2262V0.770508H16.5618L9.48398 16.9821Z" fill="white"/>
<path d="M18.365 19.4418H16.2012V4.41734L9.61479 19.4418H8.57253L1.83551 5.36935V19.4418H0.5V0.632812H1.7087L1.79588 0.80911L9.47608 16.6485L16.4707 0.632812H18.365V19.4418ZM16.4786 19.1676H18.0876V0.891383H16.653L9.48797 17.3106L1.53433 0.891383H0.777407V19.1676H1.57V4.1431L8.7469 19.1676H9.42456L16.4786 3.07747V19.1676Z" fill="white"/>
<path d="M29.1403 0.770508L21.3135 19.3053H22.4707L25.6093 11.8616H33.4956L36.4797 19.3053H38.2591L30.7413 0.770508H29.1403ZM25.9145 11.1251L29.6476 2.21615L33.2142 11.1251H25.9145Z" fill="white"/>
<path d="M38.4651 19.4418H36.3846L33.3926 12.0099H25.7044L22.5618 19.4536H21.1074L29.0333 0.632812H30.8166L30.8523 0.719003L38.4651 19.4418ZM36.5629 19.1676H38.0411L30.6462 0.891383H29.2354L21.5235 19.1676H22.3795L25.5182 11.7239H33.5907L36.5629 19.1676ZM33.3926 11.2616H25.7084L29.6714 1.85906L33.3926 11.2616ZM26.0928 10.9874H33.0161L29.6436 2.57992L26.0928 10.9874Z" fill="white"/>
<path d="M108.728 17.0912C107.278 18.1764 106.037 18.3919 104.507 18.3919C100.521 18.3919 97.7387 14.9051 97.7387 9.91787C97.7387 4.98937 100.513 1.5496 104.507 1.5496C106.003 1.50238 107.472 1.94294 108.688 2.80328L108.815 2.88555L109.425 2.17644L109.259 2.06674C107.856 1.1272 106.198 0.627518 104.503 0.632855C103.316 0.639088 102.142 0.888011 101.057 1.36399C99.9709 1.83998 98.9964 2.53274 98.1945 3.39877C96.548 5.1712 95.6442 7.49587 95.6661 9.9022C95.6397 12.3445 96.542 14.7075 98.1945 16.5232C98.9956 17.3923 99.9701 18.0882 101.057 18.5669C102.143 19.0456 103.318 19.2968 104.507 19.3047C106.238 19.365 107.93 18.7947 109.263 17.7024L109.41 17.5849L108.835 17.0011L108.728 17.0912Z" fill="white"/>
<path d="M104.508 19.4422C103.3 19.4361 102.107 19.1834 101.003 18.7001C99.8988 18.2167 98.9077 17.513 98.0916 16.6332C96.4133 14.787 95.4981 12.3846 95.5275 9.90256C95.5015 7.45623 96.4182 5.0918 98.0916 3.28943C98.9092 2.41299 99.9011 1.71286 101.005 1.23288C102.109 0.752894 103.302 0.503399 104.508 0.500011C106.229 0.497318 107.912 1.00498 109.338 1.95741L109.632 2.14937L108.839 3.07004L108.605 2.91725C107.414 2.0702 105.974 1.63382 104.508 1.67533C100.604 1.67533 97.8776 5.06025 97.8776 9.90256C97.8776 14.8115 100.604 18.2395 104.508 18.2395C106.01 18.2395 107.226 18.0279 108.645 16.9662L108.867 16.8017L109.628 17.5852L109.366 17.7968C108.005 18.9128 106.275 19.4943 104.508 19.4305M104.508 0.762498C103.338 0.768849 102.183 1.01359 101.114 1.48141C100.045 1.94924 99.0846 2.63009 98.2937 3.4814C96.6693 5.23165 95.7795 7.52739 95.805 9.90256C95.7784 12.3096 96.6665 14.6388 98.2937 16.4295C99.0838 17.2821 100.044 17.964 101.113 18.4326C102.182 18.9011 103.338 19.1462 104.508 19.1523C106.211 19.216 107.878 18.6582 109.192 17.5852L109.22 17.5578L108.823 17.166L108.795 17.1856C107.317 18.2904 106.053 18.5137 104.492 18.5137C100.442 18.5216 97.5922 14.9956 97.5922 9.90256C97.5922 4.80951 100.434 1.39717 104.5 1.39717C106.02 1.35083 107.514 1.79955 108.752 2.67435H108.78L109.212 2.1768L109.176 2.15329C107.794 1.2435 106.168 0.763229 104.508 0.774252" fill="white"/>
<path d="M119.718 0.770508L111.887 19.3053H113.048L116.19 11.8616H124.077L127.061 19.3053H128.84L121.315 0.770508H119.718ZM116.492 11.1251L120.221 2.21615L123.787 11.1251H116.492Z" fill="white"/>
<path d="M129.038 19.4418H126.962L123.978 11.9981H116.278L113.139 19.4418H111.681L119.626 0.632812H121.41L121.445 0.719003L129.038 19.4418ZM127.148 19.1676H128.63L121.219 0.891383H119.809L112.097 19.1676H112.953L116.095 11.7239H124.164L127.148 19.1676ZM123.998 11.2616H116.282L120.225 1.85906L123.998 11.2616ZM116.698 10.9874H123.589L120.221 2.57992L116.698 10.9874Z" fill="white"/>
<path d="M86.1552 12.2259C88.2318 12.0261 91.7033 11.0193 91.7033 6.50998C91.7073 1.18579 86.6308 0.770508 85.0773 0.770508H78.0708V19.3053H79.9572V12.3043H83.9201L90.7086 19.3053H92.7496L85.9888 12.2534L86.1552 12.2259ZM79.9572 11.3915V1.6755H85.0773C87.9584 1.6755 89.8328 3.57952 89.8328 6.52957C89.8328 9.47962 87.9663 11.4111 85.0773 11.4111L79.9572 11.3915Z" fill="white"/>
<path d="M93.0746 19.4418H90.6492L83.8726 12.4408H80.0959V19.4418H77.9321V0.632812H85.0654C86.6506 0.632812 91.8342 1.05593 91.8342 6.5094C91.8342 11.0422 88.4062 12.1196 86.286 12.3468L93.0746 19.4418ZM90.7681 19.1676H92.4405L85.7035 12.1157L86.1553 12.0765C88.1803 11.8806 91.5805 10.9012 91.5805 6.49765C91.5686 1.31058 86.5991 0.891383 85.0773 0.891383H78.2095V19.1676H79.8185V12.1666H83.9915L90.7681 19.1676ZM85.0773 11.528H79.8185V1.51822H85.0773C88.0456 1.51822 89.9636 3.47708 89.9636 6.5094C89.9636 9.54173 88.0456 11.528 85.0773 11.528ZM80.0959 11.2538H85.0773C87.8752 11.2538 89.6862 9.39285 89.6862 6.5094C89.6862 3.62596 87.8752 1.80813 85.0773 1.80813H80.0959V11.2538Z" fill="white"/>
<path d="M64.8861 0.636719C63.6973 0.6369 62.5216 0.882689 61.4344 1.35833C60.3473 1.83396 59.3727 2.52895 58.5731 3.39872C56.8968 5.21754 55.983 7.59854 56.017 10.0589C55.9914 12.4663 56.9071 14.7905 58.5731 16.5466C59.3686 17.4175 60.3401 18.1137 61.4248 18.5902C62.5095 19.0667 63.6833 19.3129 64.8703 19.3129C66.0572 19.3129 67.231 19.0667 68.3157 18.5902C69.4004 18.1137 70.3719 17.4175 71.1674 16.5466C72.8363 14.792 73.7537 12.4671 73.7275 10.0589C73.76 7.59808 72.8448 5.21715 71.1674 3.39872C70.3711 2.5347 69.4011 1.84451 68.3195 1.37228C67.2379 0.900057 66.0685 0.6562 64.8861 0.656307M64.8861 18.4115C60.8835 18.4115 58.0897 14.9795 58.0897 10.0706C58.0897 5.06375 60.8835 1.56914 64.8861 1.56914C68.8887 1.56914 71.6548 5.06375 71.6548 10.0706C71.6548 14.9795 68.8808 18.4115 64.8861 18.4115Z" fill="white"/>
<path d="M64.8861 19.4417C63.6781 19.442 62.4835 19.1922 61.3792 18.7084C60.2748 18.2246 59.2852 17.5175 58.474 16.6327C56.7813 14.8526 55.8511 12.4939 55.8783 10.0509C55.8456 7.55788 56.7736 5.14595 58.474 3.30458C59.2828 2.42061 60.2701 1.71405 61.3721 1.23048C62.4742 0.746912 63.6665 0.49707 64.8722 0.49707C66.0779 0.49707 67.2702 0.746912 68.3723 1.23048C69.4743 1.71405 70.4616 2.42061 71.2704 3.30458C72.9698 5.14496 73.8977 7.55531 73.8661 10.047C73.8904 12.4895 72.9606 14.8471 71.2704 16.6288C70.4633 17.5113 69.4783 18.2171 68.3788 18.7009C67.2793 19.1847 66.0895 19.4357 64.8861 19.4378M64.8861 0.76981C63.7161 0.770528 62.5593 1.01313 61.4898 1.48205C60.4204 1.95096 59.462 2.63582 58.6761 3.49263C57.0238 5.28288 56.1227 7.62768 56.1557 10.0509C56.1302 12.4238 57.0332 14.7146 58.6761 16.4446C59.4586 17.3019 60.4145 17.9872 61.4818 18.4563C62.5491 18.9254 63.7042 19.1678 64.8722 19.1678C66.0402 19.1678 67.1953 18.9254 68.2626 18.4563C69.3299 17.9872 70.2857 17.3019 71.0683 16.4446C72.7105 14.7141 73.6134 12.4236 73.5887 10.0509C73.6197 7.62803 72.7188 5.28392 71.0683 3.49263C70.2861 2.63881 69.3322 1.95592 68.2676 1.48771C67.203 1.01951 66.0512 0.776321 64.8861 0.773728M64.8861 18.5289C60.8003 18.5289 57.9509 15.0421 57.9509 10.0509C57.9509 4.95786 60.8003 1.43191 64.8861 1.43191C68.9719 1.43191 71.7935 4.98137 71.7935 10.0509C71.7935 15.0421 68.952 18.5289 64.8861 18.5289ZM64.8861 1.68264C60.9667 1.68264 58.2283 5.12241 58.2283 10.047C58.2283 14.8775 60.9667 18.2507 64.8861 18.2507C68.8054 18.2507 71.5161 14.8775 71.5161 10.047C71.5161 5.12632 68.7896 1.67481 64.8861 1.67481" fill="white"/>
<path d="M60.4673 28.5938V30.8387H62.9917V31.489H60.4673V33.7809H63.2771V34.4704H59.6113V27.9043H63.2771V28.5938H60.4673Z" fill="white"/>
<path d="M63.3881 34.5843H59.5005V27.7949H63.3881V28.7078H60.5784V30.7332H63.1147V31.603H60.5784V33.6754H63.3881V34.5843ZM59.7224 34.365H63.1662V33.8948H60.3406V31.3796H62.865V30.9487H60.3406V28.4844H63.1504V28.0143H59.7066L59.7224 34.365Z" fill="white"/>
<path d="M71.1833 33.6319C71.0209 33.9103 70.7818 34.1372 70.4938 34.2862C70.1419 34.4627 69.7508 34.5489 69.3564 34.5369C68.9469 34.5475 68.5403 34.4658 68.1675 34.2979C67.8417 34.1551 67.559 33.931 67.3472 33.6476C67.1411 33.3707 67.0175 33.0422 66.9905 32.6995H67.906C67.9274 32.8934 67.9938 33.0798 68.1001 33.2441C68.2154 33.4289 68.3781 33.5803 68.5717 33.6828C68.7974 33.8044 69.052 33.8639 69.3088 33.8552C69.4662 33.865 69.624 33.8437 69.773 33.7926C69.922 33.7415 70.0593 33.6615 70.1767 33.5575C70.277 33.4572 70.3554 33.3376 70.4072 33.2063C70.459 33.0749 70.483 32.9344 70.4779 32.7935C70.4901 32.5587 70.4155 32.3275 70.2679 32.1432C70.1251 31.9758 69.9464 31.8419 69.7448 31.7514C69.4698 31.6275 69.1864 31.5228 68.8967 31.438C68.5505 31.3287 68.2116 31.1978 67.8822 31.0462C67.6229 30.9213 67.3994 30.7341 67.2322 30.5017C67.0408 30.2185 66.9463 29.882 66.9628 29.5418C66.9562 29.2239 67.0429 28.9109 67.2124 28.6407C67.3858 28.3729 67.6353 28.1616 67.9297 28.0335C68.2757 27.8843 68.6501 27.8108 69.0275 27.818C69.5853 27.7875 70.136 27.9541 70.5809 28.2881C70.7704 28.4335 70.9286 28.6147 71.0463 28.8212C71.164 29.0277 71.2389 29.2554 71.2665 29.4909H70.3432C70.292 29.224 70.1526 28.9815 69.9469 28.8014C69.6983 28.5918 69.3774 28.4851 69.0512 28.5036C68.751 28.4856 68.455 28.5808 68.223 28.77C68.1177 28.8638 68.035 28.9797 67.9808 29.1091C67.9266 29.2386 67.9024 29.3784 67.9099 29.5183C67.9007 29.7425 67.9739 29.9624 68.116 30.1373C68.25 30.3055 68.4225 30.4397 68.6193 30.5291C68.8898 30.6452 69.1662 30.7472 69.4475 30.8347C69.799 30.9436 70.1431 31.0745 70.4779 31.2264C70.7444 31.3559 70.9735 31.55 71.1437 31.7906C71.3387 32.0884 71.4343 32.4392 71.4171 32.7935C71.4189 33.0966 71.3411 33.3949 71.1912 33.6593" fill="white"/>
<path d="M69.3562 34.6466C68.9359 34.6544 68.519 34.5701 68.1356 34.3997C67.7933 34.2458 67.496 34.0086 67.2717 33.7102C67.0496 33.4194 66.9125 33.0738 66.8754 32.7112V32.5897H68.0128V32.6916C68.032 32.869 68.0931 33.0394 68.1911 33.1892C68.2998 33.3533 68.4483 33.488 68.6231 33.5809C68.8325 33.6913 69.0675 33.7453 69.3047 33.7376C69.4481 33.748 69.5922 33.7297 69.7283 33.6839C69.8645 33.6382 69.9899 33.5658 70.0973 33.4712C70.1878 33.3817 70.2586 33.2745 70.305 33.1565C70.3514 33.0384 70.3724 32.9121 70.3668 32.7856C70.3784 32.5764 70.3121 32.3701 70.1805 32.2058C70.0486 32.0495 69.8836 31.9237 69.697 31.8375C69.4252 31.7182 69.1459 31.6161 68.8608 31.532C68.511 31.4219 68.1683 31.2911 67.8344 31.1402C67.5589 31.0056 67.3209 30.8066 67.1409 30.5604C66.9375 30.2569 66.8363 29.8977 66.8516 29.5339C66.8459 29.1955 66.9381 28.8625 67.1171 28.5741C67.3061 28.2853 67.5779 28.0589 67.8978 27.9237C68.2584 27.7666 68.6492 27.6891 69.0431 27.6965C69.6272 27.6672 70.2029 27.8435 70.6679 28.1941C70.8671 28.353 71.0324 28.5495 71.1542 28.7721C71.2759 28.9947 71.3518 29.239 71.3773 29.4908V29.6162H70.2479V29.5261C70.1968 29.2823 70.0659 29.062 69.8754 28.8992C69.6459 28.7105 69.3531 28.614 69.055 28.6289C68.7818 28.6157 68.513 28.7006 68.2981 28.8679C68.205 28.9516 68.1321 29.0549 68.0847 29.1702C68.0374 29.2854 68.0169 29.4097 68.0247 29.5339C68.0142 29.7322 68.0776 29.9273 68.203 30.0824C68.3297 30.23 68.4881 30.3478 68.6667 30.4272C68.9342 30.5416 69.2081 30.641 69.487 30.7249C69.8438 30.8335 70.1932 30.9643 70.5332 31.1167C70.8149 31.2557 71.0573 31.4617 71.2386 31.7161C71.4465 32.0323 71.5491 32.405 71.5319 32.7817C71.5346 33.1043 71.4512 33.4219 71.2901 33.7024C71.1199 33.9983 70.8666 34.2391 70.5609 34.3958C70.1936 34.5819 69.7847 34.6736 69.3721 34.6622M67.1488 32.8287C67.1882 33.1116 67.297 33.3806 67.4659 33.6123C67.6715 33.8828 67.9446 34.0961 68.2585 34.2313C68.6139 34.3869 68.9992 34.4644 69.3879 34.4585C69.7644 34.4697 70.1377 34.3876 70.4738 34.2195C70.7425 34.0807 70.9653 33.8686 71.1158 33.6084C71.2579 33.3613 71.3317 33.0816 71.3298 32.7974C71.3398 32.4563 71.2384 32.1211 71.0405 31.8415C70.882 31.6157 70.6678 31.4336 70.4183 31.3126C70.0874 31.161 69.7472 31.0302 69.3998 30.9208C69.1145 30.8336 68.8341 30.7316 68.5597 30.6152C68.3518 30.5256 68.1664 30.3918 68.0167 30.2234C67.8587 30.0284 67.7771 29.7836 67.7869 29.5339C67.7794 29.378 67.8068 29.2224 67.867 29.0782C67.9273 28.934 68.019 28.8047 68.1356 28.6994C68.3916 28.4982 68.7125 28.3952 69.0392 28.4095C69.3928 28.3926 69.7397 28.5088 70.0101 28.7347C70.2109 28.9115 70.3566 29.1411 70.4302 29.3968H71.1316C71.0563 29.001 70.8397 28.6451 70.5213 28.3939C70.1039 28.0741 69.5869 27.9079 69.059 27.9237C68.6977 27.9154 68.339 27.9863 68.0088 28.1314C67.7272 28.2513 67.4884 28.4519 67.3232 28.7073C67.1649 28.9599 67.0837 29.2524 67.0894 29.5496C67.0732 29.8674 67.1608 30.1819 67.3391 30.4468C67.4967 30.6624 67.7047 30.8371 67.9454 30.9561C68.2712 31.1069 68.606 31.2377 68.948 31.3478C69.2411 31.4357 69.5283 31.5417 69.808 31.6652C70.0244 31.7642 70.2154 31.9101 70.3668 32.0922C70.5311 32.2964 70.6155 32.5523 70.6045 32.8131C70.6099 32.9685 70.5831 33.1233 70.5259 33.2681C70.4686 33.4129 70.3821 33.5447 70.2716 33.6554C70.1442 33.7703 69.9947 33.8587 69.832 33.9152C69.6692 33.9718 69.4966 33.9953 69.3245 33.9845C69.0487 33.9914 68.7757 33.928 68.5319 33.8003C68.3231 33.6867 68.1471 33.5221 68.0207 33.3224C67.9243 33.1732 67.8584 33.0068 67.8265 32.8326L67.1488 32.8287Z" fill="white"/>
<path d="M79.458 27.9043V28.5938H77.5796V34.4704H76.7236V28.5938H74.8491V27.9043H79.458Z" fill="white"/>
<path d="M77.6942 34.5843H76.6123V28.7078H74.7378V27.7949H79.5686V28.7078H77.6942V34.5843ZM76.8342 34.365H77.4683V28.4884H79.3626V28.0182H74.9597V28.4884H76.8342V34.365Z" fill="white"/>
<path d="M83.9873 28.5938V30.8387H86.5157V31.489H83.9873V33.7809H86.7971V34.4704H83.1313V27.9043H86.7971V28.5938H83.9873Z" fill="white"/>
<path d="M86.8925 34.5843H83.0049V27.7949H86.8925V28.7078H84.1185V30.7332H86.6468V31.603H84.1185V33.6754H86.8925V34.5843ZM83.2268 34.365H86.6706V33.8948H83.8609V31.3796H86.3892V30.9487H83.8609V28.4844H86.6706V28.0143H83.2268V34.365Z" fill="white"/>
<path d="M94.7984 27.9043V28.5938H92.9239V34.4704H92.0639V28.5938H90.1895V27.9043H94.7984Z" fill="white"/>
<path d="M93.0347 34.5843H91.9528V28.7078H90.0625V27.7949H94.8933V28.7078H93.0347V34.5843ZM92.1748 34.365H92.8088V28.4884H94.6873V28.0182H90.3003V28.4884H92.1748V34.365Z" fill="white"/>
<path d="M99.3282 27.9043H98.4722V34.4704H99.3282V27.9043Z" fill="white"/>
<path d="M99.4432 34.5843H98.3613V27.7949H99.4432V34.5843ZM98.5833 34.365H99.2173V28.0143H98.5833V34.365Z" fill="white"/>
<path d="M108.479 28.4291C109.016 28.8325 109.401 29.4022 109.572 30.0471H108.689C108.53 29.6258 108.243 29.2632 107.868 29.0089C107.459 28.7403 106.976 28.6034 106.485 28.6172C106.075 28.6097 105.671 28.717 105.32 28.9267C104.97 29.1445 104.688 29.4554 104.508 29.8238C104.305 30.2497 104.204 30.7164 104.214 31.1872C104.204 31.6542 104.305 32.1171 104.508 32.5388C104.686 32.9062 104.968 33.2149 105.32 33.4282C105.671 33.6414 106.077 33.7502 106.489 33.7416C106.98 33.7553 107.463 33.6184 107.872 33.3498C108.244 33.0961 108.528 32.7367 108.689 32.3194H109.592C109.421 32.9634 109.036 33.5317 108.498 33.9335C107.915 34.3458 107.21 34.554 106.493 34.5251C105.915 34.5366 105.344 34.3902 104.845 34.102C104.367 33.8225 103.98 33.4149 103.727 32.9267C103.455 32.3911 103.319 31.7981 103.331 31.199C103.319 30.5948 103.455 29.9968 103.727 29.4556C103.98 28.9675 104.368 28.5601 104.845 28.2803C105.344 27.9921 105.915 27.8457 106.493 27.8571C107.21 27.8283 107.915 28.0364 108.498 28.4487" fill="white"/>
<path d="M106.473 34.6388C105.873 34.6483 105.282 34.4938 104.765 34.1922C104.271 33.899 103.87 33.474 103.608 32.966C103.332 32.4135 103.196 31.8032 103.212 31.1873C103.196 30.5677 103.332 29.9535 103.608 29.3969C103.869 28.8865 104.27 28.4589 104.765 28.1628C105.284 27.8662 105.874 27.7146 106.473 27.724C107.214 27.6964 107.943 27.9127 108.546 28.3391C109.099 28.7583 109.498 29.3463 109.679 30.012L109.723 30.153H108.593L108.566 30.0825C108.41 29.681 108.133 29.3363 107.773 29.0952C107.382 28.8417 106.921 28.7131 106.453 28.727C106.063 28.7218 105.68 28.8281 105.35 29.0331C105.019 29.2382 104.756 29.5332 104.591 29.8827C104.404 30.2936 104.308 30.7389 104.308 31.1893C104.308 31.6397 104.404 32.085 104.591 32.4958C104.769 32.846 105.044 33.1393 105.383 33.3421C105.716 33.5421 106.099 33.6453 106.489 33.6398C106.957 33.6537 107.417 33.5251 107.809 33.2715C108.169 33.0305 108.446 32.6858 108.601 32.2843L108.629 32.2138H109.758L109.715 32.3548C109.533 33.0205 109.135 33.6085 108.581 34.0277C107.979 34.4541 107.25 34.6704 106.509 34.6428M106.509 27.9513C105.954 27.9378 105.406 28.0732 104.924 28.343C104.449 28.6135 104.061 29.0115 103.806 29.4909C103.538 30.0138 103.402 30.5932 103.41 31.1795C103.402 31.762 103.538 32.3376 103.806 32.8563C104.05 33.3278 104.422 33.7227 104.88 33.9963C105.363 34.2662 105.911 34.4016 106.465 34.3881C107.157 34.4149 107.838 34.2152 108.403 33.82C108.88 33.4616 109.233 32.9662 109.414 32.4018H108.736C108.565 32.8142 108.276 33.1683 107.904 33.4204C107.474 33.6954 106.969 33.8323 106.457 33.8122C106.026 33.8187 105.601 33.7046 105.233 33.4831C104.867 33.2557 104.573 32.9331 104.381 32.5507C104.168 32.1134 104.062 31.6331 104.072 31.1481C104.063 30.6594 104.168 30.1753 104.381 29.7338C104.567 29.3479 104.862 29.0233 105.231 28.7989C105.599 28.5745 106.025 28.4598 106.457 28.4684C106.969 28.4501 107.473 28.5868 107.904 28.8602C108.275 29.1147 108.564 29.4698 108.736 29.8827H109.414C109.233 29.3183 108.88 28.8229 108.403 28.4645C107.839 28.0663 107.158 27.8651 106.465 27.8925" fill="white"/>
<path d="M117.443 32.9539H114.522L113.963 34.4701H113.048L115.509 28.0254H116.48L118.929 34.4701H118.006L117.443 32.9539ZM117.197 32.2918L115.98 28.9735L114.764 32.2918H117.197Z" fill="white"/>
<path d="M119.083 34.584H117.918L117.363 33.0678H114.589L114.043 34.584H112.881L115.426 27.9238H116.551L119.083 34.584ZM118.077 34.3646H118.758L116.381 28.1393H115.564L113.187 34.3646H113.872L114.427 32.8445H117.502L118.077 34.3646ZM117.356 32.4057H114.605L115.98 28.6564L117.356 32.4057ZM114.926 32.1863H117.038L115.98 29.3029L114.926 32.1863Z" fill="white"/>
<path d="M132.716 28.4291C133.251 28.8348 133.635 29.4036 133.81 30.0472H132.906C132.743 29.6237 132.451 29.2608 132.07 29.009C131.66 28.7395 131.175 28.6026 130.683 28.6172C130.274 28.6103 129.872 28.7175 129.522 28.9267C129.171 29.1445 128.89 29.4554 128.71 29.8239C128.503 30.2488 128.401 30.716 128.412 31.1872C128.401 31.6547 128.503 32.1181 128.71 32.5388C128.888 32.9062 129.17 33.2149 129.521 33.4282C129.873 33.6415 130.279 33.7503 130.691 33.7416C131.183 33.7561 131.668 33.6192 132.078 33.3498C132.452 33.0946 132.739 32.7323 132.898 32.3116H133.802C133.627 32.9542 133.243 33.5216 132.708 33.9257C132.125 34.338 131.419 34.5462 130.703 34.5173C130.124 34.5288 129.554 34.3824 129.054 34.0942C128.577 33.8146 128.189 33.4071 127.937 32.9189C127.663 32.3839 127.527 31.7905 127.54 31.1911C127.527 30.5868 127.663 29.9883 127.937 29.4478C128.19 28.9597 128.577 28.5523 129.054 28.2724C129.554 27.9843 130.124 27.8379 130.703 27.8493C131.419 27.8205 132.125 28.0286 132.708 28.4409" fill="white"/>
<path d="M130.71 34.6386C130.11 34.6486 129.519 34.494 129.002 34.192C128.507 33.9 128.106 33.4747 127.845 32.9658C127.569 32.4134 127.433 31.803 127.449 31.1871C127.433 30.5675 127.569 29.9533 127.845 29.3967C128.106 28.8863 128.507 28.4587 129.002 28.1626C129.521 27.8655 130.111 27.7138 130.71 27.7239C131.451 27.6974 132.18 27.9136 132.783 28.3389C133.337 28.7582 133.735 29.3461 133.916 30.0118L133.96 30.1528H132.827L132.799 30.0823C132.645 29.6797 132.368 29.3346 132.006 29.0951C131.614 28.841 131.152 28.7124 130.683 28.7268C130.293 28.7205 129.91 28.8237 129.577 29.0245C129.251 29.2363 128.99 29.5332 128.824 29.8825C128.627 30.2921 128.529 30.7415 128.539 31.195C128.53 31.6446 128.628 32.0901 128.824 32.4956C128.997 32.8422 129.263 33.1349 129.593 33.3419C129.926 33.5409 130.309 33.644 130.699 33.6396C131.168 33.654 131.63 33.5255 132.022 33.2714C132.384 33.0318 132.661 32.6867 132.815 32.2841L132.843 32.2136H133.976L133.932 32.3546C133.751 33.0203 133.353 33.6083 132.799 34.0275C132.196 34.4539 131.467 34.6702 130.726 34.6426M130.726 27.9511C130.172 27.9376 129.624 28.073 129.141 28.3429C128.673 28.615 128.292 29.0131 128.043 29.4908C127.775 30.0136 127.639 30.593 127.647 31.1793C127.639 31.7618 127.775 32.3374 128.043 32.8561C128.286 33.3283 128.658 33.7235 129.117 33.9961C129.6 34.2664 130.148 34.4018 130.703 34.3879C131.394 34.4147 132.075 34.215 132.64 33.8198C133.114 33.4692 133.468 32.984 133.655 32.429H132.981C132.81 32.8415 132.521 33.1955 132.149 33.4477C131.718 33.7223 131.211 33.859 130.699 33.8394C130.268 33.846 129.845 33.7319 129.478 33.5103C129.112 33.2841 128.817 32.9611 128.626 32.5779C128.412 32.1413 128.306 31.6605 128.317 31.1754C128.306 30.6865 128.412 30.2019 128.626 29.7611C128.812 29.3758 129.107 29.0516 129.474 28.8272C129.842 28.6029 130.267 28.4877 130.699 28.4956C131.211 28.4778 131.717 28.6144 132.149 28.8874C132.52 29.1419 132.809 29.497 132.981 29.9099H133.655C133.474 29.3455 133.121 28.8502 132.644 28.4917C132.081 28.0936 131.399 27.8923 130.707 27.9197" fill="white"/>
<path d="M138.645 28.5938V30.8387H141.169V31.489H138.645V33.7809H141.45V34.4704H137.789V27.9043H141.45V28.5938H138.645Z" fill="white"/>
<path d="M141.581 34.5843H137.689V27.7949H141.581V28.7078H138.771V30.7332H141.296V31.603H138.771V33.6754H141.581V34.5843ZM137.915 34.365H141.355V33.8948H138.549V31.3796H141.074V30.9487H138.549V28.4844H141.355V28.0143H137.915V34.365Z" fill="white"/>
<path d="M148.904 34.4703L147.173 31.7866H146.237V34.4703H145.381V27.9238H147.569C148.183 27.8776 148.791 28.0686 149.265 28.4566C149.454 28.6418 149.601 28.864 149.698 29.1089C149.795 29.3538 149.839 29.616 149.828 29.8787C149.85 30.3497 149.688 30.8112 149.376 31.1676C149.028 31.5194 148.564 31.7363 148.068 31.7788L149.875 34.4899L148.904 34.4703ZM146.237 31.1716H147.494C148.465 31.1716 148.952 30.7524 148.952 29.9061C148.952 29.0599 148.465 28.6407 147.494 28.6407H146.237V31.1716Z" fill="white"/>
<path d="M150.086 34.5842H148.845L147.129 31.8967H146.337V34.5842H145.255V27.7948H147.553C148.196 27.7476 148.831 27.95 149.325 28.359C149.526 28.5533 149.684 28.7873 149.788 29.0458C149.891 29.3044 149.939 29.5816 149.927 29.8595C149.948 30.3582 149.775 30.8459 149.444 31.2228C149.126 31.5509 148.708 31.7681 148.255 31.8418L150.086 34.5842ZM148.968 34.3648H149.67L147.878 31.6812L148.053 31.6538C148.526 31.607 148.967 31.396 149.297 31.0583C149.588 30.721 149.738 30.2867 149.717 29.8438C149.728 29.5962 149.687 29.349 149.595 29.1183C149.504 28.8875 149.364 28.6782 149.186 28.5039C148.734 28.1339 148.154 27.9526 147.569 27.9985H145.493V34.3453H146.127V31.6773H147.232L148.968 34.3648ZM147.494 31.2855H146.127V28.5431H147.494C148.794 28.5431 149.079 29.2953 149.079 29.9221C149.079 30.549 148.81 31.2973 147.494 31.2973M146.337 31.0583H147.478C148.386 31.0583 148.826 30.6665 148.826 29.883C148.826 29.0994 148.386 28.7076 147.478 28.7076H146.337V31.0583Z" fill="white"/>
<path d="M157.595 32.9539H154.659L154.1 34.4701H153.192L155.653 28.0254H156.64L159.089 34.4701H158.166L157.595 32.9539ZM157.35 32.2918L156.133 28.9735L154.916 32.2918H157.35Z" fill="white"/>
<path d="M159.236 34.584H158.071L157.516 33.0678H154.742L154.195 34.584H153.034L155.578 27.9238H156.7L159.236 34.584ZM158.226 34.3607H158.911L156.533 28.1354H155.729L153.351 34.3607H154.037L154.592 32.8406H157.671L158.226 34.3607ZM157.504 32.4018H154.754L156.129 28.6525L157.504 32.4018ZM155.075 32.1824H157.187L156.129 29.299L155.075 32.1824Z" fill="white"/>
<path d="M169.421 28.0137V34.4701H168.565V29.3183L166.48 34.4701H165.716L163.627 29.3379V34.4701H162.767V28.0137H163.797L166.112 33.4358L168.394 28.0137H169.421Z" fill="white"/>
<path d="M169.532 34.584H168.45V29.8827L166.547 34.584H165.632L163.73 29.9101V34.584H162.648V27.9238H163.861L166.104 33.1697L168.319 27.9238H169.532V34.584ZM168.676 34.3646H169.322V28.1236H168.481L166.116 33.7221L163.738 28.1236H162.894V34.3607H163.528V28.7701L165.81 34.3607H166.421L168.691 28.7466L168.676 34.3646Z" fill="white"/>
<path d="M174.478 27.9043H173.622V34.4704H174.478V27.9043Z" fill="white"/>
<path d="M174.593 34.5843H173.511V27.7949H174.593V34.5843ZM173.737 34.365H174.371V28.0143H173.737V34.365Z" fill="white"/>
<path d="M183.632 28.4293C184.167 28.835 184.551 29.4037 184.726 30.0473H183.818C183.662 29.6255 183.377 29.2624 183.002 29.0091C182.592 28.7397 182.107 28.6028 181.615 28.6173C181.205 28.6107 180.801 28.7179 180.45 28.9268C180.107 29.1482 179.833 29.4586 179.657 29.824C179.451 30.2489 179.349 30.7161 179.36 31.1874C179.349 31.6549 179.451 32.1182 179.657 32.539C179.835 32.9069 180.117 33.2162 180.468 33.4296C180.82 33.643 181.226 33.7514 181.639 33.7417C182.131 33.7563 182.616 33.6194 183.026 33.3499C183.4 33.0957 183.685 32.7329 183.842 32.3118H184.75C184.575 32.9543 184.19 33.5218 183.656 33.9259C183.062 34.35 182.339 34.5614 181.607 34.5253C181.029 34.5355 180.459 34.3892 179.958 34.1022C179.483 33.8205 179.096 33.4135 178.841 32.9268C178.569 32.3912 178.433 31.7983 178.445 31.1991C178.433 30.595 178.569 29.9969 178.841 29.4557C179.096 28.9694 179.483 28.5626 179.958 28.2804C180.457 27.9865 181.027 27.8334 181.607 27.8377C182.325 27.8083 183.032 28.0164 183.616 28.4293" fill="white"/>
<path d="M181.607 34.6387C181.009 34.6493 180.419 34.4961 179.903 34.196C179.406 33.9042 179.004 33.479 178.742 32.9698C178.466 32.4174 178.33 31.807 178.345 31.1911C178.33 30.5715 178.466 29.9573 178.742 29.4007C179.004 28.8901 179.407 28.4626 179.903 28.1666C180.42 27.8696 181.009 27.7179 181.607 27.7279C182.349 27.7008 183.079 27.917 183.684 28.3429C184.236 28.7634 184.634 29.3509 184.817 30.0158L184.857 30.1568H183.727L183.699 30.0863C183.544 29.6845 183.267 29.3398 182.907 29.0991C182.514 28.8454 182.052 28.7169 181.583 28.7308C181.197 28.729 180.818 28.8365 180.492 29.0406C180.165 29.2447 179.904 29.5368 179.74 29.8826C179.542 30.2916 179.444 30.7414 179.455 31.195C179.444 31.6449 179.542 32.0908 179.74 32.4957C179.909 32.8423 180.174 33.134 180.505 33.3361C180.836 33.5381 181.218 33.6421 181.607 33.6358C182.076 33.6497 182.538 33.5212 182.931 33.2675C183.291 33.0268 183.568 32.6821 183.723 32.2803L183.751 32.2097H184.88L184.841 32.3508C184.657 33.0152 184.259 33.6024 183.707 34.0236C183.096 34.4546 182.357 34.6711 181.607 34.6387ZM181.607 27.9472C181.052 27.9326 180.504 28.068 180.022 28.339C179.565 28.6171 179.195 29.0161 178.956 29.4908C178.687 30.0137 178.551 30.5931 178.559 31.1794C178.551 31.7619 178.687 32.3375 178.956 32.8562C179.195 33.3315 179.564 33.7307 180.022 34.008C180.504 34.279 181.052 34.4144 181.607 34.3997C182.3 34.4253 182.982 34.2258 183.549 33.8317C184.024 33.473 184.376 32.9776 184.555 32.4135H183.878C183.708 32.8256 183.42 33.1797 183.049 33.4321C182.618 33.7067 182.112 33.8434 181.599 33.8238C181.169 33.8304 180.746 33.7163 180.378 33.4947C180.012 33.2685 179.717 32.9455 179.526 32.5623C179.312 32.1257 179.206 31.6449 179.217 31.1598C179.206 30.6709 179.312 30.1863 179.526 29.7455C179.718 29.3648 180.015 29.0463 180.384 28.8276C180.753 28.6089 181.177 28.4992 181.607 28.5114C182.119 28.4936 182.625 28.6302 183.057 28.9032C183.427 29.1579 183.715 29.513 183.886 29.9257H184.563C184.384 29.3616 184.032 28.8661 183.557 28.5075C182.991 28.1093 182.308 27.9081 181.615 27.9355" fill="white"/>
<path d="M192.592 32.9539H189.671L189.136 34.4701H188.213L190.67 28.0254H191.641L194.094 34.4701H193.167L192.592 32.9539ZM192.346 32.2918L191.118 28.9735L189.929 32.2918H192.346Z" fill="white"/>
<path d="M194.233 34.584H193.072L192.513 33.0678H189.739L189.192 34.584H188.031L190.575 27.9238H191.7L194.233 34.584ZM193.226 34.3646H193.912L191.534 28.1393H190.722L188.344 34.3646H189.029L189.584 32.8445H192.663L193.226 34.3646ZM192.505 32.4057H189.759L191.118 28.6525L192.505 32.4057ZM190.076 32.1863H192.188L191.118 29.299L190.076 32.1863Z" fill="white"/>
<path d="M126.359 37.8633H123.831V44.5038H126.359V37.8633Z" fill="#009247"/>
<path d="M128.899 37.8633H126.371V44.5038H128.899V37.8633Z" fill="white"/>
<path d="M131.377 37.8633H128.848V44.5038H131.377V37.8633Z" fill="#CE2A37"/>
<path d="M194.815 41.0713H133.647V41.2907H194.815V41.0713Z" fill="white"/>
<path d="M120.772 41.0713H59.6035V41.2907H120.772V41.0713Z" fill="white"/>
</g>
<defs>
<clipPath id="clip0_180_229">
<rect width="255" height="44" fill="white" transform="translate(0.5 0.5)"/>
</clipPath>
</defs>
</svg>
