<svg width="24" height="24" viewBox="0 0 24 24" fill="none" xmlns="http://www.w3.org/2000/svg"><path d="M20.229 16.389a.727.727 0 0 0 .244-.281.865.865 0 0 0 .09-.386l.012-4.463c0-.135.031-.268.09-.385a.726.726 0 0 1 .245-.281L23 9.2a.599.599 0 0 1 .333-.102.6.6 0 0 1 .333.104.728.728 0 0 1 .244.281c.058.117.09.25.089.386v8.114a.867.867 0 0 1-.09.386.728.728 0 0 1-.245.283l-7.893 5.245a.598.598 0 0 1-.331.102.598.598 0 0 1-.331-.102L8.915 19.8a.728.728 0 0 1-.246-.282.867.867 0 0 1-.09-.387v-4.092c0-.005.004-.007.008-.005s.008 0 .008-.006v-.005c0-.003.002-.005.004-.008l5.102-3.39c.004-.003.002-.01-.003-.01l-.002-.002-.002-.001v-.002l-.001-.003.01-4.01c0-.137-.03-.27-.089-.388a.728.728 0 0 0-.244-.284.599.599 0 0 0-.333-.103.599.599 0 0 0-.334.103l-3.791 2.53a.599.599 0 0 1-.333.102.599.599 0 0 1-.332-.103L4.443 6.921a.599.599 0 0 0-.333-.103.6.6 0 0 0-.333.104.728.728 0 0 0-.243.281.866.866 0 0 0-.09.385v7.25c0 .136-.03.268-.089.386a.728.728 0 0 1-.243.282.598.598 0 0 1-.332.104.6.6 0 0 1-.333-.102L.336 14.112a.727.727 0 0 1-.246-.282.867.867 0 0 1-.09-.39L.019.77c0-.136.031-.268.09-.385A.728.728 0 0 1 .352.104.6.6 0 0 1 .684 0a.6.6 0 0 1 .333.102l7.23 4.804a.599.599 0 0 0 .332.103.599.599 0 0 0 .333-.103L16.14.102A.598.598 0 0 1 16.473 0c.117 0 .232.036.333.104a.728.728 0 0 1 .244.282c.058.118.088.25.088.386v12.675c0 .135-.03.268-.089.386a.728.728 0 0 1-.245.282l-3.785 2.522a.729.729 0 0 0-.245.284.867.867 0 0 0 .001.773.73.73 0 0 0 .247.282l2.088 1.376a.6.6 0 0 0 .33.1.598.598 0 0 0 .332-.103l4.457-2.962v.002Zm.438-11.37c0 .136.03.27.09.387.06.118.145.215.248.282a.598.598 0 0 0 .336.1.601.601 0 0 0 .334-.109l2.001-1.388a.731.731 0 0 0 .237-.281.867.867 0 0 0 .087-.38V.801a.865.865 0 0 0-.091-.388.726.726 0 0 0-.247-.282.598.598 0 0 0-.671.01l-2 1.387a.731.731 0 0 0-.238.282.869.869 0 0 0-.086.38v2.83-.001Z" fill="#626262"/></svg>