<svg width="24" height="26" viewBox="0 0 24 26" fill="none" xmlns="http://www.w3.org/2000/svg"><path fill-rule="evenodd" clip-rule="evenodd" d="M24 6.963 12 0 0 6.963v12.074l1.858 1.078 3.796-1.528a2.755 2.755 0 0 0 1.73-2.554v-9.46h1.847v9.46a4.591 4.591 0 0 1-2.884 4.256l-2.473.996L12 26l12-6.963V6.963Zm-12.923 3.282c0-2.028 1.653-3.673 3.692-3.673h2.154a3.376 3.376 0 0 1 3.385 3.367v.306h-1.846V9.94c0-.845-.69-1.53-1.539-1.53H14.77a1.84 1.84 0 0 0-1.846 1.836c0 1.015.827 1.837 1.846 1.837h1.846c2.04 0 3.693 1.644 3.693 3.673 0 2.028-1.653 3.673-3.693 3.673H14.77c-2.039 0-3.692-1.645-3.692-3.673h1.846c0 1.014.827 1.836 1.846 1.836h1.846c1.02 0 1.847-.822 1.847-1.836a1.841 1.841 0 0 0-1.847-1.837H14.77c-2.039 0-3.692-1.644-3.692-3.673Z" fill="#626262"/></svg>