<svg width="1233" height="694" viewBox="0 0 1233 694" fill="none" xmlns="http://www.w3.org/2000/svg">
<g clip-path="url(#clip0_2005_3169)">
<path d="M344.333 113H1124L779.667 1045H0L344.333 113Z" fill="#F9FCFF"/>
<path d="M894.333 -327H1674L1329.67 605H550L894.333 -327Z" fill="#E6F4FF" fill-opacity="0.5"/>
<path d="M357.495 512V468.387H146.066V418.611L362.236 184.901H419.596V415.293H448.988V468.387H419.596V512H357.495ZM225.233 415.293H357.495V272.128L225.233 415.293ZM668.502 238.47C659.337 235.941 646.853 234.677 631.051 234.677C615.249 234.677 602.608 235.941 593.127 238.47C583.962 240.682 575.587 245.738 568.002 253.639C560.417 261.54 555.044 273.234 551.884 288.72C548.724 303.889 547.143 323.958 547.143 348.925C547.143 372.944 548.724 392.538 551.884 407.708C555.044 422.877 560.259 434.413 567.528 442.314C575.113 450.215 583.646 455.587 593.127 458.432C602.924 460.96 615.566 462.224 631.051 462.224C651.91 462.224 667.87 459.696 678.931 454.639C690.308 449.267 699.157 438.363 705.478 421.929C711.799 405.179 714.959 380.844 714.959 348.925C714.959 323.958 713.379 303.889 710.219 288.72C707.374 273.234 702.002 261.54 694.101 253.639C686.516 245.738 677.983 240.682 668.502 238.47ZM631.051 519.111C604.504 519.111 582.224 516.425 564.209 511.052C546.195 505.679 530.867 496.514 518.226 483.557C505.584 470.599 496.261 453.217 490.257 431.41C484.568 409.288 481.724 381.793 481.724 348.925C481.724 315.109 484.726 286.981 490.731 264.543C497.051 241.788 506.849 224.248 520.122 211.922C533.396 199.281 548.724 190.432 566.106 185.375C583.804 180.319 605.452 177.79 631.051 177.79C656.966 177.79 678.615 180.319 695.997 185.375C713.695 190.432 729.023 199.281 741.98 211.922C755.254 224.248 764.893 241.788 770.898 264.543C777.219 286.981 780.379 315.109 780.379 348.925C780.379 392.538 774.848 426.828 763.787 451.795C753.042 476.762 737.082 494.302 715.907 504.415C695.049 514.212 666.764 519.111 631.051 519.111ZM1026.91 512V468.387H815.485V418.611L1031.65 184.901H1089.02V415.293H1118.41V468.387H1089.02V512H1026.91ZM894.652 415.293H1026.91V272.128L894.652 415.293Z" fill="#00417B" fill-opacity="0.05"/>
</g>
<defs>
<clipPath id="clip0_2005_3169">
<rect width="1233" height="694" fill="white"/>
</clipPath>
</defs>
</svg>
