<svg width="1005" height="569" viewBox="0 0 1005 569" fill="none" xmlns="http://www.w3.org/2000/svg">
<path d="M228.495 417V373.387H17.066V323.611L233.236 89.9012H290.596V320.293H319.988V373.387H290.596V417H228.495ZM96.2334 320.293H228.495V177.128L96.2334 320.293ZM539.502 143.47C530.337 140.941 517.853 139.677 502.051 139.677C486.249 139.677 473.608 140.941 464.127 143.47C454.962 145.682 446.587 150.738 439.002 158.639C431.417 166.54 426.044 178.234 422.884 193.72C419.724 208.889 418.143 228.958 418.143 253.925C418.143 277.944 419.724 297.538 422.884 312.708C426.044 327.877 431.259 339.413 438.528 347.314C446.113 355.215 454.646 360.587 464.127 363.432C473.924 365.96 486.566 367.224 502.051 367.224C522.91 367.224 538.87 364.696 549.931 359.639C561.308 354.267 570.157 343.363 576.478 326.929C582.799 310.179 585.959 285.844 585.959 253.925C585.959 228.958 584.379 208.889 581.219 193.72C578.374 178.234 573.002 166.54 565.101 158.639C557.516 150.738 548.983 145.682 539.502 143.47ZM502.051 424.111C475.504 424.111 453.224 421.425 435.209 416.052C417.195 410.679 401.867 401.514 389.226 388.557C376.584 375.599 367.261 358.217 361.257 336.41C355.568 314.288 352.724 286.793 352.724 253.925C352.724 220.109 355.726 191.981 361.731 169.543C368.051 146.788 377.849 129.248 391.122 116.922C404.396 104.281 419.724 95.4319 437.106 90.3753C454.804 85.3187 476.452 82.7904 502.051 82.7904C527.966 82.7904 549.615 85.3187 566.997 90.3753C584.695 95.4319 600.023 104.281 612.98 116.922C626.254 129.248 635.893 146.788 641.898 169.543C648.219 191.981 651.379 220.109 651.379 253.925C651.379 297.538 645.848 331.828 634.787 356.795C624.042 381.762 608.082 399.302 586.907 409.415C566.049 419.212 537.764 424.111 502.051 424.111ZM897.914 417V373.387H686.485V323.611L902.655 89.9012H960.015V320.293H989.407V373.387H960.015V417H897.914ZM765.652 320.293H897.914V177.128L765.652 320.293Z" fill="#00417B" fill-opacity="0.05"/>
</svg>
