<svg width="24" height="24" viewBox="0 0 24 24" fill="none" xmlns="http://www.w3.org/2000/svg"><path fill-rule="evenodd" clip-rule="evenodd" d="m9.571 9.087 2.236-2.021a4.775 4.775 0 0 1 3.83-1.19l2.957.39 4.104-2.218a.398.398 0 0 1 .588.35v7.543a1.592 1.592 0 0 1-.665 1.294l-2.764 1.977-2.993-2.508a3.978 3.978 0 0 0 1.538-1.003.996.996 0 1 0-1.433-1.383 1.928 1.928 0 0 1-1.038.582c-.348.069-.792.057-1.35-.114l-.71-.597-1.984 1.605a1.783 1.783 0 0 1-2.316-2.707ZM8.238 7.609l1.604-1.45a4.877 4.877 0 0 0-2.117-.101l-2.921.505L1.598 4.84A.406.406 0 0 0 1 5.197v6.742c0 .539.266 1.04.71 1.344l8.683 5.92a3.252 3.252 0 0 0 3.714-.036l3.99-2.832-4.25-3.566-.708.57a3.773 3.773 0 0 1-4.903-5.732l.002.002Z" fill="#0475C7"/></svg>