<svg width="24" height="24" viewBox="0 0 24 24" fill="none" xmlns="http://www.w3.org/2000/svg">
<path fill-rule="evenodd" clip-rule="evenodd" d="M9.57143 9.08676L11.8069 7.06562C12.3208 6.60154 12.9295 6.25476 13.5908 6.04933C14.2521 5.8439 14.9501 5.78472 15.6366 5.8759L18.5937 6.26676L22.6977 4.04848C22.7583 4.01545 22.8265 3.99877 22.8955 4.00007C22.9645 4.00137 23.032 4.02061 23.0913 4.05589C23.1506 4.09117 23.1997 4.14128 23.2338 4.2013C23.2679 4.26132 23.2858 4.32917 23.2857 4.39819V11.941C23.2857 12.1941 23.2253 12.4435 23.1096 12.6686C22.9939 12.8937 22.8263 13.088 22.6206 13.2353L19.8571 15.2119L16.864 12.7039C17.4477 12.4941 17.9743 12.1506 18.4017 11.701C18.5852 11.511 18.6856 11.2559 18.681 10.9918C18.6763 10.7277 18.5669 10.4762 18.3769 10.2928C18.1868 10.1093 17.9317 10.0089 17.6676 10.0135C17.4035 10.0182 17.152 10.1276 16.9686 10.3176C16.6737 10.6245 16.3326 10.8216 15.9314 10.9005C15.5834 10.969 15.1394 10.957 14.5806 10.7856L13.8709 10.189L11.8874 11.7936C11.526 12.0824 11.0666 12.2193 10.6061 12.1756C10.1456 12.1319 9.72013 11.911 9.41952 11.5594C9.11891 11.2078 8.96671 10.7532 8.99505 10.2915C9.0234 9.8298 9.23007 9.39891 9.57143 9.08676ZM8.23771 7.60905L9.84229 6.15876C9.15252 5.97025 8.42974 5.93572 7.72514 6.05762L4.804 6.56333L1.59829 4.83876C1.53637 4.80556 1.4669 4.78898 1.39666 4.79065C1.32643 4.79231 1.25782 4.81216 1.19755 4.84825C1.13727 4.88435 1.08739 4.93546 1.05276 4.99659C1.01814 5.05772 0.99996 5.12679 1 5.19705V11.9393C1 12.4776 1.26571 12.9799 1.70971 13.2833L10.3926 19.2028C10.9414 19.5768 11.5915 19.7739 12.2556 19.7674C12.9198 19.761 13.566 19.5514 14.1074 19.1668L18.0966 16.3348L13.8469 12.769L13.1389 13.3382C12.3741 13.9487 11.4022 14.2382 10.428 14.1457C9.45392 14.0532 8.55384 13.5858 7.91773 12.8423C7.28162 12.0988 6.95924 11.1372 7.01862 10.1605C7.078 9.18377 7.5145 8.26833 8.236 7.60733L8.23771 7.60905Z" fill="#0475C7"/>
</svg>
