<svg width="191" height="42" viewBox="0 0 191 42" fill="none" xmlns="http://www.w3.org/2000/svg"><path d="M22.922 32.003c4.903-.626 8.864-4.616 9.49-9.559a11.189 11.189 0 0 0-.495-5.013 11.119 11.119 0 0 0-2.642-4.278 11.014 11.014 0 0 0-4.247-2.661 10.951 10.951 0 0 0-4.976-.498c-4.907.63-8.868 4.62-9.49 9.559a11.184 11.184 0 0 0 .495 5.013 11.12 11.12 0 0 0 2.642 4.277 11.014 11.014 0 0 0 4.246 2.662c1.6.548 3.302.718 4.977.498ZM23.59.304c4.721.5 9.128 2.619 12.485 6a20.938 20.938 0 0 1 5.956 12.575C43.325 32.035 32.439 43 19.375 41.697a20.662 20.662 0 0 1-12.482-6.001A20.938 20.938 0 0 1 .94 23.122C-.355 9.966 10.531-1 23.59.303Zm29.522.823H83.34c1.15 0 1.799 1.324 1.107 2.245L63.532 31.168H79.92c2.987 0 5.337 2.738 4.72 5.857-.454 2.289-2.585 3.849-4.9 3.849H46.91c-1.137 0-1.783-1.312-1.098-2.222l20.93-27.82h-13.45c-2.315 0-4.446-1.563-4.9-3.848-.621-3.12 1.732-5.857 4.72-5.857Zm131.188.11c3.121-.661 5.866 1.718 5.866 4.743v33.49c0 1.17-1.342 1.82-2.249 1.095l-26.076-20.84V36.03c0 3.025-2.745 5.404-5.866 4.742-2.236-.473-3.769-2.572-3.769-4.872V2.526c0-1.17 1.341-1.82 2.248-1.095l26.081 20.84V6.11c0-2.3 1.537-4.396 3.769-4.872h-.004ZM116.401.198c15.965 0 28.908 9.312 28.908 20.797 0 11.486-12.943 20.797-28.908 20.797-15.965 0-28.907-9.311-28.907-20.796C87.494 9.508 100.436.197 116.4.197Zm0 9.706c-11.03 0-19.273 5.857-19.273 11.091 0 5.235 8.243 11.092 19.273 11.092 11.031 0 19.273-5.853 19.273-11.091 0-5.239-8.242-11.092-19.273-11.092Z" fill="#005BFF"/></svg>