<svg width="121" height="119" viewBox="0 0 121 119" fill="none" xmlns="http://www.w3.org/2000/svg"><mask id="a" style="mask-type:luminance" maskUnits="userSpaceOnUse" x="0" y="0" width="121" height="119"><path d="M120.641 0H.359v118.454h120.282V0Z" fill="#fff"/></mask><g mask="url(#a)" fill="#333"><path d="M81.064.167c0 .095.166.297.369.44.453.32 1.061 1.141 1.061 1.427 0 .202-.036.202-.5.06-.287-.084-1.288-.453-2.242-.821-2.48-.952-2.599-.964-6.258-.75-3.636.214-3.934.274-3.481.643.274.225 4.017 1.45 5.924 1.938 2.85.726 2.873.75.87.868-.774.036-1.454.131-1.525.202-.084.084 0 .226.274.464.656.547 3.588 2.117 5.138 2.736 1.693.69 5.925 2.117 6.592 2.212.906.154.68.333-.56.464-1.252.13-1.967.309-1.967.475 0 .167 1.669 1.427 2.384 1.784.227.12.727.464 1.133.761.393.298 1.597 1.07 2.682 1.69 2.885 1.688 3.695 2.152 4.16 2.449.715.44 3.123 1.582 4.03 1.903.476.167.834.345.81.393-.06.095-1.3.32-2.086.38-.668.06-.596.357.477 1.962 1.18 1.772 3.135 3.913 5.769 6.327 1.097 1.011 2.325 2.213 2.73 2.676l.727.845-.667.035-.68.036-.071.773c-.262 2.414.775 6.957 2.932 12.797.906 2.462.978 2.783.561 2.664-1.013-.285-1.419-.345-1.538-.226-.203.202-.262 2.51-.131 4.198.083 1 .286 2.117.608 3.39.62 2.51 1.085 4.888 1.168 6.089.06.88.048.987-.131.987-.143 0-.31-.238-.513-.714-.179-.392-.369-.701-.441-.677-.071.023-.25.38-.405.808-.62 1.772-1.538 3.342-3.231 5.578-.918 1.213-1.8 2.355-1.967 2.557l-.31.357.036-7.231c.012-5.507-.012-7.22-.119-7.22-.083 0-.179-.249-.215-.57-.131-.951-.476-2.2-.619-2.248-.239-.083-.406.416-.525 1.534-.06.595-.167 1.154-.25 1.25-.322.392-.394-.12-.465-3.45-.036-2.105-.119-3.472-.203-3.687-.083-.178-.191-.69-.262-1.13-.239-1.522-.37-2.045-.537-2.045-.19 0-.262.274-.37 1.427-.083.952-.237 1.51-.38 1.38-.036-.048-.108-.928-.144-1.95l-.06-1.868h-.715V42.4h-.834l-.834.011v2.129l-.418.06c-.393.059-.417.095-.5.594a19.169 19.169 0 0 0-.084 1.784c-.012.69-.071 1.332-.13 1.427-.06.096-.12.155-.12.12-.346-2.903-.358-2.95-.572-2.807-.227.13-.501 3.21-.608 6.636-.06 1.938-.143 3.58-.191 3.663-.167.273-.393-.131-.477-.868-.107-1.118-.179-1.392-.357-1.392-.191 0-.287.369-.31 1.13-.024.856-.131 1.177-.441 1.225-.334.048-.442-.226-.632-1.57-.215-1.522-.465-1.677-.656-.368-.12.844-.262.392-.274-.857-.012-.809-.048-1.01-.239-1.19-.143-.142-.25-.415-.274-.748l-.035-.535-.62-.036-.632-.036v.559c0 .369-.072.642-.203.797-.155.166-.226.487-.262 1.225-.036 1.07-.167 1.296-.298.511-.107-.678-.334-.535-.513.345-.083.404-.262.952-.405 1.225-.262.523-.453 1.998-.465 3.58v.809H81.54c-2.753 0-5.007-.036-5.018-.096 0-.047-.048-.69-.096-1.439-.083-1.332-.095-1.367-.465-1.676-.262-.215-.381-.417-.381-.643 0-.345-.298-1.023-.465-1.023-.19 0-.5.453-.62.904a2.178 2.178 0 0 1-.43.785c-.273.286-.309.44-.38 1.69-.036.748-.108 1.39-.156 1.438-.035.048-.5.107-1.025.143l-.942.071-.071-.392c-.12-.571-.083-13.297.036-13.915.047-.297.143-.737.179-.987.071-.357.047-.476-.108-.595-.238-.166-.417-.868-.429-1.582 0-.487-.262-.892-.417-.654-.036.072-.12.536-.179 1.047-.06.511-.143 1.023-.179 1.13-.155.404-.298.214-.298-.38 0-.56-.012-.595-.381-.69-.37-.096-.406-.155-.668-1.107a28.34 28.34 0 0 1-.44-2.045c-.192-1.178-.49-1.808-.847-1.808-.346 0-.847 1.082-.942 2.058-.072.713-.19 1.26-.393 1.807-.143.357-.239-2.2-.25-6.588-.013-3.342-.06-4.758-.18-5.471a21.997 21.997 0 0 1-.25-1.88c-.131-1.57-.477-1.26-.632.548-.095 1.237-.31 1.486-.44.523a4.272 4.272 0 0 0-.382-1.201c-.274-.547-.286-.714-.346-3.39-.036-1.546-.12-3.02-.179-3.27-.143-.535-.429-.583-.596-.083-.071.19-.167.356-.226.356-.048 0-.18-.237-.298-.535-.18-.476-.18-.642-.06-1.356.179-.975.036-1.581-.453-1.89-.179-.108-.358-.25-.405-.322-.155-.202-.108-.892.095-1.605.179-.666.179-.678-.095-1.094-.227-.322-.322-.714-.441-1.713-.191-1.7-.358-4.698-.37-6.708V4.58l.358-.333c.274-.262.358-.44.358-.797 0-.547-.382-1.094-.609-.868-.119.119-.107.178.012.333.25.297.048.345-.25.047l-.274-.273-.167.261c-.095.143-.25.262-.346.262-.155 0-.155-.036-.035-.178a.401.401 0 0 0 .06-.38c-.072-.191-.096-.191-.31.07-.358.44-.31 1.154.13 1.558l.358.333-.012 2.189c-.012 2.438-.131 4.567-.346 6.339-.119.915-.214 1.26-.417 1.51-.262.31-.262.345-.107 1.07.274 1.273.238 1.499-.334 2.01l-.489.464.072 1.142c.06.856.035 1.237-.096 1.546-.178.44-.417.535-.417.167 0-.131-.083-.238-.19-.238-.382 0-.525.76-.644 3.413-.132 2.938-.155 3.08-.549 3.818-.155.297-.286.737-.286.987 0 .892-.226.452-.31-.607-.13-1.712-.37-1.57-.584.321-.083.666-.215 1.308-.298 1.415-.13.155-.155 1.226-.13 5.733.01 3.056 0 5.65-.049 5.756-.071.179-.119.167-.37-.13-.25-.298-.285-.464-.285-1.273 0-.797-.06-1.059-.358-1.689-.19-.404-.393-.737-.465-.737-.06 0-.286.285-.5.618-.382.583-.406.69-.406 1.653 0 .964-.024 1.059-.31 1.32-.19.179-.334.476-.393.797-.131.833-.239.963-.692.833-.512-.143-.608-.012-.429.642.108.44.108.594 0 .702-.25.25-.405-.072-.572-1.166-.083-.559-.179-1.059-.226-1.094-.132-.143-.275.25-.406 1.142-.071.5-.226.999-.334 1.118-.178.202-.166.273.072 1.07.238.844.25 1.058.25 7.23 0 3.497-.035 6.566-.071 6.804l-.084.452h-.846c-.465 0-.906-.048-.977-.096-.084-.047-.155-.559-.191-1.225-.048-1.094-.06-1.165-.43-1.581-.214-.238-.38-.536-.38-.666 0-.524-.442-1.059-.728-.892-.06.035-.179.345-.286.69-.096.344-.298.701-.43.808-.202.155-.261.393-.369 1.499l-.131 1.308-1.68.071c-.93.048-3.196.084-5.055.084h-3.362l-.12-.31c-.07-.166-.118-.94-.118-1.724 0-1.237-.036-1.51-.298-2.153-.167-.404-.298-.797-.298-.88 0-.083-.06-.297-.132-.487-.154-.405-.274-.238-.405.523-.048.285-.13.511-.19.511-.144 0-.132-1.106 0-1.712.142-.607.06-.785-.37-.785h-.358l.048-.69.036-.678-.632-.036-.644-.035.024.452c.048.951.012 1.106-.238 1.106-.215 0-.239.083-.239.82 0 1.44-.25 2.081-.405 1.023-.084-.5-.239-.761-.393-.607-.072.072-.203.655-.394 1.796-.179 1-.215 1.095-.465 1.166-.393.095-.465-.071-.548-1.237-.048-.63-.131-1.225-.191-1.308-.203-.333-.37.107-.43 1.13-.07.963-.261 1.546-.464 1.344-.048-.048-.131-1.701-.179-3.687-.047-2.01-.143-3.83-.226-4.127-.072-.286-.167-1.011-.215-1.606-.072-.987-.107-1.07-.346-1.106-.31-.047-.345.072-.44 1.44-.072.915-.215 1.414-.346 1.188-.036-.047-.108-.82-.155-1.7-.084-1.713-.18-2.14-.453-2.14-.263 0-.322-.334-.239-1.202l.072-.797-.81-.047c-.454-.036-.895-.012-.978.059-.108.083-.132.357-.072 1.023.072.868.06.904-.202 1.023-.358.154-.43.487-.465 2.14-.012.714-.06 1.416-.12 1.546-.06.131-.107.215-.107.179a25.575 25.575 0 0 1-.179-1.237c-.19-1.273-.393-1.653-.763-1.427-.155.107-.226.38-.286 1.189-.095 1.26-.322 6.101-.357 7.956-.024 1.035-.072 1.309-.203 1.309-.227 0-.346-.488-.441-1.76-.06-.738-.131-1.07-.25-1.118-.096-.036-.191-.036-.227 0-.036.035-.155.654-.274 1.367-.12.726-.262 1.392-.334 1.475-.083.107-.095 2.022-.024 6.101.096 6.053.048 8.908-.155 8.789-.214-.143-2.885-3.556-3.648-4.674-.822-1.201-1.752-3.068-2.121-4.21-.31-.987-.43-.928-1.062.57-.178.417-.214.453-.298.239-.31-.738-.035-2.807.74-5.65.739-2.711.822-3.258.894-5.839.071-2.76.012-3.556-.298-3.556-.108 0-.477.119-.823.262-.44.178-.668.226-.763.13-.083-.083.084-.677.56-1.95 2.17-5.887 3.052-9.431 3.076-12.428.012-2.153-.024-2.212-1.204-1.88-.846.239.274-1.046 3.481-3.995a67.088 67.088 0 0 0 3.326-3.306c1.347-1.475 3.528-4.33 3.528-4.627 0-.071-.143-.166-.322-.202-.357-.071-2.622-.428-2.717-.428-.036 0-.06-.048-.06-.107 0-.06.381-.238.846-.38 1.8-.572 4.983-2.308 9.835-5.364 2.289-1.451 4.947-3.307 5.019-3.52.119-.298-.155-.381-1.586-.512-1.561-.143-2.11-.38-1.251-.523.715-.12 4.089-1.202 5.197-1.665 3.493-1.451 7.093-3.426 7.093-3.866 0-.214-.083-.238-.763-.238-1.144 0-2.23-.142-2.181-.273.023-.071.464-.226.99-.333 1.537-.333 6.627-2.153 7.152-2.545.19-.143.202-.19.06-.286C50.998.666 48.602.56 46.182.63c-2.432.06-3.29.214-4.923.904-1.05.452-2.075.856-2.206.88-.071.012-.143-.071-.167-.19-.023-.13.227-.452.74-.94.429-.404.786-.784.786-.832 0-.048-.119-.095-.262-.095-.286 0-4.149 1.237-4.625 1.486-.823.417-4.483 3.854-5.067 4.746-.107.166-.31.309-.429.309-.203 0-.226-.107-.226-1.308 0-1.07-.036-1.309-.18-1.309-.214 0-1.883 1.261-3.385 2.546-.703.606-1.216 1.153-1.395 1.498a6.448 6.448 0 0 1-.524.833l-.262.297.071-1.273c.036-.808.012-1.308-.06-1.355-.07-.036-.321.095-.56.297-.238.202-.81.666-1.251 1.035-1.907 1.558-4.709 4.46-5.496 5.696-1.192 1.844-2.146 4.068-2.539 5.875-.12.524-.262.964-.334.976-.06.012-.393-.595-.715-1.332-.381-.833-.68-1.368-.799-1.392-.298-.06-1.144 1.094-2.17 2.938-1.108 1.998-1.668 3.627-2.825 8.218-.941 3.758-1.502 5.625-1.657 5.53-.06-.036-.298-.464-.548-.951-.25-.488-.548-.976-.655-1.083-.191-.178-.227-.166-.394.167-.19.369-.822 2.616-1.025 3.71-.274 1.392-.477 3.616-.548 6.066-.108 3.627.155 6.493.81 8.646.143.476.215.904.179.952-.131.118-1.383-.31-1.585-.536-.108-.107-.299-.392-.454-.618-.143-.226-.345-.428-.464-.452-.18-.036-.203.071-.203.892 0 2.378.465 7.433.894 9.728.691 3.652 2.313 7.766 3.612 9.122.358.38.632.714.596.75-.131.142-1.943-.667-2.777-1.237-.191-.143-.394-.25-.442-.25-.37 0 .847 4.186 2.087 7.207 1.394 3.39 2.574 5.292 4.744 7.66 1.562 1.7 3.016 3.567 3.493 4.506.19.37.19.37-.095.488-.263.095-.287.143-.191.488.19.642 1.645 2.961 2.539 4.031 2.837 3.378 3.612 4.127 5.984 5.71.346.225 1.335 1.129 2.194 1.997 1.299 1.32 1.561 1.641 1.561 1.939 0 .856.751 1.736 2.11 2.461 1.073.559 2.134.773 3.91.785l1.55.012.024.631c.012.463.107.773.322 1.106.322.475 1.06.939 1.526.939.477 0 .62.167.488.547-.238.702.203 1.677 1.014 2.236.44.309.62.357 1.55.404.846.036 1.168 0 1.752-.202.393-.142.798-.285.906-.321.167-.059.214.048.286.535.095.738.298.964.834.964.441 0 1.526-.428 2.087-.833l.357-.249v.428c0 .88.525 1.248 1.788 1.248.668 0 .787.048 1.586.583 1.073.714 2.348 1.249 5.471 2.284 3.112 1.022 4.054 1.177 7.904 1.26 3.29.072 4.196 0 7.296-.571 1.835-.333 2.324-.464 4.017-1.046.918-.321 2.79-1.32 3.743-1.998.691-.488.858-.547 1.729-.654 1.418-.155 1.764-.488 1.466-1.392l-.096-.285.358.261c.668.476 1.37.726 2.062.726.811 0 1.025-.19 1.085-.952.036-.618.06-.618 1.109-.237 1.407.511 3.147.154 4.053-.845.43-.476.465-.606.417-1.558l-.024-.559.525-.131c1.144-.309 1.764-1.011 1.764-2.045 0-.286.048-.571.096-.642.047-.072.512-.131 1.132-.143 1.12-.012 2.551-.309 3.803-.773.942-.357 1.573-.749 2.11-1.32.357-.369.429-.535.5-1.225.072-.69.12-.821.418-1.023 1.096-.761 2.515-2.7 2.801-3.818.131-.511.238-.642.989-1.2 1.3-.952 3.958-3.45 4.864-4.58 1.192-1.463 2.575-4.376 2.11-4.412-.095-.012-.274-.024-.405-.036-.131 0-.25-.095-.274-.19-.048-.238.596-1.272 1.466-2.39a70.789 70.789 0 0 0 2.17-2.89c.155-.203.524-.643.834-.964.811-.832 2.706-3.96 3.195-5.233.143-.392.441-1.141.655-1.665.31-.796 2.015-6.16 2.075-6.54.023-.239-.525-.06-1.24.404-.751.487-2.003 1.022-2.122.915-.036-.035.191-.333.501-.666 1.466-1.558 3.254-6.898 3.814-11.358.37-2.937.656-8.432.453-8.729-.095-.13-.333.06-1.073.809-.584.594-1.049.963-1.204.963-.309 0-.309-.036-.011-.892.476-1.367.715-3.675.715-6.85 0-5.126-.37-8.052-1.383-10.787-.322-.856-.739-.642-1.311.666-.179.404-.382.725-.453.702-.37-.12-.894-1.832-1.741-5.709-.894-4.067-2.11-7.171-3.767-9.669-.751-1.118-1.001-1.38-1.192-1.225-.083.06-.346.666-.584 1.332-.25.666-.501 1.344-.56 1.499-.167.44-.417.107-.513-.678-.322-2.688-3.23-7.445-6.091-9.967-1.681-1.474-3.303-2.783-3.458-2.783-.13 0-.166.274-.178 1.213v1.225l-.441-.523a18.69 18.69 0 0 0-2.933-2.89c-1.216-.975-1.907-1.391-2.062-1.237-.048.048-.108.5-.131 1-.048 1.141-.108 1.45-.298 1.45-.072 0-.656-.57-1.276-1.26C88.514 3.378 86.93 1.998 86 1.558 85.2 1.178 81.636 0 81.279 0c-.12 0-.215.071-.215.167Zm-2.98 1.332c.75.178 1.418.368 1.49.428.154.142-.084.285-.823.511l-.584.178-.668-.416c-.37-.226-.81-.44-1.001-.487-.394-.096-.525-.274-.31-.417.25-.154.405-.142 1.895.203ZM45.3 1.653c0 .155-2.015 1.082-2.36 1.082-.656 0-1.503-.345-1.312-.535.131-.13 1.681-.452 2.587-.535.56-.048 1.037-.095 1.06-.107.013 0 .025.036.025.095Zm42.82 2.961c.417.44.882.976 1.037 1.19l.274.38-.43.179c-.738.309-1.287.178-1.966-.452-.549-.523-2.515-3.152-2.515-3.366 0-.119.417.036 1.418.547 1.192.607 1.55.856 2.182 1.522ZM36.539 3.532c-.298.38-.87 1.166-1.288 1.76-.989 1.392-1.299 1.606-2.36 1.606-.44 0-.846-.06-.882-.119-.12-.19.239-.678 1.24-1.677 1.037-1.035 1.812-1.594 2.753-1.974 1.061-.44 1.145-.369.537.404Zm46.11 1.082c.5.215.906.536 1.49 1.154.799.868 1.669 2.14 1.538 2.272-.096.095-3.66-1.618-4.912-2.343-1.037-.607-1.478-1-1.299-1.178.167-.154 1.478-.345 2.015-.273.262.035.787.19 1.168.368Zm-40.925.131.299.084-.406.392c-.536.5-2.348 1.558-3.54 2.07-.525.225-1.264.606-1.657.844-.394.238-.751.428-.81.428-.287 0 .965-1.772 1.942-2.747 1.002-1.011 1.383-1.166 2.742-1.166.62.012 1.264.048 1.43.095ZM94.451 7.85c1.657 1.998 2.3 3.092 1.812 3.092-.394 0-2.313-1.331-3.064-2.116-.978-1.035-1.156-1.594-.858-2.617l.19-.678.25.31c.144.166.895 1.07 1.67 2.01Zm-65.422-.82c.13 1.07-.167 1.784-1.073 2.664-.656.642-2.086 1.558-2.766 1.772-.56.178-.262-.726.549-1.713.25-.297 1.025-1.249 1.74-2.117.882-1.094 1.311-1.546 1.383-1.439.048.083.12.464.167.833Zm61.774.844c.37.476.286 1.7-.131 1.844-.346.118-.56.059-.87-.226-.692-.643-.31-1.725.631-1.749a.5.5 0 0 1 .37.131Zm-59.45.393c.406.202.537.594.441 1.213-.166.963-1.037 1.2-1.454.38-.381-.725-.072-1.605.632-1.76.024-.012.19.071.381.167Zm68.557 1.39c.549.678 1.288 1.582 1.657 2.01.966 1.118 2.468 3.116 2.992 3.972.501.833.847 1.737.716 1.88-.263.273-4.125-2.26-5.365-3.521-.858-.88-1.06-1.225-1.263-2.176-.298-1.38-.18-3.378.19-3.378.048 0 .537.547 1.073 1.213Zm-77.2 1.499v1.629l-.405.713c-.512.904-1.358 1.785-2.634 2.736-1.192.88-3.088 2.045-3.517 2.153-.25.059-.298.035-.298-.203 0-.832 1.55-3.128 4.363-6.481 2.563-3.069 2.492-3.057 2.492-.547Zm70.322.011c.763.334 1.37.845 2.062 1.773.763.999 2.087 3.282 1.943 3.33-.06.023-.584-.226-1.156-.56a31.519 31.519 0 0 0-2.539-1.26 83.854 83.854 0 0 1-1.967-.904c-.513-.238-2.193-1.475-2.67-1.938l-.274-.286.393-.13c1.24-.405 3.338-.417 4.208-.024Zm-60.51.44c.429.12.31.37-.453.964-.859.654-1.026.761-4.03 2.367-2.396 1.284-3.147 1.748-3.528 2.176-.25.285-.43.321-.43.095 0-.464 1.694-3.33 2.433-4.103.572-.618 1.49-1.237 2.145-1.487.513-.178.847-.202 2.098-.154.823.036 1.61.095 1.765.143Zm65.445 2.034c.25.38.954 1.297 1.55 2.046.942 1.165 1.264 1.677 1.049 1.677-.453 0-1.633-1-2.241-1.891-.477-.714-1.109-2.51-.87-2.51.023 0 .262.31.512.678Zm-73.933-.238c-.036.12-.12.476-.203.81-.37 1.593-1.454 3.115-2.694 3.781-.87.464-.834.214.131-.963 1.073-1.332 2.265-3.01 2.444-3.45.167-.392.43-.534.322-.178Zm85.497 6.589c.321 1.713.655 2.735 1.621 4.96 1.299 3.008 2.515 6.79 2.241 7.064-.25.25-2.849-2.533-3.743-4.02-1.633-2.76-2.086-6.018-1.157-8.408.286-.714.596-1.19.704-1.07.047.047.202.713.334 1.474Zm-5.293-1.177c.369.523.166 1.974-.275 2.01-.405.035-.56-.036-.87-.38-.417-.441-.465-1.285-.095-1.654.334-.333 1.001-.321 1.24.024Zm-86.475.749c.454.238.597.511.597 1.19 0 1.32-1.49 1.557-1.777.285-.155-.678.275-1.654.728-1.654.06 0 .262.084.453.179Zm-5.245 1.273.477.975v1.546c0 .868-.083 1.903-.167 2.343-.417 1.95-2.217 4.864-4.243 6.85-.418.416-.8.75-.847.75-.203 0-.095-.916.25-2.237.406-1.474.62-2.057 1.944-5.137 1.013-2.367 1.31-3.247 1.573-4.734.107-.57.215-1.106.238-1.189.108-.321.334-.095.775.832Zm90.492 1.284c.381.38.822.975 1.037 1.427.453.904 1.585 3.96 1.502 4.032-.095.095-3.135-2.962-3.684-3.699-.512-.69-1.251-2.462-1.251-3.02v-.298l.87.452c.477.25 1.156.737 1.526 1.106Zm-82.314-.274c-.048.25-.358 1-.68 1.677-.572 1.178-.69 1.32-2.515 3.188-1.06 1.07-1.943 1.938-1.967 1.914-.095-.095.966-2.925 1.526-4.09.668-1.392 1.073-1.797 2.551-2.605.525-.286 1.002-.524 1.061-.524.048 0 .06.202.024.44Zm85.568 1.927c.215 1.368.692 2.64 1.872 4.852.381.738.655 1.344.608 1.344-.525 0-1.598-1.332-2.528-3.127l-.476-.94V24.38c0-1.666.095-2.474.25-2.082.048.131.167.797.274 1.475Zm-90.813 1.082c.072.916.048 1.106-.274 2.022-.406 1.166-2.003 3.782-2.551 4.163-.596.44-.632.214-.096-.773 1.824-3.438 1.931-3.711 2.313-5.65.286-1.486.31-1.558.441-1.13.048.19.131.81.167 1.368Zm96.952 8.397c.549.69.132 1.95-.631 1.95-.704 0-1.097-1.475-.549-2.022a.777.777 0 0 1 1.18.072Zm-3.504.785c.727.808 1.43 1.843 1.8 2.652.584 1.248.799 4.662.512 7.802-.143 1.558-.25 2.08-.417 2.057-.226-.036-1.919-4.353-2.253-5.756-.501-2.046-.703-7.374-.298-7.374.06 0 .346.286.656.619ZM115.92 36c.036 1.094.155 2.961.262 4.139.215 2.473.286 8.539.108 8.61-.179.072-.966-1.581-1.312-2.783-.548-1.89-.691-3.104-.62-5.352.072-1.974.298-3.567.74-5.173.238-.856.548-1.558.655-1.487.048.024.119.952.167 2.046ZM9.693 34.466c.107.119.239.475.274.773.06.452.036.606-.13.797-.764.844-1.944-.738-1.229-1.642.18-.214.859-.178 1.085.072Zm3.255.523c.178.535.071 3.687-.18 5.21-.31 1.902-.679 3.234-1.501 5.482-.692 1.915-.966 2.462-1.145 2.283-.31-.309-.572-5.566-.357-7.409.286-2.367.93-3.853 2.384-5.387.477-.512.68-.548.799-.179Zm100.493 3.687c0 2.117.023 4.424.071 5.15l.095 1.308-.357-.726c-.525-1.058-.715-2.105-.799-4.46-.071-1.95-.048-2.152.191-2.96.298-.964.727-2.142.775-2.142.024 0 .035 1.725.024 3.83ZM6.129 38.057l.489 1.844-.012 2.497c0 1.95-.048 2.676-.203 3.33-.286 1.166-1.013 3.33-1.37 4.104l-.299.654-.107-.654c-.12-.774-.048-2.914.274-7.838.12-1.986.226-4.234.226-4.995 0-.773.036-1.439.084-1.486.143-.131.381.523.918 2.544Zm1.716-1.165c.632 1.677.668 1.903.668 4.317 0 2.331.012 2.248-.56 3.806-.12.297-.143.523-.072.606.072.084.024.238-.119.417-.238.285-.238.273-.167-3.64.06-3.627-.012-5.375-.274-6.22-.036-.142-.024-.261.036-.261s.274.44.488.975ZM69.5 60.25v13.249l1.228.011c1.323 0 2.253.12 2.038.262-.083.048-1.072.119-2.217.155l-2.086.083-.083-.286c-.131-.44-.227-21.502-.108-24.154.072-1.427.167-2.402.25-2.498.084-.107.287-.154.56-.119l.418.048V60.25Zm-16.725-1.725c.024 6.244-.012 12.226-.06 13.309l-.083 1.962-1.013.083c-1.371.095-3.839-.024-3.779-.19.024-.083.715-.167 1.812-.226.977-.048 1.8-.12 1.824-.143.036-.024.107-5.768.167-12.75.06-6.98.13-12.867.167-13.081.06-.405.286-.524.703-.393.238.083.238.202.262 11.43Zm2.194-10.644c.13 1.392.25 18.874.143 21.312-.084 1.82-.131 2.32-.275 2.403-.298.178-.321-.868-.345-10.716-.012-10.026.06-13.939.274-13.867.071.024.167.416.203.868Zm11.718 11.727c.012 12.047 0 12.32-.417 11.904-.167-.166-.084-23.964.083-24.356.262-.63.31 1.45.334 12.452Zm-5.198-1.546c-.011 5.839-.047 10.215-.095 9.728-.19-1.998-.12-20.337.084-20.337.011 0 .023 4.781.011 10.608Zm-2.622.118c-.012 6.767-.048 9.455-.107 7.707-.143-5.03-.084-18.077.095-18.077.012 0 .024 4.674.012 10.37Zm55.372-9.288c.37.202.441.333.441.963 0 .464-.047.595-.369.857-.465.392-.644.392-1.002 0-.226-.25-.298-.452-.298-.869 0-.927.513-1.32 1.228-.951Zm-4.005.606c.656.678 1.502 2.2 1.693 3.069.226.999.155 2.95-.155 4.174-.37 1.44-1.014 3.104-1.181 3.045-.214-.071-.286-.571-.679-4.781-.465-5.03-.536-6.125-.405-6.125.071 0 .393.286.727.618Zm-85.544.583c.667.333 1.144 1.392.846 1.867-.083.12-.215.108-.632-.071-.799-.345-.882-.5-.655-1.177.238-.678.238-.702 0-.5-.215.179-.763 1.213-.763 1.451 0 .095.345.238.93.38.5.12.93.239.953.25.107.072-.274.56-.608.762-.429.273-1.442.32-1.92.095-.166-.072-.416-.369-.56-.654-.81-1.677.764-3.247 2.409-2.403Zm73.396-.012c.215.131.49.405.62.619.477.785.191 1.855-.62 2.355-.786.475-1.86.19-2.36-.619-.477-.785-.19-1.855.62-2.355.226-.13.608-.237.87-.237.263 0 .644.106.87.237Zm-90.467.226c.25.19.31.357.346 1 .047.69.023.784-.227.963-.298.202-.787.25-1.025.095-.203-.131-.393-.69-.393-1.166 0-.309.095-.523.345-.773.406-.404.56-.416.954-.119Zm4.017 1.225c-.035.678-.155 1.76-.25 2.414-.095.655-.25 2.26-.358 3.569-.262 3.425-.298 3.746-.489 3.746-.214 0-.476-.524-.905-1.784-.716-2.093-.859-3.509-.501-5.197.322-1.57.596-2.117 1.502-3.08.465-.488.894-.88.966-.88.083 0 .095.416.035 1.212Zm106.454 1.427c-.131 1.749-.763 6.054-1.073 7.255-.549 2.13-1.907 5.411-2.301 5.53-.203.072-.369-.582-.524-2.128-.131-1.202-.12-1.606.047-3.033.477-3.865 1.371-6.28 2.945-7.897.441-.452.846-.82.894-.82.048 0 .059.499.012 1.093ZM3.935 54.494c1.061 1.236 1.765 2.687 2.396 4.97l.513 1.844.012 2.141c0 2.14-.155 3.39-.477 3.83-.131.178-.179.142-.465-.286-.393-.583-1.025-2.081-1.418-3.33-.62-1.927-1.407-6.434-1.598-9.122-.095-1.296-.036-1.296 1.037-.047Zm109.959 1.831c-.31 1.166-.763 3.009-1.014 4.08-.25 1.07-.477 1.974-.512 1.997-.131.143-.215-1.189-.155-2.39.095-1.618.357-3.104.667-3.818.394-.892 1.455-2.343 1.538-2.105.012.06-.215 1.059-.524 2.236ZM7.202 56.218c.25.38.655 1.118.906 1.641.5 1.023.68 2.046.715 4.103.048 2.605-.06 2.605-.584.024a41.33 41.33 0 0 0-.978-3.687c-.62-1.962-.798-2.759-.62-2.759.06 0 .31.31.56.678Zm92.756 3.52c.036.143.06 3.426.036 7.279-.036 6.743-.048 7.04-.274 7.48-.131.262-.31.5-.406.524-.143.047-.155-1.035-.083-7.647.036-4.234.107-7.755.143-7.802.131-.214.524-.107.584.166Zm-7.129.405c.048.19.084 4.103.084 8.717 0 8.444-.024 8.92-.406 8.92-.13 0-.166-13.082-.035-16.091.071-1.796.167-2.236.357-1.546Zm-64.313.88c.096.856.12 13.593.012 15.306l-.071 1.344-.298-.274-.299-.273.072-8.278c.024-4.567.096-8.348.143-8.432.167-.273.358-.024.441.607Zm-6.77-.226c.095.357.095 15.08 0 15.08-.037 0-.215-.107-.394-.226-.644-.464-.81-1.677-.549-4.067.108-1.094.227-3.616.275-6.292.047-2.45.13-4.53.178-4.614.155-.226.406-.167.49.119Zm53.762 1.95c.036.107.072 4.4.072 9.562 0 8.218-.024 9.384-.179 9.443a.61.61 0 0 1-.358 0c-.155-.06-.178-1.19-.178-9.086 0-4.947.035-9.253.071-9.562.06-.416.131-.547.286-.547.12 0 .25.083.286.19Zm10.896 8.991-.036 9.194-.548.035-.548.036-.084-.559c-.095-.702-.071-14.926.036-16.52l.071-1.189.418-.071c.226-.047.488-.083.572-.095.119-.012.143 1.855.119 9.17Zm-40.614-8.74c.166.415.071 18.6-.096 19.111-.143.452-.346.523-.465.166-.119-.333-.119-18.267 0-19.04.096-.642.358-.75.56-.238Zm-10.264.118c.095.095.071 17.97-.024 18.053-.048.048-.286.096-.537.108l-.453.011.024-9.086c.012-7.373.048-9.11.179-9.193.143-.095.68-.024.81.107ZM108.79 64.9c.132.678-.107 2.283-.453 3.009-.155.368-.643 1.058-1.073 1.546-.429.487-.917 1.142-1.096 1.45-.191.322-.382.572-.429.572-.191 0-.251-1-.131-2.058.095-.773.214-1.213.488-1.724.382-.726 2.337-3.235 2.504-3.235.059 0 .143.202.19.44Zm4.208 0c.489.404.525 1.677.06 2.022-.346.25-.965.19-1.168-.107-.262-.38-.238-1.261.048-1.737.274-.44.655-.5 1.06-.178ZM12.852 65.946c.084.167.572.869 1.097 1.547 1.132 1.498 1.454 2.093 1.716 3.235.31 1.391.227 1.938-.297 1.938-.108 0-.454-.38-.811-.928-.346-.5-.906-1.284-1.264-1.724-.775-.963-.894-1.344-.894-2.76 0-1.522.155-1.962.453-1.308Zm-3.731.536c.131.142.238.487.274.868.048.547.012.678-.226.951-.394.428-.859.524-1.157.226-.286-.285-.44-1.272-.274-1.712.215-.583.99-.761 1.383-.333Zm103.223 2.224c.036.047-.31.463-.799.915-1.085 1.047-1.943 2.343-2.599 3.949-.286.678-.548 1.237-.596 1.237-.107 0-.524-.702-.703-1.225-.203-.535-.06-.892.835-2.105.905-1.202 2.133-2.236 3.158-2.652.561-.227.585-.227.704-.12Zm-51.343.963c.31.25.632.488.703.535.072.036.441-.06.834-.214 1.348-.559 1.467-.285.465 1.035-.37.475-.644.951-.632 1.046.036.155.442.179 2.683.214l2.634.024.048.428c.024.238.024.583 0 .762l-.048.333-1.621.07c-.906.037-2.193.084-2.873.096-1.395.036-1.24.13-1.74-1.094-.453-1.094-.477-1.13-.751-1.166-.191-.035-.275.036-.322.298-.036.178-.12.487-.191.69-.072.19-.167.499-.19.69-.12.63-.847.832-2.04.558-.738-.178-1.537-.166-2.622 0-1.502.25-1.871.06-1.871-.963v-.642l1.192.035c1.669.048 3.874-.095 3.874-.25 0-.059-.286-.428-.644-.796-.429-.452-.691-.845-.787-1.178-.071-.285-.107-.535-.083-.559.024-.035.298.06.608.19.608.25 1.264.322 1.264.12 0-.072.095-.12.214-.12.12 0 .346-.13.5-.297.382-.404.716-.368 1.396.155Zm-51.034.916c1.061.523 2.444 1.784 3.171 2.902.31.475.572.927.572.987 0 .273-.75 1.89-.858 1.855-.071-.024-.238-.369-.381-.761-.56-1.546-2.015-3.734-2.98-4.52-.608-.475-.835-.88-.513-.88.095 0 .536.19.99.417Zm94.986 1.296c1.335 2.129 2.336 4.293 2.921 6.291.56 1.903.727 3.116.727 5.257v1.927l-.644.713c-.358.38-.763.928-.906 1.201-.286.548-.56.678-1.788.81-.429.035-1.168.178-1.657.308-.477.12-.906.203-.942.167-.024-.036.012-.797.095-1.7.275-2.89-.047-4.758-1.311-7.6-.393-.892-.715-1.748-.715-1.915 0-.167.262-.69.572-1.166.62-.904 1.049-1.867 1.884-4.127.274-.772.536-1.45.584-1.522.131-.214.357.048 1.18 1.356Zm11.039-1.249c0 .048-.215.488-.489.976a58.626 58.626 0 0 0-1.311 2.664c-1.634 3.52-3.541 6.374-4.042 6.065-.286-.178 0-3.39.465-5.197.584-2.284 1.419-3.152 3.97-4.199.989-.416 1.407-.499 1.407-.309Zm-98.276 1.713c.691 2.105 1.657 4.198 2.253 4.852.524.583.787 1.106.691 1.38-.035.119-.322.773-.631 1.463-.668 1.474-1.133 2.901-1.312 3.996-.167 1.058-.167 3.734.012 4.733.155.94.048 1.19-.465 1.023-.179-.06-.834-.167-1.454-.238-1.943-.226-2.05-.273-2.766-1.201-1.323-1.725-1.37-1.808-1.442-2.676-.084-1.106.095-3.354.381-4.638.286-1.32 1.157-3.984 1.729-5.269.417-.963 1.895-3.39 2.372-3.9.131-.144.274-.239.334-.215.048.036.179.345.298.69Zm-10.514.392c2.36.952 3.397 2.534 3.767 5.697.155 1.356.155 3.39 0 3.39-.167 0-1.443-1.523-2.122-2.534-.334-.475-1.145-1.95-1.8-3.282-.668-1.332-1.407-2.712-1.645-3.068-.346-.5-.406-.666-.275-.75.167-.107.978.107 2.075.547Zm64.802 2.177c.298.047-1.729.119-4.554.166-2.802.048-5.233.048-5.424 0-.298-.083-.274-.095.262-.166.858-.095 9.084-.107 9.716 0ZM51.38 75.996c.154.095.178.547.142 3.175-.023 1.69-.071 3.164-.095 3.271-.095.31-.488.262-.572-.06-.036-.142-.072-.832-.072-1.534 0-1.593-.166-2.461-.5-2.58-.143-.048-.417-.381-.632-.738-.203-.357-.453-.654-.56-.678-.31-.06-.573.869-.584 2.117a32.09 32.09 0 0 1-.096 2.01c-.06.761-.107.892-.334.975-.393.143-.429-.118-.37-3.056.037-2.093.072-2.58.215-2.664.096-.06.525-.119.954-.131.43 0 1.013-.047 1.311-.095.763-.143.99-.143 1.193-.012Zm1.883.119h.381l-.023 3.235-.036 3.247-.572-.024c-.322-.012-.62-.048-.656-.095-.048-.048-.12-1.047-.167-2.236-.047-1.19-.131-2.39-.19-2.664-.191-.904.119-1.665.631-1.534.131.035.417.071.632.071Zm2.622 3.033c.036 2.188 0 2.973-.107 3.175l-.155.274-.083-.357c-.107-.464-.131-5.388-.036-5.875.06-.286.12-.345.215-.25.083.083.143 1.106.166 3.033Zm12.005-2.783c.107.464-.06 5.447-.179 5.518-.203.119-.346-4.936-.167-5.625.107-.369.25-.322.346.107Zm4.756-.298c.155.06.191.286.191 1.285 0 2.426-.143 4.59-.31 4.59-.083 0-.179-.095-.215-.214-.178-.582-.428-2.45-.428-3.175 0-.856-.25-1.63-.632-1.938-.215-.19-.442-.096-.442.178 0 .095-.107.32-.238.511a3.54 3.54 0 0 0-.357.654c-.12.31-.132.321-.287.107-.143-.178-.19-.19-.345-.059-.298.238-.418.797-.49 2.379-.047.808-.106 1.522-.142 1.581-.215.345-.286-.345-.286-3.009v-2.961h1.895c1.05 0 1.979.036 2.086.071ZM57.7 79.421c-.25 1.832-.084 2.45.631 2.379.287-.024.394-.107.441-.321.084-.345.477-.476 1.014-.357.298.06.31.083.083.095-.226.012-.274.071-.238.333.036.31.083.333.81.428.418.048.787.12.823.143.167.178-.322.238-1.931.238H57.52l-.036-2.498c-.024-1.38 0-2.795.048-3.151.095-.643.095-.619.19.594.048.702.036 1.63-.023 2.117Zm41.615-.452c.12.072.227.179.227.238 0 .06-.406.5-.906.975-.5.476-1.371 1.487-1.931 2.236-1.05 1.392-2.122 2.617-2.301 2.617-.227 0-.072-.345.68-1.546.429-.69.882-1.44 1-1.665.299-.583 1.276-1.868 1.872-2.474.525-.511.894-.619 1.36-.38Zm-76.675.297c.68.345 1.335 1.285 2.396 3.45.584 1.177 1.097 2.295 1.145 2.497.083.333.071.345-.12.178-.38-.309-1.215-1.462-1.919-2.652-.798-1.38-1.192-1.843-2.05-2.485-.346-.25-.632-.524-.632-.607 0-.143.548-.547.751-.559.048 0 .25.083.43.178Zm78.142 1.463c.083.131-.68 1.023-2.206 2.605-.644.666-1.204 1.177-1.228 1.118-.107-.155.692-1.653 1.3-2.438.763-1.023 1.883-1.689 2.134-1.284Zm-79.31.869c.536.38 2.17 3.08 1.979 3.27-.036.036-.358-.309-.727-.761-.358-.464-.823-.951-1.014-1.082-.56-.405-1.358-1.416-1.275-1.63.095-.237.56-.142 1.037.203ZM61.55 83.56l2.11.071v.928c0 1.213.048 1.249 1.466 1.154l1.097-.072 1.073.69c.584.38 1.287.761 1.55.844.524.179 3.17.19 7.14.048l2.241-.083-.143.285c-.083.155-.357.595-.62.963-.25.381-.488.857-.524 1.07-.179 1.047-.56 1.44-1.061 1.119-.382-.25-.453-.25-1.49.154-1.872.726-4.864 1.32-7.809 1.546-7.605.583-12.862.44-16.927-.44-1.68-.368-4.005-1.07-4.232-1.272-.12-.107-.274-.511-.346-.892a3.99 3.99 0 0 0-.548-1.32c-.227-.333-.417-.654-.417-.702 0-.06 1.835-.119 4.089-.142l4.077-.036 1.215-.666c.668-.369 1.383-.738 1.598-.809.238-.083 1.454-.13 3.338-.13h2.968v-.821l-2.313-.036c-1.275-.024-2.348-.071-2.396-.107-.119-.119.31-1.094.584-1.332.215-.19.382-.214 1.204-.155.525.036 1.908.107 3.076.143Zm40.304.511c.108.12.227.405.263.63.059.322.012.476-.251.786-.405.475-.667.475-1.061.012-.584-.69-.286-1.654.501-1.654.191 0 .441.096.548.226Zm-81.336.37c.06 0 .215.106.346.237.381.38.274 1.391-.167 1.689-.072.047-.31.095-.524.095-.322 0-.418-.072-.573-.404a1.281 1.281 0 0 1-.119-.81c.096-.487.5-.974.751-.88.096.036.227.072.286.072Zm68.486 1.533c.894.654.918.702.858 1.986l-.06 1.142.632-.071c.549-.06.68-.036.882.166.537.535.227 1.475-.894 2.724-.56.63-.667.808-.608 1.07.298 1.225.191 1.7-.56 2.343-.465.416-2.468 1.475-2.778 1.475-.119 0-.393-.179-.607-.38-.37-.358-.477-.393-1.097-.382-.525.013-.835.096-1.264.334-.322.166-.596.285-.632.261-.023-.035.43-.559 1.014-1.177.584-.607 1.228-1.344 1.43-1.641.525-.75 1.18-2.082 1.395-2.83.203-.69.262-2.153.083-2.153-.06 0-.333.547-.62 1.213-1.31 3.163-3.516 5.97-5.924 7.563-1.669 1.106-1.836.976-.859-.69.56-.95.74-1.57.49-1.724-.132-.071-.24.072-1.634 1.95-1.311 1.796-1.836 2.272-2.897 2.653-.488.178-.941.285-1.001.249-.203-.119-.024-1.26.31-1.986.405-.868 1.49-2.235 2.11-2.64.584-.38.787-.69 1.252-1.89.608-1.547 1.514-2.046 2.801-1.535.31.119.536.155.608.083.06-.06.167-.559.238-1.106.215-1.7.74-2.997 1.371-3.413.275-.178.346-.178.954.036.656.214.668.214.834-.012a.882.882 0 0 0 .167-.476c0-.452.632-.892 1.788-1.26 1.014-.322 1.657-.298 2.218.118Zm-53.024.12c.727.368 1.228.844 1.478 1.403.19.44.262.499.453.392.12-.071.262-.178.298-.238.036-.071.334-.119.656-.119.56 0 .584.012.894.56.488.891.762 1.819.87 3.056.06.63.143 1.189.19 1.225.036.047.251-.048.454-.203.512-.38 1.43-.451 2.002-.154.346.178.477.369.811 1.165.632 1.547.763 1.749 1.335 2.082 1.145.654 3.1 4.34 2.444 4.59-.095.048-.56-.047-1.025-.19-1.05-.345-1.502-.773-3.04-2.926-.823-1.141-1.18-1.558-1.312-1.51-.286.107-.107.785.525 1.962.298.571.524 1.07.477 1.106-.107.12-.882-.25-1.776-.844-1.43-.94-3.493-3.187-4.47-4.829-.513-.88-1.18-2.473-1.288-3.104-.06-.32-.143-.44-.298-.44-.465 0-.417 1.392.095 2.736.334.88 1.192 2.152 2.23 3.294.464.511.941 1.082 1.06 1.26l.215.334-.62-.25c-.334-.13-.858-.238-1.168-.238-.477 0-.596.06-.954.44l-.417.44-.56-.154c-1.49-.393-3.076-1.499-3.35-2.343-.143-.405-.084-.607.346-1.297.13-.214.06-.32-.68-1.082-.87-.88-1.097-1.332-1.097-2.224 0-.38.048-.464.322-.57.179-.072.572-.108.87-.084.477.036.537.012.501-.202-.012-.131-.06-.642-.095-1.13-.072-.856-.06-.916.25-1.284.787-.94 2.241-1.202 3.374-.63Zm63.204.142c.572.345.942.702 1.156 1.106.227.44.227 1.534-.011 2.2l-.191.535.596.523c.572.5.596.548.596 1.13 0 .773-.334 1.51-.823 1.856-.429.309-.441.392-.143.82.131.179.263.524.31.773.072.417.036.5-.357.857-.239.238-.704.5-1.085.618-.644.202-.68.202-.835-.024-.095-.119-.166-.404-.166-.618 0-.785-1.443-1.7-2.683-1.7-.286 0-.56-.06-.596-.12-.047-.071.155-.404.453-.749.644-.75 1.168-1.57 1.967-3.068.966-1.784.787-2.07-.358-.571-1.37 1.772-3.66 4.09-4.04 4.09-.191 0-.537-1.129-.43-1.414.036-.095.286-.286.56-.428.692-.357.752-.595.68-2.712l-.072-1.832.322-.297c.18-.166.501-.38.716-.476.357-.142.44-.142.679.012.155.107.346.38.43.607.202.559.428.5.905-.238.215-.333.537-.714.715-.856.43-.345 1.145-.357 1.705-.024Zm-74.613.476c.56.19.823.44 1.085 1.022.262.583.525.654.703.179.37-.952 1.038-1.106 1.8-.393l.49.452-.132 1c-.083.546-.143 1.26-.143 1.593 0 .82.441 1.724 1.014 2.081.345.214.417.321.369.523-.048.131-.107.476-.155.762-.036.273-.12.535-.19.582-.18.107-3.29-3.116-4.066-4.222-.68-.963-1.025-1.213-1.025-.725 0 .404 1.597 3.08 2.73 4.59.417.548.429.536-.477.678-.643.107-1.3.595-1.955 1.463-.858 1.13-.87 1.142-1.359 1.047-.572-.107-1.276-.476-1.49-.797-.25-.357-.238-.725.048-1.284.31-.607.298-.82-.048-.952-.584-.214-1.037-1.249-.882-1.986.107-.5.608-1.142 1.096-1.403.215-.12.215-.143-.023-.619a4.61 4.61 0 0 1-.37-.999c-.095-.44-.071-.594.179-1.142.584-1.213 1.717-1.807 2.802-1.45Zm82.6 2.7c0 .356-3.35 4.305-3.66 4.305-.19 0-.631-.643-.631-.94 0-.13.119-.595.262-1.023.274-.856.942-1.724 1.573-2.045.525-.274 2.456-.512 2.456-.298Zm-90.026 1.676c.787.405 1.395 1.273 1.68 2.426.132.547.12.619-.166 1.106-.167.286-.358.524-.418.524-.143 0-2.17-2.355-2.944-3.437l-.656-.904.453-.06a3.908 3.908 0 0 1 2.05.345Zm75.602 4.246c.358.143.548.321.727.666.131.25.31.488.406.523.095.036.464 0 .822-.071.918-.19 1.752.06 2.36.678.513.535.692.94.692 1.617 0 .797-.787 1.903-1.455 2.046-.298.071-.334.119-.286.392.191.94.203 1.225.072 1.677-.143.559-.715 1.273-1.109 1.392-.143.035-.524.202-.858.357-.727.344-2.551.666-3.481.618-.644-.036-.691-.06-.727-.333-.167-1.772-.763-2.426-2.313-2.569-1.132-.107-1.359-.226-1.61-.868a4.017 4.017 0 0 0-.607-.987c-.382-.428-.394-.44-.155-.571.37-.19 3.278-.56 5.615-.714 2.563-.154 2.885-.202 2.837-.452-.06-.309-.68-.392-2.54-.309l-1.787.072-.501-.37c-.68-.487-.692-.784-.048-.677.656.095 1.657-.13 2.003-.476.226-.226.274-.392.274-1.058v-.773h.596c.322 0 .81.083 1.073.19Zm-61.536.63a1.325 1.325 0 0 0 .632 1.487c.453.273 1.645.392 1.991.202.214-.119.262-.107.262.048 0 .297-.357.773-.727.963-.239.119-.763.166-1.895.166-1.657 0-2.623.155-2.623.429 0 .237.274.261 2.861.333 2.504.06 3.982.214 4.983.499l.62.179-.417.547c-.227.297-.477.761-.549 1.034-.167.631-.381.785-1.12.785a5.42 5.42 0 0 0-1.228.179c-.775.238-1.133.725-1.383 1.879-.095.452-.214.868-.286.939-.155.155-1.12.155-2.23-.024-1.203-.178-1.787-.38-2.681-.903-.585-.333-.728-.5-.907-.952-.178-.475-.19-.642-.071-1.225.19-.927.203-.892-.322-1.118-.262-.119-.655-.428-.894-.678-.405-.452-.43-.523-.43-1.272 0-1.059.323-1.725 1.062-2.2.524-.333.608-.345 1.669-.31.787.024 1.144-.011 1.168-.106.131-.37.775-1.107 1.013-1.154.918-.179 1.479-.262 1.538-.226.048.024.024.238-.036.5Zm43.059-.487c0 .06-.167.57-.358 1.165-.572 1.641-.81 2.807-1.001 4.686-.334 3.342-.346 3.865-.072 5.53.465 2.89.954 4.52 1.74 5.792.227.381.382.737.346.809-.107.178-1.657 1.154-2.55 1.605-1.48.738-4.626 1.535-8.774 2.201-1.097.178-4.686.13-5.782-.072-4.053-.761-6.306-1.344-8.166-2.129-.727-.309-2.086-1.129-2.086-1.248 0-.072.357-.964.786-1.998.43-1.023.919-2.427 1.097-3.116.31-1.202.322-1.368.31-4.222-.012-2.771-.036-3.057-.322-4.187a20.77 20.77 0 0 0-.81-2.378c-.608-1.416-.835-2.058-.74-2.058.036 0 .56.262 1.157.583 1.538.82 3.433 1.392 5.615 1.677.524.071 2.324.155 3.993.202 2.968.06 3.1.06 5.52-.31 4.434-.665 7.164-1.343 9.262-2.306.727-.333.835-.369.835-.226Zm13.172 2.545c.31.142.394.428.155.511-.083.036-1.06.19-2.17.357-1.442.214-2.05.274-2.145.178-.18-.178.023-.285 1.478-.773 1.3-.428 2.158-.511 2.682-.273Zm-51.01.273c1.229.214 2.671.643 2.671.785 0 .214-3.683-.012-4.256-.25-.322-.13-.25-.44.131-.594.334-.143.263-.143 1.455.06Zm5.425 2.724c.941.214 1.418.523 1.776 1.141.37.631.62.678.727.155.036-.214.143-.476.238-.583.346-.416 1.848.179 2.158.857.084.166.393.428.703.582.644.333 1.252.821 1.431 1.154.072.131.095.44.048.678-.108.654-.406.749-1.61.583-2.622-.369-7.605.725-8.75 1.914-.536.559-.13.595.835.084.44-.238.87-.428.953-.428.084 0 .191.19.239.428.107.571-.06 2.283-.25 2.664-.263.499-1.026 1.213-1.586 1.451-.667.297-1.669.392-2.038.19-.572-.309-.763-.714-.74-1.617.012-.809 0-.845-.321-1.047-.465-.262-.763-.809-.787-1.368-.012-.594.596-1.248 1.347-1.451l.513-.142-.072-.904c-.071-.857-.06-.94.215-1.261.345-.404.87-.583 2.074-.702.977-.095 1.049-.19.596-.939-.334-.583-.203-.952.5-1.32.609-.321.87-.345 1.8-.119Zm40.817.19c.345.321.357.654.047 1.392-.083.214-.119.416-.083.452.036.035.596.142 1.24.237 1.693.238 1.99.536 1.871 1.808-.083.761.024.904.823 1.177.703.227 1.049.69 1.049 1.404 0 .404-.072.547-.56.987l-.56.523.023.856c.036.845.024.869-.381 1.261-.382.369-.49.405-1.12.405-1.157 0-2.504-.738-2.97-1.63-.345-.678-.428-2.699-.106-3.009.035-.035.524.119 1.072.357.847.357 1.038.393 1.145.262.12-.143.024-.238-.441-.535-.656-.417-1.395-.666-3.433-1.142-1.347-.321-1.586-.345-4.053-.345h-2.623l-.143-.297c-.25-.488-.179-.833.238-1.225.966-.904 2.23-1.987 2.647-2.272.786-.535 1.406-.369 1.716.44.167.44.322.404.596-.131.477-.939 1.312-1.344 2.718-1.296.847.024 1.014.059 1.288.321Zm-6.58 6.446c1.513.952 2.36 1.998 1.871 2.295-.19.119-.548-.154-1.824-1.439-1.097-1.094-1.514-1.593-1.323-1.593.048 0 .62.333 1.275.737Zm-29.6-.297c-.537.689-2.647 2.771-2.802 2.771-.488 0-.095-.809.787-1.618.775-.713 1.836-1.474 2.05-1.474.203 0 .203.023-.035.321Z"/><path d="M54.09 88.365c-.525.095-.608.166-.525.416.072.155.727.178 5.531.178 6.39 0 7.809-.059 7.76-.344-.023-.143-.238-.215-.75-.262-.99-.107-11.456-.095-12.016.012Zm-1.838 1.272c-.286.107-.155.357.215.44.5.095 11.73.095 14.03-.012 1.657-.071 1.812-.095 1.812-.297 0-.202-.298-.214-7.95-.202-4.388 0-8.036.035-8.107.071Zm36.346 10.704c.024.131.44.416.99.69a20.48 20.48 0 0 1 1.716.987c.429.274.834.488.894.464.071-.024.143-.179.167-.345.06-.535-.74-1.059-2.647-1.713-.99-.345-1.18-.357-1.12-.083Zm-56.468.725c-1.86.869-2.027.988-2.063 1.487-.024.238-.012.44.024.44.083 0 1.693-.916 2.658-1.51 1.502-.928 1.085-1.213-.62-.417Zm35.738 1.296c-.334.024-.667.107-.727.191-.155.202-.465 1.201-.632 2.081-.167.916-.12.999 1.192 1.665 1.061.535 1.407 1.011 1.276 1.736-.072.357-.322.69-1.157 1.558-1.001 1.035-1.18 1.344-.965 1.689.155.238 1.716-.571 2.384-1.237.822-.82 1.037-1.332 1.037-2.426 0-.785-.048-.963-.334-1.392-.417-.642-1.132-1.153-1.943-1.415-.68-.214-.667-.19-.453-.999.048-.19-.012-.202 1.836.072l.536.083.275-.761c.143-.405.262-.785.262-.845 0-.083-1.36-.083-2.587 0Zm-11.549.12c-.406.047-.513.285-.704 1.498l-.071.464.393-.107c.453-.107 1.705-.107 2.182.012.298.071.31.095.143.285-.453.512-1.395 3.414-1.872 5.745a30.614 30.614 0 0 0-.238 1.284c0 .143.763.44.99.392.107-.023.202-.107.202-.178 0-.571.286-2.45.489-3.235.262-1.011.965-2.89 1.847-4.9.287-.666.525-1.236.525-1.272 0-.083-3.29-.06-3.886.012Zm5.697 0c-.155.035-.382.225-.513.428-.346.559-.703 1.807-.703 2.449 0 .548 0 .548.68.904.834.428 1.656 1.19 1.764 1.63.119.44-.263 1.13-1.145 2.129-1.728 1.95-.06 1.89 1.764-.06 1.145-1.213 1.395-2.521.716-3.544-.346-.511-1.24-1.106-2.063-1.368-.62-.19-.655-.226-.62-.559.048-.475.43-.666 1.36-.666 1.025 0 1.478-.178 1.478-.571 0-.178.035-.44.071-.594.072-.262.072-.262-1.216-.25-.715.012-1.418.048-1.573.072Zm-9.786.285c-1.002.345-1.073.452-.596.844l.405.333v2.712c-.012 2.735-.095 3.496-.477 3.877-.322.309.096.464 1.443.523l1.24.06v-.381c0-.274-.072-.404-.263-.5l-.274-.118v-3.295c0-3.639-.083-4.317-.572-4.293-.143 0-.549.107-.906.238ZM95.275 3.996c-.381.262-.37 1.142.036 1.534.56.571 1.133.214 1.133-.713 0-.868-.549-1.26-1.169-.82ZM82.793 9.288c-.25.31-.298.452-.227.75.132.642.263.784.692.784.477 0 .667-.202.75-.796.049-.345 0-.524-.202-.785-.334-.417-.62-.405-1.013.047ZM37.77 9.36c-.287.07-.501.677-.418 1.2.179 1.023 1.252.976 1.466-.07.108-.536-.023-.917-.37-1.071-.32-.143-.345-.155-.679-.06Zm69.055 5.102c-.298.38-.334 1.189-.06 1.57.263.368 1.049.368 1.288-.012.226-.345.346-.976.25-1.273-.083-.262-.632-.595-1.001-.595-.131 0-.346.143-.477.31Zm-93.662 1.284c-.489.488-.548 1.059-.155 1.546.203.262.322.31.572.25.513-.12.847-.595.847-1.201 0-1.07-.537-1.32-1.264-.595ZM95.37 18.66c-.178.345-.143 1.106.072 1.415.548.797 1.728-.523 1.192-1.344-.25-.38-1.061-.428-1.264-.072Zm-70.5.618c-.238.19-.31.345-.31.714 0 .678.287 1.058.787 1.058.56 0 .811-.404.728-1.153-.096-.845-.584-1.106-1.204-.619Zm90.073 9.408c-.226.297-.501.915-.501 1.153 0 .345.692 1.082 1.002 1.082.655 0 1.156-.868.918-1.57a2.016 2.016 0 0 0-.334-.594c-.227-.25-.906-.286-1.085-.072ZM4.95 30.03c-.238.226-.298.404-.298.856 0 .618.346 1.344.644 1.344.382 0 .787-.285.978-.69.274-.595.119-1.177-.418-1.534-.5-.345-.548-.345-.906.024Zm100.135-.179c-.644.238-.894 1.059-.537 1.713.453.868 1.491.345 1.467-.726-.024-.785-.406-1.177-.93-.987Zm-89.68 1.142c-.382.262-.513.654-.37 1.154.131.5.357.701.763.701.5 0 .775-.345.775-.963 0-.952-.525-1.344-1.168-.892Zm91.804 13.665c-.31.214-.441.737-.334 1.368.107.606.334.832.834.832.573 0 .835-.416.823-1.284-.012-.535-.072-.702-.286-.88-.322-.262-.692-.274-1.037-.036Zm11.942 1.189c-.239.226-.298.404-.298.856 0 .333.083.69.19.845.251.356.716.535.99.38.31-.154.608-.844.608-1.391 0-.88-.894-1.297-1.49-.69Zm-106.382.25c-.179.227-.25.488-.25.928 0 .833.226 1.142.846 1.142.405 0 .5-.06.703-.393.31-.5.298-1.022-.035-1.522-.37-.547-.906-.618-1.264-.155ZM.61 47.524c-.428.535-.31 1.641.215 2.034.501.392 1.145-.095 1.288-.975.179-1.095-.882-1.844-1.502-1.059Zm107.204 10.49c-.263.166-.406.606-.406 1.213 0 .749.358 1.2.894 1.106.62-.12.918-1.677.417-2.177-.238-.238-.667-.309-.905-.142ZM12.483 59.56c-.536.582-.5 1.593.072 1.986.37.25.644.226.978-.12.226-.213.298-.415.298-.82 0-.951-.847-1.605-1.348-1.046Zm105.941 5.566c-.441.571-.465 1.368-.072 1.915.382.535.751.523 1.181-.047.25-.333.333-.56.321-.952-.011-.547-.178-.809-.751-1.142l-.357-.202-.322.428ZM1.648 66.767c-.346.166-.608.952-.513 1.487.095.487.548.963.942.963.477 0 .906-.618.906-1.296 0-.94-.656-1.487-1.335-1.154Zm107.969 19.254a3.71 3.71 0 0 0-.31.654c-.262.762.441 1.57 1.204 1.368.274-.071.524-.488.656-1.082.071-.333.023-.44-.334-.797-.501-.5-.942-.547-1.216-.143ZM10.578 87.27c-.716.785-.417 1.927.5 1.927.608 0 .716-.107.87-.868.132-.642.132-.69-.142-.975-.334-.357-.942-.404-1.228-.083Z"/></g></svg>