<svg width="113" height="112" viewBox="0 0 113 112" fill="none" xmlns="http://www.w3.org/2000/svg"><g clip-path="url(#a)"><path d="M52.584 12.397c3.57-.569 8.14-.603 9.89-.1 3.126.906 4.226 3.556 2.44 5.872-1.102 1.413-2.646 2.181-6.699 3.325-7.523 2.079-13.016 5.1-17.689 9.698-3.432 3.322-5.324 6.479-5.872 9.732-.172.906-.172 12.251 0 25.174.207 16.21.172 23.796-.07 24.399-.585 1.51-1.68 1.206-4.738-1.175-8.622-6.848-14.222-15.842-16.486-26.58-.758-3.695-.758-11.883.035-15.24 2.23-9.766 7.967-18.93 15.59-24.901 7.044-5.538 14.598-8.795 23.6-10.2v-.004Zm28.886 8.157c.344-.338.789-.603 1.03-.603.72 0 3.709 2.48 6.49 5.469 9.993 10.672 13.567 21.21 11.647 34.234-1.137 7.754-3.06 13.526-6.358 19.298-1.923 3.288-7.178 8.492-11.472 11.341-5.631 3.76-12.775 6.848-18.513 7.989-2.953.606-8.174.706-9.166.203-.862-.472-.862-1.882.034-3.257.855-1.378 1.13-1.509 6.007-2.753 5.703-1.44 7.902-2.55 10.476-5.335 3.78-3.994 7.833-10.707 9.101-14.97.552-1.778.552-3.894.31-25.34-.172-12.853-.275-23.86-.24-24.498.068-.638.344-1.41.654-1.778Zm-25.178 4.128c.793-.503 1.682-.706 3.16-.706 2.678 0 4.087.806 5.084 2.953.826 1.847.826 1.882 1.237 28.596.138 9.498.379 17.551.551 17.886.341.806 2.057 1.613 2.816 1.344 1.03-.369 4.29-3.288 6.454-5.772 1.137-1.31 2.233-2.382 2.475-2.382.792 0 .516 2.481-.62 5.604-1.476 4.128-3.778 8.322-5.907 10.876-4.26 5.031-11.676 7.785-15.009 5.569-2.612-1.679-2.85-3.054-3.47-18.761-.413-11.007-.172-33.697.38-38.831.378-3.288 1.336-5.438 2.85-6.376ZM40.116 54.72c4.773-2.35 10.373.169 11.607 5.17.723 2.918-.276 5.737-2.747 7.787-2.44 2.078-5.531 2.482-8.415 1.138-.927-.435-2.13-1.206-2.644-1.744-3.608-3.756-2.474-10.07 2.199-12.351Zm17.241 55.624c-30.453 0-55.138-24.685-55.138-55.138C2.219 24.75 26.903.066 57.357.066c30.454 0 55.139 24.685 55.139 55.139 0 30.453-24.685 55.138-55.139 55.138Zm0-5.513c27.407 0 49.625-22.218 49.625-49.625S84.764 5.58 57.357 5.58 7.733 27.798 7.733 55.205 29.95 104.83 57.357 104.83Z" fill="#333"/></g><defs><clipPath id="a"><path fill="#fff" transform="translate(.5)" d="M0 0h112v112H0z"/></clipPath></defs></svg>