<svg width="201" height="60" viewBox="0 0 201 60" fill="none" xmlns="http://www.w3.org/2000/svg">
<path d="M50.0422 17.9102H64.4491L64.941 31.7252H65.0817L71.0552 17.9102H85.4621L80.2615 43.226H71.6175L75.6232 23.31H75.4124L66.3466 43.226H58.2647L57.4916 23.31H57.2106L53.2048 43.226H44.9121L50.0422 17.9102Z" fill="#333333"/>
<path d="M94.1043 43.6463L94.8774 39.579H93.1205C86.4442 39.579 84.0547 35.7921 84.0547 32.0754C84.0547 26.5353 88.5524 20.0135 97.4074 20.0135H98.9534L99.7265 16.2266H109.355L108.581 20.0135H110.128C113.712 20.0135 119.404 20.855 119.404 27.5872C119.404 33.4778 115.188 39.6491 106.473 39.6491H104.576L103.803 43.7164H94.1043V43.6463ZM98.1103 25.7639H97.548C94.9477 25.7639 93.261 28.4989 93.261 30.8833C93.261 32.3558 94.1746 33.8286 95.9316 33.8286H96.4938L98.1103 25.7639ZM105.349 33.8286H105.911C108.652 33.8286 110.128 30.8833 110.128 28.6391C110.128 27.0261 109.214 25.7639 107.457 25.7639H106.895L105.349 33.8286Z" fill="#333333"/>
<path d="M148.361 17.9102L146.815 25.4138H138.241L134.657 43.226H124.959L128.543 25.4138H119.969L121.515 17.9102H148.361Z" fill="#333333"/>
<path d="M160.237 17.9102L157.285 32.3563H157.426L166.772 17.9102H178.088L172.956 43.226H163.259L166.14 29.0604H165.999L156.723 43.226H145.338L150.538 17.9102H160.237Z" fill="#333333"/>
<path d="M185.676 52.7644L187.011 45.6113L200.644 49.6788L185.676 52.7644Z" fill="#333333"/>
<path d="M182.442 47.2239H42.0284C39.4281 47.2239 38.3037 50.0991 37.2496 52.9042C36.8981 53.8861 36.2657 55.3587 35.8439 55.9899C35.0006 55.1484 34.4385 51.2213 34.1572 49.6784L34.0167 48.8369C33.1734 43.4371 32.4005 37.8269 31.6977 32.4271C28.5351 8.65394 26.9891 0.308782 22.5616 0.238654C17.0097 0.168527 15.0419 9.98635 9.13866 39.0891L8.36561 42.8761C7.52229 47.2239 5.48425 47.2239 4.64091 47.2239H1.97039L1.33789 50.9407H4.64091C6.81951 50.9407 10.755 49.9589 12.02 43.5773L12.7931 39.7904C16.3772 21.8379 19.8208 4.86705 22.2103 4.02552C24.3186 6.26961 26.3566 21.5573 27.9027 32.918C28.6054 38.388 29.3784 43.9981 30.2218 49.398L30.3623 50.2395C30.9948 54.5172 31.8382 59.917 35.8439 59.917C38.4442 59.917 39.5686 57.0418 40.6227 54.2367C41.0445 53.1848 41.7473 51.4316 42.1689 50.9407H181.669L182.442 47.2239Z" fill="#333333"/>
<path d="M45.2628 54.5879L45.6846 56.9723L46.809 54.5879H48.0739L47.4413 58.3046H46.5982L47.09 55.4294L45.6846 58.3046H45.1223L44.7005 55.4294L44.2087 58.3046H43.5059L44.1384 54.5879H45.2628Z" fill="#333333"/>
<path d="M51.0944 54.8683C51.3052 55.0787 51.5862 55.4994 51.5862 56.1306C51.5862 56.6916 51.3754 57.3227 51.0944 57.6734C50.8834 57.8838 50.4618 58.3747 49.6185 58.3747C49.1969 58.3747 48.8454 58.3044 48.5643 57.9539C48.2833 57.6734 48.1426 57.2525 48.1426 56.7617C48.1426 56.2708 48.2128 55.5695 48.7751 55.0086C49.1264 54.6578 49.5482 54.5176 50.0401 54.5176C50.3915 54.5176 50.7429 54.5877 51.0944 54.8683ZM49.2671 57.3928C49.4077 57.6033 49.5482 57.6734 49.759 57.6734C49.9698 57.6734 50.1103 57.6033 50.3213 57.3928C50.6023 57.0422 50.6726 56.411 50.6726 55.9903C50.6726 55.8501 50.6726 55.5695 50.5321 55.4292C50.4618 55.289 50.3213 55.1488 50.0401 55.1488C49.8293 55.1488 49.6185 55.2189 49.4779 55.4292C49.1969 55.78 49.1264 56.411 49.1264 56.8319C49.1264 57.0422 49.1969 57.2526 49.2671 57.3928Z" fill="#333333"/>
<path d="M54.3973 55.9905C54.3973 55.8503 54.3973 55.6398 54.2567 55.4995C54.1162 55.2892 53.9755 55.2191 53.7647 55.2191C53.4134 55.2191 53.2026 55.4294 53.1322 55.7101C52.9214 56.0606 52.8511 56.6217 52.8511 56.9723C52.8511 57.1125 52.8511 57.393 52.9916 57.5332C53.0619 57.6736 53.2729 57.7437 53.4134 57.7437C53.6944 57.7437 54.0458 57.6035 54.1865 56.9723L54.9594 57.1125C54.8891 57.3229 54.8188 57.5332 54.6783 57.6736C54.327 58.1644 53.9052 58.3747 53.4134 58.3747C52.8511 58.3747 52.4295 58.0943 52.289 57.8138C52.078 57.5332 51.9375 57.1826 51.9375 56.7619C51.9375 56.2009 52.1483 55.5697 52.4295 55.2191C52.7106 54.7984 53.2026 54.5879 53.7647 54.5879C54.2567 54.5879 54.608 54.7984 54.7486 54.9386C54.9594 55.149 55.1001 55.5697 55.1001 55.9204L54.3973 55.9905Z" fill="#333333"/>
<path d="M56.8605 54.5873L56.6497 56.06H56.931C57.212 56.06 57.3525 55.9899 57.7039 55.3587C57.8446 55.0082 57.9851 54.7976 58.1256 54.6574C58.2662 54.5873 58.3364 54.5172 58.4067 54.5172H59.1095C58.969 54.5873 58.8987 54.6574 58.6877 55.0082C58.4769 55.3587 58.477 55.3587 58.3364 55.6392C58.1959 55.9198 58.0554 55.9899 57.9851 56.06C57.9148 56.1301 57.7741 56.2003 57.7039 56.2003C57.9148 56.2704 58.0554 56.4106 58.1256 56.4807C58.1959 56.6209 58.2662 56.7612 58.2662 56.9016C58.3364 57.1119 58.3364 57.2522 58.3364 57.3924C58.4067 57.8132 58.5472 58.0236 58.6175 58.1638H57.8446C57.7741 58.1638 57.6336 58.0937 57.5633 57.8132C57.4931 57.6728 57.4931 57.4625 57.4228 57.1119C57.4228 56.9016 57.3526 56.6911 57.2823 56.621C57.212 56.5508 57.0715 56.4807 56.931 56.4807H56.5795L56.2984 58.0937H55.4551L56.0876 54.377H56.8605" fill="#333333"/>
<path d="M61.9204 54.8681C62.1314 55.0785 62.4827 55.4994 62.4827 56.1304C62.4827 56.6915 62.2719 57.3227 61.9908 57.6732C61.7799 57.8836 61.3583 58.3745 60.515 58.3745C60.0932 58.3745 59.7419 58.3044 59.4608 57.9537C59.1796 57.6732 59.0391 57.2525 59.0391 56.7616C59.0391 56.2708 59.1093 55.5695 59.6716 55.0084C60.0229 54.6578 60.4447 54.5176 60.9365 54.5176C61.2178 54.5176 61.5691 54.5877 61.9204 54.8681ZM60.0932 57.3928C60.2339 57.6031 60.3744 57.6732 60.5852 57.6732C60.796 57.6732 60.9365 57.6031 61.1475 57.3928C61.4286 57.042 61.4988 56.411 61.4988 55.9901C61.4988 55.8499 61.4988 55.5695 61.3583 55.4292C61.288 55.289 61.1475 55.1486 60.8663 55.1486C60.6555 55.1486 60.4447 55.2187 60.3042 55.4292C60.0229 55.7798 59.9527 56.411 59.9527 56.8317C59.9527 57.042 60.0229 57.2526 60.0932 57.3928Z" fill="#333333"/>
<path d="M64.8662 54.5879C65.1473 54.5879 65.3581 54.658 65.5688 54.7281C65.7798 54.8685 65.9906 55.0789 65.9906 55.4995C65.9906 55.7802 65.8501 55.9905 65.7095 56.1307C65.5688 56.271 65.4283 56.3411 65.2175 56.4112C65.358 56.4813 65.4986 56.4813 65.5688 56.6217C65.7798 56.7619 65.8501 57.0424 65.8501 57.2527C65.8501 57.5332 65.7095 57.8138 65.5688 58.0242C65.2878 58.3046 64.8662 58.3747 64.5147 58.3747H62.6875L63.32 54.658H64.8662V54.5879ZM63.6714 57.6736H64.3742C64.585 57.6736 64.7257 57.6736 64.8662 57.5332C64.9365 57.4631 65.0067 57.3229 65.0067 57.1826C65.0067 56.9723 64.9365 56.9022 64.8662 56.8321C64.7257 56.7619 64.585 56.7619 64.4444 56.7619H63.8121L63.6714 57.6736ZM63.8823 56.0606H64.5147C64.6552 56.0606 64.8662 56.0606 65.0067 55.9204C65.077 55.8503 65.1473 55.7802 65.1473 55.6398C65.1473 55.3593 64.9365 55.2892 64.6552 55.2892H64.0229L63.8823 56.0606Z" fill="#333333"/>
<path d="M68.8055 55.9905C68.8055 55.8503 68.8055 55.6398 68.6649 55.4995C68.5244 55.2892 68.3839 55.2191 68.1729 55.2191C67.8216 55.2191 67.6811 55.4294 67.5405 55.7101C67.3296 56.0606 67.2593 56.6217 67.2593 56.9723C67.2593 57.1125 67.2593 57.393 67.4 57.5332C67.4703 57.6736 67.6811 57.7437 67.8216 57.7437C68.1026 57.7437 68.4541 57.6035 68.5947 56.9723L69.3678 57.1125C69.2975 57.3229 69.227 57.5332 69.0865 57.6736C68.7352 58.1644 68.3134 58.3747 67.8216 58.3747C67.2593 58.3747 66.8377 58.0943 66.6972 57.8138C66.4864 57.5332 66.3457 57.1826 66.3457 56.7619C66.3457 56.2009 66.5567 55.5697 66.8377 55.2191C67.1188 54.7984 67.6108 54.5879 68.1729 54.5879C68.6649 54.5879 69.0163 54.7984 69.1568 54.9386C69.3678 55.149 69.5083 55.5697 69.5083 55.9204L68.8055 55.9905Z" fill="#333333"/>
<path d="M71.2649 54.5873L71.0541 56.06H71.3352C71.6162 56.06 71.7568 55.9899 72.1082 55.3587C72.2488 55.0082 72.3893 54.7976 72.5298 54.6574C72.6705 54.5873 72.7408 54.5172 72.8111 54.5172H73.5137C73.3732 54.5873 73.3029 54.6574 73.0921 55.0082C72.8813 55.3587 72.8813 55.3587 72.7408 55.6392C72.6001 55.9198 72.4596 55.9899 72.3893 56.06C72.319 56.1301 72.1785 56.2003 72.1082 56.2003C72.319 56.2704 72.4596 56.4106 72.5298 56.4807C72.6001 56.6209 72.6704 56.7612 72.6704 56.9016C72.7408 57.1119 72.7408 57.2522 72.7408 57.3924C72.8111 57.8132 72.9516 58.0236 73.0218 58.1638H72.1082C72.038 58.1638 71.8975 58.0937 71.8272 57.8132C71.7569 57.6728 71.7568 57.4625 71.6865 57.1119C71.6865 56.9016 71.6162 56.6911 71.546 56.621C71.4757 56.5508 71.3352 56.4807 71.1946 56.4807H70.8431L70.5621 58.0937H69.7188L70.3513 54.377H71.2649" fill="#333333"/>
<path d="M74.8468 54.5877L74.4955 56.5514C74.4955 56.6215 74.4252 56.8319 74.4252 56.902C74.5658 56.6916 74.5658 56.6215 74.636 56.6215L76.0416 54.8683L76.1119 54.5877H76.9553L76.3227 58.3044H75.4794L75.8309 56.2708C75.8309 56.1305 75.9011 56.0604 75.9011 55.9202C75.8307 55.9903 75.7604 56.1306 75.6902 56.2007L74.2847 57.9539L74.2144 58.2343H73.3711L74.0036 54.5176H74.8468" fill="#333333"/>
<path d="M78.5755 54.5874L78.224 56.551C78.224 56.6211 78.1537 56.8316 78.1537 56.9017C78.2942 56.6914 78.2942 56.6213 78.3645 56.6213L79.7701 54.8681L79.8404 54.5874H80.6837L80.0512 58.3042H79.2078L79.5593 56.2705C79.5593 56.1303 79.6296 56.0602 79.6296 55.92C79.5593 55.9901 79.4891 56.1303 79.4186 56.2004L78.0132 57.9536L77.9429 58.2341H77.0293L77.6618 54.5173H78.5755V54.5874ZM78.8565 53.6758C78.8565 53.7459 78.8565 53.816 78.9268 53.8863C78.997 53.9564 79.0673 53.9564 79.2078 53.9564C79.2781 53.9564 79.4186 53.9564 79.4891 53.8863C79.5593 53.816 79.6296 53.7459 79.6296 53.6758H80.262C80.1917 53.9564 80.0512 54.0966 79.9106 54.2369C79.6998 54.3771 79.4186 54.4472 79.1376 54.4472C78.9268 54.4472 78.5755 54.3771 78.4348 54.2369C78.2942 54.1668 78.224 53.9564 78.224 53.7459H78.8565V53.6758Z" fill="#333333"/>
<path d="M84.9675 54.5176L84.8972 54.9383C85.3188 54.9383 85.8108 55.0785 86.0216 55.4292C86.2324 55.7097 86.2324 55.9901 86.2324 56.2708C86.2324 56.4811 86.2324 57.1123 85.6701 57.533C85.389 57.8135 84.8972 57.9537 84.3349 57.9537L84.2646 58.4447H83.4213L83.4916 57.9537C82.9995 57.9537 82.6482 57.8135 82.4374 57.6031C82.2266 57.3928 82.0859 57.1123 82.0859 56.6915C82.0859 56.2708 82.2266 55.7097 82.859 55.3591C83.1402 55.1486 83.4916 55.0785 83.9836 55.0785L84.0538 54.6578H84.9675V54.5176ZM83.9836 55.5695C83.7726 55.5695 83.4916 55.7097 83.2808 55.8499C83.07 56.0603 82.9997 56.3409 82.9997 56.6214C82.9997 56.9018 83.07 57.042 83.2105 57.1123C83.351 57.2526 83.5618 57.3227 83.7024 57.3227L83.9836 55.5695ZM84.4754 57.2525C84.8269 57.2525 85.0377 57.1824 85.2485 56.9018C85.389 56.6915 85.4593 56.4811 85.4593 56.2007C85.4593 55.8499 85.3188 55.6396 85.1782 55.5695C85.108 55.4993 84.8972 55.4993 84.7565 55.4993L84.4754 57.2525Z" fill="#333333"/>
<path d="M88.0617 54.5877L87.7103 56.5512C87.7103 56.6214 87.6401 56.8317 87.6401 56.9018C87.7806 56.6915 87.7806 56.6214 87.8509 56.6214L89.2565 54.8681L89.3268 54.5877H90.1701L89.5375 58.3044H88.6942L89.0457 56.2708C89.0457 56.1304 89.116 56.0603 89.116 55.92C89.0457 55.9902 88.9753 56.1304 88.905 56.2007L87.4995 57.9537L87.4293 58.2343H86.5859L87.2185 54.5176H88.0617" fill="#333333"/>
<path d="M90.5233 55.6398C90.5936 55.4294 90.7343 55.0789 91.0856 54.8685C91.2964 54.7281 91.6479 54.5879 92.1397 54.5879C92.5615 54.5879 92.7723 54.658 92.9831 54.7984C93.3344 55.0087 93.4048 55.2892 93.4048 55.4995C93.4048 55.7802 93.2641 55.9905 93.1236 56.1307C93.0533 56.2009 92.9128 56.3411 92.6317 56.4112C92.7723 56.4112 92.9128 56.5514 93.0533 56.6217C93.1236 56.6918 93.2641 56.9022 93.2641 57.1125C93.2641 57.4631 93.1236 57.8839 92.702 58.0943C92.3505 58.3046 91.9289 58.3046 91.6479 58.3046C91.2964 58.3046 90.8748 58.2345 90.5936 57.9541C90.453 57.7437 90.3125 57.5332 90.3125 57.2527L91.0856 57.1125C91.1558 57.2527 91.2261 57.393 91.2261 57.4631C91.3666 57.6035 91.5776 57.6736 91.7884 57.6736C92.1397 57.6736 92.2802 57.5332 92.3505 57.5332C92.4912 57.393 92.5615 57.2527 92.5615 57.1826C92.5615 57.0424 92.491 56.9022 92.4208 56.8321C92.2802 56.6918 92.0694 56.6918 91.9289 56.6918H91.5072L91.5776 56.0606H91.9992C92.1397 56.0606 92.3505 55.9905 92.4912 55.9204C92.5615 55.8503 92.6317 55.7101 92.6317 55.5697C92.6317 55.4294 92.5615 55.3593 92.4912 55.2892C92.3505 55.2191 92.2802 55.2191 92.1397 55.2191C91.9289 55.2191 91.7884 55.2191 91.5776 55.3593C91.5072 55.4294 91.3666 55.5697 91.2964 55.7802L90.5233 55.6398Z" fill="#333333"/>
<path d="M95.0872 54.5877L94.7359 56.5512C94.7359 56.6214 94.6655 56.8317 94.6655 56.9018C94.8062 56.6915 94.8062 56.6214 94.8764 56.6214L96.2819 54.8681L96.3521 54.5877H97.1955L96.5631 58.3044H95.7198L96.0711 56.2708C96.0711 56.1304 96.1413 56.0603 96.1413 55.92C96.0711 55.9902 96.0008 56.1304 95.9306 56.2007L94.5249 57.9537L94.4547 58.2343H93.6113L94.2439 54.5176H95.0872" fill="#333333"/>
<path d="M98.8119 54.5873L98.6009 56.06H98.8821C99.1632 56.06 99.3037 55.9899 99.6552 55.3587C99.7957 55.0082 99.9363 54.7976 100.077 54.6574C100.217 54.5873 100.288 54.5172 100.358 54.5172H101.061C100.92 54.5873 100.85 54.6574 100.639 55.0082C100.428 55.3587 100.428 55.3587 100.288 55.6392C100.147 55.9198 100.007 55.9899 99.9363 56.06C99.866 56.1301 99.7255 56.2003 99.6552 56.2003C99.866 56.2704 100.007 56.4106 100.077 56.4807C100.147 56.6209 100.217 56.7612 100.217 56.9016C100.288 57.1119 100.288 57.2522 100.288 57.3924C100.358 57.8132 100.499 58.0236 100.569 58.1638H99.7957C99.7255 58.1638 99.585 58.0937 99.5145 57.8132C99.4443 57.6728 99.4443 57.4625 99.374 57.1119C99.374 56.9016 99.3037 56.6911 99.2335 56.621C99.1632 56.5508 99.0227 56.4807 98.8821 56.4807H98.5306L98.2496 58.0937H97.4062L98.0388 54.377H98.8119" fill="#333333"/>
<path d="M103.872 54.8681C104.082 55.0785 104.434 55.4994 104.434 56.1304C104.434 56.6915 104.223 57.3227 103.942 57.6732C103.731 57.8836 103.309 58.3745 102.466 58.3745C102.044 58.3745 101.693 58.3044 101.412 57.9537C101.131 57.6732 100.99 57.2525 100.99 56.7616C100.99 56.2708 101.061 55.5695 101.623 55.0084C101.974 54.6578 102.396 54.5176 102.888 54.5176C103.169 54.5176 103.52 54.5877 103.872 54.8681ZM102.044 57.3928C102.185 57.6031 102.325 57.6732 102.536 57.6732C102.747 57.6732 102.888 57.6031 103.099 57.3928C103.38 57.042 103.45 56.411 103.45 55.9901C103.45 55.8499 103.45 55.5695 103.309 55.4292C103.239 55.289 103.099 55.1486 102.817 55.1486C102.606 55.1486 102.396 55.2187 102.255 55.4292C101.974 55.7798 101.904 56.411 101.904 56.8317C101.904 57.042 101.974 57.2526 102.044 57.3928Z" fill="#333333"/>
<path d="M105.841 56.5508H104.576L104.436 57.182H105.771L105.841 56.5508Z" fill="#333333"/>
<path d="M108.794 54.5879L108.723 55.2892H107.81L107.318 58.3046H106.474L106.966 55.2892H106.053L106.193 54.5879H108.794Z" fill="#333333"/>
<path d="M111.674 55.2892H109.917L109.777 56.0606H111.182L111.112 56.6918H109.706L109.566 57.6035H111.323L111.182 58.3046H108.582L109.215 54.5879H111.815L111.674 55.2892Z" fill="#333333"/>
<path d="M113.854 56.3411L114.768 58.3046H113.784L113.222 56.9723L112.168 58.3046H111.324L112.87 56.4112L112.027 54.5879H113.081L113.503 55.7802L114.416 54.5879H115.189L113.854 56.3411Z" fill="#333333"/>
<path d="M116.665 54.5879L116.384 56.0606H117.649L117.86 54.5879H118.703L118.141 58.3046H117.227L117.508 56.7619H116.244L116.033 58.3046H115.119L115.752 54.5879H116.665Z" fill="#333333"/>
<path d="M120.316 54.5877L119.964 56.5512C119.964 56.6214 119.894 56.8317 119.894 56.9018C120.035 56.6915 120.035 56.6214 120.105 56.6214L121.51 54.8681L121.581 54.5877H122.424L121.791 58.3044H120.948L121.299 56.2708C121.299 56.1304 121.37 56.0603 121.37 55.92C121.299 55.9902 121.229 56.1304 121.159 56.2007L119.753 57.9537L119.683 58.2343H118.84L119.472 54.5176H120.316" fill="#333333"/>
<path d="M123.902 54.5877L123.761 55.5695C123.761 55.6397 123.761 55.7099 123.761 55.78C123.761 55.8501 123.761 55.9202 123.832 55.9903C123.902 56.1306 124.113 56.1306 124.253 56.1306C124.394 56.1306 124.675 56.1305 124.815 56.0604L125.097 54.5176H125.94L125.307 58.2343H124.464L124.745 56.6916C124.534 56.6916 124.253 56.7617 123.972 56.7617C123.761 56.7617 123.34 56.7617 123.129 56.5514C122.988 56.4811 122.918 56.2708 122.918 55.9202C122.918 55.78 122.918 55.6397 122.988 55.4993L123.129 54.5176H123.902" fill="#333333"/>
<path d="M129.174 55.2892H127.417L127.277 56.0606H128.682L128.612 56.6918H127.206L127.066 57.6035H128.823L128.682 58.3046H126.082L126.644 54.5879H129.315L129.174 55.2892Z" fill="#333333"/>
<path d="M131.772 55.9905C131.772 55.8503 131.772 55.6398 131.632 55.4995C131.491 55.2892 131.351 55.2191 131.14 55.2191C130.788 55.2191 130.648 55.4294 130.507 55.7101C130.296 56.0606 130.226 56.6217 130.226 56.9723C130.226 57.1125 130.226 57.393 130.367 57.5332C130.437 57.6736 130.648 57.7437 130.788 57.7437C131.069 57.7437 131.421 57.6035 131.561 56.9723L132.334 57.1125C132.264 57.3229 132.194 57.5332 132.053 57.6736C131.702 58.1644 131.28 58.3747 130.788 58.3747C130.226 58.3747 129.804 58.0943 129.664 57.8138C129.453 57.5332 129.312 57.1826 129.312 56.7619C129.312 56.2009 129.523 55.5697 129.804 55.2191C130.086 54.7984 130.577 54.5879 131.14 54.5879C131.632 54.5879 131.983 54.7984 132.124 54.9386C132.334 55.149 132.475 55.5697 132.475 55.9204L131.772 55.9905Z" fill="#333333"/>
<path d="M134.234 54.5873L133.953 56.06H134.234C134.515 56.06 134.655 55.9899 135.007 55.3587C135.147 55.0082 135.288 54.7976 135.428 54.6574C135.569 54.5873 135.639 54.5172 135.71 54.5172H136.412C136.272 54.5873 136.201 54.6574 135.991 55.0082C135.78 55.3587 135.78 55.3587 135.639 55.6392C135.499 55.9198 135.358 55.9899 135.288 56.06C135.218 56.1301 135.077 56.2003 135.007 56.2003C135.218 56.2704 135.358 56.4106 135.428 56.4807C135.499 56.6209 135.569 56.7612 135.569 56.9016C135.639 57.1119 135.639 57.2522 135.639 57.3924C135.71 57.8132 135.85 58.0236 135.92 58.1638H135.147C135.077 58.1638 134.937 58.0937 134.866 57.8132C134.796 57.6728 134.796 57.4625 134.726 57.1119C134.726 56.9016 134.655 56.6911 134.585 56.621C134.515 56.5508 134.374 56.4807 134.234 56.4807H133.882L133.601 58.0937H132.758L133.39 54.377H134.234" fill="#333333"/>
<path d="M137.818 54.5877L137.466 56.5512C137.466 56.6214 137.396 56.8317 137.396 56.9018C137.536 56.6915 137.536 56.6214 137.607 56.6214L139.012 54.8681L139.083 54.5877H139.926L139.293 58.3044H138.45L138.801 56.2708C138.801 56.1304 138.872 56.0603 138.872 55.92C138.801 55.9902 138.731 56.1304 138.661 56.2007L137.255 57.9537L137.185 58.2343H136.342L136.974 54.5176H137.818" fill="#333333"/>
<path d="M141.542 54.5874L141.191 56.551C141.191 56.6211 141.121 56.8316 141.121 56.9017C141.261 56.6914 141.261 56.6213 141.332 56.6213L142.737 54.8681L142.807 54.5874H143.651L143.018 58.3042H142.175L142.526 56.2705C142.526 56.1303 142.596 56.0602 142.596 55.92C142.526 55.9901 142.456 56.1303 142.386 56.2004L140.98 57.9536L140.91 58.2341H140.066L140.699 54.5173H141.542V54.5874ZM141.823 53.6758C141.823 53.7459 141.823 53.816 141.894 53.8863C141.964 53.9564 142.034 53.9564 142.175 53.9564C142.245 53.9564 142.386 53.9564 142.456 53.8863C142.526 53.816 142.596 53.7459 142.596 53.6758H143.299C143.229 53.9564 143.088 54.0966 142.948 54.2369C142.737 54.3771 142.456 54.4472 142.175 54.4472C141.964 54.4472 141.613 54.3771 141.472 54.2369C141.332 54.1668 141.261 53.9564 141.261 53.7459H141.823V53.6758Z" fill="#333333"/>
<path d="M146.46 54.5877L146.109 56.5514C146.109 56.6215 146.039 56.8319 146.039 56.902C146.179 56.6916 146.179 56.6215 146.249 56.6215L147.655 54.8683L147.725 54.5877H148.569L147.936 58.3044H147.093L147.444 56.2708C147.444 56.1305 147.514 56.0604 147.514 55.9202C147.444 55.9903 147.374 56.1306 147.304 56.2007L145.898 57.9539L145.828 58.2343H144.984L145.617 54.5176H146.46" fill="#333333"/>
<path d="M150.187 54.5879L149.976 56.0606H151.171L151.452 54.5879H152.295L151.663 58.3046H150.819L151.1 56.7619H149.835L149.625 58.3046H148.711L149.343 54.5879H150.187Z" fill="#333333"/>
<path d="M154.964 55.9905C154.964 55.8503 154.964 55.6398 154.823 55.4995C154.682 55.2892 154.542 55.2191 154.331 55.2191C153.98 55.2191 153.769 55.4294 153.699 55.7101C153.488 56.0606 153.418 56.6217 153.418 56.9723C153.418 57.1125 153.418 57.393 153.558 57.5332C153.628 57.6736 153.839 57.7437 153.98 57.7437C154.261 57.7437 154.612 57.6035 154.753 56.9723L155.526 57.1125C155.456 57.3229 155.385 57.5332 155.245 57.6736C154.893 58.1644 154.472 58.3747 153.98 58.3747C153.347 58.3747 152.996 58.0943 152.855 57.8138C152.644 57.5332 152.504 57.1826 152.504 56.7619C152.504 56.2009 152.715 55.5697 152.996 55.2191C153.277 54.7984 153.769 54.5879 154.331 54.5879C154.823 54.5879 155.174 54.7984 155.315 54.9386C155.526 55.149 155.666 55.5697 155.666 55.9204L154.964 55.9905Z" fill="#333333"/>
<path d="M158.833 54.5879L158.692 55.2892H157.778L157.286 58.3046H156.443L156.935 55.2892H156.021L156.162 54.5879H158.833Z" fill="#333333"/>
<path d="M160.027 54.5877L159.675 56.5512C159.675 56.6214 159.605 56.8317 159.605 56.9018C159.745 56.6915 159.745 56.6214 159.816 56.6214L161.221 54.8681L161.292 54.5877H162.135L161.502 58.3044H160.659L161.011 56.2708C161.011 56.1304 161.081 56.0603 161.081 55.92C161.011 55.9902 160.94 56.1304 160.87 56.2007L159.464 57.9537L159.394 58.2343H158.551L159.183 54.5176H160.027" fill="#333333"/>
<path d="M165.155 54.5879L165.014 55.2892H164.171L163.679 58.3046H162.765L163.257 55.2892H162.414L162.484 54.5879H165.155Z" fill="#333333"/>
<path d="M166.07 54.5877L166.632 56.3409L167.616 54.5877H168.389L166.843 57.2525C166.562 57.8135 166.351 57.9537 166.281 58.024C165.999 58.2343 165.718 58.3044 165.437 58.3044C165.297 58.3044 165.086 58.3044 165.016 58.2343L165.156 57.6031C165.297 57.6732 165.437 57.6732 165.507 57.6732C165.648 57.6732 165.789 57.6732 165.929 57.533C165.999 57.4629 166.07 57.3928 166.14 57.2525L165.226 54.5176H166.07" fill="#333333"/>
<path d="M170.989 54.5879L170.848 55.2892H170.005L169.513 58.3046H168.6L169.091 55.2892H168.248L168.318 54.5879H170.989Z" fill="#333333"/>
</svg>
