<svg width="201" height="60" viewBox="0 0 201 60" fill="none" xmlns="http://www.w3.org/2000/svg"><path d="M50.042 17.91H64.45l.492 13.815h.14l5.974-13.815h14.407l-5.2 25.316h-8.644l4.005-19.916h-.21l-9.066 19.916h-8.082l-.773-19.916h-.281l-4.006 19.916h-8.293l5.13-25.316Zm44.062 25.736.773-4.067h-1.756c-6.677 0-9.066-3.787-9.066-7.504 0-5.54 4.497-12.062 13.352-12.062h1.546l.773-3.786h9.629l-.774 3.787h1.547c3.584 0 9.276.841 9.276 7.573 0 5.89-4.216 12.062-12.931 12.062h-1.897l-.773 4.067h-9.699v-.07Zm4.006-17.882h-.562c-2.6 0-4.287 2.735-4.287 5.12 0 1.472.914 2.945 2.67 2.945h.563l1.616-8.065Zm7.239 8.065h.562c2.741 0 4.217-2.946 4.217-5.19 0-1.613-.914-2.875-2.671-2.875h-.562l-1.546 8.065Zm43.012-15.919-1.546 7.504h-8.574l-3.584 17.812h-9.698l3.584-17.812h-8.574l1.546-7.504h26.846Zm11.876 0-2.952 14.446h.141l9.346-14.446h11.316l-5.132 25.316h-9.697l2.881-14.166h-.141l-9.276 14.166h-11.385l5.2-25.316h9.699Zm25.439 34.854 1.335-7.153 13.633 4.068-14.968 3.085Z" fill="#333"/><path d="M182.442 47.224H42.028c-2.6 0-3.724 2.875-4.778 5.68-.352.982-.984 2.455-1.406 3.086-.843-.842-1.406-4.769-1.687-6.312l-.14-.841c-.844-5.4-1.617-11.01-2.32-16.41C28.536 8.654 26.99.31 22.563.24 17.011.17 15.043 9.987 9.14 39.09l-.773 3.787c-.844 4.348-2.882 4.348-3.725 4.348H1.97l-.633 3.717H4.64c2.179 0 6.114-.982 7.379-7.364l.773-3.787c3.584-17.952 7.028-34.923 9.417-35.764 2.109 2.244 4.147 17.531 5.693 28.892a614 614 0 0 0 2.319 16.48l.14.841c.633 4.278 1.476 9.678 5.482 9.678 2.6 0 3.725-2.875 4.779-5.68.422-1.052 1.124-2.805 1.546-3.296h139.5l.773-3.717Z" fill="#333"/><path d="m45.263 54.588.422 2.384 1.124-2.384h1.265l-.633 3.717h-.843l.492-2.876-1.405 2.876h-.563l-.422-2.876-.491 2.876h-.703l.632-3.717h1.125Zm5.831.28c.211.21.492.631.492 1.263 0 .56-.21 1.192-.492 1.542-.21.21-.632.702-1.476.702-.421 0-.773-.07-1.054-.421-.28-.28-.421-.702-.421-1.192 0-.491.07-1.193.632-1.753.351-.351.773-.491 1.265-.491.352 0 .703.07 1.054.35Zm-1.827 2.525c.14.21.281.28.492.28.21 0 .351-.07.562-.28.281-.35.352-.982.352-1.403 0-.14 0-.42-.14-.56-.071-.141-.212-.281-.493-.281-.21 0-.422.07-.562.28-.281.351-.352.982-.352 1.403 0 .21.07.42.141.56Zm5.13-1.403c0-.14 0-.35-.14-.49-.14-.21-.282-.28-.492-.28a.615.615 0 0 0-.633.49c-.21.35-.28.912-.28 1.262 0 .14 0 .421.14.561.07.14.28.21.421.21.281 0 .633-.14.774-.77l.772.14c-.07.21-.14.42-.28.56-.352.491-.774.702-1.266.702-.562 0-.983-.28-1.124-.561a1.72 1.72 0 0 1-.352-1.052c0-.561.211-1.192.492-1.543.282-.42.774-.631 1.336-.631.492 0 .843.21.984.35.21.211.351.632.351.982l-.703.07Zm2.463-1.403-.21 1.473h.281c.281 0 .422-.07.773-.701.14-.35.281-.561.422-.702.14-.07.21-.14.28-.14h.703c-.14.07-.21.14-.421.491-.211.35-.211.35-.352.631-.14.28-.28.35-.35.421a.534.534 0 0 1-.282.14c.21.07.351.21.422.28.07.14.14.281.14.422.07.21.07.35.07.49.07.421.211.632.282.772h-.773c-.07 0-.211-.07-.282-.35-.07-.141-.07-.352-.14-.702 0-.21-.07-.42-.14-.491a.537.537 0 0 0-.352-.14h-.351l-.282 1.613h-.843l.633-3.717h.773m5.059.491c.211.21.563.631.563 1.262 0 .561-.211 1.193-.492 1.543-.211.21-.633.701-1.476.701-.422 0-.773-.07-1.054-.42-.281-.28-.422-.702-.422-1.192 0-.491.07-1.193.633-1.754.35-.35.773-.49 1.265-.49.28 0 .632.07.983.35Zm-1.827 2.525c.14.21.281.28.492.28.211 0 .352-.07.563-.28.28-.351.35-.982.35-1.403 0-.14 0-.42-.14-.56-.07-.141-.21-.281-.492-.281-.21 0-.421.07-.562.28-.281.35-.351.982-.351 1.403 0 .21.07.42.14.56Zm4.773-2.805c.281 0 .492.07.703.14.21.14.422.35.422.771 0 .281-.14.491-.281.632-.141.14-.282.21-.492.28.14.07.28.07.35.21.212.14.282.421.282.632 0 .28-.14.56-.281.771-.281.28-.703.35-1.054.35h-1.828l.633-3.716h1.546v-.07Zm-1.195 3.086h.703c.211 0 .352 0 .492-.14.07-.07.14-.211.14-.351 0-.21-.07-.28-.14-.35-.14-.071-.281-.071-.422-.071h-.632l-.14.912Zm.211-1.613h.633c.14 0 .351 0 .492-.14.07-.07.14-.14.14-.281 0-.28-.21-.35-.492-.35h-.632l-.14.77Zm4.923-.071c0-.14 0-.35-.14-.49-.14-.21-.281-.28-.492-.28-.351 0-.492.21-.633.49-.21.35-.28.912-.28 1.262 0 .14 0 .421.14.561.07.14.281.21.422.21.28 0 .632-.14.773-.77l.773.14c-.07.21-.141.42-.281.56-.352.491-.774.702-1.265.702-.563 0-.984-.28-1.125-.561a1.72 1.72 0 0 1-.351-1.052c0-.561.21-1.192.492-1.543.28-.42.773-.631 1.335-.631.492 0 .843.21.984.35.21.211.351.632.351.982l-.703.07Zm2.46-1.403-.21 1.473h.28c.281 0 .422-.07.773-.701.14-.35.281-.561.422-.702.14-.07.21-.14.281-.14h.703c-.14.07-.211.14-.422.491-.21.35-.21.35-.351.631-.14.28-.281.35-.352.421a.53.53 0 0 1-.28.14c.21.07.35.21.42.28.071.14.141.281.141.422.07.21.07.35.07.49.071.421.212.632.282.772h-.914c-.07 0-.21-.07-.28-.35-.071-.141-.071-.352-.142-.702 0-.21-.07-.42-.14-.491a.537.537 0 0 0-.351-.14h-.352l-.28 1.613h-.844l.632-3.717h.914m3.582.211-.351 1.963c0 .07-.07.28-.07.351.14-.21.14-.28.21-.28l1.406-1.754.07-.28h.843l-.632 3.716h-.844l.352-2.033c0-.14.07-.21.07-.35-.07.07-.14.21-.21.28l-1.406 1.753-.07.28h-.844l.633-3.716h.843m3.729.069-.352 1.964c0 .07-.07.28-.07.35.14-.21.14-.28.21-.28l1.406-1.753.07-.28h.844l-.633 3.716h-.843l.351-2.034c0-.14.07-.21.07-.35-.07.07-.14.21-.21.28l-1.406 1.754-.07.28h-.914l.633-3.717h.913v.07Zm.28-.911c0 .07 0 .14.07.21.071.07.141.07.282.07.07 0 .21 0 .281-.07.07-.07.14-.14.14-.21h.633c-.07.28-.21.42-.351.56a1.413 1.413 0 0 1-.773.211c-.211 0-.563-.07-.703-.21-.14-.07-.211-.28-.211-.491h.632v-.07Zm6.112.842-.07.42c.42 0 .913.14 1.124.491.21.28.21.561.21.842 0 .21 0 .841-.562 1.262-.281.28-.773.42-1.335.42l-.07.492h-.844l.07-.491c-.492 0-.843-.14-1.054-.35-.21-.211-.351-.492-.351-.913 0-.42.14-.981.773-1.332.281-.21.633-.28 1.125-.28l.07-.421h.913v-.14Zm-.984 1.051c-.211 0-.492.14-.703.28-.211.211-.281.492-.281.772s.07.421.21.491c.141.14.352.21.492.21l.282-1.753Zm.491 1.683c.352 0 .563-.07.774-.35.14-.21.21-.42.21-.701 0-.351-.14-.561-.28-.632-.071-.07-.282-.07-.422-.07l-.282 1.753Zm3.587-2.664-.352 1.963c0 .07-.07.28-.07.35.14-.21.14-.28.21-.28l1.407-1.753.07-.28h.843l-.633 3.716h-.843l.352-2.033c0-.14.07-.21.07-.351-.07.07-.14.21-.211.28l-1.406 1.754-.07.28h-.843l.633-3.716h.843m2.461 1.122c.07-.21.211-.561.563-.772.21-.14.562-.28 1.054-.28.421 0 .632.07.843.21.351.21.422.491.422.701 0 .281-.14.491-.281.632a.985.985 0 0 1-.492.28c.14 0 .28.14.421.21.07.07.211.281.211.491 0 .351-.14.772-.562.982-.352.21-.773.21-1.054.21-.352 0-.773-.07-1.054-.35-.141-.21-.281-.42-.281-.701l.773-.14c.07.14.14.28.14.35a.8.8 0 0 0 .562.21c.352 0 .492-.14.563-.14.14-.14.21-.28.21-.35 0-.14-.07-.28-.14-.35-.14-.141-.352-.141-.492-.141h-.422l.07-.631H92c.14 0 .352-.07.492-.14.07-.07.14-.21.14-.351 0-.14-.07-.21-.14-.28-.14-.07-.21-.07-.351-.07-.211 0-.352 0-.562.14-.07.07-.211.21-.282.42l-.773-.14Zm4.564-1.052-.351 1.963c0 .07-.07.28-.07.35.14-.21.14-.28.21-.28l1.406-1.753.07-.28h.843l-.632 3.716h-.843l.351-2.033c0-.14.07-.21.07-.351-.07.07-.14.21-.21.28l-1.406 1.754-.07.28h-.844l.633-3.716h.843m3.725.069L98.6 56.06h.281c.281 0 .422-.07.773-.701.14-.35.281-.561.422-.702.14-.07.211-.14.281-.14h.703c-.141.07-.211.14-.422.491-.211.35-.211.35-.351.631-.141.28-.281.35-.352.421a.53.53 0 0 1-.28.14c.21.07.351.21.421.28.07.14.14.281.14.422.071.21.071.35.071.49.07.421.211.632.281.772h-.773c-.07 0-.211-.07-.282-.35-.07-.141-.07-.352-.14-.702 0-.21-.07-.42-.14-.491a.537.537 0 0 0-.352-.14h-.351l-.281 1.613h-.844l.633-3.717h.773m5.061.491c.21.21.562.631.562 1.262 0 .561-.211 1.193-.492 1.543-.211.21-.633.701-1.476.701-.422 0-.773-.07-1.054-.42-.281-.28-.422-.702-.422-1.192 0-.491.071-1.193.633-1.754.351-.35.773-.49 1.265-.49.281 0 .632.07.984.35Zm-1.828 2.525c.141.21.281.28.492.28.211 0 .352-.07.563-.28.281-.351.351-.982.351-1.403 0-.14 0-.42-.141-.56-.07-.141-.21-.281-.492-.281-.211 0-.421.07-.562.28-.281.35-.351.982-.351 1.403 0 .21.07.42.14.56Zm3.797-.843h-1.265l-.14.632h1.335l.07-.631Zm2.953-1.962-.071.701h-.913l-.492 3.016h-.844l.492-3.016h-.913l.14-.701h2.601Zm2.88.702h-1.757l-.14.77h1.405l-.07.632h-1.406l-.14.911h1.757l-.141.702h-2.6l.633-3.717h2.6l-.141.701Zm2.18 1.051.914 1.964h-.984l-.562-1.333-1.054 1.333h-.844l1.546-1.894-.843-1.823h1.054l.422 1.192.913-1.192h.773l-1.335 1.753Zm2.811-1.753-.281 1.473h1.265l.211-1.473h.843l-.562 3.717h-.914l.281-1.543h-1.264l-.211 1.543h-.914l.633-3.717h.913Zm3.651 0-.352 1.963c0 .07-.07.28-.07.35.141-.21.141-.28.211-.28l1.405-1.753.071-.28h.843l-.633 3.716h-.843l.351-2.033c0-.14.071-.21.071-.351-.071.07-.141.21-.211.28l-1.406 1.754-.07.28h-.843l.632-3.716h.844m3.586.07-.141.981v.211c0 .07 0 .14.071.21.07.14.281.14.421.14.141 0 .422 0 .562-.07l.282-1.542h.843l-.633 3.716h-.843l.281-1.542c-.211 0-.492.07-.773.07-.211 0-.632 0-.843-.21-.141-.07-.211-.281-.211-.632 0-.14 0-.28.07-.42l.141-.982h.773m5.272.772h-1.757l-.14.77h1.405l-.07.632h-1.406l-.14.911h1.757l-.141.702h-2.6l.562-3.717h2.671l-.141.701Zm2.598.7c0-.14 0-.35-.14-.49-.141-.21-.281-.28-.492-.28-.352 0-.492.21-.633.49-.211.35-.281.912-.281 1.262 0 .14 0 .421.141.561.07.14.281.21.421.21.281 0 .633-.14.773-.77l.773.14c-.07.21-.14.42-.281.56-.351.491-.773.702-1.265.702-.562 0-.984-.28-1.124-.561a1.72 1.72 0 0 1-.352-1.052c0-.561.211-1.192.492-1.543.282-.42.773-.631 1.336-.631.492 0 .843.21.984.35.21.211.351.632.351.982l-.703.07Zm2.462-1.403-.281 1.473h.281c.281 0 .421-.07.773-.701.14-.35.281-.561.421-.702.141-.07.211-.14.282-.14h.702c-.14.07-.211.14-.421.491-.211.35-.211.35-.352.631-.14.28-.281.35-.351.421a.533.533 0 0 1-.281.14c.211.07.351.21.421.28.071.14.141.281.141.422.07.21.07.35.07.49.071.421.211.632.281.772h-.773c-.07 0-.21-.07-.281-.35-.07-.141-.07-.352-.14-.702 0-.21-.071-.42-.141-.491a.537.537 0 0 0-.351-.14h-.352l-.281 1.613h-.843l.632-3.717h.844m3.584.211-.352 1.963c0 .07-.07.28-.07.35.14-.21.14-.28.211-.28l1.405-1.753.071-.28h.843l-.633 3.716h-.843l.351-2.033c0-.14.071-.21.071-.351-.071.07-.141.21-.211.28l-1.406 1.754-.07.28h-.843l.632-3.716h.844m3.724.069-.351 1.964c0 .07-.07.28-.07.35.14-.21.14-.28.211-.28l1.405-1.753.07-.28h.844l-.633 3.716h-.843l.351-2.034c0-.14.07-.21.07-.35-.07.07-.14.21-.21.28l-1.406 1.754-.07.28h-.844l.633-3.717h.843v.07Zm.281-.911c0 .07 0 .14.071.21.07.07.14.07.281.07.07 0 .211 0 .281-.07.07-.07.14-.14.14-.21h.703c-.07.28-.211.42-.351.56a1.42 1.42 0 0 1-.773.211c-.211 0-.562-.07-.703-.21-.14-.07-.211-.28-.211-.491h.562v-.07Zm4.637.912-.351 1.963c0 .07-.07.28-.07.351.14-.21.14-.28.21-.28l1.406-1.754.07-.28h.844l-.633 3.716h-.843l.351-2.033c0-.14.07-.21.07-.35-.07.07-.14.21-.21.28l-1.406 1.753-.07.28h-.844l.633-3.716h.843m3.727.07-.211 1.473h1.195l.281-1.473h.843l-.632 3.717h-.844l.281-1.543h-1.265l-.21 1.543h-.914l.632-3.717h.844Zm4.777 1.402c0-.14 0-.35-.141-.49-.141-.21-.281-.28-.492-.28a.615.615 0 0 0-.632.49c-.211.35-.281.912-.281 1.262 0 .14 0 .421.14.561.07.14.281.21.422.21.281 0 .632-.14.773-.77l.773.14c-.07.21-.141.42-.281.56-.352.491-.773.702-1.265.702-.633 0-.984-.28-1.125-.561a1.72 1.72 0 0 1-.351-1.052c0-.561.211-1.192.492-1.543.281-.42.773-.631 1.335-.631.492 0 .843.21.984.35.211.211.351.632.351.982l-.702.07Zm3.869-1.402-.141.701h-.914l-.492 3.016h-.843l.492-3.016h-.914l.141-.701h2.671Zm1.194 0-.352 1.963c0 .07-.07.28-.07.35.14-.21.14-.28.211-.28l1.405-1.753.071-.28h.843l-.633 3.716h-.843l.352-2.033c0-.14.07-.21.07-.351-.07.07-.141.21-.211.28l-1.406 1.754-.07.28h-.843l.632-3.716h.844m5.128.07-.141.701h-.843l-.492 3.016h-.914l.492-3.016h-.843l.07-.701h2.671Zm.915 0 .562 1.753.984-1.753h.773l-1.546 2.664c-.281.561-.492.702-.562.772-.282.21-.563.28-.844.28-.14 0-.351 0-.421-.07l.14-.63c.141.07.281.07.351.07.141 0 .282 0 .422-.141.07-.07.141-.14.211-.28l-.914-2.735h.844" fill="#333"/><path d="m170.989 54.588-.141.701h-.843l-.492 3.016h-.913l.491-3.016h-.843l.07-.701h2.671Z" fill="#333"/></svg>