<svg width="121" height="119" viewBox="0 0 121 119" fill="none" xmlns="http://www.w3.org/2000/svg">
<mask id="mask0_3282_11241" style="mask-type:luminance" maskUnits="userSpaceOnUse" x="0" y="0" width="121" height="119">
<path d="M120.641 0H0.359375V118.454H120.641V0Z" fill="white"/>
</mask>
<g mask="url(#mask0_3282_11241)">
<path d="M81.0635 0.166509C81.0635 0.261645 81.2303 0.463833 81.4329 0.60655C81.886 0.927651 82.494 1.74826 82.494 2.03371C82.494 2.23587 82.4582 2.23587 81.9933 2.09318C81.7072 2.00991 80.7059 1.64122 79.7521 1.27255C77.2726 0.321115 77.1535 0.309226 73.4937 0.523289C69.8579 0.737366 69.5598 0.796836 70.0129 1.16553C70.2869 1.39149 74.0301 2.61646 75.9374 3.10407C78.7866 3.82953 78.8104 3.85332 76.8078 3.97226C76.0328 4.00793 75.3534 4.10307 75.2819 4.17444C75.1984 4.25769 75.2819 4.4004 75.556 4.63826C76.2117 5.18534 79.1441 6.75521 80.6939 7.37364C82.3866 8.06343 86.6186 9.49058 87.2862 9.58572C88.1921 9.74035 87.9656 9.91874 86.7258 10.0496C85.4742 10.1804 84.7589 10.3588 84.7589 10.5253C84.7589 10.6918 86.4279 11.9524 87.143 12.3092C87.3697 12.4281 87.8702 12.773 88.2756 13.0704C88.6689 13.3677 89.8729 14.1407 90.9579 14.7592C93.8426 16.4479 94.6533 16.9118 95.1182 17.209C95.8334 17.6491 98.2414 18.7908 99.1475 19.1121C99.6243 19.2785 99.9819 19.4568 99.958 19.5045C99.8984 19.5996 98.6586 19.8256 97.8718 19.885C97.2043 19.9445 97.2759 20.2418 98.3487 21.8474C99.529 23.6194 101.484 25.7602 104.118 28.1745C105.215 29.1854 106.443 30.3866 106.848 30.8503L107.575 31.6948L106.908 31.7304L106.228 31.7661L106.157 32.5392C105.895 34.9534 106.932 39.4965 109.089 45.336C109.995 47.7979 110.067 48.119 109.65 48C108.637 47.7146 108.231 47.6551 108.112 47.7741C107.909 47.9762 107.85 50.2834 107.981 51.9722C108.064 52.9713 108.267 54.0892 108.589 55.3617C109.209 57.8712 109.674 60.2498 109.757 61.451C109.817 62.3311 109.805 62.4381 109.626 62.4381C109.483 62.4381 109.316 62.2001 109.113 61.7244C108.934 61.332 108.744 61.0228 108.672 61.0466C108.601 61.0704 108.422 61.4272 108.267 61.8554C107.647 63.6273 106.729 65.1972 105.036 67.4332C104.118 68.6462 103.236 69.7879 103.069 69.99L102.759 70.3469L102.795 63.1159C102.807 57.6094 102.783 55.8969 102.676 55.8969C102.593 55.8969 102.497 55.6471 102.461 55.326C102.33 54.3746 101.985 53.1259 101.842 53.0782C101.603 52.9951 101.436 53.4945 101.317 54.6125C101.257 55.2072 101.15 55.7661 101.067 55.8612C100.745 56.2538 100.673 55.7422 100.602 52.4122C100.566 50.3073 100.483 48.9396 100.399 48.7255C100.316 48.547 100.208 48.0357 100.137 47.5956C99.8984 46.0733 99.7673 45.5501 99.6004 45.5501C99.4097 45.5501 99.3382 45.8236 99.2308 46.9773C99.1475 47.9287 98.9925 48.4876 98.8494 48.3568C98.8136 48.3093 98.7421 47.4292 98.7064 46.4064L98.6468 44.5392H98.2892H97.9314V43.4688V42.3984H97.097L96.2626 42.4102V43.4688V44.5392L95.8454 44.5985C95.4519 44.658 95.428 44.6937 95.3447 45.1932C95.309 45.4906 95.2612 46.2874 95.2612 46.9773C95.2493 47.6669 95.1897 48.3093 95.1301 48.4044C95.0705 48.4996 95.0108 48.559 95.0108 48.5232C94.6651 45.6214 94.6533 45.5738 94.4386 45.7166C94.2122 45.8474 93.9379 48.9276 93.8307 52.3528C93.7711 54.2914 93.6877 55.9325 93.64 56.0158C93.4731 56.2894 93.2467 55.885 93.1631 55.1477C93.0559 54.0297 92.9843 53.7562 92.8056 53.7562C92.6148 53.7562 92.5195 54.1248 92.4956 54.886C92.4717 55.7422 92.3645 56.0635 92.0545 56.111C91.7208 56.1586 91.6134 55.885 91.4227 54.541C91.2081 53.0188 90.9579 52.8643 90.7671 54.1725C90.6479 55.0169 90.5047 54.5649 90.4929 53.3162C90.481 52.5074 90.4451 52.3053 90.2544 52.1268C90.1114 51.9842 90.0042 51.7106 89.9803 51.3777L89.9446 50.8425L89.3246 50.8068L88.6928 50.771V51.33C88.6928 51.6988 88.6213 51.9722 88.4902 52.1268C88.3352 52.2933 88.2637 52.6145 88.228 53.3518C88.1921 54.4222 88.061 54.6482 87.9299 53.8632C87.8226 53.1854 87.5962 53.328 87.4173 54.2081C87.3338 54.6125 87.1551 55.1596 87.0119 55.4332C86.7497 55.9564 86.559 57.4312 86.5471 59.0129V59.8216H81.5403C78.7866 59.8216 76.5335 59.7859 76.5217 59.7264C76.5217 59.6789 76.4739 59.0366 76.4263 58.2874C76.3428 56.9554 76.3309 56.9198 75.9613 56.6105C75.6991 56.3964 75.5798 56.1943 75.5798 55.9684C75.5798 55.6234 75.2819 54.9454 75.1149 54.9454C74.9241 54.9454 74.6143 55.3975 74.4951 55.8494C74.4236 56.111 74.2329 56.4559 74.0658 56.6344C73.7918 56.9198 73.756 57.0744 73.6844 58.3231C73.6486 59.0724 73.5772 59.7146 73.5294 59.7621C73.4937 59.8097 73.0288 59.8692 72.5042 59.9049L71.5624 59.9762L71.491 59.5838C71.3717 59.0129 71.4076 46.2874 71.5267 45.6689C71.5745 45.3717 71.6698 44.9316 71.7056 44.6818C71.7771 44.3251 71.7532 44.2061 71.5984 44.0872C71.3598 43.9207 71.181 43.219 71.1691 42.5054C71.1691 42.0178 70.9069 41.6134 70.7519 41.8514C70.7162 41.9227 70.6327 42.3866 70.573 42.898C70.5134 43.4093 70.4301 43.9207 70.3943 44.0277C70.2393 44.4321 70.0962 44.2418 70.0962 43.6471C70.0962 43.0882 70.0844 43.0526 69.7147 42.9574C69.3453 42.8623 69.3094 42.8028 69.0472 41.8514C68.9042 41.3042 68.7015 40.3766 68.6061 39.8057C68.4154 38.6284 68.1174 37.998 67.7598 37.998C67.4141 37.998 66.9134 39.0802 66.818 40.0555C66.7465 40.7692 66.6273 41.3162 66.4247 41.8632C66.2816 42.22 66.1862 39.6631 66.1743 35.2745C66.1623 31.9325 66.1147 30.5174 65.9955 29.8037C65.9001 29.2685 65.7808 28.4242 65.7451 27.9247C65.614 26.3548 65.2683 26.664 65.1133 28.4717C65.0179 29.7086 64.8033 29.9584 64.6722 28.9951C64.6246 28.6502 64.4577 28.103 64.2907 27.7939C64.0167 27.2467 64.0046 27.0802 63.945 24.4044C63.9093 22.8583 63.8259 21.3835 63.7663 21.1337C63.6232 20.5985 63.3371 20.551 63.1702 21.0506C63.0987 21.2409 63.0034 21.4073 62.9437 21.4073C62.896 21.4073 62.7649 21.1696 62.6456 20.8721C62.4669 20.3964 62.4669 20.23 62.5862 19.5163C62.7649 18.541 62.6219 17.9345 62.133 17.6254C61.9543 17.5183 61.7755 17.3757 61.7279 17.3042C61.5729 17.1021 61.6205 16.4122 61.8232 15.6987C62.0019 15.0327 62.0019 15.0208 61.7279 14.6046C61.5012 14.2834 61.4059 13.891 61.2868 12.892C61.096 11.1913 60.929 8.19425 60.9172 6.18435V4.57879L61.2747 4.24581C61.549 3.98414 61.6325 3.80575 61.6325 3.44895C61.6325 2.90187 61.251 2.35481 61.0244 2.58077C60.9053 2.69971 60.9172 2.75918 61.0364 2.91379C61.2868 3.21111 61.084 3.25867 60.7861 2.96136L60.5118 2.68781L60.345 2.94946C60.2496 3.09216 60.0946 3.21111 59.9993 3.21111C59.8443 3.21111 59.8443 3.17542 59.9635 3.03271C60.047 2.93757 60.0707 2.75918 60.0231 2.65214C59.9517 2.46185 59.9278 2.46185 59.7132 2.7235C59.3556 3.16353 59.4032 3.87711 59.8443 4.28146L60.2018 4.61446L60.19 6.80276C60.1781 9.24084 60.0589 11.3697 59.8443 13.1417C59.725 14.0575 59.6296 14.4024 59.4271 14.6521C59.1648 14.9614 59.1648 14.997 59.3198 15.7225C59.5939 16.9951 59.5582 17.221 58.986 17.7324L58.4973 18.1963L58.5688 19.338C58.6284 20.1943 58.6045 20.5749 58.4734 20.8841C58.2945 21.324 58.0562 21.4192 58.0562 21.0506C58.0562 20.9198 57.9727 20.8126 57.8654 20.8126C57.484 20.8126 57.3409 21.5738 57.2218 24.226C57.0905 27.1636 57.0668 27.3062 56.6733 28.0437C56.5183 28.3409 56.3872 28.781 56.3872 29.0308C56.3872 29.9227 56.1607 29.4826 56.0772 28.4242C55.9461 26.7117 55.7078 26.8543 55.4932 28.7453C55.4096 29.4113 55.2785 30.0535 55.1952 30.1605C55.0641 30.3151 55.0402 31.3855 55.0641 35.893C55.0759 38.9494 55.0641 41.5421 55.0163 41.6491C54.9448 41.8276 54.8971 41.8157 54.6467 41.5183C54.3965 41.221 54.3606 41.0546 54.3606 40.2458C54.3606 39.449 54.3012 39.1874 54.003 38.557C53.8123 38.1526 53.6097 37.8196 53.5382 37.8196C53.4786 37.8196 53.252 38.105 53.0375 38.4381C52.6561 39.0208 52.6322 39.1279 52.6322 40.0912C52.6322 41.0546 52.6083 41.1497 52.3222 41.4113C52.1315 41.5896 51.9885 41.887 51.9289 42.2081C51.7978 43.0406 51.6904 43.1714 51.2374 43.0406C50.7248 42.898 50.6295 43.0288 50.8082 43.6829C50.9156 44.1228 50.9156 44.2774 50.8082 44.3846C50.558 44.6344 50.403 44.3131 50.236 43.219C50.1526 42.66 50.0573 42.1605 50.0095 42.1248C49.8784 41.9822 49.7354 42.3746 49.6043 43.2665C49.5327 43.7661 49.3777 44.2656 49.2705 44.3846C49.0916 44.5867 49.1036 44.658 49.3419 45.455C49.5804 46.2993 49.5923 46.5134 49.5923 52.6858C49.5923 56.1823 49.5566 59.2507 49.5208 59.4886L49.4373 59.9405H48.591C48.1261 59.9405 47.685 59.893 47.6135 59.8454C47.53 59.7979 47.4585 59.2864 47.4228 58.6204C47.375 57.5263 47.3631 57.455 46.9935 57.0386C46.7791 56.8008 46.6121 56.5034 46.6121 56.3726C46.6121 55.8494 46.171 55.3142 45.8849 55.4806C45.8253 55.5163 45.7062 55.8256 45.5988 56.1705C45.5034 56.5154 45.3008 56.8721 45.1697 56.9791C44.967 57.1337 44.9075 57.3717 44.8001 58.4777L44.669 59.7859L42.9882 59.8572C42.0584 59.9049 39.7933 59.9405 37.9337 59.9405H34.572L34.4528 59.6313C34.3813 59.4648 34.3335 58.6918 34.3335 57.9069C34.3335 56.67 34.2978 56.3964 34.0356 55.7542C33.8687 55.3498 33.7376 54.9574 33.7376 54.8741C33.7376 54.7908 33.678 54.5769 33.6064 54.3866C33.4515 53.9822 33.3323 54.1486 33.2012 54.9098C33.1534 55.1952 33.0701 55.4212 33.0104 55.4212C32.8673 55.4212 32.8793 54.3151 33.0104 53.7086C33.1534 53.1021 33.0701 52.9236 32.6408 52.9236H32.2833L32.3309 52.234L32.3666 51.556L31.7348 51.5203L31.0911 51.4846L31.115 51.9365C31.1626 52.888 31.1268 53.0426 30.8765 53.0426C30.662 53.0426 30.6381 53.1259 30.6381 53.8632C30.6381 55.3024 30.3878 55.9445 30.2328 54.886C30.1495 54.3866 29.9945 54.1248 29.8395 54.2794C29.768 54.3508 29.6367 54.9336 29.446 56.0753C29.2673 57.0744 29.2315 57.1696 28.9812 57.2409C28.5877 57.336 28.5162 57.1696 28.4327 56.004C28.3851 55.3737 28.3016 54.779 28.242 54.6957C28.0394 54.3628 27.8725 54.8028 27.8129 55.8256C27.7414 56.7888 27.5507 57.3717 27.3479 57.1696C27.3003 57.1219 27.2168 55.4688 27.1692 53.4826C27.1215 51.4728 27.0261 49.6531 26.9428 49.3558C26.8711 49.0704 26.7757 48.3449 26.7281 47.7502C26.6565 46.7632 26.6207 46.6798 26.3824 46.6442C26.0724 46.5967 26.0367 46.7155 25.9413 48.0833C25.8698 48.9989 25.7267 49.4985 25.5956 49.2725C25.5599 49.225 25.4884 48.4519 25.4406 47.5718C25.3573 45.8592 25.2619 45.4312 24.9877 45.4312C24.7254 45.4312 24.6658 45.0981 24.7492 44.23L24.8208 43.4332L24.0101 43.3855C23.5572 43.3498 23.1161 43.3737 23.0326 43.445C22.9253 43.5283 22.9015 43.8017 22.9611 44.4677C23.0326 45.336 23.0207 45.3717 22.7585 45.4906C22.4007 45.6453 22.3293 45.9782 22.2935 47.6313C22.2817 48.3449 22.2339 49.0466 22.1743 49.1774C22.1146 49.3082 22.067 49.3915 22.067 49.3558C22.0552 49.3202 21.9717 48.773 21.8882 48.119C21.6974 46.8463 21.4949 46.4657 21.1252 46.6918C20.9703 46.7988 20.8988 47.0724 20.8391 47.881C20.7438 49.1417 20.5173 53.9822 20.4816 55.8374C20.4577 56.8721 20.4101 57.1457 20.279 57.1457C20.0523 57.1457 19.9333 56.658 19.8379 55.3855C19.7783 54.6482 19.7068 54.3151 19.5875 54.2676C19.4922 54.232 19.3968 54.232 19.3611 54.2676C19.3251 54.3033 19.2061 54.9218 19.0868 55.6353C18.9676 56.3608 18.8246 57.0268 18.7529 57.1101C18.6696 57.217 18.6576 59.1317 18.7292 63.211C18.8246 69.2645 18.7768 72.119 18.5742 72C18.3596 71.8572 15.6894 68.4441 14.9264 67.326C14.1039 66.1248 13.1741 64.2576 12.8045 63.1159C12.4946 62.1288 12.3753 62.1883 11.7435 63.6868C11.5647 64.103 11.529 64.1388 11.4455 63.9247C11.1356 63.1874 11.4098 61.1179 12.1846 58.2754C12.9237 55.564 13.0072 55.0169 13.0787 52.4361C13.1502 49.6769 13.0906 48.8801 12.7807 48.8801C12.6734 48.8801 12.3038 48.9989 11.9581 49.1417C11.5171 49.3202 11.2905 49.3677 11.1952 49.2725C11.1117 49.1892 11.2786 48.5947 11.7555 47.3222C13.9251 41.4352 14.8072 37.891 14.8311 34.894C14.843 32.7413 14.8072 32.6818 13.627 33.0149C12.7807 33.2527 13.9012 31.9684 17.108 29.0188C18.157 28.0555 19.6472 26.5689 20.4338 25.7126C21.7809 24.2378 23.9625 21.3835 23.9625 21.0862C23.9625 21.0149 23.8194 20.9198 23.6405 20.8841C23.2829 20.8126 21.018 20.4559 20.9227 20.4559C20.8869 20.4559 20.863 20.4082 20.863 20.3489C20.863 20.2894 21.2445 20.111 21.7095 19.9684C23.5094 19.3975 26.6924 17.6611 31.544 14.6046C33.833 13.1536 36.4912 11.2983 36.5629 11.0842C36.682 10.7869 36.4079 10.7037 34.9774 10.5729C33.4156 10.4301 32.8673 10.1923 33.7256 10.0496C34.4409 9.93063 37.8145 8.84837 38.9231 8.38454C42.416 6.9336 46.016 4.95938 46.016 4.51934C46.016 4.30526 45.9327 4.28146 45.2531 4.28146C44.1087 4.28146 43.0239 4.13877 43.0717 4.00793C43.0954 3.93657 43.5365 3.78197 44.0611 3.67493C45.5988 3.34193 50.6891 1.5223 51.2135 1.12983C51.4043 0.98712 51.4163 0.939548 51.2732 0.844404C50.9989 0.666007 48.6029 0.558969 46.183 0.630327C43.7511 0.689798 42.8928 0.844404 41.2597 1.5342C40.2107 1.98614 39.1854 2.39049 39.0543 2.41428C38.9828 2.42618 38.9113 2.34291 38.8874 2.22399C38.8635 2.09318 39.1139 1.77206 39.6265 1.28445C40.0557 0.88008 40.4133 0.499512 40.4133 0.45193C40.4133 0.404362 40.294 0.356794 40.1511 0.356794C39.865 0.356794 36.0025 1.59365 35.5257 1.84341C34.7032 2.25967 31.0435 5.69674 30.4593 6.5887C30.352 6.75521 30.1495 6.89792 30.0302 6.89792C29.8274 6.89792 29.8037 6.79088 29.8037 5.5897C29.8037 4.51934 29.768 4.28146 29.6249 4.28146C29.4102 4.28146 27.7414 5.54211 26.2393 6.82656C25.536 7.43311 25.0234 7.98019 24.8445 8.32507C24.6897 8.62239 24.4512 8.99109 24.3201 9.15758L24.0579 9.4549L24.1294 8.18235C24.1651 7.37364 24.1412 6.87413 24.0697 6.82656C23.9983 6.79089 23.7479 6.92172 23.5094 7.12389C23.2711 7.32607 22.6989 7.7899 22.2578 8.15858C20.3505 9.71655 17.5491 12.6184 16.7623 13.8553C15.5702 15.6987 14.6165 17.9227 14.2231 19.7304C14.1039 20.2538 13.9608 20.6937 13.8893 20.7057C13.8297 20.7175 13.4959 20.111 13.1741 19.3737C12.7926 18.541 12.4946 18.006 12.3753 17.9822C12.0773 17.9227 11.2309 19.0762 10.2057 20.9198C9.09711 22.9178 8.53683 24.547 7.3805 29.1377C6.43874 32.896 5.87847 34.7632 5.7235 34.668C5.66389 34.6324 5.42547 34.2041 5.17513 33.7166C4.92479 33.2289 4.62679 32.7413 4.5195 32.6344C4.32876 32.4559 4.29299 32.4677 4.12611 32.8008C3.93537 33.1696 3.30357 35.4173 3.10091 36.5114C2.82672 37.9029 2.62406 40.1268 2.55255 42.5769C2.44525 46.2041 2.70752 49.0704 3.36316 51.223C3.50621 51.6988 3.57774 52.1268 3.54198 52.1745C3.41084 52.2933 2.15916 51.8652 1.9565 51.6393C1.84921 51.5321 1.65848 51.2467 1.5035 51.0208C1.36045 50.7948 1.15779 50.5927 1.03859 50.5689C0.859788 50.5332 0.835938 50.6402 0.835938 51.4608C0.835938 53.8394 1.30086 58.894 1.73001 61.1892C2.42142 64.8405 4.04265 68.9554 5.34203 70.3113C5.69966 70.6918 5.97384 71.0248 5.93808 71.0604C5.80694 71.2032 3.99496 70.3944 3.16052 69.8236C2.96977 69.6809 2.76713 69.5738 2.71945 69.5738C2.34989 69.5738 3.56582 73.7601 4.80559 76.781C6.20033 80.1705 7.3805 82.0733 9.5501 84.4401C11.1117 86.1408 12.5661 88.0078 13.0429 88.9474C13.2336 89.3162 13.2336 89.3162 12.9475 89.4352C12.6853 89.5303 12.6614 89.5778 12.7568 89.9227C12.9475 90.5649 14.4019 92.884 15.296 93.9544C18.1331 97.332 18.9079 98.0813 21.2802 99.6631C21.626 99.889 22.6154 100.793 23.4737 101.661C24.773 102.981 25.0353 103.302 25.0353 103.6C25.0353 104.456 25.7863 105.336 27.1453 106.061C28.2183 106.62 29.2791 106.834 31.0554 106.846L32.6051 106.858L32.629 107.489C32.6408 107.952 32.7362 108.262 32.9508 108.595C33.2727 109.07 34.0117 109.534 34.4767 109.534C34.9535 109.534 35.0965 109.701 34.9654 110.081C34.727 110.783 35.1681 111.758 35.9787 112.317C36.4197 112.626 36.5986 112.674 37.5284 112.721C38.3748 112.757 38.6967 112.721 39.2807 112.519C39.6742 112.377 40.0794 112.234 40.1868 112.198C40.3536 112.139 40.4014 112.246 40.4729 112.733C40.5683 113.471 40.7708 113.697 41.3073 113.697C41.7484 113.697 42.8332 113.269 43.3935 112.864L43.7511 112.615V113.043C43.7511 113.923 44.2757 114.291 45.5392 114.291C46.2069 114.291 46.326 114.339 47.1246 114.874C48.1976 115.588 49.4731 116.123 52.5964 117.158C55.7078 118.18 56.6496 118.335 60.5 118.418C63.7902 118.49 64.6961 118.418 67.7956 117.847C69.6314 117.514 70.1201 117.383 71.8128 116.801C72.7307 116.48 74.6023 115.481 75.556 114.803C76.2474 114.315 76.4143 114.256 77.2846 114.149C78.703 113.994 79.0488 113.661 78.7508 112.757L78.6555 112.472L79.013 112.733C79.6806 113.209 80.3839 113.459 81.0753 113.459C81.886 113.459 82.1005 113.269 82.1601 112.507C82.1959 111.889 82.2197 111.889 83.2688 112.27C84.6756 112.781 86.4159 112.424 87.3219 111.425C87.7512 110.949 87.7869 110.819 87.7391 109.867L87.7152 109.308L88.2398 109.177C89.3842 108.868 90.0042 108.166 90.0042 107.132C90.0042 106.846 90.0518 106.561 90.0996 106.49C90.1472 106.418 90.6121 106.359 91.2319 106.347C92.3524 106.335 93.7831 106.038 95.0347 105.574C95.9765 105.217 96.6084 104.825 97.1448 104.254C97.5024 103.885 97.5739 103.719 97.6454 103.029C97.717 102.339 97.7646 102.208 98.0626 102.006C99.1594 101.245 100.578 99.3062 100.864 98.1883C100.995 97.6769 101.102 97.5461 101.853 96.9871C103.153 96.0357 105.811 93.5381 106.717 92.4082C107.909 90.9454 109.292 88.0317 108.827 87.996C108.732 87.9842 108.553 87.9722 108.422 87.9604C108.291 87.9604 108.172 87.8652 108.148 87.7701C108.1 87.5321 108.744 86.4976 109.614 85.3795C110.317 84.4996 111.247 83.2507 111.784 82.4896C111.939 82.2874 112.308 81.8474 112.618 81.5263C113.429 80.6937 115.324 77.566 115.813 76.2933C115.956 75.9009 116.254 75.1516 116.468 74.6284C116.778 73.8316 118.483 68.4677 118.543 68.0872C118.566 67.8494 118.018 68.0277 117.303 68.4916C116.552 68.9791 115.3 69.5143 115.181 69.4073C115.145 69.3717 115.372 69.0742 115.682 68.7413C117.148 67.1834 118.936 61.8434 119.496 57.3835C119.866 54.4459 120.152 48.9514 119.949 48.6542C119.854 48.5232 119.616 48.7135 118.876 49.4628C118.292 50.0575 117.827 50.4262 117.672 50.4262C117.363 50.4262 117.363 50.3904 117.661 49.5341C118.137 48.1665 118.376 45.8592 118.376 42.6838C118.376 37.558 118.006 34.6324 116.993 31.8969C116.671 31.0406 116.254 31.2547 115.682 32.5629C115.503 32.9673 115.3 33.2884 115.229 33.2647C114.859 33.1457 114.335 31.4332 113.488 27.556C112.594 23.4886 111.378 20.3846 109.721 17.887C108.97 16.7692 108.72 16.5074 108.529 16.662C108.446 16.7215 108.183 17.328 107.945 17.994C107.695 18.66 107.444 19.338 107.385 19.4926C107.218 19.9325 106.968 19.5996 106.872 18.8146C106.55 16.1269 103.642 11.3697 100.781 8.84837C99.0997 7.37364 97.4785 6.0654 97.3235 6.0654C97.1924 6.0654 97.1567 6.33895 97.1448 7.2785V8.50347L96.7037 7.98019C95.7619 6.83846 94.9036 5.99407 93.7711 5.09019C92.5552 4.11497 91.8638 3.69873 91.7088 3.85332C91.6612 3.90089 91.6015 4.35283 91.5777 4.85234C91.5301 5.99407 91.4704 6.30327 91.2797 6.30327C91.2081 6.30327 90.624 5.73242 90.0042 5.04262C88.5141 3.37761 86.9286 1.99802 85.9986 1.55798C85.2 1.17741 81.6357 0 81.2781 0C81.1589 0 81.0635 0.0713589 81.0635 0.166509ZM78.0833 1.49853C78.8343 1.67691 79.5019 1.8672 79.5734 1.92667C79.7284 2.06938 79.4899 2.2121 78.7508 2.43806L78.1668 2.61646L77.4992 2.2002C77.1296 1.97422 76.6885 1.76016 76.4978 1.71259C76.1045 1.61745 75.9732 1.43906 76.1878 1.29634C76.4381 1.14173 76.5931 1.15361 78.0833 1.49853ZM45.3008 1.65312C45.3008 1.80773 43.2861 2.73538 42.9406 2.73538C42.2849 2.73538 41.4384 2.39049 41.6291 2.2002C41.7603 2.06938 43.31 1.74826 44.2161 1.66502C44.7762 1.61745 45.2531 1.56987 45.2769 1.55798C45.289 1.55798 45.3008 1.59365 45.3008 1.65312ZM88.1206 4.61446C88.5378 5.0545 89.0028 5.5897 89.1578 5.80377L89.4318 6.18435L89.0028 6.36272C88.2637 6.67197 87.7152 6.54113 87.0358 5.91081C86.4875 5.38752 84.5206 2.75918 84.5206 2.5451C84.5206 2.42618 84.9378 2.58077 85.939 3.09216C87.1312 3.69873 87.4888 3.94848 88.1206 4.61446ZM36.539 3.53222C36.2409 3.91279 35.6687 4.69773 35.2515 5.29238C34.2621 6.68385 33.9521 6.89792 32.8912 6.89792C32.4501 6.89792 32.0448 6.83846 32.009 6.77899C31.8898 6.5887 32.2475 6.10109 33.2488 5.10209C34.2859 4.0674 35.0607 3.50844 36.0025 3.12785C37.0634 2.68781 37.1469 2.75918 36.539 3.53222ZM82.649 4.61446C83.1497 4.82854 83.5549 5.14966 84.1391 5.76809C84.9378 6.63627 85.8079 7.90882 85.6768 8.03966C85.5814 8.13478 82.0172 6.42219 80.7654 5.69674C79.7284 5.09019 79.2873 4.69773 79.466 4.51934C79.633 4.36473 80.9442 4.17444 81.4807 4.24581C81.7429 4.28146 82.2675 4.43609 82.649 4.61446ZM41.7245 4.7453L42.0226 4.82854L41.6173 5.22101C41.0808 5.72052 39.2689 6.77899 38.0767 7.29038C37.5523 7.51635 36.8132 7.89692 36.4197 8.13478C36.0264 8.37266 35.6687 8.56294 35.6092 8.56294C35.3231 8.56294 36.5747 6.79089 37.5523 5.81566C38.5535 4.80477 38.935 4.65015 40.294 4.65015C40.914 4.66205 41.5577 4.69773 41.7245 4.7453ZM94.4507 7.84937C96.1076 9.84737 96.7513 10.9415 96.2626 10.9415C95.8691 10.9415 93.95 9.60951 93.1989 8.82458C92.2213 7.7899 92.0426 7.23093 92.3406 6.20813L92.5313 5.53023L92.7817 5.83944C92.9248 6.00595 93.6757 6.90981 94.4507 7.84937ZM29.0288 7.02874C29.1599 8.09911 28.8619 8.8127 27.9559 9.69276C27.3003 10.335 25.8698 11.2507 25.1902 11.4648C24.6301 11.6432 24.928 10.7393 25.7387 9.75223C25.9889 9.4549 26.7639 8.50347 27.479 7.63529C28.3612 6.54113 28.7904 6.08919 28.8619 6.19623C28.9095 6.27948 28.9812 6.66005 29.0288 7.02874ZM90.8029 7.87315C91.1723 8.34886 91.089 9.57384 90.6718 9.71655C90.326 9.83549 90.1114 9.77602 89.8014 9.49058C89.11 8.84837 89.4915 7.76611 90.4333 7.74233C90.5764 7.73042 90.7432 7.80178 90.8029 7.87315ZM31.3533 8.26562C31.7587 8.46778 31.8898 8.86025 31.7944 9.4787C31.6276 10.442 30.7574 10.6799 30.3402 9.85927C29.9587 9.1338 30.2685 8.25372 30.9718 8.09911C30.9957 8.08721 31.1626 8.17047 31.3533 8.26562ZM99.9104 9.65708C100.459 10.335 101.198 11.2389 101.567 11.667C102.533 12.7849 104.035 14.783 104.559 15.6392C105.06 16.4717 105.406 17.3757 105.275 17.5183C105.012 17.7919 101.15 15.2587 99.9104 13.998C99.0521 13.1179 98.8494 12.773 98.6468 11.8216C98.3487 10.442 98.4679 8.44401 98.8375 8.44401C98.8851 8.44401 99.374 8.99109 99.9104 9.65708ZM22.7107 11.1556V12.7849L22.3054 13.4985C21.7928 14.4024 20.9465 15.2825 19.6709 16.2339C18.4789 17.1139 16.5834 18.2794 16.1543 18.3866C15.904 18.4459 15.8562 18.4222 15.8562 18.1843C15.8562 17.3518 17.406 15.0565 20.2193 11.7027C22.7822 8.63429 22.7107 8.64619 22.7107 11.1556ZM93.032 11.1675C93.795 11.5005 94.4029 12.0119 95.0944 12.9395C95.8573 13.9386 97.1805 16.222 97.0374 16.2696C96.9778 16.2934 96.4534 16.0436 95.8812 15.7106C95.2969 15.3776 94.1646 14.8067 93.342 14.45C92.5195 14.0813 91.6373 13.6769 91.3751 13.5461C90.8625 13.3082 89.1816 12.0714 88.7048 11.6075L88.4306 11.3221L88.8239 11.1913C90.0637 10.7869 92.1617 10.775 93.032 11.1675ZM32.5216 11.6075C32.9508 11.7265 32.8316 11.9762 32.0686 12.5709C31.2103 13.225 31.0435 13.332 28.0394 14.9376C25.6434 16.222 24.8923 16.6858 24.5108 17.1139C24.2605 17.3993 24.0816 17.4352 24.0816 17.209C24.0816 16.7453 25.7745 13.8791 26.5135 13.106C27.0857 12.4876 28.0036 11.8692 28.6593 11.6194C29.1719 11.441 29.5056 11.4172 30.7574 11.4648C31.58 11.5005 32.3666 11.56 32.5216 11.6075ZM97.9672 13.6412C98.2176 14.0218 98.9209 14.9376 99.5169 15.6868C100.459 16.8523 100.781 17.3637 100.566 17.3637C100.113 17.3637 98.9329 16.3648 98.3249 15.4727C97.8481 14.7592 97.2163 12.9633 97.4546 12.9633C97.4785 12.9633 97.717 13.2725 97.9672 13.6412ZM24.034 13.4034C23.9983 13.5223 23.9147 13.8791 23.8312 14.2121C23.4618 15.8057 22.377 17.328 21.1373 17.994C20.2669 18.4579 20.3027 18.2081 21.2684 17.0308C22.3413 15.6987 23.5333 14.0218 23.7122 13.5818C23.879 13.1893 24.1412 13.0466 24.034 13.4034ZM109.531 19.992C109.852 21.7046 110.186 22.7275 111.152 24.9514C112.451 27.9604 113.667 31.7422 113.393 32.0158C113.143 32.2656 110.544 29.4826 109.65 27.996C108.017 25.2369 107.564 21.9782 108.493 19.5878C108.779 18.8741 109.089 18.3984 109.197 18.5174C109.244 18.5649 109.399 19.2309 109.531 19.992ZM104.238 18.8146C104.607 19.338 104.404 20.7888 103.963 20.8246C103.558 20.8603 103.403 20.7888 103.093 20.4441C102.676 20.004 102.628 19.1596 102.998 18.7908C103.332 18.4579 103.999 18.4697 104.238 18.8146ZM17.7635 19.564C18.2167 19.8017 18.3596 20.0753 18.3596 20.7532C18.3596 22.0733 16.8695 22.3113 16.5834 21.0386C16.4284 20.3608 16.8576 19.3855 17.3106 19.3855C17.3702 19.3855 17.5728 19.4688 17.7635 19.564ZM12.5184 20.8365L12.9952 21.8117V23.3578C12.9952 24.226 12.9118 25.2607 12.8283 25.7008C12.4111 27.6511 10.6111 30.5649 8.58452 32.551C8.16728 32.9673 7.78581 33.3004 7.73813 33.3004C7.53547 33.3004 7.64276 32.3846 7.98847 31.0644C8.39377 29.5896 8.60835 29.0069 9.93157 25.9267C10.9448 23.56 11.2429 22.6798 11.5051 21.1932C11.6124 20.6224 11.7197 20.0872 11.7435 20.004C11.8508 19.6829 12.0773 19.9089 12.5184 20.8365ZM103.01 22.121C103.391 22.5016 103.832 23.0961 104.047 23.5481C104.5 24.4519 105.632 27.5085 105.549 27.5798C105.454 27.6749 102.414 24.6184 101.865 23.881C101.353 23.1912 100.614 21.4192 100.614 20.8603V20.5629L101.484 21.0149C101.961 21.2647 102.64 21.7522 103.01 22.121ZM20.6962 21.8474C20.6484 22.0972 20.3384 22.8463 20.0166 23.5243C19.4444 24.7017 19.3251 24.8445 17.5013 26.7117C16.4404 27.7819 15.5582 28.6502 15.5344 28.6264C15.439 28.5312 16.4999 25.7008 17.0602 24.5352C17.7278 23.1437 18.1331 22.7393 19.6114 21.9307C20.1358 21.6453 20.6127 21.4073 20.6723 21.4073C20.7199 21.4073 20.7319 21.6094 20.6962 21.8474ZM106.264 23.7741C106.479 25.1417 106.956 26.4142 108.136 28.6264C108.517 29.3637 108.791 29.9702 108.744 29.9702C108.219 29.9702 107.146 28.6382 106.216 26.8425L105.74 25.9029V24.3806C105.74 22.7155 105.835 21.9069 105.99 22.2993C106.038 22.4301 106.157 23.0961 106.264 23.7741ZM15.4509 24.8563C15.5225 25.7721 15.4986 25.9624 15.1768 26.8781C14.7714 28.0437 13.1741 30.66 12.6257 31.0406C12.0296 31.4806 11.9939 31.2547 12.5303 30.2676C14.3542 26.8305 14.4615 26.557 14.843 24.6184C15.1291 23.1319 15.1529 23.0604 15.284 23.4886C15.3317 23.6789 15.4152 24.2973 15.4509 24.8563ZM112.403 33.2527C112.952 33.9425 112.535 35.2032 111.772 35.2032C111.068 35.2032 110.675 33.7284 111.223 33.1814C111.569 32.8365 112.105 32.8721 112.403 33.2527ZM108.899 34.0377C109.626 34.8463 110.329 35.881 110.699 36.6898C111.283 37.9385 111.498 41.3518 111.211 44.4916C111.068 46.0495 110.961 46.5729 110.794 46.549C110.568 46.5134 108.875 42.1963 108.541 40.7928C108.04 38.7473 107.838 33.4192 108.243 33.4192C108.303 33.4192 108.589 33.7046 108.899 34.0377ZM115.92 36C115.956 37.0941 116.075 38.9613 116.182 40.1388C116.397 42.6125 116.468 48.6778 116.29 48.7493C116.111 48.8206 115.324 47.1676 114.978 45.9664C114.43 44.0753 114.287 42.8623 114.358 40.6145C114.43 38.6402 114.656 37.0466 115.098 35.441C115.336 34.5847 115.646 33.883 115.753 33.9544C115.801 33.9782 115.872 34.9058 115.92 36ZM9.69315 34.4657C9.80044 34.5847 9.93157 34.9414 9.96733 35.2389C10.0269 35.6908 10.0031 35.8454 9.8362 36.0357C9.07327 36.8801 7.8931 35.2984 8.60835 34.3944C8.78716 34.1803 9.46666 34.2161 9.69315 34.4657ZM12.9475 34.9891C13.1264 35.5243 13.0191 38.6758 12.7687 40.1981C12.4588 42.1012 12.0893 43.4332 11.2667 45.6809C10.5753 47.5956 10.3011 48.1426 10.1223 47.9644C9.81235 47.6551 9.55011 42.3984 9.76467 40.555C10.0508 38.1883 10.6945 36.7017 12.1489 35.1676C12.6257 34.656 12.8283 34.6204 12.9475 34.9891ZM113.441 38.6758C113.441 40.7928 113.464 43.1001 113.512 43.8256L113.607 45.1337L113.25 44.4082C112.725 43.3498 112.535 42.3033 112.451 39.9485C112.38 37.998 112.403 37.7959 112.642 36.9871C112.94 36.0238 113.369 34.8463 113.417 34.8463C113.441 34.8463 113.452 36.5709 113.441 38.6758ZM6.12881 38.0575L6.61757 39.9009L6.60564 42.3984C6.60564 44.3489 6.55796 45.0744 6.40299 45.7284C6.11689 46.894 5.38972 49.0584 5.03208 49.8316L4.73406 50.4856L4.62679 49.8316C4.50757 49.0584 4.57909 46.9178 4.90096 41.994C5.02016 40.0078 5.12745 37.7602 5.12745 36.9989C5.12745 36.226 5.16323 35.56 5.21091 35.5125C5.35396 35.3815 5.59237 36.0357 6.12881 38.0575ZM7.84542 36.892C8.47723 38.5689 8.51298 38.7948 8.51298 41.209C8.51298 43.5401 8.52491 43.4568 7.95269 45.0149C7.8335 45.3122 7.80965 45.5381 7.88118 45.6214C7.9527 45.7046 7.90501 45.8592 7.76196 46.0377C7.52355 46.3231 7.52355 46.3113 7.59508 42.3984C7.65469 38.771 7.58316 37.0228 7.32089 36.1785C7.28513 36.0357 7.29706 35.9167 7.35667 35.9167C7.41626 35.9167 7.63084 36.3568 7.84542 36.892ZM69.5001 60.2498V73.4985L70.728 73.5105C72.0513 73.5105 72.9811 73.6293 72.7665 73.7721C72.6831 73.8196 71.6937 73.891 70.5493 73.9267L68.4631 74.0098L68.3796 73.7244C68.2485 73.2844 68.1531 52.222 68.2724 49.57C68.3439 48.1426 68.4392 47.1676 68.5228 47.0724C68.6061 46.9653 68.8089 46.9178 69.0829 46.9534L69.5001 47.0009V60.2498ZM52.7751 58.5252C52.799 64.7692 52.7633 70.7512 52.7157 71.8335L52.6322 73.7959L51.6189 73.879C50.248 73.9742 47.7803 73.8554 47.84 73.6888C47.8639 73.6056 48.5551 73.5223 49.6519 73.4628C50.6295 73.4153 51.452 73.3438 51.4759 73.3202C51.5117 73.2964 51.5831 67.552 51.6428 60.5709C51.7024 53.5896 51.7739 47.7028 51.8096 47.4886C51.8692 47.0842 52.0957 46.9653 52.5129 47.0961C52.7514 47.1794 52.7514 47.2984 52.7751 58.5252ZM54.9687 47.881C55.0998 49.2725 55.2189 66.7552 55.1117 69.1932C55.0282 71.0129 54.9806 71.5123 54.8374 71.5956C54.5395 71.7741 54.5156 70.7275 54.4919 60.8801C54.4799 50.8543 54.5513 46.9414 54.766 47.0129C54.8374 47.0366 54.9328 47.4292 54.9687 47.881ZM66.6869 59.6076C66.6988 71.6551 66.6869 71.9287 66.2697 71.5123C66.1027 71.3458 66.1862 47.5481 66.353 47.1556C66.6154 46.5252 66.663 48.6065 66.6869 59.6076ZM61.4894 58.0615C61.4775 63.9009 61.4418 68.2774 61.394 67.7899C61.2033 65.7919 61.2747 47.453 61.4775 47.453C61.4894 47.453 61.5012 52.234 61.4894 58.0615ZM58.8667 58.1803C58.8549 64.9474 58.8191 67.6353 58.7595 65.887C58.6165 60.8563 58.676 47.8097 58.8549 47.8097C58.8667 47.8097 58.8787 52.4836 58.8667 58.1803ZM114.239 48.892C114.609 49.0941 114.68 49.225 114.68 49.8554C114.68 50.3191 114.633 50.4499 114.311 50.7117C113.846 51.1041 113.667 51.1041 113.309 50.7117C113.083 50.4619 113.011 50.2596 113.011 49.8434C113.011 48.9158 113.524 48.5232 114.239 48.892ZM110.234 49.4985C110.89 50.1765 111.736 51.6988 111.927 52.5669C112.153 53.566 112.082 55.5163 111.772 56.7413C111.402 58.1803 110.758 59.8454 110.591 59.7859C110.377 59.7146 110.305 59.215 109.912 55.0049C109.447 49.9742 109.376 48.8801 109.507 48.8801C109.578 48.8801 109.9 49.1656 110.234 49.4985ZM24.6897 50.0813C25.3573 50.4142 25.8341 51.4728 25.536 51.9485C25.4526 52.0673 25.3214 52.0555 24.9041 51.877C24.1055 51.5321 24.022 51.3777 24.2486 50.6997C24.4869 50.0218 24.4869 49.998 24.2486 50.2001C24.034 50.3786 23.4857 51.4133 23.4857 51.6511C23.4857 51.7462 23.8312 51.889 24.4155 52.0317C24.9162 52.1506 25.3452 52.2696 25.3691 52.2814C25.4763 52.3528 25.0949 52.8405 24.7612 53.0426C24.332 53.3162 23.3187 53.3637 22.8418 53.1377C22.675 53.0664 22.4246 52.7692 22.2817 52.4836C21.471 50.8068 23.0446 49.2369 24.6897 50.0813ZM98.0864 50.0693C98.3011 50.2001 98.5753 50.4737 98.7064 50.6878C99.1832 51.4728 98.8971 52.543 98.0864 53.0426C97.2996 53.5183 96.2269 53.2329 95.7262 52.4242C95.2493 51.6393 95.5354 50.5689 96.346 50.0693C96.5724 49.9385 96.9539 49.8316 97.2163 49.8316C97.4785 49.8316 97.86 49.9385 98.0864 50.0693ZM7.61891 50.2953C7.86925 50.4856 7.92886 50.6522 7.96462 51.2944C8.0123 51.9842 7.98847 52.0793 7.73813 52.2576C7.44011 52.4599 6.95135 52.5074 6.71293 52.3528C6.51028 52.222 6.31954 51.6631 6.31954 51.1874C6.31954 50.8781 6.41491 50.664 6.66525 50.4142C7.07057 50.0098 7.22552 49.998 7.61891 50.2953ZM11.6363 51.5203C11.6005 52.1981 11.4813 53.2805 11.3859 53.9345C11.2905 54.5887 11.1356 56.1943 11.0283 57.5025C10.766 60.9276 10.7303 61.2487 10.5395 61.2487C10.325 61.2487 10.0627 60.7255 9.63355 59.4648C8.9183 57.3717 8.77525 55.9564 9.13286 54.2676C9.45474 52.6977 9.72891 52.1506 10.6349 51.1874C11.0998 50.6997 11.529 50.3073 11.6005 50.3073C11.6839 50.3073 11.6959 50.7235 11.6363 51.5203ZM118.09 52.9474C117.959 54.6957 117.327 59.0009 117.017 60.2021C116.468 62.3311 115.11 65.6134 114.716 65.7324C114.513 65.8037 114.347 65.1497 114.192 63.6036C114.061 62.4024 114.072 61.998 114.239 60.5709C114.716 56.7057 115.61 54.2914 117.184 52.674C117.625 52.222 118.03 51.8534 118.078 51.8534C118.126 51.8534 118.137 52.3528 118.09 52.9474ZM3.93537 54.4936C4.99633 55.7304 5.69966 57.1814 6.33147 59.4648L6.84406 61.3082L6.85598 63.449C6.85598 65.5896 6.70101 66.8385 6.37915 67.2785C6.24801 67.4568 6.20033 67.4212 5.91423 66.9931C5.52084 66.4102 4.88903 64.9118 4.49565 63.6631C3.87576 61.7364 3.08899 57.2289 2.89825 54.541C2.80289 53.2449 2.86249 53.2449 3.93537 54.4936ZM113.894 56.3251C113.584 57.4906 113.131 59.334 112.88 60.4044C112.63 61.4746 112.403 62.3786 112.368 62.4024C112.237 62.545 112.153 61.213 112.213 60.0118C112.308 58.3944 112.57 56.9078 112.88 56.1943C113.274 55.3024 114.335 53.8514 114.418 54.0892C114.43 54.1486 114.203 55.1477 113.894 56.3251ZM7.20169 56.218C7.45203 56.5985 7.85733 57.336 8.10767 57.8592C8.60835 58.8821 8.78716 59.9049 8.82293 61.9624C8.87062 64.5669 8.76333 64.5669 8.23881 61.9862C8.03615 60.9871 7.59508 59.334 7.2613 58.2993C6.6414 56.3369 6.46259 55.5401 6.6414 55.5401C6.70101 55.5401 6.95135 55.8494 7.20169 56.218ZM99.958 59.7384C99.9938 59.881 100.018 63.1636 99.9938 67.0169C99.958 73.7601 99.9462 74.0575 99.7197 74.4976C99.5886 74.7592 99.4097 74.9971 99.3143 75.0208C99.1712 75.0684 99.1594 73.9862 99.2308 67.3737C99.2666 63.1397 99.3382 59.6194 99.374 59.5718C99.5051 59.3578 99.8984 59.4648 99.958 59.7384ZM92.8294 60.1426C92.877 60.3329 92.9128 64.2458 92.9128 68.8603C92.9128 77.3042 92.8889 77.7799 92.5074 77.7799C92.3763 77.7799 92.3406 64.6977 92.4717 61.6888C92.5434 59.893 92.6387 59.453 92.8294 60.1426ZM28.5162 61.0228C28.6116 61.879 28.6355 74.6165 28.5281 76.3291L28.4566 77.6729L28.1586 77.3993L27.8605 77.1259L27.9322 68.8483C27.9559 64.2814 28.0275 60.4996 28.0751 60.4162C28.242 60.1426 28.4327 60.3924 28.5162 61.0228ZM21.7452 60.7968C21.8406 61.1536 21.8406 75.877 21.7452 75.877C21.7095 75.877 21.5306 75.7701 21.3517 75.6511C20.708 75.1874 20.5412 73.9742 20.8034 71.5838C20.9106 70.4896 21.0299 67.9684 21.0776 65.2924C21.1252 62.8425 21.2088 60.7612 21.2563 60.6778C21.4113 60.4519 21.6617 60.5114 21.7452 60.7968ZM75.5084 62.7473C75.5441 62.8543 75.5798 67.1477 75.5798 72.3093C75.5798 80.5272 75.556 81.6927 75.401 81.7522C75.3056 81.7879 75.1388 81.7879 75.0434 81.7522C74.8884 81.6927 74.8645 80.5629 74.8645 72.666C74.8645 67.7186 74.9004 63.4133 74.9362 63.1041C74.9958 62.6878 75.0673 62.557 75.2223 62.557C75.3415 62.557 75.4726 62.6402 75.5084 62.7473ZM86.404 71.7384L86.3683 80.9316L85.8199 80.9673L85.2715 81.0029L85.1881 80.4441C85.0928 79.7422 85.1166 65.5183 85.2239 63.9247L85.2953 62.7353L85.7125 62.664C85.939 62.6165 86.2014 62.5807 86.2847 62.5689C86.404 62.557 86.4279 64.4242 86.404 71.7384ZM45.7895 62.9971C45.9565 63.4133 45.8612 81.5976 45.6941 82.109C45.5512 82.5609 45.3484 82.6324 45.2293 82.2754C45.1101 81.9425 45.1101 64.0078 45.2293 63.2349C45.3247 62.5927 45.5869 62.4856 45.7895 62.9971ZM35.5257 63.1159C35.6211 63.211 35.5972 81.0862 35.5018 81.1694C35.4542 81.217 35.2157 81.2645 34.9654 81.2765L34.5124 81.2884L34.5363 72.2021C34.5482 64.8285 34.5839 63.0922 34.715 63.0089C34.8581 62.9138 35.3946 62.9851 35.5257 63.1159ZM108.791 64.9C108.923 65.5778 108.684 67.1834 108.338 67.9089C108.183 68.2774 107.695 68.9673 107.265 69.455C106.836 69.9425 106.348 70.5967 106.169 70.9058C105.978 71.2269 105.787 71.4766 105.74 71.4766C105.549 71.4766 105.489 70.4777 105.609 69.4192C105.704 68.6462 105.823 68.2061 106.097 67.6948C106.479 66.9693 108.434 64.4599 108.601 64.4599C108.66 64.4599 108.744 64.662 108.791 64.9ZM112.999 64.9C113.488 65.3042 113.524 66.5769 113.059 66.9218C112.713 67.1714 112.094 67.1121 111.891 66.8146C111.629 66.4341 111.653 65.554 111.939 65.0782C112.213 64.6382 112.594 64.5789 112.999 64.9ZM12.8522 65.9465C12.9356 66.113 13.4244 66.8146 13.9489 67.4926C15.0814 68.9911 15.4033 69.5858 15.6655 70.7275C15.9755 72.119 15.892 72.666 15.3675 72.666C15.2602 72.666 14.9145 72.2854 14.5569 71.7384C14.2112 71.2389 13.6509 70.4539 13.2933 70.0138C12.5184 69.0506 12.3992 68.67 12.3992 67.2547C12.3992 65.7324 12.5542 65.2924 12.8522 65.9465ZM9.12096 66.4817C9.25208 66.6244 9.35937 66.9693 9.39513 67.3498C9.44281 67.8969 9.40706 68.0277 9.16864 68.3013C8.77525 68.7295 8.31033 68.8246 8.0123 68.5272C7.7262 68.2418 7.57123 67.2547 7.73813 66.8146C7.9527 66.232 8.72757 66.0535 9.12096 66.4817ZM112.344 68.7057C112.38 68.7532 112.034 69.1694 111.545 69.6214C110.46 70.668 109.602 71.9644 108.946 73.5698C108.66 74.2478 108.398 74.8068 108.35 74.8068C108.243 74.8068 107.826 74.105 107.647 73.5818C107.444 73.0466 107.587 72.6898 108.482 71.4766C109.387 70.2754 110.615 69.2409 111.64 68.8246C112.201 68.5985 112.225 68.5985 112.344 68.7057ZM61.0007 69.6689C61.3105 69.9187 61.6325 70.1566 61.704 70.2041C61.7755 70.2398 62.1451 70.1446 62.5384 69.99C63.8856 69.4312 64.0046 69.7046 63.0034 71.0248C62.6338 71.5005 62.3595 71.9762 62.3715 72.0713C62.4073 72.226 62.8126 72.2498 65.0537 72.2854L67.6882 72.3093L67.7359 72.7373C67.7598 72.9753 67.7598 73.3202 67.7359 73.4985L67.6882 73.8316L66.0669 73.9029C65.1611 73.9385 63.8735 73.9862 63.1941 73.998C61.7994 74.0337 61.9543 74.1288 61.4536 72.9038C61.0007 71.8097 60.9768 71.7741 60.7026 71.7384C60.5118 71.7028 60.4285 71.7741 60.3807 72.0357C60.345 72.2141 60.2615 72.5232 60.19 72.7255C60.1185 72.9158 60.0231 73.225 59.9993 73.4153C59.88 74.0457 59.1528 74.2478 57.9608 73.9742C57.2218 73.7959 56.4229 73.8077 55.3382 73.9742C53.8362 74.224 53.4666 74.0337 53.4666 73.0109V72.3688L54.6587 72.4044C56.3276 72.4519 58.533 72.3093 58.533 72.1546C58.533 72.0952 58.2469 71.7264 57.8893 71.3578C57.4601 70.9058 57.1979 70.5134 57.1025 70.1803C57.031 69.8949 56.9951 69.6453 57.019 69.6214C57.0429 69.5858 57.3171 69.6809 57.627 69.8117C58.2349 70.0615 58.8906 70.1328 58.8906 69.9307C58.8906 69.8592 58.986 69.8117 59.1052 69.8117C59.2245 69.8117 59.4509 69.6809 59.6059 69.5143C59.9874 69.1101 60.3211 69.1457 61.0007 69.6689ZM9.96733 70.5847C11.0283 71.1081 12.4111 72.3688 13.1383 73.4866C13.4482 73.9624 13.7105 74.4142 13.7105 74.4737C13.7105 74.7473 12.9595 76.3648 12.8522 76.3291C12.7807 76.3053 12.6138 75.9604 12.4707 75.568C11.9104 74.0218 10.4561 71.8336 9.4905 71.0486C8.88252 70.5729 8.65603 70.1685 8.97791 70.1685C9.07327 70.1685 9.51435 70.3588 9.96733 70.5847ZM104.953 71.881C106.288 74.0098 107.289 76.1745 107.874 78.1725C108.434 80.0753 108.601 81.2884 108.601 83.4292V85.3558L107.957 86.0693C107.599 86.4499 107.194 86.9971 107.051 87.2705C106.765 87.8176 106.491 87.9485 105.263 88.0793C104.834 88.115 104.095 88.2576 103.606 88.3884C103.129 88.5074 102.7 88.5907 102.664 88.555C102.64 88.5194 102.676 87.7582 102.759 86.8543C103.034 83.9644 102.712 82.0972 101.448 79.2547C101.055 78.3628 100.733 77.5065 100.733 77.34C100.733 77.1734 100.995 76.6502 101.305 76.1745C101.925 75.2705 102.354 74.3073 103.189 72.0475C103.463 71.2745 103.725 70.5967 103.773 70.5252C103.904 70.3113 104.13 70.5729 104.953 71.881ZM115.992 70.6324C115.992 70.6798 115.777 71.1199 115.503 71.6076C115.241 72.0952 114.645 73.2844 114.192 74.2716C112.558 77.7919 110.651 80.6462 110.15 80.3369C109.864 80.1586 110.15 76.9474 110.615 75.1397C111.199 72.8563 112.034 71.9882 114.585 70.9414C115.574 70.5252 115.992 70.4421 115.992 70.6324ZM17.7159 72.3449C18.4074 74.4499 19.3729 76.543 19.969 77.1972C20.4934 77.7799 20.7558 78.3033 20.6604 78.5769C20.6245 78.6957 20.3384 79.3498 20.0286 80.0397C19.3611 81.5143 18.8961 82.9414 18.7172 84.0357C18.5504 85.0941 18.5504 87.7701 18.7292 88.7691C18.8842 89.7086 18.7768 89.9584 18.2643 89.7919C18.0854 89.7324 17.4298 89.6254 16.8099 89.554C14.8668 89.328 14.7595 89.2805 14.0443 88.3528C12.7211 86.6283 12.6734 86.545 12.6018 85.6769C12.5184 84.5709 12.6972 82.3231 12.9833 81.0386C13.2694 79.7186 14.1396 77.0546 14.7118 75.7701C15.1291 74.8068 16.6073 72.3806 17.0841 71.8692C17.2152 71.7264 17.3584 71.6313 17.4178 71.6551C17.4656 71.6908 17.5967 72 17.7159 72.3449ZM7.20169 72.7373C9.56203 73.6888 10.5991 75.2705 10.9687 78.4341C11.1237 79.7899 11.1237 81.8236 10.9687 81.8236C10.8018 81.8236 9.52625 80.3013 8.84677 79.2904C8.51298 78.8146 7.70237 77.34 7.04672 76.0078C6.37915 74.6758 5.64006 73.2964 5.40164 72.9396C5.05593 72.4401 4.99633 72.2736 5.12745 72.1903C5.29435 72.0833 6.10496 72.2973 7.20169 72.7373ZM72.0035 74.9138C72.3017 74.9613 70.2751 75.0328 67.4498 75.0802C64.6485 75.1279 62.2166 75.1279 62.0258 75.0802C61.7279 74.9971 61.7516 74.9851 62.288 74.9138C63.1463 74.8186 71.3717 74.8068 72.0035 74.9138ZM51.3806 75.996C51.5354 76.0912 51.5593 76.543 51.5235 79.1714C51.4996 80.8603 51.452 82.3349 51.4281 82.4421C51.3328 82.7512 50.9395 82.7037 50.856 82.3826C50.8202 82.2398 50.7845 81.5501 50.7845 80.8483C50.7845 79.2547 50.6175 78.3866 50.2838 78.2676C50.1406 78.22 49.8665 77.887 49.6519 77.5303C49.4493 77.1734 49.199 76.8761 49.0916 76.8523C48.7818 76.7928 48.5194 77.7206 48.5075 78.9693C48.4957 79.5878 48.4598 80.4916 48.4122 80.9791C48.3525 81.7404 48.3049 81.8712 48.0783 81.9544C47.685 82.0972 47.6492 81.8356 47.7089 78.898C47.7446 76.8048 47.7803 76.3171 47.9235 76.234C48.0189 76.1745 48.4479 76.115 48.8771 76.103C49.3062 76.103 49.8904 76.0555 50.1884 76.0078C50.9513 75.8652 51.1778 75.8652 51.3806 75.996ZM53.264 76.115H53.6455L53.6216 79.3498L53.5858 82.5967L53.0136 82.5729C52.6918 82.5609 52.3937 82.5252 52.3579 82.4777C52.3103 82.4301 52.2388 81.4312 52.1911 80.2418C52.1435 79.0526 52.06 77.8514 52.0003 77.5778C51.8096 76.674 52.1196 75.9127 52.6322 76.0437C52.7633 76.0793 53.0494 76.115 53.264 76.115ZM55.8865 79.1477C55.9224 81.336 55.8865 82.121 55.7793 82.3231L55.6243 82.5967L55.5409 82.2398C55.4335 81.7761 55.4096 76.8523 55.505 76.3648C55.5646 76.0793 55.6243 76.0198 55.7196 76.115C55.8031 76.1981 55.8628 77.221 55.8865 79.1477ZM67.8909 76.3648C67.9981 76.8285 67.8313 81.8117 67.7121 81.883C67.5095 82.002 67.3663 76.9474 67.5452 76.2576C67.6524 75.889 67.7956 75.9365 67.8909 76.3648ZM72.6474 76.0673C72.8024 76.1268 72.8381 76.3528 72.8381 77.3518C72.8381 79.7781 72.695 81.9425 72.5281 81.9425C72.4446 81.9425 72.3493 81.8474 72.3135 81.7284C72.1346 81.1457 71.8845 79.2785 71.8845 78.553C71.8845 77.6968 71.6341 76.9236 71.2526 76.6145C71.038 76.4242 70.8115 76.5194 70.8115 76.7928C70.8115 76.888 70.7041 77.1139 70.573 77.3042C70.4419 77.4826 70.2869 77.7799 70.2155 77.9584C70.0962 78.2676 70.0844 78.2794 69.9294 78.0653C69.7862 77.887 69.7386 77.875 69.5836 78.006C69.2857 78.2438 69.1664 78.8028 69.0949 80.3846C69.0472 81.1932 68.9876 81.9069 68.9518 81.9664C68.7372 82.3113 68.6657 81.6214 68.6657 78.9574V75.996H70.5612C71.6102 75.996 72.54 76.0317 72.6474 76.0673ZM57.6986 79.4212C57.4482 81.2527 57.6151 81.8712 58.3303 81.7997C58.6165 81.7761 58.7238 81.6928 58.7713 81.4786C58.8549 81.1337 59.2482 81.0029 59.7846 81.1219C60.0828 81.1814 60.0946 81.2052 59.8681 81.217C59.6417 81.2289 59.5939 81.2884 59.6296 81.5501C59.6656 81.8592 59.7132 81.883 60.4403 81.9782C60.8575 82.0258 61.2271 82.0972 61.2629 82.121C61.4297 82.2993 60.9411 82.3588 59.3317 82.3588H57.5197L57.484 79.8612C57.4601 78.4817 57.484 77.0664 57.5316 76.7097C57.627 76.0673 57.627 76.0912 57.7223 77.3042C57.7701 78.006 57.7581 78.9336 57.6986 79.4212ZM99.3143 78.9693C99.4336 79.0406 99.5408 79.1477 99.5408 79.2072C99.5408 79.2665 99.1355 79.7066 98.6348 80.1823C98.1342 80.658 97.2639 81.6689 96.7037 82.4182C95.6547 83.8097 94.5818 85.0348 94.4029 85.0348C94.1764 85.0348 94.3314 84.6898 95.0825 83.4886C95.5116 82.7988 95.9645 82.0495 96.0838 81.8236C96.3817 81.2409 97.3593 79.9564 97.9553 79.3498C98.4799 78.8385 98.8494 78.7313 99.3143 78.9693ZM22.6392 79.2665C23.3187 79.6114 23.9744 80.551 25.0353 82.7155C25.6195 83.893 26.1321 85.0109 26.1796 85.213C26.2632 85.5461 26.2513 85.558 26.0606 85.3915C25.6791 85.0822 24.8445 83.9287 24.1412 82.7393C23.3425 81.3597 22.9492 80.896 22.0909 80.2538C21.7452 80.004 21.4591 79.7304 21.4591 79.6471C21.4591 79.5045 22.0074 79.1001 22.21 79.0882C22.2578 79.0882 22.4604 79.1714 22.6392 79.2665ZM100.781 80.7295C100.864 80.8603 100.101 81.7522 98.5753 83.334C97.9315 84 97.3713 84.5114 97.3474 84.4519C97.2402 84.2973 98.0388 82.7988 98.6468 82.0138C99.4097 80.9911 100.53 80.3251 100.781 80.7295ZM21.471 81.5976C22.0074 81.9782 23.6405 84.6778 23.4498 84.8681C23.414 84.9038 23.0922 84.559 22.7228 84.107C22.365 83.6433 21.9002 83.1556 21.7095 83.0248C21.1491 82.6204 20.3505 81.6094 20.4338 81.3955C20.5292 81.1576 20.9941 81.2527 21.471 81.5976ZM61.549 83.56L63.6589 83.6313V84.559C63.6589 85.7721 63.7067 85.8077 65.1253 85.7126L66.2219 85.6413L67.2949 86.3311C67.8789 86.7117 68.5824 87.0922 68.8446 87.1754C69.369 87.3538 72.0156 87.3657 75.9852 87.223L78.2262 87.1397L78.0833 87.4252C77.9997 87.5798 77.7257 88.0198 77.4633 88.3884C77.2129 88.7692 76.9746 89.2449 76.9389 89.4588C76.76 90.5054 76.3785 90.898 75.8778 90.5769C75.4963 90.3271 75.4249 90.3271 74.3877 90.7313C72.5161 91.4568 69.524 92.0515 66.5795 92.2774C58.9741 92.8603 53.7169 92.7175 49.6519 91.8374C47.9711 91.4688 45.6466 90.7672 45.4201 90.5649C45.3008 90.4579 45.1458 90.0535 45.0744 89.6729C44.9908 89.2449 44.7762 88.7333 44.526 88.3528C44.2994 88.0198 44.1087 87.6988 44.1087 87.6511C44.1087 87.5916 45.9445 87.5321 48.1976 87.5085L52.2746 87.4728L53.4905 86.8068C54.158 86.4381 54.8734 86.0693 55.0878 85.998C55.3263 85.9147 56.5422 85.8672 58.4258 85.8672H61.394V85.4628V85.0466L59.0813 85.0109C57.8058 84.9871 56.7329 84.9396 56.6853 84.9038C56.5661 84.785 56.9951 83.8097 57.2694 83.5718C57.484 83.3815 57.6508 83.3578 58.4734 83.4172C58.998 83.453 60.3807 83.5243 61.549 83.56ZM101.853 84.0713C101.961 84.1903 102.08 84.4757 102.116 84.7017C102.175 85.0228 102.128 85.1774 101.865 85.4866C101.46 85.9624 101.198 85.9624 100.804 85.4985C100.22 84.8086 100.518 83.8454 101.305 83.8454C101.496 83.8454 101.746 83.9405 101.853 84.0713ZM20.5173 84.4401C20.5769 84.4401 20.7319 84.547 20.863 84.6778C21.2445 85.0584 21.1373 86.0693 20.6962 86.3668C20.6245 86.4142 20.3862 86.4619 20.1716 86.4619C19.8497 86.4619 19.7544 86.3904 19.5994 86.0575C19.4683 85.7959 19.4325 85.5223 19.4801 85.2487C19.5755 84.7612 19.9808 84.2736 20.2312 84.3688C20.3266 84.4044 20.4577 84.4401 20.5173 84.4401ZM89.0028 85.9742C89.8968 86.6284 89.9207 86.6758 89.8611 87.9604L89.8014 89.1021L90.4333 89.0308C90.9816 88.9713 91.1127 88.9951 91.3154 89.1972C91.8519 89.7324 91.5419 90.672 90.4214 91.9207C89.8611 92.551 89.7538 92.7295 89.8135 92.9911C90.1114 94.2161 90.0042 94.6918 89.2531 95.334C88.7882 95.7502 86.7855 96.8086 86.4755 96.8086C86.3564 96.8086 86.0822 96.6304 85.8675 96.4281C85.4981 96.0713 85.3907 96.0357 84.7709 96.0475C84.2463 96.0595 83.9363 96.1426 83.5073 96.3806C83.1854 96.547 82.9112 96.666 82.8755 96.6422C82.8516 96.6065 83.3045 96.0833 83.8887 95.4648C84.4728 94.8583 85.1166 94.121 85.3192 93.8236C85.8437 93.0742 86.4994 91.7422 86.714 90.9931C86.9166 90.3033 86.9762 88.8405 86.7973 88.8405C86.7379 88.8405 86.4636 89.3875 86.1775 90.0535C84.8663 93.217 82.6608 96.0238 80.2528 97.6174C78.584 98.7235 78.417 98.5927 79.3945 96.9276C79.9548 95.9762 80.1335 95.3578 79.8834 95.2032C79.7521 95.1317 79.6449 95.2745 78.2501 97.1535C76.9389 98.9494 76.4143 99.4252 75.3534 99.8057C74.8645 99.9842 74.4116 100.091 74.3519 100.055C74.1494 99.9365 74.3282 98.7948 74.6619 98.0693C75.0673 97.2012 76.152 95.8336 76.772 95.4292C77.3561 95.0486 77.5587 94.7393 78.0236 93.5381C78.6316 91.992 79.5376 91.4926 80.825 92.004C81.135 92.1228 81.3614 92.1586 81.4329 92.0872C81.4926 92.0277 81.6 91.5283 81.6714 90.9811C81.886 89.2805 82.4105 87.9842 83.0423 87.568C83.3165 87.3895 83.388 87.3895 83.996 87.6036C84.6517 87.8176 84.6635 87.8176 84.8304 87.5916C84.9259 87.4728 84.9974 87.2587 84.9974 87.1159C84.9974 86.664 85.6292 86.224 86.7855 85.8552C87.7988 85.5341 88.4424 85.558 89.0028 85.9742ZM35.9787 86.0932C36.7058 86.4619 37.2066 86.9376 37.4569 87.4965C37.6476 87.9365 37.7191 87.996 37.9099 87.889C38.0291 87.8176 38.1721 87.7106 38.2078 87.6511C38.2437 87.5798 38.5417 87.5321 38.8635 87.5321C39.4239 87.5321 39.4478 87.5441 39.7576 88.0912C40.2464 88.9831 40.5205 89.9109 40.6279 91.1477C40.6875 91.7781 40.7708 92.3369 40.8186 92.3726C40.8544 92.4202 41.069 92.3251 41.2716 92.1705C41.7841 91.7899 42.7021 91.7186 43.2743 92.0158C43.62 92.1943 43.7511 92.3846 44.085 93.1814C44.7168 94.7275 44.8479 94.9296 45.4201 95.2627C46.5645 95.9167 48.5194 99.6036 47.8639 99.8534C47.7685 99.9009 47.3035 99.8057 46.8385 99.6631C45.7895 99.3182 45.3366 98.89 43.7989 96.7373C42.9763 95.5956 42.6185 95.1794 42.4874 95.2269C42.2013 95.334 42.3802 96.0118 43.012 97.1892C43.31 97.7601 43.5365 98.2596 43.4889 98.2953C43.3815 98.4142 42.6067 98.0455 41.7127 97.451C40.2822 96.5114 38.2198 94.2636 37.2423 92.6224C36.7297 91.7422 36.0622 90.1486 35.9548 89.5183C35.8953 89.1972 35.8118 89.0782 35.6568 89.0782C35.1918 89.0782 35.2396 90.4697 35.7522 91.8137C36.086 92.6937 36.9443 93.9664 37.9813 95.1081C38.4463 95.6194 38.9231 96.1903 39.0424 96.3688L39.257 96.7017L38.6371 96.4519C38.3032 96.3211 37.7788 96.2141 37.4688 96.2141C36.9919 96.2141 36.8727 96.2736 36.5151 96.6542L36.0979 97.0941L35.5376 96.9396C34.0474 96.547 32.462 95.441 32.1879 94.5967C32.0448 94.1923 32.1044 93.99 32.5336 93.3004C32.6647 93.0862 32.5932 92.9791 31.854 92.218C30.9839 91.338 30.7574 90.886 30.7574 89.994C30.7574 89.6134 30.805 89.5303 31.0792 89.4232C31.2579 89.3518 31.6514 89.3162 31.9494 89.34C32.4262 89.3757 32.4858 89.3518 32.4501 89.1377C32.4382 89.0069 32.3905 88.4956 32.3547 88.0078C32.2833 87.1516 32.2951 87.0922 32.6051 86.7235C33.3919 85.7839 34.8463 85.5223 35.9787 86.0932ZM99.1832 86.236C99.7554 86.5807 100.125 86.9376 100.339 87.3418C100.566 87.7819 100.566 88.8761 100.328 89.5421L100.137 90.0773L100.733 90.6005C101.305 91.1001 101.329 91.1477 101.329 91.7304C101.329 92.5034 100.995 93.2409 100.506 93.5858C100.077 93.8949 100.065 93.9782 100.363 94.4064C100.494 94.5847 100.626 94.9296 100.673 95.1794C100.745 95.5956 100.709 95.6789 100.316 96.0357C100.077 96.2736 99.6123 96.5352 99.2308 96.6542C98.5872 96.8563 98.5514 96.8563 98.3964 96.6304C98.3011 96.5114 98.2296 96.226 98.2296 96.0118C98.2296 95.2269 96.7871 94.3113 95.5473 94.3113C95.2612 94.3113 94.9871 94.2518 94.9512 94.1923C94.9036 94.121 95.1062 93.7879 95.4043 93.443C96.048 92.6937 96.5724 91.8732 97.3713 90.3746C98.3368 88.5907 98.1579 88.3053 97.0135 89.8037C95.6427 91.5758 93.3539 93.8949 92.9724 93.8949C92.7817 93.8949 92.436 92.7652 92.5434 92.4797C92.5791 92.3846 92.8294 92.1943 93.1035 92.0515C93.795 91.6948 93.8546 91.4568 93.7831 89.34L93.7115 87.5085L94.0333 87.211C94.2122 87.0446 94.534 86.8305 94.7486 86.7353C95.1062 86.5927 95.1897 86.5927 95.428 86.7473C95.583 86.8543 95.7738 87.1279 95.8573 87.3538C96.0599 87.9127 96.2863 87.8534 96.7632 87.1159C96.9778 86.783 97.2996 86.4024 97.4785 86.2596C97.9077 85.9147 98.6229 85.9029 99.1832 86.236ZM24.5705 86.7117C25.1306 86.902 25.393 87.1516 25.6552 87.7344C25.9174 88.3171 26.1796 88.3884 26.3585 87.9127C26.7281 86.9613 27.3957 86.8068 28.1586 87.5203L28.6473 87.9722L28.5162 88.9713C28.4327 89.5183 28.3732 90.232 28.3732 90.5649C28.3732 91.3855 28.8142 92.2894 29.3865 92.6462C29.7321 92.8603 29.8037 92.9673 29.756 93.1694C29.7084 93.3004 29.6487 93.6453 29.601 93.9307C29.5652 94.2041 29.4819 94.4657 29.4102 94.5134C29.2315 94.6204 26.1202 91.3975 25.3452 90.2914C24.6658 89.328 24.3201 89.0782 24.3201 89.566C24.3201 89.9702 25.9174 92.6462 27.05 94.1566C27.4672 94.7037 27.479 94.6918 26.5731 94.8345C25.9295 94.9414 25.2738 95.4292 24.618 96.2973C23.7598 97.4272 23.7479 97.439 23.259 97.3438C22.6868 97.2369 21.9835 96.8681 21.7689 96.547C21.5187 96.1903 21.5306 95.8215 21.8167 95.2627C22.1267 94.656 22.1146 94.4421 21.7689 94.3113C21.1849 94.0972 20.7319 93.0624 20.8869 92.3251C20.9941 91.8256 21.4949 91.1834 21.9835 90.9218C22.1982 90.8028 22.1982 90.779 21.9597 90.3033C21.8167 90.0297 21.6498 89.5896 21.5902 89.3042C21.4949 88.8643 21.5187 88.7097 21.7689 88.1625C22.3531 86.9494 23.4857 86.3548 24.5705 86.7117ZM107.17 89.4113C107.17 89.7681 103.82 93.7166 103.51 93.7166C103.32 93.7166 102.879 93.0742 102.879 92.777C102.879 92.6462 102.998 92.1823 103.141 91.7542C103.415 90.898 104.083 90.0297 104.714 89.7086C105.239 89.4352 107.17 89.1972 107.17 89.4113ZM17.1437 91.0882C17.9306 91.4926 18.5385 92.3608 18.8246 93.5143C18.9557 94.0615 18.9437 94.1328 18.6576 94.6204C18.4907 94.9058 18.3 95.1437 18.2404 95.1437C18.0974 95.1437 16.0708 92.7888 15.296 91.7066L14.6403 90.8028L15.0933 90.7433C15.737 90.66 16.5715 90.8028 17.1437 91.0882ZM92.7459 95.334C93.1035 95.4766 93.2943 95.6551 93.4731 96C93.6042 96.2498 93.7831 96.4876 93.8785 96.5232C93.9738 96.559 94.3433 96.5232 94.7009 96.4519C95.6188 96.2616 96.4534 96.5114 97.0613 97.1299C97.5739 97.6649 97.7527 98.0693 97.7527 98.7473C97.7527 99.5441 96.9659 100.65 96.2984 100.793C96.0002 100.864 95.9645 100.912 96.0123 101.185C96.203 102.125 96.2149 102.41 96.0838 102.862C95.9408 103.421 95.3686 104.135 94.9751 104.254C94.8321 104.289 94.4507 104.456 94.1168 104.611C93.3896 104.955 91.5658 105.277 90.6358 105.229C89.9922 105.193 89.9446 105.169 89.9088 104.896C89.7418 103.124 89.1457 102.47 87.5962 102.327C86.4636 102.22 86.2372 102.101 85.9868 101.459C85.8675 101.162 85.5935 100.71 85.3789 100.472C84.9974 100.044 84.9854 100.032 85.2239 99.9009C85.5935 99.7106 88.5021 99.3418 90.8386 99.1874C93.4016 99.0328 93.7235 98.9851 93.6757 98.7353C93.6161 98.4262 92.9963 98.3429 91.1366 98.4262L89.3485 98.4976L88.8478 98.1288C88.1684 97.6413 88.1563 97.3438 88.8002 97.451C89.4557 97.5461 90.4572 97.3202 90.8029 96.9753C91.0294 96.7493 91.0769 96.5827 91.0769 95.9167V95.1437H91.673C91.9949 95.1437 92.4837 95.2269 92.7459 95.334ZM31.2103 95.9644C31.0672 96.547 31.3057 97.1417 31.8422 97.451C32.2951 97.7244 33.4873 97.8434 33.833 97.6531C34.0474 97.5341 34.0952 97.5461 34.0952 97.7008C34.0952 97.998 33.7376 98.4737 33.368 98.664C33.1295 98.783 32.6051 98.8305 31.4726 98.8305C29.8156 98.8305 28.8501 98.9851 28.8501 99.2587C28.8501 99.4965 29.1241 99.5203 31.7111 99.5916C34.2145 99.6511 35.6926 99.8057 36.694 100.091L37.3138 100.27L36.8966 100.817C36.6701 101.114 36.4197 101.578 36.3483 101.851C36.1814 102.482 35.9668 102.636 35.2278 102.636C34.8939 102.636 34.3335 102.719 33.9998 102.815C33.2249 103.053 32.8673 103.54 32.617 104.694C32.5216 105.146 32.4025 105.562 32.3309 105.633C32.1759 105.788 31.2103 105.788 30.1017 105.609C28.8977 105.431 28.3136 105.229 27.4196 104.706C26.8354 104.373 26.6924 104.206 26.5135 103.754C26.3346 103.279 26.3228 103.112 26.442 102.529C26.6328 101.602 26.6446 101.637 26.1202 101.411C25.8578 101.292 25.4645 100.983 25.226 100.733C24.8208 100.281 24.7969 100.21 24.7969 99.4608C24.7969 98.4024 25.1188 97.7364 25.8578 97.2607C26.3824 96.9276 26.4657 96.9158 27.5268 96.9514C28.3136 96.9753 28.6712 96.9396 28.6951 96.8445C28.8262 96.4757 29.4699 95.7384 29.7084 95.6908C30.6263 95.5123 31.1865 95.4292 31.2461 95.4648C31.2939 95.4886 31.27 95.7026 31.2103 95.9644ZM74.2686 95.4766C74.2686 95.5361 74.1016 96.0475 73.9109 96.6422C73.3387 98.2834 73.1003 99.449 72.9096 101.328C72.5757 104.67 72.5639 105.193 72.8381 106.858C73.3029 109.748 73.7918 111.378 74.5784 112.65C74.8051 113.031 74.9599 113.387 74.9241 113.459C74.8169 113.637 73.2672 114.613 72.3731 115.064C70.8949 115.802 67.7478 116.599 63.5995 117.265C62.5027 117.443 58.9145 117.395 57.8177 117.193C53.7647 116.432 51.5117 115.849 49.6519 115.064C48.9247 114.755 47.5657 113.935 47.5657 113.816C47.5657 113.744 47.9235 112.852 48.3525 111.818C48.7818 110.795 49.2705 109.391 49.4493 108.702C49.7592 107.5 49.7712 107.334 49.7592 104.48C49.7473 101.709 49.7234 101.423 49.4373 100.293C49.2705 99.6393 48.9009 98.5689 48.6268 97.9147C48.0188 96.4995 47.7922 95.8572 47.8876 95.8572C47.9235 95.8572 48.4479 96.119 49.044 96.4401C50.5817 97.2607 52.4772 97.8316 54.6587 98.117C55.1832 98.1883 56.9833 98.2716 58.6523 98.3191C61.6205 98.3786 61.7516 98.3786 64.1716 98.0098C68.6061 97.3438 71.336 96.666 73.434 95.7026C74.1612 95.3697 74.2686 95.334 74.2686 95.4766ZM87.4412 98.0218C87.7512 98.1645 87.8345 98.4499 87.5962 98.5332C87.5126 98.5689 86.5351 98.7235 85.4265 98.89C83.9841 99.1041 83.3762 99.1636 83.2808 99.0684C83.1019 98.89 83.3045 98.783 84.7589 98.2953C86.0583 97.8672 86.9166 97.7839 87.4412 98.0218ZM36.4316 98.2953C37.6595 98.5094 39.102 98.9376 39.102 99.0802C39.102 99.2944 35.4185 99.0684 34.8463 98.8305C34.5243 98.6997 34.5959 98.3904 34.9774 98.2358C35.3111 98.0932 35.2396 98.0932 36.4316 98.2953ZM41.8556 101.019C42.7974 101.233 43.2743 101.542 43.6318 102.16C44.0014 102.791 44.2518 102.838 44.359 102.315C44.3948 102.101 44.5022 101.839 44.5975 101.732C44.9432 101.316 46.4452 101.911 46.7552 102.589C46.8385 102.755 47.1485 103.017 47.4585 103.171C48.1022 103.504 48.7101 103.992 48.889 104.325C48.9605 104.456 48.9844 104.765 48.9368 105.003C48.8294 105.657 48.5314 105.752 47.3274 105.586C44.7047 105.217 39.7218 106.311 38.5774 107.5C38.041 108.059 38.4463 108.095 39.4118 107.584C39.8529 107.346 40.2822 107.156 40.3655 107.156C40.449 107.156 40.5562 107.346 40.604 107.584C40.7112 108.155 40.5444 109.867 40.3536 110.248C40.0914 110.747 39.3285 111.461 38.7682 111.699C38.1006 111.996 37.0993 112.091 36.7297 111.889C36.1575 111.58 35.9668 111.175 35.9907 110.272C36.0025 109.463 35.9907 109.427 35.6687 109.225C35.2039 108.963 34.9057 108.416 34.882 107.857C34.87 107.263 35.4779 106.609 36.229 106.406L36.7416 106.264L36.6701 105.36C36.5986 104.503 36.6105 104.42 36.8847 104.099C37.2304 103.695 37.7549 103.516 38.9589 103.397C39.9364 103.302 40.0079 103.207 39.555 102.458C39.2211 101.875 39.3524 101.506 40.0557 101.138C40.6636 100.817 40.9258 100.793 41.8556 101.019ZM82.6729 101.209C83.0184 101.53 83.0304 101.863 82.7205 102.601C82.6369 102.815 82.6012 103.017 82.6369 103.053C82.6729 103.088 83.233 103.195 83.8767 103.29C85.5696 103.528 85.8675 103.826 85.7483 105.098C85.665 105.859 85.7722 106.002 86.5708 106.275C87.2743 106.502 87.6199 106.965 87.6199 107.679C87.6199 108.083 87.5484 108.226 87.0597 108.666L86.4994 109.189L86.5233 110.045C86.559 110.89 86.5471 110.914 86.1418 111.306C85.7603 111.675 85.6529 111.711 85.0213 111.711C83.8649 111.711 82.5179 110.973 82.0529 110.081C81.7072 109.403 81.6237 107.382 81.9457 107.072C81.9814 107.037 82.4701 107.191 83.0184 107.429C83.8649 107.786 84.0556 107.822 84.1628 107.691C84.2821 107.548 84.1867 107.453 83.7219 107.156C83.0662 106.739 82.3271 106.49 80.2885 106.014C78.9416 105.693 78.703 105.669 76.2356 105.669H73.6129L73.4699 105.372C73.2196 104.884 73.2911 104.539 73.7083 104.147C74.6738 103.243 75.9374 102.16 76.3546 101.875C77.1414 101.34 77.7614 101.506 78.0714 102.315C78.2383 102.755 78.3932 102.719 78.6673 102.184C79.1441 101.245 79.9787 100.84 81.3853 100.888C82.2318 100.912 82.3986 100.947 82.6729 101.209ZM76.0924 107.655C77.6064 108.607 78.4529 109.653 77.964 109.95C77.7733 110.069 77.4157 109.796 76.1402 108.511C75.0434 107.417 74.6262 106.918 74.8169 106.918C74.8645 106.918 75.4369 107.251 76.0924 107.655ZM46.493 107.358C45.9565 108.047 43.8465 110.129 43.6915 110.129C43.2028 110.129 43.5961 109.32 44.4783 108.511C45.2531 107.798 46.3141 107.037 46.5287 107.037C46.7313 107.037 46.7313 107.06 46.493 107.358Z" fill="#333333"/>
<path d="M54.0895 88.3648C53.5651 88.4599 53.4816 88.5312 53.5651 88.781C53.6366 88.9356 54.2923 88.9595 59.0963 88.9595C65.4859 88.9595 66.9045 88.9 66.8569 88.6145C66.833 88.4717 66.6184 88.4004 66.1058 88.3529C65.1164 88.2458 54.6499 88.2578 54.0895 88.3648Z" fill="#333333"/>
<path d="M52.252 89.6372C51.9659 89.7441 52.097 89.9939 52.4666 90.0772C52.9671 90.1724 64.1966 90.1724 66.4974 90.0652C68.1544 89.9939 68.3094 89.9701 68.3094 89.768C68.3094 89.5657 68.0113 89.5538 60.3581 89.5657C55.9712 89.5657 52.3234 89.6015 52.252 89.6372Z" fill="#333333"/>
<path d="M88.5978 100.341C88.6216 100.472 89.0389 100.757 89.5872 101.031C90.1118 101.293 90.8866 101.744 91.3038 102.018C91.733 102.292 92.1382 102.506 92.1978 102.482C92.2694 102.458 92.3409 102.303 92.3648 102.137C92.4243 101.602 91.6256 101.078 89.7183 100.424C88.7289 100.079 88.5381 100.067 88.5978 100.341Z" fill="#333333"/>
<path d="M32.1294 101.066C30.2699 101.935 30.1028 102.054 30.0671 102.553C30.0432 102.791 30.0552 102.993 30.091 102.993C30.1745 102.993 31.7837 102.077 32.7494 101.483C34.2513 100.555 33.8341 100.27 32.1294 101.066Z" fill="#333333"/>
<path d="M67.868 102.362C67.5342 102.386 67.2005 102.469 67.1408 102.553C66.9859 102.755 66.6759 103.754 66.509 104.634C66.3422 105.55 66.3898 105.633 67.7012 106.299C68.7621 106.834 69.1078 107.31 68.9767 108.035C68.9052 108.392 68.6548 108.725 67.8203 109.593C66.819 110.628 66.6401 110.937 66.8547 111.282C67.0097 111.52 68.5713 110.711 69.2389 110.045C70.0614 109.225 70.2761 108.713 70.2761 107.619C70.2761 106.834 70.2283 106.656 69.9422 106.227C69.525 105.585 68.8098 105.074 67.9991 104.812C67.3197 104.598 67.3316 104.622 67.5462 103.813C67.5938 103.623 67.5342 103.611 69.382 103.885L69.9183 103.968L70.1926 103.207C70.3357 102.802 70.4548 102.422 70.4548 102.362C70.4548 102.279 69.0959 102.279 67.868 102.362Z" fill="#333333"/>
<path d="M56.3187 102.482C55.9134 102.529 55.8062 102.767 55.6154 103.98L55.5439 104.444L55.9373 104.337C56.3902 104.23 57.642 104.23 58.1188 104.349C58.4168 104.42 58.4288 104.444 58.2618 104.634C57.8088 105.146 56.8672 108.048 56.3902 110.379C56.2591 111.045 56.1519 111.615 56.1519 111.663C56.1519 111.806 56.9148 112.103 57.1413 112.055C57.2487 112.032 57.344 111.948 57.344 111.877C57.344 111.306 57.6301 109.427 57.8327 108.642C58.0949 107.631 58.7983 105.752 59.6804 103.742C59.9665 103.076 60.205 102.506 60.205 102.47C60.205 102.387 56.9148 102.41 56.3187 102.482Z" fill="#333333"/>
<path d="M62.0157 102.482C61.8607 102.517 61.6342 102.707 61.5031 102.91C61.1574 103.469 60.7998 104.717 60.7998 105.359C60.7998 105.907 60.7998 105.907 61.4792 106.263C62.3136 106.691 63.1362 107.453 63.2436 107.893C63.3628 108.333 62.9812 109.023 62.0992 110.022C60.3706 111.972 62.0396 111.912 63.8634 109.962C65.0078 108.749 65.2581 107.441 64.5787 106.418C64.233 105.907 63.3389 105.312 62.5164 105.05C61.8964 104.86 61.8607 104.824 61.8964 104.491C61.9442 104.016 62.3257 103.825 63.2554 103.825C64.2806 103.825 64.7337 103.647 64.7337 103.254C64.7337 103.076 64.7694 102.814 64.8052 102.66C64.8767 102.398 64.8767 102.398 63.5893 102.41C62.874 102.422 62.1707 102.458 62.0157 102.482Z" fill="#333333"/>
<path d="M52.2299 102.767C51.2284 103.112 51.1569 103.219 51.6338 103.611L52.0391 103.944V106.656C52.0273 109.391 51.9438 110.152 51.5623 110.533C51.2405 110.842 51.6577 110.997 53.0046 111.056L54.2444 111.116V110.735C54.2444 110.461 54.1729 110.331 53.9822 110.235L53.7081 110.117V106.822C53.7081 103.183 53.6246 102.505 53.1358 102.529C52.9928 102.529 52.5874 102.636 52.2299 102.767Z" fill="#333333"/>
<path d="M95.2755 3.99612C94.894 4.25777 94.9059 5.13785 95.3112 5.53032C95.8716 6.10117 96.4438 5.74438 96.4438 4.81673C96.4438 3.94854 95.8953 3.55608 95.2755 3.99612Z" fill="#333333"/>
<path d="M82.7929 9.28821C82.5425 9.59744 82.4948 9.74015 82.5664 10.0375C82.6975 10.6797 82.8286 10.8224 83.2577 10.8224C83.7345 10.8224 83.9253 10.6202 84.0088 10.0256C84.0565 9.68068 84.0088 9.50229 83.8062 9.24064C83.4723 8.8244 83.1862 8.83628 82.7929 9.28821Z" fill="#333333"/>
<path d="M37.7694 9.35933C37.4833 9.43068 37.2688 10.0372 37.3522 10.5605C37.531 11.5833 38.6039 11.5357 38.8184 10.4892C38.9258 9.95398 38.7947 9.57339 38.4489 9.4188C38.1271 9.27609 38.1032 9.26419 37.7694 9.35933Z" fill="#333333"/>
<path d="M106.825 14.4616C106.527 14.8421 106.491 15.6509 106.765 16.0314C107.028 16.4002 107.814 16.4002 108.053 16.0195C108.279 15.6746 108.399 15.0443 108.303 14.747C108.22 14.4853 107.671 14.1523 107.302 14.1523C107.171 14.1523 106.956 14.2951 106.825 14.4616Z" fill="#333333"/>
<path d="M13.1632 15.7461C12.6744 16.2337 12.6148 16.8046 13.0082 17.2921C13.2109 17.5539 13.3301 17.6014 13.5804 17.5419C14.093 17.4229 14.4268 16.9472 14.4268 16.3407C14.4268 15.2704 13.8904 15.0206 13.1632 15.7461Z" fill="#333333"/>
<path d="M95.3703 18.6595C95.1916 19.0045 95.2273 19.7656 95.4419 20.0749C95.9902 20.8717 97.1704 19.5515 96.6339 18.731C96.3836 18.3505 95.573 18.3028 95.3703 18.6595Z" fill="#333333"/>
<path d="M24.8705 19.2783C24.6322 19.4686 24.5605 19.6231 24.5605 19.9918C24.5605 20.6698 24.8466 21.0504 25.3474 21.0504C25.9077 21.0504 26.1581 20.646 26.0746 19.8967C25.9792 19.0522 25.4905 18.7906 24.8705 19.2783Z" fill="#333333"/>
<path d="M114.943 28.6855C114.717 28.9828 114.442 29.6013 114.442 29.8391C114.442 30.184 115.134 30.9213 115.444 30.9213C116.099 30.9213 116.6 30.0532 116.362 29.3515C116.29 29.1374 116.135 28.8758 116.028 28.7568C115.801 28.5071 115.122 28.4714 114.943 28.6855Z" fill="#333333"/>
<path d="M4.95037 30.0296C4.71195 30.2556 4.65234 30.434 4.65234 30.8859C4.65234 31.5044 4.99805 32.2299 5.29607 32.2299C5.67754 32.2299 6.08285 31.9445 6.27359 31.5401C6.54778 30.9454 6.3928 30.3627 5.85636 30.0058C5.35568 29.6609 5.308 29.6609 4.95037 30.0296Z" fill="#333333"/>
<path d="M105.085 29.8512C104.441 30.0891 104.191 30.9097 104.548 31.5639C105.001 32.432 106.039 31.9087 106.015 30.8384C105.991 30.0535 105.609 29.6609 105.085 29.8512Z" fill="#333333"/>
<path d="M15.4045 30.993C15.023 31.2546 14.8919 31.647 15.0349 32.1466C15.166 32.6461 15.3925 32.8482 15.7979 32.8482C16.2986 32.8482 16.5727 32.5033 16.5727 31.885C16.5727 30.9335 16.0482 30.541 15.4045 30.993Z" fill="#333333"/>
<path d="M107.209 44.6581C106.899 44.8723 106.768 45.3955 106.875 46.0258C106.982 46.6323 107.209 46.8584 107.709 46.8584C108.282 46.8584 108.544 46.442 108.532 45.5739C108.52 45.0387 108.46 44.8723 108.246 44.6938C107.924 44.4322 107.554 44.4204 107.209 44.6581Z" fill="#333333"/>
<path d="M119.151 45.847C118.912 46.0729 118.853 46.2514 118.853 46.7033C118.853 47.0362 118.936 47.3931 119.043 47.5477C119.294 47.9045 119.759 48.0829 120.033 47.9283C120.343 47.7737 120.641 47.0839 120.641 46.5368C120.641 45.6567 119.747 45.2405 119.151 45.847Z" fill="#333333"/>
<path d="M12.7689 46.0975C12.5901 46.3235 12.5186 46.5851 12.5186 47.0251C12.5186 47.8578 12.745 48.1668 13.3649 48.1668C13.7702 48.1668 13.8656 48.1075 14.0683 47.7744C14.3782 47.2749 14.3663 46.7517 14.0325 46.2522C13.6629 45.7051 13.1265 45.6336 12.7689 46.0975Z" fill="#333333"/>
<path d="M0.610813 47.5241C0.181653 48.0593 0.300862 49.1653 0.825378 49.5577C1.32606 49.9501 1.96979 49.4626 2.11284 48.5825C2.29165 47.4884 1.23069 46.7391 0.610813 47.5241Z" fill="#333333"/>
<path d="M107.814 58.0136C107.551 58.18 107.408 58.6201 107.408 59.2266C107.408 59.9759 107.766 60.4278 108.302 60.3327C108.922 60.2139 109.22 58.6557 108.719 58.1564C108.481 57.9184 108.052 57.8471 107.814 58.0136Z" fill="#333333"/>
<path d="M12.4835 59.5597C11.9471 60.1424 11.9828 61.1533 12.555 61.5457C12.9246 61.7955 13.1988 61.7718 13.5325 61.4269C13.759 61.2128 13.8306 61.0107 13.8306 60.6063C13.8306 59.6548 12.9842 59.0007 12.4835 59.5597Z" fill="#333333"/>
<path d="M118.424 65.1263C117.983 65.6972 117.959 66.494 118.352 67.0412C118.734 67.5762 119.103 67.5644 119.533 66.9935C119.783 66.6606 119.866 66.4345 119.854 66.0421C119.843 65.495 119.676 65.2333 119.103 64.9004L118.746 64.6982L118.424 65.1263Z" fill="#333333"/>
<path d="M1.64762 66.7671C1.30191 66.9335 1.03965 67.7185 1.13501 68.2537C1.23038 68.7412 1.68338 69.217 2.07677 69.217C2.5536 69.217 2.98275 68.5986 2.98275 67.9206C2.98275 66.9812 2.32711 66.434 1.64762 66.7671Z" fill="#333333"/>
<path d="M109.617 86.0214C109.522 86.176 109.378 86.4615 109.307 86.6754C109.045 87.4366 109.748 88.2454 110.511 88.0431C110.785 87.9718 111.035 87.5555 111.167 86.9608C111.238 86.6279 111.19 86.5208 110.833 86.164C110.332 85.6645 109.891 85.617 109.617 86.0214Z" fill="#333333"/>
<path d="M10.5777 87.2706C9.86247 88.0555 10.1605 89.1972 11.0784 89.1972C11.6864 89.1972 11.7936 89.0903 11.9486 88.3291C12.0797 87.6868 12.0797 87.6393 11.8056 87.3539C11.4718 86.9971 10.8638 86.9495 10.5777 87.2706Z" fill="#333333"/>
</g>
</svg>
