<svg width="365" height="224" viewBox="0 0 365 224" fill="none" xmlns="http://www.w3.org/2000/svg"><path d="M134.858 7.463c38.946 0 77.891.137 116.832-.092 10.695-.064 21.389-.123 32.084-.256.912-.013 1.816.12 2.724.201 4.348.38 5.479 3.86 6.351 7.528 9.198 38.566 6.278 79.64-10.065 115.913-4.357 9.67-9.677 18.778-15.558 27.557-4.622 6.902-9.659 13.493-15.171 19.733-4.11 4.655-8.431 9.099-13.016 13.251-8.628 7.816-17.785 14.946-28.461 19.843-5.662 2.599-11.598 4.225-17.776 5.093-6.159.868-12.346.859-18.523.722-34.146-.74-68.292-.165-102.438-.32-17.675-.078-35.355-.018-53.03 0-1.848 0-3.668-.146-5.41-.717-3.623-1.179-5.818-4.358-6.023-8.574-.06-1.197-.041-2.398-.041-3.595V19.732c0-1.754.036-3.495.378-5.253.826-4.207 4.166-6.715 8.404-6.97 1.474-.092 2.957-.051 4.435-.051 38.102 0 76.198 0 114.3-.01l.004.015Z" fill="#545454"/><path d="M291.69 173.854c2.121-.576 3.846-1.791 5.466-3.088 6.912-5.527 12.049-12.52 16.434-20.14 15.804-27.479 25.112-58.312 26.937-90.122.187-3.239.205-6.468.305-9.702.014-.48-.109-.992.311-1.512a8.77 8.77 0 0 1 3.408 1.886c12.232 10.853 14.303 31.463 12.98 46.697-3.139 36.063-23.027 74.551-54.96 93.169-.734.43-1.478.845-2.231 1.247-4.932 2.636-10.056 4.705-15.33 6.477-.994.334-1.989.672-2.975 1.005 4.349-.242 10.362-1 17.174-3.243 18.213-5.993 32.722-19.518 42.796-35.528 2.477-3.938 4.699-8.012 6.871-12.123.132-.247.265-.507.602-.58.402.009.566.329.703.644 5.06 11.703 3.755 23.702-3.376 34.277-14.039 20.806-43.704 33.226-68.237 33.326-22.612.092-45.219.064-67.831.06-.711 0-1.793.374-1.989-.631-.21-1.068.944-.941 1.606-1.242 34.305-15.791 60.262-43.339 77.179-76.981 14.701-29.234 22.087-62.323 19.208-95.047-.921-10.483-2.865-20.88-5.853-30.97-.178-.607-.429-1.201-.548-1.822-.41-2.174.233-2.723 2.455-2.503 5.552.543 10.453 2.603 14.819 6.043 8.263 6.509 11.433 18.312 13.341 28.233 3.567 18.582-.078 39.165-4.417 57.345-5.644 23.661-15.17 46.783-28.908 66.904-1.464 2.147-3.157 4.134-4.731 6.199-.425.557-.808 1.142-1.209 1.713v.009ZM96.178 95.827c-.037-2.92-.94-5.856-3.514-7.496-2.504-1.594-5.835-1.562-7.806.863-.16.197-.502.53-.401.818.1.288.72.22.98.352.448.223.626.671.612 1.15-.018.558-.023 5.88-.046 13.215-6.447-.036-12.898-.077-19.345-.114a39.695 39.695 0 0 1-.055-5.358 39.411 39.411 0 0 1 1.223-7.683c.22-.84.826-1.873.762-2.754a.591.591 0 0 0-.11-.33c-.173-.214-.506-.177-.77-.109-1.643.42-3.24 1.297-4.5 2.435-.387.347-1.423 1.334-2.358 3.014-2.482 4.45-2.678 10.753-2.678 10.753-.128 4.075-.287 12.333 4.051 20.907 0 0 3.04 6.011 7.387 7.491.858.292 1.09.101 1.164 0 .337-.434-.388-1.183-.603-1.516a13.242 13.242 0 0 1-1.026-1.933c-.602-1.384-1.004-2.85-1.3-4.325-.909-4.495-1.497-9.045-1.37-13.635h19.528v17.252c0 1.142.466 2.243 1.52 2.782.634.325 1.355.439 2.062.525 1.236.156 2.5.238 3.723 0 .716-.137 1.432-.397 1.966-.895.862-.799.876-1.886.876-2.978 0-8.665.082-17.33.069-25.995 0-2.152-.019-4.299-.041-6.45v.014Z" fill="#BDBDBD"/><path d="M69.423 135.146c-7.88-2.307-10.955-10.666-12.638-17.915-.365-1.58-.716-3.138-.926-4.75-.63-4.874-.603-10.232.976-14.937-1.205.27-1.747 1.306-2.45 2.147-2.569 3.069-2.77 6.655-2.893 10.218-.292 8.368 2.76 14.32 3.44 15.599 1.533 2.873 3.203 4.764 3.696 5.308A25.591 25.591 0 0 0 63.492 135a14.713 14.713 0 0 1-7.483-4.513 27.504 27.504 0 0 1-2.199-3.261c-1.255-2.175-2.815-4.883-3.609-8.515-.223-1.018-.374-2.055-.776-2.096-.579-.06-1.231 2.005-1.373 2.448-.456 1.439-.57 2.768-.566 3.472.032 2.74 2.086 8.071 6.99 11.689 0 0 4.289 3.16 11.626 3.403.3.009 2.075-.032 3.394-.978.648-.466 1.077-1.178-.073-1.512v.009Z" fill="#BDBDBD"/><path d="M56.844 97.517s-.004.018-.009.028c.01 0 .019-.005.028-.01l-.019-.018Z" fill="#BDBDBD"/><path d="m56.844 97.517.023.023.091-.128-.114.105Zm140.174-2.709a18.65 18.65 0 0 0-.36-4.285c-.037-.191-.083-.648-.315-1.178-.123-.288-.47-1.05-1.278-1.571-.433-.274-.917-.439-1.428-.434-.356 0-.712.027-1.063.027-.493 0-.985.014-1.478.018-.958.01-1.916-.013-2.87.023-.858.032-1.661.325-2.272.969-.726.762-1.305 1.85-2.263 4.18-.16.383-.288.712-.374.936-.365.79-5.516 11.972-7.464 15.206-.142.242-.461.758-.854.74-.397.018-.711-.498-.853-.74-1.943-3.239-7.099-14.416-7.464-15.206a56.91 56.91 0 0 0-.374-.937c-.958-2.33-1.538-3.417-2.263-4.18-.607-.644-1.41-.936-2.272-.968-.958-.032-1.917-.014-2.87-.023-.493 0-.986-.013-1.478-.018-.356 0-.712-.023-1.063-.027-.511 0-.991.16-1.429.434-.807.52-1.154 1.283-1.277 1.571-.233.53-.278.987-.315 1.178a18.917 18.917 0 0 0-.36 4.285c-.374 11.506-.749 23.003-1.127 34.51.013.192.05.457.155.753.588 1.686 2.724 2.513 4.366 2.536 1.661.022 3.646-.768 4.348-2.293.009-.019.137-.316.206-.645.488-2.343.771-21.212.876-29.43 4.498 9.227 8.016 16.124 9.645 19.167.328.625 1.035 1.882 2.336 2.311a3.774 3.774 0 0 0 2.427 0c1.3-.429 2.003-1.686 2.336-2.311 1.624-3.043 5.146-9.94 9.645-19.167.105 8.222.388 27.087.876 29.43.069.329.196.626.205.645.703 1.525 2.688 2.315 4.348 2.293 1.648-.023 3.778-.85 4.367-2.536.105-.296.141-.561.155-.753-.374-11.507-.748-23.004-1.127-34.51Zm-54.125-6.098c-.935-1.183-2.532-1.229-4.07-1.27-1.455-.041-3.308-.091-4.467 1.197-.643.717-.821 1.562-.876 2.074l-.082 25.47a9.043 9.043 0 0 1-.908 4.12c-.885 1.818-2.139 2.85-2.459 3.101 0 0-2.135 1.69-4.927 1.914-.279.023-.575.032-.575.032-.073 0-.146 0-.219.005-.073 0-.146 0-.219-.005 0 0-.292-.009-.575-.032-2.792-.228-4.928-1.914-4.928-1.914-.324-.255-1.574-1.283-2.459-3.101a9.07 9.07 0 0 1-.908-4.12l-.082-25.47c-.055-.512-.228-1.357-.876-2.074-1.159-1.288-3.011-1.238-4.467-1.197-1.533.041-3.134.087-4.069 1.27-.735.927-.676 2.074-.616 2.572v26.657c0 2.481.712 5.765 3.089 8.885 2.669 3.503 6.46 5.065 7.628 5.499 2.368.882 4.699 1.128 5.411 1.197 1.237.123 2.291.128 3.071.105.78.023 1.834.018 3.07-.105.712-.073 3.044-.32 5.411-1.197 1.168-.434 4.96-1.996 7.629-5.499 2.372-3.12 3.089-6.404 3.089-8.885V91.282c.059-.498.118-1.645-.616-2.572Zm105.649 12.826a21.036 21.036 0 0 0-7.482-10.739c-4.047-3.042-9.066-4.636-14.108-4.755-5.041.12-10.06 1.713-14.107 4.755a20.989 20.989 0 0 0-7.482 10.739c-3.673 12.288 1.852 27.964 15.074 31.431 2.135.558 4.33.795 6.515.736 2.19.059 4.385-.178 6.516-.736 13.222-3.467 18.747-19.143 15.074-31.431Zm-9.814 13.717c-1.382 5.82-5.242 12.073-11.776 12.142-6.533-.069-10.393-6.322-11.775-12.142-1.333-5.604-1.086-12.205 2.048-17.207 2.172-3.466 5.868-5.517 9.723-5.545 3.86.028 7.551 2.083 9.723 5.545 3.134 5.002 3.38 11.603 2.048 17.207h.009Z" fill="#BDBDBD"/></svg>