<svg width="412" height="171" viewBox="0 0 412 171" fill="none" xmlns="http://www.w3.org/2000/svg"><g clip-path="url(#a)"><path d="M289.533 41.576c4.835.062 7.757 3.05 7.602 7.795-.14 4.326-3.311 7.096-8.022 7.002-4.57-.078-7.617-3.08-7.617-7.468 0-4.653 3.016-7.407 8.037-7.33Zm87.521 40.16c1.415-.405 4.322-4.31 4.897-4.948 2.379-2.661 4.757-5.322 7.089-8.045 2.285-2.66 4.493-6.115 8.146-6.94 3.902-.87 9.016-.046 13.027-.046-5.985 6.955-11.333 13.366-16.914 19.543-1.865 2.054-2.052 3.423-.373 5.757 5.674 7.842 11.084 15.902 16.587 23.869.715 1.042 1.368 2.132 2.503 3.921-5.192 0-9.731.031-14.286-.016-1.555-.015-2.052-1.447-2.752-2.458-3.808-5.539-7.648-11.048-11.301-16.696-2.348-3.61-6.11 1.898-6.825 4.295-1.197 3.952.886 9.118-.777 12.79-1.197 2.661-4.197 2.116-6.762 2.116-4.032 0-6.047-1.955-6.047-5.866 0-20.057.062-40.113-.063-60.17-.015-3.05.467-4.574 3.918-4.154 2.922.358 6.855-.872 8.612.622 1.866 1.587.544 5.617.575 8.574.062 8.93.094 17.878 0 26.81 0 .902.296 1.15.762 1.026l-.016.016Zm-143.362-1.463c-.388-.031-2.381-.017-2.694-.016-3.912.016-3.5-6.44-10.597-8.215-4.85-1.214-10.415 1.37-12.576 5.882-3.234 6.752-2.954 13.848-.031 20.663 1.803 4.217 5.565 6.053 10.042 6.022 4.166-.032 7.571-1.712 9.25-5.804.637-1.556 1.554-2.179 3.217-2.07 2.068.125 4.136.031 6.203.031 5.223 0 5.332.063 3.591 5.104-2.316 6.722-7.042 11.11-13.82 13.024-14.675 4.123-33.391-1.51-33.749-24.43-.124-7.95.591-15.497 6.125-21.814 10.944-12.495 34.2-10.13 40.667 4.17.668 1.478 2.658 4.606 1.399 6.208-1.29 1.65-4.741 1.416-7.027 1.23v.015Zm72.148 7.967c-.187-21.94 19.214-34.419 38.335-24.647 5.72 2.925 8.736 7.858 10.198 13.91.419 1.743-.032 2.692-2.068 2.505-3.373-.326-8.78.517-9.805-.508-2.5-2.5-5.429-8.096-11.306-7.832-3.902.187-8.13 2.568-9.871 6.146-2.534 5.213-2.86 10.955-1.57 16.556.653 2.879 1.959 5.679 4.135 7.671 4.85 4.45 14.006 3.174 16.634-3.112.699-1.665 1.663-2.318 3.497-2.21 2.581.172 5.192.219 7.757 0 2.783-.248 3.094 1.074 2.472 3.206-1.741 5.975-5.052 10.752-10.788 13.49-19.417 9.274-37.449-2.816-37.636-25.191l.016.016Zm-42.424-15.825c0 8.278-.125 16.556.046 24.834.109 5.29 1.897 7.002 7.214 6.737 3.015-.156 3.249 1.027 3.217 3.485-.093 8.247 0 8.247-8.347 7.998-9.965-.295-14.846-4.481-15.048-14.377-.373-17.972-.125-35.959-.202-53.946 0-1.867.668-2.35 2.471-2.443 10.524-.607 10.524-.653 10.524 9.85V72.4h.125v.015Zm32.521 15.995c0 7.64-.14 15.296.078 22.92.093 3.019-.917 3.657-3.762 3.626-9.405-.094-9.405 0-9.405-9.507 0-13.475.046-26.95-.047-40.41-.015-2.38.404-3.345 3.109-3.345 10.043-.03 10.043-.14 10.043 10.005v16.712h-.016Z" fill="#070707"/><path d="M161.812 62.908c-11.022-24.117-28.573-42.385-51.393-55.377-17.738-10.098-36.221-9.958-54.036-.047-20.955 11.67-37.17 28.397-48.626 49.418-10.493 19.279-10.291 38.993.373 58.178 11.161 20.088 26.8 36.13 46.558 47.831 14.084 8.34 29.226 10.378 45.113 5.462 11.721-3.626 21.188-10.877 30.314-18.579 8.021-6.768 15.016-14.595 21.266-23.059 8.969-12.153 14.628-25.534 15.188-40.798.077-8.03-1.431-15.747-4.757-23.029Zm-37.216 38.122c-6.14 11.094-14.675 19.979-25.572 26.467-9.343 5.555-19.214 6.38-28.868 1.229-13.493-7.204-23.769-17.753-29.8-31.99-3.84-9.072-2.706-18.081 1.865-26.561 5.612-10.44 13.618-18.874 23.551-25.3 11.38-7.376 23.07-7.75 34.635-.374 11.007 7.033 19.681 16.276 25.37 28.132.234.498.467 1.012.684 1.51 1.477 3.563 2.208 7.344 2.037 11.28.295 5.602-1.213 10.814-3.886 15.622l-.016-.015Z" fill="#02ADFE"/></g><defs><clipPath id="a"><path fill="#fff" d="M0 0h412v171.002H0z"/></clipPath></defs></svg>