<svg width="263" height="376" viewBox="0 0 263 376" fill="none" xmlns="http://www.w3.org/2000/svg"><g clip-path="url(#a)" fill-rule="evenodd" clip-rule="evenodd"><path d="M254.604 157.135c0 46.256-10.555 80.725-31.654 103.188-21.099 22.462-53.69 33.687-97.636 33.687-41.055 0-72.21-11.231-93.447-33.687C10.624 237.866 0 203.998.007 158.716V6.798C.018 3.235 2.896.354 6.447.34h74.446a6.472 6.472 0 0 1 6.448 6.457v155.237c0 18.488 3.415 32.719 10.369 42.756 12.515 16.613 36.111 19.919 52.703 7.388a37.44 37.44 0 0 0 6.686-6.5c6.798-9.419 10.181-23.3 10.162-41.644v-29.069h87.342v22.169Z" fill="#404040"/><path d="M247.856 117.991h-80.582V7.098c.013-3.732 3.028-6.75 6.748-6.757h12.06c.025 37.863 30.687 68.544 68.503 68.544h.019v49.106h-6.754.006Z" fill="#404040"/><path d="M203.249.341h44.607a6.768 6.768 0 0 1 6.748 6.757v44.718c-28.365 0-51.362-23.025-51.362-51.425V.335l.007.006Z" fill="#9F9F9F"/><path d="M14.632 367.791c9.856 0 14.613-5.493 14.613-13.562v-19.444h-7.054v19.25c0 4.2-3.402 7.606-7.596 7.606-4.195 0-7.597-3.406-7.597-7.606v-19.25H0v19.506c0 7.969 4.757 13.513 14.613 13.513l.013-.013h.006Zm57.185-.587v-6.075h-15.63L71.48 340.31v-5.544H47.154v6.082h15.294l-15.294 20.756v5.575l24.663.025Zm32.954.587a14.905 14.905 0 0 0 13.545-7.975l-5.942-2.868a8.688 8.688 0 0 1-7.622 4.712c-5.874-.294-10.4-5.294-10.106-11.175.268-5.475 4.638-9.85 10.106-10.119a8.774 8.774 0 0 1 7.622 4.713l5.942-2.919a14.825 14.825 0 0 0-13.545-7.925c-9.252-.275-16.973 7.006-17.254 16.269-.275 9.262 6.998 16.994 16.249 17.275.33.012.667.012.998 0l.007.012Zm60.238-.587-12.479-32.425h-8.639l-12.528 32.425h7.865l2.041-5.494h13.889l1.992 5.494h7.865-.006Zm-11.748-11.569h-10.1l5.05-13.956 5.05 13.956Zm58.303 19.706-11.886-20.475c4.382-1.056 7.372-5.118 7.091-9.625.213-5.575-4.126-10.262-9.694-10.475a10.814 10.814 0 0 0-1.18.025h-15.156v32.425h6.898v-11.525h5.05l10.961 19.644h7.916v.006Zm-16.692-25.725h-7.235v-8.75h7.21a4.397 4.397 0 0 1 4.831 3.913 4.402 4.402 0 0 1-3.907 4.837 4.401 4.401 0 0 1-.918 0h.025-.006Zm42.566 17.6c10.15 0 17.191-6.418 17.191-16.187 0-9.769-7.054-16.238-17.191-16.238h-12.772v32.425h12.772Zm0-6.075h-5.874v-20.268h5.874c5.218-.388 9.763 3.537 10.15 8.762.031.463.031.931 0 1.394.225 5.356-3.927 9.881-9.276 10.106-.294.013-.593.013-.893 0h.019v.006ZM263 334.173v.075a6.038 6.038 0 0 1-6.024 6.043 6.038 6.038 0 0 1-.012-12.075h6.03v5.957H263Z" fill="#404040"/></g><defs><clipPath id="a"><path fill="#fff" transform="translate(0 .341)" d="M0 0h263v375H0z"/></clipPath></defs></svg>