<svg width="412" height="171" viewBox="0 0 412 171" fill="none" xmlns="http://www.w3.org/2000/svg"><g clip-path="url(#a)"><path d="M289.533 41.576c4.835.062 7.757 3.05 7.602 7.795-.14 4.326-3.311 7.096-8.021 7.002-4.571-.078-7.618-3.08-7.618-7.469 0-4.652 3.016-7.406 8.037-7.328Zm87.521 40.16c1.415-.405 4.322-4.31 4.897-4.948 2.378-2.661 4.757-5.322 7.088-8.045 2.286-2.66 4.493-6.115 8.146-6.94 3.902-.87 9.017-.046 13.027-.046-5.985 6.955-11.332 13.366-16.913 19.543-1.866 2.054-2.052 3.423-.373 5.757 5.674 7.842 11.084 15.902 16.587 23.869.715 1.042 1.368 2.131 2.503 3.921-5.193 0-9.732.031-14.287-.016-1.554-.015-2.052-1.447-2.751-2.458-3.809-5.539-7.649-11.048-11.302-16.696-2.347-3.61-6.109 1.898-6.824 4.295-1.197 3.952.886 9.118-.777 12.79-1.197 2.661-4.198 2.116-6.763 2.116-4.031 0-6.047-1.955-6.047-5.866 0-20.057.062-40.113-.062-60.17-.016-3.05.466-4.574 3.917-4.154 2.923.358 6.856-.872 8.613.622 1.865 1.587.544 5.617.575 8.574.062 8.93.093 17.878 0 26.81 0 .902.295 1.15.761 1.026l-.015.016Zm-143.36-1.463c-.389-.031-2.382-.017-2.694-.016-3.913.016-3.5-6.44-10.597-8.215-4.85-1.214-10.416 1.37-12.576 5.882-3.234 6.752-2.954 13.848-.032 20.663 1.804 4.217 5.566 6.053 10.043 6.022 4.166-.032 7.57-1.712 9.249-5.804.638-1.556 1.555-2.179 3.218-2.07 2.068.125 4.135.031 6.203.031 5.223 0 5.332.063 3.591 5.104-2.316 6.722-7.042 11.11-13.82 13.024-14.675 4.123-33.392-1.51-33.749-24.43-.125-7.95.591-15.497 6.125-21.814 10.944-12.495 34.2-10.13 40.667 4.17.668 1.478 2.658 4.606 1.399 6.208-1.291 1.65-4.742 1.416-7.027 1.23v.015Zm72.146 7.967c-.186-21.94 19.214-34.419 38.335-24.647 5.721 2.925 8.737 7.858 10.198 13.91.42 1.743-.031 2.692-2.068 2.505-3.373-.326-8.779.517-9.805-.508-2.5-2.5-5.429-8.096-11.305-7.832-3.902.187-8.13 2.568-9.872 6.147-2.533 5.212-2.86 10.954-1.57 16.555.653 2.879 1.959 5.68 4.135 7.671 4.851 4.45 14.007 3.174 16.634-3.112.7-1.665 1.663-2.318 3.498-2.21 2.58.172 5.192.219 7.757 0 2.783-.248 3.093 1.074 2.472 3.206-1.741 5.975-5.053 10.752-10.789 13.49-19.416 9.274-37.449-2.816-37.635-25.19l.015.015Zm-42.423-15.825c0 8.278-.124 16.556.047 24.834.109 5.29 1.896 7.002 7.213 6.737 3.016-.155 3.249 1.027 3.218 3.485-.094 8.247 0 8.247-8.348 7.998-9.965-.295-14.846-4.481-15.048-14.377-.373-17.972-.125-35.959-.202-53.946 0-1.867.668-2.35 2.471-2.443 10.525-.607 10.525-.653 10.525 9.85V72.4h.124v.015Zm32.521 15.995c0 7.64-.14 15.296.078 22.92.093 3.019-.917 3.657-3.762 3.626-9.405-.094-9.405 0-9.405-9.507 0-13.475.046-26.95-.047-40.41-.015-2.38.404-3.344 3.109-3.344 10.043-.032 10.043-.14 10.043 10.005v16.71h-.016Z" fill="#070707"/><path d="M161.812 62.908c-11.021-24.117-28.572-42.385-51.393-55.377-17.737-10.098-36.22-9.958-54.035-.047-20.956 11.67-37.17 28.397-48.627 49.418-10.493 19.279-10.29 38.993.374 58.178 11.161 20.088 26.8 36.13 46.558 47.831 14.084 8.34 29.225 10.379 45.113 5.462 11.721-3.626 21.188-10.877 30.313-18.579 8.022-6.768 15.017-14.595 21.266-23.059 8.97-12.153 14.629-25.534 15.188-40.798.078-8.029-1.43-15.747-4.757-23.029Zm-37.215 38.122c-6.141 11.094-14.675 19.979-25.572 26.467-9.343 5.555-19.215 6.38-28.868 1.229-13.494-7.204-23.77-17.753-29.8-31.99-3.84-9.072-2.706-18.081 1.865-26.561 5.611-10.44 13.617-18.874 23.55-25.3 11.38-7.376 23.07-7.75 34.636-.374 11.006 7.033 19.681 16.276 25.37 28.132.233.498.467 1.012.684 1.51 1.477 3.563 2.208 7.344 2.037 11.28.295 5.602-1.213 10.814-3.887 15.622l-.015-.015Z" fill="#ACACAC"/></g><defs><clipPath id="a"><path fill="#fff" d="M0 0h412v171.002H0z"/></clipPath></defs></svg>