<svg width="400" height="117" viewBox="0 0 400 117" fill="none" xmlns="http://www.w3.org/2000/svg"><g clip-path="url(#a)"><path d="M65.541 11.51a20.641 20.641 0 0 0-5.381-5.814 26.595 26.595 0 0 0-7.067-3.43A40.044 40.044 0 0 0 44.688.492 97.286 97.286 0 0 0 34.635.02H5.557A5.061 5.061 0 0 0 .043 4.58c0 .048-.011.102-.011.15v47.482a44.683 44.683 0 0 0 19.104 20.352v-9.477a5.584 5.584 0 0 1 5.077-6.048h8.736c11.904 0 20.987-2.49 27.248-7.472 6.262-4.981 9.44-12.368 9.536-22.155.01-2.821-.32-5.632-.986-8.373a26.178 26.178 0 0 0-3.2-7.53h-.006Zm-17.04 24.277a10.251 10.251 0 0 1-4.33 4.042 17.447 17.447 0 0 1-6.251 1.659 56.702 56.702 0 0 1-7.184.437h-8.373c-2.006 0-3.26-1.626-3.26-4.01V18.432a2.914 2.914 0 0 1 2.705-3.099c.187-.01.368-.005.55.016h8.373c2.714 0 5.274.08 7.674.235 2.144.101 4.246.619 6.192 1.515a9.3 9.3 0 0 1 4.272 3.84 14.817 14.817 0 0 1 1.483 7.328 14.762 14.762 0 0 1-1.861 7.504v.026l.01-.01ZM19.163 75.419A52.899 52.899 0 0 1 .032 63.38v22.827a3.251 3.251 0 0 0 2.773 3.675l.134.016h13.14c3.489 0 3.084-3.723 3.084-3.723V75.419Zm180.629-50.534h-11.339a4.593 4.593 0 0 0-4.768 3.52l-13.173 36.288s-11.632-33.061-12.501-35.621a5.3 5.3 0 0 0-5.12-4.219h-10.438c-3.722 0-3.722 2.907-3.226 4.043.496 1.136 14.773 40.272 20.352 55.248a21.882 21.882 0 0 1 1.829 5.813 15.424 15.424 0 0 1-2.208 5.584c-.427.72-.912 1.403-1.456 2.038 10.757-3.2 23.264-14.859 29.541-27.451 6.342-17.445 14.683-40.71 15.062-41.899.405-1.829.405-3.344-2.56-3.344h.005Zm-50.533 76.24a26.483 26.483 0 0 1-2.907-.234c-1.195-.176-3.461 0-3.461 2.037v8.725c0 3.344 1.626 3.579 2.469 3.808 2.693.592 5.445.886 8.197.875a21.228 21.228 0 0 0 9.451-1.947 22.542 22.542 0 0 0 7.067-5.584 38.663 38.663 0 0 0 5.584-8.373c1.61-3.216 3.141-6.773 4.592-10.672l1.685-4.624c-3.371 3.344-18.261 17.387-32.683 15.995l.006-.006Zm-17.158-65.802a15.355 15.355 0 0 0-2.501-4.043 17.673 17.673 0 0 0-3.547-2.907 25.812 25.812 0 0 0-4.48-2.442 33.77 33.77 0 0 0-4.912-1.483 40.387 40.387 0 0 0-5.813-.843c-2.096-.213-4.437-.32-7.035-.32-17.328 0-27.194 5.467-29.6 16.4a2.914 2.914 0 0 0 2.56 3.606h10.672c2.907 0 2.907-.902 4.01-3.403a7.475 7.475 0 0 1 2.502-3.43 14.99 14.99 0 0 1 9.19-2.357 13.078 13.078 0 0 1 8.576 2.123 10.007 10.007 0 0 1 3.168 6.923c0 3.605-1.104 5.989-5.584 5.989-10.614-.379-22.011.816-28.438 4.507a21.02 21.02 0 0 0-10.058 18.549 18.887 18.887 0 0 0 1.717 8.373 16.51 16.51 0 0 0 4.8 5.814 20.343 20.343 0 0 0 7.21 3.781 33.616 33.616 0 0 0 9.131 1.163 39.47 39.47 0 0 0 12.24-1.744 45.621 45.621 0 0 0 9.856-5.552v2.037c0 2.005.608 3.808 2.907 3.808h12.357c2.502 0 3.083-1.776 3.083-3.984V47.824a46.372 46.372 0 0 0-.496-7.093 22.152 22.152 0 0 0-1.515-5.408Zm-16.896 37.392s-3.2 6.688-14.538 6.688a12.834 12.834 0 0 1-7.675-2.123 7.581 7.581 0 0 1-2.907-6.63 8.37 8.37 0 0 1 4.8-8.197 36.736 36.736 0 0 1 14.395-2.416 5.264 5.264 0 0 1 6.048 5.238l-.117 7.445-.006-.005Z" fill="#333"/><path fill-rule="evenodd" clip-rule="evenodd" d="M397.808 63.59a14.543 14.543 0 0 0 0-15.355c-2.096-3.142-17.712-22.592-23.003-27.915-6.048-6.224-11.424-9.307-17.445-9.307H228.72c-11.659 0-15.584 3.867-15.584 17.158v52.89c0 12.971 1.018 18.784 18.058 18.784h125.878c6.074 0 12.208-4.768 16.746-9.477 5.232-5.435 21.083-22.357 23.99-26.779ZM241.723 31.135v.32a44.114 44.114 0 0 0-16.048 13.696V31.195c0-2.091.117-3.43 2.586-3.43h10.555c2.907 0 2.907 1.654 2.907 3.371Zm70.688 50.795V47.504c0-14.09-6.224-21.141-18.667-21.141a18.668 18.668 0 0 0-9.771 2.906 35.39 35.39 0 0 0-8.517 7.446 14.853 14.853 0 0 0-6.048-7.648 20.013 20.013 0 0 0-10.496-2.47 24.384 24.384 0 0 0-14.859 5.12c-.082.082-.292.262-.607.533-3.265 2.798-17.798 15.256-17.798 28.198v21.547c0 .053-.002.12-.005.197-.03.875-.105 3.088 2.592 3.088h10.96c3.153 0 3.109-1.924 3.086-2.945-.002-.08-.004-.155-.004-.223v-34.89c.141-.19.293-.401.457-.628 1.965-2.716 5.604-7.746 11.319-7.746a5.597 5.597 0 0 1 5.12 2.416 15.242 15.242 0 0 1 1.568 8.027v32.773l-.001.09-.004.107c-.029.876-.105 3.088 2.592 3.088h10.848c3.153 0 3.109-1.924 3.086-2.944a9.08 9.08 0 0 1-.003-.224V47.114a51.9 51.9 0 0 0 .684-.88h.001c2.122-2.764 5.754-7.493 11.091-7.493a5.822 5.822 0 0 1 5.205 2.416 15.044 15.044 0 0 1 1.6 8.027v32.773c0 .054-.002.12-.005.198-.03.875-.105 3.088 2.592 3.088h10.96c3.13-.161 3.065-2.014 3.03-3.022-.003-.096-.006-.185-.006-.264v-.026Zm60.437-13.663.01-.028-.005.005-.005.023Zm-.01.027a25.103 25.103 0 0 1-24.812 16.26c-16.746 0-27.914-11.398-27.914-28.496 0-17.099 11.632-29.078 27.333-29.078 15.701 0 26.171 10.875 26.837 28.411 0 2.24-.554 4.219-3.37 4.219h-35.531c.235 9.392 4.741 14.538 12.763 14.538a11.167 11.167 0 0 0 10.293-6.224 3.957 3.957 0 0 1 3.344-1.717h9.157a1.831 1.831 0 0 1 1.9 2.087Zm0 0 .01-.027-.022.095a.818.818 0 0 0 .012-.068Zm-37.489-18.231c.987-7.616 5.493-12.24 12.155-12.24 7.472 0 11.082 5.579 11.69 12.24h-23.845Z" fill="#ADADAD"/></g><defs><clipPath id="a"><path fill="#fff" d="M0 0h400v116.341H0z"/></clipPath></defs></svg>