<svg width="30" height="30" viewBox="0 0 30 30" fill="none" xmlns="http://www.w3.org/2000/svg"><g clip-path="url(#a)"><path fill-rule="evenodd" clip-rule="evenodd" d="M7.271 0H18l9 9v17.094C27 28.254 25.132 30 22.83 30H7.178C4.868 30 3 28.253 3 26.094V3.905C3 1.748 4.962 0 7.271 0Z" fill="#D92D20"/><path d="M18.02 6.12V0L27 9h-5.987c-2.694 0-3.119-1.92-2.994-2.88Z" fill="#fff" fill-opacity=".3"/><path d="M6.75 24.5v-6.546h2.58c.497 0 .92.095 1.27.285.349.188.615.448.798.783.186.332.278.716.278 1.15 0 .435-.093.819-.28 1.151a1.94 1.94 0 0 1-.816.777c-.354.185-.782.278-1.285.278H7.65v-1.11h1.423c.266 0 .485-.045.658-.137a.912.912 0 0 0 .39-.386c.087-.167.13-.357.13-.572a1.19 1.19 0 0 0-.13-.57.875.875 0 0 0-.39-.38c-.175-.091-.396-.137-.665-.137h-.933V24.5H6.749Zm8.146 0h-2.32v-6.546h2.34c.658 0 1.225.132 1.7.394.475.26.84.634 1.096 1.122.258.487.387 1.071.387 1.75 0 .683-.129 1.269-.387 1.759a2.66 2.66 0 0 1-1.102 1.128c-.478.262-1.049.393-1.713.393Zm-.936-1.186h.879c.41 0 .753-.072 1.032-.217a1.4 1.4 0 0 0 .633-.68c.143-.31.214-.708.214-1.196 0-.484-.071-.879-.214-1.186a1.386 1.386 0 0 0-.63-.677c-.279-.145-.623-.218-1.032-.218h-.882v4.174Zm5.164 1.186v-6.546h4.334v1.142h-2.95v1.56h2.662v1.14h-2.662V24.5h-1.384Z" fill="#fff"/></g><defs><clipPath id="a"><path fill="#fff" d="M0 0h30v30H0z"/></clipPath></defs></svg>