<svg width="50" height="24" viewBox="0 0 50 24" fill="none" xmlns="http://www.w3.org/2000/svg"><path d="M10.026 8.01c1.547 0 2.607.288 3.122.893.516.576.63 1.613.373 2.967-.287 1.527-.831 2.507-1.662 3.14-.802.635-2.034.952-3.695.952H5.672L7.19 8.01h2.836ZM0 24h4.125l.974-5.042h3.523c1.547 0 2.808-.173 3.81-.49a7.61 7.61 0 0 0 2.75-1.67 8.265 8.265 0 0 0 1.662-2.104c.43-.75.744-1.614.888-2.536.458-2.247.143-4.004-.946-5.243-1.117-1.268-2.836-1.873-5.213-1.873H3.667L0 24ZM20.768 0l-3.667 18.958h4.068l2.12-10.862h3.265c1.032 0 1.72.173 2.034.519.315.345.373.98.2 1.901l-1.632 8.442h4.154L33 10.113c.372-1.786.086-3.083-.774-3.919-.859-.777-2.434-1.152-4.726-1.152h-3.638L24.893 0h-4.125ZM42.08 8.01c1.576 0 2.607.288 3.123.893.515.576.63 1.613.372 2.967-.286 1.527-.83 2.507-1.633 3.14-.83.635-2.062.952-3.724.952h-2.434l1.432-7.952h2.864ZM32.054 24h4.125l.974-5.042h3.495c1.576 0 2.865-.173 3.867-.49 1.003-.346 1.862-.893 2.722-1.67.687-.635 1.26-1.326 1.661-2.104.43-.75.745-1.614.917-2.536.43-2.247.114-4.004-.974-5.243-1.031-1.268-2.836-1.873-5.214-1.873H35.75L32.054 24Z" fill="#626262"/></svg>