<svg width="31" height="31" viewBox="0 0 31 31" fill="none" xmlns="http://www.w3.org/2000/svg">
<path d="M25.543 8.05666L20.8555 3.36916C20.6769 3.19504 20.4369 3.09822 20.1875 3.09962H10.8125C10.3152 3.09962 9.83831 3.29717 9.48668 3.6488C9.13504 4.00043 8.9375 4.47734 8.9375 4.97462V6.84962H7.0625C6.56522 6.84962 6.08831 7.04717 5.73667 7.3988C5.38504 7.75043 5.1875 8.22734 5.1875 8.72463V25.5996C5.1875 26.0969 5.38504 26.5738 5.73667 26.9254C6.08831 27.2771 6.56522 27.4746 7.0625 27.4746H20.1875C20.6848 27.4746 21.1617 27.2771 21.5133 26.9254C21.865 26.5738 22.0625 26.0969 22.0625 25.5996V23.7246H23.9375C24.4348 23.7246 24.9117 23.5271 25.2633 23.1754C25.615 22.8238 25.8125 22.3469 25.8125 21.8496V8.72463C25.8139 8.4752 25.7171 8.23525 25.543 8.05666ZM16.4375 22.7871H10.8125C10.5639 22.7871 10.3254 22.6884 10.1496 22.5125C9.97377 22.3367 9.875 22.0983 9.875 21.8496C9.875 21.601 9.97377 21.3625 10.1496 21.1867C10.3254 21.0109 10.5639 20.9121 10.8125 20.9121H16.4375C16.6861 20.9121 16.9246 21.0109 17.1004 21.1867C17.2762 21.3625 17.375 21.601 17.375 21.8496C17.375 22.0983 17.2762 22.3367 17.1004 22.5125C16.9246 22.6884 16.6861 22.7871 16.4375 22.7871ZM16.4375 19.0371H10.8125C10.5639 19.0371 10.3254 18.9384 10.1496 18.7625C9.97377 18.5867 9.875 18.3483 9.875 18.0996C9.875 17.851 9.97377 17.6125 10.1496 17.4367C10.3254 17.2609 10.5639 17.1621 10.8125 17.1621H16.4375C16.6861 17.1621 16.9246 17.2609 17.1004 17.4367C17.2762 17.6125 17.375 17.851 17.375 18.0996C17.375 18.3483 17.2762 18.5867 17.1004 18.7625C16.9246 18.9384 16.6861 19.0371 16.4375 19.0371ZM23.9375 21.8496H22.0625V12.4746C22.0639 12.2252 21.9671 11.9853 21.793 11.8067L17.1055 7.11916C16.9269 6.94504 16.6869 6.84822 16.4375 6.84962H10.8125V4.97462H19.8008L23.9375 9.11134V21.8496Z" fill="#333333"/>
</svg>
