<svg width="24" height="24" viewBox="0 0 24 24" fill="none" xmlns="http://www.w3.org/2000/svg">
<path d="M10.875 5.69981C9.88125 5.82168 9.06094 5.99512 8.17031 6.28574C5.65313 7.10137 3.1875 8.62949 0.848438 10.8186C0.0890625 11.5311 0 11.6529 0 11.9998C0 12.3467 0.0890625 12.4686 0.848438 13.1811C1.95 14.2123 2.775 14.8686 3.9375 15.6326C6.07969 17.0389 8.07188 17.8592 10.2422 18.2201C10.9828 18.342 13.0172 18.342 13.7578 18.2201C15.2203 17.9764 16.6547 17.5029 18.0656 16.7951C19.8469 15.9045 21.5016 14.7279 23.1516 13.1811C23.9109 12.4686 24 12.3467 24 11.9998C24 11.6529 23.9109 11.5311 23.1516 10.8186C20.8125 8.62949 18.3469 7.10137 15.8297 6.28574C14.4469 5.83574 13.6781 5.71387 12.1875 5.69512C11.5547 5.68574 10.9641 5.69043 10.875 5.69981ZM13.1953 7.25137C14.5734 7.63574 15.6891 8.52168 16.3219 9.73106C16.575 10.2232 16.6969 10.5701 16.8047 11.1045C16.9125 11.6248 16.8797 12.7123 16.7438 13.1951C16.3641 14.5686 15.4781 15.6889 14.2688 16.3217C13.4203 16.7623 12.8063 16.8982 11.8172 16.8607C10.65 16.8186 9.74063 16.4717 8.85469 15.7311C8.01562 15.0279 7.42031 14.0154 7.19531 12.8951C7.0875 12.3748 7.12031 11.2873 7.25625 10.8045C7.76719 8.94824 9.17344 7.61699 11.0625 7.19512C11.5031 7.09668 12.7547 7.12949 13.1953 7.25137Z" fill="#333333"/>
<path d="M11.1094 8.57772C10.9172 8.62929 10.5797 8.76054 10.3594 8.86835C10.0359 9.02773 9.87656 9.1496 9.51562 9.51523C9.15 9.87616 9.02812 10.0355 8.86875 10.359C8.59219 10.9121 8.48438 11.3808 8.48438 11.9996C8.48438 12.6184 8.59219 13.0871 8.86875 13.6402C9.02812 13.9637 9.15 14.123 9.51562 14.484C9.87656 14.8496 10.0359 14.9715 10.3594 15.1309C10.9687 15.4355 11.4187 15.5293 12.1359 15.5059C12.6422 15.4871 12.7875 15.4637 13.1391 15.3418C13.6453 15.1637 13.9828 14.9621 14.3672 14.6105C14.7281 14.2871 14.9344 14.0059 15.1547 13.5699C15.3141 13.2605 15.5062 12.6324 15.4594 12.5855C15.45 12.5762 15.3562 12.5855 15.2578 12.6137C15.1547 12.6418 14.8875 12.6558 14.6672 12.6465C14.3109 12.6277 14.2125 12.6043 13.9078 12.4543C13.4812 12.2434 13.1297 11.8824 12.9187 11.4371C12.7828 11.1512 12.7734 11.0996 12.7734 10.5934C12.7734 10.0871 12.7828 10.0355 12.9234 9.74023C13.0078 9.55741 13.1766 9.31835 13.3312 9.15898C13.4766 9.00898 13.5937 8.88241 13.5937 8.87304C13.5937 8.84491 13.2891 8.70898 13.0172 8.61991C12.5766 8.4746 11.5828 8.45116 11.1094 8.57772Z" fill="#333333"/>
</svg>
