<svg width="31" height="31" viewBox="0 0 31 31" fill="none" xmlns="http://www.w3.org/2000/svg">
<path d="M18.7812 11.0684V9.66211H17.375C16.8777 9.66211 16.4008 9.85965 16.0492 10.2113C15.6975 10.5629 15.5 11.0398 15.5 11.5371V19.0371C15.5 19.5344 15.6975 20.0113 16.0492 20.3629C16.4008 20.7146 16.8777 20.9121 17.375 20.9121H18.7812V19.5059C18.7812 19.0086 18.9788 18.5317 19.3304 18.18C19.6821 17.8284 20.159 17.6309 20.6562 17.6309H25.3438C25.841 17.6309 26.3179 17.8284 26.6696 18.18C27.0212 18.5317 27.2188 19.0086 27.2188 19.5059V24.1934C27.2188 24.6906 27.0212 25.1676 26.6696 25.5192C26.3179 25.8708 25.841 26.0684 25.3438 26.0684H20.6562C20.159 26.0684 19.6821 25.8708 19.3304 25.5192C18.9788 25.1676 18.7812 24.6906 18.7812 24.1934V22.7871H17.375C16.3814 22.784 15.4294 22.3879 14.7268 21.6853C14.0242 20.9828 13.6281 20.0307 13.625 19.0371V16.2246H10.3438V17.1621C10.3438 17.6594 10.1462 18.1363 9.79457 18.4879C9.44294 18.8396 8.96603 19.0371 8.46875 19.0371H4.71875C4.22147 19.0371 3.74456 18.8396 3.39292 18.4879C3.04129 18.1363 2.84375 17.6594 2.84375 17.1621V13.4121C2.84375 12.9148 3.04129 12.4379 3.39292 12.0863C3.74456 11.7347 4.22147 11.5371 4.71875 11.5371H8.46875C8.96603 11.5371 9.44294 11.7347 9.79457 12.0863C10.1462 12.4379 10.3438 12.9148 10.3438 13.4121V14.3496H13.625V11.5371C13.6281 10.5435 14.0242 9.59147 14.7268 8.88887C15.4294 8.18628 16.3814 7.7902 17.375 7.78711H18.7812V6.38086C18.7812 5.88358 18.9788 5.40666 19.3304 5.05503C19.6821 4.7034 20.159 4.50586 20.6562 4.50586H25.3438C25.841 4.50586 26.3179 4.7034 26.6696 5.05503C27.0212 5.40666 27.2188 5.88358 27.2188 6.38086V11.0684C27.2188 11.5656 27.0212 12.0426 26.6696 12.3942C26.3179 12.7458 25.841 12.9434 25.3438 12.9434H20.6562C20.159 12.9434 19.6821 12.7458 19.3304 12.3942C18.9788 12.0426 18.7812 11.5656 18.7812 11.0684Z" fill="#333333"/>
</svg>
