<svg width="31" height="31" viewBox="0 0 31 31" fill="none" xmlns="http://www.w3.org/2000/svg">
<path d="M26.75 14.3495V24.662C26.75 25.1593 26.5525 25.6362 26.2008 25.9878C25.8492 26.3395 25.3723 26.537 24.875 26.537H6.125C5.62772 26.537 5.15081 26.3395 4.79917 25.9878C4.44754 25.6362 4.25 25.1593 4.25 24.662V5.91201C4.25 5.41473 4.44754 4.93782 4.79917 4.58619C5.15081 4.23456 5.62772 4.03701 6.125 4.03701H16.4375C16.6861 4.03701 16.9246 4.13578 17.1004 4.3116C17.2762 4.48741 17.375 4.72587 17.375 4.97451C17.375 5.22315 17.2762 5.46161 17.1004 5.63742C16.9246 5.81324 16.6861 5.91201 16.4375 5.91201H6.125V24.662H24.875V14.3495C24.875 14.1009 24.9738 13.8624 25.1496 13.6866C25.3254 13.5108 25.5639 13.412 25.8125 13.412C26.0611 13.412 26.2996 13.5108 26.4754 13.6866C26.6512 13.8624 26.75 14.1009 26.75 14.3495ZM27.418 8.45498L16.168 19.705C15.9894 19.8791 15.7494 19.9759 15.5 19.9745H11.75C11.5014 19.9745 11.2629 19.8757 11.0871 19.6999C10.9113 19.5241 10.8125 19.2857 10.8125 19.037V15.287C10.8111 15.0376 10.9079 14.7976 11.082 14.619L22.332 3.36904C22.5098 3.193 22.7498 3.09424 23 3.09424C23.2502 3.09424 23.4902 3.193 23.668 3.36904L27.418 7.11904C27.594 7.29679 27.6928 7.53684 27.6928 7.78701C27.6928 8.03718 27.594 8.27724 27.418 8.45498ZM25.4258 7.78701L23 5.36123L21.5117 6.84951L23.9375 9.27529L25.4258 7.78701Z" fill="#333333"/>
</svg>
