<svg width="31" height="31" viewBox="0 0 31 31" fill="none" xmlns="http://www.w3.org/2000/svg">
<path d="M27.5117 22.5293C28.2318 21.1853 28.6132 19.6859 28.6228 18.1611C28.6324 16.6364 28.27 15.1323 27.5669 13.7792C26.8638 12.4262 25.8414 11.2651 24.5881 10.3965C23.3349 9.528 21.8887 8.97824 20.375 8.79494C19.8766 7.63248 19.1481 6.5829 18.2334 5.70936C17.3187 4.83583 16.2367 4.15641 15.0526 3.71201C13.8684 3.26761 12.6066 3.06741 11.343 3.12347C10.0795 3.17953 8.84031 3.49069 7.70017 4.03821C6.56002 4.58574 5.54245 5.3583 4.70872 6.30941C3.87498 7.26051 3.24232 8.37049 2.84882 9.57252C2.45531 10.7745 2.30911 12.0438 2.419 13.3038C2.52889 14.5638 2.8926 15.7886 3.48824 16.9043L2.76168 19.4356C2.67747 19.7171 2.67101 20.0162 2.74298 20.3012C2.81494 20.5861 2.96266 20.8463 3.17048 21.0541C3.37829 21.2619 3.63846 21.4096 3.9234 21.4816C4.20835 21.5536 4.50746 21.5471 4.78903 21.4629L7.32028 20.7363C8.3483 21.2843 9.46862 21.6379 10.625 21.7793C11.1357 22.9764 11.8901 24.0539 12.8401 24.9435C13.7902 25.833 14.915 26.515 16.143 26.946C17.371 27.377 18.6753 27.5476 19.9729 27.4469C21.2704 27.3463 22.5328 26.9766 23.6797 26.3613L26.2109 27.0879C26.4925 27.1721 26.7916 27.1786 27.0765 27.1066C27.3615 27.0346 27.6216 26.8869 27.8294 26.6791C28.0373 26.4713 28.185 26.2111 28.257 25.9262C28.3289 25.6412 28.3225 25.3421 28.2382 25.0606L27.5117 22.5293ZM25.707 21.9317C25.6388 22.0383 25.5941 22.1583 25.5759 22.2836C25.5577 22.4089 25.5665 22.5366 25.6015 22.6582L26.3281 25.1778L23.8086 24.4512C23.6869 24.4161 23.5592 24.4074 23.4339 24.4256C23.3086 24.4438 23.1886 24.4885 23.082 24.5567C22.2229 25.0636 21.2716 25.3946 20.2834 25.5304C19.2952 25.6663 18.2899 25.6042 17.3259 25.348C16.3619 25.0917 15.4585 24.6463 14.6682 24.0377C13.8779 23.429 13.2166 22.6693 12.7226 21.8028C15.0267 21.5572 17.1589 20.4691 18.7097 18.7474C20.2605 17.0257 21.1207 14.7918 21.125 12.4746C21.1223 11.9127 21.0714 11.352 20.9726 10.7988C22.6173 11.187 24.0827 12.1191 25.1313 13.4443C26.1799 14.7694 26.7503 16.4098 26.75 18.0996C26.7484 19.4469 26.3884 20.7695 25.707 21.9317Z" fill="#333333"/>
</svg>
