<svg width="31" height="31" viewBox="0 0 31 31" fill="none" xmlns="http://www.w3.org/2000/svg"><path d="M21.605 1.75c-1.1.008-2.194.164-3.253.462l-.075.023a13.285 13.285 0 0 0-2.019-.189c-1.391-.023-2.587.304-3.55.85-.95-.32-2.92-.871-4.996-.761-1.447.076-3.024.503-4.193 1.7-1.166 1.197-1.782 3.05-1.652 5.571.035.696.238 1.83.578 3.3.338 1.469.815 3.188 1.41 4.756.593 1.57 1.244 2.98 2.262 3.938.507.48 1.206.884 2.03.85.578-.023 1.102-.269 1.553-.633.22.282.456.404.67.518.268.142.53.24.802.305a5.76 5.76 0 0 0 2.3.114 4.449 4.449 0 0 0 1.035-.309c.012.377.027.747.043 1.122.048 1.188.08 2.284.447 3.245.059.158.22.967.858 1.68.638.715 1.888 1.16 3.31.865 1.004-.208 2.282-.584 3.13-1.755.837-1.157 1.215-2.818 1.29-5.51a5.16 5.16 0 0 1 .066-.386l.2.018h.022c1.071.047 2.234-.1 3.205-.538.86-.387 1.51-.777 1.984-1.471.118-.171.248-.379.284-.738.035-.356-.175-.916-.527-1.173-.703-.518-1.145-.322-1.618-.225-.467.1-.942.155-1.42.166 1.366-2.23 2.345-4.6 2.903-6.698.33-1.237.517-2.378.531-3.376.015-.997-.068-1.881-.684-2.646-1.927-2.388-4.636-3.048-6.73-3.07-.066-.001-.13-.002-.195-.001V1.75Zm-.055.734c1.982-.019 4.514.521 6.332 2.775.409.506.53 1.246.516 2.159-.015.91-.189 2-.506 3.196-.616 2.315-1.782 5.012-3.423 7.435.059.04.122.073.188.099.342.137 1.122.255 2.681-.055.391-.082.679-.136.976.084a.598.598 0 0 1 .216.488.794.794 0 0 1-.153.385c-.3.439-.895.855-1.658 1.197-.674.305-1.641.464-2.498.474-.43.004-.827-.029-1.163-.13l-.023-.007c-.13 1.213-.428 3.612-.622 4.706-.156.883-.429 1.584-.95 2.109-.52.525-1.255.841-2.245 1.047-1.226.255-2.12-.02-2.696-.491-.575-.469-.839-1.092-.998-1.475-.108-.262-.165-.604-.22-1.06-.06-.546-.1-1.095-.121-1.644a57.114 57.114 0 0 1-.035-2.891 3.67 3.67 0 0 1-1.834.871c-.812.134-1.54.003-1.973-.102a2.743 2.743 0 0 1-.613-.232c-.203-.103-.394-.22-.521-.453a.626.626 0 0 1-.068-.438.7.7 0 0 1 .258-.378c.235-.185.543-.288 1.01-.383.85-.169 1.146-.285 1.326-.424.154-.119.327-.358.635-.712a1.444 1.444 0 0 1-.004-.047 3.58 3.58 0 0 1-1.571-.41c-.176.18-1.081 1.11-2.185 2.397-.464.538-.976.847-1.518.87-.54.022-1.03-.243-1.445-.633-.83-.782-1.493-2.128-2.07-3.65-.576-1.522-1.046-3.217-1.378-4.661-.335-1.444-.533-2.607-.56-3.169-.125-2.386.45-3.993 1.437-5.007.988-1.014 2.34-1.398 3.66-1.471 2.368-.133 4.617.668 5.072.84.876-.577 2.005-.937 3.416-.914a8.977 8.977 0 0 1 1.985.25l.023-.01c.287-.098.578-.18.873-.245a11.702 11.702 0 0 1 2.446-.288v-.002h.002Zm.18.767h-.172c-.676.01-1.35.083-2.012.22A8.81 8.81 0 0 1 22.91 6.05c.543.67.992 1.41 1.338 2.2.13.302.217.558.266.756.025.1.043.184.048.271a.49.49 0 0 1-.014.165l-.007.015c.036 1.004-.22 1.684-.252 2.642-.024.694.159 1.51.204 2.4.043.837-.061 1.756-.621 2.658.047.055.09.11.135.165 1.481-2.262 2.55-4.767 3.118-6.901.304-1.15.467-2.191.48-3.016.013-.825-.146-1.424-.348-1.673-1.585-1.966-3.729-2.467-5.528-2.481v.001Zm-5.657.294c-1.396.002-2.399.413-3.158 1.025-.783.634-1.308 1.5-1.653 2.389a9.875 9.875 0 0 0-.607 2.766l.017-.009c.421-.23.975-.458 1.567-.591.594-.133 1.233-.174 1.811.044.58.218 1.058.73 1.232 1.507.831 3.733-.259 5.12-.662 6.167-.152.379-.282.767-.39 1.16a1.36 1.36 0 0 1 .152-.03c.22-.011.438.032.637.126.405.162.683.502.833.892.038.103.067.213.083.325a.39.39 0 0 1 .024.146 61.397 61.397 0 0 0 .015 4.283c.028.617.068 1.16.119 1.589.05.427.122.752.169.862.15.368.371.848.771 1.174.4.325.971.543 2.017.325.908-.189 1.468-.45 1.843-.829.372-.376.596-.9.739-1.703.213-1.204.643-4.693.695-5.35-.023-.494.052-.875.215-1.165.168-.298.428-.48.652-.58.113-.05.218-.082.304-.106a6.911 6.911 0 0 0-.288-.372 5.08 5.08 0 0 1-.786-1.259 9.405 9.405 0 0 0-.303-.553c-.157-.276-.355-.62-.563-1.005-.416-.774-.869-1.712-1.104-2.625-.233-.912-.268-1.855.331-2.522.533-.591 1.465-.836 2.867-.698-.042-.12-.067-.22-.137-.38a8.904 8.904 0 0 0-1.228-2.022c-1.188-1.472-3.109-2.932-6.079-2.98h-.135v-.001Zm-7.845.059c-.15 0-.3.005-.45.012-1.193.067-2.32.403-3.126 1.233-.809.829-1.34 2.188-1.225 4.441.023.425.215 1.62.542 3.038.328 1.42.793 3.088 1.35 4.562.558 1.475 1.235 2.759 1.878 3.366.323.304.605.427.86.416.256-.012.563-.155.941-.593a48.91 48.91 0 0 1 2.138-2.346c-.521-.438-.922-1-1.166-1.634a3.895 3.895 0 0 1-.212-1.975c.121-.848.137-1.64.124-2.265-.015-.61-.06-1.015-.06-1.269v-.035a11.007 11.007 0 0 1 .699-3.869c.33-.852.822-1.718 1.56-2.42-.724-.231-2.012-.583-3.406-.65-.15-.008-.3-.012-.45-.012h.003Zm14.643 6.052c-.802.01-1.252.211-1.488.474-.335.372-.366 1.025-.159 1.83.206.805.634 1.706 1.037 2.454.2.375.395.712.552.985.159.275.275.47.345.637.065.153.137.288.21.414.31-.636.366-1.26.334-1.911-.042-.805-.234-1.629-.205-2.463.031-.975.23-1.611.247-2.365a7.048 7.048 0 0 0-.873-.055Zm-9.725.131c-.245.003-.49.031-.728.085a5.612 5.612 0 0 0-1.362.515 2.896 2.896 0 0 0-.413.262l-.025.022c.008.168.041.574.056 1.17.013.654-.002 1.488-.132 2.388-.283 1.96 1.182 3.582 2.905 3.585.1-.403.266-.81.431-1.24.48-1.254 1.424-2.168.629-5.737-.13-.583-.388-.82-.743-.953a1.788 1.788 0 0 0-.618-.097Zm9.35.234h.06c.077.003.15.011.212.025a.494.494 0 0 1 .162.064.192.192 0 0 1 .09.125v.01a.268.268 0 0 1-.043.155.766.766 0 0 1-.13.171.807.807 0 0 1-.455.244.713.713 0 0 1-.485-.119.71.71 0 0 1-.154-.135.293.293 0 0 1-.075-.145.187.187 0 0 1 .05-.147.45.45 0 0 1 .139-.103 1.57 1.57 0 0 1 .63-.147v.002h-.002Zm-9.235.193c.062 0 .128.006.196.015.18.025.341.071.463.14a.55.55 0 0 1 .158.121.27.27 0 0 1 .053.091c.01.034.014.069.01.104a.342.342 0 0 1-.088.176.762.762 0 0 1-.169.15.774.774 0 0 1-.53.129.868.868 0 0 1-.495-.261.816.816 0 0 1-.14-.188.312.312 0 0 1-.048-.202c.017-.125.123-.188.225-.225.117-.036.24-.051.362-.045l.003-.005Zm10.7 8.415h-.004c-.174.062-.317.087-.438.137a.528.528 0 0 0-.281.247c-.075.13-.137.364-.119.762a.614.614 0 0 0 .175.08c.201.06.54.1.919.094.752-.009 1.68-.179 2.172-.402.404-.182.78-.42 1.114-.704-1.646.33-2.575.242-3.146.013a1.559 1.559 0 0 1-.393-.229v.002Zm-9.485.107h-.026c-.062.005-.153.025-.328.215-.413.448-.555.728-.895.99-.338.263-.779.402-1.659.576a2.364 2.364 0 0 0-.545.166c.035.027.031.035.082.06.13.07.295.13.428.163.379.091 1 .199 1.649.091.647-.107 1.322-.408 1.897-1.19.1-.136.11-.336.029-.55-.084-.213-.264-.398-.391-.45a.789.789 0 0 0-.242-.068v-.003Z" fill="#333"/></svg>