<svg width="74" height="64" viewBox="0 0 74 64" fill="none" xmlns="http://www.w3.org/2000/svg"><rect width="74" height="64" rx="21" fill="#FEE7EA"/><g clip-path="url(#a)"><path d="M43.617 31.935c-1.463.157-2.268 2.48-2.333 2.674.034-.087.233-.462 1.254-.96 1.17-.574 3.506.652 3.506.652-1.077.898-3.057.98-4.675.814-1.62-.165-1.53-3.427-1.619-5.954-.088-2.527-.63-2.283-.63-2.283s.091-1.144-1.074 4.077c-1.165 5.22-7.463 6.524-7.463 6.524 3.506.492 6.023-1.06 6.919-2.69.902-1.633 1.527-5.059 1.527-5.059 0 4.897.452 6.118 1.802 6.688 1.35.57 3.956-.242 5.845-.896 1.201-.416 2.607-.243 2.607-.243l1.078-1.55s-1.53.08-2.606-.326c-1.08-.406-2.608-1.63-4.138-1.468Zm-11.509 3.02c.36-.814-.27-5.222-.27-6.366 0-1.14.45-1.793.45-1.793C31.66 26.47 31.212 25 31.212 25c-.185.407-.81 1.306-.81 1.306s1.798 8.08.627 9.054c-1.166.979-3.506 1.145-4.853.332-1.35-.818.087-3.431.087-3.431-.811.895-1.438 1.957-1.35 3.097.09 1.145.99 2.284 3.148 2.367 2.158.083 3.684-1.956 4.046-2.77Z" fill="#793D44"/><path d="M34.803 31.039c.989.652 1.53 2.693 1.53 2.693.539-4.569-3.866-5.874-3.866-5.874s-.091.243 0 1.465c.088 1.229 1.344 1.063 2.336 1.716Z" fill="#793D44"/><path d="M43.617 31.935c-1.463.157-2.268 2.48-2.333 2.674.034-.087.233-.462 1.254-.96 1.17-.574 3.506.652 3.506.652-1.077.898-3.057.98-4.675.814-1.62-.165-1.53-3.427-1.619-5.954-.088-2.527-.63-2.283-.63-2.283s.091-1.144-1.074 4.077c-1.165 5.22-7.463 6.524-7.463 6.524 3.506.492 6.023-1.06 6.919-2.69.902-1.633 1.527-5.059 1.527-5.059 0 4.897.452 6.118 1.802 6.688 1.35.57 3.956-.242 5.845-.896 1.201-.416 2.607-.243 2.607-.243l1.078-1.55s-1.53.08-2.606-.326c-1.08-.406-2.608-1.63-4.138-1.468Zm-11.509 3.02c.36-.814-.27-5.222-.27-6.366 0-1.14.45-1.793.45-1.793C31.66 26.47 31.212 25 31.212 25c-.185.407-.81 1.306-.81 1.306s1.798 8.08.627 9.054c-1.166.979-3.506 1.145-4.853.332-1.35-.818.087-3.431.087-3.431-.811.895-1.438 1.957-1.35 3.097.09 1.145.99 2.284 3.148 2.367 2.158.083 3.684-1.956 4.046-2.77Z" stroke="#793D44" stroke-width=".4"/><path d="M34.803 31.039c.989.652 1.53 2.693 1.53 2.693.539-4.569-3.866-5.874-3.866-5.874s-.091.243 0 1.465c.088 1.229 1.344 1.063 2.336 1.716Z" stroke="#793D44" stroke-width=".4"/><path d="M32.683 15.184c1.095-1.172 1.643-1.76 2.229-2.086a4.277 4.277 0 0 1 4.176 0c.586.327 1.134.914 2.23 2.086.495.53.74.794 1.016 1.006a4.278 4.278 0 0 0 2.074.86c.344.042.706.03 1.428.007 1.606-.054 2.407-.082 3.052.101a4.298 4.298 0 0 1 2.956 2.956c.18.641.155 1.444.1 3.049-.024.723-.036 1.084.007 1.429.097.756.395 1.472.86 2.074.213.275.476.521 1.005 1.015 1.172 1.097 1.76 1.645 2.086 2.23a4.291 4.291 0 0 1 0 4.177c-.327.586-.914 1.134-2.086 2.23-.53.495-.794.74-1.006 1.016a4.278 4.278 0 0 0-.86 2.074c-.042.344-.03.706-.007 1.428.055 1.606.082 2.407-.101 3.052a4.278 4.278 0 0 1-2.956 2.956c-.641.18-1.444.155-3.05.1-.722-.024-1.084-.036-1.428.007a4.295 4.295 0 0 0-2.074.86c-.275.213-.522.476-1.015 1.005-1.097 1.172-1.645 1.76-2.23 2.086a4.279 4.279 0 0 1-4.177 0c-.586-.327-1.134-.914-2.23-2.086-.495-.53-.74-.794-1.016-1.006a4.278 4.278 0 0 0-2.074-.86c-.345-.042-.706-.03-1.43-.007-1.604.055-2.405.082-3.05-.101a4.278 4.278 0 0 1-2.956-2.956c-.18-.641-.155-1.444-.099-3.05.023-.722.035-1.084-.008-1.428a4.278 4.278 0 0 0-.86-2.074c-.213-.275-.476-.522-1.005-1.015-1.172-1.097-1.76-1.645-2.086-2.23a4.278 4.278 0 0 1 0-4.177c.327-.586.914-1.134 2.087-2.23.528-.494.793-.74 1.005-1.016a4.278 4.278 0 0 0 .86-2.074c.042-.345.03-.706.007-1.43-.054-1.604-.082-2.405.101-3.05a4.278 4.278 0 0 1 2.956-2.956c.641-.18 1.444-.155 3.049-.099.723.023 1.084.035 1.429-.008a4.295 4.295 0 0 0 2.074-.86c.275-.213.524-.476 1.017-1.005Z" stroke="#793D44" stroke-width="1.8" stroke-linecap="round" stroke-linejoin="round"/></g><defs><clipPath id="a"><path fill="#fff" transform="translate(16 11)" d="M0 0h42v42H0z"/></clipPath></defs></svg>