<svg width="74" height="64" viewBox="0 0 74 64" fill="none" xmlns="http://www.w3.org/2000/svg"><rect width="74" height="64" rx="21" fill="#FEE7EA"/><path d="M49.127 19.639c-5.07-2.944-10.26.613-12.674 2.76-.762-.677-1.89-1.495-3.237-2.205 1.364 2.02 2.434 4.508 2.89 7.527 1.811.306 4.527 1.84 6.338 3.68 1.81 1.84 2.716 4.6 2.716 5.52 0 .92 0 3.68-6.337 1.84.603 3.68-.264 11.087-3.885 10.351.593.36 1.107.658 1.515.888 2.716-1.533 9.234-6.072 13.58-11.96 5.432-7.36 5.432-14.721-.906-18.401Z" fill="#FEE7EA"/><path d="M22.873 19.639c-6.338 3.68-6.338 11.04-.906 18.4 3.694 5.005 9.61 9.035 12.97 11.073 3.622.736 4.49-6.67 3.886-10.351 6.337 1.84 6.337-.92 6.337-1.84s-.905-3.68-2.716-5.52c-1.81-1.84-4.527-3.374-6.337-3.68-.457-3.02-1.527-5.507-2.891-7.527-2.96-4.383-7.305-6.564-9.784-7.194a15.88 15.88 0 0 0 .649 6.063 8.153 8.153 0 0 0-1.208.576Z" fill="#FEE7EA"/><path d="M36.453 50c2.716-1.533 9.234-6.072 13.58-11.96 5.432-7.36 5.432-14.721-.906-18.401-5.07-2.944-10.26.613-12.674 2.76-.762-.677-1.89-1.495-3.237-2.205M36.453 50c-2.716-1.533-10.14-6.072-14.486-11.96M36.453 50c-.408-.23-.922-.528-1.515-.888m-12.97-11.073c-5.433-7.36-5.433-14.72.905-18.4.397-.23.8-.421 1.208-.576m-2.114 18.976c3.694 5.005 9.61 9.035 12.97 11.073M18.132 29.561c2.113 0 7.112.736 10.733 3.68.302-.92 1.267-2.944 2.716-3.68-2.211-1.573-5.946-5.387-7.5-10.498m10.858 30.049c3.621.736 4.488-6.67 3.885-10.351 6.337 1.84 6.337-.92 6.337-1.84s-.905-3.68-2.716-5.52c-1.81-1.84-4.527-3.374-6.337-3.68-.457-3.02-1.527-5.507-2.891-7.527m-9.135-1.131a15.88 15.88 0 0 1-.65-6.063c2.479.63 6.824 2.811 9.784 7.194" stroke="#793D44" stroke-width="1.8" stroke-linecap="round" stroke-linejoin="round"/><path d="M40 33a1 1 0 1 1-2 0 1 1 0 0 1 2 0Z" fill="#793D44"/></svg>