<svg width="74" height="64" viewBox="0 0 74 64" fill="none" xmlns="http://www.w3.org/2000/svg"><rect width="74" height="64" rx="21" fill="#FFF3DD"/><path d="M24 42.579V15.42A2.421 2.421 0 0 1 26.421 13H47.58A2.421 2.421 0 0 1 50 15.421V42.58A2.421 2.421 0 0 1 47.579 45H26.42A2.421 2.421 0 0 1 24 42.579Z" fill="#FFF3DD"/><path d="M28.333 20.784h15.6m-15.6 5.189H39.6M50 15.421V42.58A2.421 2.421 0 0 1 47.579 45H26.42A2.421 2.421 0 0 1 24 42.579V15.42A2.421 2.421 0 0 1 26.421 13H47.58A2.421 2.421 0 0 1 50 15.421Z" stroke="#71592D" stroke-width="1.8" stroke-linecap="round" stroke-linejoin="round"/><path d="M28.757 47.243a6 6 0 1 1 8.485-8.486 6 6 0 0 1-8.485 8.486Z" fill="#FFF3DD" stroke="#FFF3DD" stroke-width="1.816" stroke-linecap="round" stroke-linejoin="round"/><path d="M36.682 45.671a4.505 4.505 0 0 1-6.364 0V52l3.182-2.316L36.682 52v-6.329Z" fill="#71592D"/><path d="M30.318 45.671a4.49 4.49 0 0 1 0-6.355 4.505 4.505 0 0 1 6.364 0 4.49 4.49 0 0 1 0 6.355m-6.364 0a4.505 4.505 0 0 0 6.364 0m-6.364 0V52l3.182-2.316L36.682 52v-6.329" stroke="#71592D" stroke-width="1.816" stroke-linecap="round" stroke-linejoin="round"/></svg>