<svg width="74" height="64" viewBox="0 0 74 64" fill="none" xmlns="http://www.w3.org/2000/svg"><rect width="74" height="64" rx="21" fill="#FFF3DD"/><path d="M31.333 16v13.535l-8.445 15.909C22.032 47.056 23.2 49 25.026 49h22.92c1.832 0 3-1.956 2.13-3.57l-8.564-15.895V16H31.333Z" fill="#FFF3DD" stroke="#71592D" stroke-width="1.8"/><path d="M42.76 24.035c2.705-2.76 3.38-5.173 3.38-6.035 1.128 1.15 3.55 5 4.226 7.759.845 3.448.845 6.034 0 8.62-.845 2.587-3.38 6.035-7.605 6.035a5.745 5.745 0 0 1-2.614-.615c-2.595-1.312-3.954-4.484-3.302-7.144.845-3.448 2.535-5.172 5.916-8.62Z" fill="#FFF3DD"/><path d="M47.026 27.647a.9.9 0 0 0-1.77-.328l1.77.328Zm-4.265 9.319.74.51-.74-.51Zm-7.254 5.281a.9.9 0 0 0 .986 1.506l-.986-1.506ZM46.14 18l.642-.63a.9.9 0 0 0-1.542.63h.9Zm-3.38 6.035-.643-.63.643.63Zm-5.916 8.62-.874-.214.874.214Zm13.521 1.724.856.28-.856-.28Zm0-8.62.874-.215-.874.215Zm-4.225 1.724-.885-.164v.003l-.003.011-.01.05c-.008.044-.02.11-.038.196a43.18 43.18 0 0 1-.786 3.187c-.563 1.953-1.376 4.204-2.4 5.689l1.483 1.021c1.198-1.739 2.075-4.23 2.646-6.211a44.927 44.927 0 0 0 .863-3.54l.01-.057.004-.015v-.006l-.884-.164Zm-4.121 8.972c-.606.879-1.507 1.808-2.474 2.674l1.201 1.34c1.011-.905 2.032-1.943 2.755-2.993l-1.483-1.021Zm-2.474 2.674a36.889 36.889 0 0 1-2.76 2.22 39.023 39.023 0 0 1-1.192.84l-.066.044-.017.011a.054.054 0 0 1-.004.003L36 43l.493.753h.001l.002-.002.005-.003.02-.014a12.628 12.628 0 0 0 .354-.239 41.4 41.4 0 0 0 3.872-3.025l-1.2-1.341ZM45.241 18c0 .555-.526 2.755-3.123 5.404l1.285 1.26c2.811-2.867 3.638-5.494 3.638-6.664h-1.8Zm-3.123 5.404c-3.359 3.427-5.235 5.315-6.147 9.037l1.748.428c.778-3.174 2.282-4.734 5.684-8.204l-1.285-1.26Zm-6.147 9.037c-.749 3.056.792 6.656 3.77 8.161l.812-1.606c-2.212-1.118-3.388-3.864-2.834-6.127l-1.748-.428Zm3.77 8.161a6.64 6.64 0 0 0 3.02.712v-1.8a4.845 4.845 0 0 1-2.208-.518l-.812 1.606Zm3.02.712c4.782 0 7.557-3.889 8.46-6.655l-1.71-.56c-.787 2.407-3.083 5.415-6.75 5.415v1.8Zm8.46-6.655c.912-2.788.892-5.552.02-9.115l-1.749.429c.817 3.334.798 5.742.019 8.127l1.71.559Zm.02-9.115c-.368-1.498-1.19-3.235-2.038-4.715-.843-1.474-1.776-2.802-2.42-3.459l-1.285 1.26c.483.493 1.325 1.664 2.144 3.093.814 1.422 1.541 2.99 1.85 4.25l1.748-.429Z" fill="#71592D"/></svg>