<svg width="74" height="64" viewBox="0 0 74 64" fill="none" xmlns="http://www.w3.org/2000/svg"><rect width="74" height="64" rx="21" fill="#EEF9DC"/><path d="M23.565 45.435c-7.42-7.42-7.42-19.45 0-26.87 7.42-7.42 19.45-7.42 26.87 0 7.42 7.42 7.42 19.45 0 26.87-7.42 7.42-19.45 7.42-26.87 0Z" fill="#EEF9DC"/><path d="M23.565 45.435c-7.42-7.42-7.42-19.45 0-26.87 7.42-7.42 19.45-7.42 26.87 0m-26.87 26.87c7.42 7.42 19.45 7.42 26.87 0 7.42-7.42 7.42-19.45 0-26.87m-26.87 26.87L37 32m13.435-13.435L45.31 23.69M37 32v-8.038M37 32l4.155-4.155 4.155-4.155m-8.31.271-4.385-2.922-4.384 2.922m8.769 0 4.385-2.922 3.925 2.651m-12.695 1.733-2.192 1.462M37 42.96v-2.92" stroke="#4D691E" stroke-width="1.8" stroke-linecap="round" stroke-linejoin="round"/><path fill-rule="evenodd" clip-rule="evenodd" d="m38.859 30.144-.468-.245a1.242 1.242 0 0 0-1.184.014l-4.495 2.53a1.18 1.18 0 0 0-.605.993l-.1 3.261 6.852-6.553Zm-4.927 9.738 2.891 1.517c.373.196.82.19 1.184-.014l4.496-2.53a1.18 1.18 0 0 0 .604-.993l.142-4.652a1.21 1.21 0 0 0-.654-1.104l-.344-.18-8.319 7.956Z" fill="#4D691E"/></svg>