<svg width="74" height="64" viewBox="0 0 74 64" fill="none" xmlns="http://www.w3.org/2000/svg"><rect width="74" height="64" rx="21" fill="#EEF9DC"/><path d="M23.565 45.435c-7.42-7.42-7.42-19.45 0-26.87 7.42-7.42 19.45-7.42 26.87 0 7.42 7.42 7.42 19.45 0 26.87-7.42 7.42-19.45 7.42-26.87 0Z" fill="#EEF9DC"/><path d="M23.565 45.435c-7.42-7.42-7.42-19.45 0-26.87 7.42-7.42 19.45-7.42 26.87 0m-26.87 26.87c7.42 7.42 19.45 7.42 26.87 0 7.42-7.42 7.42-19.45 0-26.87m-26.87 26.87 26.87-26.87" stroke="#4D691E" stroke-width="1.8" stroke-linecap="round" stroke-linejoin="round"/><path d="m31.834 27.839.418-.438c-.341-.326-.808-.562-1.349-.737a5.201 5.201 0 0 0-1.616-.27 5.89 5.89 0 0 0-1.546.208c-.604.164-1.113.53-1.531 1.051-.448.557-.663 1.223-.663 1.963 0 .569.08 1.084.283 1.507.185.385.442.726.766 1.023.318.292.671.525 1.06.695.385.168.775.314 1.17.436l.008.003a6.2 6.2 0 0 1 .849.306c.104.05.207.111.311.187a.222.222 0 0 1 .082.105.848.848 0 0 1 .047.306c0 .18-.042.303-.102.395a.38.38 0 0 1-.238.16c-.2.056-.41.085-.631.085a1.83 1.83 0 0 1-.845-.206 5.118 5.118 0 0 1-.762-.477c-.187-.147-.46-.309-.79-.288-.376.023-.622.263-.76.496v.001l-.453.772a1 1 0 0 0-.11.787c.072.263.242.464.414.612h.001c.435.372.905.65 1.412.824.516.182 1.145.26 1.863.26.523 0 1.052-.077 1.586-.228.626-.171 1.169-.546 1.63-1.08l.002-.001c.509-.593.746-1.328.746-2.159 0-.534-.076-1.025-.247-1.459-.157-.404-.37-.759-.656-1.034-.267-.257-.625-.488-1.045-.703l-.003-.001a8.144 8.144 0 0 0-.994-.416l-1.128-.41-.005-.003a2.39 2.39 0 0 1-.316-.139.604.604 0 0 1-.17-.161c-.016-.024-.047-.085-.047-.228 0-.117.031-.179.072-.225a.369.369 0 0 1 .193-.13 2.3 2.3 0 0 1 .506-.052c.219 0 .43.054.643.172l.003.001c.288.157.494.288.631.394.19.146.463.295.79.265.354-.033.592-.255.734-.474l.475-.723a.957.957 0 0 0 .125-.802 1.384 1.384 0 0 0-.396-.608l-.417.438Zm0 0c.247.235.308.448.182.639L27.9 32.286a3.217 3.217 0 0 1-.894-.586 2.75 2.75 0 0 1-.63-.838c-.148-.311-.223-.726-.223-1.245 0-.617.177-1.146.53-1.585.353-.44.758-.721 1.217-.846A5.286 5.286 0 0 1 29.287 27a4.6 4.6 0 0 1 1.43.24c.493.16.866.36 1.117.599Zm11.68 6.511c.138-.234.384-.474.76-.497.33-.02.603.14.79.289.181.142.432.302.762.476.273.139.552.206.845.206.222 0 .432-.03.632-.085a.38.38 0 0 0 .238-.16.696.696 0 0 0 .101-.395c0-.142-.02-.24-.047-.306a.222.222 0 0 0-.082-.105l.358-.488-.358.488a1.907 1.907 0 0 0-.311-.187 6.2 6.2 0 0 0-.85-.306l-.007-.003a11.07 11.07 0 0 1-1.17-.436 3.825 3.825 0 0 1-1.06-.695 3.354 3.354 0 0 1-.766-1.023l.546-.262-.546.262c-.203-.423-.283-.939-.283-1.507 0-.74.215-1.406.663-1.963.418-.52.927-.887 1.531-1.05a5.892 5.892 0 0 1 1.546-.208 5.2 5.2 0 0 1 1.616.269c.542.175 1.008.411 1.35.737.162.155.322.357.394.608a.957.957 0 0 1-.125.802l-.474.721-.001.002c-.142.219-.38.441-.733.474-.328.03-.601-.119-.79-.265a4.911 4.911 0 0 0-.632-.394l-.003-.001a1.306 1.306 0 0 0-.643-.171 2.3 2.3 0 0 0-.506.05.369.369 0 0 0-.193.131l-.45-.397.45.397c-.04.046-.072.108-.072.225 0 .143.031.204.047.228a.606.606 0 0 0 .17.161c.105.056.21.102.316.14l.005.002 1.129.41c.354.123.686.261.994.416l.002.001c.42.215.778.446 1.045.703.287.275.5.63.656 1.035.171.433.247.925.247 1.458 0 .831-.237 1.566-.746 2.159l-.002.002c-.461.533-1.004.908-1.63 1.079a5.815 5.815 0 0 1-1.585.228c-.719 0-1.348-.078-1.864-.26a4.342 4.342 0 0 1-1.412-.824 1.268 1.268 0 0 1-.416-.612 1 1 0 0 1 .111-.786l.453-.773Zm0 0-.452.772.452-.772Zm-8.666 1.924c0 .235.046.523.241.76a.98.98 0 0 0 .776.345h4.734c.238 0 .528-.058.755-.282.23-.225.292-.516.292-.756v-.786c0-.24-.062-.531-.292-.756-.227-.224-.517-.282-.755-.282h-2.823v-6.791c0-.22-.036-.492-.2-.724a.906.906 0 0 0-.758-.38h-.953a.98.98 0 0 0-.776.344c-.195.237-.241.525-.241.76v8.548Z" fill="#EEF9DC" stroke="#4D691E" stroke-width="1.211"/></svg>