<svg width="24" height="24" viewBox="0 0 24 24" fill="none" xmlns="http://www.w3.org/2000/svg"><path d="M20.568 6A3.432 3.432 0 0 1 24 9.432v4.536a3.432 3.432 0 0 1-3.432 3.432H12c0 .468.384 1.152.852 1.152H18v2.016A3.432 3.432 0 0 1 14.568 24H9.432A3.432 3.432 0 0 1 6 20.568v-4.5a3.421 3.421 0 0 1 3.432-3.42h6.3a3.421 3.421 0 0 0 3.42-3.432V6h1.416Zm-5.136 14.148c-.48 0-.864.36-.864 1.068 0 .708.384.852.864.852a.85.85 0 0 0 .852-.852c0-.708-.384-1.068-.852-1.068ZM3.432 18A3.431 3.431 0 0 1 0 14.568v-4.536A3.431 3.431 0 0 1 3.432 6.6H12c0-.468-.384-1.152-.852-1.152H6V3.432A3.431 3.431 0 0 1 9.432 0h5.136A3.431 3.431 0 0 1 18 3.432v4.5a3.421 3.421 0 0 1-3.432 3.42h-6.3a3.421 3.421 0 0 0-3.42 3.432V18H3.432ZM8.568 3.852c.48 0 .864-.36.864-1.068 0-.708-.384-.852-.864-.852-.468 0-.852.144-.852.852s.384 1.068.852 1.068Z" fill="#626262"/></svg>