<svg width="106" height="52" viewBox="0 0 106 52" fill="none" xmlns="http://www.w3.org/2000/svg">
<g clip-path="url(#clip0_105_479)">
<path d="M38.3439 30.4557V37.1713C34.1191 37.1713 31.0141 36.1735 29.0288 34.1779C26.0191 36.1678 22.4874 37.2103 18.8852 37.172C16.4671 37.2163 14.0654 36.7655 11.8261 35.8471C9.58691 34.9286 7.55705 33.5617 5.86011 31.8296C4.12267 30.1426 2.74995 28.1137 1.82769 25.8695C0.905436 23.6253 0.453462 21.214 0.5 18.7863C0.451377 16.3655 0.903292 13.9609 1.82714 11.7247C2.75098 9.48852 4.12663 7.46949 5.867 5.79543C7.57047 4.07593 9.60225 2.72043 11.8402 1.8104C14.0782 0.900375 16.4761 0.454616 18.8898 0.499923C21.3041 0.44234 23.705 0.877727 25.9471 1.77974C28.1892 2.68175 30.2259 4.03164 31.934 5.7477C33.6626 7.43702 35.0252 9.46728 35.9361 11.7111C36.847 13.9548 37.2867 16.3637 37.2275 18.7863C37.2867 22.6508 36.1073 26.4319 33.8636 29.5705C35.2805 30.1726 36.8058 30.474 38.3439 30.4557ZM18.8852 7.75584C17.4936 7.73166 16.1136 8.01333 14.8416 8.58115C13.5696 9.14898 12.4364 9.98925 11.5212 11.0432C9.57331 13.1438 8.50806 15.9196 8.54783 18.791C8.51387 21.6753 9.57718 24.4638 11.5204 26.5864C12.4524 27.6391 13.5962 28.4806 14.8761 29.0555C16.156 29.6303 17.5429 29.9253 18.9447 29.9209C20.3466 29.9164 21.7315 29.6127 23.0078 29.0297C24.2841 28.4468 25.4226 27.598 26.348 26.5395C28.2318 24.3906 29.2412 21.6073 29.1751 18.744C29.2378 15.8759 28.1993 13.0936 26.2752 10.9747C25.3523 9.9279 24.2123 9.09719 22.9355 8.54106C21.6587 7.98492 20.2762 7.71689 18.8852 7.75584Z" fill="white"/>
<path d="M67.7549 23.8348C67.7549 27.8244 66.6091 31.0433 64.3175 33.4914C62.0259 35.9395 58.912 37.1646 54.9756 37.1667C53.2618 37.2257 51.5535 36.9419 49.9498 36.3317C48.3461 35.7215 46.879 34.7971 45.6337 33.6122C44.4126 32.426 43.4536 30.9946 42.8192 29.4112C42.1848 27.8278 41.889 26.1279 41.9513 24.4221V1.18652H49.8996V23.5931C49.8996 27.8398 51.5586 29.9647 54.8768 29.9677C58.1628 29.9677 59.804 27.8429 59.8005 23.5931V1.18652H67.7487V23.8348H67.7549Z" fill="white"/>
<path d="M105.26 36.4847H96.5302L94.2874 30.1101H81.7065L79.3649 36.4847H70.7795L84.7778 1.18652H91.3125L105.26 36.4847ZM92.0959 23.5408L88.0957 10.8901L83.996 23.5408H92.0959Z" fill="white"/>
<path d="M49.589 51.0078C48.7309 51.3418 47.8175 51.5089 46.8973 51.5004C46.3029 51.5293 45.7088 51.4373 45.1505 51.2301C44.5922 51.0228 44.0813 50.7045 43.6482 50.2943C43.2174 49.8265 42.8832 49.2776 42.6647 48.6792C42.4463 48.0809 42.348 47.4449 42.3755 46.8081C42.3449 46.169 42.449 45.5306 42.681 44.9347C42.913 44.3388 43.2676 43.799 43.7217 43.3505C44.1757 42.902 44.7189 42.5551 45.3157 42.3323C45.9124 42.1096 46.5493 42.0162 47.1845 42.0581C47.9204 42.0411 48.6514 42.1823 49.3287 42.4722L49.1097 43.0072C48.4945 42.7205 47.8207 42.5839 47.1432 42.6085C44.6161 42.6085 43.0593 44.2703 43.0593 46.782C43.0593 49.3929 44.5771 50.9555 47.0076 50.9555C47.6661 51.0016 48.326 50.8884 48.932 50.6252V47.3593H46.8039V46.8243H49.589V51.0078Z" fill="white"/>
<path d="M54.2305 42.2784C54.8863 42.1483 55.5531 42.0833 56.2215 42.0844C56.6663 42.0404 57.1153 42.0858 57.5424 42.218C57.9696 42.3501 58.3663 42.5664 58.7095 42.8541C59.1315 43.2961 59.3623 43.8881 59.3512 44.5006C59.3613 45.048 59.1892 45.5831 58.8622 46.021C58.5352 46.4589 58.072 46.7744 57.5463 46.9175V46.9437C57.9372 47.1108 58.2757 47.3814 58.5256 47.7267C58.7755 48.0719 58.9275 48.4789 58.9653 48.9042C59.1039 49.7599 59.3329 50.5982 59.6483 51.4051H58.9806C58.716 50.6751 58.5186 49.9222 58.3909 49.1559C58.1038 47.8243 57.5302 47.2216 56.3149 47.1639H54.8807V51.4051H54.2236V42.2784H54.2305ZM54.8875 46.625H56.3479C57.7668 46.625 58.6949 45.8284 58.6949 44.6068C58.6949 43.1913 57.6573 42.6147 56.207 42.6147C55.7621 42.6071 55.3178 42.6492 54.8822 42.7402V46.625H54.8875Z" fill="white"/>
<path d="M64.9692 48.166L63.8374 51.4058H63.1697L66.5023 42.1521H67.1279L70.4452 51.4058H69.7775L68.6143 48.166H64.9692ZM68.4152 47.6157L67.2941 44.5275C67.0751 43.8825 66.9549 43.416 66.814 42.8918H66.7879C66.6524 43.4268 66.5008 43.9086 66.3078 44.4959L65.176 47.6103H68.4152V47.6157Z" fill="white"/>
<path d="M74.5974 51.4066V42.1529H75.21L78.7885 47.618C79.4191 48.5557 79.9989 49.527 80.5252 50.5275L80.5513 50.5122C80.4571 49.2644 80.4418 48.203 80.4418 46.7636V42.1475H81.0674V51.4012H80.4678L76.9575 46.0223C76.3087 45.0571 75.7116 44.0579 75.1687 43.0288L75.1427 43.0442C75.2108 44.1819 75.2261 45.1833 75.2261 46.7243V51.4058L74.5974 51.4066Z" fill="white"/>
<path d="M86.6868 42.1528V51.4066H86.0298V42.1528H86.6868Z" fill="white"/>
<path d="M93.394 42.7032H90.3898V42.1528H97.052V42.7032H94.0479V51.4066H93.3909L93.394 42.7032Z" fill="white"/>
<path d="M105.061 46.8082H101.386V50.8554H105.496V51.4058H100.733V42.1528H105.28V42.7032H101.39V46.2555H105.065L105.061 46.8082Z" fill="white"/>
<path fill-rule="evenodd" clip-rule="evenodd" d="M33.1712 29.5864C33.1712 29.5864 30.1617 33.5397 28.7374 33.298C25.6291 32.7684 22.2437 22.424 22.2437 22.424C22.2437 22.424 22.9949 21.8575 23.1412 22.0514C25.7052 25.4691 29.1841 28.0826 33.1712 29.5864Z" fill="white"/>
</g>
<defs>
<clipPath id="clip0_105_479">
<rect width="105" height="51" fill="white" transform="translate(0.5 0.5)"/>
</clipPath>
</defs>
</svg>
