<svg width="24" height="24" viewBox="0 0 24 24" fill="none" xmlns="http://www.w3.org/2000/svg"><path d="M21.587 12.45a15.53 15.53 0 0 0-.5-.483c.122-.115.241-.23.356-.344 2.166-2.165 3.08-4.336 2.233-5.642-.812-1.251-3.228-1.624-6.253-1.101-.298.052-.595.11-.89.176a13.521 13.521 0 0 0-.18-.516C15.329 1.788 13.67 0 11.977 0 10.35 0 8.78 1.677 7.779 4.269c-.098.256-.19.514-.273.774a18.08 18.08 0 0 0-.594-.12C3.721 4.341 1.15 4.724.305 6.031c-.811 1.252.037 3.3 2.061 5.366.201.205.408.405.62.6-.25.229-.487.458-.708.686C.303 14.72-.497 16.734.313 17.98c.836 1.288 3.37 1.71 6.455 1.17.25-.044.498-.094.746-.15.09.282.19.56.298.837C8.809 22.378 10.37 24 11.989 24c1.672 0 3.348-1.743 4.363-4.39.08-.21.157-.427.229-.65.319.07.64.133.964.188 2.972.5 5.331.106 6.14-1.142.834-1.289-.027-3.45-2.098-5.555ZM1.303 6.543c.52-.804 2.622-1.117 5.377-.614.176.032.355.068.538.108a22.061 22.061 0 0 0-.569 3.213 27.852 27.852 0 0 0-2.838 2.032 15.164 15.164 0 0 1-.576-.558c-1.734-1.77-2.42-3.426-1.932-4.18Zm5.243 6.874A24.95 24.95 0 0 1 4.636 12a25.645 25.645 0 0 1 1.909-1.412 26.72 26.72 0 0 0 .001 2.829Zm0 4.729a10.95 10.95 0 0 1-3.561.111 2.607 2.607 0 0 1-.93-.24 2.343 2.343 0 0 1-.744-.547c-.491-.757.15-2.374 1.84-4.117.212-.218.432-.43.658-.638a27.298 27.298 0 0 0 2.842 2.04c.111 1.095.303 2.183.575 3.255-.225.05-.452.095-.68.136Zm9.578-9.648a41.448 41.448 0 0 0-2.759-1.41c.8-.3 1.586-.555 2.345-.763.18.718.317 1.443.414 2.173ZM8.87 4.602c.858-2.221 2.128-3.576 3.107-3.577 1.043 0 2.398 1.462 3.284 3.837.058.155.112.31.163.468-1.164.32-2.303.71-3.409 1.165a29.17 29.17 0 0 0-3.398-1.178c.078-.24.162-.478.253-.715Zm-.54 1.709c.792.222 1.57.479 2.333.77A35.23 35.23 0 0 0 7.901 8.5c.108-.766.252-1.5.428-2.188Zm-.426 9.193a34.902 34.902 0 0 0 2.786 1.426c-.768.301-1.554.567-2.353.797a20.675 20.675 0 0 1-.433-2.223Zm7.359 3.774a8.413 8.413 0 0 1-1.67 2.8 2.285 2.285 0 0 1-.697.596 2.571 2.571 0 0 1-.906.3c-.983.001-2.236-1.302-3.09-3.474-.1-.257-.192-.516-.277-.778a29.182 29.182 0 0 0 3.412-1.211 30.22 30.22 0 0 0 3.436 1.174c-.064.2-.133.397-.208.593Zm.488-1.589a28.025 28.025 0 0 1-2.377-.774c.458-.215.919-.44 1.383-.679.476-.245.94-.495 1.392-.752-.09.74-.223 1.476-.398 2.205Zm.602-5.691c.001.729-.024 1.457-.076 2.184-.665.4-1.367.791-2.097 1.166a39.51 39.51 0 0 1-2.153 1.027 34.33 34.33 0 0 1-4.272-2.187 25.65 25.65 0 0 1-.002-4.372 33.447 33.447 0 0 1 4.26-2.187c.734.317 1.455.658 2.163 1.02a38.8 38.8 0 0 1 2.09 1.15c.058.732.087 1.465.087 2.199Zm1.29-6.111c2.593-.449 4.547-.147 5.036.607.522.804-.226 2.578-2.096 4.448-.103.103-.21.206-.321.31a26.836 26.836 0 0 0-2.892-2.025 21.6 21.6 0 0 0-.547-3.179c.279-.06.553-.115.82-.161Zm-.174 4.661c.684.445 1.342.92 1.97 1.426-.625.513-1.281.997-1.964 1.45a32.348 32.348 0 0 0-.006-2.876Zm5.217 6.947c-.49.757-2.384 1.073-4.926.645-.291-.049-.59-.107-.897-.175.256-1.06.43-2.136.523-3.218a26.599 26.599 0 0 0 2.883-2.059c.158.147.31.293.452.438a8.606 8.606 0 0 1 1.893 2.686 1.912 1.912 0 0 1 .072 1.683Zm-11.895-7.37a2.268 2.268 0 0 0-.956.909c-.21.38-.29.807-.228 1.227.062.42.263.815.577 1.134.314.318.728.547 1.188.657.46.11.947.095 1.398-.041a2.42 2.42 0 0 0 1.137-.725c.29-.336.461-.742.492-1.165a1.955 1.955 0 0 0-.317-1.211c-.32-.492-.846-.851-1.463-.999a2.673 2.673 0 0 0-1.828.215Z" fill="#626262"/></svg>