<svg width="24" height="24" viewBox="0 0 24 24" fill="none" xmlns="http://www.w3.org/2000/svg"><path d="M16.633 16.75c.87-.079 1.543-.886 1.5-1.85-.047-.965-.797-1.738-1.707-1.738h-.063c-.941.032-1.68.87-1.648 1.866.03.507.226.914.496 1.215-1.051 2.15-2.622 3.729-5.008 5.058-1.602.882-3.294 1.216-4.942.977-1.38-.201-2.457-.852-3.117-1.895-.99-1.582-1.08-3.283-.255-4.992.601-1.232 1.5-2.135 2.098-2.576a11.205 11.205 0 0 1-.418-1.627C-.87 14.538-.416 19.123.932 21.287c1.005 1.582 3.055 2.591 5.301 2.591.602 0 1.231-.045 1.845-.206 3.9-.791 6.849-3.255 8.54-6.887l.015-.034Zm5.348-3.95c-2.32-2.876-5.739-4.458-9.633-4.458h-.513c-.25-.581-.836-.947-1.496-.947h-.043c-.945 0-1.68.857-1.65 1.85.033.947.794 1.738 1.708 1.738h.075a1.703 1.703 0 0 0 1.5-1.108h.555c2.31 0 4.493.712 6.49 2.101 1.523 1.058 2.62 2.451 3.234 4.11.539 1.356.508 2.687-.048 3.795-.85 1.734-2.293 2.652-4.191 2.652-1.2 0-2.367-.396-2.97-.68-.359.314-.96.836-1.395 1.154 1.321.63 2.653.993 3.943.993 2.922 0 5.094-1.735 5.918-3.41.898-1.896.825-5.089-1.469-7.824l-.015.034ZM6.487 17.318c.033.947.793 1.738 1.711 1.738h.06c.96-.033 1.691-.87 1.648-1.866 0-.948-.778-1.74-1.692-1.74h-.063a.57.57 0 0 0-.226.035C6.683 13.273 6.16 10.9 6.354 8.34c.118-1.927.72-3.6 1.797-4.992.9-1.183 2.59-1.772 3.747-1.8 3.235-.067 4.587 4.188 4.689 5.878l1.5.474C17.739 2.718 14.684 0 11.762 0 9.02 0 6.487 2.1 5.468 5.182c-1.391 4.112-.477 8.058 1.23 11.222-.148.202-.238.569-.21.914Z" fill="#626262"/></svg>