<svg width="32" height="24" viewBox="0 0 32 24" fill="none" xmlns="http://www.w3.org/2000/svg"><g clip-path="url(#a)"><path d="M27.539 13.794a6.62 6.62 0 0 0-2.898.672c-.298-.59-.596-1.116-.648-1.502-.059-.45-.129-.725-.059-1.263.07-.537.386-1.303.38-1.361-.006-.059-.07-.334-.713-.34-.642-.005-1.197.123-1.261.293-.065.17-.187.555-.27.953-.11.584-1.284 2.67-1.956 3.764-.216-.427-.403-.801-.444-1.1-.058-.45-.129-.724-.058-1.262.07-.537.385-1.303.38-1.361-.007-.059-.07-.334-.713-.34-.643-.005-1.198.123-1.262.293-.064.17-.134.567-.269.953-.134.385-1.694 3.869-2.103 4.77-.21.46-.391.83-.52 1.08 0 0-.005.018-.023.047-.111.216-.175.333-.175.333v.006c-.088.158-.181.304-.228.304-.035 0-.1-.42.011-.994.234-1.21.79-3.092.783-3.156 0-.035.105-.362-.362-.532-.456-.17-.62.111-.66.111-.04 0-.07.1-.07.1s.508-2.116-.97-2.116c-.923 0-2.196 1.01-2.827 1.923-.397.216-1.244.678-2.15 1.175-.344.193-.7.385-1.034.567-.023-.024-.046-.053-.07-.076-1.787-1.912-5.094-3.262-4.953-5.828.052-.935.373-3.39 6.35-6.371 4.918-2.426 8.832-1.754 9.51-.263.97 2.127-2.098 6.079-7.18 6.652-1.94.216-2.956-.532-3.213-.813-.268-.292-.31-.31-.409-.251-.163.087-.058.35 0 .502.152.398.777 1.1 1.835 1.444.934.304 3.207.474 5.958-.59 3.079-1.193 5.485-4.507 4.778-7.283C19.32.116 14.646-.813 10.224.759c-2.628.936-5.48 2.409-7.53 4.326C.26 7.365-.127 9.345.031 10.175c.566 2.947 4.626 4.864 6.25 6.284-.082.047-.158.088-.222.123-.812.403-3.908 2.023-4.679 3.735-.876 1.94.14 3.332.812 3.519 2.086.579 4.23-.462 5.38-2.18 1.151-1.719 1.01-3.952.48-4.974-.007-.012-.012-.024-.024-.036.21-.122.426-.25.637-.374.414-.245.823-.473 1.174-.66-.199.543-.345 1.192-.415 2.127-.088 1.1.362 2.526.952 3.087.263.245.573.251.771.251.69 0 1-.573 1.344-1.25.42-.83.8-1.795.8-1.795s-.473 2.607.812 2.607c.467 0 .94-.608 1.15-.918v.006l.036-.059.076-.122v-.012a50.66 50.66 0 0 0 1.232-2.303c.806-1.59 1.583-3.577 1.583-3.577s.07.485.31 1.291c.14.474.432.994.666 1.497a9.852 9.852 0 0 1-.304.409l.006.006c-.152.199-.315.415-.497.625-.636.76-1.396 1.631-1.5 1.882-.123.299-.094.515.14.69.169.129.473.146.782.129a3.544 3.544 0 0 0 1.174-.27c.31-.11.672-.28 1.01-.531.626-.462 1.006-1.122.97-1.993-.017-.48-.175-.959-.367-1.409.058-.082.11-.164.169-.245.987-1.444 1.752-3.028 1.752-3.028s.07.485.31 1.292c.117.409.356.853.567 1.285-.93.755-1.502 1.631-1.706 2.204-.368 1.064-.082 1.543.462 1.654.245.053.595-.064.852-.175a3.887 3.887 0 0 0 1.081-.555c.625-.462 1.227-1.105 1.192-1.976a3.737 3.737 0 0 0-.269-1.169c.789-.327 1.805-.508 3.102-.356 2.78.327 3.33 2.063 3.224 2.793-.105.731-.689 1.128-.882 1.251-.192.123-.257.164-.24.252.024.128.118.122.281.099.228-.04 1.46-.59 1.513-1.935.088-1.718-1.548-3.594-4.44-3.577ZM6.089 21.03c-.924 1.006-2.209 1.386-2.764 1.064-.595-.345-.362-1.83.771-2.893.69-.649 1.578-1.251 2.168-1.62.134-.081.333-.198.572-.344a.976.976 0 0 1 .064-.035l.14-.088c.415 1.52.018 2.858-.952 3.916Zm6.717-4.57c-.321.783-.993 2.787-1.402 2.677-.35-.094-.566-1.614-.07-3.116.251-.754.783-1.654 1.093-2.005.502-.561 1.057-.748 1.191-.52.17.298-.613 2.472-.812 2.963Zm5.544 2.653c-.135.07-.263.117-.322.082-.04-.023.059-.117.059-.117s.695-.748.97-1.087c.157-.199.344-.433.543-.696v.076c0 .895-.865 1.497-1.25 1.742Zm4.276-.976c-.1-.07-.082-.304.251-1.035.129-.286.432-.765.952-1.227.059.187.1.368.094.538-.006 1.128-.812 1.549-1.297 1.724Z" fill="#626262"/></g><defs><clipPath id="a"><path fill="#fff" d="M0 0h32v24H0z"/></clipPath></defs></svg>