<svg width="166" height="166" viewBox="0 0 166 166" fill="none" xmlns="http://www.w3.org/2000/svg"><path d="M75.47 150.346c.135-.721.125-1.345-.029-1.871a3.047 3.047 0 0 0-.77-1.327 4.352 4.352 0 0 0-1.371-.882 8.968 8.968 0 0 0-1.784-.485 5.259 5.259 0 0 0-1.23-.046 4.29 4.29 0 0 0-1.286.29 3.255 3.255 0 0 0-1.097.727c-.312.326-.512.745-.598 1.257-.067.395-.033.752.102 1.073.122.318.31.6.567.846.242.244.525.454.846.63.32.19.637.352.953.486l3.005 1.3c.39.174.768.374 1.136.598.354.223.654.49.899.802.244.312.427.674.546 1.086.106.41.113.892.02 1.444-.059.342-.192.731-.402 1.169a3.44 3.44 0 0 1-.95 1.178c-.437.345-.994.603-1.672.772-.68.182-1.513.19-2.499.023a7.175 7.175 0 0 1-1.945-.614 4.975 4.975 0 0 1-1.516-1.108 4.038 4.038 0 0 1-.89-1.571c-.198-.588-.236-1.244-.113-1.967l1.34.227c-.064.544-.019 1.032.138 1.464a2.9 2.9 0 0 0 .678 1.149 3.39 3.39 0 0 0 1.1.815c.422.221.883.373 1.382.458.46.078.916.101 1.368.069a3.234 3.234 0 0 0 1.204-.283c.351-.157.655-.396.912-.718.258-.321.431-.745.52-1.271a2.25 2.25 0 0 0-.01-.894 1.981 1.981 0 0 0-.37-.691 2.502 2.502 0 0 0-.6-.528 5.598 5.598 0 0 0-.786-.397l-3.287-1.429a8.864 8.864 0 0 1-1.317-.73 4.177 4.177 0 0 1-1.043-.907c-.295-.334-.5-.72-.615-1.159-.129-.441-.144-.951-.046-1.529.027-.158.082-.365.166-.621.071-.258.198-.528.38-.808.168-.269.395-.535.683-.797.275-.264.637-.487 1.087-.668.434-.17.96-.277 1.576-.321.618-.058 1.341-.016 2.17.124.828.14 1.581.362 2.26.667.676.317 1.231.715 1.664 1.194a4 4 0 0 1 .906 1.716c.158.662.144 1.424-.042 2.285l-1.34-.227Zm-27.02-2.932a4.325 4.325 0 0 0-.051 1.578c.062.511.216.982.46 1.414.233.426.537.804.915 1.135.36.337.777.613 1.251.826.863.389 1.679.558 2.447.509a4.877 4.877 0 0 0 2.122-.624 6.305 6.305 0 0 0 1.697-1.429 8.995 8.995 0 0 0 1.887-4.195 6.573 6.573 0 0 0-.047-2.237 4.979 4.979 0 0 0-.95-1.984c-.471-.607-1.14-1.105-2.003-1.494-.608-.273-1.204-.41-1.789-.41s-1.138.109-1.66.327a5.066 5.066 0 0 0-1.448.927 6.186 6.186 0 0 0-1.158 1.453l-1.24-.558c.446-.764.96-1.403 1.541-1.916a5.849 5.849 0 0 1 1.87-1.133 5.234 5.234 0 0 1 2.109-.3c.73.035 1.477.226 2.243.571 1.021.459 1.84 1.046 2.453 1.761a6.263 6.263 0 0 1 1.242 2.358c.232.85.292 1.74.181 2.669a9.365 9.365 0 0 1-.774 2.744c-.405.9-.918 1.7-1.54 2.4a6.95 6.95 0 0 1-2.117 1.635 5.959 5.959 0 0 1-2.588.634c-.948.026-1.933-.19-2.954-.65a6.6 6.6 0 0 1-1.682-1.086 5.508 5.508 0 0 1-1.236-1.543 4.877 4.877 0 0 1-.613-1.855c-.093-.671-.029-1.366.192-2.085l1.24.558Zm-7.26-7.588-3.934-3.213a3.84 3.84 0 0 0-1.028-.607 3.118 3.118 0 0 0-1.114-.186c-.368.009-.72.092-1.055.249a2.603 2.603 0 0 0-.947.75c-.557.682-.799 1.379-.727 2.092.072.713.511 1.398 1.317 2.056l3.935 3.213 3.553-4.354Zm-3.233 6.113-5.066-4.137a6.076 6.076 0 0 1-1.147-1.22 3.818 3.818 0 0 1-.639-1.4 2.992 2.992 0 0 1 .006-1.493c.109-.513.366-1.018.77-1.513.574-.703 1.252-1.165 2.035-1.386.783-.221 1.59-.113 2.42.324l.026-.031c-.32-.347-.539-.689-.659-1.028a2.138 2.138 0 0 1-.143-.995 2.59 2.59 0 0 1 .295-1.025 6.28 6.28 0 0 1 .606-1.028c.142-.194.317-.43.526-.707.209-.277.411-.567.608-.871a7.88 7.88 0 0 0 .493-.889c.122-.297.18-.558.176-.785l1.162.948a2.01 2.01 0 0 1-.148.499 9.75 9.75 0 0 1-.302.528c-.125.173-.245.342-.361.505-.116.164-.216.306-.298.428-.3.41-.58.827-.84 1.251-.28.426-.463.852-.553 1.278-.108.428-.094.853.044 1.275.127.414.446.813.96 1.197l3.996 3.263 4.009-4.911 1.053.86-9.03 11.063Zm-9.051-18.097a8.986 8.986 0 0 0 1.69-1.588 6.563 6.563 0 0 0 1.078-1.96c.22-.7.276-1.431.17-2.193-.105-.762-.434-1.527-.988-2.295-.553-.768-1.17-1.318-1.852-1.648a4.77 4.77 0 0 0-2.123-.517 6.022 6.022 0 0 0-2.2.402 8.468 8.468 0 0 0-2.053 1.085 8.349 8.349 0 0 0-1.678 1.604 5.803 5.803 0 0 0-1.062 1.949 4.697 4.697 0 0 0-.198 2.188c.098.752.423 1.511.976 2.28.554.768 1.175 1.322 1.865 1.664.69.341 1.406.515 2.15.521a6.332 6.332 0 0 0 2.184-.39 8.878 8.878 0 0 0 2.041-1.102Zm.795 1.104a9.366 9.366 0 0 1-2.534 1.308 6.926 6.926 0 0 1-2.65.357 5.934 5.934 0 0 1-2.559-.745c-.834-.451-1.578-1.13-2.233-2.039-.654-.909-1.06-1.825-1.215-2.748a5.941 5.941 0 0 1 .103-2.663 6.925 6.925 0 0 1 1.178-2.402 9.364 9.364 0 0 1 2.043-1.989 9.366 9.366 0 0 1 2.533-1.308 6.927 6.927 0 0 1 2.651-.358c.88.057 1.732.306 2.558.745.816.448 1.55 1.126 2.205 2.035.655.909 1.07 1.826 1.244 2.753.155.923.12 1.81-.103 2.662a6.926 6.926 0 0 1-1.179 2.402 9.368 9.368 0 0 1-2.042 1.99Zm-17.036-13.817-.508-1.262 12.171-4.9-2.987-7.421 1.076-.434 3.495 8.684-13.247 5.333ZM7.43 99.395l-.228-1.34 12.936-2.193-1.337-7.887 1.144-.194 1.564 9.228-14.08 2.386Zm-.956-28.073 1.053-4.826c.515-2.112 1.463-3.577 2.842-4.395 1.37-.834 3.213-.998 5.532-.492 2.319.505 3.933 1.424 4.844 2.755.9 1.316 1.145 3.041.734 5.176l-1.053 4.826-13.952-3.044Zm13.109 1.468.618-2.833c.218-1.003.302-1.886.25-2.648-.063-.778-.277-1.452-.644-2.023-.367-.572-.897-1.049-1.591-1.433-.695-.383-1.563-.688-2.605-.916-1.042-.227-1.959-.311-2.75-.252-.79.06-1.471.273-2.042.64-.572.366-1.041.892-1.409 1.576-.377.668-.676 1.503-.894 2.507l-.618 2.833 11.685 2.55ZM18.51 55.058a9.003 9.003 0 0 0 2.18.788 6.567 6.567 0 0 0 2.236.074 4.976 4.976 0 0 0 2.032-.841c.632-.44 1.165-1.08 1.599-1.92.434-.842.644-1.641.63-2.399a4.784 4.784 0 0 0-.5-2.126 6.014 6.014 0 0 0-1.355-1.78 8.47 8.47 0 0 0-1.896-1.34 8.33 8.33 0 0 0-2.19-.77 5.795 5.795 0 0 0-2.218-.065 4.7 4.7 0 0 0-2.041.814c-.626.427-1.156 1.062-1.59 1.903-.434.841-.647 1.646-.64 2.416.009.77.178 1.487.51 2.153a6.32 6.32 0 0 0 1.336 1.77 8.85 8.85 0 0 0 1.906 1.323Zm-.625 1.208a9.377 9.377 0 0 1-2.313-1.667 6.932 6.932 0 0 1-1.519-2.202 5.94 5.94 0 0 1-.494-2.619c.025-.948.293-1.92.807-2.914.514-.996 1.147-1.772 1.9-2.328a5.938 5.938 0 0 1 2.42-1.114 6.928 6.928 0 0 1 2.675-.037 9.37 9.37 0 0 1 2.698.92 9.378 9.378 0 0 1 2.313 1.668 6.931 6.931 0 0 1 1.52 2.202c.347.81.511 1.683.493 2.619-.03.93-.301 1.892-.815 2.887-.514.996-1.144 1.78-1.89 2.355a6.256 6.256 0 0 1-2.421 1.114 6.93 6.93 0 0 1-2.675.037 9.375 9.375 0 0 1-2.699-.92Zm3.735-20.99 1.02-1.046 11.215 6.398.028-.029-6.529-11.213 1.186-1.219 11.397 6.212.028-.028-6.682-11.056.948-.975 7.484 12.785-1.005 1.032-11.681-6.321-.028.028 6.646 11.495-1.033 1.061-12.993-7.124Zm19.378-17.365 1.332-.733 13.114 6.566.035-.019-5.827-10.581 1.191-.657 6.889 12.509-1.331.733-13.115-6.566-.035.019 5.827 10.581-1.191.657-6.889-12.509Zm31.952 2.89-.312-2.097 1.661-.247.312 2.097-1.661.247Zm19.378-4.963c-.155.717-.162 1.34-.022 1.87.14.531.384.98.733 1.348.362.37.811.677 1.348.918a8.97 8.97 0 0 0 1.77.533c.367.072.776.098 1.228.079.452-.02.884-.104 1.294-.255a3.26 3.26 0 0 0 1.116-.697c.32-.317.531-.73.632-1.24.077-.393.053-.752-.074-1.075a2.304 2.304 0 0 0-.543-.862 3.674 3.674 0 0 0-.83-.653 8.133 8.133 0 0 0-.939-.511l-2.969-1.38a10.023 10.023 0 0 1-1.12-.63 3.48 3.48 0 0 1-.876-.824 3.168 3.168 0 0 1-.517-1.101c-.095-.413-.089-.894.02-1.444.067-.34.21-.726.432-1.158a3.45 3.45 0 0 1 .98-1.152c.447-.333 1.011-.575 1.693-.726.685-.164 1.518-.15 2.499.044a7.185 7.185 0 0 1 1.928.666 4.97 4.97 0 0 1 1.485 1.149c.399.46.682.99.848 1.594.182.593.202 1.25.06 1.969l-1.334-.263c.08-.542.047-1.03-.098-1.467a2.912 2.912 0 0 0-.646-1.167 3.408 3.408 0 0 0-1.078-.844 4.65 4.65 0 0 0-1.37-.495 5.753 5.753 0 0 0-1.365-.106c-.437.009-.84.092-1.211.25a2.432 2.432 0 0 0-.932.693c-.266.315-.45.734-.553 1.257a2.251 2.251 0 0 0-.014.894c.072.259.189.493.351.701.163.21.358.39.586.544.241.156.5.295.774.418l3.248 1.517a8.9 8.9 0 0 1 1.296.765c.409.27.749.582 1.019.935.286.341.48.733.584 1.175.116.444.117.954.004 1.53a4.532 4.532 0 0 1-.183.616 2.88 2.88 0 0 1-.402.797 3.832 3.832 0 0 1-.703.779c-.282.257-.65.47-1.105.638-.439.158-.967.251-1.584.279-.62.04-1.341-.02-2.165-.182a9.3 9.3 0 0 1-2.242-.728c-.668-.335-1.211-.748-1.631-1.239a4.008 4.008 0 0 1-.86-1.74c-.14-.666-.106-1.427.104-2.282l1.334.263Zm26.93 3.658a4.33 4.33 0 0 0 .094-1.576 3.786 3.786 0 0 0-.422-1.425 4.143 4.143 0 0 0-.884-1.16 4.528 4.528 0 0 0-1.229-.86c-.852-.411-1.663-.603-2.432-.574a4.884 4.884 0 0 0-2.138.566 6.298 6.298 0 0 0-1.734 1.384 9 9 0 0 0-2 4.143 6.592 6.592 0 0 0-.014 2.236c.142.72.44 1.39.896 2.01.456.62 1.11 1.135 1.963 1.547.6.29 1.192.442 1.777.458a4.262 4.262 0 0 0 1.669-.283 5.07 5.07 0 0 0 1.472-.888c.46-.4.859-.873 1.197-1.42l1.225.59c-.467.753-.998 1.377-1.593 1.875a5.857 5.857 0 0 1-1.899 1.081 5.25 5.25 0 0 1-2.117.244c-.728-.055-1.471-.265-2.227-.63-1.009-.488-1.81-1.097-2.405-1.828a6.273 6.273 0 0 1-1.178-2.39 6.928 6.928 0 0 1-.109-2.674 9.397 9.397 0 0 1 .848-2.722 9.387 9.387 0 0 1 1.604-2.357 6.934 6.934 0 0 1 2.161-1.577 5.935 5.935 0 0 1 2.604-.564c.948-.001 1.926.242 2.935.729a6.597 6.597 0 0 1 1.652 1.13c.502.465.9.99 1.194 1.577.312.58.5 1.203.563 1.87.075.673-.008 1.366-.249 2.08l-1.224-.592Zm7.053 7.781 3.847 3.317c.313.27.65.482 1.011.635.37.142.74.214 1.108.216.369 0 .723-.073 1.062-.22.357-.15.68-.392.967-.725.575-.666.836-1.357.783-2.072-.053-.714-.473-1.411-1.261-2.09l-3.847-3.318-3.67 4.257Zm3.398-6.024 4.952 4.271c.444.384.816.8 1.114 1.251.308.46.508.932.601 1.417.111.483.096.98-.046 1.492-.123.51-.393 1.008-.811 1.492-.592.687-1.283 1.13-2.071 1.33-.789.2-1.593.071-2.411-.388l-.026.03c.309.355.52.704.63 1.045.119.332.158.665.116.999a2.583 2.583 0 0 1-.322 1.016 6.19 6.19 0 0 1-.634 1.011c-.146.191-.328.422-.544.693-.216.271-.427.556-.632.855-.196.289-.368.58-.516.875-.13.293-.196.553-.198.78l-1.136-.98a2.05 2.05 0 0 1 .162-.493c.101-.178.206-.351.316-.52.13-.17.254-.336.375-.496.12-.16.223-.3.309-.42.311-.4.602-.81.874-1.227.29-.419.486-.84.587-1.263.12-.425.116-.85-.01-1.276-.115-.417-.424-.824-.927-1.222l-3.907-3.37-4.14 4.802-1.03-.888 9.325-10.816Zm8.559 18.334a8.986 8.986 0 0 0-1.732 1.542 6.58 6.58 0 0 0-1.131 1.93 4.999 4.999 0 0 0-.229 2.188c.085.765.394 1.538.926 2.321.533.783 1.135 1.349 1.808 1.697.68.36 1.383.551 2.108.574a6.004 6.004 0 0 0 2.209-.343 8.461 8.461 0 0 0 2.082-1.029 8.364 8.364 0 0 0 1.722-1.558 5.801 5.801 0 0 0 1.113-1.92 4.7 4.7 0 0 0 .257-2.182c-.077-.754-.382-1.522-.915-2.305-.532-.783-1.138-1.354-1.819-1.713a4.881 4.881 0 0 0-2.135-.58 6.315 6.315 0 0 0-2.193.332c-.73.255-1.42.603-2.071 1.046Zm-.765-1.125a9.377 9.377 0 0 1 2.568-1.239 6.928 6.928 0 0 1 2.66-.286 5.939 5.939 0 0 1 2.537.814c.822.473 1.547 1.173 2.177 2.099.63.926 1.011 1.852 1.141 2.78a5.94 5.94 0 0 1-.174 2.658 6.946 6.946 0 0 1-1.243 2.37 9.366 9.366 0 0 1-2.095 1.934 9.383 9.383 0 0 1-2.568 1.239 6.928 6.928 0 0 1-2.66.286 6.26 6.26 0 0 1-2.537-.814c-.803-.47-1.519-1.167-2.149-2.093-.63-.927-1.02-1.855-1.169-2.785a6.257 6.257 0 0 1 .175-2.66 6.927 6.927 0 0 1 1.242-2.369 9.385 9.385 0 0 1 2.095-1.934Zm16.658 14.271.474 1.275-12.298 4.57 2.786 7.5-1.088.404-3.259-8.774 13.385-4.975Zm4.811 15.869.191 1.346-12.99 1.843 1.123 7.921-1.148.163-1.315-9.267 14.139-2.006Zm.199 28.088-1.183 4.797c-.572 2.097-1.558 3.536-2.959 4.317-1.391.797-3.239.911-5.543.343-2.304-.568-3.894-1.53-4.768-2.885-.865-1.34-1.063-3.071-.594-5.194l1.182-4.796 13.865 3.418Zm-13.064-1.82-.694 2.816c-.246.996-.353 1.876-.322 2.64.042.779.238 1.459.589 2.04s.869 1.072 1.553 1.474c.683.402 1.543.731 2.578.986 1.036.256 1.95.364 2.742.326.792-.038 1.479-.233 2.06-.584s1.064-.863 1.45-1.537c.395-.658.716-1.485.962-2.482l.694-2.816-11.612-2.863Zm.595 17.755a8.98 8.98 0 0 0-2.159-.847 6.557 6.557 0 0 0-2.232-.134 4.968 4.968 0 0 0-2.054.786c-.644.422-1.194 1.048-1.65 1.877-.457.829-.689 1.623-.695 2.38-.013.77.135 1.483.443 2.14.313.674.748 1.28 1.306 1.815a8.468 8.468 0 0 0 1.86 1.39c.689.38 1.412.657 2.169.83.75.185 1.489.227 2.215.124a4.699 4.699 0 0 0 2.062-.759c.637-.41 1.184-1.03 1.64-1.859.457-.829.692-1.629.705-2.398a4.9 4.9 0 0 0-.451-2.166 6.318 6.318 0 0 0-1.289-1.806 8.838 8.838 0 0 0-1.87-1.373Zm.657-1.191a9.373 9.373 0 0 1 2.267 1.728 6.934 6.934 0 0 1 1.459 2.243 5.94 5.94 0 0 1 .423 2.631c-.049.947-.344 1.911-.885 2.892-.54.981-1.194 1.739-1.961 2.276a5.937 5.937 0 0 1-2.45 1.048 6.953 6.953 0 0 1-2.675-.035 9.383 9.383 0 0 1-2.672-.993 9.376 9.376 0 0 1-2.267-1.729 6.927 6.927 0 0 1-1.46-2.243 6.263 6.263 0 0 1-.423-2.63c.055-.929.353-1.884.893-2.865.54-.981 1.192-1.749 1.954-2.303a6.235 6.235 0 0 1 2.449-1.048 6.913 6.913 0 0 1 2.675.035 9.389 9.389 0 0 1 2.673.993Zm-4.3 20.882-1.046 1.018-11.039-6.698-.029.028 6.225 11.386-1.218 1.186-11.226-6.517-.029.028 6.382 11.232-.974.949-7.137-12.982 1.032-1.005 11.507 6.634.029-.028-6.334-11.67 1.06-1.032 12.797 7.471Zm-19.837 16.837-1.351.697-12.933-6.917-.036.018 5.541 10.734-1.209.624-6.549-12.689 1.35-.697 12.934 6.917.035-.018-5.54-10.735 1.208-.624 6.55 12.69Zm-31.862-3.75.255 2.105-1.668.202-.255-2.104 1.668-.203Z" fill="#fff"/></svg>