<svg width="24" height="24" viewBox="0 0 24 24" fill="none" xmlns="http://www.w3.org/2000/svg"><path d="M23.663 22.816c.45-.844.45-1.691 0-2.534L13.94 1.183C13.496.34 12.747 0 12 0c-.747 0-1.497.508-1.941 1.183L6.914 7.44l.75.503c2.395 1.523 4.336 3.717 5.684 6.424 1.195 2.367 1.941 4.9 2.093 7.606h-2.246a16.416 16.416 0 0 0-1.793-6.422c-1.047-2.367-2.691-4.226-4.785-5.581l-.75-.503-2.988 5.748.747.503c1.944 1.35 3.288 3.55 3.59 6.088H2.282c-.148 0-.301-.172-.301-.172s-.148-.168 0-.335l1.348-2.707a3.483 3.483 0 0 0-1.644-1.01l-1.348 2.7c-.45.848-.45 1.691 0 2.539.45.843 1.047 1.179 1.94 1.179h6.88v-1.01c0-1.86-.445-3.55-1.195-5.241-.598-1.35-1.496-2.367-2.539-3.21L6.47 12.34c1.343 1.184 2.543 2.534 3.437 4.225 1.047 2.027 1.496 4.225 1.496 6.425V24h5.832v-1.01c0-3.383-.75-6.765-2.394-9.806-1.194-2.707-3.14-4.9-5.382-6.592L11.7 2.2c.153-.167.301-.167.301-.167.148 0 .148 0 .3.167l9.72 19.095c.147.167 0 .34 0 .34s-.15.168-.301.168h-2.242v2.031h2.242c.898.167 1.496-.173 1.945-1.016l-.002-.001Z" fill="#626262"/></svg>