<svg width="1462" height="571" viewBox="0 0 1462 571" fill="none" xmlns="http://www.w3.org/2000/svg">
<path d="M1462 502.923H0V618.192H1462V502.923Z" fill="#C6D9FA"/>
<g style="mix-blend-mode:multiply" opacity="0.6">
<path d="M232.219 532.19C261.14 532.279 329.462 528.876 358.073 529.071C437.29 529.613 528.487 540.666 634.307 536.125C646.245 535.613 658.982 535.066 670.19 536.01C681.398 536.956 699.073 539.691 691.889 541.788C684.591 543.916 642.468 545.703 630.438 545.681C497.809 545.444 384.641 545.193 231.295 543.884C165.019 543.318 157.127 536.938 180.11 534.844C194.236 533.558 217.792 532.141 232.219 532.185V532.19Z" fill="#E7EFFC"/>
</g>
<g style="mix-blend-mode:multiply" opacity="0.6">
<path d="M756.072 529.997C775.432 530.125 790.78 530.532 809.917 531.446C949.31 538.118 957.892 534.757 1028.72 530.359C1036.71 529.864 1230.97 525.096 1242.79 536.302C1247.84 541.082 1094.45 548.082 980.731 545.434C887.611 543.265 849.675 546.451 755.931 540.976C747.686 540.496 736.542 540.767 728.516 540.013C723.203 539.515 717.367 538.313 714.94 536.519C710.969 533.582 718.101 533.493 727.028 532.899C736.522 532.269 746.414 529.93 756.072 529.994V529.997Z" fill="#E7EFFC"/>
</g>
<path d="M376.506 380.612H364.254V452.902H376.506V380.612Z" fill="#A1C2F9"/>
<path d="M380.195 437.275H360.561V522.258H380.195V437.275Z" fill="#A1C2F9"/>
<path d="M459.571 347.424C459.571 347.424 397.342 358.135 332.433 353.449C332.433 353.449 315.539 350.408 288.238 352.01C290.961 349.467 292.299 345.542 291.279 341.597C285.206 318.093 272.351 265.32 269.174 228.126C269.031 226.443 267.982 224.967 267.007 223.588L263.045 217.97L265.483 209.257C265.946 207.604 266.14 205.889 266.056 204.174C265.556 193.695 263.961 153.017 267.48 119.209C267.48 119.209 270.74 104.526 258.511 99.633C246.281 94.7396 192.472 94.7395 189.211 98.8174C189.211 98.8174 179.427 168.969 187.581 228.518C195.735 288.065 219.524 344.743 219.524 344.743C219.524 344.743 225.531 359.764 244.281 358.133L250.064 357.622C249.845 361.456 249.579 377.529 260.161 382.235C272.206 387.592 396.667 388.93 450.198 380.227C450.198 380.227 470.271 377.549 468.934 361.481C468.934 361.481 474.288 346.751 459.566 347.422L459.571 347.424Z" fill="#A1C2F9"/>
<mask id="mask0_185_9405" style="mask-type:luminance" maskUnits="userSpaceOnUse" x="184" y="95" width="286" height="292">
<path d="M459.569 347.424C459.569 347.424 397.34 358.135 332.431 353.448C332.431 353.448 315.537 350.408 288.236 352.009C290.959 349.466 292.297 345.541 291.277 341.596C285.204 318.093 272.349 265.319 269.172 228.126C269.029 226.443 267.98 224.967 267.005 223.587L263.043 217.969L265.481 209.257C265.944 207.603 266.138 205.889 266.054 204.174C265.554 193.694 263.959 153.017 267.478 119.209C267.478 119.209 270.738 104.526 258.509 99.6325C246.279 94.7391 192.47 94.7391 189.209 98.8169C189.209 98.8169 179.425 168.968 187.579 228.518C195.733 288.064 219.522 344.743 219.522 344.743C219.522 344.743 225.529 359.763 244.279 358.132L250.062 357.622C249.843 361.456 249.577 377.528 260.159 382.235C272.204 387.591 396.665 388.929 450.196 380.226C450.196 380.226 470.27 377.548 468.932 361.481C468.932 361.481 474.286 346.751 459.564 347.421L459.569 347.424Z" fill="white"/>
</mask>
<g mask="url(#mask0_185_9405)">
<g style="mix-blend-mode:multiply">
<path d="M183.659 96.0646C188.761 95.1283 194.211 94.261 199.343 95.4807C201.821 96.0695 203.833 96.826 205.15 98.9647C206.315 100.859 207.177 102.929 207.803 105.061C209.064 109.355 209.398 113.869 209.485 118.322C209.94 141.732 204.547 165.043 205.936 188.416C206.332 195.084 207.244 202.013 204.87 208.254C204.077 210.341 202.907 212.536 203.53 214.68C203.998 216.289 205.372 217.435 206.483 218.689C210.347 223.055 211.265 229.207 212.139 234.973C215.846 259.391 221.727 283.476 229.691 306.852C232.277 314.441 235.124 322.247 234.478 330.237C234.372 331.565 234.225 332.679 234.397 333.975C234.493 334.687 234.587 335.399 234.685 336.111C234.88 337.536 235.077 338.957 235.276 340.379C235.663 343.124 236.202 346.12 238.318 347.907C239.731 349.099 241.615 349.535 243.428 349.887C260.947 353.283 279.324 352.162 296.299 346.66C298.22 346.036 300.131 345.364 302.106 344.92C304.825 344.309 307.512 344.469 310.28 344.558C317.431 344.79 324.556 345.861 331.456 347.751C334.906 348.697 338.297 349.846 341.61 351.196C343.265 351.871 344.9 352.598 346.513 353.372C347.35 353.776 348.183 354.192 349.008 354.623C349.498 354.879 350.552 355.739 351.086 355.744C335.869 355.653 320.655 355.525 305.438 355.414C297.437 355.358 279.095 355.291 277.922 355.402C273.184 355.848 260.593 359.002 255.968 361.83C246.565 367.579 249.21 378.733 254.401 379.076C297.71 381.926 366.498 379.945 409.841 377.676C411.991 377.563 414.345 377.075 416.485 377.501C417.177 377.639 417.771 377.841 418.49 377.883C420.588 378.011 422.745 377.868 424.841 377.77C429.074 377.57 433.295 377.124 437.474 376.437C441.824 375.722 446.128 374.744 450.357 373.507C448.803 363.454 443.961 353.938 436.75 346.771C452.484 349.168 468.221 351.565 483.955 353.96C485.376 360.241 486.804 366.647 486.221 373.059C485.74 378.341 483.514 385.571 478.397 388.21C476.658 389.106 474.673 389.412 472.789 389.856C471.536 390.151 470.292 390.481 469.071 390.885C463.276 392.812 457.688 394.628 451.625 395.653C432.362 398.908 412.742 399.28 393.208 399.568C347.178 400.251 300.65 400.473 255.763 390.245C242.819 387.295 229.799 383.358 219.01 375.619C207.803 367.581 199.831 356.018 193.246 344.082C191.037 340.078 188.773 336.013 186.909 331.834C186.217 330.284 186.025 328.794 185.784 327.14C185.646 326.192 185.407 325.282 185.094 324.376C183.272 319.11 181.302 313.956 179.79 308.582C165.462 257.686 165.917 203.944 166.994 151.08C167.422 130.038 167.956 108.793 173.03 88.3672" fill="#C6D9FA"/>
</g>
</g>
<path d="M887.058 341.757C887.058 341.757 872.877 363.667 892.451 372.944C892.451 372.944 1052.65 390.251 1103.8 371.33C1103.8 371.33 1114.61 362.992 1107.83 342.046C1107.83 342.046 1163.06 299.685 1190 126.752C1190 126.752 1203.55 62.6813 1201.09 46.6631C1201.09 46.6631 1201.7 31.8768 1177.69 31.2609C1153.67 30.6449 1102.57 38.6527 1102.57 38.6527C1102.57 38.6527 1088.41 41.1167 1086.56 55.903C1084.71 70.6892 1073.63 167.41 1073.63 167.41L1008.97 341.139L887.058 341.755V341.757Z" fill="#A1C2F9"/>
<mask id="mask1_185_9405" style="mask-type:luminance" maskUnits="userSpaceOnUse" x="882" y="31" width="320" height="350">
<path d="M887.058 341.757C887.058 341.757 872.877 363.667 892.451 372.943C892.451 372.943 1052.65 390.25 1103.8 371.329C1103.8 371.329 1114.61 362.991 1107.83 342.045C1107.83 342.045 1163.06 299.685 1190 126.751C1190 126.751 1203.55 62.6809 1201.09 46.6626C1201.09 46.6626 1201.7 31.8764 1177.69 31.2604C1153.67 30.6444 1102.57 38.6523 1102.57 38.6523C1102.57 38.6523 1088.41 41.1162 1086.56 55.9025C1084.71 70.6887 1073.63 167.409 1073.63 167.409L1008.97 341.138L887.058 341.754V341.757Z" fill="white"/>
</mask>
<g mask="url(#mask1_185_9405)">
<g style="mix-blend-mode:multiply">
<path d="M1072.39 63.4085C1073.01 53.8261 1084.73 49.7704 1094.22 48.3265C1108.41 46.1656 1122.69 44.5641 1137.01 43.5267C1140.43 43.2803 1166.73 37.7881 1169.5 50.2509C1170.87 56.4231 1168.39 62.4377 1166.92 68.5902C1164.88 77.187 1167.78 86.7841 1174.24 92.8085C1170.2 94.5481 1166.04 96.3665 1163 99.5524C1158.16 104.631 1157.08 112.136 1156.43 119.124C1155.69 127.173 1155.19 135.248 1154.93 143.33C1154.81 147.425 1154.74 151.525 1154.74 155.622C1154.75 170.32 1156.54 185.128 1155.2 199.848C1152.57 229.002 1138.01 255.842 1120.43 279.235C1114.29 287.393 1107.57 301.841 1103.46 311.185C1099.36 320.531 1087.93 333.462 1106.68 340.233C1087.1 334.447 1052.1 346.732 1009.86 349.334" fill="#C6D9FA"/>
</g>
<g style="mix-blend-mode:multiply">
<path d="M993.327 341.383C993.327 341.383 977.007 343.98 971.505 362.588C970.217 366.944 973.251 371.384 977.78 371.742C988.342 372.577 1009.11 373.654 1037.24 372.422C1089.71 370.128 1113.86 364.554 1113.86 364.554L1109.01 390.938H874.441L866.807 329.142L993.327 341.381V341.383Z" fill="#C6D9FA"/>
</g>
</g>
<path d="M1172.44 207.301C1172.03 203.839 1171.55 200.385 1170.99 196.942C1170.14 191.726 1169.13 186.54 1167.94 181.392C1167.36 178.882 1166.94 176.144 1166.03 173.732C1165.88 173.328 1165.66 173.047 1165.42 172.697C1164.78 171.756 1164.42 170.664 1163.98 169.617C1161.54 163.738 1159.33 157.76 1157.36 151.704C1152.26 135.972 1148.33 118.872 1136.58 107.229C1126.76 97.4968 1112.88 93.1184 1099.3 90.5386C1085.72 87.9588 1071.76 86.8082 1058.78 82.0478C1056.16 81.0868 1053.52 79.9017 1051.42 78.0217C1050.37 77.0854 1049.61 76.0111 1048.91 74.8037C1048.07 73.3574 1048.05 71.6203 1047.89 69.9595C1047.47 65.7486 1047.58 61.4835 1048.24 57.2997C1048.6 54.9589 1049.57 52.7906 1049.88 50.4351C1050.37 46.7687 1051.35 43.4695 1053.04 40.1702C1055.28 35.8164 1058.15 31.7681 1059.88 27.1826C1061.6 22.5972 1062.01 17.1592 1059.39 13.0222C1060.63 11.7804 1061.65 10.3267 1062.4 8.74481C1057.41 4.93798 1052.13 1.00303 1045.92 0.135711C1042.04 -0.403897 1037.79 0.67532 1034.77 3.20088C1033.25 4.47229 1032.4 5.95066 1031.64 7.73704C1031.03 9.1686 1029.53 9.93245 1028.47 11.093C1024.92 14.9836 1022.3 20.254 1021.64 25.5047C1020.13 37.5535 1016.38 45.8226 1016.57 48.9419C1016.81 53.106 1017.91 56.5778 1020.85 59.5296C1022.68 61.3628 1025.39 63.5261 1026.37 65.9236C1026.94 67.333 1026.92 68.9099 1026.82 70.4277C1026.59 73.8871 1026.03 77.3244 1025.14 80.6754C1024.33 83.7307 1022.31 87.1876 1019.4 88.7152C1015.6 90.7061 1004.14 94.2198 1001.74 94.7742C991.207 97.2061 979.561 101.02 970.227 106.554C966.105 108.999 962.214 111.817 958.557 114.912C951.521 120.865 945.381 127.799 939.717 135.05C933.927 142.462 928.606 150.226 923.188 157.911C921.217 160.705 919.235 163.492 917.213 166.249C913.667 171.086 910 175.839 906.067 180.367C904.713 181.93 902.866 183.578 901.161 184.743C899.162 186.108 896.657 186.727 894.251 186.51C891.52 186.264 888.954 185.039 886.843 183.322C885.834 182.499 885.139 181.54 884.295 180.597C883.061 179.217 881.482 178.061 880.177 176.733C878.97 175.506 877.803 174.237 876.665 172.946C874.385 170.356 872.218 167.671 870.055 164.985C868.083 162.536 866.108 160.086 864.135 157.637C856.24 147.841 848.344 138.044 840.449 128.247C838.479 125.8 826.867 111.805 825.998 110.694C825.094 109.538 824.139 108.425 823.134 107.353C819.14 103.092 814.389 99.5419 809.161 96.9449C807.878 96.3067 804.523 94.5154 803.093 94.4341C801.662 94.3528 802.061 95.9248 802.748 97.7605C799.448 96.7182 794.55 95.7129 791.09 95.772C790.58 95.7819 790.004 95.8337 789.681 96.2279C789.092 96.9498 789.851 97.9773 790.582 98.5563C793.52 100.88 796.993 102.178 800 104.413C801.167 105.281 802.275 106.574 803.199 107.695C818.955 126.806 820.223 143.255 823.124 152.5C829.308 172.197 838.213 191.036 849.507 208.316C854.171 215.452 859.365 222.447 866.31 227.385C877.012 234.993 891.052 236.933 903.979 234.636C916.905 232.34 928.854 226.143 939.675 218.704C950.679 211.137 960.743 202.208 969.567 192.18C970.099 196.942 970.501 201.718 970.774 206.503C971.343 216.469 971.348 226.468 970.791 236.435C970.646 239.037 970.599 241.713 969.72 244.199C968.996 246.246 967.481 249.351 965.642 250.682C963.115 252.507 958.83 252.603 955.86 253.077C947.654 254.385 939.328 254.925 931.021 254.686C922.835 254.449 914.689 253.458 906.513 253.005C905.378 252.941 904.245 252.889 903.109 252.847C886.89 252.246 870.597 253.774 854.77 257.352C850.812 258.246 846.884 259.268 842.993 260.417C839.636 261.407 836.272 262.918 832.761 263.196C826.99 263.649 822.233 266.922 817.406 270.019C803.42 278.99 791.607 291.524 784.411 306.579C779.119 317.645 776.198 329.669 773.314 341.592C766.586 369.395 759.855 397.199 753.127 425.002C750.239 436.943 747.34 448.898 743.592 460.606C741.725 466.439 739.647 472.207 737.263 477.847C734.571 484.209 733.31 490.578 730.124 496.773C734.527 498.401 738.928 500.032 743.331 501.661C744.057 501.93 744.845 502.25 745.217 502.932C745.638 503.709 745.37 504.665 745.074 505.497C743.784 509.115 742.353 512.732 740.304 515.996C739.45 517.359 738.425 518.613 737.494 519.919C737.056 520.533 736.396 520.875 735.77 521.272C734.909 521.821 734.049 522.368 733.187 522.918C729.744 525.113 726.302 527.306 722.859 529.501C722.632 529.647 722.378 529.837 722.381 530.105C722.381 530.275 722.487 530.425 722.593 530.558C726.186 535.161 732.882 535.925 738.664 535.122C744.446 534.318 750.16 532.33 755.972 532.867C757.693 533.025 759.481 533.399 761.111 532.825C764.035 531.8 764.99 528.432 765.384 525.675C765.596 524.197 765.084 522.817 764.995 521.336C764.877 519.387 764.732 517.413 765.015 515.469C765.133 514.666 765.325 513.872 765.616 513.116C766.515 510.783 768.298 508.92 770.002 507.087C774.723 502.006 779.148 496.654 783.253 491.066C785.327 488.245 787.319 485.362 789.225 482.425C790.947 479.771 792.417 476.844 794.56 474.498C795.926 473 797.537 471.788 798.667 470.078C800.551 467.227 801.647 463.77 802.97 460.636C805.935 453.601 808.885 446.562 811.825 439.515C814.029 434.23 816.226 428.942 818.413 423.654C818.218 424.256 819.75 426.914 820.043 427.498C820.706 428.814 821.376 430.127 822.048 431.438C823.343 433.959 824.656 436.469 825.988 438.968C828.653 443.97 831.389 448.93 834.199 453.85C839.819 463.691 845.729 473.365 851.918 482.859C854.888 487.414 857.924 491.928 861.022 496.401C864.413 496.134 867.814 495.977 871.215 495.927C872.198 495.913 873.254 495.93 874.05 496.509C874.801 497.053 875.153 497.985 875.436 498.867C878.007 506.875 878.044 515.646 875.707 523.714C875.126 525.724 874.404 527.71 873.515 529.607C872.806 531.123 871.664 532.621 871.235 534.249C870.139 538.409 876.187 537.793 878.648 537.122C882.1 536.181 885.184 534.006 887.681 531.495C890.119 529.043 892.195 526.266 894.468 523.667C895.246 522.777 895.832 521.656 896.734 520.892C897.945 519.862 899.108 518.906 900.073 517.623C900.57 516.96 901.036 516.139 900.814 515.341C900.691 514.897 900.376 514.54 900.08 514.19C898.457 512.266 897.165 510.007 896.687 507.535C896.209 505.064 896.608 502.366 898.083 500.326C898.642 499.552 899.344 498.882 899.868 498.083C901.139 496.147 901.184 493.752 900.844 491.534C900.669 490.391 900.465 489.129 900.051 488.045C898.317 483.492 897.724 478.549 896.78 473.771C894.172 460.574 893.352 442.265 889.732 429.228C887.398 420.816 884.231 412.663 881.423 404.398C879.96 400.099 878.899 395.595 877.136 391.438C876.572 390.11 876.106 388.738 875.702 387.355C874.919 384.655 874.417 381.875 874.143 379.079C873.587 373.348 873.983 367.552 874.924 361.883C875.345 359.347 875.872 356.785 875.606 354.227C875.232 350.618 873.318 347.372 871.454 344.261C878.315 343.686 885.211 343.504 892.094 343.714C893.434 343.755 894.616 343.985 895.913 344.179C897.27 344.381 898.632 343.839 899.979 343.669C903.055 343.282 906.141 343.605 909.212 343.859C914.32 344.295 919.43 344.694 924.542 345.074C930.679 345.529 936.816 345.961 942.953 346.392C949.033 346.821 955.266 347.72 961.359 347.72C961.376 347.72 961.394 347.722 961.411 347.725C969.855 348.363 978.3 349.004 986.747 349.642C992.527 350.078 998.321 350.517 1004.12 350.297C1026.41 349.45 1047.82 338.527 1062.85 322.028C1077.87 305.529 1086.64 283.797 1088.96 261.599C1088.91 262.036 1113.78 262.514 1115.2 262.521C1121.15 262.553 1127.1 262.583 1133.04 262.615C1135.77 262.629 1138.5 262.642 1141.23 262.656C1142.21 262.661 1143.03 262.437 1143.98 262.334C1144.95 262.228 1145.96 262.346 1146.94 262.294C1150.81 262.092 1154.63 261.144 1158.16 259.552C1165.08 256.432 1170.97 250.667 1173.02 243.221C1174.11 239.276 1174.15 235.127 1174.07 231.036C1174.06 230.191 1174.04 229.346 1174.01 228.501C1173.81 221.424 1173.29 214.355 1172.46 207.326L1172.44 207.301ZM1089.69 262.725C1089.67 262.605 1089.65 262.486 1089.63 262.366C1089.66 262.366 1089.68 262.366 1089.71 262.366L1089.69 262.723V262.725ZM1098.04 225.697C1098.2 221.599 1099.03 217.218 1099.19 213.121C1099.24 211.657 1100.64 204.196 1100.74 202.146C1100.89 199.357 1101.01 196.568 1101.1 193.776C1101.2 190.802 1102.57 184.174 1102.84 182.711C1103.66 178.197 1103.45 176.065 1103.04 175.011C1104.67 180.616 1106.44 186.185 1108.48 191.65C1109.24 193.665 1110.34 195.624 1110.55 197.783C1110.77 200.079 1111.95 202.41 1112.69 204.588C1114.36 209.546 1115.92 214.538 1117.37 219.564C1117.6 220.375 1117.83 221.264 1117.5 222.04C1116.78 223.711 1114.59 223.346 1113.14 223.561C1111.43 223.812 1109.73 224.169 1108.02 224.418C1107.37 224.512 1098.05 225.586 1098.04 225.699V225.697Z" fill="#F5CFA9"/>
<mask id="mask2_185_9405" style="mask-type:luminance" maskUnits="userSpaceOnUse" x="722" y="0" width="453" height="538">
<path d="M1172.44 207.301C1172.03 203.839 1171.55 200.385 1170.99 196.942C1170.14 191.726 1169.13 186.54 1167.94 181.392C1167.36 178.882 1166.94 176.144 1166.03 173.732C1165.88 173.328 1165.66 173.047 1165.42 172.697C1164.78 171.756 1164.42 170.664 1163.98 169.617C1161.54 163.738 1159.33 157.76 1157.36 151.704C1152.26 135.972 1148.33 118.872 1136.58 107.229C1126.76 97.4968 1112.88 93.1184 1099.3 90.5386C1085.72 87.9588 1071.76 86.8082 1058.78 82.0478C1056.16 81.0868 1053.52 79.9017 1051.42 78.0217C1050.37 77.0854 1049.61 76.0111 1048.91 74.8037C1048.07 73.3574 1048.05 71.6203 1047.89 69.9595C1047.47 65.7486 1047.58 61.4835 1048.24 57.2997C1048.6 54.9589 1049.57 52.7906 1049.88 50.4351C1050.37 46.7687 1051.35 43.4695 1053.04 40.1702C1055.28 35.8164 1058.15 31.7681 1059.88 27.1826C1061.6 22.5972 1062.01 17.1592 1059.39 13.0222C1060.63 11.7804 1061.65 10.3267 1062.4 8.74481C1057.41 4.93798 1052.13 1.00303 1045.92 0.135711C1042.04 -0.403897 1037.79 0.67532 1034.77 3.20088C1033.25 4.47229 1032.4 5.95066 1031.64 7.73704C1031.03 9.1686 1029.53 9.93245 1028.47 11.093C1024.92 14.9836 1022.3 20.254 1021.64 25.5047C1020.13 37.5535 1016.38 45.8226 1016.57 48.9419C1016.81 53.106 1017.91 56.5778 1020.85 59.5296C1022.68 61.3628 1025.39 63.5261 1026.37 65.9236C1026.94 67.333 1026.92 68.9099 1026.82 70.4277C1026.59 73.8871 1026.03 77.3244 1025.14 80.6754C1024.33 83.7307 1022.31 87.1876 1019.4 88.7152C1015.6 90.7061 1004.14 94.2198 1001.74 94.7742C991.207 97.2061 979.561 101.02 970.227 106.554C966.105 108.999 962.214 111.817 958.557 114.912C951.521 120.865 945.381 127.799 939.717 135.05C933.927 142.462 928.606 150.226 923.188 157.911C921.217 160.705 919.235 163.492 917.213 166.249C913.667 171.086 910 175.839 906.067 180.367C904.713 181.93 902.866 183.578 901.161 184.743C899.162 186.108 896.657 186.727 894.251 186.51C891.52 186.264 888.954 185.039 886.843 183.322C885.834 182.499 885.139 181.54 884.295 180.597C883.061 179.217 881.482 178.061 880.177 176.733C878.97 175.506 877.803 174.237 876.665 172.946C874.385 170.356 872.218 167.671 870.055 164.985C868.083 162.536 866.108 160.086 864.135 157.637C856.24 147.841 848.344 138.044 840.449 128.247C838.479 125.8 826.867 111.805 825.998 110.694C825.094 109.538 824.139 108.425 823.134 107.353C819.14 103.092 814.389 99.5419 809.161 96.9449C807.878 96.3067 804.523 94.5154 803.093 94.4341C801.662 94.3528 802.061 95.9248 802.748 97.7605C799.448 96.7182 794.55 95.7129 791.09 95.772C790.58 95.7819 790.004 95.8337 789.681 96.2279C789.092 96.9498 789.851 97.9773 790.582 98.5563C793.52 100.88 796.993 102.178 800 104.413C801.167 105.281 802.275 106.574 803.199 107.695C818.955 126.806 820.223 143.255 823.124 152.5C829.308 172.197 838.213 191.036 849.507 208.316C854.171 215.452 859.365 222.447 866.31 227.385C877.012 234.993 891.052 236.933 903.979 234.636C916.905 232.34 928.854 226.143 939.675 218.704C950.679 211.137 960.743 202.208 969.567 192.18C970.099 196.942 970.501 201.718 970.774 206.503C971.343 216.469 971.348 226.468 970.791 236.435C970.646 239.037 970.599 241.713 969.72 244.199C968.996 246.246 967.481 249.351 965.642 250.682C963.115 252.507 958.83 252.603 955.86 253.077C947.654 254.385 939.328 254.925 931.021 254.686C922.835 254.449 914.689 253.458 906.513 253.005C905.378 252.941 904.245 252.889 903.109 252.847C886.89 252.246 870.597 253.774 854.77 257.352C850.812 258.246 846.884 259.268 842.993 260.417C839.636 261.407 836.272 262.918 832.761 263.196C826.99 263.649 822.233 266.922 817.406 270.019C803.42 278.99 791.607 291.524 784.411 306.579C779.119 317.645 776.198 329.669 773.314 341.592C766.586 369.395 759.855 397.199 753.127 425.002C750.239 436.943 747.34 448.898 743.592 460.606C741.725 466.439 739.647 472.207 737.263 477.847C734.571 484.209 733.31 490.578 730.124 496.773C734.527 498.401 738.928 500.032 743.331 501.661C744.057 501.93 744.845 502.25 745.217 502.932C745.638 503.709 745.37 504.665 745.074 505.497C743.784 509.115 742.353 512.732 740.304 515.996C739.45 517.359 738.425 518.613 737.494 519.919C737.056 520.533 736.396 520.875 735.77 521.272C734.909 521.821 734.049 522.368 733.187 522.918C729.744 525.113 726.302 527.306 722.859 529.501C722.632 529.647 722.378 529.837 722.381 530.105C722.381 530.275 722.487 530.425 722.593 530.558C726.186 535.161 732.882 535.925 738.664 535.122C744.446 534.318 750.16 532.33 755.972 532.867C757.693 533.025 759.481 533.399 761.111 532.825C764.035 531.8 764.99 528.432 765.384 525.675C765.596 524.197 765.084 522.817 764.995 521.336C764.877 519.387 764.732 517.413 765.015 515.469C765.133 514.666 765.325 513.872 765.616 513.116C766.515 510.783 768.298 508.92 770.002 507.087C774.723 502.006 779.148 496.654 783.253 491.066C785.327 488.245 787.319 485.362 789.225 482.425C790.947 479.771 792.417 476.844 794.56 474.498C795.926 473 797.537 471.788 798.667 470.078C800.551 467.227 801.647 463.77 802.97 460.636C805.935 453.601 808.885 446.562 811.825 439.515C814.029 434.23 816.226 428.942 818.413 423.654C818.218 424.256 819.75 426.914 820.043 427.498C820.706 428.814 821.376 430.127 822.048 431.438C823.343 433.959 824.656 436.469 825.988 438.968C828.653 443.97 831.389 448.93 834.199 453.85C839.819 463.691 845.729 473.365 851.918 482.859C854.888 487.414 857.924 491.928 861.022 496.401C864.413 496.134 867.814 495.977 871.215 495.927C872.198 495.913 873.254 495.93 874.05 496.509C874.801 497.053 875.153 497.985 875.436 498.867C878.007 506.875 878.044 515.646 875.707 523.714C875.126 525.724 874.404 527.71 873.515 529.607C872.806 531.123 871.664 532.621 871.235 534.249C870.139 538.409 876.187 537.793 878.648 537.122C882.1 536.181 885.184 534.006 887.681 531.495C890.119 529.043 892.195 526.266 894.468 523.667C895.246 522.777 895.832 521.656 896.734 520.892C897.945 519.862 899.108 518.906 900.073 517.623C900.57 516.96 901.036 516.139 900.814 515.341C900.691 514.897 900.376 514.54 900.08 514.19C898.457 512.266 897.165 510.007 896.687 507.535C896.209 505.064 896.608 502.366 898.083 500.326C898.642 499.552 899.344 498.882 899.868 498.083C901.139 496.147 901.184 493.752 900.844 491.534C900.669 490.391 900.465 489.129 900.051 488.045C898.317 483.492 897.724 478.549 896.78 473.771C894.172 460.574 893.352 442.265 889.732 429.228C887.398 420.816 884.231 412.663 881.423 404.398C879.96 400.099 878.899 395.595 877.136 391.438C876.572 390.11 876.106 388.738 875.702 387.355C874.919 384.655 874.417 381.875 874.143 379.079C873.587 373.348 873.983 367.552 874.924 361.883C875.345 359.347 875.872 356.785 875.606 354.227C875.232 350.618 873.318 347.372 871.454 344.261C878.315 343.686 885.211 343.504 892.094 343.714C893.434 343.755 894.616 343.985 895.913 344.179C897.27 344.381 898.632 343.839 899.979 343.669C903.055 343.282 906.141 343.605 909.212 343.859C914.32 344.295 919.43 344.694 924.542 345.074C930.679 345.529 936.816 345.961 942.953 346.392C949.033 346.821 955.266 347.72 961.359 347.72C961.376 347.72 961.394 347.722 961.411 347.725C969.855 348.363 978.3 349.004 986.747 349.642C992.527 350.078 998.321 350.517 1004.12 350.297C1026.41 349.45 1047.82 338.527 1062.85 322.028C1077.87 305.529 1086.64 283.797 1088.96 261.599C1088.91 262.036 1113.78 262.514 1115.2 262.521C1121.15 262.553 1127.1 262.583 1133.04 262.615C1135.77 262.629 1138.5 262.642 1141.23 262.656C1142.21 262.661 1143.03 262.437 1143.98 262.334C1144.95 262.228 1145.96 262.346 1146.94 262.294C1150.81 262.092 1154.63 261.144 1158.16 259.552C1165.08 256.432 1170.97 250.667 1173.02 243.221C1174.11 239.276 1174.15 235.127 1174.07 231.036C1174.06 230.191 1174.04 229.346 1174.01 228.501C1173.81 221.424 1173.29 214.355 1172.46 207.326L1172.44 207.301ZM1089.69 262.725C1089.67 262.605 1089.65 262.486 1089.63 262.366C1089.66 262.366 1089.68 262.366 1089.71 262.366L1089.69 262.723V262.725ZM1098.04 225.697C1098.2 221.599 1099.03 217.218 1099.19 213.121C1099.24 211.657 1100.64 204.196 1100.74 202.146C1100.89 199.357 1101.01 196.568 1101.1 193.776C1101.2 190.802 1102.57 184.174 1102.84 182.711C1103.66 178.197 1103.45 176.065 1103.04 175.011C1104.67 180.616 1106.44 186.185 1108.48 191.65C1109.24 193.665 1110.34 195.624 1110.55 197.783C1110.77 200.079 1111.95 202.41 1112.69 204.588C1114.36 209.546 1115.92 214.538 1117.37 219.564C1117.6 220.375 1117.83 221.264 1117.5 222.04C1116.78 223.711 1114.59 223.346 1113.14 223.561C1111.43 223.812 1109.73 224.169 1108.02 224.418C1107.37 224.512 1098.05 225.586 1098.04 225.699V225.697Z" fill="white"/>
</mask>
<g mask="url(#mask2_185_9405)">
<path d="M801.449 102.57C811.452 106.87 818.099 116.383 823.743 125.697C830.902 137.509 837.33 149.762 842.979 162.365C843.519 163.57 844.063 164.916 843.661 166.172C843.302 167.306 842.268 168.065 841.295 168.747C838.45 170.738 835.493 172.778 832.079 173.411C828.358 174.101 824.514 173.022 821.108 171.374C813.233 167.559 807.155 160.853 801.862 153.877C795.065 144.916 789.229 135.269 783.407 125.645C780.371 120.626 777.337 115.607 774.3 110.588C772.859 108.205 771.387 105.731 771.039 102.969C770.581 99.3249 772.281 95.8039 774.793 93.2512C777.004 91.0041 780.255 88.8235 783.54 89.0699C785.749 89.2349 788.758 90.2205 790.081 92.1474C791.847 94.7222 786.227 94.9834 788.882 97.2009C792.361 100.106 797.38 100.818 801.449 102.565V102.57Z" fill="#D1B190"/>
<path d="M1033.66 76.7876C1036.28 74.4813 1038.95 71.9459 1039.99 68.6121C1043.23 58.2856 1029.54 49.4622 1029.98 38.6478C1030.21 32.7762 1034.55 28.0331 1037.73 23.0953C1040.92 18.1575 1042.88 11.0859 1038.84 6.81096C1035.65 3.42547 1029.95 3.61273 1025.97 6.01017C1021.98 8.40761 1019.33 12.4731 1016.93 16.4598C1013.58 22.0358 1010.36 28.0405 1010.24 34.5453C1010.09 42.8366 1014.95 50.2433 1018.85 57.5563C1022.03 63.4994 1024.87 70.5956 1023.47 77.4454C1022.89 80.2839 1019.38 84.3421 1021.66 86.9884C1022.37 87.8114 1023.66 88.654 1024.81 88.4889C1026.32 88.2696 1026.18 86.7592 1026.53 85.5913C1027.66 81.888 1030.86 79.2466 1033.66 76.7876H1033.66Z" fill="#D1B190"/>
<path d="M819.696 174.73C845.581 152.332 871.468 129.932 897.354 107.535C909.352 97.1544 922.17 86.3696 937.793 83.6124C952.99 80.9316 1001.84 78.0439 1014.26 87.2C1025.76 95.676 1027.27 94.1631 1059.64 83.5681C1083.5 75.7598 1130.03 83.5065 1151.39 96.7133C1174.63 111.086 1190.26 134.961 1202.97 159.165C1214.47 181.084 1224.4 206.584 1216.58 230.073C1208.57 254.121 1184.03 268.848 1159.69 275.851C1100.9 292.756 1082.37 327.023 1022.21 315.969C988.842 309.839 911.3 254.819 877.8 249.482C860.975 246.801 843.835 243.797 828.844 235.693C819.003 230.374 810.318 222.92 803.562 214.001" fill="#2385DF"/>
<mask id="mask3_185_9405" style="mask-type:luminance" maskUnits="userSpaceOnUse" x="803" y="80" width="417" height="239">
<path d="M819.696 174.73C845.581 152.332 871.468 129.932 897.354 107.535C909.352 97.1544 922.17 86.3696 937.793 83.6124C952.99 80.9316 1001.84 78.0439 1014.26 87.2C1025.76 95.676 1027.27 94.1631 1059.64 83.5681C1083.5 75.7598 1130.03 83.5065 1151.39 96.7133C1174.63 111.086 1190.26 134.961 1202.97 159.165C1214.47 181.084 1224.4 206.584 1216.58 230.073C1208.57 254.121 1184.03 268.848 1159.69 275.851C1100.9 292.756 1082.37 327.023 1022.21 315.969C988.842 309.839 911.3 254.819 877.8 249.482C860.975 246.801 843.835 243.797 828.844 235.693C819.003 230.374 810.318 222.92 803.562 214.001" fill="white"/>
</mask>
<g mask="url(#mask3_185_9405)">
<path d="M932.709 134.003C931.101 135.893 929.505 137.793 927.914 139.7C920.651 148.41 913.704 157.433 906.272 165.944C903.849 168.72 900.95 171.029 898.446 173.727C895.138 177.29 892.437 182.09 893.498 186.835C894.759 192.478 900.731 195.698 906.324 197.157C918.093 200.225 931.009 198.633 941.683 192.801C952.356 186.966 960.675 176.953 964.455 165.387C965.898 174.447 971.343 182.472 972.927 191.51C974.138 198.431 973.015 205.542 971.538 212.411C969.506 221.856 966.807 231.157 963.468 240.222C962.177 243.728 960.936 247.005 960.296 250.697C960.022 252.273 960.047 256.568 958.648 257.674C957.592 258.51 956.688 257.034 956.252 256.117C961.219 256.169 966.341 257.127 971.306 257.569C976.352 258.017 981.403 258.414 986.457 258.759C996.566 259.451 1006.69 259.941 1016.81 260.23C1023.4 260.417 1029.98 260.518 1036.57 260.535C1036.71 261.055 1036.85 261.575 1036.98 262.097C1038.35 267.306 1039.57 272.552 1040.65 277.827C1041.51 282.078 1041.84 286.712 1043.48 290.758C1044.47 293.18 1046.13 294.895 1048.15 296.497C1055.1 302.023 1061.43 307.624 1070.35 309.605C1073.8 310.371 1076.16 308.807 1078.78 306.683C1082.27 303.859 1085.56 300.801 1088.82 297.719C1095.33 291.569 1101.76 285.224 1109.3 280.333C1129.77 267.065 1155.58 266.126 1179.97 265.606C1161.53 257.49 1141.85 252.232 1121.83 250.002C1117.08 249.472 1112.8 249.42 1108.09 249.896C1103.04 250.406 1097.89 248.853 1092.78 248.984C1081.24 249.28 1069.99 252.894 1059.48 257.458C1043.85 264.248 1028.94 273.183 1012.3 276.923C1003.09 278.995 993.507 279.407 984.149 278.133C983.785 271.507 991.527 267.934 997.682 265.463C1017.06 257.679 1033.28 243.075 1044.95 225.744C1047.17 222.452 1049.23 219.057 1051.15 215.58C1056.64 205.633 1060.91 195.048 1064.23 184.197C1065.69 179.436 1066.3 173.732 1068.83 169.41C1069.71 167.9 1070.86 166.572 1071.73 165.044C1073.63 161.666 1075.12 158.101 1077.19 154.797C1078.85 152.145 1080.68 149.603 1082.68 147.195C1083.13 146.651 1088.09 141.59 1088.02 141.474C1091.45 147.501 1094.56 153.712 1097.33 160.069C1101.72 170.162 1105.27 180.624 1107.92 191.31C1108.01 191.645 1108.09 191.978 1108.17 192.313C1108.65 194.296 1109.02 196.304 1109.43 198.305C1109.63 199.281 1109.82 200.269 1110.08 201.232C1110.27 201.917 1110.68 202.304 1110.99 202.91C1112.44 205.665 1112.53 209.243 1112.98 212.261C1113.43 215.284 1114.09 218.404 1116.02 220.86C1116.33 221.247 1116.68 221.624 1117.13 221.809C1117.66 222.021 1118.25 221.949 1118.82 221.873C1124.73 221.075 1130.64 220.279 1136.56 219.481C1137.13 219.404 1137.72 219.318 1138.19 218.993C1139.23 218.283 1139.28 216.8 1139.22 215.546C1139.12 213.318 1139.21 210.995 1138.61 208.836C1136.73 202.097 1131.16 197.236 1127.2 191.726C1121.02 183.11 1117.32 172.732 1116.66 162.144C1115.96 150.943 1118.48 139.084 1113.86 128.858C1110.78 122.036 1104.87 116.916 1098.76 112.601C1097.41 111.648 1096.04 110.724 1094.65 109.827C1087.7 105.342 1080.3 101.57 1072.6 98.5836C1068.42 96.9648 1063.96 95.0848 1059.58 94.2717C1037.84 90.2283 1015.68 94.0967 994.295 98.421C982.236 100.86 969.932 103.388 959.274 109.541C948.795 115.59 940.54 124.781 932.701 134.001L932.709 134.003Z" fill="#2554AB"/>
<path d="M834.405 143.657C844.12 159.717 849.023 178.286 858.381 194.558C864.641 205.441 872.973 215.282 883.407 222.26C893.841 229.238 906.47 233.222 918.985 232.298C907.652 233.296 896.304 234.144 884.949 234.839C879.041 235.201 873.037 235.514 867.269 234.183C861.181 232.779 855.633 229.593 850.639 225.843C829.819 210.211 818.296 185.449 807.576 161.718" fill="#2554AB"/>
</g>
<path d="M677.963 520.9C715.329 438.002 714.664 344.108 757.384 277.413C764.748 265.916 773.663 254.794 785.875 248.701C799.036 242.134 814.388 242.161 829.092 242.437C901.143 243.797 973.834 247.934 1044.01 263.386C1050.03 306.079 1080.39 310.635 1095.06 300.951C1093.2 318.697 1093.73 313.826 1084.67 329.196C1073.35 348.41 1052.91 360.015 1036.59 375.223C1001.12 408.289 986.241 457.12 965.079 500.767C958.058 515.247 950 529.622 938.056 540.405C925.27 551.948 908.782 558.648 892.058 562.755C861.371 570.292 829.358 569.758 797.765 569.176C758 568.447 716.366 567.232 681.709 547.71" fill="#4A4848"/>
<mask id="mask4_185_9405" style="mask-type:luminance" maskUnits="userSpaceOnUse" x="677" y="242" width="419" height="328">
<path d="M677.963 520.9C715.329 438.002 714.664 344.108 757.384 277.413C764.748 265.916 773.663 254.794 785.875 248.701C799.036 242.134 814.388 242.161 829.092 242.437C901.143 243.797 973.834 247.934 1044.01 263.386C1050.03 306.079 1080.39 310.635 1095.06 300.951C1093.2 318.697 1093.73 313.826 1084.67 329.196C1073.35 348.41 1052.91 360.015 1036.59 375.223C1001.12 408.289 986.241 457.12 965.079 500.767C958.058 515.247 950 529.622 938.056 540.405C925.27 551.948 908.782 558.648 892.058 562.755C861.371 570.292 829.358 569.758 797.765 569.176C758 568.447 716.366 567.232 681.709 547.71" fill="white"/>
</mask>
<g mask="url(#mask4_185_9405)">
<path d="M789.321 528.993C780.563 533.998 770.622 536.368 760.599 536.841C755.927 537.06 751.12 536.339 746.495 537.056C743.025 537.593 739.907 538.366 736.351 537.758C736.949 537.859 738.622 536.474 739.126 536.139C742.207 534.079 744.734 531.273 747.14 528.479C748.928 526.406 750.667 524.024 750.241 521.133C749.669 517.258 746.524 514.794 743.833 512.31C740.607 509.334 737.38 506.355 734.154 503.378C737.634 501.646 741.368 500.431 745.199 499.783C745.736 493.958 747.339 488.143 750.548 483.252C752.644 480.062 755.452 477.299 758.771 475.397C760.355 474.488 762.177 474.042 763.714 473.079C766.568 471.287 769.469 469.73 772.582 468.343C775.311 467.128 778.135 465.84 780.056 463.553C786.151 456.297 779.67 445.79 775.655 437.203C772.045 429.479 770.599 420.446 773.252 412.342C776.357 402.853 784.41 396.011 790.545 388.133C805.823 368.515 796.842 342.39 799.245 317.637C801.289 296.582 804.178 273.234 820.291 259.537C831.154 250.302 846.068 247.441 860.315 246.963C873.315 246.529 886.367 247.835 899.038 250.777C905.438 252.263 911.74 254.165 917.892 256.472C920.19 257.331 922.103 258.603 924.413 259.441C926.674 260.259 928.935 261.072 931.203 261.868C935.754 263.464 940.327 264.999 944.942 266.394C954.076 269.154 963.41 271.386 972.916 272.357C979.789 273.059 986.741 273.089 993.6 272.199C1006.08 270.585 1018.15 265.899 1028.45 258.669C1023.84 257.869 1019.23 257.065 1014.62 256.265C1013.32 256.04 1011.97 255.787 1010.96 254.944C1008.18 252.613 1010.47 247.577 1013.97 246.618C1017.67 245.605 1020.87 248.138 1024.5 247.638C1028.37 247.106 1032.23 246.441 1036.12 245.955C1039.1 245.581 1042.02 245.593 1045 245.99C1060.32 248.025 1075.4 254.695 1086.2 265.901C1098.36 278.522 1104.55 297.275 1100.23 314.269C1096.74 328.023 1086.83 339.576 1074.85 347.17C1062.87 354.764 1048.91 358.724 1034.91 361C1010.42 364.98 985.478 364.036 960.92 361.276C948.498 359.882 936.133 358.031 923.785 356.114C919.015 355.375 911.273 353.153 906.165 355.193C902.752 356.555 901.483 360.648 900.523 363.856C897.504 373.939 898.336 384.935 901.136 394.966L901.222 395.269C905.195 409.267 912.647 421.979 918.436 435.326C924.62 449.582 928.972 465.049 927.689 480.535C926.834 490.854 923.192 500.609 917.092 508.957C913.309 514.133 910.748 521.124 906.012 525.509C905.335 526.138 904.732 526.522 903.857 526.808C901.693 527.515 899.205 532.884 896.969 533.337C891.869 534.37 898.201 534.407 894.347 530.354C890.325 526.123 891.608 520.968 890.818 515.821C890.618 514.528 890.101 513.347 889.734 512.098C888.655 508.424 888.557 504.447 887.749 500.7C886.175 493.409 883.277 486.076 877.364 481.225C872.682 477.383 866.321 475.23 863.307 469.977C859.517 463.368 862.534 454.33 858.468 447.887C857.15 445.798 855.153 444.167 852.89 443.181C843.987 439.305 833.528 446.209 829.369 454.988C825.212 463.767 825.337 473.865 824.113 483.501C823.54 488.028 822.547 492.551 820.769 496.765C819.134 500.641 816.565 503.871 814.226 507.328C809.992 513.584 804.045 518.297 798.147 522.937C795.337 525.147 792.421 527.227 789.316 529.001L789.321 528.993Z" fill="#1C1C1C"/>
</g>
<path d="M1060.55 83.5705C1051.61 96.7083 1049.47 97.4204 1046.94 113.113C1039.14 161.412 1036.98 213.695 1042.93 262.257C1021.6 259.029 1000.26 255.816 978.922 252.621C996.486 229.238 998.653 198.076 999.813 168.848C1000.97 139.621 1005.14 108.634 1021.62 84.4698L1027.29 89.9201L1057.47 79.022L1060.34 84.8567" fill="white"/>
<mask id="mask5_185_9405" style="mask-type:luminance" maskUnits="userSpaceOnUse" x="978" y="79" width="83" height="184">
<path d="M1060.55 83.5705C1051.61 96.7083 1049.47 97.4204 1046.94 113.113C1039.14 161.412 1036.98 213.695 1042.93 262.257C1021.6 259.029 1000.26 255.816 978.922 252.621C996.486 229.238 998.653 198.076 999.813 168.848C1000.97 139.621 1005.14 108.634 1021.62 84.4698L1027.29 89.9201L1057.47 79.022L1060.34 84.8567" fill="white"/>
</mask>
<g mask="url(#mask5_185_9405)">
<path d="M1021.12 117.793C1020.38 112.862 1023.06 107.602 1027.49 105.313C1028.5 107.227 1029.51 109.139 1030.52 111.054C1036.04 107.831 1041.56 104.608 1047.09 101.388C1031.44 114.087 1021.66 133.742 1020.96 153.887C1020.84 157.224 1021.5 161.356 1024.66 162.432C1025.97 162.881 1027.41 162.647 1028.78 162.373C1033.03 161.523 1037.26 160.348 1041.6 160.358C1045.93 160.368 1050.52 161.762 1053.22 165.155C1053.6 165.636 1053.95 166.192 1053.94 166.806C1053.9 168.043 1052.49 168.696 1051.3 169.041C1046.35 170.475 1041.26 171.458 1036.13 171.975C1032.55 172.335 1028.89 172.478 1025.48 173.639C1022.08 174.797 1018.86 177.189 1017.77 180.621C1017.12 182.652 1017.27 184.847 1017.6 186.951C1019.45 198.601 1026.67 210.332 1022.58 221.395C1020.74 226.365 1016.86 230.256 1013 233.885C1009.14 237.514 1005.1 241.181 1002.82 245.961C1000.54 250.741 1000.44 257.002 1004.07 260.853C995.007 264.396 984.641 261.398 976.128 256.677C971.749 254.25 967.351 251.027 965.822 246.257C964.339 241.629 965.883 236.645 967.312 232C977.921 197.517 982.376 161.499 987.323 125.761C988.173 119.621 989.059 113.404 991.424 107.673C994.571 100.047 1000.15 93.7124 1005.87 87.762C1008.68 84.8274 1011.81 81.7671 1016.02 81.1536C1018.97 80.7224 1021.97 81.6686 1023.94 83.9601C1025.86 86.1998 1026.51 89.2921 1026.01 92.1675C1025.69 93.9638 1024.92 95.6171 1023.96 97.1571C1023.42 98.0293 1022.81 98.8621 1022.14 99.6408C1021.59 100.276 1020.29 101.092 1019.98 101.824C1019.6 102.701 1020.18 104.837 1020.25 105.808C1020.35 107.141 1020.44 108.472 1020.54 109.805C1020.73 112.444 1020.73 115.183 1021.13 117.798L1021.12 117.793Z" fill="#E0E1E2"/>
</g>
<path d="M1067.53 12.1993C1066.99 9.34353 1065.74 6.64548 1064.01 4.32196C1061.31 0.714719 1057.44 -2.0326 1053.11 -3.30401C1049.44 -4.38076 1044.75 -4.70107 1041.39 -2.58452C1039.74 -1.54719 1038.24 -0.297966 1036.57 0.722115C1034.42 2.03787 1031.78 3.79221 1030.96 6.33502C1030.37 8.1485 1031.42 10.3291 1033.2 11.0043C1033.88 11.263 1034.62 11.3172 1035.35 11.3689C1037.14 11.4946 1038.92 11.6326 1040.7 11.7434C1041.33 11.7829 1041.79 11.6892 1042.38 11.5167C1042.7 11.4231 1043.02 11.3812 1043.35 11.3517C1045.25 11.1915 1047.21 11.1743 1049.12 11.3714C1050.57 11.5217 1052.4 12.2929 1052.26 13.7515C1052.17 14.7174 1051.23 15.3359 1050.42 15.8607C1045.27 19.1846 1041.26 25.4899 1043.15 31.3196C1043.63 32.798 1044.94 34.3676 1046.44 33.9487C1047.17 33.7442 1047.69 33.1085 1048.16 32.5097C1049.33 31.0239 1050.5 29.5357 1051.66 28.0499C1052.49 26.9904 1053.53 25.8324 1054.87 25.8619C1056.99 25.9112 1057.78 28.6906 1057.66 30.812C1057.48 34.094 1056.59 37.3342 1055.06 40.2466C1058.98 36.6098 1062.55 32.5122 1064.95 27.737C1067.36 22.9619 1068.52 17.45 1067.53 12.1993H1067.53Z" fill="#4A4848"/>
<path d="M1026.09 94.649L1016.84 103.167L1019.15 109.62C1019.15 109.62 1004.78 182.77 1000.48 222.263L1009.38 230.65L1022.27 222.647C1022.27 222.647 1021.8 116.071 1023.78 110.65L1030.06 106.779L1026.09 94.6465V94.649Z" fill="#D2233C"/>
<path d="M1033.32 241.922C1025.28 242.666 1018.63 243.09 1013.15 251.963C1009.96 257.12 1007.48 270.955 1009.66 270.63C1011.84 270.305 1013.7 268.725 1015.39 267.111C1018.8 263.847 1021.64 260.929 1025.94 259.619C1028.27 258.909 1031.2 258.138 1033.61 258.212C1040.8 258.431 1048 258.653 1055.19 258.872C1060.54 259.037 1065.89 259.2 1071.25 259.365C1072.69 259.409 1074.13 259.454 1075.56 259.498C1076.82 259.537 1078.14 259.705 1079.38 259.498C1080.33 259.34 1081.06 259.288 1082.02 259.498C1082.38 259.577 1084.57 259.988 1086.12 260.272C1085.55 250.332 1080.83 239.752 1076.76 230.667C1069.3 232.843 1045.98 239.636 1043.6 239.961C1040.15 240.432 1036.79 241.602 1033.32 241.922Z" fill="#F5CFA9"/>
<mask id="mask6_185_9405" style="mask-type:luminance" maskUnits="userSpaceOnUse" x="1008" y="230" width="79" height="41">
<path d="M1033.32 241.922C1025.28 242.666 1018.63 243.09 1013.15 251.963C1009.96 257.12 1007.47 270.955 1009.65 270.63C1011.84 270.305 1013.7 268.725 1015.38 267.111C1018.8 263.847 1021.64 260.929 1025.94 259.619C1028.27 258.909 1031.2 258.138 1033.61 258.212C1040.8 258.431 1047.99 258.653 1055.18 258.872C1060.54 259.037 1065.89 259.2 1071.25 259.365C1072.68 259.409 1074.12 259.454 1075.56 259.498C1076.81 259.537 1078.13 259.705 1079.38 259.498C1080.32 259.34 1081.05 259.288 1082.02 259.498C1082.38 259.577 1084.57 259.988 1086.12 260.272C1085.54 250.332 1080.83 239.752 1076.76 230.667C1069.3 232.843 1045.98 239.636 1043.6 239.961C1040.14 240.432 1036.78 241.602 1033.32 241.922Z" fill="white"/>
</mask>
<g mask="url(#mask6_185_9405)">
<path d="M1008.13 254.612C1009.16 252.113 1010.84 249.891 1012.97 248.23C1013.48 247.831 1014.12 247.444 1014.74 247.649C1015.45 247.883 1015.69 248.748 1015.84 249.484C1016.62 253.614 1017.41 257.744 1018.2 261.876C1021.12 257.162 1026.76 254.733 1032.27 254.092C1037.78 253.451 1043.33 254.311 1048.87 254.698C1061.99 255.615 1075.29 253.826 1087.71 249.48C1085.68 253.819 1084.37 258.49 1083.84 263.248C1067.31 263.692 1050.86 267.087 1035.51 273.23C1025.78 277.12 1016.37 282.137 1006.07 284.014C1003.46 284.49 1000.66 284.734 998.257 283.613C995.855 282.492 994.117 279.562 995.154 277.12" fill="#D1B190"/>
</g>
<path d="M824.344 162.807C833.357 154.111 842.371 145.416 851.384 136.721C854.566 141.787 858.442 146.414 862.87 150.435C851.778 159.754 840.684 169.073 829.592 178.391" fill="white"/>
<mask id="mask7_185_9405" style="mask-type:luminance" maskUnits="userSpaceOnUse" x="824" y="136" width="39" height="43">
<path d="M824.344 162.807C833.357 154.111 842.371 145.416 851.384 136.721C854.566 141.787 858.442 146.414 862.87 150.435C851.778 159.754 840.684 169.073 829.592 178.391" fill="white"/>
</mask>
<g mask="url(#mask7_185_9405)">
<path d="M838.173 146.303C840.715 155.56 843.569 164.734 846.736 173.796C841.537 177.408 836.799 181.681 832.672 186.483C827.33 177.164 822.939 167.299 819.59 157.088C819.403 156.514 819.93 155.543 820.245 156.058" fill="#E0E1E2"/>
</g>
<path d="M1074.35 231.305C1074.18 231.352 1079.56 248.235 1079.18 258.926C1085.75 259.392 1087.65 258.899 1094.22 259.365C1093.54 246.555 1092.87 238.128 1089.5 227.678C1089.5 227.678 1082.84 228.878 1074.35 231.305H1074.35Z" fill="white"/>
<mask id="mask8_185_9405" style="mask-type:luminance" maskUnits="userSpaceOnUse" x="1074" y="227" width="21" height="33">
<path d="M1074.35 231.305C1074.18 231.352 1079.56 248.235 1079.18 258.926C1085.75 259.392 1087.65 258.899 1094.22 259.365C1093.54 246.555 1092.87 238.128 1089.5 227.678C1089.5 227.678 1082.84 228.878 1074.35 231.305H1074.35Z" fill="white"/>
</mask>
<g mask="url(#mask8_185_9405)">
<path d="M1076.08 250.393C1083.97 249.149 1091.83 247.681 1099.64 245.99C1099.79 251.32 1099.99 256.649 1100.23 261.976C1090.59 259.655 1080.04 263.743 1070.71 260.409" fill="#E0E1E2"/>
</g>
</g>
<path d="M661.555 456.097C659.134 453.692 656.974 451.014 654.797 448.38C651.175 443.997 648.202 439.113 645.597 434.067C644.045 431.063 634.887 413.431 633.803 411.485C633.074 410.179 632.358 408.865 631.658 407.542C625.366 395.681 619.99 383.356 613.799 371.443C607.406 359.14 600.161 347.306 592.92 335.484C582.688 318.773 572.455 302.065 562.223 285.354C559.457 280.838 556.647 276.265 552.82 272.603C545.319 265.421 534.73 262.493 524.446 261.069C513.198 259.51 501.801 259.441 490.448 259.584C457.072 260.002 422.865 269.738 389.732 273.786C390.262 256.58 392.431 249.474 395.133 239.118C399.832 221.096 421.602 211.445 431.132 195.447C439.555 205.453 449.053 212.758 457.86 222.427C461.652 226.594 465.6 230.817 470.638 233.33C477.531 236.77 485.594 236.605 493.293 236.368C527.031 235.323 559.28 233.739 593.019 232.694C595.026 233.862 597.553 231.371 597.346 229.058C597.139 226.744 595.334 224.94 593.632 223.358C590.128 220.103 586.219 216.698 581.452 216.329C576.886 215.974 574.27 219.566 569.889 220.894C565.242 222.304 561.327 222.424 556.512 222.139C554.796 222.038 511.179 214.279 503.936 210.622C499.804 208.535 485.294 202.957 481.624 200.133C460.312 183.718 456.333 167.513 455.387 164.598C453.555 158.96 451.934 147.163 449.243 138.832C447.755 134.234 445.866 129.432 443.756 125.083C442.106 121.688 440.458 118.29 438.808 114.895C437.983 113.197 429.33 94.2268 428.891 92.0117C427.263 83.7846 427.271 72.5366 433.72 67.1824C437.104 64.3735 441.953 67.1011 445.238 64.1763C447.204 62.4269 448.149 57.4054 448.137 54.9414C448.105 48.4784 446.475 41.5571 446.443 35.0941C446.408 28.5301 446.507 21.3058 443.175 15.6485C436.816 4.84898 419.252 2.14354 407.229 5.66701C395.303 9.16092 387.107 14.7862 379.024 30.9621C371.412 46.1968 353.169 45.2728 339.365 55.2395C329.694 62.2224 321.341 70.8019 319.708 86.8251C316.655 116.782 336.974 115.338 336.24 127.764C336.043 131.12 325.533 137.748 327.766 149.205C329.761 159.428 335.952 162.39 341.37 165.066C346.788 167.742 355.274 166.456 359.791 162.439C351.637 200.887 343.192 213.902 330.965 233.778C322.385 247.729 311.993 253.87 304.501 268.434C297.01 282.999 292.065 299.544 294.587 315.73C295.811 323.59 299.054 331.179 303.937 337.462C307.099 341.533 311.389 346.056 316.317 347.826C319.563 348.991 322.614 350.898 325.843 352.179C332.376 354.771 339.196 356.602 346.118 357.802C360.266 360.259 374.749 360.138 389.018 358.94C399.716 358.044 410.35 356.521 420.951 354.848C427.564 353.806 434.215 352.731 440.907 352.879C445.655 352.985 450.363 353.705 455.057 354.424C470.796 356.834 486.533 359.244 502.272 361.653C505.022 362.075 507.68 362.863 510.273 363.876C517.407 366.655 521.421 378.881 522.601 381.003C524.958 385.241 527.423 390.674 530.063 394.742C535.358 402.903 538.926 410.925 544.79 418.687C550.671 426.47 566.442 448.038 586.934 475.2C588.221 476.91 600.015 499.426 600.476 504.95C600.904 510.092 601.764 517.09 601.717 518.226C601.633 520.33 601.564 522.77 603.165 524.14C604.118 524.955 605.431 525.157 606.642 525.473C611.851 526.838 616.375 531.014 620.584 534.372C623.792 536.932 627.021 539.074 631.151 539.741C632.399 539.99 635.938 540.547 636.256 539.273C636.909 536.659 634.111 534.752 631.848 531.433C629.082 527.375 626.573 522.195 624.386 517.815C623.29 515.619 619.665 509.802 616.835 502.595C611.851 489.89 608.676 474.744 606.049 467.821C605.266 465.756 589.31 417.903 576.999 381.621C579.491 384.048 586.86 392.441 589.352 394.865C590.495 395.979 603.199 409.203 607.147 413.682C608.475 415.19 609.964 416.541 611.464 417.874C612.031 418.379 612.59 419.002 613.272 419.364C613.75 419.621 614.277 419.727 614.742 420.02C615.988 420.801 617.114 421.885 618.118 422.949C620.153 425.108 621.768 427.658 622.847 430.42C623.408 431.857 623.822 433.35 624.073 434.87C624.642 438.315 624.642 442.336 627.353 444.534C628.526 445.482 629.942 446.091 631.382 446.441C637.99 448.045 645.53 456.679 646.259 457.1C649.003 458.694 651.86 459.872 655.056 460.323C656.576 460.537 658.122 460.572 659.649 460.412C660.412 460.333 663.737 458.265 661.548 456.09L661.555 456.097Z" fill="#F5CFA9"/>
<mask id="mask9_185_9405" style="mask-type:luminance" maskUnits="userSpaceOnUse" x="293" y="4" width="370" height="537">
<path d="M661.555 456.098C659.134 453.693 656.974 451.014 654.797 448.38C651.175 443.997 648.202 439.114 645.597 434.067C644.045 431.064 634.887 413.432 633.803 411.485C633.074 410.179 632.358 408.866 631.658 407.543C625.366 395.681 619.99 383.356 613.799 371.443C607.406 359.141 600.161 347.306 592.92 335.484C582.688 318.773 572.455 302.065 562.223 285.355C559.457 280.838 556.647 276.265 552.82 272.604C545.319 265.421 534.73 262.494 524.446 261.07C513.198 259.51 501.801 259.441 490.448 259.584C457.072 260.003 422.865 269.738 389.732 273.786C390.262 256.581 392.431 249.474 395.133 239.118C399.832 221.097 421.602 211.446 431.132 195.447C439.555 205.453 449.053 212.759 457.86 222.427C461.652 226.594 465.6 230.817 470.638 233.331C477.531 236.77 485.594 236.605 493.293 236.369C527.031 235.324 559.28 233.74 593.019 232.695C595.026 233.863 597.553 231.372 597.346 229.058C597.139 226.744 595.334 224.941 593.632 223.359C590.128 220.104 586.219 216.699 581.452 216.329C576.886 215.974 574.27 219.567 569.889 220.895C565.242 222.304 561.327 222.425 556.512 222.139C554.796 222.038 511.179 214.279 503.936 210.623C499.804 208.536 485.294 202.957 481.624 200.133C460.312 183.719 456.333 167.513 455.387 164.598C453.555 158.961 451.934 147.163 449.243 138.833C447.755 134.235 445.866 129.432 443.756 125.084C442.106 121.688 440.458 118.29 438.808 114.895C437.983 113.197 429.33 94.2273 428.891 92.0122C427.263 83.785 427.271 72.5371 433.72 67.1829C437.104 64.374 441.953 67.1015 445.238 64.1768C447.204 62.4274 448.149 57.4058 448.137 54.9419C448.105 48.4789 446.475 41.5576 446.443 35.0946C446.408 28.5306 446.507 21.3063 443.175 15.649C436.816 4.84947 419.252 2.14403 407.229 5.6675C395.303 9.16141 387.107 14.7866 379.024 30.9626C371.412 46.1973 353.169 45.2733 339.365 55.24C329.694 62.2229 321.341 70.8024 319.708 86.8256C316.655 116.782 336.974 115.339 336.24 127.764C336.043 131.12 325.533 137.748 327.766 149.206C329.761 159.429 335.952 162.391 341.37 165.066C346.788 167.742 355.274 166.456 359.791 162.44C351.637 200.887 343.192 213.902 330.965 233.779C322.385 247.73 311.993 253.87 304.501 268.435C297.01 282.999 292.065 299.545 294.587 315.73C295.811 323.59 299.054 331.18 303.937 337.463C307.099 341.533 311.389 346.057 316.317 347.826C319.563 348.992 322.614 350.899 325.843 352.18C332.376 354.772 339.196 356.603 346.118 357.803C360.266 360.259 374.749 360.138 389.018 358.941C399.716 358.044 410.35 356.521 420.951 354.848C427.564 353.806 434.215 352.732 440.907 352.88C445.655 352.986 450.363 353.705 455.057 354.425C470.796 356.834 486.533 359.244 502.272 361.654C505.022 362.075 507.68 362.864 510.273 363.876C517.407 366.656 521.421 378.882 522.601 381.003C524.958 385.241 527.423 390.674 530.063 394.742C535.358 402.903 538.926 410.926 544.79 418.687C550.671 426.471 566.442 448.038 586.934 475.201C588.221 476.911 600.015 499.426 600.476 504.951C600.904 510.093 601.764 517.091 601.717 518.227C601.633 520.331 601.564 522.77 603.165 524.14C604.118 524.956 605.431 525.158 606.642 525.473C611.851 526.838 616.375 531.014 620.584 534.373C623.792 536.933 627.021 539.074 631.151 539.742C632.399 539.991 635.938 540.548 636.256 539.274C636.909 536.659 634.111 534.752 631.848 531.433C629.082 527.375 626.573 522.196 624.386 517.815C623.29 515.62 619.665 509.802 616.835 502.595C611.851 489.891 608.676 474.745 606.049 467.821C605.266 465.756 589.31 417.904 576.999 381.622C579.491 384.049 586.86 392.441 589.352 394.866C590.495 395.979 603.199 409.203 607.147 413.683C608.475 415.191 609.964 416.541 611.464 417.874C612.031 418.379 612.59 419.003 613.272 419.365C613.75 419.621 614.277 419.727 614.742 420.02C615.988 420.801 617.114 421.885 618.118 422.95C620.153 425.108 621.768 427.659 622.847 430.421C623.408 431.857 623.822 433.35 624.073 434.871C624.642 438.315 624.642 442.336 627.353 444.534C628.526 445.483 629.942 446.091 631.382 446.441C637.99 448.045 645.53 456.679 646.259 457.1C649.003 458.695 651.86 459.872 655.056 460.323C656.576 460.538 658.122 460.572 659.649 460.412C660.412 460.333 663.737 458.266 661.548 456.09L661.555 456.098Z" fill="white"/>
</mask>
<g mask="url(#mask9_185_9405)">
<path d="M570.709 447.175C579.927 465.961 600.973 483.679 607.083 503.691C609.203 510.632 609.307 518.024 608.94 525.273C601.613 518 593.181 505.926 584.025 501.158C574.871 485.391 564.249 469.22 555.096 453.453C555.556 453.818 556.017 454.183 556.477 454.547C556.519 453.074 556.297 451.593 555.827 450.196" fill="#D1B190"/>
<path d="M600.384 381.681C604.829 399.68 608.775 406.049 625.316 426.301C627.944 429.519 631.242 432.042 634.199 434.959C640.171 440.853 643.171 446.594 642.171 454.927C642.087 455.627 641.957 456.368 641.479 456.886C640.489 457.96 638.721 457.475 637.401 456.849C624.649 450.817 615.439 439.315 607.221 427.843C598.252 415.324 589.891 402.366 582.178 389.033" fill="#D1B190"/>
<path d="M486.372 225.386C500.124 228.649 513.929 231.921 528.004 233.214C542.078 234.508 556.526 233.761 569.886 229.151C572.92 228.104 575.932 226.852 579.129 226.557C586.628 225.864 593.474 230.472 599.591 234.865C557.728 242.563 514.979 245.418 472.463 243.361" fill="#D1B190"/>
<path d="M428.225 9.55811C433.257 12.367 436.909 17.5266 437.889 23.206C438.896 29.0382 437.212 34.9493 435.961 40.7347C434.71 46.52 433.944 52.8352 436.591 58.1303C438.714 62.3781 442.767 65.3521 447.028 67.4465C442.494 67.8087 437.256 68.5873 434.951 72.51C434.104 73.9539 433.791 75.6441 433.587 77.3048C432.995 82.1317 433.205 87.0548 434.205 91.8151C430.855 88.2202 427.12 84.985 423.086 82.1835C421.091 85.2413 421.615 89.2427 422.327 92.8254C422.66 94.5008 422.992 96.3439 422.155 97.8346C421.524 98.9557 420.337 99.6506 419.133 100.104C413.385 102.262 406.662 99.754 402.424 95.309C398.186 90.864 396.028 84.8396 394.62 78.8621C392.09 68.1266 391.63 56.8244 394.016 46.0544C396.4 35.2844 401.71 25.0762 409.676 17.4502C413.075 14.1977 417.084 11.3593 421.694 10.4353" fill="#D1B190"/>
<path d="M301.533 247.363C330.484 253.062 359.64 258.781 389.143 258.997C433.197 259.323 477.427 247.382 520.916 254.442C546.079 258.527 569.975 268.917 591.333 282.844C613.872 297.539 634.374 317.073 644.165 342.141C645.832 346.409 647.175 351.194 645.613 355.501C644.409 358.827 641.663 361.321 638.966 363.61C623.491 376.75 606.348 387.924 588.08 396.777C593.862 410.351 599.647 423.923 605.43 437.497C594.306 439.485 584.184 444.987 573.861 449.58C512.308 476.965 440.083 472.379 376.64 449.721C348.274 439.589 320.87 425.83 298.043 406.168C275.217 386.505 257.138 360.597 249.979 331.325C242.82 302.053 247.403 269.408 265.201 245.096" fill="#4A4848"/>
<mask id="mask10_185_9405" style="mask-type:luminance" maskUnits="userSpaceOnUse" x="246" y="245" width="401" height="224">
<path d="M301.535 247.363C330.486 253.062 359.642 258.781 389.145 258.997C433.199 259.323 477.429 247.382 520.917 254.442C546.081 258.527 569.977 268.917 591.335 282.844C613.874 297.539 634.376 317.073 644.167 342.141C645.834 346.409 647.176 351.194 645.615 355.501C644.411 358.827 641.665 361.321 638.968 363.61C623.493 376.75 606.35 387.924 588.082 396.777C593.864 410.351 599.649 423.923 605.432 437.497C594.308 439.485 584.186 444.987 573.863 449.58C512.31 476.965 440.085 472.379 376.642 449.721C348.276 439.589 320.872 425.83 298.045 406.168C275.219 386.505 257.14 360.597 249.981 331.325C242.822 302.053 247.405 269.408 265.203 245.096" fill="white"/>
</mask>
<g mask="url(#mask10_185_9405)">
<path d="M337.965 242.696C335.327 245.475 335.965 250.021 337.554 253.51C339.142 256.999 341.523 260.254 341.957 264.063C342.7 270.6 337.635 276.139 333.662 281.382C329.69 286.626 326.644 294.407 330.966 299.367C333.438 302.206 337.502 302.974 341.257 303.226C352.438 303.975 363.577 301.666 374.496 299.153C419.255 288.856 463.16 274.927 508.202 265.958C525.475 262.518 545.852 260.683 558.335 273.116C566.718 281.464 571.306 293.596 571.843 305.416C572.685 323.987 577.975 351.953 605.421 395.287C597.846 399.754 599.117 397.657 592.547 403.502C575.396 392.566 572.045 369.588 565.297 350.393C562.403 342.161 558.197 333.769 550.678 329.344C543.16 324.918 531.672 326.451 528.01 334.373C525.466 339.875 527.374 346.488 530.63 351.601C533.886 356.713 538.387 360.934 541.695 366.015C548.772 376.883 549.725 390.455 552.363 403.157C557.264 426.776 568.75 448.994 585.181 466.648C562.049 456.386 542.123 440.202 520.493 427.067C480.433 402.74 434.061 388.915 387.226 387.331C366.579 386.633 345.693 388.25 325.415 384.302C305.137 380.358 284.798 369.615 275.765 351.027C268.946 336.994 269.463 320.429 272.847 305.197C277.703 283.341 288.211 262.77 303.071 246.03" fill="#1C1C1C"/>
</g>
<path d="M369.899 132.121C376.592 119.059 384.5 104.891 398.316 99.9535C413.197 94.6314 430.037 102.334 440.915 113.803C451.793 125.273 458.378 140.027 466.537 153.567C478.34 173.151 493.592 190.388 508.752 207.503C507.661 208.435 505.937 208.528 504.752 207.72C499.953 214.784 494.825 221.627 489.393 228.218C487.716 230.253 485.967 232.301 483.706 233.656C479.104 236.415 473.297 235.829 468.022 234.851C458.242 233.037 448.658 230.179 439.482 226.34C436.251 224.987 432.67 223.492 429.367 224.657C427.424 225.342 425.907 226.86 424.489 228.356C416.071 237.221 408.558 246.946 402.101 257.329C401.182 258.805 400.222 260.36 398.71 261.215C397.126 262.112 395.208 262.092 393.388 262.045C378.759 261.659 364.141 260.858 349.559 259.646C342.179 259.032 334.808 258.313 327.447 257.49C323.797 257.081 320.15 256.647 316.505 256.186C314.151 255.888 310.661 256.083 309.676 253.38C308.787 250.94 310.393 248.235 311.459 246.15C313.173 242.807 314.887 239.461 316.601 236.117C319.975 229.533 323.349 222.952 326.721 216.368C333.495 203.149 340.268 189.933 347.043 176.713C353.817 163.494 360.59 150.278 367.365 137.058C368.207 135.412 369.052 133.767 369.894 132.121H369.899Z" fill="#F3394F"/>
<mask id="mask11_185_9405" style="mask-type:luminance" maskUnits="userSpaceOnUse" x="309" y="98" width="200" height="165">
<path d="M369.899 132.121C376.592 119.059 384.5 104.891 398.316 99.9535C413.197 94.6314 430.037 102.334 440.915 113.803C451.793 125.273 458.378 140.027 466.537 153.567C478.34 173.151 493.592 190.388 508.752 207.503C507.661 208.435 505.937 208.528 504.752 207.72C499.953 214.784 494.825 221.627 489.393 228.218C487.716 230.253 485.967 232.301 483.706 233.656C479.104 236.415 473.297 235.829 468.022 234.851C458.242 233.037 448.658 230.179 439.482 226.34C436.251 224.987 432.67 223.492 429.367 224.657C427.424 225.342 425.907 226.86 424.489 228.356C416.071 237.221 408.558 246.946 402.101 257.329C401.182 258.805 400.222 260.36 398.71 261.215C397.126 262.112 395.208 262.092 393.388 262.045C378.759 261.659 364.141 260.858 349.559 259.646C342.179 259.032 334.808 258.313 327.447 257.49C323.797 257.081 320.15 256.647 316.505 256.186C314.151 255.888 310.661 256.083 309.676 253.38C308.787 250.94 310.393 248.235 311.459 246.15C313.173 242.807 314.887 239.461 316.601 236.117C319.975 229.533 323.349 222.952 326.721 216.368C333.495 203.149 340.268 189.933 347.043 176.713C353.817 163.494 360.59 150.278 367.365 137.058C368.207 135.412 369.052 133.767 369.894 132.121H369.899Z" fill="white"/>
</mask>
<g mask="url(#mask11_185_9405)">
<path d="M333.57 205.199C329.782 210.634 325.746 215.89 321.741 221.165C314.459 230.757 307.162 240.488 301.846 251.346C300.538 254.02 299.41 256.752 298.344 259.529C297.57 261.547 295.837 263.437 295.467 265.576C295.036 268.084 296.509 270.969 297.782 273.034C299.279 275.461 301.279 277.578 303.569 279.271C308.455 282.88 314.413 284.711 320.328 286.088C338.591 290.336 357.613 290.819 376.248 288.725C387.263 287.488 398.73 285.103 407.155 277.893C409.93 275.518 412.279 272.679 414.252 269.612C415.412 267.808 416.717 266.123 417.892 264.339C419.192 262.365 419.616 259.928 420.556 257.78C422.664 252.955 425.972 248.648 430.141 245.428C436.357 240.628 444.427 238.295 452.244 239.034C459.797 239.749 466.828 243.166 474.28 244.593C485.226 246.689 496.973 244.243 506.174 237.95C508.018 236.688 509.969 234.567 509.077 232.519C508.541 231.285 507.164 230.679 505.901 230.21C495.799 226.475 485.091 224.383 475.321 219.842C463.119 214.17 452.906 204.903 444.107 194.72C435.308 184.536 427.752 173.35 419.493 162.722C416.478 158.844 413.309 154.983 409.263 152.194C410.437 168.924 424.201 181.747 430.732 197.193C431.762 199.628 432.616 202.392 431.69 204.869C430.114 209.092 424.605 209.976 420.098 209.932C415.877 209.89 411.957 210.56 407.933 211.817C406.701 212.201 405.573 212.746 404.495 213.451C399.572 216.664 395.339 221.054 392.243 226.041C389.091 231.117 387.086 237.556 389.448 243.045C392.376 249.851 401.19 253.389 402.419 260.695C403.249 265.632 399.976 270.575 395.629 273.059C391.283 275.543 386.089 276.021 381.085 276.021C374.913 276.021 368.744 275.37 362.706 274.091C356.753 272.827 350.764 270.859 346.124 266.919C343.083 264.336 340.726 260.798 339.805 256.89C339.359 255.003 339.63 253.15 339.352 251.27C338.589 246.11 339.867 240.618 341.815 235.826C344.482 229.262 349.055 223.688 353.419 218.105C359.529 210.287 365.346 202.23 370.643 193.837C371.965 191.743 373.256 189.629 374.507 187.493C375.79 185.307 377.558 182.937 378.4 180.542C379.686 176.89 381.592 173.741 382.08 169.902C382.395 167.404 383.313 165.041 383.835 162.582C384.988 157.149 385.232 151.578 385.493 146.046C385.907 137.196 386.303 127.931 390.561 119.941C393.952 113.576 399.481 108.653 405.046 104.068C405.788 103.457 406.556 102.821 406.977 101.959C407.96 99.9456 406.62 97.42 404.672 96.3186C403.308 95.5474 401.279 94.9881 399.702 95.2542C398.427 95.471 397.575 96.634 396.513 97.2845C393.221 99.3 389.426 100.34 386.187 102.469C378.45 107.554 373.088 115.609 369.384 124.097C365.681 132.586 363.449 141.626 360.63 150.447C354.406 169.915 345.25 188.444 333.565 205.209L333.57 205.199Z" fill="#D2233C"/>
</g>
<path d="M371.103 23.9845C376.509 12.1673 387.601 3.11716 400.256 0.192436C412.912 -2.72983 426.846 0.539861 436.881 8.79168C429.22 12.2289 424.696 21.5033 426.703 29.6615C428.181 35.6637 432.692 41.7965 430.062 47.3897C427.531 52.7735 419.81 53.8354 416.813 58.9753C414.18 63.4917 416.212 69.2402 418.707 73.8379C421.199 78.4357 424.233 83.3094 423.433 88.4763C422.497 94.5229 416.574 98.5564 410.728 100.355C404.881 102.154 398.589 102.506 393.019 105.034C383.264 109.462 378.097 119.626 374.615 129.76C371.133 139.897 371.874 146.715 360.908 159.182C357.819 162.693 357.834 167.969 353.571 169.891C348.774 172.052 343.248 171.502 338.027 170.871C329.848 169.886 320.956 168.442 315.432 162.326C312.915 159.54 311.364 156.031 309.879 152.581C304.943 141.134 300.19 129.361 299.094 116.943C297.632 100.358 302.976 83.504 312.615 69.9325C322.253 56.3585 335.983 45.968 351.111 39.0319" fill="#4A4848"/>
<mask id="mask12_185_9405" style="mask-type:luminance" maskUnits="userSpaceOnUse" x="298" y="-1" width="139" height="173">
<path d="M371.103 23.9845C376.509 12.1673 387.601 3.11716 400.256 0.192436C412.912 -2.72983 426.846 0.539861 436.881 8.79168C429.22 12.2289 424.696 21.5033 426.703 29.6615C428.181 35.6637 432.692 41.7965 430.062 47.3897C427.531 52.7735 419.81 53.8354 416.813 58.9753C414.18 63.4917 416.212 69.2402 418.707 73.8379C421.199 78.4357 424.233 83.3094 423.433 88.4763C422.497 94.5229 416.574 98.5564 410.728 100.355C404.881 102.154 398.589 102.506 393.019 105.034C383.264 109.462 378.097 119.626 374.615 129.76C371.133 139.897 371.874 146.715 360.908 159.182C357.819 162.693 357.834 167.969 353.571 169.891C348.774 172.052 343.248 171.502 338.027 170.871C329.848 169.886 320.956 168.442 315.432 162.326C312.915 159.54 311.364 156.031 309.879 152.581C304.943 141.134 300.19 129.361 299.094 116.943C297.632 100.358 302.976 83.504 312.615 69.9325C322.253 56.3585 335.983 45.968 351.111 39.0319" fill="white"/>
</mask>
<g mask="url(#mask12_185_9405)">
<path d="M404.923 2.42671C409.711 4.12438 414.496 5.82205 419.283 7.51972C420.406 7.91888 421.584 8.35254 422.357 9.26174C423.79 10.952 423.234 13.6156 421.933 15.4118C420.633 17.208 418.747 18.4893 417.308 20.1747C412.927 25.3071 414.028 34.1355 419.532 38.0359C421.785 39.6326 424.581 40.4679 426.516 42.439C430.831 46.8348 428.462 54.8328 423.428 58.3858C419.515 61.1479 414.277 62.2395 411.467 66.1202C409.502 68.8355 409.189 72.6547 410.686 75.6533C413.656 81.6013 422.376 83.3901 424.342 89.7422C425.41 93.1943 424.024 96.9863 421.879 99.8938C415.341 108.762 402.916 111.265 395.42 119.342C392.031 122.991 389.852 127.576 387.776 132.103C381.07 146.731 374.162 162.508 360.546 171.075C350.72 177.257 338.279 178.76 327.009 175.979C315.74 173.197 305.67 166.342 298.194 157.457C282.588 138.908 278.714 112.154 285.072 88.7567C291.429 65.3588 307.035 45.2209 325.958 30.0699C344.878 14.9215 367.043 4.36092 389.559 -4.60791" fill="#1C1C1C"/>
</g>
<path d="M616.692 432.65C619.59 431.83 622.573 431.554 625.584 431.499C633.256 431.364 637.152 441.264 638.014 442.242C641.267 445.943 647.625 449.334 651.509 449.819C652.307 445.495 652.674 444.477 650.539 438.162C650.472 438.389 655.166 439.448 655.405 439.682C656.144 440.414 656.883 441.146 657.624 441.878C658.363 442.609 659.096 443.346 659.843 444.073C660.111 444.334 660.372 444.504 660.668 444.719C661.798 445.532 662.273 446.835 663.084 447.917C664.982 450.45 666.869 452.929 668.487 455.659C668.863 456.292 672.55 463.482 672.434 463.519C661.022 467.197 648.522 464.916 637.179 461.028C629.892 458.529 622.678 455.284 617.059 450.014C616.591 449.575 616.101 448.902 616.438 448.355C616.775 447.808 617.76 448.794 617.128 448.898" fill="#4A4848"/>
<mask id="mask13_185_9405" style="mask-type:luminance" maskUnits="userSpaceOnUse" x="616" y="431" width="57" height="35">
<path d="M616.692 432.65C619.59 431.83 622.573 431.554 625.584 431.499C633.256 431.364 637.152 441.264 638.014 442.242C641.267 445.943 647.625 449.334 651.509 449.819C652.307 445.495 652.674 444.477 650.539 438.162C650.472 438.389 655.166 439.448 655.405 439.682C656.144 440.414 656.883 441.146 657.624 441.878C658.363 442.609 659.096 443.346 659.843 444.073C660.111 444.334 660.372 444.504 660.668 444.719C661.798 445.532 662.273 446.835 663.084 447.917C664.982 450.45 666.869 452.929 668.487 455.659C668.863 456.292 672.55 463.482 672.434 463.519C661.022 467.197 648.522 464.916 637.179 461.028C629.892 458.529 622.678 455.284 617.059 450.014C616.591 449.575 616.101 448.902 616.438 448.355C616.775 447.808 617.76 448.794 617.128 448.898" fill="white"/>
</mask>
<g mask="url(#mask13_185_9405)">
<path d="M631.602 431.47C632.804 434.483 632.489 437.918 633.592 440.968C634.685 443.994 637.091 446.379 639.749 448.19C643.238 450.568 647.218 452.11 651.183 453.557C655.936 455.291 660.726 456.918 665.55 458.438C665.988 458.576 666.476 458.753 666.668 459.17C666.823 459.5 666.744 459.892 666.616 460.234C665.929 462.06 664.031 463.119 662.193 463.78C657.795 465.359 652.993 465.534 648.353 464.975C638.86 463.827 629.528 459.399 623.736 451.785C622.869 450.644 622.079 449.43 621.574 448.087C620.958 446.451 620.788 444.687 620.655 442.945C620.348 438.84 620.229 434.717 620.306 430.6" fill="#1C1C1C"/>
</g>
<path d="M598.659 510.258C602.873 511.074 607.005 511.16 608.692 515.107C610.062 518.313 611.581 521.403 613.33 524.419C614.886 527.102 616.957 529.27 619.543 530.98C620.708 531.751 624.875 532.124 625.929 531.498C629.342 529.47 632.755 527.442 636.168 525.414C639.057 530.98 641.04 537.017 642.015 543.211C642.106 543.793 642.155 538.562 641.729 538.966C641.443 539.235 640.65 538.946 640.638 539.336C640.409 546.363 620.572 543.968 612.157 538.71C603.74 533.452 597.162 525.311 593.783 515.975" fill="#4A4848"/>
</g>
<path d="M954.185 233.897H468.205V252.315H954.185V233.897Z" fill="#D2233C"/>
<path d="M1007.68 380.612H995.432V452.902H1007.68V380.612Z" fill="#A1C2F9"/>
<path d="M1011.38 437.275H991.744V522.258H1011.38V437.275Z" fill="#A1C2F9"/>
<path d="M731.187 143.827L646.628 139.209C646.628 139.209 642.9 139.926 644.742 147.161L666.064 222.955C666.825 225.663 669.285 227.54 672.095 227.562L756.306 228.201L731.184 143.827H731.187Z" fill="#A1C2F9"/>
<mask id="mask14_185_9405" style="mask-type:luminance" maskUnits="userSpaceOnUse" x="644" y="139" width="113" height="90">
<path d="M731.187 143.827L646.628 139.209C646.628 139.209 642.9 139.926 644.742 147.161L666.064 222.955C666.825 225.663 669.285 227.54 672.095 227.562L756.306 228.201L731.184 143.827H731.187Z" fill="white"/>
</mask>
<g mask="url(#mask14_185_9405)">
<path d="M729.316 145.352L752.814 224.896L673.994 224.877L649.547 140.444L729.316 145.352Z" fill="white"/>
<path d="M728.961 145.45C729.172 146.162 729.382 146.877 729.593 147.589C730.162 149.518 730.734 151.447 731.303 153.377C732.145 156.227 732.987 159.078 733.829 161.929C734.856 165.406 735.883 168.882 736.91 172.362C738.036 176.171 739.161 179.978 740.286 183.787C741.427 187.648 742.567 191.509 743.707 195.37C744.766 198.955 745.825 202.54 746.884 206.125C747.778 209.156 748.674 212.184 749.568 215.215L751.499 221.754C751.701 222.437 751.9 223.117 752.102 223.799C752.203 224.144 752.272 224.531 752.415 224.861C752.432 224.903 752.442 224.952 752.455 224.997C752.573 224.842 752.691 224.684 752.812 224.529C752.107 224.529 751.4 224.529 750.696 224.529C748.788 224.529 746.881 224.529 744.973 224.529C742.141 224.529 739.306 224.529 736.474 224.529C733.034 224.529 729.593 224.529 726.151 224.526C722.366 224.526 718.578 224.526 714.793 224.524C710.988 224.524 707.183 224.524 703.378 224.521C699.815 224.521 696.251 224.521 692.688 224.519C689.688 224.519 686.691 224.519 683.692 224.519C681.524 224.519 679.36 224.519 677.193 224.519C676.52 224.519 675.846 224.519 675.173 224.519C674.833 224.519 674.462 224.477 674.124 224.519C674.08 224.524 674.033 224.519 673.989 224.519C674.107 224.61 674.225 224.699 674.346 224.79C674.127 224.033 673.907 223.277 673.688 222.52C673.095 220.473 672.504 218.425 671.91 216.38C671.033 213.354 670.159 210.331 669.283 207.305C668.209 203.6 667.138 199.894 666.064 196.188L662.552 184.06C661.37 179.98 660.188 175.9 659.008 171.819C657.907 168.015 656.804 164.211 655.703 160.404C654.772 157.186 653.842 153.97 652.908 150.755C652.236 148.431 651.564 146.11 650.891 143.787C650.684 143.07 650.475 142.353 650.268 141.636C650.162 141.266 650.088 140.855 649.938 140.5C649.918 140.456 649.911 140.404 649.896 140.357C649.778 140.512 649.66 140.67 649.539 140.825C650.251 140.87 650.965 140.914 651.677 140.956C653.605 141.074 655.533 141.192 657.462 141.311C660.326 141.488 663.19 141.663 666.054 141.84C669.551 142.055 673.045 142.272 676.542 142.486C680.355 142.72 684.167 142.954 687.979 143.191C691.846 143.43 695.71 143.666 699.576 143.905C703.181 144.127 706.784 144.349 710.39 144.57C713.424 144.758 716.455 144.943 719.489 145.13C721.681 145.265 723.873 145.398 726.064 145.534C727.099 145.598 728.141 145.701 729.177 145.726C729.222 145.726 729.266 145.731 729.31 145.733C729.786 145.763 729.783 145.024 729.31 144.994C728.599 144.95 727.884 144.906 727.173 144.864C725.244 144.745 723.316 144.627 721.388 144.509C718.524 144.331 715.66 144.157 712.796 143.979C709.299 143.765 705.804 143.548 702.307 143.334C698.495 143.099 694.683 142.865 690.87 142.629C687.004 142.392 683.14 142.153 679.274 141.917C675.668 141.695 672.065 141.473 668.46 141.251C665.426 141.064 662.394 140.879 659.36 140.692C657.169 140.557 654.977 140.424 652.785 140.288C651.751 140.224 650.709 140.121 649.672 140.096C649.628 140.096 649.584 140.091 649.539 140.088C649.3 140.074 649.121 140.337 649.182 140.557C649.401 141.313 649.621 142.07 649.84 142.826C650.433 144.874 651.024 146.921 651.618 148.966C652.494 151.992 653.369 155.015 654.245 158.041C655.319 161.747 656.39 165.453 657.464 169.158C658.634 173.202 659.806 177.243 660.976 181.286C662.158 185.366 663.338 189.447 664.52 193.527C665.62 197.331 666.724 201.136 667.825 204.943C668.755 208.158 669.686 211.376 670.62 214.591C671.292 216.915 671.964 219.236 672.637 221.56C672.954 222.654 673.25 223.76 673.59 224.846C673.605 224.893 673.617 224.94 673.632 224.989C673.676 225.145 673.824 225.26 673.989 225.26H676.104C678.013 225.26 679.919 225.26 681.827 225.26C684.659 225.26 687.494 225.26 690.326 225.26C693.766 225.26 697.207 225.26 700.65 225.263C704.435 225.263 708.222 225.263 712.008 225.265C715.812 225.265 719.617 225.265 723.422 225.268C726.985 225.268 730.549 225.268 734.113 225.27C737.112 225.27 740.109 225.27 743.109 225.27C745.276 225.27 747.44 225.27 749.608 225.27C750.63 225.27 751.654 225.297 752.676 225.27C752.72 225.27 752.765 225.27 752.812 225.27C753.048 225.27 753.235 225.034 753.169 224.802C752.957 224.09 752.748 223.375 752.536 222.663C751.967 220.734 751.396 218.805 750.827 216.876C749.984 214.025 749.142 211.174 748.3 208.323C747.273 204.846 746.246 201.37 745.219 197.891C744.094 194.081 742.968 190.275 741.843 186.465C740.703 182.604 739.562 178.743 738.422 174.882C737.363 171.297 736.304 167.712 735.245 164.127C734.351 161.096 733.455 158.068 732.561 155.037C731.918 152.857 731.273 150.679 730.63 148.498C730.325 147.463 730.039 146.421 729.714 145.393C729.699 145.349 729.687 145.302 729.675 145.258C729.539 144.802 728.828 144.997 728.963 145.455L728.961 145.45Z" fill="#A1C2F9"/>
<g style="mix-blend-mode:multiply">
<path d="M644.029 129.873L673.118 230.595L656.704 233.3L626.305 141.461L644.029 129.873Z" fill="#C6D9FA"/>
</g>
</g>
<path d="M825.283 227.027H674.791C673.159 227.027 671.836 228.351 671.836 229.984V230.612C671.836 232.245 673.159 233.569 674.791 233.569H825.283C826.915 233.569 828.238 232.245 828.238 230.612V229.984C828.238 228.351 826.915 227.027 825.283 227.027Z" fill="#A1C2F9"/>
<mask id="mask15_185_9405" style="mask-type:luminance" maskUnits="userSpaceOnUse" x="671" y="227" width="158" height="7">
<path d="M825.283 227.027H674.791C673.159 227.027 671.836 228.351 671.836 229.984V230.612C671.836 232.245 673.159 233.569 674.791 233.569H825.283C826.915 233.569 828.238 232.245 828.238 230.612V229.984C828.238 228.351 826.915 227.027 825.283 227.027Z" fill="white"/>
</mask>
<g mask="url(#mask15_185_9405)">
<g style="mix-blend-mode:multiply">
<path d="M743.837 221.114H640.764V235.562H743.837V221.114Z" fill="#C6D9FA"/>
</g>
</g>
<path d="M920.746 533.525L957.6 521.432C988.674 511.236 1021.11 511.273 1052.17 521.541C1052.17 521.541 1069.66 527.321 1090.75 534.292C973.019 546.816 920.746 533.525 920.746 533.525Z" fill="#A1C2F9"/>
<path d="M290.277 533.525L327.131 521.432C358.205 511.236 390.641 511.273 421.701 521.541C421.701 521.541 439.195 527.321 460.278 534.292C342.55 546.816 290.277 533.525 290.277 533.525Z" fill="#A1C2F9"/>
<path d="M1167.27 277.085H1027.73C1024.2 277.085 1021.34 274.222 1021.34 270.689C1021.34 263.47 1027.19 257.618 1034.4 257.618L1170.6 258.024C1177.35 258.468 1176.44 267.907 1176.44 267.907C1176.44 272.976 1175.62 277.32 1167.27 277.085H1167.27Z" fill="#A1C2F9"/>
<mask id="mask16_185_9405" style="mask-type:luminance" maskUnits="userSpaceOnUse" x="1021" y="257" width="156" height="21">
<path d="M1167.27 277.085H1027.73C1024.2 277.085 1021.34 274.222 1021.34 270.689C1021.34 263.47 1027.18 257.618 1034.4 257.618L1170.6 258.024C1177.35 258.468 1176.44 267.907 1176.44 267.907C1176.44 272.976 1175.62 277.32 1167.26 277.085H1167.27Z" fill="white"/>
</mask>
<g mask="url(#mask16_185_9405)">
<g style="mix-blend-mode:multiply">
<path d="M1051.67 256.066C1051.67 256.066 1032.14 255.622 1029.03 272.495L1182.14 271.608L1175.93 291.145L1007.29 281.821L1016.16 254.292L1051.67 256.068V256.066Z" fill="#C6D9FA"/>
</g>
</g>
<path d="M526.566 251.007H511.107V544.975H526.566V251.007Z" fill="#D2233C"/>
<path d="M921.316 251.007H905.857V544.975H921.316V251.007Z" fill="#D2233C"/>
</svg>
