<svg width="611" height="760" viewBox="0 0 611 760" fill="none" xmlns="http://www.w3.org/2000/svg">
<g clip-path="url(#clip0_330_3067)">
<path d="M659.883 674.698L612.061 626.874L534.137 555.527L516.196 530.699L486.809 563.998L416.028 569.668L143.089 497.189L87.4855 523.368L432.065 619.477L436.064 605.888L491.72 632.472L508.613 591.199C508.613 591.199 513.47 572.648 537.454 599.931C537.454 599.931 555.248 619.593 590.127 640.338C590.127 640.338 634.151 665.576 649.05 699.287L659.906 674.708L659.883 674.698Z" fill="#EFEFEF"/>
<path d="M513.233 152.397L421.228 592.632L85.7268 522.581L177.731 82.3459L513.233 152.397Z" fill="#DCDCDC"/>
<path d="M473.244 175.171L471.363 184.136L203.709 128.056L205.589 119.091L473.244 175.171Z" fill="#A3A3A3"/>
<path d="M467.241 203.753L465.36 212.718L197.706 156.638L199.586 147.673L467.241 203.753Z" fill="#A3A3A3"/>
<path d="M461.233 232.36L459.352 241.325L191.698 185.245L193.578 176.28L461.233 232.36Z" fill="#A3A3A3"/>
<path d="M455.247 260.976L453.367 269.941L185.712 213.861L187.592 204.896L455.247 260.976Z" fill="#A3A3A3"/>
<path d="M449.244 289.558L447.364 298.523L179.709 242.443L181.589 233.478L449.244 289.558Z" fill="#A3A3A3"/>
<path d="M443.268 318.153L441.388 327.118L173.734 271.038L175.614 262.073L443.268 318.153Z" fill="#A3A3A3"/>
<path d="M437.265 346.735L435.385 355.7L167.731 299.62L169.611 290.655L437.265 346.735Z" fill="#A3A3A3"/>
<path d="M431.279 375.351L429.399 384.316L161.745 328.236L163.625 319.271L431.279 375.351Z" fill="#A3A3A3"/>
<path d="M425.252 403.929L423.372 412.894L155.718 356.814L157.598 347.849L425.252 403.929Z" fill="#A3A3A3"/>
<path d="M419.254 432.513L417.374 441.478L149.72 385.398L151.6 376.433L419.254 432.513Z" fill="#A3A3A3"/>
<path d="M413.274 461.105L411.393 470.07L143.739 413.99L145.619 405.025L413.274 461.105Z" fill="#A3A3A3"/>
<path d="M407.266 489.712L405.385 498.677L137.731 442.597L139.611 433.632L407.266 489.712Z" fill="#A3A3A3"/>
<path d="M401.28 518.328L399.4 527.293L131.745 471.213L133.626 462.248L401.28 518.328Z" fill="#A3A3A3"/>
<path d="M395.277 546.911L393.397 555.876L125.742 499.796L127.622 490.831L395.277 546.911Z" fill="#A3A3A3"/>
<g style="mix-blend-mode:multiply" opacity="0.5">
<path d="M423.057 583.668L421.21 592.625L152.972 476.746L315.328 111.073L328.66 113.944L423.057 583.668Z" fill="#D07E29"/>
</g>
<path d="M447.232 470.066C447.232 470.066 437.376 473.831 436.602 479.631C436.602 479.631 434.932 489.094 446.875 492.633C446.875 492.633 438.395 498.234 443.34 506.56C443.34 506.56 451.677 519.108 468.557 510.38C468.557 510.38 464.86 520.684 474.496 523.284C474.496 523.284 490.023 528.86 505.183 513.632L539.647 511.202L548.007 515.482C548.007 515.482 563.345 509.278 563.368 508.38C563.391 507.482 562.765 492.038 562.765 492.038L557.41 479.446C557.41 479.446 548.816 468.867 547.622 469.275C546.428 469.682 499.571 463.487 499.571 463.487L486.678 455.149L447.242 470.044L447.232 470.066Z" fill="#D78067"/>
<path d="M448.189 445.601C448.189 445.601 455.637 440.158 474.586 440.222L501.853 437.711C501.853 437.711 516.44 434.781 526.23 437.876L537.34 438.404C537.34 438.404 559.128 439.294 574.274 443.073C574.274 443.073 592.037 446.005 597.025 445.591C597.025 445.591 609.117 443.775 614.55 446.522C614.55 446.522 629.083 442.926 635.39 455.058C635.39 455.058 639.079 460.907 640.023 473.394C640.023 473.394 648.988 527.128 651.004 535.256C651.004 535.256 658.287 570.196 664.875 578.607C664.875 578.607 674.127 591.078 691.464 603.194L657.742 679.547C657.742 679.547 647.345 668.52 641.077 664.763C641.077 664.763 627.287 655.495 620.378 650.227C620.378 650.227 608.646 641.014 604.493 638.752C604.493 638.752 597.087 633.825 592.876 629.883C592.876 629.883 586.864 623.249 582.184 620.007C582.184 620.007 549.23 596.293 532.309 565.347C532.309 565.347 515.364 539.171 502.907 526.219C502.907 526.219 492.569 515.965 487.665 512.865C487.665 512.865 475.292 501.899 469.594 493.347L456.922 478.405C456.922 478.405 452.511 473.466 451.899 471.406C451.899 471.406 429.843 465.564 431.742 454.012C431.742 454.012 433.854 448.322 448.179 445.623L448.189 445.601ZM546.552 512.489C552.734 515.353 557.346 507.51 557.346 507.51C557.832 504.173 560.154 496.68 560.154 496.68C555.126 489.813 553.287 479.654 553.287 479.654C525.754 480.472 507.346 469.512 507.346 469.512C537.683 509.667 546.562 512.467 546.562 512.467L546.552 512.489Z" fill="#F9B48B"/>
<path d="M657.584 679.904C657.584 679.904 648.657 668.992 634.981 660.736C634.981 660.736 623.477 652.397 617.107 647.661C617.107 647.661 607.844 640.472 604.041 638.445C604.041 638.445 593.983 631.546 591.658 628.41C591.658 628.41 585.387 622.302 581.871 619.868C581.871 619.868 557.314 601.679 539.404 576.599C539.404 576.599 524.695 552.852 518.118 544.9C518.118 544.9 506.936 527.491 487.802 512.978C487.802 512.978 474.296 500.952 469.47 493.506C469.47 493.506 455.034 477.544 451.371 471.333C451.371 471.333 430.071 465.531 431.911 454.353C431.911 454.353 442.712 459.391 450.91 452.01C450.91 452.01 441.581 462.496 466.15 483.014C466.15 483.014 478.993 496.724 487.163 492.909C487.163 492.909 482.946 505.6 497.705 503.306C497.705 503.306 496.357 515.849 507.202 510.812C507.202 510.812 513.888 523.111 527.505 535.854C527.505 535.854 546.728 571.982 575.857 597.104C575.857 597.104 592.454 624.008 663.024 667.647L657.596 679.937L657.584 679.904Z" fill="#EB9A7B"/>
<path d="M526.807 493.861C526.807 493.861 540.682 509.523 546.351 512.4C546.351 512.4 552 515.082 557.299 507.435C557.299 507.435 559.179 499.854 560.073 496.804C560.073 496.804 554.638 488.742 553.277 479.676C553.277 479.676 531.499 481.727 507.672 469.922C507.672 469.922 487.24 449.042 469.627 445.589C469.627 445.589 459.027 442.937 450.888 452C450.888 452 457.608 441.135 471.243 443.259C471.243 443.259 489.439 447.93 507.817 463.551C507.817 463.551 554.717 473.636 574.747 463.336C574.747 463.336 561.459 486.895 587.132 487.873C587.132 487.873 605.343 484.593 588.848 515.414C588.848 515.414 576.402 541.721 546.028 516.637C546.028 516.637 536.126 507.511 526.797 493.884L526.807 493.861Z" fill="#EB9A7B"/>
<path d="M454.359 456.951C451.542 460.006 451.987 464.982 455.325 468.059L461.692 473.889C465.031 476.966 470.027 476.956 472.844 473.901L475.723 470.766C478.541 467.711 478.096 462.735 474.757 459.658L468.39 453.828C465.051 450.751 460.056 450.761 457.238 453.816L454.359 456.951Z" fill="#FBD9BA"/>
<path d="M448.189 445.601C448.189 445.601 434.498 447.832 431.752 453.989C431.752 453.989 450.932 454.075 448.189 445.601Z" fill="#FBD9BA"/>
<path d="M691.592 602.903C691.592 602.903 682.242 596.878 667.055 581.225C667.055 581.225 662.39 576.921 658.748 564.738C658.748 564.738 649.981 538.115 643.49 493.163L640.046 473.403C640.046 473.403 640.053 441.175 614.595 446.541C614.595 446.541 609.269 443.975 597.069 445.61C597.069 445.61 590.189 445.536 583.599 444.441L574.054 443.029C574.054 443.029 552.293 438.332 526.242 437.908C526.242 437.908 518.93 435.186 505.457 437.166C505.457 437.166 479.452 439.781 473.563 440.304C473.563 440.304 454.805 440.351 448.179 445.623C448.179 445.623 448.503 446.46 448.499 447.073C448.499 447.073 460.419 440.935 473.125 441.9L505.002 441.158C505.002 441.158 514.894 438.824 526.506 444.14C526.506 444.14 571.656 451.904 573.603 452.63C573.603 452.63 589.014 456.9 596.528 455.358C596.528 455.358 627.156 452.73 628.725 476.494C628.725 476.494 637.212 541.341 646.643 564.225C646.643 564.225 651.909 581.372 659.58 587.937L686.954 613.406L691.582 602.926L691.592 602.903Z" fill="#FDD2A3"/>
<path d="M327.639 70.1268L641.153 208.592L520.649 481.437L512.261 471.717C509.121 468.078 505.682 464.709 501.98 461.645L492.751 454.008C489.434 451.263 485.754 448.988 481.816 447.249L480.28 446.571C479.036 446.021 477.75 445.571 476.435 445.225C469.323 443.354 461.218 443.653 454.917 447.444C453.449 448.328 452.087 449.365 450.975 450.666C447.329 454.93 448.12 466.442 450.75 471.129C453.38 475.815 460.709 483.165 464.54 487.794C468.37 492.424 472.75 498.47 475.757 500.974C478.764 503.477 478.604 505.169 483.36 509.032C486.489 511.573 489.995 515.419 492.348 517.674C493.217 518.508 494.255 519.131 495.356 519.617L496.923 520.31C497.713 520.658 498.417 521.173 498.99 521.819C500.545 523.574 500.935 526.075 499.987 528.22L459.448 620.009L145.934 481.543L327.639 70.1268Z" fill="#F6F7E8"/>
<path d="M342.743 121.686L592.669 232.068L588.623 241.229L338.696 130.848L342.743 121.686Z" fill="#DCDDD2"/>
<path d="M299.56 218.615L550.223 329.322L546.177 338.484L295.514 227.776L299.56 218.615Z" fill="#DCDDD2"/>
<path d="M288.292 244.187L538.956 354.895L534.91 364.056L284.246 253.349L288.292 244.187Z" fill="#DCDDD2"/>
<path d="M277.025 269.76L527.688 380.467L523.642 389.629L272.978 278.921L277.025 269.76Z" fill="#DCDDD2"/>
<path d="M265.757 295.333L516.421 406.04L512.374 415.201L261.711 304.494L265.757 295.333Z" fill="#DCDDD2"/>
<path d="M243.158 346.544L455.535 440.342L451.626 449.191L239.25 355.393L243.158 346.544Z" fill="#DCDDD2"/>
<path d="M231.868 372.108L444.244 465.905L440.336 474.754L227.959 380.957L231.868 372.108Z" fill="#DCDDD2"/>
<path d="M220.664 397.613L471.328 508.32L467.282 517.482L216.618 406.774L220.664 397.613Z" fill="#DCDDD2"/>
<path d="M209.374 423.176L460.038 533.883L455.992 543.044L205.328 432.337L209.374 423.176Z" fill="#DCDDD2"/>
<path d="M198.107 448.748L448.77 559.456L444.724 568.617L194.061 457.91L198.107 448.748Z" fill="#DCDDD2"/>
<path d="M526.3 234.88L581.043 259.058L555.966 315.836L501.223 291.659L526.3 234.88Z" fill="#DCDDD2"/>
<path d="M330.672 148.533L512.5 228.838L509.648 235.296L327.82 154.991L330.672 148.533Z" fill="#DCDDD2"/>
<path d="M323.273 165.346L505.101 245.652L502.249 252.11L320.421 171.804L323.273 165.346Z" fill="#DCDDD2"/>
<path d="M315.852 182.15L497.679 262.455L494.827 268.913L313 188.607L315.852 182.15Z" fill="#DCDDD2"/>
<path d="M308.453 198.963L490.28 279.269L487.428 285.726L305.601 205.421L308.453 198.963Z" fill="#DCDDD2"/>
</g>
<defs>
<clipPath id="clip0_330_3067">
<rect width="680.381" height="529.901" fill="white" transform="matrix(-0.914755 -0.404008 -0.404008 0.914755 836.466 274.879)"/>
</clipPath>
</defs>
</svg>
