<svg width="743" height="283" viewBox="0 0 743 283" fill="none" xmlns="http://www.w3.org/2000/svg"><path fill-rule="evenodd" clip-rule="evenodd" d="M949.118 218.098c35.57 68.775 47.07 144.188 47.262 221.606.215 86.345 10.42 183.186-46.092 248.432-56.736 65.512-154.191 69.935-240.023 81.933-79.91 11.17-160.156 13.087-235.653-15.441-79.029-29.862-153.195-76.606-197.828-148.357-45.517-73.171-74.757-165.467-48.414-247.488 25.069-78.055 121.694-101.058 179.137-159.526 53.601-54.558 74.236-141.625 145.071-170.467 75.644-30.8 164.908-20.967 238.641 14.233 72.688 34.7 120.891 103.519 157.899 175.075Z" fill="#A2D9D3" fill-opacity=".5"/><path clip-rule="evenodd" d="M948.656 207.023c36.737 71.031 48.614 148.918 48.813 228.876.222 89.178 10.761 189.196-47.604 256.583-58.598 67.66-159.251 72.229-247.898 84.62-82.532 11.537-165.411 13.517-243.385-15.947-81.621-30.841-158.221-79.12-204.318-153.224-47.011-75.572-77.21-170.896-50.003-255.609 25.892-80.615 125.687-104.373 185.014-164.759 55.36-56.348 76.672-146.272 149.831-176.06 78.126-31.81 170.318-21.655 246.47 14.7 75.073 35.84 124.857 106.915 163.08 180.82Z" stroke="#A2D9D3" stroke-opacity=".25" stroke-width="6"/><path clip-rule="evenodd" d="M948.058 187.974c38.256 73.969 50.624 155.078 50.831 238.343.232 92.866 11.201 197.021-49.573 267.196-61.022 70.459-165.837 75.216-258.151 88.12-85.946 12.014-172.253 14.076-253.452-16.607-84.997-32.117-164.765-82.392-212.769-159.562-48.955-78.698-80.404-177.964-52.071-266.18 26.963-83.95 130.885-108.691 192.667-171.575 57.65-58.678 79.843-152.322 156.028-183.341C602.926-48.758 698.931-38.184 778.232-.325c78.179 37.322 130.022 111.338 169.826 188.299Z" stroke="#A2D9D3" stroke-opacity=".25" stroke-width="6"/><path clip-rule="evenodd" d="M953.202 165.593c39.691 76.743 52.518 160.895 52.738 247.283.24 96.35 11.62 204.412-51.433 277.219-63.311 73.102-172.058 78.037-267.835 91.425-89.169 12.465-178.714 14.604-262.959-17.229-88.185-33.322-170.945-85.483-220.75-165.548-50.791-81.649-83.419-184.64-54.024-276.165 27.974-87.098 135.795-112.768 199.894-178.01 59.812-60.88 82.838-158.036 161.88-190.219 84.41-34.369 184.017-23.397 266.293 15.882C858.117 8.953 911.904 85.745 953.202 165.593Z" stroke="#A2D9D3" stroke-opacity=".25" stroke-width="6"/></svg>