<svg width="247" height="237" viewBox="0 0 247 237" fill="none" xmlns="http://www.w3.org/2000/svg"><path d="M241.326 11.01c-1.251-11.258-29.61-3.574-35.123-1.82-36.221 11.525-69.986 31.936-94.682 61.152-35.27 41.724-51.193 94.883-32.963 146.968.59 1.686 4.842 9.061.91 6.252-7.66-5.471-16.242-9.447-23.075-16.027-3.86-3.716-46.423-35.669-49.899-27.848-7.042 15.847 38.799 36.562 47.285 40.92 7.267 3.732 15.948 5.628 22.733 9.775 7.302 4.462 7.936-6.2 10.23-11.594 15.437-36.299 45.357-72.166 76.837-95.251" stroke="#D9315A" stroke-width="10" stroke-linecap="round"/></svg>