<svg width="247" height="237" viewBox="0 0 247 237" fill="none" xmlns="http://www.w3.org/2000/svg">
<path d="M241.326 11.0091C240.075 -0.248213 211.716 7.43635 206.203 9.19042C169.982 20.7153 136.217 41.1263 111.521 70.342C76.251 112.066 60.328 165.225 78.5578 217.31C79.1478 218.996 83.3999 226.371 79.4671 223.562C71.8071 218.091 63.2263 214.115 56.3932 207.535C52.5335 203.819 9.97038 171.866 6.49437 179.687C-0.548434 195.534 45.2928 216.249 53.7789 220.607C61.0465 224.339 69.7266 226.235 76.5118 230.382C83.8138 234.844 84.4475 224.182 86.7416 218.788C102.179 182.489 132.099 146.622 163.579 123.537" stroke="#D9315A" stroke-width="10" stroke-linecap="round"/>
</svg>
