<svg width="24" height="24" viewBox="0 0 24 24" fill="none" xmlns="http://www.w3.org/2000/svg"><g clip-path="url(#a)"><path d="M7.683 0v8.035h7.775c.28 0 .502.236.502.483v7.802h8.025V.502A.502.502 0 0 0 23.483 0h-15.8Zm-.5.5L.085 7.607a.251.251 0 0 0 .178.428h6.92V.5Zm.5 8.035v7.283c0 .278.224.502.502.502h7.275V9.018c0-.278-.224-.482-.502-.483H7.683Zm8.277 8.285v6.928c0 .224.27.336.43.178l7.095-7.106H15.96Z" fill="#626262"/></g><defs><clipPath id="a"><path fill="#fff" d="M0 0h24v24H0z"/></clipPath></defs></svg>