<svg width="773" height="149" viewBox="0 0 773 149" fill="none" xmlns="http://www.w3.org/2000/svg"><path d="M224.691 53.353c-52.568-5.465-106.09-14.534-159.13-14.534-8.811 0-22.086-3.451-27.217 5.204-.88 1.483 3.835 1.256 4.433 1.256H19.904c-5.92 0-22.18-1.615-8.688-1.615 11.606 0 22.477 1.11 34.043 2.332 16.25 1.719 32.139 4.174 48.315 6.64 52.266 7.965 104.841 12.452 157.358 18.3 128.784 14.342 256.208 29.295 385.992 25.928 9.705-.252 3.333-6.098-1.951-6.37-14.946-.769-29.982.458-44.946-.27-35.697-1.733-71.508-6.873-107.092-10.226-52.248-4.924-104.647-9.811-156.649-16.956-33.516-4.605-65.801-3.211-99.379-5.742-8.342-.628-16.256-3.026-24.468-3.857-3.647-.37-12.97-.09-2.571-.09 82.954 0 165.889 13.57 248.758 17.494 56.93 2.695 113.771 6.008 170.745 6.728 1.513.02 10.497 1.692 3.9 3.589-10.024 2.882-21.825 2.5-32.003 2.602-32.258.323-64.683-.835-96.897-2.423C377.235 75.57 262.469 50.294 146.5 34.693c-19.455-2.618-38.93-5.295-58.422-7.626-5.81-.695-13.392-.228-18.794-3.05-4.71-2.46-8.652-6.625-13.21-9.42-5.087-3.12-21.913-6.289-16.134-7.715 8.785-2.169 24.127.292 32.27.717 27.236 1.424 54.236 4.53 81.293 7.895 52.854 6.573 105.552 14.302 158.51 20.006 59.813 6.443 119.97 10.628 179.698 17.673 25.731 3.036 51.099 7.689 76.951 9.869 10.81.911 21.953.225 31.826 4.665 1.325.596 4.992-1.044 4.344.27-2.153 4.356-9.556 1.254-14.362 1.524-24.029 1.351-48.104 1.563-72.163 1.615-80.427.172-161.168 1.724-241.577-.27-35.784-.886-70.733-6.267-106.117-9.778-.868-.086-14.897-3.153-9.042-2.87 15.867.764 33.499 6.34 48.936 9.868 44.067 10.07 87.879 20.041 132.446 27.81 55.463 9.67 111.645 14.156 167.641 19.469 54.437 5.164 109.233 7.446 163.918 7.446 1.214 0 11.302-.657 11.525.359.706 3.214-15.359 4.238-16.046 4.216-22.132-.711-44.474-4.423-66.578-6.1-44.511-3.379-89.11-.786-133.51-6.549a1833.084 1833.084 0 0 0-91.046-9.51c-19.928-1.582 39.968 1.761 59.84 3.947 53.516 5.887 107.859 13.367 159.752 27.991 21.557 6.075 41.833 5.024 64.184 5.024h66.755c3.637 0 36.349 2.328 37.589-.808.445-1.126-5.603-.839-6.117-.897-3.992-.449-3.253-3.467-5.497-4.396-9.075-3.757-25.898-.357-35.283-.717-36.224-1.391-68.75-9.305-103.635-18.392-72.548-18.896-144.77-25.534-219.06-32.565-1.977-.188-24.522-2.915-22.517-3.23 12.635-1.989 28.422 2.549 40.957 3.858 105.876 11.054 212.528 9.7 318.528 19.916 3.264.314 26.144-1.525 11.79-1.525-36.842 0-73.712.439-110.549-.18-34.078-.572-67.856-5.802-101.861-6.28-7.976-.112-15.96 0-23.937 0-16.223 0 32.448-.108 48.671.09 26.226.32 51.683 4.371 77.748 6.19 17.944 1.253 36.067.853 53.9 3.409 17.148 2.459 33.989 3.771 51.241 4.935 4.814.324 15.294 4.754 4.61 4.754h-73.493c-3.44 0-19.817-.398-7.535-1.973 23.198-2.976 46.813-.504 70.124-1.346 7.328-.265 14.561-1.293 21.897-1.525 7.729-.245-15.407-1.536-23.138-1.705-80.035-1.741-160.967-7.844-240.514-16.058-41.641-4.3-83.191-8.813-123.404-20.993-26.508-8.03-52.42-17.304-78.546-26.465-8.973-3.147-20.068-5.765-28.014-11.394-.765-.542 1.726-.93 2.66-.897 18.682.644 37.598 4.522 56.028 7.177 30.887 4.45 61.826 8.675 92.553 14.175 14.071 2.518 28.49 2.4 42.464 5.293 30.198 6.25-61.642 1.012-92.464.807-41.477-.276-83.489 1.555-124.29-7.087-.497-.106-10.461-2.235-10.461-.18 0 1.754 4.898-.403 4.432 2.423-1.817 11.037-48.678 1.718-53.368 1.614-21.316-.469-39.815-4.227-59.929-10.406-14.195-4.36-30.06-4.655-44.68-8.254-10.767-2.65-21.763-4.294-32.448-7.177-3.114-.84-3.711-4.152-6.205-5.741-3.277-2.088-7.335.152-10.727-2.423-3.195-2.425-14.189-6.37-10.195-6.37 18.563 0 37.366 3.477 55.762 5.652 11.73 1.388 23.38 2.423 35.195 2.423 10.435 0-4.666-.143-6.915-.36-15.888-1.524-31.754-5.866-46.808-10.944" stroke="#381067" stroke-width="11" stroke-linecap="round"/></svg>