<svg width="24" height="24" viewBox="0 0 24 24" fill="none" xmlns="http://www.w3.org/2000/svg"><path fill-rule="evenodd" clip-rule="evenodd" d="M1 3.388A2.402 2.402 0 0 1 3.388 1h17.51a2.404 2.404 0 0 1 2.388 2.388v4.541c0 6.585-3.996 12.744-10.205 15.166a2.578 2.578 0 0 1-.948.19 2.584 2.584 0 0 1-.926-.19C4.996 20.673 1 14.514 1 7.93V3.388Zm16.81 4.788a1.193 1.193 0 1 0-1.783-1.586l-5.638 6.343-2.306-1.73a1.193 1.193 0 1 0-1.433 1.91l3.184 2.388a1.193 1.193 0 0 0 1.608-.163l6.367-7.164.001.002Z" fill="#0475C7"/></svg>