<svg width="24" height="24" viewBox="0 0 24 24" fill="none" xmlns="http://www.w3.org/2000/svg">
<path fill-rule="evenodd" clip-rule="evenodd" d="M1 3.388C1 2.07829 2.08171 1 3.388 1H20.8977C22.2023 1 23.2857 2.08 23.2857 3.388V7.92914C23.2857 14.5137 19.2897 20.6731 13.0806 23.0954C12.7794 23.2181 12.4577 23.2826 12.1326 23.2857C11.8149 23.2797 11.5011 23.2152 11.2069 23.0954C4.996 20.6731 1 14.5137 1 7.92914V3.388ZM17.8103 8.176C17.9172 8.05939 17.9998 7.92268 18.0534 7.77384C18.107 7.62499 18.1304 7.46697 18.1224 7.30898C18.1143 7.15099 18.0749 6.99618 18.0065 6.85355C17.9381 6.71092 17.8419 6.58333 17.7237 6.47819C17.6055 6.37306 17.4676 6.29248 17.318 6.24115C17.1683 6.18981 17.01 6.16875 16.8521 6.17918C16.6943 6.18961 16.5401 6.23133 16.3985 6.3019C16.2569 6.37248 16.1308 6.47051 16.0274 6.59029L10.3891 12.9331L8.08343 11.2034C7.95803 11.1093 7.81533 11.0408 7.66348 11.0019C7.51162 10.9629 7.35357 10.9543 7.19836 10.9764C7.04316 10.9985 6.89383 11.051 6.7589 11.1309C6.62398 11.2107 6.5061 11.3163 6.412 11.4417C6.3179 11.5671 6.24942 11.7098 6.21046 11.8617C6.17151 12.0135 6.16285 12.1716 6.18498 12.3268C6.20711 12.482 6.25959 12.6313 6.33942 12.7662C6.41926 12.9012 6.52489 13.019 6.65029 13.1131L9.83371 15.5011C10.0733 15.6807 10.3716 15.7636 10.6695 15.7334C10.9674 15.7033 11.243 15.5622 11.4417 15.3383L17.8086 8.17429L17.8103 8.176Z" fill="#0475C7"/>
</svg>
