<svg width="24" height="24" viewBox="0 0 24 24" fill="none" xmlns="http://www.w3.org/2000/svg">
<path d="M1.50055 11.8983L11.2974 2.1014C11.4708 1.92645 11.6849 1.7972 11.9205 1.72522C12.1561 1.65324 12.4058 1.64076 12.6474 1.6889L20.213 3.20765C20.3565 3.2363 20.4883 3.30679 20.5917 3.41024C20.6952 3.51368 20.7657 3.64544 20.7943 3.7889L22.313 11.3545C22.3612 11.5961 22.3487 11.8459 22.2767 12.0815C22.2047 12.317 22.0755 12.5311 21.9005 12.7045L12.1037 22.5014C11.9651 22.6414 11.8001 22.7526 11.6182 22.8284C11.4364 22.9043 11.2413 22.9434 11.0443 22.9434C10.8473 22.9434 10.6522 22.9043 10.4704 22.8284C10.2885 22.7526 10.1235 22.6414 9.98492 22.5014L1.50055 14.017C1.36052 13.8784 1.24937 13.7134 1.17351 13.5316C1.09764 13.3498 1.05858 13.1547 1.05858 12.9577C1.05858 12.7606 1.09764 12.5656 1.17351 12.3837C1.24937 12.2019 1.36052 12.0369 1.50055 11.8983ZM16.1255 9.0014C16.3481 9.0014 16.5656 8.93542 16.7506 8.81181C16.9356 8.68819 17.0798 8.51249 17.1649 8.30692C17.2501 8.10136 17.2723 7.87516 17.2289 7.65693C17.1855 7.4387 17.0784 7.23824 16.921 7.08091C16.7637 6.92357 16.5633 6.81643 16.345 6.77302C16.1268 6.72961 15.9006 6.75189 15.695 6.83704C15.4895 6.92219 15.3138 7.06638 15.1901 7.25139C15.0665 7.43639 15.0005 7.6539 15.0005 7.8764C15.0005 8.17477 15.1191 8.46092 15.3301 8.6719C15.541 8.88288 15.8272 9.0014 16.1255 9.0014Z" fill="#0475C7"/>
</svg>
