<svg width="48" height="48" viewBox="0 0 48 48" fill="none" xmlns="http://www.w3.org/2000/svg"><path d="m46.706 20.667-1.51-1.624a4.92 4.92 0 0 1-1.25-4.004l.305-2.237c.348-2.56-1.317-4.947-3.763-5.393l-2.138-.39c-1.398-.256-2.606-1.17-3.271-2.475L34.06 2.548C32.898.264 30.203-.647 27.972.488l-1.95.992a4.441 4.441 0 0 1-4.043 0l-1.95-.992c-2.231-1.135-4.925-.224-6.09 2.06l-1.017 1.996c-.665 1.306-1.873 2.219-3.271 2.474l-2.138.39c-2.446.448-4.11 2.833-3.763 5.394l.304 2.237a4.919 4.919 0 0 1-1.25 4.004l-1.509 1.624c-1.727 1.858-1.727 4.808 0 6.666l1.509 1.624a4.92 4.92 0 0 1 1.25 4.004l-.304 2.237c-.348 2.56 1.317 4.947 3.763 5.393l2.138.39c1.399.256 2.606 1.17 3.271 2.475l1.018 1.996c1.164 2.284 3.858 3.195 6.089 2.06l1.95-.992a4.44 4.44 0 0 1 4.043 0l1.95.992c2.231 1.136 4.925.224 6.09-2.06l1.017-1.996c.665-1.306 1.873-2.22 3.271-2.475l2.138-.39c2.446-.447 4.11-2.833 3.763-5.393l-.304-2.237a4.92 4.92 0 0 1 1.25-4.004l1.509-1.624c1.726-1.858 1.726-4.807 0-6.666ZM7.556 38.15c-.903 0-1.635-.763-1.635-1.704 0-.94.732-1.703 1.636-1.703.903 0 1.636.763 1.636 1.703 0 .941-.733 1.704-1.636 1.704Z" fill="#B9AF79"/><path d="M12.346 26.054v-4.38h1.586c.568 0 1 .104 1.297.31.296.207.444.507.444.9 0 .226-.052.42-.158.58a.919.919 0 0 1-.464.355c.23.06.408.173.531.337a.976.976 0 0 1 .185.602c0 .429-.137.751-.411.966-.274.216-.68.326-1.218.33h-1.792Zm1.064-2.553h.555c.233-.002.399-.044.498-.127.099-.083.149-.204.149-.365 0-.185-.054-.319-.161-.4-.108-.081-.28-.122-.519-.122h-.522v1.014Zm0 .691v1.05h.698c.192 0 .34-.043.443-.13a.456.456 0 0 0 .154-.369c0-.365-.182-.548-.549-.55h-.746Zm4.583.313h-.577v1.55h-1.064v-4.38h1.738c.524 0 .933.115 1.228.345.295.23.443.556.443.977 0 .304-.062.557-.186.757-.124.2-.32.363-.584.487l.922 1.768v.045h-1.14l-.78-1.549Zm-.576-.812h.673c.203 0 .355-.053.457-.158.102-.105.153-.253.153-.442s-.052-.337-.155-.444c-.103-.108-.255-.162-.455-.162h-.673v1.206Zm6.728.262c0 .427-.08.805-.24 1.134-.16.328-.386.581-.68.759-.294.178-.63.266-1.006.266s-.71-.086-1-.257a1.757 1.757 0 0 1-.682-.736 2.492 2.492 0 0 1-.256-1.098v-.246c0-.429.08-.808.238-1.135a1.76 1.76 0 0 1 .682-.76 1.923 1.923 0 0 1 1.012-.268c.374 0 .708.089 1.001.265.293.177.521.428.684.754.162.326.245.7.247 1.12v.202Zm-1.083-.184c0-.435-.073-.765-.22-.99a.706.706 0 0 0-.63-.34c-.533 0-.815.398-.846 1.192l-.003.322c0 .43.072.759.215.99.144.23.358.345.64.345.27 0 .477-.113.623-.34.145-.226.22-.552.221-.977v-.202Zm5.32 2.283h-1.059l-1.565-2.724v2.724h-1.065v-4.38h1.065L27.32 24.4v-2.725h1.062v4.38Zm1.871-.812h2.111v.812h-3.44v-.556l2.105-3.008h-2.117v-.815h3.43v.541l-2.09 3.026Zm5.332-1.047H33.91v1.047h1.978v.812h-3.042v-4.38h3.048v.816h-1.983v.924h1.674v.781ZM11.88 13.684l-.438.588 1.595 1.189-.352.473-1.595-1.189-.43.578-.365-.272 1.22-1.639.365.272Zm2.228-.092-.569.573.225.422-.444.447-1.103-2.358.39-.394 2.371 1.082-.446.449-.424-.22Zm-.793.152.37-.373-.787-.41.417.783Zm3.184-1.843a.948.948 0 0 1-.18.43c-.105.153-.242.29-.41.412-.26.188-.525.258-.795.211-.27-.046-.512-.207-.728-.481l-.125-.17a1.464 1.464 0 0 1-.266-.586.95.95 0 0 1 .053-.55c.071-.172.192-.318.36-.44.247-.179.48-.261.697-.247.218.014.42.125.605.333l-.46.333c-.097-.1-.19-.153-.278-.16a.424.424 0 0 0-.282.096.382.382 0 0 0-.167.353c.008.149.08.318.216.507l.086.12c.143.197.284.322.424.372.139.05.281.023.426-.082.124-.09.197-.184.218-.283l-.223-.308-.332.24-.236-.327.809-.586.588.813Zm.706-.539.91-.475.21.402-1.432.748-1.131-2.168.522-.272.921 1.765Zm1.891-.365-.545.219-.908-2.27.545-.218.908 2.27Zm2.273-.675-.566.153-1.232-1.243.395 1.468-.569.153-.635-2.36.569-.153 1.23 1.244-.395-1.47.567-.152.636 2.36Zm1.677-1.242-.92.106.066.58 1.087-.125.052.45-1.673.193-.28-2.428 1.677-.193.052.452-1.091.125.059.512.92-.106.05.434Zm2.684.666-.803-.075-.183.442-.627-.059 1.12-2.35.552.051.671 2.518-.63-.06-.1-.467Zm-.62-.515.523.05-.184-.869-.34.82Zm3.424.665.683-1.4.563.157-1.158 2.214-.589-.165.06-1.43-.684 1.256-.587-.165.158-2.494.564.158-.143 1.552.737-1.386.481.135-.085 1.568Zm2.073 1.362-.727-.352-.325.35-.567-.275 1.872-1.81.499.242-.253 2.594-.569-.276.07-.473Zm-.401-.7.473.229.132-.878-.605.649Zm2.205 1.32-.262-.182-.494.71-.483-.337 1.396-2.007.79.55c.238.166.387.349.447.548.061.198.025.394-.11.587a.79.79 0 0 1-.326.288.734.734 0 0 1-.42.038l-.145 1.101-.015.021-.518-.36.14-.957Zm-.002-.554.305.213c.092.064.178.088.258.071a.34.34 0 0 0 .21-.153.346.346 0 0 0 .072-.253c-.012-.082-.064-.154-.155-.217l-.306-.214-.384.553Zm.519 1.992 1.688-1.768.569.543c.156.15.263.32.32.509.057.19.059.382.006.579a1.258 1.258 0 0 1-.308.536l-.078.08a1.26 1.26 0 0 1-.518.338 1.04 1.04 0 0 1-.577.025 1.137 1.137 0 0 1-.52-.287l-.582-.555Zm1.8-1.032-1.06 1.111.147.142a.458.458 0 0 0 .407.138c.148-.025.305-.123.468-.295l.073-.076c.164-.17.253-.33.27-.48.018-.15-.036-.284-.162-.403l-.143-.137Zm1.002 3.114a.243.243 0 0 0 .104-.196 1.124 1.124 0 0 0-.078-.345 3.018 3.018 0 0 1-.112-.39c-.07-.345.002-.601.217-.767a.574.574 0 0 1 .356-.126.76.76 0 0 1 .396.117c.134.08.256.19.366.333.107.139.179.283.215.432a.744.744 0 0 1-.014.42.697.697 0 0 1-.243.335l-.36-.466a.293.293 0 0 0 .128-.213.355.355 0 0 0-.086-.247.4.4 0 0 0-.208-.154.213.213 0 0 0-.196.036c-.05.038-.074.1-.073.184 0 .084.031.21.092.376.06.168.098.313.115.437.041.302-.044.535-.255.698a.595.595 0 0 1-.547.117c-.195-.053-.379-.19-.55-.412a1.314 1.314 0 0 1-.245-.491.814.814 0 0 1 .01-.466.76.76 0 0 1 .263-.357l.361.467c-.103.08-.159.166-.167.258-.007.091.035.197.129.318a.38.38 0 0 0 .19.144.21.21 0 0 0 .193-.042ZM21.581 40.174l-1.67-.342.073-.361.936-.652c.233-.178.364-.33.39-.457.02-.103.014-.186-.02-.249s-.094-.103-.179-.12a.25.25 0 0 0-.228.065.456.456 0 0 0-.134.252l-.556-.113a.806.806 0 0 1 .56-.614.928.928 0 0 1 .458-.016c.259.053.446.154.562.302.115.148.15.334.104.557a.765.765 0 0 1-.109.265 1.228 1.228 0 0 1-.221.248c-.094.083-.24.19-.438.32l-.383.295.943.192-.088.428Zm2.332-.816c-.02.33-.11.58-.268.75-.159.17-.373.246-.642.23-.272-.017-.476-.12-.614-.309-.137-.189-.196-.447-.176-.774l.027-.446c.02-.33.11-.58.268-.75.16-.168.374-.245.644-.229.27.017.474.12.612.309.137.188.197.447.177.775l-.028.444Zm-.533-.552c.01-.175-.004-.308-.044-.397a.23.23 0 0 0-.21-.143.224.224 0 0 0-.22.108c-.049.077-.08.197-.093.36l-.038.624c-.011.182.004.317.045.404a.23.23 0 0 0 .21.14.229.229 0 0 0 .22-.11c.05-.08.082-.207.094-.382l.036-.604Zm2.76 1.409-1.7.136-.03-.368.717-.886c.175-.235.258-.418.248-.547-.009-.105-.038-.183-.088-.234a.25.25 0 0 0-.206-.066.25.25 0 0 0-.2.126.451.451 0 0 0-.059.28l-.565.046a.809.809 0 0 1 .366-.746.928.928 0 0 1 .437-.142c.264-.022.47.023.623.134.152.11.237.279.255.507a.77.77 0 0 1-.03.284 1.237 1.237 0 0 1-.145.3 4.173 4.173 0 0 1-.332.43l-.285.388.959-.077.034.435Zm.754-1.627.261-.058c.206-.046.287-.17.242-.372a.27.27 0 0 0-.116-.176.287.287 0 0 0-.225-.029.305.305 0 0 0-.177.107.2.2 0 0 0-.046.177l-.552.123a.579.579 0 0 1 .03-.36.707.707 0 0 1 .24-.294 1.02 1.02 0 0 1 .39-.174c.266-.06.488-.045.666.042.18.088.293.237.34.45a.516.516 0 0 1-.03.311.689.689 0 0 1-.225.283.664.664 0 0 1 .345.143.568.568 0 0 1 .185.322.63.63 0 0 1-.132.566c-.135.164-.336.276-.603.336a1.089 1.089 0 0 1-.455.008.703.703 0 0 1-.359-.18.659.659 0 0 1-.183-.337l.555-.123c.017.073.06.13.131.17.071.04.15.05.236.032a.335.335 0 0 0 .215-.133.279.279 0 0 0 .04-.227c-.026-.12-.075-.199-.147-.235a.385.385 0 0 0-.265-.021l-.27.06-.09-.411Z" fill="#fff"/><mask id="a" style="mask-type:luminance" maskUnits="userSpaceOnUse" x="2" y="17" width="17" height="23"><path d="m15.577 39.645 3.266-1.375-1.031-2.75-1.203-12.703-5.476-3.886-1.482.559-1.16-1.998-5.636 9.604 12.722 12.55Z" fill="#fff"/></mask><g mask="url(#a)"><path fill-rule="evenodd" clip-rule="evenodd" d="M30.276 10.27c-.262.47-1.313.585-2.027.41.359-.323 1.128-.63 1.789-.469l.238.059-.21-.127c-.58-.352-.9-1.11-.92-1.59.626.38 1.283 1.202 1.13 1.717Zm-6.26 28.474c.224 0 .405.18.405.402a.404.404 0 0 1-.406.402.403.403 0 0 1-.405-.401c0-.222.181-.403.406-.403Zm5.359-28.891-.185-.16c-.513-.444-1.339-.518-1.806-.393.553.479 1.541.853 1.99.553Zm-10.665.004c.45.3 1.437-.075 1.991-.554-.467-.125-1.293-.05-1.806.395l-.185.16Zm4.263 29.295c-.125.523-1.107.914-1.841.935.257-.407.915-.908 1.596-.928l.245-.007c.008-.538-.847-1.154-1.554-1.353.15.457.663 1.102 1.318 1.287l.236.066Zm-1.529-.202c.064-.534-.725-1.233-1.408-1.501.102.47.547 1.163 1.18 1.411l.228.09-.244-.018c-.68-.047-1.385.386-1.683.765.734.051 1.75-.24 1.927-.747Zm-1.5-.354c-.228.488-1.269.676-1.993.55.335-.347 1.08-.707 1.751-.592l.242.042c.117-.524-.597-1.3-1.249-1.634.054.477.427 1.212 1.031 1.522l.218.112Zm-1.456-.502c.17-.51-.462-1.352-1.077-1.75.005.48.301 1.248.872 1.617l.205.133-.236-.065c-.656-.183-1.434.102-1.803.414.708.197 1.762.114 2.039-.349Zm-1.399-.645c-.322.433-1.379.41-2.063.144.398-.274 1.201-.479 1.835-.232l.228.088c.22-.49-.322-1.391-.893-1.85-.044.48.173 1.273.703 1.698l.19.152Zm-1.325-.78c.27-.467-.18-1.417-.701-1.93-.092.471.043 1.283.527 1.758l.174.171-.218-.11c-.605-.31-1.425-.186-1.85.047.654.333 1.704.462 2.068.063Zm-1.24-.91c-.402.36-1.433.126-2.05-.27.446-.19 1.274-.23 1.845.137l.205.132-.155-.187c-.434-.522-.486-1.343-.346-1.802.467.562.816 1.552.501 1.99Zm-1.14-1.03c-.437.319-1.44-.016-2.012-.473.462-.144 1.29-.102 1.82.321l.192.153c.358-.404.11-1.424-.297-2.03-.185.443-.217 1.265.161 1.827l.136.203Zm-1.03-1.137c-.467.272-1.43-.16-1.954-.672.474-.097 1.294.027 1.78.501l.173.17c.398-.365.255-1.405-.089-2.049-.23.423-.344 1.238-.025 1.835l.114.215Zm-.91-1.236c-.492.226-1.406-.302-1.875-.863.481-.05 1.284.157 1.719.677l.156.186-.093-.224c-.256-.627-.06-1.425.212-1.824.277.675.313 1.724-.12 2.048Zm-.78-1.319-.068-.233c-.192-.648.085-1.424.395-1.794.207.7.136 1.747-.327 2.027l-.136-.202c-.38-.56-1.157-.845-1.641-.845.409.605 1.265 1.221 1.777 1.047Zm-.641-1.392c-.528.123-1.317-.575-1.663-1.219.482.048 1.227.41 1.548 1.005l.115.214c.489-.232.665-1.266.53-1.983-.346.336-.7 1.08-.575 1.745l.045.238Zm-.497-1.447-.02-.243c-.057-.673.37-1.378.749-1.678.061.726-.22 1.739-.73 1.92l-.092-.225c-.259-.625-.963-1.058-1.437-1.154.278.675.993 1.449 1.53 1.38Zm-.348-1.491.005-.243c.011-.676.509-1.335.915-1.596-.012.73-.394 1.709-.92 1.839l-.07-.233c-.193-.648-.85-1.15-1.312-1.293.209.7.841 1.54 1.382 1.526Zm-.194-1.518c-.54-.04-1.083-.94-1.22-1.656.445.188 1.047.753 1.174 1.417l.046.239c.536-.077 1.016-1.013 1.102-1.737-.431.218-.992.824-1.073 1.495l-.029.242Zm-.039-1.53c-.534-.093-.983-1.043-1.046-1.769.424.231.966.853 1.025 1.527l.021.242c.541-.023 1.113-.906 1.272-1.618-.45.174-1.07.721-1.219 1.38l-.053.238Zm.116-1.526c-.521-.146-.872-1.135-.86-1.865.398.273.873.946.864 1.622l-.004.243c.54.032 1.2-.79 1.43-1.483-.466.128-1.139.611-1.353 1.252l-.077.231Zm.27-1.507.1-.222c.278-.616.997-1.029 1.474-1.11-.3.666-1.039 1.417-1.574 1.332l.029-.24c.078-.672-.327-1.39-.696-1.7-.084.723.164 1.743.667 1.94Zm.422-1.472c-.48-.246-.624-1.286-.466-1.998.335.346.665 1.1.519 1.76l-.053.238c.524.138 1.335-.536 1.701-1.169-.483.033-1.239.372-1.578.958l-.123.211Zm.57-1.423c-.454-.293-.491-1.342-.262-2.035.298.378.55 1.162.338 1.804l-.076.231c.506.19 1.381-.4 1.81-.993-.484-.015-1.27.247-1.667.796l-.143.197Zm.71-1.358c.485.24 1.415-.26 1.902-.807-.48-.064-1.289.117-1.74.624l-.162.183.1-.223c.276-.617.105-1.422-.153-1.829-.299.667-.368 1.714.053 2.052Zm.845-1.281c-.385-.378-.21-1.413.155-2.046.216.43.305 1.248-.033 1.834l-.122.212.18-.165c.5-.46 1.323-.56 1.794-.448-.54.495-1.516.9-1.974.613Zm.97-1.19.196-.147c.544-.407 1.373-.424 1.83-.267-.586.44-1.599.745-2.025.414l.142-.199c.395-.55.39-1.373.22-1.822-.427.594-.707 1.607-.362 2.02Zm1.087-1.087c-.301-.447.08-1.426.565-1.975.124.464.046 1.284-.403 1.792l-.162.183c.39.371 1.43.17 2.058-.208-.44-.203-1.266-.269-1.849.082l-.209.126Zm1.191-.974c-.254-.474.225-1.41.762-1.908.077.475-.084 1.282-.582 1.743l-.18.165.221-.104c.616-.291 1.431-.143 1.847.102-.664.314-1.717.411-2.068.002Zm1.284-.85.23-.081c.642-.228 1.438 0 1.827.287-.692.245-1.75.237-2.057-.205l.195-.147c.543-.409.785-1.196.757-1.676-.586.442-1.157 1.326-.952 1.823Zm1.363-.716c-.153-.515.504-1.338 1.132-1.718-.02.48-.342 1.239-.923 1.591l-.209.127.238-.058c.661-.163 1.43.144 1.788.467-.714.176-1.765.062-2.026-.409Zm7.278 28.876c.124.522 1.106.913 1.84.934-.257-.407-.914-.908-1.595-.927l-.245-.007c-.008-.538.848-1.155 1.555-1.355-.15.457-.664 1.103-1.32 1.288l-.235.067Zm1.53-.203c-.064-.534.725-1.234 1.409-1.503-.102.47-.549 1.163-1.182 1.413l-.228.09.245-.018c.679-.049 1.384.384 1.681.762-.733.053-1.75-.237-1.926-.744Zm1.5-.355.217-.113c.605-.31.978-1.045 1.033-1.523-.653.336-1.367 1.111-1.25 1.636l.24-.042c.672-.116 1.417.243 1.752.59-.725.126-1.765-.06-1.993-.548Zm1.456-.503c-.169-.51.463-1.353 1.079-1.752-.006.48-.303 1.249-.873 1.619l-.206.133.236-.066c.656-.183 1.434.1 1.802.413-.707.197-1.762.115-2.038-.347Zm1.4-.646c.32.433 1.378.408 2.062.142-.398-.274-1.2-.478-1.835-.231l-.228.089c-.22-.491.323-1.392.895-1.85.043.478-.174 1.272-.704 1.697l-.19.153Zm1.325-.783c-.268-.465.18-1.416.703-1.93.092.472-.044 1.284-.528 1.76l-.175.17.218-.11c.606-.31 1.426-.187 1.85.046-.654.333-1.704.463-2.068.064Zm1.24-.91c.403.36 1.434.126 2.05-.271-.444-.19-1.272-.23-1.844.138l-.206.133.157-.188c.433-.522.486-1.343.347-1.802-.468.562-.818 1.552-.504 1.99Zm1.142-1.03.136-.202c.378-.563.348-1.385.163-1.83-.408.608-.656 1.628-.299 2.032l.191-.153c.531-.423 1.36-.466 1.822-.322-.573.457-1.576.792-2.013.475Zm1.032-1.139c.466.272 1.43-.162 1.954-.673-.474-.097-1.294.028-1.78.503l-.175.17c-.396-.365-.253-1.405.092-2.05.229.423.343 1.238.024 1.835l-.115.215Zm.91-1.236c.492.225 1.407-.303 1.876-.865-.482-.049-1.284.158-1.72.678l-.156.187.093-.225c.257-.626.06-1.425-.21-1.823-.278.675-.315 1.724.117 2.048Zm.78-1.32c.513.174 1.37-.443 1.78-1.048-.485 0-1.262.285-1.643.846l-.136.202c-.463-.28-.532-1.326-.325-2.027.31.37.586 1.145.394 1.793l-.07.234Zm.643-1.392c.528.122 1.317-.577 1.664-1.22-.482.047-1.227.41-1.549 1.006l-.115.214c-.488-.231-.664-1.266-.529-1.983.347.336.7 1.08.574 1.744l-.045.239Zm.498-1.448c.538.068 1.252-.706 1.532-1.38-.475.095-1.18.53-1.439 1.154l-.093.226c-.51-.182-.79-1.194-.727-1.92.378.299.805 1.004.748 1.677l-.02.243Zm.35-1.492c.54.015 1.173-.826 1.383-1.526-.463.143-1.12.646-1.314 1.293l-.07.233c-.525-.13-.906-1.108-.919-1.837.407.26.904.919.915 1.594l.004.243Zm.195-1.518c.54-.039 1.084-.94 1.222-1.656-.446.188-1.049.754-1.176 1.418l-.046.238c-.536-.076-1.015-1.012-1.1-1.736.43.218.991.824 1.071 1.495l.029.241Zm.04-1.53-.053-.236c-.147-.66-.767-1.207-1.218-1.38.16.711.73 1.594 1.271 1.617l.022-.242c.06-.674.602-1.296 1.026-1.528-.064.726-.514 1.677-1.048 1.77Zm-.114-1.525c.521-.146.872-1.136.862-1.866-.398.273-.875.947-.866 1.623l.004.243c-.541.032-1.199-.79-1.43-1.482.467.128 1.14.61 1.353 1.251l.077.23Zm-.27-1.507c.504-.198.753-1.217.67-1.942-.37.312-.775 1.03-.698 1.701l.028.241c-.534.086-1.272-.666-1.572-1.331.477.081 1.195.493 1.472 1.11l.1.221Zm-.42-1.471c.481-.247.625-1.287.468-2-.335.348-.666 1.102-.52 1.762l.052.238c-.524.138-1.334-.536-1.7-1.168.483.032 1.239.37 1.578.957l.122.21Zm-.568-1.423-.143-.197c-.397-.549-1.183-.81-1.667-.794.428.592 1.303 1.181 1.81.991l-.076-.23c-.212-.642.04-1.426.34-1.805.227.693.19 1.742-.264 2.035Zm-.71-1.358c-.485.24-1.415-.26-1.9-.806.479-.064 1.288.117 1.738.624l.162.182-.099-.222c-.276-.618-.104-1.423.155-1.829.297.666.366 1.713-.056 2.051Zm-.844-1.28c.386-.378.211-1.413-.153-2.046-.216.43-.305 1.248.032 1.835l.121.211-.18-.165c-.499-.459-1.322-.558-1.793-.447.539.495 1.515.899 1.973.612Zm-.97-1.19-.194-.146c-.544-.406-1.373-.423-1.83-.265.586.44 1.598.743 2.025.412l-.142-.198c-.395-.55-.39-1.373-.218-1.823.426.594.705 1.606.36 2.02Zm-1.085-1.086c.302-.447-.078-1.426-.563-1.974-.125.464-.047 1.283.402 1.791l.161.183c-.39.372-1.429.171-2.057-.206.44-.204 1.266-.27 1.848.08l.21.126Zm-1.19-.972c.255-.475-.223-1.41-.76-1.907-.078.474.082 1.28.58 1.741l.18.166-.221-.105c-.615-.29-1.43-.141-1.847.105.664.313 1.717.41 2.068 0Zm-1.283-.848c.205-.498-.365-1.381-.95-1.822-.029.48.213 1.267.755 1.674l.195.148c-.307.442-1.365.451-2.057.206.39-.286 1.186-.515 1.827-.288l.23.082Z" fill="#fff"/></g><mask id="b" style="mask-type:luminance" maskUnits="userSpaceOnUse" x="29" y="15" width="14" height="25"><path d="m29.502 20.928 6.894-2.317 1.998.88 3.673-4.274-.703 9.301-2.75 9.628-7.05 5.501-2.406-1.375 1.032-3.095-.688-14.25Z" fill="#fff"/></mask><g mask="url(#b)"><path fill-rule="evenodd" clip-rule="evenodd" d="M30.276 10.273c-.262.47-1.313.585-2.027.41.359-.323 1.128-.63 1.789-.469l.238.059-.21-.127c-.58-.352-.9-1.11-.92-1.59.626.38 1.283 1.202 1.13 1.717Zm-6.26 28.474c.224 0 .405.18.405.402a.404.404 0 0 1-.406.402.403.403 0 0 1-.405-.401c0-.222.181-.403.406-.403Zm5.359-28.891-.185-.16c-.513-.444-1.339-.519-1.806-.393.553.479 1.541.853 1.99.553ZM18.71 9.86c.45.3 1.437-.075 1.991-.554-.467-.125-1.293-.05-1.806.395l-.185.16Zm4.263 29.295c-.125.523-1.107.914-1.841.935.257-.407.915-.908 1.596-.928l.245-.007c.008-.538-.847-1.154-1.554-1.353.15.457.663 1.102 1.318 1.287l.236.066Zm-1.529-.202c.064-.534-.725-1.233-1.408-1.501.102.47.547 1.163 1.18 1.411l.228.09-.244-.018c-.68-.047-1.385.386-1.683.764.734.052 1.75-.239 1.927-.746Zm-1.5-.354c-.228.488-1.269.676-1.993.55.335-.347 1.08-.707 1.751-.592l.242.042c.117-.525-.597-1.3-1.249-1.634.054.477.427 1.212 1.031 1.522l.218.112Zm-1.456-.502c.17-.51-.462-1.352-1.077-1.75.005.48.301 1.248.872 1.617l.205.133-.236-.065c-.656-.183-1.434.102-1.803.414.708.197 1.762.114 2.039-.349Zm-1.399-.645c-.322.433-1.379.41-2.063.144.398-.274 1.201-.479 1.835-.232l.228.088c.22-.49-.322-1.391-.893-1.85-.044.48.173 1.273.703 1.698l.19.152Zm-1.325-.781c.27-.466-.18-1.416-.701-1.93-.092.472.043 1.284.527 1.759l.174.171-.218-.11c-.605-.31-1.425-.186-1.85.047.654.333 1.704.462 2.068.063Zm-1.24-.91c-.402.36-1.433.127-2.05-.27.446-.189 1.274-.23 1.845.138l.205.132-.155-.187c-.434-.522-.486-1.343-.346-1.803.467.563.816 1.553.501 1.99Zm-1.14-1.029c-.437.319-1.44-.016-2.012-.473.462-.144 1.29-.102 1.82.321l.192.152c.358-.403.11-1.423-.297-2.03-.185.444-.217 1.266.161 1.828l.136.202Zm-1.03-1.137c-.467.272-1.43-.16-1.954-.672.474-.097 1.294.027 1.78.501l.173.17c.398-.365.255-1.405-.089-2.049-.23.423-.344 1.238-.025 1.835l.114.215Zm-.91-1.236c-.492.225-1.406-.302-1.875-.863.481-.05 1.284.157 1.719.677l.156.186-.093-.224c-.256-.627-.06-1.425.212-1.824.277.675.313 1.724-.12 2.048Zm-.78-1.32-.068-.233c-.192-.647.085-1.424.395-1.793.207.7.136 1.747-.327 2.027l-.136-.202c-.38-.56-1.157-.845-1.641-.845.409.605 1.265 1.221 1.777 1.047Zm-.641-1.39c-.528.122-1.317-.576-1.663-1.22.482.048 1.227.409 1.548 1.005l.115.214c.489-.232.665-1.266.53-1.983-.346.336-.7 1.08-.575 1.745l.045.238ZM9.526 28.2l-.02-.242c-.057-.673.37-1.378.749-1.679.061.727-.22 1.74-.73 1.921l-.092-.225c-.259-.625-.963-1.058-1.437-1.154.278.675.993 1.448 1.53 1.38Zm-.348-1.49.005-.243c.011-.676.509-1.335.915-1.596-.012.73-.394 1.709-.92 1.839l-.07-.233c-.193-.648-.85-1.15-1.312-1.293.209.7.841 1.54 1.382 1.526Zm-.194-1.518c-.54-.04-1.083-.94-1.22-1.656.445.188 1.047.753 1.174 1.417l.046.239c.536-.077 1.016-1.013 1.102-1.737-.431.218-.992.824-1.073 1.495l-.029.242Zm-.039-1.53c-.534-.093-.983-1.043-1.046-1.77.424.232.966.854 1.025 1.528l.021.242c.541-.023 1.113-.906 1.272-1.618-.45.174-1.07.72-1.219 1.38l-.053.238Zm.116-1.526c-.521-.146-.872-1.135-.86-1.865.398.273.873.946.864 1.622l-.004.243c.54.032 1.2-.79 1.43-1.483-.466.128-1.139.61-1.353 1.252l-.077.231Zm.27-1.507.1-.222c.278-.617.997-1.03 1.474-1.11-.3.666-1.039 1.417-1.574 1.332l.029-.24c.078-.672-.327-1.39-.696-1.7-.084.723.164 1.743.667 1.94Zm.422-1.472c-.48-.246-.624-1.286-.466-1.998.335.346.665 1.1.519 1.76l-.053.238c.524.138 1.335-.536 1.701-1.169-.483.033-1.239.372-1.578.958l-.123.211Zm.57-1.423c-.454-.293-.491-1.342-.262-2.035.298.378.55 1.162.338 1.804l-.076.231c.506.19 1.381-.4 1.81-.993-.484-.015-1.27.247-1.667.796l-.143.197Zm.71-1.358c.485.24 1.415-.26 1.902-.808-.48-.063-1.289.118-1.74.625l-.162.183.1-.223c.276-.617.105-1.422-.153-1.829-.299.667-.368 1.714.053 2.052Zm.845-1.281c-.385-.378-.21-1.413.155-2.047.216.43.305 1.248-.033 1.835l-.122.212.18-.165c.5-.46 1.323-.56 1.794-.448-.54.495-1.516.9-1.974.613Zm.97-1.19.196-.147c.544-.407 1.373-.424 1.83-.267-.586.44-1.599.745-2.025.414l.142-.199c.395-.55.39-1.373.22-1.822-.427.594-.707 1.606-.362 2.02Zm1.087-1.088c-.301-.446.08-1.425.565-1.974.124.464.046 1.284-.403 1.791l-.162.183c.39.372 1.43.17 2.058-.207-.44-.203-1.266-.269-1.849.082l-.209.125Zm1.191-.973c-.254-.474.225-1.41.762-1.908.077.475-.084 1.282-.582 1.743l-.18.165.221-.104c.616-.291 1.431-.143 1.847.102-.664.314-1.717.411-2.068.002Zm1.284-.85.23-.081c.642-.228 1.438 0 1.827.287-.692.245-1.75.237-2.057-.205l.195-.147c.543-.41.785-1.196.757-1.676-.586.442-1.157 1.326-.952 1.823Zm1.363-.716c-.153-.515.504-1.338 1.132-1.718-.02.48-.342 1.239-.923 1.591l-.209.127.238-.058c.661-.163 1.43.144 1.788.467-.714.176-1.765.062-2.026-.409Zm7.278 28.876c.124.522 1.106.913 1.84.934-.257-.407-.914-.908-1.595-.928l-.245-.006c-.008-.538.848-1.155 1.555-1.355-.15.457-.664 1.103-1.32 1.288l-.235.067Zm1.53-.204c-.064-.533.725-1.233 1.409-1.502-.102.47-.549 1.163-1.182 1.413l-.228.09.245-.018c.679-.049 1.384.384 1.681.762-.733.053-1.75-.237-1.926-.745Zm1.5-.354.217-.113c.605-.31.978-1.045 1.033-1.523-.653.336-1.367 1.111-1.25 1.636l.24-.042c.672-.116 1.417.243 1.752.59-.725.126-1.765-.06-1.993-.548Zm1.456-.503c-.169-.51.463-1.353 1.079-1.752-.006.48-.303 1.249-.873 1.619l-.206.133.236-.066c.656-.183 1.434.1 1.802.413-.707.197-1.762.115-2.038-.347Zm1.4-.646c.32.432 1.378.408 2.062.142-.398-.274-1.2-.478-1.835-.231l-.228.089c-.22-.491.323-1.392.895-1.85.043.478-.174 1.272-.704 1.697l-.19.153Zm1.325-.783c-.268-.466.18-1.416.703-1.93.092.472-.044 1.284-.528 1.76l-.175.17.218-.11c.606-.31 1.426-.187 1.85.045-.654.334-1.704.464-2.068.066Zm1.24-.91c.403.36 1.434.126 2.05-.272-.444-.189-1.272-.23-1.844.14l-.206.132.157-.188c.433-.522.486-1.343.347-1.803-.468.563-.818 1.553-.504 1.99Zm1.142-1.03.136-.203c.378-.562.348-1.384.163-1.828-.408.607-.656 1.627-.299 2.03l.191-.152c.531-.423 1.36-.466 1.822-.322-.573.457-1.576.792-2.013.474Zm1.032-1.139c.466.272 1.43-.162 1.954-.673-.474-.097-1.294.028-1.78.503l-.175.17c-.396-.366-.253-1.405.092-2.05.229.423.343 1.238.024 1.835l-.115.215Zm.91-1.236c.492.225 1.407-.303 1.876-.865-.482-.049-1.284.158-1.72.678l-.156.187.093-.225c.257-.626.06-1.425-.21-1.823-.278.675-.315 1.724.117 2.048Zm.78-1.32c.513.174 1.37-.443 1.78-1.048-.485 0-1.262.284-1.643.846l-.136.202c-.463-.28-.532-1.326-.325-2.027.31.37.586 1.145.394 1.793l-.07.234Zm.643-1.392c.528.122 1.317-.577 1.664-1.22-.482.047-1.227.41-1.549 1.006l-.115.214c-.488-.232-.664-1.266-.529-1.983.347.336.7 1.08.574 1.744l-.045.239Zm.498-1.448c.538.068 1.252-.706 1.532-1.38-.475.095-1.18.53-1.439 1.154l-.093.226c-.51-.182-.79-1.194-.727-1.92.378.299.805 1.004.748 1.677l-.02.243Zm.35-1.492c.54.015 1.173-.827 1.383-1.526-.463.143-1.12.645-1.314 1.293l-.07.233c-.525-.13-.906-1.108-.919-1.837.407.26.904.919.915 1.594l.004.243Zm.195-1.518c.54-.039 1.084-.94 1.222-1.656-.446.188-1.049.754-1.176 1.418l-.046.238c-.536-.076-1.015-1.012-1.1-1.736.43.218.991.824 1.071 1.494l.029.242Zm.04-1.53-.053-.236c-.147-.66-.767-1.207-1.218-1.38.16.71.73 1.594 1.271 1.617l.022-.242c.06-.674.602-1.297 1.026-1.528-.064.726-.514 1.677-1.048 1.77Zm-.114-1.525c.521-.146.872-1.136.862-1.866-.398.273-.875.947-.866 1.623l.004.243c-.541.032-1.199-.79-1.43-1.482.467.128 1.14.61 1.353 1.251l.077.23Zm-.27-1.507c.504-.198.753-1.217.67-1.942-.37.312-.775 1.03-.698 1.701l.028.241c-.534.086-1.272-.666-1.572-1.331.477.08 1.195.493 1.472 1.11l.1.221Zm-.42-1.471c.481-.247.625-1.287.468-2-.335.348-.666 1.102-.52 1.762l.052.238c-.524.138-1.334-.536-1.7-1.168.483.032 1.239.37 1.578.956l.122.212Zm-.568-1.423-.143-.197c-.397-.549-1.183-.81-1.667-.794.428.592 1.303 1.181 1.81.991l-.076-.23c-.212-.642.04-1.426.34-1.805.227.693.19 1.741-.264 2.035Zm-.71-1.358c-.485.24-1.415-.26-1.9-.806.479-.064 1.288.117 1.738.624l.162.182-.099-.222c-.276-.618-.104-1.423.155-1.83.297.667.366 1.714-.056 2.052Zm-.844-1.28c.386-.378.211-1.413-.153-2.046-.216.43-.305 1.248.032 1.835l.121.21-.18-.164c-.499-.459-1.322-.558-1.793-.447.539.495 1.515.899 1.973.612Zm-.97-1.19-.194-.146c-.544-.406-1.373-.423-1.83-.265.586.44 1.598.743 2.025.412l-.142-.198c-.395-.55-.39-1.373-.218-1.823.426.594.705 1.606.36 2.02Zm-1.085-1.086c.302-.447-.078-1.426-.563-1.974-.125.464-.047 1.283.402 1.791l.161.183c-.39.372-1.429.171-2.057-.206.44-.204 1.266-.27 1.848.08l.21.126Zm-1.19-.972c.255-.475-.223-1.41-.76-1.907-.078.474.082 1.28.58 1.741l.18.166-.221-.105c-.615-.29-1.43-.141-1.847.105.664.313 1.717.41 2.068 0Zm-1.283-.848c.205-.498-.365-1.381-.95-1.822-.029.48.213 1.266.755 1.674l.195.148c-.307.442-1.365.451-2.057.206.39-.286 1.186-.515 1.827-.288l.23.082Z" fill="#fff"/></g><path fill-rule="evenodd" clip-rule="evenodd" d="m38.502 19.65.011-.244c.031-.678-.422-1.372-.81-1.662-.033.732.285 1.739.8 1.906Zm-28.945 0-.01-.244c-.032-.678.422-1.372.81-1.662.033.732-.285 1.739-.8 1.906Z" fill="#fff"/></svg>