<svg width="48" height="48" viewBox="0 0 48 48" fill="none" xmlns="http://www.w3.org/2000/svg"><path d="M29.991 47.872a4.29 4.29 0 0 1-1.96-.474l-1.95-.992a4.607 4.607 0 0 0-2.08-.501c-.718 0-1.437.173-2.081.501l-1.95.992a4.285 4.285 0 0 1-1.96.474c-1.661 0-3.177-.95-3.956-2.477l-1.017-1.996c-.689-1.352-1.914-2.279-3.363-2.544l-2.138-.39c-2.392-.437-4-2.743-3.659-5.249l.304-2.237a5.018 5.018 0 0 0-1.283-4.11L1.39 27.247a4.786 4.786 0 0 1 0-6.49L2.9 19.13a5.017 5.017 0 0 0 1.282-4.11l-.304-2.236c-.34-2.507 1.267-4.812 3.659-5.249l2.138-.39c1.449-.265 2.674-1.192 3.363-2.543l1.017-1.997C14.833 1.078 16.35.13 18.01.13c.682 0 1.342.16 1.96.474l1.95.992a4.6 4.6 0 0 0 2.08.502c.717 0 1.437-.174 2.08-.501l1.95-.993A4.285 4.285 0 0 1 29.992.13c1.66 0 3.177.949 3.956 2.477l1.017 1.996c.688 1.352 1.914 2.279 3.363 2.543l2.138.39c2.392.438 3.999 2.743 3.659 5.25l-.305 2.237a5.018 5.018 0 0 0 1.283 4.11l1.51 1.623a4.786 4.786 0 0 1 0 6.49l-1.51 1.624a5.018 5.018 0 0 0-1.283 4.11l.305 2.237c.34 2.507-1.267 4.812-3.66 5.249l-2.137.39c-1.449.265-2.675 1.192-3.363 2.543l-1.017 1.996c-.78 1.528-2.295 2.477-3.956 2.477ZM7.557 34.615c-.974 0-1.765.822-1.765 1.833 0 1.01.791 1.832 1.765 1.832.973 0 1.764-.822 1.764-1.832 0-1.01-.791-1.833-1.764-1.833Z" fill="#fff"/><path d="M29.99.258c1.613 0 3.085.922 3.842 2.407l1.017 1.997c.707 1.387 1.966 2.339 3.455 2.61l2.137.391c2.325.425 3.885 2.667 3.554 5.105l-.303 2.237a5.145 5.145 0 0 0 1.316 4.214l1.509 1.624a4.657 4.657 0 0 1 0 6.315l-1.51 1.624a5.145 5.145 0 0 0-1.316 4.215l.304 2.237c.332 2.438-1.23 4.68-3.554 5.104l-2.137.39c-1.489.273-2.748 1.224-3.455 2.612l-1.017 1.996c-.757 1.485-2.229 2.407-3.841 2.407a4.156 4.156 0 0 1-1.902-.46l-1.95-.992A4.74 4.74 0 0 0 24 45.776a4.74 4.74 0 0 0-2.139.515l-1.95.992c-.6.305-1.24.46-1.902.46-1.612 0-3.084-.922-3.84-2.407l-1.017-1.996c-.707-1.388-1.967-2.34-3.455-2.611l-2.138-.39c-2.324-.425-3.885-2.667-3.554-5.105l.304-2.238a5.145 5.145 0 0 0-1.316-4.214l-1.51-1.624a4.657 4.657 0 0 1 0-6.315l1.51-1.624a5.144 5.144 0 0 0 1.316-4.214l-.304-2.238c-.331-2.438 1.23-4.68 3.554-5.104l2.138-.39c1.489-.272 2.748-1.224 3.455-2.611l1.017-1.996C14.926 1.18 16.398.258 18.01.258c.663 0 1.303.155 1.903.46l1.95.993A4.741 4.741 0 0 0 24 2.225a4.74 4.74 0 0 0 2.14-.515l1.95-.992a4.15 4.15 0 0 1 1.9-.46ZM7.557 38.408c1.045 0 1.894-.88 1.894-1.961s-.85-1.961-1.894-1.961-1.894.88-1.894 1.96c0 1.082.85 1.962 1.894 1.962ZM29.991 0c-.68 0-1.369.157-2.019.488l-1.95.993a4.452 4.452 0 0 1-4.044 0l-1.95-.993A4.445 4.445 0 0 0 18.01 0c-1.653 0-3.246.93-4.07 2.548l-1.018 1.996c-.666 1.306-1.873 2.219-3.271 2.474l-2.138.39c-2.446.448-4.11 2.833-3.763 5.394l.304 2.237a4.92 4.92 0 0 1-1.25 4.004l-1.509 1.624c-1.727 1.858-1.727 4.808 0 6.666l1.51 1.624a4.92 4.92 0 0 1 1.249 4.004L3.75 35.2c-.348 2.56 1.317 4.946 3.763 5.392l2.138.39c1.399.256 2.606 1.17 3.271 2.475l1.017 1.996C14.764 47.071 16.357 48 18.01 48a4.44 4.44 0 0 0 2.02-.488l1.95-.992a4.45 4.45 0 0 1 4.043 0l1.95.992c.65.33 1.34.488 2.019.488 1.652 0 3.245-.93 4.07-2.548l1.017-1.996c.666-1.306 1.873-2.219 3.272-2.474l2.137-.39c2.446-.448 4.111-2.834 3.763-5.393l-.303-2.238a4.92 4.92 0 0 1 1.25-4.004l1.508-1.624c1.727-1.858 1.727-4.808 0-6.666l-1.509-1.624a4.92 4.92 0 0 1-1.25-4.004l.304-2.237c.348-2.56-1.317-4.947-3.763-5.393l-2.137-.39c-1.4-.256-2.606-1.17-3.272-2.475l-1.017-1.996C33.236.929 31.643 0 29.991 0ZM7.556 38.15c-.903 0-1.636-.762-1.636-1.703 0-.94.733-1.704 1.636-1.704.904 0 1.636.763 1.636 1.704 0 .94-.732 1.703-1.636 1.703Z" fill="#383838"/><path d="m11.88 13.684-.438.588 1.595 1.189-.352.473-1.595-1.189-.43.578-.365-.272 1.22-1.639.365.272Zm2.226-.09-.569.573.225.422-.444.447-1.103-2.358.39-.394 2.371 1.082-.446.449-.424-.22Zm-.793.152.37-.373-.787-.41.417.783Zm3.184-1.844a.95.95 0 0 1-.18.43c-.105.153-.242.29-.41.412-.26.188-.524.258-.795.212-.27-.046-.512-.208-.728-.482l-.125-.17a1.464 1.464 0 0 1-.266-.586.95.95 0 0 1 .053-.55c.071-.172.192-.318.36-.44.247-.179.48-.261.697-.247.218.014.42.125.605.333l-.46.332c-.096-.098-.19-.152-.278-.16a.425.425 0 0 0-.282.097.383.383 0 0 0-.167.353c.008.149.08.318.216.507l.086.12c.143.197.284.322.424.372.139.05.281.023.426-.082.124-.09.197-.184.218-.283l-.223-.308-.332.24-.236-.328.809-.585.588.813Zm.708-.542.91-.475.21.402-1.432.748-1.131-2.168.522-.272.921 1.765Zm1.889-.362-.545.218-.908-2.27.546-.218.907 2.27Zm2.275-.675-.566.152-1.232-1.242.395 1.468-.569.153-.635-2.36.569-.153 1.23 1.244-.395-1.47.567-.152.636 2.36Zm1.677-1.243-.92.107.066.58 1.087-.125.052.45-1.673.193-.28-2.428 1.677-.193.052.452-1.091.125.059.512.92-.106.05.434Zm2.684.667-.803-.075-.183.441-.627-.058 1.12-2.35.552.051.671 2.518-.63-.06-.1-.467Zm-.62-.515.523.05-.184-.869-.34.82Zm3.424.664.683-1.4.563.157-1.158 2.214-.589-.165.06-1.43-.684 1.256-.587-.165.158-2.494.564.158-.143 1.552.737-1.386.481.135-.085 1.568Zm2.073 1.363-.727-.352-.325.35-.567-.275 1.872-1.81.499.242-.253 2.594-.569-.276.07-.473Zm-.401-.7.473.229.132-.878-.605.649Zm2.205 1.32-.262-.182-.494.71-.483-.337 1.396-2.007.79.55c.238.166.387.349.448.548.06.198.024.394-.11.587a.792.792 0 0 1-.327.288.734.734 0 0 1-.42.038l-.145 1.101-.015.021-.518-.36.14-.957Zm-.002-.554.305.213c.092.064.178.088.258.072a.34.34 0 0 0 .21-.154.347.347 0 0 0 .072-.253c-.012-.082-.064-.154-.155-.217l-.306-.214-.384.553Zm.517 1.995 1.688-1.768.569.543c.156.15.263.32.32.509.057.19.06.382.006.579a1.258 1.258 0 0 1-.308.536l-.078.08a1.259 1.259 0 0 1-.518.338 1.04 1.04 0 0 1-.577.025 1.138 1.138 0 0 1-.52-.287l-.582-.555Zm1.8-1.032-1.06 1.11.147.143a.458.458 0 0 0 .406.138c.15-.025.306-.123.47-.295l.072-.076c.164-.17.253-.33.27-.48.018-.15-.036-.284-.162-.403l-.143-.137ZM35.73 15.4a.243.243 0 0 0 .104-.196 1.124 1.124 0 0 0-.078-.345 3.017 3.017 0 0 1-.112-.39c-.07-.345.002-.601.217-.767a.575.575 0 0 1 .356-.126.76.76 0 0 1 .396.117c.134.08.256.19.366.333.107.139.179.283.215.431a.744.744 0 0 1-.014.421.696.696 0 0 1-.243.335l-.36-.466a.293.293 0 0 0 .128-.213.356.356 0 0 0-.086-.247.401.401 0 0 0-.208-.154.213.213 0 0 0-.196.036c-.05.038-.074.1-.073.184 0 .084.031.21.092.376.06.167.098.313.115.437.042.302-.044.535-.255.698a.595.595 0 0 1-.547.117c-.195-.053-.379-.19-.55-.412a1.313 1.313 0 0 1-.245-.491.814.814 0 0 1 .01-.466.76.76 0 0 1 .263-.357l.361.467c-.103.08-.159.166-.167.258-.007.091.035.197.129.317a.38.38 0 0 0 .19.145.21.21 0 0 0 .193-.042Zm-19.208 9.49a.432.432 0 0 0-.166-.36c-.11-.086-.304-.176-.58-.268a5.613 5.613 0 0 1-.68-.268c-.572-.278-.858-.661-.858-1.149 0-.242.07-.456.213-.642.143-.185.345-.33.606-.433.26-.103.554-.155.88-.155.317 0 .602.057.853.169.252.112.448.272.587.48.14.207.21.444.21.71h-1.062a.528.528 0 0 0-.165-.415c-.11-.098-.26-.147-.448-.147-.19 0-.34.042-.45.125a.382.382 0 0 0-.166.317c0 .112.061.214.182.305.122.092.335.186.64.283.306.097.556.202.752.315.477.272.716.648.716 1.127 0 .383-.146.684-.437.903-.291.219-.69.328-1.198.328-.358 0-.682-.064-.972-.192a1.462 1.462 0 0 1-.655-.523 1.356 1.356 0 0 1-.22-.765h1.067c0 .234.062.407.184.518.122.112.321.168.596.168a.69.69 0 0 0 .417-.113.37.37 0 0 0 .154-.317Zm5.302 1.166h-1.058v-1.828h-1.568v1.828h-1.065v-4.38h1.065v1.74h1.568v-1.74h1.058v4.38Zm4.413-2.1c0 .427-.08.805-.24 1.134-.16.328-.386.581-.68.759-.294.177-.63.266-1.006.266s-.71-.086-1.001-.257a1.757 1.757 0 0 1-.68-.736 2.492 2.492 0 0 1-.257-1.098v-.246c0-.429.08-.808.238-1.135a1.76 1.76 0 0 1 .682-.76 1.923 1.923 0 0 1 1.012-.268c.374 0 .708.089 1.001.265.293.177.521.428.684.754.162.325.245.7.247 1.12v.202Zm-1.083-.184c0-.435-.073-.765-.22-.99a.706.706 0 0 0-.63-.34c-.533 0-.816.398-.846 1.192l-.003.322c0 .43.072.759.215.99.144.23.357.345.64.345.27 0 .477-.113.622-.34.146-.226.22-.552.222-.977v-.202Zm3.274.735h-.576v1.55h-1.065v-4.38h1.738c.524 0 .934.115 1.229.345.295.23.443.556.443.977 0 .304-.062.556-.187.757-.124.2-.319.363-.584.487l.923 1.768v.045h-1.14l-.78-1.549Zm-.576-.812h.673c.203 0 .355-.053.457-.158.102-.106.153-.253.153-.442s-.052-.337-.155-.444c-.103-.108-.254-.162-.455-.162h-.673v1.206Zm6.303-1.203h-1.326v3.564h-1.065v-3.564h-1.301v-.815h3.692v.815ZM21.581 40.173l-1.67-.342.073-.362.936-.651c.233-.177.364-.33.39-.457.02-.103.014-.186-.02-.249s-.094-.103-.179-.12a.25.25 0 0 0-.228.065.456.456 0 0 0-.134.252l-.556-.113a.805.805 0 0 1 .56-.614.928.928 0 0 1 .458-.016c.259.053.446.154.562.302.115.148.15.334.104.557a.769.769 0 0 1-.109.265 1.225 1.225 0 0 1-.221.248 4.09 4.09 0 0 1-.438.32l-.383.295.943.193-.088.427Zm2.33-.817c-.02.33-.11.58-.268.75-.159.17-.373.246-.642.23-.272-.017-.476-.12-.614-.309-.137-.189-.196-.447-.176-.774l.027-.446c.02-.33.11-.58.268-.75.16-.168.374-.245.644-.229.27.017.474.12.612.309.137.188.197.447.177.775l-.028.444Zm-.533-.552c.011-.175-.004-.308-.044-.397a.229.229 0 0 0-.21-.142.224.224 0 0 0-.22.107c-.049.077-.08.197-.093.361l-.038.623c-.011.182.004.317.045.404a.23.23 0 0 0 .21.14.23.23 0 0 0 .22-.11c.05-.08.082-.207.094-.382l.036-.604Zm2.759 1.408-1.7.136-.03-.368.718-.886c.176-.235.258-.418.248-.547-.009-.105-.038-.183-.088-.234a.25.25 0 0 0-.206-.066.25.25 0 0 0-.2.127.452.452 0 0 0-.059.28l-.565.045a.809.809 0 0 1 .366-.745.929.929 0 0 1 .437-.143c.264-.022.47.023.623.134.152.11.237.279.255.507a.77.77 0 0 1-.03.284 1.242 1.242 0 0 1-.144.3 4.323 4.323 0 0 1-.332.43l-.286.388.959-.077.034.435Zm.755-1.625.261-.058c.206-.046.287-.17.242-.372a.27.27 0 0 0-.116-.176.287.287 0 0 0-.225-.029.306.306 0 0 0-.177.107.2.2 0 0 0-.046.177l-.552.123a.58.58 0 0 1 .03-.36.706.706 0 0 1 .24-.294c.111-.083.242-.14.39-.174.266-.06.488-.045.666.042.18.088.293.237.34.45a.515.515 0 0 1-.03.311.688.688 0 0 1-.225.283.664.664 0 0 1 .345.143.569.569 0 0 1 .185.322.63.63 0 0 1-.132.566c-.135.164-.336.276-.603.336a1.087 1.087 0 0 1-.455.008.703.703 0 0 1-.359-.18.66.66 0 0 1-.183-.337l.556-.123c.016.073.06.13.13.17.071.04.15.05.236.032a.334.334 0 0 0 .215-.133.279.279 0 0 0 .04-.227c-.026-.12-.075-.199-.146-.235a.386.386 0 0 0-.266-.021l-.269.06-.092-.41Z" fill="#000"/><mask id="a" style="mask-type:luminance" maskUnits="userSpaceOnUse" x="2" y="17" width="17" height="23"><path d="m16.173 39.704 2.63-1.45-.622-2.495-1.574-12.938-5.476-3.886-1.482.559-1.16-1.998L2.854 27.1l13.319 12.604Z" fill="#fff"/></mask><g mask="url(#a)"><path fill-rule="evenodd" clip-rule="evenodd" d="M30.274 10.272c-.262.47-1.313.585-2.027.41.359-.323 1.128-.63 1.79-.469l.237.059-.209-.127c-.58-.352-.902-1.11-.922-1.59.627.38 1.285 1.202 1.13 1.717Zm-6.26 28.474c.224 0 .405.18.405.402a.404.404 0 0 1-.406.403.403.403 0 0 1-.405-.402c0-.222.182-.403.406-.403Zm5.359-28.891-.184-.16c-.514-.444-1.34-.519-1.807-.393.554.479 1.541.853 1.991.553Zm-10.665.004c.45.3 1.438-.075 1.992-.554-.468-.125-1.294-.05-1.807.395l-.185.16Zm4.263 29.295c-.125.523-1.107.914-1.841.935.257-.406.915-.908 1.596-.928l.245-.007c.009-.538-.847-1.154-1.554-1.353.15.457.663 1.102 1.318 1.287l.236.066Zm-1.529-.202c.064-.534-.725-1.233-1.408-1.5.102.468.547 1.162 1.18 1.41l.228.09-.244-.017c-.68-.048-1.384.385-1.683.764.734.052 1.75-.24 1.927-.747Zm-1.5-.353c-.228.487-1.269.675-1.993.55.335-.348 1.08-.708 1.752-.593l.241.043c.117-.525-.597-1.3-1.249-1.635.054.477.427 1.212 1.031 1.522l.218.113Zm-1.456-.502c.17-.511-.462-1.353-1.077-1.751.005.48.302 1.248.872 1.618l.205.133-.236-.066c-.656-.182-1.434.102-1.802.414.707.197 1.761.114 2.038-.348Zm-1.399-.645c-.322.433-1.379.41-2.063.143.398-.274 1.202-.479 1.836-.232l.227.089c.22-.491-.322-1.392-.893-1.85-.044.478.173 1.272.703 1.697l.19.153Zm-1.325-.782c.27-.466-.18-1.416-.701-1.93-.092.472.043 1.284.527 1.759l.174.171-.218-.11c-.605-.31-1.425-.186-1.849.047.653.333 1.703.462 2.067.063Zm-1.24-.91c-.402.36-1.433.128-2.05-.27.446-.189 1.274-.23 1.845.138l.205.132-.155-.187c-.434-.522-.486-1.343-.346-1.802.467.562.816 1.552.501 1.99Zm-1.14-1.028c-.437.318-1.44-.017-2.012-.474.462-.143 1.29-.102 1.82.321l.192.153c.358-.404.11-1.424-.297-2.03-.185.443-.217 1.266.161 1.828l.136.202Zm-1.03-1.138c-.467.273-1.43-.16-1.954-.672.474-.097 1.294.027 1.78.501l.173.17c.398-.365.255-1.405-.089-2.049-.23.423-.344 1.238-.025 1.835l.114.215Zm-.91-1.235c-.492.225-1.406-.303-1.875-.864.482-.049 1.284.157 1.719.677l.156.187-.092-.225c-.257-.627-.06-1.425.21-1.824.278.675.314 1.724-.118 2.049Zm-.78-1.32-.068-.233c-.192-.648.085-1.424.395-1.794.207.7.136 1.747-.327 2.027l-.136-.202c-.38-.56-1.157-.845-1.641-.845.409.605 1.265 1.221 1.777 1.047Zm-.641-1.392c-.528.123-1.316-.575-1.663-1.218.482.047 1.227.408 1.548 1.004l.115.214c.489-.232.665-1.266.53-1.983-.345.336-.7 1.08-.575 1.745l.045.238ZM9.524 28.2l-.02-.243c-.057-.673.37-1.378.749-1.678.061.726-.22 1.739-.729 1.92l-.093-.225c-.259-.624-.963-1.058-1.437-1.153.278.674.993 1.448 1.53 1.379Zm-.348-1.491.005-.243c.011-.676.509-1.335.916-1.596-.013.73-.395 1.709-.92 1.839l-.07-.233c-.194-.648-.85-1.15-1.313-1.293.209.7.841 1.541 1.382 1.526Zm-.194-1.518c-.54-.04-1.083-.94-1.22-1.656.445.188 1.047.753 1.175 1.417l.045.239c.536-.077 1.016-1.013 1.102-1.737-.431.218-.992.824-1.073 1.495l-.029.242Zm-.039-1.53c-.534-.093-.983-1.043-1.046-1.769.424.231.966.854 1.025 1.527l.021.242c.541-.023 1.113-.906 1.273-1.618-.452.174-1.072.721-1.22 1.381l-.053.237Zm.116-1.526c-.521-.146-.872-1.135-.86-1.865.398.273.873.946.864 1.622l-.004.243c.54.032 1.2-.79 1.43-1.483-.466.128-1.139.611-1.353 1.252l-.077.231Zm.27-1.507.1-.221c.279-.617.996-1.03 1.474-1.111-.3.666-1.039 1.417-1.574 1.332l.029-.24c.078-.672-.327-1.39-.696-1.7-.084.723.164 1.743.667 1.94Zm.423-1.472c-.482-.246-.625-1.286-.467-1.998.335.346.665 1.1.52 1.76l-.053.238c.523.138 1.334-.536 1.7-1.169-.483.033-1.239.372-1.578.958l-.122.211Zm.569-1.423c-.454-.293-.491-1.342-.262-2.035.299.378.55 1.162.338 1.804l-.076.231c.506.19 1.382-.4 1.81-.993-.483-.015-1.27.247-1.667.796l-.143.197Zm.71-1.358c.485.24 1.416-.26 1.902-.807-.48-.064-1.289.117-1.74.624l-.162.183.1-.223c.276-.617.105-1.422-.153-1.829-.298.667-.368 1.714.053 2.052Zm.845-1.281c-.385-.378-.21-1.413.155-2.047.216.43.305 1.248-.033 1.835l-.122.212.18-.165c.5-.46 1.323-.56 1.794-.448-.54.495-1.516.9-1.974.613Zm.97-1.19.196-.147c.544-.407 1.373-.424 1.83-.266-.586.44-1.599.744-2.025.413l.142-.199c.395-.55.39-1.373.22-1.822-.427.594-.707 1.607-.362 2.02Zm1.087-1.088c-.3-.446.08-1.425.565-1.974.124.464.046 1.284-.403 1.792l-.162.182c.391.372 1.43.17 2.058-.208-.44-.202-1.266-.268-1.848.083l-.21.125Zm1.191-.973c-.254-.474.225-1.41.762-1.908.078.475-.084 1.282-.582 1.743l-.18.165.221-.104c.616-.291 1.431-.143 1.847.102-.664.314-1.717.411-2.068.002Zm1.284-.85.23-.081c.642-.228 1.438 0 1.827.287-.692.245-1.75.237-2.057-.205l.195-.147c.543-.41.785-1.196.757-1.676-.586.442-1.157 1.326-.952 1.823Zm1.363-.716c-.153-.515.504-1.338 1.132-1.718-.02.48-.342 1.239-.923 1.591l-.209.127.238-.058c.661-.163 1.43.144 1.788.467-.713.176-1.765.062-2.026-.409Zm7.278 28.876c.125.522 1.106.913 1.841.934-.257-.407-.915-.908-1.596-.927l-.245-.007c-.008-.538.848-1.155 1.555-1.354-.15.456-.664 1.102-1.32 1.288l-.235.066Zm1.53-.203c-.064-.534.726-1.234 1.41-1.503-.103.47-.55 1.163-1.183 1.413l-.228.09.245-.018c.679-.049 1.384.384 1.681.763-.733.053-1.75-.238-1.926-.745Zm1.5-.355.217-.112c.605-.311.978-1.046 1.033-1.524-.653.336-1.367 1.111-1.25 1.636l.24-.042c.672-.116 1.417.243 1.752.59-.724.126-1.765-.06-1.992-.548Zm1.457-.503c-.17-.51.462-1.353 1.078-1.752-.006.48-.303 1.249-.873 1.619l-.205.133.235-.066c.656-.183 1.434.1 1.802.413-.707.197-1.762.115-2.037-.347Zm1.399-.646c.32.433 1.378.409 2.062.142-.398-.274-1.2-.478-1.835-.231l-.227.089c-.22-.49.323-1.392.895-1.85.043.478-.175 1.272-.705 1.697l-.19.153Zm1.326-.782c-.27-.466.18-1.417.702-1.93.092.471-.044 1.283-.528 1.758l-.174.172.217-.111c.606-.31 1.426-.187 1.85.046-.654.334-1.704.463-2.067.065Zm1.24-.911c.402.36 1.433.126 2.05-.271-.445-.19-1.273-.23-1.845.139l-.205.132.156-.188c.433-.522.486-1.342.347-1.802-.468.562-.818 1.553-.503 1.99Zm1.142-1.03.135-.202c.379-.563.348-1.385.163-1.829-.408.607-.656 1.627-.298 2.03l.19-.152c.531-.423 1.36-.466 1.822-.322-.573.457-1.576.793-2.012.475Zm1.03-1.139c.468.272 1.431-.162 1.955-.673-.474-.097-1.294.029-1.78.503l-.174.17c-.397-.365-.254-1.405.09-2.05.23.423.344 1.238.025 1.835l-.115.215Zm.911-1.236c.492.225 1.407-.303 1.876-.865-.481-.049-1.284.158-1.719.678l-.157.187.093-.224c.257-.627.06-1.426-.21-1.824-.278.675-.315 1.724.117 2.048Zm.78-1.32c.513.174 1.37-.443 1.78-1.048-.484 0-1.262.285-1.642.846l-.137.202c-.463-.279-.532-1.326-.325-2.026.31.369.586 1.144.394 1.792l-.07.234Zm.643-1.392c.528.122 1.317-.577 1.664-1.22-.482.048-1.227.41-1.548 1.006l-.116.214c-.488-.231-.664-1.266-.528-1.983.346.336.7 1.08.574 1.745l-.046.238Zm.499-1.448c.537.068 1.252-.706 1.53-1.38-.474.095-1.178.53-1.437 1.154l-.093.226c-.51-.182-.79-1.194-.728-1.92.378.299.806 1.004.748 1.677l-.02.243Zm.349-1.491c.54.014 1.174-.828 1.383-1.527-.463.143-1.12.646-1.314 1.293l-.07.233c-.525-.13-.906-1.108-.918-1.837.407.26.903.92.914 1.594l.005.244Zm.195-1.519c.54-.039 1.084-.94 1.222-1.656-.445.188-1.048.754-1.176 1.418l-.046.238c-.536-.076-1.015-1.012-1.1-1.736.43.218.991.824 1.071 1.495l.03.241Zm.04-1.53-.053-.236c-.147-.66-.767-1.206-1.218-1.38.16.711.73 1.594 1.272 1.617l.021-.242c.06-.674.602-1.296 1.026-1.528-.064.726-.514 1.677-1.047 1.77Zm-.114-1.525c.521-.146.873-1.136.863-1.866-.4.273-.875.947-.866 1.623l.003.243c-.54.032-1.199-.79-1.43-1.482.468.128 1.14.61 1.353 1.251l.077.231Zm-.27-1.507c.504-.197.753-1.217.67-1.942-.37.312-.775 1.03-.697 1.701l.027.241c-.534.086-1.272-.666-1.572-1.331.477.081 1.195.493 1.472 1.11l.1.221Zm-.42-1.471c.481-.247.626-1.287.468-2-.335.348-.666 1.103-.52 1.762l.052.238c-.523.138-1.334-.536-1.7-1.168.483.032 1.24.37 1.578.957l.122.21Zm-.568-1.423-.143-.197c-.397-.549-1.183-.81-1.667-.794.428.592 1.303 1.181 1.81.991l-.076-.23c-.212-.642.04-1.426.34-1.805.228.693.19 1.742-.264 2.035Zm-.71-1.358c-.485.24-1.415-.26-1.9-.806.48-.064 1.288.117 1.738.624l.162.182-.099-.222c-.276-.618-.104-1.423.155-1.829.297.666.366 1.713-.056 2.051Zm-.843-1.28c.385-.378.21-1.413-.153-2.046-.217.43-.306 1.248.032 1.835l.12.211-.18-.165c-.499-.459-1.322-.558-1.793-.447.54.495 1.515.899 1.974.612Zm-.97-1.19L35 13.749c-.544-.406-1.373-.422-1.83-.265.586.44 1.598.743 2.025.412l-.142-.198c-.395-.55-.39-1.373-.218-1.823.426.594.705 1.606.36 2.02Zm-1.086-1.086c.302-.447-.078-1.426-.563-1.974-.125.464-.047 1.283.402 1.791l.161.183c-.39.372-1.428.171-2.057-.206.44-.204 1.266-.27 1.848.08l.21.126Zm-1.19-.972c.255-.475-.223-1.41-.76-1.907-.078.474.083 1.28.581 1.741l.18.166-.222-.105c-.615-.29-1.43-.141-1.847.105.664.313 1.717.41 2.068 0Zm-1.283-.848c.206-.498-.365-1.381-.95-1.822-.029.48.213 1.266.755 1.674l.195.148c-.307.442-1.365.451-2.057.206.39-.286 1.186-.515 1.827-.288l.23.082Z" fill="#000"/></g><mask id="b" style="mask-type:luminance" maskUnits="userSpaceOnUse" x="29" y="15" width="14" height="25"><path d="m29.503 20.928 6.894-2.317 1.998.88 3.673-4.274-.703 9.301-2.75 9.628-7.188 5.331-2.187-1.292.658-2.613-.395-14.644Z" fill="#fff"/></mask><g mask="url(#b)"><path fill-rule="evenodd" clip-rule="evenodd" d="M30.276 10.272c-.262.47-1.313.585-2.027.41.359-.323 1.128-.63 1.789-.469l.238.059-.21-.127c-.58-.352-.9-1.11-.92-1.59.626.38 1.284 1.202 1.13 1.717Zm-6.26 28.474c.224 0 .405.18.405.402a.404.404 0 0 1-.406.403.403.403 0 0 1-.405-.402c0-.222.182-.403.406-.403Zm5.359-28.891-.185-.16c-.513-.444-1.339-.519-1.806-.393.554.479 1.541.853 1.991.553Zm-10.665.004c.45.3 1.438-.075 1.992-.554-.468-.125-1.294-.05-1.807.395l-.185.16Zm4.263 29.295c-.124.523-1.107.914-1.841.935.257-.406.915-.908 1.596-.928l.245-.007c.009-.538-.847-1.154-1.554-1.353.15.457.663 1.102 1.318 1.287l.236.066Zm-1.529-.202c.064-.534-.725-1.233-1.408-1.5.102.468.547 1.162 1.18 1.41l.228.09-.244-.017c-.68-.048-1.384.385-1.683.764.734.052 1.75-.24 1.927-.747Zm-1.5-.353c-.228.487-1.269.675-1.993.55.335-.348 1.08-.708 1.751-.593l.242.043c.117-.525-.597-1.3-1.249-1.635.054.477.427 1.212 1.032 1.522l.217.113Zm-1.456-.502c.17-.511-.462-1.353-1.077-1.751.005.48.302 1.248.872 1.618l.205.133-.236-.066c-.656-.182-1.434.102-1.803.414.708.197 1.762.114 2.039-.348Zm-1.399-.645c-.322.433-1.379.41-2.063.143.398-.274 1.201-.479 1.836-.232l.227.089c.22-.491-.322-1.392-.893-1.85-.044.478.173 1.272.703 1.697l.19.153Zm-1.325-.782c.27-.466-.18-1.416-.701-1.93-.092.472.043 1.284.527 1.759l.174.171-.218-.11c-.605-.31-1.425-.186-1.85.047.654.333 1.704.462 2.068.063Zm-1.24-.91c-.402.36-1.433.128-2.05-.27.446-.189 1.274-.23 1.845.138l.205.132-.155-.187c-.434-.522-.486-1.343-.346-1.802.467.562.816 1.552.501 1.99Zm-1.14-1.028c-.437.318-1.44-.017-2.012-.474.462-.143 1.29-.102 1.82.321l.192.153c.358-.404.11-1.424-.297-2.03-.185.443-.217 1.266.161 1.828l.136.202Zm-1.03-1.138c-.467.273-1.43-.16-1.954-.672.474-.097 1.294.027 1.78.501l.173.17c.398-.365.255-1.405-.089-2.049-.23.423-.344 1.238-.025 1.835l.114.215Zm-.91-1.235c-.492.225-1.406-.303-1.875-.864.481-.049 1.284.157 1.719.677l.156.187-.093-.225c-.256-.627-.06-1.425.212-1.824.277.675.313 1.724-.12 2.049Zm-.78-1.32-.068-.233c-.192-.648.085-1.424.395-1.794.207.7.136 1.747-.327 2.027l-.136-.202c-.38-.56-1.157-.845-1.641-.845.409.605 1.265 1.221 1.777 1.047Zm-.641-1.392c-.528.123-1.317-.575-1.663-1.218.482.047 1.227.408 1.548 1.004l.115.214c.489-.232.665-1.266.53-1.983-.346.336-.7 1.08-.575 1.745l.045.238ZM9.526 28.2l-.02-.243c-.057-.673.37-1.378.749-1.678.061.726-.22 1.739-.73 1.92l-.092-.225c-.259-.624-.963-1.058-1.437-1.153.278.674.993 1.448 1.53 1.379Zm-.348-1.491.005-.243c.011-.676.509-1.335.916-1.596-.013.73-.395 1.709-.92 1.839l-.07-.233c-.194-.648-.85-1.15-1.313-1.293.209.7.841 1.541 1.382 1.526Zm-.194-1.518c-.54-.04-1.083-.94-1.22-1.656.445.188 1.047.753 1.174 1.417l.046.239c.536-.077 1.016-1.013 1.102-1.737-.431.218-.992.824-1.073 1.495l-.029.242Zm-.039-1.53c-.534-.093-.983-1.043-1.046-1.769.424.231.966.854 1.025 1.527l.021.242c.541-.023 1.113-.906 1.272-1.618-.45.174-1.07.721-1.219 1.381l-.053.237Zm.116-1.526C8.54 21.99 8.189 21 8.2 20.27c.398.273.873.946.864 1.622l-.004.243c.54.032 1.2-.79 1.43-1.483-.466.128-1.139.611-1.353 1.252l-.077.231Zm.27-1.507.1-.221c.278-.617.997-1.03 1.474-1.111-.3.666-1.039 1.417-1.574 1.332l.029-.24c.078-.672-.327-1.39-.696-1.7-.084.723.164 1.743.667 1.94Zm.422-1.472c-.48-.246-.624-1.286-.466-1.998.335.346.665 1.1.519 1.76l-.053.238c.524.138 1.335-.536 1.701-1.169-.483.033-1.239.372-1.578.958l-.123.211Zm.57-1.423c-.454-.293-.491-1.342-.262-2.035.298.378.55 1.162.338 1.804l-.076.231c.506.19 1.381-.4 1.81-.993-.484-.015-1.27.247-1.667.796l-.143.197Zm.71-1.358c.485.24 1.416-.26 1.902-.807-.48-.064-1.289.117-1.74.624l-.162.183.1-.223c.276-.617.105-1.422-.153-1.829-.299.667-.368 1.714.053 2.052Zm.845-1.281c-.385-.378-.21-1.413.155-2.047.216.43.305 1.248-.033 1.835l-.122.212.18-.165c.5-.46 1.323-.56 1.794-.448-.54.495-1.516.9-1.974.613Zm.97-1.19.196-.147c.544-.407 1.373-.424 1.83-.266-.586.44-1.599.744-2.025.413l.142-.199c.395-.55.39-1.373.22-1.822-.427.594-.707 1.607-.362 2.02Zm1.087-1.088c-.301-.446.08-1.425.565-1.974.124.464.046 1.284-.403 1.792l-.162.182c.391.372 1.43.17 2.058-.208-.44-.202-1.266-.268-1.848.083l-.21.125Zm1.191-.973c-.254-.474.225-1.41.763-1.908.077.475-.085 1.282-.583 1.743l-.18.165.222-.104c.615-.291 1.43-.143 1.846.102-.664.314-1.717.411-2.067.002Zm1.284-.85.23-.081c.642-.228 1.438 0 1.827.287-.692.245-1.75.237-2.057-.205l.195-.147c.543-.41.785-1.196.757-1.676-.586.442-1.157 1.326-.952 1.823Zm1.363-.716c-.153-.515.504-1.338 1.132-1.718-.02.48-.342 1.239-.923 1.591l-.209.127.238-.058c.661-.163 1.43.144 1.788.467-.714.176-1.765.062-2.026-.409Zm7.278 28.876c.124.522 1.106.913 1.841.934-.258-.407-.915-.908-1.596-.927l-.245-.007c-.008-.538.848-1.155 1.555-1.354-.15.456-.664 1.102-1.32 1.288l-.235.066Zm1.53-.203c-.064-.534.726-1.234 1.41-1.503-.103.47-.55 1.163-1.183 1.413l-.228.09.245-.018c.679-.049 1.384.384 1.681.763-.733.053-1.75-.238-1.926-.745Zm1.5-.355.217-.112c.605-.311.978-1.046 1.033-1.524-.653.336-1.367 1.111-1.25 1.636l.24-.042c.672-.116 1.417.243 1.752.59-.724.126-1.765-.06-1.992-.548Zm1.457-.503c-.17-.51.462-1.353 1.078-1.752-.006.48-.303 1.249-.873 1.619l-.205.133.235-.066c.656-.183 1.434.1 1.803.413-.708.197-1.763.115-2.038-.347Zm1.398-.646c.322.433 1.38.409 2.063.142-.398-.274-1.2-.478-1.835-.231l-.228.089c-.22-.49.324-1.392.896-1.85.043.478-.175 1.272-.705 1.697l-.19.153Zm1.327-.782c-.27-.466.18-1.417.702-1.93.092.471-.044 1.283-.528 1.758l-.174.172.218-.111c.605-.31 1.425-.187 1.849.046-.654.334-1.704.463-2.067.065Zm1.24-.911c.402.36 1.433.126 2.05-.271-.445-.19-1.273-.23-1.845.139l-.205.132.156-.188c.433-.522.486-1.342.347-1.802-.468.562-.818 1.553-.503 1.99Zm1.142-1.03.135-.202c.378-.563.348-1.385.163-1.829-.408.607-.656 1.627-.298 2.03l.19-.152c.531-.423 1.36-.466 1.822-.322-.573.457-1.576.793-2.012.475Zm1.03-1.139c.468.272 1.43-.162 1.955-.673-.474-.097-1.294.029-1.78.503l-.174.17c-.397-.365-.254-1.405.09-2.05.23.423.344 1.238.025 1.835l-.115.215Zm.911-1.236c.492.225 1.407-.303 1.876-.865-.481-.049-1.284.158-1.719.678l-.157.187.093-.224c.257-.627.06-1.426-.21-1.824-.278.675-.315 1.724.117 2.048Zm.78-1.32c.513.174 1.37-.443 1.78-1.048-.484 0-1.262.285-1.642.846l-.137.202c-.463-.279-.532-1.326-.325-2.026.31.369.586 1.144.394 1.792l-.07.234Zm.643-1.392c.528.122 1.317-.577 1.664-1.22-.482.048-1.227.41-1.548 1.006l-.116.214c-.488-.231-.664-1.266-.528-1.983.346.336.699 1.08.574 1.745l-.046.238Zm.499-1.448c.537.068 1.251-.706 1.53-1.38-.474.095-1.178.53-1.437 1.154l-.093.226c-.51-.182-.79-1.194-.728-1.92.378.299.806 1.004.748 1.677l-.02.243Zm.348-1.491c.542.014 1.175-.828 1.384-1.527-.463.143-1.12.646-1.314 1.293l-.07.233c-.525-.13-.906-1.108-.918-1.837.407.26.903.92.914 1.594l.005.244Zm.196-1.519c.54-.039 1.084-.94 1.222-1.656-.446.188-1.048.754-1.176 1.418l-.046.238c-.536-.076-1.015-1.012-1.1-1.736.43.218.991.824 1.071 1.495l.03.241Zm.04-1.53-.053-.236c-.147-.66-.767-1.206-1.218-1.38.16.711.73 1.594 1.272 1.617l.02-.242c.06-.674.603-1.296 1.027-1.528-.064.726-.514 1.677-1.047 1.77Zm-.114-1.525c.521-.146.872-1.136.863-1.866-.4.273-.876.947-.866 1.623l.003.243c-.54.032-1.199-.79-1.43-1.482.467.128 1.14.61 1.353 1.251l.077.231Zm-.27-1.507c.504-.197.753-1.217.67-1.942-.37.312-.775 1.03-.697 1.701l.027.241c-.534.086-1.272-.666-1.572-1.331.477.081 1.195.493 1.472 1.11l.1.221Zm-.42-1.471c.481-.247.626-1.287.469-2-.336.348-.667 1.103-.521 1.762l.052.238c-.523.138-1.334-.536-1.7-1.168.483.032 1.239.37 1.578.957l.122.21Zm-.568-1.423-.143-.197c-.397-.549-1.183-.81-1.667-.794.428.592 1.303 1.181 1.81.991l-.076-.23c-.212-.642.04-1.426.34-1.805.228.693.19 1.742-.264 2.035Zm-.71-1.358c-.485.24-1.415-.26-1.9-.806.48-.064 1.288.117 1.738.624l.162.182-.099-.222c-.276-.618-.104-1.423.155-1.829.297.666.366 1.713-.056 2.051Zm-.843-1.28c.385-.378.21-1.413-.153-2.046-.217.43-.306 1.248.032 1.835l.12.211-.18-.165c-.499-.459-1.322-.558-1.793-.447.54.495 1.515.899 1.974.612Zm-.97-1.19-.195-.146c-.544-.406-1.373-.422-1.83-.265.586.44 1.598.743 2.025.412l-.142-.198c-.395-.55-.39-1.373-.218-1.823.426.594.705 1.606.36 2.02Zm-1.086-1.086c.302-.447-.078-1.426-.563-1.974-.125.464-.047 1.283.402 1.791l.161.183c-.39.372-1.428.171-2.057-.206.44-.204 1.266-.27 1.848.08l.21.126Zm-1.19-.972c.255-.475-.223-1.41-.76-1.907-.078.474.083 1.28.581 1.741l.18.166-.222-.105c-.615-.29-1.43-.141-1.847.105.664.313 1.717.41 2.068 0Zm-1.283-.848c.206-.498-.365-1.381-.95-1.822-.029.48.213 1.266.755 1.674l.195.148c-.307.442-1.365.451-2.057.206.39-.286 1.186-.515 1.827-.288l.23.082Z" fill="#000"/></g><path fill-rule="evenodd" clip-rule="evenodd" d="m38.502 19.65.011-.243c.031-.678-.422-1.372-.81-1.662-.033.732.285 1.739.8 1.906Zm-28.945 0-.01-.243c-.032-.678.422-1.372.81-1.662.033.732-.285 1.739-.8 1.906Z" fill="#000"/></svg>