<svg width="48" height="48" viewBox="0 0 48 48" fill="none" xmlns="http://www.w3.org/2000/svg">
<path d="M29.991 47.8721C29.3084 47.8721 28.6488 47.7127 28.0308 47.3985L26.0809 46.4062C25.4371 46.0783 24.7174 45.905 24.0004 45.905C23.2834 45.905 22.5636 46.0783 21.9198 46.4062L19.9699 47.3985C19.3519 47.713 18.6923 47.8721 18.0097 47.8721C16.3488 47.8721 14.833 46.9228 14.0542 45.3946L13.0368 43.3986C12.3483 42.0471 11.1226 41.1201 9.67382 40.8555L7.53588 40.465C5.14394 40.0281 3.53671 37.7225 3.877 35.2164L4.18119 32.9792C4.38673 31.4664 3.91893 29.9689 2.89843 28.8696L1.38916 27.2456C-0.301595 25.4259 -0.301595 22.5751 1.38916 20.7555L2.89843 19.1314C3.91927 18.0325 4.38673 16.5346 4.18119 15.0219L3.87734 12.7846C3.53671 10.2782 5.14394 7.97291 7.53588 7.53605L9.67382 7.14558C11.1226 6.88092 12.3483 5.95391 13.0368 4.60275L14.0542 2.60643C14.833 1.07826 16.3488 0.128906 18.0097 0.128906C18.6923 0.128906 19.3519 0.288392 19.9699 0.602551L21.9198 1.59487C22.5636 1.92346 23.2834 2.0967 24.0004 2.0967C24.7174 2.0967 25.4371 1.92346 26.0809 1.59555L28.0308 0.603238C28.6488 0.288736 29.3084 0.129594 29.991 0.129594C31.6519 0.129594 33.1677 1.07895 33.9466 2.60712L34.9636 4.60344C35.6524 5.95494 36.8781 6.88161 38.3269 7.14627L40.4648 7.53674C42.8568 7.9736 44.464 10.2793 44.1237 12.7853L43.8195 15.0226C43.614 16.5353 44.0818 18.0332 45.1023 19.1321L46.6116 20.7562C48.3023 22.5758 48.3023 25.4266 46.6116 27.2463L45.1023 28.8703C44.0815 29.9692 43.614 31.4671 43.8192 32.9798L44.1237 35.2171C44.464 37.7235 42.8568 40.0288 40.4648 40.4657L38.3269 40.8562C36.8781 41.1208 35.6524 42.0478 34.9636 43.3993L33.9466 45.3953C33.1677 46.9228 31.6519 47.8721 29.991 47.8721ZM7.55651 34.6153C6.58344 34.6153 5.79151 35.4371 5.79151 36.4476C5.79151 37.4582 6.58344 38.28 7.55651 38.28C8.52958 38.28 9.3215 37.4582 9.3215 36.4476C9.3215 35.4371 8.52958 34.6153 7.55651 34.6153Z" fill="white"/>
<path d="M29.9909 0.258133C31.6032 0.258133 33.0747 1.18033 33.8316 2.6652L34.8486 4.66152C35.5557 6.04911 36.815 7.00087 38.3037 7.27275L40.4413 7.66321C42.7655 8.08771 44.3263 10.3298 43.9953 12.7678L43.6915 15.005C43.4808 16.5563 43.9606 18.0923 45.0079 19.2194L46.5169 20.8435C48.1619 22.614 48.1619 25.3878 46.5169 27.1583L45.0079 28.7823C43.9606 29.9094 43.4808 31.4455 43.6915 32.9967L43.9953 35.2339C44.3267 37.6719 42.7655 39.914 40.4413 40.3382L38.3037 40.7286C36.815 41.0005 35.556 41.9523 34.8486 43.3399L33.8316 45.3358C33.075 46.8207 31.6032 47.7429 29.9909 47.7429C29.3285 47.7429 28.6885 47.5882 28.0891 47.283L26.1391 46.2907C25.4771 45.9538 24.7374 45.7758 24.0002 45.7758C23.2629 45.7758 22.5232 45.9538 21.8612 46.2907L19.9113 47.283C19.3118 47.5882 18.6718 47.7429 18.0095 47.7429C16.3971 47.7429 14.9253 46.8207 14.1688 45.3358L13.1517 43.3399C12.4447 41.9523 11.1853 41.0005 9.69665 40.7286L7.55907 40.3382C5.23484 39.9137 3.67367 37.6716 4.00501 35.2336L4.30886 32.9963C4.51956 31.4451 4.03973 29.909 2.99276 28.782L1.48383 27.1579C-0.161204 25.3874 -0.161204 22.6136 1.48383 20.8431L2.99276 19.219C4.04007 18.092 4.5199 16.5559 4.3092 15.0047L4.00536 12.7674C3.67401 10.3294 5.23518 8.08736 7.55941 7.66321L9.697 7.27275C11.1856 7.00087 12.4447 6.04911 13.1521 4.66152L14.1691 2.66554C14.9256 1.18067 16.3975 0.258477 18.0098 0.258477C18.6722 0.258477 19.3122 0.41315 19.9116 0.718372L21.8616 1.71069C22.5232 2.04719 23.2629 2.22524 24.0002 2.22524C24.7374 2.22524 25.4771 2.04719 26.1391 1.71035L28.0891 0.718029C28.6885 0.412806 29.3282 0.258133 29.9909 0.258133ZM7.55632 38.4082C8.60054 38.4082 9.45021 37.5283 9.45021 36.4469C9.45021 35.3656 8.60054 34.4857 7.55632 34.4857C6.5121 34.4857 5.66243 35.3656 5.66243 36.4469C5.66243 37.5283 6.5121 38.4082 7.55632 38.4082ZM29.9909 0.00034372C29.3113 0.00034372 28.6222 0.157423 27.9722 0.488425L26.0223 1.48074C25.3843 1.80521 24.6921 1.96745 24.0002 1.96745C23.3083 1.96745 22.616 1.80521 21.9781 1.4804L20.0282 0.488081C19.3782 0.157423 18.6887 0.000343719 18.0095 0C16.3572 0 14.7641 0.929072 13.9392 2.54764L12.9221 4.54362C12.2563 5.84975 11.0492 6.76301 9.6506 7.0184L7.51301 7.40886C5.0671 7.8557 3.40213 10.2414 3.74997 12.8015L4.05382 15.0387C4.25283 16.5026 3.79156 17.9803 2.80406 19.0431L1.29513 20.6671C-0.431711 22.5253 -0.431711 25.4747 1.29513 27.3329L2.80406 28.9569C3.79156 30.0197 4.25249 31.497 4.05382 32.9613L3.74997 35.1985C3.40213 37.7585 5.0671 40.1446 7.51301 40.5911L9.6506 40.9816C11.0495 41.237 12.2567 42.1502 12.9221 43.4564L13.9392 45.4524C14.7641 47.0709 16.3572 48 18.0095 48C18.689 48 19.3782 47.8429 20.0282 47.5123L21.9781 46.5199C22.616 46.1951 23.3079 46.0329 24.0002 46.0329C24.6924 46.0329 25.3843 46.1951 26.0223 46.5199L27.9722 47.5123C28.6222 47.8429 29.3117 48 29.9909 48C31.6431 48 33.2362 47.0709 34.0612 45.4524L35.0782 43.4564C35.744 42.1502 36.9512 41.237 38.3498 40.9816L40.4873 40.5911C42.9332 40.1443 44.5982 37.7585 44.2504 35.1985L43.9465 32.9613C43.7475 31.4974 44.2088 30.0197 45.1963 28.9569L46.7052 27.3329C48.4317 25.4747 48.4317 22.5253 46.7052 20.6671L45.1963 19.0431C44.2088 17.9803 43.7479 16.5026 43.9465 15.0387L44.2504 12.8015C44.5982 10.2414 42.9332 7.85535 40.4873 7.40886L38.3498 7.0184C36.9508 6.76301 35.7437 5.84975 35.0782 4.54362L34.0612 2.54764C33.2362 0.929416 31.6431 0.00034372 29.9909 0.00034372ZM7.55632 38.1504C6.65268 38.1504 5.92022 37.3877 5.92022 36.4469C5.92022 35.5062 6.65268 34.7434 7.55632 34.7434C8.45995 34.7434 9.19242 35.5062 9.19242 36.4469C9.19242 37.3877 8.45995 38.1504 7.55632 38.1504Z" fill="#383838"/>
<path d="M11.8805 13.684L11.4423 14.2724L13.0375 15.461L12.6851 15.9336L11.0903 14.7451L10.6596 15.3225L10.2949 15.0506L11.5155 13.4121L11.8805 13.684Z" fill="black"/>
<path d="M14.106 13.5941L13.5371 14.1674L13.7616 14.5892L13.3182 15.0356L12.2148 12.6777L12.6057 12.2842L14.9763 13.3655L14.5305 13.8148L14.106 13.5941ZM13.3134 13.7464L13.6836 13.3734L12.8961 12.9634L13.3134 13.7464Z" fill="black"/>
<path d="M16.4969 11.9024C16.4824 12.0371 16.4226 12.1805 16.3175 12.3327C16.2119 12.4846 16.0751 12.6221 15.9067 12.7438C15.6472 12.9318 15.3825 13.0023 15.1124 12.9555C14.8426 12.9095 14.5999 12.7483 14.3844 12.4736L14.2589 12.3032C14.118 12.1083 14.0293 11.9127 13.9929 11.7178C13.9568 11.5222 13.974 11.339 14.0458 11.1672C14.1173 10.996 14.2376 10.8496 14.406 10.7276C14.6528 10.5492 14.8852 10.4667 15.1031 10.4811C15.3214 10.4952 15.5228 10.6059 15.7077 10.8138L15.2478 11.1465C15.1516 11.0476 15.0588 10.9943 14.9704 10.9864C14.8821 10.9792 14.7876 11.0108 14.6882 11.083C14.5679 11.1696 14.5123 11.2875 14.5208 11.4356C14.5288 11.5848 14.6006 11.7539 14.7367 11.9433L14.8233 12.0632C14.966 12.2605 15.1072 12.385 15.2468 12.4351C15.386 12.4857 15.5283 12.4582 15.673 12.3533C15.7974 12.2636 15.8699 12.1691 15.8909 12.0698L15.6685 11.7621L15.3365 12.0021L15.0997 11.6745L15.9088 11.0891L16.4969 11.9024Z" fill="black"/>
<path d="M17.2053 11.3601L18.1148 10.885L18.3245 11.2869L16.8929 12.0348L15.7617 9.8673L16.2842 9.59473L17.2053 11.3601Z" fill="black"/>
<path d="M19.0942 10.9975L18.5487 11.2157L17.6406 8.9458L18.1865 8.72754L19.0942 10.9975Z" fill="black"/>
<path d="M21.3685 10.3232L20.8027 10.4755L19.5708 9.23259L19.9661 10.7006L19.3973 10.8539L18.7617 8.49394L19.3306 8.34064L20.5607 9.58456L20.1655 8.11585L20.7326 7.96289L21.3685 10.3232Z" fill="black"/>
<path d="M23.0459 9.08087L22.1251 9.18674L22.1915 9.76693L23.279 9.64216L23.3305 10.0924L21.6577 10.2849L21.3789 7.85689L23.0549 7.66406L23.1068 8.11571L22.0158 8.24117L22.0746 8.75296L22.9954 8.6471L23.0459 9.08087Z" fill="black"/>
<path d="M25.7306 9.74711L24.9266 9.67218L24.7438 10.1135L24.1172 10.0551L25.2374 7.70508L25.789 7.75595L26.4603 10.274L25.8303 10.2149L25.7306 9.74711ZM25.1095 9.23222L25.6326 9.28137L25.4494 8.41314L25.1095 9.23222Z" fill="black"/>
<path d="M28.5343 9.89639L29.2173 8.4954L29.78 8.65316L28.622 10.8671L28.0332 10.7024L28.0937 9.27254L27.4093 10.5278L26.8223 10.3635L26.98 7.86914L27.5441 8.02691L27.4011 9.5788L28.1377 8.19292L28.6192 8.32835L28.5343 9.89639Z" fill="black"/>
<path d="M30.6072 11.2589L29.8802 10.9073L29.5547 11.2565L28.9883 10.9822L30.8605 9.17285L31.3589 9.41414L31.1063 12.0082L30.5371 11.7322L30.6072 11.2589ZM30.2057 10.5587L30.6787 10.788L30.8107 9.91013L30.2057 10.5587Z" fill="black"/>
<path d="M32.411 11.879L32.1494 11.6968L31.6551 12.4063L31.1719 12.0698L32.5684 10.0635L33.3579 10.6138C33.5958 10.7791 33.745 10.9616 33.8055 11.1606C33.8663 11.3593 33.8295 11.5549 33.6955 11.7477C33.5985 11.8872 33.4896 11.9835 33.3693 12.0357C33.249 12.088 33.1087 12.1007 32.9489 12.0739L32.8035 13.1752L32.7891 13.1961L32.2707 12.8352L32.411 11.879ZM32.4086 11.3249L32.7141 11.538C32.8063 11.602 32.8922 11.6257 32.9723 11.6095C33.0524 11.5937 33.1225 11.5425 33.1826 11.4559C33.2428 11.3693 33.2665 11.2851 33.2541 11.2032C33.2418 11.1214 33.1898 11.0493 33.0991 10.9857L32.7932 10.7722L32.4086 11.3249Z" fill="black"/>
<path d="M32.9258 13.3202L34.6138 11.5518L35.183 12.0952C35.3394 12.2447 35.4459 12.4141 35.503 12.6039C35.56 12.7936 35.5621 12.9861 35.5092 13.1827C35.4559 13.3786 35.3528 13.5574 35.2009 13.7186L35.1232 13.7997C34.9685 13.9616 34.796 14.074 34.6052 14.1369C34.4137 14.1998 34.2219 14.2084 34.0284 14.1623C33.8353 14.1159 33.6613 14.0203 33.5074 13.875L32.9258 13.3202ZM34.7258 12.2877L33.6651 13.3989L33.8133 13.5405C33.9353 13.657 34.0707 13.7031 34.2195 13.6787C34.3684 13.6543 34.5248 13.5563 34.6884 13.3845L34.7612 13.3078C34.9248 13.1373 35.0142 12.9772 35.0314 12.828C35.0489 12.6788 34.9946 12.5441 34.8688 12.4245L34.7258 12.2877Z" fill="black"/>
<path d="M35.7309 15.4C35.7989 15.3474 35.8336 15.2817 35.8343 15.2044C35.835 15.1271 35.8092 15.0112 35.756 14.8586C35.7027 14.706 35.6656 14.5761 35.6442 14.4695C35.5734 14.1237 35.646 13.8677 35.8611 13.7016C35.9684 13.6188 36.087 13.5769 36.2172 13.5762C36.3471 13.5752 36.4791 13.614 36.6128 13.6934C36.7469 13.7721 36.8689 13.8831 36.9789 14.0258C37.0861 14.1646 37.158 14.3087 37.1937 14.4575C37.2295 14.606 37.225 14.7462 37.1803 14.8782C37.136 15.0102 37.0549 15.1219 36.937 15.2126L36.5774 14.7472C36.6565 14.6867 36.6991 14.6153 36.705 14.5338C36.7111 14.452 36.6826 14.3695 36.6187 14.2873C36.5544 14.2045 36.485 14.1523 36.4111 14.133C36.3368 14.1131 36.2715 14.1248 36.2148 14.1688C36.165 14.2069 36.1409 14.2688 36.1416 14.3527C36.1423 14.4372 36.1732 14.5627 36.2337 14.7294C36.2942 14.8964 36.3324 15.0422 36.3492 15.1662C36.3905 15.468 36.3052 15.7011 36.0935 15.8643C35.9244 15.9956 35.7425 16.0341 35.5473 15.9812C35.3521 15.9283 35.1682 15.7908 34.9967 15.5687C34.8753 15.4117 34.7939 15.2484 34.7519 15.0776C34.71 14.9071 34.7131 14.7517 34.7612 14.6118C34.8097 14.4723 34.8973 14.353 35.0252 14.2547L35.3865 14.7218C35.2826 14.8022 35.2273 14.8878 35.2194 14.9796C35.2118 15.071 35.2545 15.1769 35.3476 15.2975C35.4071 15.3745 35.4707 15.4227 35.5387 15.4419C35.6064 15.4601 35.6707 15.4467 35.7309 15.4Z" fill="black"/>
<path d="M16.5216 24.8909C16.5216 24.7365 16.4666 24.6162 16.3562 24.53C16.2463 24.4437 16.0524 24.3543 15.7757 24.2622C15.4983 24.1698 15.2722 24.0807 15.0962 23.9945C14.5235 23.7157 14.2376 23.3328 14.2376 22.8454C14.2376 22.6027 14.3087 22.3886 14.4514 22.2033C14.594 22.0181 14.7958 21.8737 15.0566 21.7703C15.3175 21.6671 15.6107 21.6152 15.9366 21.6152C16.2542 21.6152 16.5388 21.6716 16.7904 21.7837C17.042 21.8957 17.2379 22.0559 17.3771 22.2635C17.5166 22.4711 17.5864 22.7079 17.5864 22.9746H16.5247C16.5247 22.7963 16.4697 22.6577 16.3597 22.5594C16.2494 22.4611 16.1002 22.412 15.9122 22.412C15.7217 22.412 15.5719 22.4536 15.4615 22.5367C15.3512 22.6199 15.2962 22.7258 15.2962 22.854C15.2962 22.9664 15.3571 23.0681 15.478 23.1592C15.5997 23.2507 15.8128 23.3448 16.1181 23.4421C16.4236 23.5394 16.6742 23.6442 16.8701 23.7566C17.3475 24.0292 17.5861 24.4052 17.5861 24.8843C17.5861 25.2672 17.4403 25.568 17.1492 25.7866C16.8577 26.0056 16.4583 26.1145 15.951 26.1145C15.5932 26.1145 15.2691 26.0509 14.979 25.9234C14.6885 25.7962 14.4703 25.6216 14.3238 25.4003C14.1771 25.1786 14.1035 24.9235 14.1035 24.6345H15.1711C15.1711 24.8692 15.2326 25.0425 15.3547 25.1535C15.477 25.2648 15.676 25.3205 15.9507 25.3205C16.1266 25.3205 16.2655 25.2831 16.3679 25.2078C16.4707 25.1329 16.5216 25.027 16.5216 24.8909Z" fill="black"/>
<path d="M21.8244 26.0564H20.7657V24.2278H19.1977V26.0564H18.1328V21.6768H19.1977V23.4153H20.7657V21.6768H21.8244V26.0564Z" fill="black"/>
<path d="M26.2371 23.9556C26.2371 24.3829 26.1574 24.7606 25.9976 25.0895C25.8377 25.4181 25.6109 25.6711 25.3167 25.8488C25.0228 26.0265 24.6873 26.1149 24.3109 26.1149C23.9349 26.1149 23.6015 26.0293 23.31 25.8578C23.0186 25.6862 22.7917 25.4412 22.6291 25.1222C22.4665 24.8032 22.381 24.4375 22.373 24.0244V23.7779C22.373 23.349 22.4521 22.9702 22.6109 22.6426C22.7697 22.3147 22.9972 22.0617 23.2932 21.883C23.5895 21.7046 23.927 21.6152 24.3047 21.6152C24.6791 21.6152 25.0128 21.7036 25.306 21.8802C25.5992 22.0566 25.8271 22.3078 25.9897 22.6337C26.1522 22.9595 26.2351 23.3331 26.2371 23.7542V23.9556ZM25.1541 23.7721C25.1541 23.3369 25.0805 23.0066 24.9338 22.7811C24.7873 22.5556 24.5777 22.4429 24.3044 22.4429C23.7706 22.4429 23.4884 22.8399 23.4582 23.6339L23.4551 23.956C23.4551 24.3853 23.5269 24.7149 23.6702 24.9452C23.8139 25.1758 24.0274 25.2913 24.3102 25.2913C24.5794 25.2913 24.7866 25.1779 24.9324 24.9514C25.0781 24.7249 25.152 24.3994 25.1541 23.9738V23.7721Z" fill="black"/>
<path d="M28.4284 24.5073H27.852V26.0564H26.7871V21.6768H28.5253C29.0491 21.6768 29.4588 21.7919 29.7537 22.0222C30.049 22.2525 30.1968 22.578 30.1968 22.9987C30.1968 23.3032 30.1346 23.5555 30.0102 23.7559C29.8861 23.9563 29.6912 24.1185 29.4262 24.2426L30.3487 26.0107V26.0561H29.2083L28.4284 24.5073ZM27.852 23.6951H28.5253C28.7277 23.6951 28.8797 23.6425 28.9818 23.537C29.0842 23.4314 29.1351 23.2843 29.1351 23.0953C29.1351 22.9062 29.0835 22.7581 28.9804 22.6505C28.8773 22.5429 28.7257 22.4893 28.5253 22.4893H27.852V23.6951Z" fill="black"/>
<path d="M34.1548 22.4921H32.8291V26.0564H31.7642V22.4921H30.4629V21.6768H34.1548V22.4921Z" fill="black"/>
<path d="M21.5813 40.1731L19.9102 39.8315L19.9841 39.4695L20.9197 38.8178C21.1534 38.6405 21.2837 38.4882 21.3098 38.3614C21.3307 38.2579 21.3242 38.1751 21.2902 38.1122C21.2558 38.0489 21.1964 38.0087 21.1111 37.9915C21.0266 37.9744 20.9506 37.996 20.8832 38.0568C20.8162 38.1177 20.7715 38.2022 20.7492 38.3095L20.1934 38.1957C20.2236 38.0493 20.2879 37.9204 20.3866 37.8114C20.4855 37.7021 20.6076 37.6255 20.7523 37.5822C20.897 37.5385 21.0499 37.5334 21.2111 37.566C21.47 37.619 21.6573 37.7197 21.7728 37.8678C21.8879 38.0159 21.923 38.2019 21.8773 38.4253C21.8577 38.5198 21.8216 38.6078 21.7683 38.69C21.715 38.7725 21.6411 38.855 21.5469 38.9381C21.4531 39.0213 21.3067 39.1286 21.109 39.2588L20.7265 39.5527L21.669 39.7455L21.5813 40.1731Z" fill="black"/>
<path d="M23.9114 39.3565C23.8915 39.6864 23.8018 39.936 23.6433 40.1058C23.4842 40.2752 23.27 40.3519 23.0009 40.3357C22.7294 40.3185 22.5249 40.2158 22.3874 40.0274C22.2499 39.8384 22.1911 39.5802 22.2107 39.2527L22.2382 38.8072C22.2581 38.4776 22.3475 38.2277 22.5063 38.0579C22.6654 37.8888 22.8799 37.8121 23.1504 37.8283C23.4206 37.8448 23.6244 37.9479 23.7623 38.1366C23.8994 38.3253 23.9585 38.5841 23.9386 38.9124L23.9114 39.3565ZM23.3783 38.8044C23.389 38.6291 23.3739 38.4965 23.3336 38.4071C23.2931 38.3177 23.2233 38.2703 23.1236 38.2645C23.0267 38.2579 22.9535 38.2944 22.9043 38.3717C22.8552 38.449 22.8242 38.5693 22.8108 38.733L22.773 39.3561C22.762 39.5379 22.7768 39.6727 22.8177 39.76C22.8579 39.8473 22.928 39.8937 23.0274 39.8995C23.1233 39.9054 23.1968 39.8686 23.2477 39.7895C23.2986 39.7105 23.3299 39.583 23.3419 39.408L23.3783 38.8044Z" fill="black"/>
<path d="M26.1372 40.2117L24.4372 40.3478L24.4076 39.98L25.1253 39.0939C25.3006 38.8588 25.3831 38.6763 25.3728 38.5471C25.3645 38.4419 25.3353 38.3639 25.2851 38.3133C25.2349 38.2625 25.1662 38.2401 25.0792 38.247C24.9933 38.2539 24.9266 38.2965 24.8788 38.3735C24.8311 38.4505 24.8118 38.544 24.8204 38.6533L24.2546 38.6987C24.243 38.5491 24.2694 38.4079 24.3337 38.2755C24.398 38.1432 24.4942 38.036 24.6214 37.9535C24.7482 37.8717 24.894 37.8239 25.0583 37.8108C25.3215 37.7895 25.5288 37.8342 25.6811 37.9449C25.833 38.0549 25.9179 38.224 25.9365 38.4519C25.9437 38.5478 25.9337 38.6423 25.9052 38.7361C25.8766 38.8296 25.8289 38.9296 25.7615 39.0355C25.6941 39.1417 25.5835 39.2847 25.4295 39.4651L25.1442 39.8539L26.1028 39.7769L26.1372 40.2117Z" fill="black"/>
<path d="M26.8922 38.5871L27.1531 38.529C27.3593 38.4829 27.4401 38.3592 27.3951 38.1571C27.3772 38.0784 27.3387 38.0196 27.2786 37.9808C27.2181 37.9419 27.1431 37.9323 27.0538 37.9522C26.9806 37.9687 26.9214 38.0041 26.8771 38.0591C26.8324 38.1134 26.8173 38.1722 26.831 38.2361L26.279 38.3588C26.2512 38.2334 26.2612 38.1134 26.3093 37.9997C26.3574 37.8859 26.4368 37.7872 26.5488 37.7047C26.6602 37.6219 26.7905 37.5642 26.9393 37.5312C27.2047 37.4717 27.427 37.4858 27.6054 37.5734C27.7845 37.6608 27.8976 37.8103 27.9447 38.0223C27.9674 38.1255 27.9578 38.2296 27.9151 38.3341C27.8725 38.4393 27.7976 38.5338 27.69 38.6173C27.8268 38.6352 27.9419 38.6826 28.0351 38.7596C28.1279 38.8373 28.1894 38.9449 28.2204 39.0824C28.2678 39.2955 28.2238 39.4838 28.088 39.6481C27.9529 39.8124 27.7519 39.9241 27.4851 39.9836C27.3291 40.0187 27.1772 40.0207 27.0304 39.9915C26.8833 39.9616 26.7637 39.9015 26.6712 39.8117C26.5788 39.7213 26.5179 39.6093 26.488 39.4749L27.0435 39.3515C27.0596 39.4247 27.1033 39.4818 27.1744 39.5216C27.2452 39.5619 27.3239 39.5725 27.4102 39.5536C27.5075 39.532 27.579 39.488 27.625 39.4206C27.6707 39.3536 27.6842 39.278 27.6656 39.1941C27.6391 39.0738 27.5896 38.9954 27.5185 38.9586C27.447 38.9212 27.3586 38.915 27.2528 38.938L26.984 38.9982L26.8922 38.5871Z" fill="black"/>
<mask id="mask0_3357_3081" style="mask-type:luminance" maskUnits="userSpaceOnUse" x="2" y="17" width="17" height="23">
<path d="M16.173 39.7041L18.8028 38.2543L18.1813 35.7593L16.6067 22.8206L11.131 18.9352L9.64884 19.4938L8.48879 17.4961L2.85352 27.0996L16.173 39.7041Z" fill="white"/>
</mask>
<g mask="url(#mask0_3357_3081)">
<path fill-rule="evenodd" clip-rule="evenodd" d="M30.2739 10.2719C30.0124 10.7428 28.9609 10.8573 28.2474 10.6827C28.6059 10.3592 29.3751 10.0512 30.0361 10.2135L30.2739 10.2719L30.065 10.1451C29.4841 9.79345 29.1634 9.03452 29.1434 8.55469C29.7704 8.9345 30.4276 9.75667 30.2739 10.2719ZM24.0138 38.7463C24.2379 38.7463 24.419 38.926 24.419 39.1484C24.419 39.3701 24.2375 39.5502 24.0134 39.5506C23.7893 39.5509 23.6082 39.3708 23.6082 39.1488C23.6085 38.9267 23.7897 38.7463 24.0138 38.7463ZM29.373 9.85463L29.1885 9.69515C28.6753 9.25106 27.8493 9.17647 27.3819 9.30159C27.9356 9.78073 28.9235 10.1554 29.373 9.85463ZM18.7081 9.8591C19.1574 10.1595 20.1456 9.78417 20.6996 9.30468C20.2322 9.17991 19.4062 9.25484 18.8927 9.69961L18.7081 9.8591ZM22.9709 39.1539C22.8465 39.6767 21.8645 40.0679 21.1296 40.0895C21.3874 39.6826 22.0453 39.1811 22.7262 39.1608L22.9709 39.1539C22.9795 38.6163 22.124 37.9997 21.417 37.801C21.5665 38.2578 22.08 38.9033 22.7355 39.0879L22.9709 39.1539ZM21.4424 38.9522C21.5057 38.4184 20.7172 37.7192 20.0339 37.4511C20.1359 37.9203 20.5814 38.6139 21.2149 38.8624L21.4424 38.9522L21.198 38.9346C20.5188 38.8868 19.8135 39.3199 19.5155 39.6987C20.249 39.7506 21.2654 39.4595 21.4424 38.9522ZM19.9421 38.5985C19.7142 39.0859 18.6734 39.2739 17.9492 39.1484C18.284 38.8009 19.0295 38.441 19.7005 38.5562L19.9421 38.5985C20.059 38.0736 19.3454 37.2989 18.6934 36.9641C18.747 37.4415 19.1203 38.176 19.7245 38.4864L19.9421 38.5985ZM18.4858 38.0966C18.6552 37.5859 18.0241 36.7441 17.4092 36.3457C17.4144 36.8263 17.7107 37.5941 18.2809 37.9636L18.4858 38.0966L18.25 38.031C17.5941 37.8485 16.816 38.1331 16.4475 38.4452C17.1549 38.6418 18.2094 38.5593 18.4858 38.0966ZM17.0872 37.4515C16.7654 37.8846 15.7082 37.8612 15.0242 37.5951C15.4222 37.3212 16.2255 37.1163 16.8596 37.3628L17.0872 37.4515C17.3078 36.9606 16.7651 36.0598 16.1938 35.6019C16.1502 36.0804 16.3671 36.874 16.8967 37.2989L17.0872 37.4515ZM15.7618 36.6702C16.0313 36.2038 15.5827 35.2537 15.0609 34.7406C14.9688 35.2121 15.1042 36.024 15.5879 36.499L15.7618 36.6702L15.5442 36.5595C14.9389 36.2502 14.1188 36.3739 13.695 36.607C14.3481 36.9404 15.3978 37.0689 15.7618 36.6702ZM14.5223 35.7604C14.1198 36.1206 13.0887 35.8876 12.4724 35.4909C12.9178 35.3015 13.7459 35.2603 14.3168 35.628L14.5223 35.7604L14.3666 35.5731C13.9335 35.0513 13.8813 34.2305 14.0208 33.7706C14.488 34.3333 14.8375 35.3232 14.5223 35.7604ZM13.3819 34.7316C12.945 35.0499 11.9427 34.7151 11.3697 34.2583C11.8317 34.1147 12.6601 34.1562 13.1908 34.5794L13.3819 34.7316C13.7397 34.3278 13.4925 33.3079 13.0849 32.7013C12.8996 33.1454 12.8684 33.9675 13.2461 34.5295L13.3819 34.7316ZM12.3514 33.5939C11.8846 33.8665 10.9215 33.4334 10.398 32.9219C10.8724 32.825 11.6921 32.9494 12.1771 33.4234L12.3514 33.5939C12.7487 33.2279 12.6061 32.1885 12.262 31.5443C12.0324 31.9674 11.918 32.7824 12.2366 33.3791L12.3514 33.5939ZM11.4419 32.3586C10.9497 32.5837 10.0358 32.0561 9.56693 31.4952C10.0485 31.446 10.8514 31.6519 11.2859 32.172L11.4419 32.3586L11.3495 32.1338C11.093 31.5075 11.29 30.7087 11.5608 30.31C11.8379 30.9854 11.874 32.0341 11.4419 32.3586ZM10.6624 31.0391L10.5936 30.8057C10.4022 30.1578 10.6785 29.3816 10.9889 29.0125C11.1958 29.712 11.1254 30.7593 10.6624 31.0391L10.5259 30.8369C10.1464 30.2763 9.3686 29.9917 8.88465 29.9921C9.29402 30.597 10.1499 31.2133 10.6624 31.0391ZM10.021 29.6473C9.49337 29.77 8.70454 29.0716 8.35841 28.4285C8.84031 28.4759 9.58515 28.8372 9.90584 29.4332L10.021 29.6473C10.5098 29.4153 10.6861 28.3807 10.5517 27.6641C10.2056 28.0002 9.85153 28.7444 9.9763 29.4088L10.021 29.6473ZM9.52397 28.1996L9.50334 27.9573C9.44663 27.2843 9.87422 26.5786 10.253 26.2786C10.3142 27.0052 10.0337 28.0178 9.52397 28.1996L9.43082 27.9745C9.17234 27.3496 8.46841 26.9158 7.99373 26.8206C8.27249 27.495 8.98673 28.2687 9.52397 28.1996ZM9.17647 26.7089L9.18059 26.4659C9.19228 25.7901 9.68964 25.1312 10.0966 24.8703C10.0839 25.5994 9.70236 26.5786 9.17647 26.7089L9.10669 26.4758C8.91318 25.8283 8.25633 25.3261 7.79403 25.1835C8.00301 25.8826 8.63511 26.724 9.17647 26.7089ZM8.98226 25.1907C8.44194 25.1518 7.89886 24.2516 7.76172 23.535C8.20718 23.723 8.80937 24.2881 8.93655 24.9521L8.98226 25.1907C9.51847 25.114 9.99761 24.1777 10.0842 23.4539C9.65286 23.6725 9.09157 24.2781 9.01114 24.949L8.98226 25.1907ZM8.94308 23.6611C8.40929 23.5683 7.96039 22.6183 7.89714 21.892C8.32095 22.1233 8.86299 22.7455 8.92177 23.4192L8.94308 23.6611C9.48409 23.6381 10.056 22.7547 10.2155 22.0429C9.76423 22.2172 9.14416 22.764 8.99601 23.424L8.94308 23.6611ZM9.05891 22.1354C8.53784 21.9893 8.18724 20.9997 8.19824 20.2703C8.59661 20.5433 9.07232 21.2163 9.0627 21.892L9.05891 22.1354C9.59958 22.1666 10.2581 21.3445 10.4895 20.6522C10.0227 20.7804 9.35039 21.263 9.13591 21.9044L9.05891 22.1354ZM9.32942 20.6282L9.42944 20.4065C9.70751 19.7895 10.4255 19.377 10.9026 19.2956C10.6026 19.9617 9.86425 20.7134 9.32942 20.6282L9.35761 20.3872C9.43597 19.7159 9.03107 18.9982 8.66192 18.6872C8.57771 19.4114 8.82587 20.4312 9.32942 20.6282ZM9.75151 19.1564C9.2703 18.9099 9.12697 17.8702 9.28474 17.1576C9.61986 17.5044 9.95018 18.2589 9.8041 18.9188L9.75151 19.1564C10.2746 19.2942 11.0858 18.6198 11.4522 17.9874C10.9693 18.0204 10.2131 18.3593 9.87387 18.9453L9.75151 19.1564ZM10.3207 17.7334C9.867 17.4398 9.82988 16.3911 10.0591 15.6982C10.3575 16.0763 10.6094 16.8603 10.397 17.5024L10.3207 17.7334C10.8273 17.9231 11.7025 17.3329 12.1314 16.7404C11.6475 16.7252 10.861 16.9868 10.4637 17.5357L10.3207 17.7334ZM11.0315 16.3746C11.5162 16.6142 12.4466 16.1144 12.9333 15.5676C12.4535 15.5037 11.6444 15.6855 11.1934 16.1925L11.0315 16.3746L11.1309 16.1522C11.4072 15.5346 11.236 14.7296 10.9776 14.3233C10.6795 14.9901 10.6101 16.0374 11.0315 16.3746ZM11.876 15.0939C11.4911 14.7162 11.6667 13.6813 12.0311 13.0474C12.2469 13.4774 12.3356 14.2955 11.9977 14.8822L11.876 15.0939L12.0561 14.929C12.5559 14.4697 13.3791 14.3697 13.85 14.4807C13.3107 14.9764 12.3342 15.3803 11.876 15.0939ZM12.8467 13.9036L13.0423 13.7569C13.5864 13.3499 14.4154 13.3331 14.8726 13.4905C14.2858 13.9301 13.2733 14.2346 12.8467 13.9036L12.989 13.7053C13.3843 13.155 13.3795 12.3322 13.2083 11.8829C12.7817 12.4772 12.5019 13.4895 12.8467 13.9036ZM13.9332 12.8165C13.6321 12.37 14.0133 11.3907 14.4979 10.8421C14.6223 11.3062 14.544 12.1256 14.0947 12.6336L13.9332 12.8165C14.324 13.1884 15.3624 12.9866 15.9907 12.6085C15.5518 12.4057 14.7251 12.3401 14.1425 12.6907L13.9332 12.8165ZM15.1245 11.843C14.8702 11.3687 15.3486 10.4324 15.8865 9.93541C15.9635 10.4097 15.802 11.2168 15.3036 11.6777L15.1245 11.843L15.3455 11.7386C15.9608 11.4478 16.7761 11.5956 17.1923 11.8413C16.5283 12.1551 15.4751 12.2521 15.1245 11.843ZM16.408 10.9937L16.6386 10.9119C17.28 10.6844 18.0764 10.9126 18.4655 11.1986C17.7732 11.4443 16.7156 11.4357 16.408 10.9937L16.6029 10.8466C17.1456 10.4379 17.3879 9.65081 17.3597 9.17132C16.774 9.61265 16.2031 10.4967 16.408 10.9937ZM17.7712 10.2771C17.6179 9.76183 18.2754 8.93931 18.903 8.55916C18.8824 9.03864 18.5614 9.79792 17.9801 10.1502L17.7712 10.2771L18.009 10.2186C18.6703 10.0557 19.4392 10.3633 19.7974 10.6864C19.0835 10.8617 18.0324 10.7476 17.7712 10.2771ZM25.0494 39.1529C25.1735 39.6753 26.1551 40.0658 26.89 40.0871C26.6326 39.6801 25.975 39.1793 25.2941 39.1598L25.0494 39.1529C25.0412 38.6153 25.8974 37.998 26.6044 37.7986C26.4549 38.2554 25.9403 38.9013 25.2849 39.0865L25.0494 39.1529ZM26.5783 38.9497C26.5154 38.416 27.3045 37.7161 27.9882 37.4473C27.8858 37.9169 27.4393 38.6105 26.8062 38.8597L26.5783 38.9497L26.8227 38.9319C27.5018 38.8834 28.2072 39.3162 28.5045 39.6946C27.771 39.7475 26.7546 39.4574 26.5783 38.9497ZM28.0786 38.595L28.2962 38.4826C28.9011 38.1716 29.2744 37.437 29.3291 36.9593C28.6763 37.2951 27.9621 38.0702 28.0786 38.595L28.3199 38.5528C28.9908 38.4369 29.7364 38.7964 30.0708 39.1433C29.3466 39.2694 28.3058 39.0824 28.0786 38.595ZM29.5356 38.0922C29.3665 37.5817 29.9983 36.7393 30.6139 36.3402C30.6084 36.8208 30.3111 37.589 29.7408 37.9588L29.5356 38.0922L29.7714 38.0262C30.4272 37.8433 31.2054 38.1269 31.5735 38.439C30.8658 38.6359 29.8113 38.5545 29.5356 38.0922ZM30.9346 37.446C31.2559 37.8787 32.3132 37.8547 32.9972 37.5879C32.5995 37.3143 31.7963 37.1102 31.1624 37.357L30.9346 37.446C30.7142 36.9551 31.2577 36.0543 31.8296 35.5957C31.8726 36.0742 31.655 36.8682 31.1253 37.2934L30.9346 37.446ZM32.2606 36.6637C31.9918 36.1976 32.4411 35.2469 32.9632 34.7337C33.055 35.2053 32.9188 36.0171 32.4349 36.4925L32.2606 36.6637L32.4785 36.5527C33.0842 36.243 33.9039 36.366 34.3278 36.5987C33.674 36.9325 32.6243 37.0617 32.2606 36.6637ZM33.5008 35.7528C33.9029 36.1127 34.9344 35.879 35.551 35.4816C35.1059 35.2926 34.2779 35.252 33.7063 35.6205L33.5008 35.7528L33.6568 35.5655C34.0899 35.0434 34.1432 34.2226 34.004 33.7627C33.5365 34.3254 33.1863 35.3156 33.5008 35.7528ZM34.6426 34.7227L34.7784 34.5206C35.1565 33.9583 35.1259 33.1361 34.9409 32.692C34.533 33.2994 34.2848 34.3195 34.6426 34.7227L34.8334 34.5704C35.3644 34.147 36.1924 34.1043 36.6547 34.2477C36.0818 34.7052 35.0791 35.0406 34.6426 34.7227ZM35.6738 33.5843C36.1405 33.8565 37.104 33.4224 37.6281 32.9109C37.1538 32.8144 36.334 32.9395 35.8487 33.4138L35.6738 33.5843C35.2771 33.2186 35.4204 32.1788 35.7648 31.5344C35.9941 31.9571 36.1082 32.7721 35.7889 33.3691L35.6738 33.5843ZM36.5843 32.3483C37.0761 32.5727 37.9908 32.0448 38.4603 31.4831C37.9787 31.4343 37.1758 31.6409 36.741 32.1613L36.5843 32.3483L36.6767 32.1235C36.9338 31.4972 36.7379 30.6981 36.4667 30.2997C36.1893 30.9755 36.1522 32.0242 36.5843 32.3483ZM37.3649 31.0281C37.8773 31.202 38.7339 30.5853 39.1439 29.9797C38.6596 29.9794 37.8818 30.2647 37.5017 30.826L37.3649 31.0281C36.9022 30.749 36.8328 29.7016 37.04 29.0015C37.3501 29.3706 37.6261 30.1464 37.4339 30.7943L37.3649 31.0281ZM38.0073 29.636C38.5349 29.7584 39.3244 29.0592 39.6709 28.4158C39.1893 28.4636 38.4438 28.8255 38.1228 29.4219L38.0073 29.636C37.5188 29.4047 37.3432 28.3701 37.4786 27.6531C37.8248 27.9889 38.1781 28.733 38.0526 29.3975L38.0073 29.636ZM38.5057 28.1879C39.0429 28.2563 39.7575 27.4819 40.0369 26.8075C39.5623 26.9031 38.8576 27.3375 38.5988 27.9624L38.5057 28.1879C37.9959 28.0064 37.7161 26.9942 37.7783 26.2672C38.1564 26.5669 38.5837 27.2722 38.5263 27.9452L38.5057 28.1879ZM38.8545 26.6965C39.3959 26.7113 40.0287 25.8695 40.238 25.1701C39.7754 25.313 39.1185 25.8156 38.9243 26.4635L38.8545 26.6965C38.329 26.5669 37.9481 25.588 37.9358 24.859C38.3427 25.1192 38.8394 25.7781 38.8504 26.4535L38.8545 26.6965ZM39.0501 25.1783C39.5904 25.1391 40.1342 24.2382 40.272 23.5219C39.8266 23.7103 39.2237 24.2757 39.0958 24.9398L39.0501 25.1783C38.5139 25.102 38.0354 24.1661 37.9495 23.4422C38.3805 23.6604 38.9415 24.2657 39.0212 24.9367L39.0501 25.1783ZM39.0907 23.6488L39.0374 23.4116C38.8899 22.752 38.2702 22.2055 37.8193 22.0316C37.9784 22.7431 38.5497 23.6261 39.0907 23.6488L39.112 23.4068C39.1714 22.7331 39.7138 22.1106 40.138 21.8789C40.074 22.6052 39.6241 23.5556 39.0907 23.6488ZM38.9759 22.123C39.4973 21.9766 39.8486 20.9867 39.8386 20.2573C39.4399 20.5302 38.9635 21.2042 38.9728 21.8796L38.9759 22.123C38.4352 22.1546 37.7773 21.3331 37.5467 20.6412C38.0135 20.7691 38.6854 21.251 38.8989 21.8924L38.9759 22.123ZM38.7064 20.6161C39.2103 20.4185 39.4595 19.3987 39.3756 18.6745C39.0065 18.9859 38.6009 19.7039 38.6785 20.3752L38.7064 20.6161C38.1719 20.7021 37.4339 19.9503 37.1339 19.2849C37.6113 19.366 38.329 19.7778 38.6064 20.3944L38.7064 20.6161ZM38.286 19.1447C38.7672 18.8979 38.9116 17.8581 38.7545 17.1456C38.419 17.4928 38.0884 18.2476 38.2338 18.9072L38.286 19.1447C37.7625 19.2828 36.952 18.6092 36.5863 17.9771C37.0693 18.0094 37.8251 18.3479 38.164 18.9336L38.286 19.1447ZM37.7179 17.7224L37.5752 17.5247C37.1782 16.9761 36.3921 16.7149 35.9082 16.7307C36.3364 17.323 37.2112 17.9124 37.7179 17.7224L37.6419 17.4917C37.4302 16.8497 37.6828 16.0656 37.9815 15.6872C38.2097 16.3798 38.1719 17.4285 37.7179 17.7224ZM37.0084 16.364C36.5234 16.6039 35.5933 16.1048 35.1073 15.5583C35.5871 15.494 36.3959 15.6752 36.8462 16.1818L37.0084 16.364L36.9094 16.1419C36.6334 15.5243 36.8053 14.7193 37.0641 14.313C37.3614 14.9795 37.4302 16.0264 37.0084 16.364ZM36.1646 15.084C36.5502 14.7059 36.3756 13.6709 36.0116 13.0378C35.7954 13.4681 35.7064 14.2862 36.0436 14.8726L36.1646 15.084L35.9848 14.919C35.4854 14.4601 34.6622 14.3608 34.191 14.4722C34.7302 14.9675 35.7064 15.3706 36.1646 15.084ZM35.195 13.8947L34.9997 13.7483C34.456 13.342 33.6269 13.3255 33.1694 13.4833C33.7561 13.9222 34.7684 14.2257 35.195 13.8947L35.053 13.6967C34.6581 13.1468 34.6636 12.3239 34.8351 11.8743C35.2613 12.4679 35.5404 13.4802 35.195 13.8947ZM34.1095 12.8079C34.4109 12.361 34.0308 11.3821 33.5465 10.8339C33.4214 11.2983 33.499 12.1173 33.9483 12.625L34.1095 12.8079C33.7187 13.1801 32.6807 12.979 32.0523 12.6016C32.4916 12.3985 33.3179 12.3322 33.9002 12.6821L34.1095 12.8079ZM32.9192 11.8358C33.1739 11.3612 32.6961 10.4252 32.1585 9.92853C32.0812 10.4032 32.2417 11.2096 32.7401 11.6702L32.9192 11.8358L32.6982 11.7313C32.0833 11.4409 31.2676 11.5897 30.8514 11.8358C31.5151 12.149 32.5679 12.2452 32.9192 11.8358ZM31.6364 10.9875C31.8416 10.4902 31.2714 9.60681 30.6861 9.16582C30.6572 9.64531 30.8992 10.4324 31.4412 10.8404L31.6364 10.9875C31.3288 11.4299 30.2708 11.4392 29.5789 11.1941C29.9684 10.9078 30.7648 10.6789 31.4061 10.9057L31.6364 10.9875Z" fill="black"/>
</g>
<mask id="mask1_3357_3081" style="mask-type:luminance" maskUnits="userSpaceOnUse" x="29" y="15" width="14" height="25">
<path d="M29.5025 20.9277L36.3965 18.611L38.3945 19.4916L42.0678 15.2168L41.3646 24.5185L38.6141 34.1457L31.4266 39.4775L29.2402 38.1848L29.8978 35.5718L29.5025 20.9277Z" fill="white"/>
</mask>
<g mask="url(#mask1_3357_3081)">
<path fill-rule="evenodd" clip-rule="evenodd" d="M30.2759 10.2719C30.0143 10.7428 28.9629 10.8573 28.2493 10.6827C28.6078 10.3592 29.3771 10.0512 30.038 10.2135L30.2759 10.2719L30.0669 10.1451C29.486 9.79345 29.1653 9.03452 29.1454 8.55469C29.7723 8.9345 30.4295 9.75667 30.2759 10.2719ZM24.0157 38.7463C24.2398 38.7463 24.421 38.926 24.421 39.1484C24.421 39.3701 24.2395 39.5502 24.0154 39.5506C23.7913 39.5509 23.6101 39.3708 23.6101 39.1488C23.6105 38.9267 23.7916 38.7463 24.0157 38.7463ZM29.375 9.85463L29.1904 9.69515C28.6772 9.25106 27.8513 9.17647 27.3838 9.30159C27.9376 9.78073 28.9254 10.1554 29.375 9.85463ZM18.7101 9.8591C19.1593 10.1595 20.1475 9.78417 20.7016 9.30468C20.2341 9.17991 19.4082 9.25484 18.8947 9.69961L18.7101 9.8591ZM22.9729 39.1539C22.8485 39.6767 21.8665 40.0679 21.1316 40.0895C21.3894 39.6826 22.0473 39.1811 22.7282 39.1608L22.9729 39.1539C22.9815 38.6163 22.126 37.9997 21.4189 37.801C21.5685 38.2578 22.082 38.9033 22.7374 39.0879L22.9729 39.1539ZM21.4444 38.9522C21.5076 38.4184 20.7191 37.7192 20.0358 37.4511C20.1379 37.9203 20.5834 38.6139 21.2168 38.8624L21.4444 38.9522L21.2 38.9346C20.5208 38.8868 19.8155 39.3199 19.5175 39.6987C20.251 39.7506 21.2674 39.4595 21.4444 38.9522ZM19.944 38.5985C19.7162 39.0859 18.6754 39.2739 17.9512 39.1484C18.2859 38.8009 19.0315 38.441 19.7024 38.5562L19.944 38.5985C20.0609 38.0736 19.3473 37.2989 18.6953 36.9641C18.7489 37.4415 19.1222 38.176 19.7265 38.4864L19.944 38.5985ZM18.4877 38.0966C18.6572 37.5859 18.0261 36.7441 17.4112 36.3457C17.4163 36.8263 17.7126 37.5941 18.2828 37.9636L18.4877 38.0966L18.2519 38.031C17.5961 37.8485 16.8179 38.1331 16.4494 38.4452C17.1568 38.6418 18.2114 38.5593 18.4877 38.0966ZM17.0891 37.4515C16.7674 37.8846 15.7101 37.8612 15.0261 37.5951C15.4241 37.3212 16.2274 37.1163 16.8616 37.3628L17.0891 37.4515C17.3098 36.9606 16.767 36.0598 16.1958 35.6019C16.1521 36.0804 16.369 36.874 16.8987 37.2989L17.0891 37.4515ZM15.7637 36.6702C16.0332 36.2038 15.5847 35.2537 15.0629 34.7406C14.9708 35.2121 15.1062 36.024 15.5898 36.499L15.7637 36.6702L15.5462 36.5595C14.9409 36.2502 14.1208 36.3739 13.6969 36.607C14.35 36.9404 15.3997 37.0689 15.7637 36.6702ZM14.5243 35.7604C14.1218 36.1206 13.0906 35.8876 12.4743 35.4909C12.9198 35.3015 13.7478 35.2603 14.3187 35.628L14.5243 35.7604L14.3686 35.5731C13.9355 35.0513 13.8832 34.2305 14.0228 33.7706C14.4899 34.3333 14.8395 35.3232 14.5243 35.7604ZM13.3838 34.7316C12.947 35.0499 11.9447 34.7151 11.3717 34.2583C11.8336 34.1147 12.662 34.1562 13.1927 34.5794L13.3838 34.7316C13.7416 34.3278 13.4945 33.3079 13.0868 32.7013C12.9016 33.1454 12.8703 33.9675 13.2481 34.5295L13.3838 34.7316ZM12.3534 33.5939C11.8866 33.8665 10.9235 33.4334 10.4 32.9219C10.8743 32.825 11.6941 32.9494 12.1791 33.4234L12.3534 33.5939C12.7507 33.2279 12.608 32.1885 12.264 31.5443C12.0344 31.9674 11.9199 32.7824 12.2385 33.3791L12.3534 33.5939ZM11.4439 32.3586C10.9517 32.5837 10.0377 32.0561 9.56888 31.4952C10.0504 31.446 10.8534 31.6519 11.2878 32.172L11.4439 32.3586L11.3514 32.1338C11.095 31.5075 11.2919 30.7087 11.5628 30.31C11.8398 30.9854 11.8759 32.0341 11.4439 32.3586ZM10.6643 31.0391L10.5956 30.8057C10.4041 30.1578 10.6805 29.3816 10.9908 29.0125C11.1978 29.712 11.1273 30.7593 10.6643 31.0391L10.5279 30.8369C10.1484 30.2763 9.37056 29.9917 8.8866 29.9921C9.29597 30.597 10.1518 31.2133 10.6643 31.0391ZM10.0229 29.6473C9.49533 29.77 8.70649 29.0716 8.36037 28.4285C8.84226 28.4759 9.5871 28.8372 9.90779 29.4332L10.0229 29.6473C10.5117 29.4153 10.688 28.3807 10.5536 27.6641C10.2075 28.0002 9.85348 28.7444 9.97825 29.4088L10.0229 29.6473ZM9.52592 28.1996L9.5053 27.9573C9.44858 27.2843 9.87617 26.5786 10.2549 26.2786C10.3161 27.0052 10.0357 28.0178 9.52592 28.1996L9.43277 27.9745C9.17429 27.3496 8.47036 26.9158 7.99568 26.8206C8.27444 27.495 8.98869 28.2687 9.52592 28.1996ZM9.17842 26.7089L9.18254 26.4659C9.19423 25.7901 9.69159 25.1312 10.0986 24.8703C10.0858 25.5994 9.70431 26.5786 9.17842 26.7089L9.10864 26.4758C8.91513 25.8283 8.25828 25.3261 7.79598 25.1835C8.00496 25.8826 8.63706 26.724 9.17842 26.7089ZM8.98422 25.1907C8.44389 25.1518 7.90082 24.2516 7.76367 23.535C8.20913 23.723 8.81133 24.2881 8.9385 24.9521L8.98422 25.1907C9.52042 25.114 9.99956 24.1777 10.0862 23.4539C9.65481 23.6725 9.09352 24.2781 9.01309 24.949L8.98422 25.1907ZM8.94503 23.6611C8.41124 23.5683 7.96234 22.6183 7.8991 21.892C8.3229 22.1233 8.86495 22.7455 8.92372 23.4192L8.94503 23.6611C9.48605 23.6381 10.058 22.7547 10.2175 22.0429C9.76618 22.2172 9.14611 22.764 8.99797 23.424L8.94503 23.6611ZM9.06087 22.1354C8.53979 21.9893 8.1892 20.9997 8.2002 20.2703C8.59857 20.5433 9.07427 21.2163 9.06465 21.892L9.06087 22.1354C9.60154 22.1666 10.2601 21.3445 10.4914 20.6522C10.0247 20.7804 9.35234 21.263 9.13786 21.9044L9.06087 22.1354ZM9.33137 20.6282L9.4314 20.4065C9.70947 19.7895 10.4275 19.377 10.9046 19.2956C10.6045 19.9617 9.8662 20.7134 9.33137 20.6282L9.35956 20.3872C9.43793 19.7159 9.03303 18.9982 8.66387 18.6872C8.57966 19.4114 8.82783 20.4312 9.33137 20.6282ZM9.75346 19.1564C9.27225 18.9099 9.12892 17.8702 9.28669 17.1576C9.62182 17.5044 9.95213 18.2589 9.80605 18.9188L9.75346 19.1564C10.2766 19.2942 11.0878 18.6198 11.4542 17.9874C10.9713 18.0204 10.2151 18.3593 9.87582 18.9453L9.75346 19.1564ZM10.3227 17.7334C9.86895 17.4398 9.83183 16.3911 10.0611 15.6982C10.3594 16.0763 10.6114 16.8603 10.399 17.5024L10.3227 17.7334C10.8293 17.9231 11.7044 17.3329 12.1334 16.7404C11.6494 16.7252 10.863 16.9868 10.4656 17.5357L10.3227 17.7334ZM11.0335 16.3746C11.5181 16.6142 12.4486 16.1144 12.9353 15.5676C12.4554 15.5037 11.6463 15.6855 11.1954 16.1925L11.0335 16.3746L11.1328 16.1522C11.4092 15.5346 11.238 14.7296 10.9795 14.3233C10.6815 14.9901 10.6121 16.0374 11.0335 16.3746ZM11.878 15.0939C11.493 14.7162 11.6687 13.6813 12.033 13.0474C12.2489 13.4774 12.3375 14.2955 11.9997 14.8822L11.878 15.0939L12.0581 14.929C12.5579 14.4697 13.3811 14.3697 13.852 14.4807C13.3127 14.9764 12.3362 15.3803 11.878 15.0939ZM12.8486 13.9036L13.0442 13.7569C13.5883 13.3499 14.4174 13.3331 14.8745 13.4905C14.2878 13.9301 13.2752 14.2346 12.8486 13.9036L12.991 13.7053C13.3862 13.155 13.3814 12.3322 13.2102 11.8829C12.7837 12.4772 12.5039 13.4895 12.8486 13.9036ZM13.9351 12.8165C13.634 12.37 14.0152 11.3907 14.4999 10.8421C14.6243 11.3062 14.5459 12.1256 14.0967 12.6336L13.9351 12.8165C14.326 13.1884 15.3643 12.9866 15.9926 12.6085C15.5537 12.4057 14.7271 12.3401 14.1445 12.6907L13.9351 12.8165ZM15.1265 11.843C14.8721 11.3687 15.3506 10.4324 15.8885 9.93541C15.9655 10.4097 15.8039 11.2168 15.3056 11.6777L15.1265 11.843L15.3475 11.7386C15.9627 11.4478 16.778 11.5956 17.1943 11.8413C16.5302 12.1551 15.4771 12.2521 15.1265 11.843ZM16.4099 10.9937L16.6406 10.9119C17.2819 10.6844 18.0783 10.9126 18.4674 11.1986C17.7752 11.4443 16.7176 11.4357 16.4099 10.9937L16.6048 10.8466C17.1475 10.4379 17.3899 9.65081 17.3617 9.17132C16.776 9.61265 16.2051 10.4967 16.4099 10.9937ZM17.7731 10.2771C17.6198 9.76183 18.2773 8.93931 18.905 8.55916C18.8844 9.03864 18.5633 9.79792 17.9821 10.1502L17.7731 10.2771L18.011 10.2186C18.6723 10.0557 19.4412 10.3633 19.7993 10.6864C19.0854 10.8617 18.0343 10.7476 17.7731 10.2771ZM25.0514 39.1529C25.1754 39.6753 26.1571 40.0658 26.892 40.0871C26.6345 39.6801 25.977 39.1793 25.2961 39.1598L25.0514 39.1529C25.0431 38.6153 25.8993 37.998 26.6063 37.7986C26.4568 38.2554 25.9423 38.9013 25.2868 39.0865L25.0514 39.1529ZM26.5802 38.9497C26.5173 38.416 27.3065 37.7161 27.9902 37.4473C27.8877 37.9169 27.4412 38.6105 26.8081 38.8597L26.5802 38.9497L26.8246 38.9319C27.5038 38.8834 28.2091 39.3162 28.5064 39.6946C27.7729 39.7475 26.7565 39.4574 26.5802 38.9497ZM28.0806 38.595L28.2981 38.4826C28.9031 38.1716 29.2764 37.437 29.331 36.9593C28.6783 37.2951 27.964 38.0702 28.0806 38.595L28.3218 38.5528C28.9928 38.4369 29.7383 38.7964 30.0727 39.1433C29.3485 39.2694 28.3078 39.0824 28.0806 38.595ZM29.5376 38.0922C29.3685 37.5817 30.0002 36.7393 30.6158 36.3402C30.6103 36.8208 30.313 37.589 29.7428 37.9588L29.5376 38.0922L29.7734 38.0262C30.4292 37.8433 31.2074 38.1269 31.5755 38.439C30.8678 38.6359 29.8132 38.5545 29.5376 38.0922ZM30.9365 37.446C31.2579 37.8787 32.3152 37.8547 32.9992 37.5879C32.6015 37.3143 31.7982 37.1102 31.1644 37.357L30.9365 37.446C30.7162 36.9551 31.2596 36.0543 31.8316 35.5957C31.8745 36.0742 31.6569 36.8682 31.1273 37.2934L30.9365 37.446ZM32.2626 36.6637C31.9938 36.1976 32.443 35.2469 32.9651 34.7337C33.0569 35.2053 32.9208 36.0171 32.4368 36.4925L32.2626 36.6637L32.4805 36.5527C33.0861 36.243 33.9059 36.366 34.3297 36.5987C33.676 36.9325 32.6262 37.0617 32.2626 36.6637ZM33.5027 35.7528C33.9049 36.1127 34.9364 35.879 35.553 35.4816C35.1079 35.2926 34.2799 35.252 33.7083 35.6205L33.5027 35.7528L33.6588 35.5655C34.0919 35.0434 34.1451 34.2226 34.0059 33.7627C33.5385 34.3254 33.1882 35.3156 33.5027 35.7528ZM34.6446 34.7227L34.7803 34.5206C35.1584 33.9583 35.1278 33.1361 34.9429 32.692C34.5349 33.2994 34.2867 34.3195 34.6446 34.7227L34.8353 34.5704C35.3664 34.147 36.1944 34.1043 36.6567 34.2477C36.0837 34.7052 35.0811 35.0406 34.6446 34.7227ZM35.6757 33.5843C36.1425 33.8565 37.1059 33.4224 37.6301 32.9109C37.1558 32.8144 36.336 32.9395 35.8507 33.4138L35.6757 33.5843C35.2791 33.2186 35.4224 32.1788 35.7668 31.5344C35.9961 31.9571 36.1102 32.7721 35.7909 33.3691L35.6757 33.5843ZM36.5862 32.3483C37.0781 32.5727 37.9927 32.0448 38.4622 31.4831C37.9807 31.4343 37.1778 31.6409 36.743 32.1613L36.5862 32.3483L36.6787 32.1235C36.9358 31.4972 36.7399 30.6981 36.4687 30.2997C36.1913 30.9755 36.1542 32.0242 36.5862 32.3483ZM37.3668 31.0281C37.8793 31.202 38.7358 30.5853 39.1459 29.9797C38.6616 29.9794 37.8838 30.2647 37.5036 30.826L37.3668 31.0281C36.9042 30.749 36.8347 29.7016 37.042 29.0015C37.352 29.3706 37.628 30.1464 37.4359 30.7943L37.3668 31.0281ZM38.0092 29.636C38.5368 29.7584 39.3263 29.0592 39.6728 28.4158C39.1913 28.4636 38.4457 28.8255 38.1247 29.4219L38.0092 29.636C37.5208 29.4047 37.3452 28.3701 37.4806 27.6531C37.8267 27.9889 38.18 28.733 38.0546 29.3975L38.0092 29.636ZM38.5076 28.1879C39.0448 28.2563 39.7594 27.4819 40.0389 26.8075C39.5642 26.9031 38.8596 27.3375 38.6008 27.9624L38.5076 28.1879C37.9979 28.0064 37.7181 26.9942 37.7803 26.2672C38.1584 26.5669 38.5856 27.2722 38.5282 27.9452L38.5076 28.1879ZM38.8565 26.6965C39.3978 26.7113 40.0306 25.8695 40.24 25.1701C39.7773 25.313 39.1205 25.8156 38.9263 26.4635L38.8565 26.6965C38.3309 26.5669 37.9501 25.588 37.9377 24.859C38.3447 25.1192 38.8414 25.7781 38.8524 26.4535L38.8565 26.6965ZM39.0521 25.1783C39.5924 25.1391 40.1362 24.2382 40.274 23.5219C39.8285 23.7103 39.2256 24.2757 39.0978 24.9398L39.0521 25.1783C38.5159 25.102 38.0374 24.1661 37.9515 23.4422C38.3825 23.6604 38.9434 24.2657 39.0232 24.9367L39.0521 25.1783ZM39.0926 23.6488L39.0393 23.4116C38.8919 22.752 38.2722 22.2055 37.8212 22.0316C37.9803 22.7431 38.5516 23.6261 39.0926 23.6488L39.1139 23.4068C39.1734 22.7331 39.7158 22.1106 40.1399 21.8789C40.076 22.6052 39.6261 23.5556 39.0926 23.6488ZM38.9778 22.123C39.4992 21.9766 39.8505 20.9867 39.8406 20.2573C39.4418 20.5302 38.9654 21.2042 38.9747 21.8796L38.9778 22.123C38.4371 22.1546 37.7793 21.3331 37.5486 20.6412C38.0154 20.7691 38.6874 21.251 38.9008 21.8924L38.9778 22.123ZM38.7083 20.6161C39.2122 20.4185 39.4614 19.3987 39.3776 18.6745C39.0084 18.9859 38.6028 19.7039 38.6805 20.3752L38.7083 20.6161C38.1739 20.7021 37.4359 19.9503 37.1358 19.2849C37.6133 19.366 38.3309 19.7778 38.6083 20.3944L38.7083 20.6161ZM38.288 19.1447C38.7692 18.8979 38.9135 17.8581 38.7565 17.1456C38.421 17.4928 38.0903 18.2476 38.2357 18.9072L38.288 19.1447C37.7645 19.2828 36.954 18.6092 36.5883 17.9771C37.0712 18.0094 37.827 18.3479 38.166 18.9336L38.288 19.1447ZM37.7198 17.7224L37.5772 17.5247C37.1802 16.9761 36.3941 16.7149 35.9101 16.7307C36.3384 17.323 37.2132 17.9124 37.7198 17.7224L37.6438 17.4917C37.4321 16.8497 37.6847 16.0656 37.9834 15.6872C38.2117 16.3798 38.1739 17.4285 37.7198 17.7224ZM37.0104 16.364C36.5254 16.6039 35.5953 16.1048 35.1093 15.5583C35.5891 15.494 36.3979 15.6752 36.8481 16.1818L37.0104 16.364L36.9114 16.1419C36.6354 15.5243 36.8072 14.7193 37.0661 14.313C37.3634 14.9795 37.4321 16.0264 37.0104 16.364ZM36.1665 15.084C36.5522 14.7059 36.3776 13.6709 36.0136 13.0378C35.7974 13.4681 35.7084 14.2862 36.0456 14.8726L36.1665 15.084L35.9868 14.919C35.4874 14.4601 34.6641 14.3608 34.1929 14.4722C34.7322 14.9675 35.7084 15.3706 36.1665 15.084ZM35.1969 13.8947L35.0017 13.7483C34.4579 13.342 33.6289 13.3255 33.1714 13.4833C33.7581 13.9222 34.7704 14.2257 35.1969 13.8947L35.055 13.6967C34.66 13.1468 34.6655 12.3239 34.837 11.8743C35.2632 12.4679 35.5423 13.4802 35.1969 13.8947ZM34.1114 12.8079C34.4129 12.361 34.0327 11.3821 33.5484 10.8339C33.4233 11.2983 33.501 12.1173 33.9502 12.625L34.1114 12.8079C33.7206 13.1801 32.6826 12.979 32.0543 12.6016C32.4936 12.3985 33.3199 12.3322 33.9021 12.6821L34.1114 12.8079ZM32.9211 11.8358C33.1758 11.3612 32.6981 10.4252 32.1605 9.92853C32.0832 10.4032 32.2437 11.2096 32.7421 11.6702L32.9211 11.8358L32.7001 11.7313C32.0852 11.4409 31.2696 11.5897 30.8533 11.8358C31.5171 12.149 32.5699 12.2452 32.9211 11.8358ZM31.6384 10.9875C31.8436 10.4902 31.2734 9.60681 30.688 9.16582C30.6591 9.64531 30.9011 10.4324 31.4432 10.8404L31.6384 10.9875C31.3308 11.4299 30.2728 11.4392 29.5809 11.1941C29.9703 10.9078 30.7667 10.6789 31.4081 10.9057L31.6384 10.9875Z" fill="black"/>
</g>
<path fill-rule="evenodd" clip-rule="evenodd" d="M38.5024 19.6507L38.5134 19.407C38.5443 18.7288 38.0913 18.0345 37.7036 17.7451C37.6702 18.4766 37.9882 19.484 38.5024 19.6507Z" fill="black"/>
<path fill-rule="evenodd" clip-rule="evenodd" d="M9.55742 19.6507L9.54642 19.407C9.51549 18.7288 9.96851 18.0345 10.3562 17.7451C10.3896 18.4766 10.0716 19.484 9.55742 19.6507Z" fill="black"/>
</svg>
