<svg width="48" height="48" viewBox="0 0 48 48" fill="none" xmlns="http://www.w3.org/2000/svg">
<path d="M46.7056 20.6671L45.1967 19.043C44.2092 17.9802 43.7483 16.5026 43.9469 15.0387L44.2508 12.8015C44.5986 10.2415 42.9336 7.85538 40.4878 7.4089L38.3502 7.01843C36.9516 6.76305 35.7441 5.8498 35.0787 4.54367L34.0613 2.54771C32.8975 0.263716 30.2034 -0.647477 27.9723 0.487819L26.0224 1.48013C24.7466 2.12941 23.2545 2.12941 21.9786 1.48013L20.0287 0.487819C17.7976 -0.647477 15.1036 0.263716 13.9398 2.54771L12.9224 4.54367C12.2569 5.8498 11.0495 6.76305 9.65088 7.01843L7.5133 7.4089C5.06741 7.85573 3.40245 10.2415 3.74995 12.8015L4.05379 15.0387C4.25281 16.5026 3.79154 17.9802 2.80404 19.043L1.29512 20.6671C-0.431708 22.5252 -0.431708 25.4746 1.29512 27.3328L2.80404 28.9568C3.79154 30.0196 4.25246 31.4969 4.05379 32.9611L3.74995 35.1984C3.40211 37.7584 5.06707 40.1445 7.5133 40.591L9.65088 40.9814C11.0495 41.2368 12.2569 42.1501 12.9224 43.4562L13.9398 45.4521C15.1036 47.7361 17.7976 48.6473 20.0287 47.512L21.9786 46.5197C23.2545 45.8704 24.7466 45.8704 26.0224 46.5197L27.9723 47.512C30.2034 48.6477 32.8975 47.7361 34.0613 45.4521L35.0787 43.4562C35.7441 42.1501 36.9516 41.2368 38.3502 40.9814L40.4878 40.591C42.9336 40.1441 44.5986 37.7584 44.2508 35.1984L43.9469 32.9611C43.7479 31.4972 44.2092 30.0196 45.1967 28.9568L46.7056 27.3328C48.4321 25.4746 48.4321 22.5256 46.7056 20.6671ZM7.55661 38.1499C6.65298 38.1499 5.92052 37.3872 5.92052 36.4464C5.92052 35.5057 6.65298 34.743 7.55661 34.743C8.46024 34.743 9.1927 35.5057 9.1927 36.4464C9.1927 37.3872 8.46024 38.1499 7.55661 38.1499Z" fill="#B9AF79"/>
<path d="M12.3457 26.0544V21.6748H13.9323C14.5001 21.6748 14.9325 21.7779 15.2288 21.9845C15.5247 22.1911 15.6732 22.4908 15.6732 22.8837C15.6732 23.1105 15.6206 23.304 15.5155 23.4642C15.4103 23.6247 15.2556 23.7429 15.0511 23.8193C15.2817 23.8794 15.4587 23.9918 15.5821 24.1561C15.7052 24.3207 15.7671 24.5211 15.7671 24.7576C15.7671 25.1866 15.6303 25.5093 15.356 25.7245C15.082 25.94 14.6761 26.0496 14.1382 26.0538H12.3457V26.0544ZM13.4102 23.5006H13.9653C14.198 23.4989 14.3637 23.4566 14.4627 23.3738C14.5616 23.2913 14.6115 23.1696 14.6115 23.0088C14.6115 22.8238 14.5579 22.6905 14.4506 22.609C14.3434 22.5276 14.1705 22.487 13.932 22.487H13.4102V23.5006ZM13.4102 24.1925V25.2426H14.1079C14.3001 25.2426 14.4475 25.1989 14.5506 25.1116C14.6538 25.0243 14.7053 24.9016 14.7053 24.7432C14.7053 24.3781 14.5225 24.1946 14.1561 24.1925H13.4102Z" fill="white"/>
<path d="M17.9928 24.5053H17.4164V26.0544H16.3516V21.6748H18.0897C18.6136 21.6748 19.0233 21.7899 19.3182 22.0202C19.6134 22.2505 19.7612 22.576 19.7612 22.9967C19.7612 23.3013 19.699 23.5536 19.5746 23.7539C19.4505 23.9543 19.2556 24.1166 18.9906 24.2406L19.9132 26.0087V26.0541H18.7727L17.9928 24.5053ZM17.4167 23.6931H18.0901C18.2925 23.6931 18.4445 23.6405 18.5465 23.535C18.649 23.4295 18.6998 23.2824 18.6998 23.0933C18.6998 22.9043 18.6483 22.7561 18.5452 22.6486C18.442 22.541 18.2905 22.4874 18.0901 22.4874H17.4167V23.6931Z" fill="white"/>
<path d="M24.1453 23.9546C24.1453 24.3819 24.0656 24.7596 23.9057 25.0885C23.7459 25.4171 23.5191 25.6701 23.2248 25.8478C22.931 26.0255 22.5955 26.1139 22.2191 26.1139C21.8431 26.1139 21.5097 26.0283 21.2182 25.8568C20.9268 25.6852 20.6999 25.4402 20.5373 25.1212C20.3747 24.8022 20.2892 24.4365 20.2812 24.0234V23.7769C20.2812 23.348 20.3603 22.9692 20.5191 22.6416C20.6779 22.3137 20.9054 22.0607 21.2014 21.882C21.4977 21.7036 21.8352 21.6143 22.2129 21.6143C22.5872 21.6143 22.921 21.7026 23.2142 21.8793C23.5074 22.0556 23.7353 22.3068 23.8978 22.6327C24.0604 22.9585 24.1433 23.3322 24.1453 23.7532V23.9546ZM23.0623 23.7711C23.0623 23.3359 22.9887 23.0056 22.8419 22.7801C22.6955 22.5547 22.4858 22.4419 22.2126 22.4419C21.6788 22.4419 21.3966 22.8389 21.3664 23.6329L21.3633 23.955C21.3633 24.3843 21.4351 24.7139 21.5784 24.9442C21.7221 25.1748 21.9356 25.2903 22.2184 25.2903C22.4876 25.2903 22.6948 25.1769 22.8406 24.9504C22.9863 24.7239 23.0602 24.3984 23.0623 23.9728V23.7711Z" fill="white"/>
<path d="M28.3821 26.0544H27.3235L25.7582 23.3295V26.0544H24.6934V21.6748H25.7582L27.3204 24.4001V21.6748H28.3821V26.0544Z" fill="white"/>
<path d="M30.2529 25.2422H32.3644V26.0541H28.9241V25.4976L31.0294 22.4901H28.9121V21.6748H32.3427V22.2162L30.2529 25.2422Z" fill="white"/>
<path d="M35.5851 24.1953H33.9105V25.2422H35.8883V26.0541H32.8457V21.6748H35.8941V22.4901H33.9105V23.4137H35.5851V24.1953Z" fill="white"/>
<path d="M11.8805 13.684L11.4422 14.2724L13.0374 15.461L12.6851 15.9336L11.0903 14.745L10.6596 15.3225L10.2949 15.0506L11.5155 13.4121L11.8805 13.684Z" fill="white"/>
<path d="M14.1079 13.5921L13.5391 14.1654L13.7635 14.5872L13.3201 15.0337L12.2168 12.6758L12.6076 12.2822L14.9782 13.3636L14.5324 13.8128L14.1079 13.5921ZM13.3153 13.7444L13.6855 13.3715L12.898 12.9614L13.3153 13.7444Z" fill="white"/>
<path d="M16.4988 11.9014C16.4844 12.0361 16.4246 12.1795 16.3194 12.3317C16.2139 12.4837 16.0771 12.6211 15.9087 12.7428C15.6492 12.9308 15.3845 13.0013 15.1143 12.9545C14.8445 12.9085 14.6018 12.7473 14.3863 12.4727L14.2609 12.3022C14.12 12.1073 14.0313 11.9117 13.9948 11.7168C13.9588 11.5212 13.9759 11.338 14.0478 11.1662C14.1193 10.995 14.2396 10.8486 14.408 10.7266C14.6548 10.5482 14.8871 10.4657 15.1051 10.4801C15.3233 10.4942 15.5247 10.6049 15.7096 10.8128L15.2498 11.1456C15.1535 11.0466 15.0607 10.9933 14.9724 10.9854C14.884 10.9782 14.7895 11.0098 14.6902 11.082C14.5699 11.1686 14.5142 11.2865 14.5228 11.4346C14.5307 11.5838 14.6025 11.7529 14.7386 11.9423L14.8253 12.0623C14.9679 12.2595 15.1092 12.384 15.2487 12.4342C15.3879 12.4847 15.5302 12.4572 15.6749 12.3524C15.7994 12.2626 15.8719 12.1681 15.8928 12.0688L15.6705 11.7612L15.3384 12.0011L15.1016 11.6735L15.9107 11.0882L16.4988 11.9014Z" fill="white"/>
<path d="M17.2053 11.362L18.1148 10.887L18.3245 11.2888L16.8929 12.0367L15.7617 9.86925L16.2842 9.59668L17.2053 11.362Z" fill="white"/>
<path d="M19.0962 10.9974L18.5507 11.2157L17.6426 8.9458L18.1884 8.72754L19.0962 10.9974Z" fill="white"/>
<path d="M21.3685 10.3222L20.8027 10.4745L19.5708 9.2316L19.9661 10.6996L19.3973 10.8529L18.7617 8.49296L19.3306 8.33966L20.5607 9.58357L20.1655 8.11487L20.7326 7.96191L21.3685 10.3222Z" fill="white"/>
<path d="M23.0459 9.07989L22.1251 9.18575L22.1915 9.76594L23.279 9.64118L23.3305 10.0914L21.6577 10.2839L21.3789 7.85591L23.0549 7.66309L23.1068 8.11473L22.0158 8.24019L22.0746 8.75198L22.9954 8.64612L23.0459 9.07989Z" fill="white"/>
<path d="M25.7306 9.74612L24.9266 9.67119L24.7438 10.1125L24.1172 10.0541L25.2374 7.7041L25.789 7.75497L26.4603 10.273L25.8303 10.2139L25.7306 9.74612ZM25.1095 9.23123L25.6326 9.28039L25.4494 8.41216L25.1095 9.23123Z" fill="white"/>
<path d="M28.5343 9.89638L29.2173 8.49539L29.7799 8.65316L28.622 10.867L28.0332 10.7024L28.0937 9.27254L27.4093 10.5278L26.8223 10.3635L26.98 7.86914L27.5441 8.02691L27.4011 9.57879L28.1377 8.19292L28.6192 8.32835L28.5343 9.89638Z" fill="white"/>
<path d="M30.6072 11.2579L29.8802 10.9063L29.5547 11.2555L28.9883 10.9812L30.8605 9.17188L31.3589 9.41316L31.1063 12.0072L30.5371 11.7312L30.6072 11.2579ZM30.2057 10.5577L30.6787 10.787L30.8107 9.90915L30.2057 10.5577Z" fill="white"/>
<path d="M32.411 11.878L32.1494 11.6958L31.6551 12.4053L31.1719 12.0688L32.5684 10.0625L33.3579 10.6128C33.5958 10.7781 33.7449 10.9606 33.8054 11.1596C33.8663 11.3583 33.8295 11.5539 33.6954 11.7467C33.5985 11.8863 33.4896 11.9825 33.3693 12.0347C33.249 12.087 33.1087 12.0997 32.9489 12.0729L32.8035 13.1742L32.7891 13.1951L32.2707 12.8342L32.411 11.878ZM32.4086 11.3239L32.7141 11.537C32.8062 11.601 32.8922 11.6247 32.9723 11.6085C33.0523 11.5927 33.1225 11.5415 33.1826 11.4549C33.2428 11.3683 33.2665 11.2841 33.2541 11.2023C33.2417 11.1205 33.1898 11.0483 33.0991 10.9847L32.7932 10.7712L32.4086 11.3239Z" fill="white"/>
<path d="M32.9277 13.3163L34.6157 11.5479L35.1849 12.0913C35.3413 12.2408 35.4479 12.4102 35.5049 12.6C35.562 12.7897 35.564 12.9822 35.5111 13.1788C35.4578 13.3747 35.3547 13.5534 35.2028 13.7146L35.1251 13.7958C34.9704 13.9576 34.7979 14.07 34.6071 14.1329C34.4157 14.1958 34.2239 14.2044 34.0304 14.1584C33.8372 14.112 33.6633 14.0164 33.5093 13.871L32.9277 13.3163ZM34.7278 12.2837L33.6671 13.395L33.8152 13.5366C33.9372 13.6531 34.0727 13.6992 34.2215 13.6748C34.3703 13.6504 34.5267 13.5524 34.6903 13.3805L34.7632 13.3039C34.9268 13.1334 35.0162 12.9732 35.0333 12.8241C35.0509 12.6749 34.9966 12.5402 34.8708 12.4205L34.7278 12.2837Z" fill="white"/>
<path d="M35.7309 15.398C35.7989 15.3454 35.8336 15.2798 35.8343 15.2024C35.835 15.1251 35.8092 15.0093 35.7559 14.8566C35.7027 14.704 35.6655 14.5741 35.6442 14.4676C35.5734 14.1218 35.646 13.8657 35.8611 13.6997C35.9684 13.6169 36.0869 13.5749 36.2172 13.5742C36.3471 13.5732 36.4791 13.612 36.6128 13.6914C36.7469 13.7702 36.8689 13.8812 36.9789 14.0238C37.0861 14.1627 37.158 14.3067 37.1937 14.4555C37.2295 14.604 37.225 14.7443 37.1803 14.8762C37.136 15.0082 37.0548 15.1199 36.937 15.2107L36.5774 14.7453C36.6565 14.6848 36.6991 14.6133 36.7049 14.5318C36.7111 14.45 36.6826 14.3675 36.6187 14.2854C36.5544 14.2026 36.485 14.1503 36.4111 14.1311C36.3368 14.1111 36.2715 14.1228 36.2148 14.1668C36.165 14.205 36.1409 14.2668 36.1416 14.3507C36.1423 14.4352 36.1732 14.5607 36.2337 14.7274C36.2942 14.8945 36.3324 15.0402 36.3492 15.1643C36.3904 15.4661 36.3052 15.6991 36.0935 15.8624C35.9244 15.9937 35.7425 16.0322 35.5473 15.9792C35.3521 15.9263 35.1682 15.7888 34.9967 15.5668C34.8753 15.4097 34.7939 15.2464 34.7519 15.0756C34.71 14.9051 34.7131 14.7497 34.7612 14.6099C34.8097 14.4703 34.8973 14.351 35.0252 14.2527L35.3864 14.7198C35.2826 14.8003 35.2273 14.8859 35.2194 14.9776C35.2118 15.0691 35.2545 15.1749 35.3476 15.2956C35.4071 15.3726 35.4707 15.4207 35.5387 15.4399C35.6064 15.4581 35.6707 15.4447 35.7309 15.398Z" fill="white"/>
<path d="M21.5813 40.1741L19.9102 39.8324L19.9841 39.4705L20.9197 38.8188C21.1534 38.6415 21.2836 38.4892 21.3098 38.3624C21.3307 38.2589 21.3242 38.1761 21.2902 38.1132C21.2558 38.0499 21.1963 38.0097 21.1111 37.9925C21.0265 37.9753 20.9506 37.997 20.8832 38.0578C20.8162 38.1187 20.7715 38.2032 20.7492 38.3105L20.1934 38.1967C20.2236 38.0503 20.2879 37.9214 20.3865 37.8124C20.4855 37.7031 20.6076 37.6265 20.7523 37.5831C20.897 37.5395 21.0499 37.5343 21.2111 37.567C21.4699 37.6199 21.6573 37.7206 21.7728 37.8688C21.8879 38.0169 21.923 38.2029 21.8772 38.4263C21.8577 38.5208 21.8216 38.6088 21.7683 38.6909C21.715 38.7734 21.6411 38.8559 21.5469 38.9391C21.4531 39.0223 21.3067 39.1295 21.109 39.2598L20.7265 39.5537L21.669 39.7465L21.5813 40.1741Z" fill="white"/>
<path d="M23.9134 39.3584C23.8934 39.6884 23.8037 39.9379 23.6453 40.1077C23.4861 40.2772 23.272 40.3538 23.0029 40.3376C22.7313 40.3205 22.5268 40.2177 22.3893 40.0293C22.2518 39.8403 22.1931 39.5822 22.2127 39.2546L22.2402 38.8091C22.2601 38.4795 22.3495 38.2296 22.5083 38.0598C22.6674 37.8907 22.8819 37.8141 23.1524 37.8302C23.4225 37.8467 23.6264 37.9498 23.7642 38.1385C23.9013 38.3272 23.9605 38.5861 23.9405 38.9143L23.9134 39.3584ZM23.3803 38.8064C23.3909 38.6311 23.3758 38.4984 23.3356 38.4091C23.295 38.3197 23.2252 38.2723 23.1256 38.2664C23.0286 38.2599 22.9554 38.2963 22.9063 38.3737C22.8571 38.451 22.8262 38.5713 22.8128 38.7349L22.775 39.3581C22.764 39.5399 22.7788 39.6746 22.8197 39.7619C22.8599 39.8492 22.93 39.8956 23.0293 39.9015C23.1252 39.9073 23.1988 39.8705 23.2497 39.7915C23.3005 39.7124 23.3318 39.5849 23.3438 39.41L23.3803 38.8064Z" fill="white"/>
<path d="M26.1391 40.2146L24.4391 40.3507L24.4095 39.9829L25.1272 39.0968C25.3025 38.8617 25.385 38.6792 25.3747 38.55C25.3665 38.4448 25.3372 38.3668 25.2871 38.3163C25.2369 38.2654 25.1681 38.2431 25.0812 38.2499C24.9952 38.2568 24.9286 38.2994 24.8808 38.3764C24.833 38.4534 24.8138 38.5469 24.8224 38.6562L24.2566 38.7016C24.2449 38.5521 24.2714 38.4108 24.3356 38.2785C24.3999 38.1461 24.4962 38.0389 24.6233 37.9564C24.7502 37.8746 24.8959 37.8268 25.0602 37.8138C25.3235 37.7924 25.5308 37.8371 25.683 37.9478C25.8349 38.0578 25.9198 38.2269 25.9384 38.4548C25.9456 38.5507 25.9356 38.6452 25.9071 38.739C25.8786 38.8325 25.8308 38.9326 25.7634 39.0384C25.6961 39.1446 25.5854 39.2876 25.4314 39.4681L25.1461 39.8568L26.1048 39.7798L26.1391 40.2146Z" fill="white"/>
<path d="M26.8942 38.588L27.1551 38.53C27.3613 38.4839 27.4421 38.3602 27.397 38.1581C27.3792 38.0793 27.3407 38.0206 27.2805 37.9817C27.22 37.9429 27.1451 37.9333 27.0557 37.9532C26.9825 37.9697 26.9234 38.0051 26.8791 38.0601C26.8344 38.1144 26.8192 38.1732 26.833 38.2371L26.281 38.3598C26.2531 38.2344 26.2631 38.1144 26.3112 38.0006C26.3594 37.8869 26.4387 37.7882 26.5508 37.7057C26.6622 37.6229 26.7924 37.5651 26.9413 37.5321C27.2066 37.4727 27.429 37.4868 27.6074 37.5744C27.7865 37.6617 27.8995 37.8112 27.9466 38.0233C27.9693 38.1264 27.9597 38.2306 27.9171 38.3351C27.8745 38.4402 27.7995 38.5348 27.6919 38.6183C27.8287 38.6362 27.9439 38.6836 28.037 38.7606C28.1298 38.8383 28.1914 38.9459 28.2223 39.0833C28.2697 39.2964 28.2257 39.4848 28.09 39.6491C27.9549 39.8134 27.7538 39.9251 27.4871 39.9846C27.331 40.0196 27.1791 40.0217 27.0323 39.9925C26.8852 39.9626 26.7656 39.9024 26.6732 39.8127C26.5807 39.7223 26.5199 39.6103 26.49 39.4759L27.0454 39.3525C27.0616 39.4257 27.1052 39.4827 27.1764 39.5226C27.2472 39.5628 27.3259 39.5735 27.4122 39.5546C27.5094 39.5329 27.5809 39.4889 27.627 39.4216C27.6727 39.3545 27.6861 39.2789 27.6675 39.195C27.6411 39.0747 27.5916 38.9964 27.5204 38.9596C27.4489 38.9221 27.3606 38.916 27.2547 38.939L26.9859 38.9991L26.8942 38.588Z" fill="white"/>
<mask id="mask0_3357_3038" style="mask-type:luminance" maskUnits="userSpaceOnUse" x="2" y="17" width="17" height="23">
<path d="M15.5771 39.6454L18.8434 38.2699L17.812 35.5194L16.6086 22.8167L11.1329 18.9313L9.65075 19.4899L8.4907 17.4922L2.85547 27.0956L15.5771 39.6454Z" fill="white"/>
</mask>
<g mask="url(#mask0_3357_3038)">
<path fill-rule="evenodd" clip-rule="evenodd" d="M30.2757 10.2699C30.0142 10.7408 28.9627 10.8553 28.2492 10.6807C28.6077 10.3572 29.3769 10.0493 30.0379 10.2115L30.2757 10.2699L30.0668 10.1431C29.4859 9.79149 29.1652 9.03256 29.1453 8.55273C29.7722 8.93254 30.4294 9.75471 30.2757 10.2699ZM24.0156 38.7441C24.2397 38.7441 24.4209 38.9239 24.4209 39.1463C24.4209 39.368 24.2394 39.5481 24.0153 39.5484C23.7912 39.5488 23.61 39.3686 23.61 39.1466C23.6104 38.9246 23.7915 38.7441 24.0156 38.7441ZM29.3749 9.85267L29.1903 9.69319C28.6771 9.2491 27.8512 9.17452 27.3837 9.29963C27.9374 9.77877 28.9253 10.1534 29.3749 9.85267ZM18.71 9.85714C19.1593 10.1575 20.1474 9.78221 20.7015 9.30272C20.2341 9.17795 19.4081 9.25288 18.8946 9.69765L18.71 9.85714ZM22.9728 39.1518C22.8484 39.6746 21.8664 40.0657 21.1315 40.0874C21.3893 39.6804 22.0472 39.1789 22.7281 39.1586L22.9728 39.1518C22.9814 38.6142 22.1259 37.9976 21.4188 37.7989C21.5684 38.2557 22.0819 38.9012 22.7373 39.0858L22.9728 39.1518ZM21.4443 38.95C21.5075 38.4162 20.719 37.7171 20.0357 37.449C20.1378 37.9182 20.5833 38.6118 21.2167 38.8603L21.4443 38.95L21.1999 38.9325C20.5207 38.8847 19.8154 39.3178 19.5174 39.6966C20.2509 39.7485 21.2673 39.4573 21.4443 38.95ZM19.944 38.5963C19.7161 39.0837 18.6753 39.2717 17.9511 39.1463C18.2859 38.7988 19.0314 38.4389 19.7023 38.554L19.944 38.5963C20.0608 38.0715 19.3473 37.2967 18.6952 36.9619C18.7489 37.4394 19.1221 38.1739 19.7264 38.4843L19.944 38.5963ZM18.4876 38.0945C18.6571 37.5837 18.026 36.742 17.4111 36.3436C17.4163 36.8241 17.7125 37.592 18.2828 37.9615L18.4876 38.0945L18.2518 38.0288C17.596 37.8463 16.8179 38.1309 16.4494 38.443C17.1568 38.6396 18.2113 38.5571 18.4876 38.0945ZM17.089 37.4493C16.7673 37.8824 15.7101 37.859 15.0261 37.593C15.4241 37.3191 16.2273 37.1142 16.8615 37.3607L17.089 37.4493C17.3097 36.9585 16.767 36.0576 16.1957 35.5998C16.1521 36.0782 16.369 36.8719 16.8986 37.2967L17.089 37.4493ZM15.7637 36.6681C16.0331 36.2016 15.5846 35.2516 15.0628 34.7384C14.9707 35.21 15.1061 36.0219 15.5898 36.4969L15.7637 36.6681L15.5461 36.5574C14.9408 36.248 14.1207 36.3718 13.6969 36.6048C14.35 36.9382 15.3997 37.0668 15.7637 36.6681ZM14.5242 35.7582C14.1217 36.1185 13.0906 35.8854 12.4743 35.4888C12.9198 35.2994 13.7478 35.2581 14.3187 35.6259L14.5242 35.7582L14.3685 35.5709C13.9354 35.0492 13.8832 34.2284 14.0228 33.7685C14.4899 34.3311 14.8394 35.321 14.5242 35.7582ZM13.3838 34.7295C12.9469 35.0478 11.9446 34.713 11.3717 34.2562C11.8336 34.1125 12.662 34.1541 13.1927 34.5772L13.3838 34.7295C13.7416 34.3256 13.4945 33.3058 13.0868 32.6992C12.9015 33.1432 12.8703 33.9654 13.248 34.5274L13.3838 34.7295ZM12.3533 33.5918C11.8866 33.8644 10.9235 33.4313 10.4 32.9198C10.8743 32.8229 11.6941 32.9473 12.1791 33.4213L12.3533 33.5918C12.7507 33.2257 12.608 32.1863 12.264 31.5422C12.0344 31.9653 11.9199 32.7803 12.2385 33.377L12.3533 33.5918ZM11.4438 32.3565C10.9516 32.5816 10.0377 32.054 9.56887 31.4931C10.0504 31.4439 10.8533 31.6498 11.2878 32.1698L11.4438 32.3565L11.3514 32.1317C11.095 31.5054 11.2919 30.7066 11.5628 30.3079C11.8398 30.9833 11.8759 32.032 11.4438 32.3565ZM10.6643 31.037L10.5956 30.8036C10.4041 30.1557 10.6805 29.3796 10.9908 29.0104C11.1977 29.7099 11.1273 30.7572 10.6643 31.037L10.5278 30.8348C10.1484 30.2742 9.37055 29.9896 8.88659 29.99C9.29596 30.5949 10.1518 31.2112 10.6643 31.037ZM10.0229 29.6452C9.49532 29.768 8.70649 29.0695 8.36036 28.4264C8.84225 28.4739 9.58709 28.8351 9.90778 29.4311L10.0229 29.6452C10.5117 29.4132 10.688 28.3787 10.5536 27.662C10.2075 27.9982 9.85347 28.7423 9.97824 29.4067L10.0229 29.6452ZM9.52591 28.1975L9.50528 27.9552C9.44857 27.2822 9.87615 26.5765 10.2549 26.2765C10.3161 27.0031 10.0356 28.0157 9.52591 28.1975L9.43276 27.9724C9.17429 27.3475 8.47035 26.9137 7.99568 26.8185C8.27444 27.4929 8.98868 28.2666 9.52591 28.1975ZM9.17841 26.7068L9.18253 26.4638C9.19422 25.7881 9.69158 25.1292 10.0985 24.8683C10.0858 25.5973 9.7043 26.5765 9.17841 26.7068L9.10863 26.4738C8.91512 25.8262 8.25828 25.324 7.79598 25.1814C8.00496 25.8805 8.63706 26.7219 9.17841 26.7068ZM8.98421 25.1886C8.44389 25.1498 7.90081 24.2496 7.76367 23.5329C8.20913 23.7209 8.81132 24.286 8.9385 24.9501L8.98421 25.1886C9.52041 25.112 9.99955 24.1757 10.0862 23.4518C9.6548 23.6704 9.09351 24.276 9.01308 24.947L8.98421 25.1886ZM8.94503 23.6591C8.41123 23.5663 7.96234 22.6162 7.8991 21.89C8.3229 22.1213 8.86494 22.7434 8.92372 23.4171L8.94503 23.6591C9.48604 23.636 10.058 22.7527 10.2175 22.0409C9.76616 22.2151 9.1461 22.762 8.99796 23.4219L8.94503 23.6591ZM9.06086 22.1333C8.53978 21.9872 8.18919 20.9977 8.20019 20.2683C8.59856 20.5412 9.07426 21.2142 9.06464 21.89L9.06086 22.1333C9.60152 22.1646 10.2601 21.3424 10.4914 20.6502C10.0246 20.7784 9.35233 21.261 9.13785 21.9023L9.06086 22.1333ZM9.33136 20.6261L9.43139 20.4044C9.70945 19.7875 10.4275 19.375 10.9046 19.2935C10.6045 19.9597 9.86619 20.7114 9.33136 20.6261L9.35955 20.3852C9.43792 19.7139 9.03302 18.9962 8.66387 18.6852C8.57966 19.4094 8.82782 20.4292 9.33136 20.6261ZM9.75345 19.1543C9.27224 18.9079 9.12891 17.8681 9.28668 17.1556C9.6218 17.5024 9.95212 18.2569 9.80604 18.9168L9.75345 19.1543C10.2766 19.2922 11.0878 18.6178 11.4542 17.9853C10.9712 18.0183 10.2151 18.3573 9.87581 18.9433L9.75345 19.1543ZM10.3226 17.7313C9.86894 17.4378 9.83181 16.3891 10.0611 15.6962C10.3594 16.0743 10.6114 16.8583 10.3989 17.5004L10.3226 17.7313C10.8293 17.9211 11.7044 17.3309 12.1333 16.7383C11.6494 16.7232 10.863 16.9848 10.4656 17.5337L10.3226 17.7313ZM11.0334 16.3726C11.5181 16.6122 12.4485 16.1124 12.9352 15.5656C12.4554 15.5017 11.6463 15.6835 11.1953 16.1905L11.0334 16.3726L11.1328 16.1502C11.4091 15.5326 11.238 14.7276 10.9795 14.3213C10.6815 14.9881 10.6121 16.0354 11.0334 16.3726ZM11.878 15.0919C11.493 14.7142 11.6686 13.6793 12.033 13.0455C12.2488 13.4754 12.3375 14.2935 11.9996 14.8802L11.878 15.0919L12.0581 14.927C12.5578 14.4678 13.381 14.3677 13.8519 14.4788C13.3126 14.9744 12.3361 15.3783 11.878 15.0919ZM12.8486 13.9017L13.0442 13.7549C13.5883 13.3479 14.4173 13.3311 14.8745 13.4885C14.2878 13.9281 13.2752 14.2327 12.8486 13.9017L12.9909 13.7033C13.3862 13.153 13.3814 12.3302 13.2102 11.8809C12.7837 12.4752 12.5039 13.4875 12.8486 13.9017ZM13.9351 12.8145C13.634 12.368 14.0152 11.3887 14.4998 10.8402C14.6243 11.3042 14.5459 12.1236 14.0967 12.6316L13.9351 12.8145C14.3259 13.1864 15.3643 12.9846 15.9926 12.6065C15.5537 12.4037 14.727 12.3381 14.1444 12.6887L13.9351 12.8145ZM15.1264 11.8411C14.8721 11.3667 15.3505 10.4305 15.8884 9.93344C15.9654 10.4078 15.8039 11.2148 15.3055 11.6757L15.1264 11.8411L15.3474 11.7366C15.9627 11.4458 16.778 11.5936 17.1942 11.8394C16.5302 12.1532 15.477 12.2501 15.1264 11.8411ZM16.4099 10.9917L16.6405 10.9099C17.2819 10.6824 18.0783 10.9106 18.4674 11.1966C17.7751 11.4424 16.7175 11.4338 16.4099 10.9917L16.6048 10.8446C17.1475 10.436 17.3898 9.64885 17.3616 9.16936C16.7759 9.61069 16.205 10.4947 16.4099 10.9917ZM17.773 10.2751C17.6197 9.75987 18.2773 8.93735 18.9049 8.5572C18.8843 9.03669 18.5632 9.79596 17.982 10.1483L17.773 10.2751L18.0109 10.2167C18.6722 10.0537 19.4411 10.3614 19.7993 10.6845C19.0854 10.8598 18.0343 10.7456 17.773 10.2751ZM25.0512 39.1507C25.1753 39.6732 26.157 40.0636 26.8918 40.0849C26.6344 39.678 25.9769 39.1772 25.296 39.1576L25.0512 39.1507C25.043 38.6132 25.8992 37.9958 26.6062 37.7965C26.4567 38.2533 25.9422 38.8991 25.2867 39.0844L25.0512 39.1507ZM26.5801 38.9476C26.5172 38.4138 27.3064 37.714 27.99 37.4452C27.8876 37.9147 27.4411 38.6083 26.808 38.8575L26.5801 38.9476L26.8245 38.9297C27.5037 38.8813 28.209 39.314 28.5063 39.6924C27.7728 39.7454 26.7564 39.4553 26.5801 38.9476ZM28.0804 38.5929L28.298 38.4805C28.9029 38.1694 29.2762 37.4349 29.3309 36.9571C28.6781 37.2929 27.9639 38.068 28.0804 38.5929L28.3217 38.5506C28.9926 38.4348 29.7382 38.7943 30.0726 39.1411C29.3484 39.2672 28.3076 39.0803 28.0804 38.5929ZM29.5374 38.09C29.3683 37.5796 30.0001 36.7372 30.6157 36.3381C30.6102 36.8186 30.3129 37.5868 29.7426 37.9567L29.5374 38.09L29.7732 38.024C30.429 37.8412 31.2072 38.1247 31.5753 38.4368C30.8676 38.6338 29.8131 38.5523 29.5374 38.09ZM30.9364 37.4438C31.2577 37.8766 32.315 37.8525 32.999 37.5858C32.6013 37.3122 31.7981 37.108 31.1642 37.3548L30.9364 37.4438C30.716 36.953 31.2594 36.0521 31.8314 35.5936C31.8744 36.0721 31.6568 36.866 31.1271 37.2912L30.9364 37.4438ZM32.2624 36.6615C31.9936 36.1955 32.4429 35.2447 32.965 34.7316C33.0567 35.2031 32.9206 36.015 32.4367 36.4904L32.2624 36.6615L32.4803 36.5505C33.086 36.2408 33.9057 36.3639 34.3295 36.5966C33.6758 36.9303 32.6261 37.0596 32.2624 36.6615ZM33.5025 35.7507C33.9047 36.1106 34.9362 35.8768 35.5528 35.4795C35.1077 35.2904 34.2797 35.2499 33.7081 35.6184L33.5025 35.7507L33.6586 35.5634C34.0917 35.0413 34.145 34.2205 34.0057 33.7606C33.5383 34.3232 33.188 35.3135 33.5025 35.7507ZM34.6444 34.7206L34.7801 34.5185C35.1582 33.9561 35.1276 33.134 34.9427 32.6899C34.5347 33.2972 34.2866 34.3174 34.6444 34.7206L34.8351 34.5683C35.3662 34.1448 36.1942 34.1022 36.6565 34.2456C36.0835 34.703 35.0809 35.0385 34.6444 34.7206ZM35.6755 33.5822C36.1423 33.8544 37.1057 33.4203 37.6299 32.9088C37.1556 32.8123 36.3358 32.9374 35.8505 33.4117L35.6755 33.5822C35.2789 33.2165 35.4222 32.1767 35.7666 31.5323C35.9959 31.955 36.11 32.77 35.7907 33.367L35.6755 33.5822ZM36.586 32.3462C37.0779 32.5706 37.9925 32.0427 38.462 31.481C37.9805 31.4322 37.1776 31.6388 36.7428 32.1592L36.586 32.3462L36.6785 32.1214C36.9356 31.4951 36.7397 30.696 36.4685 30.2976C36.1911 30.9734 36.154 32.022 36.586 32.3462ZM37.3666 31.026C37.8791 31.1999 38.7356 30.5833 39.1457 29.9776C38.6614 29.9773 37.8836 30.2626 37.5034 30.8239L37.3666 31.026C36.904 30.7469 36.8345 29.6996 37.0418 28.9994C37.3518 29.3686 37.6278 30.1443 37.4357 30.7922L37.3666 31.026ZM38.009 29.6339C38.5366 29.7563 39.3261 29.0571 39.6726 28.4137C39.1911 28.4615 38.4455 28.8234 38.1245 29.4198L38.009 29.6339C37.5206 29.4026 37.345 28.368 37.4804 27.651C37.8265 27.9868 38.1798 28.731 38.0544 29.3954L38.009 29.6339ZM38.5074 28.1858C39.0446 28.2542 39.7592 27.4798 40.0387 26.8055C39.564 26.901 38.8594 27.3355 38.6005 27.9603L38.5074 28.1858C37.9977 28.0043 37.7179 26.9921 37.7801 26.2651C38.1582 26.5649 38.5854 27.2702 38.528 27.9432L38.5074 28.1858ZM38.8563 26.6944C39.3976 26.7092 40.0304 25.8675 40.2397 25.168C39.7771 25.311 39.1203 25.8135 38.9261 26.4614L38.8563 26.6944C38.3307 26.5649 37.9499 25.586 37.9375 24.8569C38.3445 25.1171 38.8412 25.776 38.8521 26.4514L38.8563 26.6944ZM39.0518 25.1762C39.5922 25.1371 40.1359 24.2362 40.2738 23.5199C39.8283 23.7082 39.2254 24.2736 39.0976 24.9377L39.0518 25.1762C38.5157 25.0999 38.0372 24.164 37.9513 23.4401C38.3823 23.6584 38.9432 24.2637 39.023 24.9346L39.0518 25.1762ZM39.0924 23.6467L39.0391 23.4095C38.8917 22.7499 38.272 22.2034 37.821 22.0295C37.9801 22.741 38.5514 23.624 39.0924 23.6467L39.1137 23.4047C39.1732 22.731 39.7156 22.1086 40.1397 21.8769C40.0758 22.6032 39.6259 23.5536 39.0924 23.6467ZM38.9776 22.1209C39.499 21.9745 39.8503 20.9846 39.8403 20.2553C39.4416 20.5282 38.9652 21.2022 38.9745 21.8776L38.9776 22.1209C38.4369 22.1526 37.7791 21.3311 37.5484 20.6392C38.0152 20.767 38.6872 21.2489 38.9006 21.8903L38.9776 22.1209ZM38.7081 20.6141C39.212 20.4165 39.4612 19.3966 39.3773 18.6724C39.0082 18.9838 38.6026 19.7019 38.6803 20.3731L38.7081 20.6141C38.1737 20.7 37.4357 19.9483 37.1356 19.2829C37.6131 19.364 38.3307 19.7758 38.6081 20.3924L38.7081 20.6141ZM38.2878 19.1426C38.769 18.8959 38.9133 17.8561 38.7563 17.1436C38.4208 17.4907 38.0901 18.2455 38.2355 18.9051L38.2878 19.1426C37.7643 19.2808 36.9538 18.6071 36.5881 17.975C37.071 18.0073 37.8268 18.3459 38.1657 18.9316L38.2878 19.1426ZM37.7196 17.7203L37.577 17.5227C37.18 16.9741 36.3939 16.7129 35.9099 16.7287C36.3382 17.3209 37.213 17.9104 37.7196 17.7203L37.6436 17.4897C37.4319 16.8476 37.6845 16.0636 37.9832 15.6852C38.2115 16.3778 38.1737 17.4265 37.7196 17.7203ZM37.0102 16.362C36.5252 16.6019 35.5951 16.1028 35.1091 15.5563C35.5889 15.492 36.3977 15.6732 36.8479 16.1798L37.0102 16.362L36.9112 16.1399C36.6352 15.5223 36.807 14.7173 37.0659 14.311C37.3632 14.9775 37.4319 16.0244 37.0102 16.362ZM36.1663 15.082C36.552 14.7039 36.3774 13.669 36.0134 13.0358C35.7972 13.4662 35.7082 14.2842 36.0454 14.8706L36.1663 15.082L35.9866 14.917C35.4872 14.4581 34.664 14.3588 34.1927 14.4702C34.732 14.9655 35.7082 15.3686 36.1663 15.082ZM35.1967 13.8927L35.0015 13.7463C34.4577 13.34 33.6287 13.3235 33.1712 13.4813C33.7579 13.9202 34.7702 14.2237 35.1967 13.8927L35.0548 13.6947C34.6598 13.1448 34.6653 12.3219 34.8369 11.8723C35.2631 12.4659 35.5422 13.4782 35.1967 13.8927ZM34.1113 12.8059C34.4127 12.3591 34.0326 11.3801 33.5483 10.8319C33.4231 11.2963 33.5008 12.1154 33.9501 12.623L34.1113 12.8059C33.7205 13.1781 32.6824 12.9771 32.0541 12.5997C32.4934 12.3965 33.3197 12.3302 33.9019 12.6801L34.1113 12.8059ZM32.921 11.8339C33.1757 11.3592 32.6979 10.4232 32.1603 9.92657C32.083 10.4012 32.2435 11.2076 32.7419 11.6682L32.921 11.8339L32.7 11.7294C32.0851 11.4389 31.2694 11.5878 30.8532 11.8339C31.5169 12.147 32.5697 12.2432 32.921 11.8339ZM31.6382 10.9856C31.8434 10.4882 31.2732 9.60485 30.6878 9.16386C30.659 9.64335 30.901 10.4305 31.443 10.8384L31.6382 10.9856C31.3306 11.4279 30.2726 11.4372 29.5807 11.1921C29.9702 10.9058 30.7666 10.6769 31.4079 10.9038L31.6382 10.9856Z" fill="white"/>
</g>
<mask id="mask1_3357_3038" style="mask-type:luminance" maskUnits="userSpaceOnUse" x="29" y="15" width="14" height="25">
<path d="M29.5019 20.9276L36.3958 18.611L38.3939 19.4916L42.0672 15.2168L41.3639 24.5185L38.6135 34.1456L31.5649 39.6471L29.1582 38.2716L30.1897 35.1771L29.5019 20.9276Z" fill="white"/>
</mask>
<g mask="url(#mask1_3357_3038)">
<path fill-rule="evenodd" clip-rule="evenodd" d="M30.2757 10.2729C30.0142 10.7438 28.9627 10.8582 28.2492 10.6836C28.6077 10.3602 29.3769 10.0522 30.0379 10.2144L30.2757 10.2729L30.0668 10.146C29.4859 9.79442 29.1652 9.03549 29.1453 8.55566C29.7722 8.93547 30.4294 9.75764 30.2757 10.2729ZM24.0156 38.747C24.2397 38.747 24.4209 38.9268 24.4209 39.1492C24.4209 39.3709 24.2394 39.551 24.0153 39.5513C23.7912 39.5517 23.61 39.3716 23.61 39.1495C23.6104 38.9275 23.7915 38.747 24.0156 38.747ZM29.3749 9.8556L29.1903 9.69612C28.6771 9.25203 27.8512 9.17745 27.3837 9.30256C27.9374 9.7817 28.9253 10.1564 29.3749 9.8556ZM18.71 9.86007C19.1593 10.1605 20.1474 9.78514 20.7015 9.30565C20.2341 9.18088 19.4081 9.25581 18.8946 9.70058L18.71 9.86007ZM22.9728 39.1547C22.8484 39.6775 21.8664 40.0686 21.1315 40.0903C21.3893 39.6833 22.0472 39.1818 22.7281 39.1616L22.9728 39.1547C22.9814 38.6171 22.1259 38.0005 21.4188 37.8018C21.5684 38.2586 22.0819 38.9041 22.7373 39.0887L22.9728 39.1547ZM21.4443 38.9529C21.5075 38.4191 20.719 37.72 20.0357 37.4519C20.1378 37.9211 20.5833 38.6147 21.2167 38.8632L21.4443 38.9529L21.1999 38.9354C20.5207 38.8876 19.8154 39.3207 19.5174 39.6995C20.2509 39.7514 21.2673 39.4603 21.4443 38.9529ZM19.944 38.5992C19.7161 39.0866 18.6753 39.2746 17.9511 39.1492C18.2859 38.8017 19.0314 38.4418 19.7023 38.557L19.944 38.5992C20.0608 38.0744 19.3473 37.2997 18.6952 36.9649C18.7489 37.4423 19.1221 38.1768 19.7264 38.4872L19.944 38.5992ZM18.4876 38.0974C18.6571 37.5867 18.026 36.7449 17.4111 36.3465C17.4163 36.827 17.7125 37.5949 18.2828 37.9644L18.4876 38.0974L18.2518 38.0318C17.596 37.8493 16.8179 38.1339 16.4494 38.4459C17.1568 38.6426 18.2113 38.5601 18.4876 38.0974ZM17.089 37.4523C16.7673 37.8853 15.7101 37.862 15.0261 37.5959C15.4241 37.322 16.2273 37.1171 16.8615 37.3636L17.089 37.4523C17.3097 36.9614 16.767 36.0606 16.1957 35.6027C16.1521 36.0812 16.369 36.8748 16.8986 37.2997L17.089 37.4523ZM15.7637 36.671C16.0331 36.2046 15.5846 35.2545 15.0628 34.7414C14.9707 35.2129 15.1061 36.0248 15.5898 36.4998L15.7637 36.671L15.5461 36.5603C14.9408 36.251 14.1207 36.3747 13.6969 36.6077C14.35 36.9412 15.3997 37.0697 15.7637 36.671ZM14.5242 35.7612C14.1217 36.1214 13.0906 35.8883 12.4743 35.4917C12.9198 35.3023 13.7478 35.2611 14.3187 35.6288L14.5242 35.7612L14.3685 35.5739C13.9354 35.0521 13.8832 34.2313 14.0228 33.7714C14.4899 34.3341 14.8394 35.324 14.5242 35.7612ZM13.3838 34.7324C12.9469 35.0507 11.9446 34.7159 11.3717 34.2591C11.8336 34.1155 12.662 34.157 13.1927 34.5802L13.3838 34.7324C13.7416 34.3286 13.4945 33.3088 13.0868 32.7021C12.9015 33.1462 12.8703 33.9683 13.248 34.5303L13.3838 34.7324ZM12.3533 33.5947C11.8866 33.8673 10.9235 33.4342 10.4 32.9228C10.8743 32.8258 11.6941 32.9503 12.1791 33.4242L12.3533 33.5947C12.7507 33.2287 12.608 32.1893 12.264 31.5451C12.0344 31.9683 11.9199 32.7832 12.2385 33.3799L12.3533 33.5947ZM11.4438 32.3594C10.9516 32.5845 10.0377 32.0569 9.56887 31.496C10.0504 31.4468 10.8533 31.6527 11.2878 32.1728L11.4438 32.3594L11.3514 32.1346C11.095 31.5084 11.2919 30.7096 11.5628 30.3109C11.8398 30.9863 11.8759 32.0349 11.4438 32.3594ZM10.6643 31.0399L10.5956 30.8065C10.4041 30.1586 10.6805 29.3825 10.9908 29.0133C11.1977 29.7128 11.1273 30.7601 10.6643 31.0399L10.5278 30.8378C10.1484 30.2772 9.37055 29.9926 8.88659 29.9929C9.29596 30.5979 10.1518 31.2141 10.6643 31.0399ZM10.0229 29.6482C9.49532 29.7709 8.70649 29.0725 8.36036 28.4294C8.84225 28.4768 9.58709 28.838 9.90778 29.434L10.0229 29.6482C10.5117 29.4162 10.688 28.3816 10.5536 27.6649C10.2075 28.0011 9.85347 28.7452 9.97824 29.4096L10.0229 29.6482ZM9.52591 28.2004L9.50528 27.9581C9.44857 27.2851 9.87615 26.5795 10.2549 26.2794C10.3161 27.006 10.0356 28.0186 9.52591 28.2004L9.43276 27.9753C9.17429 27.3504 8.47035 26.9167 7.99568 26.8215C8.27444 27.4958 8.98868 28.2695 9.52591 28.2004ZM9.17841 26.7097L9.18253 26.4667C9.19422 25.791 9.69158 25.1321 10.0985 24.8712C10.0858 25.6002 9.7043 26.5795 9.17841 26.7097L9.10863 26.4767C8.91512 25.8291 8.25828 25.327 7.79598 25.1843C8.00496 25.8834 8.63706 26.7249 9.17841 26.7097ZM8.98421 25.1915C8.44389 25.1527 7.90081 24.2525 7.76367 23.5359C8.20913 23.7239 8.81132 24.2889 8.9385 24.953L8.98421 25.1915C9.52041 25.1149 9.99955 24.1786 10.0862 23.4547C9.6548 23.6734 9.09351 24.279 9.01308 24.9499L8.98421 25.1915ZM8.94503 23.662C8.41123 23.5692 7.96234 22.6192 7.8991 21.8929C8.3229 22.1242 8.86494 22.7463 8.92372 23.42L8.94503 23.662C9.48604 23.639 10.058 22.7556 10.2175 22.0438C9.76616 22.2181 9.1461 22.7649 8.99796 23.4248L8.94503 23.662ZM9.06086 22.1363C8.53978 21.9902 8.18919 21.0006 8.20019 20.2712C8.59856 20.5442 9.07426 21.2172 9.06464 21.8929L9.06086 22.1363C9.60152 22.1675 10.2601 21.3454 10.4914 20.6531C10.0246 20.7813 9.35233 21.2639 9.13785 21.9053L9.06086 22.1363ZM9.33136 20.6291L9.43139 20.4074C9.70945 19.7904 10.4275 19.3779 10.9046 19.2965C10.6045 19.9626 9.86619 20.7143 9.33136 20.6291L9.35955 20.3881C9.43792 19.7168 9.03302 18.9991 8.66387 18.6881C8.57966 19.4123 8.82782 20.4321 9.33136 20.6291ZM9.75345 19.1573C9.27224 18.9108 9.12891 17.8711 9.28668 17.1585C9.6218 17.5054 9.95212 18.2598 9.80604 18.9198L9.75345 19.1573C10.2766 19.2951 11.0878 18.6207 11.4542 17.9883C10.9712 18.0213 10.2151 18.3602 9.87581 18.9462L9.75345 19.1573ZM10.3226 17.7343C9.86894 17.4407 9.83181 16.3921 10.0611 15.6991C10.3594 16.0772 10.6114 16.8612 10.3989 17.5033L10.3226 17.7343C10.8293 17.924 11.7044 17.3338 12.1333 16.7413C11.6494 16.7262 10.863 16.9877 10.4656 17.5366L10.3226 17.7343ZM11.0334 16.3756C11.5181 16.6151 12.4485 16.1154 12.9352 15.5685C12.4554 15.5046 11.6463 15.6864 11.1953 16.1934L11.0334 16.3756L11.1328 16.1532C11.4091 15.5355 11.238 14.7305 10.9795 14.3243C10.6815 14.9911 10.6121 16.0384 11.0334 16.3756ZM11.878 15.0949C11.493 14.7171 11.6686 13.6822 12.033 13.0484C12.2488 13.4784 12.3375 14.2964 11.9996 14.8831L11.878 15.0949L12.0581 14.9299C12.5578 14.4707 13.381 14.3707 13.8519 14.4817C13.3126 14.9773 12.3361 15.3812 11.878 15.0949ZM12.8486 13.9046L13.0442 13.7578C13.5883 13.3509 14.4173 13.334 14.8745 13.4914C14.2878 13.931 13.2752 14.2356 12.8486 13.9046L12.9909 13.7063C13.3862 13.156 13.3814 12.3331 13.2102 11.8839C12.7837 12.4782 12.5039 13.4904 12.8486 13.9046ZM13.9351 12.8174C13.634 12.3709 14.0152 11.3917 14.4998 10.8431C14.6243 11.3071 14.5459 12.1265 14.0967 12.6345L13.9351 12.8174C14.3259 13.1893 15.3643 12.9875 15.9926 12.6095C15.5537 12.4067 14.727 12.341 14.1444 12.6916L13.9351 12.8174ZM15.1264 11.844C14.8721 11.3697 15.3505 10.4334 15.8884 9.93637C15.9654 10.4107 15.8039 11.2177 15.3055 11.6787L15.1264 11.844L15.3474 11.7395C15.9627 11.4487 16.778 11.5965 17.1942 11.8423C16.5302 12.1561 15.477 12.253 15.1264 11.844ZM16.4099 10.9947L16.6405 10.9129C17.2819 10.6853 18.0783 10.9136 18.4674 11.1995C17.7751 11.4453 16.7175 11.4367 16.4099 10.9947L16.6048 10.8476C17.1475 10.4389 17.3898 9.65178 17.3616 9.17229C16.7759 9.61362 16.205 10.4977 16.4099 10.9947ZM17.773 10.278C17.6197 9.7628 18.2773 8.94028 18.9049 8.56013C18.8843 9.03962 18.5632 9.79889 17.982 10.1512L17.773 10.278L18.0109 10.2196C18.6722 10.0567 19.4411 10.3643 19.7993 10.6874C19.0854 10.8627 18.0343 10.7486 17.773 10.278ZM25.0512 39.1537C25.1753 39.6761 26.157 40.0666 26.8918 40.0879C26.6344 39.6809 25.9769 39.1801 25.296 39.1605L25.0512 39.1537C25.043 38.6161 25.8992 37.9988 26.6062 37.7994C26.4567 38.2562 25.9422 38.9021 25.2867 39.0873L25.0512 39.1537ZM26.5801 38.9505C26.5172 38.4167 27.3064 37.7169 27.99 37.4481C27.8876 37.9177 27.4411 38.6113 26.808 38.8605L26.5801 38.9505L26.8245 38.9326C27.5037 38.8842 28.209 39.3169 28.5063 39.6954C27.7728 39.7483 26.7564 39.4582 26.5801 38.9505ZM28.0804 38.5958L28.298 38.4834C28.9029 38.1723 29.2762 37.4378 29.3309 36.9601C28.6781 37.2959 27.9639 38.071 28.0804 38.5958L28.3217 38.5535C28.9926 38.4377 29.7382 38.7972 30.0726 39.144C29.3484 39.2702 28.3076 39.0832 28.0804 38.5958ZM29.5374 38.0929C29.3683 37.5825 30.0001 36.7401 30.6157 36.341C30.6102 36.8215 30.3129 37.5897 29.7426 37.9596L29.5374 38.0929L29.7732 38.027C30.429 37.8441 31.2072 38.1277 31.5753 38.4398C30.8676 38.6367 29.8131 38.5552 29.5374 38.0929ZM30.9364 37.4468C31.2577 37.8795 32.315 37.8554 32.999 37.5887C32.6013 37.3151 31.7981 37.111 31.1642 37.3577L30.9364 37.4468C30.716 36.9559 31.2594 36.0551 31.8314 35.5965C31.8744 36.075 31.6568 36.869 31.1271 37.2942L30.9364 37.4468ZM32.2624 36.6645C31.9936 36.1984 32.4429 35.2477 32.965 34.7345C33.0567 35.2061 32.9206 36.0179 32.4367 36.4933L32.2624 36.6645L32.4803 36.5534C33.086 36.2438 33.9057 36.3668 34.3295 36.5995C33.6758 36.9332 32.6261 37.0625 32.2624 36.6645ZM33.5025 35.7536C33.9047 36.1135 34.9362 35.8798 35.5528 35.4824C35.1077 35.2934 34.2797 35.2528 33.7081 35.6213L33.5025 35.7536L33.6586 35.5663C34.0917 35.0442 34.145 34.2234 34.0057 33.7635C33.5383 34.3262 33.188 35.3164 33.5025 35.7536ZM34.6444 34.7235L34.7801 34.5214C35.1582 33.9591 35.1276 33.1369 34.9427 32.6928C34.5347 33.3002 34.2866 34.3203 34.6444 34.7235L34.8351 34.5712C35.3662 34.1478 36.1942 34.1052 36.6565 34.2485C36.0835 34.706 35.0809 35.0414 34.6444 34.7235ZM35.6755 33.5851C36.1423 33.8573 37.1057 33.4232 37.6299 32.9118C37.1556 32.8152 36.3358 32.9403 35.8505 33.4146L35.6755 33.5851C35.2789 33.2194 35.4222 32.1796 35.7666 31.5352C35.9959 31.958 36.11 32.7729 35.7907 33.3699L35.6755 33.5851ZM36.586 32.3491C37.0779 32.5735 37.9925 32.0456 38.462 31.484C37.9805 31.4352 37.1776 31.6417 36.7428 32.1621L36.586 32.3491L36.6785 32.1243C36.9356 31.4981 36.7397 30.6989 36.4685 30.3006C36.1911 30.9763 36.154 32.025 36.586 32.3491ZM37.3666 31.0289C37.8791 31.2028 38.7356 30.5862 39.1457 29.9806C38.6614 29.9802 37.8836 30.2655 37.5034 30.8268L37.3666 31.0289C36.904 30.7498 36.8345 29.7025 37.0418 29.0023C37.3518 29.3715 37.6278 30.1473 37.4357 30.7952L37.3666 31.0289ZM38.009 29.6368C38.5366 29.7592 39.3261 29.0601 39.6726 28.4166C39.1911 28.4644 38.4455 28.8263 38.1245 29.4227L38.009 29.6368C37.5206 29.4055 37.345 28.3709 37.4804 27.6539C37.8265 27.9897 38.1798 28.7339 38.0544 29.3983L38.009 29.6368ZM38.5074 28.1888C39.0446 28.2572 39.7592 27.4828 40.0387 26.8084C39.564 26.9039 38.8594 27.3384 38.6005 27.9633L38.5074 28.1888C37.9977 28.0073 37.7179 26.995 37.7801 26.2681C38.1582 26.5678 38.5854 27.2731 38.528 27.9461L38.5074 28.1888ZM38.8563 26.6974C39.3976 26.7121 40.0304 25.8704 40.2397 25.1709C39.7771 25.3139 39.1203 25.8164 38.9261 26.4643L38.8563 26.6974C38.3307 26.5678 37.9499 25.5889 37.9375 24.8599C38.3445 25.1201 38.8412 25.779 38.8521 26.4544L38.8563 26.6974ZM39.0518 25.1792C39.5922 25.14 40.1359 24.2391 40.2738 23.5228C39.8283 23.7112 39.2254 24.2766 39.0976 24.9406L39.0518 25.1792C38.5157 25.1029 38.0372 24.1669 37.9513 23.4431C38.3823 23.6613 38.9432 24.2666 39.023 24.9375L39.0518 25.1792ZM39.0924 23.6496L39.0391 23.4125C38.8917 22.7529 38.272 22.2064 37.821 22.0324C37.9801 22.7439 38.5514 23.6269 39.0924 23.6496L39.1137 23.4077C39.1732 22.734 39.7156 22.1115 40.1397 21.8798C40.0758 22.6061 39.6259 23.5565 39.0924 23.6496ZM38.9776 22.1239C39.499 21.9775 39.8503 20.9875 39.8403 20.2582C39.4416 20.5311 38.9652 21.2051 38.9745 21.8805L38.9776 22.1239C38.4369 22.1555 37.7791 21.334 37.5484 20.6421C38.0152 20.77 38.6872 21.2519 38.9006 21.8932L38.9776 22.1239ZM38.7081 20.617C39.212 20.4194 39.4612 19.3996 39.3773 18.6754C39.0082 18.9868 38.6026 19.7048 38.6803 20.3761L38.7081 20.617C38.1737 20.703 37.4357 19.9512 37.1356 19.2858C37.6131 19.3669 38.3307 19.7787 38.6081 20.3953L38.7081 20.617ZM38.2878 19.1456C38.769 18.8988 38.9133 17.859 38.7563 17.1465C38.4208 17.4937 38.0901 18.2485 38.2355 18.9081L38.2878 19.1456C37.7643 19.2837 36.9538 18.6101 36.5881 17.978C37.071 18.0103 37.8268 18.3488 38.1657 18.9345L38.2878 19.1456ZM37.7196 17.7233L37.577 17.5256C37.18 16.9771 36.3939 16.7158 35.9099 16.7317C36.3382 17.3239 37.213 17.9133 37.7196 17.7233L37.6436 17.4926C37.4319 16.8506 37.6845 16.0666 37.9832 15.6881C38.2115 16.3807 38.1737 17.4294 37.7196 17.7233ZM37.0102 16.3649C36.5252 16.6048 35.5951 16.1057 35.1091 15.5592C35.5889 15.495 36.3977 15.6761 36.8479 16.1827L37.0102 16.3649L36.9112 16.1429C36.6352 15.5252 36.807 14.7202 37.0659 14.3139C37.3632 14.9804 37.4319 16.0274 37.0102 16.3649ZM36.1663 15.0849C36.552 14.7068 36.3774 13.6719 36.0134 13.0388C35.7972 13.4691 35.7082 14.2871 36.0454 14.8735L36.1663 15.0849L35.9866 14.9199C35.4872 14.4611 34.664 14.3617 34.1927 14.4731C34.732 14.9684 35.7082 15.3716 36.1663 15.0849ZM35.1967 13.8956L35.0015 13.7492C34.4577 13.3429 33.6287 13.3265 33.1712 13.4842C33.7579 13.9231 34.7702 14.2266 35.1967 13.8956L35.0548 13.6977C34.6598 13.1477 34.6653 12.3249 34.8369 11.8753C35.2631 12.4689 35.5422 13.4811 35.1967 13.8956ZM34.1113 12.8088C34.4127 12.362 34.0326 11.3831 33.5483 10.8348C33.4231 11.2992 33.5008 12.1183 33.9501 12.626L34.1113 12.8088C33.7205 13.1811 32.6824 12.98 32.0541 12.6026C32.4934 12.3994 33.3197 12.3331 33.9019 12.683L34.1113 12.8088ZM32.921 11.8368C33.1757 11.3621 32.6979 10.4262 32.1603 9.9295C32.083 10.4042 32.2435 11.2105 32.7419 11.6711L32.921 11.8368L32.7 11.7323C32.0851 11.4419 31.2694 11.5907 30.8532 11.8368C31.5169 12.1499 32.5697 12.2461 32.921 11.8368ZM31.6382 10.9885C31.8434 10.4911 31.2732 9.60778 30.6878 9.16679C30.659 9.64628 30.901 10.4334 31.443 10.8414L31.6382 10.9885C31.3306 11.4309 30.2726 11.4401 29.5807 11.1951C29.9702 10.9087 30.7666 10.6798 31.4079 10.9067L31.6382 10.9885Z" fill="white"/>
</g>
<path fill-rule="evenodd" clip-rule="evenodd" d="M38.5024 19.6497L38.5134 19.406C38.5443 18.7279 38.0913 18.0336 37.7036 17.7441C37.6702 18.4756 37.9882 19.483 38.5024 19.6497Z" fill="white"/>
<path fill-rule="evenodd" clip-rule="evenodd" d="M9.55742 19.6497L9.54642 19.406C9.51549 18.7279 9.96851 18.0336 10.3562 17.7441C10.3896 18.4756 10.0716 19.483 9.55742 19.6497Z" fill="white"/>
</svg>
