<svg width="236" height="176" viewBox="0 0 236 176" fill="none" xmlns="http://www.w3.org/2000/svg">
<path d="M136.443 46.764C153.512 85.5958 185.096 100.275 183.774 120.134C172.823 150.707 135.786 165.406 101.05 152.964C66.3135 140.521 34.16 73.5719 45.1111 42.9984C69.4285 -24.8916 105.651 22.2104 136.443 46.764Z" fill="#0475C7" fill-opacity="0.15"/>
<path d="M167.346 71.5197C167.346 55.5953 167.601 39.6709 166.837 23.8739C166.837 22.9822 166.2 22.4726 165.563 22.3452C165.308 21.8356 164.671 21.4534 163.779 21.5808C137.281 28.715 111.675 38.6517 84.9218 44.8941C84.9218 44.8941 84.9218 44.8941 84.7944 44.8941C83.9026 44.7667 82.8835 45.2763 83.0108 46.4229C85.304 80.8195 83.7752 115.471 83.6478 149.868C83.6478 151.141 84.9218 151.651 85.9409 151.269C86.1957 151.396 86.4505 151.396 86.7053 151.396C108.235 151.396 129.892 152.415 151.422 152.415C151.549 152.415 151.677 152.415 151.804 152.415C152.568 152.415 153.333 151.906 153.333 150.887C153.333 146.173 153.333 141.459 153.333 136.746C153.715 137.001 154.097 137.001 154.607 137.001C158.556 136.109 162.25 134.325 166.2 133.179C167.091 133.306 167.983 132.797 167.983 131.65C168.111 111.649 167.474 91.6481 167.346 71.5197ZM153.078 65.1499C152.568 64.8951 152.059 64.5129 151.422 64.2581C151.549 58.1432 152.441 52.0282 151.295 45.9132C151.167 45.2763 150.785 45.0215 150.403 44.8941C150.148 44.3845 149.766 44.1297 149.001 44.1297C139.574 44.1297 130.02 44.3845 120.592 44.7667C131.421 43.1106 142.122 41.4544 152.951 39.4161C153.078 47.9516 153.078 56.6145 153.078 65.1499ZM148.364 47.3146C149.256 53.0474 148.364 59.1623 148.237 64.8951C148.237 65.5321 148.619 66.0416 149.001 66.2964C149.129 66.5512 149.384 66.806 149.766 67.0608C152.314 68.3348 154.734 69.7361 157.282 71.1374C157.282 71.2648 157.282 71.3923 157.282 71.5197C157.409 81.2017 158.301 90.8837 157.664 100.566C155.499 102.349 153.46 103.878 151.549 106.044C151.422 106.171 151.295 106.298 151.295 106.426C150.785 106.681 150.403 107.063 150.403 107.827C150.403 121.713 150.403 135.599 150.403 149.358C129.255 149.231 108.235 148.339 87.0875 148.339C87.0875 115.216 88.6162 81.8386 86.5779 48.7159C107.088 48.7159 127.726 47.442 148.364 47.3146ZM153.842 133.943C153.715 133.943 153.588 134.071 153.46 134.071C153.46 125.535 153.46 116.872 153.46 108.337C153.588 108.337 153.588 108.209 153.715 108.082C155.499 106.171 157.409 104.515 159.448 102.986C160.085 102.859 160.594 102.349 160.722 101.585C161.486 91.5206 160.467 81.4564 160.34 71.3922C160.34 71.1374 160.212 70.8827 160.212 70.6279C160.594 69.9909 160.467 69.0991 159.575 68.5895C158.429 67.9525 157.282 67.3156 156.136 66.6786C156.136 66.5512 156.263 66.2965 156.263 66.1691C156.263 56.6144 156.263 46.9324 156.263 37.3778C156.263 36.486 155.626 35.9764 154.989 35.8491C154.734 35.8491 154.479 35.7217 154.225 35.8491C135.625 39.2887 117.025 41.964 98.4256 44.7667C98.0434 44.7667 97.6613 45.0215 97.5339 45.2763C97.0243 45.2763 96.5147 45.2763 96.0051 45.2763C118.809 39.1613 140.976 31.0081 163.779 24.7657C164.544 40.3079 164.289 55.85 164.289 71.3922C164.416 91.011 165.053 110.63 165.053 130.249C161.231 131.395 157.664 133.051 153.842 133.943Z" fill="#202020"/>
<path d="M59.6435 100.204C45.1334 98.3824 30.3752 99.4933 15.8862 97.9874C14.9901 97.857 14.3464 99.1359 14.7755 99.868C17.5438 104.311 19.9714 108.871 22.4956 113.457C16.7363 116.915 10.3837 119.082 4.79258 122.687C4.11104 122.923 3.49683 123.693 3.90071 124.521C6.303 129.178 9.68131 133.263 11.6208 138.11C11.8564 138.791 12.7483 139.334 13.4803 138.905C19.5174 134.382 25.891 130.154 32.3824 126.267C34.4733 130.533 37.4435 134.201 39.9005 138.253C40.4011 139.107 41.638 139.119 42.0839 138.202C48.6804 126.384 53.371 113.553 60.5943 102.105C60.771 101.428 60.4429 100.309 59.6435 100.204ZM40.7334 135.059C38.369 131.446 35.6386 128.046 34.0062 124.003C33.6739 123.297 32.9755 122.804 32.1467 123.208C25.6553 127.096 19.4037 131.252 13.2699 135.75C11.4188 131.753 8.73886 128.16 6.6437 124.307C12.5251 120.777 18.9997 118.539 24.7128 114.862C25.3228 114.504 25.5247 113.73 25.1671 113.12C22.8574 108.9 20.6444 104.706 18.2127 100.558C31.1535 101.66 44.2837 100.848 57.2456 102.265C50.8552 112.897 46.5179 124.373 40.7334 135.059Z" fill="#202020"/>
<path d="M218.055 147.63C218.09 147.536 218.159 147.349 218.1 147.22C218.215 146.623 218.013 146.015 217.357 145.772C216.794 145.564 216.325 145.39 215.762 145.182C217.449 140.048 217.58 135.085 215.849 129.966C214.427 126.028 211.151 120.764 216.127 118.554C223.639 115.256 227.993 109.829 230.898 102.268C230.991 102.302 231.085 102.337 231.085 102.337C231.707 102.674 232.596 102.576 232.909 101.732C233.568 99.9504 234.227 98.1685 234.887 96.3866C234.922 96.2928 234.956 96.199 234.991 96.1052C235.199 95.5425 235.032 94.841 234.317 94.4695C224.233 90.3113 213.709 87.0562 203.486 83.2731C203.205 83.169 202.983 83.1934 202.76 83.2178C202.163 83.1033 201.649 83.3396 201.5 84.0308C201.028 85.8821 200.462 87.6987 199.897 89.5153C199.654 90.1718 200.043 90.849 200.606 91.0572C200.981 91.196 201.45 91.3696 201.825 91.5084C200.496 95.3882 199.764 99.3825 200.577 103.522C201.426 107.568 204.403 111.336 204.936 115.372C205.552 119.758 198.898 121.027 195.956 122.924C191.463 125.847 188.988 129.942 187.277 134.854C186.526 134.576 185.776 134.298 185.026 134.021C184.275 133.743 183.657 134.261 183.449 134.823C183.414 134.917 183.251 135.07 183.31 135.198C182.943 136.768 182.387 138.269 181.832 139.769C181.762 139.957 181.728 140.051 181.787 140.179C181.45 140.801 181.548 141.69 182.357 142.096C192.885 146.206 203.681 149.881 214.313 153.709C215.157 154.022 215.775 153.504 215.924 152.813C216.181 152.695 216.379 152.448 216.483 152.167C216.945 150.631 217.5 149.131 218.055 147.63ZM232.265 96.2692C231.848 97.3946 231.432 98.52 231.015 99.6454C221.439 96.4213 211.942 92.6936 202.505 89.0944C202.887 88.0628 203.175 86.9964 203.463 85.9301C213.063 89.3765 222.803 92.4477 232.265 96.2692ZM201.176 122.937C204.003 121.637 206.948 120.595 207.413 117.035C207.902 113.697 205.417 110.325 204.281 107.345C202.362 102.157 202.448 97.6036 204.076 92.3414C212.2 95.4547 220.325 98.568 228.553 101.4C226.679 106.464 223.926 111.31 219.21 114.256C217.238 115.552 214.63 115.973 212.716 117.398C210.185 119.34 210.477 122.007 211.273 124.754C213.258 131.78 215.913 136.708 213.453 144.221C212.796 143.978 212.14 143.735 211.483 143.492C210.239 139.939 208.233 133.546 203.992 132.616C200.067 131.697 195.188 134.796 191.813 136.426C191.813 136.426 191.813 136.426 191.778 136.519C191.028 136.242 190.278 135.964 189.527 135.687C191.69 129.556 195.137 125.714 201.176 122.937ZM208.447 142.475C203.946 140.809 199.503 139.272 194.967 137.7C197.314 136.542 199.825 135.232 202.201 135.152C205.465 134.974 207.321 139.179 208.447 142.475ZM184.222 140.227C184.638 139.102 185.054 137.976 185.283 136.782C195.225 140.461 205.398 143.799 215.27 147.666C214.853 148.791 214.437 149.916 214.02 151.042C204.138 147.491 194.093 144.094 184.222 140.227Z" fill="#202020"/>
<path d="M210.938 117.593C212.886 116.075 215.446 115.209 217.63 114.205C218.401 113.85 218.526 112.937 218.043 112.225C217.112 110.707 215.899 109.086 214.315 108.18C212.05 106.808 209.254 107.16 207.094 108.386C206.709 108.564 206.476 108.904 206.431 109.314C206.164 109.748 206.084 110.252 206.508 110.835C208.002 112.561 208.339 114.818 208.934 116.958C209.16 117.788 210.063 118.229 210.938 117.593ZM209.186 110.227C210.915 109.587 212.777 109.743 214.153 111.212C214.552 111.573 214.917 112.028 215.282 112.483C213.774 113.098 212.326 113.841 210.972 114.62C210.451 113.147 209.964 111.581 209.186 110.227Z" fill="#202020"/>
<mask id="path-6-outside-1_42_6664" maskUnits="userSpaceOnUse" x="95.5" y="69.0513" width="53" height="51" fill="black">
<rect fill="white" x="95.5" y="69.0513" width="53" height="51"/>
<path d="M146.458 89.4739C146.218 88.3558 145.898 87.2377 145.499 86.1994C145.339 85.88 145.18 85.6404 144.86 85.5605C144.7 85.4807 144.621 85.4807 144.461 85.4008C142.384 85.2411 140.228 85.1612 138.152 85.1612C137.273 83.5639 136.075 82.1263 134.638 81.0082C135.197 79.0116 135.756 77.0949 136.315 75.0982C136.634 74.619 136.395 74.06 135.995 73.7405C135.117 73.1016 134.078 72.5426 133.12 72.0634C132.801 71.9036 132.481 71.9036 132.242 72.0634C132.082 72.0634 131.922 72.1432 131.842 72.303C130.165 73.5808 128.648 74.9385 127.13 76.3761C125.054 75.6573 122.977 75.4976 120.741 75.817C119.703 74.06 118.744 72.303 117.626 70.6258C117.626 70.6258 117.626 70.6258 117.626 70.5459C117.387 70.2265 117.067 69.9869 116.508 70.0667C115.39 70.3063 114.272 70.6258 113.234 71.0251C112.914 71.1849 112.675 71.3446 112.595 71.664C112.515 71.7439 112.515 71.9036 112.515 72.0634C112.355 74.1399 112.275 76.2163 112.196 78.3727C110.598 79.2512 109.161 80.4492 108.043 81.8867C106.046 81.3277 104.129 80.6888 102.133 80.2096C102.133 80.2096 102.133 80.2096 102.053 80.2096C101.573 79.8901 101.014 80.1297 100.695 80.529C100.056 81.4076 99.4171 82.4458 99.0178 83.4042C98.8581 83.7236 98.8581 84.0431 99.0178 84.2827C99.0178 84.4424 99.0977 84.6021 99.1775 84.682C100.455 86.3592 101.813 87.8766 103.251 89.4739C102.612 91.3907 102.372 93.3074 102.612 95.304C100.775 96.502 98.938 97.7 97.1011 98.9778C96.7017 99.1375 96.3823 99.5369 96.542 100.096C96.8615 101.294 97.2608 102.412 97.74 103.53C97.8198 103.77 97.9796 103.85 98.2192 103.929C98.3789 104.009 98.5386 104.089 98.6984 104.089C100.775 104.169 102.931 104.169 105.008 104.089C106.046 105.846 107.483 107.364 109.161 108.482C108.681 110.478 108.122 112.395 107.643 114.392C107.643 114.392 107.643 114.392 107.643 114.472C107.483 114.871 107.643 115.35 108.043 115.59C109.001 116.229 109.959 116.788 110.998 117.187C111.317 117.347 111.557 117.347 111.876 117.267C112.036 117.267 112.196 117.187 112.355 117.027C113.953 115.67 115.47 114.232 116.987 112.794C118.824 113.353 120.581 113.513 122.418 113.274C123.377 115.031 124.335 116.868 125.373 118.625V118.704C125.533 119.263 126.092 119.503 126.571 119.423C127.689 119.263 128.807 118.944 129.846 118.545C130.165 118.465 130.325 118.225 130.405 117.986C130.485 117.826 130.564 117.666 130.644 117.506C130.884 115.43 131.044 113.353 131.123 111.277C132.88 110.398 134.398 109.201 135.676 107.603C137.832 108.082 139.988 108.562 142.145 108.961C142.544 109.121 143.023 109.041 143.343 108.562C143.982 107.523 144.541 106.405 144.94 105.287C145.02 105.048 145.02 104.808 144.86 104.648C144.86 104.488 144.78 104.329 144.621 104.249C143.183 102.652 141.666 101.214 140.148 99.7765C140.627 97.8597 140.707 96.0228 140.388 94.1061C142.225 92.988 144.062 91.9497 145.898 90.8316C145.898 90.8316 145.898 90.8316 145.978 90.8316C146.298 90.3524 146.617 89.9531 146.458 89.4739ZM142.864 105.048C142.624 105.607 142.384 106.166 142.065 106.725C140.068 106.325 138.072 105.846 136.075 105.447C135.915 105.367 135.676 105.447 135.516 105.447C135.117 105.367 134.717 105.447 134.398 105.846C133.28 107.443 131.683 108.641 129.925 109.44C129.766 109.52 129.686 109.6 129.606 109.68C129.366 109.839 129.287 110.079 129.207 110.398C129.127 112.475 128.967 114.472 128.728 116.548C128.089 116.708 127.53 116.868 126.891 117.027C125.932 115.35 125.054 113.673 124.175 111.996C124.175 111.437 123.696 110.798 122.897 110.958C120.981 111.357 119.064 111.117 117.147 110.558C116.987 110.478 116.908 110.478 116.828 110.478C116.508 110.398 116.189 110.478 115.949 110.718C114.512 112.156 112.994 113.593 111.397 114.871C110.838 114.631 110.279 114.312 109.72 113.992C110.199 111.996 110.758 109.999 111.237 108.003C111.397 107.443 111.077 107.044 110.678 106.884C110.598 106.805 110.518 106.725 110.438 106.645C108.761 105.607 107.404 104.169 106.445 102.492C106.365 102.412 106.286 102.332 106.286 102.252C106.126 101.933 105.886 101.773 105.407 101.773C103.331 101.853 101.254 101.853 99.1775 101.853C98.9379 101.294 98.6984 100.655 98.5386 100.096C100.216 98.9778 101.973 97.8597 103.65 96.7416C103.81 96.6617 103.969 96.502 104.049 96.3423C104.369 96.1027 104.608 95.7832 104.528 95.304C104.209 93.3873 104.528 91.4705 105.167 89.6336C105.247 89.4739 105.247 89.3142 105.247 89.1544C105.247 88.9148 105.247 88.5954 105.008 88.3558C103.57 86.8384 102.292 85.3209 101.014 83.7236C101.334 83.1646 101.653 82.6055 101.973 82.0465C103.81 82.5257 105.647 83.0847 107.483 83.6438C107.883 84.0431 108.681 84.2028 109.081 83.5639C110.199 81.8867 111.716 80.6888 113.393 79.8103C113.553 79.7304 113.633 79.6505 113.713 79.5707C113.953 79.4109 114.112 79.1713 114.112 78.772C114.112 76.6955 114.192 74.619 114.352 72.6224C114.911 72.3828 115.55 72.2231 116.189 72.0634C117.227 73.8204 118.265 75.5774 119.383 77.4143C119.703 77.9734 120.422 77.9734 120.821 77.6539C120.901 77.6539 120.981 77.6539 121.061 77.6539C122.977 77.3344 124.894 77.574 126.731 78.2928C126.891 78.3727 127.05 78.3727 127.13 78.3727C127.37 78.3727 127.689 78.3727 127.929 78.1331C129.446 76.6955 130.964 75.4177 132.561 74.1399C133.12 74.4593 133.679 74.7788 134.238 75.0982C133.759 76.9351 133.2 78.772 132.641 80.6089C132.242 81.0082 132.082 81.8069 132.721 82.2062C134.398 83.3243 135.596 84.7619 136.474 86.5189C136.554 86.6786 136.634 86.7585 136.714 86.8384C136.874 87.078 137.113 87.2377 137.513 87.2377C139.589 87.2377 141.666 87.3175 143.662 87.4773C143.902 88.0363 144.062 88.6753 144.221 89.3142C142.464 90.3524 140.707 91.3907 138.87 92.5088C138.79 92.5886 138.711 92.6685 138.631 92.7484C138.311 92.9879 138.072 93.3074 138.152 93.8665C138.631 95.7832 138.551 97.7 137.992 99.6167C137.992 99.6966 137.992 99.8563 137.992 99.9362C137.912 100.256 137.912 100.575 138.231 100.895C139.988 102.093 141.426 103.53 142.864 105.048Z"/>
</mask>
<path d="M146.458 89.4739C146.218 88.3558 145.898 87.2377 145.499 86.1994C145.339 85.88 145.18 85.6404 144.86 85.5605C144.7 85.4807 144.621 85.4807 144.461 85.4008C142.384 85.2411 140.228 85.1612 138.152 85.1612C137.273 83.5639 136.075 82.1263 134.638 81.0082C135.197 79.0116 135.756 77.0949 136.315 75.0982C136.634 74.619 136.395 74.06 135.995 73.7405C135.117 73.1016 134.078 72.5426 133.12 72.0634C132.801 71.9036 132.481 71.9036 132.242 72.0634C132.082 72.0634 131.922 72.1432 131.842 72.303C130.165 73.5808 128.648 74.9385 127.13 76.3761C125.054 75.6573 122.977 75.4976 120.741 75.817C119.703 74.06 118.744 72.303 117.626 70.6258C117.626 70.6258 117.626 70.6258 117.626 70.5459C117.387 70.2265 117.067 69.9869 116.508 70.0667C115.39 70.3063 114.272 70.6258 113.234 71.0251C112.914 71.1849 112.675 71.3446 112.595 71.664C112.515 71.7439 112.515 71.9036 112.515 72.0634C112.355 74.1399 112.275 76.2163 112.196 78.3727C110.598 79.2512 109.161 80.4492 108.043 81.8867C106.046 81.3277 104.129 80.6888 102.133 80.2096C102.133 80.2096 102.133 80.2096 102.053 80.2096C101.573 79.8901 101.014 80.1297 100.695 80.529C100.056 81.4076 99.4171 82.4458 99.0178 83.4042C98.8581 83.7236 98.8581 84.0431 99.0178 84.2827C99.0178 84.4424 99.0977 84.6021 99.1775 84.682C100.455 86.3592 101.813 87.8766 103.251 89.4739C102.612 91.3907 102.372 93.3074 102.612 95.304C100.775 96.502 98.938 97.7 97.1011 98.9778C96.7017 99.1375 96.3823 99.5369 96.542 100.096C96.8615 101.294 97.2608 102.412 97.74 103.53C97.8198 103.77 97.9796 103.85 98.2192 103.929C98.3789 104.009 98.5386 104.089 98.6984 104.089C100.775 104.169 102.931 104.169 105.008 104.089C106.046 105.846 107.483 107.364 109.161 108.482C108.681 110.478 108.122 112.395 107.643 114.392C107.643 114.392 107.643 114.392 107.643 114.472C107.483 114.871 107.643 115.35 108.043 115.59C109.001 116.229 109.959 116.788 110.998 117.187C111.317 117.347 111.557 117.347 111.876 117.267C112.036 117.267 112.196 117.187 112.355 117.027C113.953 115.67 115.47 114.232 116.987 112.794C118.824 113.353 120.581 113.513 122.418 113.274C123.377 115.031 124.335 116.868 125.373 118.625V118.704C125.533 119.263 126.092 119.503 126.571 119.423C127.689 119.263 128.807 118.944 129.846 118.545C130.165 118.465 130.325 118.225 130.405 117.986C130.485 117.826 130.564 117.666 130.644 117.506C130.884 115.43 131.044 113.353 131.123 111.277C132.88 110.398 134.398 109.201 135.676 107.603C137.832 108.082 139.988 108.562 142.145 108.961C142.544 109.121 143.023 109.041 143.343 108.562C143.982 107.523 144.541 106.405 144.94 105.287C145.02 105.048 145.02 104.808 144.86 104.648C144.86 104.488 144.78 104.329 144.621 104.249C143.183 102.652 141.666 101.214 140.148 99.7765C140.627 97.8597 140.707 96.0228 140.388 94.1061C142.225 92.988 144.062 91.9497 145.898 90.8316C145.898 90.8316 145.898 90.8316 145.978 90.8316C146.298 90.3524 146.617 89.9531 146.458 89.4739ZM142.864 105.048C142.624 105.607 142.384 106.166 142.065 106.725C140.068 106.325 138.072 105.846 136.075 105.447C135.915 105.367 135.676 105.447 135.516 105.447C135.117 105.367 134.717 105.447 134.398 105.846C133.28 107.443 131.683 108.641 129.925 109.44C129.766 109.52 129.686 109.6 129.606 109.68C129.366 109.839 129.287 110.079 129.207 110.398C129.127 112.475 128.967 114.472 128.728 116.548C128.089 116.708 127.53 116.868 126.891 117.027C125.932 115.35 125.054 113.673 124.175 111.996C124.175 111.437 123.696 110.798 122.897 110.958C120.981 111.357 119.064 111.117 117.147 110.558C116.987 110.478 116.908 110.478 116.828 110.478C116.508 110.398 116.189 110.478 115.949 110.718C114.512 112.156 112.994 113.593 111.397 114.871C110.838 114.631 110.279 114.312 109.72 113.992C110.199 111.996 110.758 109.999 111.237 108.003C111.397 107.443 111.077 107.044 110.678 106.884C110.598 106.805 110.518 106.725 110.438 106.645C108.761 105.607 107.404 104.169 106.445 102.492C106.365 102.412 106.286 102.332 106.286 102.252C106.126 101.933 105.886 101.773 105.407 101.773C103.331 101.853 101.254 101.853 99.1775 101.853C98.9379 101.294 98.6984 100.655 98.5386 100.096C100.216 98.9778 101.973 97.8597 103.65 96.7416C103.81 96.6617 103.969 96.502 104.049 96.3423C104.369 96.1027 104.608 95.7832 104.528 95.304C104.209 93.3873 104.528 91.4705 105.167 89.6336C105.247 89.4739 105.247 89.3142 105.247 89.1544C105.247 88.9148 105.247 88.5954 105.008 88.3558C103.57 86.8384 102.292 85.3209 101.014 83.7236C101.334 83.1646 101.653 82.6055 101.973 82.0465C103.81 82.5257 105.647 83.0847 107.483 83.6438C107.883 84.0431 108.681 84.2028 109.081 83.5639C110.199 81.8867 111.716 80.6888 113.393 79.8103C113.553 79.7304 113.633 79.6505 113.713 79.5707C113.953 79.4109 114.112 79.1713 114.112 78.772C114.112 76.6955 114.192 74.619 114.352 72.6224C114.911 72.3828 115.55 72.2231 116.189 72.0634C117.227 73.8204 118.265 75.5774 119.383 77.4143C119.703 77.9734 120.422 77.9734 120.821 77.6539C120.901 77.6539 120.981 77.6539 121.061 77.6539C122.977 77.3344 124.894 77.574 126.731 78.2928C126.891 78.3727 127.05 78.3727 127.13 78.3727C127.37 78.3727 127.689 78.3727 127.929 78.1331C129.446 76.6955 130.964 75.4177 132.561 74.1399C133.12 74.4593 133.679 74.7788 134.238 75.0982C133.759 76.9351 133.2 78.772 132.641 80.6089C132.242 81.0082 132.082 81.8069 132.721 82.2062C134.398 83.3243 135.596 84.7619 136.474 86.5189C136.554 86.6786 136.634 86.7585 136.714 86.8384C136.874 87.078 137.113 87.2377 137.513 87.2377C139.589 87.2377 141.666 87.3175 143.662 87.4773C143.902 88.0363 144.062 88.6753 144.221 89.3142C142.464 90.3524 140.707 91.3907 138.87 92.5088C138.79 92.5886 138.711 92.6685 138.631 92.7484C138.311 92.9879 138.072 93.3074 138.152 93.8665C138.631 95.7832 138.551 97.7 137.992 99.6167C137.992 99.6966 137.992 99.8563 137.992 99.9362C137.912 100.256 137.912 100.575 138.231 100.895C139.988 102.093 141.426 103.53 142.864 105.048Z" fill="#202020"/>
<path d="M146.458 89.4739C146.218 88.3558 145.898 87.2377 145.499 86.1994C145.339 85.88 145.18 85.6404 144.86 85.5605C144.7 85.4807 144.621 85.4807 144.461 85.4008C142.384 85.2411 140.228 85.1612 138.152 85.1612C137.273 83.5639 136.075 82.1263 134.638 81.0082C135.197 79.0116 135.756 77.0949 136.315 75.0982C136.634 74.619 136.395 74.06 135.995 73.7405C135.117 73.1016 134.078 72.5426 133.12 72.0634C132.801 71.9036 132.481 71.9036 132.242 72.0634C132.082 72.0634 131.922 72.1432 131.842 72.303C130.165 73.5808 128.648 74.9385 127.13 76.3761C125.054 75.6573 122.977 75.4976 120.741 75.817C119.703 74.06 118.744 72.303 117.626 70.6258C117.626 70.6258 117.626 70.6258 117.626 70.5459C117.387 70.2265 117.067 69.9869 116.508 70.0667C115.39 70.3063 114.272 70.6258 113.234 71.0251C112.914 71.1849 112.675 71.3446 112.595 71.664C112.515 71.7439 112.515 71.9036 112.515 72.0634C112.355 74.1399 112.275 76.2163 112.196 78.3727C110.598 79.2512 109.161 80.4492 108.043 81.8867C106.046 81.3277 104.129 80.6888 102.133 80.2096C102.133 80.2096 102.133 80.2096 102.053 80.2096C101.573 79.8901 101.014 80.1297 100.695 80.529C100.056 81.4076 99.4171 82.4458 99.0178 83.4042C98.8581 83.7236 98.8581 84.0431 99.0178 84.2827C99.0178 84.4424 99.0977 84.6021 99.1775 84.682C100.455 86.3592 101.813 87.8766 103.251 89.4739C102.612 91.3907 102.372 93.3074 102.612 95.304C100.775 96.502 98.938 97.7 97.1011 98.9778C96.7017 99.1375 96.3823 99.5369 96.542 100.096C96.8615 101.294 97.2608 102.412 97.74 103.53C97.8198 103.77 97.9796 103.85 98.2192 103.929C98.3789 104.009 98.5386 104.089 98.6984 104.089C100.775 104.169 102.931 104.169 105.008 104.089C106.046 105.846 107.483 107.364 109.161 108.482C108.681 110.478 108.122 112.395 107.643 114.392C107.643 114.392 107.643 114.392 107.643 114.472C107.483 114.871 107.643 115.35 108.043 115.59C109.001 116.229 109.959 116.788 110.998 117.187C111.317 117.347 111.557 117.347 111.876 117.267C112.036 117.267 112.196 117.187 112.355 117.027C113.953 115.67 115.47 114.232 116.987 112.794C118.824 113.353 120.581 113.513 122.418 113.274C123.377 115.031 124.335 116.868 125.373 118.625V118.704C125.533 119.263 126.092 119.503 126.571 119.423C127.689 119.263 128.807 118.944 129.846 118.545C130.165 118.465 130.325 118.225 130.405 117.986C130.485 117.826 130.564 117.666 130.644 117.506C130.884 115.43 131.044 113.353 131.123 111.277C132.88 110.398 134.398 109.201 135.676 107.603C137.832 108.082 139.988 108.562 142.145 108.961C142.544 109.121 143.023 109.041 143.343 108.562C143.982 107.523 144.541 106.405 144.94 105.287C145.02 105.048 145.02 104.808 144.86 104.648C144.86 104.488 144.78 104.329 144.621 104.249C143.183 102.652 141.666 101.214 140.148 99.7765C140.627 97.8597 140.707 96.0228 140.388 94.1061C142.225 92.988 144.062 91.9497 145.898 90.8316C145.898 90.8316 145.898 90.8316 145.978 90.8316C146.298 90.3524 146.617 89.9531 146.458 89.4739ZM142.864 105.048C142.624 105.607 142.384 106.166 142.065 106.725C140.068 106.325 138.072 105.846 136.075 105.447C135.915 105.367 135.676 105.447 135.516 105.447C135.117 105.367 134.717 105.447 134.398 105.846C133.28 107.443 131.683 108.641 129.925 109.44C129.766 109.52 129.686 109.6 129.606 109.68C129.366 109.839 129.287 110.079 129.207 110.398C129.127 112.475 128.967 114.472 128.728 116.548C128.089 116.708 127.53 116.868 126.891 117.027C125.932 115.35 125.054 113.673 124.175 111.996C124.175 111.437 123.696 110.798 122.897 110.958C120.981 111.357 119.064 111.117 117.147 110.558C116.987 110.478 116.908 110.478 116.828 110.478C116.508 110.398 116.189 110.478 115.949 110.718C114.512 112.156 112.994 113.593 111.397 114.871C110.838 114.631 110.279 114.312 109.72 113.992C110.199 111.996 110.758 109.999 111.237 108.003C111.397 107.443 111.077 107.044 110.678 106.884C110.598 106.805 110.518 106.725 110.438 106.645C108.761 105.607 107.404 104.169 106.445 102.492C106.365 102.412 106.286 102.332 106.286 102.252C106.126 101.933 105.886 101.773 105.407 101.773C103.331 101.853 101.254 101.853 99.1775 101.853C98.9379 101.294 98.6984 100.655 98.5386 100.096C100.216 98.9778 101.973 97.8597 103.65 96.7416C103.81 96.6617 103.969 96.502 104.049 96.3423C104.369 96.1027 104.608 95.7832 104.528 95.304C104.209 93.3873 104.528 91.4705 105.167 89.6336C105.247 89.4739 105.247 89.3142 105.247 89.1544C105.247 88.9148 105.247 88.5954 105.008 88.3558C103.57 86.8384 102.292 85.3209 101.014 83.7236C101.334 83.1646 101.653 82.6055 101.973 82.0465C103.81 82.5257 105.647 83.0847 107.483 83.6438C107.883 84.0431 108.681 84.2028 109.081 83.5639C110.199 81.8867 111.716 80.6888 113.393 79.8103C113.553 79.7304 113.633 79.6505 113.713 79.5707C113.953 79.4109 114.112 79.1713 114.112 78.772C114.112 76.6955 114.192 74.619 114.352 72.6224C114.911 72.3828 115.55 72.2231 116.189 72.0634C117.227 73.8204 118.265 75.5774 119.383 77.4143C119.703 77.9734 120.422 77.9734 120.821 77.6539C120.901 77.6539 120.981 77.6539 121.061 77.6539C122.977 77.3344 124.894 77.574 126.731 78.2928C126.891 78.3727 127.05 78.3727 127.13 78.3727C127.37 78.3727 127.689 78.3727 127.929 78.1331C129.446 76.6955 130.964 75.4177 132.561 74.1399C133.12 74.4593 133.679 74.7788 134.238 75.0982C133.759 76.9351 133.2 78.772 132.641 80.6089C132.242 81.0082 132.082 81.8069 132.721 82.2062C134.398 83.3243 135.596 84.7619 136.474 86.5189C136.554 86.6786 136.634 86.7585 136.714 86.8384C136.874 87.078 137.113 87.2377 137.513 87.2377C139.589 87.2377 141.666 87.3175 143.662 87.4773C143.902 88.0363 144.062 88.6753 144.221 89.3142C142.464 90.3524 140.707 91.3907 138.87 92.5088C138.79 92.5886 138.711 92.6685 138.631 92.7484C138.311 92.9879 138.072 93.3074 138.152 93.8665C138.631 95.7832 138.551 97.7 137.992 99.6167C137.992 99.6966 137.992 99.8563 137.992 99.9362C137.912 100.256 137.912 100.575 138.231 100.895C139.988 102.093 141.426 103.53 142.864 105.048Z" stroke="#202020" mask="url(#path-6-outside-1_42_6664)"/>
<path d="M124.631 84.3585L124.603 84.3521H124.575H124.574H124.574H124.573H124.573H124.572H124.572H124.571H124.571H124.57H124.57H124.569H124.569H124.568H124.568H124.567H124.567H124.566H124.566H124.565H124.565H124.564H124.564H124.563H124.563H124.562H124.562H124.561H124.561H124.56H124.56H124.559H124.559H124.558H124.558H124.557H124.557H124.556H124.555H124.555H124.554H124.554H124.553H124.553H124.552H124.552H124.551H124.551H124.55H124.55H124.549H124.548H124.548H124.547H124.547H124.546H124.546H124.545H124.545H124.544H124.543H124.543H124.542H124.542H124.541H124.541H124.54H124.539H124.539H124.538H124.538H124.537H124.537H124.536H124.535H124.535H124.534H124.534H124.533H124.532H124.532H124.531H124.531H124.53H124.529H124.529H124.528H124.528H124.527H124.526H124.526H124.525H124.525H124.524H124.523H124.523H124.522H124.522H124.521H124.52H124.52H124.519H124.519H124.518H124.517H124.517H124.516H124.515H124.515H124.514H124.514H124.513H124.512H124.512H124.511H124.51H124.51H124.509H124.509H124.508H124.507H124.507H124.506H124.505H124.505H124.504H124.503H124.503H124.502H124.502H124.501H124.5H124.5H124.499H124.498H124.498H124.497H124.496H124.496H124.495H124.494H124.494H124.493H124.492H124.492H124.491H124.49H124.49H124.489H124.488H124.488H124.487H124.486H124.486H124.485H124.484H124.484H124.483H124.482H124.482H124.481H124.48H124.48H124.479H124.478H124.478H124.477H124.476H124.476H124.475H124.474H124.474H124.473H124.472H124.472H124.471H124.47H124.47H124.469H124.468H124.468H124.467H124.466H124.466H124.465H124.464H124.464H124.463H124.462H124.461H124.461H124.46H124.459H124.459H124.458H124.457H124.457H124.456H124.455H124.455H124.454H124.453H124.453H124.452H124.451H124.45H124.45H124.449H124.448H124.448H124.447H124.446H124.446H124.445H124.444H124.443H124.443H124.442H124.441H124.441H124.44H124.439H124.439H124.438H124.437H124.437H124.436H124.435H124.434H124.434H124.433H124.432H124.432H124.431H124.43H124.43H124.429H124.428H124.427H124.427H124.426H124.425H124.425H124.424H124.423H124.423H124.422H124.421H124.42H124.42H124.419H124.418H124.418H124.417H124.416H124.415H124.415H124.414H124.413H124.413H124.412H124.411H124.411H124.41H124.409H124.408H124.408H124.407H124.406H124.406H124.405H124.404H124.404H124.403H124.402H124.401H124.401H124.4H124.399H124.399H124.398H124.397H124.397H124.396H124.395H124.394H124.394H124.393H124.392H124.392H124.391H124.39H124.39H124.389H124.388H124.387H124.387H124.386H124.385H124.385H124.384H124.383H124.383H124.382H124.381H124.381H124.38H124.379H124.378H124.378H124.377H124.376H124.376H124.375H124.374H124.374H124.373H124.372H124.372H124.371H124.37H124.369H124.369H124.368H124.367H124.367H124.366H124.365H124.365H124.364H124.363H124.363H124.362H124.361H124.361H124.36H124.359H124.359H124.358H124.357H124.357H124.356H124.355H124.355H124.354H124.353H124.352H124.352H124.351H124.35H124.35H124.349H124.348H124.348H124.347H124.346H124.346H124.345H124.344H124.344H124.343H124.342H124.342H124.341H124.34H124.34H124.339H124.339H124.338H124.337H124.337H124.336H124.335H124.335H124.334H124.333H124.333H124.332H124.331H124.331H124.33H124.329H124.329H124.328H124.327H124.327H124.326H124.326H124.325H124.324H124.324H124.323H124.322H124.322H124.321H124.32H124.32H124.319H124.319H124.318H124.317H124.317H124.316H124.315H124.315H124.314H124.314H124.313H124.312H124.312H124.311H124.31H124.31H124.309H124.309H124.308H124.307H124.307H124.306H124.306H124.305H124.304H124.304H124.303H124.303H124.302H124.301H124.301H124.3H124.3H124.299H124.298H124.298H124.297H124.297H124.296H124.295H124.295H124.294H124.294H124.293H124.292H124.292H124.291H124.291H124.29H124.29H124.289H124.288H124.288H124.287H124.287H124.286H124.286H124.285H124.284H124.284H124.283H124.283H124.282H124.282H124.281H124.281H124.28H124.28C118.986 83.3055 113.354 86.1565 111.717 91.5571C109.994 97.1378 113.447 102.617 118.912 104.249L118.913 104.249C124.47 105.883 131.009 102.541 132.484 96.7231L132.485 96.7197C133.797 91.224 129.947 85.5854 124.631 84.3585ZM130.079 95.6561L130.079 95.6582C129.231 100.282 123.966 103.016 119.532 101.772C117.039 101.051 115.472 99.6279 114.658 97.9443C113.842 96.2552 113.773 94.2816 114.322 92.4507C115.42 88.7877 118.963 85.7565 123.805 86.7636L123.83 86.7688H123.856H123.856H123.857H123.857H123.858H123.858H123.859H123.859H123.859H123.86H123.86H123.861H123.861H123.862H123.862H123.863H123.863H123.864H123.864H123.865H123.865H123.866H123.866H123.867H123.867H123.867H123.868H123.868H123.869H123.869H123.87H123.87H123.871H123.871H123.872H123.872H123.873H123.873H123.874H123.874H123.874H123.875H123.875H123.876H123.876H123.877H123.877H123.878H123.878H123.879H123.879H123.88H123.88H123.881H123.881H123.881H123.882H123.882H123.883H123.883H123.884H123.884H123.885H123.885H123.886H123.886H123.887H123.887H123.888H123.888H123.888H123.889H123.889H123.89H123.89H123.891H123.891H123.892H123.892H123.893H123.893H123.894H123.894H123.895H123.895H123.896H123.896H123.896H123.897H123.897H123.898H123.898H123.899H123.899H123.9H123.9H123.901H123.901H123.902H123.902H123.903H123.903H123.903H123.904H123.904H123.905H123.905H123.906H123.906H123.907H123.907H123.908H123.908H123.909H123.909H123.91H123.91H123.91H123.911H123.911H123.912H123.912H123.913H123.913H123.914H123.914H123.915H123.915H123.916H123.916H123.917H123.917H123.918H123.918H123.918H123.919H123.919H123.92H123.92H123.921H123.921H123.922H123.922H123.923H123.923H123.924H123.924H123.925H123.925H123.925H123.926H123.926H123.927H123.927H123.928H123.928H123.929H123.929H123.93H123.93H123.931H123.931H123.932H123.932H123.932H123.933H123.933H123.934H123.934H123.935H123.935H123.936H123.936H123.937H123.937H123.938H123.938H123.939H123.939H123.94H123.94H123.94H123.941H123.941H123.942H123.942H123.943H123.943H123.944H123.944H123.945H123.945H123.946H123.946H123.947H123.947H123.947H123.948H123.948H123.949H123.949H123.95H123.95H123.951H123.951H123.952H123.952H123.953H123.953H123.954H123.954H123.954H123.955H123.955H123.956H123.956H123.957H123.957H123.958H123.958H123.959H123.959H123.96H123.96H123.961H123.961H123.962H123.962H123.962H123.963H123.963H123.964H123.964H123.965H123.965H123.966H123.966H123.967H123.967H123.968H123.968H123.969H123.969H123.969H123.97H123.97H123.971H123.971H123.972H123.972H123.973H123.973H123.974H123.974H123.975H123.975H123.976H123.976H123.976H123.977H123.977H123.978H123.978H123.979H123.979H123.98H123.98H123.981H123.981H123.982H123.982H123.983H123.983H123.983H123.984H123.984H123.985H123.985H123.986H123.986H123.987H123.987H123.988H123.988H123.989H123.989H123.99H123.99H123.991H123.991H123.991H123.992H123.992H123.993H123.993H123.994H123.994H123.995H123.995H123.996H123.996H123.997H123.997H123.998H123.998H123.998H123.999H123.999H124H124H124.001H124.001H124.002H124.002H124.003H124.003H124.004H124.004H124.005H124.005H124.005H124.006H124.006H124.007H124.007H124.008H124.008H124.009H124.009H124.01H124.01H124.011H124.011H124.012H124.012H124.013H124.013H124.013H124.014H124.014H124.015H124.015H124.016H124.016H124.017H124.017H124.018H124.018H124.019H124.019H124.02H124.02H124.02H124.021H124.021H124.022H124.022H124.023H124.023H124.024H124.024H124.025H124.025H124.026H124.026H124.027H124.027H124.027H124.028H124.028H124.029H124.029H124.03H124.03H124.031H124.031H124.032H124.032H124.033H124.033H124.034H124.034H124.035H124.035H124.035H124.036H124.036H124.037H124.037H124.038H124.038H124.039H124.039H124.04H124.04H124.041H124.041H124.042H124.042H124.042H124.043H124.043H124.044H124.044H124.045H124.045H124.046H124.046H124.047H124.047H124.048H124.048H124.049H124.049H124.049H124.05H124.05H124.051H124.051H124.052H124.052H124.053H124.053H124.054H124.054H124.055H124.055H124.056H124.056H124.056H124.057H124.057H124.058H124.058H124.059H124.059H124.06H124.06H124.061H124.061H124.062H124.062H124.063H124.063H124.063C127.936 87.7922 130.847 91.6647 130.079 95.6561Z" fill="#202020" stroke="#202020" stroke-width="0.5"/>
</svg>
