<svg width="248" height="182" viewBox="0 0 248 182" fill="none" xmlns="http://www.w3.org/2000/svg">
<path d="M142.199 97.2003C142.199 97.1003 142.199 96.9003 142.099 96.8003C142.099 96.7003 141.999 96.5003 141.999 96.4003C140.699 93.0003 137.099 90.4003 133.799 92.1003C132.399 90.7003 130.499 90.4003 128.799 91.3003C127.299 89.4003 124.699 89.1003 122.699 90.3003C122.799 86.3003 122.899 82.2003 122.499 78.1003C122.299 75.6003 121.399 72.1003 118.199 72.7003C111.499 74.0003 114.499 87.9003 114.599 92.3003C114.599 92.4003 114.599 92.5003 114.599 92.6003C114.699 94.6003 114.899 96.5003 114.799 98.5003C114.799 100.7 114.799 102 113.099 103.6C110.899 105.7 112.199 104.7 110.099 104.5C107.599 104.3 105.999 103 103.499 104.3C100.599 105.9 97.099 111.4 101.799 112.6C106.799 113.9 111.099 113.3 115.199 117.5C117.199 119.6 118.799 122.4 119.599 125.2C119.999 126.6 119.899 128.5 120.899 129.7C122.199 131.4 123.799 130.8 125.799 130.8C129.099 130.8 132.599 131.3 135.799 130.3C136.299 130.1 136.599 129.7 136.599 129.3C136.599 129.2 136.699 129 136.699 128.8C136.599 127.1 136.399 124.6 136.999 122.8C137.099 122.7 137.099 122.6 137.299 122.5C138.199 121.3 139.099 120.3 139.699 118.9C140.999 116.1 141.499 112.9 141.899 109.8C142.199 105.7 142.899 101.2 142.199 97.2003ZM138.999 111C138.599 113.9 137.999 117.3 136.099 119.8C134.099 122.4 133.899 124.6 133.999 128C131.099 128.7 127.999 128.2 125.099 128.2C123.399 128.2 123.399 128.6 122.499 127.4C121.499 126.1 121.599 123.6 120.899 122.1C118.299 115.9 113.199 111.5 106.499 110.4C105.899 110.3 102.599 110.4 102.299 110C100.699 107.8 106.199 106 107.499 106.1C109.499 106.3 111.199 107.8 113.399 107.1C118.899 105.3 116.999 95.7003 116.899 91.6003C116.899 91.5003 116.899 91.4003 116.899 91.4003C116.799 89.2003 116.599 87.0003 116.499 84.8003C116.399 82.5003 115.799 77.8003 117.499 75.9003C120.099 72.9003 119.999 80.6003 120.099 81.9003C120.199 85.4003 120.099 88.9003 120.099 92.3003C120.099 92.8003 120.299 93.1003 120.599 93.3003C121.099 93.9003 122.099 94.0003 122.699 93.2003C123.699 91.7003 126.399 91.1003 127.099 93.1003C127.099 93.2003 127.199 93.3003 127.199 93.3003C127.299 93.5003 127.499 93.7003 127.699 93.8003C128.099 94.0003 128.499 94.0003 128.999 93.8003C129.099 93.7003 129.199 93.7003 129.299 93.6003C130.399 92.7003 131.599 93.0003 132.399 94.2003C132.699 94.7003 133.199 94.8003 133.599 94.8003C133.899 94.8003 134.099 94.7003 134.299 94.5003C136.499 92.6003 138.899 95.2003 139.599 97.3003C140.599 101.6 139.599 106.8 138.999 111Z" fill="#202020"/>
<path d="M185.58 97.1575C185.58 83.2588 185.3 69.3602 184.878 55.4615C184.878 55.0404 184.738 54.7596 184.598 54.6192C184.317 54.198 183.896 53.7769 183.194 53.7769C182.071 53.7769 181.088 53.7769 179.965 53.7769C179.965 47.5997 179.684 41.2821 179.544 35.1049C179.544 33.8414 178.561 33.2799 177.578 33.4203C177.438 33.4203 177.297 33.2799 177.016 33.2799C159.889 33.2799 142.902 32.4375 125.914 32.1567C106.26 31.876 86.4646 32.4375 66.81 32.4375C65.6869 32.4375 65.1254 33.2799 65.1254 34.1222C64.8446 34.403 64.7041 34.8242 64.7041 35.2453C64.7041 41.0013 64.4234 46.8977 64.283 52.6537C63.1599 52.6537 61.8963 52.7941 60.7732 52.7941C60.2117 52.7941 59.9309 52.9345 59.6501 53.2153C59.2289 53.4961 59.0885 53.9173 59.0885 54.4788C58.9481 83.9608 56.1404 113.302 56 142.784C56 143.206 56.1404 143.627 56.4212 143.907C55.7192 144.89 56.1404 146.715 57.8251 146.856C76.9182 148.681 96.1516 148.4 115.385 148.4C137.988 148.4 160.591 148.4 183.194 148.4C184.036 148.4 184.457 147.979 184.738 147.417C185.299 147.136 185.721 146.715 185.721 145.873C186.423 129.868 185.58 113.443 185.58 97.1575ZM68.2139 36.0877C87.4474 36.0877 106.681 35.3857 125.914 35.8069C142.621 36.0877 159.327 36.93 176.034 36.93C176.034 42.5456 176.314 48.1612 176.314 53.9173C160.029 54.0576 143.744 54.6192 127.599 53.2153C126.195 49.5652 124.37 46.1958 122.685 42.686C122.545 42.4052 122.264 42.1245 122.124 41.9841C122.124 41.1417 121.562 40.2994 120.439 40.2994C108.927 40.4398 97.2747 41.4225 85.7627 40.2994C84.78 40.159 84.2185 40.7206 84.0781 41.4225V41.5629C82.3934 45.4938 80.2875 49.2844 78.6028 53.2153C75.0931 52.6537 71.4429 52.7941 67.9332 52.9345C67.9332 47.1785 68.0735 41.7033 68.2139 36.0877ZM59.3693 143.767C59.5097 143.627 59.5098 143.346 59.5098 143.065C59.6502 114.145 62.3175 85.3647 62.4579 56.4443C67.512 56.3039 72.7064 55.7423 77.6201 56.4443C78.0412 56.4443 78.4624 56.4443 78.7432 56.3039C79.5855 56.5847 80.8491 56.4443 81.2703 55.3212C82.8146 51.3902 84.9204 47.7401 86.7454 43.8091C97.6959 44.7919 108.506 43.8091 119.456 43.8091C119.456 43.9495 119.597 44.2303 119.597 44.3707C121.282 48.0209 123.247 51.5306 124.651 55.3212C124.932 56.3039 125.774 56.5847 126.616 56.4443C126.757 56.4443 126.897 56.5847 127.038 56.5847C145.007 58.2694 163.118 57.427 181.228 57.2866C181.649 70.6237 181.93 83.9608 181.93 97.2979C181.93 113.302 182.772 129.307 181.93 145.171C159.608 145.171 137.286 145.171 114.964 145.171C96.7132 145.171 77.9009 145.311 59.3693 143.767Z" fill="#202020"/>
<path d="M216.997 40.938C214.594 45.1066 213.27 49.9115 213.851 54.3777C213.851 54.378 213.851 54.3784 213.851 54.3787C213.85 54.4048 213.851 54.444 213.863 54.4884C213.867 54.5027 213.872 54.518 213.879 54.5337C213.757 54.8139 213.712 55.1288 213.781 55.4327C213.867 55.8074 214.121 56.1371 214.556 56.3452L214.566 56.3499L214.576 56.3537C216.976 57.2568 219.471 57.6615 221.992 57.8684L221.992 57.8685L221.998 57.8688C222.382 57.8917 222.779 57.8312 223.095 57.6481C223.419 57.4606 223.647 57.1485 223.677 56.713C224.257 53.3753 225.031 50.0866 226.288 46.9012L226.289 46.8983C227.37 44.0595 228.975 42.2068 230.886 40.6191C231.845 39.8229 232.879 39.094 233.968 38.3384C234.074 38.2653 234.179 38.192 234.286 38.1183C235.276 37.432 236.307 36.7174 237.352 35.9114L237.353 35.9108C243.995 30.7467 246.225 21.3664 242.152 13.9027C238.853 7.7425 231.975 3.96662 225.068 3.89993L225.066 3.89993C216.782 3.86756 210.623 9.24488 207.683 16.5807C207.44 17.1858 207.568 17.7387 207.891 18.1303C208.194 18.497 208.663 18.7165 209.135 18.7145C210.157 19.1505 211.143 19.7391 212.147 20.3377C212.467 20.5286 212.788 20.7205 213.114 20.9088C213.336 21.4006 213.823 21.7099 214.333 21.7715C214.882 21.8379 215.477 21.621 215.839 21.0314L215.844 21.0221L215.849 21.0123C217.47 17.763 219.788 15.3883 222.524 14.2928C225.251 13.2003 228.427 13.3663 231.804 15.2597L231.805 15.2605C233.949 16.4435 235.235 18.2144 235.635 20.1599C236.036 22.1065 235.554 24.2542 234.113 26.1985L234.111 26.2015C232.554 28.3703 230.253 29.4987 227.88 30.6627C227.497 30.8505 227.112 31.0392 226.729 31.2334L226.727 31.2341C222.914 33.1966 219.406 36.7608 216.997 40.938ZM226.568 10.6332C220.705 10.1569 216.822 13.4331 214.134 17.9272C213.18 17.3774 212.212 16.8267 211.158 16.3312C214.448 9.86422 220.474 5.80962 228.031 7.15348L228.032 7.15362C234.839 8.34139 240.751 13.7782 241.225 20.7807C241.492 26.3579 239.184 30.8004 234.685 34.1096C233.975 34.6209 233.219 35.0992 232.448 35.5773C232.297 35.671 232.145 35.7647 231.993 35.8586C231.37 36.243 230.741 36.6314 230.128 37.0369C228.601 38.0462 227.146 39.1778 226.055 40.6799C223.125 44.5616 221.893 49.972 220.996 54.8251C219.548 54.6224 218.198 54.4252 216.823 53.9785C216.369 50.1093 217.576 45.9383 219.729 42.2974C221.911 38.608 225.048 35.4902 228.359 33.8027L228.36 33.8019C231.043 32.4103 233.962 30.7627 236.059 28.5478C238.167 26.3218 239.451 23.515 238.842 19.8318L238.842 19.8318L238.841 19.8288C237.814 14.0509 231.853 10.9911 226.568 10.6332Z" fill="#202020" stroke="#202020" stroke-width="0.5"/>
<path d="M216.922 58.2715L216.911 58.2719L216.9 58.2732C216.583 58.3115 216.335 58.3724 216.072 58.5355C213.241 59.0308 211.01 61.2222 210.774 64.4402C210.456 68.0775 212.889 71.2344 216.641 71.5757C220.547 71.9532 224.49 69.3875 224.508 65.1245C224.646 60.7849 220.925 58.1464 216.922 58.2715ZM221.499 64.9196L221.499 64.9196L221.499 64.9295C221.577 66.18 221.03 67.1277 220.167 67.7477C219.296 68.3731 218.097 68.6668 216.892 68.5683C215.79 68.4625 215.006 67.9452 214.509 67.2394C214.008 66.5275 213.79 65.6117 213.853 64.7108C213.916 63.8098 214.258 62.9436 214.851 62.3272C215.436 61.7189 216.276 61.3409 217.377 61.4191C217.593 61.4587 217.82 61.4144 217.985 61.3353C219.858 61.6488 221.453 62.8598 221.499 64.9196Z" fill="#202020" stroke="#202020" stroke-width="0.5"/>
<path d="M21.045 65.1744C21.3547 68.8371 22.619 72.4329 24.935 74.9878C24.9481 75.0076 24.969 75.0348 24.9997 75.0608C25.0043 75.0646 25.0091 75.0684 25.0142 75.0723C25.0645 75.3027 25.1772 75.5219 25.3576 75.6861C25.5889 75.8964 25.9102 75.9963 26.2894 75.9347L26.3 75.933L26.3105 75.9303C28.213 75.4497 29.9562 74.6147 31.6272 73.6456L31.6273 73.6457L31.6321 73.6427C31.889 73.4859 32.1211 73.2676 32.2456 73.0017C32.3738 72.7279 32.3816 72.4134 32.202 72.1101C31.1142 69.7712 30.17 67.3808 29.5727 64.8461L29.572 64.8431C29.0164 62.608 29.2134 60.7607 29.7169 58.9427C29.9697 58.03 30.2994 57.1257 30.6523 56.1789C30.6865 56.0873 30.7208 55.9953 30.7553 55.903C31.0767 55.0426 31.4119 54.1451 31.7156 53.1844L31.7159 53.1835C33.635 47.0348 30.9387 40.162 25.1147 37.248C20.3483 34.8164 14.3764 35.4493 10.0077 38.4236L10.0077 38.4236L10.0065 38.4244C4.78184 42.0257 3.26241 48.0991 4.61797 53.988C4.73442 54.4939 5.07113 54.8011 5.46442 54.9113C5.82648 55.0128 6.22922 54.9457 6.53696 54.7345C7.35865 54.5654 8.22244 54.5053 9.10568 54.4439C9.38363 54.4245 9.6635 54.405 9.94459 54.382C10.315 54.5947 10.7686 54.5719 11.125 54.3832C11.5161 54.1761 11.8087 53.7605 11.777 53.2089L11.7764 53.198L11.7748 53.1872C11.3773 50.4581 11.7946 47.9787 13.02 46.1182C14.241 44.2643 16.2841 42.9946 19.2062 42.712L19.2079 42.7118C21.0491 42.5211 22.6068 43.0656 23.69 44.0963C24.7738 45.1278 25.4018 46.6645 25.3459 48.4939L25.3458 48.4977C25.3149 50.5167 24.3741 52.2095 23.3948 53.9715C23.2367 54.256 23.0776 54.5424 22.9212 54.8321L22.9203 54.8337C21.3808 57.7331 20.7345 61.5023 21.045 65.1744ZM13.8796 41.9838C9.99482 44.241 8.97678 47.9832 9.23706 51.9563C8.43856 52.0244 7.62936 52.0991 6.793 52.238C6.06504 46.8002 8.07015 41.6983 13.3366 39.274L13.3373 39.2737C18.0956 37.0645 24.13 37.8953 27.4532 42.0467C30.0334 45.4045 30.52 49.168 29.1492 53.1797C28.9279 53.8065 28.664 54.4328 28.3893 55.0674C28.3356 55.1916 28.2814 55.3161 28.227 55.4411C28.0044 55.9527 27.7791 56.4706 27.5711 56.9924C27.0537 58.2906 26.632 59.6398 26.6023 61.0652C26.4579 64.7663 28.03 68.6801 29.5723 72.0951C28.6076 72.5828 27.705 73.0293 26.6881 73.3405C24.7478 71.1299 23.6997 68.0206 23.465 64.8274C23.2261 61.5778 23.8321 58.2727 25.1642 55.7876L25.165 55.786C26.2385 53.7479 27.3535 51.4385 27.7043 49.1286C28.0575 46.8035 27.6371 44.4679 25.6378 42.4114L25.6378 42.4114L25.6357 42.4093C22.4506 39.2111 17.3542 39.9021 13.8796 41.9838Z" fill="#202020" stroke="#202020" stroke-width="0.5"/>
<path d="M28.5634 76.0051L28.5544 76.0117L28.5461 76.0191C28.3637 76.1817 28.2295 76.3322 28.1316 76.5537C26.5635 78.1136 26.1183 80.4812 27.3828 82.6192C28.7815 85.0609 31.7135 85.9907 34.2405 84.5551C36.8717 83.0796 38.2462 79.7218 36.3789 77.0088C34.5529 74.1962 31.0335 74.1711 28.5634 76.0051ZM34.3084 78.2579L34.3083 78.258L34.3144 78.2658C34.8931 78.9976 34.9615 79.8068 34.6971 80.553C34.4296 81.3079 33.8174 82.0032 33.0307 82.4598C32.31 82.8644 31.6128 82.8801 31.0107 82.6604C30.4018 82.4383 29.8771 81.9699 29.5304 81.3886C29.1836 80.8071 29.0251 80.13 29.1254 79.5022C29.2239 78.8854 29.5744 78.2989 30.2807 77.8779C30.4371 77.8059 30.5633 77.6798 30.6393 77.554C31.9289 76.9508 33.4103 77.025 34.3084 78.2579Z" fill="#202020" stroke="#202020" stroke-width="0.5"/>
<path d="M181.839 110.156C140.433 119.364 119.903 147.498 100.678 142.347C72.8115 125.67 65.5812 86.4845 84.5288 54.8238C103.476 23.163 175.394 4.61546 203.26 21.2924C265.139 58.3244 211.902 84.7157 181.839 110.156Z" fill="#0475C7" fill-opacity="0.15"/>
</svg>
