<svg width="1169" height="14" viewBox="0 0 1169 14" fill="none" xmlns="http://www.w3.org/2000/svg">
<g filter="url(#filter0_d_42_6654)">
<path d="M1.36259 5.88916C1.36259 8.83468 3.7504 11.2225 6.69592 11.2225C9.64144 11.2225 12.0293 8.83468 12.0293 5.88916C12.0293 2.94364 9.64144 0.555827 6.69592 0.555827C3.7504 0.555827 1.36259 2.94364 1.36259 5.88916ZM1167.81 5.88916L1157.81 0.115657V11.6627L1167.81 5.88916ZM6.69592 6.88916H11.7007V4.88916H6.69592V6.88916ZM21.7103 6.88916H31.7199V4.88916H21.7103V6.88916ZM41.7294 6.88916H51.739V4.88916H41.7294V6.88916ZM61.7486 6.88916H71.7582V4.88916H61.7486V6.88916ZM81.7677 6.88916H91.7773V4.88916H81.7677V6.88916ZM101.787 6.88916H111.796V4.88916H101.787V6.88916ZM121.806 6.88916H131.816V4.88916H121.806V6.88916ZM141.825 6.88916H151.835V4.88916H141.825V6.88916ZM161.844 6.88916H171.854V4.88916H161.844V6.88916ZM181.863 6.88916H191.873V4.88916H181.863V6.88916ZM201.883 6.88916H211.892V4.88916H201.883V6.88916ZM221.902 6.88916H231.911V4.88916H221.902V6.88916ZM241.921 6.88916H251.93V4.88916H241.921V6.88916ZM261.94 6.88916H271.95V4.88916H261.94V6.88916ZM281.959 6.88916H291.969V4.88916H281.959V6.88916ZM301.978 6.88916H311.988V4.88916H301.978V6.88916ZM321.997 6.88916H332.007V4.88916H321.997V6.88916ZM342.017 6.88916H352.026V4.88916H342.017V6.88916ZM362.036 6.88916H372.045V4.88916H362.036V6.88916ZM382.055 6.88916H392.065V4.88916H382.055V6.88916ZM402.074 6.88916H412.084V4.88916H402.074V6.88916ZM422.093 6.88916H432.103V4.88916H422.093V6.88916ZM442.112 6.88916H452.122V4.88916H442.112V6.88916ZM462.132 6.88916H472.141V4.88916H462.132V6.88916ZM482.151 6.88916H492.16V4.88916H482.151V6.88916ZM502.17 6.88916H512.18V4.88916H502.17V6.88916ZM522.189 6.88916H532.199V4.88916H522.189V6.88916ZM542.208 6.88916H552.218V4.88916H542.208V6.88916ZM562.227 6.88916H572.237V4.88916H562.227V6.88916ZM582.247 6.88916H592.256V4.88916H582.247V6.88916ZM602.266 6.88916H612.275V4.88916H602.266V6.88916ZM622.285 6.88916H632.294V4.88916H622.285V6.88916ZM642.304 6.88916H652.314V4.88916H642.304V6.88916ZM662.323 6.88916H672.333V4.88916H662.323V6.88916ZM682.342 6.88916H692.352V4.88916H682.342V6.88916ZM702.362 6.88916H712.371V4.88916H702.362V6.88916ZM722.381 6.88916H732.39V4.88916H722.381V6.88916ZM742.4 6.88916H752.41V4.88916H742.4V6.88916ZM762.419 6.88916H772.429V4.88916H762.419V6.88916ZM782.438 6.88916H792.448V4.88916H782.438V6.88916ZM802.457 6.88916H812.467V4.88916H802.457V6.88916ZM822.477 6.88916H832.486V4.88916H822.477V6.88916ZM842.496 6.88916H852.505V4.88916H842.496V6.88916ZM862.515 6.88916H872.524V4.88916H862.515V6.88916ZM882.534 6.88916H892.544V4.88916H882.534V6.88916ZM902.553 6.88916H912.563V4.88916H902.553V6.88916ZM922.572 6.88916H932.582V4.88916H922.572V6.88916ZM942.592 6.88916H952.601V4.88916H942.592V6.88916ZM962.611 6.88916H972.62V4.88916H962.611V6.88916ZM982.63 6.88916H992.64V4.88916H982.63V6.88916ZM1002.65 6.88916H1012.66V4.88916H1002.65V6.88916ZM1022.67 6.88916H1032.68V4.88916H1022.67V6.88916ZM1042.69 6.88916H1052.7V4.88916H1042.69V6.88916ZM1062.71 6.88916H1072.72V4.88916H1062.71V6.88916ZM1082.73 6.88916H1092.73V4.88916H1082.73V6.88916ZM1102.74 6.88916H1112.75V4.88916H1102.74V6.88916ZM1122.76 6.88916H1132.77V4.88916H1122.76V6.88916ZM1142.78 6.88916H1152.79V4.88916H1142.78V6.88916Z" fill="#0475C7"/>
</g>
<defs>
<filter id="filter0_d_42_6654" x="0.362579" y="0.115723" width="1168.44" height="13.5469" filterUnits="userSpaceOnUse" color-interpolation-filters="sRGB">
<feFlood flood-opacity="0" result="BackgroundImageFix"/>
<feColorMatrix in="SourceAlpha" type="matrix" values="0 0 0 0 0 0 0 0 0 0 0 0 0 0 0 0 0 0 127 0" result="hardAlpha"/>
<feOffset dy="1"/>
<feGaussianBlur stdDeviation="0.5"/>
<feComposite in2="hardAlpha" operator="out"/>
<feColorMatrix type="matrix" values="0 0 0 0 0 0 0 0 0 0 0 0 0 0 0 0 0 0 0.15 0"/>
<feBlend mode="normal" in2="BackgroundImageFix" result="effect1_dropShadow_42_6654"/>
<feBlend mode="normal" in="SourceGraphic" in2="effect1_dropShadow_42_6654" result="shape"/>
</filter>
</defs>
</svg>
