<svg width="21" height="21" viewBox="0 0 21 21" fill="none" xmlns="http://www.w3.org/2000/svg"><g clip-path="url(#a)"><path d="M10.5 21C16.299 21 21 16.299 21 10.5S16.299 0 10.5 0 0 4.701 0 10.5 4.701 21 10.5 21Z" fill="#000" fill-opacity=".8"/><path fill-rule="evenodd" clip-rule="evenodd" d="M4.753 10.39a499.148 499.148 0 0 1 6.123-2.638c2.916-1.213 3.522-1.424 3.917-1.43.087-.002.281.02.407.121a.442.442 0 0 1 .15.285c.013.081.03.267.017.413-.158 1.66-.842 5.69-1.19 7.549-.147.787-.437 1.05-.717 1.076-.61.056-1.073-.403-1.664-.79-.924-.606-1.446-.983-2.343-1.574-1.037-.683-.364-1.058.226-1.672.155-.16 2.841-2.604 2.893-2.826.007-.028.013-.131-.048-.186-.062-.054-.152-.036-.218-.02-.092.02-1.569.996-4.429 2.927-.419.287-.798.428-1.138.42-.375-.008-1.096-.212-1.633-.386-.657-.214-1.18-.327-1.134-.69.023-.189.284-.382.78-.58Z" fill="#B7B7B7"/></g><defs><clipPath id="a"><path fill="#fff" d="M0 0h21v21H0z"/></clipPath></defs></svg>