<svg width="24" height="24" viewBox="0 0 24 24" fill="none" xmlns="http://www.w3.org/2000/svg"><path d="M0 12v12h24V0H0v12Zm19.34-.957c.61.152 1.073.426 1.503.867.22.234.547.664.575.77.007.031-1.035.73-1.668 1.12-.023.016-.117-.081-.22-.234-.308-.45-.632-.644-1.128-.68-.727-.047-1.196.333-1.192.97a.945.945 0 0 0 .101.449c.161.332.462.53 1.391.934 1.719.737 2.453 1.226 2.91 1.917.512.774.625 2.008.281 2.93-.382.996-1.328 1.675-2.656 1.898-.41.074-1.387.062-1.829-.02-.964-.171-1.879-.648-2.441-1.273-.223-.242-.652-.879-.625-.922.012-.015.11-.078.22-.14.109-.064.51-.298.89-.517l.692-.402.145.215c.203.308.644.73.91.87.766.407 1.816.348 2.336-.117a.876.876 0 0 0 .313-.718c0-.277-.035-.402-.18-.61-.188-.265-.566-.492-1.648-.96-1.239-.536-1.774-.864-2.258-1.391a3.177 3.177 0 0 1-.66-1.2c-.09-.339-.113-1.191-.043-1.53.255-1.2 1.16-2.032 2.461-2.278.422-.082 1.406-.05 1.82.051v.001Zm-5.633 1.004.007.98H10.59v8.88H8.38v-8.88H5.257v-.96c0-.536.011-.98.027-.992.011-.016 1.91-.024 4.214-.02l4.196.012.012.98Z" fill="#626262"/></svg>