<svg width="24" height="24" viewBox="0 0 24 24" fill="none" xmlns="http://www.w3.org/2000/svg">
<path fill-rule="evenodd" clip-rule="evenodd" d="M3.388 1H11.1486V2.84286C10.6619 2.75627 10.1621 2.77742 9.6845 2.90482C9.20687 3.03221 8.76297 3.26276 8.38404 3.58022C8.00512 3.89768 7.70039 4.29434 7.49131 4.74227C7.28223 5.19021 7.17387 5.67853 7.17387 6.17286C7.17387 6.66719 7.28223 7.15551 7.49131 7.60344C7.70039 8.05138 8.00512 8.44804 8.38404 8.7655C8.76297 9.08296 9.20687 9.3135 9.6845 9.4409C10.1621 9.56829 10.6619 9.58944 11.1486 9.50286V11.1469H7.95314C7.76067 11.1462 7.57215 11.2015 7.41046 11.3059C7.24877 11.4103 7.12087 11.5594 7.04228 11.7351C6.96368 11.9108 6.93778 12.1056 6.9677 12.2957C6.99763 12.4859 7.0821 12.6632 7.21086 12.8063C7.39021 13.0068 7.50768 13.255 7.5491 13.5208C7.59052 13.7867 7.55411 14.0588 7.44427 14.3044C7.33443 14.55 7.15585 14.7585 6.93009 14.9049C6.70433 15.0512 6.44104 15.1291 6.172 15.1291C5.90296 15.1291 5.63967 15.0512 5.41391 14.9049C5.18815 14.7585 5.00957 14.55 4.89973 14.3044C4.78989 14.0588 4.75348 13.7867 4.7949 13.5208C4.83632 13.255 4.95379 13.0068 5.13314 12.8063C5.26181 12.6633 5.34624 12.4861 5.37623 12.2961C5.40621 12.1062 5.38045 11.9116 5.30207 11.7359C5.22369 11.5603 5.09605 11.4112 4.93462 11.3066C4.77319 11.2021 4.5849 11.1466 4.39257 11.1469H1V3.388C1 2.75466 1.25159 2.14727 1.69943 1.69943C2.14727 1.25159 2.75466 1 3.388 1ZM1 13.1371V20.8977C1 21.5311 1.25159 22.1384 1.69943 22.5863C2.14727 23.0341 2.75466 23.2857 3.388 23.2857H11.1486V19.8914C11.1479 19.699 11.2032 19.5104 11.3076 19.3487C11.412 19.1871 11.5612 19.0592 11.7369 18.9806C11.9126 18.902 12.1073 18.8761 12.2974 18.906C12.4876 18.9359 12.6649 19.0204 12.808 19.1491C13.0085 19.3285 13.2567 19.446 13.5225 19.4874C13.7884 19.5288 14.0605 19.4924 14.3061 19.3826C14.5517 19.2727 14.7603 19.0941 14.9066 18.8684C15.0529 18.6426 15.1308 18.3793 15.1308 18.1103C15.1308 17.8412 15.0529 17.578 14.9066 17.3522C14.7603 17.1264 14.5517 16.9479 14.3061 16.838C14.0605 16.7282 13.7884 16.6918 13.5225 16.7332C13.2567 16.7746 13.0085 16.8921 12.808 17.0714C12.665 17.2001 12.4878 17.2845 12.2979 17.3145C12.1079 17.3445 11.9133 17.3187 11.7376 17.2404C11.562 17.162 11.4129 17.0343 11.3083 16.8729C11.2038 16.7115 11.1483 16.5232 11.1486 16.3309V13.1371H9.50286C9.58944 13.6238 9.56829 14.1236 9.4409 14.6012C9.3135 15.0788 9.08296 15.5227 8.7655 15.9017C8.44804 16.2806 8.05138 16.5853 7.60344 16.7944C7.15551 17.0035 6.66719 17.1118 6.17286 17.1118C5.67853 17.1118 5.19021 17.0035 4.74227 16.7944C4.29434 16.5853 3.89768 16.2806 3.58022 15.9017C3.26276 15.5227 3.03221 15.0788 2.90482 14.6012C2.77742 14.1236 2.75627 13.6238 2.84286 13.1371H1ZM13.1371 13.1371V14.7811C13.6238 14.6946 14.1236 14.7157 14.6012 14.8431C15.0788 14.9705 15.5227 15.201 15.9017 15.5185C16.2806 15.836 16.5853 16.2326 16.7944 16.6806C17.0035 17.1285 17.1118 17.6168 17.1118 18.1111C17.1118 18.6055 17.0035 19.0938 16.7944 19.5417C16.5853 19.9897 16.2806 20.3863 15.9017 20.7038C15.5227 21.0212 15.0788 21.2518 14.6012 21.3792C14.1236 21.5066 13.6238 21.5277 13.1371 21.4411V23.2857H20.8977C21.5311 23.2857 22.1384 23.0341 22.5863 22.5863C23.0341 22.1384 23.2857 21.5311 23.2857 20.8977V13.1371H19.8914C19.699 13.1378 19.5104 13.0825 19.3487 12.9781C19.1871 12.8737 19.0592 12.7246 18.9806 12.5489C18.902 12.3732 18.8761 12.1784 18.906 11.9883C18.9359 11.7981 19.0204 11.6208 19.1491 11.4777C19.3285 11.2772 19.446 11.029 19.4874 10.7632C19.5288 10.4973 19.4924 10.2252 19.3826 9.97961C19.2727 9.73401 19.0941 9.52546 18.8684 9.37912C18.6426 9.23278 18.3793 9.15491 18.1103 9.15491C17.8412 9.15491 17.578 9.23278 17.3522 9.37912C17.1264 9.52546 16.9479 9.73401 16.838 9.97961C16.7282 10.2252 16.6918 10.4973 16.7332 10.7632C16.7746 11.029 16.8921 11.2772 17.0714 11.4777C17.2001 11.6207 17.2845 11.7979 17.3145 11.9879C17.3445 12.1778 17.3187 12.3724 17.2404 12.5481C17.162 12.7237 17.0343 12.8728 16.8729 12.9774C16.7115 13.0819 16.5232 13.1374 16.3309 13.1371H13.1371ZM23.2857 11.1486V3.388C23.2857 2.75466 23.0341 2.14727 22.5863 1.69943C22.1384 1.25159 21.5311 1 20.8977 1L13.1371 1V4.39429C13.1378 4.58676 13.0825 4.77528 12.9781 4.93697C12.8737 5.09866 12.7246 5.22656 12.5489 5.30515C12.3732 5.38374 12.1784 5.40965 11.9883 5.37973C11.7981 5.3498 11.6208 5.26533 11.4777 5.13657C11.2772 4.95722 11.029 4.83975 10.7632 4.79833C10.4973 4.75691 10.2252 4.79332 9.97961 4.90316C9.73401 5.013 9.52546 5.19158 9.37912 5.41734C9.23278 5.6431 9.15491 5.90639 9.15491 6.17543C9.15491 6.44447 9.23278 6.70776 9.37912 6.93352C9.52546 7.15928 9.73401 7.33786 9.97961 7.4477C10.2252 7.55754 10.4973 7.59395 10.7632 7.55253C11.029 7.51111 11.2772 7.39364 11.4777 7.21429C11.6207 7.08562 11.7979 7.00118 11.9879 6.9712C12.1778 6.94122 12.3724 6.96698 12.5481 7.04536C12.7237 7.12374 12.8728 7.25138 12.9774 7.41281C13.0819 7.57424 13.1374 7.76253 13.1371 7.95486V11.1503H14.7811C14.6946 10.6636 14.7157 10.1638 14.8431 9.68621C14.9705 9.20858 15.201 8.76468 15.5185 8.38576C15.836 8.00684 16.2326 7.70211 16.6806 7.49302C17.1285 7.28394 17.6168 7.17558 18.1111 7.17558C18.6055 7.17558 19.0938 7.28394 19.5417 7.49302C19.9897 7.70211 20.3863 8.00684 20.7038 8.38576C21.0212 8.76468 21.2518 9.20858 21.3792 9.68621C21.5066 10.1638 21.5277 10.6636 21.4411 11.1503L23.2857 11.1486Z" fill="#0475C7"/>
</svg>
