<svg width="24" height="24" viewBox="0 0 24 24" fill="none" xmlns="http://www.w3.org/2000/svg"><path fill-rule="evenodd" clip-rule="evenodd" d="M3.388 1h7.76v1.843a3.382 3.382 0 1 0 0 6.66v1.644H7.954a.994.994 0 0 0-.742 1.66 1.394 1.394 0 1 1-2.078 0 .995.995 0 0 0-.74-1.66H1V3.388A2.388 2.388 0 0 1 3.388 1ZM1 13.137v7.76a2.388 2.388 0 0 0 2.388 2.389h7.76V19.89a.994.994 0 0 1 1.66-.742 1.393 1.393 0 1 0 0-2.078.994.994 0 0 1-1.66-.74v-3.194H9.504a3.383 3.383 0 1 1-6.66 0H1Zm12.137 0v1.644a3.384 3.384 0 0 1 2.765 5.923 3.384 3.384 0 0 1-2.765.737v1.845h7.76a2.388 2.388 0 0 0 2.389-2.388v-7.76H19.89a.994.994 0 0 1-.742-1.66 1.393 1.393 0 1 0-2.078 0 .994.994 0 0 1-.74 1.66h-3.194Zm10.149-1.988V3.388A2.388 2.388 0 0 0 20.898 1h-7.76v3.394a.994.994 0 0 1-1.66.743 1.394 1.394 0 1 0 0 2.077.994.994 0 0 1 1.66.74v3.196h1.643a3.384 3.384 0 0 1 6.598-1.464c.128.478.149.978.062 1.464l1.845-.001Z" fill="#0475C7"/></svg>