<svg width="24" height="24" viewBox="0 0 24 24" fill="none" xmlns="http://www.w3.org/2000/svg"><path fill-rule="evenodd" clip-rule="evenodd" d="M1 3.32A2.318 2.318 0 0 1 3.32 1h17.646a2.318 2.318 0 0 1 2.32 2.32v12.075a2.318 2.318 0 0 1-2.32 2.32h-6.408l.852 2.379h1.509a1.194 1.194 0 0 1 0 2.388H7.367a1.194 1.194 0 0 1 0-2.388h1.508l.852-2.38H3.32A2.32 2.32 0 0 1 1 15.394V3.32Zm8.803 2.8a1.192 1.192 0 0 1 0 1.69L8.258 9.353l1.545 1.544a1.193 1.193 0 0 1-1.687 1.687l-2.388-2.388a1.193 1.193 0 0 1 0-1.687l2.388-2.388a1.193 1.193 0 0 1 1.687-.001Zm6.367 0a1.193 1.193 0 1 0-1.687 1.69l1.544 1.544-1.544 1.544a1.193 1.193 0 0 0 1.687 1.687l2.388-2.388a1.193 1.193 0 0 0 0-1.687L16.17 6.12Z" fill="#0475C7"/></svg>