<svg width="24" height="24" viewBox="0 0 24 24" fill="none" xmlns="http://www.w3.org/2000/svg">
<path fill-rule="evenodd" clip-rule="evenodd" d="M1 3.31943C1 2.03886 2.03714 1 3.31943 1H20.9663C22.2486 1 23.2857 2.03714 23.2857 3.31943V15.3949C23.2857 16.6771 22.2486 17.7143 20.9663 17.7143H14.5583L15.4103 20.0937H16.9189C17.2355 20.0937 17.5392 20.2195 17.7631 20.4434C17.9871 20.6673 18.1129 20.971 18.1129 21.2877C18.1129 21.6044 17.9871 21.9081 17.7631 22.132C17.5392 22.3559 17.2355 22.4817 16.9189 22.4817H7.36686C7.05019 22.4817 6.74649 22.3559 6.52257 22.132C6.29865 21.9081 6.17286 21.6044 6.17286 21.2877C6.17286 20.971 6.29865 20.6673 6.52257 20.4434C6.74649 20.2195 7.05019 20.0937 7.36686 20.0937H8.87543L9.72743 17.7143H3.31943C2.70428 17.7143 2.11432 17.4699 1.67934 17.0349C1.24437 16.6 1 16.01 1 15.3949V3.31943ZM9.80286 6.12057C9.91383 6.23139 10.0019 6.36299 10.0619 6.50786C10.122 6.65274 10.1529 6.80803 10.1529 6.96486C10.1529 7.12169 10.122 7.27698 10.0619 7.42185C10.0019 7.56672 9.91383 7.69833 9.80286 7.80914L8.25829 9.35371L9.80286 10.8983C10.0176 11.1238 10.1357 11.4243 10.1319 11.7357C10.1281 12.0471 10.0027 12.3446 9.78254 12.5648C9.56234 12.785 9.26478 12.9104 8.9534 12.9142C8.64202 12.918 8.3415 12.7999 8.116 12.5851L5.728 10.1971C5.5044 9.9734 5.37879 9.67003 5.37879 9.35371C5.37879 9.0374 5.5044 8.73402 5.728 8.51029L8.116 6.12229C8.33974 5.89868 8.64311 5.77307 8.95943 5.77307C9.27575 5.77307 9.57912 5.89697 9.80286 6.12057ZM16.1697 6.12057C15.9458 5.89688 15.6422 5.7713 15.3257 5.77146C15.0092 5.77162 14.7057 5.89751 14.482 6.12143C14.2583 6.34535 14.1327 6.64896 14.1329 6.96546C14.1331 7.28197 14.2589 7.58545 14.4829 7.80914L16.0274 9.35371L14.4829 10.8983C14.2681 11.1238 14.15 11.4243 14.1538 11.7357C14.1576 12.0471 14.283 12.3446 14.5032 12.5648C14.7234 12.785 15.0209 12.9104 15.3323 12.9142C15.6437 12.918 15.9442 12.7999 16.1697 12.5851L18.5577 10.1971C18.7813 9.9734 18.9069 9.67003 18.9069 9.35371C18.9069 9.0374 18.7813 8.73402 18.5577 8.51029L16.1697 6.12057Z" fill="#0475C7"/>
</svg>
