<svg width="24" height="24" viewBox="0 0 24 24" fill="none" xmlns="http://www.w3.org/2000/svg">
<path d="M21.2107 16.3262C21.6331 16.3262 22.0381 16.494 22.3368 16.7926C22.6355 17.0913 22.8033 17.4964 22.8033 17.9187V21.1022C22.8033 21.5245 22.6355 21.9296 22.3368 22.2283C22.0381 22.527 21.6331 22.6947 21.2107 22.6947H3.70097C3.27859 22.6947 2.87352 22.527 2.57485 22.2283C2.27619 21.9296 2.1084 21.5245 2.1084 21.1022V17.9187C2.1084 17.4964 2.27619 17.0913 2.57485 16.7926C2.87352 16.494 3.27859 16.3262 3.70097 16.3262H21.2107Z" fill="#0475C7"/>
<path d="M12.4554 2C12.8778 2 13.2829 2.16779 13.5815 2.46645C13.8802 2.76512 14.048 3.1702 14.048 3.59257V12.3474C14.048 12.7698 13.8802 13.1749 13.5815 13.4735C13.2829 13.7722 12.8778 13.94 12.4554 13.94H3.59257C3.1702 13.94 2.76512 13.7722 2.46645 13.4735C2.16779 13.1749 2 12.7698 2 12.3474V3.59257C2 3.1702 2.16779 2.76512 2.46645 2.46645C2.76512 2.16779 3.1702 2 3.59257 2H12.4554Z" fill="#0475C7"/>
<path d="M22.006 8.76562C22.217 8.76562 22.4193 8.84943 22.5685 8.9986C22.7176 9.14777 22.8014 9.35009 22.8014 9.56105V13.1422C22.8014 13.3532 22.7176 13.5555 22.5685 13.7046C22.4193 13.8538 22.217 13.9376 22.006 13.9376H17.23C17.019 13.9376 16.8167 13.8538 16.6675 13.7046C16.5184 13.5555 16.4346 13.3532 16.4346 13.1422V9.56105C16.4346 9.35009 16.5184 9.14777 16.6675 8.9986C16.8167 8.84943 17.019 8.76562 17.23 8.76562H22.006Z" fill="#0475C7"/>
<path d="M22.006 2C22.217 2 22.4193 2.0838 22.5685 2.23298C22.7176 2.38215 22.8014 2.58447 22.8014 2.79543V6.37657C22.8014 6.58753 22.7176 6.78985 22.5685 6.93902C22.4193 7.0882 22.217 7.172 22.006 7.172H17.23C17.019 7.172 16.8167 7.0882 16.6675 6.93902C16.5184 6.78985 16.4346 6.58753 16.4346 6.37657V2.79714C16.4346 2.58618 16.5184 2.38386 16.6675 2.23469C16.8167 2.08552 17.019 2.00171 17.23 2.00171H22.006V2Z" fill="#0475C7"/>
</svg>
