<svg width="24" height="24" viewBox="0 0 24 24" fill="none" xmlns="http://www.w3.org/2000/svg"><path d="M21.21 16.326a1.593 1.593 0 0 1 1.593 1.593v3.183a1.593 1.593 0 0 1-1.592 1.593H3.7a1.592 1.592 0 0 1-1.593-1.593V17.92A1.593 1.593 0 0 1 3.7 16.327h17.51ZM12.455 2a1.592 1.592 0 0 1 1.593 1.593v8.754a1.592 1.592 0 0 1-1.593 1.593H3.593A1.592 1.592 0 0 1 2 12.347V3.593A1.593 1.593 0 0 1 3.593 2h8.862Zm9.551 6.766a.796.796 0 0 1 .795.795v3.581a.795.795 0 0 1-.795.796H17.23a.795.795 0 0 1-.795-.796v-3.58a.796.796 0 0 1 .795-.796h4.776Zm0-6.766a.795.795 0 0 1 .795.795v3.582a.796.796 0 0 1-.795.795H17.23a.795.795 0 0 1-.795-.795v-3.58a.796.796 0 0 1 .795-.795h4.776V2Z" fill="#0475C7"/></svg>