<svg width="298" height="36" viewBox="0 0 298 36" fill="none" xmlns="http://www.w3.org/2000/svg"><g clip-path="url(#a)" fill="#BE11A5"><path d="M9.075 35.368 0 .821h6.01L13 27.347 20.48.821h5.58l7.48 26.653L40.53.82h5.948l-9.075 34.547h-6.928L23.177 9.6l-7.236 25.768H9.075ZM50.648.821h5.702v34.547h-5.702V.821ZM68.43 29.937h13.796v5.431H62.85V.884h5.58v29.053ZM99.763.884c4.353-.126 8.584 1.706 11.588 4.99 6.193 6.884 6.193 17.62 0 24.505-3.004 3.284-7.235 5.116-11.588 4.99H86.395V.883h13.368Zm0 29.053c3.188 0 5.825-1.137 7.787-3.348 2.085-2.273 3.188-5.368 3.066-8.463.122-3.158-.981-6.19-3.066-8.463-2.024-2.21-4.844-3.473-7.787-3.347h-7.788v23.62h7.788Zm46.171-4.421c.061 2.652-1.042 5.242-2.943 7.01a10.025 10.025 0 0 1-7.236 2.842h-14.532V.884h13.49c2.575-.063 5.089.948 7.052 2.716 1.9 1.705 2.943 4.232 2.881 6.821.123 2.779-1.226 5.432-3.433 7.01 2.943 1.516 4.782 4.674 4.721 8.085ZM126.803 6.189v9.095h7.91c2.453 0 4.415-2.02 4.415-4.547 0-2.527-1.962-4.548-4.415-4.548h-7.91ZM135.755 30c2.576-.126 4.599-2.337 4.477-4.99-.062-2.526-2.085-4.547-4.477-4.61h-8.952v9.663l8.952-.063Zm21.094-.063h15.022v5.431h-20.602V.884h20.357v5.432h-14.777v8.968h13.612v5.369h-13.612v9.284Zm39.365 5.431L188.979 22.8h-6.561v12.568h-5.58V.821h13.612c2.882-.063 5.703 1.137 7.726 3.284 2.085 2.021 3.25 4.863 3.189 7.832-.062 4.42-2.698 8.4-6.745 9.979l7.726 13.452h-6.132ZM182.418 6.19v11.558h7.971c3.066-.126 5.457-2.842 5.334-6.063-.122-2.968-2.452-5.368-5.334-5.495h-7.971Zm43.535 29.178L218.779 22.8h-6.561v12.568h-5.58V.821h13.612c2.882-.063 5.703 1.137 7.726 3.284 2.085 2.021 3.25 4.863 3.189 7.832-.062 4.42-2.698 8.4-6.745 9.979l7.726 13.452h-6.193ZM212.218 6.19v11.558h7.971c3.127-.19 5.457-2.905 5.273-6.126-.184-2.905-2.452-5.305-5.273-5.432h-7.971ZM236.193.821h5.579v34.547h-5.579V.821Zm17.72 29.116h15.023v5.431h-20.603V.884h20.357v5.432h-14.777v8.968h13.612v5.369h-13.612v9.284Zm18.947-2.4 4.844-2.842c1.349 3.915 4.17 5.81 8.401 5.81 4.23 0 6.315-1.831 6.315-4.547.062-1.263-.613-2.526-1.717-3.158-1.103-.758-3.127-1.579-6.009-2.463-3.25-1.01-4.844-1.642-7.112-3.158-2.269-1.516-3.312-3.853-3.312-6.947-.122-2.78 1.104-5.495 3.189-7.264 2.146-1.831 4.905-2.779 7.726-2.715 5.089-.19 9.749 2.842 11.834 7.579l-4.66 2.715c-1.41-3.158-3.802-4.8-7.113-4.8-3.311 0-5.334 1.642-5.334 4.295s1.655 3.726 6.867 5.369c1.288.442 2.207.757 2.821 1.01.613.253 1.471.569 2.514 1.01.858.316 1.716.822 2.452 1.39 1.778 1.453 3.741 3.79 3.495 7.074a9.12 9.12 0 0 1-3.311 7.452c-2.207 1.832-5.089 2.716-8.707 2.716-6.683-.063-11.466-3.284-13.183-8.526Z"/></g><defs><clipPath id="a"><path fill="#fff" d="M0 0h298v36H0z"/></clipPath></defs></svg>