<svg width="24" height="24" viewBox="0 0 24 24" fill="none" xmlns="http://www.w3.org/2000/svg"><path d="M18.871 11.374c0-1.272-.457-2.153-.849-2.838l-.12-.195c-.475-.765-.89-1.437-.89-2.22 0-.945.716-1.827 1.727-1.827.03 0 .059.003.087.004l.047.005A10.257 10.257 0 0 0 11.922 1.6 10.282 10.282 0 0 0 3.32 6.24c.24.007.47.013.663.013 1.075 0 2.742-.13 2.742-.13.555-.034.62.781.066.847 0 0-.557.066-1.178.097l3.75 11.151 2.25-6.758-1.605-4.394a19.647 19.647 0 0 1-1.078-.098c-.555-.033-.49-.882.064-.849 0 0 1.701.131 2.712.131 1.077 0 2.745-.13 2.745-.13.555-.034.62.782.065.848 0 0-.558.065-1.178.098l3.72 11.066 1.026-3.431.081-.26c.405-1.29.704-2.242.704-3.069l.001.002Zm-17.244.52a10.296 10.296 0 0 0 5.802 9.264L2.517 7.704a10.255 10.255 0 0 0-.89 4.192Z" fill="#626262"/><path d="m9.013 21.769 3.09-8.974 3.164 8.67c.02.049.045.096.073.14a10.28 10.28 0 0 1-6.327.164Zm11.94-14.814c.045.328.07.68.07 1.059 0 1.044-.194 2.219-.782 3.687l-3.144 9.09a10.29 10.29 0 0 0 3.858-13.836h-.002Z" fill="#626262"/><path fill-rule="evenodd" clip-rule="evenodd" d="M0 12C0 5.383 5.383 0 12 0c6.615 0 12 5.383 12 12 0 6.616-5.385 12-12 12-6.617 0-12-5.384-12-12Zm.55 0c0 6.314 5.136 11.45 11.45 11.45 6.312 0 11.448-5.136 11.448-11.45C23.448 5.685 18.312.55 12 .55 5.685.55.55 5.685.55 12Z" fill="#626262"/></svg>