<svg width="1908" height="612" viewBox="0 0 1908 612" fill="none" xmlns="http://www.w3.org/2000/svg"><g clip-path="url(#a)"><path d="M99.2 71.264c-19.576 28.828-53.234 19.5-74.766 7.27-4.01-2.279-10.92 1.369-11.75 5.905-1.508 8.26-3.593 15.189 1.835 12.32 14.255-7.535 68.139 11.311 55.875 21.329-12.263 10.018 9.099 17.303 18.126 38.479 9.027 21.175 69.624-39.464 36.79-56.464-26.268-13.6-6.989-32.38 5.933-40.071 18.725-15.785 52.06-40.496 35.603-13.053-16.456 27.442 4.748 27.624 17.406 24.285 10.945-3.44 33.784-19.246 37.582-54.946 4.747-44.624-93.36 11.84-122.633 54.946Z" fill="#E9E7B6"/><path d="m173.533 148.057 31.52-4.59c6.632-.966 16.608-1.508 16.94 5.186.321 6.453-11.044 14.39-34.738 13.065-33.899-1.896-12.807 27.301-20.716 56.877-7.91 29.576-32.016 9.48-50.849-6.825s-51.979-4.55-91.151 23.509C-6.8 257.727-1.576 225.926 4.953 207.22c7.533-33.621 34.125-88.35 80.228-38.298 36.453 39.577 56.47 22.019 65.3-.373 4.03-10.221 12.181-18.909 23.052-20.492Z" fill="#FAE6D6"/><path d="M96.33 359.908c47.198 7.495 23.12 37.843-25.03 79.783-9.658 2.325-28.32-.746-25.693-31.628 3.283-38.602-24.072 11.592-39.711-40.352-15.64-51.945 29.234-80.291 23.867-100.829-5.368-20.538 101.884-11.617 136.932-5.433 35.048 6.184 26.867 15.161 21.952 41.804-4.916 26.643-40.656-9.674-73.833-20.947-33.178-11.273-65.684 70.108-18.485 77.602Z" fill="#FAEBC8"/><path d="M40.25 440.558a33.653 33.653 0 0 1-1.867-5.232c-2.562-9.801-5.73-31.751-13.817-25.65-11.63 8.775-11.98 40.233 15.126 49.583 27.105 9.35 75.566 70.535 69.4 97.992-6.165 27.456-26.928-8.302-46.508-39.172-19.58-30.87-49.256-52.27-60.622-45.069-11.365 7.202-.641 42.294 44.51 92.305 45.153 50.011 88.368 20.703 96.72-18.881 8.351-39.585-5.173-23.528-39.046-69.73-33.873-46.203-54.209-14.507-63.897-36.146Z" fill="#FAD2D1"/></g><g clip-path="url(#b)"><path d="M1808.8 71.264c19.58 28.828 53.23 19.5 74.77 7.27 4.01-2.279 10.92 1.369 11.75 5.905 1.5 8.26 3.59 15.189-1.84 12.32-14.25-7.535-68.14 11.311-55.87 21.329 12.26 10.018-9.1 17.303-18.13 38.479-9.03 21.175-69.62-39.464-36.79-56.464 26.27-13.6 6.99-32.38-5.93-40.071-18.73-15.785-52.06-40.496-35.61-13.053 16.46 27.442-4.74 27.624-17.4 24.285-10.95-3.44-33.79-19.246-37.58-54.946-4.75-44.624 93.36 11.84 122.63 54.946Z" fill="#E9E7B6"/><path d="m1734.47 148.057-31.52-4.59c-6.64-.966-16.61-1.508-16.94 5.186-.32 6.453 11.04 14.39 34.74 13.065 33.89-1.896 12.8 27.301 20.71 56.877 7.91 29.576 32.02 9.48 50.85-6.825s51.98-4.55 91.15 23.509c31.34 22.448 26.12-9.353 19.59-28.059-7.54-33.621-34.13-88.35-80.23-38.298-36.45 39.577-56.47 22.019-65.3-.373-4.03-10.221-12.18-18.909-23.05-20.492Z" fill="#FAE6D6"/><path d="M1811.67 359.908c-47.2 7.495-23.12 37.843 25.03 79.783 9.66 2.325 28.32-.746 25.69-31.628-3.28-38.602 24.07 11.592 39.71-40.352 15.64-51.945-29.23-80.291-23.86-100.829 5.36-20.538-101.89-11.617-136.94-5.433-35.04 6.184-26.86 15.161-21.95 41.804 4.92 26.643 40.66-9.674 73.84-20.947 33.17-11.273 65.68 70.108 18.48 77.602Z" fill="#FAEBC8"/><path d="M1867.75 440.558a34.047 34.047 0 0 0 1.87-5.232c2.56-9.801 5.73-31.751 13.81-25.65 11.64 8.775 11.98 40.233-15.12 49.583-27.11 9.35-75.57 70.535-69.4 97.992 6.16 27.456 26.93-8.302 46.51-39.172 19.58-30.87 49.25-52.27 60.62-45.069 11.36 7.202.64 42.294-44.51 92.305-45.15 50.011-88.37 20.703-96.72-18.881-8.35-39.585 5.17-23.528 39.04-69.73 33.88-46.203 54.21-14.507 63.9-36.146Z" fill="#FAD2D1"/></g><defs><clipPath id="a"><path fill="#fff" d="M0 0h222v612H0z"/></clipPath><clipPath id="b"><path fill="#fff" transform="translate(1686)" d="M0 0h222v612H0z"/></clipPath></defs></svg>