<svg width="33" height="28" viewBox="0 0 33 28" fill="none" xmlns="http://www.w3.org/2000/svg">
<path d="M29.8114 8.23958C29.5868 8.9135 29.1375 9.9996 28.613 11.1231C28.9126 11.9096 28.9126 12.8831 28.3133 14.0066C28.1637 14.2689 28.0137 14.5308 27.7891 14.8304C27.2648 15.542 26.5907 16.2909 25.8044 17.1147C25.767 17.1897 25.6921 17.227 25.6547 17.302C25.4674 17.4893 25.1678 17.5643 24.9432 17.4143C24.6435 17.227 24.6062 16.8151 24.8308 16.5905C24.9058 16.5155 24.9432 16.4782 25.0181 16.4032C25.9917 15.3174 26.9279 14.3062 27.3398 13.5197C28.0887 12.0592 27.602 11.1231 26.8905 10.7111C26.3289 10.3742 25.505 10.3742 25.0555 11.0108C24.4189 11.9469 23.5578 12.9581 22.6963 13.8943C21.7227 14.9801 20.7489 16.1785 20.1873 17.1147C19.5507 18.1633 18.7642 20.5972 18.6145 23.1811C18.5396 24.4543 18.5022 25.8773 18.4648 26.7762C18.4648 27.2255 18.8018 27.6 19.2514 27.6H24.3442C24.7935 27.6 25.1307 27.2631 25.1307 26.8135V25.3531C25.1307 25.0161 25.2804 24.6791 25.58 24.4918C27.3774 23.2561 29.1001 21.7207 30.0363 20.6348C32.096 18.2008 32.8822 11.0483 32.9945 8.91378C33.1442 6.74184 30.4106 6.21758 29.8113 8.2396L29.8114 8.23958Z" fill="white"/>
<path d="M12.848 17.0772C12.2864 16.1411 11.3126 14.9803 10.339 13.8568C9.47779 12.8832 8.6163 11.9094 7.97976 10.9733C7.53048 10.2994 6.744 10.2994 6.14478 10.6737C5.43322 11.0856 4.94633 12.0591 5.69549 13.4822C6.10743 14.2687 7.04359 15.2796 8.01716 16.3657C8.09212 16.4407 8.12948 16.478 8.20445 16.553C8.42909 16.8153 8.39174 17.1896 8.09212 17.3768C7.86748 17.5265 7.56788 17.4518 7.38056 17.2645C7.34321 17.1895 7.26824 17.1522 7.23088 17.0772C6.48201 16.2534 5.77044 15.4671 5.24618 14.7929C5.02154 14.4933 4.8716 14.2313 4.72193 13.9691C4.16033 12.8456 4.12272 11.8721 4.42232 11.0856C3.89807 9.96211 3.44876 8.91366 3.22387 8.20209C2.5873 6.21739 -0.108932 6.70433 0.00341021 8.83866C0.115732 10.9733 0.86463 18.1256 2.96161 20.5597C3.89779 21.6831 5.6205 23.1809 7.4179 24.4167C7.71751 24.604 7.86719 24.941 7.86719 25.2779V26.7384C7.86719 27.1877 8.20415 27.5249 8.65371 27.5249H13.7465C14.1958 27.5249 14.5331 27.1503 14.5331 26.7011C14.4957 25.8398 14.4581 24.3794 14.3834 23.106C14.2708 20.5973 13.4846 18.1257 12.848 17.0773L12.848 17.0772Z" fill="white"/>
<path d="M17.3706 11.2899C17.3706 12.7287 16.2041 13.8952 14.7652 13.8952C13.3264 13.8952 12.1599 12.7287 12.1599 11.2899C12.1599 9.85101 13.3264 8.68457 14.7652 8.68457C16.2041 8.68457 17.3706 9.85101 17.3706 11.2899Z" fill="white"/>
<circle cx="19.1063" cy="3.47374" r="3.47374" fill="white"/>
</svg>
