<svg width="24" height="25" viewBox="0 0 24 25" fill="none" xmlns="http://www.w3.org/2000/svg">
<path d="M23.9104 12.4307L20.3212 5.35364C20.1948 5.10082 19.9674 4.9492 19.6893 4.92399L14.8365 4.9492C14.6091 4.26673 14.1288 3.68544 13.4718 3.33159V2.39646C13.4718 1.58757 12.8146 0.905273 11.9806 0.905273C11.1465 0.905273 10.4894 1.56238 10.4894 2.39646V3.33159C9.85751 3.68543 9.37723 4.26673 9.1498 4.9492L4.29699 4.92399C4.04416 4.9492 3.79153 5.101 3.66511 5.35364L0.101095 12.4307C7.18069e-05 12.6329 -0.0253162 12.8855 0.0252836 13.1131C0.631931 15.312 2.32536 16.7274 4.34741 16.7274C6.36947 16.7274 8.06285 15.312 8.66955 13.1131C8.72014 12.8857 8.69476 12.6583 8.59373 12.4307L5.81338 6.9207L9.14979 6.94591C9.40261 7.62838 9.85749 8.18443 10.4894 8.53828V18.0164C10.4894 19.7857 9.14979 21.2768 7.38057 21.4539L4.67605 21.7571C4.3728 21.7823 4.14518 22.0603 4.14518 22.3637V23.7285C4.14518 24.0571 4.42322 24.3352 4.75183 24.3352H19.3103C19.6389 24.3352 19.9169 24.0571 19.9169 23.7285V22.3637C19.9169 22.0605 19.6895 21.8077 19.3861 21.7571L16.5805 21.4539C14.8113 21.2516 13.4717 19.7857 13.4717 18.0164V8.53828C14.1036 8.18444 14.5585 7.62838 14.8113 6.94591L18.1477 6.9207L15.3674 12.4307C15.2663 12.6329 15.241 12.8855 15.2916 13.1131C15.8982 15.312 17.5916 16.7274 19.6137 16.7274C21.6357 16.7274 23.3291 15.312 23.9358 13.1131C24.0367 12.8857 24.0115 12.6583 23.9104 12.4307H23.9104ZM6.6728 11.4703H2.04746L4.37277 6.89556L6.6728 11.4703ZM17.3389 11.4703L19.6642 6.89556L21.9895 11.4703H17.3389Z" fill="white"/>
</svg>
