<svg width="21" height="25" viewBox="0 0 21 25" fill="none" xmlns="http://www.w3.org/2000/svg">
<path d="M10.3141 13.4912C10.6526 13.4912 10.9525 13.7092 11.0572 14.0311L11.2326 14.5709H11.8001C12.1386 14.5709 12.4385 14.7888 12.5432 15.1108C12.6478 15.4327 12.5332 15.7853 12.2594 15.9842L11.8001 16.3179L11.9755 16.8576C12.0802 17.1797 11.9656 17.5321 11.6918 17.7311C11.418 17.93 11.0473 17.93 10.7733 17.7311L10.3142 17.3975L9.85502 17.7311C9.58106 17.93 9.21034 17.93 8.93654 17.7311C8.66276 17.5321 8.54818 17.1796 8.65281 16.8576L8.82825 16.3179L8.36892 15.9842C8.09513 15.7853 7.98056 15.4327 8.08519 15.1108C8.18982 14.7889 8.48977 14.5709 8.82827 14.5709H9.39572L9.57116 14.0311C9.67579 13.7092 9.97573 13.4912 10.3142 13.4912H10.3141Z" fill="white"/>
<path fill-rule="evenodd" clip-rule="evenodd" d="M3.90625 0C1.74893 0 0 1.74893 0 3.90625V22.6562C0 23.9507 1.04929 25 2.34375 25H17.9688C19.2632 25 20.3125 23.9507 20.3125 22.6562V7.03125C20.3125 6.59982 19.9627 6.25 19.5312 6.25H3.90625C2.61179 6.25 1.5625 5.20071 1.5625 3.90625C1.5625 2.61179 2.61179 1.5625 3.90625 1.5625H19.5312C19.9627 1.5625 20.3125 1.21268 20.3125 0.78125C20.3125 0.349817 19.9627 0 19.5312 0H3.90625ZM9.4058 10.6812C9.9858 10.4378 10.6394 10.4378 11.2194 10.6812L14.4492 12.0364C14.8777 12.2162 15.1564 12.6352 15.1564 13.1V15.0653C15.1564 17.8936 13.3212 20.3952 10.6229 21.2443C10.4208 21.3079 10.2042 21.3079 10.0021 21.2443C7.30397 20.3954 5.46862 17.8938 5.46862 15.0653V13.1C5.46862 12.6352 5.74746 12.2162 6.17576 12.0364L9.4058 10.6812Z" fill="white"/>
<path d="M7.8125 3.90625C7.8125 3.47482 8.16232 3.125 8.59375 3.125H19.5312C19.9627 3.125 20.3125 3.47482 20.3125 3.90625C20.3125 4.33768 19.9627 4.6875 19.5312 4.6875H8.59375C8.16232 4.6875 7.8125 4.33768 7.8125 3.90625Z" fill="white"/>
</svg>
