<svg width="30" height="28" viewBox="0 0 30 28" fill="none" xmlns="http://www.w3.org/2000/svg">
<path d="M28.6023 12.974C28.6023 14.3032 27.5247 15.3806 26.1957 15.3806C24.8665 15.3806 23.7891 14.3032 23.7891 12.974C23.7891 11.6448 24.8665 10.5674 26.1957 10.5674C27.5247 10.5674 28.6023 11.6448 28.6023 12.974Z" fill="white"/>
<path d="M29.1566 17.1388C28.8172 16.4908 28.1384 16.0898 27.3978 16.0898H24.9912C24.2507 16.0898 23.5411 16.491 23.2324 17.1388C23.1399 17.3239 23.0781 17.54 23.0781 17.7559L23.2632 21.6434C23.294 22.1061 23.6644 22.4765 24.1271 22.4765H24.2197L24.9293 27.2589C24.96 27.6909 25.3304 27.9995 25.7314 27.9995H26.6261C27.058 27.9995 27.3974 27.6909 27.4282 27.2589L28.1378 22.4765H28.2303C28.6931 22.4765 29.0635 22.1063 29.0943 21.6434L29.2794 17.7559C29.311 17.5398 29.2492 17.3239 29.1567 17.1388H29.1566Z" fill="white"/>
<path d="M7.22086 6.89552L6.54207 6.86475H2.53099L1.85221 6.89552C0.772205 6.95729 -0.0298891 7.88296 0.000854692 8.96274L0.371036 15.2878C0.432805 16.09 1.08062 16.738 1.91374 16.738H2.00628L2.65433 26.5495C2.6851 27.4752 3.24061 27.9689 3.85763 27.9689H5.1227C5.77075 27.9689 6.29521 27.4752 6.32601 26.5495L6.97405 16.738H7.0666C7.86875 16.738 8.54754 16.0899 8.6093 15.2878L8.97948 8.96274C9.13401 7.88296 8.30091 6.95734 7.22091 6.89552H7.22086Z" fill="white"/>
<path d="M7.25073 3.43982C7.25073 4.93927 6.03497 6.15503 4.53552 6.15503C3.03585 6.15503 1.82031 4.93927 1.82031 3.43982C1.82031 1.94015 3.03585 0.724609 4.53552 0.724609C6.03497 0.724609 7.25073 1.94015 7.25073 3.43982Z" fill="white"/>
<path d="M18.3914 3.43982C18.3914 4.93927 17.1756 6.15503 15.6761 6.15503C14.1765 6.15503 12.9609 4.93927 12.9609 3.43982C12.9609 1.94015 14.1765 0.724609 15.6761 0.724609C17.1756 0.724609 18.3914 1.94015 18.3914 3.43982Z" fill="white"/>
<path d="M19.3773 16.4295H19.4699C20.0561 16.4295 20.488 15.905 20.3955 15.3495L18.7603 8.00627C18.6677 7.41999 18.174 6.92627 17.5878 6.92627L13.731 6.9267C13.1758 6.9267 12.651 7.42041 12.5585 8.0067L10.9232 15.35C10.8307 15.9052 11.2626 16.43 11.8489 16.43H11.9415L10.337 20.0399C10.0594 20.6879 10.4295 21.0273 10.954 21.0581L13.6692 21.1198L14.1012 26.797C14.132 27.445 14.6875 27.9385 15.3045 27.9385H16.0141C16.6621 27.9385 17.1866 27.4448 17.2174 26.797L17.6493 21.1198L20.3645 21.0581C20.8582 21.0581 21.2902 20.6879 20.9816 20.0399L19.3773 16.4295Z" fill="white"/>
</svg>
