<svg width="24" height="21" viewBox="0 0 24 21" fill="none" xmlns="http://www.w3.org/2000/svg">
<path fill-rule="evenodd" clip-rule="evenodd" d="M22.72 4.22223H17.2117C17.0704 1.85873 15.104 0 12.7201 0H11.2657C8.87521 0 6.9022 1.86535 6.76752 4.22223H5.10419C5.10419 4.22223 1.98957 4.22223 1.26591 4.22223C0.54225 4.22223 0 5.10843 0 5.48822C0 5.86801 0 11.0978 0 11.0978V19.4818C0 20.1753 0.558857 20.7477 1.26591 20.7477H22.7338C23.4273 20.7477 23.9997 20.1819 23.9997 19.4818L24 5.48822C23.9865 4.79468 23.4202 4.22223 22.72 4.22223ZM15.3262 11.2186H21.4607L21.461 6.74751H2.5182V9.83159L2.5185 11.2186H8.65303V10.0402C8.65303 9.34009 9.21848 8.77432 9.91894 8.77432H14.0603C14.7604 8.77432 15.3262 9.34669 15.3262 10.0402V11.2186ZM11.1851 14.5654H12.8012V11.2998H11.1851V14.5654ZM12.72 2.52497H11.2657C10.2691 2.52497 9.43423 3.2657 9.29264 4.222H14.6864C14.5448 3.2657 13.7166 2.52497 12.72 2.52497Z" fill="white"/>
</svg>
