<svg width="28" height="26" viewBox="0 0 28 26" fill="none" xmlns="http://www.w3.org/2000/svg">
<path fill-rule="evenodd" clip-rule="evenodd" d="M26.9033 11.1541C26.689 10.9398 26.4345 10.7699 26.1544 10.654C25.8744 10.5381 25.5742 10.4785 25.2711 10.4787H22.6157L25.3921 5.16386C25.3921 5.16386 26.0186 3.93745 26.1013 3.33184C26.1963 2.64693 26.0459 1.95051 25.6768 1.3658C25.3077 0.781084 24.7437 0.345772 24.0845 0.136881C23.4254 -0.0720101 22.7136 -0.0410137 22.0751 0.224386C21.4366 0.489785 20.9125 0.972479 20.5957 1.58706L15.9686 10.4843C15.9366 10.4809 15.9045 10.4792 15.8718 10.4792H2.30479C2.00215 10.4792 1.70246 10.5387 1.42283 10.6545C1.1432 10.7702 0.88912 10.94 0.675093 11.1539C0.461065 11.3679 0.291287 11.6219 0.175453 11.9015C0.0596195 12.1811 6.86339e-08 12.4808 6.86339e-08 12.7835V22.9482C-7.38068e-05 23.2509 0.059491 23.5506 0.175292 23.8303C0.291092 24.11 0.460859 24.3641 0.674894 24.5781C0.888928 24.7921 1.14304 24.9619 1.4227 25.0777C1.70236 25.1935 2.0021 25.2531 2.30479 25.253H25.2711C25.574 25.2534 25.8741 25.1941 26.1541 25.0785C26.4341 24.9629 26.6885 24.7932 26.9028 24.5791C27.1172 24.365 27.2872 24.1108 27.4032 23.8309C27.5191 23.5511 27.5788 23.2511 27.5787 22.9482V12.7835C27.5782 12.1723 27.3353 11.5863 26.9033 11.1541ZM22.3388 2.48647C22.463 2.25584 22.6723 2.08284 22.9222 2.00434C23.1721 1.92583 23.4428 1.94802 23.6766 2.06619C23.9103 2.18436 24.0887 2.38916 24.1737 2.63693C24.2586 2.88471 24.2435 3.15587 24.1314 3.39263L18.4192 14.5108L16.863 15.3776L16.666 13.6148L22.3388 2.48647ZM4.90779 16.8105H11.7C11.871 16.8102 12.0388 16.7647 12.1864 16.6784C12.334 16.5922 12.4561 16.4685 12.5403 16.3197C12.6255 16.1696 12.6703 15.9999 12.6703 15.8272C12.6703 15.6546 12.6255 15.4849 12.5403 15.3348C12.4563 15.1857 12.3343 15.0616 12.1867 14.9751C12.0391 14.8886 11.8711 14.8427 11.7 14.8423H4.90779C4.73669 14.8427 4.56877 14.8886 4.42115 14.9751C4.27353 15.0616 4.1515 15.1857 4.06749 15.3348C3.98229 15.4849 3.9375 15.6546 3.9375 15.8272C3.9375 15.9999 3.98229 16.1696 4.06749 16.3197C4.15171 16.4685 4.27384 16.5922 4.42145 16.6784C4.56905 16.7647 4.73686 16.8102 4.90779 16.8105ZM4.92245 19.1464H20.6817C20.943 19.1464 21.1935 19.2501 21.3782 19.4348C21.5629 19.6196 21.6667 19.8701 21.6667 20.1313C21.6667 20.3925 21.5629 20.6431 21.3782 20.8278C21.1935 21.0125 20.943 21.1163 20.6817 21.1163H4.92245C4.66123 21.1163 4.4107 21.0125 4.22599 20.8278C4.04127 20.6431 3.9375 20.3925 3.9375 20.1313C3.9375 19.8701 4.04127 19.6196 4.22599 19.4348C4.4107 19.2501 4.66123 19.1464 4.92245 19.1464Z" fill="white"/>
</svg>
