<svg width="25" height="25" viewBox="0 0 25 25" fill="none" xmlns="http://www.w3.org/2000/svg">
<path d="M24.0333 2.92084C23.6884 2.32349 23.1924 1.82743 22.595 1.48254C21.9977 1.13765 21.32 0.956072 20.6303 0.956055H6.01225C5.22269 0.955981 4.44085 1.11144 3.71138 1.41356C2.9819 1.71568 2.31909 2.15853 1.76078 2.71684C1.20248 3.27514 0.759623 3.93796 0.457505 4.66743C0.155387 5.3969 -7.3706e-05 6.17875 2.6215e-08 6.96831V24.0721C2.6215e-08 24.3182 0.097765 24.5542 0.271788 24.7282C0.445811 24.9022 0.681836 25 0.927942 25H12.7728C14.3452 24.9692 15.8429 24.3235 16.9448 23.2013C18.0467 22.0792 18.665 20.57 18.6672 18.9973V4.88563C18.6672 4.49732 18.7822 4.11772 18.9978 3.79476C19.2134 3.4718 19.5199 3.21996 19.8785 3.07106C20.2372 2.92215 20.6319 2.88285 21.0128 2.95812C21.3938 3.03338 21.7439 3.21984 22.0189 3.49395C22.2939 3.76806 22.4816 4.11752 22.5582 4.49821C22.6347 4.87889 22.5968 5.27373 22.4491 5.63287C22.3014 5.992 22.0507 6.29932 21.7284 6.51602C21.4062 6.73272 21.027 6.84909 20.6387 6.85042C20.4782 6.85043 20.3202 6.88923 20.178 6.96352C20.0357 7.0378 19.9136 7.14537 19.8219 7.27706C19.7136 7.43499 19.6537 7.62114 19.6497 7.81262C19.6458 8.0041 19.6978 8.19258 19.7995 8.35489C19.8944 8.50037 20.0251 8.61907 20.179 8.69966C20.3329 8.78025 20.5049 8.82003 20.6786 8.81521C21.3642 8.80679 22.0358 8.6191 22.6264 8.27077C23.2171 7.92245 23.7063 7.42562 24.0455 6.82965C24.3847 6.23369 24.5621 5.55934 24.5599 4.87362C24.5578 4.18789 24.3762 3.51467 24.0333 2.92084ZM14.5877 9.58372C14.5073 9.72311 14.3916 9.83888 14.2523 9.91939C14.1129 9.9999 13.9549 10.0423 13.7939 10.0424H4.62624C4.38311 10.0424 4.14994 9.94578 3.97802 9.77386C3.8061 9.60194 3.70952 9.36877 3.70952 9.12564C3.70952 8.88252 3.8061 8.64935 3.97802 8.47743C4.14994 8.30551 4.38311 8.20893 4.62624 8.20893H13.7939C13.9549 8.20892 14.113 8.25129 14.2524 8.33177C14.3918 8.41225 14.5075 8.52801 14.5879 8.66741C14.6684 8.80681 14.7107 8.96493 14.7107 9.12588C14.7107 9.28683 14.6682 9.44492 14.5877 9.58428V9.58372ZM14.5877 13.854C14.5073 13.9934 14.3916 14.1092 14.2523 14.1897C14.1129 14.2702 13.9549 14.3126 13.7939 14.3127H4.62624C4.38311 14.3127 4.14994 14.2161 3.97802 14.0442C3.8061 13.8723 3.70952 13.6391 3.70952 13.396C3.70952 13.1528 3.8061 12.9197 3.97802 12.7478C4.14994 12.5758 4.38311 12.4793 4.62624 12.4793H13.7939C13.9549 12.4792 14.113 12.5216 14.2524 12.6021C14.3918 12.6826 14.5075 12.7983 14.5879 12.9377C14.6684 13.0771 14.7107 13.2353 14.7107 13.3962C14.7107 13.5572 14.6682 13.7153 14.5877 13.8546V13.854ZM14.5877 18.2518C14.5073 18.3912 14.3916 18.507 14.2523 18.5875C14.1129 18.668 13.9549 18.7104 13.7939 18.7104H4.62624C4.38311 18.7104 4.14994 18.6139 3.97802 18.4419C3.8061 18.27 3.70952 18.0369 3.70952 17.7937C3.70952 17.5506 3.8061 17.3174 3.97802 17.1455C4.14994 16.9736 4.38311 16.877 4.62624 16.877H13.7939C13.9549 16.877 14.113 16.9194 14.2524 16.9999C14.3918 17.0803 14.5075 17.1961 14.5879 17.3355C14.6684 17.4749 14.7107 17.633 14.7107 17.794C14.7107 17.9549 14.6682 18.113 14.5877 18.2524V18.2518Z" fill="white"/>
</svg>
