<svg width="22" height="21" viewBox="0 0 22 21" fill="none" xmlns="http://www.w3.org/2000/svg">
<path d="M10.8745 5.08398L10.7935 5.1652L2.95703 13.0016V20.9999H8.76515V15.7805C8.76515 15.1621 9.26629 14.6607 9.88489 14.6607H11.8645C12.4829 14.6607 12.9842 15.1623 12.9842 15.7805V20.9999H18.7918V13.0016L10.9559 5.1652L10.8745 5.08398Z" fill="white"/>
<path d="M5.48551 2.38574C5.48551 1.79093 5.00338 1.30859 4.40877 1.30859C3.81411 1.30859 3.33203 1.79072 3.33203 2.38574V5.39634L5.48596 3.2424L5.48577 2.38569L5.48551 2.38574Z" fill="white"/>
<path d="M21.379 10.0021L14.5593 3.18239L11.9948 0.617674C11.9423 0.530517 11.8787 0.448517 11.8036 0.373443L11.8028 0.372849C11.5479 0.117523 11.2108 -0.00647387 10.876 0.000260184C10.5415 -0.00647437 10.2048 0.117523 9.94924 0.372849L9.94865 0.373443C9.87338 0.448715 9.80979 0.53072 9.75731 0.617674L2.95886 7.41613L0.372736 10.0018C-0.124245 10.499 -0.124245 11.305 0.372736 11.8022L0.373528 11.8028C0.870707 12.3 1.67668 12.3 2.17387 11.8028L2.95868 11.0182L10.7951 3.18172L10.8761 3.10051L10.9574 3.18172L18.7933 11.0182L19.5785 11.8028C20.0756 12.3 20.8816 12.3 21.3788 11.8028L21.3794 11.8022C21.8766 11.3054 21.8766 10.4996 21.379 10.002L21.379 10.0021Z" fill="white"/>
</svg>
