<svg width="18" height="27" viewBox="0 0 18 27" fill="none" xmlns="http://www.w3.org/2000/svg">
<path d="M11.3322 5.90592C10.7033 5.27718 9.87585 4.88592 8.99082 4.79878C8.10579 4.71164 7.21792 4.93402 6.47844 5.42803C5.73897 5.92204 5.19363 6.65714 4.9353 7.5081C4.67698 8.35907 4.72165 9.27327 5.06172 10.095C5.40178 10.9167 6.0162 11.5951 6.80032 12.0147C7.58444 12.4343 8.48976 12.569 9.36208 12.396C10.2344 12.223 11.0198 11.7529 11.5844 11.0658C12.149 10.3788 12.458 9.51719 12.4587 8.62788C12.4591 8.1224 12.3598 7.6218 12.1665 7.15473C11.9732 6.68766 11.6897 6.2633 11.3322 5.90592Z" fill="white"/>
<path d="M17.2186 8.62812C17.2217 7.22065 16.8796 5.8339 16.2224 4.58929C15.5652 3.34468 14.6129 2.28017 13.4489 1.48899C12.2848 0.697813 10.9445 0.204086 9.54542 0.0510471C8.1463 -0.101992 6.73099 0.0903256 5.42344 0.611158C4.11588 1.13199 2.95596 1.96545 2.04524 3.03856C1.13452 4.11167 0.500787 5.39169 0.199528 6.76654C-0.101731 8.14139 -0.0613252 9.56913 0.317208 10.9247C0.69574 12.2803 1.40086 13.5225 2.37081 14.5424C2.54637 14.7269 2.72835 14.9012 2.91545 15.0678C2.95006 15.0985 2.98209 15.1306 3.0167 15.1601C3.18458 15.3049 3.35886 15.4369 3.53571 15.5676C3.59979 15.6137 3.66387 15.665 3.72538 15.7098C3.86507 15.8072 4.00988 15.8931 4.15341 15.9802C4.26106 16.0456 4.36486 16.1148 4.47507 16.1763C4.58528 16.2378 4.66987 16.2724 4.76726 16.3211C4.92745 16.4019 5.08764 16.4852 5.25296 16.5556C5.29141 16.5723 5.33113 16.5838 5.36958 16.5992C7.45461 17.4528 9.79228 17.4492 11.8746 16.589C11.9028 16.5774 11.9336 16.5685 11.9618 16.5569C12.136 16.4826 12.3026 16.3967 12.4744 16.3122C12.5641 16.2673 12.6551 16.2276 12.7435 16.184C12.8601 16.1199 12.9703 16.0469 13.0831 15.9777C13.2202 15.8931 13.3599 15.8111 13.4932 15.7214C13.5637 15.6727 13.629 15.6188 13.6969 15.5689C13.8687 15.4407 14.0378 15.3126 14.2019 15.1729C14.2403 15.1396 14.2775 15.1037 14.3159 15.0704C14.4992 14.9076 14.6786 14.7372 14.849 14.5577C16.3717 12.9636 17.2217 10.8441 17.2224 8.63965L17.2186 8.62812ZM12.7525 12.77C11.7947 13.727 10.5348 14.3223 9.18742 14.4545C7.84001 14.5868 6.48842 14.2478 5.36289 13.4953C4.23736 12.7429 3.40751 11.6235 3.0147 10.3278C2.62189 9.0322 2.69043 7.64044 3.20862 6.38965C3.72682 5.13886 4.66262 4.10641 5.85663 3.46817C7.05064 2.82993 8.42899 2.62538 9.75689 2.88937C11.0848 3.15336 12.2801 3.86955 13.1392 4.91595C13.9983 5.96235 14.468 7.27423 14.4684 8.62812C14.4682 10.1816 13.8509 11.6715 12.7525 12.77Z" fill="white"/>
<path d="M14.4611 17.4786C14.2227 17.6375 13.9784 17.7862 13.728 17.9246L13.5845 18.0015C13.3282 18.139 13.0655 18.2672 12.7964 18.3859L12.7092 18.4244C12.0973 18.6817 11.4622 18.8799 10.8126 19.0165L10.6319 19.0511C10.3756 19.1006 10.1137 19.1408 9.84628 19.1715C9.76427 19.1805 9.68097 19.192 9.59895 19.1997C9.27216 19.2292 8.94409 19.2497 8.61217 19.2497C8.28026 19.2497 7.95219 19.2292 7.6254 19.1997C7.5421 19.192 7.46008 19.1818 7.37806 19.1715C7.11407 19.1408 6.85221 19.1006 6.59249 19.0511C6.53225 19.0395 6.47074 19.0293 6.41179 19.0165C5.7626 18.8798 5.12793 18.6816 4.51641 18.4244L4.4267 18.3847C4.16015 18.2693 3.89871 18.1412 3.64241 18.0002L3.49375 17.9207C3.24684 17.7832 3.00464 17.6358 2.76713 17.4786C2.73124 17.4556 2.69408 17.4338 2.6582 17.4094L2.61719 17.3838V26.4608L8.17005 23.7376C8.30762 23.67 8.45887 23.6348 8.61217 23.6348C8.76547 23.6348 8.91673 23.67 9.0543 23.7376L14.611 26.4634V17.3864L14.5687 17.4133C14.5303 17.4312 14.4944 17.4556 14.4611 17.4786Z" fill="white"/>
</svg>
