<svg width="24" height="24" viewBox="0 0 24 24" fill="none" xmlns="http://www.w3.org/2000/svg">
<g clip-path="url(#clip0_303_4830)">
<path d="M24 12C24 18.6274 18.6274 24 12 24C5.37262 24 0 18.6274 0 12C0 12.0028 12 0.00135937 12 0C18.6274 0 24 5.37262 24 12Z" fill="#0052B4"/>
<path d="M11.9679 12H12C12 11.9891 12 11.9787 12 11.9679C11.9893 11.9786 11.9786 11.9893 11.9679 12Z" fill="#F0F0F0"/>
<path d="M12 6.26086C12 4.14937 12 2.76577 12 0H11.998C5.3715 0.00107812 0 5.37319 0 12H6.26086V8.47439L9.78642 12H11.9679C11.9787 11.9893 11.9894 11.9786 12 11.9678C12 11.1594 12 10.438 12 9.78647L8.47444 6.26086H12Z" fill="#F0F0F0"/>
<path d="M6.071 1.56519C4.19417 2.63389 2.63389 4.19417 1.56519 6.071V12H4.69564V4.69569V4.69564H12C12 3.70831 12 2.76772 12 1.56519H6.071Z" fill="#D80027"/>
<path d="M12 10.5243L7.73654 6.26089H6.26086C6.26086 6.26084 6.26086 6.26089 6.26086 6.26089L11.9999 11.9999H12C12 11.9999 12 10.9825 12 10.5243Z" fill="#D80027"/>
<path d="M7.23729 14.0869L7.89588 15.464L9.38309 15.1203L8.71709 16.4938L9.91305 17.4422L8.42398 17.7779L8.42815 19.3043L7.23729 18.3493L6.04648 19.3043L6.05065 17.7779L4.56152 17.4422L5.75754 16.4938L5.09145 15.1203L6.57874 15.464L7.23729 14.0869Z" fill="#F0F0F0"/>
<path d="M17.9665 16.6958L18.2958 17.3843L19.0394 17.2125L18.7064 17.8992L19.3044 18.3735L18.5599 18.5413L18.5619 19.3045L17.9665 18.827L17.3711 19.3045L17.3732 18.5413L16.6287 18.3735L17.2266 17.8992L16.8936 17.2125L17.6372 17.3843L17.9665 16.6958Z" fill="#F0F0F0"/>
<path d="M14.9031 9.39136L15.2323 10.08L15.976 9.90801L15.643 10.5948L16.241 11.069L15.4964 11.2368L15.4985 12L14.9031 11.5225L14.3077 12L14.3097 11.2368L13.5652 11.069L14.1632 10.5948L13.8302 9.90801L14.5738 10.08L14.9031 9.39136Z" fill="#F0F0F0"/>
<path d="M17.9665 5.21741L18.2958 5.906L19.0394 5.73411L18.7064 6.42088L19.3044 6.89506L18.5599 7.06292L18.5619 7.82614L17.9665 7.34863L17.3711 7.82614L17.3732 7.06292L16.6287 6.89506L17.2266 6.42088L16.8936 5.73411L17.6372 5.906L17.9665 5.21741Z" fill="#F0F0F0"/>
<path d="M20.6422 8.3479L20.9715 9.03649L21.7151 8.86456L21.3821 9.55132L21.9801 10.0256L21.2355 10.1934L21.2376 10.9566L20.6422 10.4791L20.0468 10.9566L20.0488 10.1934L19.3043 10.0256L19.9023 9.55132L19.5693 8.86456L20.3129 9.03649L20.6422 8.3479Z" fill="#F0F0F0"/>
<path d="M18.7289 12L18.9879 12.7972H19.8261L19.148 13.2899L19.4071 14.087L18.7289 13.5943L18.0508 14.087L18.3098 13.2899L17.6317 12.7972H18.4699L18.7289 12Z" fill="#F0F0F0"/>
</g>
<defs>
<clipPath id="clip0_303_4830">
<rect width="24" height="24" fill="white"/>
</clipPath>
</defs>
</svg>
