<svg width="40" height="40" viewBox="0 0 40 40" fill="none" xmlns="http://www.w3.org/2000/svg"><rect width="40" height="40" rx="20" fill="url(#a)"/><path d="M12.976 9.196c.734.2 1.469.334 2.203.534.735.2 1.47.334 2.204.534.2.067.267 0 .334-.2.267-1.135.534-2.204.8-3.339.067-.2.134-.267.335-.2.667.2 1.268.334 1.936.467.2.067.2.134.134.268-.268 1.068-.535 2.203-.802 3.271 0 .067 0 .134-.067.267.535.134 1.136.268 1.67.401.067 0 .133-.133.2-.2.2-.868.4-1.67.668-2.538l.2-.8c0-.134.067-.201.2-.134.668.2 1.336.333 2.07.534.067 0 .067.067.134.067-.2.868-.4 1.669-.601 2.47-.067.334-.134.668-.267 1.002-.067.2 0 .267.2.334l2.204 1.001c.667.4 1.268.935 1.736 1.603.6 1.001.667 2.07.4 3.138-.2.734-.467 1.402-1.001 1.936-.401.4-.935.668-1.47.868-.066 0-.133.067-.266.067.267.2.534.334.8.534.802.601 1.336 1.335 1.603 2.27.134.735.067 1.536-.133 2.27-.267.935-.601 1.737-1.202 2.471-.735.868-1.67 1.335-2.738 1.469-1.402.2-2.737.067-4.073-.134-.2-.066-.334 0-.4.2-.267 1.07-.534 2.204-.802 3.273-.066.267-.066.333-.4.2-.601-.134-1.269-.334-1.87-.468-.2-.066-.2-.133-.133-.267.267-1.135.534-2.27.868-3.338 0-.134.067-.2-.067-.267a62.57 62.57 0 0 0-1.67-.4c-.133.6-.333 1.201-.467 1.802-.133.6-.334 1.202-.467 1.803-.067.133-.067.2-.267.133-.668-.2-1.336-.333-2.003-.467-.2-.067-.2-.134-.134-.267.267-1.135.534-2.27.868-3.339 0-.066.067-.133.067-.267-1.536-.4-3.072-.801-4.674-1.202.133-.267.2-.467.334-.734.267-.601.534-1.202.734-1.736.067-.2.134-.2.334-.2a11.6 11.6 0 0 0 1.47.333c.533.134.934-.133 1-.6.869-3.406 1.737-6.811 2.538-10.283.133-.534-.2-1.135-.801-1.336-.601-.2-1.202-.334-1.736-.467-.134 0-.2-.067-.134-.2.2-.735.4-1.536.601-2.27-.267.2-.267.2-.2.133Zm3.405 16.492c.067 0 .134.067.134.067 1.068.267 2.203.601 3.338.668.801.067 1.536.067 2.27-.2 1.269-.401 1.803-2.07 1.069-3.139-.334-.534-.868-.868-1.402-1.202-1.202-.667-2.605-.934-3.94-1.202-.2-.066-.2 0-.267.2-.134.669-.334 1.27-.467 1.937-.267.935-.468 1.87-.735 2.871Zm5.609-6.81c.133 0 .467-.067.734-.134 1.269-.267 1.937-1.736 1.269-2.871-.334-.601-.935-1.002-1.536-1.269-.935-.4-1.87-.6-2.87-.868-.201-.067-.268 0-.335.2a94.213 94.213 0 0 1-1.068 4.14c-.067.134 0 .2.133.267.267.067.468.134.735.2 1.002.134 1.87.335 2.938.335Z" fill="#fff"/><defs><linearGradient id="a" x1="20" y1="0" x2="20" y2="40" gradientUnits="userSpaceOnUse"><stop stop-color="#F5B300"/><stop offset="1" stop-color="#F58400" stop-opacity=".93"/></linearGradient></defs></svg>