<svg width="33" height="33" viewBox="0 0 33 33" fill="none" xmlns="http://www.w3.org/2000/svg">
<path d="M20.4292 17.7048H22.472V21.5494L25.7924 23.4665L24.7711 25.2355L20.4292 22.7287V17.7048ZM25.8758 10.8929H6.80972V25.8734H13.1741C12.5867 24.6358 12.258 23.2514 12.258 21.7904C12.258 16.5255 16.5261 12.2574 21.791 12.2574C23.2528 12.2574 24.6377 12.5864 25.8758 13.1744V10.8929ZM6.80966 28.5971C5.30344 28.5971 4.08594 27.3769 4.08594 25.8734L4.09957 6.80731C4.09957 5.30244 5.30344 4.08358 6.80966 4.08358H8.17153V1.35986H10.8953V4.08358H21.7902V1.35986H24.5139V4.08358H25.8758C27.3779 4.08358 28.5995 5.30244 28.5995 6.80731V15.1178C30.2848 16.8373 31.3241 19.1925 31.3241 21.7904C31.3241 27.0554 27.056 31.3235 21.791 31.3235C19.1922 31.3235 16.8363 30.2835 15.1167 28.5971H6.80966ZM21.791 15.1907C18.146 15.1907 15.1912 18.1455 15.1912 21.7904C15.1912 25.4354 18.146 28.3903 21.791 28.3903C25.436 28.3903 28.3909 25.4354 28.3909 21.7904C28.3909 18.1455 25.436 15.1907 21.791 15.1907Z" fill="black"/>
</svg>
