<svg width="23" height="24" viewBox="0 0 23 24" fill="none" xmlns="http://www.w3.org/2000/svg">
<path d="M13.8641 12.8594H15.2503V15.4683L17.5036 16.7693L16.8105 17.9698L13.8641 16.2687V12.8594ZM17.5602 8.23676H4.62182V18.4027H8.94075C8.5421 17.5628 8.31905 16.6234 8.31905 15.6319C8.31905 12.0591 11.2154 9.16271 14.7882 9.16271C15.7803 9.16271 16.72 9.38599 17.5602 9.78501V8.23676ZM4.62178 20.251C3.59965 20.251 2.77344 19.423 2.77344 18.4027L2.78269 5.46426C2.78269 4.44304 3.59965 3.61592 4.62178 3.61592H5.54595V1.76758H7.39429V3.61592H14.7877V1.76758H16.636V3.61592H17.5602C18.5796 3.61592 19.4085 4.44304 19.4085 5.46426V11.1038C20.5522 12.2707 21.2574 13.869 21.2574 15.6319C21.2574 19.2048 18.3611 22.1011 14.7882 22.1011C13.0247 22.1011 11.4259 21.3954 10.259 20.251H4.62178ZM14.7882 11.1533C12.3147 11.1533 10.3095 13.1585 10.3095 15.6319C10.3095 18.1055 12.3147 20.1106 14.7882 20.1106C17.2618 20.1106 19.267 18.1055 19.267 15.6319C19.267 13.1585 17.2618 11.1533 14.7882 11.1533Z" fill="white"/>
</svg>
