<svg width="12" height="9" viewBox="0 0 12 9" fill="none" xmlns="http://www.w3.org/2000/svg">
<path d="M11.1447 0.810022L4.23578 7.54873C4.18933 7.59422 4.13413 7.63031 4.07334 7.65494C4.01255 7.67957 3.94738 7.69225 3.88156 7.69225C3.81574 7.69225 3.75056 7.67957 3.68978 7.65494C3.62899 7.63031 3.57379 7.59422 3.52734 7.54873L0.855571 4.94015C0.80912 4.89466 0.753918 4.85857 0.693132 4.83394C0.632346 4.80931 0.567172 4.79663 0.501351 4.79663C0.43553 4.79663 0.370357 4.80931 0.309571 4.83394C0.248785 4.85857 0.193583 4.89466 0.147132 4.94015C0.100498 4.98546 0.0634945 5.03931 0.0382458 5.0986C0.0129972 5.15789 0 5.22146 0 5.28567C0 5.34987 0.0129972 5.41344 0.0382458 5.47274C0.0634945 5.53203 0.100498 5.58588 0.147132 5.63119L2.8199 8.23781C3.10185 8.51233 3.48394 8.6665 3.88231 8.6665C4.28068 8.6665 4.66277 8.51233 4.94472 8.23781L11.8531 1.50057C11.8997 1.45527 11.9366 1.40145 11.9618 1.34221C11.987 1.28296 12 1.21944 12 1.1553C12 1.09115 11.987 1.02763 11.9618 0.968386C11.9366 0.909138 11.8997 0.855323 11.8531 0.810022C11.8067 0.764533 11.7515 0.728439 11.6907 0.70381C11.6299 0.679182 11.5647 0.666504 11.4989 0.666504C11.4331 0.666504 11.3679 0.679182 11.3071 0.70381C11.2463 0.728439 11.1911 0.764533 11.1447 0.810022Z" fill="white"/>
</svg>
