<svg width="28" height="28" viewBox="0 0 28 28" fill="none" xmlns="http://www.w3.org/2000/svg">
<circle cx="14" cy="14" r="14" fill="#E7FAFF"/>
<circle cx="14" cy="14" r="10" fill="#C7F3FF"/>
<path d="M12.5 15.4L17.4 10.5C17.5834 10.3166 17.8167 10.225 18.1 10.225C18.3834 10.225 18.6167 10.3166 18.8 10.5C18.9834 10.6833 19.075 10.9166 19.075 11.2C19.075 11.4833 18.9834 11.7166 18.8 11.9L13.2 17.5C13 17.7 12.7667 17.8 12.5 17.8C12.2334 17.8 12 17.7 11.8 17.5L9.20005 14.9C9.01672 14.7166 8.92505 14.4833 8.92505 14.2C8.92505 13.9166 9.01672 13.6833 9.20005 13.5C9.38338 13.3166 9.61672 13.225 9.90005 13.225C10.1834 13.225 10.4167 13.3166 10.6 13.5L12.5 15.4Z" fill="#00738E"/>
</svg>
