<svg width="32" height="32" viewBox="0 0 32 32" fill="none" xmlns="http://www.w3.org/2000/svg">
<g clip-path="url(#clip0_169_1488)">
<path d="M16 32C24.8366 32 32 24.8366 32 16C32 7.16344 24.8366 0 16 0C7.16344 0 0 7.16344 0 16C0 24.8366 7.16344 32 16 32Z" fill="#2AA65E"/>
<path d="M19.4401 19.359C19.4401 16.073 10.4551 18.028 10.4551 12.704C10.4551 10.77 12.1811 9.106 14.8221 8.69V7.026H17.2141V8.648C19.1071 8.836 20.7081 9.584 21.7891 10.666L20.4171 12.454C19.1691 11.414 17.8381 10.936 16.0911 10.936C14.5521 10.936 13.0551 11.414 13.0551 12.641C13.0551 15.574 22.0391 13.827 22.0391 19.171C22.0391 21.521 19.9181 23.186 17.2141 23.435V25.224H14.8221V23.33C12.8051 22.977 11.0161 21.978 10.0391 20.814L11.5361 19.046C12.7841 20.356 14.6361 21.126 16.6731 21.126C18.4201 21.126 19.4391 20.46 19.4391 19.358L19.4401 19.359Z" fill="white"/>
</g>
<defs>
<clipPath id="clip0_169_1488">
<rect width="32" height="32" fill="white"/>
</clipPath>
</defs>
</svg>
