<svg width="32" height="32" viewBox="0 0 32 32" fill="none" xmlns="http://www.w3.org/2000/svg">
<path d="M16.0755 32C13.7801 32 11.6567 31.6018 9.70558 30.8053C7.75442 30.0231 6.05433 28.928 4.60531 27.52C3.15629 26.0978 2.02289 24.4267 1.20513 22.5067C0.401709 20.5867 0 18.496 0 16.2347C0 13.8311 0.394536 11.6409 1.18361 9.664C1.97268 7.67289 3.08455 5.95911 4.51923 4.52267C5.96825 3.072 7.68269 1.95556 9.66254 1.17333C11.6424 0.391112 13.8159 0 16.1831 0C18.8947 0 21.2619 0.433778 23.2848 1.30133C25.322 2.15467 27.0006 3.32089 28.3205 4.8C29.6404 6.26489 30.6016 7.91467 31.2042 9.74933C31.8211 11.584 32.0793 13.4827 31.9789 15.4453C31.8354 18.1333 31.1898 20.16 30.0421 21.5253C28.9087 22.8907 27.3234 23.5733 25.2861 23.5733C23.9662 23.5733 22.8185 23.2676 21.8429 22.656C20.8673 22.0444 20.2146 21.184 19.8846 20.0747L20.9176 20.1813C20.4154 21.1911 19.6622 21.9236 18.658 22.3787C17.668 22.8338 16.6351 23.0613 15.5591 23.0613C14.2535 23.0613 13.1058 22.784 12.1158 22.2293C11.1403 21.6604 10.3727 20.8782 9.81318 19.8827C9.268 18.8871 8.99541 17.7351 8.99541 16.4267C8.99541 15.0613 9.28235 13.8809 9.85622 12.8853C10.4301 11.8898 11.2192 11.1218 12.2234 10.5813C13.2277 10.0409 14.3611 9.77067 15.6236 9.77067C16.5562 9.77067 17.5174 9.96267 18.5073 10.3467C19.5116 10.7307 20.2791 11.3564 20.81 12.224L19.9707 13.1627V10.368H22.2518L22.2303 17.3013C22.2303 18.3538 22.4742 19.2142 22.962 19.8827C23.4641 20.5369 24.289 20.864 25.4368 20.864C26.2115 20.864 26.8571 20.6507 27.3736 20.224C27.9044 19.7973 28.3133 19.2 28.6002 18.432C28.8872 17.6498 29.0522 16.7324 29.0952 15.68C29.1813 13.5182 28.9015 11.6267 28.2559 10.0053C27.6103 8.384 26.6921 7.03289 25.5013 5.952C24.3106 4.85689 22.9261 4.03911 21.348 3.49867C19.7842 2.95822 18.1128 2.688 16.3338 2.688C14.1818 2.688 12.2665 3.04356 10.5879 3.75467C8.92368 4.46578 7.51052 5.44711 6.34844 6.69867C5.2007 7.95022 4.33272 9.39378 3.7445 11.0293C3.15629 12.6507 2.87652 14.3787 2.90522 16.2133C2.91956 18.1049 3.26389 19.8542 3.93818 21.4613C4.62683 23.0542 5.57371 24.4409 6.77884 25.6213C7.98397 26.7876 9.38995 27.6907 10.9968 28.3307C12.6036 28.9849 14.3468 29.312 16.2262 29.312C17.4457 29.312 18.6651 29.1556 19.8846 28.8427C21.1184 28.5298 22.2159 28.096 23.1772 27.5413L24.1886 29.9307C22.9405 30.6276 21.6277 31.1467 20.2504 31.488C18.8732 31.8293 17.4815 32 16.0755 32ZM15.7312 20.3307C16.8503 20.3307 17.7613 20.0107 18.4643 19.3707C19.1816 18.7307 19.5403 17.7422 19.5403 16.4053C19.5403 15.0969 19.196 14.1084 18.5073 13.44C17.833 12.7716 16.9292 12.4373 15.7958 12.4373C14.5046 12.4373 13.5146 12.7858 12.826 13.4827C12.1517 14.1796 11.8145 15.1538 11.8145 16.4053C11.8145 17.6711 12.166 18.6453 12.869 19.328C13.572 19.9964 14.5261 20.3307 15.7312 20.3307Z" fill="#00AE84"/>
</svg>
