<svg width="28" height="28" viewBox="0 0 28 28" fill="none" xmlns="http://www.w3.org/2000/svg">
<circle cx="14" cy="14" r="14" fill="#FFE9E9"/>
<circle cx="14" cy="14" r="10" fill="#FFCFCF"/>
<path d="M13.005 9.1C12.991 8.96095 13.0064 8.82052 13.05 8.68777C13.0937 8.55502 13.1647 8.43289 13.2584 8.32925C13.3522 8.22562 13.4666 8.14279 13.5943 8.0861C13.7221 8.02941 13.8603 8.00012 14 8.00012C14.1397 8.00012 14.2779 8.02941 14.4057 8.0861C14.5334 8.14279 14.6478 8.22562 14.7416 8.32925C14.8353 8.43289 14.9063 8.55502 14.95 8.68777C14.9936 8.82052 15.009 8.96095 14.995 9.1L14.607 15.45C14.592 15.6006 14.5216 15.7402 14.4094 15.8418C14.2972 15.9433 14.1513 15.9996 14 15.9996C13.8487 15.9996 13.7028 15.9433 13.5906 15.8418C13.4784 15.7402 13.408 15.6006 13.393 15.45L13.005 9.1ZM13 18C13 17.7348 13.1054 17.4804 13.2929 17.2929C13.4804 17.1054 13.7348 17 14 17C14.2652 17 14.5196 17.1054 14.7071 17.2929C14.8946 17.4804 15 17.7348 15 18C15 18.2652 14.8946 18.5196 14.7071 18.7071C14.5196 18.8946 14.2652 19 14 19C13.7348 19 13.4804 18.8946 13.2929 18.7071C13.1054 18.5196 13 18.2652 13 18Z" fill="#FF0303"/>
</svg>
