<svg width="40" height="40" viewBox="0 0 40 40" fill="none" xmlns="http://www.w3.org/2000/svg"><rect width="40" height="40" rx="20" fill="url(#a)"/><g clip-path="url(#b)"><path d="m20 5-.195.645v18.73l.195.19 8.945-5.139L20 5Z" fill="#343434"/><path d="m20 5-8.945 14.426 8.944 5.14V5Z" fill="#8C8C8C"/><path d="m20 26.212-.11.13v6.672l.11.313 8.95-12.252L20 26.212Z" fill="#3C3C3B"/><path d="M20 33.327V26.21l-8.945-5.136 8.944 12.252Z" fill="#8C8C8C"/><path d="m20 24.566 8.945-5.14L20 15.476v9.09Z" fill="#141414"/><path d="m11.055 19.427 8.944 5.139v-9.091l-8.944 3.952Z" fill="#393939"/></g><defs><linearGradient id="a" x1="20" y1="0" x2="20" y2="40" gradientUnits="userSpaceOnUse"><stop stop-color="#E9E9E9"/><stop offset="1" stop-color="#D5D5D5"/></linearGradient><clipPath id="b"><path fill="#fff" transform="translate(11.055 5)" d="M0 0h17.895v28.333H0z"/></clipPath></defs></svg>