<svg width="16" height="9" viewBox="0 0 16 9" fill="none" xmlns="http://www.w3.org/2000/svg"><path d="M6.434 3.167H2.481a.57.57 0 0 1-.57-.57v-.443H.589a.57.57 0 1 1 0-1.14H1.91V.57A.57.57 0 0 1 2.48 0h3.953a.57.57 0 0 1 .57.57l-.57 2.597Zm0 0a.57.57 0 0 0 .57-.57v-.392l-.57.962Zm.57-1.062h-.05v.493a.52.52 0 0 1-.52.52H2.481a.52.52 0 0 1-.52-.521v-.493H.589a.52.52 0 1 1 0-1.04H1.96V.57a.52.52 0 0 1 .52-.52h3.953a.52.52 0 0 1 .52.52v.494h8.458a.52.52 0 1 1 0 1.04H7.005Zm-4.003-.078v.05h2.913V1.09H3.001v.937Zm5.995 5.91h.05v.493c0 .288.233.52.52.52h3.954a.52.52 0 0 0 .52-.52v-.493h1.372a.52.52 0 1 0 0-1.04H14.04v-.494a.52.52 0 0 0-.52-.52H9.567a.52.52 0 0 0-.52.52v.494H.588a.52.52 0 1 0 0 1.04h8.407ZM13 7.86v.05h-2.913v-.987H13v.937Z" fill="#262721" stroke="#fff" stroke-width=".1"/></svg>