<svg width="24" height="24" viewBox="0 0 24 24" fill="none" xmlns="http://www.w3.org/2000/svg">
<path d="M15.7504 10.5V9.375C15.7504 8.87772 15.5529 8.40081 15.2013 8.04917C14.8496 7.69754 14.3727 7.5 13.8754 7.5C13.3782 7.5 12.9013 7.69754 12.5496 8.04917C12.198 8.40081 12.0004 8.87772 12.0004 9.375V3.375C12.0004 2.87772 11.8029 2.40081 11.4513 2.04917C11.0996 1.69754 10.6227 1.5 10.1254 1.5C9.62817 1.5 9.15125 1.69754 8.79962 2.04917C8.44799 2.40081 8.25045 2.87772 8.25045 3.375V14.7469L6.19732 11.1844C5.94868 10.753 5.53885 10.438 5.058 10.3088C4.57714 10.1796 4.06465 10.2467 3.63326 10.4953C3.20187 10.744 2.88692 11.1538 2.75769 11.6346C2.62847 12.1155 2.69556 12.628 2.9442 13.0594C6.00045 19.5 7.8567 21.75 12.0004 21.75C12.9854 21.75 13.9606 21.556 14.8706 21.1791C15.7805 20.8022 16.6073 20.2497 17.3037 19.5533C18.0002 18.8569 18.5526 18.0301 18.9295 17.1201C19.3065 16.2102 19.5004 15.2349 19.5004 14.25V10.5C19.5004 10.0027 19.3029 9.52581 18.9513 9.17417C18.5996 8.82254 18.1227 8.625 17.6254 8.625C17.1282 8.625 16.6513 8.82254 16.2996 9.17417C15.948 9.52581 15.7504 10.0027 15.7504 10.5V10.5Z" stroke="#00738E" stroke-width="2" stroke-linecap="round" stroke-linejoin="round"/>
</svg>
