<svg width="269" height="227" viewBox="0 0 269 227" fill="none" xmlns="http://www.w3.org/2000/svg">
<path d="M0.152787 0.415669H368.703C367.071 9.95646 362.12 18.616 354.723 24.8693C347.326 31.1226 337.957 34.5685 328.266 34.6001H40.7337C31.0428 34.5685 21.6738 31.1226 14.2768 24.8693C6.87981 18.616 1.92932 9.95646 0.297205 0.415669M130.272 99.5072V283.642C118.526 275.372 107.117 292.873 96.0451 283.642V96.1897H130.272V99.5072ZM178.218 99.5072V283.642C166.568 277.103 155.159 290.95 143.991 283.642V96.1897H178.218V99.5072ZM226.164 99.5072V279.195C215.092 286.599 203.683 293.523 191.937 299.965V95.757H226.164V99.5072ZM274.11 99.5072V274.749C263.038 284.365 251.629 293.115 239.884 301V96.1897H274.11V99.5072ZM89.2575 82.3428C79.5666 82.3113 70.1976 78.8654 62.8006 72.6121C55.4036 66.3588 50.4531 57.6992 48.821 48.1584H320.757C319.147 57.7745 314.168 66.5062 306.708 72.7944C299.248 79.0826 289.793 82.5179 280.031 82.4871L89.2575 82.3428Z" fill="#B2AEAA"/>
</svg>
