<svg width="215" height="259" viewBox="0 0 215 259" fill="none" xmlns="http://www.w3.org/2000/svg">
<path d="M238.631 221.86H4.96777C1.74147 226.306 0.00275547 231.657 0 237.151L0 265.432H243.525V237.151C243.509 231.667 241.79 226.324 238.606 221.86H238.631Z" fill="#B2AEAA"/>
<path d="M85.4613 98.447C94.1364 105.862 99.098 117.506 99.098 130.418V170.615C100.938 170.158 102.828 169.935 104.724 169.951H138.822C140.683 169.954 142.538 170.161 144.355 170.566V129.563C144.354 123.584 145.629 117.674 148.095 112.227C150.562 106.781 154.162 101.923 158.656 97.9797C167.17 90.4759 173.197 80.5573 175.936 69.5437C178.674 58.5301 177.994 46.9436 173.986 36.3261C169.977 25.7086 162.831 16.5634 153.497 10.1075C144.163 3.65152 133.085 0.190877 121.736 0.186035L120.943 0.186035C91.0438 0.579522 65.7869 26.273 65.8792 56.2025C65.9108 64.2384 67.6767 72.1728 71.0562 79.4635C74.4358 86.7542 79.3494 93.2295 85.4613 98.447Z" fill="#B2AEAA"/>
<path d="M82.7685 182.137C80.0622 186.432 78.6819 191.429 78.8 196.504C78.9181 201.579 80.5294 206.506 83.4325 210.671H160.175C163.077 206.506 164.687 201.578 164.804 196.503C164.921 191.428 163.54 186.431 160.832 182.137H82.7685Z" fill="#B2AEAA"/>
</svg>
