<svg width="250" height="260" viewBox="0 0 250 260" fill="none" xmlns="http://www.w3.org/2000/svg">
<path fill-rule="evenodd" clip-rule="evenodd" d="M354.752 74.923L179.545 0L4.24888 74.9234C1.67172 76.025 0 78.5575 0 81.3602V106.73H359V81.3593C359 78.557 357.329 76.0248 354.752 74.923ZM180 85C194.912 85 207 72.9117 207 58C207 43.0883 194.912 31 180 31C165.088 31 153 43.0883 153 58C153 72.9117 165.088 85 180 85Z" fill="#AEABA7"/>
<circle cx="180" cy="58" r="19" fill="#AEABA7"/>
<rect x="100.289" y="119.822" width="43.1231" height="156.321" fill="#AEABA7"/>
<rect x="212.289" y="119.822" width="43.1231" height="156.321" fill="#AEABA7"/>
<rect x="44" y="119.822" width="43.1231" height="156.321" fill="#AEABA7"/>
<rect x="156.289" y="119.822" width="43.1231" height="156.321" fill="#AEABA7"/>
</svg>
