<svg width="216" height="258" viewBox="0 0 216 258" fill="none" xmlns="http://www.w3.org/2000/svg">
<path fill-rule="evenodd" clip-rule="evenodd" d="M45.3846 0C20.3199 0 0 20.3199 0 45.3846V263.231C0 278.27 12.1911 290.462 27.2308 290.462H208.769C223.809 290.462 236 278.27 236 263.231V81.6923C236 76.6797 231.936 72.6154 226.923 72.6154H45.3846C30.3449 72.6154 18.1538 60.4243 18.1538 45.3846C18.1538 30.3449 30.3449 18.1538 45.3846 18.1538H226.923C231.936 18.1538 236 14.0895 236 9.07692C236 4.06433 231.936 0 226.923 0H45.3846Z" fill="#B2AEAA"/>
<path d="M195.522 222.489L176.38 184.732C175.706 183.384 174.493 182.575 173.01 182.44L147.128 182.575C145.915 178.934 143.354 175.832 139.849 173.945V168.956C139.849 164.64 136.345 161 131.896 161C127.448 161 123.943 164.506 123.943 168.956V173.945C120.573 175.832 118.012 178.934 116.799 182.575L90.9173 182.44C89.5689 182.575 88.2215 183.384 87.5472 184.732L68.5392 222.489C68.0004 223.568 67.865 224.915 68.1348 226.13C71.3703 237.861 80.4019 245.412 91.1862 245.412C101.97 245.412 111.002 237.861 114.238 226.13C114.507 224.916 114.372 223.703 113.833 222.489L99.0047 193.093L116.799 193.227C118.147 196.868 120.573 199.835 123.943 201.723V252.289C123.943 261.728 116.799 269.684 107.363 270.628L92.9389 272.246C91.3216 272.38 90.1076 273.864 90.1076 275.482V282.763C90.1076 284.517 91.5905 286 93.3431 286H170.988C172.741 286 174.224 284.517 174.224 282.763V275.482C174.224 273.865 173.011 272.516 171.392 272.246L156.429 270.628C146.994 269.549 139.849 261.728 139.849 252.289V201.723C143.219 199.835 145.645 196.868 146.994 193.227L164.788 193.093L149.959 222.489C149.42 223.568 149.285 224.915 149.555 226.13C152.79 237.861 161.822 245.412 172.606 245.412C183.391 245.412 192.422 237.861 195.658 226.13C196.196 224.916 196.061 223.703 195.522 222.489H195.522ZM103.588 217.365H78.9198L91.3214 192.959L103.588 217.365ZM160.474 217.365L172.876 192.959L185.277 217.365H160.474Z" fill="#CBC9C6"/>
<rect x="33" y="31" width="197" height="8" rx="4" fill="#B2AEAA"/>
<rect x="33" y="51" width="197" height="8" rx="4" fill="#B2AEAA"/>
</svg>
