<svg width="217" height="247" viewBox="0 0 217 247" fill="none" xmlns="http://www.w3.org/2000/svg">
<path d="M234.369 67.4285H47.0672C43.9629 67.4285 41.4492 64.9122 41.4492 61.8105C41.4492 58.7063 43.9629 56.1899 47.0672 56.1899H234.369C237.47 56.1899 239.987 58.7063 239.987 61.8079C239.987 64.9095 237.47 67.4285 234.369 67.4285Z" fill="#AEABA7"/>
<path d="M230.378 48.6963H33.7117C30.6075 48.6963 28.0938 46.18 28.0938 43.0783C28.0938 39.9767 30.6075 37.4604 33.7117 37.4604L230.378 37.4577C233.48 37.4577 235.996 39.9741 235.996 43.0757C235.996 46.1774 233.48 48.6963 230.378 48.6963Z" fill="#AEABA7"/>
<path d="M234.369 29.9666H47.0672C43.9629 29.9666 41.4492 27.4502 41.4492 24.3486C41.4492 21.2443 43.9629 18.728 47.0672 18.728H234.369C237.47 18.728 239.987 21.2443 239.987 24.346C239.987 27.4476 237.47 29.9666 234.369 29.9666Z" fill="#AEABA7"/>
<path d="M43.0793 74.9201H236V339.015H0V46.8249H0.190751C0.0810053 45.5889 0 44.3452 0 43.0779C0.00261285 19.3253 19.3288 -0.00012207 43.0807 -0.00012207H230.382C233.484 -0.00012207 236 2.51617 236 5.61783C236 8.71948 233.484 11.2384 230.382 11.2384H43.0807C25.5238 11.2384 11.2381 25.5215 11.2381 43.081C11.2381 60.6378 25.5232 74.9209 43.0807 74.9209L43.0793 74.9201Z" fill="#AEABA7"/>
</svg>
