<svg width="235" height="231" viewBox="0 0 235 231" fill="none" xmlns="http://www.w3.org/2000/svg">
<path d="M226.527 0H148.408C139.814 0 132.785 7.0295 132.785 15.623V273.392C132.785 281.986 139.815 289.015 148.408 289.015H226.519C235.113 289.015 242.142 281.986 242.142 273.392V15.623C242.142 7.02921 235.113 0 226.522 0H226.527ZM210.915 249.979H164.046V234.356H210.915V249.979ZM210.915 218.733H164.046V203.11H210.915V218.733ZM210.915 187.487H164.046V171.864H210.915V187.487ZM187.47 93.7378C172.393 93.7378 160.131 81.4724 160.131 66.3992C160.131 51.3232 172.393 39.0607 187.47 39.0607C202.546 39.0607 214.808 51.3232 214.808 66.3992C214.808 81.4724 202.546 93.7378 187.47 93.7378Z" fill="#AEABA7"/>
<path d="M93.7342 0H15.623C7.02921 0 0 7.0295 0 15.623V273.392C0 281.986 7.0295 289.015 15.623 289.015H93.7342C102.328 289.015 109.357 281.986 109.357 273.392V15.623C109.357 7.02921 102.325 0 93.7342 0ZM78.1228 249.979H31.2539V234.356H78.1228V249.979ZM78.1228 218.733H31.2539V203.11H78.1228V218.733ZM78.1228 187.487H31.2539V171.864H78.1228V187.487ZM54.6771 93.7378C39.601 93.7378 27.3385 81.4724 27.3385 66.3992C27.3385 51.3232 39.601 39.0607 54.6771 39.0607C69.7532 39.0607 82.0157 51.3232 82.0157 66.3992C82.0185 81.4724 69.7532 93.7378 54.6771 93.7378Z" fill="#AEABA7"/>
</svg>
