<svg width="267" height="267" viewBox="0 0 267 267" fill="none" xmlns="http://www.w3.org/2000/svg">
<path d="M176.518 63.626L175.345 64.8021L61.8633 178.284V294.108H145.972V218.524C145.972 209.569 153.229 202.309 162.187 202.309H190.854C199.81 202.309 207.07 209.572 207.07 218.524V294.108H291.171V178.284L177.697 64.8021L176.518 63.626Z" fill="#B2AEAA"/>
<path d="M67.3047 38.5457V87.1429L98.4964 55.9512L98.4935 38.5449L98.4898 38.5457H67.3047Z" fill="#B2AEAA"/>
<path d="M328.643 144.844L229.885 46.0851L192.747 8.9447C191.987 7.68256 191.066 6.49509 189.979 5.40793L189.968 5.39932C186.276 1.70188 181.394 -0.0937498 176.546 0.00376779C171.702 -0.0937571 166.826 1.70188 163.125 5.39932L163.117 5.40793C162.027 6.49795 161.106 7.68549 160.346 8.9447L40.4466 128.818L22.099 147.16L0.816406 168.423C7.07812 172.423 17.2328 177.101 28.0781 176.423C44.0781 175.423 52.5781 168.423 59.0012 162.423L175.375 46.0753L176.548 44.8993L177.724 46.0753L291.198 159.557L302.568 170.919C309.768 178.119 321.44 178.119 328.64 170.919L328.648 170.911C335.848 163.716 335.848 152.047 328.643 144.842L328.643 144.844Z" fill="#B2AEAA"/>
</svg>
