<svg width="276" height="260" viewBox="0 0 276 260" fill="none" xmlns="http://www.w3.org/2000/svg">
<path d="M14.1528 13.4157H382.703C381.071 22.9565 376.12 31.616 368.723 37.8693C361.326 44.1226 351.957 47.5685 342.266 47.6001H54.7337C45.0428 47.5685 35.6738 44.1226 28.2768 37.8693C20.8798 31.616 15.9293 22.9565 14.2972 13.4157M144.272 112.507V296.642C132.526 288.372 121.117 305.873 110.045 296.642V109.19H144.272V112.507ZM192.218 112.507V296.642C180.568 290.103 169.159 303.95 157.991 296.642V109.19H192.218V112.507ZM240.164 112.507V292.195C229.092 299.599 217.683 306.523 205.937 312.965V108.757H240.164V112.507ZM288.11 112.507V287.749C277.038 297.365 265.629 306.115 253.884 314V109.19H288.11V112.507ZM103.258 95.3428C93.5666 95.3113 84.1976 91.8654 76.8006 85.6121C69.4036 79.3588 64.4531 70.6992 62.821 61.1584H334.757C333.147 70.7745 328.168 79.5062 320.708 85.7944C313.248 92.0826 303.793 95.5179 294.031 95.4871L103.258 95.3428Z" fill="#641425"/>
</svg>
