<svg width="275" height="253" viewBox="0 0 275 253" fill="none" xmlns="http://www.w3.org/2000/svg">
<path fill-rule="evenodd" clip-rule="evenodd" d="M72.9453 0.952148C66.3179 0.952148 60.9453 6.32472 60.9453 12.9521V175.848C60.9453 182.475 66.3179 187.848 72.9453 187.848H313.396C320.024 187.848 325.396 182.475 325.396 175.848V12.9521C325.396 6.32473 320.024 0.952148 313.396 0.952148H72.9453ZM308 19H79V170H308V19Z" fill="#AEABA7"/>
<rect x="92" y="32" width="214" height="125" fill="#AEABA7"/>
<path d="M57.3963 200.035C59.6623 197.645 62.8116 196.291 66.1057 196.291H319.594C323.259 196.291 326.724 197.966 329 200.84L376.253 260.496H0.0898438L57.3963 200.035Z" fill="#AEABA7"/>
</svg>
