<svg width="240" height="262" viewBox="0 0 240 262" fill="none" xmlns="http://www.w3.org/2000/svg">
<path d="M140.91 253.641C78.7433 253.641 26.5216 231.259 0 198.933V220.482C0 266.899 62.9943 305.031 140.91 305.031C218.828 305.031 281.82 266.899 281.82 220.482V198.933C255.299 232.091 203.903 253.641 140.91 253.641Z" fill="#AEABA7"/>
<path d="M140.91 186.501C78.7433 186.501 26.5216 164.119 0 131.792V153.342C0 199.759 62.9943 237.891 140.91 237.891C218.828 237.891 281.82 199.759 281.82 153.342V131.792C255.299 164.119 203.903 186.501 140.91 186.501Z" fill="#AEABA7"/>
<path d="M140.91 0C62.9929 0 0 38.132 0 84.5485C0 130.965 62.9943 169.097 140.91 169.097C218.828 169.097 281.82 130.965 281.82 84.5485C281.82 38.132 218.826 0 140.91 0Z" fill="#AEABA7"/>
</svg>
