<svg width="24" height="25" viewBox="0 0 24 25" fill="none" xmlns="http://www.w3.org/2000/svg">
<path d="M12 4.5C14.2 4.5 16 6.3 16 8.5C16 10.6 13.9 14 12 16.4C10.1 13.9 8 10.6 8 8.5C8 6.3 9.8 4.5 12 4.5ZM12 2.5C8.7 2.5 6 5.2 6 8.5C6 13 12 19.5 12 19.5C12 19.5 18 12.9 18 8.5C18 5.2 15.3 2.5 12 2.5ZM12 6.5C10.9 6.5 10 7.4 10 8.5C10 9.6 10.9 10.5 12 10.5C13.1 10.5 14 9.6 14 8.5C14 7.4 13.1 6.5 12 6.5ZM20 19.5C20 21.7 16.4 23.5 12 23.5C7.6 23.5 4 21.7 4 19.5C4 18.2 5.2 17.1 7.1 16.3L7.7 17.2C6.7 17.7 6 18.3 6 19C6 20.4 8.7 21.5 12 21.5C15.3 21.5 18 20.4 18 19C18 18.3 17.3 17.7 16.2 17.2L16.8 16.3C18.8 17.1 20 18.2 20 19.5Z" fill="#00738E"/>
</svg>
