<svg width="40" height="40" viewBox="0 0 40 40" fill="none" xmlns="http://www.w3.org/2000/svg"><rect width="40" height="40" rx="20" fill="url(#a)"/><path d="M18.75 25.514c3.774.072 7.478.14 11.252.281-.138.56-.278 1.049-.348 1.54-.211.7-.42 1.33-.559 2.031-.07.35-.211.42-.559.42H10.503c.63-2.452 1.258-4.76 1.887-7.212-.979.35-1.818.7-2.796 1.12.28-1.048.559-1.959.909-2.94 0-.138.21-.21.35-.21.63-.278 1.327-.49 1.955-.771.21-.067.421-.277.421-.489l2.932-10.918c.072-.42.21-.56.7-.56h6.36c-.769 2.868-1.468 5.741-2.237 8.75a48.31 48.31 0 0 1 3.355-1.33c-.14.56-.35 1.05-.418 1.54-.14 1.122-.77 1.75-1.887 2.032-.488.138-.98.348-1.468.56a1.206 1.206 0 0 0-.42.419c-.49 1.89-.98 3.71-1.398 5.599v.14l.002-.002Z" fill="#fff"/><defs><linearGradient id="a" x1="20" y1="0" x2="20" y2="40" gradientUnits="userSpaceOnUse"><stop stop-color="#CCC"/><stop offset="1" stop-color="#B5B5B5"/></linearGradient></defs></svg>