<svg width="48" height="48" viewBox="0 0 48 48" fill="none" xmlns="http://www.w3.org/2000/svg">
<g clip-path="url(#clip0_507_1664)">
<mask id="path-1-outside-1_507_1664" maskUnits="userSpaceOnUse" x="-0.976562" y="-1.01416" width="44" height="50" fill="black">
<rect fill="white" x="-0.976562" y="-1.01416" width="44" height="50"/>
<path d="M16.4065 1.74379C11.0346 3.31879 10.5284 3.48754 10.294 3.75004C10.1253 3.93754 10.0315 4.13441 10.0315 4.33129C10.0315 4.76254 13.4721 16.4344 13.819 17.2032C14.9628 19.6875 17.7284 21.3282 20.494 21.1594L21.3659 21.1125L21.8909 22.4344C22.1909 23.1657 22.444 23.8219 22.4721 23.8782C22.5096 23.9719 21.4034 24 17.1284 24C13.8846 24 11.5409 24.0375 11.2409 24.0938C10.5003 24.2344 9.76901 24.6282 9.20651 25.1907C8.67214 25.7157 8.18464 26.6344 8.10026 27.2438C7.98776 28.0969 8.08151 28.0313 6.98464 28.0313H6.00026V26.4375C6.00026 24.6657 5.93464 24.3938 5.43776 24.1407C4.90339 23.8594 3.67526 24.0657 2.68151 24.5907C1.95026 24.975 0.975263 25.95 0.590888 26.6813C-0.205987 28.1907 -0.159112 30.0563 0.703388 31.5469C1.39714 32.7282 2.92526 33.75 4.26589 33.9375C5.23151 34.0688 5.70964 33.8907 5.89714 33.3563C5.95339 33.1969 6.00026 32.3813 6.00026 31.5375V30H6.98464C8.08151 30 7.98776 29.9344 8.10026 30.7969C8.20339 31.5657 8.85026 32.5782 9.62839 33.1875L9.92839 33.4219L8.99089 39.9375C8.47526 43.5188 8.05339 46.65 8.04401 46.8844C8.04401 47.4375 8.15651 47.6532 8.58776 47.8594C8.86901 47.9907 9.06589 48.0094 9.60026 47.9625C11.5878 47.7657 13.3971 46.9032 14.7284 45.5063C15.4128 44.7844 15.3378 44.9063 18.6659 39.0938L21.5346 34.0782L22.444 34.05L23.344 34.0219L21.7878 37.1438C19.969 40.7719 19.9503 40.8375 20.0721 41.2969C20.1753 41.6625 20.6065 42 20.9815 42C21.6003 42 21.6471 41.9157 23.6721 37.875L25.594 34.0313H28.7721H31.9409L31.9878 34.6688C32.0628 35.7563 32.3721 36 33.6471 36C34.9596 36 35.9628 35.6344 36.7409 34.875C37.5003 34.1438 37.969 33.0938 37.969 32.1657V31.6407L39.7596 30.75C40.7346 30.2625 41.6346 29.7657 41.7471 29.6438C41.944 29.4282 41.9534 29.3625 41.9534 27C41.9534 24.6375 41.944 24.5719 41.7471 24.3563C41.6346 24.2344 40.7346 23.7375 39.7596 23.25L37.969 22.3594V21.8344C37.969 20.9063 37.5003 19.8563 36.7409 19.125C35.9628 18.3657 34.9596 18 33.6471 18C32.3721 18 32.0628 18.2438 31.9878 19.3313L31.9409 19.9688H30.0096C28.9503 19.9688 27.7878 20.0157 27.4409 20.0625C26.2128 20.2407 24.9753 21.1313 24.469 22.2C24.3378 22.4719 24.2159 22.6875 24.1878 22.6875C24.1596 22.6875 24.0284 22.4063 23.8971 22.05C23.7565 21.7032 23.5596 21.2063 23.4565 20.9438L23.269 20.4657L23.9721 20.0063C25.2753 19.1532 26.2596 17.8688 26.7753 16.3594C27.0753 15.4688 27.1878 13.8469 27.0096 12.9375C26.8315 12.0188 23.4659 0.665665 23.2971 0.412537C23.1378 0.159412 22.8003 3.8147e-05 22.4721 0.00941467C22.3596 0.00941467 19.6315 0.787537 16.4065 1.74379ZM21.9846 2.73754C22.0596 3.00941 22.4346 4.28441 22.819 5.57816L23.5034 7.92191L18.3471 7.95004C15.5065 7.95941 13.1534 7.94066 13.1159 7.90316C12.994 7.77191 12.2628 5.14691 12.3284 5.08129C12.3753 5.02504 21.5628 2.27816 21.769 2.25941C21.8065 2.25004 21.9003 2.47504 21.9846 2.73754ZM24.5909 11.625C24.9003 12.6657 25.0596 13.4157 25.0971 13.9219C25.1909 15.3657 24.694 16.65 23.6253 17.7282C22.1065 19.2657 19.9034 19.6219 17.9346 18.6563C17.0159 18.2063 16.2096 17.4469 15.769 16.6219C15.5909 16.2844 15.1315 14.8782 14.6253 13.1625C14.1565 11.5688 13.7534 10.2094 13.7346 10.1438C13.6971 10.05 14.7471 10.0313 18.9096 10.05L24.1315 10.0782L24.5909 11.625ZM35.0346 20.2969C35.3721 20.5219 35.6346 20.8313 35.8221 21.2344C35.9815 21.5907 36.0003 21.9469 36.0003 27C36.0003 32.0532 35.9815 32.4094 35.8221 32.7657C35.5221 33.4125 35.0815 33.7782 34.4346 33.9188L34.0315 34.0125V27V19.9875L34.4346 20.0813C34.6503 20.1282 34.9221 20.2313 35.0346 20.2969ZM31.969 27V31.9688L21.6378 31.95L11.2971 31.9219L10.9409 31.6688C10.7346 31.5375 10.4628 31.2657 10.3315 31.0594C10.0784 30.7032 10.0784 30.6938 10.0784 28.9969V27.3L10.3596 26.8875C10.519 26.6719 10.8378 26.3813 11.0628 26.25L11.4846 26.0157L18.4409 25.9875L25.3971 25.9594L25.669 25.6875C25.9315 25.4344 25.9503 25.3688 25.9878 24.45C26.0253 23.7094 26.0815 23.3907 26.2315 23.0907C26.4378 22.6875 26.869 22.3032 27.2815 22.1344C27.4128 22.0875 28.5096 22.0407 29.7471 22.0407L31.969 22.0313V27ZM39.0471 25.1438L40.0315 25.6407V27V28.3594L39.0471 28.8563C38.5034 29.1188 38.044 29.3438 38.0159 29.3438C37.9878 29.3438 37.969 28.2844 37.969 27C37.969 25.7063 37.9878 24.6563 38.0159 24.6563C38.044 24.6563 38.5034 24.8813 39.0471 25.1438ZM4.03151 29.0157C4.03151 31.1532 4.00339 31.7813 3.91901 31.7813C3.85339 31.7813 3.58151 31.6313 3.31901 31.4438C1.87526 30.4594 1.60339 28.5375 2.69089 27.1125C2.93464 26.7844 3.69401 26.25 3.90964 26.25C4.00339 26.25 4.03151 26.8032 4.03151 29.0157ZM19.2003 34.1157C19.1909 34.1532 17.9721 36.3 16.5003 38.8688C13.9784 43.2844 13.7909 43.5844 13.1159 44.2594C12.5534 44.8313 12.244 45.0563 11.6159 45.3563C10.7065 45.7969 10.219 45.9188 10.219 45.7313C10.2096 45.6657 10.5846 43.0032 11.0346 39.8157L11.8596 34.0313H15.544C17.5784 34.0313 19.219 34.0688 19.2003 34.1157Z"/>
</mask>
<path d="M16.4065 1.74379C11.0346 3.31879 10.5284 3.48754 10.294 3.75004C10.1253 3.93754 10.0315 4.13441 10.0315 4.33129C10.0315 4.76254 13.4721 16.4344 13.819 17.2032C14.9628 19.6875 17.7284 21.3282 20.494 21.1594L21.3659 21.1125L21.8909 22.4344C22.1909 23.1657 22.444 23.8219 22.4721 23.8782C22.5096 23.9719 21.4034 24 17.1284 24C13.8846 24 11.5409 24.0375 11.2409 24.0938C10.5003 24.2344 9.76901 24.6282 9.20651 25.1907C8.67214 25.7157 8.18464 26.6344 8.10026 27.2438C7.98776 28.0969 8.08151 28.0313 6.98464 28.0313H6.00026V26.4375C6.00026 24.6657 5.93464 24.3938 5.43776 24.1407C4.90339 23.8594 3.67526 24.0657 2.68151 24.5907C1.95026 24.975 0.975263 25.95 0.590888 26.6813C-0.205987 28.1907 -0.159112 30.0563 0.703388 31.5469C1.39714 32.7282 2.92526 33.75 4.26589 33.9375C5.23151 34.0688 5.70964 33.8907 5.89714 33.3563C5.95339 33.1969 6.00026 32.3813 6.00026 31.5375V30H6.98464C8.08151 30 7.98776 29.9344 8.10026 30.7969C8.20339 31.5657 8.85026 32.5782 9.62839 33.1875L9.92839 33.4219L8.99089 39.9375C8.47526 43.5188 8.05339 46.65 8.04401 46.8844C8.04401 47.4375 8.15651 47.6532 8.58776 47.8594C8.86901 47.9907 9.06589 48.0094 9.60026 47.9625C11.5878 47.7657 13.3971 46.9032 14.7284 45.5063C15.4128 44.7844 15.3378 44.9063 18.6659 39.0938L21.5346 34.0782L22.444 34.05L23.344 34.0219L21.7878 37.1438C19.969 40.7719 19.9503 40.8375 20.0721 41.2969C20.1753 41.6625 20.6065 42 20.9815 42C21.6003 42 21.6471 41.9157 23.6721 37.875L25.594 34.0313H28.7721H31.9409L31.9878 34.6688C32.0628 35.7563 32.3721 36 33.6471 36C34.9596 36 35.9628 35.6344 36.7409 34.875C37.5003 34.1438 37.969 33.0938 37.969 32.1657V31.6407L39.7596 30.75C40.7346 30.2625 41.6346 29.7657 41.7471 29.6438C41.944 29.4282 41.9534 29.3625 41.9534 27C41.9534 24.6375 41.944 24.5719 41.7471 24.3563C41.6346 24.2344 40.7346 23.7375 39.7596 23.25L37.969 22.3594V21.8344C37.969 20.9063 37.5003 19.8563 36.7409 19.125C35.9628 18.3657 34.9596 18 33.6471 18C32.3721 18 32.0628 18.2438 31.9878 19.3313L31.9409 19.9688H30.0096C28.9503 19.9688 27.7878 20.0157 27.4409 20.0625C26.2128 20.2407 24.9753 21.1313 24.469 22.2C24.3378 22.4719 24.2159 22.6875 24.1878 22.6875C24.1596 22.6875 24.0284 22.4063 23.8971 22.05C23.7565 21.7032 23.5596 21.2063 23.4565 20.9438L23.269 20.4657L23.9721 20.0063C25.2753 19.1532 26.2596 17.8688 26.7753 16.3594C27.0753 15.4688 27.1878 13.8469 27.0096 12.9375C26.8315 12.0188 23.4659 0.665665 23.2971 0.412537C23.1378 0.159412 22.8003 3.8147e-05 22.4721 0.00941467C22.3596 0.00941467 19.6315 0.787537 16.4065 1.74379ZM21.9846 2.73754C22.0596 3.00941 22.4346 4.28441 22.819 5.57816L23.5034 7.92191L18.3471 7.95004C15.5065 7.95941 13.1534 7.94066 13.1159 7.90316C12.994 7.77191 12.2628 5.14691 12.3284 5.08129C12.3753 5.02504 21.5628 2.27816 21.769 2.25941C21.8065 2.25004 21.9003 2.47504 21.9846 2.73754ZM24.5909 11.625C24.9003 12.6657 25.0596 13.4157 25.0971 13.9219C25.1909 15.3657 24.694 16.65 23.6253 17.7282C22.1065 19.2657 19.9034 19.6219 17.9346 18.6563C17.0159 18.2063 16.2096 17.4469 15.769 16.6219C15.5909 16.2844 15.1315 14.8782 14.6253 13.1625C14.1565 11.5688 13.7534 10.2094 13.7346 10.1438C13.6971 10.05 14.7471 10.0313 18.9096 10.05L24.1315 10.0782L24.5909 11.625ZM35.0346 20.2969C35.3721 20.5219 35.6346 20.8313 35.8221 21.2344C35.9815 21.5907 36.0003 21.9469 36.0003 27C36.0003 32.0532 35.9815 32.4094 35.8221 32.7657C35.5221 33.4125 35.0815 33.7782 34.4346 33.9188L34.0315 34.0125V27V19.9875L34.4346 20.0813C34.6503 20.1282 34.9221 20.2313 35.0346 20.2969ZM31.969 27V31.9688L21.6378 31.95L11.2971 31.9219L10.9409 31.6688C10.7346 31.5375 10.4628 31.2657 10.3315 31.0594C10.0784 30.7032 10.0784 30.6938 10.0784 28.9969V27.3L10.3596 26.8875C10.519 26.6719 10.8378 26.3813 11.0628 26.25L11.4846 26.0157L18.4409 25.9875L25.3971 25.9594L25.669 25.6875C25.9315 25.4344 25.9503 25.3688 25.9878 24.45C26.0253 23.7094 26.0815 23.3907 26.2315 23.0907C26.4378 22.6875 26.869 22.3032 27.2815 22.1344C27.4128 22.0875 28.5096 22.0407 29.7471 22.0407L31.969 22.0313V27ZM39.0471 25.1438L40.0315 25.6407V27V28.3594L39.0471 28.8563C38.5034 29.1188 38.044 29.3438 38.0159 29.3438C37.9878 29.3438 37.969 28.2844 37.969 27C37.969 25.7063 37.9878 24.6563 38.0159 24.6563C38.044 24.6563 38.5034 24.8813 39.0471 25.1438ZM4.03151 29.0157C4.03151 31.1532 4.00339 31.7813 3.91901 31.7813C3.85339 31.7813 3.58151 31.6313 3.31901 31.4438C1.87526 30.4594 1.60339 28.5375 2.69089 27.1125C2.93464 26.7844 3.69401 26.25 3.90964 26.25C4.00339 26.25 4.03151 26.8032 4.03151 29.0157ZM19.2003 34.1157C19.1909 34.1532 17.9721 36.3 16.5003 38.8688C13.9784 43.2844 13.7909 43.5844 13.1159 44.2594C12.5534 44.8313 12.244 45.0563 11.6159 45.3563C10.7065 45.7969 10.219 45.9188 10.219 45.7313C10.2096 45.6657 10.5846 43.0032 11.0346 39.8157L11.8596 34.0313H15.544C17.5784 34.0313 19.219 34.0688 19.2003 34.1157Z" fill="#007FA7"/>
<path d="M16.4065 1.74379C11.0346 3.31879 10.5284 3.48754 10.294 3.75004C10.1253 3.93754 10.0315 4.13441 10.0315 4.33129C10.0315 4.76254 13.4721 16.4344 13.819 17.2032C14.9628 19.6875 17.7284 21.3282 20.494 21.1594L21.3659 21.1125L21.8909 22.4344C22.1909 23.1657 22.444 23.8219 22.4721 23.8782C22.5096 23.9719 21.4034 24 17.1284 24C13.8846 24 11.5409 24.0375 11.2409 24.0938C10.5003 24.2344 9.76901 24.6282 9.20651 25.1907C8.67214 25.7157 8.18464 26.6344 8.10026 27.2438C7.98776 28.0969 8.08151 28.0313 6.98464 28.0313H6.00026V26.4375C6.00026 24.6657 5.93464 24.3938 5.43776 24.1407C4.90339 23.8594 3.67526 24.0657 2.68151 24.5907C1.95026 24.975 0.975263 25.95 0.590888 26.6813C-0.205987 28.1907 -0.159112 30.0563 0.703388 31.5469C1.39714 32.7282 2.92526 33.75 4.26589 33.9375C5.23151 34.0688 5.70964 33.8907 5.89714 33.3563C5.95339 33.1969 6.00026 32.3813 6.00026 31.5375V30H6.98464C8.08151 30 7.98776 29.9344 8.10026 30.7969C8.20339 31.5657 8.85026 32.5782 9.62839 33.1875L9.92839 33.4219L8.99089 39.9375C8.47526 43.5188 8.05339 46.65 8.04401 46.8844C8.04401 47.4375 8.15651 47.6532 8.58776 47.8594C8.86901 47.9907 9.06589 48.0094 9.60026 47.9625C11.5878 47.7657 13.3971 46.9032 14.7284 45.5063C15.4128 44.7844 15.3378 44.9063 18.6659 39.0938L21.5346 34.0782L22.444 34.05L23.344 34.0219L21.7878 37.1438C19.969 40.7719 19.9503 40.8375 20.0721 41.2969C20.1753 41.6625 20.6065 42 20.9815 42C21.6003 42 21.6471 41.9157 23.6721 37.875L25.594 34.0313H28.7721H31.9409L31.9878 34.6688C32.0628 35.7563 32.3721 36 33.6471 36C34.9596 36 35.9628 35.6344 36.7409 34.875C37.5003 34.1438 37.969 33.0938 37.969 32.1657V31.6407L39.7596 30.75C40.7346 30.2625 41.6346 29.7657 41.7471 29.6438C41.944 29.4282 41.9534 29.3625 41.9534 27C41.9534 24.6375 41.944 24.5719 41.7471 24.3563C41.6346 24.2344 40.7346 23.7375 39.7596 23.25L37.969 22.3594V21.8344C37.969 20.9063 37.5003 19.8563 36.7409 19.125C35.9628 18.3657 34.9596 18 33.6471 18C32.3721 18 32.0628 18.2438 31.9878 19.3313L31.9409 19.9688H30.0096C28.9503 19.9688 27.7878 20.0157 27.4409 20.0625C26.2128 20.2407 24.9753 21.1313 24.469 22.2C24.3378 22.4719 24.2159 22.6875 24.1878 22.6875C24.1596 22.6875 24.0284 22.4063 23.8971 22.05C23.7565 21.7032 23.5596 21.2063 23.4565 20.9438L23.269 20.4657L23.9721 20.0063C25.2753 19.1532 26.2596 17.8688 26.7753 16.3594C27.0753 15.4688 27.1878 13.8469 27.0096 12.9375C26.8315 12.0188 23.4659 0.665665 23.2971 0.412537C23.1378 0.159412 22.8003 3.8147e-05 22.4721 0.00941467C22.3596 0.00941467 19.6315 0.787537 16.4065 1.74379ZM21.9846 2.73754C22.0596 3.00941 22.4346 4.28441 22.819 5.57816L23.5034 7.92191L18.3471 7.95004C15.5065 7.95941 13.1534 7.94066 13.1159 7.90316C12.994 7.77191 12.2628 5.14691 12.3284 5.08129C12.3753 5.02504 21.5628 2.27816 21.769 2.25941C21.8065 2.25004 21.9003 2.47504 21.9846 2.73754ZM24.5909 11.625C24.9003 12.6657 25.0596 13.4157 25.0971 13.9219C25.1909 15.3657 24.694 16.65 23.6253 17.7282C22.1065 19.2657 19.9034 19.6219 17.9346 18.6563C17.0159 18.2063 16.2096 17.4469 15.769 16.6219C15.5909 16.2844 15.1315 14.8782 14.6253 13.1625C14.1565 11.5688 13.7534 10.2094 13.7346 10.1438C13.6971 10.05 14.7471 10.0313 18.9096 10.05L24.1315 10.0782L24.5909 11.625ZM35.0346 20.2969C35.3721 20.5219 35.6346 20.8313 35.8221 21.2344C35.9815 21.5907 36.0003 21.9469 36.0003 27C36.0003 32.0532 35.9815 32.4094 35.8221 32.7657C35.5221 33.4125 35.0815 33.7782 34.4346 33.9188L34.0315 34.0125V27V19.9875L34.4346 20.0813C34.6503 20.1282 34.9221 20.2313 35.0346 20.2969ZM31.969 27V31.9688L21.6378 31.95L11.2971 31.9219L10.9409 31.6688C10.7346 31.5375 10.4628 31.2657 10.3315 31.0594C10.0784 30.7032 10.0784 30.6938 10.0784 28.9969V27.3L10.3596 26.8875C10.519 26.6719 10.8378 26.3813 11.0628 26.25L11.4846 26.0157L18.4409 25.9875L25.3971 25.9594L25.669 25.6875C25.9315 25.4344 25.9503 25.3688 25.9878 24.45C26.0253 23.7094 26.0815 23.3907 26.2315 23.0907C26.4378 22.6875 26.869 22.3032 27.2815 22.1344C27.4128 22.0875 28.5096 22.0407 29.7471 22.0407L31.969 22.0313V27ZM39.0471 25.1438L40.0315 25.6407V27V28.3594L39.0471 28.8563C38.5034 29.1188 38.044 29.3438 38.0159 29.3438C37.9878 29.3438 37.969 28.2844 37.969 27C37.969 25.7063 37.9878 24.6563 38.0159 24.6563C38.044 24.6563 38.5034 24.8813 39.0471 25.1438ZM4.03151 29.0157C4.03151 31.1532 4.00339 31.7813 3.91901 31.7813C3.85339 31.7813 3.58151 31.6313 3.31901 31.4438C1.87526 30.4594 1.60339 28.5375 2.69089 27.1125C2.93464 26.7844 3.69401 26.25 3.90964 26.25C4.00339 26.25 4.03151 26.8032 4.03151 29.0157ZM19.2003 34.1157C19.1909 34.1532 17.9721 36.3 16.5003 38.8688C13.9784 43.2844 13.7909 43.5844 13.1159 44.2594C12.5534 44.8313 12.244 45.0563 11.6159 45.3563C10.7065 45.7969 10.219 45.9188 10.219 45.7313C10.2096 45.6657 10.5846 43.0032 11.0346 39.8157L11.8596 34.0313H15.544C17.5784 34.0313 19.219 34.0688 19.2003 34.1157Z" stroke="#007FA7" stroke-width="0.4" mask="url(#path-1-outside-1_507_1664)"/>
<path d="M43.985 22.7091L43.985 22.7091C43.9311 22.9148 43.9161 23.094 43.955 23.2631C43.994 23.4326 44.0848 23.5812 44.2237 23.7301C44.5019 24.0387 44.8868 24.1528 45.2879 24.05L45.263 23.9531M43.985 22.7091L44.0818 22.7344C44.1849 22.35 46.3599 20.175 46.7349 20.0813C47.1193 19.9781 47.3911 20.0438 47.663 20.2969C47.9443 20.55 48.0474 20.8969 47.9536 21.2531M43.985 22.7091L43.9852 22.7085C43.9951 22.6715 44.015 22.6313 44.0381 22.5918C44.062 22.5509 44.0929 22.5049 44.1291 22.4551C44.2015 22.3555 44.2984 22.2362 44.4114 22.1055C44.6377 21.8437 44.9328 21.531 45.2357 21.2281C45.5386 20.9252 45.8506 20.6308 46.1113 20.4056C46.2415 20.2932 46.36 20.197 46.4588 20.1254C46.5082 20.0897 46.5538 20.0592 46.5943 20.0358C46.633 20.0133 46.6728 19.9939 46.7097 19.9845M43.985 22.7091L46.7097 19.9845M45.263 23.9531L45.2873 24.0502C45.3236 24.0411 45.3628 24.0206 45.3998 23.9982C45.4388 23.9746 45.4833 23.9436 45.532 23.9072C45.6295 23.8341 45.7483 23.7353 45.88 23.6195C46.1436 23.3877 46.4631 23.0838 46.774 22.7722C47.085 22.4607 47.3887 22.1403 47.6204 21.8753C47.7361 21.743 47.8349 21.6233 47.908 21.5249C47.9444 21.4757 47.9754 21.4306 47.9991 21.391C48.0214 21.3537 48.0415 21.3143 48.0506 21.2777C48.0507 21.2774 48.0507 21.2771 48.0508 21.2768L47.9536 21.2531M45.263 23.9531C44.8974 24.0469 44.5505 23.9438 44.2974 23.6625L47.9536 21.2531M45.263 23.9531C45.6005 23.8688 47.8693 21.6 47.9536 21.2531M46.7097 19.9845C46.9123 19.9302 47.0936 19.9182 47.264 19.9581C47.4348 19.9982 47.5855 20.0882 47.7306 20.2231L46.7097 19.9845Z" fill="#007FA7" stroke="#007FA7" stroke-width="0.2"/>
<path d="M44.7326 25.928L44.7325 25.9278L44.7389 25.9266C44.7729 25.9204 44.8384 25.9162 44.9192 25.9129C45.003 25.9095 45.1112 25.9069 45.2359 25.9051C45.4853 25.9016 45.8025 25.9016 46.1266 25.9063C46.7881 25.9109 47.2076 25.9381 47.4841 26.0428C47.6268 26.0969 47.7346 26.1726 47.8186 26.2772C47.9008 26.3798 47.9557 26.5047 48.0018 26.65C48.1552 27.1016 47.9935 27.6371 47.6066 27.8985L47.6066 27.8985L47.6052 27.8994C47.4807 27.9806 47.3519 28.0264 47.1137 28.0522C46.88 28.0774 46.5323 28.0844 45.9662 28.0844H44.6256H44.5832L44.5537 28.054L44.2641 27.7549C44.0467 27.5422 43.9288 27.282 43.9209 27.017C43.913 26.7516 44.0159 26.4893 44.2252 26.2746C44.3008 26.1941 44.3928 26.1171 44.4809 26.0564C44.5667 25.9971 44.6584 25.9465 44.7326 25.928Z" fill="#007FA7" stroke="#007FA7" stroke-width="0.2"/>
<path d="M44.0533 31.2095L43.9534 31.2145C43.9389 30.9253 43.967 30.6892 44.0561 30.4941C44.1463 30.2963 44.2946 30.1507 44.5012 30.0347L44.5012 30.0347L44.5031 30.0337C44.8153 29.8672 45.1594 29.8691 45.4959 30.0424L45.496 30.0424L45.4973 30.0432C45.5577 30.0755 45.6405 30.1381 45.7349 30.217C45.8312 30.2975 45.9455 30.4001 46.0705 30.5171C46.3205 30.7512 46.6159 31.0455 46.9004 31.3418C47.1848 31.6379 47.4593 31.9371 47.6673 32.1811C47.7711 32.303 47.8594 32.4122 47.9242 32.501C47.9566 32.5454 47.984 32.5859 48.0049 32.6212C48.024 32.6535 48.0424 32.6892 48.0504 32.7229C48.153 33.1151 48.0381 33.4995 47.7302 33.777C47.5852 33.9119 47.4344 34.0019 47.2636 34.042C47.0934 34.0819 46.9123 34.0699 46.7098 34.0157C46.6714 34.0063 46.63 33.9862 46.5896 33.963C46.5472 33.9385 46.4995 33.9066 46.4479 33.8691C46.3445 33.794 46.2208 33.6929 46.0851 33.5749C45.8136 33.3385 45.4898 33.03 45.1787 32.7153C44.8676 32.4007 44.5677 32.0785 44.3445 31.8147C44.233 31.6831 44.1393 31.5644 44.0727 31.4676C44.0394 31.4193 44.0116 31.3746 43.9915 31.3353C43.9732 31.2994 43.9546 31.2554 43.9533 31.2125L44.0533 31.2095ZM44.0533 31.2095C44.0627 31.5188 46.3408 33.8251 46.7345 33.9188L47.9533 32.747C47.8877 32.4563 45.8533 30.347 45.4502 30.1313C45.1408 29.972 44.8314 29.972 44.5502 30.122C44.1658 30.3376 44.0252 30.647 44.0533 31.2095Z" fill="#007FA7" stroke="#007FA7" stroke-width="0.2"/>
</g>
<defs>
<clipPath id="clip0_507_1664">
<rect width="48" height="48" fill="white"/>
</clipPath>
</defs>
</svg>
