<svg width="49" height="48" viewBox="0 0 49 48" fill="none" xmlns="http://www.w3.org/2000/svg">
<mask id="path-1-outside-1_507_1655" maskUnits="userSpaceOnUse" x="0.25" y="0.25" width="48" height="48" fill="black">
<rect fill="white" x="0.25" y="0.25" width="48" height="48"/>
<path d="M14.2156 13.7156L1.25 26.6719V36.7312V46.7906L1.48438 47.0156L1.70938 47.25H11.0188H20.3281L34.0344 33.5344L47.75 19.8281V17.2687V14.7094L47.5156 14.4844L47.2906 14.25H43.0156H38.75V9.98438V5.70937L38.5156 5.48438L38.2906 5.25H35.75H33.2L32.6 5.83125L32 6.40312V3.80625V1.20937L31.7656 0.984375L31.5406 0.75H29.3563H27.1719L14.2156 13.7156ZM17.4219 14.25L5.42188 26.25H4.625H3.82812L15.8281 14.25L27.8281 2.25H28.625H29.4219L17.4219 14.25ZM22.25 16.1719L14 24.4219V28.9219V33.4219L10.25 37.1719L6.5 40.9219V34.125V27.3281L18.4813 15.3469L30.4531 3.375L30.4813 5.64375L30.5 7.9125L22.25 16.1719ZM27.5469 15.375L18.9219 24H17.75H16.5781L25.2031 15.375L33.8281 6.75H35H36.1719L27.5469 15.375ZM28.625 23.2969L20 31.9219V28.5V25.0781L28.6063 16.4719L37.2031 7.875L37.2313 11.2687L37.25 14.6719L28.625 23.2969ZM36.5469 24.375L27.9219 33H24.5H21.0781L29.7031 24.375L38.3281 15.75H41.75H45.1719L36.5469 24.375ZM37.6531 27.7687L29.0469 36.375L29.0188 35.2312L28.9906 34.0875L37.5969 25.4812L46.2031 16.875L46.2313 18.0187L46.2594 19.1625L37.6531 27.7687ZM18.5 29.7656V34.0406L18.7344 34.2656L18.9594 34.5H23.2344H27.5V36V37.5H21.5H15.5V31.5V25.5H17H18.5V29.7656ZM5 35.3906V43.0406L5.23438 43.2656L5.45938 43.5H12.3594H19.25V44.625V45.75H11H2.75V36.75V27.75H3.875H5V35.3906ZM14.2719 38.8219C14.4781 38.9906 14.6938 39 18.575 39H22.6719L21.1719 40.5L19.6719 42H13.625H7.57813L10.7656 38.8125L13.9531 35.625L14 37.1344C14.0469 38.5781 14.0563 38.6531 14.2719 38.8219ZM23.6094 41.8125L20.7969 44.625L20.7688 43.8562L20.7406 43.0875L22.7844 41.0437L24.8281 39H25.625H26.4219L23.6094 41.8125Z"/>
</mask>
<path d="M14.2156 13.7156L1.25 26.6719V36.7312V46.7906L1.48438 47.0156L1.70938 47.25H11.0188H20.3281L34.0344 33.5344L47.75 19.8281V17.2687V14.7094L47.5156 14.4844L47.2906 14.25H43.0156H38.75V9.98438V5.70937L38.5156 5.48438L38.2906 5.25H35.75H33.2L32.6 5.83125L32 6.40312V3.80625V1.20937L31.7656 0.984375L31.5406 0.75H29.3563H27.1719L14.2156 13.7156ZM17.4219 14.25L5.42188 26.25H4.625H3.82812L15.8281 14.25L27.8281 2.25H28.625H29.4219L17.4219 14.25ZM22.25 16.1719L14 24.4219V28.9219V33.4219L10.25 37.1719L6.5 40.9219V34.125V27.3281L18.4813 15.3469L30.4531 3.375L30.4813 5.64375L30.5 7.9125L22.25 16.1719ZM27.5469 15.375L18.9219 24H17.75H16.5781L25.2031 15.375L33.8281 6.75H35H36.1719L27.5469 15.375ZM28.625 23.2969L20 31.9219V28.5V25.0781L28.6063 16.4719L37.2031 7.875L37.2313 11.2687L37.25 14.6719L28.625 23.2969ZM36.5469 24.375L27.9219 33H24.5H21.0781L29.7031 24.375L38.3281 15.75H41.75H45.1719L36.5469 24.375ZM37.6531 27.7687L29.0469 36.375L29.0188 35.2312L28.9906 34.0875L37.5969 25.4812L46.2031 16.875L46.2313 18.0187L46.2594 19.1625L37.6531 27.7687ZM18.5 29.7656V34.0406L18.7344 34.2656L18.9594 34.5H23.2344H27.5V36V37.5H21.5H15.5V31.5V25.5H17H18.5V29.7656ZM5 35.3906V43.0406L5.23438 43.2656L5.45938 43.5H12.3594H19.25V44.625V45.75H11H2.75V36.75V27.75H3.875H5V35.3906ZM14.2719 38.8219C14.4781 38.9906 14.6938 39 18.575 39H22.6719L21.1719 40.5L19.6719 42H13.625H7.57813L10.7656 38.8125L13.9531 35.625L14 37.1344C14.0469 38.5781 14.0563 38.6531 14.2719 38.8219ZM23.6094 41.8125L20.7969 44.625L20.7688 43.8562L20.7406 43.0875L22.7844 41.0437L24.8281 39H25.625H26.4219L23.6094 41.8125Z" fill="#00738E"/>
<path d="M14.2156 13.7156L1.25 26.6719V36.7312V46.7906L1.48438 47.0156L1.70938 47.25H11.0188H20.3281L34.0344 33.5344L47.75 19.8281V17.2687V14.7094L47.5156 14.4844L47.2906 14.25H43.0156H38.75V9.98438V5.70937L38.5156 5.48438L38.2906 5.25H35.75H33.2L32.6 5.83125L32 6.40312V3.80625V1.20937L31.7656 0.984375L31.5406 0.75H29.3563H27.1719L14.2156 13.7156ZM17.4219 14.25L5.42188 26.25H4.625H3.82812L15.8281 14.25L27.8281 2.25H28.625H29.4219L17.4219 14.25ZM22.25 16.1719L14 24.4219V28.9219V33.4219L10.25 37.1719L6.5 40.9219V34.125V27.3281L18.4813 15.3469L30.4531 3.375L30.4813 5.64375L30.5 7.9125L22.25 16.1719ZM27.5469 15.375L18.9219 24H17.75H16.5781L25.2031 15.375L33.8281 6.75H35H36.1719L27.5469 15.375ZM28.625 23.2969L20 31.9219V28.5V25.0781L28.6063 16.4719L37.2031 7.875L37.2313 11.2687L37.25 14.6719L28.625 23.2969ZM36.5469 24.375L27.9219 33H24.5H21.0781L29.7031 24.375L38.3281 15.75H41.75H45.1719L36.5469 24.375ZM37.6531 27.7687L29.0469 36.375L29.0188 35.2312L28.9906 34.0875L37.5969 25.4812L46.2031 16.875L46.2313 18.0187L46.2594 19.1625L37.6531 27.7687ZM18.5 29.7656V34.0406L18.7344 34.2656L18.9594 34.5H23.2344H27.5V36V37.5H21.5H15.5V31.5V25.5H17H18.5V29.7656ZM5 35.3906V43.0406L5.23438 43.2656L5.45938 43.5H12.3594H19.25V44.625V45.75H11H2.75V36.75V27.75H3.875H5V35.3906ZM14.2719 38.8219C14.4781 38.9906 14.6938 39 18.575 39H22.6719L21.1719 40.5L19.6719 42H13.625H7.57813L10.7656 38.8125L13.9531 35.625L14 37.1344C14.0469 38.5781 14.0563 38.6531 14.2719 38.8219ZM23.6094 41.8125L20.7969 44.625L20.7688 43.8562L20.7406 43.0875L22.7844 41.0437L24.8281 39H25.625H26.4219L23.6094 41.8125Z" stroke="#00738E" stroke-width="0.4" mask="url(#path-1-outside-1_507_1655)"/>
</svg>
