<svg width="48" height="48" viewBox="0 0 48 48" fill="none" xmlns="http://www.w3.org/2000/svg">
<g clip-path="url(#clip0_507_1632)">
<mask id="path-1-outside-1_507_1632" maskUnits="userSpaceOnUse" x="-0.953125" y="-0.475464" width="50" height="49" fill="black">
<rect fill="white" x="-0.953125" y="-0.475464" width="50" height="49"/>
<path d="M33.5625 2.18439V3.90939L33.1688 4.08751C32.9438 4.18126 32.5219 4.42501 32.2219 4.61251C31.9219 4.80939 31.65 4.96876 31.6125 4.96876C31.575 4.96876 30.8906 4.59376 30.0938 4.13439C29.2969 3.67501 28.6406 3.30001 28.6313 3.30939C28.5188 3.45939 25.5 8.74689 25.5 8.79376C25.5 8.83126 26.1563 9.23439 26.9531 9.69376C28.0125 10.3031 28.4063 10.575 28.4063 10.6969C28.4063 10.8656 28.05 10.875 16.2188 10.875H4.03126V20.6625V30.4594L3.35626 30.8063C2.40001 31.3031 1.20938 32.5125 0.731255 33.4688C0.0468804 34.8563 0.0468804 34.8938 0.0468804 39.5625C0.0468804 44.2875 0.0375054 44.2313 0.79688 45.375C1.46251 46.3781 2.40938 46.9875 3.85313 47.3531C4.53751 47.5313 4.88438 47.5406 10.65 47.5125L16.7344 47.4844L17.4094 47.2313C18.3281 46.9031 18.8906 46.5563 19.4625 45.9844C20.2969 45.15 20.7188 44.1 20.7188 42.8156V42.0938H23.2125H25.7156L27.4125 43.8375L29.1094 45.5813L31.7344 46.5094C33.1781 47.0156 34.4531 47.4375 34.575 47.4375C34.8375 47.4375 35.3438 46.9594 35.3438 46.7156C35.3438 46.6219 35.0344 45.5531 34.6594 44.3438L33.975 42.1406L37.4156 42.0938L40.8656 42.0469L43.9688 38.6531L47.0625 35.2594V25.6688C47.0625 16.5938 47.0719 16.0594 47.2313 15.7969C47.325 15.6375 47.5406 15.2719 47.7 14.9813L48.0094 14.4563L47.5313 14.1938L47.0625 13.9406V12.4125V10.8844L46.0594 10.8563C45.2531 10.8375 45.0469 10.8 45.0281 10.6875C45.0094 10.5938 45.4781 10.2656 46.4531 9.71251C47.2594 9.25314 47.925 8.85001 47.9438 8.82189C47.9625 8.79376 47.6063 8.12814 47.1563 7.35939C46.7063 6.58126 45.9938 5.35314 45.5719 4.62189L44.8031 3.29064L43.3594 4.13439C42.5625 4.59376 41.8781 4.96876 41.8406 4.96876C41.8031 4.96876 41.5219 4.80001 41.2125 4.60314C40.9125 4.40626 40.5 4.16251 40.3031 4.07814L39.9375 3.90939V2.18439V0.468765H36.75H33.5625V2.18439ZM38.3438 3.55314V5.03439L39.0469 5.29689C39.8156 5.57814 40.6406 6.07501 41.2406 6.60939C41.4469 6.79689 41.6531 6.93751 41.7 6.91876C41.7375 6.90939 42.3188 6.58126 42.975 6.19689C44.1281 5.53126 44.1938 5.51251 44.3156 5.68126C44.5406 5.98126 45.75 8.12814 45.75 8.21251C45.75 8.25939 45.1969 8.60626 44.5219 8.99064L43.2938 9.68439L43.3781 10.2563C43.4625 10.875 43.4719 12.1969 43.4063 13.0688L43.3594 13.6219L44.4188 14.2406L45.4688 14.85V15.2531C45.4688 15.5813 45.3469 15.8625 44.85 16.7344L44.2219 17.8125L43.6969 17.5125C43.4063 17.3531 42.8344 17.0156 42.4219 16.7719L41.6719 16.3313L41.25 16.6781C40.5094 17.2875 39.9375 17.6344 39.15 17.9531L38.3906 18.2625L38.3625 19.725L38.3344 21.1875H36.75H35.1656L35.1375 19.7156L35.1094 18.2531L34.6219 18.0844C33.8625 17.8313 32.9063 17.2875 32.3719 16.8281C32.1094 16.5938 31.8375 16.4063 31.7813 16.4063C31.7156 16.4063 31.1156 16.725 30.4406 17.1094C29.775 17.5031 29.2219 17.8031 29.2031 17.7938C29.1938 17.775 28.8375 17.1563 28.4156 16.4156C27.8063 15.3563 27.6656 15.0563 27.7594 14.9906C27.8344 14.9438 28.4063 14.6063 29.0438 14.2406C30.1125 13.6219 30.1969 13.5563 30.1406 13.3406C29.9063 12.4031 29.9063 10.8844 30.15 9.89064C30.1875 9.73126 30.0094 9.60001 29.0906 9.07501C28.4813 8.72814 27.9094 8.39064 27.8156 8.32501C27.6656 8.21251 27.7125 8.10001 28.425 6.86251C28.8469 6.13126 29.2219 5.53126 29.2594 5.53126C29.2969 5.53126 29.8781 5.85001 30.5531 6.24376L31.7813 6.94689L32.3625 6.46876C32.9344 6.00939 34.3688 5.23126 34.9031 5.10001L35.1563 5.04376V3.55314V2.06252H36.75H38.3438V3.55314ZM28.3875 12.6281C28.3688 12.7125 27.7688 13.125 27 13.575C26.25 14.0063 25.6031 14.3906 25.5563 14.4375C25.4906 14.5031 28.3219 19.5844 28.6031 19.9031C28.6406 19.95 29.325 19.6031 30.1406 19.1344L31.6031 18.2813L31.9969 18.5531C32.2125 18.6938 32.6531 18.9563 32.9813 19.1156L33.5625 19.4063V21.0938V22.7813H36.75H39.9375V21.0563V19.3406L40.4156 19.1344C40.6781 19.0313 41.1 18.7875 41.3531 18.6L41.8125 18.2719L43.2844 19.125C44.9344 20.0719 44.7656 20.0625 45.2438 19.2656L45.4594 18.8906L45.4688 26.5031V34.125H42.7031H39.9375V37.3125V40.5H36.4969H33.0469L29.2781 36.5813C24.3281 31.4344 24.1781 31.2938 23.4844 31.0406C22.7156 30.75 21.6375 30.7969 20.9531 31.1438C20.5031 31.3781 19.6688 32.1563 19.575 32.4375C19.5469 32.5313 19.3219 32.3625 18.8813 31.9219C18.1031 31.1531 17.3063 30.6563 16.2656 30.3L15.5156 30.0469H10.575H5.62501V21.2531V12.4688H17.025C27.6469 12.4688 28.4156 12.4781 28.3875 12.6281ZM45.4688 12.7031C45.4688 12.9656 45.3938 12.9938 45.1406 12.8156C44.9438 12.6656 45.0281 12.4688 45.2906 12.4688C45.4219 12.4688 45.4688 12.5344 45.4688 12.7031ZM6.37501 33.3938C6.37501 35.3344 6.47813 36.1031 6.84376 36.8719C7.15313 37.5281 7.80001 38.2031 8.41876 38.5031C8.93438 38.7563 9.00938 38.7656 10.3594 38.7656C11.6344 38.7656 11.8125 38.7469 12.2531 38.5406C12.8156 38.2875 13.5656 37.5469 13.875 36.9281C14.2781 36.15 14.3438 35.6906 14.3438 33.5813C14.3438 31.3219 14.25 31.5188 15.2438 31.6969C16.5563 31.9313 17.9156 32.9344 18.5531 34.125C19.0875 35.1188 19.125 35.3906 19.125 38.4094V41.1563H10.3594H1.59376V38.5875C1.59376 37.1813 1.64063 35.7938 1.68751 35.5219C2.08126 33.4594 4.08751 31.6875 6.12188 31.6031L6.37501 31.5938V33.3938ZM9.56251 33.6094V35.625H10.3594H11.1563V33.6094V31.5938H11.9531H12.75V33.5344C12.7406 35.5969 12.6938 35.8875 12.2719 36.5156C11.925 37.0313 11.4375 37.2188 10.4438 37.2188C9.37501 37.2188 8.99063 37.1063 8.63438 36.6938C8.07188 36.0563 8.02501 35.8688 7.98751 33.6281L7.95001 31.5938H8.75626H9.56251V33.6094ZM23.0438 32.5688C23.1844 32.6438 23.4656 32.8781 23.6625 33.0844L24.0375 33.4688L23.7094 33.8063C23.5406 33.9938 23.0156 34.4813 22.5656 34.8938L21.7406 35.6531L21.4594 35.3813C20.9906 34.9313 20.7938 34.5375 20.7938 34.0406C20.7938 33.3938 21.1125 32.8781 21.7031 32.55C21.9656 32.4 22.7438 32.4094 23.0438 32.5688ZM25.1063 36.8813L23.9719 37.9969L23.4094 37.4156L22.8563 36.8438L24.0094 35.7188L25.1719 34.6031L25.7156 35.1844L26.25 35.7656L25.1063 36.8813ZM44.2406 35.9719C43.6031 36.6844 41.9344 38.5125 41.7469 38.7188L41.5313 38.9531V37.3313V35.7188H43.0031H44.475L44.2406 35.9719ZM29.6156 39.2344C30.8063 40.4719 31.7719 41.5031 31.7531 41.5313C31.7438 41.5594 31.2375 42.0656 30.6281 42.6563L29.5125 43.7344L27.6469 41.8125C26.6156 40.7531 25.6313 39.7219 25.4531 39.5063L25.125 39.1219L26.2313 38.0344C26.8313 37.4344 27.3563 36.9469 27.3938 36.9656C27.4313 36.975 28.425 37.9969 29.6156 39.2344ZM22.4906 38.7375C23.3719 39.6469 24.0938 40.4156 24.0938 40.4438C24.0938 40.4719 23.3344 40.5 22.4063 40.5H20.7188V38.7563C20.7188 37.7531 20.7563 37.0313 20.8031 37.05C20.85 37.0594 21.6094 37.8188 22.4906 38.7375ZM19.0969 43.275C18.9844 44.325 18.2063 45.2344 17.0156 45.675C16.4625 45.8813 16.3969 45.8906 10.65 45.9188C6.78751 45.9375 4.67813 45.9094 4.35938 45.8438C3.60938 45.6844 2.80313 45.2625 2.37188 44.7844C1.91251 44.2875 1.71563 43.8656 1.63126 43.2094L1.56563 42.75H10.3594H19.1531L19.0969 43.275ZM33.225 45.15C33.2813 45.3469 33.2438 45.3375 32.2219 44.9813C31.65 44.7844 31.1438 44.5781 31.0969 44.5406C31.0594 44.5031 31.3688 44.1375 31.7906 43.725L32.5594 42.9844L32.8688 43.9688C33.0375 44.5031 33.1969 45.0375 33.225 45.15Z"/>
</mask>
<path d="M33.5625 2.18439V3.90939L33.1688 4.08751C32.9438 4.18126 32.5219 4.42501 32.2219 4.61251C31.9219 4.80939 31.65 4.96876 31.6125 4.96876C31.575 4.96876 30.8906 4.59376 30.0938 4.13439C29.2969 3.67501 28.6406 3.30001 28.6313 3.30939C28.5188 3.45939 25.5 8.74689 25.5 8.79376C25.5 8.83126 26.1563 9.23439 26.9531 9.69376C28.0125 10.3031 28.4063 10.575 28.4063 10.6969C28.4063 10.8656 28.05 10.875 16.2188 10.875H4.03126V20.6625V30.4594L3.35626 30.8063C2.40001 31.3031 1.20938 32.5125 0.731255 33.4688C0.0468804 34.8563 0.0468804 34.8938 0.0468804 39.5625C0.0468804 44.2875 0.0375054 44.2313 0.79688 45.375C1.46251 46.3781 2.40938 46.9875 3.85313 47.3531C4.53751 47.5313 4.88438 47.5406 10.65 47.5125L16.7344 47.4844L17.4094 47.2313C18.3281 46.9031 18.8906 46.5563 19.4625 45.9844C20.2969 45.15 20.7188 44.1 20.7188 42.8156V42.0938H23.2125H25.7156L27.4125 43.8375L29.1094 45.5813L31.7344 46.5094C33.1781 47.0156 34.4531 47.4375 34.575 47.4375C34.8375 47.4375 35.3438 46.9594 35.3438 46.7156C35.3438 46.6219 35.0344 45.5531 34.6594 44.3438L33.975 42.1406L37.4156 42.0938L40.8656 42.0469L43.9688 38.6531L47.0625 35.2594V25.6688C47.0625 16.5938 47.0719 16.0594 47.2313 15.7969C47.325 15.6375 47.5406 15.2719 47.7 14.9813L48.0094 14.4563L47.5313 14.1938L47.0625 13.9406V12.4125V10.8844L46.0594 10.8563C45.2531 10.8375 45.0469 10.8 45.0281 10.6875C45.0094 10.5938 45.4781 10.2656 46.4531 9.71251C47.2594 9.25314 47.925 8.85001 47.9438 8.82189C47.9625 8.79376 47.6063 8.12814 47.1563 7.35939C46.7063 6.58126 45.9938 5.35314 45.5719 4.62189L44.8031 3.29064L43.3594 4.13439C42.5625 4.59376 41.8781 4.96876 41.8406 4.96876C41.8031 4.96876 41.5219 4.80001 41.2125 4.60314C40.9125 4.40626 40.5 4.16251 40.3031 4.07814L39.9375 3.90939V2.18439V0.468765H36.75H33.5625V2.18439ZM38.3438 3.55314V5.03439L39.0469 5.29689C39.8156 5.57814 40.6406 6.07501 41.2406 6.60939C41.4469 6.79689 41.6531 6.93751 41.7 6.91876C41.7375 6.90939 42.3188 6.58126 42.975 6.19689C44.1281 5.53126 44.1938 5.51251 44.3156 5.68126C44.5406 5.98126 45.75 8.12814 45.75 8.21251C45.75 8.25939 45.1969 8.60626 44.5219 8.99064L43.2938 9.68439L43.3781 10.2563C43.4625 10.875 43.4719 12.1969 43.4063 13.0688L43.3594 13.6219L44.4188 14.2406L45.4688 14.85V15.2531C45.4688 15.5813 45.3469 15.8625 44.85 16.7344L44.2219 17.8125L43.6969 17.5125C43.4063 17.3531 42.8344 17.0156 42.4219 16.7719L41.6719 16.3313L41.25 16.6781C40.5094 17.2875 39.9375 17.6344 39.15 17.9531L38.3906 18.2625L38.3625 19.725L38.3344 21.1875H36.75H35.1656L35.1375 19.7156L35.1094 18.2531L34.6219 18.0844C33.8625 17.8313 32.9063 17.2875 32.3719 16.8281C32.1094 16.5938 31.8375 16.4063 31.7813 16.4063C31.7156 16.4063 31.1156 16.725 30.4406 17.1094C29.775 17.5031 29.2219 17.8031 29.2031 17.7938C29.1938 17.775 28.8375 17.1563 28.4156 16.4156C27.8063 15.3563 27.6656 15.0563 27.7594 14.9906C27.8344 14.9438 28.4063 14.6063 29.0438 14.2406C30.1125 13.6219 30.1969 13.5563 30.1406 13.3406C29.9063 12.4031 29.9063 10.8844 30.15 9.89064C30.1875 9.73126 30.0094 9.60001 29.0906 9.07501C28.4813 8.72814 27.9094 8.39064 27.8156 8.32501C27.6656 8.21251 27.7125 8.10001 28.425 6.86251C28.8469 6.13126 29.2219 5.53126 29.2594 5.53126C29.2969 5.53126 29.8781 5.85001 30.5531 6.24376L31.7813 6.94689L32.3625 6.46876C32.9344 6.00939 34.3688 5.23126 34.9031 5.10001L35.1563 5.04376V3.55314V2.06252H36.75H38.3438V3.55314ZM28.3875 12.6281C28.3688 12.7125 27.7688 13.125 27 13.575C26.25 14.0063 25.6031 14.3906 25.5563 14.4375C25.4906 14.5031 28.3219 19.5844 28.6031 19.9031C28.6406 19.95 29.325 19.6031 30.1406 19.1344L31.6031 18.2813L31.9969 18.5531C32.2125 18.6938 32.6531 18.9563 32.9813 19.1156L33.5625 19.4063V21.0938V22.7813H36.75H39.9375V21.0563V19.3406L40.4156 19.1344C40.6781 19.0313 41.1 18.7875 41.3531 18.6L41.8125 18.2719L43.2844 19.125C44.9344 20.0719 44.7656 20.0625 45.2438 19.2656L45.4594 18.8906L45.4688 26.5031V34.125H42.7031H39.9375V37.3125V40.5H36.4969H33.0469L29.2781 36.5813C24.3281 31.4344 24.1781 31.2938 23.4844 31.0406C22.7156 30.75 21.6375 30.7969 20.9531 31.1438C20.5031 31.3781 19.6688 32.1563 19.575 32.4375C19.5469 32.5313 19.3219 32.3625 18.8813 31.9219C18.1031 31.1531 17.3063 30.6563 16.2656 30.3L15.5156 30.0469H10.575H5.62501V21.2531V12.4688H17.025C27.6469 12.4688 28.4156 12.4781 28.3875 12.6281ZM45.4688 12.7031C45.4688 12.9656 45.3938 12.9938 45.1406 12.8156C44.9438 12.6656 45.0281 12.4688 45.2906 12.4688C45.4219 12.4688 45.4688 12.5344 45.4688 12.7031ZM6.37501 33.3938C6.37501 35.3344 6.47813 36.1031 6.84376 36.8719C7.15313 37.5281 7.80001 38.2031 8.41876 38.5031C8.93438 38.7563 9.00938 38.7656 10.3594 38.7656C11.6344 38.7656 11.8125 38.7469 12.2531 38.5406C12.8156 38.2875 13.5656 37.5469 13.875 36.9281C14.2781 36.15 14.3438 35.6906 14.3438 33.5813C14.3438 31.3219 14.25 31.5188 15.2438 31.6969C16.5563 31.9313 17.9156 32.9344 18.5531 34.125C19.0875 35.1188 19.125 35.3906 19.125 38.4094V41.1563H10.3594H1.59376V38.5875C1.59376 37.1813 1.64063 35.7938 1.68751 35.5219C2.08126 33.4594 4.08751 31.6875 6.12188 31.6031L6.37501 31.5938V33.3938ZM9.56251 33.6094V35.625H10.3594H11.1563V33.6094V31.5938H11.9531H12.75V33.5344C12.7406 35.5969 12.6938 35.8875 12.2719 36.5156C11.925 37.0313 11.4375 37.2188 10.4438 37.2188C9.37501 37.2188 8.99063 37.1063 8.63438 36.6938C8.07188 36.0563 8.02501 35.8688 7.98751 33.6281L7.95001 31.5938H8.75626H9.56251V33.6094ZM23.0438 32.5688C23.1844 32.6438 23.4656 32.8781 23.6625 33.0844L24.0375 33.4688L23.7094 33.8063C23.5406 33.9938 23.0156 34.4813 22.5656 34.8938L21.7406 35.6531L21.4594 35.3813C20.9906 34.9313 20.7938 34.5375 20.7938 34.0406C20.7938 33.3938 21.1125 32.8781 21.7031 32.55C21.9656 32.4 22.7438 32.4094 23.0438 32.5688ZM25.1063 36.8813L23.9719 37.9969L23.4094 37.4156L22.8563 36.8438L24.0094 35.7188L25.1719 34.6031L25.7156 35.1844L26.25 35.7656L25.1063 36.8813ZM44.2406 35.9719C43.6031 36.6844 41.9344 38.5125 41.7469 38.7188L41.5313 38.9531V37.3313V35.7188H43.0031H44.475L44.2406 35.9719ZM29.6156 39.2344C30.8063 40.4719 31.7719 41.5031 31.7531 41.5313C31.7438 41.5594 31.2375 42.0656 30.6281 42.6563L29.5125 43.7344L27.6469 41.8125C26.6156 40.7531 25.6313 39.7219 25.4531 39.5063L25.125 39.1219L26.2313 38.0344C26.8313 37.4344 27.3563 36.9469 27.3938 36.9656C27.4313 36.975 28.425 37.9969 29.6156 39.2344ZM22.4906 38.7375C23.3719 39.6469 24.0938 40.4156 24.0938 40.4438C24.0938 40.4719 23.3344 40.5 22.4063 40.5H20.7188V38.7563C20.7188 37.7531 20.7563 37.0313 20.8031 37.05C20.85 37.0594 21.6094 37.8188 22.4906 38.7375ZM19.0969 43.275C18.9844 44.325 18.2063 45.2344 17.0156 45.675C16.4625 45.8813 16.3969 45.8906 10.65 45.9188C6.78751 45.9375 4.67813 45.9094 4.35938 45.8438C3.60938 45.6844 2.80313 45.2625 2.37188 44.7844C1.91251 44.2875 1.71563 43.8656 1.63126 43.2094L1.56563 42.75H10.3594H19.1531L19.0969 43.275ZM33.225 45.15C33.2813 45.3469 33.2438 45.3375 32.2219 44.9813C31.65 44.7844 31.1438 44.5781 31.0969 44.5406C31.0594 44.5031 31.3688 44.1375 31.7906 43.725L32.5594 42.9844L32.8688 43.9688C33.0375 44.5031 33.1969 45.0375 33.225 45.15Z" fill="#00738E"/>
<path d="M33.5625 2.18439V3.90939L33.1688 4.08751C32.9438 4.18126 32.5219 4.42501 32.2219 4.61251C31.9219 4.80939 31.65 4.96876 31.6125 4.96876C31.575 4.96876 30.8906 4.59376 30.0938 4.13439C29.2969 3.67501 28.6406 3.30001 28.6313 3.30939C28.5188 3.45939 25.5 8.74689 25.5 8.79376C25.5 8.83126 26.1563 9.23439 26.9531 9.69376C28.0125 10.3031 28.4063 10.575 28.4063 10.6969C28.4063 10.8656 28.05 10.875 16.2188 10.875H4.03126V20.6625V30.4594L3.35626 30.8063C2.40001 31.3031 1.20938 32.5125 0.731255 33.4688C0.0468804 34.8563 0.0468804 34.8938 0.0468804 39.5625C0.0468804 44.2875 0.0375054 44.2313 0.79688 45.375C1.46251 46.3781 2.40938 46.9875 3.85313 47.3531C4.53751 47.5313 4.88438 47.5406 10.65 47.5125L16.7344 47.4844L17.4094 47.2313C18.3281 46.9031 18.8906 46.5563 19.4625 45.9844C20.2969 45.15 20.7188 44.1 20.7188 42.8156V42.0938H23.2125H25.7156L27.4125 43.8375L29.1094 45.5813L31.7344 46.5094C33.1781 47.0156 34.4531 47.4375 34.575 47.4375C34.8375 47.4375 35.3438 46.9594 35.3438 46.7156C35.3438 46.6219 35.0344 45.5531 34.6594 44.3438L33.975 42.1406L37.4156 42.0938L40.8656 42.0469L43.9688 38.6531L47.0625 35.2594V25.6688C47.0625 16.5938 47.0719 16.0594 47.2313 15.7969C47.325 15.6375 47.5406 15.2719 47.7 14.9813L48.0094 14.4563L47.5313 14.1938L47.0625 13.9406V12.4125V10.8844L46.0594 10.8563C45.2531 10.8375 45.0469 10.8 45.0281 10.6875C45.0094 10.5938 45.4781 10.2656 46.4531 9.71251C47.2594 9.25314 47.925 8.85001 47.9438 8.82189C47.9625 8.79376 47.6063 8.12814 47.1563 7.35939C46.7063 6.58126 45.9938 5.35314 45.5719 4.62189L44.8031 3.29064L43.3594 4.13439C42.5625 4.59376 41.8781 4.96876 41.8406 4.96876C41.8031 4.96876 41.5219 4.80001 41.2125 4.60314C40.9125 4.40626 40.5 4.16251 40.3031 4.07814L39.9375 3.90939V2.18439V0.468765H36.75H33.5625V2.18439ZM38.3438 3.55314V5.03439L39.0469 5.29689C39.8156 5.57814 40.6406 6.07501 41.2406 6.60939C41.4469 6.79689 41.6531 6.93751 41.7 6.91876C41.7375 6.90939 42.3188 6.58126 42.975 6.19689C44.1281 5.53126 44.1938 5.51251 44.3156 5.68126C44.5406 5.98126 45.75 8.12814 45.75 8.21251C45.75 8.25939 45.1969 8.60626 44.5219 8.99064L43.2938 9.68439L43.3781 10.2563C43.4625 10.875 43.4719 12.1969 43.4063 13.0688L43.3594 13.6219L44.4188 14.2406L45.4688 14.85V15.2531C45.4688 15.5813 45.3469 15.8625 44.85 16.7344L44.2219 17.8125L43.6969 17.5125C43.4063 17.3531 42.8344 17.0156 42.4219 16.7719L41.6719 16.3313L41.25 16.6781C40.5094 17.2875 39.9375 17.6344 39.15 17.9531L38.3906 18.2625L38.3625 19.725L38.3344 21.1875H36.75H35.1656L35.1375 19.7156L35.1094 18.2531L34.6219 18.0844C33.8625 17.8313 32.9063 17.2875 32.3719 16.8281C32.1094 16.5938 31.8375 16.4063 31.7813 16.4063C31.7156 16.4063 31.1156 16.725 30.4406 17.1094C29.775 17.5031 29.2219 17.8031 29.2031 17.7938C29.1938 17.775 28.8375 17.1563 28.4156 16.4156C27.8063 15.3563 27.6656 15.0563 27.7594 14.9906C27.8344 14.9438 28.4063 14.6063 29.0438 14.2406C30.1125 13.6219 30.1969 13.5563 30.1406 13.3406C29.9063 12.4031 29.9063 10.8844 30.15 9.89064C30.1875 9.73126 30.0094 9.60001 29.0906 9.07501C28.4813 8.72814 27.9094 8.39064 27.8156 8.32501C27.6656 8.21251 27.7125 8.10001 28.425 6.86251C28.8469 6.13126 29.2219 5.53126 29.2594 5.53126C29.2969 5.53126 29.8781 5.85001 30.5531 6.24376L31.7813 6.94689L32.3625 6.46876C32.9344 6.00939 34.3688 5.23126 34.9031 5.10001L35.1563 5.04376V3.55314V2.06252H36.75H38.3438V3.55314ZM28.3875 12.6281C28.3688 12.7125 27.7688 13.125 27 13.575C26.25 14.0063 25.6031 14.3906 25.5563 14.4375C25.4906 14.5031 28.3219 19.5844 28.6031 19.9031C28.6406 19.95 29.325 19.6031 30.1406 19.1344L31.6031 18.2813L31.9969 18.5531C32.2125 18.6938 32.6531 18.9563 32.9813 19.1156L33.5625 19.4063V21.0938V22.7813H36.75H39.9375V21.0563V19.3406L40.4156 19.1344C40.6781 19.0313 41.1 18.7875 41.3531 18.6L41.8125 18.2719L43.2844 19.125C44.9344 20.0719 44.7656 20.0625 45.2438 19.2656L45.4594 18.8906L45.4688 26.5031V34.125H42.7031H39.9375V37.3125V40.5H36.4969H33.0469L29.2781 36.5813C24.3281 31.4344 24.1781 31.2938 23.4844 31.0406C22.7156 30.75 21.6375 30.7969 20.9531 31.1438C20.5031 31.3781 19.6688 32.1563 19.575 32.4375C19.5469 32.5313 19.3219 32.3625 18.8813 31.9219C18.1031 31.1531 17.3063 30.6563 16.2656 30.3L15.5156 30.0469H10.575H5.62501V21.2531V12.4688H17.025C27.6469 12.4688 28.4156 12.4781 28.3875 12.6281ZM45.4688 12.7031C45.4688 12.9656 45.3938 12.9938 45.1406 12.8156C44.9438 12.6656 45.0281 12.4688 45.2906 12.4688C45.4219 12.4688 45.4688 12.5344 45.4688 12.7031ZM6.37501 33.3938C6.37501 35.3344 6.47813 36.1031 6.84376 36.8719C7.15313 37.5281 7.80001 38.2031 8.41876 38.5031C8.93438 38.7563 9.00938 38.7656 10.3594 38.7656C11.6344 38.7656 11.8125 38.7469 12.2531 38.5406C12.8156 38.2875 13.5656 37.5469 13.875 36.9281C14.2781 36.15 14.3438 35.6906 14.3438 33.5813C14.3438 31.3219 14.25 31.5188 15.2438 31.6969C16.5563 31.9313 17.9156 32.9344 18.5531 34.125C19.0875 35.1188 19.125 35.3906 19.125 38.4094V41.1563H10.3594H1.59376V38.5875C1.59376 37.1813 1.64063 35.7938 1.68751 35.5219C2.08126 33.4594 4.08751 31.6875 6.12188 31.6031L6.37501 31.5938V33.3938ZM9.56251 33.6094V35.625H10.3594H11.1563V33.6094V31.5938H11.9531H12.75V33.5344C12.7406 35.5969 12.6938 35.8875 12.2719 36.5156C11.925 37.0313 11.4375 37.2188 10.4438 37.2188C9.37501 37.2188 8.99063 37.1063 8.63438 36.6938C8.07188 36.0563 8.02501 35.8688 7.98751 33.6281L7.95001 31.5938H8.75626H9.56251V33.6094ZM23.0438 32.5688C23.1844 32.6438 23.4656 32.8781 23.6625 33.0844L24.0375 33.4688L23.7094 33.8063C23.5406 33.9938 23.0156 34.4813 22.5656 34.8938L21.7406 35.6531L21.4594 35.3813C20.9906 34.9313 20.7938 34.5375 20.7938 34.0406C20.7938 33.3938 21.1125 32.8781 21.7031 32.55C21.9656 32.4 22.7438 32.4094 23.0438 32.5688ZM25.1063 36.8813L23.9719 37.9969L23.4094 37.4156L22.8563 36.8438L24.0094 35.7188L25.1719 34.6031L25.7156 35.1844L26.25 35.7656L25.1063 36.8813ZM44.2406 35.9719C43.6031 36.6844 41.9344 38.5125 41.7469 38.7188L41.5313 38.9531V37.3313V35.7188H43.0031H44.475L44.2406 35.9719ZM29.6156 39.2344C30.8063 40.4719 31.7719 41.5031 31.7531 41.5313C31.7438 41.5594 31.2375 42.0656 30.6281 42.6563L29.5125 43.7344L27.6469 41.8125C26.6156 40.7531 25.6313 39.7219 25.4531 39.5063L25.125 39.1219L26.2313 38.0344C26.8313 37.4344 27.3563 36.9469 27.3938 36.9656C27.4313 36.975 28.425 37.9969 29.6156 39.2344ZM22.4906 38.7375C23.3719 39.6469 24.0938 40.4156 24.0938 40.4438C24.0938 40.4719 23.3344 40.5 22.4063 40.5H20.7188V38.7563C20.7188 37.7531 20.7563 37.0313 20.8031 37.05C20.85 37.0594 21.6094 37.8188 22.4906 38.7375ZM19.0969 43.275C18.9844 44.325 18.2063 45.2344 17.0156 45.675C16.4625 45.8813 16.3969 45.8906 10.65 45.9188C6.78751 45.9375 4.67813 45.9094 4.35938 45.8438C3.60938 45.6844 2.80313 45.2625 2.37188 44.7844C1.91251 44.2875 1.71563 43.8656 1.63126 43.2094L1.56563 42.75H10.3594H19.1531L19.0969 43.275ZM33.225 45.15C33.2813 45.3469 33.2438 45.3375 32.2219 44.9813C31.65 44.7844 31.1438 44.5781 31.0969 44.5406C31.0594 44.5031 31.3688 44.1375 31.7906 43.725L32.5594 42.9844L32.8688 43.9688C33.0375 44.5031 33.1969 45.0375 33.225 45.15Z" stroke="#00738E" stroke-width="0.6" mask="url(#path-1-outside-1_507_1632)"/>
<path d="M38.9436 9.59583L38.9434 9.59564C38.7624 9.38874 38.3863 9.10944 38.0621 8.94718C37.3704 8.61505 36.6299 8.53642 35.9464 8.72265C34.9612 9.00051 34.14 9.78039 33.856 10.7032C33.8559 10.7033 33.8559 10.7034 33.8559 10.7035L33.8493 10.725H36.6938C37.8848 10.725 38.6459 10.7179 39.1088 10.6993C39.3373 10.6901 39.4874 10.6783 39.5791 10.6643C39.5708 10.6379 39.5599 10.6069 39.5458 10.5714C39.5095 10.4802 39.4575 10.3718 39.3946 10.2567C39.2683 10.0257 39.1032 9.77765 38.9436 9.59583ZM34.7189 13.9012L34.7189 13.9012L34.7198 13.9019C35.0502 14.1864 35.3179 14.3613 35.6116 14.4675C35.9059 14.574 36.2378 14.6156 36.7031 14.6156C37.1921 14.6156 37.5396 14.5716 37.8448 14.4575C38.1489 14.3439 38.4231 14.1562 38.7577 13.8491C38.9419 13.6779 39.1566 13.4034 39.3259 13.1381C39.4102 13.006 39.4809 12.8797 39.53 12.7733C39.548 12.7345 39.5618 12.7007 39.5723 12.6721C39.564 12.6712 39.5553 12.6704 39.546 12.6695C39.4243 12.6581 39.238 12.6485 38.985 12.6409C38.4799 12.6258 37.7201 12.6187 36.7031 12.6187C35.8648 12.6187 35.1041 12.6258 34.5533 12.6363C34.2777 12.6416 34.0555 12.6477 33.9028 12.6542C33.8864 12.6549 33.8709 12.6556 33.8562 12.6563C33.868 12.6817 33.8816 12.7094 33.897 12.7393C33.9605 12.8626 34.0495 13.0135 34.1491 13.1679C34.3521 13.4824 34.5831 13.7859 34.7189 13.9012ZM34.3615 15.9561C33.2393 15.3368 32.2751 14.1039 31.9644 12.9101C31.8708 12.5604 31.8258 12.0965 31.8246 11.6453C31.8234 11.1945 31.866 10.7416 31.9552 10.4141C32.4193 8.66475 34.028 7.12965 35.7375 6.80889C37.4093 6.49 38.978 6.98458 40.1936 8.20017C42.1659 10.1724 42.1357 13.2215 40.1268 15.1822C38.6075 16.6723 36.2103 16.9915 34.3615 15.9561Z" fill="#00738E" stroke="#00738E" stroke-width="0.3"/>
<path d="M10.4062 18.9938H10.2562V18.8438V18.0469V17.25V17.1H10.4062H11.2031H12H12.15V17.25V18.0469V18.8438V18.9938H12H11.2031H10.4062Z" fill="#00738E" stroke="#00738E" stroke-width="0.3"/>
<path d="M13.5938 18.9938H13.4437V18.8438V18.0469V17.25V17.1H13.5938H14.3906H15.1875H15.3375V17.25V18.0469V18.8438V18.9938H15.1875H14.3906H13.5938Z" fill="#00738E" stroke="#00738E" stroke-width="0.3"/>
<path d="M16.7812 18.9938H16.6312V18.8438V18.0469V17.25V17.1H16.7812H17.5781H18.375H18.525V17.25V18.0469V18.8438V18.9938H18.375H17.5781H16.7812Z" fill="#00738E" stroke="#00738E" stroke-width="0.3"/>
<path d="M19.9688 18.9938H19.8187V18.8438V18.0469V17.25V17.1H19.9688H20.7656H21.5625H21.7125V17.25V18.0469V18.8438V18.9938H21.5625H20.7656H19.9688Z" fill="#00738E" stroke="#00738E" stroke-width="0.3"/>
<path d="M23.1562 18.9938H23.0062V18.8438V18.0469V17.25V17.1H23.1562H23.9531H24.75H24.9V17.25V18.0469V18.8438V18.9938H24.75H23.9531H23.1562Z" fill="#00738E" stroke="#00738E" stroke-width="0.3"/>
<path d="M10.4062 22.1813H10.2562V22.0312V21.2344V20.4375V20.2875H10.4062H11.2031H12H12.15V20.4375V21.2344V22.0312V22.1813H12H11.2031H10.4062Z" fill="#00738E" stroke="#00738E" stroke-width="0.3"/>
<path d="M10.4062 25.3688H10.2562V25.2188V24.4219V23.625V23.475H10.4062H11.2031H12H12.15V23.625V24.4219V25.2188V25.3688H12H11.2031H10.4062Z" fill="#00738E" stroke="#00738E" stroke-width="0.3"/>
<path d="M35.8031 24.4442L35.8028 24.4441L35.8065 24.436C35.8375 24.3662 35.8976 24.3274 35.9483 24.305C36.0005 24.282 36.0638 24.2669 36.1339 24.2561C36.2749 24.2343 36.4767 24.225 36.7498 24.225H37.4998H37.6498V24.375V25.2188V26.0719V26.2275L37.4943 26.2218L36.7256 26.1937L36.7256 26.1937L35.9475 26.1656L35.8087 26.1605L35.803 26.0217L35.7749 25.3286C35.7654 25.1334 35.763 24.9425 35.7666 24.7898C35.7684 24.7136 35.7718 24.6453 35.7767 24.59C35.7811 24.5413 35.7879 24.4848 35.8031 24.4442Z" fill="#00738E" stroke="#00738E" stroke-width="0.3"/>
<path d="M10.4062 28.5563H10.2562V28.4062V27.6094V26.8125V26.6625H10.4062H11.2031H12H12.15V26.8125V27.6094V28.4062V28.5563H12H11.2031H10.4062Z" fill="#00738E" stroke="#00738E" stroke-width="0.3"/>
<path d="M20.7188 28.5563H20.5687V28.4062V27.6094V26.8125V26.6625H20.7188H21.5156H22.3125H22.4625V26.8125V27.6094V28.4062V28.5563H22.3125H21.5156H20.7188Z" fill="#00738E" stroke="#00738E" stroke-width="0.3"/>
<path d="M35.9473 29.3531L35.8079 29.348L35.8028 29.2086L35.7747 28.4305L35.7747 28.4304L35.7466 27.6618L35.7409 27.5063H35.8965H36.7027H37.4996H37.6496V27.6563V28.4531V29.2594V29.415L37.4941 29.4093L36.7254 29.3812L36.7254 29.3812L35.9473 29.3531Z" fill="#00738E" stroke="#00738E" stroke-width="0.3"/>
<path d="M26.3438 32.5875H26.1937V32.4375V31.6406V30.8437V30.6937H26.3438H27.1406H27.9375H28.0875V30.8437V31.6406V32.4375V32.5875H27.9375H27.1406H26.3438Z" fill="#00738E" stroke="#00738E" stroke-width="0.3"/>
<path d="M29.5312 32.5875H29.3812V32.4375V31.6406V30.8437V30.6937H29.5312H30.3281H31.125H31.275V30.8437V31.6406V32.4375V32.5875H31.125H30.3281H29.5312Z" fill="#00738E" stroke="#00738E" stroke-width="0.3"/>
<path d="M32.7188 32.5875H32.5687V32.4375V31.6406V30.8437V30.6937H32.7188H33.5156H34.3125H34.4625V30.8437V31.6406V32.4375V32.5875H34.3125H33.5156H32.7188Z" fill="#00738E" stroke="#00738E" stroke-width="0.3"/>
<path d="M35.9062 32.5875H35.7562V32.4375V31.6406V30.8437V30.6937H35.9062H36.7031H37.5H37.65V30.8437V31.6406V32.4375V32.5875H37.5H36.7031H35.9062Z" fill="#00738E" stroke="#00738E" stroke-width="0.3"/>
</g>
<defs>
<clipPath id="clip0_507_1632">
<rect width="48" height="48" fill="white"/>
</clipPath>
</defs>
</svg>
