<svg width="40" height="40" viewBox="0 0 40 40" fill="none" xmlns="http://www.w3.org/2000/svg"><rect x=".5" y=".5" width="39" height="39" rx="19.5" fill="#fff" stroke="url(#a)"/><path d="m15.43 24.36 8.72-8.72m-8.174 2.187a1.64 1.64 0 1 0 0-3.28 1.64 1.64 0 0 0 0 3.28Zm8.719 7.626a1.64 1.64 0 1 0 0-3.28 1.64 1.64 0 0 0 0 3.28Z" stroke="gray" stroke-width="1.5" stroke-linecap="round" stroke-linejoin="round"/><path d="M19.997 33.333c7.364 0 13.334-5.97 13.334-13.333 0-7.364-5.97-13.334-13.334-13.334-7.363 0-13.333 5.97-13.333 13.334s5.97 13.333 13.333 13.333Z" stroke="gray" stroke-width="1.5" stroke-linecap="round" stroke-linejoin="round"/><defs><linearGradient id="a" x1="24.423" y1="27.069" x2="24.423" y2="38.02" gradientUnits="userSpaceOnUse"><stop stop-color="#fff"/><stop offset="1" stop-color="#fff" stop-opacity="0"/></linearGradient></defs></svg>