<svg width="24" height="24" viewBox="0 0 24 24" fill="none" xmlns="http://www.w3.org/2000/svg">
<circle cx="12" cy="12" r="12" fill="black"/>
<path d="M18.9332 16.1756C18.9056 16.0946 18.8413 15.9697 18.7953 15.8979C18.5059 15.4584 16.9508 14.2347 16.1744 13.8345C15.7311 13.6054 15.4026 13.5291 15.1591 13.6007C14.8972 13.6748 14.7594 13.7974 14.3207 14.3457C14.1438 14.5655 13.9624 14.7713 13.9142 14.8037C13.7947 14.887 13.5604 14.9541 13.395 14.9541C13.0114 14.9518 12.3154 14.7019 11.7802 14.3734C11.3644 14.119 10.8315 13.6633 10.4226 13.2121C9.94025 12.6824 9.61178 12.2151 9.35225 11.6876C9.01686 11.0099 8.9319 10.5958 9.07199 10.2927C9.10646 10.2164 9.1524 10.1354 9.17305 10.1099C9.1937 10.0868 9.40965 9.90867 9.64853 9.71432C10.1172 9.33961 10.193 9.25405 10.2802 8.99727C10.3904 8.67099 10.3606 8.33789 10.1907 8.00246C10.0597 7.74801 9.71748 7.19281 9.46941 6.83424C9.14094 6.36234 8.32316 5.35371 8.16006 5.21718C7.86606 4.97662 7.48936 4.93495 7.07356 5.09692C6.63486 5.26811 5.8125 5.93435 5.46104 6.39934C5.14406 6.82036 5.02235 7.11878 5.00396 7.51205C4.98789 7.83591 5.01544 7.97008 5.18543 8.38417C6.51541 11.6321 8.5 14.2254 11.2266 16.2843C12.6507 17.36 14.1277 18.1789 15.6599 18.7388C16.5534 19.0649 16.9416 19.0811 17.3987 18.8128C17.5916 18.6971 18.0694 18.2044 18.3359 17.8458C18.7769 17.249 18.94 16.9737 18.9859 16.7539C19.0181 16.6036 18.9928 16.3421 18.9332 16.1756Z" fill="white"/>
</svg>
