<svg width="23" height="22" viewBox="0 0 23 22" fill="none" xmlns="http://www.w3.org/2000/svg">
<path d="M21.7799 18.4867C20.5334 21.4751 17.6108 21.9988 16.6558 21.9988C16.3753 21.9988 12.0077 22.2303 5.72925 16.2749C0.676513 11.4821 0.0591331 6.3281 0.00534156 5.34885C-0.0469829 4.39503 0.226131 2.00228 3.51768 0.22447C3.92552 0.00416872 4.73411 -0.0933896 4.94291 0.115419C5.03558 0.208088 7.79827 4.75421 7.87089 4.90482C7.94351 5.05519 7.97994 5.20337 7.97994 5.3486C7.97994 5.55619 7.83201 5.81586 7.53591 6.12736C7.24006 6.43886 6.91829 6.72444 6.57035 6.98387C6.22242 7.24353 5.90065 7.5186 5.60455 7.80932C5.3087 8.0998 5.16077 8.33892 5.16077 8.52573C5.18082 9.01058 5.57815 10.7473 8.6049 13.4068C11.6321 16.0671 13.0904 16.8165 13.2305 16.8683C13.3708 16.9201 13.4875 16.9458 13.5809 16.9458C13.7679 16.9458 14.0068 16.7981 14.2975 16.5023C14.588 16.2062 15.5653 14.8668 15.8768 14.5707C16.1883 14.2751 16.4479 14.1271 16.6558 14.1271C16.801 14.1271 16.9489 14.1633 17.0993 14.2359C17.2499 14.3086 21.8019 16.9722 21.889 17.0612C22.1252 17.3033 21.9584 18.0588 21.7799 18.4867Z" fill="black"/>
</svg>
