<svg width="24" height="25" viewBox="0 0 24 25" fill="none" xmlns="http://www.w3.org/2000/svg">
<path d="M4.6 8.00006C4.59941 7.11221 4.92246 6.25458 5.50866 5.58776C6.07827 4.93981 6.85839 4.51519 7.71003 4.38781L9.54316 8.66511L8.00707 11.0014L8.00684 11.0018C7.85636 11.2327 7.76808 11.4986 7.75056 11.7736C7.73304 12.0487 7.78687 12.3236 7.90684 12.5718L7.90706 12.5722C8.76996 14.335 10.1991 15.7574 11.9658 16.612L11.9664 16.6123C12.2154 16.7308 12.4908 16.783 12.7659 16.7637C13.0409 16.7444 13.3064 16.6544 13.5364 16.5023L13.5368 16.502L15.8355 14.9665L20.1123 16.7902C19.9849 17.6418 19.5603 18.4219 18.9124 18.9915C18.2455 19.5777 17.3879 19.9007 16.5001 19.9001C13.3447 19.8977 10.3193 18.6431 8.08817 16.412C5.85701 14.1808 4.60246 11.1554 4.6 8.00006ZM4.6 8.00006L4.5 8.00013M4.6 8.00006L4.5 8.00013M4.5 8.00013C4.4994 7.08795 4.8313 6.20683 5.43356 5.52173C6.03582 4.83664 6.86714 4.39456 7.77187 4.27825L4.5 8.00013ZM16.5 21.6001H16.5002C17.8013 21.5973 19.057 21.122 20.034 20.2628C21.011 19.4036 21.6427 18.2188 21.8117 16.9287L21.8119 16.9268C21.85 16.5829 21.7776 16.2359 21.6052 15.9359C21.4328 15.636 21.1693 15.3988 20.853 15.2587L20.8517 15.2581L16.4565 13.3839C16.4562 13.3837 16.4559 13.3836 16.4556 13.3835C16.2135 13.2751 15.9477 13.2302 15.6834 13.253C15.4189 13.2757 15.1645 13.3656 14.9443 13.5139C14.9443 13.514 14.9442 13.514 14.9441 13.5141L12.6393 15.0475C11.2658 14.3667 10.1506 13.2578 9.46193 11.8881L10.9862 9.55573C10.9863 9.55557 10.9865 9.55541 10.9866 9.55526C11.1337 9.33516 11.2235 9.08182 11.248 8.8182C11.2724 8.5544 11.2306 8.28867 11.1263 8.04514L11.1263 8.04511L9.24191 3.64824L9.24192 3.64823L9.24143 3.64713C9.10134 3.33081 8.86412 3.06734 8.56419 2.89492C8.26426 2.72251 7.9172 2.65011 7.57335 2.68824L7.57335 2.68822L7.57139 2.68848C6.28135 2.85747 5.09657 3.48918 4.23734 4.46614C3.3781 5.44311 2.90287 6.69885 2.9 7.99991V8.00013C2.9 15.4991 9.00102 21.6001 16.5 21.6001Z" fill="#00738E" stroke="#00738E" stroke-width="0.2"/>
</svg>
