<svg width="32" height="33" viewBox="0 0 32 33" fill="none" xmlns="http://www.w3.org/2000/svg">
<path d="M11.1737 12.667C12.1017 14.5998 13.3667 16.4114 14.9689 18.0135C16.571 19.6156 18.3825 20.8806 20.3153 21.8086C20.4816 21.8884 20.5647 21.9284 20.6699 21.959C21.0437 22.068 21.5027 21.9897 21.8193 21.763C21.9083 21.6992 21.9846 21.623 22.137 21.4706C22.6031 21.0045 22.8362 20.7714 23.0706 20.619C23.9544 20.0444 25.0938 20.0444 25.9777 20.619C26.2121 20.7714 26.4451 21.0045 26.9113 21.4706L27.1711 21.7304C27.8797 22.439 28.234 22.7933 28.4265 23.1738C28.8092 23.9306 28.8092 24.8243 28.4265 25.581C28.234 25.9615 27.8797 26.3158 27.1711 27.0244L26.9609 27.2346C26.2548 27.9408 25.9017 28.2938 25.4216 28.5635C24.889 28.8627 24.0616 29.0779 23.4507 29.0761C22.9001 29.0744 22.5238 28.9676 21.7712 28.754C17.7267 27.606 13.9102 25.4401 10.7262 22.2561C7.54224 19.0721 5.37627 15.2557 4.22831 11.2111C4.0147 10.4585 3.9079 10.0822 3.90626 9.53164C3.90444 8.92068 4.11959 8.09336 4.41882 7.56068C4.68848 7.08064 5.04157 6.72756 5.74773 6.02139L5.95791 5.81121C6.6665 5.10262 7.02079 4.74833 7.4013 4.55587C8.15805 4.17311 9.05174 4.17311 9.80848 4.55587C10.189 4.74833 10.5433 5.10262 11.2519 5.81121L11.5117 6.07104C11.9778 6.53718 12.2109 6.77025 12.3633 7.00462C12.938 7.88848 12.938 9.02792 12.3633 9.91177C12.2109 10.1461 11.9778 10.3792 11.5117 10.8454C11.3593 10.9978 11.2831 11.074 11.2193 11.1631C10.9926 11.4796 10.9143 11.9386 11.0233 12.3124C11.054 12.4176 11.0939 12.5008 11.1737 12.667Z" stroke="#00AE84" stroke-width="2" stroke-linecap="round" stroke-linejoin="round"/>
</svg>
