<svg width="12" height="3" viewBox="0 0 12 3" fill="none" xmlns="http://www.w3.org/2000/svg">
<path d="M1.59517 2.09091C1.31487 2.09091 1.07434 1.99053 0.87358 1.78977C0.672822 1.58902 0.572443 1.34848 0.572443 1.06818C0.572443 0.787879 0.672822 0.547348 0.87358 0.346591C1.07434 0.145833 1.31487 0.0454545 1.59517 0.0454545C1.87547 0.0454545 2.116 0.145833 2.31676 0.346591C2.51752 0.547348 2.6179 0.787879 2.6179 1.06818C2.6179 1.25379 2.57055 1.42424 2.47585 1.57955C2.38494 1.73485 2.26184 1.85985 2.10653 1.95455C1.95502 2.04545 1.78456 2.09091 1.59517 2.09091ZM6.00142 2.09091C5.72112 2.09091 5.48059 1.99053 5.27983 1.78977C5.07907 1.58902 4.97869 1.34848 4.97869 1.06818C4.97869 0.787879 5.07907 0.547348 5.27983 0.346591C5.48059 0.145833 5.72112 0.0454545 6.00142 0.0454545C6.28172 0.0454545 6.52225 0.145833 6.72301 0.346591C6.92377 0.547348 7.02415 0.787879 7.02415 1.06818C7.02415 1.25379 6.9768 1.42424 6.8821 1.57955C6.79119 1.73485 6.66809 1.85985 6.51278 1.95455C6.36127 2.04545 6.19081 2.09091 6.00142 2.09091ZM10.4077 2.09091C10.1274 2.09091 9.88684 1.99053 9.68608 1.78977C9.48532 1.58902 9.38494 1.34848 9.38494 1.06818C9.38494 0.787879 9.48532 0.547348 9.68608 0.346591C9.88684 0.145833 10.1274 0.0454545 10.4077 0.0454545C10.688 0.0454545 10.9285 0.145833 11.1293 0.346591C11.33 0.547348 11.4304 0.787879 11.4304 1.06818C11.4304 1.25379 11.383 1.42424 11.2884 1.57955C11.1974 1.73485 11.0743 1.85985 10.919 1.95455C10.7675 2.04545 10.5971 2.09091 10.4077 2.09091Z" fill="#7E5EFF"/>
</svg>
