<svg width="24" height="24" viewBox="0 0 24 24" fill="none" xmlns="http://www.w3.org/2000/svg">
<g clip-path="url(#clip0_517_1644)">
<path d="M3.4043 12.8646L10.1543 18.4896C10.8785 19.0908 12 18.5881 12 17.6248L12 6.37478C12 5.41149 10.8785 4.90524 10.1543 5.50993L3.4043 11.1349C2.86641 11.5849 2.86641 12.4146 3.4043 12.8646V12.8646ZM12.4043 12.8646L19.1543 18.4896C19.8785 19.0908 21 18.5881 21 17.6248L21 6.37478C21 5.4115 19.8785 4.90525 19.1543 5.50993L12.4043 11.1349C11.8664 11.5849 11.8664 12.4146 12.4043 12.8646V12.8646Z" fill="white"/>
</g>
<defs>
<clipPath id="clip0_517_1644">
<rect width="18" height="18" fill="white" transform="translate(21 21) rotate(-180)"/>
</clipPath>
</defs>
</svg>
