<svg width="32" height="32" viewBox="0 0 32 32" fill="none" xmlns="http://www.w3.org/2000/svg">
<circle cx="16" cy="16" r="16" fill="#7D192F"/>
<path d="M16.285 6.3999C14.5078 6.3999 13.0732 6.8045 11.9845 7.61369C10.9037 8.41532 10.3752 9.61643 10.3992 11.2195L10.4232 11.2914H14.3763C14.3922 10.6671 14.5791 10.1979 14.9393 9.8818C15.2996 9.56593 15.7485 9.40667 16.285 9.40667C16.9494 9.40667 17.462 9.60028 17.8224 9.98565C18.1826 10.371 18.3613 10.8875 18.3613 11.5349C18.3613 12.1593 18.2064 12.7103 17.8942 13.1881C17.59 13.6661 17.1688 14.0664 16.6323 14.39C15.5917 15.0914 14.8764 15.7113 14.484 16.2509C14.0919 16.7904 13.8891 17.5953 13.8811 18.6666H17.942C17.942 18.0269 18.0295 17.5231 18.2057 17.1533C18.3897 16.7755 18.7396 16.4228 19.2519 16.0989C20.1725 15.6365 20.9275 14.9997 21.5198 14.1903C22.1202 13.3811 22.4224 12.4985 22.4224 11.5349C22.4224 9.96255 21.8739 8.71033 20.7773 7.78542C19.6884 6.86052 18.1904 6.3999 16.285 6.3999ZM13.8572 20.711V24.7999H17.9461V20.711H13.8572Z" fill="white"/>
</svg>
