<svg width="26" height="26" viewBox="0 0 26 26" fill="none" xmlns="http://www.w3.org/2000/svg">
<circle cx="13" cy="13" r="13" fill="black"/>
<path d="M13.2359 5.2002C11.7919 5.2002 10.6263 5.52893 9.7418 6.1864C8.86366 6.83772 8.43426 7.81362 8.45376 9.1161L8.47323 9.17457H11.6851C11.6981 8.66727 11.8499 8.28604 12.1426 8.02923C12.4353 7.77259 12.8001 7.64319 13.2359 7.64319C13.7758 7.64319 14.1923 7.8005 14.4851 8.11362C14.7778 8.42674 14.923 8.84633 14.923 9.37241C14.923 9.87971 14.7971 10.3274 14.5434 10.7156C14.2962 11.1039 13.954 11.4292 13.5182 11.6921C12.6727 12.2621 12.0914 12.7657 11.7727 13.2041C11.4541 13.6425 11.2893 14.2964 11.2828 15.1669H14.5823C14.5823 14.6471 14.6534 14.2378 14.7966 13.9373C14.9461 13.6303 15.2303 13.3438 15.6466 13.0807C16.3946 12.7049 17.008 12.1875 17.4892 11.5299C17.9771 10.8724 18.2226 10.1553 18.2226 9.37241C18.2226 8.09485 17.7769 7.07742 16.8859 6.32593C16.0012 5.57444 14.7841 5.2002 13.2359 5.2002ZM11.2634 16.828V20.1502H14.5856V16.828H11.2634Z" fill="white"/>
</svg>
