<svg width="19" height="15" viewBox="0 0 19 15" fill="none" xmlns="http://www.w3.org/2000/svg">
<path d="M4.4475 0.341263C2.09684 0.327017 0 2.30273 0 4.78927C0 7.24468 1.9922 9.23728 4.4475 9.23728C4.57338 9.23728 4.69926 9.22783 4.82266 9.21823C3.7209 10.56 2.05163 11.4172 0.187742 11.4172V14.0865C4.96767 14.0865 8.85462 10.1825 8.85462 5.38299C9.10887 2.67098 6.97903 0.357835 4.44783 0.341296L4.4475 0.341263Z" fill="black"/>
<path d="M10.3128 11.4168V14.0861C15.0928 14.0861 18.9797 10.1821 18.9797 5.38259C19.2338 2.67058 17.1015 0.355315 14.5725 0.340897C12.2217 0.326651 10.125 2.30253 10.125 4.7889C10.125 7.24432 12.1172 9.23691 14.5725 9.23691C14.6984 9.23691 14.8243 9.22747 14.9477 9.21786C13.8437 10.5595 12.1743 11.4168 10.3127 11.4168L10.3128 11.4168Z" fill="black"/>
</svg>
