<svg width="62" height="48" viewBox="0 0 62 48" fill="none" xmlns="http://www.w3.org/2000/svg">
<path d="M50.6696 19.6654C51.2168 19.2086 51.675 18.5511 51.675 17.5679V9.2998C51.675 7.6 50.2743 6.19927 48.5745 6.19927H36.1747V3.09686C36.1747 1.39706 34.768 0.000461388 33.0682 0.000461388L18.6038 0C16.904 0 15.5074 1.3966 15.5074 3.09639V6.19881L3.10053 6.19927C1.40073 6.19927 0 7.6 0 9.2998V17.5679C0 18.4325 0.42355 19.2026 0.974912 19.6852C1.52627 20.1678 2.17225 20.4345 2.80381 20.6237L18.2923 25.5148C19.6382 25.9933 20.2906 23.9254 18.9138 23.5447L3.40404 18.648C2.93204 18.5068 2.5454 18.3111 2.33731 18.1294C2.12923 17.9471 2.06694 17.8488 2.06694 17.5683V9.30024C2.06694 8.70966 2.51033 8.26673 3.10045 8.26673L48.5749 8.26627C49.1654 8.26627 49.6084 8.7092 49.6084 9.29978V17.5679C49.6084 17.7496 49.5645 17.8945 49.344 18.0786C49.1262 18.2604 48.705 18.468 48.2076 18.6678L32.7616 23.5447C31.3849 23.9253 32.0373 25.9932 33.3831 25.5148L48.9224 20.6065C49.5148 20.3708 50.1234 20.1216 50.6706 19.6649L50.6696 19.6654ZM18.6025 2.06736H33.0669C33.6575 2.06736 34.1046 2.50661 34.1046 3.09671V6.19913H17.5637V3.09671C17.5637 2.50614 18.0108 2.06736 18.6014 2.06736H18.6025ZM22.7384 20.6658C22.1635 20.664 21.6975 21.1304 21.7008 21.7053V28.938C21.7008 31.2103 23.5625 33.072 25.8348 33.072C28.1071 33.072 29.9707 31.2103 29.9707 28.938V21.7053C29.9739 21.1337 29.513 20.6681 28.9414 20.6658H22.7384ZM3.08521 22.7185C2.51032 22.7222 2.05078 23.1975 2.06185 23.7724V44.4402C2.06185 46.14 3.4686 47.5366 5.1684 47.5366H39.2695C40.6172 47.5052 40.6172 45.4995 39.2695 45.4696H5.1684C4.57782 45.4696 4.12889 45.0303 4.12889 44.4402V23.7724C4.14042 23.1896 3.66797 22.713 3.08523 22.7186L3.08521 22.7185ZM47.5462 23.7747V25.8901C44.0623 26.1185 42.923 27.8709 40.3135 27.9087C39.3529 27.9087 38.3184 27.528 37.9379 27.176C36.8799 26.1993 35.5603 27.7518 36.4827 28.6413C37.1646 29.2988 38.2198 29.6693 38.798 29.7999L35.231 37.8276C35.1743 37.96 35.1466 38.1035 35.1484 38.2475C35.1484 38.2475 35.1341 39.4928 35.7741 40.7727C36.414 42.0526 37.752 43.4109 40.3118 43.4109C42.8716 43.4109 44.2115 42.0526 44.8515 40.7727C45.4914 39.4928 45.4753 38.2475 45.4753 38.2475C45.4771 38.1035 45.4494 37.96 45.3927 37.8276L41.8279 29.8059C43.9412 29.4705 45.1827 27.9137 48.5661 27.9124C51.9624 27.9161 53.2035 29.4779 55.3204 29.8138L51.7557 37.8355C51.6989 37.9679 51.6708 38.1114 51.6731 38.2554C51.6731 38.2554 51.6569 39.5007 52.2969 40.7806C52.9368 42.0605 54.2767 43.4188 56.8365 43.4188C59.3963 43.4188 60.7343 42.0605 61.3743 40.7806C62.0147 39.5007 61.9999 38.2554 61.9999 38.2554C62.0018 38.1114 61.9741 37.9679 61.9173 37.8355L58.3504 29.8078C58.9285 29.6768 59.9837 29.3067 60.6657 28.6493C61.588 27.7597 60.2684 26.2071 59.2105 27.1839C58.8294 27.536 57.7955 27.9166 56.8348 27.9166C54.2252 27.8774 53.0861 26.1264 49.6021 25.898V23.7826C49.6086 23.2114 49.1537 22.7431 48.5746 22.7329C47.9956 22.7348 47.5407 23.2035 47.5471 23.7743L47.5462 23.7747ZM23.7672 22.7347H27.9012V28.9376C27.9012 30.1008 26.9974 31.0046 25.8342 31.0046C24.6711 31.0046 23.7672 30.1008 23.7672 28.9376V22.7347ZM48.5773 29.9615C48.0606 29.9615 47.5457 30.3061 47.5457 30.995V45.4806L43.3591 45.4802C41.9639 45.5752 42.0589 47.5813 43.4075 47.5472H48.5649V47.555H53.7385C55.0871 47.5901 55.1822 45.5831 53.7869 45.488H49.6008V31.0023C49.6008 30.3186 49.0942 29.9762 48.5816 29.9707V29.9591L48.5773 29.9615ZM40.3112 31.4873L42.8506 37.2081H37.774L40.3112 31.4873ZM56.8355 31.4951L59.3726 37.2159H54.296L56.8355 31.4951ZM37.3972 39.2769H43.2287C43.2287 39.2769 42.8642 41.3439 40.3141 41.3439C37.7635 41.3439 37.3972 39.2769 37.3972 39.2769ZM53.9192 39.2847H59.7507C59.7507 39.2847 59.3843 41.3518 56.8338 41.3518C54.2833 41.3518 53.9192 39.2847 53.9192 39.2847Z" fill="#7D192F"/>
</svg>
