<svg width="62" height="54" viewBox="0 0 62 54" fill="none" xmlns="http://www.w3.org/2000/svg">
<path d="M38.4709 52.1167C38.4709 52.3774 38.3673 52.6277 38.183 52.812C37.9986 52.9964 37.7484 53.1 37.4876 53.1H4.91667C3.61327 53.0987 2.36348 52.5798 1.44162 51.6584C0.520189 50.7365 0.00134857 49.4867 0 48.1833V4.91668C0.00131699 3.61329 0.520201 2.3635 1.44162 1.44164C2.3635 0.520206 3.61327 0.0013663 4.91667 1.77265e-05H30.8205C32.1251 -0.00349418 33.3771 0.514947 34.2977 1.43984L39.8596 7.0027C40.7846 7.92282 41.3035 9.17435 41.2999 10.4791V25.9045C41.2999 26.4475 40.8596 26.8878 40.3166 26.8878C39.7735 26.8878 39.3332 26.4475 39.3332 25.9045V10.4791C39.331 10.2618 39.3047 10.0449 39.2542 9.83334H34.4165C33.6343 9.83246 32.8844 9.52122 32.3313 8.96853C31.7786 8.41541 31.4674 7.66559 31.4665 6.88331V2.04351C31.2545 1.99434 31.0376 1.96844 30.8203 1.96669H4.91651C4.13423 1.96756 3.38442 2.2788 2.83128 2.83149C2.27859 3.38462 1.96735 4.13443 1.96647 4.91672V48.1834C1.96735 48.9657 2.27859 49.7155 2.83128 50.2686C3.38441 50.8213 4.13422 51.1325 4.91651 51.1334H37.4874C37.7482 51.1334 37.9984 51.237 38.1828 51.4214C38.3672 51.6058 38.4709 51.8559 38.4709 52.1167ZM33.4333 3.35684V6.88324C33.4338 7.42626 33.8736 7.86613 34.4167 7.86657H37.9426L33.4333 3.35684Z" fill="#7D192F"/>
<path fill-rule="evenodd" clip-rule="evenodd" d="M61.4213 24.5746C61.9291 25.1012 61.9139 25.9399 61.3872 26.4477L41.9053 45.2339L30.388 33.7166C29.8707 33.1993 29.8707 32.3605 30.388 31.8432C30.9053 31.3259 31.7441 31.3259 32.2614 31.8432L41.939 41.5208L59.5482 24.5406C60.0749 24.0327 60.9135 24.048 61.4213 24.5746Z" fill="#7D192F"/>
<path fill-rule="evenodd" clip-rule="evenodd" d="M7 9C7 8.44772 7.44772 8 8 8H26C26.5523 8 27 8.44772 27 9C27 9.55228 26.5523 10 26 10H8C7.44772 10 7 9.55228 7 9Z" fill="#7D192F"/>
<path fill-rule="evenodd" clip-rule="evenodd" d="M7 23C7 22.4477 7.44772 22 8 22H34C34.5523 22 35 22.4477 35 23C35 23.5523 34.5523 24 34 24H8C7.44772 24 7 23.5523 7 23Z" fill="#7D192F"/>
<path fill-rule="evenodd" clip-rule="evenodd" d="M7 44C7 43.4477 7.44772 43 8 43H34C34.5523 43 35 43.4477 35 44C35 44.5523 34.5523 45 34 45H8C7.44772 45 7 44.5523 7 44Z" fill="#7D192F"/>
<path fill-rule="evenodd" clip-rule="evenodd" d="M7 16C7 15.4477 7.44772 15 8 15H16C16.5523 15 17 15.4477 17 16C17 16.5523 16.5523 17 16 17H8C7.44772 17 7 16.5523 7 16Z" fill="#7D192F"/>
<path fill-rule="evenodd" clip-rule="evenodd" d="M7 37C7 36.4477 7.44772 36 8 36H15C15.5523 36 16 36.4477 16 37C16 37.5523 15.5523 38 15 38H8C7.44772 38 7 37.5523 7 37Z" fill="#7D192F"/>
<path fill-rule="evenodd" clip-rule="evenodd" d="M7 30C7 29.4477 7.44772 29 8 29H23C23.5523 29 24 29.4477 24 30C24 30.5523 23.5523 31 23 31H8C7.44772 31 7 30.5523 7 30Z" fill="#7D192F"/>
<path fill-rule="evenodd" clip-rule="evenodd" d="M19 16C19 15.4477 19.4477 15 20 15H34C34.5523 15 35 15.4477 35 16C35 16.5523 34.5523 17 34 17H20C19.4477 17 19 16.5523 19 16Z" fill="#7D192F"/>
<path fill-rule="evenodd" clip-rule="evenodd" d="M18 37C18 36.4477 18.4477 36 19 36L27 36C27.5523 36 28 36.4477 28 37C28 37.5523 27.5523 38 27 38L19 38C18.4477 38 18 37.5523 18 37Z" fill="#7D192F"/>
</svg>
