<svg width="55" height="55" viewBox="0 0 55 55" fill="none" xmlns="http://www.w3.org/2000/svg">
<path d="M4.80082 44H22.9172C23.4234 44 23.8338 43.5896 23.8338 43.0834C23.8338 42.5772 23.4234 42.1667 22.9172 42.1667H4.80082C4.29011 42.1651 3.7884 42.3067 3.35386 42.5751C2.91927 42.844 2.56815 43.229 2.34103 43.6865L1.83441 44.7002V4.79977L5.09102 11.3134C5.31814 11.7709 5.66925 12.156 6.10385 12.4248C6.53844 12.6933 7.04015 12.8349 7.55081 12.8332H18.3339V14.8355C17.5117 15.1261 16.8762 15.7894 16.6208 16.6234C16.3659 17.457 16.521 18.3626 17.0395 19.0636C17.5584 19.7646 18.3784 20.1779 19.2505 20.1779C20.1225 20.1779 20.9426 19.7646 21.4614 19.0636C21.9799 18.3626 22.135 17.457 21.8801 16.6234C21.6247 15.7894 20.9892 15.126 20.167 14.8355V12.8332H30.9501C31.4608 12.8349 31.9625 12.6933 32.397 12.4248C32.8316 12.156 33.1828 11.7709 33.4099 11.3134L36.6665 4.79977V13.7499C36.6665 14.2561 37.0769 14.6666 37.5831 14.6666C38.0894 14.6666 38.4998 14.2561 38.4998 13.7499V2.75001C38.499 2.02078 38.2089 1.3218 37.6936 0.806169C37.178 0.290953 36.479 0.000817137 35.7498 0H2.75001C2.02078 0.000818395 1.3218 0.290953 0.806169 0.806169C0.290954 1.32179 0.000817137 2.02077 0 2.75001V46.7497C0.000818395 47.479 0.290954 48.1779 0.806169 48.6936C1.32179 49.2088 2.02077 49.4989 2.75001 49.4997H22.9165C23.4228 49.4997 23.8332 49.0893 23.8332 48.5831C23.8332 48.0769 23.4228 47.6664 22.9165 47.6664H2.75001C2.64116 47.6644 2.53354 47.6427 2.43204 47.6022L3.97968 44.5064H3.98009C4.13437 44.1949 4.45233 43.9985 4.79976 43.9998L4.80082 44ZM19.2505 18.3335C18.8798 18.3335 18.5454 18.1101 18.4039 17.7676C18.2618 17.4251 18.34 17.031 18.6023 16.7687C18.8646 16.5063 19.2587 16.4282 19.6012 16.5702C19.9438 16.7118 20.1672 17.0461 20.1672 17.4169C20.1668 17.9231 19.7567 18.3331 19.2505 18.3335ZM35.7504 1.83365C35.8593 1.83569 35.9669 1.85738 36.0684 1.89789L31.7708 10.4937H31.7704C31.6161 10.8051 31.2981 11.0015 30.9507 11.0003H20.1676V8.99797C20.9898 8.70742 21.6253 8.04407 21.8807 7.21011C22.136 6.37653 21.9805 5.47087 21.462 4.76991C20.9436 4.06895 20.1231 3.65515 19.2511 3.65515C18.379 3.65515 17.559 4.06887 17.0404 4.76991C16.5215 5.47091 16.3664 6.37611 16.6213 7.21011C16.8767 8.04411 17.5122 8.70747 18.3344 8.99797V11.0003H7.55132C7.20389 11.0015 6.88592 10.8051 6.73165 10.4937L2.43361 1.89789C2.5351 1.85738 2.64273 1.83569 2.75158 1.83365H35.7504ZM19.2505 7.33361C18.8798 7.33361 18.5454 7.11017 18.4039 6.76766C18.2618 6.42514 18.34 6.03106 18.6023 5.76874C18.8646 5.50642 19.2587 5.42826 19.6012 5.57027C19.9438 5.71186 20.1672 6.0462 20.1672 6.41695C20.1668 6.92315 19.7567 7.3332 19.2505 7.33361ZM53.6573 23.0279L48.4724 17.843C47.6147 16.9808 46.4472 16.4971 45.231 16.5004H30.2501C29.0351 16.5017 27.8701 16.9854 27.0107 17.8443C26.1518 18.7037 25.6681 19.8687 25.6668 21.0837V50.4169C25.6681 51.6319 26.1518 52.7969 27.0107 53.6563C27.8701 54.5153 29.0351 54.9989 30.2501 55.0002H50.4167C51.6317 54.9989 52.7967 54.5152 53.6561 53.6563C54.5151 52.7969 54.9987 51.6319 55 50.4169V26.2694C55.0033 25.0532 54.5196 23.8857 53.6574 23.028L53.6573 23.0279ZM51.8706 23.8336H48.5832C48.077 23.8332 47.667 23.4232 47.6666 22.917V19.6297L51.8706 23.8336ZM53.1666 50.4168C53.1657 51.146 52.8756 51.845 52.3604 52.3606C51.8448 52.8759 51.1458 53.166 50.4165 53.1668H30.25C29.5208 53.166 28.8218 52.8759 28.3062 52.3606C27.791 51.845 27.5008 51.146 27.5 50.4168V21.0837C27.5008 20.3544 27.791 19.6555 28.3062 19.1398C28.8218 18.6246 29.5208 18.3345 30.25 18.3337H45.2309C45.4334 18.3353 45.6356 18.3594 45.8332 18.4053V22.9169C45.8341 23.6461 46.1242 24.3451 46.6394 24.8608C47.155 25.376 47.854 25.6661 48.5832 25.6669H53.0949C53.1407 25.8646 53.1649 26.0667 53.1665 26.2693L53.1666 50.4168ZM49.4999 35.7502C49.4999 35.9933 49.4033 36.2266 49.2315 36.3984C49.0596 36.5703 48.8263 36.6669 48.5832 36.6669H32.0834C31.5772 36.6669 31.1667 36.2564 31.1667 35.7502C31.1667 35.244 31.5772 34.8336 32.0834 34.8336H48.5832C48.8263 34.8336 49.0596 34.9302 49.2315 35.102C49.4033 35.2739 49.4999 35.5072 49.4999 35.7502ZM31.1667 24.7503C31.1667 24.5072 31.2633 24.274 31.4352 24.1021C31.607 23.9302 31.8403 23.8336 32.0834 23.8336H42.1666C42.6728 23.8336 43.0833 24.2441 43.0833 24.7503C43.0833 25.2565 42.6728 25.667 42.1666 25.667H32.0834C31.8403 25.667 31.607 25.5704 31.4352 25.3985C31.2633 25.2266 31.1667 24.9934 31.1667 24.7503ZM49.4999 30.2503C49.4999 30.4933 49.4033 30.7266 49.2315 30.8985C49.0596 31.0704 48.8263 31.1669 48.5832 31.1669H41.25C40.7438 31.1669 40.3333 30.7565 40.3333 30.2503C40.3333 29.7441 40.7438 29.3336 41.25 29.3336H48.5832C48.8263 29.3336 49.0596 29.4302 49.2315 29.6021C49.4033 29.7739 49.4999 30.0072 49.4999 30.2503ZM49.4999 41.2502C49.4999 41.4933 49.4033 41.7265 49.2315 41.8984C49.0596 42.0703 48.8263 42.1669 48.5832 42.1669H41.25C40.7438 42.1669 40.3333 41.7564 40.3333 41.2502C40.3333 40.744 40.7438 40.3335 41.25 40.3335H48.5832C48.8263 40.3335 49.0596 40.4301 49.2315 40.602C49.4033 40.7739 49.4999 41.0071 49.4999 41.2502ZM31.1667 30.2503C31.1667 30.0072 31.2633 29.7739 31.4352 29.6021C31.607 29.4302 31.8403 29.3336 32.0834 29.3336H37.5833C38.0895 29.3336 38.5 29.7441 38.5 30.2503C38.5 30.7565 38.0895 31.1669 37.5833 31.1669H32.0834C31.8403 31.1669 31.607 31.0704 31.4352 30.8985C31.2633 30.7266 31.1667 30.4933 31.1667 30.2503ZM31.1667 41.2502C31.1667 41.0071 31.2633 40.7739 31.4352 40.602C31.607 40.4301 31.8403 40.3335 32.0834 40.3335H37.5833C38.0895 40.3335 38.5 40.744 38.5 41.2502C38.5 41.7564 38.0895 42.1669 37.5833 42.1669H32.0834C31.8403 42.1669 31.607 42.0703 31.4352 41.8984C31.2633 41.7265 31.1667 41.4933 31.1667 41.2502ZM49.4999 46.7502C49.4999 46.9932 49.4033 47.2265 49.2315 47.3984C49.0596 47.5702 48.8263 47.6668 48.5832 47.6668H32.0834C31.5772 47.6668 31.1667 47.2564 31.1667 46.7502C31.1667 46.244 31.5772 45.8335 32.0834 45.8335H48.5832C48.8263 45.8335 49.0596 45.9301 49.2315 46.102C49.4033 46.2738 49.4999 46.5071 49.4999 46.7502Z" fill="#7D192F"/>
</svg>
