<svg width="54" height="54" viewBox="0 0 54 54" fill="none" xmlns="http://www.w3.org/2000/svg">
<path d="M22.2008 12.6304H13.6925C13.4104 12.6304 13.1398 12.7424 12.9404 12.9418C12.741 13.1412 12.6289 13.4119 12.6289 13.6939V22.2023C12.6289 22.4843 12.741 22.7549 12.9404 22.9544C13.1398 23.1538 13.4104 23.2658 13.6925 23.2658H22.2008C22.4828 23.2658 22.7535 23.1538 22.9529 22.9544C23.1523 22.7549 23.2644 22.4843 23.2644 22.2023V13.6939C23.2644 13.4119 23.1523 13.1412 22.9529 12.9418C22.7535 12.7424 22.4828 12.6304 22.2008 12.6304ZM21.1373 21.1387H14.756V14.7575H21.1373V21.1387ZM16.8831 17.9481C16.8831 17.6661 16.9951 17.3954 17.1946 17.196C17.394 16.9966 17.6646 16.8846 17.9466 16.8846C18.2287 16.8846 18.4993 16.9966 18.6987 17.196C18.8981 17.3954 19.0102 17.6661 19.0102 17.9481C19.0102 18.2301 18.8981 18.5008 18.6987 18.7002C18.4993 18.8996 18.2287 19.0116 17.9466 19.0116C17.6646 19.0116 17.394 18.8996 17.1946 18.7002C16.9951 18.5008 16.8831 18.2301 16.8831 17.9481ZM39.2175 12.6304H30.7092C30.4271 12.6304 30.1565 12.7424 29.9571 12.9418C29.7577 13.1412 29.6456 13.4119 29.6456 13.6939V22.2023C29.6456 22.4843 29.7577 22.7549 29.9571 22.9544C30.1565 23.1538 30.4271 23.2658 30.7092 23.2658H39.2175C39.4996 23.2658 39.7702 23.1538 39.9696 22.9544C40.169 22.7549 40.2811 22.4843 40.2811 22.2023V13.6939C40.2811 13.4119 40.169 13.1412 39.9696 12.9418C39.7702 12.7424 39.4996 12.6304 39.2175 12.6304ZM38.154 21.1387H31.7727V14.7575H38.154V21.1387ZM33.8998 17.9481C33.8998 17.6661 34.0119 17.3954 34.2113 17.196C34.4107 16.9966 34.6813 16.8846 34.9634 16.8846C35.2454 16.8846 35.516 16.9966 35.7154 17.196C35.9148 17.3954 36.0269 17.6661 36.0269 17.9481C36.0269 18.2301 35.9148 18.5008 35.7154 18.7002C35.516 18.8996 35.2454 19.0116 34.9634 19.0116C34.6813 19.0116 34.4107 18.8996 34.2113 18.7002C34.0119 18.5008 33.8998 18.2301 33.8998 17.9481ZM22.2008 29.6471H13.6925C13.4104 29.6471 13.1398 29.7591 12.9404 29.9586C12.741 30.158 12.6289 30.4286 12.6289 30.7106V39.219C12.6289 39.501 12.741 39.7717 12.9404 39.9711C13.1398 40.1705 13.4104 40.2825 13.6925 40.2825H22.2008C22.4828 40.2825 22.7535 40.1705 22.9529 39.9711C23.1523 39.7717 23.2644 39.501 23.2644 39.219V30.7106C23.2644 30.4286 23.1523 30.158 22.9529 29.9586C22.7535 29.7591 22.4828 29.6471 22.2008 29.6471ZM21.1373 38.1555H14.756V31.7742H21.1373V38.1555ZM16.8831 34.9648C16.8831 34.6828 16.9951 34.4122 17.1946 34.2127C17.394 34.0133 17.6646 33.9013 17.9466 33.9013C18.2287 33.9013 18.4993 34.0133 18.6987 34.2127C18.8981 34.4122 19.0102 34.6828 19.0102 34.9648C19.0102 35.2468 18.8981 35.5175 18.6987 35.7169C18.4993 35.9163 18.2287 36.0284 17.9466 36.0284C17.6646 36.0284 17.394 35.9163 17.1946 35.7169C16.9951 35.5175 16.8831 35.2468 16.8831 34.9648ZM30.7092 29.6471C30.9912 29.6471 31.2618 29.7591 31.4613 29.9586C31.6607 30.158 31.7727 30.4286 31.7727 30.7106C31.7727 30.9927 31.6607 31.2633 31.4613 31.4627C31.2618 31.6621 30.9912 31.7742 30.7092 31.7742C30.4271 31.7742 30.1565 31.6621 29.9571 31.4627C29.7577 31.2633 29.6456 30.9927 29.6456 30.7106C29.6456 30.4286 29.7577 30.158 29.9571 29.9586C30.1565 29.7591 30.4271 29.6471 30.7092 29.6471ZM27.5185 30.7106V34.9648C27.5185 35.3449 27.3158 35.696 26.9868 35.8859C26.6577 36.0758 26.2523 36.0758 25.9232 35.8859C25.5942 35.696 25.3914 35.3449 25.3914 34.9648V30.7106C25.3914 30.3306 25.5942 29.9795 25.9232 29.7895C26.2523 29.5996 26.6577 29.5996 26.9868 29.7895C27.3158 29.9795 27.5185 30.3306 27.5185 30.7106ZM40.2811 34.9648V39.219C40.2811 39.501 40.169 39.7717 39.9696 39.9711C39.7702 40.1705 39.4996 40.2825 39.2175 40.2825H34.9634C34.5833 40.2825 34.2322 40.0798 34.0423 39.7508C33.8523 39.4217 33.8523 39.0163 34.0423 38.6872C34.2322 38.3582 34.5833 38.1555 34.9634 38.1555H38.154V34.9648C38.154 34.5847 38.3567 34.2336 38.6858 34.0437C39.0148 33.8538 39.4203 33.8538 39.7493 34.0437C40.0783 34.2336 40.2811 34.5848 40.2811 34.9648ZM34.9634 36.0284H31.7727V39.219C31.7727 39.5991 31.57 39.9502 31.2409 40.1401C30.9119 40.33 30.5064 40.33 30.1774 40.1401C29.8484 39.9502 29.6456 39.5991 29.6456 39.219V34.9648C29.6456 34.6828 29.7577 34.4122 29.9571 34.2127C30.1565 34.0133 30.4271 33.9013 30.7092 33.9013H34.9634C35.3434 33.9013 35.6945 34.104 35.8844 34.433C36.0744 34.7621 36.0744 35.1676 35.8844 35.4966C35.6945 35.8256 35.3434 36.0284 34.9634 36.0284ZM40.2811 26.4565V30.7106C40.2811 30.9927 40.169 31.2633 39.9696 31.4627C39.7702 31.6621 39.4996 31.7742 39.2175 31.7742H34.9634C34.5833 31.7742 34.2322 31.5714 34.0423 31.2424C33.8523 30.9134 33.8523 30.5079 34.0423 30.1789C34.2322 29.8498 34.5833 29.6471 34.9634 29.6471H38.154V27.52H32.8363C32.4562 27.52 32.1051 27.3173 31.9152 26.9882C31.7253 26.6592 31.7253 26.2537 31.9152 25.9247C32.1051 25.5957 32.4562 25.3929 32.8363 25.3929H39.2175C39.4996 25.3929 39.7702 25.505 39.9696 25.7044C40.169 25.9038 40.2811 26.1744 40.2811 26.4565ZM25.3914 26.4565V20.0752C25.3914 19.6951 25.5942 19.344 25.9232 19.1541C26.2523 18.9642 26.6577 18.9642 26.9868 19.1541C27.3158 19.344 27.5185 19.6951 27.5185 20.0752V25.3929H28.5821C28.9622 25.3929 29.3133 25.5956 29.5032 25.9247C29.6931 26.2537 29.6931 26.6592 29.5032 26.9882C29.3133 27.3173 28.9621 27.52 28.5821 27.52H26.455C26.173 27.52 25.9023 27.4079 25.7029 27.2085C25.5035 27.0091 25.3914 26.7385 25.3914 26.4565ZM27.5185 39.219C27.5185 39.501 27.4065 39.7717 27.2071 39.9711C27.0077 40.1705 26.737 40.2825 26.455 40.2825C26.173 40.2825 25.9023 40.1705 25.7029 39.9711C25.5035 39.7717 25.3914 39.501 25.3914 39.219C25.3914 38.937 25.5035 38.6663 25.7029 38.4669C25.9023 38.2675 26.173 38.1555 26.455 38.1555C26.737 38.1555 27.0077 38.2675 27.2071 38.4669C27.4065 38.6663 27.5185 38.937 27.5185 39.219ZM23.2644 26.4565C23.2644 26.7385 23.1523 27.0091 22.9529 27.2085C22.7535 27.4079 22.4828 27.52 22.2008 27.52H13.6925C13.3124 27.52 12.9613 27.3173 12.7714 26.9882C12.5814 26.6592 12.5814 26.2537 12.7714 25.9247C12.9613 25.5957 13.3124 25.3929 13.6925 25.3929H22.2008C22.4828 25.3929 22.7535 25.505 22.9529 25.7044C23.1523 25.9038 23.2644 26.1744 23.2644 26.4565ZM25.3914 15.821V13.6939C25.3914 13.3138 25.5942 12.9627 25.9232 12.7728C26.2523 12.5829 26.6577 12.5829 26.9868 12.7728C27.3158 12.9627 27.5185 13.3139 27.5185 13.6939V15.821C27.5185 16.2011 27.3158 16.5522 26.9868 16.7421C26.6577 16.932 26.2523 16.932 25.9232 16.7421C25.5942 16.5522 25.3914 16.2011 25.3914 15.821Z" fill="#7D192F"/>
<path d="M2 19V9C2 5.13401 5.13401 2 9 2H19" stroke="#7D192F" stroke-width="2.2" stroke-linecap="round"/>
<path d="M52 35L52 45C52 48.866 48.866 52 45 52L35 52" stroke="#7D192F" stroke-width="2.2" stroke-linecap="round"/>
<path d="M19 52L9 52C5.13401 52 2 48.866 2 45L2 35" stroke="#7D192F" stroke-width="2.2" stroke-linecap="round"/>
<path d="M35 2L45 2C48.866 2 52 5.13401 52 9L52 19" stroke="#7D192F" stroke-width="2.2" stroke-linecap="round"/>
</svg>
