<svg width="56" height="59" viewBox="0 0 56 59" fill="none" xmlns="http://www.w3.org/2000/svg">
<path d="M5.9 44.25C5.9 43.9893 6.0036 43.739 6.18798 43.5547C6.37235 43.3703 6.62258 43.2667 6.88333 43.2667H21.6333C22.1764 43.2667 22.6167 43.707 22.6167 44.25C22.6167 44.793 22.1764 45.2333 21.6333 45.2333H6.88333C6.62258 45.2333 6.37235 45.1297 6.18798 44.9454C6.0036 44.761 5.9 44.5108 5.9 44.25ZM28.5167 38.35C28.5167 38.0893 28.4131 37.839 28.2287 37.6547C28.0443 37.4703 27.7941 37.3667 27.5333 37.3667H16.7167C16.1736 37.3667 15.7333 37.807 15.7333 38.35C15.7333 38.893 16.1736 39.3334 16.7167 39.3334H27.5333C27.7941 39.3334 28.0443 39.2297 28.2287 39.0454C28.4131 38.861 28.5167 38.6108 28.5167 38.35ZM6.88333 39.3334H12.7833C13.3264 39.3334 13.7667 38.893 13.7667 38.35C13.7667 37.807 13.3264 37.3667 12.7833 37.3667H6.88333C6.34031 37.3667 5.9 37.807 5.9 38.35C5.9 38.893 6.34031 39.3334 6.88333 39.3334ZM18.4709 52.1167C18.4709 52.3774 18.3673 52.6277 18.183 52.812C17.9986 52.9964 17.7484 53.1 17.4876 53.1H4.91667C3.61327 53.0987 2.36348 52.5798 1.44162 51.6584C0.520189 50.7365 0.00134857 49.4867 0 48.1833V4.91668C0.00131699 3.61329 0.520201 2.3635 1.44162 1.44164C2.3635 0.520207 3.61327 0.0013663 4.91667 1.77265e-05H30.8205C32.1251 -0.00349418 33.3771 0.514947 34.2977 1.43984L39.8596 7.0027C40.7846 7.92282 41.3035 9.17435 41.2999 10.4791V25.9045C41.2999 26.4475 40.8596 26.8878 40.3166 26.8878C39.7735 26.8878 39.3332 26.4475 39.3332 25.9045V10.4791C39.331 10.2618 39.3047 10.0449 39.2542 9.83334H34.4165C33.6343 9.83246 32.8844 9.52122 32.3313 8.96854C31.7786 8.41541 31.4674 7.66559 31.4665 6.88331V2.04351C31.2545 1.99434 31.0376 1.96844 30.8203 1.96669H4.91651C4.13423 1.96756 3.38442 2.2788 2.83128 2.83149C2.27859 3.38462 1.96735 4.13444 1.96647 4.91672V48.1834C1.96735 48.9657 2.27859 49.7155 2.83128 50.2686C3.38441 50.8213 4.13422 51.1325 4.91651 51.1334H17.4874C17.7482 51.1334 17.9984 51.237 18.1828 51.4214C18.3672 51.6058 18.4708 51.856 18.4708 52.1168L18.4709 52.1167ZM33.4333 3.35684V6.88324C33.4338 7.42626 33.8736 7.86613 34.4167 7.86657H37.9426L33.4333 3.35684ZM53.9642 29.0438L52.2039 30.8041L52.2034 30.8036C52.4444 31.794 52.1472 32.838 51.4212 33.553L50.5572 34.417L51.1472 35.007H51.1477C51.7671 35.6268 52.1156 36.4666 52.1165 37.3428C52.1174 38.219 51.771 39.0597 51.1534 39.6809L43.9636 46.9101C43.5808 47.2951 42.9583 47.2969 42.5733 46.9141C42.1883 46.5313 42.1866 45.9088 42.5694 45.5238L49.7592 38.2937C50.2807 37.7687 50.2798 36.921 49.757 36.3973L49.167 35.8077L29.2115 55.7621C29.1035 55.87 28.9722 55.9513 28.8274 55.9996L19.9774 58.9496C19.624 59.0672 19.2342 58.9755 18.9708 58.7121C18.7074 58.4487 18.6156 58.0588 18.7337 57.7055L21.6837 48.8555C21.732 48.711 21.8132 48.5793 21.9208 48.4713L44.1306 26.2626V26.2622C44.8506 25.5466 45.8884 25.2521 46.8765 25.483L48.6399 23.7199C49.3572 23.0356 50.3102 22.6536 51.302 22.6536C52.2937 22.6536 53.2467 23.0356 53.9641 23.7199C54.6686 24.4267 55.0646 25.3842 55.0646 26.382C55.0646 27.3799 54.6686 28.3372 53.9641 29.0441L53.9642 29.0438ZM32.8568 40.3167L37.3661 44.8264L50.0303 32.1622C50.2147 31.9778 50.3183 31.7276 50.3183 31.4669C50.3183 31.2065 50.2147 30.9563 50.0303 30.7719L46.9113 27.6525C46.5267 27.2692 45.9047 27.2692 45.5206 27.6529L32.8568 40.3167ZM28.5161 53.6765L35.9758 46.2168L31.4666 41.7075L24.0064 49.1668L28.5161 53.6765ZM21.221 56.4623L26.6961 54.6375L23.046 50.9869L21.221 56.4623ZM52.573 25.1103C52.2306 24.7828 51.7754 24.6002 51.3018 24.6002C50.8282 24.6002 50.3729 24.7828 50.0305 25.1103L48.5903 26.5501L51.1329 29.0932L52.5732 27.6534V27.6529C52.9099 27.3158 53.0991 26.8584 53.0991 26.3817C53.0991 25.905 52.9099 25.448 52.5732 25.1104L52.573 25.1103ZM29.4417 33.4335H11.799C11.5382 33.4335 11.288 33.3299 11.1036 33.1455C10.9193 32.9611 10.8157 32.7109 10.8157 32.4501V22.0501C10.3876 22.3604 9.79018 22.2748 9.46663 21.8569L7.08686 18.769C6.75542 18.3384 6.83575 17.7207 7.26641 17.3893L18.8506 8.47828C19.3664 8.08188 19.9986 7.86721 20.6492 7.86721C21.2998 7.86721 21.9319 8.08188 22.4477 8.47828L34.032 17.3893C34.4626 17.7207 34.5429 18.3384 34.2115 18.769L31.8317 21.8564C31.6728 22.0632 31.4384 22.198 31.1798 22.2318C30.9217 22.2651 30.6605 22.1949 30.4537 22.0356L30.4248 22.0136L30.4252 32.4501C30.4252 32.7108 30.3216 32.9611 30.1372 33.1454C29.9529 33.3298 29.7026 33.4334 29.4419 33.4334L29.4417 33.4335ZM10.4257 19.8781L20.0506 12.4727C20.4035 12.201 20.896 12.201 21.249 12.4727L30.8739 19.8781L32.053 18.3478L21.2499 10.0373C20.8956 9.76602 20.404 9.76602 20.0497 10.0373L9.24614 18.3478L10.4257 19.8781ZM22.6168 24.5836H18.6259V31.4669H22.6168V24.5836ZM28.4592 31.4669V20.501L20.6501 14.493L12.7834 20.5449V31.467H16.6592V23.6004C16.6592 23.3396 16.7628 23.0894 16.9472 22.905C17.1316 22.7206 17.3818 22.617 17.6426 22.617H23.6001C23.8609 22.617 24.1111 22.7206 24.2955 22.905C24.4798 23.0894 24.5834 23.3396 24.5834 23.6004V31.467L28.4592 31.4669Z" fill="#7D192F"/>
</svg>
