<svg width="28" height="29" viewBox="0 0 28 29" fill="none" xmlns="http://www.w3.org/2000/svg">
<path d="M0.812926 0.101513C0.589792 0.123887 0.382784 0.228498 0.232414 0.395195C0.0822444 0.561691 -0.000797066 0.778374 7.91044e-06 1.00269V28.0932C-0.000999962 28.3339 0.0943398 28.5651 0.264463 28.7352C0.434587 28.9055 0.66578 29.0007 0.906432 28.9997H20.3249C20.5644 28.9989 20.7936 28.9027 20.9623 28.7328C21.131 28.5627 21.2254 28.3327 21.2244 28.0932V22.7386L17.5383 26.4264C17.0214 26.9463 16.3136 27.2353 15.5805 27.2254H15.5734L12.9896 27.1795C11.5439 27.1627 10.3379 25.9636 10.3123 24.5182V24.5148L10.2718 21.9222C10.2605 21.1873 10.5496 20.4774 11.0708 19.9592L21.2244 9.79841V1.00301C21.224 0.764152 21.1288 0.535172 20.9599 0.366251C20.791 0.19734 20.562 0.102198 20.3231 0.101795H0.906186C0.875145 0.100183 0.843903 0.100183 0.812659 0.101795L0.812926 0.101513ZM6.26458 4.7823H14.9578H14.9576C15.2007 4.77685 15.4355 4.86978 15.6093 5.0397C15.783 5.20962 15.881 5.44223 15.881 5.68533C15.881 5.92842 15.783 6.16123 15.6093 6.33117C15.4355 6.50109 15.2007 6.59381 14.9576 6.58837H6.26438C6.02129 6.59381 5.78646 6.50109 5.61271 6.33117C5.43896 6.16125 5.341 5.92844 5.341 5.68533C5.341 5.44224 5.43896 5.20963 5.61271 5.0397C5.78646 4.86978 6.02128 4.77685 6.26438 4.7823H6.26458ZM24.4132 9.52841H24.413C24.3805 9.52861 24.3483 9.53042 24.316 9.53385C24.1141 9.55844 23.9264 9.65055 23.7833 9.79488L21.4905 12.0895L25.3988 16.0068L27.6969 13.7069H27.6971C27.8648 13.5378 27.9587 13.3092 27.9587 13.0712C27.9587 12.8329 27.8648 12.6044 27.6971 12.4353L25.0638 9.79493C24.8917 9.62178 24.6571 9.52563 24.413 9.52846L24.4132 9.52841ZM6.26458 11.1212H14.9578H14.9576C15.2007 11.1157 15.4355 11.2085 15.6093 11.3784C15.783 11.5483 15.881 11.7811 15.881 12.0242C15.881 12.2671 15.783 12.4999 15.6093 12.6698C15.4355 12.8398 15.2007 12.9325 14.9576 12.9272H6.26438C6.02129 12.9325 5.78646 12.8398 5.61271 12.6698C5.43896 12.4999 5.341 12.2671 5.341 12.0242C5.341 11.7811 5.43896 11.5483 5.61271 11.3784C5.78646 11.2085 6.02128 11.1157 6.26438 11.1212H6.26458ZM20.2118 13.3682L12.3437 21.2395V21.2393C12.1697 21.4122 12.0736 21.6485 12.0774 21.8938L12.1179 24.4863C12.122 24.7213 12.2175 24.9453 12.3842 25.111C12.5509 25.2766 12.7755 25.3708 13.0103 25.3734L15.6046 25.4191L15.6048 25.4193C15.8493 25.4226 16.085 25.3264 16.2573 25.1531L24.1255 17.2818L20.2118 13.3682Z" fill="white"/>
</svg>
