<svg width="36" height="36" viewBox="0 0 36 36" fill="none" xmlns="http://www.w3.org/2000/svg">
<path fill-rule="evenodd" clip-rule="evenodd" d="M33 18C33 26.2843 26.2843 33 18 33C9.71573 33 3 26.2843 3 18C3 9.71573 9.71573 3 18 3C26.2843 3 33 9.71573 33 18ZM18.5375 14.0737C17.0785 14.6805 14.1626 15.9365 9.78984 17.8417C9.07976 18.124 8.70779 18.4003 8.67393 18.6704C8.6167 19.1269 9.18836 19.3066 9.96681 19.5514C10.0727 19.5847 10.1824 19.6192 10.2949 19.6558C11.0608 19.9047 12.091 20.196 12.6266 20.2076C13.1124 20.2181 13.6546 20.0178 14.2533 19.6067C18.3389 16.8488 20.4479 15.4548 20.5804 15.4247C20.6738 15.4035 20.8032 15.3769 20.8909 15.4548C20.9786 15.5328 20.97 15.6804 20.9607 15.72C20.9041 15.9614 18.6601 18.0476 17.4989 19.1272C17.1369 19.4638 16.8801 19.7025 16.8276 19.7571C16.71 19.8792 16.5901 19.9947 16.4749 20.1058C15.7634 20.7917 15.2299 21.3061 16.5045 22.146C17.117 22.5497 17.6072 22.8834 18.0961 23.2164C18.6302 23.5801 19.1628 23.9429 19.852 24.3946C20.0276 24.5097 20.1953 24.6292 20.3586 24.7457C20.9801 25.1887 21.5384 25.5868 22.2282 25.5233C22.629 25.4864 23.043 25.1095 23.2533 23.9855C23.7502 21.329 24.727 15.5731 24.9527 13.2012C24.9725 12.9934 24.9476 12.7275 24.9277 12.6107C24.9077 12.494 24.8659 12.3276 24.7142 12.2045C24.5345 12.0587 24.257 12.0279 24.1329 12.0301C23.5687 12.0401 22.7032 12.341 18.5375 14.0737Z" fill="#00AE84"/>
</svg>
