<svg width="24" height="24" viewBox="0 0 24 24" fill="none" xmlns="http://www.w3.org/2000/svg">
<circle cx="12" cy="12" r="12" fill="black"/>
<path d="M4.34995 11.6018C5.75296 10.8242 7.31909 10.1752 8.78237 9.52287C11.2999 8.45438 13.8274 7.4045 16.3804 6.427C16.8771 6.26046 17.7696 6.09757 17.8571 6.83825C17.8092 7.8867 17.612 8.92899 17.4769 9.97128C17.1336 12.2633 16.737 14.5475 16.3501 16.832C16.2169 17.593 15.2695 17.987 14.6633 17.4999C13.2064 16.5098 11.7385 15.5293 10.3002 14.5163C9.8291 14.0345 10.266 13.3428 10.6867 12.9989C11.8866 11.8091 13.1591 10.7981 14.2963 9.54687C14.603 8.80148 13.6967 9.42964 13.3977 9.62213C11.7551 10.7612 10.1526 11.9696 8.42078 12.9707C7.53618 13.4607 6.50512 13.0419 5.62089 12.7685C4.82806 12.4382 3.66636 12.1055 4.34995 11.6018Z" fill="#F4F4F4"/>
</svg>
