<svg width="40" height="40" viewBox="0 0 40 40" fill="none" xmlns="http://www.w3.org/2000/svg"><rect width="40" height="40" rx="20" fill="url(#a)"/><path d="M20.098 8.458h9.158c.247 0 .371.126.371.251 1.733 3.886 3.465 7.646 5.322 11.406.123.126 0 .25-.124.376-2.104 2.131-4.208 4.262-6.435 6.393-2.723 2.632-5.57 5.39-8.292 8.022-.247.125-.247.125-.371 0-2.723-2.633-5.445-5.265-8.168-8.022-2.104-2.131-4.331-4.262-6.435-6.393C5 20.366 5 20.241 5 20.115c.866-2.005 1.856-3.885 2.723-5.89.866-1.881 1.732-3.636 2.599-5.516.123-.25.247-.376.618-.376 3.094.125 6.064 0 9.158.125Zm.124 3.385h-7.054c-.124 0-.124 0-.124.125 0 1.128 0 2.256-.124 3.51 0 .125 0 .125.124.125h5.074c.124 0 .124.125.124.25v1.63c0 .125 0 .125-.124.25-.866.126-1.732.126-2.599.251-1.114.126-2.227.376-3.217.752-.495.126-.867.377-1.238.627-.371.376-.371.878 0 1.128.248.25.495.376.742.502.867.376 1.733.501 2.6.752 1.237.25 2.475.376 3.712.501.248 0 .248 0 .248.25v6.895c0 .25 0 .25.247.25h3.465c.372 0 .372 0 .372-.376v-7.019c0-.25.123-.25.247-.25 1.238 0 2.351-.126 3.589-.377a9.735 9.735 0 0 0 2.723-.752c.247-.125.494-.376.742-.501.247-.25.247-.502 0-.752-.248-.126-.371-.376-.619-.502-1.485-.877-3.217-1.253-4.95-1.378-.495 0-.99 0-1.485-.126-.124 0-.124 0-.124-.25v-1.63c0-.125 0-.25.248-.25h4.703c.247 0 .247-.126.247-.251v-3.384c0-.251 0-.251-.248-.251-2.722.25-5.073.25-7.301.25Z" fill="#fff"/><path d="M19.601 21.369c-.866 0-1.609 0-2.475-.126-1.362-.125-2.847-.25-4.208-.752a5.98 5.98 0 0 0-.866-.376c-.371-.25-.371-.501 0-.627.495-.25.99-.376 1.485-.5.99-.252 1.98-.377 3.094-.502.371 0 .866-.126 1.237-.126.124 0 .248 0 .248.251v2.13c0 .252.124.252.247.252h3.589c.248 0 .248 0 .248-.251v-1.88c0-.376 0-.376.371-.376 1.609.125 3.218.25 4.826.752.248.125.62.25.867.376.247.125.247.376 0 .501-.495.376-.99.502-1.609.627-1.238.25-2.475.501-3.713.501-.99 0-2.227.126-3.341.126Z" fill="#fff"/><defs><linearGradient id="a" x1="20" y1="0" x2="20" y2="40" gradientUnits="userSpaceOnUse"><stop stop-color="#5EC4A8"/><stop offset="1" stop-color="#44A087"/></linearGradient></defs></svg>