<svg width="24" height="24" viewBox="0 0 24 24" fill="none" xmlns="http://www.w3.org/2000/svg">
<g clip-path="url(#clip0_517_774)">
<g clip-path="url(#clip1_517_774)">
<path d="M11.5596 5.49771L8.4318 8.62485H4.84375C4.37758 8.62485 4 9.00243 4 9.4686V14.5311C4 14.9969 4.37758 15.3749 4.84375 15.3749H8.4318L11.5596 18.502C12.088 19.0304 13 18.6592 13 17.9054V6.09431C13 5.33985 12.0873 4.97001 11.5596 5.49771ZM20.875 11.9999C20.875 9.76638 19.7479 7.7129 17.8596 6.50704C17.4663 6.25603 16.9445 6.37274 16.6953 6.76931C16.446 7.16587 16.5624 7.69075 16.9558 7.94212C18.3532 8.83474 19.1875 10.3514 19.1875 11.9999C19.1875 13.6483 18.3532 15.165 16.9558 16.0576C16.5624 16.3086 16.446 16.8335 16.6953 17.2304C16.9241 17.5946 17.4378 17.7627 17.8596 17.4927C19.7479 16.2868 20.875 14.2333 20.875 11.9999ZM15.8909 9.29739C15.4838 9.07485 14.9702 9.22146 14.7445 9.62962C14.5198 10.0378 14.6685 10.5507 15.0767 10.7761C15.5305 11.0253 15.8125 11.4947 15.8125 11.9999C15.8125 12.5054 15.5305 12.9744 15.077 13.2236C14.6689 13.449 14.5202 13.9619 14.7448 14.3701C14.9709 14.78 15.4848 14.9256 15.8912 14.7023C16.8837 14.1556 17.5004 13.1203 17.5004 11.9995C17.5004 10.8787 16.8837 9.84372 15.8909 9.29739Z" fill="white"/>
</g>
</g>
<defs>
<clipPath id="clip0_517_774">
<rect width="24" height="24" fill="white"/>
</clipPath>
<clipPath id="clip1_517_774">
<rect width="16.875" height="18" fill="white" transform="translate(4 3)"/>
</clipPath>
</defs>
</svg>
