<svg width="36" height="36" viewBox="0 0 36 36" fill="none" xmlns="http://www.w3.org/2000/svg">
<path d="M18.0629 3C9.82935 3 3.12871 9.45387 3.12581 17.3855C3.12387 19.9219 3.8129 22.3974 5.11935 24.5777L3 32.0323L10.919 30.0319C13.1218 31.1842 15.5711 31.7852 18.0571 31.7835H18.0629C26.2964 31.7835 32.9971 25.3287 33 17.3971C33.0019 13.5552 31.4497 9.93871 28.6287 7.22032C25.8087 4.50097 22.0587 3.00097 18.0629 3ZM18.0629 29.3535H18.0581C15.8303 29.3535 13.6452 28.7768 11.7387 27.6871L11.2839 27.4277L6.58645 28.6142L7.84064 24.2013L7.54548 23.7494C6.30571 21.8585 5.64574 19.6465 5.64677 17.3855C5.64968 10.7923 11.22 5.43 18.0677 5.43C21.3832 5.43097 24.5003 6.67645 26.8452 8.93613C29.19 11.1958 30.48 14.2006 30.4781 17.3961C30.4752 23.9894 24.9058 29.3535 18.0619 29.3535H18.0629ZM24.8729 20.3971C24.4994 20.2181 22.6645 19.3481 22.3219 19.2271C21.9803 19.1081 21.7316 19.0461 21.4829 19.4061C21.2352 19.7661 20.519 20.5761 20.3023 20.8152C20.0835 21.0552 19.8658 21.0842 19.4923 20.9052C19.1187 20.7252 17.9158 20.3458 16.4913 19.1206C15.3813 18.1684 14.6323 16.9916 14.4145 16.6306C14.1968 16.2716 14.3913 16.0771 14.5781 15.8981C14.7455 15.7384 14.9516 15.479 15.1374 15.269C15.3232 15.059 15.3852 14.909 15.511 14.669C15.6348 14.43 15.5729 14.219 15.479 14.04C15.3852 13.859 14.64 12.09 14.3274 11.371C14.0255 10.6703 13.7177 10.7642 13.4884 10.7526C13.2706 10.7429 13.0229 10.74 12.7723 10.74C12.5255 10.74 12.12 10.83 11.7774 11.19C11.4358 11.55 10.471 12.419 10.471 14.1881C10.471 15.9581 11.8084 17.6671 11.9952 17.9071C12.1819 18.1461 14.6274 21.7781 18.3716 23.3361C19.2619 23.7048 19.9568 23.9265 20.4997 24.0929C21.3939 24.3668 22.2077 24.3271 22.8503 24.2352C23.5664 24.1316 25.0587 23.3661 25.3684 22.5271C25.68 21.6881 25.68 20.9681 25.5871 20.8181C25.4961 20.6681 25.2464 20.5781 24.8729 20.3971Z" fill="#00AE84"/>
</svg>
