<svg width="23" height="23" viewBox="0 0 23 23" fill="none" xmlns="http://www.w3.org/2000/svg">
<circle cx="11.4779" cy="11.622" r="9.27481" fill="#19C562"/>
<path fill-rule="evenodd" clip-rule="evenodd" d="M11.4769 0.80127C17.4529 0.80127 22.2975 5.64582 22.2975 11.6219C22.2975 17.598 17.4529 22.4425 11.4769 22.4425C9.34758 22.4425 7.36186 21.8274 5.68779 20.7653L0.65625 22.4425L2.33343 17.4109C1.27129 15.7369 0.65625 13.7512 0.65625 11.6219C0.65625 5.64582 5.5008 0.80127 11.4769 0.80127Z" fill="#27AE60"/>
<path fill-rule="evenodd" clip-rule="evenodd" d="M16.6145 13.7386C16.8782 13.883 17.0552 13.9574 17.1184 14.0719C17.1816 14.1867 17.1616 14.7257 16.9137 15.3452C16.6658 15.9648 15.5442 16.5302 15.0491 16.5562C14.5544 16.5829 14.5406 16.9425 11.8452 15.7626C9.15016 14.5821 7.52856 11.7121 7.40074 11.5275C7.27292 11.3435 6.35713 10.0276 6.40665 8.70386C6.45615 7.37969 7.17566 6.75465 7.43234 6.49515C7.68903 6.2346 7.98294 6.17841 8.16238 6.18508L8.67751 6.22687C8.83448 6.23284 9.06203 6.15172 9.26604 6.69846L10.0211 8.72704C10.0832 8.86398 10.1221 9.0227 10.0256 9.19898L9.73972 9.63771L9.31837 10.094C9.17861 10.2229 9.03253 10.3633 9.17966 10.6383C9.32681 10.9137 9.83386 11.8148 10.6071 12.5581C11.6001 13.5128 12.4569 13.8299 12.721 13.9743C12.985 14.1193 13.1427 14.1032 13.3067 13.9293L14.1982 12.9067C14.3875 12.6438 14.5652 12.6955 14.8085 12.7944L16.6145 13.7386Z" fill="white"/>
</svg>
