<svg width="32" height="32" viewBox="0 0 32 32" fill="none" xmlns="http://www.w3.org/2000/svg">
<circle cx="16" cy="16" r="16" fill="white"/>
<path fill-rule="evenodd" clip-rule="evenodd" d="M10.5183 21.3333H6.07656C6.01505 21.3198 5.94962 21.3204 5.88365 21.3333H4.69398L4.66669 20.3795L6.30766 19.0629C6.50142 18.913 6.61472 18.698 6.52591 18.4523C6.43714 18.2064 6.17306 18.1306 5.91226 18.1978L4.84891 18.4697L5.30157 16.8875L7.25022 16.1573C7.48314 16.0751 7.65424 15.9049 7.63954 15.6476C7.63006 15.3808 7.40039 15.2257 7.13826 15.2069L6.04506 15.1259L6.94647 13.7638L9.02096 13.6939C9.26492 13.6883 9.47555 13.5859 9.5437 13.3317C9.61185 13.0773 9.44395 12.8572 9.19869 12.7536L8.18151 12.328L9.44838 11.3215L11.4417 11.9144C11.6738 11.9891 11.9049 11.9589 12.0459 11.7405C12.187 11.517 12.0943 11.2523 11.8884 11.0785L11.0508 10.3502L12.5562 9.79423L14.2762 10.9957C14.4744 11.1407 14.7077 11.1869 14.9062 11.0226C15.1052 10.8584 15.091 10.5774 14.9512 10.3441L14.3705 9.38217L15.9698 9.33337L17.2457 11.0278C17.3909 11.2279 17.5991 11.3447 17.837 11.2532C18.0744 11.1615 18.1482 10.8884 18.083 10.6243L17.8202 9.52174L19.3519 9.9888L20.0596 12.0013C20.1395 12.2419 20.2989 12.4184 20.5526 12.4037C20.8108 12.3939 20.9611 12.1568 20.9796 11.8861L21.0579 10.7572L22.3764 11.6876L22.4448 13.8299C22.4499 14.0824 22.5489 14.2996 22.7952 14.3703C23.0416 14.4405 23.2544 14.2673 23.3548 14.014L23.767 12.963L24.7417 14.2717L24.1677 16.3298C24.0951 16.5698 24.1244 16.8084 24.3361 16.9539C24.5523 17.0993 24.8086 17.0036 24.977 16.791L25.6822 15.9264L26.2204 17.481L25.057 19.2569C24.9167 19.4612 24.8716 19.7024 25.0308 19.9074C25.1898 20.1129 25.4624 20.0983 25.6877 19.9543L26.6193 19.3544L26.6667 21.0061L26.259 21.3333H20.7456V20.5956C20.9128 20.5918 21.0776 20.5843 21.2354 20.5733C21.7661 20.5362 21.6572 19.6899 21.3919 19.1734C21.558 18.9046 21.423 18.3337 21.2199 18.017L21.2169 18.0124C21.3124 17.7938 21.215 17.3942 21.0702 17.1653C21.0457 17.1265 21.0189 17.091 20.9903 17.0588C21.1204 16.9368 21.0586 16.6014 20.9484 16.4175C20.7384 16.0672 20.2141 16.0672 20.0042 16.4175C19.894 16.6013 19.8321 16.9366 19.9621 17.0587C19.9335 17.091 19.9067 17.1265 19.8822 17.1653C19.7374 17.3942 19.64 17.7939 19.7355 18.0125L19.7325 18.017C19.5296 18.3336 19.3946 18.9043 19.5604 19.1732C19.2951 19.6897 19.1862 20.5362 19.7169 20.5733C19.8817 20.5848 20.0542 20.5924 20.2291 20.5961V21.3333H15.8903V20.3261C16.1691 20.3213 16.4439 20.3087 16.702 20.2884C17.3944 20.2338 17.5626 19.5119 17.1429 18.9585C17.0819 18.8781 17.0228 18.7977 16.9656 18.7174C16.9149 18.6463 16.8556 18.5817 16.7893 18.5237C17.0214 18.1886 16.847 17.437 16.582 17.0238L16.5782 17.0179C16.7005 16.7381 16.5758 16.2265 16.3904 15.9334C16.3591 15.8838 16.3248 15.8383 16.2882 15.7971C16.4545 15.6408 16.3753 15.2116 16.2343 14.9763C15.9656 14.5279 15.2945 14.5279 15.0257 14.9763C14.8847 15.2117 14.8055 15.6409 14.972 15.7972C14.9354 15.8384 14.9012 15.8838 14.8698 15.9334C14.6845 16.2265 14.5598 16.738 14.682 17.0178L14.6782 17.0238C14.4132 17.4371 14.2387 18.1887 14.471 18.5238C14.4047 18.5818 14.3454 18.6464 14.2947 18.7175C14.2375 18.7977 14.1785 18.8781 14.1175 18.9585C13.6978 19.5119 13.866 20.2339 14.5584 20.2884C14.8176 20.3088 15.0937 20.3214 15.3737 20.3261V21.3333H11.0348V20.596C11.2085 20.5923 11.3798 20.5848 11.5435 20.5733C12.0743 20.5362 11.9653 19.6895 11.6999 19.1731C11.8656 18.9042 11.7306 18.3336 11.5277 18.017L11.5249 18.0127C11.6206 17.7941 11.5231 17.3943 11.3783 17.1653C11.3538 17.1265 11.327 17.091 11.2984 17.0588C11.4284 16.9367 11.3665 16.6013 11.2563 16.4175C11.0464 16.0672 10.5221 16.0672 10.3121 16.4175C10.2019 16.6014 10.1401 16.9367 10.2702 17.0588C10.2415 17.091 10.2148 17.1265 10.1903 17.1653C10.0455 17.3941 9.94817 17.7935 10.0435 18.0121L10.0403 18.017C9.83724 18.3338 9.70223 18.9048 9.86839 19.1735C9.60313 19.69 9.49437 20.5362 10.025 20.5733C10.1839 20.5844 10.3499 20.5919 10.5183 20.5957V21.3333Z" fill="#92C00D"/>
</svg>
