<svg width="29" height="23" viewBox="0 0 29 23" fill="none" xmlns="http://www.w3.org/2000/svg"><path d="M29 5.082v13.605c0 1.1-.424 2.159-1.185 2.96a4.366 4.366 0 0 1-2.91 1.346L24.65 23H4.35a4.37 4.37 0 0 1-2.984-1.175 4.297 4.297 0 0 1-1.359-2.884L0 18.688V5.082l13.695 9.052.168.095a1.461 1.461 0 0 0 1.274 0l.168-.095L29 5.082Z" fill="#111415"/><path d="M24.65 0c1.567 0 2.94.82 3.705 2.051l-13.854 9.157L.646 2.051A4.33 4.33 0 0 1 2.103.621 4.375 4.375 0 0 1 4.059.01L4.35 0h20.3Z" fill="#111415"/></svg>