<svg width="24" height="24" viewBox="0 0 24 24" fill="none" xmlns="http://www.w3.org/2000/svg"><g clip-path="url(#clip0_3410_18380)"><path d="M12.2445 9.81836V14.4658H18.8347C18.5453 15.9604 17.6769 17.226 16.3744 18.0769L20.3486 21.0988C22.6641 19.0043 23.9999 15.9278 23.9999 12.2731C23.9999 11.4222 23.922 10.6039 23.7773 9.81849L12.2445 9.81836Z" fill="#4285F4"/><path d="M5.38172 14.2847L4.48539 14.9571L1.31268 17.3789C3.32759 21.2954 7.45731 24.001 12.2441 24.001C15.5503 24.001 18.3221 22.9319 20.3482 21.0991L16.3741 18.0772C15.2831 18.7972 13.8916 19.2336 12.2441 19.2336C9.06032 19.2336 6.35529 17.1281 5.38672 14.2916L5.38172 14.2847Z" fill="#34A853"/><path d="M1.31362 6.62207C0.478754 8.23661 0.00012207 10.0585 0.00012207 12.0004C0.00012207 13.9422 0.478754 15.7642 1.31362 17.3787C1.31362 17.3895 5.38805 14.2804 5.38805 14.2804C5.14315 13.5604 4.99839 12.7968 4.99839 12.0003C4.99839 11.2038 5.14315 10.4401 5.38805 9.72012L1.31362 6.62207Z" fill="#FBBC05"/><path d="M12.2443 4.77836C14.0478 4.77836 15.6508 5.38927 16.931 6.56751L20.4376 3.13107C18.3113 1.18921 15.5506 0 12.2443 0C7.45756 0 3.32759 2.69464 1.31268 6.62207L5.38699 9.72037C6.35543 6.88387 9.06057 4.77836 12.2443 4.77836Z" fill="#EA4335"/></g><defs><clipPath id="clip0_3410_18380"><rect width="24" height="24" fill="white"/></clipPath></defs></svg>
