<svg width="36" height="24" viewBox="0 0 36 24" fill="none" xmlns="http://www.w3.org/2000/svg"><path d="M4.227 13.773V24H.114V.727h4.022v8.784h.205c.41-.985 1.042-1.761 1.898-2.33.863-.575 1.962-.863 3.295-.863 1.212 0 2.27.254 3.17.761.902.508 1.6 1.25 2.092 2.228.5.977.75 2.17.75 3.58V24h-4.114V13.523c0-1.175-.303-2.088-.91-2.74-.598-.658-1.439-.988-2.522-.988-.727 0-1.379.16-1.954.478a3.34 3.34 0 0 0-1.341 1.352c-.319.59-.478 1.307-.478 2.148Zm19.625 0V24H19.74V.727h4.023v8.784h.204c.41-.985 1.042-1.761 1.898-2.33.863-.575 1.962-.863 3.295-.863 1.212 0 2.27.254 3.17.761.902.508 1.6 1.25 2.092 2.228.5.977.75 2.17.75 3.58V24h-4.114V13.523c0-1.175-.303-2.088-.91-2.74-.598-.658-1.438-.988-2.522-.988-.727 0-1.379.16-1.954.478a3.34 3.34 0 0 0-1.341 1.352c-.318.59-.478 1.307-.478 2.148Z" fill="#111415"/></svg>