<svg width="61" height="20" viewBox="0 0 61 20" fill="none" xmlns="http://www.w3.org/2000/svg"><path d="M3.865 11.01V19H.651V.818h3.143v6.863h.16c.32-.77.814-1.376 1.482-1.82.675-.45 1.533-.675 2.575-.675.947 0 1.773.198 2.477.595.704.396 1.249.976 1.633 1.74.391.763.586 1.696.586 2.797V19H9.494v-8.185c0-.918-.237-1.63-.71-2.14-.468-.515-1.125-.772-1.972-.772-.568 0-1.077.124-1.526.373a2.61 2.61 0 0 0-1.048 1.056c-.249.462-.373 1.021-.373 1.678Zm15.332 0V19h-3.214V.818h3.143v6.863h.16c.32-.77.814-1.376 1.482-1.82.675-.45 1.533-.675 2.575-.675.947 0 1.773.198 2.477.595.704.396 1.249.976 1.633 1.74.391.763.586 1.696.586 2.797V19h-3.213v-8.185c0-.918-.237-1.63-.71-2.14-.468-.515-1.125-.772-1.971-.772-.569 0-1.078.124-1.527.373a2.61 2.61 0 0 0-1.048 1.056c-.249.462-.373 1.021-.373 1.678Zm14.098 8.185c-.538 0-1-.19-1.385-.568a1.84 1.84 0 0 1-.568-1.385 1.82 1.82 0 0 1 .568-1.367 1.903 1.903 0 0 1 1.385-.568c.52 0 .974.19 1.358.568a1.867 1.867 0 0 1 .311 2.353 2.04 2.04 0 0 1-.71.71c-.29.172-.61.257-.959.257ZM38.566 19V5.364h3.116v2.272h.142c.25-.787.675-1.393 1.279-1.82a3.518 3.518 0 0 1 2.086-.648c.178 0 .376.01.595.027.225.012.411.033.56.062v2.956a3.378 3.378 0 0 0-.649-.124 5.963 5.963 0 0 0-.843-.062 3.25 3.25 0 0 0-1.58.382 2.793 2.793 0 0 0-1.092 1.038c-.267.444-.4.956-.4 1.536V19h-3.214Zm18.604-5.735V5.364h3.214V19h-3.117v-2.424h-.142a4.1 4.1 0 0 1-1.518 1.874c-.698.485-1.56.728-2.583.728-.894 0-1.684-.199-2.37-.595-.681-.403-1.214-.986-1.599-1.75-.384-.769-.577-1.698-.577-2.787V5.364h3.214v8.185c0 .864.237 1.55.71 2.06.474.509 1.095.763 1.865.763.473 0 .932-.115 1.376-.346a2.79 2.79 0 0 0 1.092-1.03c.29-.462.435-1.039.435-1.731Z" fill="#fff"/></svg>