<svg width="24" height="24" viewBox="0 0 24 24" fill="none" xmlns="http://www.w3.org/2000/svg"><g clip-path="url(#clip0_3410_18389)"><path d="M0 12C0 5.3724 5.3712 0 12 0C18.6264 0 24 5.3724 24 12C24 18.6276 18.6264 24 12 24C5.3712 24 0 18.6276 0 12Z" fill="#FC3F1D"/><path d="M13.6435 6.89275H12.5905C10.6602 6.89275 9.64485 7.90395 9.64485 9.39481C9.64485 11.0801 10.3468 11.8698 11.7883 12.8821L12.9791 13.7118L9.5571 19H7L10.071 14.2693C8.30476 12.9599 7.31337 11.6883 7.31337 9.53742C7.31337 6.8409 9.13092 5 12.578 5H16V18.987H13.6435V6.89275Z" fill="white"/></g><defs><clipPath id="clip0_3410_18389"><rect width="24" height="24" fill="white"/></clipPath></defs></svg>
