<svg width="25" height="24" viewBox="0 0 25 24" fill="none" xmlns="http://www.w3.org/2000/svg">
<g clip-path="url(#clip0_3410_18231)">
<path d="M24.0221 6.18541C23.8864 5.67482 23.619 5.20883 23.2466 4.83407C22.8743 4.4593 22.41 4.18891 21.9003 4.04996C20.0239 3.54541 12.5239 3.54541 12.5239 3.54541C12.5239 3.54541 5.02393 3.54541 3.14756 4.04996C2.63786 4.18891 2.17358 4.4593 1.80121 4.83407C1.42884 5.20883 1.16143 5.67482 1.02574 6.18541C0.523926 8.06996 0.523926 12 0.523926 12C0.523926 12 0.523926 15.93 1.02574 17.8145C1.16143 18.3251 1.42884 18.7911 1.80121 19.1658C2.17358 19.5406 2.63786 19.811 3.14756 19.95C5.02393 20.4545 12.5239 20.4545 12.5239 20.4545C12.5239 20.4545 20.0239 20.4545 21.9003 19.95C22.41 19.811 22.8743 19.5406 23.2466 19.1658C23.619 18.7911 23.8864 18.3251 24.0221 17.8145C24.5239 15.93 24.5239 12 24.5239 12C24.5239 12 24.5239 8.06996 24.0221 6.18541Z" fill="#FF0302"/>
<path d="M10.0693 15.5687V8.4314L16.3421 12L10.0693 15.5687Z" fill="#FEFEFE"/>
</g>
<defs>
<clipPath id="clip0_3410_18231">
<rect width="24" height="24" fill="white" transform="translate(0.5)"/>
</clipPath>
</defs>
</svg>
