<svg width="218" height="38" viewBox="0 0 218 38" fill="none" xmlns="http://www.w3.org/2000/svg">
<g clip-path="url(#clip0_341_4093)">
<path d="M112.767 1.66908H119.303V16.4579H121.888V1.66908H128.484V0.865234H112.801L112.767 1.66908Z" fill="white"/>
<path d="M122.06 16.6233H119.133V1.83446H112.591L112.639 0.701172H128.653V1.83446H122.06V16.6233ZM119.472 16.2938H121.722V1.50502H128.315V1.03062H112.964L112.944 1.50502H119.472V16.2938Z" fill="white"/>
<path d="M198.099 12.1982L189.335 0.865234H186.736V16.0757H187.542V2.65412L198.418 16.4579H199.061V0.865234H198.099V12.1982Z" fill="white"/>
<path d="M199.231 16.6233H198.333L198.282 16.5574L187.712 3.13577V16.2411H186.567V0.701172H189.419L189.47 0.767061L197.94 11.7046V0.701172H199.241L199.231 16.6233ZM198.502 16.2938H198.892V1.03062H198.269V12.6897L189.25 1.03062H186.906V15.9117H187.373V2.1705L198.502 16.2938Z" fill="white"/>
<path d="M136.134 0.865234H133.546V16.4579H136.134V0.865234Z" fill="white"/>
<path d="M136.303 16.6233H133.376V0.701172H136.303V16.6233ZM133.715 16.2938H135.965V1.03062H133.715V16.2938Z" fill="white"/>
<path d="M174.817 0.865234L168.126 16.4579H169.292L171.511 10.8573H177.135L178.283 13.5719C178.283 13.5719 178.622 14.4021 179.469 16.3788L179.506 16.4678H182.322L175.464 0.865234H174.817ZM176.809 10.0535H171.789L174.269 4.16298L176.809 10.0535Z" fill="white"/>
<path d="M182.576 16.6233H179.394L179.313 16.4322C178.636 14.785 178.263 13.9515 178.158 13.7044L178.127 13.6253L177.019 11.0128H171.629L169.407 16.6134H167.872L174.692 0.701172H175.576L182.576 16.6233ZM179.621 16.2938H182.064L175.353 1.03062H174.916L168.38 16.2938H169.176L171.396 10.6932H177.246L178.473 13.5891L179.621 16.3037M177.064 10.2221H171.534L174.265 3.73536L177.064 10.2221ZM172.039 9.8927H176.555L174.272 4.58533L172.039 9.8927Z" fill="white"/>
<path d="M216.377 0.865234L211.343 9.32539L206.285 0.865234H203.046L209.235 10.4257V16.4579H211.8V10.2742L217.698 0.865234H216.377Z" fill="white"/>
<path d="M211.969 16.6233H209.066V10.4725L202.741 0.701172H206.383L211.343 8.9999L216.279 0.701172H218L211.969 10.321V16.6233ZM209.405 16.2938H211.631V10.2287L211.654 10.1892L217.397 1.03062H216.489L211.343 9.6555L206.186 1.03062H203.354L209.405 10.3836V16.2938Z" fill="white"/>
<path d="M157.498 16.4579H160.083V8.67968H164.657V7.85606H160.083V1.66908H167.032V0.865234H157.498V16.4579Z" fill="white"/>
<path d="M160.249 16.6233H157.325V0.701172H167.198V1.83446H160.249V7.692H164.823V8.84506H160.249V16.6233ZM157.664 16.2938H159.91V8.51561H164.484V8.02145H159.91V1.50502H166.859V1.03062H157.668L157.664 16.2938Z" fill="white"/>
<path d="M143.306 16.4579H145.895V8.67968H150.468V7.85606H145.895V1.66908H152.84V0.865234H143.306V16.4579Z" fill="white"/>
<path d="M146.064 16.6233H143.137V0.701172H153.009V1.83446H146.064V7.692H150.634V8.84506H146.064V16.6233ZM143.476 16.2938H145.725V8.51561H150.296V8.02145H145.725V1.50502H152.67V1.03062H143.476V16.2938Z" fill="white"/>
<path d="M43.2876 0.615234H41.6715V10.4986C41.6715 10.6403 41.6715 10.7951 41.6715 10.9631C41.6986 12.103 41.7359 13.826 40.7737 14.7748C40.5145 15.0129 40.208 15.197 39.873 15.3159C39.5381 15.4349 39.1817 15.4862 38.8257 15.4666C36.8641 15.4666 36.2339 13.9314 36.0544 13.2725L36.0239 13.1638H34.5569V13.3219C34.6992 14.7682 36.2034 16.2342 38.8121 16.2342C40.1266 16.2342 41.1837 15.8686 41.9053 15.1471C43.2944 13.793 43.2605 11.5232 43.2605 10.66L43.2876 0.615234Z" fill="white"/>
<path d="M38.836 16.3331C36.1561 16.3331 34.6078 14.8144 34.4622 13.3187L34.4351 13.0321H36.129L36.1832 13.2265C36.356 13.859 36.9591 15.3349 38.8394 15.3349C39.1797 15.3541 39.5205 15.3055 39.8409 15.1922C40.1613 15.0789 40.4545 14.9033 40.7027 14.676C41.631 13.7602 41.5904 12.0668 41.5667 10.9467C41.5667 10.7655 41.5667 10.6173 41.5667 10.4789V0.5H43.4165V10.6436C43.4165 11.5134 43.447 13.8228 42.0206 15.213C41.2584 15.9543 40.1912 16.3331 38.8428 16.3331M34.7027 13.2627V13.2957C34.8382 14.6892 36.3018 16.1025 38.8394 16.1025C40.12 16.1025 41.133 15.7467 41.8512 15.0483C43.2064 13.7305 43.1827 11.487 43.1759 10.6469V0.730612H41.8004V10.4822C41.8004 10.6173 41.8004 10.7655 41.8004 10.9302C41.8275 12.1031 41.8648 13.8557 40.8687 14.8408C40.5984 15.0896 40.2787 15.2823 39.9292 15.4069C39.5797 15.5315 39.2077 15.5855 38.836 15.5655C36.8032 15.5655 36.1256 13.971 35.9495 13.2858V13.2627H34.7027Z" fill="white"/>
<path d="M7.68052 14.359L0.999515 0.808924L0.95886 0.726562H0.118652V16.3126H1.04017V4.08032L6.97583 16.3126H7.70763L13.4061 3.54003L13.5416 3.23035V16.3126H15.1543V0.726562H13.7314L7.68052 14.359Z" fill="white"/>
<path d="M15.2728 16.428H13.423V3.79377L7.79225 16.428H6.90122L1.14173 4.59432V16.428H0V0.611328H1.03332L1.10785 0.759579L7.67367 14.0791L13.6534 0.611328H15.2728V16.428ZM13.6602 16.1974H15.0357V0.828762H13.8092L7.68384 14.6358L0.884251 0.828762H0.237155V16.1974H0.914742V3.56316L7.05029 16.1974H7.62963L13.6602 2.66707V16.1974Z" fill="white"/>
<path d="M24.4846 0.726562L17.7935 16.3126H18.7827L21.466 10.0532H28.208L30.7591 16.3126H32.2803L25.8534 0.726562H24.4846ZM21.7268 9.4338L24.9183 1.94222L27.9674 9.4338H21.7268Z" fill="white"/>
<path d="M32.4563 16.428H30.6777L28.1198 10.1784H21.5472L18.8606 16.4379H17.6172L24.3931 0.611328H25.9176L25.9481 0.683806L32.4563 16.428ZM30.8301 16.1974H32.0938L25.7719 0.828762H24.5658L17.9729 16.1974H18.7047L21.388 9.93792H28.2892L30.8301 16.1974ZM28.1198 9.54918H21.5506L24.9385 1.64249L28.1198 9.54918ZM21.8792 9.31857H27.7979L24.9148 2.24867L21.8792 9.31857Z" fill="white"/>
<path d="M92.5245 14.4514C91.2846 15.3639 90.2241 15.5451 88.9164 15.5451C85.5081 15.5451 83.1298 12.6131 83.1298 8.41922C83.1298 4.2748 85.5014 1.38227 88.9164 1.38227C90.1945 1.34256 91.4506 1.71303 92.4907 2.43649L92.5991 2.50567L93.1208 1.90938L92.9785 1.81713C91.7787 1.02706 90.362 0.606876 88.913 0.611364C87.8977 0.616605 86.8944 0.825927 85.9662 1.22618C85.0381 1.62644 84.205 2.20899 83.5194 2.93725C82.1118 4.4277 81.3392 6.38253 81.3579 8.40604C81.3353 10.4598 82.1067 12.4468 83.5194 13.9737C84.2043 14.7046 85.0374 15.2897 85.9662 15.6923C86.8951 16.0948 87.8995 16.3061 88.9164 16.3127C90.3956 16.3634 91.8424 15.8839 92.9819 14.9653L93.1073 14.8665L92.616 14.3756L92.5245 14.4514Z" fill="white"/>
<path d="M88.9163 16.4287C87.884 16.4235 86.864 16.2111 85.9201 15.8046C84.9762 15.3981 84.1289 14.8064 83.4312 14.0666C81.9965 12.514 81.2141 10.4939 81.2392 8.4067C81.2169 6.34956 82.0007 4.36128 83.4312 2.84566C84.1303 2.10865 84.9782 1.5199 85.9221 1.11628C86.8659 0.712661 87.8852 0.502858 88.9163 0.500009C90.388 0.497745 91.8266 0.924639 93.0462 1.72555L93.2969 1.88697L92.6193 2.66117L92.4194 2.53269C91.4011 1.8204 90.1702 1.45344 88.9163 1.48834C85.5792 1.48834 83.2483 4.33475 83.2483 8.4067C83.2483 12.5346 85.5792 15.4173 88.9163 15.4173C90.2003 15.4173 91.2404 15.2394 92.4533 14.3466L92.643 14.2082L93.2935 14.8671L93.0699 15.045C91.9059 15.9835 90.4274 16.4725 88.9163 16.4188M88.9163 0.720737C87.9167 0.726077 86.929 0.93188 86.015 1.32528C85.1009 1.71868 84.2802 2.29121 83.604 3.00709C82.2153 4.47889 81.4547 6.40939 81.4764 8.4067C81.4537 10.4308 82.213 12.3894 83.604 13.8953C84.2795 14.6122 85.1 15.1857 86.0142 15.5797C86.9284 15.9737 87.9164 16.1797 88.9163 16.1849C90.3722 16.2384 91.7975 15.7694 92.9208 14.8671L92.9445 14.8441L92.6058 14.5146L92.582 14.5311C91.3183 15.4601 90.2376 15.6479 88.9027 15.6479C85.4403 15.6545 83.0044 12.6895 83.0044 8.4067C83.0044 4.12391 85.4335 1.25444 88.9095 1.25444C90.2095 1.21547 91.4868 1.59281 92.5448 2.32843H92.5685L92.9378 1.91003L92.9073 1.89027C91.7257 1.12521 90.3358 0.721352 88.9163 0.730621" fill="white"/>
<path d="M101.919 0.726562L95.2246 16.3126H96.2173L98.9039 10.0532H105.646L108.197 16.3126H109.718L103.284 0.726562H101.919ZM99.1614 9.4338L102.349 1.94222L105.399 9.4338H99.1614Z" fill="white"/>
<path d="M109.888 16.428H108.112L105.561 10.1685H98.9785L96.2952 16.428H95.0485L101.841 0.611328H103.366L103.396 0.683806L109.888 16.428ZM108.272 16.1974H109.539L103.203 0.828762H101.997L95.4042 16.1974H96.136L98.8226 9.93792H105.72L108.272 16.1974ZM105.578 9.54918H98.9819L102.353 1.64249L105.578 9.54918ZM99.3376 9.31857H105.229L102.349 2.24867L99.3376 9.31857Z" fill="white"/>
<path d="M73.2268 10.3595C75.0021 10.1915 77.9699 9.34485 77.9699 5.55294C77.9733 1.07577 73.6334 0.726562 72.3053 0.726562H66.3154V16.3126H67.9281V10.4254H71.316L77.1195 16.3126H78.8643L73.0845 10.3826L73.2268 10.3595ZM67.9281 9.65782V1.48758H72.3053C74.7683 1.48758 76.3708 3.08869 76.3708 5.56941C76.3708 8.05013 74.7751 9.6743 72.3053 9.6743L67.9281 9.65782Z" fill="white"/>
<path d="M79.1421 16.428H77.0687L71.2753 10.5408H68.0466V16.428H66.1968V0.611328H72.2951C73.6502 0.611328 78.0816 0.967129 78.0816 5.55301C78.0816 9.36469 75.1511 10.2707 73.3385 10.4617L79.1421 16.428ZM77.1703 16.1974H78.6L72.8405 10.2674L73.2267 10.2344C74.958 10.0697 77.8648 9.24609 77.8648 5.54312C77.8547 1.18127 73.6062 0.828762 72.3052 0.828762H66.4339V16.1974H67.8094V10.3102H71.3769L77.1703 16.1974ZM72.3052 9.7732H67.8094V1.35587H72.3052C74.8428 1.35587 76.4825 3.0031 76.4825 5.55301C76.4825 8.10291 74.8428 9.7732 72.3052 9.7732ZM68.0466 9.54259H72.3052C74.6971 9.54259 76.2454 7.97773 76.2454 5.55301C76.2454 3.12829 74.6971 1.59966 72.3052 1.59966H68.0466V9.54259Z" fill="white"/>
<path d="M55.0438 0.615234C54.0274 0.615387 53.0223 0.822073 52.0929 1.22204C51.1635 1.62201 50.3304 2.20643 49.6468 2.93782C48.2138 4.46729 47.4325 6.46949 47.4616 8.53839C47.4397 10.5628 48.2225 12.5173 49.6468 13.994C50.3269 14.7263 51.1574 15.3118 52.0847 15.7125C53.0121 16.1132 54.0155 16.3202 55.0302 16.3202C56.045 16.3202 57.0484 16.1132 57.9757 15.7125C58.9031 15.3118 59.7336 14.7263 60.4137 13.994C61.8404 12.5186 62.6247 10.5635 62.6023 8.53839C62.6301 6.4691 61.8477 4.46696 60.4137 2.93782C59.7329 2.21126 58.9036 1.63087 57.979 1.23378C57.0543 0.836678 56.0546 0.631616 55.0438 0.631707M55.0438 15.5622C51.622 15.5622 49.2335 12.6762 49.2335 8.54828C49.2335 4.33797 51.622 1.39931 55.0438 1.39931C58.4656 1.39931 60.8304 4.33797 60.8304 8.54828C60.8304 12.6762 58.4588 15.5622 55.0438 15.5622Z" fill="white"/>
<path d="M55.0438 16.4288C54.0111 16.429 52.9898 16.2189 52.0457 15.8121C51.1016 15.4053 50.2556 14.8107 49.5621 14.0666C48.115 12.5697 47.3197 10.5863 47.343 8.53195C47.3151 6.43554 48.1084 4.40733 49.5621 2.85891C50.2536 2.11557 51.0976 1.52142 52.0397 1.11478C52.9818 0.708141 54.0011 0.498047 55.0319 0.498047C56.0627 0.498047 57.082 0.708141 58.0241 1.11478C58.9663 1.52142 59.8103 2.11557 60.5017 2.85891C61.9546 4.4065 62.7479 6.43338 62.7208 8.52866C62.7416 10.5826 61.9467 12.5651 60.5017 14.0633C59.8117 14.8055 58.9697 15.399 58.0297 15.8058C57.0897 16.2126 56.0726 16.4237 55.0438 16.4255M55.0438 0.727397C54.0436 0.728 53.0546 0.93201 52.1403 1.32632C51.2261 1.72064 50.4067 2.29654 49.7349 3.01704C48.3223 4.52247 47.5519 6.49424 47.5802 8.53195C47.5583 10.5273 48.3304 12.4537 49.7349 13.9085C50.4039 14.6294 51.221 15.2057 52.1335 15.6001C53.0459 15.9946 54.0334 16.1984 55.0319 16.1984C56.0305 16.1984 57.0179 15.9946 57.9304 15.6001C58.8428 15.2057 59.66 14.6294 60.3289 13.9085C61.7329 12.4533 62.5048 10.5272 62.4837 8.53195C62.5102 6.49454 61.74 4.52335 60.3289 3.01704C59.6603 2.29905 58.8448 1.7248 57.9347 1.33109C57.0246 0.937371 56.0399 0.732871 55.0438 0.730691M55.0438 15.6612C51.5508 15.6612 49.1149 12.7291 49.1149 8.53195C49.1149 4.24917 51.5508 1.28416 55.0438 1.28416C58.5367 1.28416 60.9489 4.26893 60.9489 8.53195C60.9489 12.7291 58.5198 15.6612 55.0438 15.6612ZM55.0438 1.495C51.6931 1.495 49.352 4.38753 49.352 8.52866C49.352 12.5907 51.6931 15.4272 55.0438 15.4272C58.3944 15.4272 60.7118 12.5907 60.7118 8.52866C60.7118 4.39083 58.3809 1.48842 55.0438 1.48842" fill="white"/>
<path d="M51.2662 24.1247V26.0125H53.4243V26.5593H51.2662V28.4866H53.6683V29.0664H50.5344V23.5449H53.6683V24.1247H51.2662Z" fill="white"/>
<path d="M53.7631 29.1624H50.4396V23.4531H53.7631V24.2207H51.3611V25.924H53.5294V26.6553H51.3611V28.3981H53.7631V29.1624ZM50.6293 28.9779H53.5734V28.5826H51.1578V26.4676H53.3159V26.1052H51.1578V24.0329H53.5599V23.6376H50.6157L50.6293 28.9779Z" fill="white"/>
<path d="M60.4272 28.3607C60.2884 28.5948 60.0839 28.7856 59.8377 28.9109C59.5369 29.0593 59.2025 29.1318 58.8654 29.1217C58.5153 29.1306 58.1677 29.0619 57.849 28.9208C57.5705 28.8006 57.3288 28.6122 57.1477 28.3739C56.9715 28.141 56.8659 27.8648 56.8428 27.5766H57.6254C57.6437 27.7397 57.7005 27.8964 57.7914 28.0346C57.89 28.19 58.0291 28.3173 58.1946 28.4035C58.3875 28.5057 58.6051 28.5558 58.8247 28.5485C58.9593 28.5567 59.0942 28.5388 59.2216 28.4958C59.349 28.4528 59.4663 28.3856 59.5667 28.2981C59.6524 28.2138 59.7194 28.1132 59.7637 28.0028C59.808 27.8923 59.8285 27.7742 59.8242 27.6557C59.8346 27.4582 59.7708 27.2638 59.6446 27.1088C59.5226 26.968 59.3698 26.8555 59.1974 26.7794C58.9623 26.6752 58.7201 26.5871 58.4724 26.5158C58.1764 26.4239 57.8867 26.3139 57.6051 26.1864C57.3834 26.0813 57.1923 25.9239 57.0495 25.7284C56.8858 25.4903 56.805 25.2074 56.8191 24.9213C56.8134 24.654 56.8876 24.3908 57.0325 24.1636C57.1807 23.9383 57.3941 23.7607 57.6457 23.6529C57.9415 23.5275 58.2616 23.4657 58.5842 23.4717C59.0611 23.4461 59.5318 23.5862 59.9123 23.8671C60.0742 23.9893 60.2094 24.1417 60.3101 24.3154C60.4107 24.489 60.4747 24.6805 60.4984 24.8785H59.709C59.6652 24.654 59.546 24.4501 59.3702 24.2986C59.1577 24.1224 58.8834 24.0327 58.6045 24.0483C58.3478 24.0332 58.0948 24.1132 57.8964 24.2723C57.8064 24.3512 57.7357 24.4486 57.6894 24.5575C57.6431 24.6663 57.6224 24.7839 57.6288 24.9015C57.6209 25.09 57.6835 25.2749 57.805 25.4221C57.9195 25.5635 58.067 25.6764 58.2352 25.7515C58.4665 25.8491 58.7028 25.9349 58.9433 26.0085C59.2438 26.1001 59.538 26.2102 59.8242 26.3379C60.052 26.4468 60.2478 26.61 60.3933 26.8123C60.56 27.0628 60.6418 27.3577 60.6271 27.6557C60.6286 27.9105 60.5621 28.1614 60.434 28.3838" fill="white"/>
<path d="M58.8654 29.2142C58.5061 29.2208 58.1497 29.1499 57.8219 29.0066C57.5292 28.8772 57.2751 28.6777 57.0833 28.4268C56.8934 28.1822 56.7762 27.8916 56.7445 27.5867V27.4846H57.7169V27.5703C57.7333 27.7194 57.7855 27.8627 57.8693 27.9887C57.9622 28.1267 58.0892 28.24 58.2386 28.3181C58.4176 28.4109 58.6186 28.4563 58.8213 28.4499C58.9439 28.4586 59.0671 28.4432 59.1835 28.4047C59.2999 28.3662 59.4072 28.3054 59.4989 28.2259C59.5763 28.1506 59.6368 28.0604 59.6765 27.9612C59.7161 27.8619 59.7341 27.7557 59.7293 27.6493C59.7393 27.4733 59.6826 27.2999 59.5701 27.1617C59.4573 27.0303 59.3162 26.9245 59.1567 26.8521C58.9243 26.7517 58.6856 26.6659 58.4419 26.5951C58.1428 26.5026 57.8498 26.3926 57.5644 26.2657C57.3289 26.1525 57.1254 25.9851 56.9715 25.7781C56.7976 25.5229 56.7111 25.2208 56.7242 24.9149C56.7194 24.6304 56.7981 24.3504 56.9512 24.1078C57.1127 23.865 57.3451 23.6745 57.6186 23.5609C57.9268 23.4288 58.261 23.3636 58.5977 23.3698C59.0971 23.3452 59.5892 23.4934 59.9868 23.7882C60.1571 23.9219 60.2983 24.0871 60.4024 24.2743C60.5065 24.4615 60.5714 24.6669 60.5932 24.8787V24.9841H59.6277V24.9083C59.584 24.7034 59.4721 24.5181 59.3092 24.3812C59.1131 24.2225 58.8627 24.1414 58.6079 24.1539C58.3743 24.1428 58.1445 24.2142 57.9608 24.3549C57.8812 24.4252 57.8188 24.5121 57.7784 24.609C57.7379 24.706 57.7204 24.8105 57.727 24.9149C57.7181 25.0816 57.7723 25.2457 57.8795 25.3762C57.9878 25.5003 58.1232 25.5993 58.2759 25.6661C58.5046 25.7623 58.7388 25.8459 58.9772 25.9164C59.2822 26.0077 59.5809 26.1178 59.8716 26.2459C60.1124 26.3628 60.3196 26.536 60.4746 26.7499C60.6524 27.0159 60.7401 27.3292 60.7254 27.646C60.7277 27.9173 60.6564 28.1843 60.5187 28.4202C60.3732 28.669 60.1566 28.8716 59.8953 29.0033C59.5812 29.1599 59.2317 29.2369 58.8789 29.2274M56.9783 27.6856C57.0119 27.9234 57.105 28.1497 57.2493 28.3445C57.4252 28.572 57.6586 28.7513 57.9269 28.865C58.2308 28.9958 58.5602 29.061 58.8925 29.0561C59.2143 29.0655 59.5335 28.9964 59.8208 28.8551C60.0505 28.7384 60.241 28.56 60.3696 28.3412C60.4911 28.1334 60.5542 27.8982 60.5526 27.6592C60.5612 27.3724 60.4744 27.0905 60.3053 26.8554C60.1698 26.6655 59.9867 26.5124 59.7733 26.4106C59.4905 26.2832 59.1997 26.1732 58.9026 26.0812C58.6587 26.0079 58.419 25.9221 58.1844 25.8242C58.0067 25.7488 57.8482 25.6364 57.7203 25.4948C57.5851 25.3308 57.5154 25.1249 57.5238 24.9149C57.5174 24.7838 57.5408 24.653 57.5923 24.5317C57.6438 24.4104 57.7222 24.3017 57.8219 24.2132C58.0407 24.044 58.315 23.9574 58.5943 23.9694C58.8966 23.9552 59.1933 24.0529 59.4244 24.2429C59.5961 24.3915 59.7206 24.5846 59.7835 24.7996H60.3832C60.3188 24.4668 60.1336 24.1675 59.8614 23.9562C59.5045 23.6873 59.0626 23.5476 58.6113 23.5609C58.3024 23.5539 57.9958 23.6135 57.7135 23.7355C57.4727 23.8363 57.2686 24.005 57.1274 24.2198C56.992 24.4323 56.9226 24.6782 56.9275 24.9281C56.9137 25.1953 56.9885 25.4598 57.1409 25.6825C57.2757 25.8639 57.4535 26.0108 57.6593 26.1108C57.9378 26.2376 58.224 26.3477 58.5164 26.4403C58.767 26.5142 59.0125 26.6033 59.2516 26.7071C59.4366 26.7904 59.5999 26.9131 59.7293 27.0662C59.8698 27.2379 59.942 27.4531 59.9326 27.6724C59.9371 27.8031 59.9142 27.9333 59.8653 28.055C59.8164 28.1768 59.7424 28.2876 59.648 28.3807C59.5391 28.4773 59.4112 28.5517 59.2721 28.5992C59.133 28.6468 58.9854 28.6666 58.8383 28.6574C58.6025 28.6633 58.3691 28.61 58.1607 28.5026C57.9822 28.407 57.8317 28.2687 57.7236 28.1007C57.6413 27.9752 57.5849 27.8353 57.5576 27.6889L56.9783 27.6856Z" fill="white"/>
<path d="M67.5012 23.5449V24.1247H65.8953V29.0664H65.1635V24.1247H63.561V23.5449H67.5012Z" fill="white"/>
<path d="M65.9936 29.1624H65.0687V24.2207H63.4662V23.4531H67.5961V24.2207H65.9936V29.1624ZM65.2584 28.9779H65.8005V24.0362H67.4199V23.6409H63.6559V24.0362H65.2584V28.9779Z" fill="white"/>
<path d="M71.3736 24.1247V26.0125H73.5351V26.5593H71.3736V28.4866H73.7757V29.0664H70.6418V23.5449H73.7757V24.1247H71.3736Z" fill="white"/>
<path d="M73.857 29.1624H70.5334V23.4531H73.857V24.2207H71.4855V25.924H73.647V26.6553H71.4855V28.3981H73.857V29.1624ZM70.7232 28.9779H73.6673V28.5826H71.2652V26.4676H73.4267V26.1052H71.2652V24.0329H73.6673V23.6376H70.7232V28.9779Z" fill="white"/>
<path d="M80.6159 23.5449V24.1247H79.0135V29.0664H78.2783V24.1247H76.6758V23.5449H80.6159Z" fill="white"/>
<path d="M79.1082 29.1624H78.1833V24.2207H76.5673V23.4531H80.6972V24.2207H79.1082V29.1624ZM78.373 28.9779H78.9151V24.0362H80.521V23.6409H76.7705V24.0362H78.373V28.9779Z" fill="white"/>
<path d="M84.4883 23.5449H83.7565V29.0664H84.4883V23.5449Z" fill="white"/>
<path d="M84.5865 29.1624H83.6616V23.4531H84.5865V29.1624ZM83.8513 28.9779H84.3934V23.6376H83.8513V28.9779Z" fill="white"/>
<path d="M92.3111 23.9871C92.7703 24.3264 93.0995 24.8054 93.2461 25.3477H92.4906C92.3549 24.9934 92.11 24.6885 91.7893 24.4747C91.4396 24.2488 91.0266 24.1337 90.6069 24.1453C90.2563 24.139 89.911 24.2292 89.6109 24.4055C89.3112 24.5887 89.0705 24.8501 88.9163 25.1599C88.7426 25.5181 88.6568 25.9105 88.6656 26.3064C88.6567 26.6991 88.7426 27.0884 88.9163 27.443C89.0691 27.7519 89.31 28.0115 89.6104 28.1909C89.9108 28.3702 90.2579 28.4617 90.6103 28.4544C91.03 28.4659 91.443 28.3509 91.7927 28.125C92.1103 27.9116 92.3537 27.6094 92.4906 27.2585H93.2631C93.1164 27.8 92.7872 28.278 92.328 28.6158C91.8294 28.9625 91.2261 29.1376 90.6137 29.1133C90.1192 29.1229 89.6315 28.9998 89.2043 28.7575C88.7962 28.5224 88.465 28.1797 88.2489 27.7692C88.0165 27.3188 87.9002 26.8201 87.9101 26.3163C87.9003 25.8083 88.0165 25.3054 88.2489 24.8503C88.4653 24.4399 88.7965 24.0973 89.2043 23.8619C89.6315 23.6196 90.1192 23.4965 90.6137 23.5061C91.2261 23.4819 91.8294 23.6569 92.328 24.0036" fill="white"/>
<path d="M90.5968 29.2073C90.0838 29.2153 89.5785 29.0854 89.1366 28.8318C88.7138 28.5852 88.371 28.2278 88.1473 27.8006C87.9115 27.3361 87.7952 26.8228 87.8085 26.3049C87.7952 25.7839 87.9114 25.2674 88.1473 24.7993C88.3705 24.3701 88.7133 24.0105 89.1366 23.7616C89.5799 23.5122 90.0847 23.3846 90.5968 23.3926C91.23 23.3693 91.8533 23.5513 92.3687 23.9098C92.842 24.2624 93.1825 24.7568 93.3376 25.3166L93.3749 25.4352H92.4093L92.3856 25.3759C92.2525 25.0382 92.016 24.7484 91.708 24.5457C91.3735 24.3325 90.9797 24.2243 90.5798 24.236C90.2464 24.2316 89.9187 24.321 89.6362 24.4934C89.3537 24.6658 89.1285 24.9139 88.9875 25.2079C88.8279 25.5534 88.7454 25.9278 88.7454 26.3066C88.7454 26.6853 88.8279 27.0598 88.9875 27.4053C89.1401 27.6997 89.3749 27.9464 89.6651 28.1169C89.9497 28.285 90.2773 28.3718 90.6104 28.3672C91.0102 28.3789 91.404 28.2708 91.7385 28.0576C92.0465 27.8548 92.283 27.565 92.4161 27.2274L92.4398 27.1681H93.4054L93.3681 27.2867C93.213 27.8464 92.8725 28.3409 92.3992 28.6934C91.8838 29.052 91.2605 29.2339 90.6273 29.2106M90.6273 23.5837C90.1532 23.5723 89.6849 23.6862 89.2721 23.9131C88.8662 24.1405 88.5349 24.4753 88.3167 24.8784C88.0873 25.3181 87.9711 25.8053 87.9779 26.2983C87.9709 26.7882 88.0873 27.2722 88.3167 27.7083C88.5249 28.1049 88.8429 28.4369 89.2348 28.667C89.6476 28.894 90.116 29.0078 90.59 28.9965C91.1813 29.019 91.7637 28.8511 92.2467 28.5188C92.6542 28.2174 92.956 27.8008 93.1106 27.3262H92.5313C92.385 27.673 92.1377 27.9707 91.8198 28.1827C91.4525 28.414 91.0205 28.5291 90.5832 28.5122C90.2144 28.5177 89.8516 28.4217 89.5364 28.2355C89.224 28.0443 88.9719 27.7729 88.808 27.4514C88.6264 27.0837 88.5359 26.6798 88.5437 26.272C88.5359 25.861 88.6264 25.4539 88.808 25.0827C88.9674 24.7582 89.2197 24.4852 89.5345 24.2965C89.8494 24.1078 90.2135 24.0113 90.5832 24.0186C91.0203 24.0032 91.4518 24.1181 91.8198 24.348C92.1372 24.562 92.3842 24.8606 92.5313 25.2079H93.1106C92.956 24.7332 92.6542 24.3167 92.2467 24.0153C91.7648 23.6804 91.1819 23.5112 90.59 23.5343" fill="white"/>
<path d="M99.9745 27.7909H97.4776L96.9999 29.0659H96.2173L98.3212 23.6465H99.1512L101.245 29.0659H100.456L99.9745 27.7909ZM99.7645 27.2341L98.7244 24.4437L97.6843 27.2341H99.7645Z" fill="white"/>
<path d="M101.377 29.1611H100.381L99.9068 27.8862H97.5353L97.0677 29.1611H96.0751L98.2501 23.5605H99.2123L101.377 29.1611ZM100.517 28.9766H101.099L99.0666 23.7417H98.3687L96.336 28.9766H96.9221L97.3964 27.6984H100.025L100.517 28.9766ZM99.9001 27.3294H97.5488L98.7244 24.1766L99.9001 27.3294ZM97.8232 27.1449H99.629L98.7244 24.7202L97.8232 27.1449Z" fill="white"/>
<path d="M113.032 23.9859C113.489 24.327 113.817 24.8053 113.967 25.3465H113.194C113.055 24.9904 112.805 24.6853 112.479 24.4735C112.129 24.2469 111.714 24.1318 111.294 24.144C110.944 24.1382 110.6 24.2284 110.301 24.4043C110.001 24.5875 109.761 24.8489 109.606 25.1587C109.43 25.5161 109.343 25.9089 109.352 26.3052C109.343 26.6983 109.43 27.088 109.606 27.4418C109.759 27.7507 110 28.0103 110.301 28.1896C110.601 28.369 110.948 28.4605 111.3 28.4532C111.721 28.4654 112.136 28.3503 112.486 28.1237C112.806 27.9091 113.051 27.6045 113.187 27.2507H113.96C113.811 27.791 113.482 28.2682 113.025 28.608C112.526 28.9547 111.923 29.1298 111.311 29.1055C110.816 29.1151 110.328 28.992 109.901 28.7497C109.493 28.5146 109.162 28.1719 108.946 27.7613C108.712 27.3115 108.595 26.8125 108.607 26.3085C108.595 25.8003 108.712 25.297 108.946 24.8425C109.162 24.4321 109.493 24.0895 109.901 23.8541C110.328 23.6118 110.816 23.4887 111.311 23.4983C111.923 23.474 112.526 23.6491 113.025 23.9958" fill="white"/>
<path d="M111.317 29.2072C110.804 29.2155 110.299 29.0855 109.857 28.8316C109.434 28.586 109.09 28.2284 108.868 27.8004C108.632 27.3359 108.516 26.8226 108.529 26.3048C108.516 25.7837 108.632 25.2672 108.868 24.7992C109.091 24.37 109.434 24.0104 109.857 23.7614C110.3 23.5116 110.805 23.384 111.317 23.3925C111.95 23.3702 112.573 23.552 113.089 23.9097C113.563 24.2622 113.903 24.7566 114.058 25.3164L114.095 25.435H113.127L113.103 25.3757C112.971 25.0372 112.734 24.747 112.425 24.5455C112.09 24.3318 111.695 24.2237 111.294 24.2358C110.961 24.2305 110.633 24.3174 110.348 24.4862C110.069 24.6642 109.847 24.914 109.705 25.2077C109.536 25.5522 109.453 25.93 109.461 26.3113C109.453 26.6894 109.537 27.064 109.705 27.4051C109.852 27.6965 110.08 27.9427 110.362 28.1167C110.647 28.2841 110.974 28.3708 111.307 28.3671C111.708 28.3792 112.103 28.2711 112.439 28.0574C112.748 27.8559 112.985 27.5657 113.116 27.2272L113.14 27.1679H114.109L114.072 27.2865C113.917 27.8463 113.576 28.3407 113.103 28.6932C112.587 29.0518 111.964 29.2337 111.331 29.2105M111.331 23.5835C110.857 23.5722 110.389 23.686 109.976 23.913C109.575 24.1418 109.25 24.4766 109.037 24.8783C108.808 25.3179 108.692 25.8052 108.698 26.2982C108.692 26.788 108.808 27.2721 109.037 27.7082C109.245 28.1053 109.563 28.4376 109.955 28.6669C110.368 28.8941 110.837 29.008 111.311 28.9963C111.902 29.0188 112.484 28.8509 112.967 28.5186C113.372 28.2238 113.675 27.8157 113.835 27.3491H113.259C113.112 27.6959 112.865 27.9936 112.547 28.2056C112.178 28.4366 111.746 28.5516 111.307 28.5351C110.939 28.5407 110.578 28.4447 110.264 28.2584C109.951 28.0681 109.698 27.7965 109.535 27.4743C109.352 27.1071 109.262 26.7028 109.271 26.2949C109.262 25.8837 109.352 25.4763 109.535 25.1056C109.695 24.7816 109.946 24.509 110.26 24.3203C110.575 24.1316 110.938 24.0348 111.307 24.0415C111.745 24.0265 112.178 24.1414 112.547 24.3709C112.865 24.5849 113.112 24.8835 113.259 25.2308H113.835C113.68 24.7561 113.378 24.3396 112.971 24.0382C112.489 23.7033 111.906 23.5341 111.314 23.5572" fill="white"/>
<path d="M118.1 24.1247V26.0125H120.258V26.5593H118.1V28.4866H120.499V29.0664H117.368V23.5449H120.499V24.1247H118.1Z" fill="white"/>
<path d="M120.61 29.1624H117.283V23.4531H120.61V24.2207H118.208V25.924H120.366V26.6553H118.208V28.3981H120.61V29.1624ZM117.477 28.9779H120.417V28.5826H118.019V26.4676H120.177V26.1052H118.019V24.0329H120.417V23.6376H117.477V28.9779Z" fill="white"/>
<path d="M126.871 29.0654L125.391 26.8087H124.591V29.0654H123.859V23.5604H125.73C126.254 23.5216 126.774 23.6822 127.18 24.0084C127.341 24.1642 127.467 24.351 127.55 24.557C127.633 24.7629 127.671 24.9834 127.661 25.2043C127.68 25.6004 127.542 25.9885 127.275 26.2882C126.977 26.584 126.58 26.7664 126.157 26.8021L127.701 29.0819L126.871 29.0654ZM124.591 26.2915H125.665C126.495 26.2915 126.912 25.939 126.912 25.2274C126.912 24.5158 126.495 24.1633 125.665 24.1633H124.591V26.2915Z" fill="white"/>
<path d="M127.881 29.1622H126.821L125.354 26.9022H124.676V29.1622H123.751V23.4529H125.716C126.265 23.4133 126.809 23.5835 127.231 23.9273C127.403 24.0907 127.537 24.2875 127.626 24.5049C127.715 24.7223 127.755 24.9554 127.745 25.1891C127.763 25.6085 127.615 26.0186 127.332 26.3356C127.06 26.6114 126.704 26.7941 126.316 26.8561L127.881 29.1622ZM126.926 28.9777H127.525L125.994 26.721L126.143 26.698C126.547 26.6587 126.924 26.4812 127.207 26.1972C127.456 25.9136 127.584 25.5484 127.566 25.1759C127.575 24.9677 127.54 24.7599 127.462 24.5658C127.383 24.3718 127.264 24.1958 127.112 24.0492C126.726 23.7381 126.23 23.5856 125.73 23.6242H123.954V28.9612H124.496V26.7177H125.442L126.926 28.9777ZM125.665 26.3883H124.496V24.0822H125.665C126.777 24.0822 127.02 24.7147 127.02 25.2418C127.02 25.7689 126.79 26.3982 125.665 26.3982M124.676 26.1972H125.652C126.428 26.1972 126.804 25.8678 126.804 25.2089C126.804 24.55 126.428 24.2205 125.652 24.2205H124.676V26.1972Z" fill="white"/>
<path d="M134.301 27.7909H131.791L131.313 29.0659H130.537L132.641 23.6465H133.485L135.578 29.0659H134.789L134.301 27.7909ZM134.091 27.2341L133.051 24.4437L132.011 27.2341H134.091Z" fill="white"/>
<path d="M135.704 29.1611H134.708L134.233 27.8862H131.862L131.394 29.1611H130.402L132.577 23.5605H133.535L135.704 29.1611ZM134.84 28.9733H135.426L133.393 23.7384H132.705L130.673 28.9733H131.259L131.733 27.6951H134.365L134.84 28.9733ZM134.223 27.3261H131.872L133.048 24.1733L134.223 27.3261ZM132.146 27.1416H133.952L133.048 24.7169L132.146 27.1416Z" fill="white"/>
<path d="M144.411 23.6367V29.066H143.679V24.7338L141.897 29.066H141.243L139.457 24.7502V29.066H138.722V23.6367H139.603L141.582 28.1962L143.533 23.6367H144.411Z" fill="white"/>
<path d="M144.506 29.1611H143.581V25.2078L141.954 29.1611H141.172L139.546 25.2308V29.1611H138.621V23.5605H139.657L141.575 27.9718L143.469 23.5605H144.506V29.1611ZM143.774 28.9766H144.326V23.7286H143.608L141.585 28.4363L139.552 23.7286H138.831V28.9733H139.373V24.2721L141.324 28.9733H141.846L143.787 24.2524L143.774 28.9766Z" fill="white"/>
<path d="M148.734 23.5449H148.002V29.0664H148.734V23.5449Z" fill="white"/>
<path d="M148.832 29.1624H147.907V23.4531H148.832V29.1624ZM148.1 28.9779H148.642V23.6376H148.1V28.9779Z" fill="white"/>
<path d="M156.56 23.9861C157.017 24.3272 157.346 24.8055 157.495 25.3467H156.719C156.586 24.992 156.342 24.6867 156.021 24.4737C155.67 24.2471 155.256 24.132 154.835 24.1442C154.485 24.1387 154.14 24.2288 153.839 24.4045C153.546 24.5907 153.312 24.8517 153.162 25.1589C152.985 25.5163 152.898 25.9091 152.908 26.3054C152.898 26.6985 152.985 27.0882 153.162 27.442C153.314 27.7514 153.555 28.0115 153.855 28.1909C154.156 28.3703 154.503 28.4615 154.856 28.4534C155.276 28.4656 155.691 28.3505 156.041 28.1239C156.361 27.9101 156.605 27.6051 156.739 27.2509H157.515C157.366 27.7912 157.037 28.2684 156.58 28.6082C156.072 28.9648 155.454 29.1426 154.829 29.1123C154.334 29.1209 153.847 28.9979 153.419 28.7565C153.013 28.5196 152.682 28.1774 152.464 27.7681C152.231 27.3177 152.115 26.8191 152.125 26.3153C152.115 25.8072 152.231 25.3044 152.464 24.8492C152.682 24.4403 153.013 24.0982 153.419 23.8609C153.845 23.6138 154.333 23.485 154.829 23.4886C155.442 23.4639 156.047 23.6389 156.546 23.9861" fill="white"/>
<path d="M154.829 29.2079C154.317 29.2168 153.813 29.0879 153.372 28.8356C152.947 28.5902 152.603 28.2326 152.379 27.8044C152.143 27.3399 152.027 26.8266 152.04 26.3087C152.027 25.7877 152.143 25.2712 152.379 24.8032C152.604 24.3738 152.948 24.0143 153.372 23.7654C153.814 23.5156 154.318 23.3881 154.829 23.3964C155.463 23.3737 156.087 23.5555 156.604 23.9137C157.076 24.2672 157.416 24.7612 157.573 25.3204L157.607 25.439H156.641L156.617 25.3797C156.485 25.0418 156.248 24.7519 155.94 24.5495C155.604 24.3362 155.209 24.2281 154.808 24.2398C154.478 24.2383 154.154 24.3287 153.875 24.5003C153.596 24.672 153.373 24.9176 153.233 25.2084C153.063 25.5523 152.979 25.9306 152.989 26.312C152.98 26.6903 153.063 27.0653 153.233 27.4058C153.377 27.6973 153.604 27.9425 153.886 28.1124C154.169 28.2823 154.496 28.3698 154.829 28.3645C155.229 28.3762 155.624 28.2681 155.96 28.0548C156.268 27.8524 156.505 27.5625 156.638 27.2246L156.661 27.1653H157.627L157.593 27.2839C157.436 27.8426 157.096 28.3364 156.624 28.6906C156.102 29.053 155.47 29.235 154.829 29.2079ZM154.829 23.5809C154.354 23.5686 153.886 23.6825 153.473 23.9104C153.083 24.1442 152.767 24.4797 152.562 24.8789C152.333 25.3186 152.216 25.8059 152.223 26.2988C152.216 26.7887 152.333 27.2728 152.562 27.7089C152.766 28.1086 153.082 28.4443 153.473 28.6774C153.886 28.9053 154.354 29.0192 154.829 29.0069C155.421 29.0284 156.004 28.8606 156.489 28.5292C156.895 28.2276 157.196 27.811 157.349 27.3366H156.77C156.625 27.6832 156.379 27.9809 156.062 28.1932C155.693 28.4241 155.26 28.5391 154.822 28.5226C154.454 28.5282 154.092 28.4322 153.778 28.2459C153.465 28.0556 153.213 27.784 153.05 27.4618C152.867 27.0946 152.776 26.6903 152.786 26.2824C152.776 25.8712 152.867 25.4638 153.05 25.0931C153.214 24.773 153.468 24.5051 153.783 24.3212C154.098 24.1373 154.461 24.045 154.829 24.0553C155.267 24.0403 155.699 24.1552 156.069 24.3848C156.385 24.599 156.631 24.8976 156.777 25.2446H157.356C157.203 24.7702 156.902 24.3536 156.495 24.052C156.012 23.7172 155.428 23.548 154.835 23.571" fill="white"/>
<path d="M164.22 27.7909H161.723L161.266 29.0659H160.476L162.577 23.6465H163.407L165.504 29.0659H164.711L164.22 27.7909ZM164.01 27.2341L162.96 24.4437L161.943 27.2341H164.01Z" fill="white"/>
<path d="M165.623 29.1611H164.63L164.152 27.8862H161.781L161.313 29.1611H160.32L162.495 23.5605H163.458L165.623 29.1611ZM164.762 28.9766H165.348L163.315 23.7417H162.621L160.588 28.9766H161.174L161.649 27.6984H164.281L164.762 28.9766ZM164.145 27.3294H161.798L162.96 24.1733L164.145 27.3294ZM162.069 27.1449H163.874L162.96 24.7169L162.069 27.1449Z" fill="white"/>
<path d="M107.597 31.9199H105.436V37.504H107.597V31.9199Z" fill="#009247"/>
<path d="M109.769 31.9199H107.608V37.504H109.769V31.9199Z" fill="white"/>
<path d="M111.886 31.9199H109.725V37.504H111.886V31.9199Z" fill="#CE2A37"/>
<path d="M166.121 34.6172H113.828V34.8017H166.121V34.6172Z" fill="white"/>
<path d="M102.82 34.6172H50.5277V34.8017H102.82V34.6172Z" fill="white"/>
</g>
<defs>
<clipPath id="clip0_341_4093">
<rect width="218" height="37" fill="white" transform="translate(0 0.5)"/>
</clipPath>
</defs>
</svg>
