<svg width="533" height="92" viewBox="0 0 533 92" fill="none" xmlns="http://www.w3.org/2000/svg">
<path d="M275.711 2.90793H291.69V39.6801H298.01V2.90793H314.137V0.90918H275.794L275.711 2.90793Z" fill="white"/>
<path d="M298.432 40.0901H291.275V3.31791H275.28L275.396 0.5H314.552V3.31791H298.432V40.0901ZM292.104 39.2709H297.604V2.49875H313.723V1.31916H276.191L276.142 2.49875H292.104V39.2709Z" fill="white"/>
<path d="M484.344 29.0883L462.915 0.90918H456.561V38.7299H458.533V5.35723L485.122 39.6801H486.696V0.90918H484.344V29.0883Z" fill="white"/>
<path d="M487.11 40.0901H484.915L484.791 39.9262L458.947 6.5536V39.1398H456.147V0.5H463.122L463.246 0.663832L483.954 27.86V0.5H487.135L487.11 40.0901ZM485.329 39.2709H486.282V1.31916H484.758V30.3093L462.708 1.31916H456.976V38.3207H458.119V4.15346L485.329 39.2709Z" fill="white"/>
<path d="M332.841 0.90918H326.513V39.6801H332.841V0.90918Z" fill="white"/>
<path d="M333.255 40.0901H326.099V0.5H333.255V40.0901ZM326.927 39.2709H332.427V1.31916H326.927V39.2709Z" fill="white"/>
<path d="M427.421 0.90918L411.061 39.6801H413.91L419.336 25.7543H433.086L435.894 32.5042C435.894 32.5042 436.723 34.5685 438.794 39.4835L438.885 39.7047H445.768L429.003 0.90918H427.421ZM432.291 23.7556H420.015L426.079 9.10898L432.291 23.7556Z" fill="white"/>
<path d="M446.389 40.0901H438.611L438.413 39.6149C436.756 35.5191 435.845 33.4467 435.588 32.8323L435.513 32.6357L432.805 26.1397H419.626L414.192 40.0655H410.44L427.114 0.5H429.276L446.389 40.0901ZM439.166 39.2709H445.139L428.729 1.31916H427.661L411.682 39.2709H413.629L419.054 25.3452H433.36L436.358 32.5456L439.166 39.2955M432.912 24.1738H419.394L426.07 8.04448L432.912 24.1738ZM420.628 23.3546H431.67L426.087 10.1579L420.628 23.3546Z" fill="white"/>
<path d="M529.032 0.90918L516.723 21.9452L504.356 0.90918H496.437L511.571 24.6812V39.6801H517.841V24.3044L532.263 0.90918H529.032Z" fill="white"/>
<path d="M518.256 40.0901H511.157V24.7963L495.692 0.5H504.596L516.723 21.1347L528.792 0.5H533L518.256 24.4195V40.0901ZM511.985 39.2709H517.427V24.1901L517.485 24.0918L531.526 1.31916H529.306L516.723 22.7648L504.116 1.31916H497.191L511.985 24.5751V39.2709Z" fill="white"/>
<path d="M385.076 39.6801H391.396V20.3397H402.579V18.2918H391.396V2.90793H408.385V0.90918H385.076V39.6801Z" fill="white"/>
<path d="M391.802 40.0901H384.654V0.5H408.791V3.31791H391.802V17.8826H402.985V20.7497H391.802V40.0901ZM385.482 39.2709H390.974V19.9305H402.156V18.7018H390.974V2.49875H407.963V1.31916H385.49L385.482 39.2709Z" fill="white"/>
<path d="M350.377 39.6801H356.706V20.3397H367.888V18.2918H356.706V2.90793H373.687V0.90918H350.377V39.6801Z" fill="white"/>
<path d="M357.12 40.0901H349.963V0.5H374.101V3.31791H357.12V17.8826H368.294V20.7497H357.12V40.0901ZM350.791 39.2709H356.291V19.9305H367.466V18.7018H356.291V2.49875H373.272V1.31916H350.791V39.2709Z" fill="white"/>
<path d="M105.836 0.287109H101.885V24.8619C101.885 25.2142 101.885 25.5992 101.885 26.017C101.951 28.8513 102.042 33.1355 99.6899 35.4947C99.056 36.0866 98.3067 36.5444 97.4877 36.8402C96.6688 37.136 95.7975 37.2635 94.927 37.2149C90.1309 37.2149 88.5902 33.3976 88.1512 31.7593L88.0767 31.489H84.49V31.8822C84.8379 35.4783 88.5157 39.1235 94.8939 39.1235C98.1078 39.1235 100.692 38.2143 102.457 36.4203C105.853 33.0536 105.77 27.4095 105.77 25.2633L105.836 0.287109Z" fill="white"/>
<path d="M94.952 39.3689C88.3998 39.3689 84.6143 35.5926 84.2582 31.8736L84.1919 31.1609H88.3336L88.4661 31.6442C88.8886 33.217 90.363 36.8868 94.9602 36.8868C95.7924 36.9344 96.6256 36.8137 97.4089 36.532C98.1922 36.2503 98.9092 35.8136 99.5161 35.2485C101.786 32.9712 101.686 28.7608 101.628 25.9756C101.628 25.5251 101.628 25.1564 101.628 24.8124V0H106.151V25.222C106.151 27.3846 106.226 33.1269 102.738 36.5837C100.875 38.4269 98.2653 39.3689 94.9685 39.3689M84.8463 31.7343V31.8162C85.1776 35.2813 88.756 38.7955 94.9602 38.7955C98.0913 38.7955 100.568 37.9108 102.324 36.1742C105.637 32.8975 105.579 27.319 105.563 25.2302V0.573413H102.2V24.8206C102.2 25.1564 102.2 25.5251 102.2 25.9346C102.266 28.8509 102.357 33.2088 99.922 35.6581C99.261 36.2769 98.4793 36.7559 97.6248 37.0657C96.7702 37.3756 95.8608 37.5098 94.952 37.4602C89.9819 37.4602 88.3253 33.4955 87.8946 31.7917V31.7343H84.8463Z" fill="white"/>
<path d="M18.7782 34.4623L2.44346 0.77022L2.34406 0.56543H0.289795V39.32H2.54286V8.90449L17.0553 39.32H18.8445L32.7771 7.56107L33.1084 6.79106V39.32H37.0513V0.56543H33.5723L18.7782 34.4623Z" fill="white"/>
<path d="M37.3413 39.6063H32.8186V8.19142L19.0517 39.6063H16.8732L2.79149 10.182V39.6063H0V0.27832H2.52642L2.70865 0.646943L18.7618 33.7656L33.3819 0.27832H37.3413V39.6063ZM33.3984 39.0328H36.7615V0.818967H33.7629L18.7866 35.15L2.16195 0.818967H0.579834V39.0328H2.2365V7.61801L17.2376 39.0328H18.6541L33.3984 5.38989V39.0328Z" fill="white"/>
<path d="M59.8637 0.56543L43.5042 39.32H45.9229L52.4833 23.7559H68.9671L75.2045 39.32H78.9237L63.2102 0.56543H59.8637ZM53.1211 22.2159L60.924 3.58813L68.379 22.2159H53.1211Z" fill="white"/>
<path d="M79.3545 39.6063H75.0058L68.7518 24.0668H52.6822L46.1135 39.6308H43.0735L59.6402 0.27832H63.3677L63.4422 0.458536L79.3545 39.6063ZM75.3785 39.0328H78.4682L63.0115 0.818967H60.0626L43.9432 39.0328H45.7324L52.2928 23.4688H69.166L75.3785 39.0328ZM68.7518 22.5022H52.6904L60.9738 2.8423L68.7518 22.5022ZM53.4939 21.9288H67.9649L60.9158 4.34955L53.4939 21.9288Z" fill="white"/>
<path d="M226.218 34.6914C223.186 36.9604 220.594 37.411 217.396 37.411C209.063 37.411 203.248 30.1205 203.248 19.6925C203.248 9.38748 209.047 2.19525 217.396 2.19525C220.521 2.09651 223.592 3.01768 226.135 4.81656L226.4 4.98859L227.676 3.5059L227.328 3.27654C224.395 1.31204 220.931 0.267249 217.388 0.278409C214.906 0.291441 212.453 0.811917 210.183 1.80715C207.914 2.80239 205.877 4.25089 204.201 6.06169C200.76 9.76768 198.87 14.6283 198.916 19.6598C198.861 24.7663 200.747 29.7071 204.201 33.5036C205.876 35.321 207.912 36.7759 210.183 37.7768C212.454 38.7778 214.91 39.3031 217.396 39.3196C221.013 39.4456 224.55 38.2533 227.336 35.9693L227.643 35.7235L226.442 34.503L226.218 34.6914Z" fill="white"/>
<path d="M217.396 39.6065C214.872 39.5937 212.378 39.0654 210.071 38.0547C207.763 37.044 205.691 35.5727 203.986 33.7331C200.478 29.8727 198.565 24.8496 198.626 19.6599C198.572 14.5448 200.488 9.60103 203.986 5.83245C205.695 3.99988 207.768 2.53597 210.075 1.53238C212.383 0.528779 214.875 0.00710728 217.396 2.22847e-05C220.994 -0.00560826 224.512 1.05586 227.494 3.0473L228.107 3.44869L226.45 5.37372L225.961 5.05425C223.471 3.28315 220.462 2.37071 217.396 2.45751C209.237 2.45751 203.538 9.53506 203.538 19.6599C203.538 29.924 209.237 37.0916 217.396 37.0916C220.536 37.0916 223.079 36.6493 226.044 34.4294L226.508 34.0853L228.098 35.7236L227.552 36.166C224.706 38.4994 221.091 39.7153 217.396 39.5819M217.396 0.54886C214.952 0.562138 212.538 1.07386 210.303 2.05205C208.068 3.03023 206.061 4.45383 204.408 6.23384C201.013 9.89345 199.153 14.6936 199.206 19.6599C199.151 24.6927 201.007 29.5629 204.408 33.3071C206.059 35.0898 208.066 36.5157 210.301 37.4954C212.536 38.4751 214.952 38.9874 217.396 39.0003C220.956 39.1334 224.441 37.9672 227.187 35.7236L227.245 35.6663L226.417 34.8471L226.359 34.8881C223.269 37.1981 220.627 37.6651 217.363 37.6651C208.898 37.6814 202.942 30.309 202.942 19.6599C202.942 9.0108 208.881 1.8759 217.38 1.8759C220.558 1.77901 223.681 2.71725 226.268 4.54637H226.326L227.229 3.50603L227.154 3.45688C224.265 1.55458 220.867 0.550389 217.396 0.573435" fill="white"/>
<path d="M249.188 0.56543L232.82 39.32H235.247L241.816 23.7559H258.299L264.537 39.32H268.256L252.526 0.56543H249.188ZM242.445 22.2159L250.24 3.58813L257.695 22.2159H242.445Z" fill="white"/>
<path d="M268.67 39.6063H264.33L258.092 24.0422H241.998L235.437 39.6063H232.389L248.997 0.27832H252.725L252.799 0.458536L268.67 39.6063ZM264.719 39.0328H267.817L252.327 0.818967H249.378L233.259 39.0328H235.048L241.617 23.4688H258.482L264.719 39.0328ZM258.134 22.5022H242.006L250.248 2.8423L258.134 22.5022ZM242.876 21.9288H257.281L250.24 4.34955L242.876 21.9288Z" fill="white"/>
<path d="M179.036 24.5177C183.377 24.0999 190.633 21.9947 190.633 12.5661C190.641 1.43374 180.03 0.56543 176.783 0.56543H162.138V39.32H166.081V24.6815H174.364L188.554 39.32H192.82L178.688 24.575L179.036 24.5177ZM166.081 22.7729V2.45769H176.783C182.805 2.45769 186.723 6.43882 186.723 12.6071C186.723 18.7754 182.822 22.8138 176.783 22.8138L166.081 22.7729Z" fill="white"/>
<path d="M193.499 39.6063H188.429L174.265 24.9678H166.371V39.6063H161.848V0.27832H176.758C180.071 0.27832 190.906 1.16301 190.906 12.5657C190.906 22.0434 183.741 24.2961 179.309 24.7712L193.499 39.6063ZM188.678 39.0328H192.173L178.092 24.2879L179.036 24.206C183.269 23.7964 190.376 21.7485 190.376 12.5412C190.351 1.69547 179.964 0.818967 176.783 0.818967H162.428V39.0328H165.791V24.3944H174.513L188.678 39.0328ZM176.783 23.0592H165.791V2.12962H176.783C182.987 2.12962 186.996 6.22543 186.996 12.5657C186.996 18.906 182.987 23.0592 176.783 23.0592ZM166.371 22.4858H176.783C182.631 22.4858 186.417 18.5948 186.417 12.5657C186.417 6.53671 182.631 2.7358 176.783 2.7358H166.371V22.4858Z" fill="white"/>
<path d="M134.58 0.287109C132.095 0.287488 129.637 0.80141 127.365 1.79592C125.093 2.79044 123.055 4.24359 121.384 6.0622C117.88 9.86519 115.97 14.8436 116.041 19.9879C115.988 25.0217 117.902 29.8815 121.384 33.5532C123.047 35.3742 125.078 36.8299 127.345 37.8262C129.612 38.8225 132.065 39.3373 134.546 39.3373C137.027 39.3373 139.481 38.8225 141.748 37.8262C144.015 36.8299 146.046 35.3742 147.709 33.5532C151.197 29.8846 153.115 25.0234 153.06 19.9879C153.128 14.8427 151.215 9.86437 147.709 6.0622C146.044 4.25562 144.017 2.81248 141.756 1.8251C139.495 0.837726 137.051 0.327843 134.58 0.328067M134.58 37.4525C126.213 37.4525 120.374 30.2766 120.374 20.0125C120.374 9.54363 126.213 2.23671 134.58 2.23671C142.946 2.23671 148.728 9.54363 148.728 20.0125C148.728 30.2766 142.929 37.4525 134.58 37.4525Z" fill="white"/>
<path d="M134.58 39.6066C132.055 39.6072 129.558 39.0849 127.249 38.0733C124.941 37.0617 122.873 35.5833 121.177 33.7332C117.639 30.0112 115.695 25.0795 115.751 19.9713C115.683 14.7586 117.623 9.7155 121.177 5.86537C122.868 4.01706 124.931 2.53971 127.235 1.52861C129.538 0.517514 132.03 -0.00488281 134.551 -0.00488281C137.071 -0.00488281 139.563 0.517514 141.866 1.52861C144.17 2.53971 146.233 4.01706 147.924 5.86537C151.476 9.71342 153.416 14.7532 153.35 19.9631C153.4 25.0702 151.457 29.9998 147.924 33.725C146.237 35.5703 144.178 37.0462 141.88 38.0577C139.582 39.0692 137.095 39.594 134.58 39.5984M134.58 0.565392C132.134 0.566892 129.716 1.07416 127.481 2.05462C125.245 3.03508 123.242 4.46705 121.6 6.25856C118.146 10.0018 116.262 14.9046 116.331 19.9713C116.278 24.9327 118.166 29.7226 121.6 33.34C123.235 35.1325 125.233 36.5655 127.464 37.5463C129.695 38.5271 132.109 39.0338 134.551 39.0338C136.992 39.0338 139.406 38.5271 141.637 37.5463C143.868 36.5655 145.866 35.1325 147.502 33.34C150.934 29.7217 152.821 24.9324 152.77 19.9713C152.835 14.9053 150.952 10.004 147.502 6.25856C145.867 4.47329 143.873 3.04543 141.648 2.06646C139.422 1.08749 137.015 0.579005 134.58 0.573584M134.58 37.698C126.039 37.698 120.084 30.4074 120.084 19.9713C120.084 9.32223 126.039 1.94977 134.58 1.94977C143.12 1.94977 149.017 9.37138 149.017 19.9713C149.017 30.4074 143.078 37.698 134.58 37.698ZM134.58 2.47404C126.387 2.47404 120.664 9.66628 120.664 19.9631C120.664 30.0634 126.387 37.1164 134.58 37.1164C142.772 37.1164 148.438 30.0634 148.438 19.9631C148.438 9.67447 142.739 2.45765 134.58 2.45765" fill="white"/>
<path d="M125.344 58.7425V63.4363H130.62V64.7961H125.344V69.5882H131.217V71.0299H123.554V57.3008H131.217V58.7425H125.344Z" fill="white"/>
<path d="M131.448 71.2674H123.323V57.0713H131.448V58.9799H125.576V63.215H130.877V65.0335H125.576V69.3669H131.448V71.2674ZM123.786 70.8086H130.985V69.8256H125.079V64.5666H130.355V63.6655H125.079V58.513H130.951V57.53H123.753L123.786 70.8086Z" fill="white"/>
<path d="M147.742 69.2771C147.402 69.8591 146.902 70.3336 146.3 70.6451C145.565 71.0141 144.747 71.1944 143.923 71.1693C143.067 71.1914 142.217 71.0206 141.438 70.6696C140.757 70.3709 140.166 69.9024 139.723 69.3098C139.293 68.7308 139.034 68.0441 138.978 67.3275H140.891C140.936 67.7329 141.075 68.1226 141.297 68.4661C141.538 68.8526 141.878 69.1691 142.283 69.3836C142.755 69.6376 143.287 69.7621 143.824 69.744C144.153 69.7644 144.482 69.7199 144.794 69.613C145.105 69.5061 145.392 69.339 145.638 69.1214C145.847 68.9117 146.011 68.6618 146.119 68.3871C146.228 68.1124 146.278 67.8187 146.267 67.5241C146.293 67.0331 146.137 66.5497 145.828 66.1642C145.53 65.8142 145.156 65.5344 144.735 65.3451C144.16 65.0861 143.568 64.8671 142.962 64.6898C142.239 64.4612 141.53 64.1876 140.842 63.8706C140.3 63.6094 139.832 63.2179 139.483 62.732C139.083 62.1399 138.885 61.4364 138.92 60.725C138.906 60.0603 139.087 59.4059 139.442 58.841C139.804 58.2809 140.326 57.8392 140.941 57.5712C141.664 57.2594 142.447 57.1057 143.235 57.1207C144.401 57.0569 145.552 57.4054 146.483 58.1037C146.878 58.4076 147.209 58.7865 147.455 59.2184C147.701 59.6502 147.858 60.1262 147.916 60.6185H145.986C145.879 60.0605 145.587 59.5534 145.157 59.1768C144.638 58.7385 143.967 58.5155 143.285 58.5542C142.658 58.5167 142.039 58.7157 141.554 59.1113C141.334 59.3074 141.161 59.5496 141.048 59.8203C140.934 60.091 140.884 60.3833 140.9 60.6759C140.88 61.1446 141.033 61.6044 141.33 61.9701C141.61 62.3217 141.971 62.6025 142.382 62.7893C142.948 63.032 143.526 63.2453 144.113 63.4283C144.848 63.6561 145.567 63.9297 146.267 64.2474C146.824 64.5182 147.303 64.924 147.659 65.427C148.066 66.0497 148.266 66.7831 148.23 67.5241C148.234 68.1577 148.071 68.7815 147.758 69.3344" fill="white"/>
<path d="M143.923 71.3979C143.045 71.4143 142.173 71.2381 141.372 70.8818C140.656 70.56 140.035 70.064 139.566 69.4401C139.102 68.8319 138.815 68.1094 138.738 67.3512V67.0973H141.115V67.3103C141.155 67.6811 141.283 68.0374 141.488 68.3506C141.715 68.6939 142.025 68.9755 142.391 69.1698C142.828 69.4004 143.32 69.5134 143.815 69.4974C144.115 69.519 144.416 69.4808 144.701 69.3851C144.985 69.2894 145.248 69.1382 145.472 68.9404C145.661 68.7531 145.809 68.529 145.906 68.2822C146.003 68.0354 146.047 67.7714 146.035 67.5069C146.06 67.0693 145.921 66.638 145.646 66.2945C145.37 65.9676 145.025 65.7047 144.635 65.5245C144.067 65.2749 143.483 65.0615 142.888 64.8855C142.157 64.6555 141.44 64.3819 140.742 64.0664C140.166 63.785 139.669 63.3689 139.293 62.854C138.868 62.2195 138.656 61.4684 138.688 60.7078C138.676 60.0002 138.869 59.304 139.243 58.7009C139.638 58.0971 140.206 57.6236 140.875 57.3411C141.628 57.0125 142.445 56.8504 143.269 56.8659C144.49 56.8047 145.693 57.1733 146.665 57.9063C147.081 58.2387 147.427 58.6495 147.681 59.115C147.936 59.5804 148.094 60.0912 148.148 60.6177V60.8798H145.787V60.6914C145.68 60.1818 145.406 59.7211 145.008 59.3808C144.529 58.9862 143.917 58.7845 143.294 58.8156C142.722 58.7879 142.161 58.9653 141.711 59.3152C141.517 59.4902 141.364 59.7062 141.265 59.9472C141.167 60.1883 141.124 60.4482 141.14 60.7078C141.118 61.1223 141.251 61.5304 141.513 61.8546C141.777 62.1633 142.109 62.4095 142.482 62.5755C143.041 62.8148 143.613 63.0226 144.196 63.1981C144.942 63.4251 145.673 63.6987 146.383 64.0172C146.972 64.3079 147.479 64.7385 147.858 65.2705C148.292 65.9317 148.507 66.7109 148.471 67.4987C148.476 68.1731 148.302 68.8371 147.965 69.4237C147.61 70.0424 147.08 70.546 146.441 70.8736C145.673 71.2628 144.819 71.4543 143.956 71.4306M139.309 67.597C139.391 68.1884 139.619 68.7509 139.972 69.2353C140.402 69.801 140.973 70.2469 141.629 70.5296C142.371 70.8549 143.177 71.017 143.989 71.0047C144.776 71.0282 145.557 70.8564 146.259 70.505C146.821 70.2147 147.286 69.7712 147.601 69.2271C147.898 68.7105 148.052 68.1257 148.048 67.5314C148.069 66.8182 147.857 66.1173 147.443 65.5327C147.112 65.0606 146.665 64.6799 146.143 64.4268C145.451 64.11 144.74 63.8364 144.014 63.6076C143.418 63.4254 142.832 63.2122 142.258 62.9687C141.824 62.7813 141.436 62.5016 141.123 62.1495C140.793 61.7418 140.622 61.2299 140.643 60.7078C140.627 60.3819 140.684 60.0565 140.81 59.755C140.936 59.4534 141.128 59.183 141.372 58.963C141.907 58.5422 142.578 58.3269 143.26 58.3568C144 58.3213 144.725 58.5643 145.29 59.0367C145.71 59.4063 146.014 59.8865 146.168 60.4211H147.634C147.477 59.5935 147.024 58.8493 146.358 58.3241C145.486 57.6554 144.405 57.3079 143.302 57.3411C142.547 57.3236 141.797 57.4719 141.107 57.7752C140.518 58.0259 140.019 58.4454 139.674 58.9794C139.343 59.5077 139.173 60.1192 139.185 60.7406C139.151 61.405 139.334 62.0626 139.707 62.6165C140.036 63.0673 140.471 63.4327 140.974 63.6814C141.655 63.9967 142.355 64.2703 143.07 64.5005C143.682 64.6843 144.283 64.906 144.867 65.1641C145.32 65.371 145.719 65.6762 146.035 66.0569C146.379 66.4839 146.555 67.019 146.532 67.5642C146.543 67.8891 146.488 68.2129 146.368 68.5157C146.248 68.8185 146.067 69.094 145.837 69.3254C145.57 69.5657 145.258 69.7505 144.917 69.8687C144.577 69.9869 144.217 70.0362 143.857 70.0135C143.28 70.0281 142.71 69.8955 142.2 69.6285C141.764 69.3908 141.396 69.0468 141.132 68.6291C140.93 68.3172 140.792 67.9693 140.726 67.6052L139.309 67.597Z" fill="white"/>
<path d="M165.037 57.3008V58.7425H161.111V71.0299H159.322V58.7425H155.404V57.3008H165.037Z" fill="white"/>
<path d="M161.351 71.2674H159.09V58.9799H155.172V57.0713H165.269V58.9799H161.351V71.2674ZM159.554 70.8086H160.879V58.5212H164.839V57.5382H155.636V58.5212H159.554V70.8086Z" fill="white"/>
<path d="M174.505 58.7425V63.4363H179.79V64.7961H174.505V69.5882H180.378V71.0299H172.716V57.3008H180.378V58.7425H174.505Z" fill="white"/>
<path d="M180.577 71.2674H172.451V57.0713H180.577V58.9799H174.779V63.215H180.063V65.0335H174.779V69.3669H180.577V71.2674ZM172.915 70.8086H180.113V69.8256H174.24V64.5666H179.525V63.6655H174.24V58.513H180.113V57.53H172.915V70.8086Z" fill="white"/>
<path d="M197.102 57.3008V58.7425H193.184V71.0299H191.387V58.7425H187.469V57.3008H197.102Z" fill="white"/>
<path d="M193.416 71.2674H191.155V58.9799H187.204V57.0713H197.301V58.9799H193.416V71.2674ZM191.619 70.8086H192.944V58.5212H196.87V57.5382H187.701V58.5212H191.619V70.8086Z" fill="white"/>
<path d="M206.57 57.3008H204.781V71.0299H206.57V57.3008Z" fill="white"/>
<path d="M206.81 71.2674H204.549V57.0713H206.81V71.2674ZM205.013 70.8086H206.338V57.53H205.013V70.8086Z" fill="white"/>
<path d="M225.696 58.3978C226.819 59.2413 227.624 60.4323 227.983 61.7809H226.135C225.804 60.8999 225.205 60.1418 224.421 59.6101C223.566 59.0484 222.556 58.7623 221.53 58.791C220.673 58.7754 219.828 58.9997 219.094 59.4381C218.362 59.8935 217.773 60.5436 217.396 61.314C216.972 62.2045 216.762 63.1803 216.783 64.1647C216.762 65.1411 216.972 66.1091 217.396 66.9908C217.77 67.7589 218.359 68.4044 219.093 68.8504C219.828 69.2963 220.676 69.5238 221.538 69.5056C222.564 69.5343 223.574 69.2482 224.429 68.6865C225.205 68.156 225.8 67.4046 226.135 66.5321H228.024C227.665 67.8785 226.86 69.0669 225.738 69.907C224.519 70.769 223.044 71.2043 221.546 71.1439C220.337 71.1679 219.145 70.8618 218.1 70.2592C217.103 69.6748 216.293 68.8227 215.765 67.8018C215.196 66.6819 214.912 65.442 214.936 64.1893C214.912 62.926 215.196 61.6756 215.765 60.544C216.294 59.5236 217.103 58.6717 218.1 58.0865C219.145 57.4839 220.337 57.1778 221.546 57.2018C223.044 57.1414 224.519 57.5767 225.738 58.4387" fill="white"/>
<path d="M221.505 71.3821C220.25 71.402 219.015 71.0788 217.935 70.4482C216.901 69.8351 216.063 68.9465 215.516 67.8843C214.939 66.7292 214.655 65.453 214.688 64.1653C214.655 62.8697 214.939 61.5855 215.516 60.4217C216.062 59.3544 216.9 58.4603 217.935 57.8413C219.019 57.2212 220.253 56.9041 221.505 56.9239C223.053 56.866 224.577 57.3184 225.837 58.21C226.994 59.0865 227.827 60.3159 228.206 61.7078L228.297 62.0027H225.936L225.878 61.8552C225.553 61.0156 224.975 60.295 224.222 59.7909C223.404 59.2608 222.441 58.992 221.463 59.0209C220.648 59.0101 219.847 59.2324 219.156 59.6611C218.466 60.0898 217.915 60.7066 217.57 61.4375C217.18 62.2965 216.978 63.2276 216.978 64.1694C216.978 65.1111 217.18 66.0422 217.57 66.9013C217.943 67.6334 218.517 68.2467 219.227 68.6707C219.923 69.0888 220.724 69.3046 221.538 69.2932C222.515 69.3222 223.478 69.0534 224.296 68.5232C225.049 68.0191 225.627 67.2985 225.953 66.4589L226.011 66.3115H228.372L228.281 66.6064C227.901 67.9982 227.069 69.2277 225.912 70.1042C224.651 70.9958 223.128 71.4482 221.579 71.3903M221.579 57.399C220.42 57.3708 219.275 57.6539 218.266 58.2182C217.273 58.7836 216.463 59.6159 215.93 60.6183C215.369 61.7116 215.085 62.9231 215.102 64.1489C215.085 65.3669 215.369 66.5705 215.93 67.6549C216.439 68.6408 217.217 69.4665 218.175 70.0387C219.184 70.603 220.329 70.8861 221.488 70.8578C222.934 70.9138 224.358 70.4963 225.539 69.67C226.535 68.9206 227.273 67.8848 227.651 66.7047H226.235C225.877 67.567 225.272 68.3073 224.495 68.8345C223.597 69.4095 222.541 69.6956 221.472 69.6537C220.57 69.6672 219.683 69.4287 218.912 68.9656C218.148 68.4901 217.532 67.8155 217.131 67.016C216.687 66.1017 216.466 65.0974 216.485 64.0834C216.466 63.0615 216.687 62.0492 217.131 61.1262C217.521 60.3193 218.138 59.6406 218.908 59.1714C219.677 58.7021 220.568 58.4622 221.472 58.4803C222.54 58.4421 223.595 58.7279 224.495 59.2995C225.271 59.8316 225.875 60.574 226.235 61.4375H227.651C227.273 60.2573 226.535 59.2216 225.539 58.4721C224.36 57.6396 222.935 57.2188 221.488 57.2761" fill="white"/>
<path d="M244.433 67.8597H238.328L237.16 71.0299H235.247L240.391 57.5547H242.42L247.539 71.0299H245.609L244.433 67.8597ZM243.919 66.4754L241.376 59.5371L238.834 66.4754H243.919Z" fill="white"/>
<path d="M247.862 71.2675H245.427L244.267 68.0974H238.469L237.326 71.2675H234.899L240.217 57.3418H242.569L247.862 71.2675ZM245.758 70.8088H247.183L242.213 57.7923H240.507L235.537 70.8088H236.97L238.129 67.6305H244.557L245.758 70.8088ZM244.251 66.713H238.502L241.377 58.8736L244.251 66.713ZM239.173 66.2543H243.588L241.377 60.2252L239.173 66.2543Z" fill="white"/>
<path d="M276.357 58.3986C277.475 59.2468 278.278 60.436 278.643 61.7817H276.755C276.414 60.8962 275.803 60.1375 275.007 59.6109C274.15 59.0476 273.137 58.7613 272.108 58.7917C271.253 58.7772 270.412 59.0015 269.681 59.4389C268.948 59.8943 268.36 60.5444 267.983 61.3148C267.551 62.2033 267.338 63.1801 267.361 64.1655C267.338 65.143 267.551 66.1118 267.983 66.9916C268.356 67.7596 268.945 68.4052 269.68 68.8511C270.414 69.297 271.263 69.5245 272.124 69.5064C273.153 69.5368 274.166 69.2506 275.023 68.6872C275.806 68.1536 276.404 67.3961 276.738 66.5164H278.627C278.262 67.86 277.458 69.0465 276.34 69.8914C275.121 70.7534 273.647 71.1887 272.149 71.1283C270.94 71.1523 269.748 70.8462 268.703 70.2436C267.706 69.6591 266.896 68.8071 266.367 67.7861C265.795 66.6676 265.511 65.4268 265.539 64.1736C265.511 62.91 265.795 61.6586 266.367 60.5284C266.896 59.508 267.706 58.6561 268.703 58.0709C269.748 57.4683 270.94 57.1622 272.149 57.1862C273.647 57.1258 275.121 57.5611 276.34 58.4231" fill="white"/>
<path d="M272.166 71.3817C270.911 71.4024 269.676 71.0792 268.596 70.4478C267.56 69.8371 266.721 68.948 266.177 67.8839C265.6 66.7288 265.316 65.4526 265.349 64.1649C265.316 62.8693 265.6 61.5851 266.177 60.4213C266.723 59.354 267.561 58.4599 268.596 57.841C269.679 57.2196 270.914 56.9024 272.166 56.9235C273.714 56.8681 275.237 57.3202 276.498 58.2096C277.655 59.0861 278.488 60.3155 278.867 61.7074L278.958 62.0023H276.589L276.531 61.8548C276.21 61.0131 275.63 60.2915 274.875 59.7906C274.054 59.2593 273.088 58.9904 272.108 59.0205C271.293 59.0074 270.492 59.2233 269.797 59.6431C269.115 60.0858 268.57 60.7068 268.223 61.4371C267.811 62.2936 267.607 63.2331 267.627 64.1813C267.608 65.1214 267.812 66.0528 268.223 66.9009C268.584 67.6254 269.14 68.2376 269.83 68.6703C270.527 69.0864 271.327 69.302 272.141 69.2928C273.121 69.3229 274.087 69.0541 274.908 68.5228C275.664 68.0219 276.243 67.3003 276.564 66.4585L276.622 66.3111H278.991L278.9 66.606C278.521 67.9979 277.688 69.2273 276.531 70.1038C275.271 70.9954 273.747 71.4478 272.199 71.3899M272.199 57.3986C271.04 57.3704 269.895 57.6535 268.886 58.2178C267.906 58.7868 267.111 59.6191 266.591 60.6179C266.03 61.7112 265.746 62.9227 265.763 64.1485C265.746 65.3665 266.03 66.5701 266.591 67.6545C267.098 68.642 267.876 69.4682 268.836 70.0383C269.845 70.6033 270.99 70.8865 272.149 70.8574C273.595 70.9134 275.019 70.4959 276.2 69.6696C277.19 68.9365 277.93 67.9219 278.32 66.7616H276.912C276.555 67.624 275.95 68.3642 275.173 68.8914C274.271 69.4656 273.213 69.7516 272.141 69.7106C271.242 69.7244 270.357 69.4858 269.59 69.0225C268.824 68.5494 268.207 67.8742 267.809 67.0729C267.361 66.16 267.14 65.1547 267.163 64.1403C267.14 63.118 267.361 62.1048 267.809 61.1831C268.198 60.3775 268.814 59.6997 269.582 59.2306C270.35 58.7614 271.238 58.5207 272.141 58.5372C273.212 58.4999 274.27 58.7856 275.173 59.3564C275.949 59.8886 276.553 60.631 276.912 61.4944H278.32C277.942 60.3143 277.205 59.2785 276.208 58.529C275.03 57.6965 273.605 57.2757 272.158 57.3331" fill="white"/>
<path d="M288.749 58.7425V63.4363H294.026V64.7961H288.749V69.5882H294.614V71.0299H286.96V57.3008H294.614V58.7425H288.749Z" fill="white"/>
<path d="M294.887 71.2674H286.753V57.0713H294.887V58.9799H289.014V63.215H294.291V65.0335H289.014V69.3669H294.887V71.2674ZM287.225 70.8086H294.415V69.8256H288.55V64.5666H293.827V63.6655H288.55V58.513H294.415V57.53H287.225V70.8086Z" fill="white"/>
<path d="M310.195 71.0295L306.575 65.4182H304.62V71.0295H302.831V57.3413H307.403C308.686 57.2448 309.957 57.6442 310.949 58.4554C311.343 58.8427 311.652 59.3073 311.854 59.8193C312.057 60.3314 312.149 60.8796 312.125 61.4289C312.171 62.4138 311.833 63.3787 311.18 64.124C310.453 64.8595 309.483 65.3129 308.447 65.4019L312.224 71.0705L310.195 71.0295ZM304.62 64.1322H307.246C309.275 64.1322 310.294 63.2557 310.294 61.4863C310.294 59.7169 309.275 58.8404 307.246 58.8404H304.62V64.1322Z" fill="white"/>
<path d="M312.663 71.2668H310.07L306.484 65.6473H304.827V71.2668H302.566V57.0707H307.37C308.712 56.9721 310.041 57.3953 311.073 58.2503C311.493 58.6566 311.823 59.146 312.04 59.6865C312.257 60.227 312.356 60.8066 312.332 61.3877C312.374 62.4305 312.013 63.4502 311.321 64.2384C310.656 64.9243 309.784 65.3785 308.836 65.5326L312.663 71.2668ZM310.327 70.808H311.793L308.049 65.1968L308.414 65.1394C309.402 65.0417 310.324 64.6005 311.015 63.8943C311.623 63.1891 311.937 62.281 311.893 61.3549C311.916 60.8372 311.829 60.3204 311.638 59.8379C311.447 59.3554 311.155 58.9178 310.783 58.5534C309.838 57.7797 308.626 57.4006 307.403 57.4967H303.063V70.7671H304.388V65.1886H306.699L310.327 70.808ZM307.246 64.3694H304.388V58.6353H307.246C309.963 58.6353 310.559 60.2081 310.559 61.5187C310.559 62.8294 309.996 64.394 307.246 64.394M304.827 63.8943H307.213C309.11 63.8943 310.029 63.0752 310.029 61.4368C310.029 59.7985 309.11 58.9793 307.213 58.9793H304.827V63.8943Z" fill="white"/>
<path d="M328.36 67.8597H322.222L321.054 71.0299H319.157L324.301 57.5547H326.364L331.483 71.0299H329.553L328.36 67.8597ZM327.846 66.4754L325.303 59.5371L322.76 66.4754H327.846Z" fill="white"/>
<path d="M331.789 71.2675H329.354L328.194 68.0974H322.396L321.253 71.2675H318.826L324.144 57.3418H326.488L331.789 71.2675ZM329.677 70.8006H331.11L326.14 57.7841H324.459L319.489 70.8006H320.922L322.081 67.6223H328.517L329.677 70.8006ZM328.17 66.7048H322.421L325.295 58.8654L328.17 66.7048ZM323.092 66.2461H327.507L325.295 60.2171L323.092 66.2461Z" fill="white"/>
<path d="M353.077 57.5303V71.03H351.288V60.2581L346.931 71.03H345.332L340.967 60.299V71.03H339.17V57.5303H341.323L346.161 68.8675L350.932 57.5303H353.077Z" fill="white"/>
<path d="M353.31 71.2675H351.048V61.4376L347.072 71.2675H345.159L341.183 61.4949V71.2675H338.921V57.3418H341.456L346.144 68.3104L350.775 57.3418H353.31V71.2675ZM351.52 70.8088H352.871V57.7596H351.114L346.169 69.4654L341.199 57.7596H339.435V70.8006H340.76V59.1112L345.532 70.8006H346.807L351.553 59.062L351.52 70.8088Z" fill="white"/>
<path d="M363.647 57.3008H361.858V71.0299H363.647V57.3008Z" fill="white"/>
<path d="M363.887 71.2674H361.626V57.0713H363.887V71.2674ZM362.098 70.8086H363.423V57.53H362.098V70.8086Z" fill="white"/>
<path d="M382.782 58.3979C383.899 59.2462 384.703 60.4353 385.068 61.7811H383.171C382.845 60.8991 382.249 60.14 381.465 59.6103C380.607 59.0469 379.594 58.7607 378.565 58.7911C377.708 58.7773 376.865 59.0015 376.13 59.4383C375.414 59.9012 374.841 60.5502 374.473 61.3142C374.042 62.2027 373.829 63.1795 373.852 64.1648C373.829 65.1423 374.042 66.1112 374.473 66.9909C374.845 67.7603 375.434 68.407 376.169 68.8532C376.904 69.2993 377.753 69.526 378.615 69.5058C379.644 69.5362 380.657 69.25 381.514 68.6866C382.296 68.1549 382.893 67.3965 383.221 66.5158H385.117C384.753 67.8594 383.949 69.0459 382.831 69.8908C381.589 70.7775 380.079 71.2196 378.549 71.1441C377.34 71.1656 376.148 70.8596 375.103 70.2594C374.109 69.6704 373.3 68.8195 372.767 67.8019C372.199 66.682 371.914 65.4422 371.939 64.1894C371.915 62.9262 372.199 61.6758 372.767 60.5442C373.301 59.5273 374.11 58.6767 375.103 58.0867C376.144 57.4721 377.336 57.152 378.549 57.161C380.049 57.0994 381.527 57.5347 382.748 58.3979" fill="white"/>
<path d="M378.549 71.3815C377.298 71.4036 376.065 71.0833 374.987 70.4558C373.949 69.8457 373.107 68.9565 372.56 67.8919C371.983 66.7368 371.699 65.4606 371.732 64.1729C371.699 62.8773 371.983 61.5931 372.56 60.4293C373.109 59.3617 373.95 58.4678 374.987 57.849C376.067 57.2279 377.299 56.9107 378.549 56.9315C380.099 56.8749 381.625 57.3271 382.889 58.2176C384.044 59.0966 384.876 60.325 385.258 61.7154L385.341 62.0103H382.98L382.922 61.8628C382.598 61.0227 382.019 60.3019 381.266 59.7986C380.445 59.2682 379.479 58.9995 378.499 59.0285C377.692 59.0249 376.9 59.2496 376.217 59.6764C375.535 60.1031 374.99 60.7139 374.647 61.4369C374.232 62.2921 374.027 63.2326 374.051 64.1811C374.028 65.1216 374.233 66.054 374.647 66.9007C374.999 67.6254 375.553 68.2352 376.245 68.6577C376.936 69.0802 377.736 69.2977 378.549 69.2844C379.529 69.3135 380.494 69.0448 381.315 68.5144C382.069 68.0111 382.648 67.2903 382.972 66.4502L383.03 66.3027H385.391L385.308 66.5976C384.923 67.9869 384.092 69.2147 382.939 70.0954C381.662 70.9964 380.116 71.4491 378.549 71.3815ZM378.549 57.3902C377.389 57.3595 376.244 57.6428 375.235 58.2094C374.28 58.7909 373.508 59.6251 373.007 60.6177C372.446 61.711 372.162 62.9225 372.179 64.1483C372.162 65.3663 372.446 66.5699 373.007 67.6543C373.506 68.6482 374.279 69.4828 375.235 70.0626C376.244 70.6293 377.389 70.9125 378.549 70.8818C379.997 70.9353 381.422 70.5181 382.608 69.694C383.602 68.9441 384.337 67.9082 384.712 66.7287H383.295C382.941 67.5904 382.339 68.3308 381.564 68.8585C380.662 69.4326 379.604 69.7186 378.532 69.6776C377.633 69.6915 376.748 69.4529 375.981 68.9895C375.215 68.5164 374.598 67.8412 374.2 67.0399C373.752 66.127 373.531 65.1217 373.554 64.1073C373.531 63.0851 373.752 62.0719 374.2 61.1502C374.6 60.3542 375.222 59.6882 375.993 59.231C376.763 58.7737 377.65 58.5442 378.549 58.5698C379.62 58.5325 380.677 58.8182 381.58 59.389C382.354 59.9216 382.955 60.6641 383.312 61.527H384.728C384.353 60.3474 383.618 59.3116 382.624 58.5616C381.443 57.7291 380.015 57.3083 378.565 57.3656" fill="white"/>
<path d="M401.51 67.8597H395.405L394.287 71.0299H392.357L397.493 57.5547H399.522L404.65 71.0299H402.711L401.51 67.8597ZM400.997 66.4754L398.429 59.5371L395.944 66.4754H400.997Z" fill="white"/>
<path d="M404.94 71.2675H402.512L401.345 68.0974H395.546L394.403 71.2675H391.976L397.294 57.3418H399.646L404.94 71.2675ZM402.836 70.8088H404.269L399.299 57.7923H397.6L392.63 70.8088H394.063L395.223 67.6305H401.659L402.836 70.8088ZM401.328 66.713H395.588L398.429 58.8654L401.328 66.713ZM396.25 66.2543H400.665L398.429 60.2171L396.25 66.2543Z" fill="white"/>
<path d="M263.071 78.124H257.786V92.0088H263.071V78.124Z" fill="#009247"/>
<path d="M268.38 78.124H263.095V92.0088H268.38V78.124Z" fill="white"/>
<path d="M273.557 78.124H268.272V92.0088H273.557V78.124Z" fill="#CE2A37"/>
<path d="M406.157 84.833H278.304V85.2917H406.157V84.833Z" fill="white"/>
<path d="M251.391 84.833H123.538V85.2917H251.391V84.833Z" fill="white"/>
</svg>
