<svg width="48" height="48" viewBox="0 0 48 48" fill="none" xmlns="http://www.w3.org/2000/svg">
<circle cx="24" cy="24" r="24" fill="white"/>
<g clip-path="url(#clip0_739_1562)">
<path d="M27.3791 35.8662C28.2398 35.8662 28.8965 35.3824 29.1666 34.5663L29.6523 33.1888H35.423L34.8653 34.7626H37.9935C38.7338 34.7626 39.2467 34.0009 38.8795 32.9945L38.5512 32.0443C38.3063 31.3041 37.6865 30.8844 36.9074 30.8844H30.0778C29.4347 30.8824 28.7489 31.3099 28.506 32.0443L28.0513 33.3384H26.0695L26.0598 32.7244H25.0805L25.0844 32.3164L24.4413 31.6732C25.0358 30.9757 25.7528 30.8455 26.7262 30.8455H27.6511C29.1472 30.8455 30.1944 29.7963 30.1944 28.3002V25.9959L31.1951 24.3735L30.1886 22.7414V20.6507H30.5714V17.3652H27.2858V17.7479H26.3493V17.2855L25.3467 16.9202C25.9451 16.8833 27.859 16.7803 27.9367 16.0789L27.9581 15.9682H28.0649L28.1504 15.3367C28.1698 15.1949 28.1621 15.088 28.1116 14.9812C28.2398 14.8995 28.4069 14.6916 28.436 14.5071C28.471 14.27 28.5079 14.033 28.5448 13.7959L28.403 13.7571L28.8246 11.6587C27.2605 11.1263 25.6692 11 24.0235 11C22.3778 11 20.7652 11.1321 19.1797 11.6567L19.6635 14.068C19.5741 14.2292 19.51 14.3963 19.5586 14.6334L19.6538 15.0958C19.7024 15.3328 19.8306 15.4688 19.9686 15.5893L20.0754 16.1294C20.2056 16.7765 22.067 16.8853 22.6596 16.9222L21.657 17.2875V17.7499H20.7205V17.3671H19.578C19.0923 15.9643 17.2426 15.9429 16.7627 17.1748L16.4051 18.0938L15.6221 18.3619L15.7018 17.7052C15.9116 17.5886 16.0476 17.4021 16.1254 17.1845C16.7782 17.2389 17.1882 16.7298 16.9103 16.1158L16.784 16.1003C16.8404 15.9507 16.8831 15.7797 16.9297 15.6262L15.6746 15.2396C15.4317 14.8587 15.0684 14.6761 14.6332 14.6003L13.788 14.4527C13.5276 14.0272 13.0088 13.9009 12.5755 14.1301C12.1384 14.3613 11.9616 14.8587 12.1753 15.3134L11.573 16.7629L11.1067 16.7201L10.9454 18.2745L10.2343 19.9901V26.7925C10.9337 27.1578 10.9124 28.0476 10.2343 28.376V31.0554C9.99722 31.2147 9.67469 31.3993 9.45319 32.0463L9.12483 32.9964C8.75761 34.0009 9.27055 34.7645 10.0108 34.7645H13.139L12.5814 33.1907H18.352L18.8377 34.5683C19.1078 35.3843 19.7645 35.8681 20.6253 35.8681H23.1395L23.7302 36.4588L24.0022 36.7308L24.8493 35.8681H27.381L27.3791 35.8662ZM21.9232 33.3384H19.953L19.4984 32.0443C19.2885 31.409 18.7775 30.964 18.1091 30.8747C18.0372 29.9984 17.7303 29.297 16.7782 29.0813V27.7018L15.251 26.0367L15.9039 23.9441L17.3863 23.4389L16.8093 24.3754L17.8021 25.9842C17.806 26.7595 17.8099 27.5269 17.8119 28.3022C17.8119 29.7983 18.8572 30.8475 20.3552 30.8475H21.2801C22.2535 30.8475 22.9685 30.9757 23.5631 31.6713L22.918 32.3183V32.7088H21.9271V33.3403L21.9232 33.3384ZM14.4991 30.8863H13.9434C13.9259 30.0334 13.6112 29.3358 12.7388 29.1027L13.2187 28.5684L14.4991 29.1843V30.8883V30.8863Z" fill="black"/>
<path d="M15.5425 16.2419L16.1098 16.1953C16.1293 16.1953 16.1467 16.1856 16.1623 16.1739C16.1876 16.1545 16.2031 16.137 16.207 16.1273L16.9084 16.1176C16.9725 16.2594 17.0036 16.4129 16.9919 16.5586C16.9822 16.6733 16.9473 16.784 16.8831 16.8812C16.8171 16.9822 16.7238 17.0638 16.6014 17.1182C16.4751 17.1746 16.3177 17.2018 16.1293 17.1882L15.4959 17.1357L15.1694 16.6189L15.22 16.4887L15.5464 16.2439L15.5425 16.2419ZM35.6931 18.9912L35.5434 20.2425L36.4042 23.8642L36.5771 22.8539C36.954 20.6641 37.7934 20.3941 38.9942 20.7399V21.0955C38.6211 21.4588 38.5939 21.7231 38.5939 22.3584V28.6303C38.5939 30.0312 37.5972 30.7346 36.7053 30.7015L36.7112 31.2533L29.666 31.2358L29.6757 30.9153C29.697 30.0098 30.1925 29.3181 31.1504 29.3181H31.2961L30.8162 27.5287L33.2216 26.3046L33.6529 24.552L33.2041 23.8156L32.1957 24.144L29.7903 23.089V20.534H30.1808C30.4043 20.534 30.6569 20.5709 30.8823 20.6816V20.19C30.3907 19.8928 30.1672 19.6149 30.1672 19.0126V18.0003H31.094L32.3842 18.6512L32.4211 18.5366L32.289 18.5074L32.423 17.5068C31.9897 17.4602 31.708 17.3455 31.5623 16.8831C30.8959 16.8462 30.55 16.3022 30.9153 15.7173L31.1174 15.729L31.1057 15.4259L32.0675 15.1869C32.2987 14.7944 32.7689 14.6331 33.2041 14.6079L33.241 14.1357L33.6063 14.1435C34.23 14.1571 34.6788 14.3339 35.0266 14.8741L35.9962 16.3799L35.8932 17.2115L36.0039 17.2251L35.8019 19.0048L35.6911 18.9912H35.6931ZM33.5053 29.7067C33.6024 29.5882 33.7229 29.4891 33.8686 29.4211L33.6646 29.1957L33.4256 29.2812L33.5053 29.7067Z" fill="black"/>
<path fill-rule="evenodd" clip-rule="evenodd" d="M20.6236 35.4794C19.86 35.4794 19.3976 35.0325 19.2033 34.4457L18.7525 33.1692C18.9196 33.5325 19.3704 33.7268 19.7299 33.7268H21.9215V33.9231L21.0608 34.7819L21.7564 35.4774H20.6217L20.6236 35.4794ZM26.0737 33.7268H28.2712C28.6306 33.7268 29.0833 33.5345 29.2485 33.1692L28.7977 34.4457C28.6034 35.0306 28.1429 35.4794 27.3774 35.4794H26.2388L26.9383 34.7838L26.0737 33.9192V33.7268ZM35.4524 34.3758L35.876 33.1711H37.679C38.6447 33.1711 38.5961 34.3758 37.7179 34.3758H35.4524ZM12.5506 34.3758L12.127 33.1711H10.3239C9.35827 33.1711 9.40684 34.3758 10.2851 34.3758H12.5506Z" fill="#C39600"/>
<path fill-rule="evenodd" clip-rule="evenodd" d="M27.9441 14.06C27.9849 14.0678 28.0257 14.0755 28.0665 14.0833C28.049 14.198 28.0315 14.3145 28.014 14.4292C27.9985 14.5283 27.9557 14.6176 27.8974 14.6876C27.8683 14.7226 27.8353 14.7536 27.7983 14.7789L27.7498 15.0179C27.7517 15.0276 27.7556 15.0393 27.7575 15.049C27.7731 15.1209 27.775 15.1986 27.7634 15.2763C27.7517 15.3598 27.7381 15.4453 27.7265 15.5289L27.6487 15.5153L27.5438 16.0341C27.5438 16.3294 25.9545 16.5703 23.9959 16.5703C22.0374 16.5703 20.5083 16.3391 20.45 16.0515L20.3121 15.3618C20.2946 15.3521 20.279 15.3424 20.2635 15.3307C20.1391 15.2433 20.0439 15.1092 20.0051 14.9479L19.941 14.606C19.9138 14.4622 19.9468 14.3204 20.0245 14.2096C20.0381 14.1882 20.0556 14.1688 20.0711 14.1513L19.6223 11.913C21.746 11.2097 26.3081 11.2097 28.3735 11.913L27.9421 14.0581L27.9441 14.06Z" fill="black"/>
<path d="M15.1012 15.6183C15.1012 15.6183 15.0254 15.4143 14.7573 15.3521C14.3881 15.2647 14.2307 15.6125 14.6096 15.6805C14.9458 15.7388 15.0993 15.6203 15.0993 15.6203L15.1012 15.6183Z" fill="black" stroke="black" stroke-width="0.775246" stroke-miterlimit="22.93"/>
<path fill-rule="evenodd" clip-rule="evenodd" d="M18.1635 25.8366L17.262 24.3774L18.2024 22.8522V20.2661H17.8196V17.7557H20.3299V18.1385H22.0436V17.5576L24.0002 16.8445L25.9587 17.5576V18.1385H27.6724V17.7557H30.1808V20.2661H29.798V22.8522L30.7404 24.3774L29.8388 25.8366H18.1635Z" fill="#008C46"/>
<path fill-rule="evenodd" clip-rule="evenodd" d="M12.6024 15.2822C12.0837 14.571 13.2242 13.9843 13.5234 14.7984L14.5629 14.981C14.9243 15.0451 15.2235 15.1792 15.4081 15.562L16.4456 15.8825C16.3271 16.2789 16.0182 16.5509 15.6859 16.5237L14.7125 16.4402C14.3977 16.413 14.1879 16.4013 14.1296 16.7569L15.7947 16.9201C15.6879 17.4253 15.344 17.468 15.0486 17.433L11.8699 17.0503L12.6005 15.2841L12.6024 15.2822ZM15.0273 18.6785L15.8375 21.6376H16.7177L16.7274 21.4725C16.7623 20.8274 17.3316 20.6001 17.8213 20.6117V22.8831L15.5072 23.67L12.9425 21.8378L12.721 22.1486L15.445 24.1091L14.7805 26.2464L12.2702 29.0442V29.4134C13.3 29.5008 13.5448 30.1265 13.5564 30.8881H10.6206V28.5993C11.322 28.2068 11.3337 27.0605 10.6206 26.5844V20.0638L11.3706 18.2549L15.0273 18.6746V18.6785ZM11.8913 17.6992L12.4276 17.2737L12.8531 17.81L13.2786 18.3462L13.8149 17.9207L13.3893 17.3845L12.8531 17.81L12.3168 18.2355L11.8913 17.6992L11.355 18.1247L11.4658 17.163L11.8913 17.6992ZM13.8168 17.9207L14.3531 17.4952L14.7786 18.0315L15.2041 18.5677L15.3148 17.606L14.7786 18.0315L14.2423 18.457L13.8168 17.9207ZM15.1011 15.6183C15.1011 15.6183 15.0253 15.4143 14.7572 15.3521C14.388 15.2647 14.2306 15.6125 14.6095 15.6805C14.9457 15.7388 15.0992 15.6202 15.0992 15.6202L15.1011 15.6183Z" fill="#FFCC00"/>
<path fill-rule="evenodd" clip-rule="evenodd" d="M19.166 17.3786C18.789 16.3818 17.4328 16.5062 17.12 17.3144L16.6984 18.4025L15.4646 18.8241L16.0009 20.7827L17.4387 19.7004V17.3786H19.166Z" fill="#C39600"/>
<path fill-rule="evenodd" clip-rule="evenodd" d="M33.2405 17.8333L33.7476 17.4311L34.1498 17.9383L34.552 18.4454L35.0591 18.0432L34.6569 17.5361L34.1498 17.9383L33.6427 18.3405L33.2405 17.8333ZM36.3182 30.3539C37.5228 30.4199 38.2281 29.7049 38.2048 28.5003V22.1176C38.2048 21.6318 38.333 21.2374 38.5798 20.9868C37.5325 20.7323 37.1731 21.6843 36.9613 22.9181L36.0675 28.1214L35.6964 28.0573L36.2463 24.863L35.1505 20.2504L35.3273 18.6708L32.8441 18.3735L32.4594 19.7647L33.7379 20.1532L33.631 20.5049L32.2302 20.0794L32.0048 18.8961L31.008 18.391H30.5592V19.0147C30.5592 19.5237 30.738 19.6694 31.2723 19.9706V21.251L32.4381 21.8028L34.0721 24.488L33.668 26.1551L34.9348 25.4731L35.1135 25.8054L31.2781 27.7328L31.8085 29.7088H31.1576C30.4174 29.7088 30.0948 30.2256 30.0696 30.894H33.3357L32.9899 29.0307L33.769 28.7315L34.6511 29.7088H34.3461C33.7049 29.7088 33.5261 30.4141 33.563 30.894H36.324L36.3182 30.3558H36.3221L36.3182 30.3539ZM35.0572 18.0412L35.5643 17.639L35.4594 18.5464L35.0572 18.0393V18.0412ZM33.2405 17.8333L32.8383 17.3262L32.7334 18.2336L33.2405 17.8314V17.8333ZM33.2541 15.3211C33.2541 15.3211 33.1298 15.5309 32.9044 15.6281C32.5954 15.7621 32.3759 15.5406 32.7528 15.3755C32.9763 15.2783 33.2541 15.3211 33.2541 15.3211ZM35.4652 17.4273L35.576 16.4402L34.7036 15.086C34.4471 14.6877 34.1362 14.5458 33.6019 14.5322L33.565 15.0083C33.1142 14.9441 32.4808 15.0646 32.3467 15.5193L31.5093 15.7272C31.521 15.9933 31.6453 16.2148 31.8727 16.2284L33.2269 16.3198C33.4873 16.3372 33.6855 16.5374 33.6777 16.7958L31.8999 16.6598C31.8843 16.7919 32.0436 17.0795 32.3545 17.1125L35.4652 17.4273Z" fill="#FFCC00"/>
<path fill-rule="evenodd" clip-rule="evenodd" d="M21.0255 22.8812V22.4985H22.3448V22.8812H21.0255ZM19.5741 24.4103V24.0276H19.9821C19.9685 23.9868 19.9607 23.944 19.9607 23.8993C19.9607 23.7245 20.0695 23.5768 20.223 23.5166C20.0695 23.4563 19.9607 23.3087 19.9607 23.1338C19.9607 22.9589 20.0695 22.8113 20.223 22.751C20.0695 22.6908 19.9607 22.5431 19.9607 22.3683C19.9607 22.1409 20.1453 21.9583 20.3707 21.9583C20.5961 21.9583 20.7807 22.1429 20.7807 22.3683C20.7807 22.5431 20.6719 22.6908 20.5184 22.751C20.6719 22.8113 20.7807 22.9589 20.7807 23.1338C20.7807 23.3087 20.6719 23.4563 20.5184 23.5166C20.6719 23.5768 20.7807 23.7245 20.7807 23.8993C20.7807 23.944 20.7729 23.9868 20.7593 24.0276H22.6071C22.5935 23.9868 22.5857 23.944 22.5857 23.8993C22.5857 23.7245 22.6945 23.5768 22.848 23.5166C22.6945 23.4563 22.5857 23.3087 22.5857 23.1338C22.5857 22.9589 22.6945 22.8113 22.848 22.751C22.6945 22.6908 22.5857 22.5431 22.5857 22.3683C22.5857 22.1409 22.7703 21.9583 22.9957 21.9583C23.221 21.9583 23.4056 22.1429 23.4056 22.3683C23.4056 22.5431 23.2968 22.6908 23.1433 22.751C23.2968 22.8113 23.4056 22.9589 23.4056 23.1338C23.4056 23.3087 23.2968 23.4563 23.1433 23.5166C23.2968 23.5768 23.4056 23.7245 23.4056 23.8993C23.4056 23.944 23.3978 23.9868 23.3842 24.0276H24.5092V22.3236L25.5682 21.253V20.4914H27.0079V21.253L28.0668 22.3236V24.0276H28.4204V24.4103H19.5663H19.5741ZM25.3408 20.1086V19.7258H27.2469V20.1086H25.3408ZM20.4329 21.4706V21.1695H19.7528V20.5127H19.407V20.13H20.1356V20.7867H20.4329V20.4855H20.8156V21.4687H20.4329V21.4706ZM22.3448 21.4706V22.1526H21.962V20.4855H22.9374V20.7867H23.6174V21.4434H23.9633V21.8262H23.2346V21.1695H22.9374V21.4706H22.3428H22.3448ZM21.1965 20.4875H21.5792V21.4706H21.1965V20.4875ZM21.0235 23.6467V23.264H22.3428V23.6467H21.0235Z" fill="white"/>
<path fill-rule="evenodd" clip-rule="evenodd" d="M15.1382 26.4873L16.3895 27.8513V29.4154C17.4212 29.5028 17.6641 30.1284 17.6758 30.8901H14.8856V28.9393L13.512 28.2787L15.1382 26.4854V26.4873Z" fill="#C39600"/>
<path fill-rule="evenodd" clip-rule="evenodd" d="M29.8113 28.3039C29.8113 29.5765 28.9428 30.4664 27.6488 30.4664H26.724C25.4533 30.4664 24.5595 30.787 24.0329 31.5642H23.9688C23.4423 30.787 22.5466 30.4664 21.2778 30.4664H20.353C19.0589 30.4664 18.1924 29.5785 18.1904 28.3039V25.8752L18.5421 25.7236H29.4597L29.8113 25.881V28.3039Z" fill="#C39600"/>
<path fill-rule="evenodd" clip-rule="evenodd" d="M24.0002 30.925H23.973C23.6427 30.548 22.8344 30.0895 21.6453 30.0895H20.3979C19.1874 30.0895 18.5657 29.2696 18.5657 28.2592V25.7236H29.4327V28.2592C29.4327 29.2715 28.811 30.0895 27.6005 30.0895H26.3512C25.1621 30.0895 24.3538 30.548 24.0235 30.925H23.9963H24.0002Z" fill="#FFCC00"/>
<path fill-rule="evenodd" clip-rule="evenodd" d="M21.5366 12.7272L21.457 11.5284C21.8572 11.4837 22.3002 11.4507 22.7724 11.4273L22.852 12.63C22.3818 12.6495 21.9388 12.6825 21.5366 12.7253V12.7272ZM28.0942 13.3703C27.2995 13.1255 25.7646 12.9584 24.0003 12.9584C22.2361 12.9584 20.7012 13.1236 19.9065 13.3703L19.9784 13.755C20.7905 13.5219 22.2886 13.3645 24.0003 13.3645C25.7121 13.3645 27.2101 13.5219 28.0223 13.755L28.0942 13.3703ZM20.3709 13.994C20.4408 13.9824 20.5127 13.9726 20.5846 13.961C20.6021 14.0756 20.6196 14.1903 20.637 14.3049C20.6506 14.3923 20.6429 14.4798 20.6157 14.5575C20.674 14.5478 20.7323 14.54 20.7925 14.5303C20.7925 14.5303 20.7944 14.5303 20.7983 14.5303C20.7808 14.3651 20.8313 14.2077 20.9285 14.0853C21.0256 13.9629 21.1714 13.8755 21.3385 13.8561C21.6318 13.8211 21.9252 13.79 22.2206 13.7628C22.2264 13.8463 22.2342 13.9318 22.2419 14.0154C22.2536 14.1397 22.2264 14.2602 22.172 14.3651C22.2458 14.3593 22.3177 14.3515 22.3916 14.3457C22.3916 14.3457 22.3954 14.3457 22.3974 14.3457C22.3916 14.1805 22.4537 14.0251 22.5606 13.9105C22.6655 13.7958 22.8209 13.7162 22.9919 13.7084C23.2892 13.6929 23.5884 13.6851 23.8857 13.6812C23.8857 13.7667 23.8896 13.8522 23.8915 13.9357C23.8915 14.062 23.8585 14.1805 23.7963 14.2796C23.8702 14.2796 23.9459 14.2777 24.0198 14.2757H24.0256C24.0314 14.1106 24.1033 13.961 24.2179 13.8541C24.3326 13.7473 24.49 13.6812 24.6629 13.687C24.9621 13.6967 25.2594 13.7123 25.5567 13.7298C25.5508 13.8153 25.5489 13.9008 25.545 13.9862C25.5392 14.1125 25.4964 14.2291 25.4265 14.3243C25.5003 14.3282 25.5741 14.336 25.648 14.3418C25.648 14.3418 25.6519 14.3418 25.6538 14.3418C25.6693 14.1747 25.7529 14.0329 25.8734 13.9338C25.9938 13.8347 26.1551 13.7842 26.3261 13.8036C26.6195 13.8386 26.9109 13.8794 27.2024 13.926C27.1926 14.0115 27.1829 14.097 27.1732 14.1825C27.1577 14.3088 27.1091 14.4215 27.0333 14.5089C27.1052 14.5206 27.1771 14.5322 27.249 14.5458C27.249 14.5458 27.2509 14.5458 27.2529 14.5458C27.2548 14.5244 27.2587 14.505 27.2606 14.4836C27.2781 14.336 27.3539 14.2116 27.4608 14.13C27.5696 14.0484 27.7095 14.0154 27.8552 14.0445C27.9251 14.0581 27.997 14.0737 28.0689 14.0873C28.0514 14.2019 28.0339 14.3185 28.0165 14.4331C28.0009 14.5322 27.9582 14.6216 27.8999 14.6915C27.8416 14.7634 27.7658 14.8159 27.6803 14.847C27.7172 14.9111 27.7444 14.981 27.76 15.0549C27.7755 15.1268 27.7775 15.2045 27.7658 15.2822C27.7542 15.3658 27.7406 15.4512 27.7289 15.5348C27.4588 15.4843 27.1887 15.4357 26.9148 15.393C26.7574 15.3677 26.6195 15.2822 26.5204 15.1579C26.4232 15.0354 26.3649 14.8761 26.3708 14.7071C26.2969 14.6993 26.2231 14.6896 26.1493 14.6818C26.2037 14.7887 26.2328 14.9111 26.2231 15.0374C26.2153 15.1229 26.2095 15.2084 26.2017 15.2939C25.9239 15.2608 25.646 15.2336 25.3682 15.2123C25.2069 15.1987 25.0612 15.1229 24.9543 15.0102C24.8475 14.8975 24.7775 14.744 24.7717 14.5789C24.6959 14.575 24.6221 14.573 24.5463 14.5711C24.6085 14.6721 24.6454 14.7926 24.6435 14.9189C24.6435 15.0044 24.6435 15.0899 24.6415 15.1734C24.3617 15.1656 24.08 15.1617 23.8002 15.1637C23.6389 15.1637 23.4874 15.1035 23.3728 15.0005C23.2581 14.8975 23.1804 14.7518 23.1629 14.5866C23.0871 14.5886 23.0133 14.5944 22.9375 14.5983C23.0075 14.6935 23.0483 14.8081 23.056 14.9325C23.0619 15.018 23.0658 15.1015 23.0716 15.187C22.7918 15.2025 22.514 15.222 22.2361 15.2472C22.0748 15.2608 21.9233 15.2123 21.8028 15.1171C21.6824 15.0218 21.5949 14.882 21.5677 14.7187C21.492 14.7285 21.4201 14.7382 21.3482 14.7479C21.422 14.8373 21.4725 14.948 21.4881 15.0743C21.4978 15.1579 21.5094 15.2414 21.5192 15.3269C21.2452 15.3619 20.9732 15.4007 20.7012 15.4435C20.5457 15.4668 20.3922 15.4279 20.2679 15.3405C20.1435 15.2531 20.0483 15.119 20.0095 14.9577C20.0075 14.9461 20.0056 14.9364 20.0036 14.9247C19.9881 14.8412 19.9725 14.7595 19.957 14.676C19.9531 14.6566 19.9492 14.6352 19.9453 14.6158C19.9181 14.472 19.9512 14.3301 20.0289 14.2194C20.1066 14.1067 20.229 14.0232 20.3728 13.9998L20.3709 13.994ZM22.6344 15.0121C22.751 15.0121 22.8443 14.9189 22.8443 14.8023C22.8443 14.6857 22.751 14.5925 22.6344 14.5925C22.5178 14.5925 22.4246 14.6857 22.4246 14.8023C22.4246 14.9189 22.5178 15.0121 22.6344 15.0121ZM20.297 14.2194C20.4136 14.2194 20.5069 14.3127 20.5069 14.4292C20.5069 14.5458 20.4136 14.6391 20.297 14.6391C20.1804 14.6391 20.0872 14.5458 20.0872 14.4292C20.0872 14.3127 20.1804 14.2194 20.297 14.2194ZM26.7574 14.0348C26.874 14.0348 26.9673 14.1281 26.9673 14.2447C26.9673 14.3612 26.874 14.4545 26.7574 14.4545C26.6408 14.4545 26.5476 14.3612 26.5476 14.2447C26.5476 14.1281 26.6408 14.0348 26.7574 14.0348ZM23.4854 13.8658C23.602 13.8658 23.6953 13.959 23.6953 14.0756C23.6953 14.1922 23.602 14.2855 23.4854 14.2855C23.3689 14.2855 23.2756 14.1922 23.2756 14.0756C23.2756 13.959 23.3689 13.8658 23.4854 13.8658ZM25.1311 13.8813C25.2477 13.8813 25.341 13.9746 25.341 14.0912C25.341 14.2077 25.2477 14.301 25.1311 14.301C25.0146 14.301 24.9213 14.2077 24.9213 14.0912C24.9213 13.9746 25.0146 13.8813 25.1311 13.8813ZM21.8572 13.9862C21.9738 13.9862 22.0671 14.0795 22.0671 14.1961C22.0671 14.3127 21.9738 14.4059 21.8572 14.4059C21.7407 14.4059 21.6474 14.3127 21.6474 14.1961C21.6474 14.0795 21.7407 13.9862 21.8572 13.9862ZM21.0431 15.1851C21.1597 15.1851 21.253 15.0918 21.253 14.9752C21.253 14.8586 21.1597 14.7654 21.0431 14.7654C20.9265 14.7654 20.8333 14.8586 20.8333 14.9752C20.8333 15.0918 20.9265 15.1851 21.0431 15.1851ZM27.3772 15.2395C27.4938 15.2395 27.5871 15.1462 27.5871 15.0296C27.5871 14.913 27.4938 14.8198 27.3772 14.8198C27.2606 14.8198 27.1674 14.913 27.1674 15.0296C27.1674 15.1462 27.2606 15.2395 27.3772 15.2395ZM24.2296 14.95C24.3462 14.95 24.4394 14.8567 24.4394 14.7401C24.4394 14.6235 24.3462 14.5303 24.2296 14.5303C24.113 14.5303 24.0198 14.6235 24.0198 14.7401C24.0198 14.8567 24.113 14.95 24.2296 14.95ZM25.8092 15.0335C25.9258 15.0335 26.0191 14.9402 26.0191 14.8237C26.0191 14.7071 25.9258 14.6138 25.8092 14.6138C25.6927 14.6138 25.5994 14.7071 25.5994 14.8237C25.5994 14.9402 25.6927 15.0335 25.8092 15.0335ZM19.6248 11.915C19.8948 11.7926 20.3378 11.6838 20.9032 11.5983L21.0606 12.7835C20.5535 12.8535 20.1338 12.9409 19.8346 13.04L19.6248 11.915ZM23.3397 12.6145V11.4079C23.5554 11.4021 23.7769 11.4001 24.0003 11.4001C24.2238 11.4001 24.4453 11.4021 24.6609 11.4079V12.6145C24.4453 12.6087 24.2238 12.6067 24.0003 12.6067C23.7769 12.6067 23.5554 12.6087 23.3397 12.6145ZM25.1506 12.63L25.2302 11.4273C25.7024 11.4487 26.1454 11.4837 26.5456 11.5284L26.466 12.7272C26.0638 12.6845 25.6227 12.6514 25.1506 12.632V12.63ZM26.94 12.7835L27.0974 11.5983C27.6628 11.6838 28.1078 11.7926 28.3759 11.915L28.1602 13.0381C27.861 12.939 27.4452 12.8515 26.94 12.7835Z" fill="#FFCC00"/>
<path fill-rule="evenodd" clip-rule="evenodd" d="M24 16.5742C25.9585 16.5742 27.5479 16.3333 27.5479 16.038C27.5479 15.7426 25.9585 15.5017 24 15.5017C22.0415 15.5017 20.4521 15.7426 20.4521 16.038C20.4521 16.3333 22.0415 16.5742 24 16.5742ZM24 16.2517C25.4922 16.2517 26.7027 16.1565 26.7027 16.038C26.7027 15.9194 25.4922 15.8242 24 15.8242C22.5078 15.8242 21.2973 15.9194 21.2973 16.038C21.2973 16.1565 22.5078 16.2517 24 16.2517Z" fill="#C39600"/>
<path fill-rule="evenodd" clip-rule="evenodd" d="M24.0002 17.2525L22.4244 17.8257V18.5213H19.9472V18.1385H18.2024V19.8833H18.5851V22.961L17.7108 24.3774L18.5657 25.7219L18.1868 25.8735L17.262 24.3774L18.2024 22.8522V20.2661H17.8196V17.7557H20.3299V18.1385H22.0436V17.5576L24.0002 16.8445L25.9587 17.5576V18.1385H27.6724V17.7557H30.1808V20.2661H29.798V22.8522L30.7404 24.3774L29.8039 25.8949L29.4347 25.7219L30.2896 24.3774L29.4172 22.961V19.8833H29.798V18.1385H28.0532V18.5213H25.5759V17.8257L24.0002 17.2525Z" fill="#006423"/>
<path fill-rule="evenodd" clip-rule="evenodd" d="M25.6306 24.0294C25.2051 23.5631 25.1254 22.7762 25.6326 22.4245L25.8987 22.7509L26.0289 21.7153C26.4836 21.8125 26.6915 22.1855 26.7323 22.5256L27.0568 22.137C27.6144 22.7781 27.4551 23.6797 26.9577 24.0294H26.5749C26.9285 23.6136 26.8022 23.0443 26.3845 22.7101L26.3165 23.3494L26.0076 22.988C25.7453 23.2833 25.7783 23.804 26.0095 24.0294H25.6267H25.6306Z" fill="#DC000A"/>
<path fill-rule="evenodd" clip-rule="evenodd" d="M32.246 22.1914H31.0783V21.6862C31.0783 21.0606 30.5712 20.9226 30.1729 20.9226V22.8364L32.211 23.7302L32.9902 23.4698L32.2479 22.1914H32.246Z" fill="#C39600"/>
<path fill-rule="evenodd" clip-rule="evenodd" d="M10.2865 32.802C9.96979 32.802 9.56954 32.9729 9.42188 33.2935L9.82018 32.1666C9.99117 31.6498 10.3992 31.2534 11.0753 31.2534H17.8758C18.5519 31.2534 18.9599 31.6498 19.1309 32.1666L19.5292 33.2935C19.3816 32.971 18.9832 32.802 18.6646 32.802H10.2865ZM37.7154 32.802C38.0322 32.802 38.4324 32.9729 38.5801 33.2935L38.1818 32.1666C38.0108 31.6498 37.6028 31.2534 36.9266 31.2534H30.1262C29.45 31.2534 29.042 31.6498 28.871 32.1666L28.4727 33.2935C28.6204 32.971 29.0187 32.802 29.3373 32.802H37.7135H37.7154Z" fill="#FFCC00"/>
<path d="M18.6551 28.885C18.7483 28.9064 18.896 28.9355 19.0106 28.9297C19.6848 28.9044 20.0248 28.442 20.6719 28.4517C21.3402 28.4517 21.6725 28.9374 22.335 28.9297C23.0054 28.9297 23.3551 28.4439 23.9963 28.4517H24.0002C24.6491 28.4439 24.9969 28.9374 25.6595 28.9297C26.3337 28.9297 26.6737 28.4439 27.3207 28.4517H27.3246C27.9755 28.4439 28.3194 28.9374 28.982 28.9297C28.982 28.9491 29.2345 28.9083 29.3433 28.8869C29.4016 28.6907 29.4327 28.4789 29.4327 28.2574V27.0547C29.2831 27.1188 29.1471 27.1441 28.982 27.1441H28.98C28.436 27.1519 28.0377 26.6583 27.3207 26.6661C26.5902 26.6583 26.2404 27.1441 25.6575 27.1441H25.6556C25.096 27.1519 24.7268 26.6583 23.9963 26.6661C23.256 26.6583 22.9257 27.1441 22.3331 27.1441H22.3312C21.7871 27.1519 21.3888 26.6583 20.6719 26.6661C19.9413 26.6583 19.5916 27.1441 19.0087 27.1441C19.0087 27.181 18.6142 27.0722 18.5657 27.0528V28.2574C18.5657 28.477 18.5948 28.6887 18.6531 28.885H18.6551Z" fill="white"/>
<path d="M18.5657 27.791C18.7114 27.8376 18.8552 27.861 19.0087 27.859C19.6829 27.859 20.0229 27.3733 20.6699 27.381H20.6738C21.3247 27.3733 21.6686 27.8668 22.3311 27.859C23.0015 27.859 23.3512 27.3733 23.9924 27.381H23.9963C24.6452 27.3733 24.993 27.8668 25.6556 27.859C26.3298 27.859 26.6698 27.3733 27.3168 27.381H27.3207C27.9716 27.3733 28.3155 27.8668 28.978 27.859C29.1335 27.859 29.2811 27.8415 29.4288 27.793V27.4141C29.2792 27.4782 29.1432 27.5035 28.978 27.5035H28.9761C28.4321 27.5112 28.0338 27.0177 27.3168 27.0255C26.5862 27.0177 26.2365 27.5035 25.6536 27.5035H25.6517C25.0921 27.5112 24.7229 27.0177 23.9924 27.0255C23.2521 27.0177 22.9218 27.5035 22.3292 27.5035H22.3272C21.7832 27.5112 21.3849 27.0177 20.668 27.0255C19.9374 27.0177 19.5877 27.5035 19.0048 27.5035H19.0028C18.8396 27.5073 18.7094 27.4704 18.5618 27.4121V27.7891L18.5657 27.791ZM18.5657 28.506C18.7114 28.5527 18.8552 28.576 19.0087 28.574C19.6829 28.574 20.0229 28.0883 20.6699 28.0961H20.6738C21.3247 28.0883 21.6686 28.5818 22.3311 28.574C23.0015 28.574 23.3512 28.0883 23.9924 28.0961H23.9963C24.6452 28.0883 24.993 28.5818 25.6556 28.574C26.3298 28.574 26.6698 28.0883 27.3168 28.0961H27.3207C27.9716 28.0883 28.3155 28.5818 28.978 28.574C29.1335 28.574 29.2811 28.5565 29.4288 28.508V28.1291C29.2792 28.1932 29.1432 28.2185 28.978 28.2185H28.9761C28.4321 28.2262 28.0338 27.7327 27.3168 27.7405C26.5862 27.7327 26.2365 28.2185 25.6536 28.2185H25.6517C25.0921 28.2262 24.7229 27.7327 23.9924 27.7405C23.2521 27.7327 22.9218 28.2185 22.3292 28.2185H22.3272C21.7832 28.2262 21.3849 27.7327 20.668 27.7405C19.9374 27.7327 19.5877 28.2185 19.0048 28.2185H19.0028C18.8396 28.2204 18.7094 28.1854 18.5618 28.1271V28.5041L18.5657 28.506Z" fill="#00B4FF"/>
<path fill-rule="evenodd" clip-rule="evenodd" d="M15.5735 16.6228L16.1408 16.5762C16.3643 16.5567 16.5139 16.3838 16.5586 16.2731C16.681 16.5412 16.6071 16.8424 16.1564 16.8054L15.5229 16.753L15.5735 16.6228ZM32.1684 16.4013L31.6127 16.2789C31.3932 16.2303 31.2707 16.038 31.2397 15.9214C31.0823 16.172 31.1153 16.479 31.5661 16.5023L32.2014 16.5373L32.1703 16.4013H32.1684Z" fill="#DC000A"/>
<path fill-rule="evenodd" clip-rule="evenodd" d="M22.3037 34.0824V34.7838L23.998 35.4853H24.6994L26.3976 34.7838L25.6961 34.0824L25.6825 33.1071H24.6936L24.6994 32.4756H23.998L23.2966 33.0915L22.8011 33.587L22.3037 34.0824Z" fill="#A2ACB0"/>
<path fill-rule="evenodd" clip-rule="evenodd" d="M23.9982 36.1867L24.6997 35.4853L23.9982 34.7838V35.4853H25.6925L26.3998 34.7838H24.0002V32.4775H24.7016L24.0002 31.7761L23.2988 32.4775V33.0915H22.3079V34.0844L24.0021 34.7858L22.8053 33.5889L23.3007 33.0935L24.0021 34.7877H22.3079V34.0863L21.6064 34.7877L22.3079 35.4891H23.3007L24.0021 36.1906L23.9982 36.1867ZM25.6964 34.0824L25.6828 33.1071L25.1932 33.5928L24.6938 33.1071L23.9982 34.7838L25.6964 34.0824Z" fill="white"/>
</g>
<defs>
<clipPath id="clip0_739_1562">
<rect width="29.9976" height="25.7288" fill="white" transform="translate(9.00244 11)"/>
</clipPath>
</defs>
</svg>
