<svg xmlns="http://www.w3.org/2000/svg" xmlns:xlink="http://www.w3.org/1999/xlink"><path d="M20.816 29.944h-.563l-.003-.018-.016-.069a5.09 5.09 0 00-.032-.134l-.015-.063a9.523 9.523 0 00-.045-.177l-.005-.016a8.111 8.111 0 00-.055-.19l-.018-.062-.04-.129-.023-.07a6.495 6.495 0 00-.043-.124l-.022-.065a7.031 7.031 0 00-.057-.154l-.012-.032a7.571 7.571 0 00-.072-.18l-.027-.064-.05-.117-.032-.072a7.38 7.38 0 00-.084-.183c-.02-.043-.039-.085-.061-.128l-.025-.049a6.16 6.16 0 00-.086-.166l-.04-.07-.055-.101-.043-.075-.055-.094a2.274 2.274 0 00-.045-.075c-.02-.034-.04-.068-.062-.101l-.056-.092-.082-.125a5.298 5.298 0 00-.052-.078l-.056-.083c-.02-.027-.04-.055-.057-.082a.983.983 0 00-.055-.074c-.019-.024-.04-.055-.06-.083l-.055-.075c-.04-.05-.076-.1-.115-.15l-.054-.068-.07-.085-.052-.063c-.024-.03-.048-.058-.073-.086l-.051-.06-.077-.086-.045-.05a9.498 9.498 0 00-.29-.306l-.044-.044-.09-.088-.045-.043a7.278 7.278 0 00-.095-.09l-.033-.03a8.237 8.237 0 00-.343-.3l-.032-.026a7.135 7.135 0 00-.11-.088l-.036-.03c-.04-.03-.075-.06-.113-.089l-.02-.014c-.129-.1-.261-.195-.395-.288l-.018-.013a9.713 9.713 0 00-.127-.085l-.028-.018c-.044-.03-.087-.057-.131-.085l-.008-.005a9.483 9.483 0 00-.444-.265l-.006-.003a11.842 11.842 0 00-.143-.078l-.021-.012a9.62 9.62 0 00-.783-.374l-.017-.007a9.163 9.163 0 00-.213-.087h1.412c.23 0 .417-.251.417-.562 0-.31-.186-.56-.417-.56h-.42l.086-.215c.398-.235 1.098-.736 1.793-1.656l.005-.007c.053-.069.105-.14.155-.213l.01-.015c.051-.072.102-.147.151-.225l.014-.02.07-.113s0-.002.004-.004l.072-.119.016-.026.061-.105.012-.02.07-.123.015-.028a6.403 6.403 0 00.139-.263l.015-.03.052-.107.02-.038.063-.134.013-.029.05-.112.021-.045a7.044 7.044 0 00.121-.291l.02-.05.048-.124.012-.031.055-.15.019-.053.042-.12.015-.045a12.614 12.614 0 00.068-.212l.04-.123c.005-.018.01-.038.016-.054a9.077 9.077 0 00.097-.349l.016-.06c.014-.057.03-.115.043-.174l.012-.049.033-.141.014-.064a12.913 12.913 0 00.079-.383l.013-.066.03-.168.006-.036.032-.199a16.55 16.55 0 00.034-.232l.008-.05.027-.21.008-.066a8.25 8.25 0 00.026-.228l.02-.22c0-.02.004-.04.006-.062l.015-.178c0-.022.003-.044.005-.066l.015-.23c0-.018 0-.038.003-.054l.01-.194c0-.024 0-.047.003-.07l.009-.244v-.035l.004-.22v-.073-.261-.336c0-.075-.003-.153-.005-.231v-.043c-.002-.09-.006-.18-.01-.271L19.44 12a17.182 17.182 0 00-.012-.232c0-.019 0-.037-.003-.058a29.902 29.902 0 00-.018-.283l-.005-.066-.018-.24c0-.023-.004-.046-.006-.069a27.538 27.538 0 00-.027-.295c0-.018-.003-.037-.005-.056l-.027-.255a23.313 23.313 0 00-.044-.385c0-.012-.003-.025-.005-.037a22.797 22.797 0 00-.036-.28l-.011-.083-.046-.322C17.598-1.316 6.41.414 6.41.414l.358 2.29L0 9.48l.296 2.617 2.563 1.497c.114-.276.261-.538.438-.782C4.95 11.004 8.159 9.584 9.078 9.29c.184-.059.289-.088.289-.088-4.394 5.391-3.895 11.568-3.699 13.04-.203.037-.361.27-.361.555 0 .31.187.561.417.561h1.413c-2.35.933-4.215 2.709-5.189 4.94a2.614 2.614 0 00-.31.836l-.02.065-.037.121-.021.075a4.219 4.219 0 00-.054.2c-.01.037-.02.074-.028.111-.01.038-.018.075-.027.115l-.03.13H.86a.853.853 0 00-.587.22.77.77 0 00-.181.252.737.737 0 00.18.85.821.821 0 00.588.22h19.964a.853.853 0 00.587-.22.772.772 0 00.181-.252.737.737 0 00-.18-.85.853.853 0 00-.587-.22l-.008-.007z" fill="#595653"/></svg>