<svg width="340" height="661" viewBox="0 0 340 661" fill="none" xmlns="http://www.w3.org/2000/svg">
<path d="M304 649.673H4.00006V18.6733L36 0.67334L336 0.67334V631.673L304 649.673Z" fill="white" fill-opacity="0.4"/>
<path d="M4.36774 18.8884V649.306H303.904L335.632 631.458V1.04102L36.0963 1.04102L4.36774 18.8884Z" stroke="#141E4B" stroke-opacity="0.1" stroke-width="0.735363"/>
<g opacity="0.1" filter="url(#filter0_d_901_80557)">
<path d="M297 84.6733H111L111 28.0691L138.627 12.6733H324L324 69.6043L297 84.6733Z" fill="#30429B" fill-opacity="0.95"/>
<path d="M111.348 28.2737L111.348 84.3251H296.909L323.652 69.3998L323.652 13.0216H138.718L111.348 28.2737Z" stroke="#3A4DA8" stroke-width="0.696572"/>
</g>
<g filter="url(#filter1_d_901_80557)">
<path d="M202 84.6733H16L16 27.6733L43 12.6733L229 12.6733V69.6733L202 84.6733Z" fill="#30429B" fill-opacity="0.95"/>
<path d="M16.3482 27.8783L16.3483 84.3251H201.91L228.652 69.4684V13.0216H43.0902L16.3482 27.8783Z" stroke="#3A4DA8" stroke-width="0.696572"/>
</g>
<path d="M50.9433 43.6733V32.4733H60.3513V43.6733H58.5273V34.1533H52.7673V43.6733H50.9433ZM63.0088 42.8093C62.1981 42.0947 61.7928 41.1027 61.7928 39.8333C61.7928 38.564 62.1981 37.572 63.0088 36.8573C63.8301 36.1427 64.8115 35.7853 65.9528 35.7853C67.1048 35.7853 68.0861 36.1427 68.8968 36.8573C69.7075 37.572 70.1128 38.564 70.1128 39.8333C70.1128 41.1027 69.7075 42.0947 68.8968 42.8093C68.0861 43.524 67.1048 43.8813 65.9528 43.8813C64.8115 43.8813 63.8301 43.524 63.0088 42.8093ZM67.6968 41.6413C68.1448 41.1827 68.3688 40.58 68.3688 39.8333C68.3688 39.0867 68.1448 38.4893 67.6968 38.0413C67.2488 37.5827 66.6675 37.3533 65.9528 37.3533C65.2275 37.3533 64.6408 37.5827 64.1928 38.0413C63.7448 38.4893 63.5208 39.0867 63.5208 39.8333C63.5208 40.58 63.7448 41.1827 64.1928 41.6413C64.6408 42.0893 65.2275 42.3133 65.9528 42.3133C66.6675 42.3133 67.2488 42.0893 67.6968 41.6413ZM70.9728 39.8973C70.9728 38.564 71.3941 37.5453 72.2368 36.8413C73.0795 36.1373 74.0715 35.7853 75.2128 35.7853C76.1301 35.7853 76.9195 35.9827 77.5808 36.3773V37.9453C76.9835 37.5187 76.2741 37.3053 75.4528 37.3053C74.6955 37.3053 74.0501 37.5187 73.5168 37.9453C72.9835 38.3613 72.7168 38.9907 72.7168 39.8333C72.7168 40.6547 72.9781 41.284 73.5008 41.7213C74.0341 42.148 74.6741 42.3613 75.4208 42.3613C76.2315 42.3613 76.9781 42.164 77.6608 41.7693V43.3533C76.9248 43.7053 76.0768 43.8813 75.1168 43.8813C73.9968 43.8813 73.0261 43.54 72.2048 42.8573C71.3835 42.164 70.9728 41.1773 70.9728 39.8973ZM80.8638 43.6733V37.4973H78.2078V35.9933H85.2158V37.4973H82.5758V43.6733H80.8638ZM92.6849 41.8973C92.6849 42.2707 92.8716 42.4573 93.2449 42.4573C93.3729 42.4573 93.5436 42.4253 93.7569 42.3613V43.5933C93.4369 43.7213 93.0743 43.7853 92.6689 43.7853C91.9009 43.7853 91.3889 43.4867 91.1329 42.8893C90.3116 43.5507 89.3463 43.8813 88.2369 43.8813C87.4903 43.8813 86.8556 43.6787 86.3329 43.2733C85.8103 42.8573 85.5489 42.276 85.5489 41.5293C85.5489 40.6333 85.8849 39.9827 86.5569 39.5773C87.2289 39.1613 88.0343 38.9533 88.9729 38.9533C89.5916 38.9533 90.2583 39.028 90.9729 39.1773V38.9053C90.9729 38.4147 90.7969 38.02 90.4449 37.7213C90.0929 37.4227 89.5969 37.2733 88.9569 37.2733C88.0076 37.2733 87.0849 37.4707 86.1889 37.8653V36.2973C87.1916 35.956 88.1729 35.7853 89.1329 35.7853C90.2529 35.7853 91.1223 36.0627 91.7409 36.6173C92.3703 37.172 92.6849 38.0147 92.6849 39.1453V41.8973ZM89.3089 40.1533C88.7436 40.1533 88.2689 40.2547 87.8849 40.4573C87.5009 40.66 87.3089 40.98 87.3089 41.4173C87.3089 41.78 87.4476 42.0627 87.7249 42.2653C88.0023 42.4573 88.3436 42.5533 88.7489 42.5533C89.6236 42.5533 90.3649 42.2493 90.9729 41.6413V40.3453C90.3543 40.2173 89.7996 40.1533 89.3089 40.1533ZM94.6178 43.6733V35.9933H99.0018C99.7591 35.9933 100.351 36.1853 100.778 36.5693C101.215 36.9427 101.434 37.4333 101.434 38.0413C101.434 38.884 101.071 39.4653 100.346 39.7853C100.73 39.9027 101.044 40.116 101.29 40.4253C101.535 40.7347 101.658 41.1133 101.658 41.5613C101.658 42.1907 101.444 42.7027 101.018 43.0973C100.602 43.4813 99.9725 43.6733 99.1298 43.6733H94.6178ZM96.3298 39.1933H98.6178C99.3431 39.1933 99.7058 38.884 99.7058 38.2653C99.7058 37.924 99.5991 37.6787 99.3858 37.5293C99.1831 37.3693 98.9271 37.2893 98.6178 37.2893H96.3298V39.1933ZM96.3298 42.3773H98.7138C99.5245 42.3773 99.9298 42.052 99.9298 41.4013C99.9298 40.74 99.5351 40.4093 98.7458 40.4093H96.3298V42.3773ZM103.063 43.6733V35.9933H104.775V39.0333H106.039L108.247 35.9933H110.199L107.415 39.8013L110.503 43.6733H108.535L106.007 40.4893H104.775V43.6733H103.063ZM117.772 41.8973C117.772 42.2707 117.958 42.4573 118.332 42.4573C118.46 42.4573 118.63 42.4253 118.844 42.3613V43.5933C118.524 43.7213 118.161 43.7853 117.756 43.7853C116.988 43.7853 116.476 43.4867 116.22 42.8893C115.398 43.5507 114.433 43.8813 113.324 43.8813C112.577 43.8813 111.942 43.6787 111.42 43.2733C110.897 42.8573 110.636 42.276 110.636 41.5293C110.636 40.6333 110.972 39.9827 111.644 39.5773C112.316 39.1613 113.121 38.9533 114.06 38.9533C114.678 38.9533 115.345 39.028 116.06 39.1773V38.9053C116.06 38.4147 115.884 38.02 115.532 37.7213C115.18 37.4227 114.684 37.2733 114.044 37.2733C113.094 37.2733 112.172 37.4707 111.276 37.8653V36.2973C112.278 35.956 113.26 35.7853 114.22 35.7853C115.34 35.7853 116.209 36.0627 116.828 36.6173C117.457 37.172 117.772 38.0147 117.772 39.1453V41.8973ZM114.396 40.1533C113.83 40.1533 113.356 40.2547 112.972 40.4573C112.588 40.66 112.396 40.98 112.396 41.4173C112.396 41.78 112.534 42.0627 112.812 42.2653C113.089 42.4573 113.43 42.5533 113.836 42.5533C114.71 42.5533 115.452 42.2493 116.06 41.6413V40.3453C115.441 40.2173 114.886 40.1533 114.396 40.1533ZM123.166 43.6733V35.9933H124.878V41.0173L128.99 35.9933H130.462V43.6733H128.75V38.6493L124.638 43.6733H123.166ZM132.283 43.6733V35.9933H133.995V39.0813H137.835V35.9933H139.547V43.6733H137.835V40.5853H133.995V43.6733H132.283ZM140.89 39.8333C140.89 39.172 141.007 38.5747 141.242 38.0413C141.476 37.4973 141.786 37.0707 142.17 36.7613C142.554 36.4413 142.97 36.2013 143.418 36.0413C143.866 35.8707 144.319 35.7853 144.778 35.7853C145.364 35.7853 145.892 35.876 146.362 36.0573C146.842 36.2387 147.226 36.484 147.514 36.7933C147.802 37.1027 148.036 37.46 148.218 37.8653C148.399 38.2707 148.495 38.6973 148.506 39.1453C148.516 39.5827 148.479 40.0253 148.394 40.4733H142.618C142.703 41.124 143.023 41.6147 143.578 41.9453C144.132 42.2653 144.794 42.4253 145.562 42.4253C146.436 42.4253 147.247 42.244 147.994 41.8813V43.3533C147.258 43.7053 146.34 43.8813 145.242 43.8813C143.994 43.8813 142.954 43.5293 142.122 42.8253C141.3 42.1213 140.89 41.124 140.89 39.8333ZM146.858 39.1933C146.922 38.756 146.788 38.3187 146.458 37.8813C146.138 37.4333 145.604 37.2093 144.858 37.2093C144.25 37.2093 143.727 37.3853 143.29 37.7373C142.863 38.0893 142.634 38.5747 142.602 39.1933H146.858ZM151.335 37.1933C152.114 36.2547 153.101 35.7853 154.295 35.7853C155.426 35.7853 156.343 36.18 157.047 36.9693C157.751 37.748 158.103 38.7027 158.103 39.8333C158.103 40.964 157.751 41.924 157.047 42.7133C156.343 43.492 155.426 43.8813 154.295 43.8813C153.143 43.8813 152.221 43.4813 151.527 42.6813V47.1933H149.815V35.9933H151.335V37.1933ZM155.687 41.6733C156.135 41.1933 156.359 40.58 156.359 39.8333C156.359 39.0867 156.135 38.4787 155.687 38.0093C155.239 37.5293 154.669 37.2893 153.975 37.2893C153.41 37.2893 152.909 37.444 152.471 37.7533C152.045 38.0627 151.73 38.4413 151.527 38.8893V40.7613C151.73 41.22 152.045 41.604 152.471 41.9133C152.909 42.2227 153.41 42.3773 153.975 42.3773C154.669 42.3773 155.239 42.1427 155.687 41.6733ZM161.117 43.6733V37.4973H158.461V35.9933H165.469V37.4973H162.829V43.6733H161.117ZM166.488 43.6733V35.9933H168.2V39.0813H172.04V35.9933H173.752V43.6733H172.04V40.5853H168.2V43.6733H166.488ZM175.574 43.6733V35.9933H177.286V38.5533H179.382C180.321 38.5533 181.062 38.7933 181.606 39.2733C182.15 39.7533 182.422 40.3667 182.422 41.1133C182.422 41.86 182.15 42.4733 181.606 42.9533C181.062 43.4333 180.321 43.6733 179.382 43.6733H175.574ZM183.798 43.6733V35.9933H185.51V43.6733H183.798ZM177.286 42.3133H179.046C179.558 42.3133 179.958 42.212 180.246 42.0093C180.534 41.796 180.678 41.4973 180.678 41.1133C180.678 40.7187 180.534 40.42 180.246 40.2173C179.958 40.004 179.558 39.8973 179.046 39.8973H177.286V42.3133ZM194.132 35.9933L191.332 39.7533L194.292 43.6733H192.34L190.34 40.9533L188.34 43.6733H186.388L189.348 39.7533L186.548 35.9933H188.5L190.34 38.5853L192.18 35.9933H194.132ZM78.8244 61.6733V53.9933H80.5524L83.1604 58.0413L85.7844 53.9933H87.5124V61.6733H85.8644V56.4733L83.6724 59.8333H82.6484L80.4724 56.4733V61.6733H78.8244ZM95.8765 59.8973C95.8765 60.2707 96.0632 60.4573 96.4365 60.4573C96.5645 60.4573 96.7352 60.4253 96.9485 60.3613V61.5933C96.6285 61.7213 96.2658 61.7853 95.8605 61.7853C95.0925 61.7853 94.5805 61.4867 94.3245 60.8893C93.5032 61.5507 92.5378 61.8813 91.4285 61.8813C90.6818 61.8813 90.0472 61.6787 89.5245 61.2733C89.0018 60.8573 88.7405 60.276 88.7405 59.5293C88.7405 58.6333 89.0765 57.9827 89.7485 57.5773C90.4205 57.1613 91.2258 56.9533 92.1645 56.9533C92.7832 56.9533 93.4498 57.028 94.1645 57.1773V56.9053C94.1645 56.4147 93.9885 56.02 93.6365 55.7213C93.2845 55.4227 92.7885 55.2733 92.1485 55.2733C91.1992 55.2733 90.2765 55.4707 89.3805 55.8653V54.2973C90.3832 53.956 91.3645 53.7853 92.3245 53.7853C93.4445 53.7853 94.3138 54.0627 94.9325 54.6173C95.5618 55.172 95.8765 56.0147 95.8765 57.1453V59.8973ZM92.5005 58.1533C91.9352 58.1533 91.4605 58.2547 91.0765 58.4573C90.6925 58.66 90.5005 58.98 90.5005 59.4173C90.5005 59.78 90.6392 60.0627 90.9165 60.2653C91.1938 60.4573 91.5352 60.5533 91.9405 60.5533C92.8152 60.5533 93.5565 60.2493 94.1645 59.6413V58.3453C93.5458 58.2173 92.9912 58.1533 92.5005 58.1533ZM99.3529 61.6733V55.4973H96.6969V53.9933H103.705V55.4973H101.065V61.6733H99.3529ZM104.041 57.8333C104.041 57.172 104.158 56.5747 104.393 56.0413C104.627 55.4973 104.937 55.0707 105.321 54.7613C105.705 54.4413 106.121 54.2013 106.569 54.0413C107.017 53.8707 107.47 53.7853 107.929 53.7853C108.515 53.7853 109.043 53.876 109.513 54.0573C109.993 54.2387 110.377 54.484 110.665 54.7933C110.953 55.1027 111.187 55.46 111.369 55.8653C111.55 56.2707 111.646 56.6973 111.657 57.1453C111.667 57.5827 111.63 58.0253 111.545 58.4733H105.769C105.854 59.124 106.174 59.6147 106.729 59.9453C107.283 60.2653 107.945 60.4253 108.713 60.4253C109.587 60.4253 110.398 60.244 111.145 59.8813V61.3533C110.409 61.7053 109.491 61.8813 108.393 61.8813C107.145 61.8813 106.105 61.5293 105.273 60.8253C104.451 60.1213 104.041 59.124 104.041 57.8333ZM110.009 57.1933C110.073 56.756 109.939 56.3187 109.609 55.8813C109.289 55.4333 108.755 55.2093 108.009 55.2093C107.401 55.2093 106.878 55.3853 106.441 55.7373C106.014 56.0893 105.785 56.5747 105.753 57.1933H110.009ZM114.486 55.1933C115.265 54.2547 116.252 53.7853 117.446 53.7853C118.577 53.7853 119.494 54.18 120.198 54.9693C120.902 55.748 121.254 56.7027 121.254 57.8333C121.254 58.964 120.902 59.924 120.198 60.7133C119.494 61.492 118.577 61.8813 117.446 61.8813C116.294 61.8813 115.372 61.4813 114.678 60.6813V65.1933H112.966V53.9933H114.486V55.1933ZM118.838 59.6733C119.286 59.1933 119.51 58.58 119.51 57.8333C119.51 57.0867 119.286 56.4787 118.838 56.0093C118.39 55.5293 117.82 55.2893 117.126 55.2893C116.561 55.2893 116.06 55.444 115.622 55.7533C115.196 56.0627 114.881 56.4413 114.678 56.8893V58.7613C114.881 59.22 115.196 59.604 115.622 59.9133C116.06 60.2227 116.561 60.3773 117.126 60.3773C117.82 60.3773 118.39 60.1427 118.838 59.6733ZM122.599 61.6733V53.9933H124.311V59.0173L128.423 53.9933H129.895V61.6733H128.183V56.6493L124.071 61.6733H122.599ZM138.261 59.8973C138.261 60.2707 138.448 60.4573 138.821 60.4573C138.949 60.4573 139.12 60.4253 139.333 60.3613V61.5933C139.013 61.7213 138.65 61.7853 138.245 61.7853C137.477 61.7853 136.965 61.4867 136.709 60.8893C135.888 61.5507 134.922 61.8813 133.813 61.8813C133.066 61.8813 132.432 61.6787 131.909 61.2733C131.386 60.8573 131.125 60.276 131.125 59.5293C131.125 58.6333 131.461 57.9827 132.133 57.5773C132.805 57.1613 133.61 56.9533 134.549 56.9533C135.168 56.9533 135.834 57.028 136.549 57.1773V56.9053C136.549 56.4147 136.373 56.02 136.021 55.7213C135.669 55.4227 135.173 55.2733 134.533 55.2733C133.584 55.2733 132.661 55.4707 131.765 55.8653V54.2973C132.768 53.956 133.749 53.7853 134.709 53.7853C135.829 53.7853 136.698 54.0627 137.317 54.6173C137.946 55.172 138.261 56.0147 138.261 57.1453V59.8973ZM134.885 58.1533C134.32 58.1533 133.845 58.2547 133.461 58.4573C133.077 58.66 132.885 58.98 132.885 59.4173C132.885 59.78 133.024 60.0627 133.301 60.2653C133.578 60.4573 133.92 60.5533 134.325 60.5533C135.2 60.5533 135.941 60.2493 136.549 59.6413V58.3453C135.93 58.2173 135.376 58.1533 134.885 58.1533ZM143.25 55.4493C143.186 56.452 143.1 57.3107 142.994 58.0253C142.887 58.74 142.727 59.4013 142.514 60.0093C142.3 60.6067 142.018 61.06 141.666 61.3693C141.324 61.668 140.903 61.8173 140.402 61.8173C140.071 61.8173 139.719 61.748 139.346 61.6093V60.2653C139.527 60.3293 139.692 60.3613 139.842 60.3613C140.45 60.3613 140.876 59.8333 141.122 58.7773C141.378 57.7107 141.548 56.116 141.634 53.9933H147.554V61.6733H145.842V55.4493H143.25ZM150.11 60.8093C149.299 60.0947 148.894 59.1027 148.894 57.8333C148.894 56.564 149.299 55.572 150.11 54.8573C150.931 54.1427 151.912 53.7853 153.054 53.7853C154.206 53.7853 155.187 54.1427 155.998 54.8573C156.808 55.572 157.214 56.564 157.214 57.8333C157.214 59.1027 156.808 60.0947 155.998 60.8093C155.187 61.524 154.206 61.8813 153.054 61.8813C151.912 61.8813 150.931 61.524 150.11 60.8093ZM154.798 59.6413C155.246 59.1827 155.47 58.58 155.47 57.8333C155.47 57.0867 155.246 56.4893 154.798 56.0413C154.35 55.5827 153.768 55.3533 153.054 55.3533C152.328 55.3533 151.742 55.5827 151.294 56.0413C150.846 56.4893 150.622 57.0867 150.622 57.8333C150.622 58.58 150.846 59.1827 151.294 59.6413C151.742 60.0893 152.328 60.3133 153.054 60.3133C153.768 60.3133 154.35 60.0893 154.798 59.6413ZM158.554 61.6733V53.9933H162.938C163.695 53.9933 164.287 54.1853 164.714 54.5693C165.151 54.9427 165.37 55.4333 165.37 56.0413C165.37 56.884 165.007 57.4653 164.282 57.7853C164.666 57.9027 164.98 58.116 165.226 58.4253C165.471 58.7347 165.594 59.1133 165.594 59.5613C165.594 60.1907 165.38 60.7027 164.954 61.0973C164.538 61.4813 163.908 61.6733 163.066 61.6733H158.554ZM160.266 57.1933H162.554C163.279 57.1933 163.642 56.884 163.642 56.2653C163.642 55.924 163.535 55.6787 163.322 55.5293C163.119 55.3693 162.863 55.2893 162.554 55.2893H160.266V57.1933ZM160.266 60.3773H162.65C163.46 60.3773 163.866 60.052 163.866 59.4013C163.866 58.74 163.471 58.4093 162.682 58.4093H160.266V60.3773Z" fill="white"/>
<g clip-path="url(#clip0_901_80557)">
<path d="M276.404 32.7742C278.135 33.9793 280.497 33.5128 281.671 31.7376C282.846 29.9624 282.391 27.5393 280.661 26.3342C278.93 25.1291 276.568 25.5956 275.394 27.3708C274.219 29.146 274.674 31.5691 276.404 32.7742ZM267.524 41.5984C268.067 40.7821 268.724 40.0694 269.469 39.4734L266.438 36.8818C267.827 34.2773 267.12 30.9601 264.669 29.2627C262.067 27.4615 258.53 28.1612 256.775 30.8176C255.019 33.4869 255.701 37.1151 258.29 38.9162C259.907 40.0435 261.89 40.199 263.583 39.4993L267.019 42.4407C267.17 42.1556 267.335 41.8705 267.524 41.5984ZM271.149 55.7353L269.33 62.7196C268.282 62.9658 267.309 63.6007 266.652 64.5855C265.288 66.6587 265.819 69.4835 267.84 70.8829C269.861 72.2824 272.615 71.7382 273.979 69.6649C275.292 67.6824 274.85 65.026 273.031 63.5748L274.812 56.7201C273.537 56.6424 272.286 56.3184 271.149 55.7353ZM286.231 44.3584L281.899 44.6565C281.419 43.2829 280.547 42.026 279.271 41.1449C278.084 40.3156 276.72 39.9139 275.381 39.9139C273.158 39.9139 270.96 41.0153 269.621 43.0497C267.474 46.3151 268.307 50.7336 271.478 52.9494C272.665 53.7787 274.029 54.1804 275.368 54.1804C277.591 54.1804 279.789 53.079 281.128 51.0446C281.646 50.2542 281.987 49.412 282.164 48.5308L286.484 48.2328C286.105 46.9889 286.017 45.6542 286.231 44.3584Z" fill="#3A4DA8"/>
<path d="M260.867 48.6993C258.265 46.8981 254.728 47.5979 252.973 50.2542C251.217 52.9235 251.899 56.5517 254.488 58.3528C257.09 60.1539 260.627 59.4542 262.383 56.7979C264.139 54.1286 263.457 50.5004 260.867 48.6993ZM297.499 40.9246C296.526 40.2508 295.415 39.9269 294.316 39.9269C292.497 39.9269 290.703 40.821 289.604 42.4925C287.848 45.1618 288.53 48.79 291.12 50.5911C292.093 51.2649 293.204 51.5889 294.303 51.5889C296.122 51.5889 297.916 50.6948 299.015 49.0232C300.77 46.3539 300.088 42.7258 297.499 40.9246Z" fill="#4962D8"/>
</g>
<g opacity="0.1" filter="url(#filter2_d_901_80557)">
<path d="M297 252.673H111L111 196.069L138.627 180.673H324L324 237.604L297 252.673Z" fill="#30429B" fill-opacity="0.95"/>
<path d="M111.348 196.274L111.348 252.325H296.909L323.652 237.4L323.652 181.022H138.718L111.348 196.274Z" stroke="#3A4DA8" stroke-width="0.696572"/>
</g>
<g filter="url(#filter3_d_901_80557)">
<path d="M202 252.673H16L16 195.673L43 180.673L229 180.673V237.673L202 252.673Z" fill="#30429B" fill-opacity="0.95"/>
<path d="M16.3482 195.878L16.3483 252.325H201.91L228.652 237.468V181.022H43.0902L16.3482 195.878Z" stroke="#3A4DA8" stroke-width="0.696572"/>
</g>
<path d="M73.0766 206.169C73.0766 205.209 73.2472 204.345 73.5886 203.577C73.9299 202.809 74.3832 202.191 74.9486 201.721C75.5139 201.241 76.1432 200.879 76.8366 200.633C77.5299 200.388 78.2552 200.265 79.0126 200.265C80.1539 200.265 81.2152 200.511 82.1966 201.001V202.777C81.3966 202.223 80.4366 201.945 79.3166 201.945C78.1326 201.945 77.1086 202.303 76.2446 203.017C75.3806 203.732 74.9432 204.783 74.9326 206.169C74.9326 207.044 75.1566 207.796 75.6046 208.425C76.0526 209.055 76.6019 209.508 77.2526 209.785C77.9032 210.063 78.6019 210.201 79.3486 210.201C80.5432 210.201 81.5192 209.913 82.2766 209.337V211.145C81.2739 211.636 80.1912 211.881 79.0286 211.881C78.2819 211.881 77.5619 211.764 76.8686 211.529C76.1752 211.284 75.5406 210.932 74.9646 210.473C74.3886 210.015 73.9299 209.412 73.5886 208.665C73.2472 207.919 73.0766 207.087 73.0766 206.169ZM84.1426 210.809C83.3319 210.095 82.9266 209.103 82.9266 207.833C82.9266 206.564 83.3319 205.572 84.1426 204.857C84.9639 204.143 85.9452 203.785 87.0866 203.785C88.2386 203.785 89.2199 204.143 90.0306 204.857C90.8412 205.572 91.2466 206.564 91.2466 207.833C91.2466 209.103 90.8412 210.095 90.0306 210.809C89.2199 211.524 88.2386 211.881 87.0866 211.881C85.9452 211.881 84.9639 211.524 84.1426 210.809ZM88.8306 209.641C89.2786 209.183 89.5026 208.58 89.5026 207.833C89.5026 207.087 89.2786 206.489 88.8306 206.041C88.3826 205.583 87.8012 205.353 87.0866 205.353C86.3612 205.353 85.7746 205.583 85.3266 206.041C84.8786 206.489 84.6546 207.087 84.6546 207.833C84.6546 208.58 84.8786 209.183 85.3266 209.641C85.7746 210.089 86.3612 210.313 87.0866 210.313C87.8012 210.313 88.3826 210.089 88.8306 209.641ZM100.267 208.105C100.267 209.289 99.8986 210.217 99.1626 210.889C98.4266 211.551 97.4612 211.881 96.2666 211.881C95.0719 211.881 94.1012 211.492 93.3546 210.713C92.6079 209.935 92.2346 208.804 92.2346 207.321C92.2346 206.052 92.4479 204.98 92.8746 204.105C93.3012 203.231 93.8772 202.564 94.6026 202.105C95.2212 201.732 95.8772 201.465 96.5706 201.305C97.2639 201.135 97.8612 200.996 98.3626 200.889C98.8746 200.772 99.2799 200.564 99.5786 200.265V201.929C99.2159 202.207 98.5972 202.431 97.7226 202.601C96.8586 202.761 96.1546 202.991 95.6106 203.289C94.8212 203.748 94.2772 204.559 93.9786 205.721C94.2452 205.327 94.6132 205.007 95.0826 204.761C95.5626 204.505 96.0906 204.377 96.6666 204.377C97.6692 204.377 98.5172 204.719 99.2106 205.401C99.9146 206.084 100.267 206.985 100.267 208.105ZM93.9626 208.137C93.9626 208.767 94.1599 209.305 94.5546 209.753C94.9599 210.191 95.5199 210.409 96.2346 210.409C96.9599 210.409 97.5199 210.191 97.9146 209.753C98.3199 209.316 98.5226 208.777 98.5226 208.137C98.5226 207.497 98.3199 206.959 97.9146 206.521C97.5199 206.084 96.9599 205.865 96.2346 205.865C95.5412 205.865 94.9866 206.1 94.5706 206.569C94.1652 207.028 93.9626 207.551 93.9626 208.137ZM101.146 207.897C101.146 206.564 101.567 205.545 102.41 204.841C103.253 204.137 104.245 203.785 105.386 203.785C106.303 203.785 107.093 203.983 107.754 204.377V205.945C107.157 205.519 106.447 205.305 105.626 205.305C104.869 205.305 104.223 205.519 103.69 205.945C103.157 206.361 102.89 206.991 102.89 207.833C102.89 208.655 103.151 209.284 103.674 209.721C104.207 210.148 104.847 210.361 105.594 210.361C106.405 210.361 107.151 210.164 107.834 209.769V211.353C107.098 211.705 106.25 211.881 105.29 211.881C104.17 211.881 103.199 211.54 102.378 210.857C101.557 210.164 101.146 209.177 101.146 207.897ZM111.037 211.673V205.497H108.381V203.993H115.389V205.497H112.749V211.673H111.037ZM116.408 211.673V203.993H120.792C121.549 203.993 122.141 204.185 122.568 204.569C123.005 204.943 123.224 205.433 123.224 206.041C123.224 206.884 122.861 207.465 122.136 207.785C122.52 207.903 122.834 208.116 123.08 208.425C123.325 208.735 123.448 209.113 123.448 209.561C123.448 210.191 123.234 210.703 122.808 211.097C122.392 211.481 121.762 211.673 120.92 211.673H116.408ZM118.12 207.193H120.408C121.133 207.193 121.496 206.884 121.496 206.265C121.496 205.924 121.389 205.679 121.176 205.529C120.973 205.369 120.717 205.289 120.408 205.289H118.12V207.193ZM118.12 210.377H120.504C121.314 210.377 121.72 210.052 121.72 209.401C121.72 208.74 121.325 208.409 120.536 208.409H118.12V210.377ZM124.373 207.833C124.373 207.172 124.491 206.575 124.725 206.041C124.96 205.497 125.269 205.071 125.653 204.761C126.037 204.441 126.453 204.201 126.901 204.041C127.349 203.871 127.803 203.785 128.261 203.785C128.848 203.785 129.376 203.876 129.845 204.057C130.325 204.239 130.709 204.484 130.997 204.793C131.285 205.103 131.52 205.46 131.701 205.865C131.883 206.271 131.979 206.697 131.989 207.145C132 207.583 131.963 208.025 131.877 208.473H126.101C126.187 209.124 126.507 209.615 127.061 209.945C127.616 210.265 128.277 210.425 129.045 210.425C129.92 210.425 130.731 210.244 131.477 209.881V211.353C130.741 211.705 129.824 211.881 128.725 211.881C127.477 211.881 126.437 211.529 125.605 210.825C124.784 210.121 124.373 209.124 124.373 207.833ZM130.341 207.193C130.405 206.756 130.272 206.319 129.941 205.881C129.621 205.433 129.088 205.209 128.341 205.209C127.733 205.209 127.211 205.385 126.773 205.737C126.347 206.089 126.117 206.575 126.085 207.193H130.341ZM133.299 211.673V203.993H135.011V207.081H138.851V203.993H140.563V211.673H138.851V208.585H135.011V211.673H133.299ZM142.385 211.673V203.993H144.097V207.081H147.937V203.993H149.649V211.673H147.937V208.585H144.097V211.673H142.385ZM151.472 211.673V203.993H153.184V206.553H155.28C156.218 206.553 156.96 206.793 157.504 207.273C158.048 207.753 158.32 208.367 158.32 209.113C158.32 209.86 158.048 210.473 157.504 210.953C156.96 211.433 156.218 211.673 155.28 211.673H151.472ZM159.696 211.673V203.993H161.408V211.673H159.696ZM153.184 210.313H154.944C155.456 210.313 155.856 210.212 156.144 210.009C156.432 209.796 156.576 209.497 156.576 209.113C156.576 208.719 156.432 208.42 156.144 208.217C155.856 208.004 155.456 207.897 154.944 207.897H153.184V210.313ZM169.214 202.265C168.574 202.703 167.795 202.921 166.878 202.921C165.96 202.921 165.182 202.703 164.542 202.265V200.873C165.256 201.321 166.035 201.545 166.878 201.545C167.72 201.545 168.499 201.321 169.214 200.873V202.265ZM163.23 211.673V203.993H164.942V209.017L169.054 203.993H170.526V211.673H168.814V206.649L164.702 211.673H163.23ZM57.6733 231.737V229.673H47.2413V221.993H48.9533V228.169H51.8493V221.993H53.5613V228.169H56.4413V221.993H58.1533V228.201H59.2893V231.737H57.6733ZM59.91 225.833C59.91 225.172 60.0273 224.575 60.262 224.041C60.4967 223.497 60.806 223.071 61.19 222.761C61.574 222.441 61.99 222.201 62.438 222.041C62.886 221.871 63.3393 221.785 63.798 221.785C64.3847 221.785 64.9127 221.876 65.382 222.057C65.862 222.239 66.246 222.484 66.534 222.793C66.822 223.103 67.0567 223.46 67.238 223.865C67.4193 224.271 67.5153 224.697 67.526 225.145C67.5367 225.583 67.4993 226.025 67.414 226.473H61.638C61.7233 227.124 62.0433 227.615 62.598 227.945C63.1527 228.265 63.814 228.425 64.582 228.425C65.4567 228.425 66.2673 228.244 67.014 227.881V229.353C66.278 229.705 65.3607 229.881 64.262 229.881C63.014 229.881 61.974 229.529 61.142 228.825C60.3207 228.121 59.91 227.124 59.91 225.833ZM65.878 225.193C65.942 224.756 65.8087 224.319 65.478 223.881C65.158 223.433 64.6247 223.209 63.878 223.209C63.27 223.209 62.7473 223.385 62.31 223.737C61.8833 224.089 61.654 224.575 61.622 225.193H65.878ZM76.5156 226.105C76.5156 227.289 76.1476 228.217 75.4116 228.889C74.6756 229.551 73.7103 229.881 72.5156 229.881C71.321 229.881 70.3503 229.492 69.6036 228.713C68.857 227.935 68.4836 226.804 68.4836 225.321C68.4836 224.052 68.697 222.98 69.1236 222.105C69.5503 221.231 70.1263 220.564 70.8516 220.105C71.4703 219.732 72.1263 219.465 72.8196 219.305C73.513 219.135 74.1103 218.996 74.6116 218.889C75.1236 218.772 75.529 218.564 75.8276 218.265V219.929C75.465 220.207 74.8463 220.431 73.9716 220.601C73.1076 220.761 72.4036 220.991 71.8596 221.289C71.0703 221.748 70.5263 222.559 70.2276 223.721C70.4943 223.327 70.8623 223.007 71.3316 222.761C71.8116 222.505 72.3396 222.377 72.9156 222.377C73.9183 222.377 74.7663 222.719 75.4596 223.401C76.1636 224.084 76.5156 224.985 76.5156 226.105ZM70.2116 226.137C70.2116 226.767 70.409 227.305 70.8036 227.753C71.209 228.191 71.769 228.409 72.4836 228.409C73.209 228.409 73.769 228.191 74.1636 227.753C74.569 227.316 74.7716 226.777 74.7716 226.137C74.7716 225.497 74.569 224.959 74.1636 224.521C73.769 224.084 73.209 223.865 72.4836 223.865C71.7903 223.865 71.2356 224.1 70.8196 224.569C70.4143 225.028 70.2116 225.551 70.2116 226.137ZM77.395 225.833C77.395 225.172 77.5123 224.575 77.747 224.041C77.9817 223.497 78.291 223.071 78.675 222.761C79.059 222.441 79.475 222.201 79.923 222.041C80.371 221.871 80.8243 221.785 81.283 221.785C81.8697 221.785 82.3977 221.876 82.867 222.057C83.347 222.239 83.731 222.484 84.019 222.793C84.307 223.103 84.5417 223.46 84.723 223.865C84.9043 224.271 85.0003 224.697 85.011 225.145C85.0217 225.583 84.9843 226.025 84.899 226.473H79.123C79.2083 227.124 79.5283 227.615 80.083 227.945C80.6377 228.265 81.299 228.425 82.067 228.425C82.9417 228.425 83.7523 228.244 84.499 227.881V229.353C83.763 229.705 82.8457 229.881 81.747 229.881C80.499 229.881 79.459 229.529 78.627 228.825C77.8057 228.121 77.395 227.124 77.395 225.833ZM83.363 225.193C83.427 224.756 83.2937 224.319 82.963 223.881C82.643 223.433 82.1097 223.209 81.363 223.209C80.755 223.209 80.2323 223.385 79.795 223.737C79.3683 224.089 79.139 224.575 79.107 225.193H83.363ZM86.3206 229.673V221.993H88.0326V225.081H91.8726V221.993H93.5846V229.673H91.8726V226.585H88.0326V229.673H86.3206ZM96.1429 228.809C95.3322 228.095 94.9269 227.103 94.9269 225.833C94.9269 224.564 95.3322 223.572 96.1429 222.857C96.9642 222.143 97.9455 221.785 99.0869 221.785C100.239 221.785 101.22 222.143 102.031 222.857C102.842 223.572 103.247 224.564 103.247 225.833C103.247 227.103 102.842 228.095 102.031 228.809C101.22 229.524 100.239 229.881 99.0869 229.881C97.9455 229.881 96.9642 229.524 96.1429 228.809ZM100.831 227.641C101.279 227.183 101.503 226.58 101.503 225.833C101.503 225.087 101.279 224.489 100.831 224.041C100.383 223.583 99.8015 223.353 99.0869 223.353C98.3615 223.353 97.7749 223.583 97.3269 224.041C96.8789 224.489 96.6549 225.087 96.6549 225.833C96.6549 226.58 96.8789 227.183 97.3269 227.641C97.7749 228.089 98.3615 228.313 99.0869 228.313C99.8015 228.313 100.383 228.089 100.831 227.641ZM109.243 229.673V227.129C108.571 227.375 107.856 227.497 107.099 227.497C106.203 227.497 105.483 227.263 104.939 226.793C104.395 226.313 104.123 225.609 104.123 224.681V221.993H105.835V224.537C105.835 225.071 105.984 225.449 106.283 225.673C106.582 225.887 107.019 225.993 107.595 225.993C108.182 225.993 108.731 225.897 109.243 225.705V221.993H110.955V229.673H109.243ZM112.783 229.673V221.993H114.495V225.081H118.335V221.993H120.047V229.673H118.335V226.585H114.495V229.673H112.783ZM121.869 229.673V221.993H123.581V224.553H125.677C126.615 224.553 127.357 224.793 127.901 225.273C128.445 225.753 128.717 226.367 128.717 227.113C128.717 227.86 128.445 228.473 127.901 228.953C127.357 229.433 126.615 229.673 125.677 229.673H121.869ZM130.093 229.673V221.993H131.805V229.673H130.093ZM123.581 228.313H125.341C125.853 228.313 126.253 228.212 126.541 228.009C126.829 227.796 126.973 227.497 126.973 227.113C126.973 226.719 126.829 226.42 126.541 226.217C126.253 226.004 125.853 225.897 125.341 225.897H123.581V228.313ZM139.611 220.265C138.971 220.703 138.192 220.921 137.275 220.921C136.358 220.921 135.579 220.703 134.939 220.265V218.873C135.654 219.321 136.432 219.545 137.275 219.545C138.118 219.545 138.896 219.321 139.611 218.873V220.265ZM133.627 229.673V221.993H135.339V227.017L139.451 221.993H140.923V229.673H139.211V224.649L135.099 229.673H133.627ZM146.206 229.673V221.993H147.918V225.033H149.182L151.39 221.993H153.342L150.558 225.801L153.646 229.673H151.678L149.15 226.489H147.918V229.673H146.206ZM160.914 227.897C160.914 228.271 161.101 228.457 161.474 228.457C161.602 228.457 161.773 228.425 161.986 228.361V229.593C161.666 229.721 161.303 229.785 160.898 229.785C160.13 229.785 159.618 229.487 159.362 228.889C158.541 229.551 157.575 229.881 156.466 229.881C155.719 229.881 155.085 229.679 154.562 229.273C154.039 228.857 153.778 228.276 153.778 227.529C153.778 226.633 154.114 225.983 154.786 225.577C155.458 225.161 156.263 224.953 157.202 224.953C157.821 224.953 158.487 225.028 159.202 225.177V224.905C159.202 224.415 159.026 224.02 158.674 223.721C158.322 223.423 157.826 223.273 157.186 223.273C156.237 223.273 155.314 223.471 154.418 223.865V222.297C155.421 221.956 156.402 221.785 157.362 221.785C158.482 221.785 159.351 222.063 159.97 222.617C160.599 223.172 160.914 224.015 160.914 225.145V227.897ZM157.538 226.153C156.973 226.153 156.498 226.255 156.114 226.457C155.73 226.66 155.538 226.98 155.538 227.417C155.538 227.78 155.677 228.063 155.954 228.265C156.231 228.457 156.573 228.553 156.978 228.553C157.853 228.553 158.594 228.249 159.202 227.641V226.345C158.583 226.217 158.029 226.153 157.538 226.153ZM164.367 223.193C165.146 222.255 166.132 221.785 167.327 221.785C168.458 221.785 169.375 222.18 170.079 222.969C170.783 223.748 171.135 224.703 171.135 225.833C171.135 226.964 170.783 227.924 170.079 228.713C169.375 229.492 168.458 229.881 167.327 229.881C166.175 229.881 165.252 229.481 164.559 228.681V233.193H162.847V221.993H164.367V223.193ZM168.719 227.673C169.167 227.193 169.391 226.58 169.391 225.833C169.391 225.087 169.167 224.479 168.719 224.009C168.271 223.529 167.7 223.289 167.007 223.289C166.442 223.289 165.94 223.444 165.503 223.753C165.076 224.063 164.762 224.441 164.559 224.889V226.761C164.762 227.22 165.076 227.604 165.503 227.913C165.94 228.223 166.442 228.377 167.007 228.377C167.7 228.377 168.271 228.143 168.719 227.673ZM172.48 229.673V221.993H174.192V224.553H176.288C177.227 224.553 177.968 224.793 178.512 225.273C179.056 225.753 179.328 226.367 179.328 227.113C179.328 227.86 179.056 228.473 178.512 228.953C177.968 229.433 177.227 229.673 176.288 229.673H172.48ZM174.192 228.313H175.952C176.464 228.313 176.864 228.212 177.152 228.009C177.44 227.796 177.584 227.497 177.584 227.113C177.584 226.719 177.44 226.42 177.152 226.217C176.864 226.004 176.464 225.897 175.952 225.897H174.192V228.313ZM180.024 225.833C180.024 225.172 180.141 224.575 180.376 224.041C180.61 223.497 180.92 223.071 181.304 222.761C181.688 222.441 182.104 222.201 182.552 222.041C183 221.871 183.453 221.785 183.912 221.785C184.498 221.785 185.026 221.876 185.496 222.057C185.976 222.239 186.36 222.484 186.648 222.793C186.936 223.103 187.17 223.46 187.352 223.865C187.533 224.271 187.629 224.697 187.64 225.145C187.65 225.583 187.613 226.025 187.528 226.473H181.752C181.837 227.124 182.157 227.615 182.712 227.945C183.266 228.265 183.928 228.425 184.696 228.425C185.57 228.425 186.381 228.244 187.128 227.881V229.353C186.392 229.705 185.474 229.881 184.376 229.881C183.128 229.881 182.088 229.529 181.256 228.825C180.434 228.121 180.024 227.124 180.024 225.833ZM185.992 225.193C186.056 224.756 185.922 224.319 185.592 223.881C185.272 223.433 184.738 223.209 183.992 223.209C183.384 223.209 182.861 223.385 182.424 223.737C181.997 224.089 181.768 224.575 181.736 225.193H185.992ZM190.469 223.193C191.248 222.255 192.235 221.785 193.429 221.785C194.56 221.785 195.477 222.18 196.181 222.969C196.885 223.748 197.237 224.703 197.237 225.833C197.237 226.964 196.885 227.924 196.181 228.713C195.477 229.492 194.56 229.881 193.429 229.881C192.277 229.881 191.355 229.481 190.661 228.681V233.193H188.949V221.993H190.469V223.193ZM194.821 227.673C195.269 227.193 195.493 226.58 195.493 225.833C195.493 225.087 195.269 224.479 194.821 224.009C194.373 223.529 193.803 223.289 193.109 223.289C192.544 223.289 192.043 223.444 191.605 223.753C191.179 224.063 190.864 224.441 190.661 224.889V226.761C190.864 227.22 191.179 227.604 191.605 227.913C192.043 228.223 192.544 228.377 193.109 228.377C193.803 228.377 194.373 228.143 194.821 227.673Z" fill="white"/>
<g clip-path="url(#clip1_901_80557)">
<path d="M268.589 198.673C265.767 198.673 263.42 200.537 262.839 203.032C262.27 202.721 261.608 202.533 260.911 202.533C258.785 202.533 257.066 204.152 257.066 206.148C257.066 208.145 258.646 209.631 260.655 209.753H268.857C271.993 209.631 274.491 207.202 274.491 204.219C274.491 201.235 271.842 198.673 268.589 198.673Z" fill="#4962D8"/>
<path d="M300.919 233.853L283.749 204.917C282.843 203.398 280.543 203.42 279.683 204.962L272.702 217.461C272.609 217.627 272.609 217.827 272.702 217.993L276.245 223.904C276.919 225.025 276.675 226.411 275.745 227.265C275.339 227.209 275.234 227.187 274.828 227.132L267.497 214.888C266.591 213.368 264.28 213.402 263.42 214.954L253.07 233.864C252.872 234.23 253.151 234.673 253.581 234.673H300.419C300.86 234.673 301.139 234.219 300.919 233.842V233.853Z" fill="#3A4DA8"/>
</g>
<path d="M135.069 274.063H142.854L158.293 289.341" stroke="#3A4DA8" stroke-width="1.10736"/>
<path d="M202.906 274.063H195.12L179.682 289.341" stroke="#3A4DA8" stroke-width="1.10736"/>
<path d="M135.069 376.284H142.854L158.293 361.005" stroke="#3A4DA8" stroke-width="1.10736"/>
<path d="M202.905 376.284H195.12L179.682 361.005" stroke="#3A4DA8" stroke-width="1.10736"/>
<path d="M114.062 397.673L152.792 358.561" stroke="#3A4DA8" stroke-width="1.10736"/>
<path d="M223.799 397.673L184.571 357.949" stroke="#3A4DA8" stroke-width="1.10736"/>
<path d="M223.913 252.673L185.183 291.786" stroke="#3A4DA8" stroke-width="1.10736"/>
<path d="M114.176 252.673L153.403 292.397" stroke="#3A4DA8" stroke-width="1.10736"/>
<g filter="url(#filter4_dd_901_80557)">
<path d="M185.065 314.547V334.213L168.075 344.056L151.075 334.213V314.547L168.075 304.714L185.065 314.547Z" fill="#0B1855"/>
<path d="M194.33 339.581L206.697 346.735L168.075 369.09L129.453 346.735V302.036L168.075 279.681L206.697 302.036L194.33 309.19L168.075 293.989L141.81 309.19V339.581L168.075 354.782L194.33 339.581Z" fill="#30429B"/>
<path d="M168.353 293.509L168.075 293.349L167.798 293.509L141.532 308.71L141.256 308.87V309.19V339.581V339.9L141.532 340.06L167.798 355.261L168.075 355.422L168.353 355.261L194.33 340.221L205.592 346.735L168.075 368.45L130.006 346.416V302.355L168.075 280.32L205.592 302.035L194.33 308.55L168.353 293.509Z" stroke="url(#paint0_linear_901_80557)" stroke-opacity="0.3" stroke-width="1.10736"/>
<path d="M168.075 324.391L151.075 334.213V314.547L168.075 324.391Z" fill="#0B1855"/>
<path d="M185.065 314.547V334.223L168.075 324.391L185.065 314.547Z" fill="#30429B"/>
<path d="M185.065 314.547L168.075 324.391V304.714L185.065 314.547Z" fill="#0B1855"/>
<path d="M185.065 334.223L168.075 344.056V324.391L185.065 334.223Z" fill="#0B1855"/>
<path d="M168.075 324.391V344.056L151.075 334.223V334.213L168.075 324.391Z" fill="#30429B"/>
<path d="M168.075 304.714V324.391L151.075 314.547L168.075 304.714Z" fill="#30429B"/>
</g>
<path d="M61.1452 317.941C62.8718 317.941 64.3517 318.067 65.5849 318.326L65.3506 319.993C64.0434 319.909 62.6436 319.873 61.1452 319.873C59.6345 319.873 58.5985 320.186 58.0312 320.806C57.4701 321.426 57.1865 322.563 57.1865 324.212C57.1865 325.861 57.4701 326.999 58.0312 327.619C58.5924 328.239 59.6345 328.552 61.1452 328.552C63.0876 328.552 64.6045 328.491 65.6959 328.377L65.9303 330.026C64.6723 330.333 63.0753 330.483 61.1452 330.483C58.7959 330.483 57.1495 330.014 56.1999 329.081C55.2564 328.136 54.7816 326.511 54.7816 324.206C54.7816 321.901 55.2564 320.282 56.1999 319.343C57.1495 318.41 58.7959 317.941 61.1452 317.941Z" fill="#141E4B"/>
<path d="M79.8415 320.029H74.7358V330.261H72.4173V320.029H67.3486V318.152H79.8477V320.029H79.8415Z" fill="#141E4B"/>
<path d="M87.5739 317.995C89.5656 317.995 90.9345 318.266 91.693 318.814C92.4453 319.355 92.8276 320.384 92.8276 321.895C92.8276 323.406 92.4638 324.429 91.73 324.977C90.9962 325.518 89.6951 325.795 87.8267 325.795C86.6736 325.795 85.4835 325.729 84.2503 325.602V330.273H81.9318V318.152C83.2637 318.049 85.1444 317.995 87.5739 317.995ZM84.2503 323.996H87.5061C88.6468 323.996 89.43 323.851 89.8554 323.556C90.2809 323.261 90.4967 322.708 90.4967 321.889C90.4967 321.071 90.2809 320.517 89.8554 320.228C89.43 319.939 88.6468 319.801 87.5061 319.801C85.9213 319.801 84.8361 319.807 84.2503 319.819V323.996Z" fill="#141E4B"/>
<path d="M101.121 317.923C103.52 317.923 105.191 318.374 106.128 319.277C107.071 320.18 107.54 321.823 107.54 324.212C107.54 326.602 107.071 328.245 106.128 329.147C105.185 330.05 103.52 330.502 101.121 330.502C98.7346 330.502 97.0698 330.05 96.1201 329.141C95.1705 328.233 94.7019 326.596 94.7019 324.218C94.7019 321.841 95.1767 320.204 96.1201 319.295C97.0698 318.38 98.7346 317.923 101.121 317.923ZM104.272 320.74C103.699 320.114 102.65 319.801 101.127 319.801C99.6041 319.801 98.5558 320.12 97.9824 320.746C97.4089 321.378 97.1191 322.533 97.1191 324.206C97.1191 325.879 97.4089 327.035 97.9824 327.667C98.5558 328.299 99.6041 328.612 101.127 328.612C102.65 328.612 103.699 328.299 104.272 327.673C104.845 327.047 105.135 325.892 105.135 324.206C105.135 322.521 104.845 321.366 104.272 320.74Z" fill="#141E4B"/>
<path d="M122.037 330.267H119.805V322.329C119.805 321.781 119.848 321.257 119.928 320.764H119.817C119.528 321.36 119.232 321.865 118.917 322.274L112.165 330.267H109.81V318.152H112.023V325.982C112.023 326.554 111.98 327.089 111.9 327.577H112.023C112.19 327.204 112.498 326.71 112.942 326.102L119.669 318.152H122.043V330.267H122.037ZM117.881 314.679H119.515C119.589 315.407 119.293 316.015 118.646 316.515C117.992 317.014 117.11 317.261 115.994 317.261C114.866 317.261 113.972 317.008 113.312 316.509C112.652 316.003 112.362 315.395 112.449 314.685H114.064C114.052 315.167 114.212 315.528 114.551 315.781C114.884 316.033 115.365 316.16 115.988 316.16C116.599 316.16 117.067 316.033 117.4 315.781C117.739 315.522 117.894 315.155 117.881 314.679Z" fill="#141E4B"/>
<path d="M205.188 320.029H200.083V330.26H197.758V320.029H192.689V318.151H205.188V320.029Z" fill="#141E4B"/>
<path d="M217.231 328.491L217.336 330.158C215.899 330.254 213.568 330.296 210.356 330.296C209.394 330.296 208.629 330.092 208.062 329.682C207.495 329.273 207.205 328.714 207.205 327.997V320.414C207.205 319.71 207.488 319.156 208.062 318.735C208.629 318.32 209.394 318.109 210.356 318.109C213.568 318.109 215.893 318.157 217.336 318.247L217.231 319.933H210.867C210.387 319.933 210.041 320.011 209.832 320.161C209.622 320.312 209.517 320.577 209.517 320.95V323.074H216.349V324.759H209.517V327.462C209.517 327.835 209.622 328.1 209.832 328.25C210.041 328.401 210.387 328.479 210.867 328.479H217.231V328.491Z" fill="#141E4B"/>
<path d="M226.197 324.79H225.457L221.665 330.266H219.198L223.656 324.037L219.5 318.157H221.948L225.42 323.213H226.228L229.699 318.157H232.166L228.01 324.037L232.468 330.266H229.989L226.197 324.79Z" fill="#141E4B"/>
<path d="M246.379 318.151V330.26H244.06V324.711H236.975V330.26H234.675V318.151H236.975V322.906H244.06V318.151H246.379Z" fill="#141E4B"/>
<path d="M254.944 317.922C257.343 317.922 259.014 318.374 259.951 319.277C260.894 320.179 261.363 321.822 261.363 324.212C261.363 326.601 260.894 328.244 259.951 329.147C259.007 330.05 257.343 330.501 254.944 330.501C252.558 330.501 250.893 330.05 249.943 329.141C248.993 328.232 248.525 326.595 248.525 324.218C248.525 321.84 249 320.203 249.943 319.295C250.893 318.38 252.558 317.922 254.944 317.922ZM258.089 320.739C257.515 320.113 256.467 319.8 254.944 319.8C253.421 319.8 252.373 320.119 251.799 320.745C251.226 321.377 250.936 322.532 250.936 324.206C250.936 325.879 251.226 327.034 251.799 327.666C252.373 328.298 253.421 328.611 254.944 328.611C256.467 328.611 257.515 328.298 258.089 327.672C258.662 327.046 258.952 325.891 258.952 324.206C258.952 322.52 258.668 321.365 258.089 320.739Z" fill="#141E4B"/>
<g opacity="0.1" filter="url(#filter5_d_901_80557)">
<path d="M43 565.673H229L229 622.278L201.373 637.673H16.0001L16 580.742L43 565.673Z" fill="#30429B" fill-opacity="0.95"/>
<path d="M228.652 622.073L228.652 566.022H43.0906L16.3483 580.947L16.3484 637.325H201.282L228.652 622.073Z" stroke="#3A4DA8" stroke-width="0.696572"/>
</g>
<g filter="url(#filter6_d_901_80557)">
<path d="M295 637.673H109L109 580.673L136 565.673L322 565.673V622.673L295 637.673Z" fill="#30429B" fill-opacity="0.95"/>
<path d="M109.348 580.878L109.348 637.325H294.91L321.652 622.468V566.022H136.09L109.348 580.878Z" stroke="#3A4DA8" stroke-width="0.696572"/>
</g>
<path d="M150.926 594.473C152.12 594.473 153.059 594.713 153.742 595.193C154.424 595.673 154.766 596.377 154.766 597.305C154.766 597.945 154.6 598.479 154.27 598.905C153.939 599.321 153.518 599.609 153.006 599.769C153.614 599.94 154.131 600.255 154.558 600.713C154.995 601.161 155.214 601.78 155.214 602.569C155.214 603.167 155.08 603.684 154.814 604.121C154.547 604.548 154.19 604.868 153.742 605.081C153.294 605.295 152.84 605.449 152.382 605.545C151.934 605.631 151.459 605.673 150.958 605.673H146.19V594.473H150.926ZM152.91 597.593C152.91 596.569 152.184 596.057 150.734 596.057H148.014V599.113L150.99 599.129C151.555 599.129 152.014 599.001 152.366 598.745C152.728 598.489 152.91 598.105 152.91 597.593ZM153.358 602.377C153.358 601.236 152.584 600.665 151.038 600.665H148.014V604.073H150.782C151.155 604.073 151.47 604.057 151.726 604.025C151.982 603.993 152.243 603.924 152.51 603.817C152.787 603.711 152.995 603.54 153.134 603.305C153.283 603.06 153.358 602.751 153.358 602.377ZM157.364 604.809C156.554 604.095 156.148 603.103 156.148 601.833C156.148 600.564 156.554 599.572 157.364 598.857C158.186 598.143 159.167 597.785 160.308 597.785C161.46 597.785 162.442 598.143 163.252 598.857C164.063 599.572 164.468 600.564 164.468 601.833C164.468 603.103 164.063 604.095 163.252 604.809C162.442 605.524 161.46 605.881 160.308 605.881C159.167 605.881 158.186 605.524 157.364 604.809ZM162.052 603.641C162.5 603.183 162.724 602.58 162.724 601.833C162.724 601.087 162.5 600.489 162.052 600.041C161.604 599.583 161.023 599.353 160.308 599.353C159.583 599.353 158.996 599.583 158.548 600.041C158.1 600.489 157.876 601.087 157.876 601.833C157.876 602.58 158.1 603.183 158.548 603.641C158.996 604.089 159.583 604.313 160.308 604.313C161.023 604.313 161.604 604.089 162.052 603.641ZM164.933 607.737V604.265H165.989C166.832 602.772 167.237 600.681 167.205 597.993H173.205V604.265H174.341V607.737H172.725V605.673H166.549V607.737H164.933ZM168.805 599.401C168.741 601.321 168.4 602.943 167.781 604.265H171.477V599.401H168.805ZM175.582 605.673V597.993H177.294V601.081H181.134V597.993H182.846V605.673H181.134V602.585H177.294V605.673H175.582ZM184.668 605.673V597.993H186.38V600.553H188.476C189.415 600.553 190.156 600.793 190.7 601.273C191.244 601.753 191.516 602.367 191.516 603.113C191.516 603.86 191.244 604.473 190.7 604.953C190.156 605.433 189.415 605.673 188.476 605.673H184.668ZM192.892 605.673V597.993H194.604V605.673H192.892ZM186.38 604.313H188.14C188.652 604.313 189.052 604.212 189.34 604.009C189.628 603.796 189.772 603.497 189.772 603.113C189.772 602.719 189.628 602.42 189.34 602.217C189.052 602.004 188.652 601.897 188.14 601.897H186.38V604.313ZM202.411 596.265C201.771 596.703 200.992 596.921 200.075 596.921C199.157 596.921 198.379 596.703 197.739 596.265V594.873C198.453 595.321 199.232 595.545 200.075 595.545C200.917 595.545 201.696 595.321 202.411 594.873V596.265ZM196.427 605.673V597.993H198.139V603.017L202.251 597.993H203.723V605.673H202.011V600.649L197.899 605.673H196.427ZM210.861 605.673V599.497H208.205V597.993H215.213V599.497H212.573V605.673H210.861ZM217.752 599.193C218.531 598.255 219.518 597.785 220.712 597.785C221.843 597.785 222.76 598.18 223.464 598.969C224.168 599.748 224.52 600.703 224.52 601.833C224.52 602.964 224.168 603.924 223.464 604.713C222.76 605.492 221.843 605.881 220.712 605.881C219.56 605.881 218.638 605.481 217.944 604.681V609.193H216.232V597.993H217.752V599.193ZM222.104 603.673C222.552 603.193 222.776 602.58 222.776 601.833C222.776 601.087 222.552 600.479 222.104 600.009C221.656 599.529 221.086 599.289 220.392 599.289C219.827 599.289 219.326 599.444 218.888 599.753C218.462 600.063 218.147 600.441 217.944 600.889V602.761C218.147 603.22 218.462 603.604 218.888 603.913C219.326 604.223 219.827 604.377 220.392 604.377C221.086 604.377 221.656 604.143 222.104 603.673ZM232.409 603.897C232.409 604.271 232.596 604.457 232.969 604.457C233.097 604.457 233.268 604.425 233.481 604.361V605.593C233.161 605.721 232.799 605.785 232.393 605.785C231.625 605.785 231.113 605.487 230.857 604.889C230.036 605.551 229.071 605.881 227.961 605.881C227.215 605.881 226.58 605.679 226.057 605.273C225.535 604.857 225.273 604.276 225.273 603.529C225.273 602.633 225.609 601.983 226.281 601.577C226.953 601.161 227.759 600.953 228.697 600.953C229.316 600.953 229.983 601.028 230.697 601.177V600.905C230.697 600.415 230.521 600.02 230.169 599.721C229.817 599.423 229.321 599.273 228.681 599.273C227.732 599.273 226.809 599.471 225.913 599.865V598.297C226.916 597.956 227.897 597.785 228.857 597.785C229.977 597.785 230.847 598.063 231.465 598.617C232.095 599.172 232.409 600.015 232.409 601.145V603.897ZM229.033 602.153C228.468 602.153 227.993 602.255 227.609 602.457C227.225 602.66 227.033 602.98 227.033 603.417C227.033 603.78 227.172 604.063 227.449 604.265C227.727 604.457 228.068 604.553 228.473 604.553C229.348 604.553 230.089 604.249 230.697 603.641V602.345C230.079 602.217 229.524 602.153 229.033 602.153ZM234.342 605.673V597.993H236.054V601.081H239.894V597.993H241.606V605.673H239.894V602.585H236.054V605.673H234.342ZM242.948 601.897C242.948 600.564 243.37 599.545 244.212 598.841C245.055 598.137 246.047 597.785 247.188 597.785C248.106 597.785 248.895 597.983 249.556 598.377V599.945C248.959 599.519 248.25 599.305 247.428 599.305C246.671 599.305 246.026 599.519 245.492 599.945C244.959 600.361 244.692 600.991 244.692 601.833C244.692 602.655 244.954 603.284 245.476 603.721C246.01 604.148 246.65 604.361 247.396 604.361C248.207 604.361 248.954 604.164 249.636 603.769V605.353C248.9 605.705 248.052 605.881 247.092 605.881C245.972 605.881 245.002 605.54 244.18 604.857C243.359 604.164 242.948 603.177 242.948 601.897ZM250.983 605.673V597.993H258.247V605.673H256.535V599.497H252.695V605.673H250.983ZM260.806 604.809C259.995 604.095 259.59 603.103 259.59 601.833C259.59 600.564 259.995 599.572 260.806 598.857C261.627 598.143 262.608 597.785 263.75 597.785C264.902 597.785 265.883 598.143 266.694 598.857C267.504 599.572 267.91 600.564 267.91 601.833C267.91 603.103 267.504 604.095 266.694 604.809C265.883 605.524 264.902 605.881 263.75 605.881C262.608 605.881 261.627 605.524 260.806 604.809ZM265.494 603.641C265.942 603.183 266.166 602.58 266.166 601.833C266.166 601.087 265.942 600.489 265.494 600.041C265.046 599.583 264.464 599.353 263.75 599.353C263.024 599.353 262.438 599.583 261.99 600.041C261.542 600.489 261.318 601.087 261.318 601.833C261.318 602.58 261.542 603.183 261.99 603.641C262.438 604.089 263.024 604.313 263.75 604.313C264.464 604.313 265.046 604.089 265.494 603.641ZM270.77 599.193C271.548 598.255 272.535 597.785 273.73 597.785C274.86 597.785 275.778 598.18 276.482 598.969C277.186 599.748 277.538 600.703 277.538 601.833C277.538 602.964 277.186 603.924 276.482 604.713C275.778 605.492 274.86 605.881 273.73 605.881C272.578 605.881 271.655 605.481 270.962 604.681V609.193H269.25V597.993H270.77V599.193ZM275.122 603.673C275.57 603.193 275.794 602.58 275.794 601.833C275.794 601.087 275.57 600.479 275.122 600.009C274.674 599.529 274.103 599.289 273.41 599.289C272.844 599.289 272.343 599.444 271.906 599.753C271.479 600.063 271.164 600.441 270.962 600.889V602.761C271.164 603.22 271.479 603.604 271.906 603.913C272.343 604.223 272.844 604.377 273.41 604.377C274.103 604.377 274.674 604.143 275.122 603.673ZM280.551 605.673V599.497H277.895V597.993H284.903V599.497H282.263V605.673H280.551Z" fill="white"/>
<g clip-path="url(#clip2_901_80557)">
<path d="M59.4565 588.715H65.2333C65.5568 588.715 65.811 588.447 65.811 588.107V582.281C65.811 581.941 65.5568 581.673 65.2333 581.673H59.4565C59.133 581.673 58.8789 581.941 58.8789 582.281V588.107C58.8789 588.447 59.133 588.715 59.4565 588.715ZM47.903 588.715H53.6798C54.0033 588.715 54.2574 588.447 54.2574 588.107V582.281C54.2574 581.941 54.0033 581.673 53.6798 581.673H47.903C47.5795 581.673 47.3253 581.941 47.3253 582.281V588.107C47.3253 588.447 47.5795 588.715 47.903 588.715ZM84.6896 603.431H71.946C71.3567 603.431 70.7906 603.662 70.3631 604.087L66.7931 607.627C66.3656 608.052 65.7995 608.283 65.2102 608.283H42.311C40.8668 608.283 39.7808 609.658 40.035 611.153L41.5023 619.667C41.6987 620.822 42.6576 621.661 43.7783 621.661H79.71C80.6574 621.661 81.5123 621.053 81.859 620.117L86.827 606.739C87.4162 605.146 86.3071 603.419 84.678 603.419L84.6896 603.431Z" fill="#3A4DA8"/>
<path d="M79.5595 599.539L76.3592 592.12C76.2667 591.901 76.0588 591.768 75.8277 591.768H45.592C45.2685 591.768 45.0143 592.035 45.0143 592.376V604.537C45.0143 604.878 45.2685 605.146 45.592 605.146H65.0944L68.3756 601.886C69.3461 600.925 70.617 600.39 71.9457 600.39H79.0512C79.4671 600.39 79.7559 599.928 79.5826 599.527L79.5595 599.539ZM51.9349 599.673C51.9349 600.013 51.6807 600.281 51.3572 600.281H49.0465C48.723 600.281 48.4688 600.013 48.4688 599.673V597.24C48.4688 596.9 48.723 596.632 49.0465 596.632H51.3572C51.6807 596.632 51.9349 596.9 51.9349 597.24V599.673ZM57.7117 599.673C57.7117 600.013 57.4575 600.281 57.134 600.281H54.8233C54.4998 600.281 54.2456 600.013 54.2456 599.673V597.24C54.2456 596.9 54.4998 596.632 54.8233 596.632H57.134C57.4575 596.632 57.7117 596.9 57.7117 597.24V599.673ZM63.4885 599.673C63.4885 600.013 63.2343 600.281 62.9108 600.281H60.6001C60.2766 600.281 60.0224 600.013 60.0224 599.673V597.24C60.0224 596.9 60.2766 596.632 60.6001 596.632H62.9108C63.2343 596.632 63.4885 596.9 63.4885 597.24V599.673Z" fill="#4962D8"/>
</g>
<g opacity="0.1" filter="url(#filter7_d_901_80557)">
<path d="M43 481.673H229L229 538.278L201.373 553.673H16.0001L16 496.742L43 481.673Z" fill="#30429B" fill-opacity="0.95"/>
<path d="M228.652 538.073L228.652 482.022H43.0906L16.3483 496.947L16.3484 553.325H201.282L228.652 538.073Z" stroke="#3A4DA8" stroke-width="0.696572"/>
</g>
<g filter="url(#filter8_d_901_80557)">
<path d="M295 553.673H109L109 496.673L136 481.673L322 481.673V538.673L295 553.673Z" fill="#30429B" fill-opacity="0.95"/>
<path d="M109.348 496.878L109.348 553.325H294.91L321.652 538.468V482.022H136.09L109.348 496.878Z" stroke="#3A4DA8" stroke-width="0.696572"/>
</g>
<path d="M142.354 521.673V510.473H151.762V521.673H149.938V512.153H144.178V521.673H142.354ZM155.391 515.193C156.169 514.255 157.156 513.785 158.351 513.785C159.481 513.785 160.399 514.18 161.103 514.969C161.807 515.748 162.159 516.703 162.159 517.833C162.159 518.964 161.807 519.924 161.103 520.713C160.399 521.492 159.481 521.881 158.351 521.881C157.199 521.881 156.276 521.481 155.583 520.681V525.193H153.871V513.993H155.391V515.193ZM159.743 519.673C160.191 519.193 160.415 518.58 160.415 517.833C160.415 517.087 160.191 516.479 159.743 516.009C159.295 515.529 158.724 515.289 158.031 515.289C157.465 515.289 156.964 515.444 156.527 515.753C156.1 516.063 155.785 516.441 155.583 516.889V518.761C155.785 519.22 156.1 519.604 156.527 519.913C156.964 520.223 157.465 520.377 158.031 520.377C158.724 520.377 159.295 520.143 159.743 519.673ZM164.24 520.809C163.429 520.095 163.024 519.103 163.024 517.833C163.024 516.564 163.429 515.572 164.24 514.857C165.061 514.143 166.042 513.785 167.184 513.785C168.336 513.785 169.317 514.143 170.128 514.857C170.938 515.572 171.344 516.564 171.344 517.833C171.344 519.103 170.938 520.095 170.128 520.809C169.317 521.524 168.336 521.881 167.184 521.881C166.042 521.881 165.061 521.524 164.24 520.809ZM168.928 519.641C169.376 519.183 169.6 518.58 169.6 517.833C169.6 517.087 169.376 516.489 168.928 516.041C168.48 515.583 167.898 515.353 167.184 515.353C166.458 515.353 165.872 515.583 165.424 516.041C164.976 516.489 164.752 517.087 164.752 517.833C164.752 518.58 164.976 519.183 165.424 519.641C165.872 520.089 166.458 520.313 167.184 520.313C167.898 520.313 168.48 520.089 168.928 519.641ZM172.684 521.673V513.993H174.396V519.017L178.508 513.993H179.98V521.673H178.268V516.649L174.156 521.673H172.684ZM187.817 519.577C187.817 520.271 187.503 520.831 186.873 521.257C186.255 521.673 185.369 521.881 184.217 521.881C183.097 521.881 182.137 521.673 181.337 521.257V519.785C182.095 520.212 182.98 520.425 183.993 520.425C185.391 520.425 186.089 520.073 186.089 519.369C186.089 518.74 185.556 518.425 184.489 518.425H182.921V517.113H184.489C185.449 517.113 185.929 516.825 185.929 516.249C185.929 515.919 185.764 515.668 185.433 515.497C185.103 515.316 184.655 515.225 184.089 515.225C183.129 515.225 182.26 515.433 181.481 515.849V514.377C182.324 513.972 183.263 513.769 184.297 513.769C185.417 513.769 186.255 513.977 186.809 514.393C187.375 514.809 187.657 515.353 187.657 516.025C187.657 516.463 187.535 516.831 187.289 517.129C187.044 517.428 186.713 517.631 186.297 517.737C186.756 517.865 187.124 518.089 187.401 518.409C187.679 518.719 187.817 519.108 187.817 519.577ZM189.216 521.673V513.993H193.6C194.357 513.993 194.949 514.185 195.376 514.569C195.813 514.943 196.032 515.433 196.032 516.041C196.032 516.884 195.669 517.465 194.944 517.785C195.328 517.903 195.642 518.116 195.888 518.425C196.133 518.735 196.256 519.113 196.256 519.561C196.256 520.191 196.042 520.703 195.616 521.097C195.2 521.481 194.57 521.673 193.728 521.673H189.216ZM190.928 517.193H193.216C193.941 517.193 194.304 516.884 194.304 516.265C194.304 515.924 194.197 515.679 193.984 515.529C193.781 515.369 193.525 515.289 193.216 515.289H190.928V517.193ZM190.928 520.377H193.312C194.122 520.377 194.528 520.052 194.528 519.401C194.528 518.74 194.133 518.409 193.344 518.409H190.928V520.377ZM198.397 520.809C197.587 520.095 197.181 519.103 197.181 517.833C197.181 516.564 197.587 515.572 198.397 514.857C199.219 514.143 200.2 513.785 201.341 513.785C202.493 513.785 203.475 514.143 204.285 514.857C205.096 515.572 205.501 516.564 205.501 517.833C205.501 519.103 205.096 520.095 204.285 520.809C203.475 521.524 202.493 521.881 201.341 521.881C200.2 521.881 199.219 521.524 198.397 520.809ZM203.085 519.641C203.533 519.183 203.757 518.58 203.757 517.833C203.757 517.087 203.533 516.489 203.085 516.041C202.637 515.583 202.056 515.353 201.341 515.353C200.616 515.353 200.029 515.583 199.581 516.041C199.133 516.489 198.909 517.087 198.909 517.833C198.909 518.58 199.133 519.183 199.581 519.641C200.029 520.089 200.616 520.313 201.341 520.313C202.056 520.313 202.637 520.089 203.085 519.641ZM205.966 523.737V520.265H207.022C207.864 518.772 208.27 516.681 208.238 513.993H214.238V520.265H215.374V523.737H213.758V521.673H207.582V523.737H205.966ZM209.838 515.401C209.774 517.321 209.432 518.943 208.814 520.265H212.51V515.401H209.838ZM215.979 517.897C215.979 516.564 216.4 515.545 217.243 514.841C218.085 514.137 219.077 513.785 220.219 513.785C221.136 513.785 221.925 513.983 222.587 514.377V515.945C221.989 515.519 221.28 515.305 220.459 515.305C219.701 515.305 219.056 515.519 218.523 515.945C217.989 516.361 217.723 516.991 217.723 517.833C217.723 518.655 217.984 519.284 218.507 519.721C219.04 520.148 219.68 520.361 220.427 520.361C221.237 520.361 221.984 520.164 222.667 519.769V521.353C221.931 521.705 221.083 521.881 220.123 521.881C219.003 521.881 218.032 521.54 217.211 520.857C216.389 520.164 215.979 519.177 215.979 517.897ZM225.87 521.673V515.497H223.214V513.993H230.222V515.497H227.582V521.673H225.87ZM231.241 521.673V513.993H235.625C236.382 513.993 236.974 514.185 237.401 514.569C237.838 514.943 238.057 515.433 238.057 516.041C238.057 516.884 237.694 517.465 236.969 517.785C237.353 517.903 237.667 518.116 237.913 518.425C238.158 518.735 238.281 519.113 238.281 519.561C238.281 520.191 238.067 520.703 237.641 521.097C237.225 521.481 236.595 521.673 235.753 521.673H231.241ZM232.953 517.193H235.241C235.966 517.193 236.329 516.884 236.329 516.265C236.329 515.924 236.222 515.679 236.009 515.529C235.806 515.369 235.55 515.289 235.241 515.289H232.953V517.193ZM232.953 520.377H235.337C236.147 520.377 236.553 520.052 236.553 519.401C236.553 518.74 236.158 518.409 235.369 518.409H232.953V520.377ZM240.422 520.809C239.612 520.095 239.206 519.103 239.206 517.833C239.206 516.564 239.612 515.572 240.422 514.857C241.244 514.143 242.225 513.785 243.366 513.785C244.518 513.785 245.5 514.143 246.31 514.857C247.121 515.572 247.526 516.564 247.526 517.833C247.526 519.103 247.121 520.095 246.31 520.809C245.5 521.524 244.518 521.881 243.366 521.881C242.225 521.881 241.244 521.524 240.422 520.809ZM245.11 519.641C245.558 519.183 245.782 518.58 245.782 517.833C245.782 517.087 245.558 516.489 245.11 516.041C244.662 515.583 244.081 515.353 243.366 515.353C242.641 515.353 242.054 515.583 241.606 516.041C241.158 516.489 240.934 517.087 240.934 517.833C240.934 518.58 241.158 519.183 241.606 519.641C242.054 520.089 242.641 520.313 243.366 520.313C244.081 520.313 244.662 520.089 245.11 519.641ZM251.352 521.673L254.856 515.929L251.64 510.473H253.688L256.328 515.145H258.04V510.473H259.864V515.145H261.56L264.2 510.473H266.264L263.032 515.929L266.536 521.673H264.488L261.544 516.825H259.864V521.673H258.04V516.825H256.344L253.416 521.673H251.352ZM272.247 514.825C275.105 514.825 276.535 515.972 276.535 518.265C276.535 520.537 275.105 521.673 272.247 521.673H267.671V510.473H275.655V512.153H269.495V514.825H272.247ZM272.279 520.009C272.62 520.009 272.913 519.988 273.159 519.945C273.415 519.903 273.665 519.828 273.911 519.721C274.167 519.604 274.359 519.423 274.487 519.177C274.615 518.932 274.679 518.628 274.679 518.265C274.679 517.892 274.609 517.583 274.471 517.337C274.343 517.092 274.156 516.911 273.911 516.793C273.665 516.676 273.415 516.596 273.159 516.553C272.913 516.511 272.62 516.489 272.279 516.489H269.495V520.009H272.279ZM287.653 521.673H285.829V514.697C285.829 514.143 285.834 513.737 285.845 513.481L279.813 521.673H278.101V510.473H279.925V517.433C279.925 517.999 279.919 518.409 279.909 518.665L285.941 510.473H287.653V521.673Z" fill="white"/>
<g clip-path="url(#clip3_901_80557)">
<path d="M84.728 512.957H44.1182C43.8109 512.957 43.5695 513.189 43.5695 513.484V536.146C43.5695 536.441 43.8109 536.673 44.1182 536.673H84.728C85.0353 536.673 85.2768 536.441 85.2768 536.146V513.484C85.2768 513.189 85.0353 512.957 84.728 512.957ZM52.8329 527.566C52.8329 527.861 52.5914 528.093 52.2841 528.093H46.7963C46.489 528.093 46.2475 527.861 46.2475 527.566V524.404C46.2475 524.109 46.489 523.877 46.7963 523.877H52.2841C52.5914 523.877 52.8329 524.109 52.8329 524.404V527.566ZM52.8329 520.188C52.8329 520.483 52.5914 520.715 52.2841 520.715H46.7963C46.489 520.715 46.2475 520.483 46.2475 520.188V517.026C46.2475 516.731 46.489 516.499 46.7963 516.499H52.2841C52.5914 516.499 52.8329 516.731 52.8329 517.026V520.188ZM62.8536 527.566C62.8536 527.861 62.6121 528.093 62.3048 528.093H56.817C56.5097 528.093 56.2682 527.861 56.2682 527.566V524.404C56.2682 524.109 56.5097 523.877 56.817 523.877H62.3048C62.6121 523.877 62.8536 524.109 62.8536 524.404V527.566ZM62.8536 520.188C62.8536 520.483 62.6121 520.715 62.3048 520.715H56.817C56.5097 520.715 56.2682 520.483 56.2682 520.188V517.026C56.2682 516.731 56.5097 516.499 56.817 516.499H62.3048C62.6121 516.499 62.8536 516.731 62.8536 517.026V520.188ZM72.589 527.566C72.589 527.861 72.3475 528.093 72.0402 528.093H66.5524C66.2451 528.093 66.0036 527.861 66.0036 527.566V524.404C66.0036 524.109 66.2451 523.877 66.5524 523.877H72.0402C72.3475 523.877 72.589 524.109 72.589 524.404V527.566ZM72.589 520.188C72.589 520.483 72.3475 520.715 72.0402 520.715H66.5524C66.2451 520.715 66.0036 520.483 66.0036 520.188V517.026C66.0036 516.731 66.2451 516.499 66.5524 516.499H72.0402C72.3475 516.499 72.589 516.731 72.589 517.026V520.188ZM82.6097 527.566C82.6097 527.861 82.3682 528.093 82.0609 528.093H76.5731C76.2658 528.093 76.0243 527.861 76.0243 527.566V524.404C76.0243 524.109 76.2658 523.877 76.5731 523.877H82.0609C82.3682 523.877 82.6097 524.109 82.6097 524.404V527.566ZM82.6097 520.188C82.6097 520.483 82.3682 520.715 82.0609 520.715H76.5731C76.2658 520.715 76.0243 520.483 76.0243 520.188V517.026C76.0243 516.731 76.2658 516.499 76.5731 516.499H82.0609C82.3682 516.499 82.6097 516.731 82.6097 517.026V520.188Z" fill="#3A4DA8"/>
<path d="M85.3537 507.16H76.5622V502.944H81.6C81.9402 502.944 82.1159 502.564 81.8963 502.322L80.3159 500.551C80.1951 500.414 80.1951 500.203 80.3159 500.066L81.8963 498.295C82.1159 498.053 81.9293 497.673 81.6 497.673H74.2244C74.0049 497.673 73.8293 497.842 73.8293 498.053V498.727V507.16H64.5V502.944H69.5378C69.878 502.944 70.0537 502.564 69.8341 502.322L68.2537 500.551C68.1329 500.414 68.1329 500.203 68.2537 500.066L69.8341 498.295C70.0537 498.053 69.8671 497.673 69.5378 497.673H62.1622C61.9427 497.673 61.7671 497.842 61.7671 498.053V498.727V507.16H52.4378V502.944H57.4756C57.8159 502.944 57.9915 502.564 57.772 502.322L56.1915 500.551C56.0707 500.414 56.0707 500.203 56.1915 500.066L57.772 498.295C57.9915 498.053 57.8049 497.673 57.4756 497.673H50.1C49.8805 497.673 49.7049 497.842 49.7049 498.053V498.727V507.16H43.6463C42.7354 507.16 42 507.866 42 508.741C42 509.616 42.7354 510.322 43.6463 510.322H85.3537C86.2646 510.322 87 509.616 87 508.741C87 507.866 86.2646 507.16 85.3537 507.16Z" fill="#4962D8"/>
</g>
<g opacity="0.1" filter="url(#filter9_d_901_80557)">
<path d="M43 397.673H229L229 454.278L201.373 469.673H16.0001L16 412.742L43 397.673Z" fill="#30429B" fill-opacity="0.95"/>
<path d="M228.652 454.073L228.652 398.022H43.0906L16.3483 412.947L16.3484 469.325H201.282L228.652 454.073Z" stroke="#3A4DA8" stroke-width="0.696572"/>
</g>
<g filter="url(#filter10_d_901_80557)">
<path d="M295 469.673H109L109 412.673L136 397.673L322 397.673V454.673L295 469.673Z" fill="#30429B" fill-opacity="0.95"/>
<path d="M109.348 412.878L109.348 469.325H294.91L321.652 454.468V398.022H136.09L109.348 412.878Z" stroke="#3A4DA8" stroke-width="0.696572"/>
</g>
<path d="M163.809 428.673L167.313 422.929L164.097 417.473H166.145L168.785 422.145H170.497V417.473H172.321V422.145H174.017L176.657 417.473H178.721L175.489 422.929L178.993 428.673H176.945L174.001 423.825H172.321V428.673H170.497V423.825H168.801L165.873 428.673H163.809ZM179.2 429.617L184.032 416.529H185.28L180.448 429.617H179.2ZM183.316 431.217V427.009H184.66C185.854 424.833 186.452 421.655 186.452 417.473H193.668V427.009H195.092V431.217H193.428V428.673H184.98V431.217H183.316ZM188.244 419.153C188.02 422.78 187.486 425.399 186.644 427.009H191.844V419.153H188.244ZM199.114 430.737V427.265H200.17C201.013 425.772 201.418 423.681 201.386 420.993H207.386V427.265H208.522V430.737H206.906V428.673H200.73V430.737H199.114ZM202.986 422.401C202.922 424.321 202.581 425.943 201.962 427.265H205.658V422.401H202.986ZM210.343 427.809C209.532 427.095 209.127 426.103 209.127 424.833C209.127 423.564 209.532 422.572 210.343 421.857C211.164 421.143 212.146 420.785 213.287 420.785C214.439 420.785 215.42 421.143 216.231 421.857C217.042 422.572 217.447 423.564 217.447 424.833C217.447 426.103 217.042 427.095 216.231 427.809C215.42 428.524 214.439 428.881 213.287 428.881C212.146 428.881 211.164 428.524 210.343 427.809ZM215.031 426.641C215.479 426.183 215.703 425.58 215.703 424.833C215.703 424.087 215.479 423.489 215.031 423.041C214.583 422.583 214.002 422.353 213.287 422.353C212.562 422.353 211.975 422.583 211.527 423.041C211.079 423.489 210.855 424.087 210.855 424.833C210.855 425.58 211.079 426.183 211.527 426.641C211.975 427.089 212.562 427.313 213.287 427.313C214.002 427.313 214.583 427.089 215.031 426.641ZM218.307 424.897C218.307 423.564 218.728 422.545 219.571 421.841C220.414 421.137 221.406 420.785 222.547 420.785C223.464 420.785 224.254 420.983 224.915 421.377V422.945C224.318 422.519 223.608 422.305 222.787 422.305C222.03 422.305 221.384 422.519 220.851 422.945C220.318 423.361 220.051 423.991 220.051 424.833C220.051 425.655 220.312 426.284 220.835 426.721C221.368 427.148 222.008 427.361 222.755 427.361C223.566 427.361 224.312 427.164 224.995 426.769V428.353C224.259 428.705 223.411 428.881 222.451 428.881C221.331 428.881 220.36 428.54 219.539 427.857C218.718 427.164 218.307 426.177 218.307 424.897ZM228.198 428.673V422.497H225.542V420.993H232.55V422.497H229.91V428.673H228.198ZM240.019 426.897C240.019 427.271 240.206 427.457 240.579 427.457C240.707 427.457 240.878 427.425 241.091 427.361V428.593C240.771 428.721 240.408 428.785 240.003 428.785C239.235 428.785 238.723 428.487 238.467 427.889C237.646 428.551 236.68 428.881 235.571 428.881C234.824 428.881 234.19 428.679 233.667 428.273C233.144 427.857 232.883 427.276 232.883 426.529C232.883 425.633 233.219 424.983 233.891 424.577C234.563 424.161 235.368 423.953 236.307 423.953C236.926 423.953 237.592 424.028 238.307 424.177V423.905C238.307 423.415 238.131 423.02 237.779 422.721C237.427 422.423 236.931 422.273 236.291 422.273C235.342 422.273 234.419 422.471 233.523 422.865V421.297C234.526 420.956 235.507 420.785 236.467 420.785C237.587 420.785 238.456 421.063 239.075 421.617C239.704 422.172 240.019 423.015 240.019 424.145V426.897ZM236.643 425.153C236.078 425.153 235.603 425.255 235.219 425.457C234.835 425.66 234.643 425.98 234.643 426.417C234.643 426.78 234.782 427.063 235.059 427.265C235.336 427.457 235.678 427.553 236.083 427.553C236.958 427.553 237.699 427.249 238.307 426.641V425.345C237.688 425.217 237.134 425.153 236.643 425.153ZM241.952 428.673V420.993H246.336C247.093 420.993 247.685 421.185 248.112 421.569C248.549 421.943 248.768 422.433 248.768 423.041C248.768 423.884 248.405 424.465 247.68 424.785C248.064 424.903 248.379 425.116 248.624 425.425C248.869 425.735 248.992 426.113 248.992 426.561C248.992 427.191 248.779 427.703 248.352 428.097C247.936 428.481 247.307 428.673 246.464 428.673H241.952ZM243.664 424.193H245.952C246.677 424.193 247.04 423.884 247.04 423.265C247.04 422.924 246.933 422.679 246.72 422.529C246.517 422.369 246.261 422.289 245.952 422.289H243.664V424.193ZM243.664 427.377H246.048C246.859 427.377 247.264 427.052 247.264 426.401C247.264 425.74 246.869 425.409 246.08 425.409H243.664V427.377ZM250.398 428.673V420.993H252.11V424.033H253.374L255.582 420.993H257.534L254.75 424.801L257.838 428.673H255.87L253.342 425.489H252.11V428.673H250.398ZM265.106 426.897C265.106 427.271 265.293 427.457 265.666 427.457C265.794 427.457 265.965 427.425 266.178 427.361V428.593C265.858 428.721 265.495 428.785 265.09 428.785C264.322 428.785 263.81 428.487 263.554 427.889C262.733 428.551 261.767 428.881 260.658 428.881C259.911 428.881 259.277 428.679 258.754 428.273C258.231 427.857 257.97 427.276 257.97 426.529C257.97 425.633 258.306 424.983 258.978 424.577C259.65 424.161 260.455 423.953 261.394 423.953C262.013 423.953 262.679 424.028 263.394 424.177V423.905C263.394 423.415 263.218 423.02 262.866 422.721C262.514 422.423 262.018 422.273 261.378 422.273C260.429 422.273 259.506 422.471 258.61 422.865V421.297C259.613 420.956 260.594 420.785 261.554 420.785C262.674 420.785 263.543 421.063 264.162 421.617C264.791 422.172 265.106 423.015 265.106 424.145V426.897ZM261.73 425.153C261.165 425.153 260.69 425.255 260.306 425.457C259.922 425.66 259.73 425.98 259.73 426.417C259.73 426.78 259.869 427.063 260.146 427.265C260.423 427.457 260.765 427.553 261.17 427.553C262.045 427.553 262.786 427.249 263.394 426.641V425.345C262.775 425.217 262.221 425.153 261.73 425.153ZM134.093 446.673V438.993H135.805V444.017L139.917 438.993H141.389V446.673H139.677V441.649L135.565 446.673H134.093ZM143.21 446.673V438.993H144.922V442.081H148.762V438.993H150.474V446.673H148.762V443.585H144.922V446.673H143.21ZM151.816 442.833C151.816 442.172 151.934 441.575 152.168 441.041C152.403 440.497 152.712 440.071 153.096 439.761C153.48 439.441 153.896 439.201 154.344 439.041C154.792 438.871 155.246 438.785 155.704 438.785C156.291 438.785 156.819 438.876 157.288 439.057C157.768 439.239 158.152 439.484 158.44 439.793C158.728 440.103 158.963 440.46 159.144 440.865C159.326 441.271 159.422 441.697 159.432 442.145C159.443 442.583 159.406 443.025 159.32 443.473H153.544C153.63 444.124 153.95 444.615 154.504 444.945C155.059 445.265 155.72 445.425 156.488 445.425C157.363 445.425 158.174 445.244 158.92 444.881V446.353C158.184 446.705 157.267 446.881 156.168 446.881C154.92 446.881 153.88 446.529 153.048 445.825C152.227 445.121 151.816 444.124 151.816 442.833ZM157.784 442.193C157.848 441.756 157.715 441.319 157.384 440.881C157.064 440.433 156.531 440.209 155.784 440.209C155.176 440.209 154.654 440.385 154.216 440.737C153.79 441.089 153.56 441.575 153.528 442.193H157.784ZM162.262 440.193C163.041 439.255 164.027 438.785 165.222 438.785C166.353 438.785 167.27 439.18 167.974 439.969C168.678 440.748 169.03 441.703 169.03 442.833C169.03 443.964 168.678 444.924 167.974 445.713C167.27 446.492 166.353 446.881 165.222 446.881C164.07 446.881 163.147 446.481 162.454 445.681V450.193H160.742V438.993H162.262V440.193ZM166.614 444.673C167.062 444.193 167.286 443.58 167.286 442.833C167.286 442.087 167.062 441.479 166.614 441.009C166.166 440.529 165.595 440.289 164.902 440.289C164.337 440.289 163.835 440.444 163.398 440.753C162.971 441.063 162.657 441.441 162.454 441.889V443.761C162.657 444.22 162.971 444.604 163.398 444.913C163.835 445.223 164.337 445.377 164.902 445.377C165.595 445.377 166.166 445.143 166.614 444.673ZM172.044 446.673V440.497H169.388V438.993H176.396V440.497H173.756V446.673H172.044ZM177.414 446.673V438.993H179.126V442.081H182.966V438.993H184.678V446.673H182.966V443.585H179.126V446.673H177.414ZM186.501 446.673V438.993H188.213V441.553H190.309C191.247 441.553 191.989 441.793 192.533 442.273C193.077 442.753 193.349 443.367 193.349 444.113C193.349 444.86 193.077 445.473 192.533 445.953C191.989 446.433 191.247 446.673 190.309 446.673H186.501ZM194.725 446.673V438.993H196.437V446.673H194.725ZM188.213 445.313H189.973C190.485 445.313 190.885 445.212 191.173 445.009C191.461 444.796 191.605 444.497 191.605 444.113C191.605 443.719 191.461 443.42 191.173 443.217C190.885 443.004 190.485 442.897 189.973 442.897H188.213V445.313ZM205.059 438.993L202.259 442.753L205.219 446.673H203.267L201.267 443.953L199.267 446.673H197.315L200.275 442.753L197.475 438.993H199.427L201.267 441.585L203.107 438.993H205.059ZM209.556 446.673V438.993H211.284L213.892 443.041L216.516 438.993H218.244V446.673H216.596V441.473L214.404 444.833H213.38L211.204 441.473V446.673H209.556ZM226.608 444.897C226.608 445.271 226.795 445.457 227.168 445.457C227.296 445.457 227.467 445.425 227.68 445.361V446.593C227.36 446.721 226.998 446.785 226.592 446.785C225.824 446.785 225.312 446.487 225.056 445.889C224.235 446.551 223.27 446.881 222.16 446.881C221.414 446.881 220.779 446.679 220.256 446.273C219.734 445.857 219.472 445.276 219.472 444.529C219.472 443.633 219.808 442.983 220.48 442.577C221.152 442.161 221.958 441.953 222.896 441.953C223.515 441.953 224.182 442.028 224.896 442.177V441.905C224.896 441.415 224.72 441.02 224.368 440.721C224.016 440.423 223.52 440.273 222.88 440.273C221.931 440.273 221.008 440.471 220.112 440.865V439.297C221.115 438.956 222.096 438.785 223.056 438.785C224.176 438.785 225.046 439.063 225.664 439.617C226.294 440.172 226.608 441.015 226.608 442.145V444.897ZM223.232 443.153C222.667 443.153 222.192 443.255 221.808 443.457C221.424 443.66 221.232 443.98 221.232 444.417C221.232 444.78 221.371 445.063 221.648 445.265C221.926 445.457 222.267 445.553 222.672 445.553C223.547 445.553 224.288 445.249 224.896 444.641V443.345C224.278 443.217 223.723 443.153 223.232 443.153ZM230.085 446.673V440.497H227.429V438.993H234.437V440.497H231.797V446.673H230.085ZM234.773 442.833C234.773 442.172 234.89 441.575 235.125 441.041C235.359 440.497 235.669 440.071 236.053 439.761C236.437 439.441 236.853 439.201 237.301 439.041C237.749 438.871 238.202 438.785 238.661 438.785C239.247 438.785 239.775 438.876 240.245 439.057C240.725 439.239 241.109 439.484 241.397 439.793C241.685 440.103 241.919 440.46 242.101 440.865C242.282 441.271 242.378 441.697 242.389 442.145C242.399 442.583 242.362 443.025 242.277 443.473H236.501C236.586 444.124 236.906 444.615 237.461 444.945C238.015 445.265 238.677 445.425 239.445 445.425C240.319 445.425 241.13 445.244 241.877 444.881V446.353C241.141 446.705 240.223 446.881 239.125 446.881C237.877 446.881 236.837 446.529 236.005 445.825C235.183 445.121 234.773 444.124 234.773 442.833ZM240.741 442.193C240.805 441.756 240.671 441.319 240.341 440.881C240.021 440.433 239.487 440.209 238.741 440.209C238.133 440.209 237.61 440.385 237.173 440.737C236.746 441.089 236.517 441.575 236.485 442.193H240.741ZM245.218 440.193C245.997 439.255 246.983 438.785 248.178 438.785C249.309 438.785 250.226 439.18 250.93 439.969C251.634 440.748 251.986 441.703 251.986 442.833C251.986 443.964 251.634 444.924 250.93 445.713C250.226 446.492 249.309 446.881 248.178 446.881C247.026 446.881 246.103 446.481 245.41 445.681V450.193H243.698V438.993H245.218V440.193ZM249.57 444.673C250.018 444.193 250.242 443.58 250.242 442.833C250.242 442.087 250.018 441.479 249.57 441.009C249.122 440.529 248.551 440.289 247.858 440.289C247.293 440.289 246.791 440.444 246.354 440.753C245.927 441.063 245.613 441.441 245.41 441.889V443.761C245.613 444.22 245.927 444.604 246.354 444.913C246.791 445.223 247.293 445.377 247.858 445.377C248.551 445.377 249.122 445.143 249.57 444.673ZM253.331 446.673V438.993H255.043V444.017L259.155 438.993H260.627V446.673H258.915V441.649L254.803 446.673H253.331ZM268.993 444.897C268.993 445.271 269.179 445.457 269.553 445.457C269.681 445.457 269.851 445.425 270.065 445.361V446.593C269.745 446.721 269.382 446.785 268.977 446.785C268.209 446.785 267.697 446.487 267.441 445.889C266.619 446.551 265.654 446.881 264.545 446.881C263.798 446.881 263.163 446.679 262.641 446.273C262.118 445.857 261.857 445.276 261.857 444.529C261.857 443.633 262.193 442.983 262.865 442.577C263.537 442.161 264.342 441.953 265.281 441.953C265.899 441.953 266.566 442.028 267.281 442.177V441.905C267.281 441.415 267.105 441.02 266.753 440.721C266.401 440.423 265.905 440.273 265.265 440.273C264.315 440.273 263.393 440.471 262.497 440.865V439.297C263.499 438.956 264.481 438.785 265.441 438.785C266.561 438.785 267.43 439.063 268.049 439.617C268.678 440.172 268.993 441.015 268.993 442.145V444.897ZM265.617 443.153C265.051 443.153 264.577 443.255 264.193 443.457C263.809 443.66 263.617 443.98 263.617 444.417C263.617 444.78 263.755 445.063 264.033 445.265C264.31 445.457 264.651 445.553 265.057 445.553C265.931 445.553 266.673 445.249 267.281 444.641V443.345C266.662 443.217 266.107 443.153 265.617 443.153ZM273.982 440.449C273.918 441.452 273.832 442.311 273.726 443.025C273.619 443.74 273.459 444.401 273.246 445.009C273.032 445.607 272.75 446.06 272.398 446.369C272.056 446.668 271.635 446.817 271.134 446.817C270.803 446.817 270.451 446.748 270.078 446.609V445.265C270.259 445.329 270.424 445.361 270.574 445.361C271.182 445.361 271.608 444.833 271.854 443.777C272.11 442.711 272.28 441.116 272.366 438.993H278.286V446.673H276.574V440.449H273.982ZM280.842 445.809C280.031 445.095 279.626 444.103 279.626 442.833C279.626 441.564 280.031 440.572 280.842 439.857C281.663 439.143 282.644 438.785 283.786 438.785C284.938 438.785 285.919 439.143 286.73 439.857C287.54 440.572 287.946 441.564 287.946 442.833C287.946 444.103 287.54 445.095 286.73 445.809C285.919 446.524 284.938 446.881 283.786 446.881C282.644 446.881 281.663 446.524 280.842 445.809ZM285.53 444.641C285.978 444.183 286.202 443.58 286.202 442.833C286.202 442.087 285.978 441.489 285.53 441.041C285.082 440.583 284.5 440.353 283.786 440.353C283.06 440.353 282.474 440.583 282.026 441.041C281.578 441.489 281.354 442.087 281.354 442.833C281.354 443.58 281.578 444.183 282.026 444.641C282.474 445.089 283.06 445.313 283.786 445.313C284.5 445.313 285.082 445.089 285.53 444.641ZM289.286 446.673V438.993H293.67C294.427 438.993 295.019 439.185 295.446 439.569C295.883 439.943 296.102 440.433 296.102 441.041C296.102 441.884 295.739 442.465 295.014 442.785C295.398 442.903 295.712 443.116 295.958 443.425C296.203 443.735 296.326 444.113 296.326 444.561C296.326 445.191 296.112 445.703 295.686 446.097C295.27 446.481 294.64 446.673 293.798 446.673H289.286ZM290.998 442.193H293.286C294.011 442.193 294.374 441.884 294.374 441.265C294.374 440.924 294.267 440.679 294.054 440.529C293.851 440.369 293.595 440.289 293.286 440.289H290.998V442.193ZM290.998 445.377H293.382C294.192 445.377 294.598 445.052 294.598 444.401C294.598 443.74 294.203 443.409 293.414 443.409H290.998V445.377Z" fill="white"/>
<g clip-path="url(#clip4_901_80557)">
<path d="M74.7333 411.673H51.2667C48.9093 411.673 47 413.618 47 416.019V445.352C47 447.753 48.9093 449.698 51.2667 449.698H74.7333C77.0907 449.698 79 447.753 79 445.352V416.019C79 413.618 77.0907 411.673 74.7333 411.673ZM60.3333 415.204H65.6667C66.552 415.204 67.2667 415.932 67.2667 416.834C67.2667 417.736 66.552 418.463 65.6667 418.463H60.3333C59.448 418.463 58.7333 417.736 58.7333 416.834C58.7333 415.932 59.448 415.204 60.3333 415.204ZM53.9333 443.451C52.4613 443.451 51.2667 442.234 51.2667 440.735C51.2667 439.236 52.4613 438.019 53.9333 438.019C55.4053 438.019 56.6 439.236 56.6 440.735C56.6 442.234 55.4053 443.451 53.9333 443.451ZM60.8667 431.501C60.8667 431.805 60.632 432.044 60.3333 432.044H52.3333V423.287C52.3333 422.722 52.7813 422.266 53.336 422.266H60.3333C60.632 422.266 60.8667 422.505 60.8667 422.809V431.501ZM65.1333 431.501V422.809C65.1333 422.505 65.368 422.266 65.6667 422.266H72.664C73.2187 422.266 73.6667 422.722 73.6667 423.287V432.044H65.6667C65.368 432.044 65.1333 431.805 65.1333 431.501ZM72.0667 443.451C70.5947 443.451 69.4 442.234 69.4 440.735C69.4 439.236 70.5947 438.019 72.0667 438.019C73.5387 438.019 74.7333 439.236 74.7333 440.735C74.7333 442.234 73.5387 443.451 72.0667 443.451Z" fill="#3A4DA8"/>
<path d="M74.168 452.414H51.768C50.8826 452.414 50.168 453.142 50.168 454.044C50.168 454.945 50.8826 455.673 51.768 455.673H74.168C75.0533 455.673 75.768 454.945 75.768 454.044C75.768 453.142 75.0533 452.414 74.168 452.414Z" fill="#4962D8"/>
</g>
<g opacity="0.1" filter="url(#filter11_d_901_80557)">
<path d="M297 168.673H111L111 112.069L138.627 96.6733H324L324 153.604L297 168.673Z" fill="#30429B" fill-opacity="0.95"/>
<path d="M111.348 112.274L111.348 168.325H296.909L323.652 153.4L323.652 97.0216H138.718L111.348 112.274Z" stroke="#3A4DA8" stroke-width="0.696572"/>
</g>
<g filter="url(#filter12_d_901_80557)">
<path d="M202 168.673H16L16 111.673L43 96.6733L229 96.6733V153.673L202 168.673Z" fill="#30429B" fill-opacity="0.95"/>
<path d="M16.3482 111.878L16.3483 168.325H201.91L228.652 153.468V97.0216H43.0902L16.3482 111.878Z" stroke="#3A4DA8" stroke-width="0.696572"/>
</g>
<path d="M65.0549 136.673L69.7909 125.473H71.7909L76.5109 136.673H74.5909L73.5989 134.257H67.9829L66.9909 136.673H65.0549ZM68.6069 132.657H72.9589L70.9909 127.873C70.9056 127.639 70.8363 127.431 70.7829 127.249C70.7296 127.431 70.6603 127.639 70.5749 127.873L68.6069 132.657ZM77.3516 136.673V128.993H81.7356C82.4929 128.993 83.0849 129.185 83.5116 129.569C83.9489 129.943 84.1676 130.433 84.1676 131.041C84.1676 131.884 83.8049 132.465 83.0796 132.785C83.4636 132.903 83.7782 133.116 84.0236 133.425C84.2689 133.735 84.3916 134.113 84.3916 134.561C84.3916 135.191 84.1782 135.703 83.7516 136.097C83.3356 136.481 82.7062 136.673 81.8636 136.673H77.3516ZM79.0636 132.193H81.3516C82.0769 132.193 82.4396 131.884 82.4396 131.265C82.4396 130.924 82.3329 130.679 82.1196 130.529C81.9169 130.369 81.6609 130.289 81.3516 130.289H79.0636V132.193ZM79.0636 135.377H81.4476C82.2582 135.377 82.6636 135.052 82.6636 134.401C82.6636 133.74 82.2689 133.409 81.4796 133.409H79.0636V135.377ZM87.5438 136.673V130.497H84.8878V128.993H91.8958V130.497H89.2558V136.673H87.5438ZM93.4476 135.809C92.6369 135.095 92.2316 134.103 92.2316 132.833C92.2316 131.564 92.6369 130.572 93.4476 129.857C94.2689 129.143 95.2502 128.785 96.3916 128.785C97.5436 128.785 98.5249 129.143 99.3356 129.857C100.146 130.572 100.552 131.564 100.552 132.833C100.552 134.103 100.146 135.095 99.3356 135.809C98.5249 136.524 97.5436 136.881 96.3916 136.881C95.2502 136.881 94.2689 136.524 93.4476 135.809ZM98.1356 134.641C98.5836 134.183 98.8076 133.58 98.8076 132.833C98.8076 132.087 98.5836 131.489 98.1356 131.041C97.6876 130.583 97.1062 130.353 96.3916 130.353C95.6662 130.353 95.0796 130.583 94.6316 131.041C94.1836 131.489 93.9596 132.087 93.9596 132.833C93.9596 133.58 94.1836 134.183 94.6316 134.641C95.0796 135.089 95.6662 135.313 96.3916 135.313C97.1062 135.313 97.6876 135.089 98.1356 134.641ZM101.892 136.673V128.993H109.156V136.673H107.444V130.497H103.604V136.673H101.892ZM110.498 132.833C110.498 132.172 110.615 131.575 110.85 131.041C111.084 130.497 111.394 130.071 111.778 129.761C112.162 129.441 112.578 129.201 113.026 129.041C113.474 128.871 113.927 128.785 114.386 128.785C114.972 128.785 115.5 128.876 115.97 129.057C116.45 129.239 116.834 129.484 117.122 129.793C117.41 130.103 117.644 130.46 117.826 130.865C118.007 131.271 118.103 131.697 118.114 132.145C118.124 132.583 118.087 133.025 118.002 133.473H112.226C112.311 134.124 112.631 134.615 113.186 134.945C113.74 135.265 114.402 135.425 115.17 135.425C116.044 135.425 116.855 135.244 117.602 134.881V136.353C116.866 136.705 115.948 136.881 114.85 136.881C113.602 136.881 112.562 136.529 111.73 135.825C110.908 135.121 110.498 134.124 110.498 132.833ZM116.466 132.193C116.53 131.756 116.396 131.319 116.066 130.881C115.746 130.433 115.212 130.209 114.466 130.209C113.858 130.209 113.335 130.385 112.898 130.737C112.471 131.089 112.242 131.575 112.21 132.193H116.466ZM120.943 130.193C121.722 129.255 122.709 128.785 123.903 128.785C125.034 128.785 125.951 129.18 126.655 129.969C127.359 130.748 127.711 131.703 127.711 132.833C127.711 133.964 127.359 134.924 126.655 135.713C125.951 136.492 125.034 136.881 123.903 136.881C122.751 136.881 121.829 136.481 121.135 135.681V140.193H119.423V128.993H120.943V130.193ZM125.295 134.673C125.743 134.193 125.967 133.58 125.967 132.833C125.967 132.087 125.743 131.479 125.295 131.009C124.847 130.529 124.277 130.289 123.583 130.289C123.018 130.289 122.517 130.444 122.079 130.753C121.653 131.063 121.338 131.441 121.135 131.889V133.761C121.338 134.22 121.653 134.604 122.079 134.913C122.517 135.223 123.018 135.377 123.583 135.377C124.277 135.377 124.847 135.143 125.295 134.673ZM128.577 132.833C128.577 132.172 128.694 131.575 128.929 131.041C129.163 130.497 129.473 130.071 129.857 129.761C130.241 129.441 130.657 129.201 131.105 129.041C131.553 128.871 132.006 128.785 132.465 128.785C133.051 128.785 133.579 128.876 134.049 129.057C134.529 129.239 134.913 129.484 135.201 129.793C135.489 130.103 135.723 130.46 135.905 130.865C136.086 131.271 136.182 131.697 136.193 132.145C136.203 132.583 136.166 133.025 136.081 133.473H130.305C130.39 134.124 130.71 134.615 131.265 134.945C131.819 135.265 132.481 135.425 133.249 135.425C134.123 135.425 134.934 135.244 135.681 134.881V136.353C134.945 136.705 134.027 136.881 132.929 136.881C131.681 136.881 130.641 136.529 129.809 135.825C128.987 135.121 128.577 134.124 128.577 132.833ZM134.545 132.193C134.609 131.756 134.475 131.319 134.145 130.881C133.825 130.433 133.291 130.209 132.545 130.209C131.937 130.209 131.414 130.385 130.977 130.737C130.55 131.089 130.321 131.575 130.289 132.193H134.545ZM137.502 136.673V128.993H141.886C142.644 128.993 143.236 129.185 143.662 129.569C144.1 129.943 144.318 130.433 144.318 131.041C144.318 131.884 143.956 132.465 143.23 132.785C143.614 132.903 143.929 133.116 144.174 133.425C144.42 133.735 144.542 134.113 144.542 134.561C144.542 135.191 144.329 135.703 143.902 136.097C143.486 136.481 142.857 136.673 142.014 136.673H137.502ZM139.214 132.193H141.502C142.228 132.193 142.59 131.884 142.59 131.265C142.59 130.924 142.484 130.679 142.27 130.529C142.068 130.369 141.812 130.289 141.502 130.289H139.214V132.193ZM139.214 135.377H141.598C142.409 135.377 142.814 135.052 142.814 134.401C142.814 133.74 142.42 133.409 141.63 133.409H139.214V135.377ZM146.684 135.809C145.873 135.095 145.468 134.103 145.468 132.833C145.468 131.564 145.873 130.572 146.684 129.857C147.505 129.143 148.486 128.785 149.628 128.785C150.78 128.785 151.761 129.143 152.572 129.857C153.382 130.572 153.788 131.564 153.788 132.833C153.788 134.103 153.382 135.095 152.572 135.809C151.761 136.524 150.78 136.881 149.628 136.881C148.486 136.881 147.505 136.524 146.684 135.809ZM151.372 134.641C151.82 134.183 152.044 133.58 152.044 132.833C152.044 132.087 151.82 131.489 151.372 131.041C150.924 130.583 150.342 130.353 149.628 130.353C148.902 130.353 148.316 130.583 147.868 131.041C147.42 131.489 147.196 132.087 147.196 132.833C147.196 133.58 147.42 134.183 147.868 134.641C148.316 135.089 148.902 135.313 149.628 135.313C150.342 135.313 150.924 135.089 151.372 134.641ZM161.034 134.577C161.034 135.271 160.72 135.831 160.09 136.257C159.472 136.673 158.586 136.881 157.434 136.881C156.314 136.881 155.354 136.673 154.554 136.257V134.785C155.312 135.212 156.197 135.425 157.21 135.425C158.608 135.425 159.306 135.073 159.306 134.369C159.306 133.74 158.773 133.425 157.706 133.425H156.138V132.113H157.706C158.666 132.113 159.146 131.825 159.146 131.249C159.146 130.919 158.981 130.668 158.65 130.497C158.32 130.316 157.872 130.225 157.306 130.225C156.346 130.225 155.477 130.433 154.698 130.849V129.377C155.541 128.972 156.48 128.769 157.514 128.769C158.634 128.769 159.472 128.977 160.026 129.393C160.592 129.809 160.874 130.353 160.874 131.025C160.874 131.463 160.752 131.831 160.506 132.129C160.261 132.428 159.93 132.631 159.514 132.737C159.973 132.865 160.341 133.089 160.618 133.409C160.896 133.719 161.034 134.108 161.034 134.577ZM162.433 136.673V128.993H164.145V132.033H165.409L167.617 128.993H169.569L166.785 132.801L169.873 136.673H167.905L165.377 133.489H164.145V136.673H162.433ZM170.675 136.673V128.993H172.387V134.017L176.499 128.993H177.971V136.673H176.259V131.649L172.147 136.673H170.675Z" fill="white"/>
<g clip-path="url(#clip5_901_80557)">
<path d="M278.117 116.959H273.882C272.717 116.959 271.765 117.902 271.765 119.054C271.765 120.207 272.717 121.15 273.882 121.15H278.117C279.282 121.15 280.235 120.207 280.235 119.054C280.235 117.902 279.282 116.959 278.117 116.959Z" fill="#4962D8"/>
<path d="M293.979 129.3L292.306 114.403C292.062 112.276 290.252 110.673 288.092 110.673H263.908C261.748 110.673 259.938 112.276 259.694 114.403L258.021 129.3C258.021 129.457 258 129.604 258 129.761V152.578C258 153.73 258.953 154.673 260.118 154.673H262.235C263.4 154.673 264.353 153.73 264.353 152.578V148.911C264.353 148.618 264.586 148.388 264.882 148.388H287.118C287.414 148.388 287.647 148.618 287.647 148.911V152.578C287.647 153.73 288.6 154.673 289.765 154.673H291.882C293.047 154.673 294 153.73 294 152.578V129.761C294 129.604 293.979 129.457 293.979 129.3ZM264.215 116.823C264.289 115.723 265.21 114.864 266.333 114.864H285.667C286.779 114.864 287.7 115.723 287.785 116.823L288.61 128.975C288.632 129.279 288.388 129.53 288.081 129.53H263.919C263.612 129.53 263.368 129.279 263.389 128.975L264.215 116.823ZM267.529 141.054C267.529 141.63 267.053 142.102 266.47 142.102H263.294C262.712 142.102 262.235 141.63 262.235 141.054V137.911C262.235 137.335 262.712 136.864 263.294 136.864H266.47C267.053 136.864 267.529 137.335 267.529 137.911V141.054ZM279.176 141.054H272.823C271.945 141.054 271.235 140.352 271.235 139.483C271.235 138.613 271.945 137.911 272.823 137.911H279.176C280.055 137.911 280.765 138.613 280.765 139.483C280.765 140.352 280.055 141.054 279.176 141.054ZM290.823 141.054C290.823 141.63 290.347 142.102 289.765 142.102H285.529C284.947 142.102 284.47 141.63 284.47 141.054V137.911C284.47 137.335 284.947 136.864 285.529 136.864H289.765C290.347 136.864 290.823 137.335 290.823 137.911V141.054Z" fill="#3A4DA8"/>
</g>
<defs>
<filter id="filter0_d_901_80557" x="95.2321" y="3.91342" width="244.536" height="103.536" filterUnits="userSpaceOnUse" color-interpolation-filters="sRGB">
<feFlood flood-opacity="0" result="BackgroundImageFix"/>
<feColorMatrix in="SourceAlpha" type="matrix" values="0 0 0 0 0 0 0 0 0 0 0 0 0 0 0 0 0 0 127 0" result="hardAlpha"/>
<feOffset dy="7.00794"/>
<feGaussianBlur stdDeviation="7.88393"/>
<feColorMatrix type="matrix" values="0 0 0 0 0.0941176 0 0 0 0 0.152941 0 0 0 0 0.294118 0 0 0 0.24 0"/>
<feBlend mode="multiply" in2="BackgroundImageFix" result="effect1_dropShadow_901_80557"/>
<feBlend mode="normal" in="SourceGraphic" in2="effect1_dropShadow_901_80557" result="shape"/>
</filter>
<filter id="filter1_d_901_80557" x="0.232141" y="3.91342" width="244.536" height="103.536" filterUnits="userSpaceOnUse" color-interpolation-filters="sRGB">
<feFlood flood-opacity="0" result="BackgroundImageFix"/>
<feColorMatrix in="SourceAlpha" type="matrix" values="0 0 0 0 0 0 0 0 0 0 0 0 0 0 0 0 0 0 127 0" result="hardAlpha"/>
<feOffset dy="7.00794"/>
<feGaussianBlur stdDeviation="7.88393"/>
<feColorMatrix type="matrix" values="0 0 0 0 0.0941176 0 0 0 0 0.152941 0 0 0 0 0.294118 0 0 0 0.24 0"/>
<feBlend mode="multiply" in2="BackgroundImageFix" result="effect1_dropShadow_901_80557"/>
<feBlend mode="normal" in="SourceGraphic" in2="effect1_dropShadow_901_80557" result="shape"/>
</filter>
<filter id="filter2_d_901_80557" x="95.2321" y="171.913" width="244.536" height="103.536" filterUnits="userSpaceOnUse" color-interpolation-filters="sRGB">
<feFlood flood-opacity="0" result="BackgroundImageFix"/>
<feColorMatrix in="SourceAlpha" type="matrix" values="0 0 0 0 0 0 0 0 0 0 0 0 0 0 0 0 0 0 127 0" result="hardAlpha"/>
<feOffset dy="7.00794"/>
<feGaussianBlur stdDeviation="7.88393"/>
<feColorMatrix type="matrix" values="0 0 0 0 0.0941176 0 0 0 0 0.152941 0 0 0 0 0.294118 0 0 0 0.24 0"/>
<feBlend mode="multiply" in2="BackgroundImageFix" result="effect1_dropShadow_901_80557"/>
<feBlend mode="normal" in="SourceGraphic" in2="effect1_dropShadow_901_80557" result="shape"/>
</filter>
<filter id="filter3_d_901_80557" x="0.232141" y="171.913" width="244.536" height="103.536" filterUnits="userSpaceOnUse" color-interpolation-filters="sRGB">
<feFlood flood-opacity="0" result="BackgroundImageFix"/>
<feColorMatrix in="SourceAlpha" type="matrix" values="0 0 0 0 0 0 0 0 0 0 0 0 0 0 0 0 0 0 127 0" result="hardAlpha"/>
<feOffset dy="7.00794"/>
<feGaussianBlur stdDeviation="7.88393"/>
<feColorMatrix type="matrix" values="0 0 0 0 0.0941176 0 0 0 0 0.152941 0 0 0 0 0.294118 0 0 0 0.24 0"/>
<feBlend mode="multiply" in2="BackgroundImageFix" result="effect1_dropShadow_901_80557"/>
<feBlend mode="normal" in="SourceGraphic" in2="effect1_dropShadow_901_80557" result="shape"/>
</filter>
<filter id="filter4_dd_901_80557" x="87.373" y="250.889" width="161.404" height="173.569" filterUnits="userSpaceOnUse" color-interpolation-filters="sRGB">
<feFlood flood-opacity="0" result="BackgroundImageFix"/>
<feColorMatrix in="SourceAlpha" type="matrix" values="0 0 0 0 0 0 0 0 0 0 0 0 0 0 0 0 0 0 127 0" result="hardAlpha"/>
<feMorphology radius="4.42945" operator="erode" in="SourceAlpha" result="effect1_dropShadow_901_80557"/>
<feOffset dy="13.2883"/>
<feGaussianBlur stdDeviation="23.2546"/>
<feColorMatrix type="matrix" values="0 0 0 0 0.0941176 0 0 0 0 0.152941 0 0 0 0 0.294118 0 0 0 0.12 0"/>
<feBlend mode="multiply" in2="BackgroundImageFix" result="effect1_dropShadow_901_80557"/>
<feColorMatrix in="SourceAlpha" type="matrix" values="0 0 0 0 0 0 0 0 0 0 0 0 0 0 0 0 0 0 127 0" result="hardAlpha"/>
<feMorphology radius="6.64417" operator="erode" in="SourceAlpha" result="effect2_dropShadow_901_80557"/>
<feOffset dy="8.85889"/>
<feGaussianBlur stdDeviation="9.96626"/>
<feColorMatrix type="matrix" values="0 0 0 0 0.0941176 0 0 0 0 0.152941 0 0 0 0 0.294118 0 0 0 0.12 0"/>
<feBlend mode="multiply" in2="effect1_dropShadow_901_80557" result="effect2_dropShadow_901_80557"/>
<feBlend mode="normal" in="SourceGraphic" in2="effect2_dropShadow_901_80557" result="shape"/>
</filter>
<filter id="filter5_d_901_80557" x="0.232141" y="556.913" width="244.536" height="103.536" filterUnits="userSpaceOnUse" color-interpolation-filters="sRGB">
<feFlood flood-opacity="0" result="BackgroundImageFix"/>
<feColorMatrix in="SourceAlpha" type="matrix" values="0 0 0 0 0 0 0 0 0 0 0 0 0 0 0 0 0 0 127 0" result="hardAlpha"/>
<feOffset dy="7.00794"/>
<feGaussianBlur stdDeviation="7.88393"/>
<feColorMatrix type="matrix" values="0 0 0 0 0.0941176 0 0 0 0 0.152941 0 0 0 0 0.294118 0 0 0 0.24 0"/>
<feBlend mode="multiply" in2="BackgroundImageFix" result="effect1_dropShadow_901_80557"/>
<feBlend mode="normal" in="SourceGraphic" in2="effect1_dropShadow_901_80557" result="shape"/>
</filter>
<filter id="filter6_d_901_80557" x="93.2321" y="556.913" width="244.536" height="103.536" filterUnits="userSpaceOnUse" color-interpolation-filters="sRGB">
<feFlood flood-opacity="0" result="BackgroundImageFix"/>
<feColorMatrix in="SourceAlpha" type="matrix" values="0 0 0 0 0 0 0 0 0 0 0 0 0 0 0 0 0 0 127 0" result="hardAlpha"/>
<feOffset dy="7.00794"/>
<feGaussianBlur stdDeviation="7.88393"/>
<feColorMatrix type="matrix" values="0 0 0 0 0.0941176 0 0 0 0 0.152941 0 0 0 0 0.294118 0 0 0 0.24 0"/>
<feBlend mode="multiply" in2="BackgroundImageFix" result="effect1_dropShadow_901_80557"/>
<feBlend mode="normal" in="SourceGraphic" in2="effect1_dropShadow_901_80557" result="shape"/>
</filter>
<filter id="filter7_d_901_80557" x="0.232141" y="472.913" width="244.536" height="103.536" filterUnits="userSpaceOnUse" color-interpolation-filters="sRGB">
<feFlood flood-opacity="0" result="BackgroundImageFix"/>
<feColorMatrix in="SourceAlpha" type="matrix" values="0 0 0 0 0 0 0 0 0 0 0 0 0 0 0 0 0 0 127 0" result="hardAlpha"/>
<feOffset dy="7.00794"/>
<feGaussianBlur stdDeviation="7.88393"/>
<feColorMatrix type="matrix" values="0 0 0 0 0.0941176 0 0 0 0 0.152941 0 0 0 0 0.294118 0 0 0 0.24 0"/>
<feBlend mode="multiply" in2="BackgroundImageFix" result="effect1_dropShadow_901_80557"/>
<feBlend mode="normal" in="SourceGraphic" in2="effect1_dropShadow_901_80557" result="shape"/>
</filter>
<filter id="filter8_d_901_80557" x="93.2321" y="472.913" width="244.536" height="103.536" filterUnits="userSpaceOnUse" color-interpolation-filters="sRGB">
<feFlood flood-opacity="0" result="BackgroundImageFix"/>
<feColorMatrix in="SourceAlpha" type="matrix" values="0 0 0 0 0 0 0 0 0 0 0 0 0 0 0 0 0 0 127 0" result="hardAlpha"/>
<feOffset dy="7.00794"/>
<feGaussianBlur stdDeviation="7.88393"/>
<feColorMatrix type="matrix" values="0 0 0 0 0.0941176 0 0 0 0 0.152941 0 0 0 0 0.294118 0 0 0 0.24 0"/>
<feBlend mode="multiply" in2="BackgroundImageFix" result="effect1_dropShadow_901_80557"/>
<feBlend mode="normal" in="SourceGraphic" in2="effect1_dropShadow_901_80557" result="shape"/>
</filter>
<filter id="filter9_d_901_80557" x="0.232141" y="388.913" width="244.536" height="103.536" filterUnits="userSpaceOnUse" color-interpolation-filters="sRGB">
<feFlood flood-opacity="0" result="BackgroundImageFix"/>
<feColorMatrix in="SourceAlpha" type="matrix" values="0 0 0 0 0 0 0 0 0 0 0 0 0 0 0 0 0 0 127 0" result="hardAlpha"/>
<feOffset dy="7.00794"/>
<feGaussianBlur stdDeviation="7.88393"/>
<feColorMatrix type="matrix" values="0 0 0 0 0.0941176 0 0 0 0 0.152941 0 0 0 0 0.294118 0 0 0 0.24 0"/>
<feBlend mode="multiply" in2="BackgroundImageFix" result="effect1_dropShadow_901_80557"/>
<feBlend mode="normal" in="SourceGraphic" in2="effect1_dropShadow_901_80557" result="shape"/>
</filter>
<filter id="filter10_d_901_80557" x="93.2321" y="388.913" width="244.536" height="103.536" filterUnits="userSpaceOnUse" color-interpolation-filters="sRGB">
<feFlood flood-opacity="0" result="BackgroundImageFix"/>
<feColorMatrix in="SourceAlpha" type="matrix" values="0 0 0 0 0 0 0 0 0 0 0 0 0 0 0 0 0 0 127 0" result="hardAlpha"/>
<feOffset dy="7.00794"/>
<feGaussianBlur stdDeviation="7.88393"/>
<feColorMatrix type="matrix" values="0 0 0 0 0.0941176 0 0 0 0 0.152941 0 0 0 0 0.294118 0 0 0 0.24 0"/>
<feBlend mode="multiply" in2="BackgroundImageFix" result="effect1_dropShadow_901_80557"/>
<feBlend mode="normal" in="SourceGraphic" in2="effect1_dropShadow_901_80557" result="shape"/>
</filter>
<filter id="filter11_d_901_80557" x="95.2321" y="87.9134" width="244.536" height="103.536" filterUnits="userSpaceOnUse" color-interpolation-filters="sRGB">
<feFlood flood-opacity="0" result="BackgroundImageFix"/>
<feColorMatrix in="SourceAlpha" type="matrix" values="0 0 0 0 0 0 0 0 0 0 0 0 0 0 0 0 0 0 127 0" result="hardAlpha"/>
<feOffset dy="7.00794"/>
<feGaussianBlur stdDeviation="7.88393"/>
<feColorMatrix type="matrix" values="0 0 0 0 0.0941176 0 0 0 0 0.152941 0 0 0 0 0.294118 0 0 0 0.24 0"/>
<feBlend mode="multiply" in2="BackgroundImageFix" result="effect1_dropShadow_901_80557"/>
<feBlend mode="normal" in="SourceGraphic" in2="effect1_dropShadow_901_80557" result="shape"/>
</filter>
<filter id="filter12_d_901_80557" x="0.232141" y="87.9134" width="244.536" height="103.536" filterUnits="userSpaceOnUse" color-interpolation-filters="sRGB">
<feFlood flood-opacity="0" result="BackgroundImageFix"/>
<feColorMatrix in="SourceAlpha" type="matrix" values="0 0 0 0 0 0 0 0 0 0 0 0 0 0 0 0 0 0 127 0" result="hardAlpha"/>
<feOffset dy="7.00794"/>
<feGaussianBlur stdDeviation="7.88393"/>
<feColorMatrix type="matrix" values="0 0 0 0 0.0941176 0 0 0 0 0.152941 0 0 0 0 0.294118 0 0 0 0.24 0"/>
<feBlend mode="multiply" in2="BackgroundImageFix" result="effect1_dropShadow_901_80557"/>
<feBlend mode="normal" in="SourceGraphic" in2="effect1_dropShadow_901_80557" result="shape"/>
</filter>
<linearGradient id="paint0_linear_901_80557" x1="168.075" y1="279.681" x2="168.075" y2="369.09" gradientUnits="userSpaceOnUse">
<stop stop-color="white"/>
<stop offset="1" stop-color="white" stop-opacity="0"/>
</linearGradient>
<clipPath id="clip0_901_80557">
<rect width="48" height="46" fill="white" transform="translate(252 25.6733)"/>
</clipPath>
<clipPath id="clip1_901_80557">
<rect width="48" height="36" fill="white" transform="translate(253 198.673)"/>
</clipPath>
<clipPath id="clip2_901_80557">
<rect width="47" height="40" fill="white" transform="translate(40 581.673)"/>
</clipPath>
<clipPath id="clip3_901_80557">
<rect width="45" height="39" fill="white" transform="translate(42 497.673)"/>
</clipPath>
<clipPath id="clip4_901_80557">
<rect width="32" height="44" fill="white" transform="translate(47 411.673)"/>
</clipPath>
<clipPath id="clip5_901_80557">
<rect width="36" height="44" fill="white" transform="translate(258 110.673)"/>
</clipPath>
</defs>
</svg>
