<svg width="1320" height="458" viewBox="0 0 1320 458" fill="none" xmlns="http://www.w3.org/2000/svg">
<g opacity="0.2" filter="url(#filter0_d_901_80459)">
<path d="M1130.17 145.448H896L896 67.4857L930.901 48H1165.08L1165.08 125.962L1130.17 145.448Z" fill="#30429B" fill-opacity="0.95"/>
<path d="M896.44 67.7442L896.44 145.008H1130.06L1164.64 125.704L1164.64 48.4403H931.015L896.44 67.7442Z" stroke="#3A4DA8" stroke-width="0.880552"/>
</g>
<g opacity="0.2" filter="url(#filter1_d_901_80459)">
<path d="M389.175 145.448H155L155 67.4857L189.901 48H424.076L424.076 125.962L389.175 145.448Z" fill="#30429B" fill-opacity="0.95"/>
<path d="M155.44 67.7442L155.44 145.008H389.06L423.635 125.704L423.635 48.4403H190.015L155.44 67.7442Z" stroke="#3A4DA8" stroke-width="0.880552"/>
</g>
<g opacity="0.2" filter="url(#filter2_d_901_80459)">
<path d="M389.175 408.448H155L155 330.486L189.901 311H424.076L424.076 388.962L389.175 408.448Z" fill="#30429B" fill-opacity="0.95"/>
<path d="M155.44 330.744L155.44 408.008H389.06L423.635 388.704L423.635 311.44H190.015L155.44 330.744Z" stroke="#3A4DA8" stroke-width="0.880552"/>
</g>
<g opacity="0.2" filter="url(#filter3_d_901_80459)">
<path d="M326.175 277.448H92.0001L92 199.486L126.901 180H361.076L361.076 257.962L326.175 277.448Z" fill="#30429B" fill-opacity="0.95"/>
<path d="M92.4403 199.744L92.4404 277.008H326.06L360.635 257.704L360.635 180.44H127.015L92.4403 199.744Z" stroke="#3A4DA8" stroke-width="0.880552"/>
</g>
<g opacity="0.2" filter="url(#filter4_d_901_80459)">
<path d="M1193.17 277.448H959L959 199.486L993.901 180H1228.08L1228.08 257.962L1193.17 277.448Z" fill="#30429B" fill-opacity="0.95"/>
<path d="M959.44 199.744L959.44 277.008H1193.06L1227.64 257.704L1227.64 180.44H994.015L959.44 199.744Z" stroke="#3A4DA8" stroke-width="0.880552"/>
</g>
<g opacity="0.2" filter="url(#filter5_d_901_80459)">
<path d="M1130.17 408.448H896L896 330.486L930.901 311H1165.08L1165.08 388.962L1130.17 408.448Z" fill="#30429B" fill-opacity="0.95"/>
<path d="M896.44 330.744L896.44 408.008H1130.06L1164.64 388.704L1164.64 311.44H931.015L896.44 330.744Z" stroke="#3A4DA8" stroke-width="0.880552"/>
</g>
<path d="M1197.12 458H0.000366211L-0.00012207 69.2864L122.881 0L1320 0L1320 388.714L1197.12 458Z" fill="white" fill-opacity="0.4"/>
<path d="M0.499878 69.5785L0.500366 457.5H1196.99L1319.5 388.421L1319.5 0.5L123.012 0.5L0.499878 69.5785Z" stroke="#141E4B" stroke-opacity="0.06"/>
<path d="M598.807 133.911H612.981L641.089 161.727" stroke="#3A4DA8" stroke-width="1.10736"/>
<path d="M598.807 328.626H612.981L641.089 300.81" stroke="#3A4DA8" stroke-width="1.10736"/>
<path d="M722.313 133.911H708.139L680.032 161.727" stroke="#3A4DA8" stroke-width="1.10736"/>
<path d="M547.528 231.681L557.55 221.658L596.6 221.658" stroke="#3A4DA8" stroke-width="1.10736"/>
<path d="M749.572 231.682L739.549 221.66L681.133 221.66" stroke="#3A4DA8" stroke-width="1.10736"/>
<path d="M799.127 232.209L807.122 240.134L853.722 240.134" stroke="#3A4DA8" stroke-width="1.10736"/>
<path d="M518.231 231.328L510.236 239.253L463.637 239.253" stroke="#3A4DA8" stroke-width="1.10736"/>
<path d="M722.313 328.626H708.139L680.032 300.81" stroke="#3A4DA8" stroke-width="1.10736"/>
<path d="M480.367 231.328L594.839 231.328" stroke="#3A4DA8" stroke-width="1.10736"/>
<line x1="689.939" y1="231.655" x2="839.633" y2="231.655" stroke="#3A4DA8" stroke-width="1.10736"/>
<path d="M544.287 367.569H560.56L631.075 296.359" stroke="#3A4DA8" stroke-width="1.10736"/>
<path d="M776.833 367.569H760.352L688.933 295.247" stroke="#3A4DA8" stroke-width="1.10736"/>
<path d="M776.833 94.968H760.56L690.046 166.178" stroke="#3A4DA8" stroke-width="1.10736"/>
<path d="M544.287 94.9679H560.768L632.187 167.291" stroke="#3A4DA8" stroke-width="1.10736"/>
<g filter="url(#filter6_d_901_80459)">
<path d="M509.373 145.448H275.198L275.198 67.4857L310.099 48H544.274L544.274 125.962L509.373 145.448Z" fill="#30429B" fill-opacity="0.95"/>
<path d="M275.639 67.7442L275.639 145.008H509.259L543.834 125.704L543.834 48.4403H310.214L275.639 67.7442Z" stroke="#3A4DA8" stroke-width="0.880552"/>
</g>
<g filter="url(#filter7_d_901_80459)">
<path d="M509.373 409H275.198L275.198 331.038L310.099 311.552H544.274L544.274 389.514L509.373 409Z" fill="#30429B" fill-opacity="0.95"/>
<path d="M275.639 331.296L275.639 408.56H509.259L543.834 389.256L543.834 311.993H310.214L275.639 331.296Z" stroke="#3A4DA8" stroke-width="0.880552"/>
</g>
<g filter="url(#filter8_d_901_80459)">
<path d="M1009.9 145.448H775.726L775.726 67.4857L810.627 48H1044.8L1044.8 125.962L1009.9 145.448Z" fill="#30429B" fill-opacity="0.95"/>
<path d="M776.166 67.7442L776.166 145.008H1009.79L1044.36 125.704L1044.36 48.4403H810.741L776.166 67.7442Z" stroke="#3A4DA8" stroke-width="0.880552"/>
</g>
<g filter="url(#filter9_d_901_80459)">
<path d="M1009.9 409H775.726L775.726 331.038L810.627 311.552H1044.8L1044.8 389.514L1009.9 409Z" fill="#30429B" fill-opacity="0.95"/>
<path d="M776.166 331.296L776.166 408.56H1009.79L1044.36 389.256L1044.36 311.993H810.741L776.166 331.296Z" stroke="#3A4DA8" stroke-width="0.880552"/>
</g>
<path d="M311.824 90.3618V74.9618H324.76V90.3618H322.252V77.2718H314.332V90.3618H311.824ZM328.414 89.1738C327.299 88.1911 326.742 86.8271 326.742 85.0818C326.742 83.3365 327.299 81.9725 328.414 80.9898C329.543 80.0071 330.892 79.5158 332.462 79.5158C334.046 79.5158 335.395 80.0071 336.51 80.9898C337.624 81.9725 338.182 83.3365 338.182 85.0818C338.182 86.8271 337.624 88.1911 336.51 89.1738C335.395 90.1565 334.046 90.6478 332.462 90.6478C330.892 90.6478 329.543 90.1565 328.414 89.1738ZM334.86 87.5678C335.476 86.9371 335.784 86.1085 335.784 85.0818C335.784 84.0551 335.476 83.2338 334.86 82.6178C334.244 81.9871 333.444 81.6718 332.462 81.6718C331.464 81.6718 330.658 81.9871 330.042 82.6178C329.426 83.2338 329.118 84.0551 329.118 85.0818C329.118 86.1085 329.426 86.9371 330.042 87.5678C330.658 88.1838 331.464 88.4918 332.462 88.4918C333.444 88.4918 334.244 88.1838 334.86 87.5678ZM339.364 85.1698C339.364 83.3365 339.944 81.9358 341.102 80.9678C342.261 79.9998 343.625 79.5158 345.194 79.5158C346.456 79.5158 347.541 79.7871 348.45 80.3298V82.4858C347.629 81.8991 346.654 81.6058 345.524 81.6058C344.483 81.6058 343.596 81.8991 342.862 82.4858C342.129 83.0578 341.762 83.9231 341.762 85.0818C341.762 86.2111 342.122 87.0765 342.84 87.6778C343.574 88.2645 344.454 88.5578 345.48 88.5578C346.595 88.5578 347.622 88.2865 348.56 87.7438V89.9218C347.548 90.4058 346.382 90.6478 345.062 90.6478C343.522 90.6478 342.188 90.1785 341.058 89.2398C339.929 88.2865 339.364 86.9298 339.364 85.1698ZM352.964 90.3618V81.8698H349.312V79.8018H358.948V81.8698H355.318V90.3618H352.964ZM369.218 87.9198C369.218 88.4331 369.475 88.6898 369.988 88.6898C370.164 88.6898 370.399 88.6458 370.692 88.5578V90.2518C370.252 90.4278 369.754 90.5158 369.196 90.5158C368.14 90.5158 367.436 90.1051 367.084 89.2838C365.955 90.1931 364.628 90.6478 363.102 90.6478C362.076 90.6478 361.203 90.3691 360.484 89.8118C359.766 89.2398 359.406 88.4405 359.406 87.4138C359.406 86.1818 359.868 85.2871 360.792 84.7298C361.716 84.1578 362.824 83.8718 364.114 83.8718C364.965 83.8718 365.882 83.9745 366.864 84.1798V83.8058C366.864 83.1311 366.622 82.5885 366.138 82.1778C365.654 81.7671 364.972 81.5618 364.092 81.5618C362.787 81.5618 361.518 81.8331 360.286 82.3758V80.2198C361.665 79.7505 363.014 79.5158 364.334 79.5158C365.874 79.5158 367.07 79.8971 367.92 80.6598C368.786 81.4225 369.218 82.5811 369.218 84.1358V87.9198ZM364.576 85.5218C363.799 85.5218 363.146 85.6611 362.618 85.9398C362.09 86.2185 361.826 86.6585 361.826 87.2598C361.826 87.7585 362.017 88.1471 362.398 88.4258C362.78 88.6898 363.249 88.8218 363.806 88.8218C365.009 88.8218 366.028 88.4038 366.864 87.5678V85.7858C366.014 85.6098 365.251 85.5218 364.576 85.5218ZM371.876 90.3618V79.8018H377.904C378.945 79.8018 379.759 80.0658 380.346 80.5938C380.947 81.1071 381.248 81.7818 381.248 82.6178C381.248 83.7765 380.749 84.5758 379.752 85.0158C380.28 85.1771 380.713 85.4705 381.05 85.8958C381.387 86.3211 381.556 86.8418 381.556 87.4578C381.556 88.3231 381.263 89.0271 380.676 89.5698C380.104 90.0978 379.239 90.3618 378.08 90.3618H371.876ZM374.23 84.2018H377.376C378.373 84.2018 378.872 83.7765 378.872 82.9258C378.872 82.4565 378.725 82.1191 378.432 81.9138C378.153 81.6938 377.801 81.5838 377.376 81.5838H374.23V84.2018ZM374.23 88.5798H377.508C378.623 88.5798 379.18 88.1325 379.18 87.2378C379.18 86.3285 378.637 85.8738 377.552 85.8738H374.23V88.5798ZM383.489 90.3618V79.8018H385.843V83.9818H387.581L390.617 79.8018H393.301L389.473 85.0378L393.719 90.3618H391.013L387.537 85.9838H385.843V90.3618H383.489ZM403.713 87.9198C403.713 88.4331 403.97 88.6898 404.483 88.6898C404.659 88.6898 404.894 88.6458 405.187 88.5578V90.2518C404.747 90.4278 404.248 90.5158 403.691 90.5158C402.635 90.5158 401.931 90.1051 401.579 89.2838C400.45 90.1931 399.122 90.6478 397.597 90.6478C396.57 90.6478 395.698 90.3691 394.979 89.8118C394.26 89.2398 393.901 88.4405 393.901 87.4138C393.901 86.1818 394.363 85.2871 395.287 84.7298C396.211 84.1578 397.318 83.8718 398.609 83.8718C399.46 83.8718 400.376 83.9745 401.359 84.1798V83.8058C401.359 83.1311 401.117 82.5885 400.633 82.1778C400.149 81.7671 399.467 81.5618 398.587 81.5618C397.282 81.5618 396.013 81.8331 394.781 82.3758V80.2198C396.16 79.7505 397.509 79.5158 398.829 79.5158C400.369 79.5158 401.564 79.8971 402.415 80.6598C403.28 81.4225 403.713 82.5811 403.713 84.1358V87.9198ZM399.071 85.5218C398.294 85.5218 397.641 85.6611 397.113 85.9398C396.585 86.2185 396.321 86.6585 396.321 87.2598C396.321 87.7585 396.512 88.1471 396.893 88.4258C397.274 88.6898 397.744 88.8218 398.301 88.8218C399.504 88.8218 400.523 88.4038 401.359 87.5678V85.7858C400.508 85.6098 399.746 85.5218 399.071 85.5218ZM411.13 90.3618V79.8018H413.484V86.7098L419.138 79.8018H421.162V90.3618H418.808V83.4538L413.154 90.3618H411.13ZM423.666 90.3618V79.8018H426.02V84.0478H431.3V79.8018H433.654V90.3618H431.3V86.1158H426.02V90.3618H423.666ZM435.5 85.0818C435.5 84.1725 435.661 83.3511 435.984 82.6178C436.307 81.8698 436.732 81.2831 437.26 80.8578C437.788 80.4178 438.36 80.0878 438.976 79.8678C439.592 79.6331 440.215 79.5158 440.846 79.5158C441.653 79.5158 442.379 79.6405 443.024 79.8898C443.684 80.1391 444.212 80.4765 444.608 80.9018C445.004 81.3271 445.327 81.8185 445.576 82.3758C445.825 82.9331 445.957 83.5198 445.972 84.1358C445.987 84.7371 445.935 85.3458 445.818 85.9618H437.876C437.993 86.8565 438.433 87.5311 439.196 87.9858C439.959 88.4258 440.868 88.6458 441.924 88.6458C443.127 88.6458 444.241 88.3965 445.268 87.8978V89.9218C444.256 90.4058 442.995 90.6478 441.484 90.6478C439.768 90.6478 438.338 90.1638 437.194 89.1958C436.065 88.2278 435.5 86.8565 435.5 85.0818ZM443.706 84.2018C443.794 83.6005 443.611 82.9991 443.156 82.3978C442.716 81.7818 441.983 81.4738 440.956 81.4738C440.12 81.4738 439.401 81.7158 438.8 82.1998C438.213 82.6838 437.898 83.3511 437.854 84.2018H443.706ZM449.863 81.4518C450.933 80.1611 452.29 79.5158 453.933 79.5158C455.487 79.5158 456.749 80.0585 457.717 81.1438C458.685 82.2145 459.169 83.5271 459.169 85.0818C459.169 86.6365 458.685 87.9565 457.717 89.0418C456.749 90.1125 455.487 90.6478 453.933 90.6478C452.349 90.6478 451.08 90.0978 450.127 88.9978V95.2018H447.773V79.8018H449.863V81.4518ZM455.847 87.6118C456.463 86.9518 456.771 86.1085 456.771 85.0818C456.771 84.0551 456.463 83.2191 455.847 82.5738C455.231 81.9138 454.446 81.5838 453.493 81.5838C452.715 81.5838 452.026 81.7965 451.425 82.2218C450.838 82.6471 450.405 83.1678 450.127 83.7838V86.3578C450.405 86.9885 450.838 87.5165 451.425 87.9418C452.026 88.3671 452.715 88.5798 453.493 88.5798C454.446 88.5798 455.231 88.2571 455.847 87.6118ZM463.312 90.3618V81.8698H459.66V79.8018H469.296V81.8698H465.666V90.3618H463.312ZM470.697 90.3618V79.8018H473.051V84.0478H478.331V79.8018H480.685V90.3618H478.331V86.1158H473.051V90.3618H470.697ZM483.191 90.3618V79.8018H485.545V83.3218H488.427C489.718 83.3218 490.737 83.6518 491.485 84.3118C492.233 84.9718 492.607 85.8151 492.607 86.8418C492.607 87.8685 492.233 88.7118 491.485 89.3718C490.737 90.0318 489.718 90.3618 488.427 90.3618H483.191ZM494.499 90.3618V79.8018H496.853V90.3618H494.499ZM485.545 88.4918H487.965C488.669 88.4918 489.219 88.3525 489.615 88.0738C490.011 87.7805 490.209 87.3698 490.209 86.8418C490.209 86.2991 490.011 85.8885 489.615 85.6098C489.219 85.3165 488.669 85.1698 487.965 85.1698H485.545V88.4918ZM508.708 79.8018L504.858 84.9718L508.928 90.3618H506.244L503.494 86.6218L500.744 90.3618H498.06L502.13 84.9718L498.28 79.8018H500.964L503.494 83.3658L506.024 79.8018H508.708ZM350.16 114.362V103.802H352.536L356.122 109.368L359.73 103.802H362.106V114.362H359.84V107.212L356.826 111.832H355.418L352.426 107.212V114.362H350.16ZM373.607 111.92C373.607 112.433 373.864 112.69 374.377 112.69C374.553 112.69 374.788 112.646 375.081 112.558V114.252C374.641 114.428 374.142 114.516 373.585 114.516C372.529 114.516 371.825 114.105 371.473 113.284C370.344 114.193 369.016 114.648 367.491 114.648C366.464 114.648 365.592 114.369 364.873 113.812C364.154 113.24 363.795 112.44 363.795 111.414C363.795 110.182 364.257 109.287 365.181 108.73C366.105 108.158 367.212 107.872 368.503 107.872C369.354 107.872 370.27 107.974 371.253 108.18V107.806C371.253 107.131 371.011 106.588 370.527 106.178C370.043 105.767 369.361 105.562 368.481 105.562C367.176 105.562 365.907 105.833 364.675 106.376V104.22C366.054 103.75 367.403 103.516 368.723 103.516C370.263 103.516 371.458 103.897 372.309 104.66C373.174 105.422 373.607 106.581 373.607 108.136V111.92ZM368.965 109.522C368.188 109.522 367.535 109.661 367.007 109.94C366.479 110.218 366.215 110.658 366.215 111.26C366.215 111.758 366.406 112.147 366.787 112.426C367.168 112.69 367.638 112.822 368.195 112.822C369.398 112.822 370.417 112.404 371.253 111.568V109.786C370.402 109.61 369.64 109.522 368.965 109.522ZM378.387 114.362V105.87H374.735V103.802H384.371V105.87H380.741V114.362H378.387ZM384.833 109.082C384.833 108.172 384.994 107.351 385.317 106.618C385.639 105.87 386.065 105.283 386.593 104.858C387.121 104.418 387.693 104.088 388.309 103.868C388.925 103.633 389.548 103.516 390.179 103.516C390.985 103.516 391.711 103.64 392.357 103.89C393.017 104.139 393.545 104.476 393.941 104.902C394.337 105.327 394.659 105.818 394.909 106.376C395.158 106.933 395.29 107.52 395.305 108.136C395.319 108.737 395.268 109.346 395.151 109.962H387.209C387.326 110.856 387.766 111.531 388.529 111.986C389.291 112.426 390.201 112.646 391.257 112.646C392.459 112.646 393.574 112.396 394.601 111.898V113.922C393.589 114.406 392.327 114.648 390.817 114.648C389.101 114.648 387.671 114.164 386.527 113.196C385.397 112.228 384.833 110.856 384.833 109.082ZM393.039 108.202C393.127 107.6 392.943 106.999 392.489 106.398C392.049 105.782 391.315 105.474 390.289 105.474C389.453 105.474 388.734 105.716 388.133 106.2C387.546 106.684 387.231 107.351 387.187 108.202H393.039ZM399.195 105.452C400.266 104.161 401.623 103.516 403.265 103.516C404.82 103.516 406.081 104.058 407.049 105.144C408.017 106.214 408.501 107.527 408.501 109.082C408.501 110.636 408.017 111.956 407.049 113.042C406.081 114.112 404.82 114.648 403.265 114.648C401.681 114.648 400.413 114.098 399.459 112.998V119.202H397.105V103.802H399.195V105.452ZM405.179 111.612C405.795 110.952 406.103 110.108 406.103 109.082C406.103 108.055 405.795 107.219 405.179 106.574C404.563 105.914 403.779 105.584 402.825 105.584C402.048 105.584 401.359 105.796 400.757 106.222C400.171 106.647 399.738 107.168 399.459 107.784V110.358C399.738 110.988 400.171 111.516 400.757 111.942C401.359 112.367 402.048 112.58 402.825 112.58C403.779 112.58 404.563 112.257 405.179 111.612ZM410.351 114.362V103.802H412.705V110.71L418.359 103.802H420.383V114.362H418.029V107.454L412.375 114.362H410.351ZM431.885 111.92C431.885 112.433 432.142 112.69 432.655 112.69C432.831 112.69 433.066 112.646 433.359 112.558V114.252C432.919 114.428 432.421 114.516 431.863 114.516C430.807 114.516 430.103 114.105 429.751 113.284C428.622 114.193 427.295 114.648 425.769 114.648C424.743 114.648 423.87 114.369 423.151 113.812C422.433 113.24 422.073 112.44 422.073 111.414C422.073 110.182 422.535 109.287 423.459 108.73C424.383 108.158 425.491 107.872 426.781 107.872C427.632 107.872 428.549 107.974 429.531 108.18V107.806C429.531 107.131 429.289 106.588 428.805 106.178C428.321 105.767 427.639 105.562 426.759 105.562C425.454 105.562 424.185 105.833 422.953 106.376V104.22C424.332 103.75 425.681 103.516 427.001 103.516C428.541 103.516 429.737 103.897 430.587 104.66C431.453 105.422 431.885 106.581 431.885 108.136V111.92ZM427.243 109.522C426.466 109.522 425.813 109.661 425.285 109.94C424.757 110.218 424.493 110.658 424.493 111.26C424.493 111.758 424.684 112.147 425.065 112.426C425.447 112.69 425.916 112.822 426.473 112.822C427.676 112.822 428.695 112.404 429.531 111.568V109.786C428.681 109.61 427.918 109.522 427.243 109.522ZM438.745 105.804C438.657 107.182 438.54 108.363 438.393 109.346C438.246 110.328 438.026 111.238 437.733 112.074C437.44 112.895 437.051 113.518 436.567 113.944C436.098 114.354 435.518 114.56 434.829 114.56C434.374 114.56 433.89 114.464 433.377 114.274V112.426C433.626 112.514 433.854 112.558 434.059 112.558C434.895 112.558 435.482 111.832 435.819 110.38C436.171 108.913 436.406 106.72 436.523 103.802H444.663V114.362H442.309V105.804H438.745ZM448.178 113.174C447.063 112.191 446.506 110.827 446.506 109.082C446.506 107.336 447.063 105.972 448.178 104.99C449.307 104.007 450.656 103.516 452.226 103.516C453.81 103.516 455.159 104.007 456.274 104.99C457.388 105.972 457.946 107.336 457.946 109.082C457.946 110.827 457.388 112.191 456.274 113.174C455.159 114.156 453.81 114.648 452.226 114.648C450.656 114.648 449.307 114.156 448.178 113.174ZM454.624 111.568C455.24 110.937 455.548 110.108 455.548 109.082C455.548 108.055 455.24 107.234 454.624 106.618C454.008 105.987 453.208 105.672 452.226 105.672C451.228 105.672 450.422 105.987 449.806 106.618C449.19 107.234 448.882 108.055 448.882 109.082C448.882 110.108 449.19 110.937 449.806 111.568C450.422 112.184 451.228 112.492 452.226 112.492C453.208 112.492 454.008 112.184 454.624 111.568ZM459.788 114.362V103.802H465.816C466.857 103.802 467.671 104.066 468.258 104.594C468.859 105.107 469.16 105.782 469.16 106.618C469.16 107.776 468.661 108.576 467.664 109.016C468.192 109.177 468.625 109.47 468.962 109.896C469.299 110.321 469.468 110.842 469.468 111.458C469.468 112.323 469.175 113.027 468.588 113.57C468.016 114.098 467.151 114.362 465.992 114.362H459.788ZM462.142 108.202H465.288C466.285 108.202 466.784 107.776 466.784 106.926C466.784 106.456 466.637 106.119 466.344 105.914C466.065 105.694 465.713 105.584 465.288 105.584H462.142V108.202ZM462.142 112.58H465.42C466.535 112.58 467.092 112.132 467.092 111.238C467.092 110.328 466.549 109.874 465.464 109.874H462.142V112.58Z" fill="white"/>
<path d="M340.95 346.346C340.95 345.026 341.185 343.838 341.654 342.782C342.124 341.726 342.747 340.875 343.524 340.23C344.302 339.57 345.167 339.071 346.12 338.734C347.074 338.397 348.071 338.228 349.112 338.228C350.682 338.228 352.141 338.565 353.49 339.24V341.682C352.39 340.919 351.07 340.538 349.53 340.538C347.902 340.538 346.494 341.029 345.306 342.012C344.118 342.995 343.517 344.439 343.502 346.346C343.502 347.549 343.81 348.583 344.426 349.448C345.042 350.313 345.798 350.937 346.692 351.318C347.587 351.699 348.548 351.89 349.574 351.89C351.217 351.89 352.559 351.494 353.6 350.702V353.188C352.222 353.863 350.733 354.2 349.134 354.2C348.108 354.2 347.118 354.039 346.164 353.716C345.211 353.379 344.338 352.895 343.546 352.264C342.754 351.633 342.124 350.805 341.654 349.778C341.185 348.751 340.95 347.607 340.95 346.346ZM356.166 352.726C355.051 351.743 354.494 350.379 354.494 348.634C354.494 346.889 355.051 345.525 356.166 344.542C357.295 343.559 358.645 343.068 360.214 343.068C361.798 343.068 363.147 343.559 364.262 344.542C365.377 345.525 365.934 346.889 365.934 348.634C365.934 350.379 365.377 351.743 364.262 352.726C363.147 353.709 361.798 354.2 360.214 354.2C358.645 354.2 357.295 353.709 356.166 352.726ZM362.612 351.12C363.228 350.489 363.536 349.661 363.536 348.634C363.536 347.607 363.228 346.786 362.612 346.17C361.996 345.539 361.197 345.224 360.214 345.224C359.217 345.224 358.41 345.539 357.794 346.17C357.178 346.786 356.87 347.607 356.87 348.634C356.87 349.661 357.178 350.489 357.794 351.12C358.41 351.736 359.217 352.044 360.214 352.044C361.197 352.044 361.996 351.736 362.612 351.12ZM378.336 349.008C378.336 350.636 377.83 351.912 376.818 352.836C375.806 353.745 374.479 354.2 372.836 354.2C371.194 354.2 369.859 353.665 368.832 352.594C367.806 351.523 367.292 349.969 367.292 347.93C367.292 346.185 367.586 344.711 368.172 343.508C368.759 342.305 369.551 341.389 370.548 340.758C371.399 340.245 372.301 339.878 373.254 339.658C374.208 339.423 375.029 339.233 375.718 339.086C376.422 338.925 376.98 338.639 377.39 338.228V340.516C376.892 340.897 376.041 341.205 374.838 341.44C373.65 341.66 372.682 341.975 371.934 342.386C370.849 343.017 370.101 344.131 369.69 345.73C370.057 345.187 370.563 344.747 371.208 344.41C371.868 344.058 372.594 343.882 373.386 343.882C374.765 343.882 375.931 344.351 376.884 345.29C377.852 346.229 378.336 347.468 378.336 349.008ZM369.668 349.052C369.668 349.917 369.94 350.658 370.482 351.274C371.04 351.875 371.81 352.176 372.792 352.176C373.79 352.176 374.56 351.875 375.102 351.274C375.66 350.673 375.938 349.932 375.938 349.052C375.938 348.172 375.66 347.431 375.102 346.83C374.56 346.229 373.79 345.928 372.792 345.928C371.839 345.928 371.076 346.251 370.504 346.896C369.947 347.527 369.668 348.245 369.668 349.052ZM379.546 348.722C379.546 346.889 380.125 345.488 381.284 344.52C382.442 343.552 383.806 343.068 385.376 343.068C386.637 343.068 387.722 343.339 388.632 343.882V346.038C387.81 345.451 386.835 345.158 385.706 345.158C384.664 345.158 383.777 345.451 383.044 346.038C382.31 346.61 381.944 347.475 381.944 348.634C381.944 349.763 382.303 350.629 383.022 351.23C383.755 351.817 384.635 352.11 385.662 352.11C386.776 352.11 387.803 351.839 388.742 351.296V353.474C387.73 353.958 386.564 354.2 385.244 354.2C383.704 354.2 382.369 353.731 381.24 352.792C380.11 351.839 379.546 350.482 379.546 348.722ZM393.146 353.914V345.422H389.494V343.354H399.13V345.422H395.5V353.914H393.146ZM400.531 353.914V343.354H406.559C407.6 343.354 408.414 343.618 409.001 344.146C409.602 344.659 409.903 345.334 409.903 346.17C409.903 347.329 409.404 348.128 408.407 348.568C408.935 348.729 409.367 349.023 409.705 349.448C410.042 349.873 410.211 350.394 410.211 351.01C410.211 351.875 409.917 352.579 409.331 353.122C408.759 353.65 407.893 353.914 406.735 353.914H400.531ZM402.885 347.754H406.031C407.028 347.754 407.527 347.329 407.527 346.478C407.527 346.009 407.38 345.671 407.087 345.466C406.808 345.246 406.456 345.136 406.031 345.136H402.885V347.754ZM402.885 352.132H406.163C407.277 352.132 407.835 351.685 407.835 350.79C407.835 349.881 407.292 349.426 406.207 349.426H402.885V352.132ZM411.483 348.634C411.483 347.725 411.645 346.903 411.967 346.17C412.29 345.422 412.715 344.835 413.243 344.41C413.771 343.97 414.343 343.64 414.959 343.42C415.575 343.185 416.199 343.068 416.829 343.068C417.636 343.068 418.362 343.193 419.007 343.442C419.667 343.691 420.195 344.029 420.591 344.454C420.987 344.879 421.31 345.371 421.559 345.928C421.809 346.485 421.941 347.072 421.955 347.688C421.97 348.289 421.919 348.898 421.801 349.514H413.859C413.977 350.409 414.417 351.083 415.179 351.538C415.942 351.978 416.851 352.198 417.907 352.198C419.11 352.198 420.225 351.949 421.251 351.45V353.474C420.239 353.958 418.978 354.2 417.467 354.2C415.751 354.2 414.321 353.716 413.177 352.748C412.048 351.78 411.483 350.409 411.483 348.634ZM419.689 347.754C419.777 347.153 419.594 346.551 419.139 345.95C418.699 345.334 417.966 345.026 416.939 345.026C416.103 345.026 415.385 345.268 414.783 345.752C414.197 346.236 413.881 346.903 413.837 347.754H419.689ZM423.756 353.914V343.354H426.11V347.6H431.39V343.354H433.744V353.914H431.39V349.668H426.11V353.914H423.756ZM436.25 353.914V343.354H438.604V347.6H443.884V343.354H446.238V353.914H443.884V349.668H438.604V353.914H436.25ZM448.743 353.914V343.354H451.097V346.874H453.979C455.27 346.874 456.289 347.204 457.037 347.864C457.785 348.524 458.159 349.367 458.159 350.394C458.159 351.421 457.785 352.264 457.037 352.924C456.289 353.584 455.27 353.914 453.979 353.914H448.743ZM460.051 353.914V343.354H462.405V353.914H460.051ZM451.097 352.044H453.517C454.221 352.044 454.771 351.905 455.167 351.626C455.563 351.333 455.761 350.922 455.761 350.394C455.761 349.851 455.563 349.441 455.167 349.162C454.771 348.869 454.221 348.722 453.517 348.722H451.097V352.044ZM473.139 340.978C472.259 341.579 471.188 341.88 469.927 341.88C468.665 341.88 467.595 341.579 466.715 340.978V339.064C467.697 339.68 468.768 339.988 469.927 339.988C471.085 339.988 472.156 339.68 473.139 339.064V340.978ZM464.911 353.914V343.354H467.265V350.262L472.919 343.354H474.943V353.914H472.589V347.006L466.935 353.914H464.911ZM319.771 380.752V377.914H305.427V367.354H307.781V375.846H311.763V367.354H314.117V375.846H318.077V367.354H320.431V375.89H321.993V380.752H319.771ZM322.846 372.634C322.846 371.725 323.007 370.903 323.33 370.17C323.653 369.422 324.078 368.835 324.606 368.41C325.134 367.97 325.706 367.64 326.322 367.42C326.938 367.185 327.561 367.068 328.192 367.068C328.999 367.068 329.725 367.193 330.37 367.442C331.03 367.691 331.558 368.029 331.954 368.454C332.35 368.879 332.673 369.371 332.922 369.928C333.171 370.485 333.303 371.072 333.318 371.688C333.333 372.289 333.281 372.898 333.164 373.514H325.222C325.339 374.409 325.779 375.083 326.542 375.538C327.305 375.978 328.214 376.198 329.27 376.198C330.473 376.198 331.587 375.949 332.614 375.45V377.474C331.602 377.958 330.341 378.2 328.83 378.2C327.114 378.2 325.684 377.716 324.54 376.748C323.411 375.78 322.846 374.409 322.846 372.634ZM331.052 371.754C331.14 371.153 330.957 370.551 330.502 369.95C330.062 369.334 329.329 369.026 328.302 369.026C327.466 369.026 326.747 369.268 326.146 369.752C325.559 370.236 325.244 370.903 325.2 371.754H331.052ZM345.679 373.008C345.679 374.636 345.173 375.912 344.161 376.836C343.149 377.745 341.822 378.2 340.179 378.2C338.536 378.2 337.202 377.665 336.175 376.594C335.148 375.523 334.635 373.969 334.635 371.93C334.635 370.185 334.928 368.711 335.515 367.508C336.102 366.305 336.894 365.389 337.891 364.758C338.742 364.245 339.644 363.878 340.597 363.658C341.55 363.423 342.372 363.233 343.061 363.086C343.765 362.925 344.322 362.639 344.733 362.228V364.516C344.234 364.897 343.384 365.205 342.181 365.44C340.993 365.66 340.025 365.975 339.277 366.386C338.192 367.017 337.444 368.131 337.033 369.73C337.4 369.187 337.906 368.747 338.551 368.41C339.211 368.058 339.937 367.882 340.729 367.882C342.108 367.882 343.274 368.351 344.227 369.29C345.195 370.229 345.679 371.468 345.679 373.008ZM337.011 373.052C337.011 373.917 337.282 374.658 337.825 375.274C338.382 375.875 339.152 376.176 340.135 376.176C341.132 376.176 341.902 375.875 342.445 375.274C343.002 374.673 343.281 373.932 343.281 373.052C343.281 372.172 343.002 371.431 342.445 370.83C341.902 370.229 341.132 369.928 340.135 369.928C339.182 369.928 338.419 370.251 337.847 370.896C337.29 371.527 337.011 372.245 337.011 373.052ZM346.888 372.634C346.888 371.725 347.049 370.903 347.372 370.17C347.695 369.422 348.12 368.835 348.648 368.41C349.176 367.97 349.748 367.64 350.364 367.42C350.98 367.185 351.603 367.068 352.234 367.068C353.041 367.068 353.767 367.193 354.412 367.442C355.072 367.691 355.6 368.029 355.996 368.454C356.392 368.879 356.715 369.371 356.964 369.928C357.213 370.485 357.345 371.072 357.36 371.688C357.375 372.289 357.323 372.898 357.206 373.514H349.264C349.381 374.409 349.821 375.083 350.584 375.538C351.347 375.978 352.256 376.198 353.312 376.198C354.515 376.198 355.629 375.949 356.656 375.45V377.474C355.644 377.958 354.383 378.2 352.872 378.2C351.156 378.2 349.726 377.716 348.582 376.748C347.453 375.78 346.888 374.409 346.888 372.634ZM355.094 371.754C355.182 371.153 354.999 370.551 354.544 369.95C354.104 369.334 353.371 369.026 352.344 369.026C351.508 369.026 350.789 369.268 350.188 369.752C349.601 370.236 349.286 370.903 349.242 371.754H355.094ZM359.161 377.914V367.354H361.515V371.6H366.795V367.354H369.149V377.914H366.795V373.668H361.515V377.914H359.161ZM372.666 376.726C371.552 375.743 370.994 374.379 370.994 372.634C370.994 370.889 371.552 369.525 372.666 368.542C373.796 367.559 375.145 367.068 376.714 367.068C378.298 367.068 379.648 367.559 380.762 368.542C381.877 369.525 382.434 370.889 382.434 372.634C382.434 374.379 381.877 375.743 380.762 376.726C379.648 377.709 378.298 378.2 376.714 378.2C375.145 378.2 373.796 377.709 372.666 376.726ZM379.112 375.12C379.728 374.489 380.036 373.661 380.036 372.634C380.036 371.607 379.728 370.786 379.112 370.17C378.496 369.539 377.697 369.224 376.714 369.224C375.717 369.224 374.91 369.539 374.294 370.17C373.678 370.786 373.37 371.607 373.37 372.634C373.37 373.661 373.678 374.489 374.294 375.12C374.91 375.736 375.717 376.044 376.714 376.044C377.697 376.044 378.496 375.736 379.112 375.12ZM390.679 377.914V374.416C389.755 374.753 388.772 374.922 387.731 374.922C386.499 374.922 385.509 374.599 384.761 373.954C384.013 373.294 383.639 372.326 383.639 371.05V367.354H385.993V370.852C385.993 371.585 386.198 372.106 386.609 372.414C387.02 372.707 387.621 372.854 388.413 372.854C389.22 372.854 389.975 372.722 390.679 372.458V367.354H393.033V377.914H390.679ZM395.546 377.914V367.354H397.9V371.6H403.18V367.354H405.534V377.914H403.18V373.668H397.9V377.914H395.546ZM408.039 377.914V367.354H410.393V370.874H413.275C414.566 370.874 415.585 371.204 416.333 371.864C417.081 372.524 417.455 373.367 417.455 374.394C417.455 375.421 417.081 376.264 416.333 376.924C415.585 377.584 414.566 377.914 413.275 377.914H408.039ZM419.347 377.914V367.354H421.701V377.914H419.347ZM410.393 376.044H412.813C413.517 376.044 414.067 375.905 414.463 375.626C414.859 375.333 415.057 374.922 415.057 374.394C415.057 373.851 414.859 373.441 414.463 373.162C414.067 372.869 413.517 372.722 412.813 372.722H410.393V376.044ZM432.435 364.978C431.555 365.579 430.484 365.88 429.223 365.88C427.962 365.88 426.891 365.579 426.011 364.978V363.064C426.994 363.68 428.064 363.988 429.223 363.988C430.382 363.988 431.452 363.68 432.435 363.064V364.978ZM424.207 377.914V367.354H426.561V374.262L432.215 367.354H434.239V377.914H431.885V371.006L426.231 377.914H424.207ZM441.503 377.914V367.354H443.857V371.534H445.595L448.631 367.354H451.315L447.487 372.59L451.733 377.914H449.027L445.551 373.536H443.857V377.914H441.503ZM461.727 375.472C461.727 375.985 461.983 376.242 462.497 376.242C462.673 376.242 462.907 376.198 463.201 376.11V377.804C462.761 377.98 462.262 378.068 461.705 378.068C460.649 378.068 459.945 377.657 459.593 376.836C458.463 377.745 457.136 378.2 455.611 378.2C454.584 378.2 453.711 377.921 452.993 377.364C452.274 376.792 451.915 375.993 451.915 374.966C451.915 373.734 452.377 372.839 453.301 372.282C454.225 371.71 455.332 371.424 456.623 371.424C457.473 371.424 458.39 371.527 459.373 371.732V371.358C459.373 370.683 459.131 370.141 458.647 369.73C458.163 369.319 457.481 369.114 456.601 369.114C455.295 369.114 454.027 369.385 452.795 369.928V367.772C454.173 367.303 455.523 367.068 456.843 367.068C458.383 367.068 459.578 367.449 460.429 368.212C461.294 368.975 461.727 370.133 461.727 371.688V375.472ZM457.085 373.074C456.307 373.074 455.655 373.213 455.127 373.492C454.599 373.771 454.335 374.211 454.335 374.812C454.335 375.311 454.525 375.699 454.907 375.978C455.288 376.242 455.757 376.374 456.315 376.374C457.517 376.374 458.537 375.956 459.373 375.12V373.338C458.522 373.162 457.759 373.074 457.085 373.074ZM466.474 369.004C467.545 367.713 468.902 367.068 470.544 367.068C472.099 367.068 473.36 367.611 474.328 368.696C475.296 369.767 475.78 371.079 475.78 372.634C475.78 374.189 475.296 375.509 474.328 376.594C473.36 377.665 472.099 378.2 470.544 378.2C468.96 378.2 467.692 377.65 466.738 376.55V382.754H464.384V367.354H466.474V369.004ZM472.458 375.164C473.074 374.504 473.382 373.661 473.382 372.634C473.382 371.607 473.074 370.771 472.458 370.126C471.842 369.466 471.058 369.136 470.104 369.136C469.327 369.136 468.638 369.349 468.036 369.774C467.45 370.199 467.017 370.72 466.738 371.336V373.91C467.017 374.541 467.45 375.069 468.036 375.494C468.638 375.919 469.327 376.132 470.104 376.132C471.058 376.132 471.842 375.809 472.458 375.164ZM477.63 377.914V367.354H479.984V370.874H482.866C484.157 370.874 485.176 371.204 485.924 371.864C486.672 372.524 487.046 373.367 487.046 374.394C487.046 375.421 486.672 376.264 485.924 376.924C485.176 377.584 484.157 377.914 482.866 377.914H477.63ZM479.984 376.044H482.404C483.108 376.044 483.658 375.905 484.054 375.626C484.45 375.333 484.648 374.922 484.648 374.394C484.648 373.851 484.45 373.441 484.054 373.162C483.658 372.869 483.108 372.722 482.404 372.722H479.984V376.044ZM488.003 372.634C488.003 371.725 488.164 370.903 488.487 370.17C488.809 369.422 489.235 368.835 489.763 368.41C490.291 367.97 490.863 367.64 491.479 367.42C492.095 367.185 492.718 367.068 493.349 367.068C494.155 367.068 494.881 367.193 495.527 367.442C496.187 367.691 496.715 368.029 497.111 368.454C497.507 368.879 497.829 369.371 498.079 369.928C498.328 370.485 498.46 371.072 498.475 371.688C498.489 372.289 498.438 372.898 498.321 373.514H490.379C490.496 374.409 490.936 375.083 491.699 375.538C492.461 375.978 493.371 376.198 494.427 376.198C495.629 376.198 496.744 375.949 497.771 375.45V377.474C496.759 377.958 495.497 378.2 493.987 378.2C492.271 378.2 490.841 377.716 489.697 376.748C488.567 375.78 488.003 374.409 488.003 372.634ZM496.209 371.754C496.297 371.153 496.113 370.551 495.659 369.95C495.219 369.334 494.485 369.026 493.459 369.026C492.623 369.026 491.904 369.268 491.303 369.752C490.716 370.236 490.401 370.903 490.357 371.754H496.209ZM502.365 369.004C503.436 367.713 504.793 367.068 506.435 367.068C507.99 367.068 509.251 367.611 510.219 368.696C511.187 369.767 511.671 371.079 511.671 372.634C511.671 374.189 511.187 375.509 510.219 376.594C509.251 377.665 507.99 378.2 506.435 378.2C504.851 378.2 503.583 377.65 502.629 376.55V382.754H500.275V367.354H502.365V369.004ZM508.349 375.164C508.965 374.504 509.273 373.661 509.273 372.634C509.273 371.607 508.965 370.771 508.349 370.126C507.733 369.466 506.949 369.136 505.995 369.136C505.218 369.136 504.529 369.349 503.927 369.774C503.341 370.199 502.908 370.72 502.629 371.336V373.91C502.908 374.541 503.341 375.069 503.927 375.494C504.529 375.919 505.218 376.132 505.995 376.132C506.949 376.132 507.733 375.809 508.349 375.164Z" fill="white"/>
<path d="M839.378 90.3618L844.196 82.4638L839.774 74.9618H842.59L846.22 81.3858H848.574V74.9618H851.082V81.3858H853.414L857.044 74.9618H859.882L855.438 82.4638L860.256 90.3618H857.44L853.392 83.6958H851.082V90.3618H848.574V83.6958H846.242L842.216 90.3618H839.378ZM860.541 91.6598L867.185 73.6638H868.901L862.257 91.6598H860.541ZM866.2 93.8598V88.0738H868.048C869.69 85.0818 870.512 80.7111 870.512 74.9618H880.434V88.0738H882.392V93.8598H880.104V90.3618H868.488V93.8598H866.2ZM872.976 77.2718C872.668 82.2585 871.934 85.8591 870.776 88.0738H877.926V77.2718H872.976ZM887.922 93.1998V88.4258H889.374C890.533 86.3725 891.09 83.4978 891.046 79.8018H899.296V88.4258H900.858V93.1998H898.636V90.3618H890.144V93.1998H887.922ZM893.246 81.7378C893.158 84.3778 892.689 86.6071 891.838 88.4258H896.92V81.7378H893.246ZM903.362 89.1738C902.248 88.1911 901.69 86.8271 901.69 85.0818C901.69 83.3365 902.248 81.9725 903.362 80.9898C904.492 80.0071 905.841 79.5158 907.41 79.5158C908.994 79.5158 910.344 80.0071 911.458 80.9898C912.573 81.9725 913.13 83.3365 913.13 85.0818C913.13 86.8271 912.573 88.1911 911.458 89.1738C910.344 90.1565 908.994 90.6478 907.41 90.6478C905.841 90.6478 904.492 90.1565 903.362 89.1738ZM909.808 87.5678C910.424 86.9371 910.732 86.1085 910.732 85.0818C910.732 84.0551 910.424 83.2338 909.808 82.6178C909.192 81.9871 908.393 81.6718 907.41 81.6718C906.413 81.6718 905.606 81.9871 904.99 82.6178C904.374 83.2338 904.066 84.0551 904.066 85.0818C904.066 86.1085 904.374 86.9371 904.99 87.5678C905.606 88.1838 906.413 88.4918 907.41 88.4918C908.393 88.4918 909.192 88.1838 909.808 87.5678ZM914.313 85.1698C914.313 83.3365 914.892 81.9358 916.051 80.9678C917.209 79.9998 918.573 79.5158 920.143 79.5158C921.404 79.5158 922.489 79.7871 923.399 80.3298V82.4858C922.577 81.8991 921.602 81.6058 920.473 81.6058C919.431 81.6058 918.544 81.8991 917.811 82.4858C917.077 83.0578 916.711 83.9231 916.711 85.0818C916.711 86.2111 917.07 87.0765 917.789 87.6778C918.522 88.2645 919.402 88.5578 920.429 88.5578C921.543 88.5578 922.57 88.2865 923.509 87.7438V89.9218C922.497 90.4058 921.331 90.6478 920.011 90.6478C918.471 90.6478 917.136 90.1785 916.007 89.2398C914.877 88.2865 914.313 86.9298 914.313 85.1698ZM927.913 90.3618V81.8698H924.261V79.8018H933.897V81.8698H930.267V90.3618H927.913ZM944.167 87.9198C944.167 88.4331 944.424 88.6898 944.937 88.6898C945.113 88.6898 945.348 88.6458 945.641 88.5578V90.2518C945.201 90.4278 944.702 90.5158 944.145 90.5158C943.089 90.5158 942.385 90.1051 942.033 89.2838C940.904 90.1931 939.576 90.6478 938.051 90.6478C937.024 90.6478 936.152 90.3691 935.433 89.8118C934.714 89.2398 934.355 88.4405 934.355 87.4138C934.355 86.1818 934.817 85.2871 935.741 84.7298C936.665 84.1578 937.772 83.8718 939.063 83.8718C939.914 83.8718 940.83 83.9745 941.813 84.1798V83.8058C941.813 83.1311 941.571 82.5885 941.087 82.1778C940.603 81.7671 939.921 81.5618 939.041 81.5618C937.736 81.5618 936.467 81.8331 935.235 82.3758V80.2198C936.614 79.7505 937.963 79.5158 939.283 79.5158C940.823 79.5158 942.018 79.8971 942.869 80.6598C943.734 81.4225 944.167 82.5811 944.167 84.1358V87.9198ZM939.525 85.5218C938.748 85.5218 938.095 85.6611 937.567 85.9398C937.039 86.2185 936.775 86.6585 936.775 87.2598C936.775 87.7585 936.966 88.1471 937.347 88.4258C937.728 88.6898 938.198 88.8218 938.755 88.8218C939.958 88.8218 940.977 88.4038 941.813 87.5678V85.7858C940.962 85.6098 940.2 85.5218 939.525 85.5218ZM946.825 90.3618V79.8018H952.853C953.894 79.8018 954.708 80.0658 955.295 80.5938C955.896 81.1071 956.197 81.7818 956.197 82.6178C956.197 83.7765 955.698 84.5758 954.701 85.0158C955.229 85.1771 955.661 85.4705 955.999 85.8958C956.336 86.3211 956.505 86.8418 956.505 87.4578C956.505 88.3231 956.211 89.0271 955.625 89.5698C955.053 90.0978 954.187 90.3618 953.029 90.3618H946.825ZM949.179 84.2018H952.325C953.322 84.2018 953.821 83.7765 953.821 82.9258C953.821 82.4565 953.674 82.1191 953.381 81.9138C953.102 81.6938 952.75 81.5838 952.325 81.5838H949.179V84.2018ZM949.179 88.5798H952.457C953.571 88.5798 954.129 88.1325 954.129 87.2378C954.129 86.3285 953.586 85.8738 952.501 85.8738H949.179V88.5798ZM958.437 90.3618V79.8018H960.791V83.9818H962.529L965.565 79.8018H968.249L964.421 85.0378L968.667 90.3618H965.961L962.485 85.9838H960.791V90.3618H958.437ZM978.661 87.9198C978.661 88.4331 978.918 88.6898 979.431 88.6898C979.607 88.6898 979.842 88.6458 980.135 88.5578V90.2518C979.695 90.4278 979.197 90.5158 978.639 90.5158C977.583 90.5158 976.879 90.1051 976.527 89.2838C975.398 90.1931 974.071 90.6478 972.545 90.6478C971.519 90.6478 970.646 90.3691 969.927 89.8118C969.209 89.2398 968.849 88.4405 968.849 87.4138C968.849 86.1818 969.311 85.2871 970.235 84.7298C971.159 84.1578 972.267 83.8718 973.557 83.8718C974.408 83.8718 975.325 83.9745 976.307 84.1798V83.8058C976.307 83.1311 976.065 82.5885 975.581 82.1778C975.097 81.7671 974.415 81.5618 973.535 81.5618C972.23 81.5618 970.961 81.8331 969.729 82.3758V80.2198C971.108 79.7505 972.457 79.5158 973.777 79.5158C975.317 79.5158 976.513 79.8971 977.363 80.6598C978.229 81.4225 978.661 82.5811 978.661 84.1358V87.9198ZM974.019 85.5218C973.242 85.5218 972.589 85.6611 972.061 85.9398C971.533 86.2185 971.269 86.6585 971.269 87.2598C971.269 87.7585 971.46 88.1471 971.841 88.4258C972.223 88.6898 972.692 88.8218 973.249 88.8218C974.452 88.8218 975.471 88.4038 976.307 87.5678V85.7858C975.457 85.6098 974.694 85.5218 974.019 85.5218ZM798.518 114.362V103.802H800.872V110.71L806.526 103.802H808.55V114.362H806.196V107.454L800.542 114.362H798.518ZM811.055 114.362V103.802H813.409V108.048H818.689V103.802H821.043V114.362H818.689V110.116H813.409V114.362H811.055ZM822.888 109.082C822.888 108.172 823.049 107.351 823.372 106.618C823.695 105.87 824.12 105.283 824.648 104.858C825.176 104.418 825.748 104.088 826.364 103.868C826.98 103.633 827.603 103.516 828.234 103.516C829.041 103.516 829.767 103.64 830.412 103.89C831.072 104.139 831.6 104.476 831.996 104.902C832.392 105.327 832.715 105.818 832.964 106.376C833.213 106.933 833.345 107.52 833.36 108.136C833.375 108.737 833.323 109.346 833.206 109.962H825.264C825.381 110.856 825.821 111.531 826.584 111.986C827.347 112.426 828.256 112.646 829.312 112.646C830.515 112.646 831.629 112.396 832.656 111.898V113.922C831.644 114.406 830.383 114.648 828.872 114.648C827.156 114.648 825.726 114.164 824.582 113.196C823.453 112.228 822.888 110.856 822.888 109.082ZM831.094 108.202C831.182 107.6 830.999 106.999 830.544 106.398C830.104 105.782 829.371 105.474 828.344 105.474C827.508 105.474 826.789 105.716 826.188 106.2C825.601 106.684 825.286 107.351 825.242 108.202H831.094ZM837.251 105.452C838.322 104.161 839.678 103.516 841.321 103.516C842.876 103.516 844.137 104.058 845.105 105.144C846.073 106.214 846.557 107.527 846.557 109.082C846.557 110.636 846.073 111.956 845.105 113.042C844.137 114.112 842.876 114.648 841.321 114.648C839.737 114.648 838.468 114.098 837.515 112.998V119.202H835.161V103.802H837.251V105.452ZM843.235 111.612C843.851 110.952 844.159 110.108 844.159 109.082C844.159 108.055 843.851 107.219 843.235 106.574C842.619 105.914 841.834 105.584 840.881 105.584C840.104 105.584 839.414 105.796 838.813 106.222C838.226 106.647 837.794 107.168 837.515 107.784V110.358C837.794 110.988 838.226 111.516 838.813 111.942C839.414 112.367 840.104 112.58 840.881 112.58C841.834 112.58 842.619 112.257 843.235 111.612ZM850.701 114.362V105.87H847.049V103.802H856.685V105.87H853.055V114.362H850.701ZM858.086 114.362V103.802H860.44V108.048H865.72V103.802H868.074V114.362H865.72V110.116H860.44V114.362H858.086ZM870.579 114.362V103.802H872.933V107.322H875.815C877.106 107.322 878.125 107.652 878.873 108.312C879.621 108.972 879.995 109.815 879.995 110.842C879.995 111.868 879.621 112.712 878.873 113.372C878.125 114.032 877.106 114.362 875.815 114.362H870.579ZM881.887 114.362V103.802H884.241V114.362H881.887ZM872.933 112.492H875.353C876.057 112.492 876.607 112.352 877.003 112.074C877.399 111.78 877.597 111.37 877.597 110.842C877.597 110.299 877.399 109.888 877.003 109.61C876.607 109.316 876.057 109.17 875.353 109.17H872.933V112.492ZM896.097 103.802L892.247 108.972L896.317 114.362H893.633L890.883 110.622L888.133 114.362H885.449L889.519 108.972L885.669 103.802H888.353L890.883 107.366L893.413 103.802H896.097ZM902.281 114.362V103.802H904.657L908.243 109.368L911.851 103.802H914.227V114.362H911.961V107.212L908.947 111.832H907.539L904.547 107.212V114.362H902.281ZM925.727 111.92C925.727 112.433 925.984 112.69 926.497 112.69C926.673 112.69 926.908 112.646 927.201 112.558V114.252C926.761 114.428 926.263 114.516 925.705 114.516C924.649 114.516 923.945 114.105 923.593 113.284C922.464 114.193 921.137 114.648 919.611 114.648C918.585 114.648 917.712 114.369 916.993 113.812C916.275 113.24 915.915 112.44 915.915 111.414C915.915 110.182 916.377 109.287 917.301 108.73C918.225 108.158 919.333 107.872 920.623 107.872C921.474 107.872 922.391 107.974 923.373 108.18V107.806C923.373 107.131 923.131 106.588 922.647 106.178C922.163 105.767 921.481 105.562 920.601 105.562C919.296 105.562 918.027 105.833 916.795 106.376V104.22C918.174 103.75 919.523 103.516 920.843 103.516C922.383 103.516 923.579 103.897 924.429 104.66C925.295 105.422 925.727 106.581 925.727 108.136V111.92ZM921.085 109.522C920.308 109.522 919.655 109.661 919.127 109.94C918.599 110.218 918.335 110.658 918.335 111.26C918.335 111.758 918.526 112.147 918.907 112.426C919.289 112.69 919.758 112.822 920.315 112.822C921.518 112.822 922.537 112.404 923.373 111.568V109.786C922.523 109.61 921.76 109.522 921.085 109.522ZM930.507 114.362V105.87H926.855V103.802H936.491V105.87H932.861V114.362H930.507ZM936.953 109.082C936.953 108.172 937.114 107.351 937.437 106.618C937.76 105.87 938.185 105.283 938.713 104.858C939.241 104.418 939.813 104.088 940.429 103.868C941.045 103.633 941.668 103.516 942.299 103.516C943.106 103.516 943.832 103.64 944.477 103.89C945.137 104.139 945.665 104.476 946.061 104.902C946.457 105.327 946.78 105.818 947.029 106.376C947.278 106.933 947.41 107.52 947.425 108.136C947.44 108.737 947.388 109.346 947.271 109.962H939.329C939.446 110.856 939.886 111.531 940.649 111.986C941.412 112.426 942.321 112.646 943.377 112.646C944.58 112.646 945.694 112.396 946.721 111.898V113.922C945.709 114.406 944.448 114.648 942.937 114.648C941.221 114.648 939.791 114.164 938.647 113.196C937.518 112.228 936.953 110.856 936.953 109.082ZM945.159 108.202C945.247 107.6 945.064 106.999 944.609 106.398C944.169 105.782 943.436 105.474 942.409 105.474C941.573 105.474 940.854 105.716 940.253 106.2C939.666 106.684 939.351 107.351 939.307 108.202H945.159ZM951.316 105.452C952.386 104.161 953.743 103.516 955.386 103.516C956.94 103.516 958.202 104.058 959.17 105.144C960.138 106.214 960.622 107.527 960.622 109.082C960.622 110.636 960.138 111.956 959.17 113.042C958.202 114.112 956.94 114.648 955.386 114.648C953.802 114.648 952.533 114.098 951.58 112.998V119.202H949.226V103.802H951.316V105.452ZM957.3 111.612C957.916 110.952 958.224 110.108 958.224 109.082C958.224 108.055 957.916 107.219 957.3 106.574C956.684 105.914 955.899 105.584 954.946 105.584C954.168 105.584 953.479 105.796 952.878 106.222C952.291 106.647 951.858 107.168 951.58 107.784V110.358C951.858 110.988 952.291 111.516 952.878 111.942C953.479 112.367 954.168 112.58 954.946 112.58C955.899 112.58 956.684 112.257 957.3 111.612ZM962.471 114.362V103.802H964.825V110.71L970.479 103.802H972.503V114.362H970.149V107.454L964.495 114.362H962.471ZM984.006 111.92C984.006 112.433 984.262 112.69 984.776 112.69C984.952 112.69 985.186 112.646 985.48 112.558V114.252C985.04 114.428 984.541 114.516 983.984 114.516C982.928 114.516 982.224 114.105 981.872 113.284C980.742 114.193 979.415 114.648 977.89 114.648C976.863 114.648 975.99 114.369 975.272 113.812C974.553 113.24 974.194 112.44 974.194 111.414C974.194 110.182 974.656 109.287 975.58 108.73C976.504 108.158 977.611 107.872 978.902 107.872C979.752 107.872 980.669 107.974 981.652 108.18V107.806C981.652 107.131 981.41 106.588 980.926 106.178C980.442 105.767 979.76 105.562 978.88 105.562C977.574 105.562 976.306 105.833 975.074 106.376V104.22C976.452 103.75 977.802 103.516 979.122 103.516C980.662 103.516 981.857 103.897 982.708 104.66C983.573 105.422 984.006 106.581 984.006 108.136V111.92ZM979.364 109.522C978.586 109.522 977.934 109.661 977.406 109.94C976.878 110.218 976.614 110.658 976.614 111.26C976.614 111.758 976.804 112.147 977.186 112.426C977.567 112.69 978.036 112.822 978.594 112.822C979.796 112.822 980.816 112.404 981.652 111.568V109.786C980.801 109.61 980.038 109.522 979.364 109.522ZM990.866 105.804C990.778 107.182 990.66 108.363 990.514 109.346C990.367 110.328 990.147 111.238 989.854 112.074C989.56 112.895 989.172 113.518 988.688 113.944C988.218 114.354 987.639 114.56 986.95 114.56C986.495 114.56 986.011 114.464 985.498 114.274V112.426C985.747 112.514 985.974 112.558 986.18 112.558C987.016 112.558 987.602 111.832 987.94 110.38C988.292 108.913 988.526 106.72 988.644 103.802H996.784V114.362H994.43V105.804H990.866ZM1000.3 113.174C999.183 112.191 998.626 110.827 998.626 109.082C998.626 107.336 999.183 105.972 1000.3 104.99C1001.43 104.007 1002.78 103.516 1004.35 103.516C1005.93 103.516 1007.28 104.007 1008.39 104.99C1009.51 105.972 1010.07 107.336 1010.07 109.082C1010.07 110.827 1009.51 112.191 1008.39 113.174C1007.28 114.156 1005.93 114.648 1004.35 114.648C1002.78 114.648 1001.43 114.156 1000.3 113.174ZM1006.74 111.568C1007.36 110.937 1007.67 110.108 1007.67 109.082C1007.67 108.055 1007.36 107.234 1006.74 106.618C1006.13 105.987 1005.33 105.672 1004.35 105.672C1003.35 105.672 1002.54 105.987 1001.93 106.618C1001.31 107.234 1001 108.055 1001 109.082C1001 110.108 1001.31 110.937 1001.93 111.568C1002.54 112.184 1003.35 112.492 1004.35 112.492C1005.33 112.492 1006.13 112.184 1006.74 111.568ZM1011.91 114.362V103.802H1017.94C1018.98 103.802 1019.79 104.066 1020.38 104.594C1020.98 105.107 1021.28 105.782 1021.28 106.618C1021.28 107.776 1020.78 108.576 1019.78 109.016C1020.31 109.177 1020.75 109.47 1021.08 109.896C1021.42 110.321 1021.59 110.842 1021.59 111.458C1021.59 112.323 1021.3 113.027 1020.71 113.57C1020.14 114.098 1019.27 114.362 1018.11 114.362H1011.91ZM1014.26 108.202H1017.41C1018.41 108.202 1018.9 107.776 1018.9 106.926C1018.9 106.456 1018.76 106.119 1018.46 105.914C1018.19 105.694 1017.83 105.584 1017.41 105.584H1014.26V108.202ZM1014.26 112.58H1017.54C1018.66 112.58 1019.21 112.132 1019.21 111.238C1019.21 110.328 1018.67 109.874 1017.58 109.874H1014.26V112.58Z" fill="white"/>
<path d="M822.774 350.695C824.416 350.695 825.707 351.025 826.646 351.685C827.584 352.345 828.054 353.313 828.054 354.589C828.054 355.469 827.826 356.203 827.372 356.789C826.917 357.361 826.338 357.757 825.634 357.977C826.47 358.212 827.181 358.645 827.768 359.275C828.369 359.891 828.67 360.742 828.67 361.827C828.67 362.649 828.486 363.36 828.12 363.961C827.753 364.548 827.262 364.988 826.646 365.281C826.03 365.575 825.406 365.787 824.776 365.919C824.16 366.037 823.507 366.095 822.818 366.095H816.262V350.695H822.774ZM825.502 354.985C825.502 353.577 824.504 352.873 822.51 352.873H818.77V357.075L822.862 357.097C823.639 357.097 824.27 356.921 824.754 356.569C825.252 356.217 825.502 355.689 825.502 354.985ZM826.118 361.563C826.118 359.994 825.054 359.209 822.928 359.209H818.77V363.895H822.576C823.089 363.895 823.522 363.873 823.874 363.829C824.226 363.785 824.585 363.69 824.952 363.543C825.333 363.397 825.619 363.162 825.81 362.839C826.015 362.502 826.118 362.077 826.118 361.563ZM831.627 364.907C830.513 363.925 829.955 362.561 829.955 360.815C829.955 359.07 830.513 357.706 831.627 356.723C832.757 355.741 834.106 355.249 835.675 355.249C837.259 355.249 838.609 355.741 839.723 356.723C840.838 357.706 841.395 359.07 841.395 360.815C841.395 362.561 840.838 363.925 839.723 364.907C838.609 365.89 837.259 366.381 835.675 366.381C834.106 366.381 832.757 365.89 831.627 364.907ZM838.073 363.301C838.689 362.671 838.997 361.842 838.997 360.815C838.997 359.789 838.689 358.967 838.073 358.351C837.457 357.721 836.658 357.405 835.675 357.405C834.678 357.405 833.871 357.721 833.255 358.351C832.639 358.967 832.331 359.789 832.331 360.815C832.331 361.842 832.639 362.671 833.255 363.301C833.871 363.917 834.678 364.225 835.675 364.225C836.658 364.225 837.457 363.917 838.073 363.301ZM842.034 368.933V364.159H843.486C844.645 362.106 845.202 359.231 845.158 355.535H853.408V364.159H854.97V368.933H852.748V366.095H844.256V368.933H842.034ZM847.358 357.471C847.27 360.111 846.801 362.341 845.95 364.159H851.032V357.471H847.358ZM856.677 366.095V355.535H859.031V359.781H864.311V355.535H866.665V366.095H864.311V361.849H859.031V366.095H856.677ZM869.17 366.095V355.535H871.524V359.055H874.406C875.697 359.055 876.716 359.385 877.464 360.045C878.212 360.705 878.586 361.549 878.586 362.575C878.586 363.602 878.212 364.445 877.464 365.105C876.716 365.765 875.697 366.095 874.406 366.095H869.17ZM880.478 366.095V355.535H882.832V366.095H880.478ZM871.524 364.225H873.944C874.648 364.225 875.198 364.086 875.594 363.807C875.99 363.514 876.188 363.103 876.188 362.575C876.188 362.033 875.99 361.622 875.594 361.343C875.198 361.05 874.648 360.903 873.944 360.903H871.524V364.225ZM893.566 353.159C892.686 353.761 891.615 354.061 890.354 354.061C889.092 354.061 888.022 353.761 887.142 353.159V351.245C888.124 351.861 889.195 352.169 890.354 352.169C891.512 352.169 892.583 351.861 893.566 351.245V353.159ZM885.338 366.095V355.535H887.692V362.443L893.346 355.535H895.37V366.095H893.016V359.187L887.362 366.095H885.338ZM905.185 366.095V357.603H901.533V355.535H911.169V357.603H907.539V366.095H905.185ZM914.66 357.185C915.731 355.895 917.088 355.249 918.73 355.249C920.285 355.249 921.546 355.792 922.514 356.877C923.482 357.948 923.966 359.261 923.966 360.815C923.966 362.37 923.482 363.69 922.514 364.775C921.546 365.846 920.285 366.381 918.73 366.381C917.146 366.381 915.878 365.831 914.924 364.731V370.935H912.57V355.535H914.66V357.185ZM920.644 363.345C921.26 362.685 921.568 361.842 921.568 360.815C921.568 359.789 921.26 358.953 920.644 358.307C920.028 357.647 919.244 357.317 918.29 357.317C917.513 357.317 916.824 357.53 916.222 357.955C915.636 358.381 915.203 358.901 914.924 359.517V362.091C915.203 362.722 915.636 363.25 916.222 363.675C916.824 364.101 917.513 364.313 918.29 364.313C919.244 364.313 920.028 363.991 920.644 363.345ZM934.814 363.653C934.814 364.167 935.071 364.423 935.584 364.423C935.76 364.423 935.995 364.379 936.288 364.291V365.985C935.848 366.161 935.349 366.249 934.792 366.249C933.736 366.249 933.032 365.839 932.68 365.017C931.551 365.927 930.223 366.381 928.698 366.381C927.671 366.381 926.799 366.103 926.08 365.545C925.361 364.973 925.002 364.174 925.002 363.147C925.002 361.915 925.464 361.021 926.388 360.463C927.312 359.891 928.419 359.605 929.71 359.605C930.561 359.605 931.477 359.708 932.46 359.913V359.539C932.46 358.865 932.218 358.322 931.734 357.911C931.25 357.501 930.568 357.295 929.688 357.295C928.383 357.295 927.114 357.567 925.882 358.109V355.953C927.261 355.484 928.61 355.249 929.93 355.249C931.47 355.249 932.665 355.631 933.516 356.393C934.381 357.156 934.814 358.315 934.814 359.869V363.653ZM930.172 361.255C929.395 361.255 928.742 361.395 928.214 361.673C927.686 361.952 927.422 362.392 927.422 362.993C927.422 363.492 927.613 363.881 927.994 364.159C928.375 364.423 928.845 364.555 929.402 364.555C930.605 364.555 931.624 364.137 932.46 363.301V361.519C931.609 361.343 930.847 361.255 930.172 361.255ZM937.472 366.095V355.535H939.826V359.781H945.106V355.535H947.46V366.095H945.106V361.849H939.826V366.095H937.472ZM949.305 360.903C949.305 359.07 949.885 357.669 951.043 356.701C952.202 355.733 953.566 355.249 955.135 355.249C956.397 355.249 957.482 355.521 958.391 356.063V358.219C957.57 357.633 956.595 357.339 955.465 357.339C954.424 357.339 953.537 357.633 952.803 358.219C952.07 358.791 951.703 359.657 951.703 360.815C951.703 361.945 952.063 362.81 952.781 363.411C953.515 363.998 954.395 364.291 955.421 364.291C956.536 364.291 957.563 364.02 958.501 363.477V365.655C957.489 366.139 956.323 366.381 955.003 366.381C953.463 366.381 952.129 365.912 950.999 364.973C949.87 364.02 949.305 362.663 949.305 360.903ZM960.353 366.095V355.535H970.341V366.095H967.987V357.603H962.707V366.095H960.353ZM973.859 364.907C972.744 363.925 972.187 362.561 972.187 360.815C972.187 359.07 972.744 357.706 973.859 356.723C974.988 355.741 976.338 355.249 977.907 355.249C979.491 355.249 980.84 355.741 981.955 356.723C983.07 357.706 983.627 359.07 983.627 360.815C983.627 362.561 983.07 363.925 981.955 364.907C980.84 365.89 979.491 366.381 977.907 366.381C976.338 366.381 974.988 365.89 973.859 364.907ZM980.305 363.301C980.921 362.671 981.229 361.842 981.229 360.815C981.229 359.789 980.921 358.967 980.305 358.351C979.689 357.721 978.89 357.405 977.907 357.405C976.91 357.405 976.103 357.721 975.487 358.351C974.871 358.967 974.563 359.789 974.563 360.815C974.563 361.842 974.871 362.671 975.487 363.301C976.103 363.917 976.91 364.225 977.907 364.225C978.89 364.225 979.689 363.917 980.305 363.301ZM987.559 357.185C988.63 355.895 989.987 355.249 991.629 355.249C993.184 355.249 994.445 355.792 995.413 356.877C996.381 357.948 996.865 359.261 996.865 360.815C996.865 362.37 996.381 363.69 995.413 364.775C994.445 365.846 993.184 366.381 991.629 366.381C990.045 366.381 988.777 365.831 987.823 364.731V370.935H985.469V355.535H987.559V357.185ZM993.543 363.345C994.159 362.685 994.467 361.842 994.467 360.815C994.467 359.789 994.159 358.953 993.543 358.307C992.927 357.647 992.143 357.317 991.189 357.317C990.412 357.317 989.723 357.53 989.121 357.955C988.535 358.381 988.102 358.901 987.823 359.517V362.091C988.102 362.722 988.535 363.25 989.121 363.675C989.723 364.101 990.412 364.313 991.189 364.313C992.143 364.313 992.927 363.991 993.543 363.345ZM1001.01 366.095V357.603H997.357V355.535H1006.99V357.603H1003.36V366.095H1001.01Z" fill="white"/>
<g filter="url(#filter10_dd_901_80459)">
<path d="M689.831 213.357V249.161L658.899 267.082L627.948 249.161V213.357L658.899 195.455L689.831 213.357Z" fill="#0B1855"/>
<path d="M706.7 258.934L729.216 271.959L658.899 312.66L588.582 271.959V190.578L658.899 149.877L729.216 190.578L706.7 203.603L658.899 175.927L611.079 203.603V258.934L658.899 286.61L706.7 258.934Z" fill="#30429B"/>
<path d="M659.176 175.448L658.899 175.287L658.622 175.448L610.802 203.123L610.526 203.283V203.603V258.934V259.254L610.802 259.414L658.622 287.089L658.899 287.25L659.176 287.089L706.7 259.574L728.111 271.959L658.899 312.02L589.135 271.64V190.897L658.899 150.517L728.111 190.578L706.7 202.963L659.176 175.448Z" stroke="url(#paint0_linear_901_80459)" stroke-opacity="0.3" stroke-width="1.10736"/>
<path d="M658.899 231.278L627.948 249.161V213.357L658.899 231.278Z" fill="#0B1855"/>
<path d="M689.831 213.357V249.18L658.899 231.278L689.831 213.357Z" fill="#30429B"/>
<path d="M689.831 213.357L658.899 231.278V195.455L689.831 213.357Z" fill="#0B1855"/>
<path d="M689.831 249.18L658.899 267.082V231.278L689.831 249.18Z" fill="#0B1855"/>
<path d="M658.899 231.278V267.082L627.948 249.18V249.161L658.899 231.278Z" fill="#30429B"/>
<path d="M658.899 195.455V231.278L627.948 213.357L658.899 195.455Z" fill="#30429B"/>
</g>
<g filter="url(#filter11_d_901_80459)">
<path d="M445.974 277.224H211.799L211.799 199.262L246.699 179.776H480.874L480.874 257.738L445.974 277.224Z" fill="#30429B" fill-opacity="0.95"/>
<path d="M212.239 199.52L212.239 276.783H445.859L480.434 257.48L480.434 180.216H246.814L212.239 199.52Z" stroke="#3A4DA8" stroke-width="0.880552"/>
</g>
<path d="M268.367 234.319L274.879 218.919H277.629L284.119 234.319H281.479L280.115 230.997H272.393L271.029 234.319H268.367ZM273.251 228.797H279.235L276.529 222.219C276.412 221.896 276.316 221.61 276.243 221.361C276.17 221.61 276.074 221.896 275.957 222.219L273.251 228.797ZM285.275 234.319V223.759H291.303C292.344 223.759 293.158 224.023 293.745 224.551C294.346 225.064 294.647 225.739 294.647 226.575C294.647 227.734 294.148 228.533 293.151 228.973C293.679 229.134 294.112 229.428 294.449 229.853C294.786 230.278 294.955 230.799 294.955 231.415C294.955 232.28 294.662 232.984 294.075 233.527C293.503 234.055 292.638 234.319 291.479 234.319H285.275ZM287.629 228.159H290.775C291.772 228.159 292.271 227.734 292.271 226.883C292.271 226.414 292.124 226.076 291.831 225.871C291.552 225.651 291.2 225.541 290.775 225.541H287.629V228.159ZM287.629 232.537H290.907C292.022 232.537 292.579 232.09 292.579 231.195C292.579 230.286 292.036 229.831 290.951 229.831H287.629V232.537ZM299.289 234.319V225.827H295.637V223.759H305.273V225.827H301.643V234.319H299.289ZM307.407 233.131C306.292 232.148 305.735 230.784 305.735 229.039C305.735 227.294 306.292 225.93 307.407 224.947C308.536 223.964 309.886 223.473 311.455 223.473C313.039 223.473 314.388 223.964 315.503 224.947C316.618 225.93 317.175 227.294 317.175 229.039C317.175 230.784 316.618 232.148 315.503 233.131C314.388 234.114 313.039 234.605 311.455 234.605C309.886 234.605 308.536 234.114 307.407 233.131ZM313.853 231.525C314.469 230.894 314.777 230.066 314.777 229.039C314.777 228.012 314.469 227.191 313.853 226.575C313.237 225.944 312.438 225.629 311.455 225.629C310.458 225.629 309.651 225.944 309.035 226.575C308.419 227.191 308.111 228.012 308.111 229.039C308.111 230.066 308.419 230.894 309.035 231.525C309.651 232.141 310.458 232.449 311.455 232.449C312.438 232.449 313.237 232.141 313.853 231.525ZM319.017 234.319V223.759H329.005V234.319H326.651V225.827H321.371V234.319H319.017ZM330.851 229.039C330.851 228.13 331.012 227.308 331.335 226.575C331.658 225.827 332.083 225.24 332.611 224.815C333.139 224.375 333.711 224.045 334.327 223.825C334.943 223.59 335.566 223.473 336.197 223.473C337.004 223.473 337.73 223.598 338.375 223.847C339.035 224.096 339.563 224.434 339.959 224.859C340.355 225.284 340.678 225.776 340.927 226.333C341.176 226.89 341.308 227.477 341.323 228.093C341.338 228.694 341.286 229.303 341.169 229.919H333.227C333.344 230.814 333.784 231.488 334.547 231.943C335.31 232.383 336.219 232.603 337.275 232.603C338.478 232.603 339.592 232.354 340.619 231.855V233.879C339.607 234.363 338.346 234.605 336.835 234.605C335.119 234.605 333.689 234.121 332.545 233.153C331.416 232.185 330.851 230.814 330.851 229.039ZM339.057 228.159C339.145 227.558 338.962 226.956 338.507 226.355C338.067 225.739 337.334 225.431 336.307 225.431C335.471 225.431 334.752 225.673 334.151 226.157C333.564 226.641 333.249 227.308 333.205 228.159H339.057ZM345.214 225.409C346.284 224.118 347.641 223.473 349.284 223.473C350.838 223.473 352.1 224.016 353.068 225.101C354.036 226.172 354.52 227.484 354.52 229.039C354.52 230.594 354.036 231.914 353.068 232.999C352.1 234.07 350.838 234.605 349.284 234.605C347.7 234.605 346.431 234.055 345.478 232.955V239.159H343.124V223.759H345.214V225.409ZM351.198 231.569C351.814 230.909 352.122 230.066 352.122 229.039C352.122 228.012 351.814 227.176 351.198 226.531C350.582 225.871 349.797 225.541 348.844 225.541C348.066 225.541 347.377 225.754 346.776 226.179C346.189 226.604 345.756 227.125 345.478 227.741V230.315C345.756 230.946 346.189 231.474 346.776 231.899C347.377 232.324 348.066 232.537 348.844 232.537C349.797 232.537 350.582 232.214 351.198 231.569ZM355.709 229.039C355.709 228.13 355.871 227.308 356.193 226.575C356.516 225.827 356.941 225.24 357.469 224.815C357.997 224.375 358.569 224.045 359.185 223.825C359.801 223.59 360.425 223.473 361.055 223.473C361.862 223.473 362.588 223.598 363.233 223.847C363.893 224.096 364.421 224.434 364.817 224.859C365.213 225.284 365.536 225.776 365.785 226.333C366.035 226.89 366.167 227.477 366.181 228.093C366.196 228.694 366.145 229.303 366.027 229.919H358.085C358.203 230.814 358.643 231.488 359.405 231.943C360.168 232.383 361.077 232.603 362.133 232.603C363.336 232.603 364.451 232.354 365.477 231.855V233.879C364.465 234.363 363.204 234.605 361.693 234.605C359.977 234.605 358.547 234.121 357.403 233.153C356.274 232.185 355.709 230.814 355.709 229.039ZM363.915 228.159C364.003 227.558 363.82 226.956 363.365 226.355C362.925 225.739 362.192 225.431 361.165 225.431C360.329 225.431 359.611 225.673 359.009 226.157C358.423 226.641 358.107 227.308 358.063 228.159H363.915ZM367.982 234.319V223.759H374.01C375.051 223.759 375.865 224.023 376.452 224.551C377.053 225.064 377.354 225.739 377.354 226.575C377.354 227.734 376.855 228.533 375.858 228.973C376.386 229.134 376.819 229.428 377.156 229.853C377.493 230.278 377.662 230.799 377.662 231.415C377.662 232.28 377.369 232.984 376.782 233.527C376.21 234.055 375.345 234.319 374.186 234.319H367.982ZM370.336 228.159H373.482C374.479 228.159 374.978 227.734 374.978 226.883C374.978 226.414 374.831 226.076 374.538 225.871C374.259 225.651 373.907 225.541 373.482 225.541H370.336V228.159ZM370.336 232.537H373.614C374.729 232.537 375.286 232.09 375.286 231.195C375.286 230.286 374.743 229.831 373.658 229.831H370.336V232.537ZM380.607 233.131C379.492 232.148 378.935 230.784 378.935 229.039C378.935 227.294 379.492 225.93 380.607 224.947C381.736 223.964 383.085 223.473 384.655 223.473C386.239 223.473 387.588 223.964 388.703 224.947C389.817 225.93 390.375 227.294 390.375 229.039C390.375 230.784 389.817 232.148 388.703 233.131C387.588 234.114 386.239 234.605 384.655 234.605C383.085 234.605 381.736 234.114 380.607 233.131ZM387.053 231.525C387.669 230.894 387.977 230.066 387.977 229.039C387.977 228.012 387.669 227.191 387.053 226.575C386.437 225.944 385.637 225.629 384.655 225.629C383.657 225.629 382.851 225.944 382.235 226.575C381.619 227.191 381.311 228.012 381.311 229.039C381.311 230.066 381.619 230.894 382.235 231.525C382.851 232.141 383.657 232.449 384.655 232.449C385.637 232.449 386.437 232.141 387.053 231.525ZM400.339 231.437C400.339 232.39 399.906 233.16 399.041 233.747C398.19 234.319 396.973 234.605 395.389 234.605C393.849 234.605 392.529 234.319 391.429 233.747V231.723C392.47 232.31 393.688 232.603 395.081 232.603C397.002 232.603 397.963 232.119 397.963 231.151C397.963 230.286 397.23 229.853 395.763 229.853H393.607V228.049H395.763C397.083 228.049 397.743 227.653 397.743 226.861C397.743 226.406 397.516 226.062 397.061 225.827C396.606 225.578 395.99 225.453 395.213 225.453C393.893 225.453 392.698 225.739 391.627 226.311V224.287C392.786 223.73 394.076 223.451 395.499 223.451C397.039 223.451 398.19 223.737 398.953 224.309C399.73 224.881 400.119 225.629 400.119 226.553C400.119 227.154 399.95 227.66 399.613 228.071C399.276 228.482 398.821 228.76 398.249 228.907C398.88 229.083 399.386 229.391 399.767 229.831C400.148 230.256 400.339 230.792 400.339 231.437ZM402.262 234.319V223.759H404.616V227.939H406.354L409.39 223.759H412.074L408.246 228.995L412.492 234.319H409.786L406.31 229.941H404.616V234.319H402.262ZM413.595 234.319V223.759H415.949V230.667L421.603 223.759H423.627V234.319H421.273V227.411L415.619 234.319H413.595Z" fill="white"/>
<g filter="url(#filter12_d_901_80459)">
<path d="M1073.3 277.224H839.126L839.126 199.262L874.026 179.776H1108.2L1108.2 257.738L1073.3 277.224Z" fill="#30429B" fill-opacity="0.95"/>
<path d="M839.566 199.52L839.566 276.783H1073.19L1107.76 257.48L1107.76 180.216H874.141L839.566 199.52Z" stroke="#3A4DA8" stroke-width="0.880552"/>
</g>
<path d="M873.35 234.319V218.919H886.286V234.319H883.778V221.229H875.858V234.319H873.35ZM891.276 225.409C892.347 224.118 893.704 223.473 895.346 223.473C896.901 223.473 898.162 224.016 899.13 225.101C900.098 226.172 900.582 227.484 900.582 229.039C900.582 230.594 900.098 231.914 899.13 232.999C898.162 234.07 896.901 234.605 895.346 234.605C893.762 234.605 892.494 234.055 891.54 232.955V239.159H889.186V223.759H891.276V225.409ZM897.26 231.569C897.876 230.909 898.184 230.066 898.184 229.039C898.184 228.012 897.876 227.176 897.26 226.531C896.644 225.871 895.86 225.541 894.906 225.541C894.129 225.541 893.44 225.754 892.838 226.179C892.252 226.604 891.819 227.125 891.54 227.741V230.315C891.819 230.946 892.252 231.474 892.838 231.899C893.44 232.324 894.129 232.537 894.906 232.537C895.86 232.537 896.644 232.214 897.26 231.569ZM903.444 233.131C902.329 232.148 901.772 230.784 901.772 229.039C901.772 227.294 902.329 225.93 903.444 224.947C904.573 223.964 905.923 223.473 907.492 223.473C909.076 223.473 910.425 223.964 911.54 224.947C912.655 225.93 913.212 227.294 913.212 229.039C913.212 230.784 912.655 232.148 911.54 233.131C910.425 234.114 909.076 234.605 907.492 234.605C905.923 234.605 904.573 234.114 903.444 233.131ZM909.89 231.525C910.506 230.894 910.814 230.066 910.814 229.039C910.814 228.012 910.506 227.191 909.89 226.575C909.274 225.944 908.475 225.629 907.492 225.629C906.495 225.629 905.688 225.944 905.072 226.575C904.456 227.191 904.148 228.012 904.148 229.039C904.148 230.066 904.456 230.894 905.072 231.525C905.688 232.141 906.495 232.449 907.492 232.449C908.475 232.449 909.274 232.141 909.89 231.525ZM915.054 234.319V223.759H917.408V230.667L923.062 223.759H925.086V234.319H922.732V227.411L917.078 234.319H915.054ZM935.863 231.437C935.863 232.39 935.43 233.16 934.565 233.747C933.714 234.319 932.497 234.605 930.913 234.605C929.373 234.605 928.053 234.319 926.953 233.747V231.723C927.994 232.31 929.212 232.603 930.605 232.603C932.526 232.603 933.487 232.119 933.487 231.151C933.487 230.286 932.754 229.853 931.287 229.853H929.131V228.049H931.287C932.607 228.049 933.267 227.653 933.267 226.861C933.267 226.406 933.04 226.062 932.585 225.827C932.13 225.578 931.514 225.453 930.737 225.453C929.417 225.453 928.222 225.739 927.151 226.311V224.287C928.31 223.73 929.6 223.451 931.023 223.451C932.563 223.451 933.714 223.737 934.477 224.309C935.254 224.881 935.643 225.629 935.643 226.553C935.643 227.154 935.474 227.66 935.137 228.071C934.8 228.482 934.345 228.76 933.773 228.907C934.404 229.083 934.91 229.391 935.291 229.831C935.672 230.256 935.863 230.792 935.863 231.437ZM937.786 234.319V223.759H943.814C944.855 223.759 945.669 224.023 946.256 224.551C946.857 225.064 947.158 225.739 947.158 226.575C947.158 227.734 946.659 228.533 945.662 228.973C946.19 229.134 946.622 229.428 946.96 229.853C947.297 230.278 947.466 230.799 947.466 231.415C947.466 232.28 947.172 232.984 946.586 233.527C946.014 234.055 945.148 234.319 943.99 234.319H937.786ZM940.14 228.159H943.286C944.283 228.159 944.782 227.734 944.782 226.883C944.782 226.414 944.635 226.076 944.342 225.871C944.063 225.651 943.711 225.541 943.286 225.541H940.14V228.159ZM940.14 232.537H943.418C944.532 232.537 945.09 232.09 945.09 231.195C945.09 230.286 944.547 229.831 943.462 229.831H940.14V232.537ZM950.41 233.131C949.296 232.148 948.738 230.784 948.738 229.039C948.738 227.294 949.296 225.93 950.41 224.947C951.54 223.964 952.889 223.473 954.458 223.473C956.042 223.473 957.392 223.964 958.506 224.947C959.621 225.93 960.178 227.294 960.178 229.039C960.178 230.784 959.621 232.148 958.506 233.131C957.392 234.114 956.042 234.605 954.458 234.605C952.889 234.605 951.54 234.114 950.41 233.131ZM956.856 231.525C957.472 230.894 957.78 230.066 957.78 229.039C957.78 228.012 957.472 227.191 956.856 226.575C956.24 225.944 955.441 225.629 954.458 225.629C953.461 225.629 952.654 225.944 952.038 226.575C951.422 227.191 951.114 228.012 951.114 229.039C951.114 230.066 951.422 230.894 952.038 231.525C952.654 232.141 953.461 232.449 954.458 232.449C955.441 232.449 956.24 232.141 956.856 231.525ZM960.817 237.157V232.383H962.269C963.428 230.33 963.985 227.455 963.941 223.759H972.191V232.383H973.753V237.157H971.531V234.319H963.039V237.157H960.817ZM966.141 225.695C966.053 228.335 965.584 230.564 964.733 232.383H969.815V225.695H966.141ZM974.585 229.127C974.585 227.294 975.164 225.893 976.323 224.925C977.482 223.957 978.846 223.473 980.415 223.473C981.676 223.473 982.762 223.744 983.671 224.287V226.443C982.85 225.856 981.874 225.563 980.745 225.563C979.704 225.563 978.816 225.856 978.083 226.443C977.35 227.015 976.983 227.88 976.983 229.039C976.983 230.168 977.342 231.034 978.061 231.635C978.794 232.222 979.674 232.515 980.701 232.515C981.816 232.515 982.842 232.244 983.781 231.701V233.879C982.769 234.363 981.603 234.605 980.283 234.605C978.743 234.605 977.408 234.136 976.279 233.197C975.15 232.244 974.585 230.887 974.585 229.127ZM988.185 234.319V225.827H984.533V223.759H994.169V225.827H990.539V234.319H988.185ZM995.57 234.319V223.759H1001.6C1002.64 223.759 1003.45 224.023 1004.04 224.551C1004.64 225.064 1004.94 225.739 1004.94 226.575C1004.94 227.734 1004.44 228.533 1003.45 228.973C1003.97 229.134 1004.41 229.428 1004.74 229.853C1005.08 230.278 1005.25 230.799 1005.25 231.415C1005.25 232.28 1004.96 232.984 1004.37 233.527C1003.8 234.055 1002.93 234.319 1001.77 234.319H995.57ZM997.924 228.159H1001.07C1002.07 228.159 1002.57 227.734 1002.57 226.883C1002.57 226.414 1002.42 226.076 1002.13 225.871C1001.85 225.651 1001.5 225.541 1001.07 225.541H997.924V228.159ZM997.924 232.537H1001.2C1002.32 232.537 1002.87 232.09 1002.87 231.195C1002.87 230.286 1002.33 229.831 1001.25 229.831H997.924V232.537ZM1008.19 233.131C1007.08 232.148 1006.52 230.784 1006.52 229.039C1006.52 227.294 1007.08 225.93 1008.19 224.947C1009.32 223.964 1010.67 223.473 1012.24 223.473C1013.83 223.473 1015.18 223.964 1016.29 224.947C1017.41 225.93 1017.96 227.294 1017.96 229.039C1017.96 230.784 1017.41 232.148 1016.29 233.131C1015.18 234.114 1013.83 234.605 1012.24 234.605C1010.67 234.605 1009.32 234.114 1008.19 233.131ZM1014.64 231.525C1015.26 230.894 1015.56 230.066 1015.56 229.039C1015.56 228.012 1015.26 227.191 1014.64 226.575C1014.02 225.944 1013.23 225.629 1012.24 225.629C1011.25 225.629 1010.44 225.944 1009.82 226.575C1009.21 227.191 1008.9 228.012 1008.9 229.039C1008.9 230.066 1009.21 230.894 1009.82 231.525C1010.44 232.141 1011.25 232.449 1012.24 232.449C1013.23 232.449 1014.02 232.141 1014.64 231.525ZM1023.22 234.319L1028.04 226.421L1023.62 218.919H1026.43L1030.06 225.343H1032.42V218.919H1034.93V225.343H1037.26L1040.89 218.919H1043.73L1039.28 226.421L1044.1 234.319H1041.28L1037.24 227.653H1034.93V234.319H1032.42V227.653H1030.09L1026.06 234.319H1023.22ZM1051.95 224.903C1055.88 224.903 1057.85 226.48 1057.85 229.633C1057.85 232.757 1055.88 234.319 1051.95 234.319H1045.66V218.919H1056.64V221.229H1048.17V224.903H1051.95ZM1052 232.031C1052.47 232.031 1052.87 232.002 1053.21 231.943C1053.56 231.884 1053.9 231.782 1054.24 231.635C1054.59 231.474 1054.86 231.224 1055.03 230.887C1055.21 230.55 1055.3 230.132 1055.3 229.633C1055.3 229.12 1055.2 228.694 1055.01 228.357C1054.84 228.02 1054.58 227.77 1054.24 227.609C1053.9 227.448 1053.56 227.338 1053.21 227.279C1052.87 227.22 1052.47 227.191 1052 227.191H1048.17V232.031H1052ZM1073.14 234.319H1070.63V224.727C1070.63 223.964 1070.64 223.407 1070.65 223.055L1062.36 234.319H1060V218.919H1062.51V228.489C1062.51 229.266 1062.5 229.831 1062.49 230.183L1070.78 218.919H1073.14V234.319Z" fill="white"/>
<g clip-path="url(#clip0_901_80459)">
<path d="M1118.93 72H1091.07C1088.27 72 1086 74.2099 1086 76.9383V110.272C1086 113 1088.27 115.21 1091.07 115.21H1118.93C1121.73 115.21 1124 113 1124 110.272V76.9383C1124 74.2099 1121.73 72 1118.93 72ZM1101.83 76.0123H1108.17C1109.22 76.0123 1110.07 76.8395 1110.07 77.8642C1110.07 78.8889 1109.22 79.716 1108.17 79.716H1101.83C1100.78 79.716 1099.93 78.8889 1099.93 77.8642C1099.93 76.8395 1100.78 76.0123 1101.83 76.0123ZM1094.23 108.111C1092.49 108.111 1091.07 106.728 1091.07 105.025C1091.07 103.321 1092.49 101.938 1094.23 101.938C1095.98 101.938 1097.4 103.321 1097.4 105.025C1097.4 106.728 1095.98 108.111 1094.23 108.111ZM1102.47 94.5309C1102.47 94.8765 1102.19 95.1481 1101.83 95.1481H1092.33V85.1975C1092.33 84.5556 1092.87 84.037 1093.52 84.037H1101.83C1102.19 84.037 1102.47 84.3086 1102.47 84.6543V94.5309ZM1107.53 94.5309V84.6543C1107.53 84.3086 1107.81 84.037 1108.17 84.037H1116.48C1117.13 84.037 1117.67 84.5556 1117.67 85.1975V95.1481H1108.17C1107.81 95.1481 1107.53 94.8765 1107.53 94.5309ZM1115.77 108.111C1114.02 108.111 1112.6 106.728 1112.6 105.025C1112.6 103.321 1114.02 101.938 1115.77 101.938C1117.51 101.938 1118.93 103.321 1118.93 105.025C1118.93 106.728 1117.51 108.111 1115.77 108.111Z" fill="#3A4DA8"/>
<path d="M1118.26 118.296H1091.66C1090.61 118.296 1089.76 119.124 1089.76 120.148C1089.76 121.173 1090.61 122 1091.66 122H1118.26C1119.31 122 1120.16 121.173 1120.16 120.148C1120.16 119.124 1119.31 118.296 1118.26 118.296Z" fill="#4962D8"/>
</g>
<g clip-path="url(#clip1_901_80459)">
<path d="M1100.6 343.274H1107.6C1107.99 343.274 1108.3 342.96 1108.3 342.559V335.715C1108.3 335.314 1107.99 335 1107.6 335H1100.6C1100.2 335 1099.9 335.314 1099.9 335.715V342.559C1099.9 342.96 1100.2 343.274 1100.6 343.274ZM1086.58 343.274H1093.59C1093.98 343.274 1094.29 342.96 1094.29 342.559V335.715C1094.29 335.314 1093.98 335 1093.59 335H1086.58C1086.19 335 1085.88 335.314 1085.88 335.715V342.559C1085.88 342.96 1086.19 343.274 1086.58 343.274ZM1131.2 360.565H1115.74C1115.03 360.565 1114.34 360.836 1113.82 361.337L1109.49 365.495C1108.98 365.995 1108.29 366.267 1107.57 366.267H1079.8C1078.05 366.267 1076.73 367.881 1077.04 369.639L1078.82 379.642C1079.06 381 1080.22 381.986 1081.58 381.986H1125.16C1126.31 381.986 1127.34 381.271 1127.76 380.171L1133.79 364.452C1134.5 362.58 1133.16 360.551 1131.18 360.551L1131.2 360.565Z" fill="#3A4DA8"/>
<path d="M1124.98 355.992L1121.1 347.275C1120.98 347.018 1120.73 346.861 1120.45 346.861H1083.78C1083.39 346.861 1083.08 347.175 1083.08 347.575V361.865C1083.08 362.266 1083.39 362.58 1083.78 362.58H1107.43L1111.41 358.75C1112.59 357.621 1114.13 356.992 1115.74 356.992H1124.36C1124.86 356.992 1125.21 356.449 1125 355.978L1124.98 355.992ZM1091.47 356.149C1091.47 356.549 1091.17 356.864 1090.77 356.864H1087.97C1087.58 356.864 1087.27 356.549 1087.27 356.149V353.291C1087.27 352.891 1087.58 352.577 1087.97 352.577H1090.77C1091.17 352.577 1091.47 352.891 1091.47 353.291V356.149ZM1098.48 356.149C1098.48 356.549 1098.17 356.864 1097.78 356.864H1094.98C1094.58 356.864 1094.28 356.549 1094.28 356.149V353.291C1094.28 352.891 1094.58 352.577 1094.98 352.577H1097.78C1098.17 352.577 1098.48 352.891 1098.48 353.291V356.149ZM1105.49 356.149C1105.49 356.549 1105.18 356.864 1104.79 356.864H1101.98C1101.59 356.864 1101.28 356.549 1101.28 356.149V353.291C1101.28 352.891 1101.59 352.577 1101.98 352.577H1104.79C1105.18 352.577 1105.49 352.891 1105.49 353.291V356.149Z" fill="#4962D8"/>
</g>
<g clip-path="url(#clip2_901_80459)">
<path d="M154.353 211.143H149.647C148.353 211.143 147.294 212.214 147.294 213.524C147.294 214.833 148.353 215.905 149.647 215.905H154.353C155.647 215.905 156.706 214.833 156.706 213.524C156.706 212.214 155.647 211.143 154.353 211.143Z" fill="#4962D8"/>
<path d="M171.976 225.167L170.118 208.238C169.847 205.821 167.835 204 165.435 204H138.565C136.165 204 134.153 205.821 133.882 208.238L132.024 225.167C132.024 225.345 132 225.512 132 225.69V251.619C132 252.929 133.059 254 134.353 254H136.706C138 254 139.059 252.929 139.059 251.619V247.452C139.059 247.119 139.318 246.857 139.647 246.857H164.353C164.682 246.857 164.941 247.119 164.941 247.452V251.619C164.941 252.929 166 254 167.294 254H169.647C170.941 254 172 252.929 172 251.619V225.69C172 225.512 171.976 225.345 171.976 225.167ZM138.906 210.988C138.988 209.738 140.012 208.762 141.259 208.762H162.741C163.976 208.762 165 209.738 165.094 210.988L166.012 224.798C166.035 225.143 165.765 225.429 165.424 225.429H138.576C138.235 225.429 137.965 225.143 137.988 224.798L138.906 210.988ZM142.588 238.524C142.588 239.179 142.059 239.714 141.412 239.714H137.882C137.235 239.714 136.706 239.179 136.706 238.524V234.952C136.706 234.298 137.235 233.762 137.882 233.762H141.412C142.059 233.762 142.588 234.298 142.588 234.952V238.524ZM155.529 238.524H148.471C147.494 238.524 146.706 237.726 146.706 236.738C146.706 235.75 147.494 234.952 148.471 234.952H155.529C156.506 234.952 157.294 235.75 157.294 236.738C157.294 237.726 156.506 238.524 155.529 238.524ZM168.471 238.524C168.471 239.179 167.941 239.714 167.294 239.714H162.588C161.941 239.714 161.412 239.179 161.412 238.524V234.952C161.412 234.298 161.941 233.762 162.588 233.762H167.294C167.941 233.762 168.471 234.298 168.471 234.952V238.524Z" fill="#3A4DA8"/>
</g>
<g clip-path="url(#clip3_901_80459)">
<path d="M205.538 340C202.363 340 199.723 342.174 199.069 345.085C198.429 344.723 197.684 344.503 196.9 344.503C194.508 344.503 192.574 346.392 192.574 348.721C192.574 351.05 194.351 352.784 196.612 352.926H205.839C209.367 352.784 212.177 349.95 212.177 346.47C212.177 342.989 209.198 340 205.538 340Z" fill="#4962D8"/>
<path d="M241.908 381.043L222.593 347.285C221.574 345.512 218.986 345.538 218.019 347.336L210.165 361.919C210.06 362.113 210.06 362.346 210.165 362.54L214.15 369.436C214.908 370.743 214.634 372.36 213.589 373.357C213.131 373.292 213.014 373.266 212.556 373.201L204.31 358.917C203.29 357.144 200.69 357.183 199.723 358.994L188.078 381.055C187.856 381.482 188.17 382 188.653 382H241.347C241.843 382 242.157 381.47 241.908 381.03V381.043Z" fill="#3A4DA8"/>
</g>
<g clip-path="url(#clip4_901_80459)">
<path d="M215.488 78.3359C217.58 79.7505 220.434 79.2029 221.853 77.119C223.273 75.035 222.723 72.1905 220.632 70.7759C218.541 69.3612 215.687 69.9088 214.267 71.9928C212.848 74.0767 213.397 76.9212 215.488 78.3359ZM204.758 88.6947C205.415 87.7364 206.208 86.8998 207.109 86.2001L203.446 83.1578C205.125 80.1004 204.27 76.2063 201.309 74.2136C198.165 72.0992 193.891 72.9207 191.77 76.039C189.648 79.1725 190.472 83.4316 193.601 85.546C195.555 86.8694 197.951 87.0519 199.996 86.2305L204.148 89.6835C204.331 89.3488 204.53 89.0142 204.758 88.6947ZM209.139 105.29L206.941 113.489C205.674 113.778 204.499 114.523 203.705 115.68C202.057 118.113 202.698 121.429 205.14 123.072C207.582 124.715 210.91 124.076 212.558 121.642C214.145 119.315 213.611 116.197 211.413 114.493L213.565 106.446C212.024 106.355 210.513 105.975 209.139 105.29ZM227.363 91.9347L222.128 92.2846C221.548 90.6722 220.495 89.1967 218.953 88.1623C217.518 87.1888 215.87 86.7173 214.252 86.7173C211.566 86.7173 208.91 88.0102 207.292 90.3984C204.697 94.2316 205.705 99.4187 209.536 102.02C210.971 102.993 212.619 103.465 214.237 103.465C216.923 103.465 219.579 102.172 221.197 99.7838C221.823 98.8559 222.235 97.8671 222.448 96.8328L227.668 96.4829C227.211 95.0226 227.104 93.4559 227.363 91.9347Z" fill="#3A4DA8"/>
<path d="M196.715 97.0305C193.571 94.9161 189.297 95.7375 187.175 98.8558C185.054 101.989 185.878 106.248 189.007 108.363C192.151 110.477 196.425 109.656 198.546 106.537C200.668 103.404 199.844 99.1448 196.715 97.0305ZM240.978 87.9037C239.803 87.1127 238.459 86.7324 237.132 86.7324C234.934 86.7324 232.766 87.782 231.438 89.7443C229.317 92.8778 230.141 97.1369 233.27 99.2513C234.445 100.042 235.788 100.423 237.116 100.423C239.314 100.423 241.482 99.373 242.809 97.4107C244.931 94.2772 244.107 90.0181 240.978 87.9037Z" fill="#4962D8"/>
</g>
<g clip-path="url(#clip5_901_80459)">
<path d="M1189.53 223.851H1145.31C1144.97 223.851 1144.71 224.107 1144.71 224.432V249.419C1144.71 249.744 1144.97 250 1145.31 250H1189.53C1189.86 250 1190.12 249.744 1190.12 249.419V224.432C1190.12 224.107 1189.86 223.851 1189.53 223.851ZM1154.8 239.959C1154.8 240.284 1154.53 240.54 1154.2 240.54H1148.22C1147.89 240.54 1147.63 240.284 1147.63 239.959V236.472C1147.63 236.147 1147.89 235.891 1148.22 235.891H1154.2C1154.53 235.891 1154.8 236.147 1154.8 236.472V239.959ZM1154.8 231.824C1154.8 232.149 1154.53 232.405 1154.2 232.405H1148.22C1147.89 232.405 1147.63 232.149 1147.63 231.824V228.337C1147.63 228.012 1147.89 227.756 1148.22 227.756H1154.2C1154.53 227.756 1154.8 228.012 1154.8 228.337V231.824ZM1165.71 239.959C1165.71 240.284 1165.44 240.54 1165.11 240.54H1159.13C1158.8 240.54 1158.54 240.284 1158.54 239.959V236.472C1158.54 236.147 1158.8 235.891 1159.13 235.891H1165.11C1165.44 235.891 1165.71 236.147 1165.71 236.472V239.959ZM1165.71 231.824C1165.71 232.149 1165.44 232.405 1165.11 232.405H1159.13C1158.8 232.405 1158.54 232.149 1158.54 231.824V228.337C1158.54 228.012 1158.8 227.756 1159.13 227.756H1165.11C1165.44 227.756 1165.71 228.012 1165.71 228.337V231.824ZM1176.31 239.959C1176.31 240.284 1176.05 240.54 1175.71 240.54H1169.73C1169.4 240.54 1169.14 240.284 1169.14 239.959V236.472C1169.14 236.147 1169.4 235.891 1169.73 235.891H1175.71C1176.05 235.891 1176.31 236.147 1176.31 236.472V239.959ZM1176.31 231.824C1176.31 232.149 1176.05 232.405 1175.71 232.405H1169.73C1169.4 232.405 1169.14 232.149 1169.14 231.824V228.337C1169.14 228.012 1169.4 227.756 1169.73 227.756H1175.71C1176.05 227.756 1176.31 228.012 1176.31 228.337V231.824ZM1187.22 239.959C1187.22 240.284 1186.96 240.54 1186.62 240.54H1180.65C1180.31 240.54 1180.05 240.284 1180.05 239.959V236.472C1180.05 236.147 1180.31 235.891 1180.65 235.891H1186.62C1186.96 235.891 1187.22 236.147 1187.22 236.472V239.959ZM1187.22 231.824C1187.22 232.149 1186.96 232.405 1186.62 232.405H1180.65C1180.31 232.405 1180.05 232.149 1180.05 231.824V228.337C1180.05 228.012 1180.31 227.756 1180.65 227.756H1186.62C1186.96 227.756 1187.22 228.012 1187.22 228.337V231.824Z" fill="#3A4DA8"/>
<path d="M1190.21 217.459H1180.63V212.811H1186.12C1186.49 212.811 1186.68 212.392 1186.44 212.125L1184.72 210.173C1184.59 210.022 1184.59 209.789 1184.72 209.638L1186.44 207.686C1186.68 207.418 1186.48 207 1186.12 207H1178.09C1177.85 207 1177.66 207.186 1177.66 207.418V208.162V217.459H1167.5V212.811H1172.99C1173.36 212.811 1173.55 212.392 1173.31 212.125L1171.59 210.173C1171.46 210.022 1171.46 209.789 1171.59 209.638L1173.31 207.686C1173.55 207.418 1173.34 207 1172.99 207H1164.95C1164.72 207 1164.52 207.186 1164.52 207.418V208.162V217.459H1154.37V212.811H1159.85C1160.22 212.811 1160.41 212.392 1160.17 212.125L1158.45 210.173C1158.32 210.022 1158.32 209.789 1158.45 209.638L1160.17 207.686C1160.41 207.418 1160.21 207 1159.85 207H1151.82C1151.58 207 1151.39 207.186 1151.39 207.418V208.162V217.459H1144.79C1143.8 217.459 1143 218.238 1143 219.203C1143 220.167 1143.8 220.946 1144.79 220.946H1190.21C1191.2 220.946 1192 220.167 1192 219.203C1192 218.238 1191.2 217.459 1190.21 217.459Z" fill="#4962D8"/>
</g>
<defs>
<filter id="filter0_d_901_80459" x="876.067" y="36.9264" width="308.941" height="137.313" filterUnits="userSpaceOnUse" color-interpolation-filters="sRGB">
<feFlood flood-opacity="0" result="BackgroundImageFix"/>
<feColorMatrix in="SourceAlpha" type="matrix" values="0 0 0 0 0 0 0 0 0 0 0 0 0 0 0 0 0 0 127 0" result="hardAlpha"/>
<feOffset dy="8.85889"/>
<feGaussianBlur stdDeviation="9.96625"/>
<feColorMatrix type="matrix" values="0 0 0 0 0.0941176 0 0 0 0 0.152941 0 0 0 0 0.294118 0 0 0 0.24 0"/>
<feBlend mode="multiply" in2="BackgroundImageFix" result="effect1_dropShadow_901_80459"/>
<feBlend mode="normal" in="SourceGraphic" in2="effect1_dropShadow_901_80459" result="shape"/>
</filter>
<filter id="filter1_d_901_80459" x="135.067" y="36.9264" width="308.941" height="137.313" filterUnits="userSpaceOnUse" color-interpolation-filters="sRGB">
<feFlood flood-opacity="0" result="BackgroundImageFix"/>
<feColorMatrix in="SourceAlpha" type="matrix" values="0 0 0 0 0 0 0 0 0 0 0 0 0 0 0 0 0 0 127 0" result="hardAlpha"/>
<feOffset dy="8.85889"/>
<feGaussianBlur stdDeviation="9.96625"/>
<feColorMatrix type="matrix" values="0 0 0 0 0.0941176 0 0 0 0 0.152941 0 0 0 0 0.294118 0 0 0 0.24 0"/>
<feBlend mode="multiply" in2="BackgroundImageFix" result="effect1_dropShadow_901_80459"/>
<feBlend mode="normal" in="SourceGraphic" in2="effect1_dropShadow_901_80459" result="shape"/>
</filter>
<filter id="filter2_d_901_80459" x="135.067" y="299.926" width="308.941" height="137.313" filterUnits="userSpaceOnUse" color-interpolation-filters="sRGB">
<feFlood flood-opacity="0" result="BackgroundImageFix"/>
<feColorMatrix in="SourceAlpha" type="matrix" values="0 0 0 0 0 0 0 0 0 0 0 0 0 0 0 0 0 0 127 0" result="hardAlpha"/>
<feOffset dy="8.85889"/>
<feGaussianBlur stdDeviation="9.96625"/>
<feColorMatrix type="matrix" values="0 0 0 0 0.0941176 0 0 0 0 0.152941 0 0 0 0 0.294118 0 0 0 0.24 0"/>
<feBlend mode="multiply" in2="BackgroundImageFix" result="effect1_dropShadow_901_80459"/>
<feBlend mode="normal" in="SourceGraphic" in2="effect1_dropShadow_901_80459" result="shape"/>
</filter>
<filter id="filter3_d_901_80459" x="72.0675" y="168.926" width="308.941" height="137.313" filterUnits="userSpaceOnUse" color-interpolation-filters="sRGB">
<feFlood flood-opacity="0" result="BackgroundImageFix"/>
<feColorMatrix in="SourceAlpha" type="matrix" values="0 0 0 0 0 0 0 0 0 0 0 0 0 0 0 0 0 0 127 0" result="hardAlpha"/>
<feOffset dy="8.85889"/>
<feGaussianBlur stdDeviation="9.96625"/>
<feColorMatrix type="matrix" values="0 0 0 0 0.0941176 0 0 0 0 0.152941 0 0 0 0 0.294118 0 0 0 0.24 0"/>
<feBlend mode="multiply" in2="BackgroundImageFix" result="effect1_dropShadow_901_80459"/>
<feBlend mode="normal" in="SourceGraphic" in2="effect1_dropShadow_901_80459" result="shape"/>
</filter>
<filter id="filter4_d_901_80459" x="939.067" y="168.926" width="308.941" height="137.313" filterUnits="userSpaceOnUse" color-interpolation-filters="sRGB">
<feFlood flood-opacity="0" result="BackgroundImageFix"/>
<feColorMatrix in="SourceAlpha" type="matrix" values="0 0 0 0 0 0 0 0 0 0 0 0 0 0 0 0 0 0 127 0" result="hardAlpha"/>
<feOffset dy="8.85889"/>
<feGaussianBlur stdDeviation="9.96625"/>
<feColorMatrix type="matrix" values="0 0 0 0 0.0941176 0 0 0 0 0.152941 0 0 0 0 0.294118 0 0 0 0.24 0"/>
<feBlend mode="multiply" in2="BackgroundImageFix" result="effect1_dropShadow_901_80459"/>
<feBlend mode="normal" in="SourceGraphic" in2="effect1_dropShadow_901_80459" result="shape"/>
</filter>
<filter id="filter5_d_901_80459" x="876.067" y="299.926" width="308.941" height="137.313" filterUnits="userSpaceOnUse" color-interpolation-filters="sRGB">
<feFlood flood-opacity="0" result="BackgroundImageFix"/>
<feColorMatrix in="SourceAlpha" type="matrix" values="0 0 0 0 0 0 0 0 0 0 0 0 0 0 0 0 0 0 127 0" result="hardAlpha"/>
<feOffset dy="8.85889"/>
<feGaussianBlur stdDeviation="9.96625"/>
<feColorMatrix type="matrix" values="0 0 0 0 0.0941176 0 0 0 0 0.152941 0 0 0 0 0.294118 0 0 0 0.24 0"/>
<feBlend mode="multiply" in2="BackgroundImageFix" result="effect1_dropShadow_901_80459"/>
<feBlend mode="normal" in="SourceGraphic" in2="effect1_dropShadow_901_80459" result="shape"/>
</filter>
<filter id="filter6_d_901_80459" x="255.266" y="36.9264" width="308.941" height="137.313" filterUnits="userSpaceOnUse" color-interpolation-filters="sRGB">
<feFlood flood-opacity="0" result="BackgroundImageFix"/>
<feColorMatrix in="SourceAlpha" type="matrix" values="0 0 0 0 0 0 0 0 0 0 0 0 0 0 0 0 0 0 127 0" result="hardAlpha"/>
<feOffset dy="8.85889"/>
<feGaussianBlur stdDeviation="9.96625"/>
<feColorMatrix type="matrix" values="0 0 0 0 0.0941176 0 0 0 0 0.152941 0 0 0 0 0.294118 0 0 0 0.24 0"/>
<feBlend mode="multiply" in2="BackgroundImageFix" result="effect1_dropShadow_901_80459"/>
<feBlend mode="normal" in="SourceGraphic" in2="effect1_dropShadow_901_80459" result="shape"/>
</filter>
<filter id="filter7_d_901_80459" x="255.266" y="300.479" width="308.941" height="137.313" filterUnits="userSpaceOnUse" color-interpolation-filters="sRGB">
<feFlood flood-opacity="0" result="BackgroundImageFix"/>
<feColorMatrix in="SourceAlpha" type="matrix" values="0 0 0 0 0 0 0 0 0 0 0 0 0 0 0 0 0 0 127 0" result="hardAlpha"/>
<feOffset dy="8.85889"/>
<feGaussianBlur stdDeviation="9.96625"/>
<feColorMatrix type="matrix" values="0 0 0 0 0.0941176 0 0 0 0 0.152941 0 0 0 0 0.294118 0 0 0 0.24 0"/>
<feBlend mode="multiply" in2="BackgroundImageFix" result="effect1_dropShadow_901_80459"/>
<feBlend mode="normal" in="SourceGraphic" in2="effect1_dropShadow_901_80459" result="shape"/>
</filter>
<filter id="filter8_d_901_80459" x="755.793" y="36.9264" width="308.941" height="137.313" filterUnits="userSpaceOnUse" color-interpolation-filters="sRGB">
<feFlood flood-opacity="0" result="BackgroundImageFix"/>
<feColorMatrix in="SourceAlpha" type="matrix" values="0 0 0 0 0 0 0 0 0 0 0 0 0 0 0 0 0 0 127 0" result="hardAlpha"/>
<feOffset dy="8.85889"/>
<feGaussianBlur stdDeviation="9.96625"/>
<feColorMatrix type="matrix" values="0 0 0 0 0.0941176 0 0 0 0 0.152941 0 0 0 0 0.294118 0 0 0 0.24 0"/>
<feBlend mode="multiply" in2="BackgroundImageFix" result="effect1_dropShadow_901_80459"/>
<feBlend mode="normal" in="SourceGraphic" in2="effect1_dropShadow_901_80459" result="shape"/>
</filter>
<filter id="filter9_d_901_80459" x="755.793" y="300.479" width="308.941" height="137.313" filterUnits="userSpaceOnUse" color-interpolation-filters="sRGB">
<feFlood flood-opacity="0" result="BackgroundImageFix"/>
<feColorMatrix in="SourceAlpha" type="matrix" values="0 0 0 0 0 0 0 0 0 0 0 0 0 0 0 0 0 0 127 0" result="hardAlpha"/>
<feOffset dy="8.85889"/>
<feGaussianBlur stdDeviation="9.96625"/>
<feColorMatrix type="matrix" values="0 0 0 0 0.0941176 0 0 0 0 0.152941 0 0 0 0 0.294118 0 0 0 0.24 0"/>
<feBlend mode="multiply" in2="BackgroundImageFix" result="effect1_dropShadow_901_80459"/>
<feBlend mode="normal" in="SourceGraphic" in2="effect1_dropShadow_901_80459" result="shape"/>
</filter>
<filter id="filter10_dd_901_80459" x="546.502" y="121.086" width="224.794" height="246.942" filterUnits="userSpaceOnUse" color-interpolation-filters="sRGB">
<feFlood flood-opacity="0" result="BackgroundImageFix"/>
<feColorMatrix in="SourceAlpha" type="matrix" values="0 0 0 0 0 0 0 0 0 0 0 0 0 0 0 0 0 0 127 0" result="hardAlpha"/>
<feMorphology radius="4.42945" operator="erode" in="SourceAlpha" result="effect1_dropShadow_901_80459"/>
<feOffset dy="13.2883"/>
<feGaussianBlur stdDeviation="23.2546"/>
<feColorMatrix type="matrix" values="0 0 0 0 0.0941176 0 0 0 0 0.152941 0 0 0 0 0.294118 0 0 0 0.12 0"/>
<feBlend mode="multiply" in2="BackgroundImageFix" result="effect1_dropShadow_901_80459"/>
<feColorMatrix in="SourceAlpha" type="matrix" values="0 0 0 0 0 0 0 0 0 0 0 0 0 0 0 0 0 0 127 0" result="hardAlpha"/>
<feMorphology radius="6.64417" operator="erode" in="SourceAlpha" result="effect2_dropShadow_901_80459"/>
<feOffset dy="8.85889"/>
<feGaussianBlur stdDeviation="9.96626"/>
<feColorMatrix type="matrix" values="0 0 0 0 0.0941176 0 0 0 0 0.152941 0 0 0 0 0.294118 0 0 0 0.12 0"/>
<feBlend mode="multiply" in2="effect1_dropShadow_901_80459" result="effect2_dropShadow_901_80459"/>
<feBlend mode="normal" in="SourceGraphic" in2="effect2_dropShadow_901_80459" result="shape"/>
</filter>
<filter id="filter11_d_901_80459" x="191.866" y="168.702" width="308.941" height="137.313" filterUnits="userSpaceOnUse" color-interpolation-filters="sRGB">
<feFlood flood-opacity="0" result="BackgroundImageFix"/>
<feColorMatrix in="SourceAlpha" type="matrix" values="0 0 0 0 0 0 0 0 0 0 0 0 0 0 0 0 0 0 127 0" result="hardAlpha"/>
<feOffset dy="8.85889"/>
<feGaussianBlur stdDeviation="9.96625"/>
<feColorMatrix type="matrix" values="0 0 0 0 0.0941176 0 0 0 0 0.152941 0 0 0 0 0.294118 0 0 0 0.24 0"/>
<feBlend mode="multiply" in2="BackgroundImageFix" result="effect1_dropShadow_901_80459"/>
<feBlend mode="normal" in="SourceGraphic" in2="effect1_dropShadow_901_80459" result="shape"/>
</filter>
<filter id="filter12_d_901_80459" x="819.193" y="168.702" width="308.941" height="137.313" filterUnits="userSpaceOnUse" color-interpolation-filters="sRGB">
<feFlood flood-opacity="0" result="BackgroundImageFix"/>
<feColorMatrix in="SourceAlpha" type="matrix" values="0 0 0 0 0 0 0 0 0 0 0 0 0 0 0 0 0 0 127 0" result="hardAlpha"/>
<feOffset dy="8.85889"/>
<feGaussianBlur stdDeviation="9.96625"/>
<feColorMatrix type="matrix" values="0 0 0 0 0.0941176 0 0 0 0 0.152941 0 0 0 0 0.294118 0 0 0 0.24 0"/>
<feBlend mode="multiply" in2="BackgroundImageFix" result="effect1_dropShadow_901_80459"/>
<feBlend mode="normal" in="SourceGraphic" in2="effect1_dropShadow_901_80459" result="shape"/>
</filter>
<linearGradient id="paint0_linear_901_80459" x1="658.899" y1="149.877" x2="658.899" y2="312.66" gradientUnits="userSpaceOnUse">
<stop stop-color="white"/>
<stop offset="1" stop-color="white" stop-opacity="0"/>
</linearGradient>
<clipPath id="clip0_901_80459">
<rect width="38" height="50" fill="white" transform="translate(1086 72)"/>
</clipPath>
<clipPath id="clip1_901_80459">
<rect width="57" height="47" fill="white" transform="translate(1077 335)"/>
</clipPath>
<clipPath id="clip2_901_80459">
<rect width="40" height="50" fill="white" transform="translate(132 204)"/>
</clipPath>
<clipPath id="clip3_901_80459">
<rect width="54" height="42" fill="white" transform="translate(188 340)"/>
</clipPath>
<clipPath id="clip4_901_80459">
<rect width="58" height="54" fill="white" transform="translate(186 70)"/>
</clipPath>
<clipPath id="clip5_901_80459">
<rect width="49" height="43" fill="white" transform="translate(1143 207)"/>
</clipPath>
</defs>
</svg>
