<svg width="106" height="52" viewBox="0 0 106 52" fill="none" xmlns="http://www.w3.org/2000/svg">
<g clip-path="url(#clip0_341_5755)">
<path d="M38.3439 30.455V37.1705C34.1191 37.1705 31.0141 36.1728 29.0288 34.1772C26.0191 36.1671 22.4874 37.2096 18.8852 37.1713C16.4671 37.2156 14.0654 36.7648 11.8261 35.8463C9.58692 34.9279 7.55706 33.561 5.86012 31.8289C4.12268 30.1419 2.74995 28.113 1.8277 25.8688C0.905442 23.6245 0.453467 21.2133 0.500006 18.7856C0.451383 16.3648 0.903298 13.9601 1.82714 11.724C2.75099 9.48779 4.12664 7.46876 5.86701 5.79469C7.57048 4.0752 9.60225 2.7197 11.8402 1.80967C14.0782 0.899642 16.4761 0.453884 18.8898 0.49919C21.3041 0.441608 23.705 0.876995 25.9471 1.77901C28.1892 2.68102 30.2259 4.0309 31.934 5.74697C33.6626 7.43629 35.0252 9.46655 35.9361 11.7103C36.847 13.9541 37.2867 16.3629 37.2275 18.7856C37.2867 22.6501 36.1073 26.4311 33.8636 29.5698C35.2805 30.1719 36.8058 30.4732 38.3439 30.455ZM18.8852 7.75511C17.4936 7.73093 16.1136 8.0126 14.8416 8.58042C13.5696 9.14825 12.4364 9.98852 11.5212 11.0425C9.57332 13.1431 8.50807 15.9189 8.54783 18.7902C8.51388 21.6746 9.57718 24.4631 11.5204 26.5857C12.4524 27.6383 13.5962 28.4799 14.8761 29.0548C16.1561 29.6296 17.5429 29.9246 18.9447 29.9201C20.3466 29.9157 21.7315 29.6119 23.0078 29.029C24.2841 28.4461 25.4226 27.5972 26.348 26.5387C28.2318 24.3899 29.2412 21.6066 29.1751 18.7433C29.2378 15.8751 28.1993 13.0929 26.2753 10.974C25.3523 9.92717 24.2123 9.09646 22.9355 8.54032C21.6587 7.98419 20.2762 7.71616 18.8852 7.75511Z" fill="white"/>
<path d="M67.7549 23.8338C67.7549 27.8234 66.6091 31.0423 64.3175 33.4904C62.0259 35.9386 58.912 37.1637 54.9756 37.1657C53.2619 37.2247 51.5535 36.9409 49.9498 36.3307C48.3461 35.7205 46.879 34.7962 45.6337 33.6113C44.4126 32.425 43.4537 30.9936 42.8192 29.4102C42.1848 27.8268 41.8891 26.1269 41.9513 24.4211V1.18555H49.8996V23.5921C49.8996 27.8388 51.5587 29.9637 54.8768 29.9668C58.1628 29.9668 59.804 27.8419 59.8005 23.5921V1.18555H67.7488V23.8338H67.7549Z" fill="white"/>
<path d="M105.26 36.4838H96.5302L94.2874 30.1091H81.7065L79.3649 36.4838H70.7795L84.7778 1.18555H91.3125L105.26 36.4838ZM92.0959 23.5398L88.0957 10.8891L83.996 23.5398H92.0959Z" fill="white"/>
<path d="M49.589 51.0063C48.7309 51.3403 47.8175 51.5075 46.8974 51.499C46.3029 51.5278 45.7088 51.4359 45.1505 51.2286C44.5923 51.0214 44.0813 50.7031 43.6482 50.2928C43.2175 49.825 42.8832 49.2761 42.6648 48.6778C42.4463 48.0794 42.348 47.4435 42.3755 46.8067C42.3449 46.1675 42.449 45.5291 42.681 44.9333C42.913 44.3374 43.2676 43.7975 43.7217 43.349C44.1757 42.9006 44.7189 42.5536 45.3157 42.3309C45.9125 42.1081 46.5493 42.0147 47.1845 42.0566C47.9204 42.0396 48.6514 42.1808 49.3287 42.4708L49.1097 43.0057C48.4945 42.719 47.8208 42.5824 47.1432 42.607C44.6161 42.607 43.0593 44.2689 43.0593 46.7805C43.0593 49.3914 44.5771 50.954 47.0076 50.954C47.6661 51.0002 48.326 50.8869 48.932 50.6238V47.3578H46.8039V46.8228H49.589V51.0063Z" fill="white"/>
<path d="M54.2305 42.2766C54.8863 42.1466 55.5531 42.0816 56.2215 42.0827C56.6663 42.0387 57.1153 42.0841 57.5424 42.2163C57.9696 42.3484 58.3663 42.5647 58.7095 42.8524C59.1315 43.2944 59.3623 43.8863 59.3512 44.4989C59.3613 45.0463 59.1892 45.5814 58.8622 46.0193C58.5352 46.4571 58.072 46.7727 57.5463 46.9158V46.942C57.9372 47.1091 58.2757 47.3797 58.5256 47.7249C58.7755 48.0702 58.9275 48.4772 58.9653 48.9025C59.1039 49.7582 59.3329 50.5965 59.6483 51.4034H58.9806C58.716 50.6734 58.5186 49.9205 58.3909 49.1542C58.1038 47.8226 57.5302 47.2199 56.3149 47.1621H54.8807V51.4034H54.2236V42.2766H54.2305ZM54.8875 46.6233H56.3479C57.7668 46.6233 58.6949 45.8266 58.6949 44.6051C58.6949 43.1895 57.6573 42.613 56.207 42.613C55.7621 42.6054 55.3178 42.6475 54.8822 42.7385V46.6233H54.8875Z" fill="white"/>
<path d="M64.9692 48.1643L63.8374 51.4041H63.1697L66.5023 42.1504H67.1279L70.4452 51.4041H69.7775L68.6143 48.1643H64.9692ZM68.4152 47.614L67.2941 44.5258C67.0751 43.8807 66.9549 43.4143 66.814 42.8901H66.7879C66.6524 43.4251 66.5008 43.9069 66.3078 44.4942L65.176 47.6086H68.4152V47.614Z" fill="white"/>
<path d="M74.5974 51.4056V42.1519H75.2101L78.7885 47.617C79.4191 48.5547 79.9989 49.526 80.5253 50.5266L80.5513 50.5112C80.4571 49.2634 80.4418 48.202 80.4418 46.7626V42.1465H81.0674V51.4002H80.4678L76.9575 46.0213C76.3087 45.0562 75.7116 44.0569 75.1687 43.0278L75.1427 43.0432C75.2108 44.1809 75.2261 45.1823 75.2261 46.7233V51.4048L74.5974 51.4056Z" fill="white"/>
<path d="M86.6868 42.1504V51.4041H86.0298V42.1504H86.6868Z" fill="white"/>
<path d="M93.394 42.7007H90.3899V42.1504H97.052V42.7007H94.0479V51.4041H93.3909L93.394 42.7007Z" fill="white"/>
<path d="M105.061 46.8057H101.386V50.853H105.496V51.4034H100.733V42.1504H105.28V42.7007H101.39V46.2531H105.065L105.061 46.8057Z" fill="white"/>
<path fill-rule="evenodd" clip-rule="evenodd" d="M33.1712 29.5851C33.1712 29.5851 30.1617 33.5385 28.7374 33.2968C25.6291 32.7672 22.2437 22.4228 22.2437 22.4228C22.2437 22.4228 22.9949 21.8563 23.1412 22.0502C25.7052 25.4679 29.1841 28.0814 33.1712 29.5851Z" fill="white"/>
</g>
<defs>
<clipPath id="clip0_341_5755">
<rect width="105" height="51" fill="white" transform="translate(0.5 0.5)"/>
</clipPath>
</defs>
</svg>
