<svg width="24" height="24" viewBox="0 0 24 24" fill="none" xmlns="http://www.w3.org/2000/svg">
<circle opacity="0.5" cx="12" cy="12" r="12" fill="white"/>
<path d="M14.43 10.2852V13.2662L11.8546 14.7583L9.27759 13.2662V10.2852L11.8546 8.79468L14.43 10.2852Z" fill="#0B1855"/>
<path d="M15.8345 14.0801L17.7092 15.1645L11.8546 18.5532L6 15.1645V8.3887L11.8546 5L17.7092 8.3887L15.8345 9.47315L11.8546 7.16889L7.87316 9.47315V14.0801L11.8546 16.3843L15.8345 14.0801Z" fill="#30429B"/>
<path d="M11.9008 7.0891L11.8546 7.06236L11.8084 7.0891L7.82698 9.39335L7.78096 9.41998V9.47315V14.0801V14.1332L7.82698 14.1599L11.8084 16.4641L11.8546 16.4908L11.9008 16.4641L15.8345 14.1866L17.5251 15.1645L11.8546 18.4467L6.0922 15.1113V8.44186L11.8546 5.10653L17.5251 8.38867L15.8345 9.36662L11.9008 7.0891Z" stroke="url(#paint0_linear_739_1618)" stroke-opacity="0.3" stroke-width="0.184397"/>
<path d="M11.8546 11.7775L9.27759 13.2664V10.2854L11.8546 11.7775Z" fill="#0B1855"/>
<path d="M14.4301 10.2854V13.268L11.8547 11.7775L14.4301 10.2854Z" fill="#30429B"/>
<path d="M14.4301 10.2852L11.8547 11.7773V8.79468L14.4301 10.2852Z" fill="#0B1855"/>
<path d="M14.4301 13.2679L11.8547 14.7584V11.7773L14.4301 13.2679Z" fill="#0B1855"/>
<path d="M11.8546 11.7773V14.7584L9.27759 13.2679V13.2663L11.8546 11.7773Z" fill="#30429B"/>
<path d="M11.8546 8.79468V11.7773L9.27759 10.2852L11.8546 8.79468Z" fill="#30429B"/>
<defs>
<linearGradient id="paint0_linear_739_1618" x1="11.8546" y1="5" x2="11.8546" y2="18.5532" gradientUnits="userSpaceOnUse">
<stop stop-color="white"/>
<stop offset="1" stop-color="white" stop-opacity="0"/>
</linearGradient>
</defs>
</svg>
