<svg width="90" height="90" viewBox="0 0 90 90" fill="none" xmlns="http://www.w3.org/2000/svg"><circle cx="45" cy="45" r="44.5" fill="#fff" fill-opacity=".49" stroke="#262721"/><path d="M15.08 44.8c0 .864.192 1.627.576 2.288a4.37 4.37 0 0 0 1.536 1.552c.63.373 1.312.56 2.048.56a4.8 4.8 0 0 0 1.456-.208 4.56 4.56 0 0 0 1.216-.576c.363-.256.672-.55.928-.88v1.792c-.47.416-.981.725-1.536.928-.555.203-1.243.304-2.064.304a5.77 5.77 0 0 1-2.192-.416 5.617 5.617 0 0 1-1.776-1.2 5.663 5.663 0 0 1-1.2-1.84 6.027 6.027 0 0 1-.432-2.304c0-.832.144-1.6.432-2.304a5.483 5.483 0 0 1 1.2-1.824 5.286 5.286 0 0 1 1.776-1.2 5.58 5.58 0 0 1 2.192-.432c.821 0 1.51.101 2.064.304a4.776 4.776 0 0 1 1.536.928v1.792a3.992 3.992 0 0 0-.928-.864 4.295 4.295 0 0 0-1.216-.592 4.803 4.803 0 0 0-1.456-.208c-.736 0-1.419.187-2.048.56a4.36 4.36 0 0 0-1.536 1.552c-.384.65-.576 1.413-.576 2.288Zm17.065 5.6-1.2-5.84.72-2.08 1.92 7.92h-1.44Zm-3.84-1.104 3.36-6.816.16 2.56-3.04 5.856-.48-1.6Zm.48 1.6-2.992-5.856.16-2.56 3.312 6.816-.48 1.6Zm-4.752-.496 1.92-7.92.72 2.08-1.2 5.84h-1.44Zm10.199-3.68c0-.747.165-1.408.496-1.984a3.74 3.74 0 0 1 1.376-1.36 3.819 3.819 0 0 1 1.936-.496c.725 0 1.37.165 1.936.496a3.62 3.62 0 0 1 1.36 1.36c.341.576.512 1.237.512 1.984 0 .736-.17 1.397-.512 1.984a3.619 3.619 0 0 1-1.36 1.36c-.566.33-1.21.496-1.936.496-.715 0-1.36-.165-1.936-.496a3.738 3.738 0 0 1-1.376-1.36c-.33-.587-.496-1.248-.496-1.984Zm1.296 0c0 .512.107.965.32 1.36.224.395.523.71.896.944.384.224.816.336 1.296.336.48 0 .907-.112 1.28-.336a2.47 2.47 0 0 0 .896-.944c.224-.395.336-.848.336-1.36 0-.512-.112-.965-.336-1.36a2.318 2.318 0 0 0-.896-.944 2.44 2.44 0 0 0-1.28-.336c-.48 0-.912.112-1.296.336a2.465 2.465 0 0 0-.896.944 2.82 2.82 0 0 0-.32 1.36Zm6.958-3.68h4.32v1.2h-4.32v-1.2Zm1.52.32h1.28v7.04h-1.28v-7.04Zm5.285 10.56h-1.28V43.04h1.28v10.88Zm6.16-7.2c0 .79-.166 1.472-.496 2.048a3.452 3.452 0 0 1-1.328 1.328 3.624 3.624 0 0 1-1.824.464 2.871 2.871 0 0 1-1.616-.464c-.459-.31-.822-.752-1.088-1.328-.256-.576-.384-1.259-.384-2.048 0-.8.128-1.483.384-2.048.266-.576.629-1.019 1.088-1.328a2.87 2.87 0 0 1 1.616-.464c.672 0 1.28.155 1.824.464.554.31.997.752 1.328 1.328.33.565.496 1.248.496 2.048Zm-1.296 0c0-.565-.118-1.045-.352-1.44a2.234 2.234 0 0 0-.912-.896 2.573 2.573 0 0 0-1.248-.304c-.374 0-.742.101-1.104.304a2.408 2.408 0 0 0-.896.896c-.235.395-.352.875-.352 1.44s.117 1.045.352 1.44c.234.395.533.693.896.896.362.203.73.304 1.104.304.458 0 .874-.101 1.248-.304.384-.203.688-.501.912-.896.234-.395.352-.875.352-1.44Zm3.237.32v-1.088h4.912a2.492 2.492 0 0 0-.32-1.008 1.646 1.646 0 0 0-.688-.688c-.288-.17-.646-.256-1.072-.256-.427 0-.816.09-1.168.272a2.142 2.142 0 0 0-.848.784c-.203.33-.304.725-.304 1.184l-.032.48c0 .565.096 1.045.288 1.44.192.395.464.693.816.896.352.203.768.304 1.248.304.362 0 .682-.053.96-.16.288-.117.544-.272.768-.464a3.08 3.08 0 0 0 .576-.704l1.04.656a5.775 5.775 0 0 1-.816.992 3.256 3.256 0 0 1-1.088.656c-.427.15-.96.224-1.6.224a3.332 3.332 0 0 1-1.792-.496 3.576 3.576 0 0 1-1.248-1.36c-.299-.587-.448-1.248-.448-1.984a4.85 4.85 0 0 1 .064-.784 3.95 3.95 0 0 1 .64-1.6c.32-.459.73-.816 1.232-1.072a3.774 3.774 0 0 1 1.712-.384c.693 0 1.301.155 1.824.464.522.31.928.747 1.216 1.312.288.555.432 1.221.432 2v.192c0 .064-.006.128-.016.192h-6.288Zm6.938-4h4.32v1.2h-4.32v-1.2Zm1.52.32h1.28v7.04h-1.28v-7.04Zm4.084-.32h1.28v7.36h-1.28v-7.36Zm.752 3.904v-1.12h2.288c.758 0 1.392.187 1.904.56.523.363.784.939.784 1.728 0 .523-.117.955-.352 1.296a2.045 2.045 0 0 1-.96.752c-.405.16-.864.24-1.376.24h-2.288v-1.12h2.288c.31 0 .566-.043.768-.128.214-.096.374-.23.48-.4a1.24 1.24 0 0 0 .16-.64c0-.373-.117-.661-.352-.864-.234-.203-.586-.304-1.056-.304h-2.288Z" fill="#262721"/></svg>