<svg width="208" height="76" viewBox="0 0 208 76" fill="none" xmlns="http://www.w3.org/2000/svg">
<g clip-path="url(#clip0_180_1639)">
<path d="M49.9027 46.3407C49.9594 48.7699 49.4973 51.183 48.5476 53.4164C47.5978 55.6497 46.1828 57.6512 44.3983 59.285C40.816 62.8503 35.9854 64.8514 30.9509 64.8557C28.4723 64.9349 26.0034 64.5083 23.6925 63.6016C21.3816 62.6948 19.2764 61.3265 17.5034 59.579C15.7142 57.9458 14.2802 55.9565 13.292 53.7367C12.3038 51.5169 11.7827 49.1148 11.7618 46.6818C11.6981 44.2647 12.1509 41.8621 13.0894 39.6368C14.0279 37.4116 15.4302 35.4158 17.2012 33.7847C20.8096 30.2364 25.6573 28.2597 30.6986 28.2811C33.1672 28.2001 35.6271 28.6142 37.9356 29.4994C40.2441 30.3846 42.3551 31.7232 44.146 33.4375C45.9471 35.0623 47.3891 37.0508 48.3782 39.2737C49.3674 41.4967 49.8817 43.9044 49.8876 46.3407M61.3708 46.2204C61.3696 42.3305 60.5582 38.4842 58.9893 34.9303C57.4204 31.3763 55.1288 28.1938 52.2628 25.5887C49.3834 22.7991 45.9812 20.6161 42.2549 19.1672C38.5287 17.7184 34.5533 17.0328 30.5611 17.1505C23.6859 17.1685 17.0016 19.4313 11.5095 23.5998V0L0.0126953 0.120304L0.257467 46.8098C0.250629 50.7246 1.06407 54.5968 2.64454 58.1729C4.22502 61.749 6.53691 64.9484 9.42893 67.5618C12.3023 70.3436 15.6956 72.5221 19.4115 73.9707C23.1275 75.4193 27.092 76.1091 31.0748 76C35.0638 76.0296 39.0192 75.2624 42.7124 73.7428C46.4056 72.2231 49.7635 69.981 52.5922 67.1461C55.4433 64.4832 57.7018 61.2413 59.2189 57.6343C60.736 54.0274 61.4771 50.1372 61.3935 46.2204" fill="white"/>
<path d="M77.2536 14.2344H65.7568V75.854H77.2536V14.2344Z" fill="white"/>
<path d="M77.2536 0H65.7568V11.5875H77.2536V0Z" fill="white"/>
<path d="M131.326 39.2531H95.1132C96.3691 35.431 98.7938 32.108 102.039 29.7606C105.285 27.4133 109.185 26.1622 113.18 26.1869H113.267C117.262 26.16 121.162 27.4103 124.407 29.758C127.652 32.1058 130.073 35.4301 131.326 39.2531ZM143.219 50.8268C143.546 48.956 143.71 47.0599 143.708 45.1603C143.768 41.1187 143.013 37.1069 141.49 33.3679C139.966 29.6289 137.706 26.2405 134.845 23.4077C132.133 20.5555 128.877 18.2854 125.273 16.7338C121.668 15.1822 117.79 14.3811 113.87 14.3786V14.3604H112.578V14.3862C108.659 14.391 104.781 15.1931 101.177 16.7446C97.5729 18.2961 94.3165 20.565 91.6032 23.4153C85.9247 29.196 82.7393 37.002 82.7393 45.1367C82.7393 53.2713 85.9247 61.0773 91.6032 66.858C94.3252 69.6929 97.5844 71.9478 101.187 73.4889C104.791 75.0299 108.664 75.8258 112.578 75.8292V75.8551H113.87V75.8292C117.785 75.8279 121.659 75.033 125.262 73.4918C128.865 71.9506 132.124 69.6946 134.845 66.858C137.526 64.1726 139.687 61.0081 141.22 57.5259H127.621C127.308 57.8853 127.006 58.2523 126.656 58.5995C124.913 60.3903 122.828 61.8055 120.526 62.7592C118.224 63.7129 115.754 64.1851 113.266 64.1473H113.169C109.14 64.1406 105.216 62.8491 101.959 60.4578C98.702 58.0665 96.2794 54.698 95.0376 50.8344H143.223L143.219 50.8268Z" fill="white"/>
<path d="M145.511 44.7997V75.8463H157.127V44.7997C157.084 42.2615 157.561 39.7417 158.529 37.3979C159.496 35.054 160.933 32.9365 162.749 31.1777C164.515 29.3635 166.629 27.9305 168.962 26.966C171.296 26.0015 173.799 25.5257 176.32 25.5675C178.819 25.5741 181.291 26.077 183.596 27.0473C185.901 28.0177 187.994 29.4366 189.754 31.2229C191.515 33.0091 192.909 35.1276 193.857 37.4572C194.804 39.7869 195.287 42.2819 195.277 44.7997V75.8463H207.011V44.7997C207.009 40.7438 206.213 36.7281 204.669 32.9828C203.124 29.2374 200.862 25.8361 198.011 22.9737C195.16 20.1113 191.776 17.8442 188.054 16.3022C184.332 14.7602 180.345 13.9736 176.32 13.9877C172.273 13.9274 168.256 14.6997 164.515 16.2574C160.774 17.8151 157.388 20.1254 154.563 23.0472C151.655 25.8532 149.351 29.2326 147.795 32.9749C146.238 36.7172 145.463 40.7424 145.517 44.7997" fill="white"/>
</g>
<defs>
<clipPath id="clip0_180_1639">
<rect width="207" height="76" fill="white" transform="translate(0.0107422)"/>
</clipPath>
</defs>
</svg>
