<svg width="106" height="52" viewBox="0 0 106 52" fill="none" xmlns="http://www.w3.org/2000/svg">
<g clip-path="url(#clip0_180_748)">
<path d="M38.3436 30.4569V37.1725C34.1188 37.1725 31.0137 36.1747 29.0285 34.1792C26.0188 36.1691 22.487 37.2115 18.8848 37.1733C16.4668 37.2176 14.065 36.7667 11.8258 35.8483C9.58655 34.9298 7.55669 33.5629 5.85975 31.8308C4.12231 30.1439 2.74959 28.1149 1.82733 25.8707C0.905076 23.6265 0.453101 21.2152 0.49964 18.7876C0.451016 16.3667 0.902931 13.9621 1.82678 11.7259C2.75062 9.48974 4.12627 7.47071 5.86664 5.79665C7.57011 4.07715 9.60189 2.72165 11.8398 1.81162C14.0778 0.901595 16.4757 0.455837 18.8894 0.501144C21.3038 0.443561 23.7046 0.878948 25.9467 1.78096C28.1888 2.68297 30.2255 4.03286 31.9336 5.74893C33.6623 7.43824 35.0248 9.4685 35.9357 11.7123C36.8467 13.956 37.2863 16.3649 37.2271 18.7876C37.2864 22.652 36.107 26.4331 33.8633 29.5718C35.2801 30.1738 36.8054 30.4752 38.3436 30.4569ZM18.8848 7.75706C17.4933 7.73288 16.1132 8.01455 14.8412 8.58238C13.5693 9.1502 12.436 9.99047 11.5208 11.0444C9.57295 13.1451 8.5077 15.9208 8.54747 18.7922C8.51351 21.6765 9.57682 24.465 11.52 26.5877C12.452 27.6403 13.5958 28.4819 14.8758 29.0567C16.1557 29.6316 17.5425 29.9265 18.9444 29.9221C20.3462 29.9176 21.7312 29.6139 23.0074 29.031C24.2837 28.448 25.4223 27.5992 26.3476 26.5407C28.2314 24.3918 29.2408 21.6086 29.1747 18.7452C29.2374 15.8771 28.199 13.0948 26.2749 10.9759C25.352 9.92912 24.212 9.09841 22.9352 8.54228C21.6584 7.98615 20.2758 7.71811 18.8848 7.75706Z" fill="white"/>
<path d="M67.7541 23.8358C67.7541 27.8254 66.6083 31.0442 64.3167 33.4924C62.0252 35.9405 58.9112 37.1656 54.9748 37.1677C53.2611 37.2267 51.5527 36.9429 49.949 36.3327C48.3453 35.7225 46.8782 34.7981 45.6329 33.6132C44.4118 32.4269 43.4529 30.9955 42.8184 29.4122C42.184 27.8288 41.8883 26.1289 41.9505 24.4231V1.1875H49.8988V23.5941C49.8988 27.8408 51.5579 29.9656 54.876 29.9687C58.162 29.9687 59.8033 27.8438 59.7997 23.5941V1.1875H67.748V23.8358H67.7541Z" fill="white"/>
<path d="M105.259 36.4857H96.5301L94.2872 30.1111H81.7063L79.3647 36.4857H70.7793L84.7776 1.1875H91.3124L105.259 36.4857ZM92.0957 23.5418L88.0955 10.891L83.9958 23.5418H92.0957Z" fill="white"/>
<path d="M49.5889 51.0093C48.7308 51.3432 47.8174 51.5104 46.8972 51.5019C46.3028 51.5307 45.7087 51.4388 45.1504 51.2315C44.5921 51.0243 44.0811 50.706 43.648 50.2957C43.2173 49.828 42.8831 49.2791 42.6646 48.6807C42.4462 48.0823 42.3478 47.4464 42.3753 46.8096C42.3447 46.1705 42.4488 45.532 42.6808 44.9362C42.9128 44.3403 43.2675 43.8005 43.7215 43.352C44.1756 42.9035 44.7188 42.5565 45.3155 42.3338C45.9123 42.1111 46.5492 42.0176 47.1844 42.0596C47.9203 42.0426 48.6513 42.1837 49.3285 42.4737L49.1095 43.0087C48.4944 42.7219 47.8206 42.5853 47.143 42.6099C44.616 42.6099 43.0592 44.2718 43.0592 46.7834C43.0592 49.3944 44.5769 50.9569 47.0075 50.9569C47.666 51.0031 48.3259 50.8898 48.9318 50.6267V47.3607H46.8038V46.8258H49.5889V51.0093Z" fill="white"/>
<path d="M54.2305 42.2796C54.8863 42.1495 55.5531 42.0846 56.2215 42.0856C56.6663 42.0416 57.1153 42.087 57.5424 42.2192C57.9696 42.3513 58.3663 42.5676 58.7095 42.8553C59.1315 43.2973 59.3623 43.8893 59.3512 44.5018C59.3613 45.0492 59.1892 45.5843 58.8622 46.0222C58.5352 46.4601 58.072 46.7756 57.5463 46.9188V46.9449C57.9372 47.112 58.2757 47.3826 58.5256 47.7279C58.7755 48.0731 58.9275 48.4801 58.9653 48.9054C59.1039 49.7611 59.3329 50.5994 59.6483 51.4063H58.9806C58.716 50.6763 58.5186 49.9234 58.3909 49.1571C58.1038 47.8255 57.5302 47.2228 56.3149 47.1651H54.8807V51.4063H54.2236V42.2796H54.2305ZM54.8875 46.6263H56.3479C57.7668 46.6263 58.6949 45.8296 58.6949 44.608C58.6949 43.1925 57.6573 42.6159 56.207 42.6159C55.7621 42.6083 55.3178 42.6504 54.8822 42.7414V46.6263H54.8875Z" fill="white"/>
<path d="M64.9695 48.1672L63.8377 51.4071H63.1699L66.5025 42.1533H67.1282L70.4455 51.4071H69.7777L68.6145 48.1672H64.9695ZM68.4154 47.6169L67.2944 44.5287C67.0753 43.8837 66.9551 43.4172 66.8142 42.893H66.7882C66.6526 43.428 66.501 43.9099 66.308 44.4972L65.1762 47.6115H68.4154V47.6169Z" fill="white"/>
<path d="M74.5977 51.4076V42.1538H75.2103L78.7887 47.6189C79.4193 48.5566 79.9991 49.5279 80.5255 50.5285L80.5515 50.5131C80.4573 49.2654 80.442 48.2039 80.442 46.7645V42.1484H81.0676V51.4022H80.468L76.9578 46.0233C76.309 45.0581 75.7118 44.0589 75.1689 43.0298L75.1429 43.0452C75.211 44.1828 75.2264 45.1843 75.2264 46.7253V51.4068L74.5977 51.4076Z" fill="white"/>
<path d="M86.6863 42.1543V51.408H86.0293V42.1543H86.6863Z" fill="white"/>
<path d="M93.3938 42.7047H90.3896V42.1543H97.0518V42.7047H94.0477V51.408H93.3907L93.3938 42.7047Z" fill="white"/>
<path d="M105.061 46.8096H101.386V50.8569H105.496V51.4073H100.732V42.1543H105.28V42.7047H101.389V46.257H105.065L105.061 46.8096Z" fill="white"/>
<path fill-rule="evenodd" clip-rule="evenodd" d="M33.1707 29.5871C33.1707 29.5871 30.1612 33.5404 28.7369 33.2987C25.6286 32.7692 22.2432 22.4247 22.2432 22.4247C22.2432 22.4247 22.9944 21.8582 23.1406 22.0522C25.7047 25.4699 29.1836 28.0833 33.1707 29.5871Z" fill="white"/>
</g>
<defs>
<clipPath id="clip0_180_748">
<rect width="105" height="51" fill="white" transform="translate(0.5 0.500977)"/>
</clipPath>
</defs>
</svg>
