<svg width="204" height="99" viewBox="0 0 204 99" fill="none" xmlns="http://www.w3.org/2000/svg">
<path d="M73.5254 58.1495V71.1856C65.3172 71.1856 59.2846 69.2487 55.4275 65.375C49.58 69.2378 42.7184 71.2614 35.7198 71.1871C31.0219 71.2731 26.3556 70.398 22.0051 68.6151C17.6546 66.8322 13.7109 64.1788 10.414 60.8164C7.03838 57.5418 4.37138 53.6032 2.57957 49.2468C0.787758 44.8904 -0.0903645 40.2098 5.30221e-05 35.4972C-0.0944148 30.7979 0.783591 26.1301 2.57849 21.7893C4.37339 17.4485 7.04608 13.5292 10.4274 10.2795C13.737 6.9417 17.6844 4.31043 22.0324 2.54391C26.3805 0.777384 31.0393 -0.0879116 35.7288 3.69977e-05C40.4195 -0.111741 45.084 0.733422 49.4401 2.48439C53.7961 4.23535 57.7532 6.85571 61.0718 10.1869C64.4303 13.4662 67.0775 17.4073 68.8473 21.7628C70.6171 26.1184 71.4714 30.7943 71.3563 35.4972C71.4714 42.9988 69.18 50.3385 64.8208 56.4312C67.5736 57.5999 70.537 58.1849 73.5254 58.1495ZM35.7198 14.085C33.0162 14.0381 30.335 14.5849 27.8637 15.6871C25.3924 16.7894 23.1907 18.4205 21.4126 20.4664C17.6282 24.5441 15.5586 29.9324 15.6358 35.5062C15.5699 41.1052 17.6357 46.5182 21.4111 50.6385C23.2218 52.6819 25.4441 54.3156 27.9308 55.4314C30.4175 56.5473 33.1119 57.1199 35.8355 57.1113C38.5591 57.1026 41.2498 56.513 43.7295 55.3814C46.2091 54.2499 48.4211 52.6021 50.219 50.5474C53.8789 46.3761 55.84 40.9733 55.7116 35.415C55.8335 29.8474 53.8159 24.4466 50.0777 20.3334C48.2846 18.3014 46.0697 16.6888 43.5891 15.6093C41.1084 14.5297 38.4223 14.0095 35.7198 14.085Z" fill="white"/>
<path d="M130.666 45.2973C130.666 53.0418 128.44 59.2902 123.988 64.0425C119.536 68.7948 113.486 71.1729 105.838 71.1769C102.508 71.2914 99.1891 70.7405 96.0734 69.556C92.9576 68.3715 90.1072 66.5771 87.6877 64.277C85.3154 61.9743 83.4523 59.1957 82.2196 56.1221C80.987 53.0485 80.4125 49.7486 80.5334 46.4373V1.33301H95.9758V44.8282C95.9758 53.0717 99.1991 57.1964 105.646 57.2024C112.03 57.2024 115.219 53.0777 115.212 44.8282V1.33301H130.654V45.2973H130.666Z" fill="white"/>
<path d="M203.533 69.8531H186.573L182.216 57.4788H157.773L153.223 69.8531H136.543L163.74 1.33301H176.436L203.533 69.8531ZM177.958 44.7266L170.186 20.1693L162.221 44.7266H177.958Z" fill="white"/>
<path d="M95.3727 98.0442C93.7055 98.6925 91.9309 99.017 90.1431 99.0005C88.9882 99.0565 87.8339 98.878 86.7493 98.4757C85.6647 98.0734 84.6719 97.4556 83.8305 96.6591C82.9936 95.7511 82.3442 94.6856 81.9198 93.5241C81.4954 92.3625 81.3044 91.128 81.3578 89.8919C81.2983 88.6513 81.5006 87.412 81.9513 86.2553C82.402 85.0986 83.0911 84.0507 83.9732 83.1801C84.8554 82.3095 85.9107 81.636 87.0702 81.2036C88.2296 80.7713 89.4669 80.5899 90.7011 80.6713C92.1308 80.6383 93.5511 80.9123 94.8668 81.4752L94.4413 82.5136C93.2463 81.9571 91.9372 81.6919 90.6207 81.7397C85.711 81.7397 82.6864 84.9656 82.6864 89.8411C82.6864 94.9094 85.6352 97.9426 90.3574 97.9426C91.6367 98.0322 92.9189 97.8124 94.0962 97.3016V90.9618H89.9616V89.9233H95.3727V98.0442Z" fill="white"/>
<path d="M104.39 81.0985C105.664 80.8461 106.96 80.72 108.259 80.722C109.123 80.6366 109.995 80.7248 110.825 80.9813C111.655 81.2378 112.426 81.6576 113.092 82.2162C113.912 83.0741 114.361 84.2233 114.339 85.4123C114.359 86.4749 114.024 87.5136 113.389 88.3636C112.754 89.2136 111.854 89.8262 110.832 90.104V90.1548C111.592 90.4791 112.25 91.0044 112.735 91.6746C113.221 92.3449 113.516 93.1349 113.589 93.9605C113.859 95.6215 114.303 97.2489 114.916 98.8151H113.619C113.105 97.398 112.722 95.9366 112.473 94.4491C111.916 91.8642 110.801 90.6942 108.44 90.5822H105.653V98.8151H104.377V81.0985H104.39ZM105.667 89.5362H108.504C111.261 89.5362 113.064 87.9897 113.064 85.6184C113.064 82.8706 111.048 81.7515 108.23 81.7515C107.366 81.7367 106.503 81.8184 105.656 81.995V89.5362H105.667Z" fill="white"/>
<path d="M125.254 92.5276L123.055 98.8166H121.758L128.233 80.8535H129.448L135.893 98.8166H134.596L132.336 92.5276H125.254ZM131.949 91.4593L129.771 85.4646C129.345 84.2124 129.112 83.307 128.838 82.2894H128.788C128.524 83.3279 128.23 84.2633 127.855 85.4033L125.656 91.4488H131.949V91.4593Z" fill="white"/>
<path d="M143.96 98.8183V80.8552H145.15L152.103 91.4639C153.328 93.2842 154.454 95.1696 155.477 97.112L155.527 97.0821C155.344 94.66 155.315 92.5995 155.315 89.8054V80.8447H156.53V98.8079H155.365L148.545 88.3665C147.285 86.4929 146.125 84.5532 145.07 82.5556L145.019 82.5855C145.152 84.7939 145.181 86.7378 145.181 89.7292V98.8168L143.96 98.8183Z" fill="white"/>
<path d="M167.448 80.8555V98.8186H166.172V80.8555H167.448Z" fill="white"/>
<path d="M180.479 81.9238H174.643V80.8555H187.586V81.9238H181.75V98.8186H180.473L180.479 81.9238Z" fill="white"/>
<path d="M203.148 89.8923H196.006V97.7488H203.991V98.8171H194.737V80.8555H203.573V81.9238H196.014V88.8195H203.155L203.148 89.8923Z" fill="white"/>
<path fill-rule="evenodd" clip-rule="evenodd" d="M63.4757 56.462C63.4757 56.462 57.6288 64.1361 54.8615 63.667C48.8226 62.639 42.2451 42.5586 42.2451 42.5586C42.2451 42.5586 43.7046 41.4588 43.9888 41.8354C48.9704 48.4697 55.7294 53.5429 63.4757 56.462Z" fill="white"/>
</svg>
