<svg width="352" height="352" viewBox="0 0 352 352" fill="none" xmlns="http://www.w3.org/2000/svg"><mask id="a" fill="#fff"><path fill-rule="evenodd" clip-rule="evenodd" d="M348.185 19.11C352 26.597 352 36.398 352 56v240c0 19.602 0 29.403-3.815 36.89a34.999 34.999 0 0 1-15.295 15.295C325.403 352 315.602 352 296 352H56c-19.602 0-29.403 0-36.89-3.815A35 35 0 0 1 3.815 332.89C0 325.403 0 315.602 0 296V56c0-19.602 0-29.403 3.815-36.89A35 35 0 0 1 19.11 3.815C26.597 0 36.398 0 56 0h240c19.602 0 29.403 0 36.89 3.815a35 35 0 0 1 15.295 15.295Z"/></mask><path fill-rule="evenodd" clip-rule="evenodd" d="M348.185 19.11C352 26.597 352 36.398 352 56v240c0 19.602 0 29.403-3.815 36.89a34.999 34.999 0 0 1-15.295 15.295C325.403 352 315.602 352 296 352H56c-19.602 0-29.403 0-36.89-3.815A35 35 0 0 1 3.815 332.89C0 325.403 0 315.602 0 296V56c0-19.602 0-29.403 3.815-36.89A35 35 0 0 1 19.11 3.815C26.597 0 36.398 0 56 0h240c19.602 0 29.403 0 36.89 3.815a35 35 0 0 1 15.295 15.295Z" fill="#fff"/><path d="m348.185 19.11 16.038-8.171-16.038 8.171Zm0 313.78 16.038 8.171-16.038-8.171Zm-15.295 15.295 8.171 16.038-8.171-16.038Zm-313.78 0-8.171 16.038 8.171-16.038ZM3.815 332.89l-16.038 8.171 16.038-8.171Zm0-313.78 16.038 8.172L3.815 19.11ZM19.11 3.815l8.172 16.038L19.11 3.815Zm313.78 0 8.171-16.038-8.171 16.038ZM370 56c0-9.504.014-17.714-.537-24.454-.567-6.95-1.824-13.904-5.24-20.607l-32.076 16.343c.399.783 1.05 2.473 1.436 7.196.403 4.933.417 11.424.417 21.522h36Zm0 240V56h-36v240h36Zm-5.777 45.061c3.416-6.703 4.673-13.658 5.24-20.607.551-6.74.537-14.95.537-24.454h-36c0 10.098-.014 16.589-.417 21.522-.386 4.723-1.037 6.413-1.436 7.196l32.076 16.343Zm-23.162 23.162a52.993 52.993 0 0 0 23.162-23.162l-32.076-16.343a16.998 16.998 0 0 1-7.429 7.429l16.343 32.076ZM296 370c9.504 0 17.714.014 24.454-.537 6.949-.567 13.904-1.824 20.607-5.24l-16.343-32.076c-.783.399-2.473 1.05-7.196 1.436-4.933.403-11.424.417-21.522.417v36Zm-240 0h240v-36H56v36Zm-45.062-5.777c6.704 3.416 13.659 4.673 20.608 5.24 6.74.551 14.95.537 24.454.537v-36c-10.098 0-16.589-.014-21.522-.417-4.723-.386-6.413-1.037-7.196-1.436l-16.344 32.076Zm-23.161-23.162a52.996 52.996 0 0 0 23.161 23.162l16.344-32.076a16.999 16.999 0 0 1-7.43-7.429l-32.075 16.343ZM-18 296c0 9.504-.014 17.714.537 24.454.567 6.949 1.824 13.904 5.24 20.607l32.076-16.343c-.4-.783-1.05-2.473-1.436-7.196C18.014 312.589 18 306.098 18 296h-36Zm0-240v240h36V56h-36Zm5.777-45.062c-3.416 6.704-4.673 13.659-5.24 20.608C-18.014 38.286-18 46.496-18 56h36c0-10.098.014-16.589.417-21.522.386-4.723 1.037-6.413 1.436-7.196L-12.223 10.94Zm23.162-23.161a53 53 0 0 0-23.162 23.161l32.076 16.344a17 17 0 0 1 7.43-7.43L10.937-12.222ZM56-18c-9.504 0-17.714-.014-24.454.537-6.95.567-13.904 1.824-20.607 5.24l16.343 32.076c.783-.4 2.473-1.05 7.196-1.436C39.41 18.014 45.902 18 56 18v-36Zm240 0H56v36h240v-36Zm45.061 5.777c-6.703-3.416-13.658-4.673-20.607-5.24-6.74-.551-14.95-.537-24.454-.537v36c10.098 0 16.589.014 21.522.417 4.723.386 6.413 1.037 7.196 1.436l16.343-32.076Zm23.162 23.162a52.996 52.996 0 0 0-23.162-23.162l-16.343 32.076a16.999 16.999 0 0 1 7.429 7.43l32.076-16.345Z" fill="#111415" mask="url(#a)"/><path d="M281 6h-45v98h45V6ZM12 187h14.23l15.771 25.373L57.773 187H72v60H58.888v-39.17l-16.886 25.626h-.343l-16.715-25.37V247H12v-60Zm70 45.871c0-9.96 7.582-14.559 18.402-14.559a32.479 32.479 0 0 1 11.16 1.874v-.767c0-5.371-3.321-8.355-9.795-8.355-4.943 0-8.437.937-12.612 2.471l-3.237-9.874c5.03-2.214 9.968-3.661 17.721-3.661 7.072 0 12.184 1.871 15.422 5.108 3.407 3.405 4.939 8.427 4.939 14.556v26.474h-12.522v-4.927c-3.153 3.491-7.498 5.789-13.803 5.789C89.072 246.997 82 242.065 82 232.871Zm29.732-2.811v-2.297a20.076 20.076 0 0 0-8.272-1.704c-5.537 0-8.944 2.214-8.944 6.469 0 3.491 2.896 5.535 7.068 5.535 6.057 0 10.148-3.321 10.148-8.003ZM136 200.88h13.176v9.292c2.69-6.367 7.023-10.496 14.824-10.152v13.681h-.696c-8.755 0-14.131 5.249-14.131 16.261V247H136v-46.12ZM172 184h12.889v33.039l15.09-16.558h15.43l-17.296 17.915L216 245.994h-14.752l-11.866-18.597-4.493 4.762V246H172v-62Zm46 39.989c0-13.156 9.324-23.989 22.669-23.989C255.985 200 263 211.951 263 225.017c0 1.034-.084 2.237-.171 3.439h-31.912c1.283 5.935 5.398 9.043 11.207 9.043 4.363 0 7.53-1.378 11.123-4.729l7.444 6.631c-4.277 5.332-10.437 8.599-18.738 8.599-13.774-.024-23.953-9.739-23.953-24.011Zm32.338-3.698c-.771-5.847-4.198-9.802-9.669-9.802-5.398 0-8.895 3.87-9.923 9.802h19.592Zm25.087 13.017v-21.601H270V200.65h5.425V189h12.892v11.65H299v11.057h-10.683v19.475c0 2.981 1.272 4.421 4.161 4.421a13.1 13.1 0 0 0 6.359-1.615v10.374c-2.714 1.615-5.85 2.638-10.175 2.638-7.893 0-13.237-3.148-13.237-13.692ZM27.301 308.255l4.435-9.662c4.69 2.627 9.379 4.16 15.43 4.16 8.868 0 13.046-4.24 13.046-12.374v-2.205c-3.838 4.575-8.016 7.374-14.922 7.374-10.658 0-20.29-7.725-20.29-21.359C25 260.627 34.806 253 45.29 253c7.077 0 11.255 2.971 14.751 6.78v-5.942H73v35.177c0 8.138-1.96 14.071-5.798 17.882C62.94 311.137 56.374 313 47.507 313c-7.417 0-14.408-1.693-20.206-4.745Zm32.91-34.072c0-6.188-4.859-10.511-11.168-10.511-6.309 0-11.084 4.323-11.084 10.681 0 6.272 4.781 10.508 11.084 10.508s11.169-4.323 11.169-10.678ZM85 253.88h13.177v9.292c2.689-6.367 7.022-10.496 14.823-10.152v13.681h-.693c-8.755 0-14.13 5.249-14.13 16.261V300H85v-46.12ZM118 277c0-13.247 10.475-24 24.581-24C156.608 253 167 263.581 167 277c0 13.247-10.478 24-24.581 24-14.027-.003-24.419-10.584-24.419-24Zm36.33 0c0-6.797-4.815-12.731-11.914-12.731-7.351 0-11.743 5.762-11.743 12.731 0 6.797 4.815 12.731 11.911 12.731 7.351-.003 11.746-5.765 11.746-12.731Zm21.67 6.871V254h13.001v25.737c0 6.198 2.909 9.381 7.872 9.381 4.962 0 8.125-3.183 8.125-9.381V254H218v46.14h-13.002v-6.541C202 297.473 198.156 301 191.568 301c-9.838-.003-15.568-6.541-15.568-17.129Zm53-30.031h12.959v6.555c3.156-4.252 7.504-7.395 14.24-7.395 10.658 0 20.801 8.342 20.801 23.713 0 15.213-9.973 23.538-20.801 23.538-6.906 0-11.171-3.143-14.24-6.799V313H229v-59.16Zm35.041 22.695c0-7.565-5.116-12.58-11.168-12.58s-11.085 5.006-11.085 12.752c0 7.565 5.033 12.58 11.085 12.58 6.052 0 11.168-4.931 11.168-12.752Z" fill="#111415"/></svg>